*
%LPD*%
%LNTop Mask*%
%FSLAX25Y25*%
%MOIN*%
%AD*%
%AD*%
%ADD11R,0.095275591X0.2*%
%ADD15R,0.111023622X0.215748031*%
%ADD18R,0.09015748X0.2*%
%ADD19R,0.105905512X0.215748031*%
%ADD22R,0.066929134X0.066929134*%
%ADD23C,0.066929134*%
%ADD24R,0.102362205X0.102362205*%
%ADD25C,0.102362205*%
%ADD26R,0.125984252X0.125984252*%
%ADD27C,0.125984252*%
%ADD42R,0.039370079X0.035433071*%
%ADD43R,0.035433071X0.039370079*%
%ADD44R,0.094488189X0.05511811*%
%ADD46R,0.078740157X0.062992126*%
%ADD47R,0.094488189X0.196850394*%
%ADD48R,0.106299213X0.125984252*%
%ADD49O,0.08X0.1*%
%ADD52R,0.047244094X0.125984252*%
%ADD55R,0.2X0.09015748*%
%ADD56R,0.2X0.095275591*%
G54D19*
%SRX1Y1I0.0J0.0*%
G1X69500Y15228D3*
G54D15*
G1X52256Y15228D3*
G1X86744Y15228D3*
G54D19*
G1X243800Y135628D3*
G54D15*
G1X226556Y135628D3*
G1X261044Y135628D3*
G54D22*
G1X456150Y221950D3*
G54D23*
G1X456150Y231950D3*
G54D46*
G1X415776Y71950D3*
G1X431524Y71950D3*
G1X413276Y326950D3*
G1X429024Y326950D3*
G54D47*
G1X472370Y409450D3*
G1X499930Y409450D3*
G54D46*
G1X420776Y484450D3*
G1X436524Y484450D3*
G54D24*
G1X381150Y239450D3*
G54D25*
G1X381150Y179450D3*
G54D24*
G1X413650Y199450D3*
G54D25*
G1X413650Y139450D3*
G54D24*
G1X413650Y296950D3*
G54D25*
G1X413650Y236950D3*
G54D24*
G1X368650Y339450D3*
G54D25*
G1X368650Y399450D3*
G54D24*
G1X403650Y459450D3*
G54D25*
G1X463650Y459450D3*
G54D22*
G1X416150Y26950D3*
G54D23*
G1X426150Y26950D3*
G54D22*
G1X378650Y544450D3*
G54D23*
G1X368650Y544450D3*
G54D22*
G1X421150Y544450D3*
G54D23*
G1X411150Y544450D3*
G54D22*
G1X458650Y544450D3*
G54D23*
G1X448650Y544450D3*
G54D22*
G1X498650Y544450D3*
G54D23*
G1X488650Y544450D3*
G54D26*
G1X481150Y186950D3*
G54D27*
G1X481150Y126950D3*
G54D48*
G1X411701Y101950D3*
G1X380599Y101950D3*
G1X450599Y101950D3*
G1X481701Y101950D3*
G1X403099Y411950D3*
G1X434201Y411950D3*
G1X468099Y369450D3*
G1X499201Y369450D3*
G54D49*
G1X413650Y369450D3*
G1X403650Y369450D3*
G1X423650Y369450D3*
G54D19*
G1X261350Y16178D3*
G54D15*
G1X244106Y16178D3*
G1X278594Y16178D3*
G54D19*
G1X27800Y214928D3*
G54D15*
G1X10556Y214928D3*
G1X45044Y214928D3*
G54D42*
G1X252015Y264400D3*
G1X247685Y264400D3*
G54D43*
G1X252000Y268585D3*
G1X252000Y272915D3*
G54D42*
G1X252015Y277100D3*
G1X247685Y277100D3*
G54D19*
G1X252000Y230378D3*
G54D15*
G1X234756Y230378D3*
G1X269244Y230378D3*
G54D44*
G1X229541Y286372D3*
G1X251982Y286372D3*
G1X251982Y295428D3*
G1X212218Y286372D3*
G1X212218Y295428D3*
G54D18*
G1X113100Y215278D3*
G54D11*
G1X95856Y215278D3*
G1X130344Y215278D3*
G54D19*
G1X64039Y348669D3*
G54D15*
G1X46795Y348669D3*
G1X81283Y348669D3*
G54D52*
G1X145036Y394260D3*
G54D44*
G1X149839Y408000D3*
G1X149839Y380441D3*
G54D52*
G1X154643Y394220D3*
G54D55*
G1X209125Y357047D3*
G54D56*
G1X209125Y374291D3*
G1X209125Y339802D3*
G54D18*
G1X29000Y436678D3*
G54D11*
G1X11756Y436678D3*
G1X46244Y436678D3*
G54D55*
G1X209125Y439447D3*
G54D56*
G1X209125Y456691D3*
G1X209125Y422202D3*
G54D18*
G1X113700Y436578D3*
G54D11*
G1X96456Y436578D3*
G1X130944Y436578D3*
G54D18*
G1X224000Y487278D3*
G54D11*
G1X206756Y487278D3*
G1X241244Y487278D3*
M2*
