M48
INCH,TZ
FMAT,2
ICI,OFF
T01C.018
T02C.039
T03C.01
T04C.051
T05C.063
T06C.016
T07C.045
T08C.011
T09C.012
%
T01
G05
X1056Y22847
X1176Y45022
X5226Y2877
X4504Y22847
X4680Y36221
X4624Y45022
X8128Y36221
X8674Y2877
X9586Y22882
X9646Y45012
X13034Y22882
X13094Y45012
X20676Y50082
X22656Y14917
X22267Y33981
X22267Y37429
X22267Y42221
X22267Y45669
X24411Y2972
X23476Y24392
X24124Y50082
X26104Y14917
X27859Y2972
X26924Y24392
T09
X10485Y30650
T08
X1910Y26040
X1910Y26340
X1610Y26340
X3600Y26040
X3900Y26340
X3600Y26340
X4200Y26340
X4500Y26340
X4800Y26340
X5100Y26340
X5400Y26340
X6000Y26340
X5700Y26340
X6300Y26340
X5485Y26890
X6900Y26340
X7200Y26340
X7500Y26340
X6600Y26340
T06
X1381Y33994
X594Y33994
X594Y34781
X594Y35569
X594Y36356
X594Y37143
X594Y37931
X594Y38718
X594Y39506
X594Y40293
X594Y41080
X1381Y41080
X2169Y33994
X3743Y33994
X2956Y33994
X2169Y41080
X2956Y41080
X3743Y41080
X3743Y36257
X3743Y35569
X3743Y34781
X4826Y36848
X4039Y36848
X4531Y41080
X5318Y41080
X5909Y37439
X5712Y36848
X5712Y36257
X6991Y36257
X6106Y41080
X7287Y37635
X8074Y37635
X6598Y37635
X7680Y41080
X6893Y41080
X9255Y33994
X9058Y34781
X9058Y35667
X9058Y36454
X9747Y36454
X9747Y37635
X8861Y37635
X9255Y41080
X8468Y41080
X11617Y33994
X10830Y33994
X10043Y33994
X10535Y36454
X10043Y41080
X11322Y37635
X11322Y36454
X10535Y37635
X10830Y41080
X12405Y33994
X12109Y36454
X12011Y37635
X12405Y41080
X11617Y41080
X13192Y33994
X12798Y36454
X12700Y37635
X14767Y33994
X13980Y33994
X14078Y36454
X13487Y36454
X13192Y37931
X13192Y38718
X13192Y39506
X13192Y40293
X13192Y41080
X15554Y36356
X15554Y35569
X15554Y34781
X15554Y33994
X14767Y36454
X15554Y37143
X43115Y4945
X46865Y32695
X49865Y46695
T03
X2075Y45450
X10545Y45440
X12095Y45015
X12445Y45365
X12795Y45365
X12095Y45365
X13495Y45365
X13145Y45365
X13845Y45365
X14195Y45365
X14545Y45365
X15245Y45365
X14895Y45365
X15945Y45365
X15595Y45365
X20250Y7000
X20455Y17880
X20155Y26440
X20155Y27710
X21320Y17880
X21430Y7000
X22610Y7000
X23050Y17880
X22185Y17880
X21555Y26440
X21555Y27710
X21575Y50510
X23790Y7000
X23915Y17880
X22955Y26440
X22955Y27710
X23125Y50085
X23125Y50435
X24970Y7000
X24845Y17880
X24355Y26440
X24355Y27710
X24525Y50435
X23825Y50435
X23475Y50435
X24175Y50435
X24875Y50435
X25225Y50435
X25710Y17880
X27300Y7000
X27440Y17880
X26575Y17880
X26515Y26440
X26515Y27710
X25575Y50435
X26275Y50435
X25925Y50435
X26975Y50435
X26625Y50435
X28480Y7000
X29170Y17880
X28305Y17880
X29660Y7000
X30840Y7000
X30035Y17880
X30035Y36530
X30035Y44770
T02
X37865Y54445
X36865Y54445
X41115Y54445
X41615Y2695
X42615Y2695
X42115Y54445
X45615Y23195
X45615Y22195
X44865Y54445
X45865Y54445
X49865Y54445
X48865Y54445
T07
X41365Y36945
X40365Y36945
X42365Y36945
T04
X36865Y33945
X36865Y39945
X38115Y23945
X38115Y17945
X41365Y13945
X41365Y19945
X41365Y23695
X41365Y29695
X40365Y45945
X46365Y45945
T05
X48115Y12695
X48115Y18695
M30
