*
%LPD*%
%LNMargin*%
%FSLAX25Y25*%
%MOIN*%
%AD*%
%AD*%
%ADD16C,0.007874016*%
G54D16*
%SRX1Y1I0.0J0.0*%
G1X187000Y2000D2*
G1X2000Y2000D1*
G1X187000Y192000D2*
G1X187000Y2000D1*
G1X2000Y192000D2*
G1X187000Y192000D1*
G1X2000Y2000D2*
G1X2000Y192000D1*
G1X305700Y121400D2*
G1X197000Y121400D1*
G1X305700Y208400D2*
G1X305700Y121400D1*
G1X197000Y208400D2*
G1X305700Y208400D1*
G1X197000Y121400D2*
G1X197000Y208400D1*
G1X513450Y569450D2*
G1X513450Y1950D1*
G1X333450Y569450D2*
G1X513450Y569450D1*
G1X333500Y2000D2*
G1X333500Y569500D1*
G1X513450Y1950D2*
G1X333450Y1950D1*
G1X320700Y2000D2*
G1X197000Y2000D1*
G1X320700Y111400D2*
G1X320700Y2000D1*
G1X197000Y111400D2*
G1X320700Y111400D1*
G1X197000Y2000D2*
G1X197000Y111400D1*
G1X76100Y202000D2*
G1X2000Y202000D1*
G1X76100Y298900D2*
G1X76100Y202000D1*
G1X76000Y298900D2*
G1X76100Y298900D1*
G1X2000Y298900D2*
G1X76000Y298900D1*
G1X2000Y202000D2*
G1X2000Y298900D1*
G1X276100Y300550D2*
G1X197000Y300550D1*
G1X276100Y218400D2*
G1X276100Y300550D1*
G1X197000Y218400D2*
G1X276100Y218400D1*
G1X197000Y300550D2*
G1X197000Y218400D1*
G1X160800Y202000D2*
G1X86100Y202000D1*
G1X160800Y328000D2*
G1X160800Y202000D1*
G1X101100Y328000D2*
G1X160800Y328000D1*
G1X101100Y253500D2*
G1X101100Y328000D1*
G1X86100Y238500D2*
G1X101100Y253500D1*
G1X86100Y202000D2*
G1X86100Y238500D1*
G1X159480Y414740D2*
G1X2000Y414740D1*
G1X159480Y336000D2*
G1X159480Y414740D1*
G1X2000Y336000D2*
G1X159480Y336000D1*
G1X2000Y414740D2*
G1X2000Y336000D1*
G1X17000Y455500D2*
G1X17000Y476000D1*
G1X2000Y455500D2*
G1X17000Y455500D1*
G1X2000Y424700D2*
G1X2000Y455500D1*
G1X76700Y424700D2*
G1X2000Y424700D1*
G1X76700Y476000D2*
G1X76700Y424700D1*
G1X17000Y476000D2*
G1X76700Y476000D1*
G1X101700Y455400D2*
G1X101700Y475900D1*
G1X86700Y455400D2*
G1X101700Y455400D1*
G1X86700Y424600D2*
G1X86700Y455400D1*
G1X161400Y424600D2*
G1X86700Y424600D1*
G1X161400Y475900D2*
G1X161400Y424600D1*
G1X101700Y475900D2*
G1X161400Y475900D1*
G1X212000Y506100D2*
G1X212000Y526600D1*
G1X197000Y506100D2*
G1X212000Y506100D1*
G1X197000Y475300D2*
G1X197000Y506100D1*
G1X271700Y475300D2*
G1X197000Y475300D1*
G1X271700Y526600D2*
G1X271700Y475300D1*
G1X212000Y526600D2*
G1X271700Y526600D1*
M2*
