%FSLAX45Y45*%
G04 Gerber Fmt 4.5, Leading zero omitted, Abs format (unit mm)*
G04 Created by KiCad (PCBNEW 4.0.5) date 02/20/17 22:52:27*
%MOMM*%
%LPD*%
G01*
G04 APERTURE LIST*
%ADD10C,0.127000*%
%ADD11C,0.200000*%
%ADD12C,0.300000*%
G04 APERTURE END LIST*
D10*
D11*
X12556500Y-9393500D02*
X12602500Y-9439500D01*
X12602500Y-9393500D02*
X12556500Y-9439500D01*
X13432500Y-9393500D02*
X13478500Y-9439500D01*
X13478500Y-9393500D02*
X13432500Y-9439500D01*
D12*
X271429Y-465714D02*
X271429Y-165714D01*
X342857Y-165714D01*
X385714Y-180000D01*
X414286Y-208571D01*
X428571Y-237143D01*
X442857Y-294286D01*
X442857Y-337143D01*
X428571Y-394286D01*
X414286Y-422857D01*
X385714Y-451429D01*
X342857Y-465714D01*
X271429Y-465714D01*
X571429Y-465714D02*
X571429Y-265714D01*
X571429Y-322857D02*
X585714Y-294286D01*
X600000Y-280000D01*
X628571Y-265714D01*
X657143Y-265714D01*
X757143Y-465714D02*
X757143Y-265714D01*
X757143Y-165714D02*
X742857Y-180000D01*
X757143Y-194286D01*
X771429Y-180000D01*
X757143Y-165714D01*
X757143Y-194286D01*
X942857Y-465714D02*
X914286Y-451429D01*
X900000Y-422857D01*
X900000Y-165714D01*
X1100000Y-465714D02*
X1071429Y-451429D01*
X1057143Y-422857D01*
X1057143Y-165714D01*
X1442857Y-465714D02*
X1442857Y-165714D01*
X1542857Y-380000D01*
X1642857Y-165714D01*
X1642857Y-465714D01*
X1914286Y-465714D02*
X1914286Y-308571D01*
X1900000Y-280000D01*
X1871429Y-265714D01*
X1814286Y-265714D01*
X1785714Y-280000D01*
X1914286Y-451429D02*
X1885714Y-465714D01*
X1814286Y-465714D01*
X1785714Y-451429D01*
X1771429Y-422857D01*
X1771429Y-394286D01*
X1785714Y-365714D01*
X1814286Y-351429D01*
X1885714Y-351429D01*
X1914286Y-337143D01*
X2057143Y-265714D02*
X2057143Y-565714D01*
X2057143Y-280000D02*
X2085714Y-265714D01*
X2142857Y-265714D01*
X2171429Y-280000D01*
X2185714Y-294286D01*
X2200000Y-322857D01*
X2200000Y-408571D01*
X2185714Y-437143D01*
X2171429Y-451429D01*
X2142857Y-465714D01*
X2085714Y-465714D01*
X2057143Y-451429D01*
X2328572Y-437143D02*
X2342857Y-451429D01*
X2328572Y-465714D01*
X2314286Y-451429D01*
X2328572Y-437143D01*
X2328572Y-465714D01*
X2328572Y-280000D02*
X2342857Y-294286D01*
X2328572Y-308571D01*
X2314286Y-294286D01*
X2328572Y-280000D01*
X2328572Y-308571D01*
X-46000Y-937000D02*
X0Y-983000D01*
X0Y-937000D02*
X-46000Y-983000D01*
X328571Y-795714D02*
X357143Y-795714D01*
X385714Y-810000D01*
X400000Y-824286D01*
X414286Y-852857D01*
X428571Y-910000D01*
X428571Y-981429D01*
X414286Y-1038571D01*
X400000Y-1067143D01*
X385714Y-1081429D01*
X357143Y-1095714D01*
X328571Y-1095714D01*
X300000Y-1081429D01*
X285714Y-1067143D01*
X271429Y-1038571D01*
X257143Y-981429D01*
X257143Y-910000D01*
X271429Y-852857D01*
X285714Y-824286D01*
X300000Y-810000D01*
X328571Y-795714D01*
X557143Y-1067143D02*
X571429Y-1081429D01*
X557143Y-1095714D01*
X542857Y-1081429D01*
X557143Y-1067143D01*
X557143Y-1095714D01*
X828571Y-895714D02*
X828571Y-1095714D01*
X757143Y-781429D02*
X685714Y-995714D01*
X871428Y-995714D01*
X1114286Y-795714D02*
X1057143Y-795714D01*
X1028571Y-810000D01*
X1014286Y-824286D01*
X985714Y-867143D01*
X971429Y-924286D01*
X971429Y-1038571D01*
X985714Y-1067143D01*
X1000000Y-1081429D01*
X1028571Y-1095714D01*
X1085714Y-1095714D01*
X1114286Y-1081429D01*
X1128571Y-1067143D01*
X1142857Y-1038571D01*
X1142857Y-967143D01*
X1128571Y-938571D01*
X1114286Y-924286D01*
X1085714Y-910000D01*
X1028571Y-910000D01*
X1000000Y-924286D01*
X985714Y-938571D01*
X971429Y-967143D01*
X1271429Y-1095714D02*
X1271429Y-895714D01*
X1271429Y-924286D02*
X1285714Y-910000D01*
X1314286Y-895714D01*
X1357143Y-895714D01*
X1385714Y-910000D01*
X1400000Y-938571D01*
X1400000Y-1095714D01*
X1400000Y-938571D02*
X1414286Y-910000D01*
X1442857Y-895714D01*
X1485714Y-895714D01*
X1514286Y-910000D01*
X1528571Y-938571D01*
X1528571Y-1095714D01*
X1671429Y-1095714D02*
X1671429Y-895714D01*
X1671429Y-924286D02*
X1685714Y-910000D01*
X1714286Y-895714D01*
X1757143Y-895714D01*
X1785714Y-910000D01*
X1800000Y-938571D01*
X1800000Y-1095714D01*
X1800000Y-938571D02*
X1814286Y-910000D01*
X1842857Y-895714D01*
X1885714Y-895714D01*
X1914286Y-910000D01*
X1928571Y-938571D01*
X1928571Y-1095714D01*
X2514286Y-781429D02*
X2257143Y-1167143D01*
X2900000Y-795714D02*
X2928571Y-795714D01*
X2957143Y-810000D01*
X2971428Y-824286D01*
X2985714Y-852857D01*
X3000000Y-910000D01*
X3000000Y-981429D01*
X2985714Y-1038571D01*
X2971428Y-1067143D01*
X2957143Y-1081429D01*
X2928571Y-1095714D01*
X2900000Y-1095714D01*
X2871428Y-1081429D01*
X2857143Y-1067143D01*
X2842857Y-1038571D01*
X2828571Y-981429D01*
X2828571Y-910000D01*
X2842857Y-852857D01*
X2857143Y-824286D01*
X2871428Y-810000D01*
X2900000Y-795714D01*
X3128571Y-1067143D02*
X3142857Y-1081429D01*
X3128571Y-1095714D01*
X3114286Y-1081429D01*
X3128571Y-1067143D01*
X3128571Y-1095714D01*
X3328571Y-795714D02*
X3357143Y-795714D01*
X3385714Y-810000D01*
X3400000Y-824286D01*
X3414286Y-852857D01*
X3428571Y-910000D01*
X3428571Y-981429D01*
X3414286Y-1038571D01*
X3400000Y-1067143D01*
X3385714Y-1081429D01*
X3357143Y-1095714D01*
X3328571Y-1095714D01*
X3300000Y-1081429D01*
X3285714Y-1067143D01*
X3271428Y-1038571D01*
X3257143Y-981429D01*
X3257143Y-910000D01*
X3271428Y-852857D01*
X3285714Y-824286D01*
X3300000Y-810000D01*
X3328571Y-795714D01*
X3714286Y-1095714D02*
X3542857Y-1095714D01*
X3628571Y-1095714D02*
X3628571Y-795714D01*
X3600000Y-838571D01*
X3571428Y-867143D01*
X3542857Y-881429D01*
X3885714Y-924286D02*
X3857143Y-910000D01*
X3842857Y-895714D01*
X3828571Y-867143D01*
X3828571Y-852857D01*
X3842857Y-824286D01*
X3857143Y-810000D01*
X3885714Y-795714D01*
X3942857Y-795714D01*
X3971428Y-810000D01*
X3985714Y-824286D01*
X4000000Y-852857D01*
X4000000Y-867143D01*
X3985714Y-895714D01*
X3971428Y-910000D01*
X3942857Y-924286D01*
X3885714Y-924286D01*
X3857143Y-938571D01*
X3842857Y-952857D01*
X3828571Y-981429D01*
X3828571Y-1038571D01*
X3842857Y-1067143D01*
X3857143Y-1081429D01*
X3885714Y-1095714D01*
X3942857Y-1095714D01*
X3971428Y-1081429D01*
X3985714Y-1067143D01*
X4000000Y-1038571D01*
X4000000Y-981429D01*
X3985714Y-952857D01*
X3971428Y-938571D01*
X3942857Y-924286D01*
X4114286Y-795714D02*
X4114286Y-852857D01*
X4228571Y-795714D02*
X4228571Y-852857D01*
X4671429Y-1210000D02*
X4657143Y-1195714D01*
X4628571Y-1152857D01*
X4614286Y-1124286D01*
X4600000Y-1081429D01*
X4585714Y-1010000D01*
X4585714Y-952857D01*
X4600000Y-881429D01*
X4614286Y-838571D01*
X4628571Y-810000D01*
X4657143Y-767143D01*
X4671429Y-752857D01*
X4771429Y-824286D02*
X4785714Y-810000D01*
X4814286Y-795714D01*
X4885714Y-795714D01*
X4914286Y-810000D01*
X4928571Y-824286D01*
X4942857Y-852857D01*
X4942857Y-881429D01*
X4928571Y-924286D01*
X4757143Y-1095714D01*
X4942857Y-1095714D01*
X5300000Y-1095714D02*
X5300000Y-795714D01*
X5428571Y-1095714D02*
X5428571Y-938571D01*
X5414286Y-910000D01*
X5385714Y-895714D01*
X5342857Y-895714D01*
X5314286Y-910000D01*
X5300000Y-924286D01*
X5614286Y-1095714D02*
X5585714Y-1081429D01*
X5571429Y-1067143D01*
X5557143Y-1038571D01*
X5557143Y-952857D01*
X5571429Y-924286D01*
X5585714Y-910000D01*
X5614286Y-895714D01*
X5657143Y-895714D01*
X5685714Y-910000D01*
X5700000Y-924286D01*
X5714286Y-952857D01*
X5714286Y-1038571D01*
X5700000Y-1067143D01*
X5685714Y-1081429D01*
X5657143Y-1095714D01*
X5614286Y-1095714D01*
X5885714Y-1095714D02*
X5857143Y-1081429D01*
X5842857Y-1052857D01*
X5842857Y-795714D01*
X6114286Y-1081429D02*
X6085714Y-1095714D01*
X6028571Y-1095714D01*
X6000000Y-1081429D01*
X5985714Y-1052857D01*
X5985714Y-938571D01*
X6000000Y-910000D01*
X6028571Y-895714D01*
X6085714Y-895714D01*
X6114286Y-910000D01*
X6128571Y-938571D01*
X6128571Y-967143D01*
X5985714Y-995714D01*
X6242857Y-1081429D02*
X6271429Y-1095714D01*
X6328571Y-1095714D01*
X6357143Y-1081429D01*
X6371429Y-1052857D01*
X6371429Y-1038571D01*
X6357143Y-1010000D01*
X6328571Y-995714D01*
X6285714Y-995714D01*
X6257143Y-981429D01*
X6242857Y-952857D01*
X6242857Y-938571D01*
X6257143Y-910000D01*
X6285714Y-895714D01*
X6328571Y-895714D01*
X6357143Y-910000D01*
X6471428Y-1210000D02*
X6485714Y-1195714D01*
X6514286Y-1152857D01*
X6528571Y-1124286D01*
X6542857Y-1081429D01*
X6557143Y-1010000D01*
X6557143Y-952857D01*
X6542857Y-881429D01*
X6528571Y-838571D01*
X6514286Y-810000D01*
X6485714Y-767143D01*
X6471428Y-752857D01*
M02*
