G04 #@! TF.FileFunction,Copper,L2,Bot,Signal*
%FSLAX46Y46*%
G04 Gerber Fmt 4.6, Leading zero omitted, Abs format (unit mm)*
G04 Created by KiCad (PCBNEW 4.0.5) date 02/22/17 14:21:07*
%MOMM*%
%LPD*%
G01*
G04 APERTURE LIST*
%ADD10C,0.127000*%
%ADD11R,2.420000X5.080000*%
%ADD12C,0.970000*%
%ADD13R,0.460000X0.890000*%
%ADD14C,0.254000*%
G04 APERTURE END LIST*
D10*
D11*
X12765000Y3360000D03*
X21525000Y3360000D03*
D12*
X12765000Y6800000D03*
X21525000Y6800000D03*
D13*
X12765000Y6350000D03*
X21525000Y6350000D03*
D14*
G36*
X46863000Y127000D02*
X127000Y127000D01*
X127000Y3074250D01*
X10920000Y3074250D01*
X10920000Y693691D01*
X11016673Y460302D01*
X11195301Y281673D01*
X11428690Y185000D01*
X12479250Y185000D01*
X12638000Y343750D01*
X12638000Y3233000D01*
X12892000Y3233000D01*
X12892000Y343750D01*
X13050750Y185000D01*
X14101310Y185000D01*
X14334699Y281673D01*
X14513327Y460302D01*
X14610000Y693691D01*
X14610000Y3074250D01*
X19680000Y3074250D01*
X19680000Y693691D01*
X19776673Y460302D01*
X19955301Y281673D01*
X20188690Y185000D01*
X21239250Y185000D01*
X21398000Y343750D01*
X21398000Y3233000D01*
X21652000Y3233000D01*
X21652000Y343750D01*
X21810750Y185000D01*
X22861310Y185000D01*
X23094699Y281673D01*
X23273327Y460302D01*
X23370000Y693691D01*
X23370000Y3074250D01*
X23211250Y3233000D01*
X21652000Y3233000D01*
X21398000Y3233000D01*
X19838750Y3233000D01*
X19680000Y3074250D01*
X14610000Y3074250D01*
X14451250Y3233000D01*
X12892000Y3233000D01*
X12638000Y3233000D01*
X11078750Y3233000D01*
X10920000Y3074250D01*
X127000Y3074250D01*
X127000Y6026309D01*
X10920000Y6026309D01*
X10920000Y3645750D01*
X11078750Y3487000D01*
X12638000Y3487000D01*
X12638000Y3507000D01*
X12892000Y3507000D01*
X12892000Y3487000D01*
X14451250Y3487000D01*
X14610000Y3645750D01*
X14610000Y6026309D01*
X19680000Y6026309D01*
X19680000Y3645750D01*
X19838750Y3487000D01*
X21398000Y3487000D01*
X21398000Y3507000D01*
X21652000Y3507000D01*
X21652000Y3487000D01*
X23211250Y3487000D01*
X23370000Y3645750D01*
X23370000Y6026309D01*
X23273327Y6259698D01*
X23094699Y6438327D01*
X22861310Y6535000D01*
X22617129Y6535000D01*
X22658149Y6658564D01*
X22626018Y7102968D01*
X22517768Y7364308D01*
X22304200Y7399595D01*
X22176315Y7271710D01*
X22114699Y7333327D01*
X21947838Y7402443D01*
X22124595Y7579200D01*
X22089308Y7792768D01*
X21666436Y7933149D01*
X21222032Y7901018D01*
X20960692Y7792768D01*
X20925405Y7579200D01*
X21102162Y7402443D01*
X20935301Y7333327D01*
X20873685Y7271710D01*
X20745800Y7399595D01*
X20532232Y7364308D01*
X20391851Y6941436D01*
X20421237Y6535000D01*
X20188690Y6535000D01*
X19955301Y6438327D01*
X19776673Y6259698D01*
X19680000Y6026309D01*
X14610000Y6026309D01*
X14513327Y6259698D01*
X14334699Y6438327D01*
X14101310Y6535000D01*
X13857129Y6535000D01*
X13898149Y6658564D01*
X13866018Y7102968D01*
X13757768Y7364308D01*
X13544200Y7399595D01*
X13416315Y7271710D01*
X13354699Y7333327D01*
X13187838Y7402443D01*
X13364595Y7579200D01*
X13329308Y7792768D01*
X12906436Y7933149D01*
X12462032Y7901018D01*
X12200692Y7792768D01*
X12165405Y7579200D01*
X12342162Y7402443D01*
X12175301Y7333327D01*
X12113685Y7271710D01*
X11985800Y7399595D01*
X11772232Y7364308D01*
X11631851Y6941436D01*
X11661237Y6535000D01*
X11428690Y6535000D01*
X11195301Y6438327D01*
X11016673Y6259698D01*
X10920000Y6026309D01*
X127000Y6026309D01*
X127000Y48133000D01*
X46863000Y48133000D01*
X46863000Y127000D01*
X46863000Y127000D01*
G37*
X46863000Y127000D02*
X127000Y127000D01*
X127000Y3074250D01*
X10920000Y3074250D01*
X10920000Y693691D01*
X11016673Y460302D01*
X11195301Y281673D01*
X11428690Y185000D01*
X12479250Y185000D01*
X12638000Y343750D01*
X12638000Y3233000D01*
X12892000Y3233000D01*
X12892000Y343750D01*
X13050750Y185000D01*
X14101310Y185000D01*
X14334699Y281673D01*
X14513327Y460302D01*
X14610000Y693691D01*
X14610000Y3074250D01*
X19680000Y3074250D01*
X19680000Y693691D01*
X19776673Y460302D01*
X19955301Y281673D01*
X20188690Y185000D01*
X21239250Y185000D01*
X21398000Y343750D01*
X21398000Y3233000D01*
X21652000Y3233000D01*
X21652000Y343750D01*
X21810750Y185000D01*
X22861310Y185000D01*
X23094699Y281673D01*
X23273327Y460302D01*
X23370000Y693691D01*
X23370000Y3074250D01*
X23211250Y3233000D01*
X21652000Y3233000D01*
X21398000Y3233000D01*
X19838750Y3233000D01*
X19680000Y3074250D01*
X14610000Y3074250D01*
X14451250Y3233000D01*
X12892000Y3233000D01*
X12638000Y3233000D01*
X11078750Y3233000D01*
X10920000Y3074250D01*
X127000Y3074250D01*
X127000Y6026309D01*
X10920000Y6026309D01*
X10920000Y3645750D01*
X11078750Y3487000D01*
X12638000Y3487000D01*
X12638000Y3507000D01*
X12892000Y3507000D01*
X12892000Y3487000D01*
X14451250Y3487000D01*
X14610000Y3645750D01*
X14610000Y6026309D01*
X19680000Y6026309D01*
X19680000Y3645750D01*
X19838750Y3487000D01*
X21398000Y3487000D01*
X21398000Y3507000D01*
X21652000Y3507000D01*
X21652000Y3487000D01*
X23211250Y3487000D01*
X23370000Y3645750D01*
X23370000Y6026309D01*
X23273327Y6259698D01*
X23094699Y6438327D01*
X22861310Y6535000D01*
X22617129Y6535000D01*
X22658149Y6658564D01*
X22626018Y7102968D01*
X22517768Y7364308D01*
X22304200Y7399595D01*
X22176315Y7271710D01*
X22114699Y7333327D01*
X21947838Y7402443D01*
X22124595Y7579200D01*
X22089308Y7792768D01*
X21666436Y7933149D01*
X21222032Y7901018D01*
X20960692Y7792768D01*
X20925405Y7579200D01*
X21102162Y7402443D01*
X20935301Y7333327D01*
X20873685Y7271710D01*
X20745800Y7399595D01*
X20532232Y7364308D01*
X20391851Y6941436D01*
X20421237Y6535000D01*
X20188690Y6535000D01*
X19955301Y6438327D01*
X19776673Y6259698D01*
X19680000Y6026309D01*
X14610000Y6026309D01*
X14513327Y6259698D01*
X14334699Y6438327D01*
X14101310Y6535000D01*
X13857129Y6535000D01*
X13898149Y6658564D01*
X13866018Y7102968D01*
X13757768Y7364308D01*
X13544200Y7399595D01*
X13416315Y7271710D01*
X13354699Y7333327D01*
X13187838Y7402443D01*
X13364595Y7579200D01*
X13329308Y7792768D01*
X12906436Y7933149D01*
X12462032Y7901018D01*
X12200692Y7792768D01*
X12165405Y7579200D01*
X12342162Y7402443D01*
X12175301Y7333327D01*
X12113685Y7271710D01*
X11985800Y7399595D01*
X11772232Y7364308D01*
X11631851Y6941436D01*
X11661237Y6535000D01*
X11428690Y6535000D01*
X11195301Y6438327D01*
X11016673Y6259698D01*
X10920000Y6026309D01*
X127000Y6026309D01*
X127000Y48133000D01*
X46863000Y48133000D01*
X46863000Y127000D01*
M02*
