G04 #@! TF.FileFunction,Copper,L2,Bot,Signal*
%FSLAX46Y46*%
G04 Gerber Fmt 4.6, Leading zero omitted, Abs format (unit mm)*
G04 Created by KiCad (PCBNEW 4.0.5) date 02/20/17 22:52:26*
%MOMM*%
%LPD*%
G01*
G04 APERTURE LIST*
%ADD10C,0.100000*%
%ADD11R,2.420000X5.080000*%
%ADD12C,0.970000*%
%ADD13R,0.460000X0.890000*%
%ADD14C,0.254000*%
G04 APERTURE END LIST*
D10*
D11*
X125795000Y-97605000D03*
X134555000Y-97605000D03*
D12*
X125795000Y-94165000D03*
X134555000Y-94165000D03*
D13*
X125795000Y-94615000D03*
X134555000Y-94615000D03*
D14*
G36*
X159893000Y-100838000D02*
X113157000Y-100838000D01*
X113157000Y-97890750D01*
X123950000Y-97890750D01*
X123950000Y-100271309D01*
X124046673Y-100504698D01*
X124225301Y-100683327D01*
X124458690Y-100780000D01*
X125509250Y-100780000D01*
X125668000Y-100621250D01*
X125668000Y-97732000D01*
X125922000Y-97732000D01*
X125922000Y-100621250D01*
X126080750Y-100780000D01*
X127131310Y-100780000D01*
X127364699Y-100683327D01*
X127543327Y-100504698D01*
X127640000Y-100271309D01*
X127640000Y-97890750D01*
X132710000Y-97890750D01*
X132710000Y-100271309D01*
X132806673Y-100504698D01*
X132985301Y-100683327D01*
X133218690Y-100780000D01*
X134269250Y-100780000D01*
X134428000Y-100621250D01*
X134428000Y-97732000D01*
X134682000Y-97732000D01*
X134682000Y-100621250D01*
X134840750Y-100780000D01*
X135891310Y-100780000D01*
X136124699Y-100683327D01*
X136303327Y-100504698D01*
X136400000Y-100271309D01*
X136400000Y-97890750D01*
X136241250Y-97732000D01*
X134682000Y-97732000D01*
X134428000Y-97732000D01*
X132868750Y-97732000D01*
X132710000Y-97890750D01*
X127640000Y-97890750D01*
X127481250Y-97732000D01*
X125922000Y-97732000D01*
X125668000Y-97732000D01*
X124108750Y-97732000D01*
X123950000Y-97890750D01*
X113157000Y-97890750D01*
X113157000Y-94938691D01*
X123950000Y-94938691D01*
X123950000Y-97319250D01*
X124108750Y-97478000D01*
X125668000Y-97478000D01*
X125668000Y-97458000D01*
X125922000Y-97458000D01*
X125922000Y-97478000D01*
X127481250Y-97478000D01*
X127640000Y-97319250D01*
X127640000Y-94938691D01*
X132710000Y-94938691D01*
X132710000Y-97319250D01*
X132868750Y-97478000D01*
X134428000Y-97478000D01*
X134428000Y-97458000D01*
X134682000Y-97458000D01*
X134682000Y-97478000D01*
X136241250Y-97478000D01*
X136400000Y-97319250D01*
X136400000Y-94938691D01*
X136303327Y-94705302D01*
X136124699Y-94526673D01*
X135891310Y-94430000D01*
X135647129Y-94430000D01*
X135688149Y-94306436D01*
X135656018Y-93862032D01*
X135547768Y-93600692D01*
X135334200Y-93565405D01*
X135206315Y-93693290D01*
X135144699Y-93631673D01*
X134977838Y-93562557D01*
X135154595Y-93385800D01*
X135119308Y-93172232D01*
X134696436Y-93031851D01*
X134252032Y-93063982D01*
X133990692Y-93172232D01*
X133955405Y-93385800D01*
X134132162Y-93562557D01*
X133965301Y-93631673D01*
X133903685Y-93693290D01*
X133775800Y-93565405D01*
X133562232Y-93600692D01*
X133421851Y-94023564D01*
X133451237Y-94430000D01*
X133218690Y-94430000D01*
X132985301Y-94526673D01*
X132806673Y-94705302D01*
X132710000Y-94938691D01*
X127640000Y-94938691D01*
X127543327Y-94705302D01*
X127364699Y-94526673D01*
X127131310Y-94430000D01*
X126887129Y-94430000D01*
X126928149Y-94306436D01*
X126896018Y-93862032D01*
X126787768Y-93600692D01*
X126574200Y-93565405D01*
X126446315Y-93693290D01*
X126384699Y-93631673D01*
X126217838Y-93562557D01*
X126394595Y-93385800D01*
X126359308Y-93172232D01*
X125936436Y-93031851D01*
X125492032Y-93063982D01*
X125230692Y-93172232D01*
X125195405Y-93385800D01*
X125372162Y-93562557D01*
X125205301Y-93631673D01*
X125143685Y-93693290D01*
X125015800Y-93565405D01*
X124802232Y-93600692D01*
X124661851Y-94023564D01*
X124691237Y-94430000D01*
X124458690Y-94430000D01*
X124225301Y-94526673D01*
X124046673Y-94705302D01*
X123950000Y-94938691D01*
X113157000Y-94938691D01*
X113157000Y-52832000D01*
X159893000Y-52832000D01*
X159893000Y-100838000D01*
X159893000Y-100838000D01*
G37*
X159893000Y-100838000D02*
X113157000Y-100838000D01*
X113157000Y-97890750D01*
X123950000Y-97890750D01*
X123950000Y-100271309D01*
X124046673Y-100504698D01*
X124225301Y-100683327D01*
X124458690Y-100780000D01*
X125509250Y-100780000D01*
X125668000Y-100621250D01*
X125668000Y-97732000D01*
X125922000Y-97732000D01*
X125922000Y-100621250D01*
X126080750Y-100780000D01*
X127131310Y-100780000D01*
X127364699Y-100683327D01*
X127543327Y-100504698D01*
X127640000Y-100271309D01*
X127640000Y-97890750D01*
X132710000Y-97890750D01*
X132710000Y-100271309D01*
X132806673Y-100504698D01*
X132985301Y-100683327D01*
X133218690Y-100780000D01*
X134269250Y-100780000D01*
X134428000Y-100621250D01*
X134428000Y-97732000D01*
X134682000Y-97732000D01*
X134682000Y-100621250D01*
X134840750Y-100780000D01*
X135891310Y-100780000D01*
X136124699Y-100683327D01*
X136303327Y-100504698D01*
X136400000Y-100271309D01*
X136400000Y-97890750D01*
X136241250Y-97732000D01*
X134682000Y-97732000D01*
X134428000Y-97732000D01*
X132868750Y-97732000D01*
X132710000Y-97890750D01*
X127640000Y-97890750D01*
X127481250Y-97732000D01*
X125922000Y-97732000D01*
X125668000Y-97732000D01*
X124108750Y-97732000D01*
X123950000Y-97890750D01*
X113157000Y-97890750D01*
X113157000Y-94938691D01*
X123950000Y-94938691D01*
X123950000Y-97319250D01*
X124108750Y-97478000D01*
X125668000Y-97478000D01*
X125668000Y-97458000D01*
X125922000Y-97458000D01*
X125922000Y-97478000D01*
X127481250Y-97478000D01*
X127640000Y-97319250D01*
X127640000Y-94938691D01*
X132710000Y-94938691D01*
X132710000Y-97319250D01*
X132868750Y-97478000D01*
X134428000Y-97478000D01*
X134428000Y-97458000D01*
X134682000Y-97458000D01*
X134682000Y-97478000D01*
X136241250Y-97478000D01*
X136400000Y-97319250D01*
X136400000Y-94938691D01*
X136303327Y-94705302D01*
X136124699Y-94526673D01*
X135891310Y-94430000D01*
X135647129Y-94430000D01*
X135688149Y-94306436D01*
X135656018Y-93862032D01*
X135547768Y-93600692D01*
X135334200Y-93565405D01*
X135206315Y-93693290D01*
X135144699Y-93631673D01*
X134977838Y-93562557D01*
X135154595Y-93385800D01*
X135119308Y-93172232D01*
X134696436Y-93031851D01*
X134252032Y-93063982D01*
X133990692Y-93172232D01*
X133955405Y-93385800D01*
X134132162Y-93562557D01*
X133965301Y-93631673D01*
X133903685Y-93693290D01*
X133775800Y-93565405D01*
X133562232Y-93600692D01*
X133421851Y-94023564D01*
X133451237Y-94430000D01*
X133218690Y-94430000D01*
X132985301Y-94526673D01*
X132806673Y-94705302D01*
X132710000Y-94938691D01*
X127640000Y-94938691D01*
X127543327Y-94705302D01*
X127364699Y-94526673D01*
X127131310Y-94430000D01*
X126887129Y-94430000D01*
X126928149Y-94306436D01*
X126896018Y-93862032D01*
X126787768Y-93600692D01*
X126574200Y-93565405D01*
X126446315Y-93693290D01*
X126384699Y-93631673D01*
X126217838Y-93562557D01*
X126394595Y-93385800D01*
X126359308Y-93172232D01*
X125936436Y-93031851D01*
X125492032Y-93063982D01*
X125230692Y-93172232D01*
X125195405Y-93385800D01*
X125372162Y-93562557D01*
X125205301Y-93631673D01*
X125143685Y-93693290D01*
X125015800Y-93565405D01*
X124802232Y-93600692D01*
X124661851Y-94023564D01*
X124691237Y-94430000D01*
X124458690Y-94430000D01*
X124225301Y-94526673D01*
X124046673Y-94705302D01*
X123950000Y-94938691D01*
X113157000Y-94938691D01*
X113157000Y-52832000D01*
X159893000Y-52832000D01*
X159893000Y-100838000D01*
M02*
