G04 #@! TF.FileFunction,Copper,L1,Top,Signal*
%FSLAX46Y46*%
G04 Gerber Fmt 4.6, Leading zero omitted, Abs format (unit mm)*
G04 Created by KiCad (PCBNEW 4.0.5) date 02/20/17 22:52:26*
%MOMM*%
%LPD*%
G01*
G04 APERTURE LIST*
%ADD10C,0.100000*%
%ADD11R,2.290000X5.080000*%
%ADD12R,2.420000X5.080000*%
%ADD13C,0.970000*%
%ADD14R,0.460000X0.890000*%
%ADD15C,0.254000*%
G04 APERTURE END LIST*
D10*
D11*
X130175000Y-97605000D03*
D12*
X125795000Y-97605000D03*
X134555000Y-97605000D03*
D13*
X125795000Y-94165000D03*
X134555000Y-94165000D03*
D14*
X125795000Y-94615000D03*
X134555000Y-94615000D03*
D15*
G36*
X155448000Y-90043000D02*
X131495800Y-90043000D01*
X131446390Y-90053006D01*
X131404765Y-90081447D01*
X131377485Y-90123841D01*
X131368800Y-90170000D01*
X131368800Y-94430000D01*
X130460750Y-94430000D01*
X130302000Y-94588750D01*
X130302000Y-97478000D01*
X130322000Y-97478000D01*
X130322000Y-97732000D01*
X130302000Y-97732000D01*
X130302000Y-97752000D01*
X130048000Y-97752000D01*
X130048000Y-97732000D01*
X130028000Y-97732000D01*
X130028000Y-97478000D01*
X130048000Y-97478000D01*
X130048000Y-94588750D01*
X129889250Y-94430000D01*
X128981200Y-94430000D01*
X128981200Y-90170000D01*
X128971194Y-90120590D01*
X128942753Y-90078965D01*
X128900359Y-90051685D01*
X128854200Y-90043000D01*
X117602000Y-90043000D01*
X117602000Y-57277000D01*
X155448000Y-57277000D01*
X155448000Y-90043000D01*
X155448000Y-90043000D01*
G37*
X155448000Y-90043000D02*
X131495800Y-90043000D01*
X131446390Y-90053006D01*
X131404765Y-90081447D01*
X131377485Y-90123841D01*
X131368800Y-90170000D01*
X131368800Y-94430000D01*
X130460750Y-94430000D01*
X130302000Y-94588750D01*
X130302000Y-97478000D01*
X130322000Y-97478000D01*
X130322000Y-97732000D01*
X130302000Y-97732000D01*
X130302000Y-97752000D01*
X130048000Y-97752000D01*
X130048000Y-97732000D01*
X130028000Y-97732000D01*
X130028000Y-97478000D01*
X130048000Y-97478000D01*
X130048000Y-94588750D01*
X129889250Y-94430000D01*
X128981200Y-94430000D01*
X128981200Y-90170000D01*
X128971194Y-90120590D01*
X128942753Y-90078965D01*
X128900359Y-90051685D01*
X128854200Y-90043000D01*
X117602000Y-90043000D01*
X117602000Y-57277000D01*
X155448000Y-57277000D01*
X155448000Y-90043000D01*
M02*
