*
%LPD*%
%LNpatch-F.Cu*%
%FSLAX25Y25*%
%MOIN*%
%AD*%
%AD*%
%ADD10C,0.003937008*%
%ADD11R,0.095275591X0.2*%
%ADD12C,0.038188976*%
%ADD13R,0.018110236X0.03503937*%
%ADD14C,0.01*%
%ADD19R,0.09015748X0.2*%
%ADD22C,0.014*%
G54D19*
%SRX1Y1I0.0J0.0*%
G1X67935Y13669D3*
G54D11*
G1X50691Y13669D3*
G1X85179Y13669D3*
G54D12*
G1X50691Y27212D3*
G1X85179Y27212D3*
G54D13*
G1X50691Y25441D3*
G1X85179Y25441D3*
G54D14*
G36*
G1X18435Y43441D2*
G1X62735Y43441D1*
G1X62917Y43406D1*
G1X63084Y43299D1*
G1X63196Y43135D1*
G1X63235Y42941D1*
G1X63235Y26169D1*
G1X66810Y26169D1*
G1X67435Y25544D1*
G1X67435Y14169D1*
G1X67357Y14169D1*
G1X67357Y13169D1*
G1X67435Y13169D1*
G1X67435Y13090D1*
G1X68435Y13090D1*
G1X68435Y13169D1*
G1X68514Y13169D1*
G1X68514Y14169D1*
G1X68435Y14169D1*
G1X68435Y25544D1*
G1X69060Y26169D1*
G1X72635Y26169D1*
G1X72635Y42941D1*
G1X72670Y43122D1*
G1X72777Y43289D1*
G1X72941Y43401D1*
G1X73135Y43441D1*
G1X167435Y43441D1*
G1X167435Y172441D1*
G1X18435Y172441D1*
G1X18435Y43441D1*
G37*
G1X167435Y43441D2*
G1X73135Y43441D1*
G1X72941Y43401D1*
G1X72777Y43289D1*
G1X72670Y43122D1*
G1X72635Y42941D1*
G1X72635Y26169D1*
G1X69060Y26169D1*
G1X68435Y25544D1*
G1X68435Y14169D1*
G1X68514Y14169D1*
G1X68514Y13169D1*
G1X68435Y13169D1*
G1X68435Y13090D1*
G1X67435Y13090D1*
G1X67435Y13169D1*
G1X67357Y13169D1*
G1X67357Y14169D1*
G1X67435Y14169D1*
G1X67435Y25544D1*
G1X66810Y26169D1*
G1X63235Y26169D1*
G1X63235Y42941D1*
G1X63196Y43135D1*
G1X63084Y43299D1*
G1X62917Y43406D1*
G1X62735Y43441D1*
G1X18435Y43441D1*
G1X18435Y172441D1*
G1X167435Y172441D1*
G1X167435Y43441D1*
G54D19*
G1X243232Y14674D3*
G54D11*
G1X225988Y14674D3*
G1X260476Y14674D3*
G54D12*
G1X225988Y28218D3*
G1X260476Y28218D3*
G54D13*
G1X225988Y26446D3*
G1X260476Y26446D3*
G54D22*
G1X238582Y57846D3*
G1X229882Y57846D3*
G54D14*
G36*
G1X196932Y8174D2*
G1X196932Y946D1*
G1X304632Y946D1*
G1X304632Y8174D1*
G1X267740Y8174D1*
G1X267740Y4177D1*
G1X267359Y3258D1*
G1X266656Y2555D1*
G1X265737Y2174D1*
G1X261601Y2174D1*
G1X260976Y2799D1*
G1X260976Y8174D1*
G1X259976Y8174D1*
G1X259976Y2799D1*
G1X259351Y2174D1*
G1X255215Y2174D1*
G1X254296Y2555D1*
G1X253593Y3258D1*
G1X253213Y4177D1*
G1X253213Y8174D1*
G1X250240Y8174D1*
G1X250240Y4177D1*
G1X249859Y3258D1*
G1X249156Y2555D1*
G1X248237Y2174D1*
G1X244357Y2174D1*
G1X244286Y2246D1*
G1X242179Y2246D1*
G1X242107Y2174D1*
G1X238227Y2174D1*
G1X237308Y2555D1*
G1X236605Y3258D1*
G1X236224Y4177D1*
G1X236224Y8174D1*
G1X233252Y8174D1*
G1X233252Y4177D1*
G1X232871Y3258D1*
G1X232168Y2555D1*
G1X231249Y2174D1*
G1X227113Y2174D1*
G1X226488Y2799D1*
G1X226488Y8174D1*
G1X225488Y8174D1*
G1X225488Y2799D1*
G1X224863Y2174D1*
G1X220727Y2174D1*
G1X219808Y2555D1*
G1X219105Y3258D1*
G1X218724Y4177D1*
G1X218724Y8174D1*
G1X196932Y8174D1*
G37*
G36*
G1X196932Y23926D2*
G1X196932Y8174D1*
G1X218724Y8174D1*
G1X218724Y13549D1*
G1X219349Y14174D1*
G1X225488Y14174D1*
G1X225488Y8174D1*
G1X226488Y8174D1*
G1X226488Y14174D1*
G1X232627Y14174D1*
G1X233252Y13549D1*
G1X233252Y8174D1*
G1X236224Y8174D1*
G1X236224Y13549D1*
G1X236232Y13557D1*
G1X236232Y15791D1*
G1X236224Y15799D1*
G1X236224Y23926D1*
G1X233252Y23926D1*
G1X233252Y15799D1*
G1X232627Y15174D1*
G1X226488Y15174D1*
G1X226488Y15253D1*
G1X225488Y15253D1*
G1X225488Y15174D1*
G1X219349Y15174D1*
G1X218724Y15799D1*
G1X218724Y23926D1*
G1X196932Y23926D1*
G37*
G36*
G1X242732Y13846D2*
G1X243732Y13846D1*
G1X243732Y23926D1*
G1X242732Y23926D1*
G1X242732Y13846D1*
G37*
G36*
G1X246432Y27174D2*
G1X248237Y27174D1*
G1X249156Y26794D1*
G1X249859Y26091D1*
G1X250240Y25172D1*
G1X250240Y23926D1*
G1X253213Y23926D1*
G1X253213Y25172D1*
G1X253593Y26091D1*
G1X254296Y26794D1*
G1X255215Y27174D1*
G1X256131Y27174D1*
G1X256015Y28775D1*
G1X256568Y30439D1*
G1X257409Y30578D1*
G1X257912Y30075D1*
G1X258155Y30317D1*
G1X258812Y30589D1*
G1X258116Y31285D1*
G1X258255Y32126D1*
G1X259284Y32552D1*
G1X261033Y32679D1*
G1X262698Y32126D1*
G1X262837Y31285D1*
G1X262141Y30589D1*
G1X262798Y30317D1*
G1X263041Y30075D1*
G1X263544Y30578D1*
G1X264385Y30439D1*
G1X264811Y29410D1*
G1X264938Y27661D1*
G1X264776Y27174D1*
G1X265737Y27174D1*
G1X266656Y26794D1*
G1X267359Y26091D1*
G1X267740Y25172D1*
G1X267740Y23926D1*
G1X304632Y23926D1*
G1X304632Y59346D1*
G1X246432Y59346D1*
G1X246432Y27174D1*
G37*
G36*
G1X250232Y13557D2*
G1X250240Y13549D1*
G1X250240Y8174D1*
G1X253213Y8174D1*
G1X253213Y13549D1*
G1X253838Y14174D1*
G1X259976Y14174D1*
G1X259976Y8174D1*
G1X260976Y8174D1*
G1X260976Y14174D1*
G1X267115Y14174D1*
G1X267740Y13549D1*
G1X267740Y8174D1*
G1X304632Y8174D1*
G1X304632Y23926D1*
G1X267740Y23926D1*
G1X267740Y15799D1*
G1X267115Y15174D1*
G1X260976Y15174D1*
G1X260976Y15253D1*
G1X259976Y15253D1*
G1X259976Y15174D1*
G1X253838Y15174D1*
G1X253213Y15799D1*
G1X253213Y23926D1*
G1X250240Y23926D1*
G1X250240Y15799D1*
G1X250232Y15791D1*
G1X250232Y13557D1*
G37*
G36*
G1X196932Y23926D2*
G1X218724Y23926D1*
G1X218724Y25172D1*
G1X219105Y26091D1*
G1X219808Y26794D1*
G1X220727Y27174D1*
G1X221643Y27174D1*
G1X221527Y28775D1*
G1X222080Y30439D1*
G1X222920Y30578D1*
G1X223424Y30075D1*
G1X223666Y30317D1*
G1X224323Y30589D1*
G1X223628Y31285D1*
G1X223766Y32126D1*
G1X224795Y32552D1*
G1X226545Y32679D1*
G1X228210Y32126D1*
G1X228349Y31285D1*
G1X227653Y30589D1*
G1X228310Y30317D1*
G1X228552Y30075D1*
G1X229056Y30578D1*
G1X229897Y30439D1*
G1X230323Y29410D1*
G1X230449Y27661D1*
G1X230288Y27174D1*
G1X231249Y27174D1*
G1X232168Y26794D1*
G1X232871Y26091D1*
G1X233252Y25172D1*
G1X233252Y23926D1*
G1X236224Y23926D1*
G1X236224Y25172D1*
G1X236605Y26091D1*
G1X237308Y26794D1*
G1X238227Y27174D1*
G1X240032Y27174D1*
G1X240032Y61296D1*
G1X237132Y61296D1*
G1X237132Y59846D1*
G1X237098Y59664D1*
G1X236991Y59497D1*
G1X236827Y59385D1*
G1X236632Y59346D1*
G1X231832Y59346D1*
G1X231650Y59380D1*
G1X231484Y59488D1*
G1X231372Y59651D1*
G1X231332Y59846D1*
G1X231332Y61296D1*
G1X228432Y61296D1*
G1X228432Y59846D1*
G1X228398Y59664D1*
G1X228291Y59497D1*
G1X228127Y59385D1*
G1X227932Y59346D1*
G1X196932Y59346D1*
G1X196932Y23926D1*
G37*
G36*
G1X200932Y63246D2*
G1X227932Y63246D1*
G1X228114Y63212D1*
G1X228281Y63104D1*
G1X228393Y62941D1*
G1X228432Y62746D1*
G1X228432Y61296D1*
G1X231332Y61296D1*
G1X231332Y62746D1*
G1X231366Y62928D1*
G1X231474Y63095D1*
G1X231638Y63207D1*
G1X231832Y63246D1*
G1X236632Y63246D1*
G1X236814Y63212D1*
G1X236981Y63104D1*
G1X237093Y62941D1*
G1X237132Y62746D1*
G1X237132Y61296D1*
G1X240032Y61296D1*
G1X240032Y67346D1*
G1X209032Y67346D1*
G1X208850Y67380D1*
G1X208684Y67488D1*
G1X208572Y67651D1*
G1X208532Y67846D1*
G1X208532Y76346D1*
G1X208566Y76528D1*
G1X208674Y76695D1*
G1X208838Y76807D1*
G1X209032Y76846D1*
G1X231832Y76846D1*
G1X232014Y76812D1*
G1X232181Y76704D1*
G1X232293Y76541D1*
G1X232332Y76346D1*
G1X232332Y73146D1*
G1X232298Y72964D1*
G1X232191Y72797D1*
G1X232027Y72685D1*
G1X231832Y72646D1*
G1X228432Y72646D1*
G1X228432Y70946D1*
G1X239932Y70946D1*
G1X240120Y70909D1*
G1X240286Y70800D1*
G1X242686Y68400D1*
G1X242793Y68241D1*
G1X242832Y68046D1*
G1X242832Y61296D1*
G1X243632Y61296D1*
G1X243632Y68039D1*
G1X240179Y71492D1*
G1X240072Y71651D1*
G1X240032Y71846D1*
G1X240032Y72646D1*
G1X236632Y72646D1*
G1X236450Y72680D1*
G1X236284Y72788D1*
G1X236172Y72951D1*
G1X236132Y73146D1*
G1X236132Y80246D1*
G1X236166Y80428D1*
G1X236274Y80595D1*
G1X236438Y80707D1*
G1X236632Y80746D1*
G1X300632Y80746D1*
G1X300632Y84546D1*
G1X200932Y84546D1*
G1X200932Y63246D1*
G37*
G36*
G1X241632Y27174D2*
G1X242107Y27174D1*
G1X242732Y26549D1*
G1X242732Y23926D1*
G1X243732Y23926D1*
G1X243732Y26549D1*
G1X244357Y27174D1*
G1X244832Y27174D1*
G1X244832Y59346D1*
G1X244132Y59346D1*
G1X243950Y59380D1*
G1X243784Y59488D1*
G1X243672Y59651D1*
G1X243632Y59846D1*
G1X243632Y61296D1*
G1X242832Y61296D1*
G1X242832Y59846D1*
G1X242798Y59664D1*
G1X242691Y59497D1*
G1X242527Y59385D1*
G1X242332Y59346D1*
G1X241632Y59346D1*
G1X241632Y27174D1*
G37*
G1X300632Y80746D2*
G1X236632Y80746D1*
G1X236438Y80707D1*
G1X236274Y80595D1*
G1X236166Y80428D1*
G1X236132Y80246D1*
G1X236132Y73146D1*
G1X236172Y72951D1*
G1X236284Y72788D1*
G1X236450Y72680D1*
G1X236632Y72646D1*
G1X240032Y72646D1*
G1X240032Y71846D1*
G1X240072Y71651D1*
G1X240179Y71492D1*
G1X243632Y68039D1*
G1X243632Y59846D1*
G1X243672Y59651D1*
G1X243784Y59488D1*
G1X243950Y59380D1*
G1X244132Y59346D1*
G1X244832Y59346D1*
G1X244832Y27174D1*
G1X244357Y27174D1*
G1X243732Y26549D1*
G1X243732Y13846D1*
G1X242732Y13846D1*
G1X242732Y26549D1*
G1X242107Y27174D1*
G1X241632Y27174D1*
G1X241632Y59346D1*
G1X242332Y59346D1*
G1X242527Y59385D1*
G1X242691Y59497D1*
G1X242798Y59664D1*
G1X242832Y59846D1*
G1X242832Y68046D1*
G1X242793Y68241D1*
G1X242686Y68400D1*
G1X240286Y70800D1*
G1X240120Y70909D1*
G1X239932Y70946D1*
G1X228432Y70946D1*
G1X228432Y72646D1*
G1X231832Y72646D1*
G1X232027Y72685D1*
G1X232191Y72797D1*
G1X232298Y72964D1*
G1X232332Y73146D1*
G1X232332Y76346D1*
G1X232293Y76541D1*
G1X232181Y76704D1*
G1X232014Y76812D1*
G1X231832Y76846D1*
G1X209032Y76846D1*
G1X208838Y76807D1*
G1X208674Y76695D1*
G1X208566Y76528D1*
G1X208532Y76346D1*
G1X208532Y67846D1*
G1X208572Y67651D1*
G1X208684Y67488D1*
G1X208850Y67380D1*
G1X209032Y67346D1*
G1X240032Y67346D1*
G1X240032Y27174D1*
G1X238227Y27174D1*
G1X237308Y26794D1*
G1X236605Y26091D1*
G1X236224Y25172D1*
G1X236224Y15799D1*
G1X236232Y15791D1*
G1X236232Y13557D1*
G1X236224Y13549D1*
G1X236224Y4177D1*
G1X236605Y3258D1*
G1X237308Y2555D1*
G1X238227Y2174D1*
G1X242107Y2174D1*
G1X242179Y2246D1*
G1X244286Y2246D1*
G1X244357Y2174D1*
G1X248237Y2174D1*
G1X249156Y2555D1*
G1X249859Y3258D1*
G1X250240Y4177D1*
G1X250240Y13549D1*
G1X253213Y13549D1*
G1X253213Y4177D1*
G1X253593Y3258D1*
G1X254296Y2555D1*
G1X255215Y2174D1*
G1X259351Y2174D1*
G1X259976Y2799D1*
G1X259976Y14174D1*
G1X260976Y14174D1*
G1X260976Y2799D1*
G1X261601Y2174D1*
G1X265737Y2174D1*
G1X266656Y2555D1*
G1X267359Y3258D1*
G1X267740Y4177D1*
G1X267740Y13549D1*
G1X267115Y14174D1*
G1X260976Y14174D1*
G1X259976Y14174D1*
G1X253838Y14174D1*
G1X253213Y13549D1*
G1X250240Y13549D1*
G1X250232Y13557D1*
G1X250232Y15791D1*
G1X250240Y15799D1*
G1X250240Y25172D1*
G1X253213Y25172D1*
G1X253213Y15799D1*
G1X253838Y15174D1*
G1X259976Y15174D1*
G1X259976Y15253D1*
G1X260976Y15253D1*
G1X260976Y15174D1*
G1X267115Y15174D1*
G1X267740Y15799D1*
G1X267740Y25172D1*
G1X267359Y26091D1*
G1X266656Y26794D1*
G1X265737Y27174D1*
G1X264776Y27174D1*
G1X264938Y27661D1*
G1X264811Y29410D1*
G1X264385Y30439D1*
G1X263544Y30578D1*
G1X263041Y30075D1*
G1X262798Y30317D1*
G1X262141Y30589D1*
G1X262837Y31285D1*
G1X262698Y32126D1*
G1X261033Y32679D1*
G1X259284Y32552D1*
G1X258255Y32126D1*
G1X258116Y31285D1*
G1X258812Y30589D1*
G1X258155Y30317D1*
G1X257912Y30075D1*
G1X257409Y30578D1*
G1X256568Y30439D1*
G1X256015Y28775D1*
G1X256131Y27174D1*
G1X255215Y27174D1*
G1X254296Y26794D1*
G1X253593Y26091D1*
G1X253213Y25172D1*
G1X250240Y25172D1*
G1X249859Y26091D1*
G1X249156Y26794D1*
G1X248237Y27174D1*
G1X246432Y27174D1*
G1X246432Y59346D1*
G1X304632Y59346D1*
G1X304632Y946D1*
G1X196932Y946D1*
G1X196932Y13549D1*
G1X218724Y13549D1*
G1X218724Y4177D1*
G1X219105Y3258D1*
G1X219808Y2555D1*
G1X220727Y2174D1*
G1X224863Y2174D1*
G1X225488Y2799D1*
G1X225488Y14174D1*
G1X226488Y14174D1*
G1X226488Y2799D1*
G1X227113Y2174D1*
G1X231249Y2174D1*
G1X232168Y2555D1*
G1X232871Y3258D1*
G1X233252Y4177D1*
G1X233252Y13549D1*
G1X232627Y14174D1*
G1X226488Y14174D1*
G1X225488Y14174D1*
G1X219349Y14174D1*
G1X218724Y13549D1*
G1X196932Y13549D1*
G1X196932Y25172D1*
G1X218724Y25172D1*
G1X218724Y15799D1*
G1X219349Y15174D1*
G1X225488Y15174D1*
G1X225488Y15253D1*
G1X226488Y15253D1*
G1X226488Y15174D1*
G1X232627Y15174D1*
G1X233252Y15799D1*
G1X233252Y25172D1*
G1X232871Y26091D1*
G1X232168Y26794D1*
G1X231249Y27174D1*
G1X230288Y27174D1*
G1X230449Y27661D1*
G1X230323Y29410D1*
G1X229897Y30439D1*
G1X229056Y30578D1*
G1X228552Y30075D1*
G1X228310Y30317D1*
G1X227653Y30589D1*
G1X228349Y31285D1*
G1X228210Y32126D1*
G1X226545Y32679D1*
G1X224795Y32552D1*
G1X223766Y32126D1*
G1X223628Y31285D1*
G1X224323Y30589D1*
G1X223666Y30317D1*
G1X223424Y30075D1*
G1X222920Y30578D1*
G1X222080Y30439D1*
G1X221527Y28775D1*
G1X221643Y27174D1*
G1X220727Y27174D1*
G1X219808Y26794D1*
G1X219105Y26091D1*
G1X218724Y25172D1*
G1X196932Y25172D1*
G1X196932Y59346D1*
G1X227932Y59346D1*
G1X228127Y59385D1*
G1X228291Y59497D1*
G1X228398Y59664D1*
G1X228432Y59846D1*
G1X228432Y62746D1*
G1X231332Y62746D1*
G1X231332Y59846D1*
G1X231372Y59651D1*
G1X231484Y59488D1*
G1X231650Y59380D1*
G1X231832Y59346D1*
G1X236632Y59346D1*
G1X236827Y59385D1*
G1X236991Y59497D1*
G1X237098Y59664D1*
G1X237132Y59846D1*
G1X237132Y62746D1*
G1X237093Y62941D1*
G1X236981Y63104D1*
G1X236814Y63212D1*
G1X236632Y63246D1*
G1X231832Y63246D1*
G1X231638Y63207D1*
G1X231474Y63095D1*
G1X231366Y62928D1*
G1X231332Y62746D1*
G1X228432Y62746D1*
G1X228393Y62941D1*
G1X228281Y63104D1*
G1X228114Y63212D1*
G1X227932Y63246D1*
G1X200932Y63246D1*
G1X200932Y84546D1*
G1X300632Y84546D1*
G1X300632Y80746D1*
G1X191000Y-5000D2*
G54D10*
G1X191000Y5000D1*
G1X311000Y-5000D2*
G1X311000Y5000D1*
G1X-5000Y196000D2*
G1X5000Y196000D1*
G54D19*
G1X380812Y14645D3*
G54D11*
G1X363568Y14645D3*
G1X398056Y14645D3*
G54D12*
G1X363568Y28189D3*
G1X398056Y28189D3*
G54D13*
G1X363568Y26417D3*
G1X398056Y26417D3*
G54D22*
G1X404262Y68467D3*
G54D14*
G36*
G1X316962Y8145D2*
G1X316962Y967D1*
G1X439662Y967D1*
G1X439662Y8145D1*
G1X405320Y8145D1*
G1X405320Y4148D1*
G1X404939Y3229D1*
G1X404236Y2526D1*
G1X403317Y2145D1*
G1X399181Y2145D1*
G1X398556Y2770D1*
G1X398556Y8145D1*
G1X397556Y8145D1*
G1X397556Y2770D1*
G1X396931Y2145D1*
G1X392795Y2145D1*
G1X391876Y2526D1*
G1X391173Y3229D1*
G1X390792Y4148D1*
G1X390792Y8145D1*
G1X387820Y8145D1*
G1X387820Y4148D1*
G1X387439Y3229D1*
G1X386736Y2526D1*
G1X385817Y2145D1*
G1X381937Y2145D1*
G1X381915Y2167D1*
G1X379708Y2167D1*
G1X379687Y2145D1*
G1X375807Y2145D1*
G1X374888Y2526D1*
G1X374185Y3229D1*
G1X373804Y4148D1*
G1X373804Y8145D1*
G1X370831Y8145D1*
G1X370831Y4148D1*
G1X370451Y3229D1*
G1X369748Y2526D1*
G1X368829Y2145D1*
G1X364693Y2145D1*
G1X364068Y2770D1*
G1X364068Y8145D1*
G1X363068Y8145D1*
G1X363068Y2770D1*
G1X362443Y2145D1*
G1X358307Y2145D1*
G1X357388Y2526D1*
G1X356685Y3229D1*
G1X356304Y4148D1*
G1X356304Y8145D1*
G1X316962Y8145D1*
G37*
G36*
G1X316962Y23897D2*
G1X316962Y8145D1*
G1X356304Y8145D1*
G1X356304Y13520D1*
G1X356929Y14145D1*
G1X363068Y14145D1*
G1X363068Y8145D1*
G1X364068Y8145D1*
G1X364068Y14145D1*
G1X370206Y14145D1*
G1X370831Y13520D1*
G1X370831Y8145D1*
G1X373804Y8145D1*
G1X373804Y13520D1*
G1X373812Y13528D1*
G1X373812Y15763D1*
G1X373804Y15770D1*
G1X373804Y23897D1*
G1X370831Y23897D1*
G1X370831Y15770D1*
G1X370206Y15145D1*
G1X364068Y15145D1*
G1X364068Y15224D1*
G1X363068Y15224D1*
G1X363068Y15145D1*
G1X356929Y15145D1*
G1X356304Y15770D1*
G1X356304Y23897D1*
G1X316962Y23897D1*
G37*
G36*
G1X316962Y23897D2*
G1X356304Y23897D1*
G1X356304Y25143D1*
G1X356685Y26062D1*
G1X357388Y26765D1*
G1X358307Y27145D1*
G1X359222Y27145D1*
G1X359106Y28746D1*
G1X359659Y30410D1*
G1X360500Y30549D1*
G1X361004Y30046D1*
G1X361246Y30288D1*
G1X361903Y30561D1*
G1X361207Y31256D1*
G1X361346Y32097D1*
G1X362375Y32523D1*
G1X364125Y32650D1*
G1X365789Y32097D1*
G1X365928Y31256D1*
G1X365232Y30561D1*
G1X365889Y30288D1*
G1X366132Y30046D1*
G1X366635Y30549D1*
G1X367476Y30410D1*
G1X367902Y29381D1*
G1X368029Y27632D1*
G1X367867Y27145D1*
G1X368829Y27145D1*
G1X369748Y26765D1*
G1X370451Y26062D1*
G1X370831Y25143D1*
G1X370831Y23897D1*
G1X373804Y23897D1*
G1X373804Y25143D1*
G1X374185Y26062D1*
G1X374888Y26765D1*
G1X375262Y26920D1*
G1X375262Y69967D1*
G1X316962Y69967D1*
G1X316962Y23897D1*
G37*
G36*
G1X346962Y100667D2*
G1X346962Y91867D1*
G1X379162Y91867D1*
G1X379344Y91833D1*
G1X379510Y91725D1*
G1X379622Y91562D1*
G1X379662Y91367D1*
G1X379662Y70467D1*
G1X379628Y70285D1*
G1X379520Y70118D1*
G1X379356Y70006D1*
G1X379162Y69967D1*
G1X377262Y69967D1*
G1X377262Y27145D1*
G1X379687Y27145D1*
G1X380312Y26520D1*
G1X380312Y23897D1*
G1X381312Y23897D1*
G1X381312Y26520D1*
G1X381937Y27145D1*
G1X384362Y27145D1*
G1X384362Y69967D1*
G1X382462Y69967D1*
G1X382280Y70001D1*
G1X382113Y70109D1*
G1X382001Y70273D1*
G1X381962Y70467D1*
G1X381962Y91367D1*
G1X381996Y91549D1*
G1X382103Y91716D1*
G1X382267Y91828D1*
G1X382462Y91867D1*
G1X398362Y91867D1*
G1X398544Y91833D1*
G1X398710Y91725D1*
G1X398822Y91562D1*
G1X398862Y91367D1*
G1X398862Y70467D1*
G1X398828Y70285D1*
G1X398720Y70118D1*
G1X398556Y70006D1*
G1X398362Y69967D1*
G1X386362Y69967D1*
G1X386362Y26920D1*
G1X386736Y26765D1*
G1X387439Y26062D1*
G1X387820Y25143D1*
G1X387820Y23897D1*
G1X390792Y23897D1*
G1X390792Y25143D1*
G1X391173Y26062D1*
G1X391876Y26765D1*
G1X392795Y27145D1*
G1X393710Y27145D1*
G1X393595Y28746D1*
G1X394147Y30410D1*
G1X394988Y30549D1*
G1X395492Y30046D1*
G1X395734Y30288D1*
G1X396391Y30561D1*
G1X395695Y31256D1*
G1X395834Y32097D1*
G1X396863Y32523D1*
G1X398613Y32650D1*
G1X400278Y32097D1*
G1X400417Y31256D1*
G1X399721Y30561D1*
G1X400378Y30288D1*
G1X400620Y30046D1*
G1X401124Y30549D1*
G1X401964Y30410D1*
G1X402391Y29381D1*
G1X402517Y27632D1*
G1X402356Y27145D1*
G1X403317Y27145D1*
G1X404236Y26765D1*
G1X404939Y26062D1*
G1X405320Y25143D1*
G1X405320Y23897D1*
G1X439662Y23897D1*
G1X439662Y69967D1*
G1X410162Y69967D1*
G1X409980Y70001D1*
G1X409813Y70109D1*
G1X409701Y70273D1*
G1X409662Y70467D1*
G1X409662Y100667D1*
G1X346962Y100667D1*
G37*
G36*
G1X380312Y13767D2*
G1X381312Y13767D1*
G1X381312Y23897D1*
G1X380312Y23897D1*
G1X380312Y13767D1*
G37*
G36*
G1X387812Y13528D2*
G1X387820Y13520D1*
G1X387820Y8145D1*
G1X390792Y8145D1*
G1X390792Y13520D1*
G1X391417Y14145D1*
G1X397556Y14145D1*
G1X397556Y8145D1*
G1X398556Y8145D1*
G1X398556Y14145D1*
G1X404695Y14145D1*
G1X405320Y13520D1*
G1X405320Y8145D1*
G1X439662Y8145D1*
G1X439662Y23897D1*
G1X405320Y23897D1*
G1X405320Y15770D1*
G1X404695Y15145D1*
G1X398556Y15145D1*
G1X398556Y15224D1*
G1X397556Y15224D1*
G1X397556Y15145D1*
G1X391417Y15145D1*
G1X390792Y15770D1*
G1X390792Y23897D1*
G1X387820Y23897D1*
G1X387820Y15770D1*
G1X387812Y15763D1*
G1X387812Y13528D1*
G37*
G1X409662Y70467D2*
G1X409701Y70273D1*
G1X409813Y70109D1*
G1X409980Y70001D1*
G1X410162Y69967D1*
G1X439662Y69967D1*
G1X439662Y967D1*
G1X316962Y967D1*
G1X316962Y13520D1*
G1X356304Y13520D1*
G1X356304Y4148D1*
G1X356685Y3229D1*
G1X357388Y2526D1*
G1X358307Y2145D1*
G1X362443Y2145D1*
G1X363068Y2770D1*
G1X363068Y14145D1*
G1X364068Y14145D1*
G1X364068Y2770D1*
G1X364693Y2145D1*
G1X368829Y2145D1*
G1X369748Y2526D1*
G1X370451Y3229D1*
G1X370831Y4148D1*
G1X370831Y13520D1*
G1X370206Y14145D1*
G1X364068Y14145D1*
G1X363068Y14145D1*
G1X356929Y14145D1*
G1X356304Y13520D1*
G1X316962Y13520D1*
G1X316962Y25143D1*
G1X356304Y25143D1*
G1X356304Y15770D1*
G1X356929Y15145D1*
G1X363068Y15145D1*
G1X363068Y15224D1*
G1X364068Y15224D1*
G1X364068Y15145D1*
G1X370206Y15145D1*
G1X370831Y15770D1*
G1X370831Y25143D1*
G1X370451Y26062D1*
G1X369748Y26765D1*
G1X368829Y27145D1*
G1X367867Y27145D1*
G1X368029Y27632D1*
G1X367902Y29381D1*
G1X367476Y30410D1*
G1X366635Y30549D1*
G1X366132Y30046D1*
G1X365889Y30288D1*
G1X365232Y30561D1*
G1X365928Y31256D1*
G1X365789Y32097D1*
G1X364125Y32650D1*
G1X362375Y32523D1*
G1X361346Y32097D1*
G1X361207Y31256D1*
G1X361903Y30561D1*
G1X361246Y30288D1*
G1X361004Y30046D1*
G1X360500Y30549D1*
G1X359659Y30410D1*
G1X359106Y28746D1*
G1X359222Y27145D1*
G1X358307Y27145D1*
G1X357388Y26765D1*
G1X356685Y26062D1*
G1X356304Y25143D1*
G1X316962Y25143D1*
G1X316962Y69967D1*
G1X375262Y69967D1*
G1X375262Y26920D1*
G1X374888Y26765D1*
G1X374185Y26062D1*
G1X373804Y25143D1*
G1X373804Y15770D1*
G1X373812Y15763D1*
G1X373812Y13528D1*
G1X373804Y13520D1*
G1X373804Y4148D1*
G1X374185Y3229D1*
G1X374888Y2526D1*
G1X375807Y2145D1*
G1X379687Y2145D1*
G1X379708Y2167D1*
G1X381915Y2167D1*
G1X381937Y2145D1*
G1X385817Y2145D1*
G1X386736Y2526D1*
G1X387439Y3229D1*
G1X387820Y4148D1*
G1X387820Y13520D1*
G1X390792Y13520D1*
G1X390792Y4148D1*
G1X391173Y3229D1*
G1X391876Y2526D1*
G1X392795Y2145D1*
G1X396931Y2145D1*
G1X397556Y2770D1*
G1X397556Y14145D1*
G1X398556Y14145D1*
G1X398556Y2770D1*
G1X399181Y2145D1*
G1X403317Y2145D1*
G1X404236Y2526D1*
G1X404939Y3229D1*
G1X405320Y4148D1*
G1X405320Y13520D1*
G1X404695Y14145D1*
G1X398556Y14145D1*
G1X397556Y14145D1*
G1X391417Y14145D1*
G1X390792Y13520D1*
G1X387820Y13520D1*
G1X387812Y13528D1*
G1X387812Y15763D1*
G1X387820Y15770D1*
G1X387820Y25143D1*
G1X390792Y25143D1*
G1X390792Y15770D1*
G1X391417Y15145D1*
G1X397556Y15145D1*
G1X397556Y15224D1*
G1X398556Y15224D1*
G1X398556Y15145D1*
G1X404695Y15145D1*
G1X405320Y15770D1*
G1X405320Y25143D1*
G1X404939Y26062D1*
G1X404236Y26765D1*
G1X403317Y27145D1*
G1X402356Y27145D1*
G1X402517Y27632D1*
G1X402391Y29381D1*
G1X401964Y30410D1*
G1X401124Y30549D1*
G1X400620Y30046D1*
G1X400378Y30288D1*
G1X399721Y30561D1*
G1X400417Y31256D1*
G1X400278Y32097D1*
G1X398613Y32650D1*
G1X396863Y32523D1*
G1X395834Y32097D1*
G1X395695Y31256D1*
G1X396391Y30561D1*
G1X395734Y30288D1*
G1X395492Y30046D1*
G1X394988Y30549D1*
G1X394147Y30410D1*
G1X393595Y28746D1*
G1X393710Y27145D1*
G1X392795Y27145D1*
G1X391876Y26765D1*
G1X391173Y26062D1*
G1X390792Y25143D1*
G1X387820Y25143D1*
G1X387439Y26062D1*
G1X386736Y26765D1*
G1X386362Y26920D1*
G1X386362Y69967D1*
G1X398362Y69967D1*
G1X398556Y70006D1*
G1X398720Y70118D1*
G1X398828Y70285D1*
G1X398862Y70467D1*
G1X398862Y91367D1*
G1X398822Y91562D1*
G1X398710Y91725D1*
G1X398544Y91833D1*
G1X398362Y91867D1*
G1X382462Y91867D1*
G1X382267Y91828D1*
G1X382103Y91716D1*
G1X381996Y91549D1*
G1X381962Y91367D1*
G1X381962Y70467D1*
G1X382001Y70273D1*
G1X382113Y70109D1*
G1X382280Y70001D1*
G1X382462Y69967D1*
G1X384362Y69967D1*
G1X384362Y27145D1*
G1X381937Y27145D1*
G1X381312Y26520D1*
G1X381312Y13767D1*
G1X380312Y13767D1*
G1X380312Y26520D1*
G1X379687Y27145D1*
G1X377262Y27145D1*
G1X377262Y69967D1*
G1X379162Y69967D1*
G1X379356Y70006D1*
G1X379520Y70118D1*
G1X379628Y70285D1*
G1X379662Y70467D1*
G1X379662Y91367D1*
G1X379622Y91562D1*
G1X379510Y91725D1*
G1X379344Y91833D1*
G1X379162Y91867D1*
G1X346962Y91867D1*
G1X346962Y100667D1*
G1X409662Y100667D1*
G1X409662Y70467D1*
G1X446000Y-5000D2*
G54D10*
G1X446000Y5000D1*
M2*
