*
%LPD*%
%LNpatch-F.SilkS*%
%FSLAX25Y25*%
%MOIN*%
%AD*%
%AD*%
%ADD21C,0.005905512*%
G54D21*
%SRX1Y1I0.0J0.0*%
G1X97709Y10763D2*
G1X93771Y10763D1*
G1X93771Y12263D1*
G1X93959Y12638D1*
G1X94146Y12825D1*
G1X94521Y13013D1*
G1X95084Y13013D1*
G1X95459Y12825D1*
G1X95646Y12638D1*
G1X95834Y12263D1*
G1X95834Y10763D1*
G1X97709Y16762D2*
G1X97709Y14513D1*
G1X97709Y15638D2*
G1X93771Y15638D1*
G1X94334Y15263D1*
G1X94709Y14888D1*
G1X94896Y14513D1*
G1X273005Y11768D2*
G1X269068Y11768D1*
G1X269068Y13268D1*
G1X269256Y13643D1*
G1X269443Y13831D1*
G1X269818Y14018D1*
G1X270381Y14018D1*
G1X270756Y13831D1*
G1X270943Y13643D1*
G1X271131Y13268D1*
G1X271131Y11768D1*
G1X273005Y17768D2*
G1X273005Y15518D1*
G1X273005Y16643D2*
G1X269068Y16643D1*
G1X269631Y16268D1*
G1X270006Y15893D1*
G1X270193Y15518D1*
G1X410585Y11739D2*
G1X406648Y11739D1*
G1X406648Y13239D1*
G1X406835Y13614D1*
G1X407023Y13802D1*
G1X407398Y13989D1*
G1X407960Y13989D1*
G1X408335Y13802D1*
G1X408523Y13614D1*
G1X408710Y13239D1*
G1X408710Y11739D1*
G1X410585Y17739D2*
G1X410585Y15489D1*
G1X410585Y16614D2*
G1X406648Y16614D1*
G1X407210Y16239D1*
G1X407585Y15864D1*
G1X407773Y15489D1*
M2*
