*
%LPD*%
%LNpatch-B.Cu*%
%FSLAX25Y25*%
%MOIN*%
%AD*%
%AD*%
%ADD11R,0.095275591X0.2*%
%ADD12C,0.038188976*%
%ADD13R,0.018110236X0.03503937*%
%ADD14C,0.01*%
%ADD22C,0.014*%
G54D11*
%SRX1Y1I0.0J0.0*%
G1X50691Y13669D3*
G1X85179Y13669D3*
G54D12*
G1X50691Y27212D3*
G1X85179Y27212D3*
G54D13*
G1X50691Y25441D3*
G1X85179Y25441D3*
G54D14*
G36*
G1X935Y7169D2*
G1X935Y941D1*
G1X184935Y941D1*
G1X184935Y7169D1*
G1X92443Y7169D1*
G1X92443Y3172D1*
G1X92063Y2253D1*
G1X91359Y1550D1*
G1X90441Y1169D1*
G1X86304Y1169D1*
G1X85679Y1794D1*
G1X85679Y7169D1*
G1X84679Y7169D1*
G1X84679Y1794D1*
G1X84054Y1169D1*
G1X79918Y1169D1*
G1X79000Y1550D1*
G1X78296Y2253D1*
G1X77916Y3172D1*
G1X77916Y7169D1*
G1X57955Y7169D1*
G1X57955Y3172D1*
G1X57574Y2253D1*
G1X56871Y1550D1*
G1X55952Y1169D1*
G1X51816Y1169D1*
G1X51191Y1794D1*
G1X51191Y7169D1*
G1X50191Y7169D1*
G1X50191Y1794D1*
G1X49566Y1169D1*
G1X45430Y1169D1*
G1X44511Y1550D1*
G1X43808Y2253D1*
G1X43427Y3172D1*
G1X43427Y7169D1*
G1X935Y7169D1*
G37*
G36*
G1X935Y22921D2*
G1X935Y7169D1*
G1X43427Y7169D1*
G1X43427Y12544D1*
G1X44052Y13169D1*
G1X50191Y13169D1*
G1X50191Y7169D1*
G1X51191Y7169D1*
G1X51191Y13169D1*
G1X57330Y13169D1*
G1X57955Y12544D1*
G1X57955Y7169D1*
G1X77916Y7169D1*
G1X77916Y12544D1*
G1X78541Y13169D1*
G1X84679Y13169D1*
G1X84679Y7169D1*
G1X85679Y7169D1*
G1X85679Y13169D1*
G1X91818Y13169D1*
G1X92443Y12544D1*
G1X92443Y7169D1*
G1X184935Y7169D1*
G1X184935Y22921D1*
G1X92443Y22921D1*
G1X92443Y14794D1*
G1X91818Y14169D1*
G1X85679Y14169D1*
G1X85679Y14248D1*
G1X84679Y14248D1*
G1X84679Y14169D1*
G1X78541Y14169D1*
G1X77916Y14794D1*
G1X77916Y22921D1*
G1X57955Y22921D1*
G1X57955Y14794D1*
G1X57330Y14169D1*
G1X51191Y14169D1*
G1X51191Y14248D1*
G1X50191Y14248D1*
G1X50191Y14169D1*
G1X44052Y14169D1*
G1X43427Y14794D1*
G1X43427Y22921D1*
G1X935Y22921D1*
G37*
G36*
G1X935Y22921D2*
G1X43427Y22921D1*
G1X43427Y24166D1*
G1X43808Y25085D1*
G1X44511Y25788D1*
G1X45430Y26169D1*
G1X46346Y26169D1*
G1X46230Y27769D1*
G1X46783Y29434D1*
G1X47624Y29573D1*
G1X48127Y29069D1*
G1X48370Y29312D1*
G1X49027Y29584D1*
G1X48331Y30280D1*
G1X48470Y31121D1*
G1X49498Y31547D1*
G1X51248Y31674D1*
G1X52913Y31121D1*
G1X53052Y30280D1*
G1X52356Y29584D1*
G1X53013Y29312D1*
G1X53256Y29069D1*
G1X53759Y29573D1*
G1X54600Y29434D1*
G1X55026Y28405D1*
G1X55152Y26656D1*
G1X54991Y26169D1*
G1X55952Y26169D1*
G1X56871Y25788D1*
G1X57574Y25085D1*
G1X57955Y24166D1*
G1X57955Y22921D1*
G1X77916Y22921D1*
G1X77916Y24166D1*
G1X78296Y25085D1*
G1X79000Y25788D1*
G1X79918Y26169D1*
G1X80834Y26169D1*
G1X80718Y27769D1*
G1X81271Y29434D1*
G1X82112Y29573D1*
G1X82615Y29069D1*
G1X82858Y29312D1*
G1X83515Y29584D1*
G1X82819Y30280D1*
G1X82958Y31121D1*
G1X83987Y31547D1*
G1X85736Y31674D1*
G1X87401Y31121D1*
G1X87540Y30280D1*
G1X86844Y29584D1*
G1X87501Y29312D1*
G1X87744Y29069D1*
G1X88247Y29573D1*
G1X89088Y29434D1*
G1X89514Y28405D1*
G1X89641Y26656D1*
G1X89479Y26169D1*
G1X90441Y26169D1*
G1X91359Y25788D1*
G1X92063Y25085D1*
G1X92443Y24166D1*
G1X92443Y22921D1*
G1X184935Y22921D1*
G1X184935Y189941D1*
G1X935Y189941D1*
G1X935Y22921D1*
G37*
G1X184935Y941D2*
G1X935Y941D1*
G1X935Y12544D1*
G1X43427Y12544D1*
G1X43427Y3172D1*
G1X43808Y2253D1*
G1X44511Y1550D1*
G1X45430Y1169D1*
G1X49566Y1169D1*
G1X50191Y1794D1*
G1X50191Y13169D1*
G1X51191Y13169D1*
G1X51191Y1794D1*
G1X51816Y1169D1*
G1X55952Y1169D1*
G1X56871Y1550D1*
G1X57574Y2253D1*
G1X57955Y3172D1*
G1X57955Y12544D1*
G1X77916Y12544D1*
G1X77916Y3172D1*
G1X78296Y2253D1*
G1X79000Y1550D1*
G1X79918Y1169D1*
G1X84054Y1169D1*
G1X84679Y1794D1*
G1X84679Y13169D1*
G1X85679Y13169D1*
G1X85679Y1794D1*
G1X86304Y1169D1*
G1X90441Y1169D1*
G1X91359Y1550D1*
G1X92063Y2253D1*
G1X92443Y3172D1*
G1X92443Y12544D1*
G1X91818Y13169D1*
G1X85679Y13169D1*
G1X84679Y13169D1*
G1X78541Y13169D1*
G1X77916Y12544D1*
G1X57955Y12544D1*
G1X57330Y13169D1*
G1X51191Y13169D1*
G1X50191Y13169D1*
G1X44052Y13169D1*
G1X43427Y12544D1*
G1X935Y12544D1*
G1X935Y24166D1*
G1X43427Y24166D1*
G1X43427Y14794D1*
G1X44052Y14169D1*
G1X50191Y14169D1*
G1X50191Y14248D1*
G1X51191Y14248D1*
G1X51191Y14169D1*
G1X57330Y14169D1*
G1X57955Y14794D1*
G1X57955Y24166D1*
G1X77916Y24166D1*
G1X77916Y14794D1*
G1X78541Y14169D1*
G1X84679Y14169D1*
G1X84679Y14248D1*
G1X85679Y14248D1*
G1X85679Y14169D1*
G1X91818Y14169D1*
G1X92443Y14794D1*
G1X92443Y24166D1*
G1X92063Y25085D1*
G1X91359Y25788D1*
G1X90441Y26169D1*
G1X89479Y26169D1*
G1X89641Y26656D1*
G1X89514Y28405D1*
G1X89088Y29434D1*
G1X88247Y29573D1*
G1X87744Y29069D1*
G1X87501Y29312D1*
G1X86844Y29584D1*
G1X87540Y30280D1*
G1X87401Y31121D1*
G1X85736Y31674D1*
G1X83987Y31547D1*
G1X82958Y31121D1*
G1X82819Y30280D1*
G1X83515Y29584D1*
G1X82858Y29312D1*
G1X82615Y29069D1*
G1X82112Y29573D1*
G1X81271Y29434D1*
G1X80718Y27769D1*
G1X80834Y26169D1*
G1X79918Y26169D1*
G1X79000Y25788D1*
G1X78296Y25085D1*
G1X77916Y24166D1*
G1X57955Y24166D1*
G1X57574Y25085D1*
G1X56871Y25788D1*
G1X55952Y26169D1*
G1X54991Y26169D1*
G1X55152Y26656D1*
G1X55026Y28405D1*
G1X54600Y29434D1*
G1X53759Y29573D1*
G1X53256Y29069D1*
G1X53013Y29312D1*
G1X52356Y29584D1*
G1X53052Y30280D1*
G1X52913Y31121D1*
G1X51248Y31674D1*
G1X49498Y31547D1*
G1X48470Y31121D1*
G1X48331Y30280D1*
G1X49027Y29584D1*
G1X48370Y29312D1*
G1X48127Y29069D1*
G1X47624Y29573D1*
G1X46783Y29434D1*
G1X46230Y27769D1*
G1X46346Y26169D1*
G1X45430Y26169D1*
G1X44511Y25788D1*
G1X43808Y25085D1*
G1X43427Y24166D1*
G1X935Y24166D1*
G1X935Y189941D1*
G1X184935Y189941D1*
G1X184935Y941D1*
G54D11*
G1X225988Y14674D3*
G1X260476Y14674D3*
G54D12*
G1X225988Y28218D3*
G1X260476Y28218D3*
G54D13*
G1X225988Y26446D3*
G1X260476Y26446D3*
G54D22*
G1X238582Y57846D3*
G1X229882Y57846D3*
G54D14*
G36*
G1X196932Y8174D2*
G1X196932Y946D1*
G1X304632Y946D1*
G1X304632Y8174D1*
G1X267740Y8174D1*
G1X267740Y4177D1*
G1X267359Y3258D1*
G1X266656Y2555D1*
G1X265737Y2174D1*
G1X261601Y2174D1*
G1X260976Y2799D1*
G1X260976Y8174D1*
G1X259976Y8174D1*
G1X259976Y2799D1*
G1X259351Y2174D1*
G1X255215Y2174D1*
G1X254296Y2555D1*
G1X253593Y3258D1*
G1X253213Y4177D1*
G1X253213Y8174D1*
G1X233252Y8174D1*
G1X233252Y4177D1*
G1X232871Y3258D1*
G1X232168Y2555D1*
G1X231249Y2174D1*
G1X227113Y2174D1*
G1X226488Y2799D1*
G1X226488Y8174D1*
G1X225488Y8174D1*
G1X225488Y2799D1*
G1X224863Y2174D1*
G1X220727Y2174D1*
G1X219808Y2555D1*
G1X219105Y3258D1*
G1X218724Y4177D1*
G1X218724Y8174D1*
G1X196932Y8174D1*
G37*
G36*
G1X196932Y8174D2*
G1X218724Y8174D1*
G1X218724Y13549D1*
G1X219349Y14174D1*
G1X225488Y14174D1*
G1X225488Y8174D1*
G1X226488Y8174D1*
G1X226488Y14174D1*
G1X232627Y14174D1*
G1X233252Y13549D1*
G1X233252Y8174D1*
G1X253213Y8174D1*
G1X253213Y13549D1*
G1X253838Y14174D1*
G1X259976Y14174D1*
G1X259976Y8174D1*
G1X260976Y8174D1*
G1X260976Y14174D1*
G1X267115Y14174D1*
G1X267740Y13549D1*
G1X267740Y8174D1*
G1X304632Y8174D1*
G1X304632Y23926D1*
G1X267740Y23926D1*
G1X267740Y15799D1*
G1X267115Y15174D1*
G1X260976Y15174D1*
G1X260976Y15253D1*
G1X259976Y15253D1*
G1X259976Y15174D1*
G1X253838Y15174D1*
G1X253213Y15799D1*
G1X253213Y23926D1*
G1X233252Y23926D1*
G1X233252Y15799D1*
G1X232627Y15174D1*
G1X226488Y15174D1*
G1X226488Y15253D1*
G1X225488Y15253D1*
G1X225488Y15174D1*
G1X219349Y15174D1*
G1X218724Y15799D1*
G1X218724Y23926D1*
G1X196932Y23926D1*
G1X196932Y8174D1*
G37*
G36*
G1X196932Y23926D2*
G1X218724Y23926D1*
G1X218724Y25172D1*
G1X219105Y26091D1*
G1X219808Y26794D1*
G1X220727Y27174D1*
G1X221643Y27174D1*
G1X221527Y28775D1*
G1X222080Y30439D1*
G1X222920Y30578D1*
G1X223424Y30075D1*
G1X223666Y30317D1*
G1X224323Y30589D1*
G1X223628Y31285D1*
G1X223766Y32126D1*
G1X224795Y32552D1*
G1X226545Y32679D1*
G1X228210Y32126D1*
G1X228349Y31285D1*
G1X227653Y30589D1*
G1X228310Y30317D1*
G1X228552Y30075D1*
G1X229056Y30578D1*
G1X229897Y30439D1*
G1X230323Y29410D1*
G1X230449Y27661D1*
G1X230288Y27174D1*
G1X231249Y27174D1*
G1X232168Y26794D1*
G1X232871Y26091D1*
G1X233252Y25172D1*
G1X233252Y23926D1*
G1X253213Y23926D1*
G1X253213Y25172D1*
G1X253593Y26091D1*
G1X254296Y26794D1*
G1X255215Y27174D1*
G1X256131Y27174D1*
G1X256015Y28775D1*
G1X256568Y30439D1*
G1X257409Y30578D1*
G1X257912Y30075D1*
G1X258155Y30317D1*
G1X258812Y30589D1*
G1X258116Y31285D1*
G1X258255Y32126D1*
G1X259284Y32552D1*
G1X261033Y32679D1*
G1X262698Y32126D1*
G1X262837Y31285D1*
G1X262141Y30589D1*
G1X262798Y30317D1*
G1X263041Y30075D1*
G1X263544Y30578D1*
G1X264385Y30439D1*
G1X264811Y29410D1*
G1X264938Y27661D1*
G1X264776Y27174D1*
G1X265737Y27174D1*
G1X266656Y26794D1*
G1X267359Y26091D1*
G1X267740Y25172D1*
G1X267740Y23926D1*
G1X304632Y23926D1*
G1X304632Y59346D1*
G1X196932Y59346D1*
G1X196932Y23926D1*
G37*
G1X304632Y946D2*
G1X196932Y946D1*
G1X196932Y13549D1*
G1X218724Y13549D1*
G1X218724Y4177D1*
G1X219105Y3258D1*
G1X219808Y2555D1*
G1X220727Y2174D1*
G1X224863Y2174D1*
G1X225488Y2799D1*
G1X225488Y14174D1*
G1X226488Y14174D1*
G1X226488Y2799D1*
G1X227113Y2174D1*
G1X231249Y2174D1*
G1X232168Y2555D1*
G1X232871Y3258D1*
G1X233252Y4177D1*
G1X233252Y13549D1*
G1X253213Y13549D1*
G1X253213Y4177D1*
G1X253593Y3258D1*
G1X254296Y2555D1*
G1X255215Y2174D1*
G1X259351Y2174D1*
G1X259976Y2799D1*
G1X259976Y14174D1*
G1X260976Y14174D1*
G1X260976Y2799D1*
G1X261601Y2174D1*
G1X265737Y2174D1*
G1X266656Y2555D1*
G1X267359Y3258D1*
G1X267740Y4177D1*
G1X267740Y13549D1*
G1X267115Y14174D1*
G1X260976Y14174D1*
G1X259976Y14174D1*
G1X253838Y14174D1*
G1X253213Y13549D1*
G1X233252Y13549D1*
G1X232627Y14174D1*
G1X226488Y14174D1*
G1X225488Y14174D1*
G1X219349Y14174D1*
G1X218724Y13549D1*
G1X196932Y13549D1*
G1X196932Y25172D1*
G1X218724Y25172D1*
G1X218724Y15799D1*
G1X219349Y15174D1*
G1X225488Y15174D1*
G1X225488Y15253D1*
G1X226488Y15253D1*
G1X226488Y15174D1*
G1X232627Y15174D1*
G1X233252Y15799D1*
G1X233252Y25172D1*
G1X253213Y25172D1*
G1X253213Y15799D1*
G1X253838Y15174D1*
G1X259976Y15174D1*
G1X259976Y15253D1*
G1X260976Y15253D1*
G1X260976Y15174D1*
G1X267115Y15174D1*
G1X267740Y15799D1*
G1X267740Y25172D1*
G1X267359Y26091D1*
G1X266656Y26794D1*
G1X265737Y27174D1*
G1X264776Y27174D1*
G1X264938Y27661D1*
G1X264811Y29410D1*
G1X264385Y30439D1*
G1X263544Y30578D1*
G1X263041Y30075D1*
G1X262798Y30317D1*
G1X262141Y30589D1*
G1X262837Y31285D1*
G1X262698Y32126D1*
G1X261033Y32679D1*
G1X259284Y32552D1*
G1X258255Y32126D1*
G1X258116Y31285D1*
G1X258812Y30589D1*
G1X258155Y30317D1*
G1X257912Y30075D1*
G1X257409Y30578D1*
G1X256568Y30439D1*
G1X256015Y28775D1*
G1X256131Y27174D1*
G1X255215Y27174D1*
G1X254296Y26794D1*
G1X253593Y26091D1*
G1X253213Y25172D1*
G1X233252Y25172D1*
G1X232871Y26091D1*
G1X232168Y26794D1*
G1X231249Y27174D1*
G1X230288Y27174D1*
G1X230449Y27661D1*
G1X230323Y29410D1*
G1X229897Y30439D1*
G1X229056Y30578D1*
G1X228552Y30075D1*
G1X228310Y30317D1*
G1X227653Y30589D1*
G1X228349Y31285D1*
G1X228210Y32126D1*
G1X226545Y32679D1*
G1X224795Y32552D1*
G1X223766Y32126D1*
G1X223628Y31285D1*
G1X224323Y30589D1*
G1X223666Y30317D1*
G1X223424Y30075D1*
G1X222920Y30578D1*
G1X222080Y30439D1*
G1X221527Y28775D1*
G1X221643Y27174D1*
G1X220727Y27174D1*
G1X219808Y26794D1*
G1X219105Y26091D1*
G1X218724Y25172D1*
G1X196932Y25172D1*
G1X196932Y59346D1*
G1X304632Y59346D1*
G1X304632Y946D1*
G54D11*
G1X363568Y14645D3*
G1X398056Y14645D3*
G54D12*
G1X363568Y28189D3*
G1X398056Y28189D3*
G54D13*
G1X363568Y26417D3*
G1X398056Y26417D3*
G54D22*
G1X404262Y68467D3*
G54D14*
G36*
G1X316962Y8145D2*
G1X316962Y967D1*
G1X439662Y967D1*
G1X439662Y8145D1*
G1X405320Y8145D1*
G1X405320Y4148D1*
G1X404939Y3229D1*
G1X404236Y2526D1*
G1X403317Y2145D1*
G1X399181Y2145D1*
G1X398556Y2770D1*
G1X398556Y8145D1*
G1X397556Y8145D1*
G1X397556Y2770D1*
G1X396931Y2145D1*
G1X392795Y2145D1*
G1X391876Y2526D1*
G1X391173Y3229D1*
G1X390792Y4148D1*
G1X390792Y8145D1*
G1X370831Y8145D1*
G1X370831Y4148D1*
G1X370451Y3229D1*
G1X369748Y2526D1*
G1X368829Y2145D1*
G1X364693Y2145D1*
G1X364068Y2770D1*
G1X364068Y8145D1*
G1X363068Y8145D1*
G1X363068Y2770D1*
G1X362443Y2145D1*
G1X358307Y2145D1*
G1X357388Y2526D1*
G1X356685Y3229D1*
G1X356304Y4148D1*
G1X356304Y8145D1*
G1X316962Y8145D1*
G37*
G36*
G1X316962Y23897D2*
G1X316962Y8145D1*
G1X356304Y8145D1*
G1X356304Y13520D1*
G1X356929Y14145D1*
G1X363068Y14145D1*
G1X363068Y8145D1*
G1X364068Y8145D1*
G1X364068Y14145D1*
G1X370206Y14145D1*
G1X370831Y13520D1*
G1X370831Y8145D1*
G1X390792Y8145D1*
G1X390792Y13520D1*
G1X391417Y14145D1*
G1X397556Y14145D1*
G1X397556Y8145D1*
G1X398556Y8145D1*
G1X398556Y14145D1*
G1X404695Y14145D1*
G1X405320Y13520D1*
G1X405320Y8145D1*
G1X439662Y8145D1*
G1X439662Y23897D1*
G1X405320Y23897D1*
G1X405320Y15770D1*
G1X404695Y15145D1*
G1X398556Y15145D1*
G1X398556Y15224D1*
G1X397556Y15224D1*
G1X397556Y15145D1*
G1X391417Y15145D1*
G1X390792Y15770D1*
G1X390792Y23897D1*
G1X370831Y23897D1*
G1X370831Y15770D1*
G1X370206Y15145D1*
G1X364068Y15145D1*
G1X364068Y15224D1*
G1X363068Y15224D1*
G1X363068Y15145D1*
G1X356929Y15145D1*
G1X356304Y15770D1*
G1X356304Y23897D1*
G1X316962Y23897D1*
G37*
G36*
G1X316962Y23897D2*
G1X356304Y23897D1*
G1X356304Y25143D1*
G1X356685Y26062D1*
G1X357388Y26765D1*
G1X358307Y27145D1*
G1X359222Y27145D1*
G1X359106Y28746D1*
G1X359659Y30410D1*
G1X360500Y30549D1*
G1X361004Y30046D1*
G1X361246Y30288D1*
G1X361903Y30561D1*
G1X361207Y31256D1*
G1X361346Y32097D1*
G1X362375Y32523D1*
G1X364125Y32650D1*
G1X365789Y32097D1*
G1X365928Y31256D1*
G1X365232Y30561D1*
G1X365889Y30288D1*
G1X366132Y30046D1*
G1X366635Y30549D1*
G1X367476Y30410D1*
G1X367902Y29381D1*
G1X368029Y27632D1*
G1X367867Y27145D1*
G1X368829Y27145D1*
G1X369748Y26765D1*
G1X370451Y26062D1*
G1X370831Y25143D1*
G1X370831Y23897D1*
G1X390792Y23897D1*
G1X390792Y25143D1*
G1X391173Y26062D1*
G1X391876Y26765D1*
G1X392795Y27145D1*
G1X393710Y27145D1*
G1X393595Y28746D1*
G1X394147Y30410D1*
G1X394988Y30549D1*
G1X395492Y30046D1*
G1X395734Y30288D1*
G1X396391Y30561D1*
G1X395695Y31256D1*
G1X395834Y32097D1*
G1X396863Y32523D1*
G1X398613Y32650D1*
G1X400278Y32097D1*
G1X400417Y31256D1*
G1X399721Y30561D1*
G1X400378Y30288D1*
G1X400620Y30046D1*
G1X401124Y30549D1*
G1X401964Y30410D1*
G1X402391Y29381D1*
G1X402517Y27632D1*
G1X402356Y27145D1*
G1X403317Y27145D1*
G1X404236Y26765D1*
G1X404939Y26062D1*
G1X405320Y25143D1*
G1X405320Y23897D1*
G1X439662Y23897D1*
G1X439662Y69967D1*
G1X316962Y69967D1*
G1X316962Y23897D1*
G37*
G1X439662Y967D2*
G1X316962Y967D1*
G1X316962Y13520D1*
G1X356304Y13520D1*
G1X356304Y4148D1*
G1X356685Y3229D1*
G1X357388Y2526D1*
G1X358307Y2145D1*
G1X362443Y2145D1*
G1X363068Y2770D1*
G1X363068Y14145D1*
G1X364068Y14145D1*
G1X364068Y2770D1*
G1X364693Y2145D1*
G1X368829Y2145D1*
G1X369748Y2526D1*
G1X370451Y3229D1*
G1X370831Y4148D1*
G1X370831Y13520D1*
G1X390792Y13520D1*
G1X390792Y4148D1*
G1X391173Y3229D1*
G1X391876Y2526D1*
G1X392795Y2145D1*
G1X396931Y2145D1*
G1X397556Y2770D1*
G1X397556Y14145D1*
G1X398556Y14145D1*
G1X398556Y2770D1*
G1X399181Y2145D1*
G1X403317Y2145D1*
G1X404236Y2526D1*
G1X404939Y3229D1*
G1X405320Y4148D1*
G1X405320Y13520D1*
G1X404695Y14145D1*
G1X398556Y14145D1*
G1X397556Y14145D1*
G1X391417Y14145D1*
G1X390792Y13520D1*
G1X370831Y13520D1*
G1X370206Y14145D1*
G1X364068Y14145D1*
G1X363068Y14145D1*
G1X356929Y14145D1*
G1X356304Y13520D1*
G1X316962Y13520D1*
G1X316962Y25143D1*
G1X356304Y25143D1*
G1X356304Y15770D1*
G1X356929Y15145D1*
G1X363068Y15145D1*
G1X363068Y15224D1*
G1X364068Y15224D1*
G1X364068Y15145D1*
G1X370206Y15145D1*
G1X370831Y15770D1*
G1X370831Y25143D1*
G1X390792Y25143D1*
G1X390792Y15770D1*
G1X391417Y15145D1*
G1X397556Y15145D1*
G1X397556Y15224D1*
G1X398556Y15224D1*
G1X398556Y15145D1*
G1X404695Y15145D1*
G1X405320Y15770D1*
G1X405320Y25143D1*
G1X404939Y26062D1*
G1X404236Y26765D1*
G1X403317Y27145D1*
G1X402356Y27145D1*
G1X402517Y27632D1*
G1X402391Y29381D1*
G1X401964Y30410D1*
G1X401124Y30549D1*
G1X400620Y30046D1*
G1X400378Y30288D1*
G1X399721Y30561D1*
G1X400417Y31256D1*
G1X400278Y32097D1*
G1X398613Y32650D1*
G1X396863Y32523D1*
G1X395834Y32097D1*
G1X395695Y31256D1*
G1X396391Y30561D1*
G1X395734Y30288D1*
G1X395492Y30046D1*
G1X394988Y30549D1*
G1X394147Y30410D1*
G1X393595Y28746D1*
G1X393710Y27145D1*
G1X392795Y27145D1*
G1X391876Y26765D1*
G1X391173Y26062D1*
G1X390792Y25143D1*
G1X370831Y25143D1*
G1X370451Y26062D1*
G1X369748Y26765D1*
G1X368829Y27145D1*
G1X367867Y27145D1*
G1X368029Y27632D1*
G1X367902Y29381D1*
G1X367476Y30410D1*
G1X366635Y30549D1*
G1X366132Y30046D1*
G1X365889Y30288D1*
G1X365232Y30561D1*
G1X365928Y31256D1*
G1X365789Y32097D1*
G1X364125Y32650D1*
G1X362375Y32523D1*
G1X361346Y32097D1*
G1X361207Y31256D1*
G1X361903Y30561D1*
G1X361246Y30288D1*
G1X361004Y30046D1*
G1X360500Y30549D1*
G1X359659Y30410D1*
G1X359106Y28746D1*
G1X359222Y27145D1*
G1X358307Y27145D1*
G1X357388Y26765D1*
G1X356685Y26062D1*
G1X356304Y25143D1*
G1X316962Y25143D1*
G1X316962Y69967D1*
G1X439662Y69967D1*
G1X439662Y967D1*
M2*
