G04 #@! TF.FileFunction,Copper,L2,Bot,Signal*
%FSLAX46Y46*%
G04 Gerber Fmt 4.6, Leading zero omitted, Abs format (unit mm)*
G04 Created by KiCad (PCBNEW 4.0.5) date 02/15/17 17:22:41*
%MOMM*%
%LPD*%
G01*
G04 APERTURE LIST*
%ADD10C,0.100000*%
%ADD11R,2.420000X5.080000*%
%ADD12C,0.970000*%
%ADD13R,0.460000X0.890000*%
%ADD14C,0.254000*%
G04 APERTURE END LIST*
D10*
D11*
X124525000Y-123640000D03*
X133285000Y-123640000D03*
D12*
X124525000Y-120200000D03*
X133285000Y-120200000D03*
D13*
X124525000Y-120650000D03*
X133285000Y-120650000D03*
D14*
G36*
X158623000Y-127508000D02*
X111887000Y-127508000D01*
X111887000Y-123925750D01*
X122680000Y-123925750D01*
X122680000Y-126306309D01*
X122776673Y-126539698D01*
X122955301Y-126718327D01*
X123188690Y-126815000D01*
X124239250Y-126815000D01*
X124398000Y-126656250D01*
X124398000Y-123767000D01*
X124652000Y-123767000D01*
X124652000Y-126656250D01*
X124810750Y-126815000D01*
X125861310Y-126815000D01*
X126094699Y-126718327D01*
X126273327Y-126539698D01*
X126370000Y-126306309D01*
X126370000Y-123925750D01*
X131440000Y-123925750D01*
X131440000Y-126306309D01*
X131536673Y-126539698D01*
X131715301Y-126718327D01*
X131948690Y-126815000D01*
X132999250Y-126815000D01*
X133158000Y-126656250D01*
X133158000Y-123767000D01*
X133412000Y-123767000D01*
X133412000Y-126656250D01*
X133570750Y-126815000D01*
X134621310Y-126815000D01*
X134854699Y-126718327D01*
X135033327Y-126539698D01*
X135130000Y-126306309D01*
X135130000Y-123925750D01*
X134971250Y-123767000D01*
X133412000Y-123767000D01*
X133158000Y-123767000D01*
X131598750Y-123767000D01*
X131440000Y-123925750D01*
X126370000Y-123925750D01*
X126211250Y-123767000D01*
X124652000Y-123767000D01*
X124398000Y-123767000D01*
X122838750Y-123767000D01*
X122680000Y-123925750D01*
X111887000Y-123925750D01*
X111887000Y-120973691D01*
X122680000Y-120973691D01*
X122680000Y-123354250D01*
X122838750Y-123513000D01*
X124398000Y-123513000D01*
X124398000Y-123493000D01*
X124652000Y-123493000D01*
X124652000Y-123513000D01*
X126211250Y-123513000D01*
X126370000Y-123354250D01*
X126370000Y-120973691D01*
X131440000Y-120973691D01*
X131440000Y-123354250D01*
X131598750Y-123513000D01*
X133158000Y-123513000D01*
X133158000Y-123493000D01*
X133412000Y-123493000D01*
X133412000Y-123513000D01*
X134971250Y-123513000D01*
X135130000Y-123354250D01*
X135130000Y-120973691D01*
X135033327Y-120740302D01*
X134854699Y-120561673D01*
X134621310Y-120465000D01*
X134377129Y-120465000D01*
X134418149Y-120341436D01*
X134386018Y-119897032D01*
X134277768Y-119635692D01*
X134064200Y-119600405D01*
X133936315Y-119728290D01*
X133874699Y-119666673D01*
X133707838Y-119597557D01*
X133884595Y-119420800D01*
X133849308Y-119207232D01*
X133426436Y-119066851D01*
X132982032Y-119098982D01*
X132720692Y-119207232D01*
X132685405Y-119420800D01*
X132862162Y-119597557D01*
X132695301Y-119666673D01*
X132633685Y-119728290D01*
X132505800Y-119600405D01*
X132292232Y-119635692D01*
X132151851Y-120058564D01*
X132181237Y-120465000D01*
X131948690Y-120465000D01*
X131715301Y-120561673D01*
X131536673Y-120740302D01*
X131440000Y-120973691D01*
X126370000Y-120973691D01*
X126273327Y-120740302D01*
X126094699Y-120561673D01*
X125861310Y-120465000D01*
X125617129Y-120465000D01*
X125658149Y-120341436D01*
X125626018Y-119897032D01*
X125517768Y-119635692D01*
X125304200Y-119600405D01*
X125176315Y-119728290D01*
X125114699Y-119666673D01*
X124947838Y-119597557D01*
X125124595Y-119420800D01*
X125089308Y-119207232D01*
X124666436Y-119066851D01*
X124222032Y-119098982D01*
X123960692Y-119207232D01*
X123925405Y-119420800D01*
X124102162Y-119597557D01*
X123935301Y-119666673D01*
X123873685Y-119728290D01*
X123745800Y-119600405D01*
X123532232Y-119635692D01*
X123391851Y-120058564D01*
X123421237Y-120465000D01*
X123188690Y-120465000D01*
X122955301Y-120561673D01*
X122776673Y-120740302D01*
X122680000Y-120973691D01*
X111887000Y-120973691D01*
X111887000Y-54737000D01*
X158623000Y-54737000D01*
X158623000Y-127508000D01*
X158623000Y-127508000D01*
G37*
X158623000Y-127508000D02*
X111887000Y-127508000D01*
X111887000Y-123925750D01*
X122680000Y-123925750D01*
X122680000Y-126306309D01*
X122776673Y-126539698D01*
X122955301Y-126718327D01*
X123188690Y-126815000D01*
X124239250Y-126815000D01*
X124398000Y-126656250D01*
X124398000Y-123767000D01*
X124652000Y-123767000D01*
X124652000Y-126656250D01*
X124810750Y-126815000D01*
X125861310Y-126815000D01*
X126094699Y-126718327D01*
X126273327Y-126539698D01*
X126370000Y-126306309D01*
X126370000Y-123925750D01*
X131440000Y-123925750D01*
X131440000Y-126306309D01*
X131536673Y-126539698D01*
X131715301Y-126718327D01*
X131948690Y-126815000D01*
X132999250Y-126815000D01*
X133158000Y-126656250D01*
X133158000Y-123767000D01*
X133412000Y-123767000D01*
X133412000Y-126656250D01*
X133570750Y-126815000D01*
X134621310Y-126815000D01*
X134854699Y-126718327D01*
X135033327Y-126539698D01*
X135130000Y-126306309D01*
X135130000Y-123925750D01*
X134971250Y-123767000D01*
X133412000Y-123767000D01*
X133158000Y-123767000D01*
X131598750Y-123767000D01*
X131440000Y-123925750D01*
X126370000Y-123925750D01*
X126211250Y-123767000D01*
X124652000Y-123767000D01*
X124398000Y-123767000D01*
X122838750Y-123767000D01*
X122680000Y-123925750D01*
X111887000Y-123925750D01*
X111887000Y-120973691D01*
X122680000Y-120973691D01*
X122680000Y-123354250D01*
X122838750Y-123513000D01*
X124398000Y-123513000D01*
X124398000Y-123493000D01*
X124652000Y-123493000D01*
X124652000Y-123513000D01*
X126211250Y-123513000D01*
X126370000Y-123354250D01*
X126370000Y-120973691D01*
X131440000Y-120973691D01*
X131440000Y-123354250D01*
X131598750Y-123513000D01*
X133158000Y-123513000D01*
X133158000Y-123493000D01*
X133412000Y-123493000D01*
X133412000Y-123513000D01*
X134971250Y-123513000D01*
X135130000Y-123354250D01*
X135130000Y-120973691D01*
X135033327Y-120740302D01*
X134854699Y-120561673D01*
X134621310Y-120465000D01*
X134377129Y-120465000D01*
X134418149Y-120341436D01*
X134386018Y-119897032D01*
X134277768Y-119635692D01*
X134064200Y-119600405D01*
X133936315Y-119728290D01*
X133874699Y-119666673D01*
X133707838Y-119597557D01*
X133884595Y-119420800D01*
X133849308Y-119207232D01*
X133426436Y-119066851D01*
X132982032Y-119098982D01*
X132720692Y-119207232D01*
X132685405Y-119420800D01*
X132862162Y-119597557D01*
X132695301Y-119666673D01*
X132633685Y-119728290D01*
X132505800Y-119600405D01*
X132292232Y-119635692D01*
X132151851Y-120058564D01*
X132181237Y-120465000D01*
X131948690Y-120465000D01*
X131715301Y-120561673D01*
X131536673Y-120740302D01*
X131440000Y-120973691D01*
X126370000Y-120973691D01*
X126273327Y-120740302D01*
X126094699Y-120561673D01*
X125861310Y-120465000D01*
X125617129Y-120465000D01*
X125658149Y-120341436D01*
X125626018Y-119897032D01*
X125517768Y-119635692D01*
X125304200Y-119600405D01*
X125176315Y-119728290D01*
X125114699Y-119666673D01*
X124947838Y-119597557D01*
X125124595Y-119420800D01*
X125089308Y-119207232D01*
X124666436Y-119066851D01*
X124222032Y-119098982D01*
X123960692Y-119207232D01*
X123925405Y-119420800D01*
X124102162Y-119597557D01*
X123935301Y-119666673D01*
X123873685Y-119728290D01*
X123745800Y-119600405D01*
X123532232Y-119635692D01*
X123391851Y-120058564D01*
X123421237Y-120465000D01*
X123188690Y-120465000D01*
X122955301Y-120561673D01*
X122776673Y-120740302D01*
X122680000Y-120973691D01*
X111887000Y-120973691D01*
X111887000Y-54737000D01*
X158623000Y-54737000D01*
X158623000Y-127508000D01*
M02*
