G04 #@! TF.FileFunction,Legend,Bot*
%FSLAX46Y46*%
G04 Gerber Fmt 4.6, Leading zero omitted, Abs format (unit mm)*
G04 Created by KiCad (PCBNEW 4.0.6) date 03/28/17 11:19:29*
%MOMM*%
%LPD*%
G01*
G04 APERTURE LIST*
%ADD10C,0.025400*%
%ADD11C,0.120000*%
%ADD12C,0.076200*%
G04 APERTURE END LIST*
D10*
D11*
X16609500Y33497500D02*
X21109500Y33497500D01*
X21109500Y33497500D02*
X21109500Y28097500D01*
X25150000Y24981000D02*
X25650000Y24981000D01*
X25650000Y24041000D02*
X25150000Y24041000D01*
X25150000Y26759000D02*
X25650000Y26759000D01*
X25650000Y25819000D02*
X25150000Y25819000D01*
X19181000Y34506000D02*
X19681000Y34506000D01*
X19681000Y33566000D02*
X19181000Y33566000D01*
X18538000Y27089000D02*
X18038000Y27089000D01*
X18038000Y28029000D02*
X18538000Y28029000D01*
X13043000Y31238000D02*
X13043000Y30738000D01*
X12103000Y30738000D02*
X12103000Y31238000D01*
X24092000Y22983000D02*
X24092000Y22483000D01*
X23152000Y22483000D02*
X23152000Y22983000D01*
X21945500Y27817000D02*
X21945500Y28317000D01*
X22885500Y28317000D02*
X22885500Y27817000D01*
X23308500Y25870000D02*
X23808500Y25870000D01*
X23808500Y24930000D02*
X23308500Y24930000D01*
X84734500Y42160000D02*
X84734500Y41660000D01*
X83794500Y41660000D02*
X83794500Y42160000D01*
X85623500Y42160000D02*
X85623500Y41660000D01*
X84683500Y41660000D02*
X84683500Y42160000D01*
X86512500Y42160000D02*
X86512500Y41660000D01*
X85572500Y41660000D02*
X85572500Y42160000D01*
X14516000Y28502800D02*
X14516000Y29002800D01*
X15456000Y29002800D02*
X15456000Y28502800D01*
X15018500Y31080000D02*
X14318500Y31080000D01*
X14318500Y29880000D02*
X15018500Y29880000D01*
X23329000Y21455000D02*
X23329000Y20455000D01*
X21629000Y20455000D02*
X21629000Y21455000D01*
D12*
X21641405Y31039405D02*
X21883310Y31039405D01*
X21375310Y31208738D02*
X21641405Y31039405D01*
X21375310Y30870071D01*
X21423690Y30724928D02*
X21399500Y30700738D01*
X21375310Y30652357D01*
X21375310Y30531404D01*
X21399500Y30483023D01*
X21423690Y30458833D01*
X21472071Y30434642D01*
X21520452Y30434642D01*
X21593024Y30458833D01*
X21883310Y30749119D01*
X21883310Y30434642D01*
X25484667Y23440571D02*
X25508857Y23416381D01*
X25581429Y23392190D01*
X25629810Y23392190D01*
X25702381Y23416381D01*
X25750762Y23464762D01*
X25774953Y23513143D01*
X25799143Y23609905D01*
X25799143Y23682476D01*
X25774953Y23779238D01*
X25750762Y23827619D01*
X25702381Y23876000D01*
X25629810Y23900190D01*
X25581429Y23900190D01*
X25508857Y23876000D01*
X25484667Y23851810D01*
X25049238Y23900190D02*
X25146000Y23900190D01*
X25194381Y23876000D01*
X25218572Y23851810D01*
X25266953Y23779238D01*
X25291143Y23682476D01*
X25291143Y23488952D01*
X25266953Y23440571D01*
X25242762Y23416381D01*
X25194381Y23392190D01*
X25097619Y23392190D01*
X25049238Y23416381D01*
X25025048Y23440571D01*
X25000857Y23488952D01*
X25000857Y23609905D01*
X25025048Y23658286D01*
X25049238Y23682476D01*
X25097619Y23706667D01*
X25194381Y23706667D01*
X25242762Y23682476D01*
X25266953Y23658286D01*
X25291143Y23609905D01*
X25484667Y26933071D02*
X25508857Y26908881D01*
X25581429Y26884690D01*
X25629810Y26884690D01*
X25702381Y26908881D01*
X25750762Y26957262D01*
X25774953Y27005643D01*
X25799143Y27102405D01*
X25799143Y27174976D01*
X25774953Y27271738D01*
X25750762Y27320119D01*
X25702381Y27368500D01*
X25629810Y27392690D01*
X25581429Y27392690D01*
X25508857Y27368500D01*
X25484667Y27344310D01*
X25315334Y27392690D02*
X24976667Y27392690D01*
X25194381Y26884690D01*
X19515667Y34680071D02*
X19539857Y34655881D01*
X19612429Y34631690D01*
X19660810Y34631690D01*
X19733381Y34655881D01*
X19781762Y34704262D01*
X19805953Y34752643D01*
X19830143Y34849405D01*
X19830143Y34921976D01*
X19805953Y35018738D01*
X19781762Y35067119D01*
X19733381Y35115500D01*
X19660810Y35139690D01*
X19612429Y35139690D01*
X19539857Y35115500D01*
X19515667Y35091310D01*
X19225381Y34921976D02*
X19273762Y34946167D01*
X19297953Y34970357D01*
X19322143Y35018738D01*
X19322143Y35042929D01*
X19297953Y35091310D01*
X19273762Y35115500D01*
X19225381Y35139690D01*
X19128619Y35139690D01*
X19080238Y35115500D01*
X19056048Y35091310D01*
X19031857Y35042929D01*
X19031857Y35018738D01*
X19056048Y34970357D01*
X19080238Y34946167D01*
X19128619Y34921976D01*
X19225381Y34921976D01*
X19273762Y34897786D01*
X19297953Y34873595D01*
X19322143Y34825214D01*
X19322143Y34728452D01*
X19297953Y34680071D01*
X19273762Y34655881D01*
X19225381Y34631690D01*
X19128619Y34631690D01*
X19080238Y34655881D01*
X19056048Y34680071D01*
X19031857Y34728452D01*
X19031857Y34825214D01*
X19056048Y34873595D01*
X19080238Y34897786D01*
X19128619Y34921976D01*
X18372667Y26488571D02*
X18396857Y26464381D01*
X18469429Y26440190D01*
X18517810Y26440190D01*
X18590381Y26464381D01*
X18638762Y26512762D01*
X18662953Y26561143D01*
X18687143Y26657905D01*
X18687143Y26730476D01*
X18662953Y26827238D01*
X18638762Y26875619D01*
X18590381Y26924000D01*
X18517810Y26948190D01*
X18469429Y26948190D01*
X18396857Y26924000D01*
X18372667Y26899810D01*
X18130762Y26440190D02*
X18034000Y26440190D01*
X17985619Y26464381D01*
X17961429Y26488571D01*
X17913048Y26561143D01*
X17888857Y26657905D01*
X17888857Y26851429D01*
X17913048Y26899810D01*
X17937238Y26924000D01*
X17985619Y26948190D01*
X18082381Y26948190D01*
X18130762Y26924000D01*
X18154953Y26899810D01*
X18179143Y26851429D01*
X18179143Y26730476D01*
X18154953Y26682095D01*
X18130762Y26657905D01*
X18082381Y26633714D01*
X17985619Y26633714D01*
X17937238Y26657905D01*
X17913048Y26682095D01*
X17888857Y26730476D01*
X11928929Y31314572D02*
X11953119Y31338762D01*
X11977310Y31411334D01*
X11977310Y31459715D01*
X11953119Y31532286D01*
X11904738Y31580667D01*
X11856357Y31604858D01*
X11759595Y31629048D01*
X11687024Y31629048D01*
X11590262Y31604858D01*
X11541881Y31580667D01*
X11493500Y31532286D01*
X11469310Y31459715D01*
X11469310Y31411334D01*
X11493500Y31338762D01*
X11517690Y31314572D01*
X11977310Y30830762D02*
X11977310Y31121048D01*
X11977310Y30975905D02*
X11469310Y30975905D01*
X11541881Y31024286D01*
X11590262Y31072667D01*
X11614452Y31121048D01*
X11469310Y30661429D02*
X11469310Y30346952D01*
X11662833Y30516286D01*
X11662833Y30443714D01*
X11687024Y30395333D01*
X11711214Y30371143D01*
X11759595Y30346952D01*
X11880548Y30346952D01*
X11928929Y30371143D01*
X11953119Y30395333D01*
X11977310Y30443714D01*
X11977310Y30588857D01*
X11953119Y30637238D01*
X11928929Y30661429D01*
X24692429Y23059572D02*
X24716619Y23083762D01*
X24740810Y23156334D01*
X24740810Y23204715D01*
X24716619Y23277286D01*
X24668238Y23325667D01*
X24619857Y23349858D01*
X24523095Y23374048D01*
X24450524Y23374048D01*
X24353762Y23349858D01*
X24305381Y23325667D01*
X24257000Y23277286D01*
X24232810Y23204715D01*
X24232810Y23156334D01*
X24257000Y23083762D01*
X24281190Y23059572D01*
X24740810Y22575762D02*
X24740810Y22866048D01*
X24740810Y22720905D02*
X24232810Y22720905D01*
X24305381Y22769286D01*
X24353762Y22817667D01*
X24377952Y22866048D01*
X24402143Y22140333D02*
X24740810Y22140333D01*
X24208619Y22261286D02*
X24571476Y22382238D01*
X24571476Y22067762D01*
X21771429Y28393572D02*
X21795619Y28417762D01*
X21819810Y28490334D01*
X21819810Y28538715D01*
X21795619Y28611286D01*
X21747238Y28659667D01*
X21698857Y28683858D01*
X21602095Y28708048D01*
X21529524Y28708048D01*
X21432762Y28683858D01*
X21384381Y28659667D01*
X21336000Y28611286D01*
X21311810Y28538715D01*
X21311810Y28490334D01*
X21336000Y28417762D01*
X21360190Y28393572D01*
X21819810Y27909762D02*
X21819810Y28200048D01*
X21819810Y28054905D02*
X21311810Y28054905D01*
X21384381Y28103286D01*
X21432762Y28151667D01*
X21456952Y28200048D01*
X21311810Y27450143D02*
X21311810Y27692048D01*
X21553714Y27716238D01*
X21529524Y27692048D01*
X21505333Y27643667D01*
X21505333Y27522714D01*
X21529524Y27474333D01*
X21553714Y27450143D01*
X21602095Y27425952D01*
X21723048Y27425952D01*
X21771429Y27450143D01*
X21795619Y27474333D01*
X21819810Y27522714D01*
X21819810Y27643667D01*
X21795619Y27692048D01*
X21771429Y27716238D01*
X23885072Y26044071D02*
X23909262Y26019881D01*
X23981834Y25995690D01*
X24030215Y25995690D01*
X24102786Y26019881D01*
X24151167Y26068262D01*
X24175358Y26116643D01*
X24199548Y26213405D01*
X24199548Y26285976D01*
X24175358Y26382738D01*
X24151167Y26431119D01*
X24102786Y26479500D01*
X24030215Y26503690D01*
X23981834Y26503690D01*
X23909262Y26479500D01*
X23885072Y26455310D01*
X23401262Y25995690D02*
X23691548Y25995690D01*
X23546405Y25995690D02*
X23546405Y26503690D01*
X23594786Y26431119D01*
X23643167Y26382738D01*
X23691548Y26358548D01*
X23110976Y26285976D02*
X23159357Y26310167D01*
X23183548Y26334357D01*
X23207738Y26382738D01*
X23207738Y26406929D01*
X23183548Y26455310D01*
X23159357Y26479500D01*
X23110976Y26503690D01*
X23014214Y26503690D01*
X22965833Y26479500D01*
X22941643Y26455310D01*
X22917452Y26406929D01*
X22917452Y26382738D01*
X22941643Y26334357D01*
X22965833Y26310167D01*
X23014214Y26285976D01*
X23110976Y26285976D01*
X23159357Y26261786D01*
X23183548Y26237595D01*
X23207738Y26189214D01*
X23207738Y26092452D01*
X23183548Y26044071D01*
X23159357Y26019881D01*
X23110976Y25995690D01*
X23014214Y25995690D01*
X22965833Y26019881D01*
X22941643Y26044071D01*
X22917452Y26092452D01*
X22917452Y26189214D01*
X22941643Y26237595D01*
X22965833Y26261786D01*
X23014214Y26285976D01*
X84445929Y44014572D02*
X84470119Y44038762D01*
X84494310Y44111334D01*
X84494310Y44159715D01*
X84470119Y44232286D01*
X84421738Y44280667D01*
X84373357Y44304858D01*
X84276595Y44329048D01*
X84204024Y44329048D01*
X84107262Y44304858D01*
X84058881Y44280667D01*
X84010500Y44232286D01*
X83986310Y44159715D01*
X83986310Y44111334D01*
X84010500Y44038762D01*
X84034690Y44014572D01*
X84034690Y43821048D02*
X84010500Y43796858D01*
X83986310Y43748477D01*
X83986310Y43627524D01*
X84010500Y43579143D01*
X84034690Y43554953D01*
X84083071Y43530762D01*
X84131452Y43530762D01*
X84204024Y43554953D01*
X84494310Y43845239D01*
X84494310Y43530762D01*
X83986310Y43216286D02*
X83986310Y43167905D01*
X84010500Y43119524D01*
X84034690Y43095333D01*
X84083071Y43071143D01*
X84179833Y43046952D01*
X84300786Y43046952D01*
X84397548Y43071143D01*
X84445929Y43095333D01*
X84470119Y43119524D01*
X84494310Y43167905D01*
X84494310Y43216286D01*
X84470119Y43264667D01*
X84445929Y43288857D01*
X84397548Y43313048D01*
X84300786Y43337238D01*
X84179833Y43337238D01*
X84083071Y43313048D01*
X84034690Y43288857D01*
X84010500Y43264667D01*
X83986310Y43216286D01*
X85334929Y44014572D02*
X85359119Y44038762D01*
X85383310Y44111334D01*
X85383310Y44159715D01*
X85359119Y44232286D01*
X85310738Y44280667D01*
X85262357Y44304858D01*
X85165595Y44329048D01*
X85093024Y44329048D01*
X84996262Y44304858D01*
X84947881Y44280667D01*
X84899500Y44232286D01*
X84875310Y44159715D01*
X84875310Y44111334D01*
X84899500Y44038762D01*
X84923690Y44014572D01*
X84923690Y43821048D02*
X84899500Y43796858D01*
X84875310Y43748477D01*
X84875310Y43627524D01*
X84899500Y43579143D01*
X84923690Y43554953D01*
X84972071Y43530762D01*
X85020452Y43530762D01*
X85093024Y43554953D01*
X85383310Y43845239D01*
X85383310Y43530762D01*
X85383310Y43046952D02*
X85383310Y43337238D01*
X85383310Y43192095D02*
X84875310Y43192095D01*
X84947881Y43240476D01*
X84996262Y43288857D01*
X85020452Y43337238D01*
X86223929Y44014572D02*
X86248119Y44038762D01*
X86272310Y44111334D01*
X86272310Y44159715D01*
X86248119Y44232286D01*
X86199738Y44280667D01*
X86151357Y44304858D01*
X86054595Y44329048D01*
X85982024Y44329048D01*
X85885262Y44304858D01*
X85836881Y44280667D01*
X85788500Y44232286D01*
X85764310Y44159715D01*
X85764310Y44111334D01*
X85788500Y44038762D01*
X85812690Y44014572D01*
X85812690Y43821048D02*
X85788500Y43796858D01*
X85764310Y43748477D01*
X85764310Y43627524D01*
X85788500Y43579143D01*
X85812690Y43554953D01*
X85861071Y43530762D01*
X85909452Y43530762D01*
X85982024Y43554953D01*
X86272310Y43845239D01*
X86272310Y43530762D01*
X85812690Y43337238D02*
X85788500Y43313048D01*
X85764310Y43264667D01*
X85764310Y43143714D01*
X85788500Y43095333D01*
X85812690Y43071143D01*
X85861071Y43046952D01*
X85909452Y43046952D01*
X85982024Y43071143D01*
X86272310Y43361429D01*
X86272310Y43046952D01*
X14390310Y28850167D02*
X14148405Y29019500D01*
X14390310Y29140453D02*
X13882310Y29140453D01*
X13882310Y28946929D01*
X13906500Y28898548D01*
X13930690Y28874357D01*
X13979071Y28850167D01*
X14051643Y28850167D01*
X14100024Y28874357D01*
X14124214Y28898548D01*
X14148405Y28946929D01*
X14148405Y29140453D01*
X14390310Y28366357D02*
X14390310Y28656643D01*
X14390310Y28511500D02*
X13882310Y28511500D01*
X13954881Y28559881D01*
X14003262Y28608262D01*
X14027452Y28656643D01*
X15091833Y31468786D02*
X15261167Y31468786D01*
X15261167Y31202690D02*
X15261167Y31710690D01*
X15019262Y31710690D01*
X14656404Y31468786D02*
X14583833Y31444595D01*
X14559642Y31420405D01*
X14535452Y31372024D01*
X14535452Y31299452D01*
X14559642Y31251071D01*
X14583833Y31226881D01*
X14632214Y31202690D01*
X14825738Y31202690D01*
X14825738Y31710690D01*
X14656404Y31710690D01*
X14608023Y31686500D01*
X14583833Y31662310D01*
X14559642Y31613929D01*
X14559642Y31565548D01*
X14583833Y31517167D01*
X14608023Y31492976D01*
X14656404Y31468786D01*
X14825738Y31468786D01*
X14051642Y31202690D02*
X14341928Y31202690D01*
X14196785Y31202690D02*
X14196785Y31710690D01*
X14245166Y31638119D01*
X14293547Y31589738D01*
X14341928Y31565548D01*
X21502310Y21039667D02*
X21502310Y21281572D01*
X20994310Y21281572D01*
X21163643Y20652619D02*
X21502310Y20652619D01*
X20970119Y20773572D02*
X21332976Y20894524D01*
X21332976Y20580048D01*
M02*
