G04 #@! TF.FileFunction,Soldermask,Bot*
%FSLAX46Y46*%
G04 Gerber Fmt 4.6, Leading zero omitted, Abs format (unit mm)*
G04 Created by KiCad (PCBNEW 4.0.6) date 06/21/17 17:12:11*
%MOMM*%
%LPD*%
G01*
G04 APERTURE LIST*
%ADD10C,0.025400*%
%ADD11C,1.422400*%
%ADD12C,2.152400*%
%ADD13O,1.402400X1.102400*%
%ADD14O,1.152400X1.702400*%
%ADD15C,2.352400*%
%ADD16R,1.402400X1.652400*%
%ADD17R,0.902400X1.352400*%
%ADD18R,0.752400X0.652400*%
%ADD19R,0.652400X0.752400*%
%ADD20C,5.152400*%
%ADD21C,2.192400*%
%ADD22R,1.741400X1.741400*%
%ADD23C,1.741400*%
G04 APERTURE END LIST*
D10*
D11*
X94609920Y16868140D03*
X104642920Y16868140D03*
X106649520Y16868140D03*
X108656120Y16868140D03*
X110662720Y16868140D03*
X112669320Y16868140D03*
X102636320Y16868140D03*
X100629720Y16868140D03*
X98623120Y16868140D03*
X96616520Y16868140D03*
X96616520Y38864540D03*
X98623120Y38864540D03*
X100629720Y38864540D03*
X102636320Y38864540D03*
X112669320Y38864540D03*
X110662720Y38864540D03*
X108656120Y38864540D03*
X106649520Y38864540D03*
X104642920Y38864540D03*
X94609920Y38864540D03*
D12*
X119280940Y75201780D03*
X116740940Y77741780D03*
X119280940Y80281780D03*
D13*
X66902960Y4147800D03*
X71902960Y4147800D03*
D14*
X65902960Y1447800D03*
X72902960Y1447800D03*
D15*
X50320580Y9551040D03*
X50320580Y4551040D03*
X45320580Y9551040D03*
X45320580Y4551040D03*
D16*
X70228460Y62054420D03*
X70228460Y64554420D03*
D17*
X61193680Y73014880D03*
X61193680Y71114880D03*
D18*
X112663060Y42329100D03*
X111563060Y42329100D03*
X112663060Y41445180D03*
X111563060Y41445180D03*
X112663060Y40561260D03*
X111563060Y40561260D03*
D19*
X36144200Y8337640D03*
X36144200Y7237640D03*
D18*
X70595580Y67503040D03*
X69495580Y67503040D03*
X68855680Y63652400D03*
X67755680Y63652400D03*
D19*
X68450460Y71946860D03*
X68450460Y70846860D03*
X68905120Y64555280D03*
X68905120Y65655280D03*
D18*
X63206540Y70205600D03*
X64306540Y70205600D03*
X63206540Y71059040D03*
X64306540Y71059040D03*
X63206540Y71912480D03*
X64306540Y71912480D03*
X68855680Y62798960D03*
X67755680Y62798960D03*
X62020360Y69100700D03*
X63120360Y69100700D03*
D15*
X38890580Y27331040D03*
X38890580Y22331040D03*
X33890580Y27331040D03*
X33890580Y22331040D03*
X21110580Y27331040D03*
X21110580Y22331040D03*
X16110580Y27331040D03*
X16110580Y22331040D03*
X30000580Y36221040D03*
X30000580Y31221040D03*
X25000580Y36221040D03*
X25000580Y31221040D03*
X30000580Y18441040D03*
X30000580Y13441040D03*
X25000580Y18441040D03*
X25000580Y13441040D03*
D12*
X112440140Y57421720D03*
X112440140Y54881720D03*
X112440140Y52341720D03*
X112440140Y49801720D03*
X112440140Y47261720D03*
X112440140Y44721720D03*
X112440140Y59961720D03*
X112440140Y62501720D03*
X112440140Y65041720D03*
X112440140Y67581720D03*
X112440140Y70121720D03*
D20*
X112440140Y90321720D03*
X57440140Y90321720D03*
X57440140Y8321720D03*
X112440140Y8321720D03*
D12*
X112440140Y82821720D03*
X112440140Y80281720D03*
X112440140Y77741720D03*
X112440140Y75201720D03*
X112440140Y72661720D03*
D21*
X98094740Y94813120D03*
X94594740Y94813120D03*
X106857740Y94813120D03*
X103357740Y94813120D03*
X69474140Y94757240D03*
X72974140Y94757240D03*
X98600200Y3924300D03*
X95100200Y3924300D03*
D22*
X33891220Y8338820D03*
D23*
X33891220Y5798820D03*
X31351220Y8338820D03*
X31351220Y5798820D03*
X28811220Y8338820D03*
X28811220Y5798820D03*
X26271220Y8338820D03*
X26271220Y5798820D03*
X23731220Y8338820D03*
X23731220Y5798820D03*
X21191220Y8338820D03*
X21191220Y5798820D03*
X18651220Y8338820D03*
X18651220Y5798820D03*
X16111220Y8338820D03*
X16111220Y5798820D03*
X13571220Y8338820D03*
X13571220Y5798820D03*
X11031220Y8338820D03*
X11031220Y5798820D03*
M02*
