M48
INCH,TZ
FMAT,2
ICI,OFF
T01C.01
T02C.018
T03C.02
T04C.02
T05C.025
T06C.025
%
T01
G05
X525Y2425
X1600Y2675
X1050Y6725
X1050Y7725
X1050Y13425
X1050Y14425
X1050Y15425
X3100Y1140
X3040Y2420
X3050Y7725
X2050Y7725
X2050Y13425
X2050Y14425
X2050Y15425
X4050Y8725
X4050Y7750
X3050Y8725
X3050Y9725
X3050Y11425
X3050Y12425
X3050Y13425
X3050Y14425
X3050Y15425
X4050Y9725
X5050Y9725
X4050Y11425
X4050Y12425
X4050Y13425
X4050Y14425
X4050Y15425
X6100Y1140
X6400Y10375
X5625Y10875
X5900Y11103
X5050Y11425
X5050Y13425
X5050Y14425
X5050Y15425
X6950Y8200
X7040Y2420
X8100Y2675
X8350Y3625
X7793Y9380
X8207Y9380
X7380Y9380
X7380Y9793
X8207Y9793
X7793Y9793
X7380Y10207
X8207Y10207
X7793Y10207
X8207Y10620
X7380Y10620
X7793Y10620
X7250Y11550
X8450Y7800
X8725Y9025
X8620Y9380
X8620Y9793
X8620Y10207
X8620Y10620
X7775Y12350
X9550Y7700
X9450Y8225
X9475Y9750
X8825Y11750
X8825Y12300
X10350Y3625
X12220Y1125
X12225Y1525
X12350Y3625
X23250Y4625
X23250Y2625
X25250Y2625
X25250Y4625
X27250Y4625
X27250Y2625
X29250Y2625
X29250Y4625
X31250Y4625
X31250Y2625
X33250Y2625
X33250Y4625
T02
X2427Y8826
X2427Y12274
T03
X10625Y9625
X10625Y10373
T04
X26085Y6920
X26875Y6920
X26875Y15580
X26085Y15580
X29245Y6920
X27665Y6920
X28455Y6920
X27665Y15580
X29245Y15580
X28455Y15580
X30035Y6920
X30825Y6920
X30825Y15580
X30035Y15580
X31615Y6920
X32405Y6920
X32405Y15580
X31615Y15580
X33195Y15580
X33195Y6920
T05
X1600Y5625
X5600Y5625
X4600Y5625
X7600Y5625
X14100Y5625
X13100Y5625
X15100Y5625
X16100Y5625
X17100Y5625
X18100Y5625
X20100Y5625
X19100Y5625
X20100Y11375
X20100Y12375
X20100Y13375
X20100Y14375
X20100Y16375
T06
X600Y625
X600Y1625
X600Y5625
X3600Y625
X1600Y625
X2600Y625
X1600Y1625
X3600Y1625
X2600Y1625
X3600Y5625
X2600Y5625
X4600Y1625
X4600Y625
X4375Y17100
X5375Y17100
X5600Y625
X6600Y625
X5600Y1625
X6600Y1625
X7600Y625
X8600Y625
X7600Y1625
X8600Y1625
X6600Y5625
X7125Y17100
X8125Y17100
X9600Y1625
X9600Y625
X11350Y625
X11350Y1625
X14100Y625
X13100Y625
X15100Y625
X16100Y625
X17100Y625
X19100Y625
X18100Y625
X20100Y625
X20100Y7375
X20100Y8375
X20100Y9375
X20100Y10375
X20100Y15375
M30
