G04 #@! TF.FileFunction,Copper,L1,Top,Signal*
%FSLAX46Y46*%
G04 Gerber Fmt 4.6, Leading zero omitted, Abs format (unit mm)*
G04 Created by KiCad (PCBNEW 4.0.6) date 06/21/17 17:12:11*
%MOMM*%
%LPD*%
G01*
G04 APERTURE LIST*
%ADD10C,0.025400*%
%ADD11C,1.270000*%
%ADD12C,2.000000*%
%ADD13R,0.400000X1.350000*%
%ADD14O,1.250000X0.950000*%
%ADD15O,1.000000X1.550000*%
%ADD16R,1.500000X1.550000*%
%ADD17R,0.950000X1.550000*%
%ADD18R,1.200000X0.200000*%
%ADD19C,0.356000*%
%ADD20C,2.200000*%
%ADD21R,30.480000X34.925000*%
%ADD22R,0.500000X0.600000*%
%ADD23R,0.800000X0.900000*%
%ADD24R,1.800000X1.000000*%
%ADD25R,0.600000X0.500000*%
%ADD26R,0.800000X0.200000*%
%ADD27R,0.200000X0.800000*%
%ADD28R,1.050000X1.050000*%
%ADD29C,0.355600*%
%ADD30C,5.000000*%
%ADD31C,2.040000*%
%ADD32R,1.589000X1.589000*%
%ADD33C,1.589000*%
%ADD34C,0.508000*%
%ADD35C,0.889000*%
%ADD36C,1.016000*%
%ADD37C,1.143000*%
%ADD38C,0.635000*%
%ADD39C,0.508000*%
%ADD40C,0.203200*%
%ADD41C,1.270000*%
%ADD42C,0.762000*%
%ADD43C,0.381000*%
%ADD44C,0.889000*%
%ADD45C,0.190500*%
G04 APERTURE END LIST*
D10*
D11*
X94609920Y16868140D03*
X104642920Y16868140D03*
X106649520Y16868140D03*
X108656120Y16868140D03*
X110662720Y16868140D03*
X112669320Y16868140D03*
X102636320Y16868140D03*
X100629720Y16868140D03*
X98623120Y16868140D03*
X96616520Y16868140D03*
X96616520Y38864540D03*
X98623120Y38864540D03*
X100629720Y38864540D03*
X102636320Y38864540D03*
X112669320Y38864540D03*
X110662720Y38864540D03*
X108656120Y38864540D03*
X106649520Y38864540D03*
X104642920Y38864540D03*
X94609920Y38864540D03*
D12*
X119280940Y75201780D03*
X116740940Y77741780D03*
X119280940Y80281780D03*
D13*
X68102960Y4147800D03*
X68752960Y4147800D03*
X69402960Y4147800D03*
X70052960Y4147800D03*
X70702960Y4147800D03*
D14*
X66902960Y4147800D03*
X71902960Y4147800D03*
D15*
X65902960Y1447800D03*
X72902960Y1447800D03*
D16*
X68402960Y1447800D03*
X70402960Y1447800D03*
D17*
X66627960Y1447800D03*
X72177960Y1447800D03*
D18*
X66502960Y2122800D03*
X66502960Y772800D03*
X72302960Y2122800D03*
X72302960Y772800D03*
D19*
X66093340Y85389720D03*
X66093340Y90469720D03*
X111813340Y19349720D03*
X106733340Y24429720D03*
X111813340Y24429720D03*
X111813340Y29509720D03*
X111813340Y34589720D03*
X96573340Y34589720D03*
X106733340Y34589720D03*
X101653340Y34589720D03*
X101653340Y29509720D03*
X106733340Y29509720D03*
X78793340Y63545720D03*
X88953340Y63545720D03*
X77523340Y80309720D03*
X102923340Y85389720D03*
X102923340Y80309720D03*
X108003340Y75229720D03*
X108003340Y80309720D03*
X102923340Y75229720D03*
X82603340Y80309720D03*
X82603340Y85389720D03*
X82603340Y75229720D03*
X92763340Y75229720D03*
X97843340Y80309720D03*
X97843340Y75229720D03*
X83873340Y63545720D03*
X94033340Y63545720D03*
X87683340Y95549720D03*
D20*
X50320580Y9551040D03*
X50320580Y4551040D03*
X45320580Y9551040D03*
X45320580Y4551040D03*
D19*
X68635880Y56177180D03*
X66730880Y58717180D03*
X87683340Y75229720D03*
X87683340Y85389720D03*
X97843340Y85389720D03*
X92763340Y85389720D03*
X92763340Y80309720D03*
X87683340Y80309720D03*
X82603340Y95549720D03*
X77523340Y90469720D03*
X77523340Y95549720D03*
X72443340Y90469720D03*
X72443340Y85389720D03*
X111813340Y14269720D03*
X106733340Y9189720D03*
X116258340Y65069720D03*
X116258340Y59989720D03*
X116258340Y70149720D03*
X116258340Y54909720D03*
X116258340Y49829720D03*
X104193340Y53385720D03*
X67520820Y73502520D03*
X66890900Y72260460D03*
X101653340Y9189720D03*
X101653340Y14269720D03*
X106733340Y14269720D03*
X109273340Y48305720D03*
X99113340Y58465720D03*
X96573340Y14269720D03*
X96573340Y9189720D03*
X63322200Y76992480D03*
X65458340Y77264260D03*
X64340740Y76893420D03*
X64823340Y75641200D03*
X65879980Y73068180D03*
X65397380Y74320400D03*
X66093340Y9189720D03*
X66093340Y14269720D03*
X66093340Y24429720D03*
X66093340Y19349720D03*
X66093340Y34589720D03*
X66093340Y39669720D03*
X66093340Y29509720D03*
X66093340Y44749720D03*
X66093340Y49829720D03*
X71173340Y49829720D03*
X71173340Y44749720D03*
X76253340Y44749720D03*
X71173340Y29509720D03*
X76253340Y29509720D03*
X76253340Y34589720D03*
X76253340Y39669720D03*
X71173340Y39669720D03*
X71173340Y34589720D03*
X81333340Y34589720D03*
X81333340Y39669720D03*
X86413340Y34589720D03*
X86413340Y29509720D03*
X81333340Y29509720D03*
X81333340Y9189720D03*
X81333340Y14269720D03*
X86413340Y14269720D03*
X86413340Y9189720D03*
X86413340Y19349720D03*
X86413340Y24429720D03*
X81333340Y24429720D03*
X81333340Y19349720D03*
X71173340Y19349720D03*
X71173340Y24429720D03*
X76253340Y24429720D03*
X76253340Y19349720D03*
X76253340Y9189720D03*
X76253340Y14269720D03*
X71173340Y14269720D03*
X71173340Y9189720D03*
D21*
X22860000Y73144380D03*
D22*
X107269280Y45822960D03*
X107269280Y44722960D03*
D23*
X108524000Y44722540D03*
X110424000Y44722540D03*
X109474000Y46722540D03*
D24*
X72158860Y67002340D03*
X72158860Y69502340D03*
D25*
X115208140Y47261780D03*
X114108140Y47261780D03*
D22*
X116111020Y47262960D03*
X116111020Y48362960D03*
D26*
X63901060Y70452340D03*
X63901060Y70052340D03*
X63901060Y69652340D03*
X63901060Y69252340D03*
X63901060Y68852340D03*
X63901060Y68452340D03*
X63901060Y68052340D03*
X63901060Y67652340D03*
X63901060Y67252340D03*
X63901060Y66852340D03*
X63901060Y66452340D03*
X63901060Y66052340D03*
D27*
X64701060Y65252340D03*
X65101060Y65252340D03*
X65501060Y65252340D03*
X65901060Y65252340D03*
X66301060Y65252340D03*
X66701060Y65252340D03*
X67101060Y65252340D03*
X67501060Y65252340D03*
X67901060Y65252340D03*
X68301060Y65252340D03*
X68701060Y65252340D03*
X69101060Y65252340D03*
D26*
X69901060Y66052340D03*
X69901060Y66452340D03*
X69901060Y66852340D03*
X69901060Y67252340D03*
X69901060Y67652340D03*
X69901060Y68052340D03*
X69901060Y68452340D03*
X69901060Y68852340D03*
X69901060Y69252340D03*
X69901060Y69652340D03*
X69901060Y70052340D03*
X69901060Y70452340D03*
D27*
X69101060Y71252340D03*
X68701060Y71252340D03*
X68301060Y71252340D03*
X67901060Y71252340D03*
X67501060Y71252340D03*
X67101060Y71252340D03*
X66701060Y71252340D03*
X66301060Y71252340D03*
X65901060Y71252340D03*
X65501060Y71252340D03*
X65101060Y71252340D03*
X64701060Y71252340D03*
D28*
X68476060Y66677340D03*
X68476060Y67727340D03*
X68476060Y68777340D03*
X68476060Y69827340D03*
X67426060Y66677340D03*
X67426060Y67727340D03*
X67426060Y68777340D03*
X67426060Y69827340D03*
X66376060Y66677340D03*
X66376060Y67727340D03*
X66376060Y68777340D03*
X66376060Y69827340D03*
X65326060Y66677340D03*
X65326060Y67727340D03*
X65326060Y68777340D03*
X65326060Y69827340D03*
D29*
X66376060Y68777340D03*
X67426060Y68777340D03*
X67426060Y67727340D03*
X66376060Y67727340D03*
X68476060Y67727340D03*
X68476060Y68777340D03*
X65326060Y68777340D03*
X65326060Y67727340D03*
X66376060Y66677340D03*
X67426060Y66677340D03*
X66376060Y69827340D03*
X67426060Y69827340D03*
X65326060Y69827340D03*
X68476060Y69827340D03*
X65326060Y66677340D03*
X68476060Y66677340D03*
D25*
X68502440Y62804040D03*
X69602440Y62804040D03*
X31637060Y10591800D03*
X30537060Y10591800D03*
X18365380Y10591800D03*
X19465380Y10591800D03*
D10*
G36*
X62689526Y75394758D02*
X62256514Y75644758D01*
X62556514Y76164374D01*
X62989526Y75914374D01*
X62689526Y75394758D01*
X62689526Y75394758D01*
G37*
G36*
X63239526Y76347386D02*
X62806514Y76597386D01*
X63106514Y77117002D01*
X63539526Y76867002D01*
X63239526Y76347386D01*
X63239526Y76347386D01*
G37*
G36*
X67056062Y76631586D02*
X66806062Y76198574D01*
X66286446Y76498574D01*
X66536446Y76931586D01*
X67056062Y76631586D01*
X67056062Y76631586D01*
G37*
G36*
X66103434Y77181586D02*
X65853434Y76748574D01*
X65333818Y77048574D01*
X65583818Y77481586D01*
X66103434Y77181586D01*
X66103434Y77181586D01*
G37*
D20*
X38890580Y27331040D03*
X38890580Y22331040D03*
X33890580Y27331040D03*
X33890580Y22331040D03*
X21110580Y27331040D03*
X21110580Y22331040D03*
X16110580Y27331040D03*
X16110580Y22331040D03*
X30000580Y36221040D03*
X30000580Y31221040D03*
X25000580Y36221040D03*
X25000580Y31221040D03*
X30000580Y18441040D03*
X30000580Y13441040D03*
X25000580Y18441040D03*
X25000580Y13441040D03*
D12*
X112440140Y57421720D03*
X112440140Y54881720D03*
X112440140Y52341720D03*
X112440140Y49801720D03*
X112440140Y47261720D03*
X112440140Y44721720D03*
X112440140Y59961720D03*
X112440140Y62501720D03*
X112440140Y65041720D03*
X112440140Y67581720D03*
X112440140Y70121720D03*
D30*
X112440140Y90321720D03*
X57440140Y90321720D03*
X57440140Y8321720D03*
X112440140Y8321720D03*
D12*
X112440140Y82821720D03*
X112440140Y80281720D03*
X112440140Y77741720D03*
X112440140Y75201720D03*
X112440140Y72661720D03*
D31*
X98094740Y94813120D03*
X94594740Y94813120D03*
X106857740Y94813120D03*
X103357740Y94813120D03*
X69474140Y94757240D03*
X72974140Y94757240D03*
D10*
G36*
X67394206Y75336537D02*
X66794206Y74297307D01*
X65581770Y74997307D01*
X66181770Y76036537D01*
X67394206Y75336537D01*
X67394206Y75336537D01*
G37*
G36*
X65488950Y76436537D02*
X64888950Y75397307D01*
X63676514Y76097307D01*
X64276514Y77136537D01*
X65488950Y76436537D01*
X65488950Y76436537D01*
G37*
G36*
X64638950Y74964293D02*
X64038950Y73925063D01*
X62826514Y74625063D01*
X63426514Y75664293D01*
X64638950Y74964293D01*
X64638950Y74964293D01*
G37*
G36*
X66544206Y73864293D02*
X65944206Y72825063D01*
X64731770Y73525063D01*
X65331770Y74564293D01*
X66544206Y73864293D01*
X66544206Y73864293D01*
G37*
D31*
X98600200Y3924300D03*
X95100200Y3924300D03*
D32*
X33891220Y8338820D03*
D33*
X33891220Y5798820D03*
X31351220Y8338820D03*
X31351220Y5798820D03*
X28811220Y8338820D03*
X28811220Y5798820D03*
X26271220Y8338820D03*
X26271220Y5798820D03*
X23731220Y8338820D03*
X23731220Y5798820D03*
X21191220Y8338820D03*
X21191220Y5798820D03*
X18651220Y8338820D03*
X18651220Y5798820D03*
X16111220Y8338820D03*
X16111220Y5798820D03*
X13571220Y8338820D03*
X13571220Y5798820D03*
X11031220Y8338820D03*
X11031220Y5798820D03*
D25*
X60092500Y69651880D03*
X61192500Y69651880D03*
D34*
X54866540Y75493880D03*
D35*
X76332080Y66276220D03*
X76332080Y73581260D03*
D36*
X61193680Y76230480D03*
D35*
X70855840Y64554100D03*
D34*
X63078360Y71912480D03*
X63078360Y71056500D03*
X61912500Y69100700D03*
X68905120Y64416940D03*
X61442600Y70769480D03*
X63078360Y70203060D03*
X70723760Y67503040D03*
D11*
X114460020Y48539400D03*
X114457480Y76166980D03*
X114457480Y81854040D03*
D35*
X31937960Y10591800D03*
X19766280Y10591800D03*
X71455280Y60142120D03*
X69532500Y60142120D03*
X77434440Y66276220D03*
X74114660Y62801500D03*
X77434440Y73581260D03*
D37*
X70434200Y80772000D03*
D34*
X68450460Y72293480D03*
D38*
X69093080Y63652400D03*
D35*
X69903340Y62804040D03*
D34*
X69474080Y80431640D03*
X69474080Y79029560D03*
X58435880Y18441040D03*
X62659260Y27330400D03*
X62265560Y28915360D03*
X61871860Y36220400D03*
X53266340Y11452860D03*
X70634860Y66451480D03*
X64449960Y54015640D03*
X18366740Y10840720D03*
D39*
X60092500Y69651880D02*
X56441340Y69651880D01*
X56441340Y69651880D02*
X54866540Y69651880D01*
X54866540Y69651880D02*
X54866540Y75493880D01*
X54866540Y69651880D02*
X50800000Y69651880D01*
X50800000Y69651880D02*
X26352500Y69651880D01*
X26352500Y69651880D02*
X22860000Y73144380D01*
X66671254Y76565080D02*
X66671254Y75350188D01*
X66671254Y75350188D02*
X66487988Y75166922D01*
D40*
X66301060Y71880020D02*
X66301060Y72478340D01*
X66301060Y71252340D02*
X66301060Y71880020D01*
X66908680Y73977500D02*
X66908680Y74746230D01*
X66908680Y73085960D02*
X66908680Y73977500D01*
X66301060Y72478340D02*
X66908680Y73085960D01*
X66908680Y74746230D02*
X66487988Y75166922D01*
D39*
X62623020Y75779566D02*
X62747844Y75779566D01*
X62747844Y75779566D02*
X63732732Y74794678D01*
D40*
X65901060Y71252340D02*
X65901060Y71881240D01*
X63732732Y74049568D02*
X63732732Y74794678D01*
X65901060Y71881240D02*
X63732732Y74049568D01*
D39*
X76332080Y74000360D02*
X76332080Y73581260D01*
X61193680Y76230480D02*
X62298580Y77335380D01*
X64693800Y79730600D02*
X62298580Y77335380D01*
X70601840Y79730600D02*
X64693800Y79730600D01*
X76332080Y74000360D02*
X70601840Y79730600D01*
X74609960Y64554100D02*
X76332080Y66276220D01*
X70855840Y64554100D02*
X74609960Y64554100D01*
D40*
X64701060Y71252340D02*
X63738500Y71252340D01*
X63738500Y71252340D02*
X63078360Y71912480D01*
X63901060Y70452340D02*
X63682520Y70452340D01*
X63682520Y70452340D02*
X63078360Y71056500D01*
X63901060Y69252340D02*
X62064140Y69252340D01*
X62064140Y69252340D02*
X61912500Y69100700D01*
X68701060Y65252340D02*
X68701060Y64621000D01*
X68701060Y64621000D02*
X68905120Y64416940D01*
D39*
X63078360Y70203060D02*
X62938660Y70203060D01*
X62372240Y70769480D02*
X61442600Y70769480D01*
X62938660Y70203060D02*
X62372240Y70769480D01*
D40*
X63229080Y70052340D02*
X63078360Y70203060D01*
X63901060Y70052340D02*
X63229080Y70052340D01*
X70574460Y67652340D02*
X70723760Y67503040D01*
X69901060Y67652340D02*
X70574460Y67652340D01*
D41*
X114457480Y76166980D02*
X114457480Y48541940D01*
X114457480Y48541940D02*
X114460020Y48539400D01*
X114457480Y76166980D02*
X114460020Y76164440D01*
X114457480Y83657440D02*
X114457480Y81854040D01*
X107010140Y85897720D02*
X112217200Y85897720D01*
X98094740Y94813120D02*
X107010140Y85897720D01*
X112217200Y85897720D02*
X114457480Y83657440D01*
X81714340Y90647520D02*
X93929140Y90647520D01*
X93929140Y90647520D02*
X98094740Y94813120D01*
D42*
X70434200Y80772000D02*
X80309720Y90647520D01*
D41*
X80309720Y90647520D02*
X81714340Y90647520D01*
D39*
X19465380Y10591800D02*
X19766280Y10591800D01*
X31937960Y10591800D02*
X31637060Y10591800D01*
X33891220Y8338820D02*
X33890040Y8338820D01*
X33890040Y8338820D02*
X31637060Y10591800D01*
X77434440Y66276220D02*
X77434440Y66121280D01*
X77434440Y66121280D02*
X74114660Y62801500D01*
X77434440Y73581260D02*
X77434440Y74000360D01*
X77434440Y74000360D02*
X77434440Y74175620D01*
X77434440Y74175620D02*
X77434440Y74180700D01*
X77434440Y74180700D02*
X70843140Y80772000D01*
X70843140Y80772000D02*
X70434200Y80772000D01*
X71455280Y60142120D02*
X69532500Y60142120D01*
D40*
X68301060Y72144080D02*
X68301060Y71252340D01*
X68301060Y72144080D02*
X68450460Y72293480D01*
X68301060Y65252340D02*
X68301060Y64187880D01*
D43*
X68836540Y63652400D02*
X69093080Y63652400D01*
D40*
X68301060Y64187880D02*
X68836540Y63652400D01*
X60827068Y36919408D02*
X35238600Y11330940D01*
X61239390Y37331730D02*
X61239390Y67089060D01*
X63901060Y68452340D02*
X62602670Y68452340D01*
X62602670Y68452340D02*
X61239390Y67089060D01*
X60827068Y36919408D02*
X61239390Y37331730D01*
X31276200Y11330940D02*
X30537060Y10591800D01*
X35238600Y11330940D02*
X31276200Y11330940D01*
D39*
X26271220Y8338820D02*
X28524200Y10591800D01*
X28524200Y10591800D02*
X30537060Y10591800D01*
D40*
X23731220Y8338820D02*
X27251660Y11859260D01*
X60845688Y41490888D02*
X60845688Y67252136D01*
X60845688Y67252136D02*
X62439594Y68846042D01*
X62439594Y68846042D02*
X63901060Y68846042D01*
X31214060Y11859260D02*
X60845688Y41490888D01*
X30657800Y11859260D02*
X31214060Y11859260D01*
X27251660Y11859260D02*
X30657800Y11859260D01*
X63901060Y68846042D02*
X63901060Y68852340D01*
X61323220Y27795220D02*
X40596820Y7068820D01*
X62759448Y68052340D02*
X61633092Y66925984D01*
X61633092Y66925984D02*
X61633092Y36756332D01*
X61633092Y36756332D02*
X61323220Y36446460D01*
X61323220Y36446460D02*
X61323220Y27795220D01*
X36634420Y7068820D02*
X19921220Y7068820D01*
X18651220Y8338820D02*
X19921220Y7068820D01*
X62759448Y68052340D02*
X63901060Y68052340D01*
X40596820Y7068820D02*
X36634420Y7068820D01*
D42*
X116111020Y47262960D02*
X116752280Y47262960D01*
X119280940Y77744320D02*
X119280940Y80281780D01*
X117515640Y75979020D02*
X119280940Y77744320D01*
X117515640Y48026320D02*
X117515640Y75979020D01*
X116752280Y47262960D02*
X117515640Y48026320D01*
D41*
X106857740Y94813120D02*
X114200940Y94813120D01*
X119280940Y89733120D02*
X119280940Y80281780D01*
X114200940Y94813120D02*
X119280940Y89733120D01*
X119280940Y80281780D02*
X112440200Y80281780D01*
X112440200Y80281780D02*
X112440140Y80281720D01*
D39*
X115208140Y47261780D02*
X115209320Y47260600D01*
X115209320Y47260600D02*
X116111020Y47260600D01*
D43*
X68502440Y62804040D02*
X68502440Y63173700D01*
D40*
X67907358Y63768782D02*
X67907358Y65252340D01*
X68502440Y63173700D02*
X67907358Y63768782D01*
X67907358Y65252340D02*
X67901060Y65252340D01*
D39*
X69602440Y62804040D02*
X69903340Y62804040D01*
D40*
X68702388Y59402980D02*
X71948040Y59402980D01*
X65901060Y62204308D02*
X68702388Y59402980D01*
X65901060Y65252340D02*
X65901060Y62204308D01*
X92689680Y26814780D02*
X102636320Y16868140D01*
X92689680Y38661340D02*
X92689680Y26814780D01*
X71948040Y59402980D02*
X92689680Y38661340D01*
X67780892Y60881254D02*
X71760086Y60881254D01*
X66301060Y62361086D02*
X67780892Y60881254D01*
X66301060Y65252340D02*
X66301060Y62361086D01*
X93489780Y34041080D02*
X110662720Y16868140D01*
X93489780Y39151560D02*
X93489780Y34041080D01*
X71760086Y60881254D02*
X93489780Y39151560D01*
X67943968Y61274956D02*
X75920604Y61274956D01*
X66701060Y62517864D02*
X67943968Y61274956D01*
X66701060Y65252340D02*
X66701060Y62517864D01*
X106941620Y40579040D02*
X101633020Y40579040D01*
X106941620Y40579040D02*
X108656120Y38864540D01*
X96616520Y40579040D02*
X101633020Y40579040D01*
X75920604Y61274956D02*
X96616520Y40579040D01*
X68107044Y61668658D02*
X87858602Y61668658D01*
X67101060Y62674642D02*
X68107044Y61668658D01*
X67101060Y65252340D02*
X67101060Y62674642D01*
X87858602Y61668658D02*
X110662720Y38864540D01*
D39*
X112440140Y47261720D02*
X114108080Y47261720D01*
X114108080Y47261720D02*
X114108140Y47261780D01*
D40*
X69067680Y72136000D02*
X110425860Y72136000D01*
X68701060Y71769380D02*
X69067680Y72136000D01*
X68701060Y71252340D02*
X68701060Y71769380D01*
X110425860Y72136000D02*
X112440140Y70121720D01*
D42*
X110424000Y44722540D02*
X112439320Y44722540D01*
X112439320Y44722540D02*
X112440140Y44721720D01*
D41*
X112440140Y77741720D02*
X116740880Y77741720D01*
X116740880Y77741720D02*
X116740940Y77741780D01*
D44*
X112442740Y77744320D02*
X112440140Y77741720D01*
D43*
X108524000Y44722540D02*
X107269700Y44722540D01*
X107269700Y44722540D02*
X107269280Y44722960D01*
D40*
X64701060Y65252340D02*
X64701060Y56243062D01*
X68752960Y52191162D02*
X68752960Y4147800D01*
X64701060Y56243062D02*
X68752960Y52191162D01*
X65101060Y65252340D02*
X65101060Y56399840D01*
X69402960Y52097940D02*
X69402960Y4147800D01*
X65101060Y56399840D02*
X69402960Y52097940D01*
X68270120Y62062360D02*
X91029880Y62062360D01*
X67501060Y62831420D02*
X68270120Y62062360D01*
X67501060Y65252340D02*
X67501060Y62831420D01*
X91029880Y62062360D02*
X107269280Y45822960D01*
X67501060Y71252340D02*
X67501060Y72675558D01*
X69474080Y80431640D02*
X69474080Y94757180D01*
X69474080Y74648578D02*
X69474080Y79029560D01*
X67501060Y72675558D02*
X69474080Y74648578D01*
X69474080Y94757180D02*
X69474140Y94757240D01*
X58435880Y18441040D02*
X63207900Y23213060D01*
X63207900Y23213060D02*
X63207900Y45679360D01*
X63901060Y66452340D02*
X63386560Y66452340D01*
X63386560Y66452340D02*
X63207900Y66273680D01*
X63207900Y66273680D02*
X63207900Y45679360D01*
X62814198Y27485338D02*
X62659260Y27330400D01*
X62814198Y52524658D02*
X62814198Y45842436D01*
X62814198Y66436756D02*
X62814198Y52524658D01*
X63229782Y66852340D02*
X62814198Y66436756D01*
X63229782Y66852340D02*
X63901060Y66852340D01*
X62814198Y45842436D02*
X62814198Y27485338D01*
X62420496Y29070296D02*
X62265560Y28915360D01*
X62420496Y66599832D02*
X62420496Y61023496D01*
X63073004Y67252340D02*
X62420496Y66599832D01*
X63901060Y67252340D02*
X63073004Y67252340D01*
X62420496Y61023496D02*
X62420496Y46005512D01*
X62420496Y46005512D02*
X62420496Y29070296D01*
X62026794Y36375334D02*
X61871860Y36220400D01*
X62916226Y67652340D02*
X63901060Y67652340D01*
X62916226Y67652340D02*
X62026794Y66762908D01*
X62026794Y66762908D02*
X62026794Y46168588D01*
X62026794Y46168588D02*
X62026794Y36375334D01*
X64449960Y23123642D02*
X64449960Y22636480D01*
X64449960Y22636480D02*
X53266340Y11452860D01*
X69901060Y66452340D02*
X70634000Y66452340D01*
X70634000Y66452340D02*
X70634860Y66451480D01*
X64449960Y54015640D02*
X64449960Y23123642D01*
X18366740Y10840720D02*
X18365380Y10839360D01*
X18365380Y10839360D02*
X18365380Y10591800D01*
D39*
X16111220Y8338820D02*
X16112400Y8338820D01*
X16112400Y8338820D02*
X18365380Y10591800D01*
D40*
X80233260Y71252340D02*
X98609520Y71252340D01*
X69101060Y71252340D02*
X80233260Y71252340D01*
X98609520Y71252340D02*
X112440140Y57421720D01*
X80070184Y70858638D02*
X96463222Y70858638D01*
X70307358Y70858638D02*
X80070184Y70858638D01*
X69901060Y70452340D02*
X70307358Y70858638D01*
X96463222Y70858638D02*
X112440140Y54881720D01*
X73555500Y66052340D02*
X74912222Y67409062D01*
X70266458Y65686942D02*
X73190102Y65686942D01*
X73190102Y65686942D02*
X73555500Y66052340D01*
X69901060Y66052340D02*
X70266458Y65686942D01*
X97372798Y67409062D02*
X112440140Y52341720D01*
X74912222Y67409062D02*
X97372798Y67409062D01*
X73718576Y65658638D02*
X75075298Y67015360D01*
X73353178Y65293240D02*
X73718576Y65658638D01*
X69141960Y65293240D02*
X73353178Y65293240D01*
X95226500Y67015360D02*
X112440140Y49801720D01*
X75075298Y67015360D02*
X95226500Y67015360D01*
X69101060Y65252340D02*
X69141960Y65293240D01*
X68224400Y72842120D02*
X77802740Y72842120D01*
X67901060Y71252340D02*
X67901060Y72518780D01*
X67901060Y72518780D02*
X68224400Y72842120D01*
X110080540Y72842120D02*
X112440140Y75201720D01*
X77802740Y72842120D02*
X110080540Y72842120D01*
X63901060Y66052340D02*
X63901060Y23131520D01*
X63901060Y23131520D02*
X50320580Y9551040D01*
X65501060Y61277960D02*
X89552780Y37226240D01*
X65501060Y65252340D02*
X65501060Y62047530D01*
X65501060Y62047530D02*
X65501060Y61277960D01*
X89552780Y12971720D02*
X98600200Y3924300D01*
X89552780Y37226240D02*
X89552780Y12971720D01*
X69901060Y68052340D02*
X71108860Y68052340D01*
X71108860Y68052340D02*
X72158860Y67002340D01*
X69901060Y68452340D02*
X71108860Y68452340D01*
X71108860Y68452340D02*
X72158860Y69502340D01*
X63901060Y69652340D02*
X61192960Y69652340D01*
X61192960Y69652340D02*
X61192500Y69651880D01*
D45*
G36*
X120307514Y73950697D02*
X120371870Y74015053D01*
X120371870Y95250D01*
X92710Y95250D01*
X92710Y1727933D01*
X65117210Y1727933D01*
X65117210Y1167667D01*
X65132174Y1015047D01*
X65176498Y868241D01*
X65248492Y732840D01*
X65345415Y614001D01*
X65463574Y516251D01*
X65598470Y443313D01*
X65744963Y397966D01*
X65897474Y381936D01*
X65938481Y385668D01*
X67102960Y385668D01*
X67148465Y389297D01*
X67225645Y413198D01*
X67293111Y457655D01*
X67345521Y519148D01*
X67378724Y592807D01*
X67379169Y595935D01*
X67393358Y550115D01*
X67437815Y482649D01*
X67499308Y430239D01*
X67572967Y397036D01*
X67652960Y385668D01*
X69152960Y385668D01*
X69198465Y389297D01*
X69275645Y413198D01*
X69343111Y457655D01*
X69395521Y519148D01*
X69402931Y535587D01*
X69437815Y482649D01*
X69499308Y430239D01*
X69572967Y397036D01*
X69652960Y385668D01*
X71152960Y385668D01*
X71198465Y389297D01*
X71275645Y413198D01*
X71343111Y457655D01*
X71395521Y519148D01*
X71428724Y592807D01*
X71429169Y595935D01*
X71443358Y550115D01*
X71487815Y482649D01*
X71549308Y430239D01*
X71622967Y397036D01*
X71702960Y385668D01*
X72861967Y385668D01*
X72897474Y381936D01*
X73050195Y395835D01*
X73197307Y439132D01*
X73333208Y510179D01*
X73452720Y606270D01*
X73551293Y723744D01*
X73625171Y858127D01*
X73671539Y1004300D01*
X73688633Y1156696D01*
X73688710Y1167667D01*
X73688710Y1727933D01*
X73673746Y1880553D01*
X73629422Y2027359D01*
X73557428Y2162760D01*
X73460505Y2281599D01*
X73342346Y2379349D01*
X73207450Y2452287D01*
X73060957Y2497634D01*
X72908446Y2513664D01*
X72867439Y2509932D01*
X71702960Y2509932D01*
X71657455Y2506303D01*
X71580275Y2482402D01*
X71512809Y2437945D01*
X71460399Y2376452D01*
X71427196Y2302793D01*
X71426751Y2299665D01*
X71412562Y2345485D01*
X71368105Y2412951D01*
X71306612Y2465361D01*
X71232953Y2498564D01*
X71152960Y2509932D01*
X69652960Y2509932D01*
X69607455Y2506303D01*
X69530275Y2482402D01*
X69462809Y2437945D01*
X69410399Y2376452D01*
X69402989Y2360013D01*
X69368105Y2412951D01*
X69306612Y2465361D01*
X69232953Y2498564D01*
X69152960Y2509932D01*
X67652960Y2509932D01*
X67607455Y2506303D01*
X67530275Y2482402D01*
X67462809Y2437945D01*
X67410399Y2376452D01*
X67377196Y2302793D01*
X67376751Y2299665D01*
X67362562Y2345485D01*
X67318105Y2412951D01*
X67256612Y2465361D01*
X67182953Y2498564D01*
X67102960Y2509932D01*
X65943953Y2509932D01*
X65908446Y2513664D01*
X65755725Y2499765D01*
X65608613Y2456468D01*
X65472712Y2385421D01*
X65353200Y2289330D01*
X65254627Y2171856D01*
X65180749Y2037473D01*
X65134381Y1891300D01*
X65117287Y1738904D01*
X65117210Y1727933D01*
X92710Y1727933D01*
X92710Y2771359D01*
X94171765Y2771359D01*
X94274444Y2517663D01*
X94564733Y2383594D01*
X94875598Y2308734D01*
X95195095Y2295959D01*
X95510946Y2345760D01*
X95811011Y2456224D01*
X95925956Y2517663D01*
X96028635Y2771359D01*
X95100200Y3699794D01*
X94171765Y2771359D01*
X92710Y2771359D01*
X92710Y4807202D01*
X10264108Y4807202D01*
X10339390Y4576515D01*
X10591143Y4465032D01*
X10859807Y4404806D01*
X11135060Y4398150D01*
X11406322Y4445321D01*
X11663168Y4544507D01*
X11723050Y4576515D01*
X11798332Y4807202D01*
X12804108Y4807202D01*
X12879390Y4576515D01*
X13131143Y4465032D01*
X13399807Y4404806D01*
X13675060Y4398150D01*
X13946322Y4445321D01*
X14203168Y4544507D01*
X14263050Y4576515D01*
X14338332Y4807202D01*
X15344108Y4807202D01*
X15419390Y4576515D01*
X15671143Y4465032D01*
X15939807Y4404806D01*
X16215060Y4398150D01*
X16486322Y4445321D01*
X16743168Y4544507D01*
X16803050Y4576515D01*
X16878332Y4807202D01*
X17884108Y4807202D01*
X17959390Y4576515D01*
X18211143Y4465032D01*
X18479807Y4404806D01*
X18755060Y4398150D01*
X19026322Y4445321D01*
X19283168Y4544507D01*
X19343050Y4576515D01*
X19418332Y4807202D01*
X20424108Y4807202D01*
X20499390Y4576515D01*
X20751143Y4465032D01*
X21019807Y4404806D01*
X21295060Y4398150D01*
X21566322Y4445321D01*
X21823168Y4544507D01*
X21883050Y4576515D01*
X21958332Y4807202D01*
X22964108Y4807202D01*
X23039390Y4576515D01*
X23291143Y4465032D01*
X23559807Y4404806D01*
X23835060Y4398150D01*
X24106322Y4445321D01*
X24363168Y4544507D01*
X24423050Y4576515D01*
X24498332Y4807202D01*
X25504108Y4807202D01*
X25579390Y4576515D01*
X25831143Y4465032D01*
X26099807Y4404806D01*
X26375060Y4398150D01*
X26646322Y4445321D01*
X26903168Y4544507D01*
X26963050Y4576515D01*
X27038332Y4807202D01*
X28044108Y4807202D01*
X28119390Y4576515D01*
X28371143Y4465032D01*
X28639807Y4404806D01*
X28915060Y4398150D01*
X29186322Y4445321D01*
X29443168Y4544507D01*
X29503050Y4576515D01*
X29578332Y4807202D01*
X30584108Y4807202D01*
X30659390Y4576515D01*
X30911143Y4465032D01*
X31179807Y4404806D01*
X31455060Y4398150D01*
X31664221Y4434522D01*
X43933009Y4434522D01*
X43982066Y4167227D01*
X44082108Y3914552D01*
X44229322Y3686120D01*
X44418102Y3490632D01*
X44641257Y3335535D01*
X44890288Y3226737D01*
X45155708Y3168380D01*
X45427408Y3162689D01*
X45695039Y3209879D01*
X45948407Y3308154D01*
X46000075Y3340944D01*
X49334991Y3340944D01*
X49447359Y3079072D01*
X49751305Y2936999D01*
X50077127Y2856952D01*
X50412306Y2842008D01*
X50743959Y2892742D01*
X51059341Y3007202D01*
X51193801Y3079072D01*
X51306169Y3340944D01*
X50320580Y4326534D01*
X49334991Y3340944D01*
X46000075Y3340944D01*
X46177861Y3453770D01*
X46374662Y3641181D01*
X46531313Y3863248D01*
X46641847Y4111513D01*
X46702055Y4376519D01*
X46703211Y4459314D01*
X48611548Y4459314D01*
X48662282Y4127661D01*
X48776742Y3812279D01*
X48848612Y3677819D01*
X49110484Y3565451D01*
X50096074Y4551040D01*
X50545086Y4551040D01*
X51530676Y3565451D01*
X51792548Y3677819D01*
X51934621Y3981765D01*
X52014668Y4307587D01*
X52029612Y4642766D01*
X51978878Y4974419D01*
X51864418Y5289801D01*
X51792548Y5424261D01*
X51530676Y5536629D01*
X50545086Y4551040D01*
X50096074Y4551040D01*
X49110484Y5536629D01*
X48848612Y5424261D01*
X48706539Y5120315D01*
X48626492Y4794493D01*
X48611548Y4459314D01*
X46703211Y4459314D01*
X46706389Y4686920D01*
X46653604Y4953504D01*
X46550045Y5204758D01*
X46399655Y5431112D01*
X46208164Y5623945D01*
X46004770Y5761136D01*
X49334991Y5761136D01*
X50320580Y4775546D01*
X51306169Y5761136D01*
X51193801Y6023008D01*
X50889855Y6165081D01*
X50564033Y6245128D01*
X50228854Y6260072D01*
X49897201Y6209338D01*
X49581819Y6094878D01*
X49447359Y6023008D01*
X49334991Y5761136D01*
X46004770Y5761136D01*
X45982865Y5775911D01*
X45732340Y5881222D01*
X45466131Y5935867D01*
X45194378Y5937764D01*
X44927432Y5886842D01*
X44675461Y5785039D01*
X44448062Y5636233D01*
X44253898Y5446093D01*
X44100362Y5221860D01*
X43993305Y4972076D01*
X43936803Y4706255D01*
X43933009Y4434522D01*
X31664221Y4434522D01*
X31726322Y4445321D01*
X31983168Y4544507D01*
X32043050Y4576515D01*
X32118332Y4807202D01*
X31351220Y5574314D01*
X30584108Y4807202D01*
X29578332Y4807202D01*
X28811220Y5574314D01*
X28044108Y4807202D01*
X27038332Y4807202D01*
X26271220Y5574314D01*
X25504108Y4807202D01*
X24498332Y4807202D01*
X23731220Y5574314D01*
X22964108Y4807202D01*
X21958332Y4807202D01*
X21191220Y5574314D01*
X20424108Y4807202D01*
X19418332Y4807202D01*
X18651220Y5574314D01*
X17884108Y4807202D01*
X16878332Y4807202D01*
X16111220Y5574314D01*
X15344108Y4807202D01*
X14338332Y4807202D01*
X13571220Y5574314D01*
X12804108Y4807202D01*
X11798332Y4807202D01*
X11031220Y5574314D01*
X10264108Y4807202D01*
X92710Y4807202D01*
X92710Y5694980D01*
X9630550Y5694980D01*
X9677721Y5423718D01*
X9776907Y5166872D01*
X9808915Y5106990D01*
X10039602Y5031708D01*
X10806714Y5798820D01*
X11255726Y5798820D01*
X12022838Y5031708D01*
X12253525Y5106990D01*
X12299734Y5211341D01*
X12316907Y5166872D01*
X12348915Y5106990D01*
X12579602Y5031708D01*
X13346714Y5798820D01*
X13795726Y5798820D01*
X14562838Y5031708D01*
X14793525Y5106990D01*
X14839734Y5211341D01*
X14856907Y5166872D01*
X14888915Y5106990D01*
X15119602Y5031708D01*
X15886714Y5798820D01*
X16335726Y5798820D01*
X17102838Y5031708D01*
X17333525Y5106990D01*
X17379734Y5211341D01*
X17396907Y5166872D01*
X17428915Y5106990D01*
X17659602Y5031708D01*
X18426714Y5798820D01*
X17659602Y6565932D01*
X17428915Y6490650D01*
X17382706Y6386299D01*
X17365533Y6430768D01*
X17333525Y6490650D01*
X17102838Y6565932D01*
X16335726Y5798820D01*
X15886714Y5798820D01*
X15119602Y6565932D01*
X14888915Y6490650D01*
X14842706Y6386299D01*
X14825533Y6430768D01*
X14793525Y6490650D01*
X14562838Y6565932D01*
X13795726Y5798820D01*
X13346714Y5798820D01*
X12579602Y6565932D01*
X12348915Y6490650D01*
X12302706Y6386299D01*
X12285533Y6430768D01*
X12253525Y6490650D01*
X12022838Y6565932D01*
X11255726Y5798820D01*
X10806714Y5798820D01*
X10039602Y6565932D01*
X9808915Y6490650D01*
X9697432Y6238897D01*
X9637206Y5970233D01*
X9630550Y5694980D01*
X92710Y5694980D01*
X92710Y6973570D01*
X10323871Y6973570D01*
X10264108Y6790438D01*
X11031220Y6023326D01*
X11798332Y6790438D01*
X11738569Y6973570D01*
X12863871Y6973570D01*
X12804108Y6790438D01*
X13571220Y6023326D01*
X14338332Y6790438D01*
X14278569Y6973570D01*
X15403871Y6973570D01*
X15344108Y6790438D01*
X16111220Y6023326D01*
X16878332Y6790438D01*
X16818569Y6973570D01*
X17943871Y6973570D01*
X17884108Y6790438D01*
X18651220Y6023326D01*
X19418332Y6790438D01*
X19358569Y6973570D01*
X19468674Y6973570D01*
X19647322Y6794922D01*
X19674963Y6772218D01*
X19702380Y6749212D01*
X19704166Y6748230D01*
X19705739Y6746938D01*
X19737299Y6730015D01*
X19768627Y6712793D01*
X19770564Y6712178D01*
X19772363Y6711214D01*
X19806635Y6700736D01*
X19840685Y6689935D01*
X19842707Y6689708D01*
X19844657Y6689112D01*
X19880258Y6685496D01*
X19915812Y6681508D01*
X19919799Y6681480D01*
X19919868Y6681473D01*
X19919932Y6681479D01*
X19921220Y6681470D01*
X20088241Y6681470D01*
X20086151Y6679380D01*
X20199600Y6565931D01*
X19968915Y6490650D01*
X19922706Y6386299D01*
X19905533Y6430768D01*
X19873525Y6490650D01*
X19642838Y6565932D01*
X18875726Y5798820D01*
X19642838Y5031708D01*
X19873525Y5106990D01*
X19919734Y5211341D01*
X19936907Y5166872D01*
X19968915Y5106990D01*
X20199602Y5031708D01*
X20966714Y5798820D01*
X20952572Y5812962D01*
X21177078Y6037468D01*
X21191220Y6023326D01*
X21205363Y6037468D01*
X21429869Y5812962D01*
X21415726Y5798820D01*
X22182838Y5031708D01*
X22413525Y5106990D01*
X22459734Y5211341D01*
X22476907Y5166872D01*
X22508915Y5106990D01*
X22739602Y5031708D01*
X23506714Y5798820D01*
X23492572Y5812962D01*
X23717078Y6037468D01*
X23731220Y6023326D01*
X23745363Y6037468D01*
X23969869Y5812962D01*
X23955726Y5798820D01*
X24722838Y5031708D01*
X24953525Y5106990D01*
X24999734Y5211341D01*
X25016907Y5166872D01*
X25048915Y5106990D01*
X25279602Y5031708D01*
X26046714Y5798820D01*
X26032572Y5812962D01*
X26257078Y6037468D01*
X26271220Y6023326D01*
X26285363Y6037468D01*
X26509869Y5812962D01*
X26495726Y5798820D01*
X27262838Y5031708D01*
X27493525Y5106990D01*
X27539734Y5211341D01*
X27556907Y5166872D01*
X27588915Y5106990D01*
X27819602Y5031708D01*
X28586714Y5798820D01*
X28572572Y5812962D01*
X28797078Y6037468D01*
X28811220Y6023326D01*
X28825363Y6037468D01*
X29049869Y5812962D01*
X29035726Y5798820D01*
X29802838Y5031708D01*
X30033525Y5106990D01*
X30079734Y5211341D01*
X30096907Y5166872D01*
X30128915Y5106990D01*
X30359602Y5031708D01*
X31126714Y5798820D01*
X31112572Y5812962D01*
X31337078Y6037468D01*
X31351220Y6023326D01*
X31365363Y6037468D01*
X31589869Y5812962D01*
X31575726Y5798820D01*
X32342838Y5031708D01*
X32573525Y5106990D01*
X32685008Y5358743D01*
X32745234Y5627407D01*
X32751890Y5902660D01*
X32704719Y6173922D01*
X32605533Y6430768D01*
X32573525Y6490650D01*
X32342840Y6565931D01*
X32456289Y6679380D01*
X32454199Y6681470D01*
X33267135Y6681470D01*
X33211056Y6644773D01*
X33059696Y6496551D01*
X32940009Y6321753D01*
X32856553Y6127036D01*
X32812508Y5919817D01*
X32809550Y5707990D01*
X32847793Y5499622D01*
X32925779Y5302651D01*
X33040539Y5124578D01*
X33187701Y4972188D01*
X33361660Y4851283D01*
X33555789Y4766470D01*
X33762695Y4720979D01*
X33974497Y4716542D01*
X34183126Y4753329D01*
X34380637Y4829939D01*
X34559506Y4943452D01*
X34712921Y5089547D01*
X34835037Y5262657D01*
X34921203Y5456190D01*
X34968138Y5662774D01*
X34971516Y5904744D01*
X34930368Y6112557D01*
X34849639Y6308421D01*
X34732404Y6484873D01*
X34583129Y6635194D01*
X34514522Y6681470D01*
X40596820Y6681470D01*
X40632419Y6684960D01*
X40668074Y6688080D01*
X40670030Y6688648D01*
X40672057Y6688847D01*
X40706309Y6699188D01*
X40740670Y6709171D01*
X40742478Y6710108D01*
X40744428Y6710697D01*
X40776034Y6727502D01*
X40807785Y6743961D01*
X40809375Y6745231D01*
X40811176Y6746188D01*
X40838919Y6768814D01*
X40866867Y6791125D01*
X40869705Y6793923D01*
X40869760Y6793968D01*
X40869802Y6794019D01*
X40870718Y6794922D01*
X41049366Y6973570D01*
X54994688Y6973570D01*
X55246403Y6582985D01*
X55625904Y6190000D01*
X56074509Y5878211D01*
X56575131Y5659495D01*
X57108700Y5542182D01*
X57654894Y5530741D01*
X58192908Y5625607D01*
X58702249Y5823168D01*
X59163517Y6115897D01*
X59559143Y6492646D01*
X59874055Y6939064D01*
X59889418Y6973570D01*
X62544960Y6973570D01*
X62571496Y6977341D01*
X62595931Y6988356D01*
X62616330Y7005741D01*
X62631077Y7028122D01*
X62639006Y7053725D01*
X62640210Y7068820D01*
X62640210Y20278934D01*
X64723858Y22362582D01*
X64746562Y22390223D01*
X64769568Y22417640D01*
X64770550Y22419426D01*
X64771842Y22420999D01*
X64788765Y22452559D01*
X64805987Y22483887D01*
X64806602Y22485824D01*
X64807566Y22487623D01*
X64818044Y22521895D01*
X64828845Y22555945D01*
X64829072Y22557967D01*
X64829668Y22559917D01*
X64833284Y22595518D01*
X64837272Y22631072D01*
X64837300Y22635059D01*
X64837307Y22635128D01*
X64837301Y22635192D01*
X64837310Y22636480D01*
X64837310Y53639142D01*
X64860525Y53661249D01*
X64921541Y53747745D01*
X64964594Y53844444D01*
X64988045Y53947664D01*
X64989734Y54068565D01*
X64969174Y54172400D01*
X64928837Y54270264D01*
X64870260Y54358429D01*
X64795675Y54433537D01*
X64707920Y54492728D01*
X64610341Y54533747D01*
X64506652Y54555031D01*
X64400804Y54555770D01*
X64296829Y54535935D01*
X64288410Y54532534D01*
X64288410Y65665208D01*
X64301060Y65665208D01*
X64315925Y65666393D01*
X64313928Y65652340D01*
X64313928Y65259353D01*
X64313748Y65257748D01*
X64313710Y65252340D01*
X64313710Y56243062D01*
X64317200Y56207463D01*
X64320320Y56171808D01*
X64320888Y56169852D01*
X64321087Y56167825D01*
X64331428Y56133573D01*
X64341411Y56099212D01*
X64342348Y56097404D01*
X64342937Y56095454D01*
X64359742Y56063848D01*
X64376201Y56032097D01*
X64377471Y56030507D01*
X64378428Y56028706D01*
X64401054Y56000963D01*
X64423365Y55973015D01*
X64426163Y55970177D01*
X64426208Y55970122D01*
X64426259Y55970080D01*
X64427162Y55969164D01*
X68365610Y52030716D01*
X68365610Y5101029D01*
X68302960Y5109932D01*
X67902960Y5109932D01*
X67857455Y5106303D01*
X67780275Y5082402D01*
X67712809Y5037945D01*
X67660399Y4976452D01*
X67627196Y4902793D01*
X67615828Y4822800D01*
X67615828Y4661505D01*
X67600902Y4680069D01*
X67487166Y4775505D01*
X67357058Y4847032D01*
X67215536Y4891926D01*
X67067989Y4908476D01*
X67057367Y4908550D01*
X66748553Y4908550D01*
X66600789Y4894062D01*
X66458654Y4851148D01*
X66327560Y4781445D01*
X66212503Y4687606D01*
X66117863Y4573206D01*
X66047246Y4442602D01*
X66003341Y4300770D01*
X65987822Y4153111D01*
X66001278Y4005250D01*
X66043198Y3862818D01*
X66111985Y3731241D01*
X66205018Y3615531D01*
X66318754Y3520095D01*
X66448862Y3448568D01*
X66590384Y3403674D01*
X66737931Y3387124D01*
X66748553Y3387050D01*
X67057367Y3387050D01*
X67205131Y3401538D01*
X67347266Y3444452D01*
X67478360Y3514155D01*
X67593417Y3607994D01*
X67615828Y3635084D01*
X67615828Y3472800D01*
X67619457Y3427295D01*
X67643358Y3350115D01*
X67687815Y3282649D01*
X67749308Y3230239D01*
X67822967Y3197036D01*
X67902960Y3185668D01*
X68302960Y3185668D01*
X68348465Y3189297D01*
X68425645Y3213198D01*
X68430303Y3216267D01*
X68472967Y3197036D01*
X68552960Y3185668D01*
X68952960Y3185668D01*
X68998465Y3189297D01*
X69075645Y3213198D01*
X69080303Y3216267D01*
X69122967Y3197036D01*
X69202960Y3185668D01*
X69602960Y3185668D01*
X69648465Y3189297D01*
X69725645Y3213198D01*
X69730303Y3216267D01*
X69772967Y3197036D01*
X69852960Y3185668D01*
X70252960Y3185668D01*
X70298465Y3189297D01*
X70375645Y3213198D01*
X70443111Y3257655D01*
X70495521Y3319148D01*
X70528724Y3392807D01*
X70540092Y3472800D01*
X70540092Y4153111D01*
X70987822Y4153111D01*
X71001278Y4005250D01*
X71043198Y3862818D01*
X71111985Y3731241D01*
X71205018Y3615531D01*
X71318754Y3520095D01*
X71448862Y3448568D01*
X71590384Y3403674D01*
X71737931Y3387124D01*
X71748553Y3387050D01*
X72057367Y3387050D01*
X72205131Y3401538D01*
X72347266Y3444452D01*
X72478360Y3514155D01*
X72593417Y3607994D01*
X72688057Y3722394D01*
X72745917Y3829405D01*
X93471859Y3829405D01*
X93521660Y3513554D01*
X93632124Y3213489D01*
X93693563Y3098544D01*
X93947259Y2995865D01*
X94875694Y3924300D01*
X95324706Y3924300D01*
X96253141Y2995865D01*
X96506837Y3098544D01*
X96640906Y3388833D01*
X96715766Y3699698D01*
X96728541Y4019195D01*
X96678740Y4335046D01*
X96568276Y4635111D01*
X96506837Y4750056D01*
X96253141Y4852735D01*
X95324706Y3924300D01*
X94875694Y3924300D01*
X93947259Y4852735D01*
X93693563Y4750056D01*
X93559494Y4459767D01*
X93484634Y4148902D01*
X93471859Y3829405D01*
X72745917Y3829405D01*
X72758674Y3852998D01*
X72802579Y3994830D01*
X72818098Y4142489D01*
X72804642Y4290350D01*
X72762722Y4432782D01*
X72693935Y4564359D01*
X72600902Y4680069D01*
X72487166Y4775505D01*
X72357058Y4847032D01*
X72215536Y4891926D01*
X72067989Y4908476D01*
X72057367Y4908550D01*
X71748553Y4908550D01*
X71600789Y4894062D01*
X71458654Y4851148D01*
X71327560Y4781445D01*
X71212503Y4687606D01*
X71117863Y4573206D01*
X71047246Y4442602D01*
X71003341Y4300770D01*
X70987822Y4153111D01*
X70540092Y4153111D01*
X70540092Y4822800D01*
X70536463Y4868305D01*
X70512562Y4945485D01*
X70468105Y5012951D01*
X70406612Y5065361D01*
X70380257Y5077241D01*
X94171765Y5077241D01*
X95100200Y4148806D01*
X96028635Y5077241D01*
X95925956Y5330937D01*
X95635667Y5465006D01*
X95324802Y5539866D01*
X95005305Y5552641D01*
X94689454Y5502840D01*
X94389389Y5392376D01*
X94274444Y5330937D01*
X94171765Y5077241D01*
X70380257Y5077241D01*
X70332953Y5098564D01*
X70252960Y5109932D01*
X69852960Y5109932D01*
X69807455Y5106303D01*
X69790310Y5100994D01*
X69790310Y52097940D01*
X69786820Y52133539D01*
X69783700Y52169194D01*
X69783132Y52171150D01*
X69782933Y52173177D01*
X69772578Y52207476D01*
X69762608Y52241790D01*
X69761673Y52243594D01*
X69761083Y52245548D01*
X69744270Y52277169D01*
X69727819Y52308906D01*
X69726548Y52310498D01*
X69725592Y52312296D01*
X69702983Y52340017D01*
X69680655Y52367987D01*
X69677857Y52370825D01*
X69677812Y52370880D01*
X69677761Y52370922D01*
X69676858Y52371838D01*
X65488410Y56560286D01*
X65488410Y60742814D01*
X89165430Y37065794D01*
X89165430Y12971720D01*
X89168920Y12936121D01*
X89172040Y12900466D01*
X89172608Y12898510D01*
X89172807Y12896483D01*
X89183148Y12862231D01*
X89193131Y12827870D01*
X89194068Y12826062D01*
X89194657Y12824112D01*
X89211462Y12792506D01*
X89227921Y12760755D01*
X89229191Y12759165D01*
X89230148Y12757364D01*
X89252774Y12729621D01*
X89275085Y12701673D01*
X89277883Y12698835D01*
X89277928Y12698780D01*
X89277979Y12698738D01*
X89278882Y12697822D01*
X97441391Y4535313D01*
X97349549Y4321030D01*
X97296309Y4070555D01*
X97292734Y3814509D01*
X97338959Y3562645D01*
X97433225Y3324556D01*
X97571941Y3109312D01*
X97749823Y2925110D01*
X97960095Y2778967D01*
X98194749Y2676449D01*
X98444846Y2621462D01*
X98700861Y2616099D01*
X98953041Y2660565D01*
X99191782Y2753167D01*
X99407990Y2890376D01*
X99593429Y3066968D01*
X99741036Y3276215D01*
X99845190Y3510147D01*
X99901922Y3759854D01*
X99906006Y4052335D01*
X99856268Y4303529D01*
X99758687Y4540279D01*
X99616980Y4753565D01*
X99436544Y4935266D01*
X99224251Y5078459D01*
X98988189Y5177690D01*
X98737348Y5229180D01*
X98481284Y5230968D01*
X98229749Y5182985D01*
X97992324Y5087059D01*
X97988040Y5084256D01*
X94984809Y8087487D01*
X109650728Y8087487D01*
X109749348Y7550148D01*
X109950460Y7042198D01*
X110246403Y6582985D01*
X110625904Y6190000D01*
X111074509Y5878211D01*
X111575131Y5659495D01*
X112108700Y5542182D01*
X112654894Y5530741D01*
X113192908Y5625607D01*
X113702249Y5823168D01*
X114163517Y6115897D01*
X114559143Y6492646D01*
X114874055Y6939064D01*
X115096261Y7438146D01*
X115217296Y7970884D01*
X115226009Y8594877D01*
X115119896Y9130786D01*
X114911713Y9635878D01*
X114609387Y10090915D01*
X114224436Y10478563D01*
X113771521Y10784058D01*
X113267895Y10995763D01*
X112732739Y11105615D01*
X112186439Y11109428D01*
X111649802Y11007059D01*
X111143268Y10802407D01*
X110686132Y10503265D01*
X110295806Y10121030D01*
X109987157Y9670259D01*
X109771941Y9168123D01*
X109658356Y8633747D01*
X109650728Y8087487D01*
X94984809Y8087487D01*
X89940130Y13132166D01*
X89940130Y16790721D01*
X93687960Y16790721D01*
X93720556Y16613119D01*
X93787028Y16445231D01*
X93884843Y16293451D01*
X94010276Y16163561D01*
X94158550Y16060508D01*
X94324016Y15988218D01*
X94500372Y15949443D01*
X94680901Y15945662D01*
X94858726Y15977017D01*
X95027074Y16042315D01*
X95179533Y16139069D01*
X95310296Y16263592D01*
X95414381Y16411143D01*
X95487825Y16576100D01*
X95527829Y16752181D01*
X95528367Y16790721D01*
X95694560Y16790721D01*
X95727156Y16613119D01*
X95793628Y16445231D01*
X95891443Y16293451D01*
X96016876Y16163561D01*
X96165150Y16060508D01*
X96330616Y15988218D01*
X96506972Y15949443D01*
X96687501Y15945662D01*
X96865326Y15977017D01*
X97033674Y16042315D01*
X97186133Y16139069D01*
X97316896Y16263592D01*
X97420981Y16411143D01*
X97494425Y16576100D01*
X97534429Y16752181D01*
X97534967Y16790721D01*
X97701160Y16790721D01*
X97733756Y16613119D01*
X97800228Y16445231D01*
X97898043Y16293451D01*
X98023476Y16163561D01*
X98171750Y16060508D01*
X98337216Y15988218D01*
X98513572Y15949443D01*
X98694101Y15945662D01*
X98871926Y15977017D01*
X99040274Y16042315D01*
X99192733Y16139069D01*
X99323496Y16263592D01*
X99427581Y16411143D01*
X99501025Y16576100D01*
X99541029Y16752181D01*
X99541567Y16790721D01*
X99707760Y16790721D01*
X99740356Y16613119D01*
X99806828Y16445231D01*
X99904643Y16293451D01*
X100030076Y16163561D01*
X100178350Y16060508D01*
X100343816Y15988218D01*
X100520172Y15949443D01*
X100700701Y15945662D01*
X100878526Y15977017D01*
X101046874Y16042315D01*
X101199333Y16139069D01*
X101330096Y16263592D01*
X101434181Y16411143D01*
X101507625Y16576100D01*
X101547629Y16752181D01*
X101550509Y16958424D01*
X101515437Y17135554D01*
X101446628Y17302497D01*
X101346703Y17452897D01*
X101219468Y17581023D01*
X101069770Y17681995D01*
X100903311Y17751968D01*
X100726430Y17788277D01*
X100545866Y17789537D01*
X100368496Y17755702D01*
X100201076Y17688060D01*
X100049983Y17589187D01*
X99920972Y17462850D01*
X99818957Y17313861D01*
X99747823Y17147894D01*
X99710281Y16971272D01*
X99707760Y16790721D01*
X99541567Y16790721D01*
X99543909Y16958424D01*
X99508837Y17135554D01*
X99440028Y17302497D01*
X99340103Y17452897D01*
X99212868Y17581023D01*
X99063170Y17681995D01*
X98896711Y17751968D01*
X98719830Y17788277D01*
X98539266Y17789537D01*
X98361896Y17755702D01*
X98194476Y17688060D01*
X98043383Y17589187D01*
X97914372Y17462850D01*
X97812357Y17313861D01*
X97741223Y17147894D01*
X97703681Y16971272D01*
X97701160Y16790721D01*
X97534967Y16790721D01*
X97537309Y16958424D01*
X97502237Y17135554D01*
X97433428Y17302497D01*
X97333503Y17452897D01*
X97206268Y17581023D01*
X97056570Y17681995D01*
X96890111Y17751968D01*
X96713230Y17788277D01*
X96532666Y17789537D01*
X96355296Y17755702D01*
X96187876Y17688060D01*
X96036783Y17589187D01*
X95907772Y17462850D01*
X95805757Y17313861D01*
X95734623Y17147894D01*
X95697081Y16971272D01*
X95694560Y16790721D01*
X95528367Y16790721D01*
X95530709Y16958424D01*
X95495637Y17135554D01*
X95426828Y17302497D01*
X95326903Y17452897D01*
X95199668Y17581023D01*
X95049970Y17681995D01*
X94883511Y17751968D01*
X94706630Y17788277D01*
X94526066Y17789537D01*
X94348696Y17755702D01*
X94181276Y17688060D01*
X94030183Y17589187D01*
X93901172Y17462850D01*
X93799157Y17313861D01*
X93728023Y17147894D01*
X93690481Y16971272D01*
X93687960Y16790721D01*
X89940130Y16790721D01*
X89940130Y37226240D01*
X89936639Y37261843D01*
X89933520Y37297493D01*
X89932952Y37299448D01*
X89932753Y37301477D01*
X89922404Y37335755D01*
X89912429Y37370089D01*
X89911492Y37371896D01*
X89910903Y37373848D01*
X89894088Y37405472D01*
X89877639Y37437205D01*
X89876369Y37438795D01*
X89875412Y37440596D01*
X89852786Y37468339D01*
X89830475Y37496287D01*
X89827677Y37499125D01*
X89827632Y37499180D01*
X89827581Y37499222D01*
X89826678Y37500138D01*
X65888410Y61438406D01*
X65888410Y61669162D01*
X68428490Y59129082D01*
X68456131Y59106378D01*
X68483548Y59083372D01*
X68485334Y59082390D01*
X68486907Y59081098D01*
X68518467Y59064175D01*
X68549795Y59046953D01*
X68551732Y59046338D01*
X68553531Y59045374D01*
X68587803Y59034896D01*
X68621853Y59024095D01*
X68623875Y59023868D01*
X68625825Y59023272D01*
X68661426Y59019656D01*
X68696980Y59015668D01*
X68700967Y59015640D01*
X68701036Y59015633D01*
X68701100Y59015639D01*
X68702388Y59015630D01*
X71787594Y59015630D01*
X92302330Y38500894D01*
X92302330Y26814780D01*
X92305820Y26779181D01*
X92308940Y26743526D01*
X92309508Y26741570D01*
X92309707Y26739543D01*
X92320048Y26705291D01*
X92330031Y26670930D01*
X92330968Y26669122D01*
X92331557Y26667172D01*
X92348362Y26635566D01*
X92364821Y26603815D01*
X92366091Y26602225D01*
X92367048Y26600424D01*
X92389674Y26572681D01*
X92411985Y26544733D01*
X92414783Y26541895D01*
X92414828Y26541840D01*
X92414879Y26541798D01*
X92415782Y26540882D01*
X101770728Y17185936D01*
X101754423Y17147894D01*
X101716881Y16971272D01*
X101714360Y16790721D01*
X101746956Y16613119D01*
X101813428Y16445231D01*
X101911243Y16293451D01*
X102036676Y16163561D01*
X102184950Y16060508D01*
X102350416Y15988218D01*
X102526772Y15949443D01*
X102707301Y15945662D01*
X102885126Y15977017D01*
X103053474Y16042315D01*
X103205933Y16139069D01*
X103336696Y16263592D01*
X103440781Y16411143D01*
X103514225Y16576100D01*
X103554229Y16752181D01*
X103554767Y16790721D01*
X103720960Y16790721D01*
X103753556Y16613119D01*
X103820028Y16445231D01*
X103917843Y16293451D01*
X104043276Y16163561D01*
X104191550Y16060508D01*
X104357016Y15988218D01*
X104533372Y15949443D01*
X104713901Y15945662D01*
X104891726Y15977017D01*
X105060074Y16042315D01*
X105212533Y16139069D01*
X105343296Y16263592D01*
X105447381Y16411143D01*
X105520825Y16576100D01*
X105560829Y16752181D01*
X105561367Y16790721D01*
X105727560Y16790721D01*
X105760156Y16613119D01*
X105826628Y16445231D01*
X105924443Y16293451D01*
X106049876Y16163561D01*
X106198150Y16060508D01*
X106363616Y15988218D01*
X106539972Y15949443D01*
X106720501Y15945662D01*
X106898326Y15977017D01*
X107066674Y16042315D01*
X107219133Y16139069D01*
X107349896Y16263592D01*
X107453981Y16411143D01*
X107527425Y16576100D01*
X107567429Y16752181D01*
X107567967Y16790721D01*
X107734160Y16790721D01*
X107766756Y16613119D01*
X107833228Y16445231D01*
X107931043Y16293451D01*
X108056476Y16163561D01*
X108204750Y16060508D01*
X108370216Y15988218D01*
X108546572Y15949443D01*
X108727101Y15945662D01*
X108904926Y15977017D01*
X109073274Y16042315D01*
X109225733Y16139069D01*
X109356496Y16263592D01*
X109460581Y16411143D01*
X109534025Y16576100D01*
X109574029Y16752181D01*
X109576909Y16958424D01*
X109541837Y17135554D01*
X109473028Y17302497D01*
X109373103Y17452897D01*
X109245868Y17581023D01*
X109096170Y17681995D01*
X108929711Y17751968D01*
X108752830Y17788277D01*
X108572266Y17789537D01*
X108394896Y17755702D01*
X108227476Y17688060D01*
X108076383Y17589187D01*
X107947372Y17462850D01*
X107845357Y17313861D01*
X107774223Y17147894D01*
X107736681Y16971272D01*
X107734160Y16790721D01*
X107567967Y16790721D01*
X107570309Y16958424D01*
X107535237Y17135554D01*
X107466428Y17302497D01*
X107366503Y17452897D01*
X107239268Y17581023D01*
X107089570Y17681995D01*
X106923111Y17751968D01*
X106746230Y17788277D01*
X106565666Y17789537D01*
X106388296Y17755702D01*
X106220876Y17688060D01*
X106069783Y17589187D01*
X105940772Y17462850D01*
X105838757Y17313861D01*
X105767623Y17147894D01*
X105730081Y16971272D01*
X105727560Y16790721D01*
X105561367Y16790721D01*
X105563709Y16958424D01*
X105528637Y17135554D01*
X105459828Y17302497D01*
X105359903Y17452897D01*
X105232668Y17581023D01*
X105082970Y17681995D01*
X104916511Y17751968D01*
X104739630Y17788277D01*
X104559066Y17789537D01*
X104381696Y17755702D01*
X104214276Y17688060D01*
X104063183Y17589187D01*
X103934172Y17462850D01*
X103832157Y17313861D01*
X103761023Y17147894D01*
X103723481Y16971272D01*
X103720960Y16790721D01*
X103554767Y16790721D01*
X103557109Y16958424D01*
X103522037Y17135554D01*
X103453228Y17302497D01*
X103353303Y17452897D01*
X103226068Y17581023D01*
X103076370Y17681995D01*
X102909911Y17751968D01*
X102733030Y17788277D01*
X102552466Y17789537D01*
X102375096Y17755702D01*
X102319155Y17733101D01*
X93077030Y26975226D01*
X93077030Y38661340D01*
X93073544Y38696893D01*
X93070421Y38732593D01*
X93069851Y38734553D01*
X93069653Y38736577D01*
X93059317Y38770813D01*
X93049329Y38805189D01*
X93048392Y38806996D01*
X93047803Y38808948D01*
X93030988Y38840572D01*
X93014539Y38872305D01*
X93013269Y38873895D01*
X93012312Y38875696D01*
X92989686Y38903439D01*
X92967375Y38931387D01*
X92964577Y38934225D01*
X92964532Y38934280D01*
X92964481Y38934322D01*
X92963578Y38935238D01*
X72221938Y59676878D01*
X72194297Y59699582D01*
X72166880Y59722588D01*
X72165094Y59723570D01*
X72163521Y59724862D01*
X72131961Y59741785D01*
X72100633Y59759007D01*
X72098696Y59759622D01*
X72096897Y59760586D01*
X72082863Y59764877D01*
X72093301Y59779674D01*
X72151549Y59910502D01*
X72157379Y59936165D01*
X93102430Y38991114D01*
X93102430Y34041080D01*
X93105920Y34005481D01*
X93109040Y33969826D01*
X93109608Y33967870D01*
X93109807Y33965843D01*
X93120148Y33931591D01*
X93130131Y33897230D01*
X93131068Y33895422D01*
X93131657Y33893472D01*
X93148462Y33861866D01*
X93164921Y33830115D01*
X93166191Y33828525D01*
X93167148Y33826724D01*
X93189774Y33798981D01*
X93212085Y33771033D01*
X93214883Y33768195D01*
X93214928Y33768140D01*
X93214979Y33768098D01*
X93215882Y33767182D01*
X109797128Y17185936D01*
X109780823Y17147894D01*
X109743281Y16971272D01*
X109740760Y16790721D01*
X109773356Y16613119D01*
X109839828Y16445231D01*
X109937643Y16293451D01*
X110063076Y16163561D01*
X110211350Y16060508D01*
X110376816Y15988218D01*
X110553172Y15949443D01*
X110733701Y15945662D01*
X110911526Y15977017D01*
X111079874Y16042315D01*
X111232333Y16139069D01*
X111363096Y16263592D01*
X111467181Y16411143D01*
X111540625Y16576100D01*
X111580629Y16752181D01*
X111581167Y16790721D01*
X111747360Y16790721D01*
X111779956Y16613119D01*
X111846428Y16445231D01*
X111944243Y16293451D01*
X112069676Y16163561D01*
X112217950Y16060508D01*
X112383416Y15988218D01*
X112559772Y15949443D01*
X112740301Y15945662D01*
X112918126Y15977017D01*
X113086474Y16042315D01*
X113238933Y16139069D01*
X113369696Y16263592D01*
X113473781Y16411143D01*
X113547225Y16576100D01*
X113587229Y16752181D01*
X113590109Y16958424D01*
X113555037Y17135554D01*
X113486228Y17302497D01*
X113386303Y17452897D01*
X113259068Y17581023D01*
X113109370Y17681995D01*
X112942911Y17751968D01*
X112766030Y17788277D01*
X112585466Y17789537D01*
X112408096Y17755702D01*
X112240676Y17688060D01*
X112089583Y17589187D01*
X111960572Y17462850D01*
X111858557Y17313861D01*
X111787423Y17147894D01*
X111749881Y16971272D01*
X111747360Y16790721D01*
X111581167Y16790721D01*
X111583509Y16958424D01*
X111548437Y17135554D01*
X111479628Y17302497D01*
X111379703Y17452897D01*
X111252468Y17581023D01*
X111102770Y17681995D01*
X110936311Y17751968D01*
X110759430Y17788277D01*
X110578866Y17789537D01*
X110401496Y17755702D01*
X110345555Y17733101D01*
X93877130Y34201526D01*
X93877130Y37907241D01*
X93957195Y37987306D01*
X94012982Y37772843D01*
X94237431Y37677364D01*
X94476195Y37627506D01*
X94720097Y37625187D01*
X94959766Y37670495D01*
X95185990Y37761690D01*
X95206858Y37772843D01*
X95262646Y37987308D01*
X94609920Y38640034D01*
X94595778Y38625891D01*
X94371272Y38850397D01*
X94385414Y38864540D01*
X94834426Y38864540D01*
X95487152Y38211814D01*
X95701617Y38267602D01*
X95784960Y38463523D01*
X95793628Y38441631D01*
X95891443Y38289851D01*
X96016876Y38159961D01*
X96165150Y38056908D01*
X96330616Y37984618D01*
X96506972Y37945843D01*
X96687501Y37942062D01*
X96865326Y37973417D01*
X97033674Y38038715D01*
X97186133Y38135469D01*
X97316896Y38259992D01*
X97420981Y38407543D01*
X97494425Y38572500D01*
X97534429Y38748581D01*
X97534967Y38787121D01*
X97701160Y38787121D01*
X97733756Y38609519D01*
X97800228Y38441631D01*
X97898043Y38289851D01*
X98023476Y38159961D01*
X98171750Y38056908D01*
X98337216Y37984618D01*
X98513572Y37945843D01*
X98694101Y37942062D01*
X98871926Y37973417D01*
X99040274Y38038715D01*
X99192733Y38135469D01*
X99323496Y38259992D01*
X99427581Y38407543D01*
X99501025Y38572500D01*
X99541029Y38748581D01*
X99541567Y38787121D01*
X99707760Y38787121D01*
X99740356Y38609519D01*
X99806828Y38441631D01*
X99904643Y38289851D01*
X100030076Y38159961D01*
X100178350Y38056908D01*
X100343816Y37984618D01*
X100520172Y37945843D01*
X100700701Y37942062D01*
X100878526Y37973417D01*
X101046874Y38038715D01*
X101199333Y38135469D01*
X101330096Y38259992D01*
X101434181Y38407543D01*
X101507625Y38572500D01*
X101547629Y38748581D01*
X101548167Y38787121D01*
X101714360Y38787121D01*
X101746956Y38609519D01*
X101813428Y38441631D01*
X101911243Y38289851D01*
X102036676Y38159961D01*
X102184950Y38056908D01*
X102350416Y37984618D01*
X102526772Y37945843D01*
X102707301Y37942062D01*
X102885126Y37973417D01*
X103053474Y38038715D01*
X103205933Y38135469D01*
X103336696Y38259992D01*
X103440781Y38407543D01*
X103514225Y38572500D01*
X103554229Y38748581D01*
X103554767Y38787121D01*
X103720960Y38787121D01*
X103753556Y38609519D01*
X103820028Y38441631D01*
X103917843Y38289851D01*
X104043276Y38159961D01*
X104191550Y38056908D01*
X104357016Y37984618D01*
X104533372Y37945843D01*
X104713901Y37942062D01*
X104891726Y37973417D01*
X105060074Y38038715D01*
X105212533Y38135469D01*
X105343296Y38259992D01*
X105447381Y38407543D01*
X105520825Y38572500D01*
X105560829Y38748581D01*
X105561367Y38787121D01*
X105727560Y38787121D01*
X105760156Y38609519D01*
X105826628Y38441631D01*
X105924443Y38289851D01*
X106049876Y38159961D01*
X106198150Y38056908D01*
X106363616Y37984618D01*
X106539972Y37945843D01*
X106720501Y37942062D01*
X106898326Y37973417D01*
X107066674Y38038715D01*
X107219133Y38135469D01*
X107349896Y38259992D01*
X107453981Y38407543D01*
X107527425Y38572500D01*
X107567429Y38748581D01*
X107570309Y38954824D01*
X107535237Y39131954D01*
X107466428Y39298897D01*
X107366503Y39449297D01*
X107239268Y39577423D01*
X107089570Y39678395D01*
X106923111Y39748368D01*
X106746230Y39784677D01*
X106565666Y39785937D01*
X106388296Y39752102D01*
X106220876Y39684460D01*
X106069783Y39585587D01*
X105940772Y39459250D01*
X105838757Y39310261D01*
X105767623Y39144294D01*
X105730081Y38967672D01*
X105727560Y38787121D01*
X105561367Y38787121D01*
X105563709Y38954824D01*
X105528637Y39131954D01*
X105459828Y39298897D01*
X105359903Y39449297D01*
X105232668Y39577423D01*
X105082970Y39678395D01*
X104916511Y39748368D01*
X104739630Y39784677D01*
X104559066Y39785937D01*
X104381696Y39752102D01*
X104214276Y39684460D01*
X104063183Y39585587D01*
X103934172Y39459250D01*
X103832157Y39310261D01*
X103761023Y39144294D01*
X103723481Y38967672D01*
X103720960Y38787121D01*
X103554767Y38787121D01*
X103557109Y38954824D01*
X103522037Y39131954D01*
X103453228Y39298897D01*
X103353303Y39449297D01*
X103226068Y39577423D01*
X103076370Y39678395D01*
X102909911Y39748368D01*
X102733030Y39784677D01*
X102552466Y39785937D01*
X102375096Y39752102D01*
X102207676Y39684460D01*
X102056583Y39585587D01*
X101927572Y39459250D01*
X101825557Y39310261D01*
X101754423Y39144294D01*
X101716881Y38967672D01*
X101714360Y38787121D01*
X101548167Y38787121D01*
X101550509Y38954824D01*
X101515437Y39131954D01*
X101446628Y39298897D01*
X101346703Y39449297D01*
X101219468Y39577423D01*
X101069770Y39678395D01*
X100903311Y39748368D01*
X100726430Y39784677D01*
X100545866Y39785937D01*
X100368496Y39752102D01*
X100201076Y39684460D01*
X100049983Y39585587D01*
X99920972Y39459250D01*
X99818957Y39310261D01*
X99747823Y39144294D01*
X99710281Y38967672D01*
X99707760Y38787121D01*
X99541567Y38787121D01*
X99543909Y38954824D01*
X99508837Y39131954D01*
X99440028Y39298897D01*
X99340103Y39449297D01*
X99212868Y39577423D01*
X99063170Y39678395D01*
X98896711Y39748368D01*
X98719830Y39784677D01*
X98539266Y39785937D01*
X98361896Y39752102D01*
X98194476Y39684460D01*
X98043383Y39585587D01*
X97914372Y39459250D01*
X97812357Y39310261D01*
X97741223Y39144294D01*
X97703681Y38967672D01*
X97701160Y38787121D01*
X97534967Y38787121D01*
X97537309Y38954824D01*
X97502237Y39131954D01*
X97433428Y39298897D01*
X97333503Y39449297D01*
X97206268Y39577423D01*
X97056570Y39678395D01*
X96890111Y39748368D01*
X96713230Y39784677D01*
X96532666Y39785937D01*
X96355296Y39752102D01*
X96187876Y39684460D01*
X96036783Y39585587D01*
X95907772Y39459250D01*
X95805757Y39310261D01*
X95784917Y39261638D01*
X95712770Y39440610D01*
X95701617Y39461478D01*
X95487152Y39517266D01*
X94834426Y38864540D01*
X94385414Y38864540D01*
X93732688Y39517266D01*
X93684425Y39504711D01*
X93447364Y39741772D01*
X93957194Y39741772D01*
X94609920Y39089046D01*
X95262646Y39741772D01*
X95206858Y39956237D01*
X94982409Y40051716D01*
X94743645Y40101574D01*
X94499743Y40103893D01*
X94260074Y40058585D01*
X94033850Y39967390D01*
X94012982Y39956237D01*
X93957194Y39741772D01*
X93447364Y39741772D01*
X72301530Y60887606D01*
X75760158Y60887606D01*
X96342622Y40305142D01*
X96370263Y40282438D01*
X96397680Y40259432D01*
X96399466Y40258450D01*
X96401039Y40257158D01*
X96432599Y40240235D01*
X96463927Y40223013D01*
X96465864Y40222398D01*
X96467663Y40221434D01*
X96501935Y40210956D01*
X96535985Y40200155D01*
X96538007Y40199928D01*
X96539957Y40199332D01*
X96575558Y40195716D01*
X96611112Y40191728D01*
X96615099Y40191700D01*
X96615168Y40191693D01*
X96615232Y40191699D01*
X96616520Y40191690D01*
X106781174Y40191690D01*
X107790528Y39182336D01*
X107774223Y39144294D01*
X107736681Y38967672D01*
X107734160Y38787121D01*
X107766756Y38609519D01*
X107833228Y38441631D01*
X107931043Y38289851D01*
X108056476Y38159961D01*
X108204750Y38056908D01*
X108370216Y37984618D01*
X108546572Y37945843D01*
X108727101Y37942062D01*
X108904926Y37973417D01*
X109073274Y38038715D01*
X109225733Y38135469D01*
X109356496Y38259992D01*
X109460581Y38407543D01*
X109534025Y38572500D01*
X109574029Y38748581D01*
X109576909Y38954824D01*
X109541837Y39131954D01*
X109473028Y39298897D01*
X109373103Y39449297D01*
X109245868Y39577423D01*
X109096170Y39678395D01*
X108929711Y39748368D01*
X108752830Y39784677D01*
X108572266Y39785937D01*
X108394896Y39752102D01*
X108338955Y39729501D01*
X107215518Y40852938D01*
X107187877Y40875642D01*
X107160460Y40898648D01*
X107158674Y40899630D01*
X107157101Y40900922D01*
X107125541Y40917845D01*
X107094213Y40935067D01*
X107092276Y40935682D01*
X107090477Y40936646D01*
X107056205Y40947124D01*
X107022155Y40957925D01*
X107020133Y40958152D01*
X107018183Y40958748D01*
X106982582Y40962364D01*
X106947028Y40966352D01*
X106943041Y40966380D01*
X106942972Y40966387D01*
X106942908Y40966381D01*
X106941620Y40966390D01*
X96776966Y40966390D01*
X76462048Y61281308D01*
X87698156Y61281308D01*
X109797128Y39182336D01*
X109780823Y39144294D01*
X109743281Y38967672D01*
X109740760Y38787121D01*
X109773356Y38609519D01*
X109839828Y38441631D01*
X109937643Y38289851D01*
X110063076Y38159961D01*
X110211350Y38056908D01*
X110376816Y37984618D01*
X110553172Y37945843D01*
X110733701Y37942062D01*
X110911526Y37973417D01*
X111079874Y38038715D01*
X111232333Y38135469D01*
X111363096Y38259992D01*
X111467181Y38407543D01*
X111540625Y38572500D01*
X111580629Y38748581D01*
X111581167Y38787121D01*
X111747360Y38787121D01*
X111779956Y38609519D01*
X111846428Y38441631D01*
X111944243Y38289851D01*
X112069676Y38159961D01*
X112217950Y38056908D01*
X112383416Y37984618D01*
X112559772Y37945843D01*
X112740301Y37942062D01*
X112918126Y37973417D01*
X113086474Y38038715D01*
X113238933Y38135469D01*
X113369696Y38259992D01*
X113473781Y38407543D01*
X113547225Y38572500D01*
X113587229Y38748581D01*
X113590109Y38954824D01*
X113555037Y39131954D01*
X113486228Y39298897D01*
X113386303Y39449297D01*
X113259068Y39577423D01*
X113109370Y39678395D01*
X112942911Y39748368D01*
X112766030Y39784677D01*
X112585466Y39785937D01*
X112408096Y39752102D01*
X112240676Y39684460D01*
X112089583Y39585587D01*
X111960572Y39459250D01*
X111858557Y39310261D01*
X111787423Y39144294D01*
X111749881Y38967672D01*
X111747360Y38787121D01*
X111581167Y38787121D01*
X111583509Y38954824D01*
X111548437Y39131954D01*
X111479628Y39298897D01*
X111379703Y39449297D01*
X111252468Y39577423D01*
X111102770Y39678395D01*
X110936311Y39748368D01*
X110759430Y39784677D01*
X110578866Y39785937D01*
X110401496Y39752102D01*
X110345555Y39729501D01*
X88400046Y61675010D01*
X90869434Y61675010D01*
X106732148Y45812296D01*
X106732148Y45522960D01*
X106735777Y45477455D01*
X106759678Y45400275D01*
X106804135Y45332809D01*
X106865628Y45280399D01*
X106882067Y45272989D01*
X106829129Y45238105D01*
X106776719Y45176612D01*
X106743516Y45102953D01*
X106732148Y45022960D01*
X106732148Y44422960D01*
X106735777Y44377455D01*
X106759678Y44300275D01*
X106804135Y44232809D01*
X106865628Y44180399D01*
X106939287Y44147196D01*
X107019280Y44135828D01*
X107519280Y44135828D01*
X107564785Y44139457D01*
X107641965Y44163358D01*
X107709431Y44207815D01*
X107742223Y44246290D01*
X107838961Y44246290D01*
X107840497Y44227035D01*
X107864398Y44149855D01*
X107908855Y44082389D01*
X107970348Y44029979D01*
X108044007Y43996776D01*
X108124000Y43985408D01*
X108924000Y43985408D01*
X108969505Y43989037D01*
X109046685Y44012938D01*
X109114151Y44057395D01*
X109166561Y44118888D01*
X109199764Y44192547D01*
X109211132Y44272540D01*
X109211132Y45172540D01*
X109207503Y45218045D01*
X109183602Y45295225D01*
X109139145Y45362691D01*
X109077652Y45415101D01*
X109003993Y45448304D01*
X108924000Y45459672D01*
X108124000Y45459672D01*
X108078495Y45456043D01*
X108001315Y45432142D01*
X107933849Y45387685D01*
X107881439Y45326192D01*
X107848236Y45252533D01*
X107840598Y45198790D01*
X107743862Y45198790D01*
X107734425Y45213111D01*
X107672932Y45265521D01*
X107656493Y45272931D01*
X107709431Y45307815D01*
X107761841Y45369308D01*
X107795044Y45442967D01*
X107806412Y45522960D01*
X107806412Y46122960D01*
X107802783Y46168465D01*
X107778882Y46245645D01*
X107734425Y46313111D01*
X107672932Y46365521D01*
X107599273Y46398724D01*
X107519280Y46410092D01*
X107229944Y46410092D01*
X91303778Y62336258D01*
X91276137Y62358962D01*
X91248720Y62381968D01*
X91246934Y62382950D01*
X91245361Y62384242D01*
X91213801Y62401165D01*
X91182473Y62418387D01*
X91180536Y62419002D01*
X91178737Y62419966D01*
X91144465Y62430444D01*
X91110415Y62441245D01*
X91108393Y62441472D01*
X91106443Y62442068D01*
X91070842Y62445684D01*
X91035288Y62449672D01*
X91031301Y62449700D01*
X91031232Y62449707D01*
X91031168Y62449701D01*
X91029880Y62449710D01*
X74757425Y62449710D01*
X74810929Y62569882D01*
X74842657Y62709533D01*
X74843459Y62766977D01*
X77654936Y65578454D01*
X77765286Y65621256D01*
X77886202Y65697991D01*
X77989910Y65796751D01*
X78072461Y65913774D01*
X78130709Y66044602D01*
X78162437Y66184253D01*
X78164721Y66347825D01*
X78136905Y66488307D01*
X78082332Y66620710D01*
X78077482Y66628010D01*
X95066054Y66628010D01*
X111296563Y50397501D01*
X111208645Y50192373D01*
X111156221Y49945735D01*
X111152700Y49693611D01*
X111198218Y49445605D01*
X111291040Y49211163D01*
X111427631Y48999215D01*
X111602788Y48817835D01*
X111809839Y48673930D01*
X112040899Y48572983D01*
X112231903Y48530988D01*
X112075363Y48501126D01*
X111841575Y48406669D01*
X111630586Y48268602D01*
X111450433Y48092183D01*
X111307977Y47884132D01*
X111208645Y47652373D01*
X111156221Y47405735D01*
X111152700Y47153611D01*
X111198218Y46905605D01*
X111291040Y46671163D01*
X111427631Y46459215D01*
X111602788Y46277835D01*
X111809839Y46133930D01*
X112040899Y46032983D01*
X112231903Y45990988D01*
X112075363Y45961126D01*
X111841575Y45866669D01*
X111630586Y45728602D01*
X111450433Y45552183D01*
X111338897Y45389290D01*
X111007936Y45389290D01*
X110977652Y45415101D01*
X110903993Y45448304D01*
X110824000Y45459672D01*
X110024000Y45459672D01*
X109978495Y45456043D01*
X109901315Y45432142D01*
X109833849Y45387685D01*
X109781439Y45326192D01*
X109748236Y45252533D01*
X109736868Y45172540D01*
X109736868Y44272540D01*
X109740497Y44227035D01*
X109764398Y44149855D01*
X109808855Y44082389D01*
X109870348Y44029979D01*
X109944007Y43996776D01*
X110024000Y43985408D01*
X110824000Y43985408D01*
X110869505Y43989037D01*
X110946685Y44012938D01*
X111011715Y44055790D01*
X111339615Y44055790D01*
X111427631Y43919215D01*
X111602788Y43737835D01*
X111809839Y43593930D01*
X112040899Y43492983D01*
X112287166Y43438837D01*
X112539259Y43433557D01*
X112787577Y43477342D01*
X113022661Y43568525D01*
X113235557Y43703633D01*
X113418156Y43877520D01*
X113563502Y44083561D01*
X113666060Y44313911D01*
X113721923Y44559793D01*
X113725945Y44847794D01*
X113676969Y45095141D01*
X113580883Y45328264D01*
X113441346Y45538284D01*
X113263673Y45717201D01*
X113054633Y45858200D01*
X112822186Y45955912D01*
X112645212Y45992239D01*
X112787577Y46017342D01*
X113022661Y46108525D01*
X113235557Y46243633D01*
X113418156Y46417520D01*
X113563502Y46623561D01*
X113607316Y46721970D01*
X114108080Y46721970D01*
X114135394Y46724648D01*
X114408140Y46724648D01*
X114453645Y46728277D01*
X114530825Y46752178D01*
X114598291Y46796635D01*
X114650701Y46858128D01*
X114658111Y46874567D01*
X114692995Y46821629D01*
X114754488Y46769219D01*
X114828147Y46736016D01*
X114908140Y46724648D01*
X115168396Y46724648D01*
X115201784Y46720903D01*
X115207328Y46720864D01*
X115207436Y46720853D01*
X115207537Y46720863D01*
X115209320Y46720850D01*
X115706839Y46720850D01*
X115707368Y46720399D01*
X115780492Y46687437D01*
X115848359Y46650127D01*
X115972395Y46610780D01*
X116101711Y46596275D01*
X116111020Y46596210D01*
X116752280Y46596210D01*
X116813567Y46602219D01*
X116874929Y46607588D01*
X116878294Y46608566D01*
X116881786Y46608908D01*
X116940774Y46626718D01*
X116999889Y46643892D01*
X117003001Y46645505D01*
X117006359Y46646519D01*
X117060730Y46675429D01*
X117115418Y46703776D01*
X117118160Y46705965D01*
X117121254Y46707610D01*
X117168966Y46746523D01*
X117217115Y46784960D01*
X117221992Y46789770D01*
X117222095Y46789854D01*
X117222174Y46789950D01*
X117223743Y46791497D01*
X117987103Y47554857D01*
X118026165Y47602411D01*
X118065784Y47649628D01*
X118067473Y47652700D01*
X118069699Y47655410D01*
X118098829Y47709737D01*
X118128473Y47763659D01*
X118129532Y47766997D01*
X118131191Y47770091D01*
X118149213Y47829040D01*
X118167820Y47887695D01*
X118168211Y47891178D01*
X118169236Y47894532D01*
X118175461Y47955815D01*
X118182325Y48017011D01*
X118182373Y48023864D01*
X118182386Y48023993D01*
X118182375Y48024114D01*
X118182390Y48026320D01*
X118182390Y74022673D01*
X118254366Y73950697D01*
X118366800Y74063131D01*
X118467054Y73811481D01*
X118753927Y73679414D01*
X119061052Y73605850D01*
X119376628Y73593618D01*
X119688526Y73643186D01*
X119984760Y73752650D01*
X120094826Y73811481D01*
X120195080Y74063131D01*
X120307514Y73950697D01*
X120307514Y73950697D01*
G37*
X120307514Y73950697D02*
X120371870Y74015053D01*
X120371870Y95250D01*
X92710Y95250D01*
X92710Y1727933D01*
X65117210Y1727933D01*
X65117210Y1167667D01*
X65132174Y1015047D01*
X65176498Y868241D01*
X65248492Y732840D01*
X65345415Y614001D01*
X65463574Y516251D01*
X65598470Y443313D01*
X65744963Y397966D01*
X65897474Y381936D01*
X65938481Y385668D01*
X67102960Y385668D01*
X67148465Y389297D01*
X67225645Y413198D01*
X67293111Y457655D01*
X67345521Y519148D01*
X67378724Y592807D01*
X67379169Y595935D01*
X67393358Y550115D01*
X67437815Y482649D01*
X67499308Y430239D01*
X67572967Y397036D01*
X67652960Y385668D01*
X69152960Y385668D01*
X69198465Y389297D01*
X69275645Y413198D01*
X69343111Y457655D01*
X69395521Y519148D01*
X69402931Y535587D01*
X69437815Y482649D01*
X69499308Y430239D01*
X69572967Y397036D01*
X69652960Y385668D01*
X71152960Y385668D01*
X71198465Y389297D01*
X71275645Y413198D01*
X71343111Y457655D01*
X71395521Y519148D01*
X71428724Y592807D01*
X71429169Y595935D01*
X71443358Y550115D01*
X71487815Y482649D01*
X71549308Y430239D01*
X71622967Y397036D01*
X71702960Y385668D01*
X72861967Y385668D01*
X72897474Y381936D01*
X73050195Y395835D01*
X73197307Y439132D01*
X73333208Y510179D01*
X73452720Y606270D01*
X73551293Y723744D01*
X73625171Y858127D01*
X73671539Y1004300D01*
X73688633Y1156696D01*
X73688710Y1167667D01*
X73688710Y1727933D01*
X73673746Y1880553D01*
X73629422Y2027359D01*
X73557428Y2162760D01*
X73460505Y2281599D01*
X73342346Y2379349D01*
X73207450Y2452287D01*
X73060957Y2497634D01*
X72908446Y2513664D01*
X72867439Y2509932D01*
X71702960Y2509932D01*
X71657455Y2506303D01*
X71580275Y2482402D01*
X71512809Y2437945D01*
X71460399Y2376452D01*
X71427196Y2302793D01*
X71426751Y2299665D01*
X71412562Y2345485D01*
X71368105Y2412951D01*
X71306612Y2465361D01*
X71232953Y2498564D01*
X71152960Y2509932D01*
X69652960Y2509932D01*
X69607455Y2506303D01*
X69530275Y2482402D01*
X69462809Y2437945D01*
X69410399Y2376452D01*
X69402989Y2360013D01*
X69368105Y2412951D01*
X69306612Y2465361D01*
X69232953Y2498564D01*
X69152960Y2509932D01*
X67652960Y2509932D01*
X67607455Y2506303D01*
X67530275Y2482402D01*
X67462809Y2437945D01*
X67410399Y2376452D01*
X67377196Y2302793D01*
X67376751Y2299665D01*
X67362562Y2345485D01*
X67318105Y2412951D01*
X67256612Y2465361D01*
X67182953Y2498564D01*
X67102960Y2509932D01*
X65943953Y2509932D01*
X65908446Y2513664D01*
X65755725Y2499765D01*
X65608613Y2456468D01*
X65472712Y2385421D01*
X65353200Y2289330D01*
X65254627Y2171856D01*
X65180749Y2037473D01*
X65134381Y1891300D01*
X65117287Y1738904D01*
X65117210Y1727933D01*
X92710Y1727933D01*
X92710Y2771359D01*
X94171765Y2771359D01*
X94274444Y2517663D01*
X94564733Y2383594D01*
X94875598Y2308734D01*
X95195095Y2295959D01*
X95510946Y2345760D01*
X95811011Y2456224D01*
X95925956Y2517663D01*
X96028635Y2771359D01*
X95100200Y3699794D01*
X94171765Y2771359D01*
X92710Y2771359D01*
X92710Y4807202D01*
X10264108Y4807202D01*
X10339390Y4576515D01*
X10591143Y4465032D01*
X10859807Y4404806D01*
X11135060Y4398150D01*
X11406322Y4445321D01*
X11663168Y4544507D01*
X11723050Y4576515D01*
X11798332Y4807202D01*
X12804108Y4807202D01*
X12879390Y4576515D01*
X13131143Y4465032D01*
X13399807Y4404806D01*
X13675060Y4398150D01*
X13946322Y4445321D01*
X14203168Y4544507D01*
X14263050Y4576515D01*
X14338332Y4807202D01*
X15344108Y4807202D01*
X15419390Y4576515D01*
X15671143Y4465032D01*
X15939807Y4404806D01*
X16215060Y4398150D01*
X16486322Y4445321D01*
X16743168Y4544507D01*
X16803050Y4576515D01*
X16878332Y4807202D01*
X17884108Y4807202D01*
X17959390Y4576515D01*
X18211143Y4465032D01*
X18479807Y4404806D01*
X18755060Y4398150D01*
X19026322Y4445321D01*
X19283168Y4544507D01*
X19343050Y4576515D01*
X19418332Y4807202D01*
X20424108Y4807202D01*
X20499390Y4576515D01*
X20751143Y4465032D01*
X21019807Y4404806D01*
X21295060Y4398150D01*
X21566322Y4445321D01*
X21823168Y4544507D01*
X21883050Y4576515D01*
X21958332Y4807202D01*
X22964108Y4807202D01*
X23039390Y4576515D01*
X23291143Y4465032D01*
X23559807Y4404806D01*
X23835060Y4398150D01*
X24106322Y4445321D01*
X24363168Y4544507D01*
X24423050Y4576515D01*
X24498332Y4807202D01*
X25504108Y4807202D01*
X25579390Y4576515D01*
X25831143Y4465032D01*
X26099807Y4404806D01*
X26375060Y4398150D01*
X26646322Y4445321D01*
X26903168Y4544507D01*
X26963050Y4576515D01*
X27038332Y4807202D01*
X28044108Y4807202D01*
X28119390Y4576515D01*
X28371143Y4465032D01*
X28639807Y4404806D01*
X28915060Y4398150D01*
X29186322Y4445321D01*
X29443168Y4544507D01*
X29503050Y4576515D01*
X29578332Y4807202D01*
X30584108Y4807202D01*
X30659390Y4576515D01*
X30911143Y4465032D01*
X31179807Y4404806D01*
X31455060Y4398150D01*
X31664221Y4434522D01*
X43933009Y4434522D01*
X43982066Y4167227D01*
X44082108Y3914552D01*
X44229322Y3686120D01*
X44418102Y3490632D01*
X44641257Y3335535D01*
X44890288Y3226737D01*
X45155708Y3168380D01*
X45427408Y3162689D01*
X45695039Y3209879D01*
X45948407Y3308154D01*
X46000075Y3340944D01*
X49334991Y3340944D01*
X49447359Y3079072D01*
X49751305Y2936999D01*
X50077127Y2856952D01*
X50412306Y2842008D01*
X50743959Y2892742D01*
X51059341Y3007202D01*
X51193801Y3079072D01*
X51306169Y3340944D01*
X50320580Y4326534D01*
X49334991Y3340944D01*
X46000075Y3340944D01*
X46177861Y3453770D01*
X46374662Y3641181D01*
X46531313Y3863248D01*
X46641847Y4111513D01*
X46702055Y4376519D01*
X46703211Y4459314D01*
X48611548Y4459314D01*
X48662282Y4127661D01*
X48776742Y3812279D01*
X48848612Y3677819D01*
X49110484Y3565451D01*
X50096074Y4551040D01*
X50545086Y4551040D01*
X51530676Y3565451D01*
X51792548Y3677819D01*
X51934621Y3981765D01*
X52014668Y4307587D01*
X52029612Y4642766D01*
X51978878Y4974419D01*
X51864418Y5289801D01*
X51792548Y5424261D01*
X51530676Y5536629D01*
X50545086Y4551040D01*
X50096074Y4551040D01*
X49110484Y5536629D01*
X48848612Y5424261D01*
X48706539Y5120315D01*
X48626492Y4794493D01*
X48611548Y4459314D01*
X46703211Y4459314D01*
X46706389Y4686920D01*
X46653604Y4953504D01*
X46550045Y5204758D01*
X46399655Y5431112D01*
X46208164Y5623945D01*
X46004770Y5761136D01*
X49334991Y5761136D01*
X50320580Y4775546D01*
X51306169Y5761136D01*
X51193801Y6023008D01*
X50889855Y6165081D01*
X50564033Y6245128D01*
X50228854Y6260072D01*
X49897201Y6209338D01*
X49581819Y6094878D01*
X49447359Y6023008D01*
X49334991Y5761136D01*
X46004770Y5761136D01*
X45982865Y5775911D01*
X45732340Y5881222D01*
X45466131Y5935867D01*
X45194378Y5937764D01*
X44927432Y5886842D01*
X44675461Y5785039D01*
X44448062Y5636233D01*
X44253898Y5446093D01*
X44100362Y5221860D01*
X43993305Y4972076D01*
X43936803Y4706255D01*
X43933009Y4434522D01*
X31664221Y4434522D01*
X31726322Y4445321D01*
X31983168Y4544507D01*
X32043050Y4576515D01*
X32118332Y4807202D01*
X31351220Y5574314D01*
X30584108Y4807202D01*
X29578332Y4807202D01*
X28811220Y5574314D01*
X28044108Y4807202D01*
X27038332Y4807202D01*
X26271220Y5574314D01*
X25504108Y4807202D01*
X24498332Y4807202D01*
X23731220Y5574314D01*
X22964108Y4807202D01*
X21958332Y4807202D01*
X21191220Y5574314D01*
X20424108Y4807202D01*
X19418332Y4807202D01*
X18651220Y5574314D01*
X17884108Y4807202D01*
X16878332Y4807202D01*
X16111220Y5574314D01*
X15344108Y4807202D01*
X14338332Y4807202D01*
X13571220Y5574314D01*
X12804108Y4807202D01*
X11798332Y4807202D01*
X11031220Y5574314D01*
X10264108Y4807202D01*
X92710Y4807202D01*
X92710Y5694980D01*
X9630550Y5694980D01*
X9677721Y5423718D01*
X9776907Y5166872D01*
X9808915Y5106990D01*
X10039602Y5031708D01*
X10806714Y5798820D01*
X11255726Y5798820D01*
X12022838Y5031708D01*
X12253525Y5106990D01*
X12299734Y5211341D01*
X12316907Y5166872D01*
X12348915Y5106990D01*
X12579602Y5031708D01*
X13346714Y5798820D01*
X13795726Y5798820D01*
X14562838Y5031708D01*
X14793525Y5106990D01*
X14839734Y5211341D01*
X14856907Y5166872D01*
X14888915Y5106990D01*
X15119602Y5031708D01*
X15886714Y5798820D01*
X16335726Y5798820D01*
X17102838Y5031708D01*
X17333525Y5106990D01*
X17379734Y5211341D01*
X17396907Y5166872D01*
X17428915Y5106990D01*
X17659602Y5031708D01*
X18426714Y5798820D01*
X17659602Y6565932D01*
X17428915Y6490650D01*
X17382706Y6386299D01*
X17365533Y6430768D01*
X17333525Y6490650D01*
X17102838Y6565932D01*
X16335726Y5798820D01*
X15886714Y5798820D01*
X15119602Y6565932D01*
X14888915Y6490650D01*
X14842706Y6386299D01*
X14825533Y6430768D01*
X14793525Y6490650D01*
X14562838Y6565932D01*
X13795726Y5798820D01*
X13346714Y5798820D01*
X12579602Y6565932D01*
X12348915Y6490650D01*
X12302706Y6386299D01*
X12285533Y6430768D01*
X12253525Y6490650D01*
X12022838Y6565932D01*
X11255726Y5798820D01*
X10806714Y5798820D01*
X10039602Y6565932D01*
X9808915Y6490650D01*
X9697432Y6238897D01*
X9637206Y5970233D01*
X9630550Y5694980D01*
X92710Y5694980D01*
X92710Y6973570D01*
X10323871Y6973570D01*
X10264108Y6790438D01*
X11031220Y6023326D01*
X11798332Y6790438D01*
X11738569Y6973570D01*
X12863871Y6973570D01*
X12804108Y6790438D01*
X13571220Y6023326D01*
X14338332Y6790438D01*
X14278569Y6973570D01*
X15403871Y6973570D01*
X15344108Y6790438D01*
X16111220Y6023326D01*
X16878332Y6790438D01*
X16818569Y6973570D01*
X17943871Y6973570D01*
X17884108Y6790438D01*
X18651220Y6023326D01*
X19418332Y6790438D01*
X19358569Y6973570D01*
X19468674Y6973570D01*
X19647322Y6794922D01*
X19674963Y6772218D01*
X19702380Y6749212D01*
X19704166Y6748230D01*
X19705739Y6746938D01*
X19737299Y6730015D01*
X19768627Y6712793D01*
X19770564Y6712178D01*
X19772363Y6711214D01*
X19806635Y6700736D01*
X19840685Y6689935D01*
X19842707Y6689708D01*
X19844657Y6689112D01*
X19880258Y6685496D01*
X19915812Y6681508D01*
X19919799Y6681480D01*
X19919868Y6681473D01*
X19919932Y6681479D01*
X19921220Y6681470D01*
X20088241Y6681470D01*
X20086151Y6679380D01*
X20199600Y6565931D01*
X19968915Y6490650D01*
X19922706Y6386299D01*
X19905533Y6430768D01*
X19873525Y6490650D01*
X19642838Y6565932D01*
X18875726Y5798820D01*
X19642838Y5031708D01*
X19873525Y5106990D01*
X19919734Y5211341D01*
X19936907Y5166872D01*
X19968915Y5106990D01*
X20199602Y5031708D01*
X20966714Y5798820D01*
X20952572Y5812962D01*
X21177078Y6037468D01*
X21191220Y6023326D01*
X21205363Y6037468D01*
X21429869Y5812962D01*
X21415726Y5798820D01*
X22182838Y5031708D01*
X22413525Y5106990D01*
X22459734Y5211341D01*
X22476907Y5166872D01*
X22508915Y5106990D01*
X22739602Y5031708D01*
X23506714Y5798820D01*
X23492572Y5812962D01*
X23717078Y6037468D01*
X23731220Y6023326D01*
X23745363Y6037468D01*
X23969869Y5812962D01*
X23955726Y5798820D01*
X24722838Y5031708D01*
X24953525Y5106990D01*
X24999734Y5211341D01*
X25016907Y5166872D01*
X25048915Y5106990D01*
X25279602Y5031708D01*
X26046714Y5798820D01*
X26032572Y5812962D01*
X26257078Y6037468D01*
X26271220Y6023326D01*
X26285363Y6037468D01*
X26509869Y5812962D01*
X26495726Y5798820D01*
X27262838Y5031708D01*
X27493525Y5106990D01*
X27539734Y5211341D01*
X27556907Y5166872D01*
X27588915Y5106990D01*
X27819602Y5031708D01*
X28586714Y5798820D01*
X28572572Y5812962D01*
X28797078Y6037468D01*
X28811220Y6023326D01*
X28825363Y6037468D01*
X29049869Y5812962D01*
X29035726Y5798820D01*
X29802838Y5031708D01*
X30033525Y5106990D01*
X30079734Y5211341D01*
X30096907Y5166872D01*
X30128915Y5106990D01*
X30359602Y5031708D01*
X31126714Y5798820D01*
X31112572Y5812962D01*
X31337078Y6037468D01*
X31351220Y6023326D01*
X31365363Y6037468D01*
X31589869Y5812962D01*
X31575726Y5798820D01*
X32342838Y5031708D01*
X32573525Y5106990D01*
X32685008Y5358743D01*
X32745234Y5627407D01*
X32751890Y5902660D01*
X32704719Y6173922D01*
X32605533Y6430768D01*
X32573525Y6490650D01*
X32342840Y6565931D01*
X32456289Y6679380D01*
X32454199Y6681470D01*
X33267135Y6681470D01*
X33211056Y6644773D01*
X33059696Y6496551D01*
X32940009Y6321753D01*
X32856553Y6127036D01*
X32812508Y5919817D01*
X32809550Y5707990D01*
X32847793Y5499622D01*
X32925779Y5302651D01*
X33040539Y5124578D01*
X33187701Y4972188D01*
X33361660Y4851283D01*
X33555789Y4766470D01*
X33762695Y4720979D01*
X33974497Y4716542D01*
X34183126Y4753329D01*
X34380637Y4829939D01*
X34559506Y4943452D01*
X34712921Y5089547D01*
X34835037Y5262657D01*
X34921203Y5456190D01*
X34968138Y5662774D01*
X34971516Y5904744D01*
X34930368Y6112557D01*
X34849639Y6308421D01*
X34732404Y6484873D01*
X34583129Y6635194D01*
X34514522Y6681470D01*
X40596820Y6681470D01*
X40632419Y6684960D01*
X40668074Y6688080D01*
X40670030Y6688648D01*
X40672057Y6688847D01*
X40706309Y6699188D01*
X40740670Y6709171D01*
X40742478Y6710108D01*
X40744428Y6710697D01*
X40776034Y6727502D01*
X40807785Y6743961D01*
X40809375Y6745231D01*
X40811176Y6746188D01*
X40838919Y6768814D01*
X40866867Y6791125D01*
X40869705Y6793923D01*
X40869760Y6793968D01*
X40869802Y6794019D01*
X40870718Y6794922D01*
X41049366Y6973570D01*
X54994688Y6973570D01*
X55246403Y6582985D01*
X55625904Y6190000D01*
X56074509Y5878211D01*
X56575131Y5659495D01*
X57108700Y5542182D01*
X57654894Y5530741D01*
X58192908Y5625607D01*
X58702249Y5823168D01*
X59163517Y6115897D01*
X59559143Y6492646D01*
X59874055Y6939064D01*
X59889418Y6973570D01*
X62544960Y6973570D01*
X62571496Y6977341D01*
X62595931Y6988356D01*
X62616330Y7005741D01*
X62631077Y7028122D01*
X62639006Y7053725D01*
X62640210Y7068820D01*
X62640210Y20278934D01*
X64723858Y22362582D01*
X64746562Y22390223D01*
X64769568Y22417640D01*
X64770550Y22419426D01*
X64771842Y22420999D01*
X64788765Y22452559D01*
X64805987Y22483887D01*
X64806602Y22485824D01*
X64807566Y22487623D01*
X64818044Y22521895D01*
X64828845Y22555945D01*
X64829072Y22557967D01*
X64829668Y22559917D01*
X64833284Y22595518D01*
X64837272Y22631072D01*
X64837300Y22635059D01*
X64837307Y22635128D01*
X64837301Y22635192D01*
X64837310Y22636480D01*
X64837310Y53639142D01*
X64860525Y53661249D01*
X64921541Y53747745D01*
X64964594Y53844444D01*
X64988045Y53947664D01*
X64989734Y54068565D01*
X64969174Y54172400D01*
X64928837Y54270264D01*
X64870260Y54358429D01*
X64795675Y54433537D01*
X64707920Y54492728D01*
X64610341Y54533747D01*
X64506652Y54555031D01*
X64400804Y54555770D01*
X64296829Y54535935D01*
X64288410Y54532534D01*
X64288410Y65665208D01*
X64301060Y65665208D01*
X64315925Y65666393D01*
X64313928Y65652340D01*
X64313928Y65259353D01*
X64313748Y65257748D01*
X64313710Y65252340D01*
X64313710Y56243062D01*
X64317200Y56207463D01*
X64320320Y56171808D01*
X64320888Y56169852D01*
X64321087Y56167825D01*
X64331428Y56133573D01*
X64341411Y56099212D01*
X64342348Y56097404D01*
X64342937Y56095454D01*
X64359742Y56063848D01*
X64376201Y56032097D01*
X64377471Y56030507D01*
X64378428Y56028706D01*
X64401054Y56000963D01*
X64423365Y55973015D01*
X64426163Y55970177D01*
X64426208Y55970122D01*
X64426259Y55970080D01*
X64427162Y55969164D01*
X68365610Y52030716D01*
X68365610Y5101029D01*
X68302960Y5109932D01*
X67902960Y5109932D01*
X67857455Y5106303D01*
X67780275Y5082402D01*
X67712809Y5037945D01*
X67660399Y4976452D01*
X67627196Y4902793D01*
X67615828Y4822800D01*
X67615828Y4661505D01*
X67600902Y4680069D01*
X67487166Y4775505D01*
X67357058Y4847032D01*
X67215536Y4891926D01*
X67067989Y4908476D01*
X67057367Y4908550D01*
X66748553Y4908550D01*
X66600789Y4894062D01*
X66458654Y4851148D01*
X66327560Y4781445D01*
X66212503Y4687606D01*
X66117863Y4573206D01*
X66047246Y4442602D01*
X66003341Y4300770D01*
X65987822Y4153111D01*
X66001278Y4005250D01*
X66043198Y3862818D01*
X66111985Y3731241D01*
X66205018Y3615531D01*
X66318754Y3520095D01*
X66448862Y3448568D01*
X66590384Y3403674D01*
X66737931Y3387124D01*
X66748553Y3387050D01*
X67057367Y3387050D01*
X67205131Y3401538D01*
X67347266Y3444452D01*
X67478360Y3514155D01*
X67593417Y3607994D01*
X67615828Y3635084D01*
X67615828Y3472800D01*
X67619457Y3427295D01*
X67643358Y3350115D01*
X67687815Y3282649D01*
X67749308Y3230239D01*
X67822967Y3197036D01*
X67902960Y3185668D01*
X68302960Y3185668D01*
X68348465Y3189297D01*
X68425645Y3213198D01*
X68430303Y3216267D01*
X68472967Y3197036D01*
X68552960Y3185668D01*
X68952960Y3185668D01*
X68998465Y3189297D01*
X69075645Y3213198D01*
X69080303Y3216267D01*
X69122967Y3197036D01*
X69202960Y3185668D01*
X69602960Y3185668D01*
X69648465Y3189297D01*
X69725645Y3213198D01*
X69730303Y3216267D01*
X69772967Y3197036D01*
X69852960Y3185668D01*
X70252960Y3185668D01*
X70298465Y3189297D01*
X70375645Y3213198D01*
X70443111Y3257655D01*
X70495521Y3319148D01*
X70528724Y3392807D01*
X70540092Y3472800D01*
X70540092Y4153111D01*
X70987822Y4153111D01*
X71001278Y4005250D01*
X71043198Y3862818D01*
X71111985Y3731241D01*
X71205018Y3615531D01*
X71318754Y3520095D01*
X71448862Y3448568D01*
X71590384Y3403674D01*
X71737931Y3387124D01*
X71748553Y3387050D01*
X72057367Y3387050D01*
X72205131Y3401538D01*
X72347266Y3444452D01*
X72478360Y3514155D01*
X72593417Y3607994D01*
X72688057Y3722394D01*
X72745917Y3829405D01*
X93471859Y3829405D01*
X93521660Y3513554D01*
X93632124Y3213489D01*
X93693563Y3098544D01*
X93947259Y2995865D01*
X94875694Y3924300D01*
X95324706Y3924300D01*
X96253141Y2995865D01*
X96506837Y3098544D01*
X96640906Y3388833D01*
X96715766Y3699698D01*
X96728541Y4019195D01*
X96678740Y4335046D01*
X96568276Y4635111D01*
X96506837Y4750056D01*
X96253141Y4852735D01*
X95324706Y3924300D01*
X94875694Y3924300D01*
X93947259Y4852735D01*
X93693563Y4750056D01*
X93559494Y4459767D01*
X93484634Y4148902D01*
X93471859Y3829405D01*
X72745917Y3829405D01*
X72758674Y3852998D01*
X72802579Y3994830D01*
X72818098Y4142489D01*
X72804642Y4290350D01*
X72762722Y4432782D01*
X72693935Y4564359D01*
X72600902Y4680069D01*
X72487166Y4775505D01*
X72357058Y4847032D01*
X72215536Y4891926D01*
X72067989Y4908476D01*
X72057367Y4908550D01*
X71748553Y4908550D01*
X71600789Y4894062D01*
X71458654Y4851148D01*
X71327560Y4781445D01*
X71212503Y4687606D01*
X71117863Y4573206D01*
X71047246Y4442602D01*
X71003341Y4300770D01*
X70987822Y4153111D01*
X70540092Y4153111D01*
X70540092Y4822800D01*
X70536463Y4868305D01*
X70512562Y4945485D01*
X70468105Y5012951D01*
X70406612Y5065361D01*
X70380257Y5077241D01*
X94171765Y5077241D01*
X95100200Y4148806D01*
X96028635Y5077241D01*
X95925956Y5330937D01*
X95635667Y5465006D01*
X95324802Y5539866D01*
X95005305Y5552641D01*
X94689454Y5502840D01*
X94389389Y5392376D01*
X94274444Y5330937D01*
X94171765Y5077241D01*
X70380257Y5077241D01*
X70332953Y5098564D01*
X70252960Y5109932D01*
X69852960Y5109932D01*
X69807455Y5106303D01*
X69790310Y5100994D01*
X69790310Y52097940D01*
X69786820Y52133539D01*
X69783700Y52169194D01*
X69783132Y52171150D01*
X69782933Y52173177D01*
X69772578Y52207476D01*
X69762608Y52241790D01*
X69761673Y52243594D01*
X69761083Y52245548D01*
X69744270Y52277169D01*
X69727819Y52308906D01*
X69726548Y52310498D01*
X69725592Y52312296D01*
X69702983Y52340017D01*
X69680655Y52367987D01*
X69677857Y52370825D01*
X69677812Y52370880D01*
X69677761Y52370922D01*
X69676858Y52371838D01*
X65488410Y56560286D01*
X65488410Y60742814D01*
X89165430Y37065794D01*
X89165430Y12971720D01*
X89168920Y12936121D01*
X89172040Y12900466D01*
X89172608Y12898510D01*
X89172807Y12896483D01*
X89183148Y12862231D01*
X89193131Y12827870D01*
X89194068Y12826062D01*
X89194657Y12824112D01*
X89211462Y12792506D01*
X89227921Y12760755D01*
X89229191Y12759165D01*
X89230148Y12757364D01*
X89252774Y12729621D01*
X89275085Y12701673D01*
X89277883Y12698835D01*
X89277928Y12698780D01*
X89277979Y12698738D01*
X89278882Y12697822D01*
X97441391Y4535313D01*
X97349549Y4321030D01*
X97296309Y4070555D01*
X97292734Y3814509D01*
X97338959Y3562645D01*
X97433225Y3324556D01*
X97571941Y3109312D01*
X97749823Y2925110D01*
X97960095Y2778967D01*
X98194749Y2676449D01*
X98444846Y2621462D01*
X98700861Y2616099D01*
X98953041Y2660565D01*
X99191782Y2753167D01*
X99407990Y2890376D01*
X99593429Y3066968D01*
X99741036Y3276215D01*
X99845190Y3510147D01*
X99901922Y3759854D01*
X99906006Y4052335D01*
X99856268Y4303529D01*
X99758687Y4540279D01*
X99616980Y4753565D01*
X99436544Y4935266D01*
X99224251Y5078459D01*
X98988189Y5177690D01*
X98737348Y5229180D01*
X98481284Y5230968D01*
X98229749Y5182985D01*
X97992324Y5087059D01*
X97988040Y5084256D01*
X94984809Y8087487D01*
X109650728Y8087487D01*
X109749348Y7550148D01*
X109950460Y7042198D01*
X110246403Y6582985D01*
X110625904Y6190000D01*
X111074509Y5878211D01*
X111575131Y5659495D01*
X112108700Y5542182D01*
X112654894Y5530741D01*
X113192908Y5625607D01*
X113702249Y5823168D01*
X114163517Y6115897D01*
X114559143Y6492646D01*
X114874055Y6939064D01*
X115096261Y7438146D01*
X115217296Y7970884D01*
X115226009Y8594877D01*
X115119896Y9130786D01*
X114911713Y9635878D01*
X114609387Y10090915D01*
X114224436Y10478563D01*
X113771521Y10784058D01*
X113267895Y10995763D01*
X112732739Y11105615D01*
X112186439Y11109428D01*
X111649802Y11007059D01*
X111143268Y10802407D01*
X110686132Y10503265D01*
X110295806Y10121030D01*
X109987157Y9670259D01*
X109771941Y9168123D01*
X109658356Y8633747D01*
X109650728Y8087487D01*
X94984809Y8087487D01*
X89940130Y13132166D01*
X89940130Y16790721D01*
X93687960Y16790721D01*
X93720556Y16613119D01*
X93787028Y16445231D01*
X93884843Y16293451D01*
X94010276Y16163561D01*
X94158550Y16060508D01*
X94324016Y15988218D01*
X94500372Y15949443D01*
X94680901Y15945662D01*
X94858726Y15977017D01*
X95027074Y16042315D01*
X95179533Y16139069D01*
X95310296Y16263592D01*
X95414381Y16411143D01*
X95487825Y16576100D01*
X95527829Y16752181D01*
X95528367Y16790721D01*
X95694560Y16790721D01*
X95727156Y16613119D01*
X95793628Y16445231D01*
X95891443Y16293451D01*
X96016876Y16163561D01*
X96165150Y16060508D01*
X96330616Y15988218D01*
X96506972Y15949443D01*
X96687501Y15945662D01*
X96865326Y15977017D01*
X97033674Y16042315D01*
X97186133Y16139069D01*
X97316896Y16263592D01*
X97420981Y16411143D01*
X97494425Y16576100D01*
X97534429Y16752181D01*
X97534967Y16790721D01*
X97701160Y16790721D01*
X97733756Y16613119D01*
X97800228Y16445231D01*
X97898043Y16293451D01*
X98023476Y16163561D01*
X98171750Y16060508D01*
X98337216Y15988218D01*
X98513572Y15949443D01*
X98694101Y15945662D01*
X98871926Y15977017D01*
X99040274Y16042315D01*
X99192733Y16139069D01*
X99323496Y16263592D01*
X99427581Y16411143D01*
X99501025Y16576100D01*
X99541029Y16752181D01*
X99541567Y16790721D01*
X99707760Y16790721D01*
X99740356Y16613119D01*
X99806828Y16445231D01*
X99904643Y16293451D01*
X100030076Y16163561D01*
X100178350Y16060508D01*
X100343816Y15988218D01*
X100520172Y15949443D01*
X100700701Y15945662D01*
X100878526Y15977017D01*
X101046874Y16042315D01*
X101199333Y16139069D01*
X101330096Y16263592D01*
X101434181Y16411143D01*
X101507625Y16576100D01*
X101547629Y16752181D01*
X101550509Y16958424D01*
X101515437Y17135554D01*
X101446628Y17302497D01*
X101346703Y17452897D01*
X101219468Y17581023D01*
X101069770Y17681995D01*
X100903311Y17751968D01*
X100726430Y17788277D01*
X100545866Y17789537D01*
X100368496Y17755702D01*
X100201076Y17688060D01*
X100049983Y17589187D01*
X99920972Y17462850D01*
X99818957Y17313861D01*
X99747823Y17147894D01*
X99710281Y16971272D01*
X99707760Y16790721D01*
X99541567Y16790721D01*
X99543909Y16958424D01*
X99508837Y17135554D01*
X99440028Y17302497D01*
X99340103Y17452897D01*
X99212868Y17581023D01*
X99063170Y17681995D01*
X98896711Y17751968D01*
X98719830Y17788277D01*
X98539266Y17789537D01*
X98361896Y17755702D01*
X98194476Y17688060D01*
X98043383Y17589187D01*
X97914372Y17462850D01*
X97812357Y17313861D01*
X97741223Y17147894D01*
X97703681Y16971272D01*
X97701160Y16790721D01*
X97534967Y16790721D01*
X97537309Y16958424D01*
X97502237Y17135554D01*
X97433428Y17302497D01*
X97333503Y17452897D01*
X97206268Y17581023D01*
X97056570Y17681995D01*
X96890111Y17751968D01*
X96713230Y17788277D01*
X96532666Y17789537D01*
X96355296Y17755702D01*
X96187876Y17688060D01*
X96036783Y17589187D01*
X95907772Y17462850D01*
X95805757Y17313861D01*
X95734623Y17147894D01*
X95697081Y16971272D01*
X95694560Y16790721D01*
X95528367Y16790721D01*
X95530709Y16958424D01*
X95495637Y17135554D01*
X95426828Y17302497D01*
X95326903Y17452897D01*
X95199668Y17581023D01*
X95049970Y17681995D01*
X94883511Y17751968D01*
X94706630Y17788277D01*
X94526066Y17789537D01*
X94348696Y17755702D01*
X94181276Y17688060D01*
X94030183Y17589187D01*
X93901172Y17462850D01*
X93799157Y17313861D01*
X93728023Y17147894D01*
X93690481Y16971272D01*
X93687960Y16790721D01*
X89940130Y16790721D01*
X89940130Y37226240D01*
X89936639Y37261843D01*
X89933520Y37297493D01*
X89932952Y37299448D01*
X89932753Y37301477D01*
X89922404Y37335755D01*
X89912429Y37370089D01*
X89911492Y37371896D01*
X89910903Y37373848D01*
X89894088Y37405472D01*
X89877639Y37437205D01*
X89876369Y37438795D01*
X89875412Y37440596D01*
X89852786Y37468339D01*
X89830475Y37496287D01*
X89827677Y37499125D01*
X89827632Y37499180D01*
X89827581Y37499222D01*
X89826678Y37500138D01*
X65888410Y61438406D01*
X65888410Y61669162D01*
X68428490Y59129082D01*
X68456131Y59106378D01*
X68483548Y59083372D01*
X68485334Y59082390D01*
X68486907Y59081098D01*
X68518467Y59064175D01*
X68549795Y59046953D01*
X68551732Y59046338D01*
X68553531Y59045374D01*
X68587803Y59034896D01*
X68621853Y59024095D01*
X68623875Y59023868D01*
X68625825Y59023272D01*
X68661426Y59019656D01*
X68696980Y59015668D01*
X68700967Y59015640D01*
X68701036Y59015633D01*
X68701100Y59015639D01*
X68702388Y59015630D01*
X71787594Y59015630D01*
X92302330Y38500894D01*
X92302330Y26814780D01*
X92305820Y26779181D01*
X92308940Y26743526D01*
X92309508Y26741570D01*
X92309707Y26739543D01*
X92320048Y26705291D01*
X92330031Y26670930D01*
X92330968Y26669122D01*
X92331557Y26667172D01*
X92348362Y26635566D01*
X92364821Y26603815D01*
X92366091Y26602225D01*
X92367048Y26600424D01*
X92389674Y26572681D01*
X92411985Y26544733D01*
X92414783Y26541895D01*
X92414828Y26541840D01*
X92414879Y26541798D01*
X92415782Y26540882D01*
X101770728Y17185936D01*
X101754423Y17147894D01*
X101716881Y16971272D01*
X101714360Y16790721D01*
X101746956Y16613119D01*
X101813428Y16445231D01*
X101911243Y16293451D01*
X102036676Y16163561D01*
X102184950Y16060508D01*
X102350416Y15988218D01*
X102526772Y15949443D01*
X102707301Y15945662D01*
X102885126Y15977017D01*
X103053474Y16042315D01*
X103205933Y16139069D01*
X103336696Y16263592D01*
X103440781Y16411143D01*
X103514225Y16576100D01*
X103554229Y16752181D01*
X103554767Y16790721D01*
X103720960Y16790721D01*
X103753556Y16613119D01*
X103820028Y16445231D01*
X103917843Y16293451D01*
X104043276Y16163561D01*
X104191550Y16060508D01*
X104357016Y15988218D01*
X104533372Y15949443D01*
X104713901Y15945662D01*
X104891726Y15977017D01*
X105060074Y16042315D01*
X105212533Y16139069D01*
X105343296Y16263592D01*
X105447381Y16411143D01*
X105520825Y16576100D01*
X105560829Y16752181D01*
X105561367Y16790721D01*
X105727560Y16790721D01*
X105760156Y16613119D01*
X105826628Y16445231D01*
X105924443Y16293451D01*
X106049876Y16163561D01*
X106198150Y16060508D01*
X106363616Y15988218D01*
X106539972Y15949443D01*
X106720501Y15945662D01*
X106898326Y15977017D01*
X107066674Y16042315D01*
X107219133Y16139069D01*
X107349896Y16263592D01*
X107453981Y16411143D01*
X107527425Y16576100D01*
X107567429Y16752181D01*
X107567967Y16790721D01*
X107734160Y16790721D01*
X107766756Y16613119D01*
X107833228Y16445231D01*
X107931043Y16293451D01*
X108056476Y16163561D01*
X108204750Y16060508D01*
X108370216Y15988218D01*
X108546572Y15949443D01*
X108727101Y15945662D01*
X108904926Y15977017D01*
X109073274Y16042315D01*
X109225733Y16139069D01*
X109356496Y16263592D01*
X109460581Y16411143D01*
X109534025Y16576100D01*
X109574029Y16752181D01*
X109576909Y16958424D01*
X109541837Y17135554D01*
X109473028Y17302497D01*
X109373103Y17452897D01*
X109245868Y17581023D01*
X109096170Y17681995D01*
X108929711Y17751968D01*
X108752830Y17788277D01*
X108572266Y17789537D01*
X108394896Y17755702D01*
X108227476Y17688060D01*
X108076383Y17589187D01*
X107947372Y17462850D01*
X107845357Y17313861D01*
X107774223Y17147894D01*
X107736681Y16971272D01*
X107734160Y16790721D01*
X107567967Y16790721D01*
X107570309Y16958424D01*
X107535237Y17135554D01*
X107466428Y17302497D01*
X107366503Y17452897D01*
X107239268Y17581023D01*
X107089570Y17681995D01*
X106923111Y17751968D01*
X106746230Y17788277D01*
X106565666Y17789537D01*
X106388296Y17755702D01*
X106220876Y17688060D01*
X106069783Y17589187D01*
X105940772Y17462850D01*
X105838757Y17313861D01*
X105767623Y17147894D01*
X105730081Y16971272D01*
X105727560Y16790721D01*
X105561367Y16790721D01*
X105563709Y16958424D01*
X105528637Y17135554D01*
X105459828Y17302497D01*
X105359903Y17452897D01*
X105232668Y17581023D01*
X105082970Y17681995D01*
X104916511Y17751968D01*
X104739630Y17788277D01*
X104559066Y17789537D01*
X104381696Y17755702D01*
X104214276Y17688060D01*
X104063183Y17589187D01*
X103934172Y17462850D01*
X103832157Y17313861D01*
X103761023Y17147894D01*
X103723481Y16971272D01*
X103720960Y16790721D01*
X103554767Y16790721D01*
X103557109Y16958424D01*
X103522037Y17135554D01*
X103453228Y17302497D01*
X103353303Y17452897D01*
X103226068Y17581023D01*
X103076370Y17681995D01*
X102909911Y17751968D01*
X102733030Y17788277D01*
X102552466Y17789537D01*
X102375096Y17755702D01*
X102319155Y17733101D01*
X93077030Y26975226D01*
X93077030Y38661340D01*
X93073544Y38696893D01*
X93070421Y38732593D01*
X93069851Y38734553D01*
X93069653Y38736577D01*
X93059317Y38770813D01*
X93049329Y38805189D01*
X93048392Y38806996D01*
X93047803Y38808948D01*
X93030988Y38840572D01*
X93014539Y38872305D01*
X93013269Y38873895D01*
X93012312Y38875696D01*
X92989686Y38903439D01*
X92967375Y38931387D01*
X92964577Y38934225D01*
X92964532Y38934280D01*
X92964481Y38934322D01*
X92963578Y38935238D01*
X72221938Y59676878D01*
X72194297Y59699582D01*
X72166880Y59722588D01*
X72165094Y59723570D01*
X72163521Y59724862D01*
X72131961Y59741785D01*
X72100633Y59759007D01*
X72098696Y59759622D01*
X72096897Y59760586D01*
X72082863Y59764877D01*
X72093301Y59779674D01*
X72151549Y59910502D01*
X72157379Y59936165D01*
X93102430Y38991114D01*
X93102430Y34041080D01*
X93105920Y34005481D01*
X93109040Y33969826D01*
X93109608Y33967870D01*
X93109807Y33965843D01*
X93120148Y33931591D01*
X93130131Y33897230D01*
X93131068Y33895422D01*
X93131657Y33893472D01*
X93148462Y33861866D01*
X93164921Y33830115D01*
X93166191Y33828525D01*
X93167148Y33826724D01*
X93189774Y33798981D01*
X93212085Y33771033D01*
X93214883Y33768195D01*
X93214928Y33768140D01*
X93214979Y33768098D01*
X93215882Y33767182D01*
X109797128Y17185936D01*
X109780823Y17147894D01*
X109743281Y16971272D01*
X109740760Y16790721D01*
X109773356Y16613119D01*
X109839828Y16445231D01*
X109937643Y16293451D01*
X110063076Y16163561D01*
X110211350Y16060508D01*
X110376816Y15988218D01*
X110553172Y15949443D01*
X110733701Y15945662D01*
X110911526Y15977017D01*
X111079874Y16042315D01*
X111232333Y16139069D01*
X111363096Y16263592D01*
X111467181Y16411143D01*
X111540625Y16576100D01*
X111580629Y16752181D01*
X111581167Y16790721D01*
X111747360Y16790721D01*
X111779956Y16613119D01*
X111846428Y16445231D01*
X111944243Y16293451D01*
X112069676Y16163561D01*
X112217950Y16060508D01*
X112383416Y15988218D01*
X112559772Y15949443D01*
X112740301Y15945662D01*
X112918126Y15977017D01*
X113086474Y16042315D01*
X113238933Y16139069D01*
X113369696Y16263592D01*
X113473781Y16411143D01*
X113547225Y16576100D01*
X113587229Y16752181D01*
X113590109Y16958424D01*
X113555037Y17135554D01*
X113486228Y17302497D01*
X113386303Y17452897D01*
X113259068Y17581023D01*
X113109370Y17681995D01*
X112942911Y17751968D01*
X112766030Y17788277D01*
X112585466Y17789537D01*
X112408096Y17755702D01*
X112240676Y17688060D01*
X112089583Y17589187D01*
X111960572Y17462850D01*
X111858557Y17313861D01*
X111787423Y17147894D01*
X111749881Y16971272D01*
X111747360Y16790721D01*
X111581167Y16790721D01*
X111583509Y16958424D01*
X111548437Y17135554D01*
X111479628Y17302497D01*
X111379703Y17452897D01*
X111252468Y17581023D01*
X111102770Y17681995D01*
X110936311Y17751968D01*
X110759430Y17788277D01*
X110578866Y17789537D01*
X110401496Y17755702D01*
X110345555Y17733101D01*
X93877130Y34201526D01*
X93877130Y37907241D01*
X93957195Y37987306D01*
X94012982Y37772843D01*
X94237431Y37677364D01*
X94476195Y37627506D01*
X94720097Y37625187D01*
X94959766Y37670495D01*
X95185990Y37761690D01*
X95206858Y37772843D01*
X95262646Y37987308D01*
X94609920Y38640034D01*
X94595778Y38625891D01*
X94371272Y38850397D01*
X94385414Y38864540D01*
X94834426Y38864540D01*
X95487152Y38211814D01*
X95701617Y38267602D01*
X95784960Y38463523D01*
X95793628Y38441631D01*
X95891443Y38289851D01*
X96016876Y38159961D01*
X96165150Y38056908D01*
X96330616Y37984618D01*
X96506972Y37945843D01*
X96687501Y37942062D01*
X96865326Y37973417D01*
X97033674Y38038715D01*
X97186133Y38135469D01*
X97316896Y38259992D01*
X97420981Y38407543D01*
X97494425Y38572500D01*
X97534429Y38748581D01*
X97534967Y38787121D01*
X97701160Y38787121D01*
X97733756Y38609519D01*
X97800228Y38441631D01*
X97898043Y38289851D01*
X98023476Y38159961D01*
X98171750Y38056908D01*
X98337216Y37984618D01*
X98513572Y37945843D01*
X98694101Y37942062D01*
X98871926Y37973417D01*
X99040274Y38038715D01*
X99192733Y38135469D01*
X99323496Y38259992D01*
X99427581Y38407543D01*
X99501025Y38572500D01*
X99541029Y38748581D01*
X99541567Y38787121D01*
X99707760Y38787121D01*
X99740356Y38609519D01*
X99806828Y38441631D01*
X99904643Y38289851D01*
X100030076Y38159961D01*
X100178350Y38056908D01*
X100343816Y37984618D01*
X100520172Y37945843D01*
X100700701Y37942062D01*
X100878526Y37973417D01*
X101046874Y38038715D01*
X101199333Y38135469D01*
X101330096Y38259992D01*
X101434181Y38407543D01*
X101507625Y38572500D01*
X101547629Y38748581D01*
X101548167Y38787121D01*
X101714360Y38787121D01*
X101746956Y38609519D01*
X101813428Y38441631D01*
X101911243Y38289851D01*
X102036676Y38159961D01*
X102184950Y38056908D01*
X102350416Y37984618D01*
X102526772Y37945843D01*
X102707301Y37942062D01*
X102885126Y37973417D01*
X103053474Y38038715D01*
X103205933Y38135469D01*
X103336696Y38259992D01*
X103440781Y38407543D01*
X103514225Y38572500D01*
X103554229Y38748581D01*
X103554767Y38787121D01*
X103720960Y38787121D01*
X103753556Y38609519D01*
X103820028Y38441631D01*
X103917843Y38289851D01*
X104043276Y38159961D01*
X104191550Y38056908D01*
X104357016Y37984618D01*
X104533372Y37945843D01*
X104713901Y37942062D01*
X104891726Y37973417D01*
X105060074Y38038715D01*
X105212533Y38135469D01*
X105343296Y38259992D01*
X105447381Y38407543D01*
X105520825Y38572500D01*
X105560829Y38748581D01*
X105561367Y38787121D01*
X105727560Y38787121D01*
X105760156Y38609519D01*
X105826628Y38441631D01*
X105924443Y38289851D01*
X106049876Y38159961D01*
X106198150Y38056908D01*
X106363616Y37984618D01*
X106539972Y37945843D01*
X106720501Y37942062D01*
X106898326Y37973417D01*
X107066674Y38038715D01*
X107219133Y38135469D01*
X107349896Y38259992D01*
X107453981Y38407543D01*
X107527425Y38572500D01*
X107567429Y38748581D01*
X107570309Y38954824D01*
X107535237Y39131954D01*
X107466428Y39298897D01*
X107366503Y39449297D01*
X107239268Y39577423D01*
X107089570Y39678395D01*
X106923111Y39748368D01*
X106746230Y39784677D01*
X106565666Y39785937D01*
X106388296Y39752102D01*
X106220876Y39684460D01*
X106069783Y39585587D01*
X105940772Y39459250D01*
X105838757Y39310261D01*
X105767623Y39144294D01*
X105730081Y38967672D01*
X105727560Y38787121D01*
X105561367Y38787121D01*
X105563709Y38954824D01*
X105528637Y39131954D01*
X105459828Y39298897D01*
X105359903Y39449297D01*
X105232668Y39577423D01*
X105082970Y39678395D01*
X104916511Y39748368D01*
X104739630Y39784677D01*
X104559066Y39785937D01*
X104381696Y39752102D01*
X104214276Y39684460D01*
X104063183Y39585587D01*
X103934172Y39459250D01*
X103832157Y39310261D01*
X103761023Y39144294D01*
X103723481Y38967672D01*
X103720960Y38787121D01*
X103554767Y38787121D01*
X103557109Y38954824D01*
X103522037Y39131954D01*
X103453228Y39298897D01*
X103353303Y39449297D01*
X103226068Y39577423D01*
X103076370Y39678395D01*
X102909911Y39748368D01*
X102733030Y39784677D01*
X102552466Y39785937D01*
X102375096Y39752102D01*
X102207676Y39684460D01*
X102056583Y39585587D01*
X101927572Y39459250D01*
X101825557Y39310261D01*
X101754423Y39144294D01*
X101716881Y38967672D01*
X101714360Y38787121D01*
X101548167Y38787121D01*
X101550509Y38954824D01*
X101515437Y39131954D01*
X101446628Y39298897D01*
X101346703Y39449297D01*
X101219468Y39577423D01*
X101069770Y39678395D01*
X100903311Y39748368D01*
X100726430Y39784677D01*
X100545866Y39785937D01*
X100368496Y39752102D01*
X100201076Y39684460D01*
X100049983Y39585587D01*
X99920972Y39459250D01*
X99818957Y39310261D01*
X99747823Y39144294D01*
X99710281Y38967672D01*
X99707760Y38787121D01*
X99541567Y38787121D01*
X99543909Y38954824D01*
X99508837Y39131954D01*
X99440028Y39298897D01*
X99340103Y39449297D01*
X99212868Y39577423D01*
X99063170Y39678395D01*
X98896711Y39748368D01*
X98719830Y39784677D01*
X98539266Y39785937D01*
X98361896Y39752102D01*
X98194476Y39684460D01*
X98043383Y39585587D01*
X97914372Y39459250D01*
X97812357Y39310261D01*
X97741223Y39144294D01*
X97703681Y38967672D01*
X97701160Y38787121D01*
X97534967Y38787121D01*
X97537309Y38954824D01*
X97502237Y39131954D01*
X97433428Y39298897D01*
X97333503Y39449297D01*
X97206268Y39577423D01*
X97056570Y39678395D01*
X96890111Y39748368D01*
X96713230Y39784677D01*
X96532666Y39785937D01*
X96355296Y39752102D01*
X96187876Y39684460D01*
X96036783Y39585587D01*
X95907772Y39459250D01*
X95805757Y39310261D01*
X95784917Y39261638D01*
X95712770Y39440610D01*
X95701617Y39461478D01*
X95487152Y39517266D01*
X94834426Y38864540D01*
X94385414Y38864540D01*
X93732688Y39517266D01*
X93684425Y39504711D01*
X93447364Y39741772D01*
X93957194Y39741772D01*
X94609920Y39089046D01*
X95262646Y39741772D01*
X95206858Y39956237D01*
X94982409Y40051716D01*
X94743645Y40101574D01*
X94499743Y40103893D01*
X94260074Y40058585D01*
X94033850Y39967390D01*
X94012982Y39956237D01*
X93957194Y39741772D01*
X93447364Y39741772D01*
X72301530Y60887606D01*
X75760158Y60887606D01*
X96342622Y40305142D01*
X96370263Y40282438D01*
X96397680Y40259432D01*
X96399466Y40258450D01*
X96401039Y40257158D01*
X96432599Y40240235D01*
X96463927Y40223013D01*
X96465864Y40222398D01*
X96467663Y40221434D01*
X96501935Y40210956D01*
X96535985Y40200155D01*
X96538007Y40199928D01*
X96539957Y40199332D01*
X96575558Y40195716D01*
X96611112Y40191728D01*
X96615099Y40191700D01*
X96615168Y40191693D01*
X96615232Y40191699D01*
X96616520Y40191690D01*
X106781174Y40191690D01*
X107790528Y39182336D01*
X107774223Y39144294D01*
X107736681Y38967672D01*
X107734160Y38787121D01*
X107766756Y38609519D01*
X107833228Y38441631D01*
X107931043Y38289851D01*
X108056476Y38159961D01*
X108204750Y38056908D01*
X108370216Y37984618D01*
X108546572Y37945843D01*
X108727101Y37942062D01*
X108904926Y37973417D01*
X109073274Y38038715D01*
X109225733Y38135469D01*
X109356496Y38259992D01*
X109460581Y38407543D01*
X109534025Y38572500D01*
X109574029Y38748581D01*
X109576909Y38954824D01*
X109541837Y39131954D01*
X109473028Y39298897D01*
X109373103Y39449297D01*
X109245868Y39577423D01*
X109096170Y39678395D01*
X108929711Y39748368D01*
X108752830Y39784677D01*
X108572266Y39785937D01*
X108394896Y39752102D01*
X108338955Y39729501D01*
X107215518Y40852938D01*
X107187877Y40875642D01*
X107160460Y40898648D01*
X107158674Y40899630D01*
X107157101Y40900922D01*
X107125541Y40917845D01*
X107094213Y40935067D01*
X107092276Y40935682D01*
X107090477Y40936646D01*
X107056205Y40947124D01*
X107022155Y40957925D01*
X107020133Y40958152D01*
X107018183Y40958748D01*
X106982582Y40962364D01*
X106947028Y40966352D01*
X106943041Y40966380D01*
X106942972Y40966387D01*
X106942908Y40966381D01*
X106941620Y40966390D01*
X96776966Y40966390D01*
X76462048Y61281308D01*
X87698156Y61281308D01*
X109797128Y39182336D01*
X109780823Y39144294D01*
X109743281Y38967672D01*
X109740760Y38787121D01*
X109773356Y38609519D01*
X109839828Y38441631D01*
X109937643Y38289851D01*
X110063076Y38159961D01*
X110211350Y38056908D01*
X110376816Y37984618D01*
X110553172Y37945843D01*
X110733701Y37942062D01*
X110911526Y37973417D01*
X111079874Y38038715D01*
X111232333Y38135469D01*
X111363096Y38259992D01*
X111467181Y38407543D01*
X111540625Y38572500D01*
X111580629Y38748581D01*
X111581167Y38787121D01*
X111747360Y38787121D01*
X111779956Y38609519D01*
X111846428Y38441631D01*
X111944243Y38289851D01*
X112069676Y38159961D01*
X112217950Y38056908D01*
X112383416Y37984618D01*
X112559772Y37945843D01*
X112740301Y37942062D01*
X112918126Y37973417D01*
X113086474Y38038715D01*
X113238933Y38135469D01*
X113369696Y38259992D01*
X113473781Y38407543D01*
X113547225Y38572500D01*
X113587229Y38748581D01*
X113590109Y38954824D01*
X113555037Y39131954D01*
X113486228Y39298897D01*
X113386303Y39449297D01*
X113259068Y39577423D01*
X113109370Y39678395D01*
X112942911Y39748368D01*
X112766030Y39784677D01*
X112585466Y39785937D01*
X112408096Y39752102D01*
X112240676Y39684460D01*
X112089583Y39585587D01*
X111960572Y39459250D01*
X111858557Y39310261D01*
X111787423Y39144294D01*
X111749881Y38967672D01*
X111747360Y38787121D01*
X111581167Y38787121D01*
X111583509Y38954824D01*
X111548437Y39131954D01*
X111479628Y39298897D01*
X111379703Y39449297D01*
X111252468Y39577423D01*
X111102770Y39678395D01*
X110936311Y39748368D01*
X110759430Y39784677D01*
X110578866Y39785937D01*
X110401496Y39752102D01*
X110345555Y39729501D01*
X88400046Y61675010D01*
X90869434Y61675010D01*
X106732148Y45812296D01*
X106732148Y45522960D01*
X106735777Y45477455D01*
X106759678Y45400275D01*
X106804135Y45332809D01*
X106865628Y45280399D01*
X106882067Y45272989D01*
X106829129Y45238105D01*
X106776719Y45176612D01*
X106743516Y45102953D01*
X106732148Y45022960D01*
X106732148Y44422960D01*
X106735777Y44377455D01*
X106759678Y44300275D01*
X106804135Y44232809D01*
X106865628Y44180399D01*
X106939287Y44147196D01*
X107019280Y44135828D01*
X107519280Y44135828D01*
X107564785Y44139457D01*
X107641965Y44163358D01*
X107709431Y44207815D01*
X107742223Y44246290D01*
X107838961Y44246290D01*
X107840497Y44227035D01*
X107864398Y44149855D01*
X107908855Y44082389D01*
X107970348Y44029979D01*
X108044007Y43996776D01*
X108124000Y43985408D01*
X108924000Y43985408D01*
X108969505Y43989037D01*
X109046685Y44012938D01*
X109114151Y44057395D01*
X109166561Y44118888D01*
X109199764Y44192547D01*
X109211132Y44272540D01*
X109211132Y45172540D01*
X109207503Y45218045D01*
X109183602Y45295225D01*
X109139145Y45362691D01*
X109077652Y45415101D01*
X109003993Y45448304D01*
X108924000Y45459672D01*
X108124000Y45459672D01*
X108078495Y45456043D01*
X108001315Y45432142D01*
X107933849Y45387685D01*
X107881439Y45326192D01*
X107848236Y45252533D01*
X107840598Y45198790D01*
X107743862Y45198790D01*
X107734425Y45213111D01*
X107672932Y45265521D01*
X107656493Y45272931D01*
X107709431Y45307815D01*
X107761841Y45369308D01*
X107795044Y45442967D01*
X107806412Y45522960D01*
X107806412Y46122960D01*
X107802783Y46168465D01*
X107778882Y46245645D01*
X107734425Y46313111D01*
X107672932Y46365521D01*
X107599273Y46398724D01*
X107519280Y46410092D01*
X107229944Y46410092D01*
X91303778Y62336258D01*
X91276137Y62358962D01*
X91248720Y62381968D01*
X91246934Y62382950D01*
X91245361Y62384242D01*
X91213801Y62401165D01*
X91182473Y62418387D01*
X91180536Y62419002D01*
X91178737Y62419966D01*
X91144465Y62430444D01*
X91110415Y62441245D01*
X91108393Y62441472D01*
X91106443Y62442068D01*
X91070842Y62445684D01*
X91035288Y62449672D01*
X91031301Y62449700D01*
X91031232Y62449707D01*
X91031168Y62449701D01*
X91029880Y62449710D01*
X74757425Y62449710D01*
X74810929Y62569882D01*
X74842657Y62709533D01*
X74843459Y62766977D01*
X77654936Y65578454D01*
X77765286Y65621256D01*
X77886202Y65697991D01*
X77989910Y65796751D01*
X78072461Y65913774D01*
X78130709Y66044602D01*
X78162437Y66184253D01*
X78164721Y66347825D01*
X78136905Y66488307D01*
X78082332Y66620710D01*
X78077482Y66628010D01*
X95066054Y66628010D01*
X111296563Y50397501D01*
X111208645Y50192373D01*
X111156221Y49945735D01*
X111152700Y49693611D01*
X111198218Y49445605D01*
X111291040Y49211163D01*
X111427631Y48999215D01*
X111602788Y48817835D01*
X111809839Y48673930D01*
X112040899Y48572983D01*
X112231903Y48530988D01*
X112075363Y48501126D01*
X111841575Y48406669D01*
X111630586Y48268602D01*
X111450433Y48092183D01*
X111307977Y47884132D01*
X111208645Y47652373D01*
X111156221Y47405735D01*
X111152700Y47153611D01*
X111198218Y46905605D01*
X111291040Y46671163D01*
X111427631Y46459215D01*
X111602788Y46277835D01*
X111809839Y46133930D01*
X112040899Y46032983D01*
X112231903Y45990988D01*
X112075363Y45961126D01*
X111841575Y45866669D01*
X111630586Y45728602D01*
X111450433Y45552183D01*
X111338897Y45389290D01*
X111007936Y45389290D01*
X110977652Y45415101D01*
X110903993Y45448304D01*
X110824000Y45459672D01*
X110024000Y45459672D01*
X109978495Y45456043D01*
X109901315Y45432142D01*
X109833849Y45387685D01*
X109781439Y45326192D01*
X109748236Y45252533D01*
X109736868Y45172540D01*
X109736868Y44272540D01*
X109740497Y44227035D01*
X109764398Y44149855D01*
X109808855Y44082389D01*
X109870348Y44029979D01*
X109944007Y43996776D01*
X110024000Y43985408D01*
X110824000Y43985408D01*
X110869505Y43989037D01*
X110946685Y44012938D01*
X111011715Y44055790D01*
X111339615Y44055790D01*
X111427631Y43919215D01*
X111602788Y43737835D01*
X111809839Y43593930D01*
X112040899Y43492983D01*
X112287166Y43438837D01*
X112539259Y43433557D01*
X112787577Y43477342D01*
X113022661Y43568525D01*
X113235557Y43703633D01*
X113418156Y43877520D01*
X113563502Y44083561D01*
X113666060Y44313911D01*
X113721923Y44559793D01*
X113725945Y44847794D01*
X113676969Y45095141D01*
X113580883Y45328264D01*
X113441346Y45538284D01*
X113263673Y45717201D01*
X113054633Y45858200D01*
X112822186Y45955912D01*
X112645212Y45992239D01*
X112787577Y46017342D01*
X113022661Y46108525D01*
X113235557Y46243633D01*
X113418156Y46417520D01*
X113563502Y46623561D01*
X113607316Y46721970D01*
X114108080Y46721970D01*
X114135394Y46724648D01*
X114408140Y46724648D01*
X114453645Y46728277D01*
X114530825Y46752178D01*
X114598291Y46796635D01*
X114650701Y46858128D01*
X114658111Y46874567D01*
X114692995Y46821629D01*
X114754488Y46769219D01*
X114828147Y46736016D01*
X114908140Y46724648D01*
X115168396Y46724648D01*
X115201784Y46720903D01*
X115207328Y46720864D01*
X115207436Y46720853D01*
X115207537Y46720863D01*
X115209320Y46720850D01*
X115706839Y46720850D01*
X115707368Y46720399D01*
X115780492Y46687437D01*
X115848359Y46650127D01*
X115972395Y46610780D01*
X116101711Y46596275D01*
X116111020Y46596210D01*
X116752280Y46596210D01*
X116813567Y46602219D01*
X116874929Y46607588D01*
X116878294Y46608566D01*
X116881786Y46608908D01*
X116940774Y46626718D01*
X116999889Y46643892D01*
X117003001Y46645505D01*
X117006359Y46646519D01*
X117060730Y46675429D01*
X117115418Y46703776D01*
X117118160Y46705965D01*
X117121254Y46707610D01*
X117168966Y46746523D01*
X117217115Y46784960D01*
X117221992Y46789770D01*
X117222095Y46789854D01*
X117222174Y46789950D01*
X117223743Y46791497D01*
X117987103Y47554857D01*
X118026165Y47602411D01*
X118065784Y47649628D01*
X118067473Y47652700D01*
X118069699Y47655410D01*
X118098829Y47709737D01*
X118128473Y47763659D01*
X118129532Y47766997D01*
X118131191Y47770091D01*
X118149213Y47829040D01*
X118167820Y47887695D01*
X118168211Y47891178D01*
X118169236Y47894532D01*
X118175461Y47955815D01*
X118182325Y48017011D01*
X118182373Y48023864D01*
X118182386Y48023993D01*
X118182375Y48024114D01*
X118182390Y48026320D01*
X118182390Y74022673D01*
X118254366Y73950697D01*
X118366800Y74063131D01*
X118467054Y73811481D01*
X118753927Y73679414D01*
X119061052Y73605850D01*
X119376628Y73593618D01*
X119688526Y73643186D01*
X119984760Y73752650D01*
X120094826Y73811481D01*
X120195080Y74063131D01*
X120307514Y73950697D01*
G36*
X115903588Y76757895D02*
X116110639Y76613990D01*
X116341699Y76513043D01*
X116587966Y76458897D01*
X116840059Y76453617D01*
X117088377Y76497402D01*
X117092819Y76499125D01*
X117044177Y76450483D01*
X117005115Y76402929D01*
X116965496Y76355712D01*
X116963807Y76352640D01*
X116961581Y76349930D01*
X116932451Y76295603D01*
X116902807Y76241681D01*
X116901748Y76238343D01*
X116900089Y76235249D01*
X116882067Y76176300D01*
X116863460Y76117645D01*
X116863069Y76114162D01*
X116862044Y76110808D01*
X116855819Y76049525D01*
X116848955Y75988329D01*
X116848907Y75981476D01*
X116848894Y75981347D01*
X116848905Y75981226D01*
X116848890Y75979020D01*
X116848890Y48302496D01*
X116476104Y47929710D01*
X116111020Y47929710D01*
X115981514Y47917012D01*
X115856941Y47879401D01*
X115766372Y47831245D01*
X115738335Y47822562D01*
X115704627Y47800350D01*
X115221611Y47800350D01*
X115210024Y47801527D01*
X115182362Y47798912D01*
X115011643Y47798912D01*
X115029633Y47810329D01*
X115160396Y47934852D01*
X115264481Y48082403D01*
X115337925Y48247360D01*
X115377929Y48423441D01*
X115379221Y48515959D01*
X115380720Y48529758D01*
X115379593Y48542634D01*
X115380809Y48629684D01*
X115378230Y48642709D01*
X115378230Y76131878D01*
X115380720Y76154798D01*
X115377372Y76193058D01*
X115378269Y76257264D01*
X115366597Y76316214D01*
X115365057Y76333813D01*
X115358950Y76354833D01*
X115343197Y76434394D01*
X115318255Y76494907D01*
X115314923Y76506377D01*
X115308111Y76519518D01*
X115274388Y76601337D01*
X115234866Y76660822D01*
X115232226Y76665916D01*
X115227791Y76671472D01*
X115174463Y76751737D01*
X115105711Y76820970D01*
X115842677Y76820970D01*
X115903588Y76757895D01*
X115903588Y76757895D01*
G37*
X115903588Y76757895D02*
X116110639Y76613990D01*
X116341699Y76513043D01*
X116587966Y76458897D01*
X116840059Y76453617D01*
X117088377Y76497402D01*
X117092819Y76499125D01*
X117044177Y76450483D01*
X117005115Y76402929D01*
X116965496Y76355712D01*
X116963807Y76352640D01*
X116961581Y76349930D01*
X116932451Y76295603D01*
X116902807Y76241681D01*
X116901748Y76238343D01*
X116900089Y76235249D01*
X116882067Y76176300D01*
X116863460Y76117645D01*
X116863069Y76114162D01*
X116862044Y76110808D01*
X116855819Y76049525D01*
X116848955Y75988329D01*
X116848907Y75981476D01*
X116848894Y75981347D01*
X116848905Y75981226D01*
X116848890Y75979020D01*
X116848890Y48302496D01*
X116476104Y47929710D01*
X116111020Y47929710D01*
X115981514Y47917012D01*
X115856941Y47879401D01*
X115766372Y47831245D01*
X115738335Y47822562D01*
X115704627Y47800350D01*
X115221611Y47800350D01*
X115210024Y47801527D01*
X115182362Y47798912D01*
X115011643Y47798912D01*
X115029633Y47810329D01*
X115160396Y47934852D01*
X115264481Y48082403D01*
X115337925Y48247360D01*
X115377929Y48423441D01*
X115379221Y48515959D01*
X115380720Y48529758D01*
X115379593Y48542634D01*
X115380809Y48629684D01*
X115378230Y48642709D01*
X115378230Y76131878D01*
X115380720Y76154798D01*
X115377372Y76193058D01*
X115378269Y76257264D01*
X115366597Y76316214D01*
X115365057Y76333813D01*
X115358950Y76354833D01*
X115343197Y76434394D01*
X115318255Y76494907D01*
X115314923Y76506377D01*
X115308111Y76519518D01*
X115274388Y76601337D01*
X115234866Y76660822D01*
X115232226Y76665916D01*
X115227791Y76671472D01*
X115174463Y76751737D01*
X115105711Y76820970D01*
X115842677Y76820970D01*
X115903588Y76757895D01*
G36*
X67117736Y72716520D02*
X67113748Y72680966D01*
X67113720Y72676979D01*
X67113713Y72676910D01*
X67113719Y72676846D01*
X67113710Y72675558D01*
X67113710Y71252340D01*
X67113928Y71250117D01*
X67113928Y70852340D01*
X67117557Y70806835D01*
X67141458Y70729655D01*
X67185915Y70662189D01*
X67247408Y70609779D01*
X67321067Y70576576D01*
X67401060Y70565208D01*
X67601060Y70565208D01*
X67646565Y70568837D01*
X67700904Y70585665D01*
X67721067Y70576576D01*
X67801060Y70565208D01*
X68001060Y70565208D01*
X68046565Y70568837D01*
X68100904Y70585665D01*
X68121067Y70576576D01*
X68201060Y70565208D01*
X68401060Y70565208D01*
X68446565Y70568837D01*
X68500904Y70585665D01*
X68521067Y70576576D01*
X68601060Y70565208D01*
X68801060Y70565208D01*
X68846565Y70568837D01*
X68900904Y70585665D01*
X68921067Y70576576D01*
X69001060Y70565208D01*
X69201060Y70565208D01*
X69215925Y70566393D01*
X69213928Y70552340D01*
X69213928Y70352340D01*
X69217557Y70306835D01*
X69234385Y70252496D01*
X69225296Y70232333D01*
X69213928Y70152340D01*
X69213928Y69952340D01*
X69217557Y69906835D01*
X69234385Y69852496D01*
X69225296Y69832333D01*
X69213928Y69752340D01*
X69213928Y69552340D01*
X69217557Y69506835D01*
X69234385Y69452496D01*
X69225296Y69432333D01*
X69213928Y69352340D01*
X69213928Y69152340D01*
X69217557Y69106835D01*
X69241458Y69029655D01*
X69285915Y68962189D01*
X69347408Y68909779D01*
X69421067Y68876576D01*
X69501060Y68865208D01*
X70301060Y68865208D01*
X70346565Y68868837D01*
X70423745Y68892738D01*
X70491211Y68937195D01*
X70543621Y68998688D01*
X70576824Y69072347D01*
X70588192Y69152340D01*
X70588192Y69352340D01*
X70584563Y69397845D01*
X70567735Y69452184D01*
X70576824Y69472347D01*
X70588192Y69552340D01*
X70588192Y69752340D01*
X70584563Y69797845D01*
X70567735Y69852184D01*
X70576824Y69872347D01*
X70588192Y69952340D01*
X70588192Y70152340D01*
X70584563Y70197845D01*
X70567735Y70252184D01*
X70576824Y70272347D01*
X70588192Y70352340D01*
X70588192Y70471288D01*
X96302776Y70471288D01*
X111296563Y55477501D01*
X111208645Y55272373D01*
X111156221Y55025735D01*
X111152700Y54773611D01*
X111198218Y54525605D01*
X111291040Y54291163D01*
X111427631Y54079215D01*
X111602788Y53897835D01*
X111809839Y53753930D01*
X112040899Y53652983D01*
X112231903Y53610988D01*
X112075363Y53581126D01*
X111842581Y53487075D01*
X97646696Y67682960D01*
X97619055Y67705664D01*
X97591638Y67728670D01*
X97589852Y67729652D01*
X97588279Y67730944D01*
X97556719Y67747867D01*
X97525391Y67765089D01*
X97523454Y67765704D01*
X97521655Y67766668D01*
X97487383Y67777146D01*
X97453333Y67787947D01*
X97451311Y67788174D01*
X97449361Y67788770D01*
X97413760Y67792386D01*
X97378206Y67796374D01*
X97374219Y67796402D01*
X97374150Y67796409D01*
X97374086Y67796403D01*
X97372798Y67796412D01*
X74912222Y67796412D01*
X74876619Y67792921D01*
X74840969Y67789802D01*
X74839014Y67789234D01*
X74836985Y67789035D01*
X74802707Y67778686D01*
X74768373Y67768711D01*
X74766566Y67767774D01*
X74764614Y67767185D01*
X74732990Y67750370D01*
X74701257Y67733921D01*
X74699667Y67732651D01*
X74697866Y67731694D01*
X74670123Y67709068D01*
X74642175Y67686757D01*
X74639337Y67683959D01*
X74639282Y67683914D01*
X74639240Y67683863D01*
X74638324Y67682960D01*
X73286240Y66330876D01*
X73301421Y66348688D01*
X73334624Y66422347D01*
X73345992Y66502340D01*
X73345992Y67502340D01*
X73342363Y67547845D01*
X73318462Y67625025D01*
X73274005Y67692491D01*
X73212512Y67744901D01*
X73138853Y67778104D01*
X73058860Y67789472D01*
X71919524Y67789472D01*
X71456656Y68252340D01*
X71919524Y68715208D01*
X73058860Y68715208D01*
X73104365Y68718837D01*
X73181545Y68742738D01*
X73249011Y68787195D01*
X73301421Y68848688D01*
X73334624Y68922347D01*
X73345992Y69002340D01*
X73345992Y70002340D01*
X73342363Y70047845D01*
X73318462Y70125025D01*
X73274005Y70192491D01*
X73212512Y70244901D01*
X73138853Y70278104D01*
X73058860Y70289472D01*
X71258860Y70289472D01*
X71213355Y70285843D01*
X71136175Y70261942D01*
X71068709Y70217485D01*
X71016299Y70155992D01*
X70983096Y70082333D01*
X70971728Y70002340D01*
X70971728Y69002340D01*
X70975357Y68956835D01*
X70996686Y68887962D01*
X70948414Y68839690D01*
X69901060Y68839690D01*
X69898837Y68839472D01*
X69501060Y68839472D01*
X69455555Y68835843D01*
X69378375Y68811942D01*
X69310909Y68767485D01*
X69258499Y68705992D01*
X69225296Y68632333D01*
X69213928Y68552340D01*
X69213928Y68352340D01*
X69217557Y68306835D01*
X69234385Y68252496D01*
X69225296Y68232333D01*
X69213928Y68152340D01*
X69213928Y67952340D01*
X69217557Y67906835D01*
X69234385Y67852496D01*
X69225296Y67832333D01*
X69213928Y67752340D01*
X69213928Y67552340D01*
X69217557Y67506835D01*
X69241458Y67429655D01*
X69285915Y67362189D01*
X69347408Y67309779D01*
X69421067Y67276576D01*
X69501060Y67265208D01*
X69894047Y67265208D01*
X69895652Y67265028D01*
X69901060Y67264990D01*
X70237469Y67264990D01*
X70241374Y67255127D01*
X70298714Y67166153D01*
X70372244Y67090011D01*
X70459163Y67029600D01*
X70556161Y66987223D01*
X70559202Y66986554D01*
X70481729Y66971775D01*
X70383586Y66932123D01*
X70295014Y66874163D01*
X70259811Y66839690D01*
X69901060Y66839690D01*
X69898837Y66839472D01*
X69501060Y66839472D01*
X69455555Y66835843D01*
X69378375Y66811942D01*
X69310909Y66767485D01*
X69258499Y66705992D01*
X69225296Y66632333D01*
X69213928Y66552340D01*
X69213928Y66352340D01*
X69217557Y66306835D01*
X69234385Y66252496D01*
X69225296Y66232333D01*
X69213928Y66152340D01*
X69213928Y65952340D01*
X69215113Y65937475D01*
X69201060Y65939472D01*
X69001060Y65939472D01*
X68955555Y65935843D01*
X68901216Y65919015D01*
X68881053Y65928104D01*
X68801060Y65939472D01*
X68601060Y65939472D01*
X68555555Y65935843D01*
X68501216Y65919015D01*
X68481053Y65928104D01*
X68401060Y65939472D01*
X68201060Y65939472D01*
X68155555Y65935843D01*
X68101216Y65919015D01*
X68081053Y65928104D01*
X68001060Y65939472D01*
X67801060Y65939472D01*
X67755555Y65935843D01*
X67701216Y65919015D01*
X67681053Y65928104D01*
X67601060Y65939472D01*
X67401060Y65939472D01*
X67355555Y65935843D01*
X67301216Y65919015D01*
X67281053Y65928104D01*
X67201060Y65939472D01*
X67001060Y65939472D01*
X66955555Y65935843D01*
X66901216Y65919015D01*
X66881053Y65928104D01*
X66801060Y65939472D01*
X66601060Y65939472D01*
X66555555Y65935843D01*
X66501216Y65919015D01*
X66481053Y65928104D01*
X66401060Y65939472D01*
X66201060Y65939472D01*
X66155555Y65935843D01*
X66101216Y65919015D01*
X66081053Y65928104D01*
X66001060Y65939472D01*
X65801060Y65939472D01*
X65755555Y65935843D01*
X65701216Y65919015D01*
X65681053Y65928104D01*
X65601060Y65939472D01*
X65401060Y65939472D01*
X65355555Y65935843D01*
X65301216Y65919015D01*
X65281053Y65928104D01*
X65201060Y65939472D01*
X65001060Y65939472D01*
X64955555Y65935843D01*
X64901216Y65919015D01*
X64881053Y65928104D01*
X64801060Y65939472D01*
X64601060Y65939472D01*
X64586195Y65938287D01*
X64588192Y65952340D01*
X64588192Y66152340D01*
X64584563Y66197845D01*
X64567735Y66252184D01*
X64576824Y66272347D01*
X64588192Y66352340D01*
X64588192Y66552340D01*
X64584563Y66597845D01*
X64567735Y66652184D01*
X64576824Y66672347D01*
X64588192Y66752340D01*
X64588192Y66952340D01*
X64584563Y66997845D01*
X64567735Y67052184D01*
X64576824Y67072347D01*
X64588192Y67152340D01*
X64588192Y67352340D01*
X64584563Y67397845D01*
X64567735Y67452184D01*
X64576824Y67472347D01*
X64588192Y67552340D01*
X64588192Y67752340D01*
X64584563Y67797845D01*
X64567735Y67852184D01*
X64576824Y67872347D01*
X64588192Y67952340D01*
X64588192Y68152340D01*
X64584563Y68197845D01*
X64567735Y68252184D01*
X64576824Y68272347D01*
X64588192Y68352340D01*
X64588192Y68552340D01*
X64584563Y68597845D01*
X64567735Y68652184D01*
X64576824Y68672347D01*
X64588192Y68752340D01*
X64588192Y68952340D01*
X64584563Y68997845D01*
X64567735Y69052184D01*
X64576824Y69072347D01*
X64588192Y69152340D01*
X64588192Y69352340D01*
X64584563Y69397845D01*
X64567735Y69452184D01*
X64576824Y69472347D01*
X64588192Y69552340D01*
X64588192Y69752340D01*
X64584563Y69797845D01*
X64567735Y69852184D01*
X64576824Y69872347D01*
X64588192Y69952340D01*
X64588192Y70152340D01*
X64584563Y70197845D01*
X64567735Y70252184D01*
X64576824Y70272347D01*
X64588192Y70352340D01*
X64588192Y70552340D01*
X64587007Y70567205D01*
X64601060Y70565208D01*
X64801060Y70565208D01*
X64846565Y70568837D01*
X64900904Y70585665D01*
X64921067Y70576576D01*
X65001060Y70565208D01*
X65201060Y70565208D01*
X65246565Y70568837D01*
X65300904Y70585665D01*
X65321067Y70576576D01*
X65401060Y70565208D01*
X65601060Y70565208D01*
X65646565Y70568837D01*
X65700904Y70585665D01*
X65721067Y70576576D01*
X65801060Y70565208D01*
X66001060Y70565208D01*
X66046565Y70568837D01*
X66100904Y70585665D01*
X66121067Y70576576D01*
X66201060Y70565208D01*
X66401060Y70565208D01*
X66446565Y70568837D01*
X66523745Y70592738D01*
X66591211Y70637195D01*
X66643621Y70698688D01*
X66676824Y70772347D01*
X66688192Y70852340D01*
X66688192Y71245327D01*
X66688372Y71246932D01*
X66688410Y71252340D01*
X66688410Y72317894D01*
X67121207Y72750692D01*
X67117736Y72716520D01*
X67117736Y72716520D01*
G37*
X67117736Y72716520D02*
X67113748Y72680966D01*
X67113720Y72676979D01*
X67113713Y72676910D01*
X67113719Y72676846D01*
X67113710Y72675558D01*
X67113710Y71252340D01*
X67113928Y71250117D01*
X67113928Y70852340D01*
X67117557Y70806835D01*
X67141458Y70729655D01*
X67185915Y70662189D01*
X67247408Y70609779D01*
X67321067Y70576576D01*
X67401060Y70565208D01*
X67601060Y70565208D01*
X67646565Y70568837D01*
X67700904Y70585665D01*
X67721067Y70576576D01*
X67801060Y70565208D01*
X68001060Y70565208D01*
X68046565Y70568837D01*
X68100904Y70585665D01*
X68121067Y70576576D01*
X68201060Y70565208D01*
X68401060Y70565208D01*
X68446565Y70568837D01*
X68500904Y70585665D01*
X68521067Y70576576D01*
X68601060Y70565208D01*
X68801060Y70565208D01*
X68846565Y70568837D01*
X68900904Y70585665D01*
X68921067Y70576576D01*
X69001060Y70565208D01*
X69201060Y70565208D01*
X69215925Y70566393D01*
X69213928Y70552340D01*
X69213928Y70352340D01*
X69217557Y70306835D01*
X69234385Y70252496D01*
X69225296Y70232333D01*
X69213928Y70152340D01*
X69213928Y69952340D01*
X69217557Y69906835D01*
X69234385Y69852496D01*
X69225296Y69832333D01*
X69213928Y69752340D01*
X69213928Y69552340D01*
X69217557Y69506835D01*
X69234385Y69452496D01*
X69225296Y69432333D01*
X69213928Y69352340D01*
X69213928Y69152340D01*
X69217557Y69106835D01*
X69241458Y69029655D01*
X69285915Y68962189D01*
X69347408Y68909779D01*
X69421067Y68876576D01*
X69501060Y68865208D01*
X70301060Y68865208D01*
X70346565Y68868837D01*
X70423745Y68892738D01*
X70491211Y68937195D01*
X70543621Y68998688D01*
X70576824Y69072347D01*
X70588192Y69152340D01*
X70588192Y69352340D01*
X70584563Y69397845D01*
X70567735Y69452184D01*
X70576824Y69472347D01*
X70588192Y69552340D01*
X70588192Y69752340D01*
X70584563Y69797845D01*
X70567735Y69852184D01*
X70576824Y69872347D01*
X70588192Y69952340D01*
X70588192Y70152340D01*
X70584563Y70197845D01*
X70567735Y70252184D01*
X70576824Y70272347D01*
X70588192Y70352340D01*
X70588192Y70471288D01*
X96302776Y70471288D01*
X111296563Y55477501D01*
X111208645Y55272373D01*
X111156221Y55025735D01*
X111152700Y54773611D01*
X111198218Y54525605D01*
X111291040Y54291163D01*
X111427631Y54079215D01*
X111602788Y53897835D01*
X111809839Y53753930D01*
X112040899Y53652983D01*
X112231903Y53610988D01*
X112075363Y53581126D01*
X111842581Y53487075D01*
X97646696Y67682960D01*
X97619055Y67705664D01*
X97591638Y67728670D01*
X97589852Y67729652D01*
X97588279Y67730944D01*
X97556719Y67747867D01*
X97525391Y67765089D01*
X97523454Y67765704D01*
X97521655Y67766668D01*
X97487383Y67777146D01*
X97453333Y67787947D01*
X97451311Y67788174D01*
X97449361Y67788770D01*
X97413760Y67792386D01*
X97378206Y67796374D01*
X97374219Y67796402D01*
X97374150Y67796409D01*
X97374086Y67796403D01*
X97372798Y67796412D01*
X74912222Y67796412D01*
X74876619Y67792921D01*
X74840969Y67789802D01*
X74839014Y67789234D01*
X74836985Y67789035D01*
X74802707Y67778686D01*
X74768373Y67768711D01*
X74766566Y67767774D01*
X74764614Y67767185D01*
X74732990Y67750370D01*
X74701257Y67733921D01*
X74699667Y67732651D01*
X74697866Y67731694D01*
X74670123Y67709068D01*
X74642175Y67686757D01*
X74639337Y67683959D01*
X74639282Y67683914D01*
X74639240Y67683863D01*
X74638324Y67682960D01*
X73286240Y66330876D01*
X73301421Y66348688D01*
X73334624Y66422347D01*
X73345992Y66502340D01*
X73345992Y67502340D01*
X73342363Y67547845D01*
X73318462Y67625025D01*
X73274005Y67692491D01*
X73212512Y67744901D01*
X73138853Y67778104D01*
X73058860Y67789472D01*
X71919524Y67789472D01*
X71456656Y68252340D01*
X71919524Y68715208D01*
X73058860Y68715208D01*
X73104365Y68718837D01*
X73181545Y68742738D01*
X73249011Y68787195D01*
X73301421Y68848688D01*
X73334624Y68922347D01*
X73345992Y69002340D01*
X73345992Y70002340D01*
X73342363Y70047845D01*
X73318462Y70125025D01*
X73274005Y70192491D01*
X73212512Y70244901D01*
X73138853Y70278104D01*
X73058860Y70289472D01*
X71258860Y70289472D01*
X71213355Y70285843D01*
X71136175Y70261942D01*
X71068709Y70217485D01*
X71016299Y70155992D01*
X70983096Y70082333D01*
X70971728Y70002340D01*
X70971728Y69002340D01*
X70975357Y68956835D01*
X70996686Y68887962D01*
X70948414Y68839690D01*
X69901060Y68839690D01*
X69898837Y68839472D01*
X69501060Y68839472D01*
X69455555Y68835843D01*
X69378375Y68811942D01*
X69310909Y68767485D01*
X69258499Y68705992D01*
X69225296Y68632333D01*
X69213928Y68552340D01*
X69213928Y68352340D01*
X69217557Y68306835D01*
X69234385Y68252496D01*
X69225296Y68232333D01*
X69213928Y68152340D01*
X69213928Y67952340D01*
X69217557Y67906835D01*
X69234385Y67852496D01*
X69225296Y67832333D01*
X69213928Y67752340D01*
X69213928Y67552340D01*
X69217557Y67506835D01*
X69241458Y67429655D01*
X69285915Y67362189D01*
X69347408Y67309779D01*
X69421067Y67276576D01*
X69501060Y67265208D01*
X69894047Y67265208D01*
X69895652Y67265028D01*
X69901060Y67264990D01*
X70237469Y67264990D01*
X70241374Y67255127D01*
X70298714Y67166153D01*
X70372244Y67090011D01*
X70459163Y67029600D01*
X70556161Y66987223D01*
X70559202Y66986554D01*
X70481729Y66971775D01*
X70383586Y66932123D01*
X70295014Y66874163D01*
X70259811Y66839690D01*
X69901060Y66839690D01*
X69898837Y66839472D01*
X69501060Y66839472D01*
X69455555Y66835843D01*
X69378375Y66811942D01*
X69310909Y66767485D01*
X69258499Y66705992D01*
X69225296Y66632333D01*
X69213928Y66552340D01*
X69213928Y66352340D01*
X69217557Y66306835D01*
X69234385Y66252496D01*
X69225296Y66232333D01*
X69213928Y66152340D01*
X69213928Y65952340D01*
X69215113Y65937475D01*
X69201060Y65939472D01*
X69001060Y65939472D01*
X68955555Y65935843D01*
X68901216Y65919015D01*
X68881053Y65928104D01*
X68801060Y65939472D01*
X68601060Y65939472D01*
X68555555Y65935843D01*
X68501216Y65919015D01*
X68481053Y65928104D01*
X68401060Y65939472D01*
X68201060Y65939472D01*
X68155555Y65935843D01*
X68101216Y65919015D01*
X68081053Y65928104D01*
X68001060Y65939472D01*
X67801060Y65939472D01*
X67755555Y65935843D01*
X67701216Y65919015D01*
X67681053Y65928104D01*
X67601060Y65939472D01*
X67401060Y65939472D01*
X67355555Y65935843D01*
X67301216Y65919015D01*
X67281053Y65928104D01*
X67201060Y65939472D01*
X67001060Y65939472D01*
X66955555Y65935843D01*
X66901216Y65919015D01*
X66881053Y65928104D01*
X66801060Y65939472D01*
X66601060Y65939472D01*
X66555555Y65935843D01*
X66501216Y65919015D01*
X66481053Y65928104D01*
X66401060Y65939472D01*
X66201060Y65939472D01*
X66155555Y65935843D01*
X66101216Y65919015D01*
X66081053Y65928104D01*
X66001060Y65939472D01*
X65801060Y65939472D01*
X65755555Y65935843D01*
X65701216Y65919015D01*
X65681053Y65928104D01*
X65601060Y65939472D01*
X65401060Y65939472D01*
X65355555Y65935843D01*
X65301216Y65919015D01*
X65281053Y65928104D01*
X65201060Y65939472D01*
X65001060Y65939472D01*
X64955555Y65935843D01*
X64901216Y65919015D01*
X64881053Y65928104D01*
X64801060Y65939472D01*
X64601060Y65939472D01*
X64586195Y65938287D01*
X64588192Y65952340D01*
X64588192Y66152340D01*
X64584563Y66197845D01*
X64567735Y66252184D01*
X64576824Y66272347D01*
X64588192Y66352340D01*
X64588192Y66552340D01*
X64584563Y66597845D01*
X64567735Y66652184D01*
X64576824Y66672347D01*
X64588192Y66752340D01*
X64588192Y66952340D01*
X64584563Y66997845D01*
X64567735Y67052184D01*
X64576824Y67072347D01*
X64588192Y67152340D01*
X64588192Y67352340D01*
X64584563Y67397845D01*
X64567735Y67452184D01*
X64576824Y67472347D01*
X64588192Y67552340D01*
X64588192Y67752340D01*
X64584563Y67797845D01*
X64567735Y67852184D01*
X64576824Y67872347D01*
X64588192Y67952340D01*
X64588192Y68152340D01*
X64584563Y68197845D01*
X64567735Y68252184D01*
X64576824Y68272347D01*
X64588192Y68352340D01*
X64588192Y68552340D01*
X64584563Y68597845D01*
X64567735Y68652184D01*
X64576824Y68672347D01*
X64588192Y68752340D01*
X64588192Y68952340D01*
X64584563Y68997845D01*
X64567735Y69052184D01*
X64576824Y69072347D01*
X64588192Y69152340D01*
X64588192Y69352340D01*
X64584563Y69397845D01*
X64567735Y69452184D01*
X64576824Y69472347D01*
X64588192Y69552340D01*
X64588192Y69752340D01*
X64584563Y69797845D01*
X64567735Y69852184D01*
X64576824Y69872347D01*
X64588192Y69952340D01*
X64588192Y70152340D01*
X64584563Y70197845D01*
X64567735Y70252184D01*
X64576824Y70272347D01*
X64588192Y70352340D01*
X64588192Y70552340D01*
X64587007Y70567205D01*
X64601060Y70565208D01*
X64801060Y70565208D01*
X64846565Y70568837D01*
X64900904Y70585665D01*
X64921067Y70576576D01*
X65001060Y70565208D01*
X65201060Y70565208D01*
X65246565Y70568837D01*
X65300904Y70585665D01*
X65321067Y70576576D01*
X65401060Y70565208D01*
X65601060Y70565208D01*
X65646565Y70568837D01*
X65700904Y70585665D01*
X65721067Y70576576D01*
X65801060Y70565208D01*
X66001060Y70565208D01*
X66046565Y70568837D01*
X66100904Y70585665D01*
X66121067Y70576576D01*
X66201060Y70565208D01*
X66401060Y70565208D01*
X66446565Y70568837D01*
X66523745Y70592738D01*
X66591211Y70637195D01*
X66643621Y70698688D01*
X66676824Y70772347D01*
X66688192Y70852340D01*
X66688192Y71245327D01*
X66688372Y71246932D01*
X66688410Y71252340D01*
X66688410Y72317894D01*
X67121207Y72750692D01*
X67117736Y72716520D01*
G36*
X68935098Y79090017D02*
X68933620Y78984176D01*
X68952728Y78880065D01*
X68991694Y78781647D01*
X69049034Y78692673D01*
X69086730Y78653638D01*
X69086730Y74809024D01*
X67288533Y73010827D01*
X67292004Y73044998D01*
X67295992Y73080552D01*
X67296020Y73084539D01*
X67296027Y73084608D01*
X67296021Y73084672D01*
X67296030Y73085960D01*
X67296030Y74592227D01*
X67642870Y75192971D01*
X67662479Y75234193D01*
X67680370Y75312985D01*
X67675602Y75393640D01*
X67648553Y75469775D01*
X67601364Y75535359D01*
X67537772Y75585201D01*
X67211004Y75773861D01*
X67211004Y76325689D01*
X67304726Y76488020D01*
X67324335Y76529243D01*
X67342226Y76608034D01*
X67337458Y76688690D01*
X67310409Y76764824D01*
X67263220Y76830408D01*
X67199628Y76880250D01*
X66979098Y77007573D01*
X66973078Y77012553D01*
X66932019Y77034754D01*
X66680012Y77180250D01*
X66638790Y77199859D01*
X66559999Y77217750D01*
X66479343Y77212983D01*
X66403208Y77185933D01*
X66337624Y77138744D01*
X66287782Y77075152D01*
X66037782Y76642140D01*
X66018173Y76600917D01*
X66000282Y76522126D01*
X66005050Y76441470D01*
X66032099Y76365336D01*
X66078108Y76301392D01*
X66048532Y76290884D01*
X65982948Y76243695D01*
X65933106Y76180103D01*
X65333106Y75140873D01*
X65313497Y75099651D01*
X65295606Y75020859D01*
X65300374Y74940204D01*
X65327423Y74864069D01*
X65374612Y74798485D01*
X65438204Y74748643D01*
X66521330Y74123300D01*
X66521330Y73246405D01*
X66027162Y72752238D01*
X66004458Y72724597D01*
X65981452Y72697180D01*
X65980470Y72695394D01*
X65979178Y72693821D01*
X65962255Y72662261D01*
X65945033Y72630933D01*
X65944418Y72628996D01*
X65943454Y72627197D01*
X65932976Y72592925D01*
X65922175Y72558875D01*
X65921948Y72556853D01*
X65921352Y72554903D01*
X65917736Y72519302D01*
X65913748Y72483748D01*
X65913720Y72479761D01*
X65913713Y72479692D01*
X65913719Y72479628D01*
X65913710Y72478340D01*
X65913710Y72416386D01*
X64383141Y73946955D01*
X64887614Y74820727D01*
X64907223Y74861949D01*
X64925114Y74940741D01*
X64920346Y75021396D01*
X64893297Y75097531D01*
X64846108Y75163115D01*
X64782516Y75212957D01*
X63570080Y75912957D01*
X63528858Y75932566D01*
X63450067Y75950457D01*
X63369411Y75945689D01*
X63351431Y75939301D01*
X63244288Y76046444D01*
X63243873Y76047612D01*
X63196684Y76113196D01*
X63133092Y76163038D01*
X63113599Y76174292D01*
X63090960Y76192888D01*
X63052785Y76224921D01*
X63050300Y76226287D01*
X63048105Y76228090D01*
X63004134Y76251667D01*
X62960474Y76275669D01*
X62957771Y76276527D01*
X62955267Y76277869D01*
X62910487Y76291559D01*
X62700080Y76413038D01*
X62658857Y76432647D01*
X62640210Y76436881D01*
X62640210Y76913688D01*
X64917372Y79190850D01*
X68956531Y79190850D01*
X68935098Y79090017D01*
X68935098Y79090017D01*
G37*
X68935098Y79090017D02*
X68933620Y78984176D01*
X68952728Y78880065D01*
X68991694Y78781647D01*
X69049034Y78692673D01*
X69086730Y78653638D01*
X69086730Y74809024D01*
X67288533Y73010827D01*
X67292004Y73044998D01*
X67295992Y73080552D01*
X67296020Y73084539D01*
X67296027Y73084608D01*
X67296021Y73084672D01*
X67296030Y73085960D01*
X67296030Y74592227D01*
X67642870Y75192971D01*
X67662479Y75234193D01*
X67680370Y75312985D01*
X67675602Y75393640D01*
X67648553Y75469775D01*
X67601364Y75535359D01*
X67537772Y75585201D01*
X67211004Y75773861D01*
X67211004Y76325689D01*
X67304726Y76488020D01*
X67324335Y76529243D01*
X67342226Y76608034D01*
X67337458Y76688690D01*
X67310409Y76764824D01*
X67263220Y76830408D01*
X67199628Y76880250D01*
X66979098Y77007573D01*
X66973078Y77012553D01*
X66932019Y77034754D01*
X66680012Y77180250D01*
X66638790Y77199859D01*
X66559999Y77217750D01*
X66479343Y77212983D01*
X66403208Y77185933D01*
X66337624Y77138744D01*
X66287782Y77075152D01*
X66037782Y76642140D01*
X66018173Y76600917D01*
X66000282Y76522126D01*
X66005050Y76441470D01*
X66032099Y76365336D01*
X66078108Y76301392D01*
X66048532Y76290884D01*
X65982948Y76243695D01*
X65933106Y76180103D01*
X65333106Y75140873D01*
X65313497Y75099651D01*
X65295606Y75020859D01*
X65300374Y74940204D01*
X65327423Y74864069D01*
X65374612Y74798485D01*
X65438204Y74748643D01*
X66521330Y74123300D01*
X66521330Y73246405D01*
X66027162Y72752238D01*
X66004458Y72724597D01*
X65981452Y72697180D01*
X65980470Y72695394D01*
X65979178Y72693821D01*
X65962255Y72662261D01*
X65945033Y72630933D01*
X65944418Y72628996D01*
X65943454Y72627197D01*
X65932976Y72592925D01*
X65922175Y72558875D01*
X65921948Y72556853D01*
X65921352Y72554903D01*
X65917736Y72519302D01*
X65913748Y72483748D01*
X65913720Y72479761D01*
X65913713Y72479692D01*
X65913719Y72479628D01*
X65913710Y72478340D01*
X65913710Y72416386D01*
X64383141Y73946955D01*
X64887614Y74820727D01*
X64907223Y74861949D01*
X64925114Y74940741D01*
X64920346Y75021396D01*
X64893297Y75097531D01*
X64846108Y75163115D01*
X64782516Y75212957D01*
X63570080Y75912957D01*
X63528858Y75932566D01*
X63450067Y75950457D01*
X63369411Y75945689D01*
X63351431Y75939301D01*
X63244288Y76046444D01*
X63243873Y76047612D01*
X63196684Y76113196D01*
X63133092Y76163038D01*
X63113599Y76174292D01*
X63090960Y76192888D01*
X63052785Y76224921D01*
X63050300Y76226287D01*
X63048105Y76228090D01*
X63004134Y76251667D01*
X62960474Y76275669D01*
X62957771Y76276527D01*
X62955267Y76277869D01*
X62910487Y76291559D01*
X62700080Y76413038D01*
X62658857Y76432647D01*
X62640210Y76436881D01*
X62640210Y76913688D01*
X64917372Y79190850D01*
X68956531Y79190850D01*
X68935098Y79090017D01*
G36*
X112678789Y72675862D02*
X112664646Y72661720D01*
X112678789Y72647577D01*
X112454283Y72423071D01*
X112440140Y72437214D01*
X112425998Y72423071D01*
X112201492Y72647577D01*
X112215634Y72661720D01*
X112201492Y72675862D01*
X112425998Y72900368D01*
X112440140Y72886226D01*
X112454283Y72900368D01*
X112678789Y72675862D01*
X112678789Y72675862D01*
G37*
X112678789Y72675862D02*
X112664646Y72661720D01*
X112678789Y72647577D01*
X112454283Y72423071D01*
X112440140Y72437214D01*
X112425998Y72423071D01*
X112201492Y72647577D01*
X112215634Y72661720D01*
X112201492Y72675862D01*
X112425998Y72900368D01*
X112440140Y72886226D01*
X112454283Y72900368D01*
X112678789Y72675862D01*
G36*
X98098779Y93506943D02*
X106359072Y85246651D01*
X106424801Y85192661D01*
X106489947Y85137997D01*
X106494188Y85135665D01*
X106497931Y85132591D01*
X106572920Y85092382D01*
X106647418Y85051426D01*
X106652031Y85049963D01*
X106656301Y85047673D01*
X106737699Y85022788D01*
X106818705Y84997091D01*
X106823513Y84996552D01*
X106828147Y84995135D01*
X106912833Y84986533D01*
X106997284Y84977060D01*
X107006741Y84976994D01*
X107006926Y84976975D01*
X107007098Y84976991D01*
X107010140Y84976970D01*
X111835812Y84976970D01*
X112384451Y84428332D01*
X112344452Y84429882D01*
X112032554Y84380314D01*
X111736320Y84270850D01*
X111626254Y84212019D01*
X111525999Y83960367D01*
X112440140Y83046226D01*
X112454283Y83060368D01*
X112678789Y82835862D01*
X112664646Y82821720D01*
X112678789Y82807577D01*
X112454283Y82583071D01*
X112440140Y82597214D01*
X111525999Y81683073D01*
X111626254Y81431421D01*
X111756915Y81371269D01*
X111630586Y81288602D01*
X111450433Y81112183D01*
X111307977Y80904132D01*
X111208645Y80672373D01*
X111156221Y80425735D01*
X111152700Y80173611D01*
X111198218Y79925605D01*
X111291040Y79691163D01*
X111427631Y79479215D01*
X111602788Y79297835D01*
X111809839Y79153930D01*
X112040899Y79052983D01*
X112231903Y79010988D01*
X112075363Y78981126D01*
X111841575Y78886669D01*
X111630586Y78748602D01*
X111450433Y78572183D01*
X111307977Y78364132D01*
X111208645Y78132373D01*
X111156221Y77885735D01*
X111152700Y77633611D01*
X111198218Y77385605D01*
X111291040Y77151163D01*
X111427631Y76939215D01*
X111602788Y76757835D01*
X111809839Y76613930D01*
X112040899Y76512983D01*
X112231903Y76470988D01*
X112075363Y76441126D01*
X111841575Y76346669D01*
X111630586Y76208602D01*
X111450433Y76032183D01*
X111307977Y75824132D01*
X111208645Y75592373D01*
X111156221Y75345735D01*
X111152700Y75093611D01*
X111198218Y74845605D01*
X111291040Y74611163D01*
X111295252Y74604628D01*
X109920094Y73229470D01*
X78077205Y73229470D01*
X78130709Y73349642D01*
X78162437Y73489293D01*
X78164721Y73652865D01*
X78136905Y73793347D01*
X78082332Y73925750D01*
X78003081Y74045032D01*
X77974190Y74074126D01*
X77974190Y74180700D01*
X77969324Y74230333D01*
X77964979Y74279988D01*
X77964188Y74282710D01*
X77963911Y74285538D01*
X77949484Y74333323D01*
X77935590Y74381146D01*
X77934285Y74383663D01*
X77933464Y74386383D01*
X77910043Y74430431D01*
X77887112Y74474669D01*
X77885342Y74476887D01*
X77884009Y74479393D01*
X77852489Y74518041D01*
X77821392Y74556995D01*
X77817496Y74560946D01*
X77817431Y74561026D01*
X77817357Y74561087D01*
X77816101Y74562361D01*
X71491794Y80886668D01*
X73331158Y82726032D01*
X110831978Y82726032D01*
X110881546Y82414134D01*
X110991010Y82117900D01*
X111049841Y82007834D01*
X111301493Y81907579D01*
X112215634Y82821720D01*
X111301493Y83735861D01*
X111049841Y83635606D01*
X110917774Y83348733D01*
X110844210Y83041608D01*
X110831978Y82726032D01*
X73331158Y82726032D01*
X80331897Y89726770D01*
X93929140Y89726770D01*
X94013779Y89735069D01*
X94098513Y89742483D01*
X94103161Y89743833D01*
X94107981Y89744306D01*
X94189440Y89768899D01*
X94271077Y89792617D01*
X94275373Y89794844D01*
X94280011Y89796244D01*
X94355127Y89836185D01*
X94430616Y89875314D01*
X94434401Y89878335D01*
X94438675Y89880608D01*
X94504604Y89934379D01*
X94571054Y89987425D01*
X94577796Y89994072D01*
X94577932Y89994183D01*
X94578036Y89994308D01*
X94580209Y89996451D01*
X98090867Y93507109D01*
X98098779Y93506943D01*
X98098779Y93506943D01*
G37*
X98098779Y93506943D02*
X106359072Y85246651D01*
X106424801Y85192661D01*
X106489947Y85137997D01*
X106494188Y85135665D01*
X106497931Y85132591D01*
X106572920Y85092382D01*
X106647418Y85051426D01*
X106652031Y85049963D01*
X106656301Y85047673D01*
X106737699Y85022788D01*
X106818705Y84997091D01*
X106823513Y84996552D01*
X106828147Y84995135D01*
X106912833Y84986533D01*
X106997284Y84977060D01*
X107006741Y84976994D01*
X107006926Y84976975D01*
X107007098Y84976991D01*
X107010140Y84976970D01*
X111835812Y84976970D01*
X112384451Y84428332D01*
X112344452Y84429882D01*
X112032554Y84380314D01*
X111736320Y84270850D01*
X111626254Y84212019D01*
X111525999Y83960367D01*
X112440140Y83046226D01*
X112454283Y83060368D01*
X112678789Y82835862D01*
X112664646Y82821720D01*
X112678789Y82807577D01*
X112454283Y82583071D01*
X112440140Y82597214D01*
X111525999Y81683073D01*
X111626254Y81431421D01*
X111756915Y81371269D01*
X111630586Y81288602D01*
X111450433Y81112183D01*
X111307977Y80904132D01*
X111208645Y80672373D01*
X111156221Y80425735D01*
X111152700Y80173611D01*
X111198218Y79925605D01*
X111291040Y79691163D01*
X111427631Y79479215D01*
X111602788Y79297835D01*
X111809839Y79153930D01*
X112040899Y79052983D01*
X112231903Y79010988D01*
X112075363Y78981126D01*
X111841575Y78886669D01*
X111630586Y78748602D01*
X111450433Y78572183D01*
X111307977Y78364132D01*
X111208645Y78132373D01*
X111156221Y77885735D01*
X111152700Y77633611D01*
X111198218Y77385605D01*
X111291040Y77151163D01*
X111427631Y76939215D01*
X111602788Y76757835D01*
X111809839Y76613930D01*
X112040899Y76512983D01*
X112231903Y76470988D01*
X112075363Y76441126D01*
X111841575Y76346669D01*
X111630586Y76208602D01*
X111450433Y76032183D01*
X111307977Y75824132D01*
X111208645Y75592373D01*
X111156221Y75345735D01*
X111152700Y75093611D01*
X111198218Y74845605D01*
X111291040Y74611163D01*
X111295252Y74604628D01*
X109920094Y73229470D01*
X78077205Y73229470D01*
X78130709Y73349642D01*
X78162437Y73489293D01*
X78164721Y73652865D01*
X78136905Y73793347D01*
X78082332Y73925750D01*
X78003081Y74045032D01*
X77974190Y74074126D01*
X77974190Y74180700D01*
X77969324Y74230333D01*
X77964979Y74279988D01*
X77964188Y74282710D01*
X77963911Y74285538D01*
X77949484Y74333323D01*
X77935590Y74381146D01*
X77934285Y74383663D01*
X77933464Y74386383D01*
X77910043Y74430431D01*
X77887112Y74474669D01*
X77885342Y74476887D01*
X77884009Y74479393D01*
X77852489Y74518041D01*
X77821392Y74556995D01*
X77817496Y74560946D01*
X77817431Y74561026D01*
X77817357Y74561087D01*
X77816101Y74562361D01*
X71491794Y80886668D01*
X73331158Y82726032D01*
X110831978Y82726032D01*
X110881546Y82414134D01*
X110991010Y82117900D01*
X111049841Y82007834D01*
X111301493Y81907579D01*
X112215634Y82821720D01*
X111301493Y83735861D01*
X111049841Y83635606D01*
X110917774Y83348733D01*
X110844210Y83041608D01*
X110831978Y82726032D01*
X73331158Y82726032D01*
X80331897Y89726770D01*
X93929140Y89726770D01*
X94013779Y89735069D01*
X94098513Y89742483D01*
X94103161Y89743833D01*
X94107981Y89744306D01*
X94189440Y89768899D01*
X94271077Y89792617D01*
X94275373Y89794844D01*
X94280011Y89796244D01*
X94355127Y89836185D01*
X94430616Y89875314D01*
X94434401Y89878335D01*
X94438675Y89880608D01*
X94504604Y89934379D01*
X94571054Y89987425D01*
X94577796Y89994072D01*
X94577932Y89994183D01*
X94578036Y89994308D01*
X94580209Y89996451D01*
X98090867Y93507109D01*
X98098779Y93506943D01*
G36*
X119519589Y75215922D02*
X119505446Y75201780D01*
X119519589Y75187637D01*
X119295083Y74963131D01*
X119280940Y74977274D01*
X119266798Y74963131D01*
X119042292Y75187637D01*
X119056434Y75201780D01*
X119042292Y75215922D01*
X119266798Y75440428D01*
X119280940Y75426286D01*
X119295083Y75440428D01*
X119519589Y75215922D01*
X119519589Y75215922D01*
G37*
X119519589Y75215922D02*
X119505446Y75201780D01*
X119519589Y75187637D01*
X119295083Y74963131D01*
X119280940Y74977274D01*
X119266798Y74963131D01*
X119042292Y75187637D01*
X119056434Y75201780D01*
X119042292Y75215922D01*
X119266798Y75440428D01*
X119280940Y75426286D01*
X119295083Y75440428D01*
X119519589Y75215922D01*
G36*
X120371870Y80963299D02*
X120282146Y81098344D01*
X120201690Y81179363D01*
X120201690Y89733120D01*
X120193391Y89817759D01*
X120185977Y89902493D01*
X120184627Y89907141D01*
X120184154Y89911961D01*
X120159561Y89993420D01*
X120135843Y90075057D01*
X120133616Y90079353D01*
X120132216Y90083991D01*
X120092275Y90159107D01*
X120053146Y90234596D01*
X120050125Y90238381D01*
X120047852Y90242655D01*
X119994106Y90308554D01*
X119941036Y90375034D01*
X119934390Y90381774D01*
X119934277Y90381912D01*
X119934149Y90382018D01*
X119932009Y90384188D01*
X114852009Y95464189D01*
X114786282Y95518177D01*
X114721133Y95572843D01*
X114716888Y95575177D01*
X114713149Y95578248D01*
X114638215Y95618428D01*
X114563662Y95659414D01*
X114559047Y95660878D01*
X114554780Y95663166D01*
X114473455Y95688029D01*
X114392375Y95713749D01*
X114387562Y95714289D01*
X114382933Y95715704D01*
X114298341Y95724297D01*
X114213796Y95733780D01*
X114204328Y95733846D01*
X114204154Y95733864D01*
X114203991Y95733849D01*
X114200940Y95733870D01*
X107783672Y95733870D01*
X107694084Y95824086D01*
X107481791Y95967279D01*
X107245729Y96066510D01*
X106994888Y96118000D01*
X106738824Y96119788D01*
X106487289Y96071805D01*
X106249864Y95975879D01*
X106035593Y95835664D01*
X105852638Y95656501D01*
X105707966Y95445214D01*
X105607089Y95209850D01*
X105553849Y94959375D01*
X105550274Y94703329D01*
X105596499Y94451465D01*
X105690765Y94213376D01*
X105829481Y93998132D01*
X106007363Y93813930D01*
X106217635Y93667787D01*
X106452289Y93565269D01*
X106702386Y93510282D01*
X106958401Y93504919D01*
X107210581Y93549385D01*
X107449322Y93641987D01*
X107665530Y93779196D01*
X107784374Y93892370D01*
X113819552Y93892370D01*
X118360190Y89351733D01*
X118360190Y81202530D01*
X115108541Y81202530D01*
X115157856Y81249492D01*
X115261941Y81397043D01*
X115335385Y81562000D01*
X115375389Y81738081D01*
X115376642Y81827832D01*
X115378140Y81841184D01*
X115378230Y81854040D01*
X115378230Y81941531D01*
X115378269Y81944324D01*
X115378230Y81944521D01*
X115378230Y83657440D01*
X115369927Y83742120D01*
X115362517Y83826814D01*
X115361166Y83831463D01*
X115360694Y83836281D01*
X115336104Y83917728D01*
X115312383Y83999377D01*
X115310156Y84003673D01*
X115308756Y84008311D01*
X115268815Y84083427D01*
X115229686Y84158916D01*
X115226665Y84162701D01*
X115224392Y84166975D01*
X115170641Y84232880D01*
X115117575Y84299355D01*
X115110930Y84306094D01*
X115110817Y84306232D01*
X115110689Y84306338D01*
X115108548Y84308509D01*
X112868269Y86548789D01*
X112802542Y86602777D01*
X112737393Y86657443D01*
X112733148Y86659777D01*
X112729409Y86662848D01*
X112654475Y86703028D01*
X112579922Y86744014D01*
X112575307Y86745478D01*
X112571040Y86747766D01*
X112489715Y86772629D01*
X112408635Y86798349D01*
X112403822Y86798889D01*
X112399193Y86800304D01*
X112314601Y86808897D01*
X112230056Y86818380D01*
X112220588Y86818446D01*
X112220414Y86818464D01*
X112220251Y86818449D01*
X112217200Y86818470D01*
X107391527Y86818470D01*
X104122511Y90087487D01*
X109650728Y90087487D01*
X109749348Y89550148D01*
X109950460Y89042198D01*
X110246403Y88582985D01*
X110625904Y88190000D01*
X111074509Y87878211D01*
X111575131Y87659495D01*
X112108700Y87542182D01*
X112654894Y87530741D01*
X113192908Y87625607D01*
X113702249Y87823168D01*
X114163517Y88115897D01*
X114559143Y88492646D01*
X114874055Y88939064D01*
X115096261Y89438146D01*
X115217296Y89970884D01*
X115226009Y90594877D01*
X115119896Y91130786D01*
X114911713Y91635878D01*
X114609387Y92090915D01*
X114224436Y92478563D01*
X113771521Y92784058D01*
X113267895Y92995763D01*
X112732739Y93105615D01*
X112186439Y93109428D01*
X111649802Y93007059D01*
X111143268Y92802407D01*
X110686132Y92503265D01*
X110295806Y92121030D01*
X109987157Y91670259D01*
X109771941Y91168123D01*
X109658356Y90633747D01*
X109650728Y90087487D01*
X104122511Y90087487D01*
X100549819Y93660179D01*
X102429305Y93660179D01*
X102531984Y93406483D01*
X102822273Y93272414D01*
X103133138Y93197554D01*
X103452635Y93184779D01*
X103768486Y93234580D01*
X104068551Y93345044D01*
X104183496Y93406483D01*
X104286175Y93660179D01*
X103357740Y94588614D01*
X102429305Y93660179D01*
X100549819Y93660179D01*
X99491773Y94718225D01*
X101729399Y94718225D01*
X101779200Y94402374D01*
X101889664Y94102309D01*
X101951103Y93987364D01*
X102204799Y93884685D01*
X103133234Y94813120D01*
X103582246Y94813120D01*
X104510681Y93884685D01*
X104764377Y93987364D01*
X104898446Y94277653D01*
X104973306Y94588518D01*
X104986081Y94908015D01*
X104936280Y95223866D01*
X104825816Y95523931D01*
X104764377Y95638876D01*
X104510681Y95741555D01*
X103582246Y94813120D01*
X103133234Y94813120D01*
X102204799Y95741555D01*
X101951103Y95638876D01*
X101817034Y95348587D01*
X101742174Y95037722D01*
X101729399Y94718225D01*
X99491773Y94718225D01*
X99398732Y94811266D01*
X99400546Y94941155D01*
X99350808Y95192349D01*
X99253227Y95429099D01*
X99111520Y95642385D01*
X98931084Y95824086D01*
X98720597Y95966061D01*
X102429305Y95966061D01*
X103357740Y95037626D01*
X104286175Y95966061D01*
X104183496Y96219757D01*
X103893207Y96353826D01*
X103582342Y96428686D01*
X103262845Y96441461D01*
X102946994Y96391660D01*
X102646929Y96281196D01*
X102531984Y96219757D01*
X102429305Y95966061D01*
X98720597Y95966061D01*
X98718791Y95967279D01*
X98482729Y96066510D01*
X98231888Y96118000D01*
X97975824Y96119788D01*
X97724289Y96071805D01*
X97486864Y95975879D01*
X97272593Y95835664D01*
X97089638Y95656501D01*
X96944966Y95445214D01*
X96844089Y95209850D01*
X96790849Y94959375D01*
X96788753Y94809271D01*
X96031012Y94051530D01*
X96135446Y94277653D01*
X96210306Y94588518D01*
X96223081Y94908015D01*
X96173280Y95223866D01*
X96062816Y95523931D01*
X96001377Y95638876D01*
X95747681Y95741555D01*
X94819246Y94813120D01*
X94833389Y94798977D01*
X94608883Y94574471D01*
X94594740Y94588614D01*
X93666305Y93660179D01*
X93768984Y93406483D01*
X94059273Y93272414D01*
X94370138Y93197554D01*
X94689635Y93184779D01*
X95005486Y93234580D01*
X95305551Y93345044D01*
X95346314Y93366832D01*
X93547752Y91568270D01*
X80309720Y91568270D01*
X80130879Y91550734D01*
X79958849Y91498796D01*
X79800185Y91414432D01*
X79660928Y91300857D01*
X79546384Y91162397D01*
X79460915Y91004325D01*
X79407776Y90832662D01*
X79390844Y90671571D01*
X70347476Y81628202D01*
X70190992Y81598351D01*
X70035118Y81535374D01*
X69894445Y81443320D01*
X69861430Y81410989D01*
X69861430Y93506867D01*
X70065722Y93586107D01*
X70094388Y93604299D01*
X72045705Y93604299D01*
X72148384Y93350603D01*
X72438673Y93216534D01*
X72749538Y93141674D01*
X73069035Y93128899D01*
X73384886Y93178700D01*
X73684951Y93289164D01*
X73799896Y93350603D01*
X73902575Y93604299D01*
X72974140Y94532734D01*
X72045705Y93604299D01*
X70094388Y93604299D01*
X70281930Y93723316D01*
X70467369Y93899908D01*
X70614976Y94109155D01*
X70719130Y94343087D01*
X70775862Y94592794D01*
X70776833Y94662345D01*
X71345799Y94662345D01*
X71395600Y94346494D01*
X71506064Y94046429D01*
X71567503Y93931484D01*
X71821199Y93828805D01*
X72749634Y94757240D01*
X73198646Y94757240D01*
X74127081Y93828805D01*
X74380777Y93931484D01*
X74514846Y94221773D01*
X74589706Y94532638D01*
X74597126Y94718225D01*
X92966399Y94718225D01*
X93016200Y94402374D01*
X93126664Y94102309D01*
X93188103Y93987364D01*
X93441799Y93884685D01*
X94370234Y94813120D01*
X93441799Y95741555D01*
X93188103Y95638876D01*
X93054034Y95348587D01*
X92979174Y95037722D01*
X92966399Y94718225D01*
X74597126Y94718225D01*
X74602481Y94852135D01*
X74552680Y95167986D01*
X74442216Y95468051D01*
X74380777Y95582996D01*
X74127081Y95685675D01*
X73198646Y94757240D01*
X72749634Y94757240D01*
X71821199Y95685675D01*
X71567503Y95582996D01*
X71433434Y95292707D01*
X71358574Y94981842D01*
X71345799Y94662345D01*
X70776833Y94662345D01*
X70779946Y94885275D01*
X70730208Y95136469D01*
X70632627Y95373219D01*
X70490920Y95586505D01*
X70310484Y95768206D01*
X70099997Y95910181D01*
X72045705Y95910181D01*
X72974140Y94981746D01*
X73902575Y95910181D01*
X73879959Y95966061D01*
X93666305Y95966061D01*
X94594740Y95037626D01*
X95523175Y95966061D01*
X95420496Y96219757D01*
X95130207Y96353826D01*
X94819342Y96428686D01*
X94499845Y96441461D01*
X94183994Y96391660D01*
X93883929Y96281196D01*
X93768984Y96219757D01*
X93666305Y95966061D01*
X73879959Y95966061D01*
X73799896Y96163877D01*
X73509607Y96297946D01*
X73198742Y96372806D01*
X72879245Y96385581D01*
X72563394Y96335780D01*
X72263329Y96225316D01*
X72148384Y96163877D01*
X72045705Y95910181D01*
X70099997Y95910181D01*
X70098191Y95911399D01*
X69862129Y96010630D01*
X69611288Y96062120D01*
X69355224Y96063908D01*
X69103689Y96015925D01*
X68866264Y95919999D01*
X68651993Y95779784D01*
X68469038Y95600621D01*
X68324366Y95389334D01*
X68223489Y95153970D01*
X68170249Y94903495D01*
X68166674Y94647449D01*
X68212899Y94395585D01*
X68307165Y94157496D01*
X68445881Y93942252D01*
X68623763Y93758050D01*
X68834035Y93611907D01*
X69068689Y93509389D01*
X69086730Y93505422D01*
X69086730Y80807804D01*
X69058607Y80780264D01*
X68998805Y80692925D01*
X68957106Y80595634D01*
X68935098Y80492097D01*
X68933620Y80386256D01*
X68952728Y80282145D01*
X68957398Y80270350D01*
X64693800Y80270350D01*
X64644212Y80265488D01*
X64594513Y80261140D01*
X64591787Y80260348D01*
X64588962Y80260071D01*
X64541193Y80245649D01*
X64493355Y80231750D01*
X64490839Y80230446D01*
X64488117Y80229624D01*
X64444051Y80206193D01*
X64399831Y80183272D01*
X64397613Y80181502D01*
X64395107Y80180169D01*
X64356435Y80148629D01*
X64317506Y80117552D01*
X64313556Y80113658D01*
X64313474Y80113591D01*
X64313412Y80113516D01*
X64312139Y80112261D01*
X62640210Y78440332D01*
X62640210Y98449130D01*
X120371870Y98449130D01*
X120371870Y80963299D01*
X120371870Y80963299D01*
G37*
X120371870Y80963299D02*
X120282146Y81098344D01*
X120201690Y81179363D01*
X120201690Y89733120D01*
X120193391Y89817759D01*
X120185977Y89902493D01*
X120184627Y89907141D01*
X120184154Y89911961D01*
X120159561Y89993420D01*
X120135843Y90075057D01*
X120133616Y90079353D01*
X120132216Y90083991D01*
X120092275Y90159107D01*
X120053146Y90234596D01*
X120050125Y90238381D01*
X120047852Y90242655D01*
X119994106Y90308554D01*
X119941036Y90375034D01*
X119934390Y90381774D01*
X119934277Y90381912D01*
X119934149Y90382018D01*
X119932009Y90384188D01*
X114852009Y95464189D01*
X114786282Y95518177D01*
X114721133Y95572843D01*
X114716888Y95575177D01*
X114713149Y95578248D01*
X114638215Y95618428D01*
X114563662Y95659414D01*
X114559047Y95660878D01*
X114554780Y95663166D01*
X114473455Y95688029D01*
X114392375Y95713749D01*
X114387562Y95714289D01*
X114382933Y95715704D01*
X114298341Y95724297D01*
X114213796Y95733780D01*
X114204328Y95733846D01*
X114204154Y95733864D01*
X114203991Y95733849D01*
X114200940Y95733870D01*
X107783672Y95733870D01*
X107694084Y95824086D01*
X107481791Y95967279D01*
X107245729Y96066510D01*
X106994888Y96118000D01*
X106738824Y96119788D01*
X106487289Y96071805D01*
X106249864Y95975879D01*
X106035593Y95835664D01*
X105852638Y95656501D01*
X105707966Y95445214D01*
X105607089Y95209850D01*
X105553849Y94959375D01*
X105550274Y94703329D01*
X105596499Y94451465D01*
X105690765Y94213376D01*
X105829481Y93998132D01*
X106007363Y93813930D01*
X106217635Y93667787D01*
X106452289Y93565269D01*
X106702386Y93510282D01*
X106958401Y93504919D01*
X107210581Y93549385D01*
X107449322Y93641987D01*
X107665530Y93779196D01*
X107784374Y93892370D01*
X113819552Y93892370D01*
X118360190Y89351733D01*
X118360190Y81202530D01*
X115108541Y81202530D01*
X115157856Y81249492D01*
X115261941Y81397043D01*
X115335385Y81562000D01*
X115375389Y81738081D01*
X115376642Y81827832D01*
X115378140Y81841184D01*
X115378230Y81854040D01*
X115378230Y81941531D01*
X115378269Y81944324D01*
X115378230Y81944521D01*
X115378230Y83657440D01*
X115369927Y83742120D01*
X115362517Y83826814D01*
X115361166Y83831463D01*
X115360694Y83836281D01*
X115336104Y83917728D01*
X115312383Y83999377D01*
X115310156Y84003673D01*
X115308756Y84008311D01*
X115268815Y84083427D01*
X115229686Y84158916D01*
X115226665Y84162701D01*
X115224392Y84166975D01*
X115170641Y84232880D01*
X115117575Y84299355D01*
X115110930Y84306094D01*
X115110817Y84306232D01*
X115110689Y84306338D01*
X115108548Y84308509D01*
X112868269Y86548789D01*
X112802542Y86602777D01*
X112737393Y86657443D01*
X112733148Y86659777D01*
X112729409Y86662848D01*
X112654475Y86703028D01*
X112579922Y86744014D01*
X112575307Y86745478D01*
X112571040Y86747766D01*
X112489715Y86772629D01*
X112408635Y86798349D01*
X112403822Y86798889D01*
X112399193Y86800304D01*
X112314601Y86808897D01*
X112230056Y86818380D01*
X112220588Y86818446D01*
X112220414Y86818464D01*
X112220251Y86818449D01*
X112217200Y86818470D01*
X107391527Y86818470D01*
X104122511Y90087487D01*
X109650728Y90087487D01*
X109749348Y89550148D01*
X109950460Y89042198D01*
X110246403Y88582985D01*
X110625904Y88190000D01*
X111074509Y87878211D01*
X111575131Y87659495D01*
X112108700Y87542182D01*
X112654894Y87530741D01*
X113192908Y87625607D01*
X113702249Y87823168D01*
X114163517Y88115897D01*
X114559143Y88492646D01*
X114874055Y88939064D01*
X115096261Y89438146D01*
X115217296Y89970884D01*
X115226009Y90594877D01*
X115119896Y91130786D01*
X114911713Y91635878D01*
X114609387Y92090915D01*
X114224436Y92478563D01*
X113771521Y92784058D01*
X113267895Y92995763D01*
X112732739Y93105615D01*
X112186439Y93109428D01*
X111649802Y93007059D01*
X111143268Y92802407D01*
X110686132Y92503265D01*
X110295806Y92121030D01*
X109987157Y91670259D01*
X109771941Y91168123D01*
X109658356Y90633747D01*
X109650728Y90087487D01*
X104122511Y90087487D01*
X100549819Y93660179D01*
X102429305Y93660179D01*
X102531984Y93406483D01*
X102822273Y93272414D01*
X103133138Y93197554D01*
X103452635Y93184779D01*
X103768486Y93234580D01*
X104068551Y93345044D01*
X104183496Y93406483D01*
X104286175Y93660179D01*
X103357740Y94588614D01*
X102429305Y93660179D01*
X100549819Y93660179D01*
X99491773Y94718225D01*
X101729399Y94718225D01*
X101779200Y94402374D01*
X101889664Y94102309D01*
X101951103Y93987364D01*
X102204799Y93884685D01*
X103133234Y94813120D01*
X103582246Y94813120D01*
X104510681Y93884685D01*
X104764377Y93987364D01*
X104898446Y94277653D01*
X104973306Y94588518D01*
X104986081Y94908015D01*
X104936280Y95223866D01*
X104825816Y95523931D01*
X104764377Y95638876D01*
X104510681Y95741555D01*
X103582246Y94813120D01*
X103133234Y94813120D01*
X102204799Y95741555D01*
X101951103Y95638876D01*
X101817034Y95348587D01*
X101742174Y95037722D01*
X101729399Y94718225D01*
X99491773Y94718225D01*
X99398732Y94811266D01*
X99400546Y94941155D01*
X99350808Y95192349D01*
X99253227Y95429099D01*
X99111520Y95642385D01*
X98931084Y95824086D01*
X98720597Y95966061D01*
X102429305Y95966061D01*
X103357740Y95037626D01*
X104286175Y95966061D01*
X104183496Y96219757D01*
X103893207Y96353826D01*
X103582342Y96428686D01*
X103262845Y96441461D01*
X102946994Y96391660D01*
X102646929Y96281196D01*
X102531984Y96219757D01*
X102429305Y95966061D01*
X98720597Y95966061D01*
X98718791Y95967279D01*
X98482729Y96066510D01*
X98231888Y96118000D01*
X97975824Y96119788D01*
X97724289Y96071805D01*
X97486864Y95975879D01*
X97272593Y95835664D01*
X97089638Y95656501D01*
X96944966Y95445214D01*
X96844089Y95209850D01*
X96790849Y94959375D01*
X96788753Y94809271D01*
X96031012Y94051530D01*
X96135446Y94277653D01*
X96210306Y94588518D01*
X96223081Y94908015D01*
X96173280Y95223866D01*
X96062816Y95523931D01*
X96001377Y95638876D01*
X95747681Y95741555D01*
X94819246Y94813120D01*
X94833389Y94798977D01*
X94608883Y94574471D01*
X94594740Y94588614D01*
X93666305Y93660179D01*
X93768984Y93406483D01*
X94059273Y93272414D01*
X94370138Y93197554D01*
X94689635Y93184779D01*
X95005486Y93234580D01*
X95305551Y93345044D01*
X95346314Y93366832D01*
X93547752Y91568270D01*
X80309720Y91568270D01*
X80130879Y91550734D01*
X79958849Y91498796D01*
X79800185Y91414432D01*
X79660928Y91300857D01*
X79546384Y91162397D01*
X79460915Y91004325D01*
X79407776Y90832662D01*
X79390844Y90671571D01*
X70347476Y81628202D01*
X70190992Y81598351D01*
X70035118Y81535374D01*
X69894445Y81443320D01*
X69861430Y81410989D01*
X69861430Y93506867D01*
X70065722Y93586107D01*
X70094388Y93604299D01*
X72045705Y93604299D01*
X72148384Y93350603D01*
X72438673Y93216534D01*
X72749538Y93141674D01*
X73069035Y93128899D01*
X73384886Y93178700D01*
X73684951Y93289164D01*
X73799896Y93350603D01*
X73902575Y93604299D01*
X72974140Y94532734D01*
X72045705Y93604299D01*
X70094388Y93604299D01*
X70281930Y93723316D01*
X70467369Y93899908D01*
X70614976Y94109155D01*
X70719130Y94343087D01*
X70775862Y94592794D01*
X70776833Y94662345D01*
X71345799Y94662345D01*
X71395600Y94346494D01*
X71506064Y94046429D01*
X71567503Y93931484D01*
X71821199Y93828805D01*
X72749634Y94757240D01*
X73198646Y94757240D01*
X74127081Y93828805D01*
X74380777Y93931484D01*
X74514846Y94221773D01*
X74589706Y94532638D01*
X74597126Y94718225D01*
X92966399Y94718225D01*
X93016200Y94402374D01*
X93126664Y94102309D01*
X93188103Y93987364D01*
X93441799Y93884685D01*
X94370234Y94813120D01*
X93441799Y95741555D01*
X93188103Y95638876D01*
X93054034Y95348587D01*
X92979174Y95037722D01*
X92966399Y94718225D01*
X74597126Y94718225D01*
X74602481Y94852135D01*
X74552680Y95167986D01*
X74442216Y95468051D01*
X74380777Y95582996D01*
X74127081Y95685675D01*
X73198646Y94757240D01*
X72749634Y94757240D01*
X71821199Y95685675D01*
X71567503Y95582996D01*
X71433434Y95292707D01*
X71358574Y94981842D01*
X71345799Y94662345D01*
X70776833Y94662345D01*
X70779946Y94885275D01*
X70730208Y95136469D01*
X70632627Y95373219D01*
X70490920Y95586505D01*
X70310484Y95768206D01*
X70099997Y95910181D01*
X72045705Y95910181D01*
X72974140Y94981746D01*
X73902575Y95910181D01*
X73879959Y95966061D01*
X93666305Y95966061D01*
X94594740Y95037626D01*
X95523175Y95966061D01*
X95420496Y96219757D01*
X95130207Y96353826D01*
X94819342Y96428686D01*
X94499845Y96441461D01*
X94183994Y96391660D01*
X93883929Y96281196D01*
X93768984Y96219757D01*
X93666305Y95966061D01*
X73879959Y95966061D01*
X73799896Y96163877D01*
X73509607Y96297946D01*
X73198742Y96372806D01*
X72879245Y96385581D01*
X72563394Y96335780D01*
X72263329Y96225316D01*
X72148384Y96163877D01*
X72045705Y95910181D01*
X70099997Y95910181D01*
X70098191Y95911399D01*
X69862129Y96010630D01*
X69611288Y96062120D01*
X69355224Y96063908D01*
X69103689Y96015925D01*
X68866264Y95919999D01*
X68651993Y95779784D01*
X68469038Y95600621D01*
X68324366Y95389334D01*
X68223489Y95153970D01*
X68170249Y94903495D01*
X68166674Y94647449D01*
X68212899Y94395585D01*
X68307165Y94157496D01*
X68445881Y93942252D01*
X68623763Y93758050D01*
X68834035Y93611907D01*
X69068689Y93509389D01*
X69086730Y93505422D01*
X69086730Y80807804D01*
X69058607Y80780264D01*
X68998805Y80692925D01*
X68957106Y80595634D01*
X68935098Y80492097D01*
X68933620Y80386256D01*
X68952728Y80282145D01*
X68957398Y80270350D01*
X64693800Y80270350D01*
X64644212Y80265488D01*
X64594513Y80261140D01*
X64591787Y80260348D01*
X64588962Y80260071D01*
X64541193Y80245649D01*
X64493355Y80231750D01*
X64490839Y80230446D01*
X64488117Y80229624D01*
X64444051Y80206193D01*
X64399831Y80183272D01*
X64397613Y80181502D01*
X64395107Y80180169D01*
X64356435Y80148629D01*
X64317506Y80117552D01*
X64313556Y80113658D01*
X64313474Y80113591D01*
X64313412Y80113516D01*
X64312139Y80112261D01*
X62640210Y78440332D01*
X62640210Y98449130D01*
X120371870Y98449130D01*
X120371870Y80963299D01*
M02*
