M48
;DRILL file {KiCad 4.0.6} date 06/21/17 17:12:14
;FORMAT={-:-/ absolute / inch / decimal}
FMAT,2
INCH,TZ
T1C0.010
T2C0.020
T3C0.020
T4C0.022
T5C0.025
T6C0.030
T7C0.035
T8C0.039
T9C0.040
T10C0.043
T11C0.047
T12C0.098
%
G90
G05
M72
T1
X0.7231Y0.4268
X2.0971Y0.4509
X2.1601Y2.9722
X2.3006Y0.726
X2.419Y2.7862
X2.4359Y1.426
X2.4375Y2.7205
X2.4514Y1.1384
X2.4669Y1.076
X2.4834Y2.8312
X2.4834Y2.7975
X2.4834Y2.7639
X2.493Y3.0312
X2.5331Y3.0273
X2.5374Y2.1266
X2.5521Y2.978
X2.5719Y2.7491
X2.5719Y2.7078
X2.5719Y2.6664
X2.5719Y2.6251
X2.5747Y2.926
X2.5771Y3.0419
X2.5937Y2.8767
X2.6021Y3.5618
X2.6021Y3.3618
X2.6021Y1.9618
X2.6021Y1.7618
X2.6021Y1.5618
X2.6021Y1.3618
X2.6021Y1.1618
X2.6021Y0.9618
X2.6021Y0.7618
X2.6021Y0.5618
X2.6021Y0.3618
X2.6132Y2.7491
X2.6132Y2.7078
X2.6132Y2.6664
X2.6132Y2.6251
X2.6272Y2.3117
X2.6335Y2.8449
X2.6546Y2.7491
X2.6546Y2.7078
X2.6546Y2.6664
X2.6546Y2.6251
X2.6583Y2.8938
X2.6949Y2.8462
X2.6959Y2.7491
X2.6959Y2.7078
X2.6959Y2.6664
X2.6959Y2.6251
X2.7022Y2.2117
X2.7128Y2.5361
X2.7202Y2.506
X2.7352Y3.1666
X2.7352Y3.1114
X2.7809Y2.6162
X2.7844Y2.6576
X2.8021Y1.9618
X2.8021Y1.7618
X2.8021Y1.5618
X2.8021Y1.3618
X2.8021Y1.1618
X2.8021Y0.9618
X2.8021Y0.7618
X2.8021Y0.5618
X2.8021Y0.3618
X2.8521Y3.5618
X2.8521Y3.3618
X3.0021Y1.7618
X3.0021Y1.5618
X3.0021Y1.3618
X3.0021Y1.1618
X3.0021Y0.9618
X3.0021Y0.7618
X3.0021Y0.5618
X3.0021Y0.3618
X3.0521Y3.7618
X3.0521Y3.5618
X3.0521Y3.1618
X3.1021Y2.5018
X3.2021Y1.5618
X3.2021Y1.3618
X3.2021Y1.1618
X3.2021Y0.9618
X3.2021Y0.7618
X3.2021Y0.5618
X3.2021Y0.3618
X3.2521Y3.7618
X3.2521Y3.3618
X3.2521Y3.1618
X3.2521Y2.9618
X3.3021Y2.5018
X3.4021Y1.3618
X3.4021Y1.1618
X3.4021Y0.9618
X3.4021Y0.7618
X3.4021Y0.5618
X3.4021Y0.3618
X3.4521Y3.7618
X3.4521Y3.3618
X3.4521Y3.1618
X3.4521Y2.9618
X3.5021Y2.5018
X3.6521Y3.3618
X3.6521Y3.1618
X3.6521Y2.9618
X3.7021Y2.5018
X3.8021Y1.3618
X3.8021Y0.5618
X3.8021Y0.3618
X3.8521Y3.3618
X3.8521Y3.1618
X3.8521Y2.9618
X3.9021Y2.3018
X4.0021Y1.3618
X4.0021Y1.1618
X4.0021Y0.5618
X4.0021Y0.3618
X4.0521Y3.3618
X4.0521Y3.1618
X4.0521Y2.9618
X4.1021Y2.1018
X4.2021Y1.3618
X4.2021Y1.1618
X4.2021Y0.9618
X4.2021Y0.5618
X4.2021Y0.3618
X4.2521Y3.1618
X4.2521Y2.9618
X4.3021Y1.9018
X4.4021Y1.3618
X4.4021Y1.1618
X4.4021Y0.9618
X4.4021Y0.7618
X4.4021Y0.5618
X4.5771Y2.7618
X4.5771Y2.5618
X4.5771Y2.3618
X4.5771Y2.1618
X4.5771Y1.9618
T3
X0.7782Y0.417
X1.2574Y0.417
X2.7375Y2.3678
X2.7521Y2.4726
X2.7896Y2.5415
X2.8132Y2.3678
X2.9179Y2.4725
X3.0052Y2.8969
X3.0052Y2.6093
X3.0486Y2.8969
X3.0486Y2.6093
T5
X2.4092Y3.0012
X3.7248Y1.5301
X3.7248Y0.6641
X3.8038Y1.5301
X3.8038Y0.6641
X3.8828Y1.5301
X3.8828Y0.6641
X3.9618Y1.5301
X3.9618Y0.6641
X4.0408Y1.5301
X4.0408Y0.6641
X4.1198Y1.5301
X4.1198Y0.6641
X4.1988Y1.5301
X4.1988Y0.6641
X4.2778Y1.5301
X4.2778Y0.6641
X4.3568Y1.5301
X4.3568Y0.6641
X4.4358Y1.5301
X4.4358Y0.6641
T6
X2.773Y3.18
T7
X0.4343Y0.3283
X0.4343Y0.2283
X0.5343Y0.3283
X0.5343Y0.2283
X0.6343Y0.3283
X0.6343Y0.2283
X0.7343Y0.3283
X0.7343Y0.2283
X0.8343Y0.3283
X0.8343Y0.2283
X0.9343Y0.3283
X0.9343Y0.2283
X1.0343Y0.3283
X1.0343Y0.2283
X1.1343Y0.3283
X1.1343Y0.2283
X1.2343Y0.3283
X1.2343Y0.2283
X1.3343Y0.3283
X1.3343Y0.2283
X4.5062Y3.2226
X4.5062Y2.9987
X4.5063Y1.911
T8
X4.4268Y3.2607
X4.4268Y3.1607
X4.4268Y3.0607
X4.4268Y2.9607
X4.4268Y2.8607
X4.4268Y2.7607
X4.4268Y2.6607
X4.4268Y2.5607
X4.4268Y2.4607
X4.4268Y2.3607
X4.4268Y2.2607
X4.4268Y2.1607
X4.4268Y2.0607
X4.4268Y1.9607
X4.4268Y1.8607
X4.4268Y1.7607
T9
X2.7352Y3.7306
X2.873Y3.7306
X3.7242Y3.7328
X3.7441Y0.1545
X3.862Y3.7328
X3.8819Y0.1545
X4.0692Y3.7328
X4.207Y3.7328
T10
X0.6343Y1.076
X0.6343Y0.8792
X0.8311Y1.076
X0.8311Y0.8792
X0.9843Y1.426
X0.9843Y1.2292
X0.9843Y0.726
X0.9843Y0.5292
X1.1811Y1.426
X1.1811Y1.2292
X1.1811Y0.726
X1.1811Y0.5292
X1.3343Y1.076
X1.3343Y0.8792
X1.5311Y1.076
X1.5311Y0.8792
X1.7843Y0.376
X1.7843Y0.1792
X1.9811Y0.376
X1.9811Y0.1792
T11
X4.5961Y3.0607
X4.6961Y3.1607
X4.6961Y2.9607
T12
X2.2614Y3.556
X2.2614Y0.3276
X4.4268Y3.556
X4.4268Y0.3276
T2
X2.5946Y0.0442G85X2.5946Y0.0698
G05
X2.8702Y0.0442G85X2.8702Y0.0698
G05
T4
X2.6281Y0.1633G85X2.6399Y0.1633
G05
X2.8249Y0.1633G85X2.8367Y0.1633
G05
T0
M30
