G04 #@! TF.FileFunction,Soldermask,Bot*
%FSLAX46Y46*%
G04 Gerber Fmt 4.6, Leading zero omitted, Abs format (unit mm)*
G04 Created by KiCad (PCBNEW 4.0.5) date 05/05/17 19:05:09*
%MOMM*%
%LPD*%
G01*
G04 APERTURE LIST*
%ADD10C,0.025400*%
%ADD11O,1.402400X1.102400*%
%ADD12O,1.152400X1.702400*%
%ADD13C,1.592400*%
%ADD14R,1.402400X1.652400*%
%ADD15R,0.902400X1.352400*%
%ADD16R,0.652400X0.752400*%
%ADD17R,0.752400X0.652400*%
%ADD18R,1.676400X1.676400*%
%ADD19C,1.676400*%
%ADD20C,2.352400*%
%ADD21C,2.152400*%
%ADD22C,5.152400*%
%ADD23C,1.422400*%
G04 APERTURE END LIST*
D10*
D11*
X66902960Y4208760D03*
X71902960Y4208760D03*
D12*
X65902960Y1508760D03*
X72902960Y1508760D03*
D13*
X117744240Y80284320D03*
X117744240Y77744320D03*
X117744240Y75204320D03*
D14*
X70228460Y62054420D03*
X70228460Y64554420D03*
D15*
X61193680Y73014880D03*
X61193680Y71114880D03*
D16*
X62298580Y73013660D03*
X62298580Y71913660D03*
D17*
X112505580Y41836340D03*
X111405580Y41836340D03*
X112505580Y40982900D03*
X111405580Y40982900D03*
X112505580Y40129460D03*
X111405580Y40129460D03*
D16*
X2113280Y25680580D03*
X2113280Y26780580D03*
D17*
X70595580Y67503040D03*
X69495580Y67503040D03*
X68855680Y63652400D03*
X67755680Y63652400D03*
D16*
X68450460Y71946860D03*
X68450460Y70846860D03*
X68905120Y64555280D03*
X68905120Y65655280D03*
D17*
X63206540Y70205600D03*
X64306540Y70205600D03*
X63206540Y71059040D03*
X64306540Y71059040D03*
X63206540Y71912480D03*
X64306540Y71912480D03*
X68855680Y62798960D03*
X67755680Y62798960D03*
X62020360Y69100700D03*
X63120360Y69100700D03*
D18*
X4366260Y27216100D03*
D19*
X6906260Y27216100D03*
X4366260Y24676100D03*
X6906260Y24676100D03*
X4366260Y22136100D03*
X6906260Y22136100D03*
X4366260Y19596100D03*
X6906260Y19596100D03*
X4366260Y17056100D03*
X6906260Y17056100D03*
X4366260Y14516100D03*
X6906260Y14516100D03*
X4366260Y11976100D03*
X6906260Y11976100D03*
X4366260Y9436100D03*
X6906260Y9436100D03*
X4366260Y6896100D03*
X6906260Y6896100D03*
X4366260Y4356100D03*
X6906260Y4356100D03*
D18*
X117744240Y92631260D03*
D19*
X117744240Y95171260D03*
D18*
X117746780Y13256260D03*
D19*
X117746780Y10716260D03*
D18*
X117744240Y84391500D03*
D19*
X117744240Y86931500D03*
D20*
X50315500Y10196200D03*
X50315500Y5196200D03*
X45315500Y10196200D03*
X45315500Y5196200D03*
X41351840Y24862160D03*
X41351840Y19862160D03*
X36351840Y24862160D03*
X36351840Y19862160D03*
X18339440Y24862160D03*
X18339440Y19862160D03*
X13339440Y24862160D03*
X13339440Y19862160D03*
X29845640Y36368360D03*
X29845640Y31368360D03*
X24845640Y36368360D03*
X24845640Y31368360D03*
X29845640Y13355960D03*
X29845640Y8355960D03*
X24845640Y13355960D03*
X24845640Y8355960D03*
D21*
X112440140Y57421720D03*
X112440140Y54881720D03*
X112440140Y52341720D03*
X112440140Y49801720D03*
X112440140Y47261720D03*
X112440140Y44721720D03*
X112440140Y59961720D03*
X112440140Y62501720D03*
X112440140Y65041720D03*
X112440140Y67581720D03*
X112440140Y70121720D03*
D22*
X112440140Y90321720D03*
X57440140Y90321720D03*
X57440140Y8321720D03*
X112440140Y8321720D03*
D21*
X112440140Y82821720D03*
X112440140Y80281720D03*
X112440140Y77741720D03*
X112440140Y75201720D03*
X112440140Y72661720D03*
D23*
X94447360Y16408400D03*
X104480360Y16408400D03*
X106486960Y16408400D03*
X108493560Y16408400D03*
X110500160Y16408400D03*
X112506760Y16408400D03*
X102473760Y16408400D03*
X100467160Y16408400D03*
X98460560Y16408400D03*
X96453960Y16408400D03*
X96453960Y38404800D03*
X98460560Y38404800D03*
X100467160Y38404800D03*
X102473760Y38404800D03*
X112506760Y38404800D03*
X110500160Y38404800D03*
X108493560Y38404800D03*
X106486960Y38404800D03*
X104480360Y38404800D03*
X94447360Y38404800D03*
M02*
