M48
;DRILL file {KiCad 4.0.5} date 05/05/17 19:05:10
;FORMAT={-:-/ absolute / inch / decimal}
FMAT,2
INCH,TZ
T1C0.010
T2C0.020
T3C0.020
T4C0.022
T5C0.025
T6C0.030
T7C0.031
T8C0.039
T9C0.043
T10C0.098
%
G90
G05
M72
T1
X2.2211Y2.7858
X2.3151Y2.7858
X2.419Y2.7862
X2.4375Y2.7205
X2.4834Y2.8312
X2.4834Y2.7975
X2.4834Y2.7639
X2.5551Y3.0478
X2.5621Y3.0058
X2.5719Y2.7491
X2.5719Y2.7078
X2.5719Y2.6664
X2.5719Y2.6251
X2.5731Y3.7928
X2.5731Y3.5928
X2.5731Y3.3928
X2.5951Y2.9998
X2.5991Y2.9078
X2.6021Y1.9618
X2.6021Y1.7618
X2.6021Y1.5618
X2.6021Y1.3618
X2.6021Y1.1618
X2.6021Y0.9618
X2.6021Y0.7618
X2.6021Y0.5618
X2.6021Y0.3618
X2.6051Y2.9438
X2.6071Y3.0878
X2.6132Y2.7491
X2.6132Y2.7078
X2.6132Y2.6664
X2.6132Y2.6251
X2.6411Y2.9958
X2.6488Y2.1386
X2.6546Y2.7491
X2.6546Y2.7078
X2.6546Y2.6664
X2.6546Y2.6251
X2.6611Y3.0468
X2.6949Y2.8462
X2.6959Y2.7491
X2.6959Y2.7078
X2.6959Y2.6664
X2.6959Y2.6251
X2.7128Y2.5361
X2.7202Y2.506
X2.7251Y3.0298
X2.7281Y2.9348
X2.7381Y2.9748
X2.7731Y3.7928
X2.7731Y3.5928
X2.7731Y3.3928
X2.7844Y2.6576
X2.8021Y1.9618
X2.8021Y1.7618
X2.8021Y1.5618
X2.8021Y1.3618
X2.8021Y1.1618
X2.8021Y0.9618
X2.8021Y0.7618
X2.8021Y0.5618
X2.8021Y0.3618
X2.8121Y2.4684
X2.9731Y3.7928
X2.9731Y3.5928
X2.9731Y3.1878
X2.9731Y2.2628
X3.0021Y1.7618
X3.0021Y1.5618
X3.0021Y1.3618
X3.0021Y1.1618
X3.0021Y0.9618
X3.0021Y0.7618
X3.0021Y0.5618
X3.0021Y0.3618
X3.0221Y0.1148
X3.1731Y3.7928
X3.1731Y3.3878
X3.1731Y3.1878
X3.1731Y2.9878
X3.1731Y2.7378
X3.1731Y2.5378
X3.1731Y2.2628
X3.1731Y2.0628
X3.2021Y1.5618
X3.2021Y1.3618
X3.2021Y1.1618
X3.2021Y0.9618
X3.2021Y0.7618
X3.2021Y0.5618
X3.2021Y0.3618
X3.2221Y0.1148
X3.3731Y3.7928
X3.3731Y3.5878
X3.3731Y3.3878
X3.3731Y3.1878
X3.3731Y2.9878
X3.3731Y2.7378
X3.3731Y2.5378
X3.3731Y2.2628
X3.3731Y2.0628
X3.3731Y1.8628
X3.4021Y1.3618
X3.4021Y1.1618
X3.4021Y0.9618
X3.4021Y0.7618
X3.4021Y0.5618
X3.4021Y0.3618
X3.4221Y0.1148
X3.5731Y3.7928
X3.5731Y3.5878
X3.5731Y3.3878
X3.5731Y3.1878
X3.5731Y2.9878
X3.5731Y2.7378
X3.5731Y2.5378
X3.5731Y2.0628
X3.5731Y1.8628
X3.5731Y1.6628
X3.6021Y1.1618
X3.6021Y0.9618
X3.6021Y0.7618
X3.6021Y0.5618
X3.6021Y0.3618
X3.6221Y0.1148
X3.7731Y3.7928
X3.7731Y3.5878
X3.7731Y3.3878
X3.7731Y3.1878
X3.7731Y2.9878
X3.7731Y2.5378
X3.7731Y1.8628
X3.7731Y1.6628
X3.7891Y1.3818
X3.8021Y0.9618
X3.8021Y0.7618
X3.8021Y0.4618
X3.8221Y0.1148
X3.8701Y2.2928
X3.9731Y3.7928
X3.9731Y3.5878
X3.9731Y3.3878
X3.9731Y3.1878
X3.9731Y2.9878
X3.9731Y1.6628
X3.9801Y2.2928
X3.9801Y2.1828
X3.9891Y1.3818
X3.9891Y1.1818
X4.0021Y0.4618
X4.0221Y0.1148
X4.0901Y2.7388
X4.0901Y2.1828
X4.0901Y2.0728
X4.1731Y3.7928
X4.1731Y3.5878
X4.1731Y3.3878
X4.1731Y3.1878
X4.1731Y2.9878
X4.1891Y1.3818
X4.1891Y1.1818
X4.1891Y0.9818
X4.2001Y2.0728
X4.2001Y1.9628
X4.2021Y0.4618
X4.2221Y0.1148
X4.3101Y2.7388
X4.3101Y2.5188
X4.3101Y1.9628
X4.3731Y3.7928
X4.3891Y1.3818
X4.3891Y1.1818
X4.3891Y0.9818
X4.4221Y0.1148
X4.5841Y2.6708
X4.5841Y2.4708
X4.5841Y2.2708
X4.5841Y2.0708
X4.6221Y0.1148
X4.6291Y1.6858
X4.6291Y1.2858
X4.6291Y1.0858
X4.6291Y0.8858
X4.6291Y0.6858
T3
X2.4527Y3.0447
X2.7384Y2.3669
X2.7521Y2.4726
X2.8224Y2.3669
X2.8422Y2.5415
X2.9288Y2.4733
X3.0052Y2.9134
X3.0052Y2.7914
X3.0486Y2.9134
X3.0486Y2.7913
T5
X3.7184Y1.512
X3.7184Y0.646
X3.7974Y1.512
X3.7974Y0.646
X3.8764Y1.512
X3.8764Y0.646
X3.9554Y1.512
X3.9554Y0.646
X4.0344Y1.512
X4.0344Y0.646
X4.1134Y1.512
X4.1134Y0.646
X4.1924Y1.512
X4.1924Y0.646
X4.2714Y1.512
X4.2714Y0.646
X4.3504Y1.512
X4.3504Y0.646
X4.4294Y1.512
X4.4294Y0.646
T6
X0.0832Y0.5231
X0.1719Y1.0715
X0.1719Y0.9715
X0.1719Y0.8715
X0.1719Y0.7715
X0.1719Y0.6715
X0.1719Y0.5715
X0.1719Y0.4715
X0.1719Y0.3715
X0.1719Y0.2715
X0.1719Y0.1715
X0.2719Y1.0715
X0.2719Y0.9715
X0.2719Y0.8715
X0.2719Y0.7715
X0.2719Y0.6715
X0.2719Y0.5715
X0.2719Y0.4715
X0.2719Y0.3715
X0.2719Y0.2715
X0.2719Y0.1715
X2.773Y3.18
X4.6356Y3.7469
X4.6356Y3.6469
X4.6356Y3.4225
X4.6356Y3.3225
X4.6357Y0.5219
X4.6357Y0.4219
T7
X4.6356Y3.1608
X4.6356Y3.0608
X4.6356Y2.9608
T8
X4.4268Y3.2607
X4.4268Y3.1607
X4.4268Y3.0607
X4.4268Y2.9607
X4.4268Y2.8607
X4.4268Y2.7607
X4.4268Y2.6607
X4.4268Y2.5607
X4.4268Y2.4607
X4.4268Y2.3607
X4.4268Y2.2607
X4.4268Y2.1607
X4.4268Y2.0607
X4.4268Y1.9607
X4.4268Y1.8607
X4.4268Y1.7607
T9
X0.5252Y0.9788
X0.5252Y0.782
X0.722Y0.9788
X0.722Y0.782
X0.9782Y1.4318
X0.9782Y1.235
X0.9782Y0.5258
X0.9782Y0.329
X1.175Y1.4318
X1.175Y1.235
X1.175Y0.5258
X1.175Y0.329
X1.4312Y0.9788
X1.4312Y0.782
X1.628Y0.9788
X1.628Y0.782
X1.7841Y0.4014
X1.7841Y0.2046
X1.9809Y0.4014
X1.9809Y0.2046
T10
X2.2614Y3.556
X2.2614Y0.3276
X4.4268Y3.556
X4.4268Y0.3276
T2
X2.5946Y0.0466G85X2.5946Y0.0722
G05
X2.8702Y0.0466G85X2.8702Y0.0722
G05
T4
X2.6281Y0.1657G85X2.6399Y0.1657
G05
X2.8249Y0.1657G85X2.8367Y0.1657
G05
T0
M30
