G04 #@! TF.FileFunction,Soldermask,Bot*
%FSLAX46Y46*%
G04 Gerber Fmt 4.6, Leading zero omitted, Abs format (unit mm)*
G04 Created by KiCad (PCBNEW 4.0.5) date 04/12/17 17:38:15*
%MOMM*%
%LPD*%
G01*
G04 APERTURE LIST*
%ADD10C,0.025400*%
%ADD11C,2.152400*%
%ADD12C,5.152400*%
%ADD13R,1.152400X1.152400*%
%ADD14O,1.152400X1.152400*%
%ADD15R,0.752400X0.652400*%
%ADD16R,0.652400X0.752400*%
%ADD17C,0.914400*%
%ADD18C,0.939800*%
%ADD19R,1.952400X2.252400*%
%ADD20R,0.902400X1.352400*%
%ADD21R,1.402400X1.652400*%
%ADD22R,6.632400X2.572400*%
%ADD23C,1.592400*%
%ADD24O,1.402400X1.102400*%
%ADD25O,1.152400X1.702400*%
G04 APERTURE END LIST*
D10*
D11*
X69168700Y61175200D03*
X69168700Y58635200D03*
X69168700Y56095200D03*
X69168700Y53555200D03*
X69168700Y51015200D03*
X69168700Y48475200D03*
X69168700Y63715200D03*
X69168700Y66255200D03*
X69168700Y68795200D03*
X69168700Y71335200D03*
X69168700Y73875200D03*
D12*
X69168700Y96575200D03*
X14168700Y96575200D03*
X14168700Y14575200D03*
X69168700Y14575200D03*
D11*
X69168700Y86575200D03*
X69168700Y84035200D03*
X69168700Y81495200D03*
X69168700Y78955200D03*
X69168700Y76415200D03*
D13*
X8547100Y41643300D03*
D14*
X6007100Y41643300D03*
X8547100Y39103300D03*
X6007100Y39103300D03*
X8547100Y36563300D03*
X6007100Y36563300D03*
X8547100Y34023300D03*
X6007100Y34023300D03*
X8547100Y31483300D03*
X6007100Y31483300D03*
X8547100Y28943300D03*
X6007100Y28943300D03*
X8547100Y26403300D03*
X6007100Y26403300D03*
X8547100Y23863300D03*
X6007100Y23863300D03*
X8547100Y21323300D03*
X6007100Y21323300D03*
X8547100Y18783300D03*
X6007100Y18783300D03*
D15*
X16274960Y67637660D03*
X17374960Y67637660D03*
D16*
X22743160Y62787440D03*
X22743160Y63887440D03*
D17*
X52451000Y20675600D03*
X62484000Y20675600D03*
X64490600Y20675600D03*
X66497200Y20675600D03*
X68503800Y20675600D03*
X70510400Y20675600D03*
X60477400Y20675600D03*
X58470800Y20675600D03*
X56464200Y20675600D03*
X54457600Y20675600D03*
X54457600Y42672000D03*
X56464200Y42672000D03*
X58470800Y42672000D03*
X60477400Y42672000D03*
X70510400Y42672000D03*
X68503800Y42672000D03*
X66497200Y42672000D03*
X64490600Y42672000D03*
X62484000Y42672000D03*
D18*
X52451000Y42672000D03*
D19*
X19793600Y74792500D03*
X19793600Y71892500D03*
X17493600Y71892500D03*
X17493600Y74792500D03*
D16*
X26509980Y65540800D03*
X26509980Y66640800D03*
D15*
X26508800Y68038980D03*
X25408800Y68038980D03*
D16*
X21343620Y74042360D03*
X21343620Y72942360D03*
D15*
X18093600Y70139560D03*
X19193600Y70139560D03*
X17468760Y68747640D03*
X18568760Y68747640D03*
D16*
X25290780Y63092240D03*
X25290780Y64192240D03*
X22743160Y70732740D03*
X22743160Y69632740D03*
X21943060Y62787440D03*
X21943060Y63887440D03*
D15*
X24908600Y66040000D03*
X23808600Y66040000D03*
X70514300Y43624500D03*
X69414300Y43624500D03*
X70514300Y44424600D03*
X69414300Y44424600D03*
X70514300Y45224700D03*
X69414300Y45224700D03*
D20*
X15430500Y73390800D03*
X15430500Y71490800D03*
D21*
X24013160Y60591380D03*
X24013160Y63091380D03*
D13*
X76657200Y95440500D03*
D14*
X76657200Y97980500D03*
D22*
X3234500Y72566300D03*
X3234500Y63806300D03*
D23*
X75105260Y84035900D03*
X75105260Y81495900D03*
X75105260Y78955900D03*
D24*
X39181400Y4147800D03*
X44181400Y4147800D03*
D25*
X38181400Y1447800D03*
X45181400Y1447800D03*
D13*
X24269700Y1574800D03*
D14*
X21729700Y1574800D03*
D13*
X7277100Y1574800D03*
D14*
X7277100Y4114800D03*
D13*
X12979400Y7277100D03*
D14*
X10439400Y7277100D03*
D13*
X1574800Y7277100D03*
D14*
X4114800Y7277100D03*
D13*
X7277100Y12979400D03*
D14*
X7277100Y10439400D03*
D13*
X59093100Y1574800D03*
D14*
X61633100Y1574800D03*
D13*
X64973200Y105359200D03*
D14*
X62433200Y105359200D03*
M02*
