G04 #@! TF.FileFunction,Soldermask,Top*
%FSLAX46Y46*%
G04 Gerber Fmt 4.6, Leading zero omitted, Abs format (unit mm)*
G04 Created by KiCad (PCBNEW 4.0.5) date 05/07/17 15:27:17*
%MOMM*%
%LPD*%
G01*
G04 APERTURE LIST*
%ADD10C,0.025400*%
%ADD11R,0.552400X1.502400*%
%ADD12O,1.402400X1.102400*%
%ADD13O,1.152400X1.702400*%
%ADD14R,1.652400X1.702400*%
%ADD15R,1.102400X1.702400*%
%ADD16R,1.352400X0.352400*%
%ADD17C,1.592400*%
%ADD18R,0.652400X0.752400*%
%ADD19R,0.952400X1.052400*%
%ADD20R,1.952400X1.152400*%
%ADD21R,0.752400X0.652400*%
%ADD22R,0.952400X0.352400*%
%ADD23R,0.352400X0.952400*%
%ADD24R,1.202400X1.202400*%
%ADD25R,1.676400X1.676400*%
%ADD26C,1.676400*%
%ADD27C,2.352400*%
%ADD28C,2.152400*%
%ADD29C,5.152400*%
%ADD30C,1.422400*%
%ADD31R,2.592400X2.592400*%
%ADD32C,2.202400*%
%ADD33C,0.254000*%
G04 APERTURE END LIST*
D10*
D11*
X68102960Y4208760D03*
X68752960Y4208760D03*
X69402960Y4208760D03*
X70052960Y4208760D03*
X70702960Y4208760D03*
D12*
X66902960Y4208760D03*
X71902960Y4208760D03*
D13*
X65902960Y1508760D03*
X72902960Y1508760D03*
D14*
X68402960Y1508760D03*
X70402960Y1508760D03*
D15*
X66627960Y1508760D03*
X72177960Y1508760D03*
D16*
X66502960Y2183760D03*
X66502960Y833760D03*
X72302960Y2183760D03*
X72302960Y833760D03*
D17*
X117744240Y80284320D03*
X117744240Y77744320D03*
X117744240Y75204320D03*
D18*
X107269280Y45822960D03*
X107269280Y44722960D03*
D19*
X108524000Y44722540D03*
X110424000Y44722540D03*
X109474000Y46722540D03*
D20*
X72158860Y67002340D03*
X72158860Y69502340D03*
D21*
X115208140Y47261780D03*
X114108140Y47261780D03*
D18*
X116111020Y47260600D03*
X116111020Y46160600D03*
D22*
X63901060Y70452340D03*
X63901060Y70052340D03*
X63901060Y69652340D03*
X63901060Y69252340D03*
X63901060Y68852340D03*
X63901060Y68452340D03*
X63901060Y68052340D03*
X63901060Y67652340D03*
X63901060Y67252340D03*
X63901060Y66852340D03*
X63901060Y66452340D03*
X63901060Y66052340D03*
D23*
X64701060Y65252340D03*
X65101060Y65252340D03*
X65501060Y65252340D03*
X65901060Y65252340D03*
X66301060Y65252340D03*
X66701060Y65252340D03*
X67101060Y65252340D03*
X67501060Y65252340D03*
X67901060Y65252340D03*
X68301060Y65252340D03*
X68701060Y65252340D03*
X69101060Y65252340D03*
D22*
X69901060Y66052340D03*
X69901060Y66452340D03*
X69901060Y66852340D03*
X69901060Y67252340D03*
X69901060Y67652340D03*
X69901060Y68052340D03*
X69901060Y68452340D03*
X69901060Y68852340D03*
X69901060Y69252340D03*
X69901060Y69652340D03*
X69901060Y70052340D03*
X69901060Y70452340D03*
D23*
X69101060Y71252340D03*
X68701060Y71252340D03*
X68301060Y71252340D03*
X67901060Y71252340D03*
X67501060Y71252340D03*
X67101060Y71252340D03*
X66701060Y71252340D03*
X66301060Y71252340D03*
X65901060Y71252340D03*
X65501060Y71252340D03*
X65101060Y71252340D03*
X64701060Y71252340D03*
D24*
X68476060Y66677340D03*
X68476060Y67727340D03*
X68476060Y68777340D03*
X68476060Y69827340D03*
X67426060Y66677340D03*
X67426060Y67727340D03*
X67426060Y68777340D03*
X67426060Y69827340D03*
X66376060Y66677340D03*
X66376060Y67727340D03*
X66376060Y68777340D03*
X66376060Y69827340D03*
X65326060Y66677340D03*
X65326060Y67727340D03*
X65326060Y68777340D03*
X65326060Y69827340D03*
D21*
X68502440Y62804040D03*
X69602440Y62804040D03*
D18*
X2113280Y22686100D03*
X2113280Y21586100D03*
X2113280Y11426100D03*
X2113280Y12526100D03*
D10*
G36*
X64040936Y74847059D02*
X63579619Y75308376D01*
X64111646Y75840403D01*
X64572963Y75379086D01*
X64040936Y74847059D01*
X64040936Y74847059D01*
G37*
G36*
X64818754Y75624877D02*
X64357437Y76086194D01*
X64889464Y76618221D01*
X65350781Y76156904D01*
X64818754Y75624877D01*
X64818754Y75624877D01*
G37*
G36*
X68589281Y75044216D02*
X68127964Y74582899D01*
X67595937Y75114926D01*
X68057254Y75576243D01*
X68589281Y75044216D01*
X68589281Y75044216D01*
G37*
G36*
X67811463Y75822034D02*
X67350146Y75360717D01*
X66818119Y75892744D01*
X67279436Y76354061D01*
X67811463Y75822034D01*
X67811463Y75822034D01*
G37*
D25*
X4366260Y27216100D03*
D26*
X6906260Y27216100D03*
X4366260Y24676100D03*
X6906260Y24676100D03*
X4366260Y22136100D03*
X6906260Y22136100D03*
X4366260Y19596100D03*
X6906260Y19596100D03*
X4366260Y17056100D03*
X6906260Y17056100D03*
X4366260Y14516100D03*
X6906260Y14516100D03*
X4366260Y11976100D03*
X6906260Y11976100D03*
X4366260Y9436100D03*
X6906260Y9436100D03*
X4366260Y6896100D03*
X6906260Y6896100D03*
X4366260Y4356100D03*
X6906260Y4356100D03*
D25*
X117744240Y92631260D03*
D26*
X117744240Y95171260D03*
D25*
X117746780Y13256260D03*
D26*
X117746780Y10716260D03*
D25*
X117744240Y84391500D03*
D26*
X117744240Y86931500D03*
D27*
X50315500Y10196200D03*
X50315500Y5196200D03*
X45315500Y10196200D03*
X45315500Y5196200D03*
X41351840Y24862160D03*
X41351840Y19862160D03*
X36351840Y24862160D03*
X36351840Y19862160D03*
X18339440Y24862160D03*
X18339440Y19862160D03*
X13339440Y24862160D03*
X13339440Y19862160D03*
X29845640Y36368360D03*
X29845640Y31368360D03*
X24845640Y36368360D03*
X24845640Y31368360D03*
X29845640Y13355960D03*
X29845640Y8355960D03*
X24845640Y13355960D03*
X24845640Y8355960D03*
D10*
G36*
X68074936Y74141083D02*
X67260066Y73326213D01*
X66339130Y74247149D01*
X67154000Y75062019D01*
X68074936Y74141083D01*
X68074936Y74141083D01*
G37*
G36*
X66837499Y75378520D02*
X66022629Y74563650D01*
X65101693Y75484586D01*
X65916563Y76299456D01*
X66837499Y75378520D01*
X66837499Y75378520D01*
G37*
G36*
X65847550Y74388571D02*
X65032680Y73573701D01*
X64111744Y74494637D01*
X64926614Y75309507D01*
X65847550Y74388571D01*
X65847550Y74388571D01*
G37*
G36*
X67084987Y73151134D02*
X66270117Y72336264D01*
X65349181Y73257200D01*
X66164051Y74072070D01*
X67084987Y73151134D01*
X67084987Y73151134D01*
G37*
D28*
X112440140Y57421720D03*
X112440140Y54881720D03*
X112440140Y52341720D03*
X112440140Y49801720D03*
X112440140Y47261720D03*
X112440140Y44721720D03*
X112440140Y59961720D03*
X112440140Y62501720D03*
X112440140Y65041720D03*
X112440140Y67581720D03*
X112440140Y70121720D03*
D29*
X112440140Y90321720D03*
X57440140Y90321720D03*
X57440140Y8321720D03*
X112440140Y8321720D03*
D28*
X112440140Y82821720D03*
X112440140Y80281720D03*
X112440140Y77741720D03*
X112440140Y75201720D03*
X112440140Y72661720D03*
D30*
X94447360Y16408400D03*
X104480360Y16408400D03*
X106486960Y16408400D03*
X108493560Y16408400D03*
X110500160Y16408400D03*
X112506760Y16408400D03*
X102473760Y16408400D03*
X100467160Y16408400D03*
X98460560Y16408400D03*
X96453960Y16408400D03*
X96453960Y38404800D03*
X98460560Y38404800D03*
X100467160Y38404800D03*
X102473760Y38404800D03*
X112506760Y38404800D03*
X110500160Y38404800D03*
X108493560Y38404800D03*
X106486960Y38404800D03*
X104480360Y38404800D03*
X94447360Y38404800D03*
D31*
X59101340Y72311880D03*
X53781340Y72311880D03*
X59101340Y66991880D03*
D32*
X56441340Y69651880D03*
D31*
X53781340Y66991880D03*
D33*
G36*
X38163500Y55618380D02*
X7556500Y55618380D01*
X7556500Y90670380D01*
X38163500Y90670380D01*
X38163500Y55618380D01*
X38163500Y55618380D01*
G37*
X38163500Y55618380D02*
X7556500Y55618380D01*
X7556500Y90670380D01*
X38163500Y90670380D01*
X38163500Y55618380D01*
G36*
X50952400Y70032880D02*
X50647600Y70032880D01*
X50647600Y95204280D01*
X50952400Y95204280D01*
X50952400Y70032880D01*
X50952400Y70032880D01*
G37*
X50952400Y70032880D02*
X50647600Y70032880D01*
X50647600Y95204280D01*
X50952400Y95204280D01*
X50952400Y70032880D01*
M02*
