M48
;DRILL file {KiCad 4.0.6} date 03/28/17 11:19:30
;FORMAT={-:-/ absolute / inch / decimal}
FMAT,2
INCH,TZ
T1C0.010
T2C0.018
T3C0.020
T4C0.020
T5C0.025
T6C0.025
%
G90
G05
M72
T1
X0.0525Y0.2425
X0.105Y1.5425
X0.105Y1.4425
X0.105Y1.3425
X0.105Y0.7725
X0.105Y0.6725
X0.16Y0.2675
X0.205Y1.5425
X0.205Y1.4425
X0.205Y1.3425
X0.205Y0.7725
X0.304Y0.242
X0.305Y1.5425
X0.305Y1.4425
X0.305Y1.3425
X0.305Y1.2425
X0.305Y1.1425
X0.305Y0.9725
X0.305Y0.8725
X0.305Y0.7725
X0.31Y0.114
X0.405Y1.5425
X0.405Y1.4425
X0.405Y1.3425
X0.405Y1.2425
X0.405Y1.1425
X0.405Y0.9725
X0.405Y0.8725
X0.405Y0.775
X0.505Y1.5425
X0.505Y1.4425
X0.505Y1.3425
X0.505Y1.1425
X0.505Y0.9725
X0.5625Y1.0875
X0.59Y1.1103
X0.61Y0.114
X0.64Y1.0375
X0.695Y0.82
X0.704Y0.242
X0.725Y1.155
X0.738Y1.062
X0.738Y1.0207
X0.738Y0.9793
X0.738Y0.938
X0.7775Y1.235
X0.7793Y1.062
X0.7793Y1.0207
X0.7793Y0.9793
X0.7793Y0.938
X0.81Y0.2675
X0.8207Y1.062
X0.8207Y1.0207
X0.8207Y0.9793
X0.8207Y0.938
X0.835Y0.3625
X0.845Y0.78
X0.862Y1.062
X0.862Y1.0207
X0.862Y0.9793
X0.862Y0.938
X0.8725Y0.9025
X0.8825Y1.23
X0.8825Y1.175
X0.9475Y0.975
X0.95Y0.817
X0.955Y0.77
X1.035Y0.3625
X1.222Y0.1125
X1.2225Y0.1525
X1.235Y0.3625
X2.325Y0.4625
X2.325Y0.2625
X2.525Y0.4625
X2.525Y0.2625
X2.725Y0.4625
X2.725Y0.2625
X2.925Y0.4625
X2.925Y0.2625
X3.125Y0.4625
X3.125Y0.2625
X3.325Y0.4625
X3.325Y0.2625
T2
X0.2427Y1.2274
X0.2427Y0.8826
T3
X1.0625Y1.0373
X1.0625Y0.9625
T4
X2.6085Y1.558
X2.6085Y0.692
X2.6875Y1.558
X2.6875Y0.692
X2.7665Y1.558
X2.7665Y0.692
X2.8455Y1.558
X2.8455Y0.692
X2.9245Y1.558
X2.9245Y0.692
X3.0035Y1.558
X3.0035Y0.692
X3.0825Y1.558
X3.0825Y0.692
X3.1615Y1.558
X3.1615Y0.692
X3.2405Y1.558
X3.2405Y0.692
X3.3195Y1.558
X3.3195Y0.692
T5
X0.16Y0.5625
X0.46Y0.5625
X0.56Y0.5625
X0.76Y0.5625
X1.31Y0.5625
X1.41Y0.5625
X1.51Y0.5625
X1.61Y0.5625
X1.71Y0.5625
X1.81Y0.5625
X1.91Y0.5625
X2.01Y1.6375
X2.01Y1.4375
X2.01Y1.3375
X2.01Y1.2375
X2.01Y1.1375
X2.01Y0.5625
T6
X0.06Y0.5625
X0.06Y0.1625
X0.06Y0.0625
X0.16Y0.1625
X0.16Y0.0625
X0.26Y0.5625
X0.26Y0.1625
X0.26Y0.0625
X0.36Y0.5625
X0.36Y0.1625
X0.36Y0.0625
X0.4375Y1.71
X0.46Y0.1625
X0.46Y0.0625
X0.5375Y1.71
X0.56Y0.1625
X0.56Y0.0625
X0.66Y0.5625
X0.66Y0.1625
X0.66Y0.0625
X0.7125Y1.71
X0.76Y0.1625
X0.76Y0.0625
X0.8125Y1.71
X0.86Y0.1625
X0.86Y0.0625
X0.96Y0.1625
X0.96Y0.0625
X1.135Y0.1625
X1.135Y0.0625
X1.31Y0.0625
X1.41Y0.0625
X1.51Y0.0625
X1.61Y0.0625
X1.71Y0.0625
X1.81Y0.0625
X1.91Y0.0625
X2.01Y1.5375
X2.01Y1.0375
X2.01Y0.9375
X2.01Y0.8375
X2.01Y0.7375
X2.01Y0.0625
T0
M30
