G04 #@! TF.FileFunction,Soldermask,Top*
%FSLAX46Y46*%
G04 Gerber Fmt 4.6, Leading zero omitted, Abs format (unit mm)*
G04 Created by KiCad (PCBNEW 4.0.6) date 06/21/17 17:12:11*
%MOMM*%
%LPD*%
G01*
G04 APERTURE LIST*
%ADD10C,0.025400*%
%ADD11C,1.422400*%
%ADD12C,2.152400*%
%ADD13R,0.552400X1.502400*%
%ADD14O,1.402400X1.102400*%
%ADD15O,1.152400X1.702400*%
%ADD16R,1.652400X1.702400*%
%ADD17R,1.102400X1.702400*%
%ADD18R,1.352400X0.352400*%
%ADD19C,2.352400*%
%ADD20R,0.652400X0.752400*%
%ADD21R,0.952400X1.052400*%
%ADD22R,1.952400X1.152400*%
%ADD23R,0.752400X0.652400*%
%ADD24R,0.952400X0.352400*%
%ADD25R,0.352400X0.952400*%
%ADD26R,1.202400X1.202400*%
%ADD27C,5.152400*%
%ADD28C,2.192400*%
%ADD29R,1.741400X1.741400*%
%ADD30C,1.741400*%
G04 APERTURE END LIST*
D10*
D11*
X94609920Y16868140D03*
X104642920Y16868140D03*
X106649520Y16868140D03*
X108656120Y16868140D03*
X110662720Y16868140D03*
X112669320Y16868140D03*
X102636320Y16868140D03*
X100629720Y16868140D03*
X98623120Y16868140D03*
X96616520Y16868140D03*
X96616520Y38864540D03*
X98623120Y38864540D03*
X100629720Y38864540D03*
X102636320Y38864540D03*
X112669320Y38864540D03*
X110662720Y38864540D03*
X108656120Y38864540D03*
X106649520Y38864540D03*
X104642920Y38864540D03*
X94609920Y38864540D03*
D12*
X119280940Y75201780D03*
X116740940Y77741780D03*
X119280940Y80281780D03*
D13*
X68102960Y4147800D03*
X68752960Y4147800D03*
X69402960Y4147800D03*
X70052960Y4147800D03*
X70702960Y4147800D03*
D14*
X66902960Y4147800D03*
X71902960Y4147800D03*
D15*
X65902960Y1447800D03*
X72902960Y1447800D03*
D16*
X68402960Y1447800D03*
X70402960Y1447800D03*
D17*
X66627960Y1447800D03*
X72177960Y1447800D03*
D18*
X66502960Y2122800D03*
X66502960Y772800D03*
X72302960Y2122800D03*
X72302960Y772800D03*
D19*
X50320580Y9551040D03*
X50320580Y4551040D03*
X45320580Y9551040D03*
X45320580Y4551040D03*
D20*
X107269280Y45822960D03*
X107269280Y44722960D03*
D21*
X108524000Y44722540D03*
X110424000Y44722540D03*
X109474000Y46722540D03*
D22*
X72158860Y67002340D03*
X72158860Y69502340D03*
D23*
X115208140Y47261780D03*
X114108140Y47261780D03*
D20*
X116111020Y47262960D03*
X116111020Y48362960D03*
D24*
X63901060Y70452340D03*
X63901060Y70052340D03*
X63901060Y69652340D03*
X63901060Y69252340D03*
X63901060Y68852340D03*
X63901060Y68452340D03*
X63901060Y68052340D03*
X63901060Y67652340D03*
X63901060Y67252340D03*
X63901060Y66852340D03*
X63901060Y66452340D03*
X63901060Y66052340D03*
D25*
X64701060Y65252340D03*
X65101060Y65252340D03*
X65501060Y65252340D03*
X65901060Y65252340D03*
X66301060Y65252340D03*
X66701060Y65252340D03*
X67101060Y65252340D03*
X67501060Y65252340D03*
X67901060Y65252340D03*
X68301060Y65252340D03*
X68701060Y65252340D03*
X69101060Y65252340D03*
D24*
X69901060Y66052340D03*
X69901060Y66452340D03*
X69901060Y66852340D03*
X69901060Y67252340D03*
X69901060Y67652340D03*
X69901060Y68052340D03*
X69901060Y68452340D03*
X69901060Y68852340D03*
X69901060Y69252340D03*
X69901060Y69652340D03*
X69901060Y70052340D03*
X69901060Y70452340D03*
D25*
X69101060Y71252340D03*
X68701060Y71252340D03*
X68301060Y71252340D03*
X67901060Y71252340D03*
X67501060Y71252340D03*
X67101060Y71252340D03*
X66701060Y71252340D03*
X66301060Y71252340D03*
X65901060Y71252340D03*
X65501060Y71252340D03*
X65101060Y71252340D03*
X64701060Y71252340D03*
D26*
X68476060Y66677340D03*
X68476060Y67727340D03*
X68476060Y68777340D03*
X68476060Y69827340D03*
X67426060Y66677340D03*
X67426060Y67727340D03*
X67426060Y68777340D03*
X67426060Y69827340D03*
X66376060Y66677340D03*
X66376060Y67727340D03*
X66376060Y68777340D03*
X66376060Y69827340D03*
X65326060Y66677340D03*
X65326060Y67727340D03*
X65326060Y68777340D03*
X65326060Y69827340D03*
D23*
X68502440Y62804040D03*
X69602440Y62804040D03*
X31637060Y10591800D03*
X30537060Y10591800D03*
X18365380Y10591800D03*
X19465380Y10591800D03*
D10*
G36*
X62717417Y75290667D02*
X62152423Y75616867D01*
X62528623Y76268465D01*
X63093617Y75942265D01*
X62717417Y75290667D01*
X62717417Y75290667D01*
G37*
G36*
X63267417Y76243295D02*
X62702423Y76569495D01*
X63078623Y77221093D01*
X63643617Y76894893D01*
X63267417Y76243295D01*
X63267417Y76243295D01*
G37*
G36*
X67160153Y76659477D02*
X66833953Y76094483D01*
X66182355Y76470683D01*
X66508555Y77035677D01*
X67160153Y76659477D01*
X67160153Y76659477D01*
G37*
G36*
X66207525Y77209477D02*
X65881325Y76644483D01*
X65229727Y77020683D01*
X65555927Y77585677D01*
X66207525Y77209477D01*
X66207525Y77209477D01*
G37*
D19*
X38890580Y27331040D03*
X38890580Y22331040D03*
X33890580Y27331040D03*
X33890580Y22331040D03*
X21110580Y27331040D03*
X21110580Y22331040D03*
X16110580Y27331040D03*
X16110580Y22331040D03*
X30000580Y36221040D03*
X30000580Y31221040D03*
X25000580Y36221040D03*
X25000580Y31221040D03*
X30000580Y18441040D03*
X30000580Y13441040D03*
X25000580Y18441040D03*
X25000580Y13441040D03*
D12*
X112440140Y57421720D03*
X112440140Y54881720D03*
X112440140Y52341720D03*
X112440140Y49801720D03*
X112440140Y47261720D03*
X112440140Y44721720D03*
X112440140Y59961720D03*
X112440140Y62501720D03*
X112440140Y65041720D03*
X112440140Y67581720D03*
X112440140Y70121720D03*
D27*
X112440140Y90321720D03*
X57440140Y90321720D03*
X57440140Y8321720D03*
X112440140Y8321720D03*
D12*
X112440140Y82821720D03*
X112440140Y80281720D03*
X112440140Y77741720D03*
X112440140Y75201720D03*
X112440140Y72661720D03*
D28*
X98094740Y94813120D03*
X94594740Y94813120D03*
X106857740Y94813120D03*
X103357740Y94813120D03*
X69474140Y94757240D03*
X72974140Y94757240D03*
D10*
G36*
X67498297Y75364428D02*
X66822097Y74193216D01*
X65477679Y74969416D01*
X66153879Y76140628D01*
X67498297Y75364428D01*
X67498297Y75364428D01*
G37*
G36*
X65593041Y76464428D02*
X64916841Y75293216D01*
X63572423Y76069416D01*
X64248623Y77240628D01*
X65593041Y76464428D01*
X65593041Y76464428D01*
G37*
G36*
X64743041Y74992184D02*
X64066841Y73820972D01*
X62722423Y74597172D01*
X63398623Y75768384D01*
X64743041Y74992184D01*
X64743041Y74992184D01*
G37*
G36*
X66648297Y73892184D02*
X65972097Y72720972D01*
X64627679Y73497172D01*
X65303879Y74668384D01*
X66648297Y73892184D01*
X66648297Y73892184D01*
G37*
D28*
X98600200Y3924300D03*
X95100200Y3924300D03*
D29*
X33891220Y8338820D03*
D30*
X33891220Y5798820D03*
X31351220Y8338820D03*
X31351220Y5798820D03*
X28811220Y8338820D03*
X28811220Y5798820D03*
X26271220Y8338820D03*
X26271220Y5798820D03*
X23731220Y8338820D03*
X23731220Y5798820D03*
X21191220Y8338820D03*
X21191220Y5798820D03*
X18651220Y8338820D03*
X18651220Y5798820D03*
X16111220Y8338820D03*
X16111220Y5798820D03*
X13571220Y8338820D03*
X13571220Y5798820D03*
X11031220Y8338820D03*
X11031220Y5798820D03*
D23*
X60092500Y69651880D03*
X61192500Y69651880D03*
M02*
