G04 #@! TF.FileFunction,Legend,Top*
%FSLAX46Y46*%
G04 Gerber Fmt 4.6, Leading zero omitted, Abs format (unit mm)*
G04 Created by KiCad (PCBNEW 4.0.5) date 05/26/17 17:20:31*
%MOMM*%
%LPD*%
G01*
G04 APERTURE LIST*
%ADD10C,0.025400*%
%ADD11C,0.254000*%
%ADD12C,0.127000*%
%ADD13C,0.150000*%
%ADD14C,0.120000*%
G04 APERTURE END LIST*
D10*
D11*
X36798069Y4436291D02*
X35927212Y4436291D01*
X36362640Y4436291D02*
X36362640Y5960291D01*
X36217497Y5742577D01*
X36072355Y5597434D01*
X35927212Y5524863D01*
X72530425Y90469720D02*
X71804711Y90469720D01*
X72675568Y90905149D02*
X72167568Y89381149D01*
X71659568Y90905149D01*
X71151568Y89381149D02*
X71151568Y90614863D01*
X71078996Y90760006D01*
X71006425Y90832577D01*
X70861282Y90905149D01*
X70570996Y90905149D01*
X70425854Y90832577D01*
X70353282Y90760006D01*
X70280711Y90614863D01*
X70280711Y89381149D01*
X69554997Y90905149D02*
X69554997Y89381149D01*
X69192140Y89381149D01*
X68974425Y89453720D01*
X68829283Y89598863D01*
X68756711Y89744006D01*
X68684140Y90034291D01*
X68684140Y90252006D01*
X68756711Y90542291D01*
X68829283Y90687434D01*
X68974425Y90832577D01*
X69192140Y90905149D01*
X69554997Y90905149D01*
X68030997Y90905149D02*
X68030997Y89381149D01*
X67014997Y89381149D02*
X66724711Y89381149D01*
X66579569Y89453720D01*
X66434426Y89598863D01*
X66361854Y89889149D01*
X66361854Y90397149D01*
X66434426Y90687434D01*
X66579569Y90832577D01*
X66724711Y90905149D01*
X67014997Y90905149D01*
X67160140Y90832577D01*
X67305283Y90687434D01*
X67377854Y90397149D01*
X67377854Y89889149D01*
X67305283Y89598863D01*
X67160140Y89453720D01*
X67014997Y89381149D01*
D12*
X77265712Y94343220D02*
X77338283Y94306934D01*
X77447140Y94306934D01*
X77555997Y94343220D01*
X77628569Y94415791D01*
X77664854Y94488363D01*
X77701140Y94633506D01*
X77701140Y94742363D01*
X77664854Y94887506D01*
X77628569Y94960077D01*
X77555997Y95032649D01*
X77447140Y95068934D01*
X77374569Y95068934D01*
X77265712Y95032649D01*
X77229426Y94996363D01*
X77229426Y94742363D01*
X77374569Y94742363D01*
X76902854Y95068934D02*
X76902854Y94306934D01*
X76467426Y95068934D01*
X76467426Y94306934D01*
X76104568Y95068934D02*
X76104568Y94306934D01*
X75923140Y94306934D01*
X75814283Y94343220D01*
X75741711Y94415791D01*
X75705426Y94488363D01*
X75669140Y94633506D01*
X75669140Y94742363D01*
X75705426Y94887506D01*
X75741711Y94960077D01*
X75814283Y95032649D01*
X75923140Y95068934D01*
X76104568Y95068934D01*
X94519568Y8491220D02*
X94446997Y8527506D01*
X94338140Y8527506D01*
X94229283Y8491220D01*
X94156711Y8418649D01*
X94120426Y8346077D01*
X94084140Y8200934D01*
X94084140Y8092077D01*
X94120426Y7946934D01*
X94156711Y7874363D01*
X94229283Y7801791D01*
X94338140Y7765506D01*
X94410711Y7765506D01*
X94519568Y7801791D01*
X94555854Y7838077D01*
X94555854Y8092077D01*
X94410711Y8092077D01*
X94882426Y7765506D02*
X94882426Y8527506D01*
X95317854Y7765506D01*
X95317854Y8527506D01*
X95680712Y7765506D02*
X95680712Y8527506D01*
X95862140Y8527506D01*
X95970997Y8491220D01*
X96043569Y8418649D01*
X96079854Y8346077D01*
X96116140Y8200934D01*
X96116140Y8092077D01*
X96079854Y7946934D01*
X96043569Y7874363D01*
X95970997Y7801791D01*
X95862140Y7765506D01*
X95680712Y7765506D01*
X85756568Y8491220D02*
X85683997Y8527506D01*
X85575140Y8527506D01*
X85466283Y8491220D01*
X85393711Y8418649D01*
X85357426Y8346077D01*
X85321140Y8200934D01*
X85321140Y8092077D01*
X85357426Y7946934D01*
X85393711Y7874363D01*
X85466283Y7801791D01*
X85575140Y7765506D01*
X85647711Y7765506D01*
X85756568Y7801791D01*
X85792854Y7838077D01*
X85792854Y8092077D01*
X85647711Y8092077D01*
X86119426Y7765506D02*
X86119426Y8527506D01*
X86554854Y7765506D01*
X86554854Y8527506D01*
X86917712Y7765506D02*
X86917712Y8527506D01*
X87099140Y8527506D01*
X87207997Y8491220D01*
X87280569Y8418649D01*
X87316854Y8346077D01*
X87353140Y8200934D01*
X87353140Y8092077D01*
X87316854Y7946934D01*
X87280569Y7874363D01*
X87207997Y7801791D01*
X87099140Y7765506D01*
X86917712Y7765506D01*
X75469568Y8491220D02*
X75396997Y8527506D01*
X75288140Y8527506D01*
X75179283Y8491220D01*
X75106711Y8418649D01*
X75070426Y8346077D01*
X75034140Y8200934D01*
X75034140Y8092077D01*
X75070426Y7946934D01*
X75106711Y7874363D01*
X75179283Y7801791D01*
X75288140Y7765506D01*
X75360711Y7765506D01*
X75469568Y7801791D01*
X75505854Y7838077D01*
X75505854Y8092077D01*
X75360711Y8092077D01*
X75832426Y7765506D02*
X75832426Y8527506D01*
X76267854Y7765506D01*
X76267854Y8527506D01*
X76630712Y7765506D02*
X76630712Y8527506D01*
X76812140Y8527506D01*
X76920997Y8491220D01*
X76993569Y8418649D01*
X77029854Y8346077D01*
X77066140Y8200934D01*
X77066140Y8092077D01*
X77029854Y7946934D01*
X76993569Y7874363D01*
X76920997Y7801791D01*
X76812140Y7765506D01*
X76630712Y7765506D01*
D11*
X87870211Y8382363D02*
X89031354Y8382363D01*
X88450783Y7801791D02*
X88450783Y8962934D01*
X90482782Y9325791D02*
X89757068Y9325791D01*
X89684497Y8600077D01*
X89757068Y8672649D01*
X89902211Y8745220D01*
X90265068Y8745220D01*
X90410211Y8672649D01*
X90482782Y8600077D01*
X90555354Y8454934D01*
X90555354Y8092077D01*
X90482782Y7946934D01*
X90410211Y7874363D01*
X90265068Y7801791D01*
X89902211Y7801791D01*
X89757068Y7874363D01*
X89684497Y7946934D01*
X90990783Y9325791D02*
X91498783Y7801791D01*
X92006783Y9325791D01*
X78018640Y8382363D02*
X79179783Y8382363D01*
X78599212Y7801791D02*
X78599212Y8962934D01*
X79760354Y9325791D02*
X80703783Y9325791D01*
X80195783Y8745220D01*
X80413497Y8745220D01*
X80558640Y8672649D01*
X80631211Y8600077D01*
X80703783Y8454934D01*
X80703783Y8092077D01*
X80631211Y7946934D01*
X80558640Y7874363D01*
X80413497Y7801791D01*
X79978069Y7801791D01*
X79832926Y7874363D01*
X79760354Y7946934D01*
X81356926Y7946934D02*
X81429498Y7874363D01*
X81356926Y7801791D01*
X81284355Y7874363D01*
X81356926Y7946934D01*
X81356926Y7801791D01*
X81937497Y9325791D02*
X82880926Y9325791D01*
X82372926Y8745220D01*
X82590640Y8745220D01*
X82735783Y8672649D01*
X82808354Y8600077D01*
X82880926Y8454934D01*
X82880926Y8092077D01*
X82808354Y7946934D01*
X82735783Y7874363D01*
X82590640Y7801791D01*
X82155212Y7801791D01*
X82010069Y7874363D01*
X81937497Y7946934D01*
X83316355Y9325791D02*
X83824355Y7801791D01*
X84332355Y9325791D01*
X102094212Y3293291D02*
X101368498Y3293291D01*
X101368498Y4817291D01*
X102602212Y3293291D02*
X102602212Y4309291D01*
X102602212Y4817291D02*
X102529641Y4744720D01*
X102602212Y4672149D01*
X102674784Y4744720D01*
X102602212Y4817291D01*
X102602212Y4672149D01*
X103981069Y4309291D02*
X103981069Y3075577D01*
X103908498Y2930434D01*
X103835926Y2857863D01*
X103690783Y2785291D01*
X103473069Y2785291D01*
X103327926Y2857863D01*
X103981069Y3365863D02*
X103835926Y3293291D01*
X103545640Y3293291D01*
X103400498Y3365863D01*
X103327926Y3438434D01*
X103255355Y3583577D01*
X103255355Y4019006D01*
X103327926Y4164149D01*
X103400498Y4236720D01*
X103545640Y4309291D01*
X103835926Y4309291D01*
X103981069Y4236720D01*
X104706783Y3293291D02*
X104706783Y4817291D01*
X105359926Y3293291D02*
X105359926Y4091577D01*
X105287355Y4236720D01*
X105142212Y4309291D01*
X104924497Y4309291D01*
X104779355Y4236720D01*
X104706783Y4164149D01*
X105867926Y4309291D02*
X106448497Y4309291D01*
X106085640Y4817291D02*
X106085640Y3511006D01*
X106158212Y3365863D01*
X106303354Y3293291D01*
X106448497Y3293291D01*
D13*
X80520540Y65425320D02*
X104904540Y65425320D01*
X104904540Y65425320D02*
X104904540Y91841320D01*
X104904540Y91841320D02*
X97309940Y98369120D01*
X97309940Y98369120D02*
X88115140Y98369120D01*
X88115140Y98369120D02*
X80520540Y91841320D01*
X80520540Y91841320D02*
X80520540Y65425320D01*
D14*
X65402960Y-2752200D02*
X73402960Y-2752200D01*
X65402960Y4567800D02*
X73402960Y4567800D01*
X73402960Y4567800D02*
X73402960Y-2752200D01*
X73402960Y-2200D02*
X65402960Y-2200D01*
X65402960Y-2752200D02*
X65402960Y4567800D01*
X107739280Y45022960D02*
X107739280Y45522960D01*
X106799280Y45522960D02*
X106799280Y45022960D01*
X111054000Y46482540D02*
X110124000Y46482540D01*
X107894000Y46482540D02*
X108824000Y46482540D01*
X107894000Y46482540D02*
X107894000Y44322540D01*
X111054000Y46482540D02*
X111054000Y45022540D01*
X71283860Y68927340D02*
X71283860Y67577340D01*
X73033860Y68927340D02*
X73033860Y67577340D01*
X114408140Y46791780D02*
X114908140Y46791780D01*
X114908140Y47731780D02*
X114408140Y47731780D01*
X115641020Y48062960D02*
X115641020Y47562960D01*
X116581020Y47562960D02*
X116581020Y48062960D01*
D13*
X70051060Y71402340D02*
X70051060Y70877340D01*
X63751060Y65102340D02*
X63751060Y65627340D01*
X70051060Y65102340D02*
X70051060Y65627340D01*
X63751060Y71402340D02*
X64276060Y71402340D01*
X63751060Y65102340D02*
X64276060Y65102340D01*
X70051060Y65102340D02*
X69526060Y65102340D01*
X70051060Y71402340D02*
X69526060Y71402340D01*
D14*
X69302440Y63274040D02*
X68802440Y63274040D01*
X68802440Y62334040D02*
X69302440Y62334040D01*
X30837060Y6159400D02*
X31337060Y6159400D01*
X31337060Y7099400D02*
X30837060Y7099400D01*
X19165380Y7099400D02*
X18665380Y7099400D01*
X18665380Y6159400D02*
X19165380Y6159400D01*
X62615988Y76707386D02*
X62365988Y76274374D01*
X63180052Y75804374D02*
X63430052Y76237386D01*
X65743434Y76558048D02*
X66176446Y76308048D01*
X66646446Y77122112D02*
X66213434Y77372112D01*
D13*
X51820580Y10051040D02*
X51820580Y4051040D01*
X52919600Y7051040D02*
G75*
G03X52919600Y7051040I-5099020J0D01*
G01*
X40390580Y27831040D02*
X40390580Y21831040D01*
X41489600Y24831040D02*
G75*
G03X41489600Y24831040I-5099020J0D01*
G01*
X22610580Y27831040D02*
X22610580Y21831040D01*
X23709600Y24831040D02*
G75*
G03X23709600Y24831040I-5099020J0D01*
G01*
X31500580Y36721040D02*
X31500580Y30721040D01*
X32599600Y33721040D02*
G75*
G03X32599600Y33721040I-5099020J0D01*
G01*
X31500580Y18941040D02*
X31500580Y12941040D01*
X32599600Y15941040D02*
G75*
G03X32599600Y15941040I-5099020J0D01*
G01*
X103640140Y88821720D02*
X66240140Y88821720D01*
X66240140Y88821720D02*
X66240140Y9821720D01*
X66240140Y9821720D02*
X103640140Y9821720D01*
X103640140Y9821720D02*
X103640140Y88821720D01*
X97940140Y80321720D02*
X71940140Y80321720D01*
X71940140Y80321720D02*
X71940140Y18321720D01*
X71940140Y18321720D02*
X97940140Y18321720D01*
X97940140Y18321720D02*
X97940140Y80321720D01*
X83389440Y324300D02*
X75289440Y324300D01*
X75289440Y324300D02*
X75289440Y7324300D01*
X75289440Y7324300D02*
X83389440Y7324300D01*
X83389440Y7324300D02*
X83389440Y324300D01*
X92144820Y324300D02*
X84044820Y324300D01*
X84044820Y324300D02*
X84044820Y7324300D01*
X84044820Y7324300D02*
X92144820Y7324300D01*
X92144820Y7324300D02*
X92144820Y324300D01*
X67174140Y98357240D02*
X75274140Y98357240D01*
X75274140Y98357240D02*
X75274140Y91357240D01*
X75274140Y91357240D02*
X67174140Y91357240D01*
X67174140Y91357240D02*
X67174140Y98357240D01*
D14*
X66017411Y72551858D02*
X67667411Y75409742D01*
X67667411Y75409742D02*
X64203309Y77409742D01*
D13*
X100900200Y324300D02*
X92800200Y324300D01*
X92800200Y324300D02*
X92800200Y7324300D01*
X92800200Y7324300D02*
X100900200Y7324300D01*
X100900200Y7324300D02*
X100900200Y324300D01*
D14*
X117515940Y74246780D02*
G75*
G03X117515940Y74246780I-1155000J0D01*
G01*
X121250940Y82566780D02*
X121250940Y72916780D01*
X115030940Y82566780D02*
X115030940Y72916780D01*
X121250940Y82566780D02*
X115030940Y82566780D01*
X121250940Y72916780D02*
X115030940Y72916780D01*
X117094940Y73370780D02*
X115484940Y74981780D01*
X117235940Y73510780D02*
X115625940Y75122780D01*
X32621220Y5706420D02*
X9701220Y5706420D01*
X9701220Y5706420D02*
X9701220Y506420D01*
X9701220Y506420D02*
X35221220Y506420D01*
X35221220Y506420D02*
X35221220Y3106420D01*
X35221220Y3106420D02*
X32621220Y3106420D01*
X32621220Y3106420D02*
X32621220Y5706420D01*
X33891220Y5706420D02*
X35221220Y5706420D01*
X35221220Y5706420D02*
X35221220Y4376420D01*
D13*
X83821021Y95740315D02*
X84630545Y95740315D01*
X84725783Y95787934D01*
X84773402Y95835553D01*
X84821021Y95930791D01*
X84821021Y96121268D01*
X84773402Y96216506D01*
X84725783Y96264125D01*
X84630545Y96311744D01*
X83821021Y96311744D01*
X83916259Y96740315D02*
X83868640Y96787934D01*
X83821021Y96883172D01*
X83821021Y97121268D01*
X83868640Y97216506D01*
X83916259Y97264125D01*
X84011497Y97311744D01*
X84106735Y97311744D01*
X84249592Y97264125D01*
X84821021Y96692696D01*
X84821021Y97311744D01*
X46648667Y71977713D02*
X46648667Y72453904D01*
X46934381Y71882475D02*
X45934381Y72215808D01*
X46934381Y72549142D01*
X46410571Y72882475D02*
X46410571Y73215809D01*
X46934381Y73358666D02*
X46934381Y72882475D01*
X45934381Y72882475D01*
X45934381Y73358666D01*
X46934381Y74311047D02*
X46934381Y73739618D01*
X46934381Y74025332D02*
X45934381Y74025332D01*
X46077238Y73930094D01*
X46172476Y73834856D01*
X46220095Y73739618D01*
X64818521Y2016855D02*
X63818521Y2016855D01*
X64294711Y2016855D02*
X64294711Y2588284D01*
X64818521Y2588284D02*
X63818521Y2588284D01*
X63913759Y3016855D02*
X63866140Y3064474D01*
X63818521Y3159712D01*
X63818521Y3397808D01*
X63866140Y3493046D01*
X63913759Y3540665D01*
X64008997Y3588284D01*
X64104235Y3588284D01*
X64247092Y3540665D01*
X64818521Y2969236D01*
X64818521Y3588284D01*
X107744521Y43059054D02*
X107268330Y42725720D01*
X107744521Y42487625D02*
X106744521Y42487625D01*
X106744521Y42868578D01*
X106792140Y42963816D01*
X106839759Y43011435D01*
X106934997Y43059054D01*
X107077854Y43059054D01*
X107173092Y43011435D01*
X107220711Y42963816D01*
X107268330Y42868578D01*
X107268330Y42487625D01*
X106744521Y43963816D02*
X106744521Y43487625D01*
X107220711Y43440006D01*
X107173092Y43487625D01*
X107125473Y43582863D01*
X107125473Y43820959D01*
X107173092Y43916197D01*
X107220711Y43963816D01*
X107315950Y44011435D01*
X107554045Y44011435D01*
X107649283Y43963816D01*
X107696902Y43916197D01*
X107744521Y43820959D01*
X107744521Y43582863D01*
X107696902Y43487625D01*
X107649283Y43440006D01*
X109355902Y42678101D02*
X109260664Y42725720D01*
X109165426Y42820958D01*
X109022569Y42963815D01*
X108927330Y43011434D01*
X108832092Y43011434D01*
X108879711Y42773339D02*
X108784473Y42820958D01*
X108689235Y42916196D01*
X108641616Y43106672D01*
X108641616Y43440006D01*
X108689235Y43630482D01*
X108784473Y43725720D01*
X108879711Y43773339D01*
X109070188Y43773339D01*
X109165426Y43725720D01*
X109260664Y43630482D01*
X109308283Y43440006D01*
X109308283Y43106672D01*
X109260664Y42916196D01*
X109165426Y42820958D01*
X109070188Y42773339D01*
X108879711Y42773339D01*
X110260664Y42773339D02*
X109689235Y42773339D01*
X109974949Y42773339D02*
X109974949Y43773339D01*
X109879711Y43630482D01*
X109784473Y43535244D01*
X109689235Y43487625D01*
X74135050Y67776149D02*
X74611241Y67776149D01*
X73611241Y67442816D02*
X74135050Y67776149D01*
X73611241Y68109483D01*
X74611241Y68966626D02*
X74611241Y68395197D01*
X74611241Y68680911D02*
X73611241Y68680911D01*
X73754098Y68585673D01*
X73849336Y68490435D01*
X73896955Y68395197D01*
X114491474Y47916839D02*
X114158140Y48393030D01*
X113920045Y47916839D02*
X113920045Y48916839D01*
X114300998Y48916839D01*
X114396236Y48869220D01*
X114443855Y48821601D01*
X114491474Y48726363D01*
X114491474Y48583506D01*
X114443855Y48488268D01*
X114396236Y48440649D01*
X114300998Y48393030D01*
X113920045Y48393030D01*
X115348617Y48583506D02*
X115348617Y47916839D01*
X115110521Y48964458D02*
X114872426Y48250172D01*
X115491474Y48250172D01*
X116666283Y49631363D02*
X116713902Y49583744D01*
X116761521Y49440887D01*
X116761521Y49345649D01*
X116713902Y49202791D01*
X116618664Y49107553D01*
X116523426Y49059934D01*
X116332950Y49012315D01*
X116190092Y49012315D01*
X115999616Y49059934D01*
X115904378Y49107553D01*
X115809140Y49202791D01*
X115761521Y49345649D01*
X115761521Y49440887D01*
X115809140Y49583744D01*
X115856759Y49631363D01*
X115856759Y50012315D02*
X115809140Y50059934D01*
X115761521Y50155172D01*
X115761521Y50393268D01*
X115809140Y50488506D01*
X115856759Y50536125D01*
X115951997Y50583744D01*
X116047235Y50583744D01*
X116190092Y50536125D01*
X116761521Y49964696D01*
X116761521Y50583744D01*
X115761521Y51202791D02*
X115761521Y51298030D01*
X115809140Y51393268D01*
X115856759Y51440887D01*
X115951997Y51488506D01*
X116142473Y51536125D01*
X116380569Y51536125D01*
X116571045Y51488506D01*
X116666283Y51440887D01*
X116713902Y51393268D01*
X116761521Y51298030D01*
X116761521Y51202791D01*
X116713902Y51107553D01*
X116666283Y51059934D01*
X116571045Y51012315D01*
X116380569Y50964696D01*
X116142473Y50964696D01*
X115951997Y51012315D01*
X115856759Y51059934D01*
X115809140Y51107553D01*
X115761521Y51202791D01*
X62715235Y73364339D02*
X62715235Y72554815D01*
X62762854Y72459577D01*
X62810473Y72411958D01*
X62905711Y72364339D01*
X63096188Y72364339D01*
X63191426Y72411958D01*
X63239045Y72459577D01*
X63286664Y72554815D01*
X63286664Y73364339D01*
X64286664Y72364339D02*
X63715235Y72364339D01*
X64000949Y72364339D02*
X64000949Y73364339D01*
X63905711Y73221482D01*
X63810473Y73126244D01*
X63715235Y73078625D01*
X70041474Y63474339D02*
X69565283Y63474339D01*
X69565283Y64474339D01*
X70279569Y64474339D02*
X70898617Y64474339D01*
X70565283Y64093387D01*
X70708141Y64093387D01*
X70803379Y64045768D01*
X70850998Y63998149D01*
X70898617Y63902910D01*
X70898617Y63664815D01*
X70850998Y63569577D01*
X70803379Y63521958D01*
X70708141Y63474339D01*
X70422426Y63474339D01*
X70327188Y63521958D01*
X70279569Y63569577D01*
X30928014Y7551159D02*
X30594680Y8027350D01*
X30356585Y7551159D02*
X30356585Y8551159D01*
X30737538Y8551159D01*
X30832776Y8503540D01*
X30880395Y8455921D01*
X30928014Y8360683D01*
X30928014Y8217826D01*
X30880395Y8122588D01*
X30832776Y8074969D01*
X30737538Y8027350D01*
X30356585Y8027350D01*
X31261347Y8551159D02*
X31880395Y8551159D01*
X31547061Y8170207D01*
X31689919Y8170207D01*
X31785157Y8122588D01*
X31832776Y8074969D01*
X31880395Y7979730D01*
X31880395Y7741635D01*
X31832776Y7646397D01*
X31785157Y7598778D01*
X31689919Y7551159D01*
X31404204Y7551159D01*
X31308966Y7598778D01*
X31261347Y7646397D01*
X18748714Y7447019D02*
X18415380Y7923210D01*
X18177285Y7447019D02*
X18177285Y8447019D01*
X18558238Y8447019D01*
X18653476Y8399400D01*
X18701095Y8351781D01*
X18748714Y8256543D01*
X18748714Y8113686D01*
X18701095Y8018448D01*
X18653476Y7970829D01*
X18558238Y7923210D01*
X18177285Y7923210D01*
X19129666Y8351781D02*
X19177285Y8399400D01*
X19272523Y8447019D01*
X19510619Y8447019D01*
X19605857Y8399400D01*
X19653476Y8351781D01*
X19701095Y8256543D01*
X19701095Y8161305D01*
X19653476Y8018448D01*
X19082047Y7447019D01*
X19701095Y7447019D01*
X62024130Y76567972D02*
X62041560Y76502923D01*
X62011370Y76355395D01*
X61963751Y76272917D01*
X61851083Y76173008D01*
X61720986Y76138148D01*
X61614698Y76144528D01*
X61425931Y76198527D01*
X61302212Y76269956D01*
X61161065Y76406433D01*
X61102396Y76495291D01*
X61067536Y76625389D01*
X61097726Y76772917D01*
X61145345Y76855395D01*
X61258013Y76955304D01*
X61323062Y76972734D01*
X62344703Y76932745D02*
X62439941Y77097702D01*
X62446322Y77203991D01*
X62428892Y77269040D01*
X62352793Y77422947D01*
X62211646Y77559424D01*
X61881731Y77749901D01*
X61775443Y77756280D01*
X61710394Y77738851D01*
X61621536Y77680182D01*
X61526297Y77515224D01*
X61519917Y77408936D01*
X61537347Y77343887D01*
X61596016Y77255029D01*
X61802212Y77135981D01*
X61908500Y77129601D01*
X61973550Y77147031D01*
X62062408Y77205700D01*
X62157647Y77370658D01*
X62164027Y77476946D01*
X62146596Y77541995D01*
X62087927Y77630853D01*
X66462357Y77708433D02*
X66397308Y77691003D01*
X66249780Y77721193D01*
X66167302Y77768812D01*
X66067393Y77881480D01*
X66032533Y78011577D01*
X66038913Y78117865D01*
X66092912Y78306632D01*
X66164341Y78430351D01*
X66300818Y78571498D01*
X66389676Y78630167D01*
X66519774Y78665027D01*
X66667302Y78634837D01*
X66749780Y78587218D01*
X66849689Y78474550D01*
X66867119Y78409501D01*
X67195323Y77835113D02*
X67136654Y77923971D01*
X67119224Y77989020D01*
X67125604Y78095308D01*
X67149414Y78136547D01*
X67238272Y78195216D01*
X67303321Y78212646D01*
X67409609Y78206266D01*
X67574567Y78111027D01*
X67633236Y78022169D01*
X67650665Y77957120D01*
X67644286Y77850832D01*
X67620476Y77809593D01*
X67531618Y77750924D01*
X67466569Y77733494D01*
X67360281Y77739874D01*
X67195323Y77835113D01*
X67089035Y77841492D01*
X67023986Y77824063D01*
X66935128Y77765393D01*
X66839890Y77600436D01*
X66833510Y77494148D01*
X66850940Y77429099D01*
X66909609Y77340241D01*
X67074567Y77245002D01*
X67180855Y77238622D01*
X67245903Y77256052D01*
X67334762Y77314721D01*
X67430000Y77479678D01*
X67436380Y77585967D01*
X67418950Y77651016D01*
X67360281Y77739874D01*
X41249151Y6646279D02*
X41296770Y6789136D01*
X41344390Y6836755D01*
X41439628Y6884374D01*
X41582485Y6884374D01*
X41677723Y6836755D01*
X41725342Y6789136D01*
X41772961Y6693898D01*
X41772961Y6312945D01*
X40772961Y6312945D01*
X40772961Y6646279D01*
X40820580Y6741517D01*
X40868199Y6789136D01*
X40963437Y6836755D01*
X41058675Y6836755D01*
X41153913Y6789136D01*
X41201532Y6741517D01*
X41249151Y6646279D01*
X41249151Y6312945D01*
X41772961Y7836755D02*
X41772961Y7265326D01*
X41772961Y7551040D02*
X40772961Y7551040D01*
X40915818Y7455802D01*
X41011056Y7360564D01*
X41058675Y7265326D01*
X29814211Y24405959D02*
X29861830Y24548816D01*
X29909450Y24596435D01*
X30004688Y24644054D01*
X30147545Y24644054D01*
X30242783Y24596435D01*
X30290402Y24548816D01*
X30338021Y24453578D01*
X30338021Y24072625D01*
X29338021Y24072625D01*
X29338021Y24405959D01*
X29385640Y24501197D01*
X29433259Y24548816D01*
X29528497Y24596435D01*
X29623735Y24596435D01*
X29718973Y24548816D01*
X29766592Y24501197D01*
X29814211Y24405959D01*
X29814211Y24072625D01*
X29433259Y25025006D02*
X29385640Y25072625D01*
X29338021Y25167863D01*
X29338021Y25405959D01*
X29385640Y25501197D01*
X29433259Y25548816D01*
X29528497Y25596435D01*
X29623735Y25596435D01*
X29766592Y25548816D01*
X30338021Y24977387D01*
X30338021Y25596435D01*
X25028851Y24461839D02*
X25076470Y24604696D01*
X25124090Y24652315D01*
X25219328Y24699934D01*
X25362185Y24699934D01*
X25457423Y24652315D01*
X25505042Y24604696D01*
X25552661Y24509458D01*
X25552661Y24128505D01*
X24552661Y24128505D01*
X24552661Y24461839D01*
X24600280Y24557077D01*
X24647899Y24604696D01*
X24743137Y24652315D01*
X24838375Y24652315D01*
X24933613Y24604696D01*
X24981232Y24557077D01*
X25028851Y24461839D01*
X25028851Y24128505D01*
X24552661Y25033267D02*
X24552661Y25652315D01*
X24933613Y25318981D01*
X24933613Y25461839D01*
X24981232Y25557077D01*
X25028851Y25604696D01*
X25124090Y25652315D01*
X25362185Y25652315D01*
X25457423Y25604696D01*
X25505042Y25557077D01*
X25552661Y25461839D01*
X25552661Y25176124D01*
X25505042Y25080886D01*
X25457423Y25033267D01*
X33969651Y33275639D02*
X34017270Y33418496D01*
X34064890Y33466115D01*
X34160128Y33513734D01*
X34302985Y33513734D01*
X34398223Y33466115D01*
X34445842Y33418496D01*
X34493461Y33323258D01*
X34493461Y32942305D01*
X33493461Y32942305D01*
X33493461Y33275639D01*
X33541080Y33370877D01*
X33588699Y33418496D01*
X33683937Y33466115D01*
X33779175Y33466115D01*
X33874413Y33418496D01*
X33922032Y33370877D01*
X33969651Y33275639D01*
X33969651Y32942305D01*
X33826794Y34370877D02*
X34493461Y34370877D01*
X33445842Y34132781D02*
X34160128Y33894686D01*
X34160128Y34513734D01*
X20929151Y15536279D02*
X20976770Y15679136D01*
X21024390Y15726755D01*
X21119628Y15774374D01*
X21262485Y15774374D01*
X21357723Y15726755D01*
X21405342Y15679136D01*
X21452961Y15583898D01*
X21452961Y15202945D01*
X20452961Y15202945D01*
X20452961Y15536279D01*
X20500580Y15631517D01*
X20548199Y15679136D01*
X20643437Y15726755D01*
X20738675Y15726755D01*
X20833913Y15679136D01*
X20881532Y15631517D01*
X20929151Y15536279D01*
X20929151Y15202945D01*
X20452961Y16679136D02*
X20452961Y16202945D01*
X20929151Y16155326D01*
X20881532Y16202945D01*
X20833913Y16298183D01*
X20833913Y16536279D01*
X20881532Y16631517D01*
X20929151Y16679136D01*
X21024390Y16726755D01*
X21262485Y16726755D01*
X21357723Y16679136D01*
X21405342Y16631517D01*
X21452961Y16536279D01*
X21452961Y16298183D01*
X21405342Y16202945D01*
X21357723Y16155326D01*
X111157854Y94335339D02*
X111157854Y95335339D01*
X111395949Y95335339D01*
X111538807Y95287720D01*
X111634045Y95192482D01*
X111681664Y95097244D01*
X111729283Y94906768D01*
X111729283Y94763910D01*
X111681664Y94573434D01*
X111634045Y94478196D01*
X111538807Y94382958D01*
X111395949Y94335339D01*
X111157854Y94335339D01*
X112110235Y94382958D02*
X112253092Y94335339D01*
X112491188Y94335339D01*
X112586426Y94382958D01*
X112634045Y94430577D01*
X112681664Y94525815D01*
X112681664Y94621053D01*
X112634045Y94716291D01*
X112586426Y94763910D01*
X112491188Y94811530D01*
X112300711Y94859149D01*
X112205473Y94906768D01*
X112157854Y94954387D01*
X112110235Y95049625D01*
X112110235Y95144863D01*
X112157854Y95240101D01*
X112205473Y95287720D01*
X112300711Y95335339D01*
X112538807Y95335339D01*
X112681664Y95287720D01*
X113634045Y94335339D02*
X113062616Y94335339D01*
X113348330Y94335339D02*
X113348330Y95335339D01*
X113253092Y95192482D01*
X113157854Y95097244D01*
X113062616Y95049625D01*
X78601345Y5871919D02*
X78601345Y6871919D01*
X78982298Y6871919D01*
X79077536Y6824300D01*
X79125155Y6776681D01*
X79172774Y6681443D01*
X79172774Y6538586D01*
X79125155Y6443348D01*
X79077536Y6395729D01*
X78982298Y6348110D01*
X78601345Y6348110D01*
X80125155Y5871919D02*
X79553726Y5871919D01*
X79839440Y5871919D02*
X79839440Y6871919D01*
X79744202Y6729062D01*
X79648964Y6633824D01*
X79553726Y6586205D01*
X87356725Y5871919D02*
X87356725Y6871919D01*
X87737678Y6871919D01*
X87832916Y6824300D01*
X87880535Y6776681D01*
X87928154Y6681443D01*
X87928154Y6538586D01*
X87880535Y6443348D01*
X87832916Y6395729D01*
X87737678Y6348110D01*
X87356725Y6348110D01*
X88309106Y6776681D02*
X88356725Y6824300D01*
X88451963Y6871919D01*
X88690059Y6871919D01*
X88785297Y6824300D01*
X88832916Y6776681D01*
X88880535Y6681443D01*
X88880535Y6586205D01*
X88832916Y6443348D01*
X88261487Y5871919D01*
X88880535Y5871919D01*
X70486045Y91904859D02*
X70486045Y92904859D01*
X70866998Y92904859D01*
X70962236Y92857240D01*
X71009855Y92809621D01*
X71057474Y92714383D01*
X71057474Y92571526D01*
X71009855Y92476288D01*
X70962236Y92428669D01*
X70866998Y92381050D01*
X70486045Y92381050D01*
X71390807Y92904859D02*
X72009855Y92904859D01*
X71676521Y92523907D01*
X71819379Y92523907D01*
X71914617Y92476288D01*
X71962236Y92428669D01*
X72009855Y92333430D01*
X72009855Y92095335D01*
X71962236Y92000097D01*
X71914617Y91952478D01*
X71819379Y91904859D01*
X71533664Y91904859D01*
X71438426Y91952478D01*
X71390807Y92000097D01*
X63484871Y73117754D02*
X63246776Y72705360D01*
X63458101Y73738052D02*
X63484871Y73117754D01*
X64035452Y73404718D01*
X64235268Y73179383D02*
X64300317Y73196813D01*
X64406605Y73190433D01*
X64612802Y73071385D01*
X64671471Y72982527D01*
X64688901Y72917478D01*
X64682521Y72811190D01*
X64634902Y72728711D01*
X64522235Y72628803D01*
X63741648Y72419646D01*
X64277759Y72110122D01*
X96112105Y5871919D02*
X96112105Y6871919D01*
X96493058Y6871919D01*
X96588296Y6824300D01*
X96635915Y6776681D01*
X96683534Y6681443D01*
X96683534Y6538586D01*
X96635915Y6443348D01*
X96588296Y6395729D01*
X96493058Y6348110D01*
X96112105Y6348110D01*
X97540677Y6538586D02*
X97540677Y5871919D01*
X97302581Y6919538D02*
X97064486Y6205252D01*
X97683534Y6205252D01*
X116094902Y82778339D02*
X115761568Y83254530D01*
X115523473Y82778339D02*
X115523473Y83778339D01*
X115904426Y83778339D01*
X115999664Y83730720D01*
X116047283Y83683101D01*
X116094902Y83587863D01*
X116094902Y83445006D01*
X116047283Y83349768D01*
X115999664Y83302149D01*
X115904426Y83254530D01*
X115523473Y83254530D01*
X116380616Y83778339D02*
X116713949Y82778339D01*
X117047283Y83778339D01*
X117904426Y82778339D02*
X117332997Y82778339D01*
X117618711Y82778339D02*
X117618711Y83778339D01*
X117523473Y83635482D01*
X117428235Y83540244D01*
X117332997Y83492625D01*
X35854735Y545839D02*
X35854735Y1545839D01*
X35854735Y1069649D02*
X36426164Y1069649D01*
X36426164Y545839D02*
X36426164Y1545839D01*
X37426164Y545839D02*
X36854735Y545839D01*
X37140449Y545839D02*
X37140449Y1545839D01*
X37045211Y1402982D01*
X36949973Y1307744D01*
X36854735Y1260125D01*
M02*
