M48
;DRILL file {KiCad 4.0.5} date 04/12/17 14:33:27
;FORMAT={-:-/ absolute / inch / decimal}
FMAT,2
INCH,TZ
T1C0.010
T2C0.018
T3C0.020
T4C0.020
T5C0.022
T6C0.025
T7C0.031
T8C0.039
T9C0.118
%
G90
G05
M72
T1
X0.2805Y2.74
X0.313Y2.7305
X0.3355Y2.7305
X0.358Y2.7305
X0.3905Y2.74
X0.4225Y2.7405
X0.455Y2.7315
X0.4775Y2.7315
X0.5Y2.7315
X0.5325Y2.7405
X0.6145Y1.9795
X0.637Y2.6635
X0.6395Y2.71
X0.679Y2.7075
X0.7015Y2.8305
X0.7725Y2.6915
X0.7725Y2.6502
X0.7725Y2.6088
X0.7725Y2.5675
X0.7915Y2.9445
X0.8138Y2.6915
X0.8138Y2.6502
X0.8138Y2.6088
X0.8138Y2.5675
X0.8345Y2.1295
X0.8345Y2.0295
X0.8345Y1.9295
X0.8345Y1.8295
X0.8345Y1.7295
X0.8345Y1.6295
X0.8345Y1.5295
X0.8345Y1.4295
X0.8345Y1.3295
X0.8345Y1.2295
X0.8345Y1.1295
X0.8345Y1.0295
X0.8345Y0.9295
X0.8345Y0.8295
X0.8345Y0.7295
X0.8345Y0.6295
X0.8552Y2.6915
X0.8552Y2.6502
X0.8552Y2.6088
X0.8552Y2.5675
X0.895Y2.435
X0.8965Y2.6915
X0.8965Y2.6502
X0.8965Y2.6088
X0.8965Y2.5675
X0.8975Y2.7925
X0.942Y2.485
X0.9855Y2.601
X0.988Y2.398
X1.0345Y3.6295
X1.0345Y3.5295
X1.0345Y3.4295
X1.0345Y3.3295
X1.0345Y3.2295
X1.0345Y2.4295
X1.0345Y2.2295
X1.0345Y1.9295
X1.0345Y1.8295
X1.0345Y1.7295
X1.0345Y1.6295
X1.0345Y1.5295
X1.0345Y1.4295
X1.0345Y1.3295
X1.0345Y1.2295
X1.0345Y1.1295
X1.0345Y1.0295
X1.0345Y0.9295
X1.0345Y0.8295
X1.0345Y0.7295
X1.0345Y0.6295
X1.0345Y0.5295
X1.0345Y0.4295
X1.0492Y2.6785
X1.0495Y2.5803
X1.1345Y3.7295
X1.1345Y3.6295
X1.1345Y3.5295
X1.1345Y3.4295
X1.1345Y3.3295
X1.1345Y3.2295
X1.1345Y3.1295
X1.1345Y2.4295
X1.1345Y2.2295
X1.1345Y2.1295
X1.1345Y1.8295
X1.1345Y1.7295
X1.1345Y1.6295
X1.1345Y1.5295
X1.1345Y1.4295
X1.1345Y1.3295
X1.1345Y1.2295
X1.1345Y1.1295
X1.1345Y1.0295
X1.1345Y0.9295
X1.1345Y0.8295
X1.1345Y0.7295
X1.1345Y0.6295
X1.1345Y0.5295
X1.1345Y0.4295
X1.1345Y0.3295
X1.2345Y3.8295
X1.2345Y3.7295
X1.2345Y3.6295
X1.2345Y3.5295
X1.2345Y3.4295
X1.2345Y3.3295
X1.2345Y3.2295
X1.2345Y3.1295
X1.2345Y3.0295
X1.2345Y2.4295
X1.2345Y2.1295
X1.2345Y2.0295
X1.2345Y1.7295
X1.2345Y1.6295
X1.2345Y1.5295
X1.2345Y1.4295
X1.2345Y1.3295
X1.2345Y1.2295
X1.2345Y1.1295
X1.2345Y1.0295
X1.2345Y0.9295
X1.2345Y0.8295
X1.2345Y0.7295
X1.2345Y0.6295
X1.2345Y0.5295
X1.2345Y0.4295
X1.2345Y0.3295
X1.3345Y3.9295
X1.3345Y3.8295
X1.3345Y3.7295
X1.3345Y3.6295
X1.3345Y3.5295
X1.3345Y3.4295
X1.3345Y3.3295
X1.3345Y3.2295
X1.3345Y3.1295
X1.3345Y3.0295
X1.3345Y2.9295
X1.3345Y2.7295
X1.3345Y2.6295
X1.3345Y2.5295
X1.3345Y2.4295
X1.3345Y2.0295
X1.3345Y1.9295
X1.3345Y1.6295
X1.3345Y1.5295
X1.3345Y1.4295
X1.3345Y1.3295
X1.3345Y1.2295
X1.3345Y1.1295
X1.3345Y1.0295
X1.3345Y0.9295
X1.3345Y0.8295
X1.3345Y0.7295
X1.3345Y0.6295
X1.3345Y0.5295
X1.3345Y0.4295
X1.3345Y0.3295
X1.4345Y3.9295
X1.4345Y3.8295
X1.4345Y3.7295
X1.4345Y3.6295
X1.4345Y3.5295
X1.4345Y3.4295
X1.4345Y3.3295
X1.4345Y3.2295
X1.4345Y3.1295
X1.4345Y3.0295
X1.4345Y2.9295
X1.4345Y2.7295
X1.4345Y2.6295
X1.4345Y2.5295
X1.4345Y2.4295
X1.4345Y2.2295
X1.4345Y1.9295
X1.4345Y1.8295
X1.4345Y1.5295
X1.4345Y1.4295
X1.4345Y1.3295
X1.4345Y1.2295
X1.4345Y1.1295
X1.4345Y1.0295
X1.4345Y0.9295
X1.4345Y0.8295
X1.4345Y0.7295
X1.4345Y0.6295
X1.4345Y0.5295
X1.4345Y0.4295
X1.4345Y0.3295
X1.5345Y3.9295
X1.5345Y3.8295
X1.5345Y3.7295
X1.5345Y3.6295
X1.5345Y3.5295
X1.5345Y3.4295
X1.5345Y3.3295
X1.5345Y3.2295
X1.5345Y3.1295
X1.5345Y3.0295
X1.5345Y2.9295
X1.5345Y2.7295
X1.5345Y2.6295
X1.5345Y2.5295
X1.5345Y2.4295
X1.5345Y2.2295
X1.5345Y2.1295
X1.5345Y1.8295
X1.5345Y1.7295
X1.5345Y1.4295
X1.5345Y1.3295
X1.5345Y1.2295
X1.5345Y1.1295
X1.5345Y1.0295
X1.5345Y0.9295
X1.5345Y0.8295
X1.5345Y0.7295
X1.5345Y0.6295
X1.5345Y0.5295
X1.5345Y0.4295
X1.5345Y0.3295
X1.6345Y3.9295
X1.6345Y3.8295
X1.6345Y3.7295
X1.6345Y3.6295
X1.6345Y3.5295
X1.6345Y3.4295
X1.6345Y3.3295
X1.6345Y3.2295
X1.6345Y3.1295
X1.6345Y3.0295
X1.6345Y2.9295
X1.6345Y2.7295
X1.6345Y2.6295
X1.6345Y2.5295
X1.6345Y2.4295
X1.6345Y2.2295
X1.6345Y2.1295
X1.6345Y2.0295
X1.6345Y1.7295
X1.6345Y1.6295
X1.7345Y3.9295
X1.7345Y3.8295
X1.7345Y3.7295
X1.7345Y3.6295
X1.7345Y3.5295
X1.7345Y3.4295
X1.7345Y3.3295
X1.7345Y3.2295
X1.7345Y3.1295
X1.7345Y3.0295
X1.7345Y2.9295
X1.7345Y2.7295
X1.7345Y2.6295
X1.7345Y2.5295
X1.7345Y2.4295
X1.7345Y2.2295
X1.7345Y2.1295
X1.7345Y2.0295
X1.7345Y1.9295
X1.7345Y1.6295
X1.7345Y1.5295
X1.7345Y1.3295
X1.7345Y1.2295
X1.7345Y1.1295
X1.7345Y1.0295
X1.7345Y0.9295
X1.7345Y0.8295
X1.7345Y0.7295
X1.7345Y0.6295
X1.7345Y0.5295
X1.7345Y0.4295
X1.7345Y0.3295
X1.8345Y3.9295
X1.8345Y3.8295
X1.8345Y3.7295
X1.8345Y3.6295
X1.8345Y3.5295
X1.8345Y3.4295
X1.8345Y3.3295
X1.8345Y3.2295
X1.8345Y3.1295
X1.8345Y3.0295
X1.8345Y2.9295
X1.8345Y2.7295
X1.8345Y2.6295
X1.8345Y2.5295
X1.8345Y2.4295
X1.8345Y2.2295
X1.8345Y2.1295
X1.8345Y2.0295
X1.8345Y1.9295
X1.8345Y1.8295
X1.8345Y1.5295
X1.8345Y1.4295
X1.8345Y1.3295
X1.8345Y1.2295
X1.8345Y1.1295
X1.8345Y1.0295
X1.8345Y0.9295
X1.8345Y0.8295
X1.8345Y0.7295
X1.8345Y0.6295
X1.8345Y0.4295
X1.8345Y0.3295
X1.9345Y3.9295
X1.9345Y3.8295
X1.9345Y3.7295
X1.9345Y3.6295
X1.9345Y3.5295
X1.9345Y3.4295
X1.9345Y3.3295
X1.9345Y3.2295
X1.9345Y3.1295
X1.9345Y3.0295
X1.9345Y2.9295
X1.9345Y2.7295
X1.9345Y2.6295
X1.9345Y2.5295
X1.9345Y2.4295
X1.9345Y2.2295
X1.9345Y2.1295
X1.9345Y2.0295
X1.9345Y1.9295
X1.9345Y1.8295
X1.9345Y1.4295
X1.9345Y1.3295
X1.9345Y1.2295
X1.9345Y1.1295
X1.9345Y1.0295
X1.9345Y0.9295
X1.9345Y0.8295
X1.9345Y0.7295
X1.9345Y0.6295
X1.9345Y0.5295
X1.9345Y0.3295
X2.0345Y3.9295
X2.0345Y3.8295
X2.0345Y3.7295
X2.0345Y3.6295
X2.0345Y3.5295
X2.0345Y3.4295
X2.0345Y3.3295
X2.0345Y3.2295
X2.0345Y3.1295
X2.0345Y3.0295
X2.0345Y2.9295
X2.0345Y2.7295
X2.0345Y2.6295
X2.0345Y2.5295
X2.0345Y2.4295
X2.0345Y2.1295
X2.0345Y2.0295
X2.0345Y1.9295
X2.0345Y1.8295
X2.0345Y0.7295
X2.0345Y0.6295
X2.0345Y0.5295
X2.0345Y0.4295
X2.1345Y3.9295
X2.1345Y3.8295
X2.1345Y3.7295
X2.1345Y3.6295
X2.1345Y3.5295
X2.1345Y3.4295
X2.1345Y3.3295
X2.1345Y3.2295
X2.1345Y3.1295
X2.1345Y3.0295
X2.1345Y2.9295
X2.1345Y2.6295
X2.1345Y2.5295
X2.1345Y2.4295
X2.1345Y2.0295
X2.1345Y1.9295
X2.1345Y1.8295
X2.1345Y0.7295
X2.1345Y0.6295
X2.1345Y0.5295
X2.1345Y0.4295
X2.1345Y0.3295
X2.2345Y3.9295
X2.2345Y3.8295
X2.2345Y3.7295
X2.2345Y3.6295
X2.2345Y3.5295
X2.2345Y3.4295
X2.2345Y3.3295
X2.2345Y3.2295
X2.2345Y3.1295
X2.2345Y3.0295
X2.2345Y2.9295
X2.2345Y2.5295
X2.2345Y2.4295
X2.2345Y2.3295
X2.2345Y1.9295
X2.2345Y1.8295
X2.2345Y0.7295
X2.2345Y0.6295
X2.2345Y0.5295
X2.2345Y0.4295
X2.2345Y0.3295
X2.3345Y3.9295
X2.3345Y3.8295
X2.3345Y3.7295
X2.3345Y3.6295
X2.3345Y3.5295
X2.3345Y3.4295
X2.3345Y3.3295
X2.3345Y3.2295
X2.3345Y3.1295
X2.3345Y3.0295
X2.3345Y2.9295
X2.3345Y2.4295
X2.3345Y2.3295
X2.3345Y2.2295
X2.3345Y1.8295
X2.3345Y0.7295
X2.3345Y0.6295
X2.3345Y0.5295
X2.3345Y0.4295
X2.3345Y0.3295
X2.4345Y3.9295
X2.4345Y3.8295
X2.4345Y3.7295
X2.4345Y3.6295
X2.4345Y3.5295
X2.4345Y3.4295
X2.4345Y3.3295
X2.4345Y3.2295
X2.4345Y3.1295
X2.4345Y3.0295
X2.4345Y2.9295
X2.4345Y2.3295
X2.4345Y2.2295
X2.4345Y2.1295
X2.4345Y0.7295
X2.4345Y0.6295
X2.4345Y0.5295
X2.4345Y0.4295
X2.4345Y0.3295
X2.5345Y3.3295
X2.5345Y3.2295
X2.5345Y3.1295
X2.5345Y3.0295
X2.5345Y2.2295
X2.5345Y2.1295
X2.5345Y2.0295
X2.5345Y0.7295
X2.5345Y0.6295
X2.5345Y0.5295
X2.5345Y0.4295
X2.5345Y0.3295
X2.6345Y3.6295
X2.6345Y3.5295
X2.6345Y2.1295
X2.6345Y2.0295
X2.7345Y3.6295
X2.7345Y3.5295
X2.8345Y3.6295
X2.8345Y3.5295
X2.9345Y3.6295
X2.9345Y3.5295
X2.9345Y2.9295
X2.9345Y2.8295
X2.9345Y2.7295
X2.9345Y2.6295
X2.9345Y2.5295
X2.9345Y2.4295
X2.9345Y2.3295
X2.9345Y2.2295
T2
X0.2352Y2.8569
X0.2352Y2.5121
T4
X0.3485Y1.719
X0.4725Y1.583
X0.4725Y1.3395
X0.4725Y1.0397
X0.6085Y2.877
X0.756Y3.148
X0.942Y2.4035
X1.016Y2.485
X1.232Y3.9965
X1.245Y2.8745
X1.245Y2.7385
X2.065Y1.68
X2.065Y0.814
X2.144Y1.68
X2.144Y0.814
X2.223Y1.68
X2.223Y0.814
X2.302Y1.68
X2.302Y0.814
X2.381Y1.68
X2.381Y0.814
X2.46Y1.68
X2.46Y0.814
X2.5175Y3.9965
X2.539Y1.68
X2.539Y0.814
X2.5985Y3.997
X2.618Y1.68
X2.618Y0.814
X2.697Y1.68
X2.697Y0.814
X2.776Y1.68
X2.776Y0.814
T6
X0.062Y0.2865
X0.162Y0.2865
X0.2365Y1.6395
X0.2365Y1.5395
X0.2365Y1.4395
X0.2365Y1.3395
X0.2365Y1.2395
X0.2365Y1.1395
X0.2365Y1.0395
X0.2365Y0.9395
X0.2365Y0.8395
X0.2365Y0.7395
X0.2865Y0.511
X0.2865Y0.411
X0.2865Y0.162
X0.2865Y0.062
X0.3365Y1.6395
X0.3365Y1.5395
X0.3365Y1.4395
X0.3365Y1.3395
X0.3365Y1.2395
X0.3365Y1.1395
X0.3365Y1.0395
X0.3365Y0.9395
X0.3365Y0.8395
X0.3365Y0.7395
X0.411Y0.2865
X0.511Y0.2865
X0.8555Y0.062
X0.9555Y0.062
X2.3265Y0.062
X2.4265Y0.062
X2.458Y4.148
X2.558Y4.148
X3.018Y3.8575
X3.018Y3.7575
T7
X2.957Y3.3075
X2.957Y3.2075
X2.957Y3.1075
T8
X2.7242Y3.4075
X2.7242Y3.3075
X2.7242Y3.2075
X2.7242Y3.1075
X2.7242Y3.0075
X2.7242Y2.9075
X2.7242Y2.8075
X2.7242Y2.7075
X2.7242Y2.6075
X2.7242Y2.5075
X2.7242Y2.4075
X2.7242Y2.3075
X2.7242Y2.2075
X2.7242Y2.1075
X2.7242Y2.0075
X2.7242Y1.9075
T9
X0.5588Y3.8012
X0.5588Y0.5728
X2.7242Y3.8012
X2.7242Y0.5728
T3
X1.5032Y0.0442G85X1.5032Y0.0698
G05
X1.7788Y0.0442G85X1.7788Y0.0698
G05
T5
X1.5367Y0.1633G85X1.5485Y0.1633
G05
X1.7335Y0.1633G85X1.7453Y0.1633
G05
T0
M30
