G04 #@! TF.FileFunction,Legend,Bot*
%FSLAX46Y46*%
G04 Gerber Fmt 4.6, Leading zero omitted, Abs format (unit mm)*
G04 Created by KiCad (PCBNEW 4.0.5) date 05/07/17 15:27:17*
%MOMM*%
%LPD*%
G01*
G04 APERTURE LIST*
%ADD10C,0.025400*%
%ADD11C,0.120000*%
%ADD12C,0.150000*%
G04 APERTURE END LIST*
D10*
D11*
X71078460Y63804420D02*
X71078460Y62804420D01*
X69378460Y62804420D02*
X69378460Y63804420D01*
X60593680Y72414880D02*
X60593680Y71714880D01*
X61793680Y71714880D02*
X61793680Y72414880D01*
X61828580Y72213660D02*
X61828580Y72713660D01*
X62768580Y72713660D02*
X62768580Y72213660D01*
X111705580Y42306340D02*
X112205580Y42306340D01*
X112205580Y41366340D02*
X111705580Y41366340D01*
X111705580Y41452900D02*
X112205580Y41452900D01*
X112205580Y40512900D02*
X111705580Y40512900D01*
X111705580Y40599460D02*
X112205580Y40599460D01*
X112205580Y39659460D02*
X111705580Y39659460D01*
X2583280Y26480580D02*
X2583280Y25980580D01*
X1643280Y25980580D02*
X1643280Y26480580D01*
X69795580Y67973040D02*
X70295580Y67973040D01*
X70295580Y67033040D02*
X69795580Y67033040D01*
X68055680Y64122400D02*
X68555680Y64122400D01*
X68555680Y63182400D02*
X68055680Y63182400D01*
X67980460Y71146860D02*
X67980460Y71646860D01*
X68920460Y71646860D02*
X68920460Y71146860D01*
X69375120Y65355280D02*
X69375120Y64855280D01*
X68435120Y64855280D02*
X68435120Y65355280D01*
X64006540Y69735600D02*
X63506540Y69735600D01*
X63506540Y70675600D02*
X64006540Y70675600D01*
X64006540Y70589040D02*
X63506540Y70589040D01*
X63506540Y71529040D02*
X64006540Y71529040D01*
X64006540Y71442480D02*
X63506540Y71442480D01*
X63506540Y72382480D02*
X64006540Y72382480D01*
X68055680Y63268960D02*
X68555680Y63268960D01*
X68555680Y62328960D02*
X68055680Y62328960D01*
X62820360Y68630700D02*
X62320360Y68630700D01*
X62320360Y69570700D02*
X62820360Y69570700D01*
D12*
X72430841Y63471086D02*
X72430841Y63947277D01*
X71430841Y63947277D01*
X71764174Y62709181D02*
X72430841Y62709181D01*
X71383222Y62947277D02*
X72097508Y63185372D01*
X72097508Y62566324D01*
X59872251Y72898213D02*
X59872251Y73231547D01*
X60396061Y73231547D02*
X59396061Y73231547D01*
X59396061Y72755356D01*
X59872251Y72041070D02*
X59919870Y71898213D01*
X59967490Y71850594D01*
X60062728Y71802975D01*
X60205585Y71802975D01*
X60300823Y71850594D01*
X60348442Y71898213D01*
X60396061Y71993451D01*
X60396061Y72374404D01*
X59396061Y72374404D01*
X59396061Y72041070D01*
X59443680Y71945832D01*
X59491299Y71898213D01*
X59586537Y71850594D01*
X59681775Y71850594D01*
X59777013Y71898213D01*
X59824632Y71945832D01*
X59872251Y72041070D01*
X59872251Y72374404D01*
X60396061Y70850594D02*
X60396061Y71422023D01*
X60396061Y71136309D02*
X59396061Y71136309D01*
X59538918Y71231547D01*
X59634156Y71326785D01*
X59681775Y71422023D01*
X62659521Y74634386D02*
X62183330Y74967720D01*
X62659521Y75205815D02*
X61659521Y75205815D01*
X61659521Y74824862D01*
X61707140Y74729624D01*
X61754759Y74682005D01*
X61849997Y74634386D01*
X61992854Y74634386D01*
X62088092Y74682005D01*
X62135711Y74729624D01*
X62183330Y74824862D01*
X62183330Y75205815D01*
X62659521Y73682005D02*
X62659521Y74253434D01*
X62659521Y73967720D02*
X61659521Y73967720D01*
X61802378Y74062958D01*
X61897616Y74158196D01*
X61945235Y74253434D01*
X115808997Y41471577D02*
X115856616Y41423958D01*
X115999473Y41376339D01*
X116094711Y41376339D01*
X116237569Y41423958D01*
X116332807Y41519196D01*
X116380426Y41614434D01*
X116428045Y41804910D01*
X116428045Y41947768D01*
X116380426Y42138244D01*
X116332807Y42233482D01*
X116237569Y42328720D01*
X116094711Y42376339D01*
X115999473Y42376339D01*
X115856616Y42328720D01*
X115808997Y42281101D01*
X115428045Y42281101D02*
X115380426Y42328720D01*
X115285188Y42376339D01*
X115047092Y42376339D01*
X114951854Y42328720D01*
X114904235Y42281101D01*
X114856616Y42185863D01*
X114856616Y42090625D01*
X114904235Y41947768D01*
X115475664Y41376339D01*
X114856616Y41376339D01*
X114523283Y42376339D02*
X113904235Y42376339D01*
X114237569Y41995387D01*
X114094711Y41995387D01*
X113999473Y41947768D01*
X113951854Y41900149D01*
X113904235Y41804910D01*
X113904235Y41566815D01*
X113951854Y41471577D01*
X113999473Y41423958D01*
X114094711Y41376339D01*
X114380426Y41376339D01*
X114475664Y41423958D01*
X114523283Y41471577D01*
X110093997Y40582577D02*
X110141616Y40534958D01*
X110284473Y40487339D01*
X110379711Y40487339D01*
X110522569Y40534958D01*
X110617807Y40630196D01*
X110665426Y40725434D01*
X110713045Y40915910D01*
X110713045Y41058768D01*
X110665426Y41249244D01*
X110617807Y41344482D01*
X110522569Y41439720D01*
X110379711Y41487339D01*
X110284473Y41487339D01*
X110141616Y41439720D01*
X110093997Y41392101D01*
X109713045Y41392101D02*
X109665426Y41439720D01*
X109570188Y41487339D01*
X109332092Y41487339D01*
X109236854Y41439720D01*
X109189235Y41392101D01*
X109141616Y41296863D01*
X109141616Y41201625D01*
X109189235Y41058768D01*
X109760664Y40487339D01*
X109141616Y40487339D01*
X108760664Y41392101D02*
X108713045Y41439720D01*
X108617807Y41487339D01*
X108379711Y41487339D01*
X108284473Y41439720D01*
X108236854Y41392101D01*
X108189235Y41296863D01*
X108189235Y41201625D01*
X108236854Y41058768D01*
X108808283Y40487339D01*
X108189235Y40487339D01*
X115808997Y39820577D02*
X115856616Y39772958D01*
X115999473Y39725339D01*
X116094711Y39725339D01*
X116237569Y39772958D01*
X116332807Y39868196D01*
X116380426Y39963434D01*
X116428045Y40153910D01*
X116428045Y40296768D01*
X116380426Y40487244D01*
X116332807Y40582482D01*
X116237569Y40677720D01*
X116094711Y40725339D01*
X115999473Y40725339D01*
X115856616Y40677720D01*
X115808997Y40630101D01*
X115428045Y40630101D02*
X115380426Y40677720D01*
X115285188Y40725339D01*
X115047092Y40725339D01*
X114951854Y40677720D01*
X114904235Y40630101D01*
X114856616Y40534863D01*
X114856616Y40439625D01*
X114904235Y40296768D01*
X115475664Y39725339D01*
X114856616Y39725339D01*
X113904235Y39725339D02*
X114475664Y39725339D01*
X114189950Y39725339D02*
X114189950Y40725339D01*
X114285188Y40582482D01*
X114380426Y40487244D01*
X114475664Y40439625D01*
X1223283Y26850577D02*
X1270902Y26898196D01*
X1318521Y27041053D01*
X1318521Y27136291D01*
X1270902Y27279149D01*
X1175664Y27374387D01*
X1080426Y27422006D01*
X889950Y27469625D01*
X747092Y27469625D01*
X556616Y27422006D01*
X461378Y27374387D01*
X366140Y27279149D01*
X318521Y27136291D01*
X318521Y27041053D01*
X366140Y26898196D01*
X413759Y26850577D01*
X1318521Y25898196D02*
X1318521Y26469625D01*
X1318521Y26183911D02*
X318521Y26183911D01*
X461378Y26279149D01*
X556616Y26374387D01*
X604235Y26469625D01*
X1318521Y25422006D02*
X1318521Y25231530D01*
X1270902Y25136291D01*
X1223283Y25088672D01*
X1080426Y24993434D01*
X889950Y24945815D01*
X508997Y24945815D01*
X413759Y24993434D01*
X366140Y25041053D01*
X318521Y25136291D01*
X318521Y25326768D01*
X366140Y25422006D01*
X413759Y25469625D01*
X508997Y25517244D01*
X747092Y25517244D01*
X842330Y25469625D01*
X889950Y25422006D01*
X937569Y25326768D01*
X937569Y25136291D01*
X889950Y25041053D01*
X842330Y24993434D01*
X747092Y24945815D01*
X70688437Y68415897D02*
X70736056Y68368278D01*
X70878913Y68320659D01*
X70974151Y68320659D01*
X71117009Y68368278D01*
X71212247Y68463516D01*
X71259866Y68558754D01*
X71307485Y68749230D01*
X71307485Y68892088D01*
X71259866Y69082564D01*
X71212247Y69177802D01*
X71117009Y69273040D01*
X70974151Y69320659D01*
X70878913Y69320659D01*
X70736056Y69273040D01*
X70688437Y69225421D01*
X69736056Y68320659D02*
X70307485Y68320659D01*
X70021771Y68320659D02*
X70021771Y69320659D01*
X70117009Y69177802D01*
X70212247Y69082564D01*
X70307485Y69034945D01*
X69164628Y68892088D02*
X69259866Y68939707D01*
X69307485Y68987326D01*
X69355104Y69082564D01*
X69355104Y69130183D01*
X69307485Y69225421D01*
X69259866Y69273040D01*
X69164628Y69320659D01*
X68974151Y69320659D01*
X68878913Y69273040D01*
X68831294Y69225421D01*
X68783675Y69130183D01*
X68783675Y69082564D01*
X68831294Y68987326D01*
X68878913Y68939707D01*
X68974151Y68892088D01*
X69164628Y68892088D01*
X69259866Y68844469D01*
X69307485Y68796850D01*
X69355104Y68701611D01*
X69355104Y68511135D01*
X69307485Y68415897D01*
X69259866Y68368278D01*
X69164628Y68320659D01*
X68974151Y68320659D01*
X68878913Y68368278D01*
X68831294Y68415897D01*
X68783675Y68511135D01*
X68783675Y68701611D01*
X68831294Y68796850D01*
X68878913Y68844469D01*
X68974151Y68892088D01*
X66532997Y63315577D02*
X66580616Y63267958D01*
X66723473Y63220339D01*
X66818711Y63220339D01*
X66961569Y63267958D01*
X67056807Y63363196D01*
X67104426Y63458434D01*
X67152045Y63648910D01*
X67152045Y63791768D01*
X67104426Y63982244D01*
X67056807Y64077482D01*
X66961569Y64172720D01*
X66818711Y64220339D01*
X66723473Y64220339D01*
X66580616Y64172720D01*
X66532997Y64125101D01*
X65580616Y63220339D02*
X66152045Y63220339D01*
X65866331Y63220339D02*
X65866331Y64220339D01*
X65961569Y64077482D01*
X66056807Y63982244D01*
X66152045Y63934625D01*
X64723473Y64220339D02*
X64913950Y64220339D01*
X65009188Y64172720D01*
X65056807Y64125101D01*
X65152045Y63982244D01*
X65199664Y63791768D01*
X65199664Y63410815D01*
X65152045Y63315577D01*
X65104426Y63267958D01*
X65009188Y63220339D01*
X64818711Y63220339D01*
X64723473Y63267958D01*
X64675854Y63315577D01*
X64628235Y63410815D01*
X64628235Y63648910D01*
X64675854Y63744149D01*
X64723473Y63791768D01*
X64818711Y63839387D01*
X65009188Y63839387D01*
X65104426Y63791768D01*
X65152045Y63744149D01*
X65199664Y63648910D01*
X70057283Y72062577D02*
X70104902Y72110196D01*
X70152521Y72253053D01*
X70152521Y72348291D01*
X70104902Y72491149D01*
X70009664Y72586387D01*
X69914426Y72634006D01*
X69723950Y72681625D01*
X69581092Y72681625D01*
X69390616Y72634006D01*
X69295378Y72586387D01*
X69200140Y72491149D01*
X69152521Y72348291D01*
X69152521Y72253053D01*
X69200140Y72110196D01*
X69247759Y72062577D01*
X70152521Y71110196D02*
X70152521Y71681625D01*
X70152521Y71395911D02*
X69152521Y71395911D01*
X69295378Y71491149D01*
X69390616Y71586387D01*
X69438235Y71681625D01*
X69152521Y70205434D02*
X69152521Y70681625D01*
X69628711Y70729244D01*
X69581092Y70681625D01*
X69533473Y70586387D01*
X69533473Y70348291D01*
X69581092Y70253053D01*
X69628711Y70205434D01*
X69723950Y70157815D01*
X69962045Y70157815D01*
X70057283Y70205434D01*
X70104902Y70253053D01*
X70152521Y70348291D01*
X70152521Y70586387D01*
X70104902Y70681625D01*
X70057283Y70729244D01*
X67548997Y65220577D02*
X67596616Y65172958D01*
X67739473Y65125339D01*
X67834711Y65125339D01*
X67977569Y65172958D01*
X68072807Y65268196D01*
X68120426Y65363434D01*
X68168045Y65553910D01*
X68168045Y65696768D01*
X68120426Y65887244D01*
X68072807Y65982482D01*
X67977569Y66077720D01*
X67834711Y66125339D01*
X67739473Y66125339D01*
X67596616Y66077720D01*
X67548997Y66030101D01*
X66596616Y65125339D02*
X67168045Y65125339D01*
X66882331Y65125339D02*
X66882331Y66125339D01*
X66977569Y65982482D01*
X67072807Y65887244D01*
X67168045Y65839625D01*
X65739473Y65792006D02*
X65739473Y65125339D01*
X65977569Y66172958D02*
X66215664Y65458672D01*
X65596616Y65458672D01*
X64596283Y68887577D02*
X64643902Y68935196D01*
X64691521Y69078053D01*
X64691521Y69173291D01*
X64643902Y69316149D01*
X64548664Y69411387D01*
X64453426Y69459006D01*
X64262950Y69506625D01*
X64120092Y69506625D01*
X63929616Y69459006D01*
X63834378Y69411387D01*
X63739140Y69316149D01*
X63691521Y69173291D01*
X63691521Y69078053D01*
X63739140Y68935196D01*
X63786759Y68887577D01*
X64691521Y67935196D02*
X64691521Y68506625D01*
X64691521Y68220911D02*
X63691521Y68220911D01*
X63834378Y68316149D01*
X63929616Y68411387D01*
X63977235Y68506625D01*
X63691521Y67601863D02*
X63691521Y66982815D01*
X64072473Y67316149D01*
X64072473Y67173291D01*
X64120092Y67078053D01*
X64167711Y67030434D01*
X64262950Y66982815D01*
X64501045Y66982815D01*
X64596283Y67030434D01*
X64643902Y67078053D01*
X64691521Y67173291D01*
X64691521Y67459006D01*
X64643902Y67554244D01*
X64596283Y67601863D01*
X66786997Y70681577D02*
X66834616Y70633958D01*
X66977473Y70586339D01*
X67072711Y70586339D01*
X67215569Y70633958D01*
X67310807Y70729196D01*
X67358426Y70824434D01*
X67406045Y71014910D01*
X67406045Y71157768D01*
X67358426Y71348244D01*
X67310807Y71443482D01*
X67215569Y71538720D01*
X67072711Y71586339D01*
X66977473Y71586339D01*
X66834616Y71538720D01*
X66786997Y71491101D01*
X65834616Y70586339D02*
X66406045Y70586339D01*
X66120331Y70586339D02*
X66120331Y71586339D01*
X66215569Y71443482D01*
X66310807Y71348244D01*
X66406045Y71300625D01*
X65453664Y71491101D02*
X65406045Y71538720D01*
X65310807Y71586339D01*
X65072711Y71586339D01*
X64977473Y71538720D01*
X64929854Y71491101D01*
X64882235Y71395863D01*
X64882235Y71300625D01*
X64929854Y71157768D01*
X65501283Y70586339D01*
X64882235Y70586339D01*
X64881997Y72713577D02*
X64929616Y72665958D01*
X65072473Y72618339D01*
X65167711Y72618339D01*
X65310569Y72665958D01*
X65405807Y72761196D01*
X65453426Y72856434D01*
X65501045Y73046910D01*
X65501045Y73189768D01*
X65453426Y73380244D01*
X65405807Y73475482D01*
X65310569Y73570720D01*
X65167711Y73618339D01*
X65072473Y73618339D01*
X64929616Y73570720D01*
X64881997Y73523101D01*
X63929616Y72618339D02*
X64501045Y72618339D01*
X64215331Y72618339D02*
X64215331Y73618339D01*
X64310569Y73475482D01*
X64405807Y73380244D01*
X64501045Y73332625D01*
X62977235Y72618339D02*
X63548664Y72618339D01*
X63262950Y72618339D02*
X63262950Y73618339D01*
X63358188Y73475482D01*
X63453426Y73380244D01*
X63548664Y73332625D01*
X68564997Y61156577D02*
X68612616Y61108958D01*
X68755473Y61061339D01*
X68850711Y61061339D01*
X68993569Y61108958D01*
X69088807Y61204196D01*
X69136426Y61299434D01*
X69184045Y61489910D01*
X69184045Y61632768D01*
X69136426Y61823244D01*
X69088807Y61918482D01*
X68993569Y62013720D01*
X68850711Y62061339D01*
X68755473Y62061339D01*
X68612616Y62013720D01*
X68564997Y61966101D01*
X67612616Y61061339D02*
X68184045Y61061339D01*
X67898331Y61061339D02*
X67898331Y62061339D01*
X67993569Y61918482D01*
X68088807Y61823244D01*
X68184045Y61775625D01*
X67279283Y62061339D02*
X66612616Y62061339D01*
X67041188Y61061339D01*
X60817997Y68776577D02*
X60865616Y68728958D01*
X61008473Y68681339D01*
X61103711Y68681339D01*
X61246569Y68728958D01*
X61341807Y68824196D01*
X61389426Y68919434D01*
X61437045Y69109910D01*
X61437045Y69252768D01*
X61389426Y69443244D01*
X61341807Y69538482D01*
X61246569Y69633720D01*
X61103711Y69681339D01*
X61008473Y69681339D01*
X60865616Y69633720D01*
X60817997Y69586101D01*
X59865616Y68681339D02*
X60437045Y68681339D01*
X60151331Y68681339D02*
X60151331Y69681339D01*
X60246569Y69538482D01*
X60341807Y69443244D01*
X60437045Y69395625D01*
X59246569Y69681339D02*
X59151330Y69681339D01*
X59056092Y69633720D01*
X59008473Y69586101D01*
X58960854Y69490863D01*
X58913235Y69300387D01*
X58913235Y69062291D01*
X58960854Y68871815D01*
X59008473Y68776577D01*
X59056092Y68728958D01*
X59151330Y68681339D01*
X59246569Y68681339D01*
X59341807Y68728958D01*
X59389426Y68776577D01*
X59437045Y68871815D01*
X59484664Y69062291D01*
X59484664Y69300387D01*
X59437045Y69490863D01*
X59389426Y69586101D01*
X59341807Y69633720D01*
X59246569Y69681339D01*
M02*
