G04 #@! TF.FileFunction,Legend,Bot*
%FSLAX46Y46*%
G04 Gerber Fmt 4.6, Leading zero omitted, Abs format (unit mm)*
G04 Created by KiCad (PCBNEW 4.0.5) date 04/12/17 14:33:26*
%MOMM*%
%LPD*%
G01*
G04 APERTURE LIST*
%ADD10C,0.025400*%
%ADD11C,0.120000*%
%ADD12C,0.076200*%
G04 APERTURE END LIST*
D10*
D11*
X17090200Y67182900D02*
X16590200Y67182900D01*
X16590200Y68122900D02*
X17090200Y68122900D01*
X23215700Y62759400D02*
X23215700Y62259400D01*
X22275700Y62259400D02*
X22275700Y62759400D01*
X16711100Y76042500D02*
X21211100Y76042500D01*
X21211100Y76042500D02*
X21211100Y70642500D01*
X27127300Y66442400D02*
X27127300Y65942400D01*
X26187300Y65942400D02*
X26187300Y66442400D01*
X25734200Y68503900D02*
X26234200Y68503900D01*
X26234200Y67563900D02*
X25734200Y67563900D01*
X19320700Y77012900D02*
X19820700Y77012900D01*
X19820700Y76072900D02*
X19320700Y76072900D01*
X18601500Y69672100D02*
X18101500Y69672100D01*
X18101500Y70612100D02*
X18601500Y70612100D01*
X18157000Y68300500D02*
X17657000Y68300500D01*
X17657000Y69240500D02*
X18157000Y69240500D01*
X25692200Y63927800D02*
X25692200Y63427800D01*
X24752200Y63427800D02*
X24752200Y63927800D01*
X22326500Y70031800D02*
X22326500Y70531800D01*
X23266500Y70531800D02*
X23266500Y70031800D01*
X22415600Y62759400D02*
X22415600Y62259400D01*
X21475600Y62259400D02*
X21475600Y62759400D01*
X24121300Y66535400D02*
X24621300Y66535400D01*
X24621300Y65595400D02*
X24121300Y65595400D01*
X69714300Y44094500D02*
X70214300Y44094500D01*
X70214300Y43154500D02*
X69714300Y43154500D01*
X69714300Y44894600D02*
X70214300Y44894600D01*
X70214300Y43954600D02*
X69714300Y43954600D01*
X69714300Y45694700D02*
X70214300Y45694700D01*
X70214300Y44754700D02*
X69714300Y44754700D01*
X14855900Y72790800D02*
X14855900Y72090800D01*
X16055900Y72090800D02*
X16055900Y72790800D01*
X24776800Y62374400D02*
X24776800Y61374400D01*
X23076800Y61374400D02*
X23076800Y62374400D01*
D12*
X17166772Y66607871D02*
X17190962Y66583681D01*
X17263534Y66559490D01*
X17311915Y66559490D01*
X17384486Y66583681D01*
X17432867Y66632062D01*
X17457058Y66680443D01*
X17481248Y66777205D01*
X17481248Y66849776D01*
X17457058Y66946538D01*
X17432867Y66994919D01*
X17384486Y67043300D01*
X17311915Y67067490D01*
X17263534Y67067490D01*
X17190962Y67043300D01*
X17166772Y67019110D01*
X16682962Y66559490D02*
X16973248Y66559490D01*
X16828105Y66559490D02*
X16828105Y67067490D01*
X16876486Y66994919D01*
X16924867Y66946538D01*
X16973248Y66922348D01*
X16368486Y67067490D02*
X16320105Y67067490D01*
X16271724Y67043300D01*
X16247533Y67019110D01*
X16223343Y66970729D01*
X16199152Y66873967D01*
X16199152Y66753014D01*
X16223343Y66656252D01*
X16247533Y66607871D01*
X16271724Y66583681D01*
X16320105Y66559490D01*
X16368486Y66559490D01*
X16416867Y66583681D01*
X16441057Y66607871D01*
X16465248Y66656252D01*
X16489438Y66753014D01*
X16489438Y66873967D01*
X16465248Y66970729D01*
X16441057Y67019110D01*
X16416867Y67043300D01*
X16368486Y67067490D01*
X22927129Y61121472D02*
X22951319Y61145662D01*
X22975510Y61218234D01*
X22975510Y61266615D01*
X22951319Y61339186D01*
X22902938Y61387567D01*
X22854557Y61411758D01*
X22757795Y61435948D01*
X22685224Y61435948D01*
X22588462Y61411758D01*
X22540081Y61387567D01*
X22491700Y61339186D01*
X22467510Y61266615D01*
X22467510Y61218234D01*
X22491700Y61145662D01*
X22515890Y61121472D01*
X22975510Y60637662D02*
X22975510Y60927948D01*
X22975510Y60782805D02*
X22467510Y60782805D01*
X22540081Y60831186D01*
X22588462Y60879567D01*
X22612652Y60927948D01*
X22467510Y60468329D02*
X22467510Y60129662D01*
X22975510Y60347376D01*
X21590605Y73584405D02*
X21832510Y73584405D01*
X21324510Y73753738D02*
X21590605Y73584405D01*
X21324510Y73415071D01*
X21372890Y73269928D02*
X21348700Y73245738D01*
X21324510Y73197357D01*
X21324510Y73076404D01*
X21348700Y73028023D01*
X21372890Y73003833D01*
X21421271Y72979642D01*
X21469652Y72979642D01*
X21542224Y73003833D01*
X21832510Y73294119D01*
X21832510Y72979642D01*
X26127529Y66289767D02*
X26151719Y66313957D01*
X26175910Y66386529D01*
X26175910Y66434910D01*
X26151719Y66507481D01*
X26103338Y66555862D01*
X26054957Y66580053D01*
X25958195Y66604243D01*
X25885624Y66604243D01*
X25788862Y66580053D01*
X25740481Y66555862D01*
X25692100Y66507481D01*
X25667910Y66434910D01*
X25667910Y66386529D01*
X25692100Y66313957D01*
X25716290Y66289767D01*
X25667910Y65854338D02*
X25667910Y65951100D01*
X25692100Y65999481D01*
X25716290Y66023672D01*
X25788862Y66072053D01*
X25885624Y66096243D01*
X26079148Y66096243D01*
X26127529Y66072053D01*
X26151719Y66047862D01*
X26175910Y65999481D01*
X26175910Y65902719D01*
X26151719Y65854338D01*
X26127529Y65830148D01*
X26079148Y65805957D01*
X25958195Y65805957D01*
X25909814Y65830148D01*
X25885624Y65854338D01*
X25861433Y65902719D01*
X25861433Y65999481D01*
X25885624Y66047862D01*
X25909814Y66072053D01*
X25958195Y66096243D01*
X26056167Y68563671D02*
X26080357Y68539481D01*
X26152929Y68515290D01*
X26201310Y68515290D01*
X26273881Y68539481D01*
X26322262Y68587862D01*
X26346453Y68636243D01*
X26370643Y68733005D01*
X26370643Y68805576D01*
X26346453Y68902338D01*
X26322262Y68950719D01*
X26273881Y68999100D01*
X26201310Y69023290D01*
X26152929Y69023290D01*
X26080357Y68999100D01*
X26056167Y68974910D01*
X25886834Y69023290D02*
X25548167Y69023290D01*
X25765881Y68515290D01*
X19655367Y77174271D02*
X19679557Y77150081D01*
X19752129Y77125890D01*
X19800510Y77125890D01*
X19873081Y77150081D01*
X19921462Y77198462D01*
X19945653Y77246843D01*
X19969843Y77343605D01*
X19969843Y77416176D01*
X19945653Y77512938D01*
X19921462Y77561319D01*
X19873081Y77609700D01*
X19800510Y77633890D01*
X19752129Y77633890D01*
X19679557Y77609700D01*
X19655367Y77585510D01*
X19365081Y77416176D02*
X19413462Y77440367D01*
X19437653Y77464557D01*
X19461843Y77512938D01*
X19461843Y77537129D01*
X19437653Y77585510D01*
X19413462Y77609700D01*
X19365081Y77633890D01*
X19268319Y77633890D01*
X19219938Y77609700D01*
X19195748Y77585510D01*
X19171557Y77537129D01*
X19171557Y77512938D01*
X19195748Y77464557D01*
X19219938Y77440367D01*
X19268319Y77416176D01*
X19365081Y77416176D01*
X19413462Y77391986D01*
X19437653Y77367795D01*
X19461843Y77319414D01*
X19461843Y77222652D01*
X19437653Y77174271D01*
X19413462Y77150081D01*
X19365081Y77125890D01*
X19268319Y77125890D01*
X19219938Y77150081D01*
X19195748Y77174271D01*
X19171557Y77222652D01*
X19171557Y77319414D01*
X19195748Y77367795D01*
X19219938Y77391986D01*
X19268319Y77416176D01*
X19909367Y69986071D02*
X19933557Y69961881D01*
X20006129Y69937690D01*
X20054510Y69937690D01*
X20127081Y69961881D01*
X20175462Y70010262D01*
X20199653Y70058643D01*
X20223843Y70155405D01*
X20223843Y70227976D01*
X20199653Y70324738D01*
X20175462Y70373119D01*
X20127081Y70421500D01*
X20054510Y70445690D01*
X20006129Y70445690D01*
X19933557Y70421500D01*
X19909367Y70397310D01*
X19667462Y69937690D02*
X19570700Y69937690D01*
X19522319Y69961881D01*
X19498129Y69986071D01*
X19449748Y70058643D01*
X19425557Y70155405D01*
X19425557Y70348929D01*
X19449748Y70397310D01*
X19473938Y70421500D01*
X19522319Y70445690D01*
X19619081Y70445690D01*
X19667462Y70421500D01*
X19691653Y70397310D01*
X19715843Y70348929D01*
X19715843Y70227976D01*
X19691653Y70179595D01*
X19667462Y70155405D01*
X19619081Y70131214D01*
X19522319Y70131214D01*
X19473938Y70155405D01*
X19449748Y70179595D01*
X19425557Y70227976D01*
X16519072Y68563671D02*
X16543262Y68539481D01*
X16615834Y68515290D01*
X16664215Y68515290D01*
X16736786Y68539481D01*
X16785167Y68587862D01*
X16809358Y68636243D01*
X16833548Y68733005D01*
X16833548Y68805576D01*
X16809358Y68902338D01*
X16785167Y68950719D01*
X16736786Y68999100D01*
X16664215Y69023290D01*
X16615834Y69023290D01*
X16543262Y68999100D01*
X16519072Y68974910D01*
X16035262Y68515290D02*
X16325548Y68515290D01*
X16180405Y68515290D02*
X16180405Y69023290D01*
X16228786Y68950719D01*
X16277167Y68902338D01*
X16325548Y68878148D01*
X15865929Y69023290D02*
X15551452Y69023290D01*
X15720786Y68829767D01*
X15648214Y68829767D01*
X15599833Y68805576D01*
X15575643Y68781386D01*
X15551452Y68733005D01*
X15551452Y68612052D01*
X15575643Y68563671D01*
X15599833Y68539481D01*
X15648214Y68515290D01*
X15793357Y68515290D01*
X15841738Y68539481D01*
X15865929Y68563671D01*
X26178329Y64321872D02*
X26202519Y64346062D01*
X26226710Y64418634D01*
X26226710Y64467015D01*
X26202519Y64539586D01*
X26154138Y64587967D01*
X26105757Y64612158D01*
X26008995Y64636348D01*
X25936424Y64636348D01*
X25839662Y64612158D01*
X25791281Y64587967D01*
X25742900Y64539586D01*
X25718710Y64467015D01*
X25718710Y64418634D01*
X25742900Y64346062D01*
X25767090Y64321872D01*
X26226710Y63838062D02*
X26226710Y64128348D01*
X26226710Y63983205D02*
X25718710Y63983205D01*
X25791281Y64031586D01*
X25839662Y64079967D01*
X25863852Y64128348D01*
X25888043Y63402633D02*
X26226710Y63402633D01*
X25694519Y63523586D02*
X26057376Y63644538D01*
X26057376Y63330062D01*
X22152429Y70608372D02*
X22176619Y70632562D01*
X22200810Y70705134D01*
X22200810Y70753515D01*
X22176619Y70826086D01*
X22128238Y70874467D01*
X22079857Y70898658D01*
X21983095Y70922848D01*
X21910524Y70922848D01*
X21813762Y70898658D01*
X21765381Y70874467D01*
X21717000Y70826086D01*
X21692810Y70753515D01*
X21692810Y70705134D01*
X21717000Y70632562D01*
X21741190Y70608372D01*
X22200810Y70124562D02*
X22200810Y70414848D01*
X22200810Y70269705D02*
X21692810Y70269705D01*
X21765381Y70318086D01*
X21813762Y70366467D01*
X21837952Y70414848D01*
X21692810Y69664943D02*
X21692810Y69906848D01*
X21934714Y69931038D01*
X21910524Y69906848D01*
X21886333Y69858467D01*
X21886333Y69737514D01*
X21910524Y69689133D01*
X21934714Y69664943D01*
X21983095Y69640752D01*
X22104048Y69640752D01*
X22152429Y69664943D01*
X22176619Y69689133D01*
X22200810Y69737514D01*
X22200810Y69858467D01*
X22176619Y69906848D01*
X22152429Y69931038D01*
X22127029Y61121472D02*
X22151219Y61145662D01*
X22175410Y61218234D01*
X22175410Y61266615D01*
X22151219Y61339186D01*
X22102838Y61387567D01*
X22054457Y61411758D01*
X21957695Y61435948D01*
X21885124Y61435948D01*
X21788362Y61411758D01*
X21739981Y61387567D01*
X21691600Y61339186D01*
X21667410Y61266615D01*
X21667410Y61218234D01*
X21691600Y61145662D01*
X21715790Y61121472D01*
X22175410Y60637662D02*
X22175410Y60927948D01*
X22175410Y60782805D02*
X21667410Y60782805D01*
X21739981Y60831186D01*
X21788362Y60879567D01*
X21812552Y60927948D01*
X21667410Y60202233D02*
X21667410Y60298995D01*
X21691600Y60347376D01*
X21715790Y60371567D01*
X21788362Y60419948D01*
X21885124Y60444138D01*
X22078648Y60444138D01*
X22127029Y60419948D01*
X22151219Y60395757D01*
X22175410Y60347376D01*
X22175410Y60250614D01*
X22151219Y60202233D01*
X22127029Y60178043D01*
X22078648Y60153852D01*
X21957695Y60153852D01*
X21909314Y60178043D01*
X21885124Y60202233D01*
X21860933Y60250614D01*
X21860933Y60347376D01*
X21885124Y60395757D01*
X21909314Y60419948D01*
X21957695Y60444138D01*
X24697872Y66709471D02*
X24722062Y66685281D01*
X24794634Y66661090D01*
X24843015Y66661090D01*
X24915586Y66685281D01*
X24963967Y66733662D01*
X24988158Y66782043D01*
X25012348Y66878805D01*
X25012348Y66951376D01*
X24988158Y67048138D01*
X24963967Y67096519D01*
X24915586Y67144900D01*
X24843015Y67169090D01*
X24794634Y67169090D01*
X24722062Y67144900D01*
X24697872Y67120710D01*
X24214062Y66661090D02*
X24504348Y66661090D01*
X24359205Y66661090D02*
X24359205Y67169090D01*
X24407586Y67096519D01*
X24455967Y67048138D01*
X24504348Y67023948D01*
X23923776Y66951376D02*
X23972157Y66975567D01*
X23996348Y66999757D01*
X24020538Y67048138D01*
X24020538Y67072329D01*
X23996348Y67120710D01*
X23972157Y67144900D01*
X23923776Y67169090D01*
X23827014Y67169090D01*
X23778633Y67144900D01*
X23754443Y67120710D01*
X23730252Y67072329D01*
X23730252Y67048138D01*
X23754443Y66999757D01*
X23778633Y66975567D01*
X23827014Y66951376D01*
X23923776Y66951376D01*
X23972157Y66927186D01*
X23996348Y66902995D01*
X24020538Y66854614D01*
X24020538Y66757852D01*
X23996348Y66709471D01*
X23972157Y66685281D01*
X23923776Y66661090D01*
X23827014Y66661090D01*
X23778633Y66685281D01*
X23754443Y66709471D01*
X23730252Y66757852D01*
X23730252Y66854614D01*
X23754443Y66902995D01*
X23778633Y66927186D01*
X23827014Y66951376D01*
X68512872Y43443071D02*
X68537062Y43418881D01*
X68609634Y43394690D01*
X68658015Y43394690D01*
X68730586Y43418881D01*
X68778967Y43467262D01*
X68803158Y43515643D01*
X68827348Y43612405D01*
X68827348Y43684976D01*
X68803158Y43781738D01*
X68778967Y43830119D01*
X68730586Y43878500D01*
X68658015Y43902690D01*
X68609634Y43902690D01*
X68537062Y43878500D01*
X68512872Y43854310D01*
X68319348Y43854310D02*
X68295158Y43878500D01*
X68246777Y43902690D01*
X68125824Y43902690D01*
X68077443Y43878500D01*
X68053253Y43854310D01*
X68029062Y43805929D01*
X68029062Y43757548D01*
X68053253Y43684976D01*
X68343539Y43394690D01*
X68029062Y43394690D01*
X67714586Y43902690D02*
X67666205Y43902690D01*
X67617824Y43878500D01*
X67593633Y43854310D01*
X67569443Y43805929D01*
X67545252Y43709167D01*
X67545252Y43588214D01*
X67569443Y43491452D01*
X67593633Y43443071D01*
X67617824Y43418881D01*
X67666205Y43394690D01*
X67714586Y43394690D01*
X67762967Y43418881D01*
X67787157Y43443071D01*
X67811348Y43491452D01*
X67835538Y43588214D01*
X67835538Y43709167D01*
X67811348Y43805929D01*
X67787157Y43854310D01*
X67762967Y43878500D01*
X67714586Y43902690D01*
X68512872Y44243171D02*
X68537062Y44218981D01*
X68609634Y44194790D01*
X68658015Y44194790D01*
X68730586Y44218981D01*
X68778967Y44267362D01*
X68803158Y44315743D01*
X68827348Y44412505D01*
X68827348Y44485076D01*
X68803158Y44581838D01*
X68778967Y44630219D01*
X68730586Y44678600D01*
X68658015Y44702790D01*
X68609634Y44702790D01*
X68537062Y44678600D01*
X68512872Y44654410D01*
X68319348Y44654410D02*
X68295158Y44678600D01*
X68246777Y44702790D01*
X68125824Y44702790D01*
X68077443Y44678600D01*
X68053253Y44654410D01*
X68029062Y44606029D01*
X68029062Y44557648D01*
X68053253Y44485076D01*
X68343539Y44194790D01*
X68029062Y44194790D01*
X67545252Y44194790D02*
X67835538Y44194790D01*
X67690395Y44194790D02*
X67690395Y44702790D01*
X67738776Y44630219D01*
X67787157Y44581838D01*
X67835538Y44557648D01*
X68512872Y45043271D02*
X68537062Y45019081D01*
X68609634Y44994890D01*
X68658015Y44994890D01*
X68730586Y45019081D01*
X68778967Y45067462D01*
X68803158Y45115843D01*
X68827348Y45212605D01*
X68827348Y45285176D01*
X68803158Y45381938D01*
X68778967Y45430319D01*
X68730586Y45478700D01*
X68658015Y45502890D01*
X68609634Y45502890D01*
X68537062Y45478700D01*
X68512872Y45454510D01*
X68319348Y45454510D02*
X68295158Y45478700D01*
X68246777Y45502890D01*
X68125824Y45502890D01*
X68077443Y45478700D01*
X68053253Y45454510D01*
X68029062Y45406129D01*
X68029062Y45357748D01*
X68053253Y45285176D01*
X68343539Y44994890D01*
X68029062Y44994890D01*
X67835538Y45454510D02*
X67811348Y45478700D01*
X67762967Y45502890D01*
X67642014Y45502890D01*
X67593633Y45478700D01*
X67569443Y45454510D01*
X67545252Y45406129D01*
X67545252Y45357748D01*
X67569443Y45285176D01*
X67859729Y44994890D01*
X67545252Y44994890D01*
X15445014Y75353333D02*
X15445014Y75522667D01*
X15711110Y75522667D02*
X15203110Y75522667D01*
X15203110Y75280762D01*
X15445014Y74917904D02*
X15469205Y74845333D01*
X15493395Y74821142D01*
X15541776Y74796952D01*
X15614348Y74796952D01*
X15662729Y74821142D01*
X15686919Y74845333D01*
X15711110Y74893714D01*
X15711110Y75087238D01*
X15203110Y75087238D01*
X15203110Y74917904D01*
X15227300Y74869523D01*
X15251490Y74845333D01*
X15299871Y74821142D01*
X15348252Y74821142D01*
X15396633Y74845333D01*
X15420824Y74869523D01*
X15445014Y74917904D01*
X15445014Y75087238D01*
X15711110Y74313142D02*
X15711110Y74603428D01*
X15711110Y74458285D02*
X15203110Y74458285D01*
X15275681Y74506666D01*
X15324062Y74555047D01*
X15348252Y74603428D01*
X25413910Y61971767D02*
X25413910Y62213672D01*
X24905910Y62213672D01*
X25075243Y61584719D02*
X25413910Y61584719D01*
X24881719Y61705672D02*
X25244576Y61826624D01*
X25244576Y61512148D01*
M02*
