G04 #@! TF.FileFunction,Copper,L1,Top,Signal*
%FSLAX46Y46*%
G04 Gerber Fmt 4.6, Leading zero omitted, Abs format (unit mm)*
G04 Created by KiCad (PCBNEW 4.0.5) date 05/05/17 19:05:09*
%MOMM*%
%LPD*%
G01*
G04 APERTURE LIST*
%ADD10C,0.025400*%
%ADD11C,0.356000*%
%ADD12R,30.480000X34.925000*%
%ADD13R,0.400000X1.350000*%
%ADD14O,1.250000X0.950000*%
%ADD15O,1.000000X1.550000*%
%ADD16R,1.500000X1.550000*%
%ADD17R,0.950000X1.550000*%
%ADD18R,1.200000X0.200000*%
%ADD19C,1.440000*%
%ADD20R,0.500000X0.600000*%
%ADD21R,0.800000X0.900000*%
%ADD22R,1.800000X1.000000*%
%ADD23R,0.600000X0.500000*%
%ADD24R,0.800000X0.200000*%
%ADD25R,0.200000X0.800000*%
%ADD26R,1.050000X1.050000*%
%ADD27C,0.355600*%
%ADD28R,1.524000X1.524000*%
%ADD29C,1.524000*%
%ADD30C,2.200000*%
%ADD31C,2.000000*%
%ADD32C,5.000000*%
%ADD33C,1.270000*%
%ADD34C,0.508000*%
%ADD35C,0.889000*%
%ADD36C,1.143000*%
%ADD37C,0.635000*%
%ADD38C,0.508000*%
%ADD39C,0.203200*%
%ADD40C,0.889000*%
%ADD41C,0.381000*%
%ADD42C,0.762000*%
%ADD43C,0.190500*%
G04 APERTURE END LIST*
D10*
D11*
X117401340Y2915920D03*
X97081340Y2915920D03*
X102161340Y2915920D03*
X112321340Y2915920D03*
X107241340Y2915920D03*
X86921340Y2915920D03*
X92001340Y2915920D03*
X81841340Y2915920D03*
X76761340Y2915920D03*
X117579140Y17419320D03*
X117579140Y42819320D03*
X117579140Y22499320D03*
X117579140Y27579320D03*
X117579140Y32659320D03*
X66093340Y9189720D03*
X66093340Y14269720D03*
X66093340Y24429720D03*
X66093340Y19349720D03*
X66093340Y34589720D03*
X66093340Y39669720D03*
X66093340Y29509720D03*
X66093340Y44749720D03*
X66093340Y49829720D03*
X116436140Y52598320D03*
X116436140Y57678320D03*
X116436140Y67838320D03*
X116436140Y62758320D03*
X65356740Y86177120D03*
X70436740Y86177120D03*
X65356740Y96337120D03*
X70436740Y96337120D03*
X70436740Y91257120D03*
X65356740Y91257120D03*
X75516740Y91257120D03*
X90756740Y96337120D03*
X85676740Y96337120D03*
X75516740Y96337120D03*
X80596740Y96337120D03*
X100916740Y96337120D03*
X95836740Y96337120D03*
X105996740Y96337120D03*
X111076740Y96337120D03*
X106403140Y24937720D03*
X111483140Y24937720D03*
X111483140Y30017720D03*
X101323140Y30017720D03*
X106403140Y30017720D03*
X101323140Y35097720D03*
X96243140Y35097720D03*
X106403140Y35097720D03*
X111483140Y35097720D03*
X106733340Y11729720D03*
X91493340Y14269720D03*
X91493340Y9189720D03*
X101653340Y11729720D03*
X96573340Y11729720D03*
X96573340Y19349720D03*
X96573340Y24429720D03*
X91493340Y24429720D03*
X91493340Y19349720D03*
X91493340Y29509720D03*
X71173340Y49829720D03*
X71173340Y44749720D03*
X76253340Y44749720D03*
X71173340Y29509720D03*
X76253340Y29509720D03*
X76253340Y34589720D03*
X76253340Y39669720D03*
X71173340Y39669720D03*
X71173340Y34589720D03*
X81333340Y34589720D03*
X81333340Y39669720D03*
X86413340Y34589720D03*
X86413340Y29509720D03*
X81333340Y29509720D03*
X81333340Y9189720D03*
X81333340Y14269720D03*
X86413340Y14269720D03*
X86413340Y9189720D03*
X86413340Y19349720D03*
X86413340Y24429720D03*
X81333340Y24429720D03*
X81333340Y19349720D03*
X71173340Y19349720D03*
X71173340Y24429720D03*
X76253340Y24429720D03*
X76253340Y19349720D03*
X76253340Y9189720D03*
X76253340Y14269720D03*
X71173340Y14269720D03*
X71173340Y9189720D03*
X100916740Y42235120D03*
X90756740Y52395120D03*
X85676740Y47315120D03*
X95836740Y42235120D03*
X95836740Y47315120D03*
X90756740Y47315120D03*
X90756740Y42235120D03*
X75516740Y57475120D03*
X80596740Y52395120D03*
X80596740Y57475120D03*
X85676740Y57475120D03*
X85676740Y52395120D03*
X105996740Y91130120D03*
X105996740Y86050120D03*
X105996740Y75890120D03*
X105996740Y80970120D03*
X100916740Y80970120D03*
X100916740Y75890120D03*
X95836740Y75890120D03*
X95836740Y80970120D03*
X95836740Y91130120D03*
X95836740Y86050120D03*
X100916740Y86050120D03*
X100916740Y91130120D03*
X75516740Y80970120D03*
X90756740Y91130120D03*
X90756740Y86050120D03*
X85676740Y86050120D03*
X85676740Y91130120D03*
X80596740Y86050120D03*
X80596740Y75890120D03*
X80596740Y80970120D03*
X85676740Y80970120D03*
X85676740Y75890120D03*
X90756740Y75890120D03*
X90756740Y80970120D03*
X95836740Y64460120D03*
X90756740Y69540120D03*
X90756740Y64460120D03*
X85676740Y64460120D03*
X85676740Y69540120D03*
X80596740Y69540120D03*
X80596740Y64460120D03*
X109476540Y69565520D03*
X109476540Y63977520D03*
X103888540Y69565520D03*
X103888540Y55443120D03*
X101094540Y55443120D03*
X98300540Y58237120D03*
X101094540Y58237120D03*
X106682540Y52649120D03*
X103888540Y52649120D03*
X106682540Y49855120D03*
X109476540Y49855120D03*
X69217540Y76956920D03*
X66220340Y78430120D03*
X64899540Y77414120D03*
X67591940Y77388720D03*
X69547740Y75559920D03*
X69293740Y74543920D03*
D12*
X22860000Y73144380D03*
D13*
X68102960Y4208760D03*
X68752960Y4208760D03*
X69402960Y4208760D03*
X70052960Y4208760D03*
X70702960Y4208760D03*
D14*
X66902960Y4208760D03*
X71902960Y4208760D03*
D15*
X65902960Y1508760D03*
X72902960Y1508760D03*
D16*
X68402960Y1508760D03*
X70402960Y1508760D03*
D17*
X66627960Y1508760D03*
X72177960Y1508760D03*
D18*
X66502960Y2183760D03*
X66502960Y833760D03*
X72302960Y2183760D03*
X72302960Y833760D03*
D19*
X117744240Y80284320D03*
X117744240Y77744320D03*
X117744240Y75204320D03*
D20*
X107269280Y45822960D03*
X107269280Y44722960D03*
D21*
X108524000Y44722540D03*
X110424000Y44722540D03*
X109474000Y46722540D03*
D22*
X72158860Y67002340D03*
X72158860Y69502340D03*
D23*
X115208140Y47261780D03*
X114108140Y47261780D03*
D20*
X116111020Y47260600D03*
X116111020Y46160600D03*
D24*
X63901060Y70452340D03*
X63901060Y70052340D03*
X63901060Y69652340D03*
X63901060Y69252340D03*
X63901060Y68852340D03*
X63901060Y68452340D03*
X63901060Y68052340D03*
X63901060Y67652340D03*
X63901060Y67252340D03*
X63901060Y66852340D03*
X63901060Y66452340D03*
X63901060Y66052340D03*
D25*
X64701060Y65252340D03*
X65101060Y65252340D03*
X65501060Y65252340D03*
X65901060Y65252340D03*
X66301060Y65252340D03*
X66701060Y65252340D03*
X67101060Y65252340D03*
X67501060Y65252340D03*
X67901060Y65252340D03*
X68301060Y65252340D03*
X68701060Y65252340D03*
X69101060Y65252340D03*
D24*
X69901060Y66052340D03*
X69901060Y66452340D03*
X69901060Y66852340D03*
X69901060Y67252340D03*
X69901060Y67652340D03*
X69901060Y68052340D03*
X69901060Y68452340D03*
X69901060Y68852340D03*
X69901060Y69252340D03*
X69901060Y69652340D03*
X69901060Y70052340D03*
X69901060Y70452340D03*
D25*
X69101060Y71252340D03*
X68701060Y71252340D03*
X68301060Y71252340D03*
X67901060Y71252340D03*
X67501060Y71252340D03*
X67101060Y71252340D03*
X66701060Y71252340D03*
X66301060Y71252340D03*
X65901060Y71252340D03*
X65501060Y71252340D03*
X65101060Y71252340D03*
X64701060Y71252340D03*
D26*
X68476060Y66677340D03*
X68476060Y67727340D03*
X68476060Y68777340D03*
X68476060Y69827340D03*
X67426060Y66677340D03*
X67426060Y67727340D03*
X67426060Y68777340D03*
X67426060Y69827340D03*
X66376060Y66677340D03*
X66376060Y67727340D03*
X66376060Y68777340D03*
X66376060Y69827340D03*
X65326060Y66677340D03*
X65326060Y67727340D03*
X65326060Y68777340D03*
X65326060Y69827340D03*
D27*
X66376060Y68777340D03*
X67426060Y68777340D03*
X67426060Y67727340D03*
X66376060Y67727340D03*
X68476060Y67727340D03*
X68476060Y68777340D03*
X65326060Y68777340D03*
X65326060Y67727340D03*
X66376060Y66677340D03*
X67426060Y66677340D03*
X66376060Y69827340D03*
X67426060Y69827340D03*
X65326060Y69827340D03*
X68476060Y69827340D03*
X65326060Y66677340D03*
X68476060Y66677340D03*
D23*
X68502440Y62804040D03*
X69602440Y62804040D03*
X57062280Y69651880D03*
X58162280Y69651880D03*
D20*
X2113280Y22686100D03*
X2113280Y21586100D03*
X2113280Y11426100D03*
X2113280Y12526100D03*
D10*
G36*
X64040936Y74954822D02*
X63687382Y75308376D01*
X64111646Y75732640D01*
X64465200Y75379086D01*
X64040936Y74954822D01*
X64040936Y74954822D01*
G37*
G36*
X64818754Y75732640D02*
X64465200Y76086194D01*
X64889464Y76510458D01*
X65243018Y76156904D01*
X64818754Y75732640D01*
X64818754Y75732640D01*
G37*
G36*
X68481518Y75044216D02*
X68127964Y74690662D01*
X67703700Y75114926D01*
X68057254Y75468480D01*
X68481518Y75044216D01*
X68481518Y75044216D01*
G37*
G36*
X67703700Y75822034D02*
X67350146Y75468480D01*
X66925882Y75892744D01*
X67279436Y76246298D01*
X67703700Y75822034D01*
X67703700Y75822034D01*
G37*
D23*
X61065500Y69654420D03*
X59965500Y69654420D03*
D20*
X56156860Y69653060D03*
X56156860Y70753060D03*
X59065160Y69653060D03*
X59065160Y70753060D03*
D28*
X4366260Y27216100D03*
D29*
X6906260Y27216100D03*
X4366260Y24676100D03*
X6906260Y24676100D03*
X4366260Y22136100D03*
X6906260Y22136100D03*
X4366260Y19596100D03*
X6906260Y19596100D03*
X4366260Y17056100D03*
X6906260Y17056100D03*
X4366260Y14516100D03*
X6906260Y14516100D03*
X4366260Y11976100D03*
X6906260Y11976100D03*
X4366260Y9436100D03*
X6906260Y9436100D03*
X4366260Y6896100D03*
X6906260Y6896100D03*
X4366260Y4356100D03*
X6906260Y4356100D03*
D28*
X117744240Y92631260D03*
D29*
X117744240Y95171260D03*
D28*
X117746780Y13256260D03*
D29*
X117746780Y10716260D03*
D28*
X117744240Y84391500D03*
D29*
X117744240Y86931500D03*
D30*
X50315500Y10196200D03*
X50315500Y5196200D03*
X45315500Y10196200D03*
X45315500Y5196200D03*
X41351840Y24862160D03*
X41351840Y19862160D03*
X36351840Y24862160D03*
X36351840Y19862160D03*
X18339440Y24862160D03*
X18339440Y19862160D03*
X13339440Y24862160D03*
X13339440Y19862160D03*
X29845640Y36368360D03*
X29845640Y31368360D03*
X24845640Y36368360D03*
X24845640Y31368360D03*
X29845640Y13355960D03*
X29845640Y8355960D03*
X24845640Y13355960D03*
X24845640Y8355960D03*
D10*
G36*
X67967173Y74141083D02*
X67260066Y73433976D01*
X66446893Y74247149D01*
X67154000Y74954256D01*
X67967173Y74141083D01*
X67967173Y74141083D01*
G37*
G36*
X66729736Y75378520D02*
X66022629Y74671413D01*
X65209456Y75484586D01*
X65916563Y76191693D01*
X66729736Y75378520D01*
X66729736Y75378520D01*
G37*
G36*
X65739787Y74388571D02*
X65032680Y73681464D01*
X64219507Y74494637D01*
X64926614Y75201744D01*
X65739787Y74388571D01*
X65739787Y74388571D01*
G37*
G36*
X66977224Y73151134D02*
X66270117Y72444027D01*
X65456944Y73257200D01*
X66164051Y73964307D01*
X66977224Y73151134D01*
X66977224Y73151134D01*
G37*
D31*
X112440140Y57421720D03*
X112440140Y54881720D03*
X112440140Y52341720D03*
X112440140Y49801720D03*
X112440140Y47261720D03*
X112440140Y44721720D03*
X112440140Y59961720D03*
X112440140Y62501720D03*
X112440140Y65041720D03*
X112440140Y67581720D03*
X112440140Y70121720D03*
D32*
X112440140Y90321720D03*
X57440140Y90321720D03*
X57440140Y8321720D03*
X112440140Y8321720D03*
D31*
X112440140Y82821720D03*
X112440140Y80281720D03*
X112440140Y77741720D03*
X112440140Y75201720D03*
X112440140Y72661720D03*
D33*
X94447360Y16408400D03*
X104480360Y16408400D03*
X106486960Y16408400D03*
X108493560Y16408400D03*
X110500160Y16408400D03*
X112506760Y16408400D03*
X102473760Y16408400D03*
X100467160Y16408400D03*
X98460560Y16408400D03*
X96453960Y16408400D03*
X96453960Y38404800D03*
X98460560Y38404800D03*
X100467160Y38404800D03*
X102473760Y38404800D03*
X112506760Y38404800D03*
X110500160Y38404800D03*
X108493560Y38404800D03*
X106486960Y38404800D03*
X104480360Y38404800D03*
X94447360Y38404800D03*
D11*
X65077340Y76347320D03*
X67083940Y76093320D03*
X65915540Y76194920D03*
X66017140Y73858120D03*
X66169540Y74772520D03*
D34*
X58803540Y70759320D03*
X56415940Y70759320D03*
X63078360Y71912480D03*
X63078360Y71056500D03*
X61912500Y69100700D03*
X61442600Y70769480D03*
X63078360Y70203060D03*
D35*
X62298580Y77335380D03*
X72191880Y64554100D03*
X76332080Y70901560D03*
X76332080Y74000360D03*
D34*
X68905120Y64416940D03*
X70723760Y67503040D03*
D36*
X2113280Y13286740D03*
D35*
X77434440Y74000360D03*
X77434440Y70899020D03*
X74391520Y62821820D03*
X71688960Y60119260D03*
X69555360Y60119260D03*
D36*
X70434200Y80772000D03*
D34*
X68450460Y72293480D03*
D37*
X69093080Y63652400D03*
D35*
X69903340Y62804040D03*
D37*
X67279520Y54320440D03*
X71427340Y62697360D03*
D38*
X56156860Y69653060D02*
X26351320Y69653060D01*
X26351320Y69653060D02*
X22860000Y73144380D01*
X57061100Y69653060D02*
X56156860Y69653060D01*
X57062280Y69651880D02*
X57061100Y69653060D01*
D39*
X59065160Y70753060D02*
X58809800Y70753060D01*
X58809800Y70753060D02*
X58803540Y70759320D01*
X56156860Y70753060D02*
X56409680Y70753060D01*
X56409680Y70753060D02*
X56415940Y70759320D01*
D38*
X59065160Y69653060D02*
X59063980Y69651880D01*
X59063980Y69651880D02*
X58162280Y69651880D01*
X59965500Y69654420D02*
X59964140Y69653060D01*
X59964140Y69653060D02*
X59065160Y69653060D01*
D39*
X63901060Y69652340D02*
X63898980Y69654420D01*
X63898980Y69654420D02*
X61065500Y69654420D01*
X69901060Y68052340D02*
X71108860Y68052340D01*
X71108860Y68052340D02*
X72158860Y67002340D01*
X69901060Y68452340D02*
X71108860Y68452340D01*
X71108860Y68452340D02*
X72158860Y69502340D01*
X68092609Y75079571D02*
X68092488Y75079571D01*
X68092488Y75079571D02*
X67207033Y74194116D01*
X66301060Y71252340D02*
X66301060Y72056700D01*
X67271900Y73027540D02*
X67271900Y74129249D01*
X66301060Y72056700D02*
X67271900Y73027540D01*
X67271900Y74129249D02*
X67207033Y74194116D01*
X64076291Y75343731D02*
X64077520Y75343731D01*
X64077520Y75343731D02*
X64979647Y74441604D01*
X65901060Y71252340D02*
X65901060Y72213478D01*
X64979647Y73134891D02*
X64979647Y74441604D01*
X65901060Y72213478D02*
X64979647Y73134891D01*
X64701060Y71252340D02*
X63738500Y71252340D01*
X63738500Y71252340D02*
X63078360Y71912480D01*
X63901060Y70452340D02*
X63682520Y70452340D01*
X63682520Y70452340D02*
X63078360Y71056500D01*
X63901060Y69252340D02*
X62064140Y69252340D01*
X62064140Y69252340D02*
X61912500Y69100700D01*
D38*
X63078360Y70203060D02*
X62938660Y70203060D01*
X62372240Y70769480D02*
X61442600Y70769480D01*
X62938660Y70203060D02*
X62372240Y70769480D01*
D39*
X63229080Y70052340D02*
X63078360Y70203060D01*
X63901060Y70052340D02*
X63229080Y70052340D01*
D38*
X72191880Y64554100D02*
X74815700Y64554100D01*
X74815700Y64554100D02*
X76332080Y66070480D01*
X76332080Y66070480D02*
X76332080Y70901560D01*
X76332080Y74000360D02*
X70601840Y79730600D01*
X70601840Y79730600D02*
X64693800Y79730600D01*
X64693800Y79730600D02*
X62298580Y77335380D01*
D39*
X68701060Y65252340D02*
X68701060Y64621000D01*
X68701060Y64621000D02*
X68905120Y64416940D01*
X70574460Y67652340D02*
X70723760Y67503040D01*
X69901060Y67652340D02*
X70574460Y67652340D01*
D38*
X2113280Y12526100D02*
X2113280Y13286740D01*
X70843140Y80772000D02*
X70434200Y80772000D01*
X77434440Y74180700D02*
X70843140Y80772000D01*
X77434440Y74175620D02*
X77434440Y74180700D01*
X77434440Y74000360D02*
X77434440Y74175620D01*
X77434440Y65864740D02*
X77434440Y70899020D01*
X74391520Y62821820D02*
X77434440Y65864740D01*
X69555360Y60119260D02*
X71688960Y60119260D01*
D40*
X70434200Y80772000D02*
X83332320Y93670120D01*
X83332320Y93670120D02*
X116705380Y93670120D01*
X116705380Y93670120D02*
X117744240Y92631260D01*
D39*
X68301060Y72144080D02*
X68301060Y71252340D01*
X68301060Y72144080D02*
X68450460Y72293480D01*
X68301060Y65252340D02*
X68301060Y64187880D01*
D41*
X68836540Y63652400D02*
X69093080Y63652400D01*
D39*
X68301060Y64187880D02*
X68836540Y63652400D01*
D38*
X2113280Y22686100D02*
X2113280Y24963120D01*
X2113280Y24963120D02*
X4366260Y27216100D01*
D39*
X4366260Y19596100D02*
X2376260Y21586100D01*
X2376260Y21586100D02*
X2113280Y21586100D01*
X63901060Y68452340D02*
X62597590Y68452340D01*
X5613400Y20843240D02*
X4366260Y19596100D01*
X7373620Y20843240D02*
X5613400Y20843240D01*
X11361418Y24831038D02*
X7373620Y20843240D01*
X11361418Y25682456D02*
X11361418Y24831038D01*
X24025344Y38346382D02*
X11361418Y25682456D01*
X52608950Y38346382D02*
X24025344Y38346382D01*
X61048890Y46786322D02*
X52608950Y38346382D01*
X61048890Y66903640D02*
X61048890Y46786322D01*
X62597590Y68452340D02*
X61048890Y66903640D01*
X63901060Y68852340D02*
X62440812Y68852340D01*
X1394460Y20027900D02*
X4366260Y17056100D01*
X1394460Y28293060D02*
X1394460Y20027900D01*
X11841484Y38740084D02*
X1394460Y28293060D01*
X52445874Y38740084D02*
X11841484Y38740084D01*
X60655188Y46949398D02*
X52445874Y38740084D01*
X60655188Y67066716D02*
X60655188Y46949398D01*
X62440812Y68852340D02*
X60655188Y67066716D01*
X63901060Y68052340D02*
X62754368Y68052340D01*
X5613400Y13223240D02*
X4366260Y11976100D01*
X7373620Y13223240D02*
X5613400Y13223240D01*
X11755120Y17604740D02*
X7373620Y13223240D01*
X11755120Y25519380D02*
X11755120Y17604740D01*
X24188420Y37952680D02*
X11755120Y25519380D01*
X52772026Y37952680D02*
X24188420Y37952680D01*
X61442592Y46623246D02*
X52772026Y37952680D01*
X61442592Y66740564D02*
X61442592Y46623246D01*
X62754368Y68052340D02*
X61442592Y66740564D01*
D40*
X117744240Y80284320D02*
X119763540Y78265020D01*
X119763540Y50913120D02*
X116111020Y47260600D01*
X119763540Y78265020D02*
X119763540Y50913120D01*
D38*
X115208140Y47261780D02*
X115209320Y47260600D01*
X115209320Y47260600D02*
X116111020Y47260600D01*
D40*
X117744240Y80284320D02*
X117744240Y84391500D01*
X112440140Y80281720D02*
X117741640Y80281720D01*
X117741640Y80281720D02*
X117744240Y80284320D01*
D41*
X68502440Y62804040D02*
X68502440Y63173700D01*
D39*
X67907358Y63768782D02*
X67907358Y65252340D01*
X68502440Y63173700D02*
X67907358Y63768782D01*
X67907358Y65252340D02*
X67901060Y65252340D01*
D38*
X69602440Y62804040D02*
X69903340Y62804040D01*
D39*
X65101060Y65252340D02*
X65101060Y61250722D01*
X102473760Y23878022D02*
X102473760Y16408400D01*
X65101060Y61250722D02*
X102473760Y23878022D01*
X65501060Y65252340D02*
X65501060Y61407500D01*
X65501060Y61407500D02*
X110500160Y16408400D01*
X66301060Y65252340D02*
X66301060Y62122326D01*
X86017106Y60881254D02*
X108493560Y38404800D01*
X67542132Y60881254D02*
X86017106Y60881254D01*
X66301060Y62122326D02*
X67542132Y60881254D01*
X66701060Y65252340D02*
X66701060Y62279104D01*
X87630004Y61274956D02*
X110500160Y38404800D01*
X67705208Y61274956D02*
X87630004Y61274956D01*
X66701060Y62279104D02*
X67705208Y61274956D01*
D38*
X112440140Y47261720D02*
X114108080Y47261720D01*
X114108080Y47261720D02*
X114108140Y47261780D01*
D39*
X109717200Y72844660D02*
X112440140Y70121720D01*
X68224400Y72844660D02*
X109717200Y72844660D01*
X67901060Y72521320D02*
X68224400Y72844660D01*
X67901060Y71252340D02*
X67901060Y72521320D01*
D42*
X110424000Y44722540D02*
X112439320Y44722540D01*
X112439320Y44722540D02*
X112440140Y44721720D01*
D40*
X117744240Y77744320D02*
X112442740Y77744320D01*
X112442740Y77744320D02*
X112440140Y77741720D01*
D41*
X108524000Y44722540D02*
X107269700Y44722540D01*
X107269700Y44722540D02*
X107269280Y44722960D01*
D39*
X63901060Y58584842D02*
X68752960Y53732942D01*
X63901060Y66052340D02*
X63901060Y58584842D01*
X68752960Y53732942D02*
X68752960Y4208760D01*
X64294762Y58765440D02*
X69402960Y53657242D01*
X69402960Y53657242D02*
X69402960Y4208760D01*
X64701060Y65252340D02*
X64294762Y64846042D01*
X64294762Y64846042D02*
X64294762Y58765440D01*
X64294762Y58765440D02*
X64294762Y58747918D01*
X67101060Y65252340D02*
X67101060Y62435882D01*
X91423582Y61668658D02*
X107269280Y45822960D01*
X67868284Y61668658D02*
X91423582Y61668658D01*
X67101060Y62435882D02*
X67868284Y61668658D01*
X117746780Y13256260D02*
X114129820Y16873220D01*
X65901060Y61764420D02*
X65901060Y65252340D01*
X112971580Y18031460D02*
X114129820Y16873220D01*
X109634020Y18031460D02*
X112971580Y18031460D01*
X65901060Y61764420D02*
X109634020Y18031460D01*
X63901060Y66452340D02*
X63381480Y66452340D01*
X38423220Y13355960D02*
X29845640Y13355960D01*
X44917360Y19850100D02*
X38423220Y13355960D01*
X44917360Y27870902D02*
X44917360Y19850100D01*
X63017400Y45970942D02*
X44917360Y27870902D01*
X63017400Y66088260D02*
X63017400Y45970942D01*
X63381480Y66452340D02*
X63017400Y66088260D01*
X63901060Y66852340D02*
X63224702Y66852340D01*
X62623698Y46134018D02*
X41351840Y24862160D01*
X62623698Y66251336D02*
X62623698Y46134018D01*
X63224702Y66852340D02*
X62623698Y66251336D01*
X63901060Y67252340D02*
X63067924Y67252340D01*
X26454740Y24862160D02*
X18339440Y24862160D01*
X30022800Y28430220D02*
X26454740Y24862160D01*
X44363122Y28430220D02*
X30022800Y28430220D01*
X62229996Y46297094D02*
X44363122Y28430220D01*
X62229996Y66414412D02*
X62229996Y46297094D01*
X63067924Y67252340D02*
X62229996Y66414412D01*
X63901060Y67652340D02*
X62911146Y67652340D01*
X51744484Y36368360D02*
X29845640Y36368360D01*
X61836294Y46460170D02*
X51744484Y36368360D01*
X61836294Y66577488D02*
X61836294Y46460170D01*
X62911146Y67652340D02*
X61836294Y66577488D01*
X5610860Y8191500D02*
X4366260Y9436100D01*
X7373620Y8191500D02*
X5610860Y8191500D01*
X8793480Y6771640D02*
X7373620Y8191500D01*
X32395678Y6771640D02*
X8793480Y6771640D01*
X63411102Y37787064D02*
X32395678Y6771640D01*
X63411102Y50452022D02*
X63411102Y37787064D01*
X67279520Y54320440D02*
X63411102Y50452022D01*
X69901060Y66452340D02*
X70423180Y66452340D01*
X70423180Y66452340D02*
X71427340Y65448180D01*
X71427340Y65448180D02*
X71427340Y62697360D01*
X4366260Y9436100D02*
X2376260Y11426100D01*
X2376260Y11426100D02*
X2113280Y11426100D01*
X68701060Y71252340D02*
X68701060Y71766840D01*
X97410902Y72450958D02*
X112440140Y57421720D01*
X69385178Y72450958D02*
X97410902Y72450958D01*
X68701060Y71766840D02*
X69385178Y72450958D01*
X69101060Y71252340D02*
X69101060Y71610062D01*
X69101060Y71610062D02*
X69548254Y72057256D01*
X69548254Y72057256D02*
X95264604Y72057256D01*
X95264604Y72057256D02*
X112440140Y54881720D01*
X69901060Y70452340D02*
X69901060Y71251820D01*
X93118306Y71663554D02*
X112440140Y52341720D01*
X70312794Y71663554D02*
X93118306Y71663554D01*
X69901060Y71251820D02*
X70312794Y71663554D01*
X67501060Y65252340D02*
X67501060Y62592660D01*
X100179500Y62062360D02*
X112440140Y49801720D01*
X68031360Y62062360D02*
X100179500Y62062360D01*
X67501060Y62592660D02*
X68031360Y62062360D01*
X110476782Y73238362D02*
X112440140Y75201720D01*
X68061324Y73238362D02*
X110476782Y73238362D01*
X67501060Y72678098D02*
X68061324Y73238362D01*
X67501060Y71252340D02*
X67501060Y72678098D01*
D43*
G36*
X64713710Y61250722D02*
X64717200Y61215123D01*
X64720320Y61179468D01*
X64720888Y61177512D01*
X64721087Y61175485D01*
X64731428Y61141233D01*
X64741411Y61106872D01*
X64742348Y61105064D01*
X64742937Y61103114D01*
X64759742Y61071508D01*
X64776201Y61039757D01*
X64777471Y61038167D01*
X64778428Y61036366D01*
X64801054Y61008623D01*
X64823365Y60980675D01*
X64826163Y60977837D01*
X64826208Y60977782D01*
X64826259Y60977740D01*
X64827162Y60976824D01*
X102086410Y23717576D01*
X102086410Y17245004D01*
X102045116Y17228320D01*
X101894023Y17129447D01*
X101765012Y17003110D01*
X101662997Y16854121D01*
X101591863Y16688154D01*
X101554321Y16511532D01*
X101551800Y16330981D01*
X101584396Y16153379D01*
X101650868Y15985491D01*
X101748683Y15833711D01*
X101874116Y15703821D01*
X102022390Y15600768D01*
X102187856Y15528478D01*
X102364212Y15489703D01*
X102544741Y15485922D01*
X102722566Y15517277D01*
X102890914Y15582575D01*
X103043373Y15679329D01*
X103174136Y15803852D01*
X103278221Y15951403D01*
X103351665Y16116360D01*
X103391669Y16292441D01*
X103392207Y16330981D01*
X103558400Y16330981D01*
X103590996Y16153379D01*
X103657468Y15985491D01*
X103755283Y15833711D01*
X103880716Y15703821D01*
X104028990Y15600768D01*
X104194456Y15528478D01*
X104370812Y15489703D01*
X104551341Y15485922D01*
X104729166Y15517277D01*
X104897514Y15582575D01*
X105049973Y15679329D01*
X105180736Y15803852D01*
X105284821Y15951403D01*
X105358265Y16116360D01*
X105398269Y16292441D01*
X105398807Y16330981D01*
X105565000Y16330981D01*
X105597596Y16153379D01*
X105664068Y15985491D01*
X105761883Y15833711D01*
X105887316Y15703821D01*
X106035590Y15600768D01*
X106201056Y15528478D01*
X106377412Y15489703D01*
X106557941Y15485922D01*
X106735766Y15517277D01*
X106904114Y15582575D01*
X107056573Y15679329D01*
X107187336Y15803852D01*
X107291421Y15951403D01*
X107364865Y16116360D01*
X107404869Y16292441D01*
X107405407Y16330981D01*
X107571600Y16330981D01*
X107604196Y16153379D01*
X107670668Y15985491D01*
X107768483Y15833711D01*
X107893916Y15703821D01*
X108042190Y15600768D01*
X108207656Y15528478D01*
X108384012Y15489703D01*
X108564541Y15485922D01*
X108742366Y15517277D01*
X108910714Y15582575D01*
X109063173Y15679329D01*
X109193936Y15803852D01*
X109298021Y15951403D01*
X109371465Y16116360D01*
X109411469Y16292441D01*
X109414349Y16498684D01*
X109379277Y16675814D01*
X109310468Y16842757D01*
X109210543Y16993157D01*
X109083308Y17121283D01*
X108933610Y17222255D01*
X108767151Y17292228D01*
X108590270Y17328537D01*
X108409706Y17329797D01*
X108232336Y17295962D01*
X108064916Y17228320D01*
X107913823Y17129447D01*
X107784812Y17003110D01*
X107682797Y16854121D01*
X107611663Y16688154D01*
X107574121Y16511532D01*
X107571600Y16330981D01*
X107405407Y16330981D01*
X107407749Y16498684D01*
X107372677Y16675814D01*
X107303868Y16842757D01*
X107203943Y16993157D01*
X107076708Y17121283D01*
X106927010Y17222255D01*
X106760551Y17292228D01*
X106583670Y17328537D01*
X106403106Y17329797D01*
X106225736Y17295962D01*
X106058316Y17228320D01*
X105907223Y17129447D01*
X105778212Y17003110D01*
X105676197Y16854121D01*
X105605063Y16688154D01*
X105567521Y16511532D01*
X105565000Y16330981D01*
X105398807Y16330981D01*
X105401149Y16498684D01*
X105366077Y16675814D01*
X105297268Y16842757D01*
X105197343Y16993157D01*
X105070108Y17121283D01*
X104920410Y17222255D01*
X104753951Y17292228D01*
X104577070Y17328537D01*
X104396506Y17329797D01*
X104219136Y17295962D01*
X104051716Y17228320D01*
X103900623Y17129447D01*
X103771612Y17003110D01*
X103669597Y16854121D01*
X103598463Y16688154D01*
X103560921Y16511532D01*
X103558400Y16330981D01*
X103392207Y16330981D01*
X103394549Y16498684D01*
X103359477Y16675814D01*
X103290668Y16842757D01*
X103190743Y16993157D01*
X103063508Y17121283D01*
X102913810Y17222255D01*
X102861110Y17244408D01*
X102861110Y23499655D01*
X109634568Y16726197D01*
X109618263Y16688154D01*
X109580721Y16511532D01*
X109578200Y16330981D01*
X109610796Y16153379D01*
X109677268Y15985491D01*
X109775083Y15833711D01*
X109900516Y15703821D01*
X110048790Y15600768D01*
X110214256Y15528478D01*
X110390612Y15489703D01*
X110571141Y15485922D01*
X110748966Y15517277D01*
X110917314Y15582575D01*
X111069773Y15679329D01*
X111200536Y15803852D01*
X111304621Y15951403D01*
X111378065Y16116360D01*
X111418069Y16292441D01*
X111418607Y16330981D01*
X111584800Y16330981D01*
X111617396Y16153379D01*
X111683868Y15985491D01*
X111781683Y15833711D01*
X111907116Y15703821D01*
X112055390Y15600768D01*
X112220856Y15528478D01*
X112397212Y15489703D01*
X112577741Y15485922D01*
X112755566Y15517277D01*
X112923914Y15582575D01*
X113076373Y15679329D01*
X113207136Y15803852D01*
X113311221Y15951403D01*
X113384665Y16116360D01*
X113424669Y16292441D01*
X113427549Y16498684D01*
X113392477Y16675814D01*
X113323668Y16842757D01*
X113223743Y16993157D01*
X113096508Y17121283D01*
X112946810Y17222255D01*
X112780351Y17292228D01*
X112603470Y17328537D01*
X112422906Y17329797D01*
X112245536Y17295962D01*
X112078116Y17228320D01*
X111927023Y17129447D01*
X111798012Y17003110D01*
X111695997Y16854121D01*
X111624863Y16688154D01*
X111587321Y16511532D01*
X111584800Y16330981D01*
X111418607Y16330981D01*
X111420949Y16498684D01*
X111385877Y16675814D01*
X111317068Y16842757D01*
X111217143Y16993157D01*
X111089908Y17121283D01*
X110940210Y17222255D01*
X110773751Y17292228D01*
X110596870Y17328537D01*
X110416306Y17329797D01*
X110238936Y17295962D01*
X110182995Y17273360D01*
X109812245Y17644110D01*
X112811134Y17644110D01*
X116697648Y13757596D01*
X116697648Y12494260D01*
X116701277Y12448755D01*
X116725178Y12371575D01*
X116769635Y12304109D01*
X116831128Y12251699D01*
X116904787Y12218496D01*
X116984780Y12207128D01*
X118508780Y12207128D01*
X118554285Y12210757D01*
X118631465Y12234658D01*
X118698931Y12279115D01*
X118751341Y12340608D01*
X118784544Y12414267D01*
X118795912Y12494260D01*
X118795912Y14018260D01*
X118792283Y14063765D01*
X118768382Y14140945D01*
X118723925Y14208411D01*
X118662432Y14260821D01*
X118588773Y14294024D01*
X118508780Y14305392D01*
X117245444Y14305392D01*
X113245478Y18305358D01*
X113217837Y18328062D01*
X113190420Y18351068D01*
X113188634Y18352050D01*
X113187061Y18353342D01*
X113155501Y18370265D01*
X113124173Y18387487D01*
X113122236Y18388102D01*
X113120437Y18389066D01*
X113086165Y18399544D01*
X113052115Y18410345D01*
X113050093Y18410572D01*
X113048143Y18411168D01*
X113012542Y18414784D01*
X112976988Y18418772D01*
X112973001Y18418800D01*
X112972932Y18418807D01*
X112972868Y18418801D01*
X112971580Y18418810D01*
X109794466Y18418810D01*
X90685708Y37527568D01*
X93794634Y37527568D01*
X93850422Y37313103D01*
X94074871Y37217624D01*
X94313635Y37167766D01*
X94557537Y37165447D01*
X94797206Y37210755D01*
X95023430Y37301950D01*
X95044298Y37313103D01*
X95100086Y37527568D01*
X94447360Y38180294D01*
X93794634Y37527568D01*
X90685708Y37527568D01*
X89918653Y38294623D01*
X93208007Y38294623D01*
X93253315Y38054954D01*
X93344510Y37828730D01*
X93355663Y37807862D01*
X93570128Y37752074D01*
X94222854Y38404800D01*
X94671866Y38404800D01*
X95324592Y37752074D01*
X95539057Y37807862D01*
X95622400Y38003783D01*
X95631068Y37981891D01*
X95728883Y37830111D01*
X95854316Y37700221D01*
X96002590Y37597168D01*
X96168056Y37524878D01*
X96344412Y37486103D01*
X96524941Y37482322D01*
X96702766Y37513677D01*
X96871114Y37578975D01*
X97023573Y37675729D01*
X97154336Y37800252D01*
X97258421Y37947803D01*
X97331865Y38112760D01*
X97371869Y38288841D01*
X97372407Y38327381D01*
X97538600Y38327381D01*
X97571196Y38149779D01*
X97637668Y37981891D01*
X97735483Y37830111D01*
X97860916Y37700221D01*
X98009190Y37597168D01*
X98174656Y37524878D01*
X98351012Y37486103D01*
X98531541Y37482322D01*
X98709366Y37513677D01*
X98877714Y37578975D01*
X99030173Y37675729D01*
X99160936Y37800252D01*
X99265021Y37947803D01*
X99338465Y38112760D01*
X99378469Y38288841D01*
X99379007Y38327381D01*
X99545200Y38327381D01*
X99577796Y38149779D01*
X99644268Y37981891D01*
X99742083Y37830111D01*
X99867516Y37700221D01*
X100015790Y37597168D01*
X100181256Y37524878D01*
X100357612Y37486103D01*
X100538141Y37482322D01*
X100715966Y37513677D01*
X100884314Y37578975D01*
X101036773Y37675729D01*
X101167536Y37800252D01*
X101271621Y37947803D01*
X101345065Y38112760D01*
X101385069Y38288841D01*
X101385607Y38327381D01*
X101551800Y38327381D01*
X101584396Y38149779D01*
X101650868Y37981891D01*
X101748683Y37830111D01*
X101874116Y37700221D01*
X102022390Y37597168D01*
X102187856Y37524878D01*
X102364212Y37486103D01*
X102544741Y37482322D01*
X102722566Y37513677D01*
X102890914Y37578975D01*
X103043373Y37675729D01*
X103174136Y37800252D01*
X103278221Y37947803D01*
X103351665Y38112760D01*
X103391669Y38288841D01*
X103392207Y38327381D01*
X103558400Y38327381D01*
X103590996Y38149779D01*
X103657468Y37981891D01*
X103755283Y37830111D01*
X103880716Y37700221D01*
X104028990Y37597168D01*
X104194456Y37524878D01*
X104370812Y37486103D01*
X104551341Y37482322D01*
X104729166Y37513677D01*
X104897514Y37578975D01*
X105049973Y37675729D01*
X105180736Y37800252D01*
X105284821Y37947803D01*
X105358265Y38112760D01*
X105398269Y38288841D01*
X105398807Y38327381D01*
X105565000Y38327381D01*
X105597596Y38149779D01*
X105664068Y37981891D01*
X105761883Y37830111D01*
X105887316Y37700221D01*
X106035590Y37597168D01*
X106201056Y37524878D01*
X106377412Y37486103D01*
X106557941Y37482322D01*
X106735766Y37513677D01*
X106904114Y37578975D01*
X107056573Y37675729D01*
X107187336Y37800252D01*
X107291421Y37947803D01*
X107364865Y38112760D01*
X107404869Y38288841D01*
X107407749Y38495084D01*
X107372677Y38672214D01*
X107303868Y38839157D01*
X107203943Y38989557D01*
X107076708Y39117683D01*
X106927010Y39218655D01*
X106760551Y39288628D01*
X106583670Y39324937D01*
X106403106Y39326197D01*
X106225736Y39292362D01*
X106058316Y39224720D01*
X105907223Y39125847D01*
X105778212Y38999510D01*
X105676197Y38850521D01*
X105605063Y38684554D01*
X105567521Y38507932D01*
X105565000Y38327381D01*
X105398807Y38327381D01*
X105401149Y38495084D01*
X105366077Y38672214D01*
X105297268Y38839157D01*
X105197343Y38989557D01*
X105070108Y39117683D01*
X104920410Y39218655D01*
X104753951Y39288628D01*
X104577070Y39324937D01*
X104396506Y39326197D01*
X104219136Y39292362D01*
X104051716Y39224720D01*
X103900623Y39125847D01*
X103771612Y38999510D01*
X103669597Y38850521D01*
X103598463Y38684554D01*
X103560921Y38507932D01*
X103558400Y38327381D01*
X103392207Y38327381D01*
X103394549Y38495084D01*
X103359477Y38672214D01*
X103290668Y38839157D01*
X103190743Y38989557D01*
X103063508Y39117683D01*
X102913810Y39218655D01*
X102747351Y39288628D01*
X102570470Y39324937D01*
X102389906Y39326197D01*
X102212536Y39292362D01*
X102045116Y39224720D01*
X101894023Y39125847D01*
X101765012Y38999510D01*
X101662997Y38850521D01*
X101591863Y38684554D01*
X101554321Y38507932D01*
X101551800Y38327381D01*
X101385607Y38327381D01*
X101387949Y38495084D01*
X101352877Y38672214D01*
X101284068Y38839157D01*
X101184143Y38989557D01*
X101056908Y39117683D01*
X100907210Y39218655D01*
X100740751Y39288628D01*
X100563870Y39324937D01*
X100383306Y39326197D01*
X100205936Y39292362D01*
X100038516Y39224720D01*
X99887423Y39125847D01*
X99758412Y38999510D01*
X99656397Y38850521D01*
X99585263Y38684554D01*
X99547721Y38507932D01*
X99545200Y38327381D01*
X99379007Y38327381D01*
X99381349Y38495084D01*
X99346277Y38672214D01*
X99277468Y38839157D01*
X99177543Y38989557D01*
X99050308Y39117683D01*
X98900610Y39218655D01*
X98734151Y39288628D01*
X98557270Y39324937D01*
X98376706Y39326197D01*
X98199336Y39292362D01*
X98031916Y39224720D01*
X97880823Y39125847D01*
X97751812Y38999510D01*
X97649797Y38850521D01*
X97578663Y38684554D01*
X97541121Y38507932D01*
X97538600Y38327381D01*
X97372407Y38327381D01*
X97374749Y38495084D01*
X97339677Y38672214D01*
X97270868Y38839157D01*
X97170943Y38989557D01*
X97043708Y39117683D01*
X96894010Y39218655D01*
X96727551Y39288628D01*
X96550670Y39324937D01*
X96370106Y39326197D01*
X96192736Y39292362D01*
X96025316Y39224720D01*
X95874223Y39125847D01*
X95745212Y38999510D01*
X95643197Y38850521D01*
X95622357Y38801898D01*
X95550210Y38980870D01*
X95539057Y39001738D01*
X95324592Y39057526D01*
X94671866Y38404800D01*
X94222854Y38404800D01*
X93570128Y39057526D01*
X93355663Y39001738D01*
X93260184Y38777289D01*
X93210326Y38538525D01*
X93208007Y38294623D01*
X89918653Y38294623D01*
X88931244Y39282032D01*
X93794634Y39282032D01*
X94447360Y38629306D01*
X95100086Y39282032D01*
X95044298Y39496497D01*
X94819849Y39591976D01*
X94581085Y39641834D01*
X94337183Y39644153D01*
X94097514Y39598845D01*
X93871290Y39507650D01*
X93850422Y39496497D01*
X93794634Y39282032D01*
X88931244Y39282032D01*
X67719372Y60493904D01*
X68926817Y60493904D01*
X68912341Y60472763D01*
X68855925Y60341134D01*
X68826150Y60201054D01*
X68824150Y60057859D01*
X68850003Y59917002D01*
X68902721Y59783849D01*
X68980299Y59663472D01*
X69079781Y59560456D01*
X69197377Y59478725D01*
X69328609Y59421391D01*
X69468477Y59390639D01*
X69611655Y59387640D01*
X69752689Y59412508D01*
X69886206Y59464296D01*
X70007122Y59541031D01*
X70047529Y59579510D01*
X71194981Y59579510D01*
X71213381Y59560456D01*
X71330977Y59478725D01*
X71462209Y59421391D01*
X71602077Y59390639D01*
X71745255Y59387640D01*
X71886289Y59412508D01*
X72019806Y59464296D01*
X72140722Y59541031D01*
X72244430Y59639791D01*
X72326981Y59756814D01*
X72385229Y59887642D01*
X72416957Y60027293D01*
X72419241Y60190865D01*
X72391425Y60331347D01*
X72336852Y60463750D01*
X72316818Y60493904D01*
X85856660Y60493904D01*
X107627968Y38722596D01*
X107611663Y38684554D01*
X107574121Y38507932D01*
X107571600Y38327381D01*
X107604196Y38149779D01*
X107670668Y37981891D01*
X107768483Y37830111D01*
X107893916Y37700221D01*
X108042190Y37597168D01*
X108207656Y37524878D01*
X108384012Y37486103D01*
X108564541Y37482322D01*
X108742366Y37513677D01*
X108910714Y37578975D01*
X109063173Y37675729D01*
X109193936Y37800252D01*
X109298021Y37947803D01*
X109371465Y38112760D01*
X109411469Y38288841D01*
X109414349Y38495084D01*
X109379277Y38672214D01*
X109310468Y38839157D01*
X109210543Y38989557D01*
X109083308Y39117683D01*
X108933610Y39218655D01*
X108767151Y39288628D01*
X108590270Y39324937D01*
X108409706Y39326197D01*
X108232336Y39292362D01*
X108176395Y39269761D01*
X86558550Y60887606D01*
X87469558Y60887606D01*
X109634568Y38722596D01*
X109618263Y38684554D01*
X109580721Y38507932D01*
X109578200Y38327381D01*
X109610796Y38149779D01*
X109677268Y37981891D01*
X109775083Y37830111D01*
X109900516Y37700221D01*
X110048790Y37597168D01*
X110214256Y37524878D01*
X110390612Y37486103D01*
X110571141Y37482322D01*
X110748966Y37513677D01*
X110917314Y37578975D01*
X111069773Y37675729D01*
X111200536Y37800252D01*
X111304621Y37947803D01*
X111378065Y38112760D01*
X111418069Y38288841D01*
X111418607Y38327381D01*
X111584800Y38327381D01*
X111617396Y38149779D01*
X111683868Y37981891D01*
X111781683Y37830111D01*
X111907116Y37700221D01*
X112055390Y37597168D01*
X112220856Y37524878D01*
X112397212Y37486103D01*
X112577741Y37482322D01*
X112755566Y37513677D01*
X112923914Y37578975D01*
X113076373Y37675729D01*
X113207136Y37800252D01*
X113311221Y37947803D01*
X113384665Y38112760D01*
X113424669Y38288841D01*
X113427549Y38495084D01*
X113392477Y38672214D01*
X113323668Y38839157D01*
X113223743Y38989557D01*
X113096508Y39117683D01*
X112946810Y39218655D01*
X112780351Y39288628D01*
X112603470Y39324937D01*
X112422906Y39326197D01*
X112245536Y39292362D01*
X112078116Y39224720D01*
X111927023Y39125847D01*
X111798012Y38999510D01*
X111695997Y38850521D01*
X111624863Y38684554D01*
X111587321Y38507932D01*
X111584800Y38327381D01*
X111418607Y38327381D01*
X111420949Y38495084D01*
X111385877Y38672214D01*
X111317068Y38839157D01*
X111217143Y38989557D01*
X111089908Y39117683D01*
X110940210Y39218655D01*
X110773751Y39288628D01*
X110596870Y39324937D01*
X110416306Y39326197D01*
X110238936Y39292362D01*
X110182995Y39269761D01*
X88171448Y61281308D01*
X91263136Y61281308D01*
X106732148Y45812296D01*
X106732148Y45522960D01*
X106735777Y45477455D01*
X106759678Y45400275D01*
X106804135Y45332809D01*
X106865628Y45280399D01*
X106882067Y45272989D01*
X106829129Y45238105D01*
X106776719Y45176612D01*
X106743516Y45102953D01*
X106732148Y45022960D01*
X106732148Y44422960D01*
X106735777Y44377455D01*
X106759678Y44300275D01*
X106804135Y44232809D01*
X106865628Y44180399D01*
X106939287Y44147196D01*
X107019280Y44135828D01*
X107519280Y44135828D01*
X107564785Y44139457D01*
X107641965Y44163358D01*
X107709431Y44207815D01*
X107742223Y44246290D01*
X107838961Y44246290D01*
X107840497Y44227035D01*
X107864398Y44149855D01*
X107908855Y44082389D01*
X107970348Y44029979D01*
X108044007Y43996776D01*
X108124000Y43985408D01*
X108924000Y43985408D01*
X108969505Y43989037D01*
X109046685Y44012938D01*
X109114151Y44057395D01*
X109166561Y44118888D01*
X109199764Y44192547D01*
X109211132Y44272540D01*
X109211132Y45172540D01*
X109207503Y45218045D01*
X109183602Y45295225D01*
X109139145Y45362691D01*
X109077652Y45415101D01*
X109003993Y45448304D01*
X108924000Y45459672D01*
X108124000Y45459672D01*
X108078495Y45456043D01*
X108001315Y45432142D01*
X107933849Y45387685D01*
X107881439Y45326192D01*
X107848236Y45252533D01*
X107840598Y45198790D01*
X107743862Y45198790D01*
X107734425Y45213111D01*
X107672932Y45265521D01*
X107656493Y45272931D01*
X107709431Y45307815D01*
X107761841Y45369308D01*
X107795044Y45442967D01*
X107806412Y45522960D01*
X107806412Y46122960D01*
X107802783Y46168465D01*
X107778882Y46245645D01*
X107734425Y46313111D01*
X107672932Y46365521D01*
X107599273Y46398724D01*
X107519280Y46410092D01*
X107229944Y46410092D01*
X91965026Y61675010D01*
X100019054Y61675010D01*
X111296563Y50397501D01*
X111208645Y50192373D01*
X111156221Y49945735D01*
X111152700Y49693611D01*
X111198218Y49445605D01*
X111291040Y49211163D01*
X111427631Y48999215D01*
X111602788Y48817835D01*
X111809839Y48673930D01*
X112040899Y48572983D01*
X112231903Y48530988D01*
X112075363Y48501126D01*
X111841575Y48406669D01*
X111630586Y48268602D01*
X111450433Y48092183D01*
X111307977Y47884132D01*
X111208645Y47652373D01*
X111156221Y47405735D01*
X111152700Y47153611D01*
X111198218Y46905605D01*
X111291040Y46671163D01*
X111427631Y46459215D01*
X111602788Y46277835D01*
X111809839Y46133930D01*
X112040899Y46032983D01*
X112231903Y45990988D01*
X112075363Y45961126D01*
X111841575Y45866669D01*
X111630586Y45728602D01*
X111450433Y45552183D01*
X111338897Y45389290D01*
X111007936Y45389290D01*
X110977652Y45415101D01*
X110903993Y45448304D01*
X110824000Y45459672D01*
X110024000Y45459672D01*
X109978495Y45456043D01*
X109901315Y45432142D01*
X109833849Y45387685D01*
X109781439Y45326192D01*
X109748236Y45252533D01*
X109736868Y45172540D01*
X109736868Y44272540D01*
X109740497Y44227035D01*
X109764398Y44149855D01*
X109808855Y44082389D01*
X109870348Y44029979D01*
X109944007Y43996776D01*
X110024000Y43985408D01*
X110824000Y43985408D01*
X110869505Y43989037D01*
X110946685Y44012938D01*
X111011715Y44055790D01*
X111339615Y44055790D01*
X111427631Y43919215D01*
X111602788Y43737835D01*
X111809839Y43593930D01*
X112040899Y43492983D01*
X112287166Y43438837D01*
X112539259Y43433557D01*
X112787577Y43477342D01*
X113022661Y43568525D01*
X113235557Y43703633D01*
X113418156Y43877520D01*
X113563502Y44083561D01*
X113666060Y44313911D01*
X113721923Y44559793D01*
X113725945Y44847794D01*
X113676969Y45095141D01*
X113580883Y45328264D01*
X113441346Y45538284D01*
X113263673Y45717201D01*
X113054633Y45858200D01*
X112822186Y45955912D01*
X112645212Y45992239D01*
X112787577Y46017342D01*
X113022661Y46108525D01*
X113235557Y46243633D01*
X113418156Y46417520D01*
X113563502Y46623561D01*
X113607316Y46721970D01*
X114108080Y46721970D01*
X114135394Y46724648D01*
X114408140Y46724648D01*
X114453645Y46728277D01*
X114530825Y46752178D01*
X114598291Y46796635D01*
X114650701Y46858128D01*
X114658111Y46874567D01*
X114692995Y46821629D01*
X114754488Y46769219D01*
X114828147Y46736016D01*
X114908140Y46724648D01*
X115168396Y46724648D01*
X115201784Y46720903D01*
X115207328Y46720864D01*
X115207436Y46720853D01*
X115207537Y46720863D01*
X115209320Y46720850D01*
X115623473Y46720850D01*
X115700559Y46656625D01*
X115825688Y46588402D01*
X115961687Y46545782D01*
X116103373Y46530390D01*
X116245350Y46542812D01*
X116382212Y46582573D01*
X116508742Y46648161D01*
X116620125Y46737076D01*
X116627385Y46744235D01*
X120279905Y50396755D01*
X120322752Y50448918D01*
X120366079Y50500553D01*
X120367927Y50503915D01*
X120370367Y50506885D01*
X120374410Y50514425D01*
X120374410Y95250D01*
X63214250Y95250D01*
X63214250Y1788893D01*
X65117210Y1788893D01*
X65117210Y1228627D01*
X65132174Y1076007D01*
X65176498Y929201D01*
X65248492Y793800D01*
X65345415Y674961D01*
X65463574Y577211D01*
X65598470Y504273D01*
X65744963Y458926D01*
X65897474Y442896D01*
X65938481Y446628D01*
X67102960Y446628D01*
X67148465Y450257D01*
X67225645Y474158D01*
X67293111Y518615D01*
X67345521Y580108D01*
X67378724Y653767D01*
X67379169Y656895D01*
X67393358Y611075D01*
X67437815Y543609D01*
X67499308Y491199D01*
X67572967Y457996D01*
X67652960Y446628D01*
X69152960Y446628D01*
X69198465Y450257D01*
X69275645Y474158D01*
X69343111Y518615D01*
X69395521Y580108D01*
X69402931Y596547D01*
X69437815Y543609D01*
X69499308Y491199D01*
X69572967Y457996D01*
X69652960Y446628D01*
X71152960Y446628D01*
X71198465Y450257D01*
X71275645Y474158D01*
X71343111Y518615D01*
X71395521Y580108D01*
X71428724Y653767D01*
X71429169Y656895D01*
X71443358Y611075D01*
X71487815Y543609D01*
X71549308Y491199D01*
X71622967Y457996D01*
X71702960Y446628D01*
X72861967Y446628D01*
X72897474Y442896D01*
X73050195Y456795D01*
X73197307Y500092D01*
X73333208Y571139D01*
X73452720Y667230D01*
X73551293Y784704D01*
X73625171Y919087D01*
X73671539Y1065260D01*
X73688633Y1217656D01*
X73688710Y1228627D01*
X73688710Y1788893D01*
X73673746Y1941513D01*
X73629422Y2088319D01*
X73557428Y2223720D01*
X73460505Y2342559D01*
X73342346Y2440309D01*
X73207450Y2513247D01*
X73060957Y2558594D01*
X72908446Y2574624D01*
X72867439Y2570892D01*
X71702960Y2570892D01*
X71657455Y2567263D01*
X71580275Y2543362D01*
X71512809Y2498905D01*
X71460399Y2437412D01*
X71427196Y2363753D01*
X71426751Y2360625D01*
X71412562Y2406445D01*
X71368105Y2473911D01*
X71306612Y2526321D01*
X71232953Y2559524D01*
X71152960Y2570892D01*
X69652960Y2570892D01*
X69607455Y2567263D01*
X69530275Y2543362D01*
X69462809Y2498905D01*
X69410399Y2437412D01*
X69402989Y2420973D01*
X69368105Y2473911D01*
X69306612Y2526321D01*
X69232953Y2559524D01*
X69152960Y2570892D01*
X67652960Y2570892D01*
X67607455Y2567263D01*
X67530275Y2543362D01*
X67462809Y2498905D01*
X67410399Y2437412D01*
X67377196Y2363753D01*
X67376751Y2360625D01*
X67362562Y2406445D01*
X67318105Y2473911D01*
X67256612Y2526321D01*
X67182953Y2559524D01*
X67102960Y2570892D01*
X65943953Y2570892D01*
X65908446Y2574624D01*
X65755725Y2560725D01*
X65608613Y2517428D01*
X65472712Y2446381D01*
X65353200Y2350290D01*
X65254627Y2232816D01*
X65180749Y2098433D01*
X65134381Y1952260D01*
X65117287Y1799864D01*
X65117210Y1788893D01*
X63214250Y1788893D01*
X63214250Y37042416D01*
X63685000Y37513166D01*
X63707704Y37540807D01*
X63730710Y37568224D01*
X63731692Y37570010D01*
X63732984Y37571583D01*
X63749907Y37603143D01*
X63767129Y37634471D01*
X63767744Y37636408D01*
X63768708Y37638207D01*
X63779186Y37672479D01*
X63789987Y37706529D01*
X63790214Y37708551D01*
X63790810Y37710501D01*
X63794426Y37746102D01*
X63798414Y37781656D01*
X63798442Y37785643D01*
X63798449Y37785712D01*
X63798443Y37785776D01*
X63798452Y37787064D01*
X63798452Y50291576D01*
X67225049Y53718173D01*
X67326025Y53716058D01*
X67442531Y53736601D01*
X67552828Y53779382D01*
X67652715Y53842772D01*
X67738387Y53924357D01*
X67806581Y54021028D01*
X67840622Y54097484D01*
X68365610Y53572496D01*
X68365610Y5161989D01*
X68302960Y5170892D01*
X67902960Y5170892D01*
X67857455Y5167263D01*
X67780275Y5143362D01*
X67712809Y5098905D01*
X67660399Y5037412D01*
X67627196Y4963753D01*
X67615828Y4883760D01*
X67615828Y4722465D01*
X67600902Y4741029D01*
X67487166Y4836465D01*
X67357058Y4907992D01*
X67215536Y4952886D01*
X67067989Y4969436D01*
X67057367Y4969510D01*
X66748553Y4969510D01*
X66600789Y4955022D01*
X66458654Y4912108D01*
X66327560Y4842405D01*
X66212503Y4748566D01*
X66117863Y4634166D01*
X66047246Y4503562D01*
X66003341Y4361730D01*
X65987822Y4214071D01*
X66001278Y4066210D01*
X66043198Y3923778D01*
X66111985Y3792201D01*
X66205018Y3676491D01*
X66318754Y3581055D01*
X66448862Y3509528D01*
X66590384Y3464634D01*
X66737931Y3448084D01*
X66748553Y3448010D01*
X67057367Y3448010D01*
X67205131Y3462498D01*
X67347266Y3505412D01*
X67478360Y3575115D01*
X67593417Y3668954D01*
X67615828Y3696044D01*
X67615828Y3533760D01*
X67619457Y3488255D01*
X67643358Y3411075D01*
X67687815Y3343609D01*
X67749308Y3291199D01*
X67822967Y3257996D01*
X67902960Y3246628D01*
X68302960Y3246628D01*
X68348465Y3250257D01*
X68425645Y3274158D01*
X68430303Y3277227D01*
X68472967Y3257996D01*
X68552960Y3246628D01*
X68952960Y3246628D01*
X68998465Y3250257D01*
X69075645Y3274158D01*
X69080303Y3277227D01*
X69122967Y3257996D01*
X69202960Y3246628D01*
X69602960Y3246628D01*
X69648465Y3250257D01*
X69725645Y3274158D01*
X69730303Y3277227D01*
X69772967Y3257996D01*
X69852960Y3246628D01*
X70252960Y3246628D01*
X70298465Y3250257D01*
X70375645Y3274158D01*
X70443111Y3318615D01*
X70495521Y3380108D01*
X70528724Y3453767D01*
X70540092Y3533760D01*
X70540092Y4214071D01*
X70987822Y4214071D01*
X71001278Y4066210D01*
X71043198Y3923778D01*
X71111985Y3792201D01*
X71205018Y3676491D01*
X71318754Y3581055D01*
X71448862Y3509528D01*
X71590384Y3464634D01*
X71737931Y3448084D01*
X71748553Y3448010D01*
X72057367Y3448010D01*
X72205131Y3462498D01*
X72347266Y3505412D01*
X72478360Y3575115D01*
X72593417Y3668954D01*
X72688057Y3783354D01*
X72758674Y3913958D01*
X72802579Y4055790D01*
X72818098Y4203449D01*
X72804642Y4351310D01*
X72762722Y4493742D01*
X72693935Y4625319D01*
X72600902Y4741029D01*
X72487166Y4836465D01*
X72357058Y4907992D01*
X72215536Y4952886D01*
X72067989Y4969436D01*
X72057367Y4969510D01*
X71748553Y4969510D01*
X71600789Y4955022D01*
X71458654Y4912108D01*
X71327560Y4842405D01*
X71212503Y4748566D01*
X71117863Y4634166D01*
X71047246Y4503562D01*
X71003341Y4361730D01*
X70987822Y4214071D01*
X70540092Y4214071D01*
X70540092Y4883760D01*
X70536463Y4929265D01*
X70512562Y5006445D01*
X70468105Y5073911D01*
X70406612Y5126321D01*
X70332953Y5159524D01*
X70252960Y5170892D01*
X69852960Y5170892D01*
X69807455Y5167263D01*
X69790310Y5161954D01*
X69790310Y5876755D01*
X110758497Y5876755D01*
X111071603Y5519813D01*
X111644524Y5306663D01*
X112248020Y5209379D01*
X112858899Y5231701D01*
X113453686Y5372771D01*
X113808677Y5519813D01*
X114121783Y5876755D01*
X112440140Y7558398D01*
X110758497Y5876755D01*
X69790310Y5876755D01*
X69790310Y8513840D01*
X109327799Y8513840D01*
X109350121Y7902961D01*
X109491191Y7308174D01*
X109638233Y6953183D01*
X109995175Y6640077D01*
X111676818Y8321720D01*
X113203462Y8321720D01*
X114885105Y6640077D01*
X115242047Y6953183D01*
X115455197Y7526104D01*
X115552481Y8129600D01*
X115530159Y8740479D01*
X115389089Y9335266D01*
X115242047Y9690257D01*
X115176303Y9747927D01*
X117002953Y9747927D01*
X117074271Y9520550D01*
X117320465Y9412325D01*
X117583042Y9354210D01*
X117851911Y9348438D01*
X118116739Y9395230D01*
X118367351Y9492788D01*
X118419289Y9520550D01*
X118490607Y9747927D01*
X117746780Y10491754D01*
X117002953Y9747927D01*
X115176303Y9747927D01*
X114885105Y10003363D01*
X113203462Y8321720D01*
X111676818Y8321720D01*
X109995175Y10003363D01*
X109638233Y9690257D01*
X109425083Y9117336D01*
X109327799Y8513840D01*
X69790310Y8513840D01*
X69790310Y10766685D01*
X110758497Y10766685D01*
X112440140Y9085042D01*
X113966227Y10611129D01*
X116378958Y10611129D01*
X116425750Y10346301D01*
X116523308Y10095689D01*
X116551070Y10043751D01*
X116778447Y9972433D01*
X117522274Y10716260D01*
X117971286Y10716260D01*
X118715113Y9972433D01*
X118942490Y10043751D01*
X119050715Y10289945D01*
X119108830Y10552522D01*
X119114602Y10821391D01*
X119067810Y11086219D01*
X118970252Y11336831D01*
X118942490Y11388769D01*
X118715113Y11460087D01*
X117971286Y10716260D01*
X117522274Y10716260D01*
X116778447Y11460087D01*
X116551070Y11388769D01*
X116442845Y11142575D01*
X116384730Y10879998D01*
X116378958Y10611129D01*
X113966227Y10611129D01*
X114121783Y10766685D01*
X113808677Y11123627D01*
X113235756Y11336777D01*
X112632260Y11434061D01*
X112021381Y11411739D01*
X111426594Y11270669D01*
X111071603Y11123627D01*
X110758497Y10766685D01*
X69790310Y10766685D01*
X69790310Y11684593D01*
X117002953Y11684593D01*
X117746780Y10940766D01*
X118490607Y11684593D01*
X118419289Y11911970D01*
X118173095Y12020195D01*
X117910518Y12078310D01*
X117641649Y12084082D01*
X117376821Y12037290D01*
X117126209Y11939732D01*
X117074271Y11911970D01*
X117002953Y11684593D01*
X69790310Y11684593D01*
X69790310Y16330981D01*
X93525400Y16330981D01*
X93557996Y16153379D01*
X93624468Y15985491D01*
X93722283Y15833711D01*
X93847716Y15703821D01*
X93995990Y15600768D01*
X94161456Y15528478D01*
X94337812Y15489703D01*
X94518341Y15485922D01*
X94696166Y15517277D01*
X94864514Y15582575D01*
X95016973Y15679329D01*
X95147736Y15803852D01*
X95251821Y15951403D01*
X95325265Y16116360D01*
X95365269Y16292441D01*
X95365807Y16330981D01*
X95532000Y16330981D01*
X95564596Y16153379D01*
X95631068Y15985491D01*
X95728883Y15833711D01*
X95854316Y15703821D01*
X96002590Y15600768D01*
X96168056Y15528478D01*
X96344412Y15489703D01*
X96524941Y15485922D01*
X96702766Y15517277D01*
X96871114Y15582575D01*
X97023573Y15679329D01*
X97154336Y15803852D01*
X97258421Y15951403D01*
X97331865Y16116360D01*
X97371869Y16292441D01*
X97372407Y16330981D01*
X97538600Y16330981D01*
X97571196Y16153379D01*
X97637668Y15985491D01*
X97735483Y15833711D01*
X97860916Y15703821D01*
X98009190Y15600768D01*
X98174656Y15528478D01*
X98351012Y15489703D01*
X98531541Y15485922D01*
X98709366Y15517277D01*
X98877714Y15582575D01*
X99030173Y15679329D01*
X99160936Y15803852D01*
X99265021Y15951403D01*
X99338465Y16116360D01*
X99378469Y16292441D01*
X99379007Y16330981D01*
X99545200Y16330981D01*
X99577796Y16153379D01*
X99644268Y15985491D01*
X99742083Y15833711D01*
X99867516Y15703821D01*
X100015790Y15600768D01*
X100181256Y15528478D01*
X100357612Y15489703D01*
X100538141Y15485922D01*
X100715966Y15517277D01*
X100884314Y15582575D01*
X101036773Y15679329D01*
X101167536Y15803852D01*
X101271621Y15951403D01*
X101345065Y16116360D01*
X101385069Y16292441D01*
X101387949Y16498684D01*
X101352877Y16675814D01*
X101284068Y16842757D01*
X101184143Y16993157D01*
X101056908Y17121283D01*
X100907210Y17222255D01*
X100740751Y17292228D01*
X100563870Y17328537D01*
X100383306Y17329797D01*
X100205936Y17295962D01*
X100038516Y17228320D01*
X99887423Y17129447D01*
X99758412Y17003110D01*
X99656397Y16854121D01*
X99585263Y16688154D01*
X99547721Y16511532D01*
X99545200Y16330981D01*
X99379007Y16330981D01*
X99381349Y16498684D01*
X99346277Y16675814D01*
X99277468Y16842757D01*
X99177543Y16993157D01*
X99050308Y17121283D01*
X98900610Y17222255D01*
X98734151Y17292228D01*
X98557270Y17328537D01*
X98376706Y17329797D01*
X98199336Y17295962D01*
X98031916Y17228320D01*
X97880823Y17129447D01*
X97751812Y17003110D01*
X97649797Y16854121D01*
X97578663Y16688154D01*
X97541121Y16511532D01*
X97538600Y16330981D01*
X97372407Y16330981D01*
X97374749Y16498684D01*
X97339677Y16675814D01*
X97270868Y16842757D01*
X97170943Y16993157D01*
X97043708Y17121283D01*
X96894010Y17222255D01*
X96727551Y17292228D01*
X96550670Y17328537D01*
X96370106Y17329797D01*
X96192736Y17295962D01*
X96025316Y17228320D01*
X95874223Y17129447D01*
X95745212Y17003110D01*
X95643197Y16854121D01*
X95572063Y16688154D01*
X95534521Y16511532D01*
X95532000Y16330981D01*
X95365807Y16330981D01*
X95368149Y16498684D01*
X95333077Y16675814D01*
X95264268Y16842757D01*
X95164343Y16993157D01*
X95037108Y17121283D01*
X94887410Y17222255D01*
X94720951Y17292228D01*
X94544070Y17328537D01*
X94363506Y17329797D01*
X94186136Y17295962D01*
X94018716Y17228320D01*
X93867623Y17129447D01*
X93738612Y17003110D01*
X93636597Y16854121D01*
X93565463Y16688154D01*
X93527921Y16511532D01*
X93525400Y16330981D01*
X69790310Y16330981D01*
X69790310Y53657242D01*
X69786820Y53692841D01*
X69783700Y53728496D01*
X69783132Y53730452D01*
X69782933Y53732479D01*
X69772588Y53766745D01*
X69762609Y53801091D01*
X69761672Y53802898D01*
X69761083Y53804850D01*
X69744268Y53836474D01*
X69727819Y53868207D01*
X69726549Y53869797D01*
X69725592Y53871598D01*
X69702966Y53899341D01*
X69680655Y53927289D01*
X69677857Y53930127D01*
X69677812Y53930182D01*
X69677761Y53930224D01*
X69676858Y53931140D01*
X64682112Y58925886D01*
X64682112Y64565208D01*
X64713710Y64565208D01*
X64713710Y61250722D01*
X64713710Y61250722D01*
G37*
X64713710Y61250722D02*
X64717200Y61215123D01*
X64720320Y61179468D01*
X64720888Y61177512D01*
X64721087Y61175485D01*
X64731428Y61141233D01*
X64741411Y61106872D01*
X64742348Y61105064D01*
X64742937Y61103114D01*
X64759742Y61071508D01*
X64776201Y61039757D01*
X64777471Y61038167D01*
X64778428Y61036366D01*
X64801054Y61008623D01*
X64823365Y60980675D01*
X64826163Y60977837D01*
X64826208Y60977782D01*
X64826259Y60977740D01*
X64827162Y60976824D01*
X102086410Y23717576D01*
X102086410Y17245004D01*
X102045116Y17228320D01*
X101894023Y17129447D01*
X101765012Y17003110D01*
X101662997Y16854121D01*
X101591863Y16688154D01*
X101554321Y16511532D01*
X101551800Y16330981D01*
X101584396Y16153379D01*
X101650868Y15985491D01*
X101748683Y15833711D01*
X101874116Y15703821D01*
X102022390Y15600768D01*
X102187856Y15528478D01*
X102364212Y15489703D01*
X102544741Y15485922D01*
X102722566Y15517277D01*
X102890914Y15582575D01*
X103043373Y15679329D01*
X103174136Y15803852D01*
X103278221Y15951403D01*
X103351665Y16116360D01*
X103391669Y16292441D01*
X103392207Y16330981D01*
X103558400Y16330981D01*
X103590996Y16153379D01*
X103657468Y15985491D01*
X103755283Y15833711D01*
X103880716Y15703821D01*
X104028990Y15600768D01*
X104194456Y15528478D01*
X104370812Y15489703D01*
X104551341Y15485922D01*
X104729166Y15517277D01*
X104897514Y15582575D01*
X105049973Y15679329D01*
X105180736Y15803852D01*
X105284821Y15951403D01*
X105358265Y16116360D01*
X105398269Y16292441D01*
X105398807Y16330981D01*
X105565000Y16330981D01*
X105597596Y16153379D01*
X105664068Y15985491D01*
X105761883Y15833711D01*
X105887316Y15703821D01*
X106035590Y15600768D01*
X106201056Y15528478D01*
X106377412Y15489703D01*
X106557941Y15485922D01*
X106735766Y15517277D01*
X106904114Y15582575D01*
X107056573Y15679329D01*
X107187336Y15803852D01*
X107291421Y15951403D01*
X107364865Y16116360D01*
X107404869Y16292441D01*
X107405407Y16330981D01*
X107571600Y16330981D01*
X107604196Y16153379D01*
X107670668Y15985491D01*
X107768483Y15833711D01*
X107893916Y15703821D01*
X108042190Y15600768D01*
X108207656Y15528478D01*
X108384012Y15489703D01*
X108564541Y15485922D01*
X108742366Y15517277D01*
X108910714Y15582575D01*
X109063173Y15679329D01*
X109193936Y15803852D01*
X109298021Y15951403D01*
X109371465Y16116360D01*
X109411469Y16292441D01*
X109414349Y16498684D01*
X109379277Y16675814D01*
X109310468Y16842757D01*
X109210543Y16993157D01*
X109083308Y17121283D01*
X108933610Y17222255D01*
X108767151Y17292228D01*
X108590270Y17328537D01*
X108409706Y17329797D01*
X108232336Y17295962D01*
X108064916Y17228320D01*
X107913823Y17129447D01*
X107784812Y17003110D01*
X107682797Y16854121D01*
X107611663Y16688154D01*
X107574121Y16511532D01*
X107571600Y16330981D01*
X107405407Y16330981D01*
X107407749Y16498684D01*
X107372677Y16675814D01*
X107303868Y16842757D01*
X107203943Y16993157D01*
X107076708Y17121283D01*
X106927010Y17222255D01*
X106760551Y17292228D01*
X106583670Y17328537D01*
X106403106Y17329797D01*
X106225736Y17295962D01*
X106058316Y17228320D01*
X105907223Y17129447D01*
X105778212Y17003110D01*
X105676197Y16854121D01*
X105605063Y16688154D01*
X105567521Y16511532D01*
X105565000Y16330981D01*
X105398807Y16330981D01*
X105401149Y16498684D01*
X105366077Y16675814D01*
X105297268Y16842757D01*
X105197343Y16993157D01*
X105070108Y17121283D01*
X104920410Y17222255D01*
X104753951Y17292228D01*
X104577070Y17328537D01*
X104396506Y17329797D01*
X104219136Y17295962D01*
X104051716Y17228320D01*
X103900623Y17129447D01*
X103771612Y17003110D01*
X103669597Y16854121D01*
X103598463Y16688154D01*
X103560921Y16511532D01*
X103558400Y16330981D01*
X103392207Y16330981D01*
X103394549Y16498684D01*
X103359477Y16675814D01*
X103290668Y16842757D01*
X103190743Y16993157D01*
X103063508Y17121283D01*
X102913810Y17222255D01*
X102861110Y17244408D01*
X102861110Y23499655D01*
X109634568Y16726197D01*
X109618263Y16688154D01*
X109580721Y16511532D01*
X109578200Y16330981D01*
X109610796Y16153379D01*
X109677268Y15985491D01*
X109775083Y15833711D01*
X109900516Y15703821D01*
X110048790Y15600768D01*
X110214256Y15528478D01*
X110390612Y15489703D01*
X110571141Y15485922D01*
X110748966Y15517277D01*
X110917314Y15582575D01*
X111069773Y15679329D01*
X111200536Y15803852D01*
X111304621Y15951403D01*
X111378065Y16116360D01*
X111418069Y16292441D01*
X111418607Y16330981D01*
X111584800Y16330981D01*
X111617396Y16153379D01*
X111683868Y15985491D01*
X111781683Y15833711D01*
X111907116Y15703821D01*
X112055390Y15600768D01*
X112220856Y15528478D01*
X112397212Y15489703D01*
X112577741Y15485922D01*
X112755566Y15517277D01*
X112923914Y15582575D01*
X113076373Y15679329D01*
X113207136Y15803852D01*
X113311221Y15951403D01*
X113384665Y16116360D01*
X113424669Y16292441D01*
X113427549Y16498684D01*
X113392477Y16675814D01*
X113323668Y16842757D01*
X113223743Y16993157D01*
X113096508Y17121283D01*
X112946810Y17222255D01*
X112780351Y17292228D01*
X112603470Y17328537D01*
X112422906Y17329797D01*
X112245536Y17295962D01*
X112078116Y17228320D01*
X111927023Y17129447D01*
X111798012Y17003110D01*
X111695997Y16854121D01*
X111624863Y16688154D01*
X111587321Y16511532D01*
X111584800Y16330981D01*
X111418607Y16330981D01*
X111420949Y16498684D01*
X111385877Y16675814D01*
X111317068Y16842757D01*
X111217143Y16993157D01*
X111089908Y17121283D01*
X110940210Y17222255D01*
X110773751Y17292228D01*
X110596870Y17328537D01*
X110416306Y17329797D01*
X110238936Y17295962D01*
X110182995Y17273360D01*
X109812245Y17644110D01*
X112811134Y17644110D01*
X116697648Y13757596D01*
X116697648Y12494260D01*
X116701277Y12448755D01*
X116725178Y12371575D01*
X116769635Y12304109D01*
X116831128Y12251699D01*
X116904787Y12218496D01*
X116984780Y12207128D01*
X118508780Y12207128D01*
X118554285Y12210757D01*
X118631465Y12234658D01*
X118698931Y12279115D01*
X118751341Y12340608D01*
X118784544Y12414267D01*
X118795912Y12494260D01*
X118795912Y14018260D01*
X118792283Y14063765D01*
X118768382Y14140945D01*
X118723925Y14208411D01*
X118662432Y14260821D01*
X118588773Y14294024D01*
X118508780Y14305392D01*
X117245444Y14305392D01*
X113245478Y18305358D01*
X113217837Y18328062D01*
X113190420Y18351068D01*
X113188634Y18352050D01*
X113187061Y18353342D01*
X113155501Y18370265D01*
X113124173Y18387487D01*
X113122236Y18388102D01*
X113120437Y18389066D01*
X113086165Y18399544D01*
X113052115Y18410345D01*
X113050093Y18410572D01*
X113048143Y18411168D01*
X113012542Y18414784D01*
X112976988Y18418772D01*
X112973001Y18418800D01*
X112972932Y18418807D01*
X112972868Y18418801D01*
X112971580Y18418810D01*
X109794466Y18418810D01*
X90685708Y37527568D01*
X93794634Y37527568D01*
X93850422Y37313103D01*
X94074871Y37217624D01*
X94313635Y37167766D01*
X94557537Y37165447D01*
X94797206Y37210755D01*
X95023430Y37301950D01*
X95044298Y37313103D01*
X95100086Y37527568D01*
X94447360Y38180294D01*
X93794634Y37527568D01*
X90685708Y37527568D01*
X89918653Y38294623D01*
X93208007Y38294623D01*
X93253315Y38054954D01*
X93344510Y37828730D01*
X93355663Y37807862D01*
X93570128Y37752074D01*
X94222854Y38404800D01*
X94671866Y38404800D01*
X95324592Y37752074D01*
X95539057Y37807862D01*
X95622400Y38003783D01*
X95631068Y37981891D01*
X95728883Y37830111D01*
X95854316Y37700221D01*
X96002590Y37597168D01*
X96168056Y37524878D01*
X96344412Y37486103D01*
X96524941Y37482322D01*
X96702766Y37513677D01*
X96871114Y37578975D01*
X97023573Y37675729D01*
X97154336Y37800252D01*
X97258421Y37947803D01*
X97331865Y38112760D01*
X97371869Y38288841D01*
X97372407Y38327381D01*
X97538600Y38327381D01*
X97571196Y38149779D01*
X97637668Y37981891D01*
X97735483Y37830111D01*
X97860916Y37700221D01*
X98009190Y37597168D01*
X98174656Y37524878D01*
X98351012Y37486103D01*
X98531541Y37482322D01*
X98709366Y37513677D01*
X98877714Y37578975D01*
X99030173Y37675729D01*
X99160936Y37800252D01*
X99265021Y37947803D01*
X99338465Y38112760D01*
X99378469Y38288841D01*
X99379007Y38327381D01*
X99545200Y38327381D01*
X99577796Y38149779D01*
X99644268Y37981891D01*
X99742083Y37830111D01*
X99867516Y37700221D01*
X100015790Y37597168D01*
X100181256Y37524878D01*
X100357612Y37486103D01*
X100538141Y37482322D01*
X100715966Y37513677D01*
X100884314Y37578975D01*
X101036773Y37675729D01*
X101167536Y37800252D01*
X101271621Y37947803D01*
X101345065Y38112760D01*
X101385069Y38288841D01*
X101385607Y38327381D01*
X101551800Y38327381D01*
X101584396Y38149779D01*
X101650868Y37981891D01*
X101748683Y37830111D01*
X101874116Y37700221D01*
X102022390Y37597168D01*
X102187856Y37524878D01*
X102364212Y37486103D01*
X102544741Y37482322D01*
X102722566Y37513677D01*
X102890914Y37578975D01*
X103043373Y37675729D01*
X103174136Y37800252D01*
X103278221Y37947803D01*
X103351665Y38112760D01*
X103391669Y38288841D01*
X103392207Y38327381D01*
X103558400Y38327381D01*
X103590996Y38149779D01*
X103657468Y37981891D01*
X103755283Y37830111D01*
X103880716Y37700221D01*
X104028990Y37597168D01*
X104194456Y37524878D01*
X104370812Y37486103D01*
X104551341Y37482322D01*
X104729166Y37513677D01*
X104897514Y37578975D01*
X105049973Y37675729D01*
X105180736Y37800252D01*
X105284821Y37947803D01*
X105358265Y38112760D01*
X105398269Y38288841D01*
X105398807Y38327381D01*
X105565000Y38327381D01*
X105597596Y38149779D01*
X105664068Y37981891D01*
X105761883Y37830111D01*
X105887316Y37700221D01*
X106035590Y37597168D01*
X106201056Y37524878D01*
X106377412Y37486103D01*
X106557941Y37482322D01*
X106735766Y37513677D01*
X106904114Y37578975D01*
X107056573Y37675729D01*
X107187336Y37800252D01*
X107291421Y37947803D01*
X107364865Y38112760D01*
X107404869Y38288841D01*
X107407749Y38495084D01*
X107372677Y38672214D01*
X107303868Y38839157D01*
X107203943Y38989557D01*
X107076708Y39117683D01*
X106927010Y39218655D01*
X106760551Y39288628D01*
X106583670Y39324937D01*
X106403106Y39326197D01*
X106225736Y39292362D01*
X106058316Y39224720D01*
X105907223Y39125847D01*
X105778212Y38999510D01*
X105676197Y38850521D01*
X105605063Y38684554D01*
X105567521Y38507932D01*
X105565000Y38327381D01*
X105398807Y38327381D01*
X105401149Y38495084D01*
X105366077Y38672214D01*
X105297268Y38839157D01*
X105197343Y38989557D01*
X105070108Y39117683D01*
X104920410Y39218655D01*
X104753951Y39288628D01*
X104577070Y39324937D01*
X104396506Y39326197D01*
X104219136Y39292362D01*
X104051716Y39224720D01*
X103900623Y39125847D01*
X103771612Y38999510D01*
X103669597Y38850521D01*
X103598463Y38684554D01*
X103560921Y38507932D01*
X103558400Y38327381D01*
X103392207Y38327381D01*
X103394549Y38495084D01*
X103359477Y38672214D01*
X103290668Y38839157D01*
X103190743Y38989557D01*
X103063508Y39117683D01*
X102913810Y39218655D01*
X102747351Y39288628D01*
X102570470Y39324937D01*
X102389906Y39326197D01*
X102212536Y39292362D01*
X102045116Y39224720D01*
X101894023Y39125847D01*
X101765012Y38999510D01*
X101662997Y38850521D01*
X101591863Y38684554D01*
X101554321Y38507932D01*
X101551800Y38327381D01*
X101385607Y38327381D01*
X101387949Y38495084D01*
X101352877Y38672214D01*
X101284068Y38839157D01*
X101184143Y38989557D01*
X101056908Y39117683D01*
X100907210Y39218655D01*
X100740751Y39288628D01*
X100563870Y39324937D01*
X100383306Y39326197D01*
X100205936Y39292362D01*
X100038516Y39224720D01*
X99887423Y39125847D01*
X99758412Y38999510D01*
X99656397Y38850521D01*
X99585263Y38684554D01*
X99547721Y38507932D01*
X99545200Y38327381D01*
X99379007Y38327381D01*
X99381349Y38495084D01*
X99346277Y38672214D01*
X99277468Y38839157D01*
X99177543Y38989557D01*
X99050308Y39117683D01*
X98900610Y39218655D01*
X98734151Y39288628D01*
X98557270Y39324937D01*
X98376706Y39326197D01*
X98199336Y39292362D01*
X98031916Y39224720D01*
X97880823Y39125847D01*
X97751812Y38999510D01*
X97649797Y38850521D01*
X97578663Y38684554D01*
X97541121Y38507932D01*
X97538600Y38327381D01*
X97372407Y38327381D01*
X97374749Y38495084D01*
X97339677Y38672214D01*
X97270868Y38839157D01*
X97170943Y38989557D01*
X97043708Y39117683D01*
X96894010Y39218655D01*
X96727551Y39288628D01*
X96550670Y39324937D01*
X96370106Y39326197D01*
X96192736Y39292362D01*
X96025316Y39224720D01*
X95874223Y39125847D01*
X95745212Y38999510D01*
X95643197Y38850521D01*
X95622357Y38801898D01*
X95550210Y38980870D01*
X95539057Y39001738D01*
X95324592Y39057526D01*
X94671866Y38404800D01*
X94222854Y38404800D01*
X93570128Y39057526D01*
X93355663Y39001738D01*
X93260184Y38777289D01*
X93210326Y38538525D01*
X93208007Y38294623D01*
X89918653Y38294623D01*
X88931244Y39282032D01*
X93794634Y39282032D01*
X94447360Y38629306D01*
X95100086Y39282032D01*
X95044298Y39496497D01*
X94819849Y39591976D01*
X94581085Y39641834D01*
X94337183Y39644153D01*
X94097514Y39598845D01*
X93871290Y39507650D01*
X93850422Y39496497D01*
X93794634Y39282032D01*
X88931244Y39282032D01*
X67719372Y60493904D01*
X68926817Y60493904D01*
X68912341Y60472763D01*
X68855925Y60341134D01*
X68826150Y60201054D01*
X68824150Y60057859D01*
X68850003Y59917002D01*
X68902721Y59783849D01*
X68980299Y59663472D01*
X69079781Y59560456D01*
X69197377Y59478725D01*
X69328609Y59421391D01*
X69468477Y59390639D01*
X69611655Y59387640D01*
X69752689Y59412508D01*
X69886206Y59464296D01*
X70007122Y59541031D01*
X70047529Y59579510D01*
X71194981Y59579510D01*
X71213381Y59560456D01*
X71330977Y59478725D01*
X71462209Y59421391D01*
X71602077Y59390639D01*
X71745255Y59387640D01*
X71886289Y59412508D01*
X72019806Y59464296D01*
X72140722Y59541031D01*
X72244430Y59639791D01*
X72326981Y59756814D01*
X72385229Y59887642D01*
X72416957Y60027293D01*
X72419241Y60190865D01*
X72391425Y60331347D01*
X72336852Y60463750D01*
X72316818Y60493904D01*
X85856660Y60493904D01*
X107627968Y38722596D01*
X107611663Y38684554D01*
X107574121Y38507932D01*
X107571600Y38327381D01*
X107604196Y38149779D01*
X107670668Y37981891D01*
X107768483Y37830111D01*
X107893916Y37700221D01*
X108042190Y37597168D01*
X108207656Y37524878D01*
X108384012Y37486103D01*
X108564541Y37482322D01*
X108742366Y37513677D01*
X108910714Y37578975D01*
X109063173Y37675729D01*
X109193936Y37800252D01*
X109298021Y37947803D01*
X109371465Y38112760D01*
X109411469Y38288841D01*
X109414349Y38495084D01*
X109379277Y38672214D01*
X109310468Y38839157D01*
X109210543Y38989557D01*
X109083308Y39117683D01*
X108933610Y39218655D01*
X108767151Y39288628D01*
X108590270Y39324937D01*
X108409706Y39326197D01*
X108232336Y39292362D01*
X108176395Y39269761D01*
X86558550Y60887606D01*
X87469558Y60887606D01*
X109634568Y38722596D01*
X109618263Y38684554D01*
X109580721Y38507932D01*
X109578200Y38327381D01*
X109610796Y38149779D01*
X109677268Y37981891D01*
X109775083Y37830111D01*
X109900516Y37700221D01*
X110048790Y37597168D01*
X110214256Y37524878D01*
X110390612Y37486103D01*
X110571141Y37482322D01*
X110748966Y37513677D01*
X110917314Y37578975D01*
X111069773Y37675729D01*
X111200536Y37800252D01*
X111304621Y37947803D01*
X111378065Y38112760D01*
X111418069Y38288841D01*
X111418607Y38327381D01*
X111584800Y38327381D01*
X111617396Y38149779D01*
X111683868Y37981891D01*
X111781683Y37830111D01*
X111907116Y37700221D01*
X112055390Y37597168D01*
X112220856Y37524878D01*
X112397212Y37486103D01*
X112577741Y37482322D01*
X112755566Y37513677D01*
X112923914Y37578975D01*
X113076373Y37675729D01*
X113207136Y37800252D01*
X113311221Y37947803D01*
X113384665Y38112760D01*
X113424669Y38288841D01*
X113427549Y38495084D01*
X113392477Y38672214D01*
X113323668Y38839157D01*
X113223743Y38989557D01*
X113096508Y39117683D01*
X112946810Y39218655D01*
X112780351Y39288628D01*
X112603470Y39324937D01*
X112422906Y39326197D01*
X112245536Y39292362D01*
X112078116Y39224720D01*
X111927023Y39125847D01*
X111798012Y38999510D01*
X111695997Y38850521D01*
X111624863Y38684554D01*
X111587321Y38507932D01*
X111584800Y38327381D01*
X111418607Y38327381D01*
X111420949Y38495084D01*
X111385877Y38672214D01*
X111317068Y38839157D01*
X111217143Y38989557D01*
X111089908Y39117683D01*
X110940210Y39218655D01*
X110773751Y39288628D01*
X110596870Y39324937D01*
X110416306Y39326197D01*
X110238936Y39292362D01*
X110182995Y39269761D01*
X88171448Y61281308D01*
X91263136Y61281308D01*
X106732148Y45812296D01*
X106732148Y45522960D01*
X106735777Y45477455D01*
X106759678Y45400275D01*
X106804135Y45332809D01*
X106865628Y45280399D01*
X106882067Y45272989D01*
X106829129Y45238105D01*
X106776719Y45176612D01*
X106743516Y45102953D01*
X106732148Y45022960D01*
X106732148Y44422960D01*
X106735777Y44377455D01*
X106759678Y44300275D01*
X106804135Y44232809D01*
X106865628Y44180399D01*
X106939287Y44147196D01*
X107019280Y44135828D01*
X107519280Y44135828D01*
X107564785Y44139457D01*
X107641965Y44163358D01*
X107709431Y44207815D01*
X107742223Y44246290D01*
X107838961Y44246290D01*
X107840497Y44227035D01*
X107864398Y44149855D01*
X107908855Y44082389D01*
X107970348Y44029979D01*
X108044007Y43996776D01*
X108124000Y43985408D01*
X108924000Y43985408D01*
X108969505Y43989037D01*
X109046685Y44012938D01*
X109114151Y44057395D01*
X109166561Y44118888D01*
X109199764Y44192547D01*
X109211132Y44272540D01*
X109211132Y45172540D01*
X109207503Y45218045D01*
X109183602Y45295225D01*
X109139145Y45362691D01*
X109077652Y45415101D01*
X109003993Y45448304D01*
X108924000Y45459672D01*
X108124000Y45459672D01*
X108078495Y45456043D01*
X108001315Y45432142D01*
X107933849Y45387685D01*
X107881439Y45326192D01*
X107848236Y45252533D01*
X107840598Y45198790D01*
X107743862Y45198790D01*
X107734425Y45213111D01*
X107672932Y45265521D01*
X107656493Y45272931D01*
X107709431Y45307815D01*
X107761841Y45369308D01*
X107795044Y45442967D01*
X107806412Y45522960D01*
X107806412Y46122960D01*
X107802783Y46168465D01*
X107778882Y46245645D01*
X107734425Y46313111D01*
X107672932Y46365521D01*
X107599273Y46398724D01*
X107519280Y46410092D01*
X107229944Y46410092D01*
X91965026Y61675010D01*
X100019054Y61675010D01*
X111296563Y50397501D01*
X111208645Y50192373D01*
X111156221Y49945735D01*
X111152700Y49693611D01*
X111198218Y49445605D01*
X111291040Y49211163D01*
X111427631Y48999215D01*
X111602788Y48817835D01*
X111809839Y48673930D01*
X112040899Y48572983D01*
X112231903Y48530988D01*
X112075363Y48501126D01*
X111841575Y48406669D01*
X111630586Y48268602D01*
X111450433Y48092183D01*
X111307977Y47884132D01*
X111208645Y47652373D01*
X111156221Y47405735D01*
X111152700Y47153611D01*
X111198218Y46905605D01*
X111291040Y46671163D01*
X111427631Y46459215D01*
X111602788Y46277835D01*
X111809839Y46133930D01*
X112040899Y46032983D01*
X112231903Y45990988D01*
X112075363Y45961126D01*
X111841575Y45866669D01*
X111630586Y45728602D01*
X111450433Y45552183D01*
X111338897Y45389290D01*
X111007936Y45389290D01*
X110977652Y45415101D01*
X110903993Y45448304D01*
X110824000Y45459672D01*
X110024000Y45459672D01*
X109978495Y45456043D01*
X109901315Y45432142D01*
X109833849Y45387685D01*
X109781439Y45326192D01*
X109748236Y45252533D01*
X109736868Y45172540D01*
X109736868Y44272540D01*
X109740497Y44227035D01*
X109764398Y44149855D01*
X109808855Y44082389D01*
X109870348Y44029979D01*
X109944007Y43996776D01*
X110024000Y43985408D01*
X110824000Y43985408D01*
X110869505Y43989037D01*
X110946685Y44012938D01*
X111011715Y44055790D01*
X111339615Y44055790D01*
X111427631Y43919215D01*
X111602788Y43737835D01*
X111809839Y43593930D01*
X112040899Y43492983D01*
X112287166Y43438837D01*
X112539259Y43433557D01*
X112787577Y43477342D01*
X113022661Y43568525D01*
X113235557Y43703633D01*
X113418156Y43877520D01*
X113563502Y44083561D01*
X113666060Y44313911D01*
X113721923Y44559793D01*
X113725945Y44847794D01*
X113676969Y45095141D01*
X113580883Y45328264D01*
X113441346Y45538284D01*
X113263673Y45717201D01*
X113054633Y45858200D01*
X112822186Y45955912D01*
X112645212Y45992239D01*
X112787577Y46017342D01*
X113022661Y46108525D01*
X113235557Y46243633D01*
X113418156Y46417520D01*
X113563502Y46623561D01*
X113607316Y46721970D01*
X114108080Y46721970D01*
X114135394Y46724648D01*
X114408140Y46724648D01*
X114453645Y46728277D01*
X114530825Y46752178D01*
X114598291Y46796635D01*
X114650701Y46858128D01*
X114658111Y46874567D01*
X114692995Y46821629D01*
X114754488Y46769219D01*
X114828147Y46736016D01*
X114908140Y46724648D01*
X115168396Y46724648D01*
X115201784Y46720903D01*
X115207328Y46720864D01*
X115207436Y46720853D01*
X115207537Y46720863D01*
X115209320Y46720850D01*
X115623473Y46720850D01*
X115700559Y46656625D01*
X115825688Y46588402D01*
X115961687Y46545782D01*
X116103373Y46530390D01*
X116245350Y46542812D01*
X116382212Y46582573D01*
X116508742Y46648161D01*
X116620125Y46737076D01*
X116627385Y46744235D01*
X120279905Y50396755D01*
X120322752Y50448918D01*
X120366079Y50500553D01*
X120367927Y50503915D01*
X120370367Y50506885D01*
X120374410Y50514425D01*
X120374410Y95250D01*
X63214250Y95250D01*
X63214250Y1788893D01*
X65117210Y1788893D01*
X65117210Y1228627D01*
X65132174Y1076007D01*
X65176498Y929201D01*
X65248492Y793800D01*
X65345415Y674961D01*
X65463574Y577211D01*
X65598470Y504273D01*
X65744963Y458926D01*
X65897474Y442896D01*
X65938481Y446628D01*
X67102960Y446628D01*
X67148465Y450257D01*
X67225645Y474158D01*
X67293111Y518615D01*
X67345521Y580108D01*
X67378724Y653767D01*
X67379169Y656895D01*
X67393358Y611075D01*
X67437815Y543609D01*
X67499308Y491199D01*
X67572967Y457996D01*
X67652960Y446628D01*
X69152960Y446628D01*
X69198465Y450257D01*
X69275645Y474158D01*
X69343111Y518615D01*
X69395521Y580108D01*
X69402931Y596547D01*
X69437815Y543609D01*
X69499308Y491199D01*
X69572967Y457996D01*
X69652960Y446628D01*
X71152960Y446628D01*
X71198465Y450257D01*
X71275645Y474158D01*
X71343111Y518615D01*
X71395521Y580108D01*
X71428724Y653767D01*
X71429169Y656895D01*
X71443358Y611075D01*
X71487815Y543609D01*
X71549308Y491199D01*
X71622967Y457996D01*
X71702960Y446628D01*
X72861967Y446628D01*
X72897474Y442896D01*
X73050195Y456795D01*
X73197307Y500092D01*
X73333208Y571139D01*
X73452720Y667230D01*
X73551293Y784704D01*
X73625171Y919087D01*
X73671539Y1065260D01*
X73688633Y1217656D01*
X73688710Y1228627D01*
X73688710Y1788893D01*
X73673746Y1941513D01*
X73629422Y2088319D01*
X73557428Y2223720D01*
X73460505Y2342559D01*
X73342346Y2440309D01*
X73207450Y2513247D01*
X73060957Y2558594D01*
X72908446Y2574624D01*
X72867439Y2570892D01*
X71702960Y2570892D01*
X71657455Y2567263D01*
X71580275Y2543362D01*
X71512809Y2498905D01*
X71460399Y2437412D01*
X71427196Y2363753D01*
X71426751Y2360625D01*
X71412562Y2406445D01*
X71368105Y2473911D01*
X71306612Y2526321D01*
X71232953Y2559524D01*
X71152960Y2570892D01*
X69652960Y2570892D01*
X69607455Y2567263D01*
X69530275Y2543362D01*
X69462809Y2498905D01*
X69410399Y2437412D01*
X69402989Y2420973D01*
X69368105Y2473911D01*
X69306612Y2526321D01*
X69232953Y2559524D01*
X69152960Y2570892D01*
X67652960Y2570892D01*
X67607455Y2567263D01*
X67530275Y2543362D01*
X67462809Y2498905D01*
X67410399Y2437412D01*
X67377196Y2363753D01*
X67376751Y2360625D01*
X67362562Y2406445D01*
X67318105Y2473911D01*
X67256612Y2526321D01*
X67182953Y2559524D01*
X67102960Y2570892D01*
X65943953Y2570892D01*
X65908446Y2574624D01*
X65755725Y2560725D01*
X65608613Y2517428D01*
X65472712Y2446381D01*
X65353200Y2350290D01*
X65254627Y2232816D01*
X65180749Y2098433D01*
X65134381Y1952260D01*
X65117287Y1799864D01*
X65117210Y1788893D01*
X63214250Y1788893D01*
X63214250Y37042416D01*
X63685000Y37513166D01*
X63707704Y37540807D01*
X63730710Y37568224D01*
X63731692Y37570010D01*
X63732984Y37571583D01*
X63749907Y37603143D01*
X63767129Y37634471D01*
X63767744Y37636408D01*
X63768708Y37638207D01*
X63779186Y37672479D01*
X63789987Y37706529D01*
X63790214Y37708551D01*
X63790810Y37710501D01*
X63794426Y37746102D01*
X63798414Y37781656D01*
X63798442Y37785643D01*
X63798449Y37785712D01*
X63798443Y37785776D01*
X63798452Y37787064D01*
X63798452Y50291576D01*
X67225049Y53718173D01*
X67326025Y53716058D01*
X67442531Y53736601D01*
X67552828Y53779382D01*
X67652715Y53842772D01*
X67738387Y53924357D01*
X67806581Y54021028D01*
X67840622Y54097484D01*
X68365610Y53572496D01*
X68365610Y5161989D01*
X68302960Y5170892D01*
X67902960Y5170892D01*
X67857455Y5167263D01*
X67780275Y5143362D01*
X67712809Y5098905D01*
X67660399Y5037412D01*
X67627196Y4963753D01*
X67615828Y4883760D01*
X67615828Y4722465D01*
X67600902Y4741029D01*
X67487166Y4836465D01*
X67357058Y4907992D01*
X67215536Y4952886D01*
X67067989Y4969436D01*
X67057367Y4969510D01*
X66748553Y4969510D01*
X66600789Y4955022D01*
X66458654Y4912108D01*
X66327560Y4842405D01*
X66212503Y4748566D01*
X66117863Y4634166D01*
X66047246Y4503562D01*
X66003341Y4361730D01*
X65987822Y4214071D01*
X66001278Y4066210D01*
X66043198Y3923778D01*
X66111985Y3792201D01*
X66205018Y3676491D01*
X66318754Y3581055D01*
X66448862Y3509528D01*
X66590384Y3464634D01*
X66737931Y3448084D01*
X66748553Y3448010D01*
X67057367Y3448010D01*
X67205131Y3462498D01*
X67347266Y3505412D01*
X67478360Y3575115D01*
X67593417Y3668954D01*
X67615828Y3696044D01*
X67615828Y3533760D01*
X67619457Y3488255D01*
X67643358Y3411075D01*
X67687815Y3343609D01*
X67749308Y3291199D01*
X67822967Y3257996D01*
X67902960Y3246628D01*
X68302960Y3246628D01*
X68348465Y3250257D01*
X68425645Y3274158D01*
X68430303Y3277227D01*
X68472967Y3257996D01*
X68552960Y3246628D01*
X68952960Y3246628D01*
X68998465Y3250257D01*
X69075645Y3274158D01*
X69080303Y3277227D01*
X69122967Y3257996D01*
X69202960Y3246628D01*
X69602960Y3246628D01*
X69648465Y3250257D01*
X69725645Y3274158D01*
X69730303Y3277227D01*
X69772967Y3257996D01*
X69852960Y3246628D01*
X70252960Y3246628D01*
X70298465Y3250257D01*
X70375645Y3274158D01*
X70443111Y3318615D01*
X70495521Y3380108D01*
X70528724Y3453767D01*
X70540092Y3533760D01*
X70540092Y4214071D01*
X70987822Y4214071D01*
X71001278Y4066210D01*
X71043198Y3923778D01*
X71111985Y3792201D01*
X71205018Y3676491D01*
X71318754Y3581055D01*
X71448862Y3509528D01*
X71590384Y3464634D01*
X71737931Y3448084D01*
X71748553Y3448010D01*
X72057367Y3448010D01*
X72205131Y3462498D01*
X72347266Y3505412D01*
X72478360Y3575115D01*
X72593417Y3668954D01*
X72688057Y3783354D01*
X72758674Y3913958D01*
X72802579Y4055790D01*
X72818098Y4203449D01*
X72804642Y4351310D01*
X72762722Y4493742D01*
X72693935Y4625319D01*
X72600902Y4741029D01*
X72487166Y4836465D01*
X72357058Y4907992D01*
X72215536Y4952886D01*
X72067989Y4969436D01*
X72057367Y4969510D01*
X71748553Y4969510D01*
X71600789Y4955022D01*
X71458654Y4912108D01*
X71327560Y4842405D01*
X71212503Y4748566D01*
X71117863Y4634166D01*
X71047246Y4503562D01*
X71003341Y4361730D01*
X70987822Y4214071D01*
X70540092Y4214071D01*
X70540092Y4883760D01*
X70536463Y4929265D01*
X70512562Y5006445D01*
X70468105Y5073911D01*
X70406612Y5126321D01*
X70332953Y5159524D01*
X70252960Y5170892D01*
X69852960Y5170892D01*
X69807455Y5167263D01*
X69790310Y5161954D01*
X69790310Y5876755D01*
X110758497Y5876755D01*
X111071603Y5519813D01*
X111644524Y5306663D01*
X112248020Y5209379D01*
X112858899Y5231701D01*
X113453686Y5372771D01*
X113808677Y5519813D01*
X114121783Y5876755D01*
X112440140Y7558398D01*
X110758497Y5876755D01*
X69790310Y5876755D01*
X69790310Y8513840D01*
X109327799Y8513840D01*
X109350121Y7902961D01*
X109491191Y7308174D01*
X109638233Y6953183D01*
X109995175Y6640077D01*
X111676818Y8321720D01*
X113203462Y8321720D01*
X114885105Y6640077D01*
X115242047Y6953183D01*
X115455197Y7526104D01*
X115552481Y8129600D01*
X115530159Y8740479D01*
X115389089Y9335266D01*
X115242047Y9690257D01*
X115176303Y9747927D01*
X117002953Y9747927D01*
X117074271Y9520550D01*
X117320465Y9412325D01*
X117583042Y9354210D01*
X117851911Y9348438D01*
X118116739Y9395230D01*
X118367351Y9492788D01*
X118419289Y9520550D01*
X118490607Y9747927D01*
X117746780Y10491754D01*
X117002953Y9747927D01*
X115176303Y9747927D01*
X114885105Y10003363D01*
X113203462Y8321720D01*
X111676818Y8321720D01*
X109995175Y10003363D01*
X109638233Y9690257D01*
X109425083Y9117336D01*
X109327799Y8513840D01*
X69790310Y8513840D01*
X69790310Y10766685D01*
X110758497Y10766685D01*
X112440140Y9085042D01*
X113966227Y10611129D01*
X116378958Y10611129D01*
X116425750Y10346301D01*
X116523308Y10095689D01*
X116551070Y10043751D01*
X116778447Y9972433D01*
X117522274Y10716260D01*
X117971286Y10716260D01*
X118715113Y9972433D01*
X118942490Y10043751D01*
X119050715Y10289945D01*
X119108830Y10552522D01*
X119114602Y10821391D01*
X119067810Y11086219D01*
X118970252Y11336831D01*
X118942490Y11388769D01*
X118715113Y11460087D01*
X117971286Y10716260D01*
X117522274Y10716260D01*
X116778447Y11460087D01*
X116551070Y11388769D01*
X116442845Y11142575D01*
X116384730Y10879998D01*
X116378958Y10611129D01*
X113966227Y10611129D01*
X114121783Y10766685D01*
X113808677Y11123627D01*
X113235756Y11336777D01*
X112632260Y11434061D01*
X112021381Y11411739D01*
X111426594Y11270669D01*
X111071603Y11123627D01*
X110758497Y10766685D01*
X69790310Y10766685D01*
X69790310Y11684593D01*
X117002953Y11684593D01*
X117746780Y10940766D01*
X118490607Y11684593D01*
X118419289Y11911970D01*
X118173095Y12020195D01*
X117910518Y12078310D01*
X117641649Y12084082D01*
X117376821Y12037290D01*
X117126209Y11939732D01*
X117074271Y11911970D01*
X117002953Y11684593D01*
X69790310Y11684593D01*
X69790310Y16330981D01*
X93525400Y16330981D01*
X93557996Y16153379D01*
X93624468Y15985491D01*
X93722283Y15833711D01*
X93847716Y15703821D01*
X93995990Y15600768D01*
X94161456Y15528478D01*
X94337812Y15489703D01*
X94518341Y15485922D01*
X94696166Y15517277D01*
X94864514Y15582575D01*
X95016973Y15679329D01*
X95147736Y15803852D01*
X95251821Y15951403D01*
X95325265Y16116360D01*
X95365269Y16292441D01*
X95365807Y16330981D01*
X95532000Y16330981D01*
X95564596Y16153379D01*
X95631068Y15985491D01*
X95728883Y15833711D01*
X95854316Y15703821D01*
X96002590Y15600768D01*
X96168056Y15528478D01*
X96344412Y15489703D01*
X96524941Y15485922D01*
X96702766Y15517277D01*
X96871114Y15582575D01*
X97023573Y15679329D01*
X97154336Y15803852D01*
X97258421Y15951403D01*
X97331865Y16116360D01*
X97371869Y16292441D01*
X97372407Y16330981D01*
X97538600Y16330981D01*
X97571196Y16153379D01*
X97637668Y15985491D01*
X97735483Y15833711D01*
X97860916Y15703821D01*
X98009190Y15600768D01*
X98174656Y15528478D01*
X98351012Y15489703D01*
X98531541Y15485922D01*
X98709366Y15517277D01*
X98877714Y15582575D01*
X99030173Y15679329D01*
X99160936Y15803852D01*
X99265021Y15951403D01*
X99338465Y16116360D01*
X99378469Y16292441D01*
X99379007Y16330981D01*
X99545200Y16330981D01*
X99577796Y16153379D01*
X99644268Y15985491D01*
X99742083Y15833711D01*
X99867516Y15703821D01*
X100015790Y15600768D01*
X100181256Y15528478D01*
X100357612Y15489703D01*
X100538141Y15485922D01*
X100715966Y15517277D01*
X100884314Y15582575D01*
X101036773Y15679329D01*
X101167536Y15803852D01*
X101271621Y15951403D01*
X101345065Y16116360D01*
X101385069Y16292441D01*
X101387949Y16498684D01*
X101352877Y16675814D01*
X101284068Y16842757D01*
X101184143Y16993157D01*
X101056908Y17121283D01*
X100907210Y17222255D01*
X100740751Y17292228D01*
X100563870Y17328537D01*
X100383306Y17329797D01*
X100205936Y17295962D01*
X100038516Y17228320D01*
X99887423Y17129447D01*
X99758412Y17003110D01*
X99656397Y16854121D01*
X99585263Y16688154D01*
X99547721Y16511532D01*
X99545200Y16330981D01*
X99379007Y16330981D01*
X99381349Y16498684D01*
X99346277Y16675814D01*
X99277468Y16842757D01*
X99177543Y16993157D01*
X99050308Y17121283D01*
X98900610Y17222255D01*
X98734151Y17292228D01*
X98557270Y17328537D01*
X98376706Y17329797D01*
X98199336Y17295962D01*
X98031916Y17228320D01*
X97880823Y17129447D01*
X97751812Y17003110D01*
X97649797Y16854121D01*
X97578663Y16688154D01*
X97541121Y16511532D01*
X97538600Y16330981D01*
X97372407Y16330981D01*
X97374749Y16498684D01*
X97339677Y16675814D01*
X97270868Y16842757D01*
X97170943Y16993157D01*
X97043708Y17121283D01*
X96894010Y17222255D01*
X96727551Y17292228D01*
X96550670Y17328537D01*
X96370106Y17329797D01*
X96192736Y17295962D01*
X96025316Y17228320D01*
X95874223Y17129447D01*
X95745212Y17003110D01*
X95643197Y16854121D01*
X95572063Y16688154D01*
X95534521Y16511532D01*
X95532000Y16330981D01*
X95365807Y16330981D01*
X95368149Y16498684D01*
X95333077Y16675814D01*
X95264268Y16842757D01*
X95164343Y16993157D01*
X95037108Y17121283D01*
X94887410Y17222255D01*
X94720951Y17292228D01*
X94544070Y17328537D01*
X94363506Y17329797D01*
X94186136Y17295962D01*
X94018716Y17228320D01*
X93867623Y17129447D01*
X93738612Y17003110D01*
X93636597Y16854121D01*
X93565463Y16688154D01*
X93527921Y16511532D01*
X93525400Y16330981D01*
X69790310Y16330981D01*
X69790310Y53657242D01*
X69786820Y53692841D01*
X69783700Y53728496D01*
X69783132Y53730452D01*
X69782933Y53732479D01*
X69772588Y53766745D01*
X69762609Y53801091D01*
X69761672Y53802898D01*
X69761083Y53804850D01*
X69744268Y53836474D01*
X69727819Y53868207D01*
X69726549Y53869797D01*
X69725592Y53871598D01*
X69702966Y53899341D01*
X69680655Y53927289D01*
X69677857Y53930127D01*
X69677812Y53930182D01*
X69677761Y53930224D01*
X69676858Y53931140D01*
X64682112Y58925886D01*
X64682112Y64565208D01*
X64713710Y64565208D01*
X64713710Y61250722D01*
G36*
X117089240Y79514697D02*
X117251201Y79402131D01*
X117431942Y79323167D01*
X117624579Y79280813D01*
X117716952Y79278878D01*
X119033290Y77962541D01*
X119033290Y75512252D01*
X119023294Y75567630D01*
X118927839Y75810180D01*
X118905568Y75851849D01*
X118682467Y75918040D01*
X117968746Y75204320D01*
X118682467Y74490600D01*
X118905568Y74556791D01*
X119009580Y74795797D01*
X119033290Y74904833D01*
X119033290Y51215600D01*
X115618040Y47800350D01*
X115221611Y47800350D01*
X115210024Y47801527D01*
X115182362Y47798912D01*
X114908140Y47798912D01*
X114862635Y47795283D01*
X114785455Y47771382D01*
X114717989Y47726925D01*
X114665579Y47665432D01*
X114658169Y47648993D01*
X114623285Y47701931D01*
X114561792Y47754341D01*
X114488133Y47787544D01*
X114408140Y47798912D01*
X114137949Y47798912D01*
X114115616Y47801417D01*
X114114494Y47801425D01*
X114113793Y47801501D01*
X114113040Y47801435D01*
X114108080Y47801470D01*
X113608413Y47801470D01*
X113580883Y47868264D01*
X113441346Y48078284D01*
X113263673Y48257201D01*
X113054633Y48398200D01*
X112822186Y48495912D01*
X112645212Y48532239D01*
X112787577Y48557342D01*
X113022661Y48648525D01*
X113235557Y48783633D01*
X113418156Y48957520D01*
X113563502Y49163561D01*
X113666060Y49393911D01*
X113721923Y49639793D01*
X113725945Y49927794D01*
X113676969Y50175141D01*
X113580883Y50408264D01*
X113441346Y50618284D01*
X113263673Y50797201D01*
X113054633Y50938200D01*
X112822186Y51035912D01*
X112645212Y51072239D01*
X112787577Y51097342D01*
X113022661Y51188525D01*
X113235557Y51323633D01*
X113418156Y51497520D01*
X113563502Y51703561D01*
X113666060Y51933911D01*
X113721923Y52179793D01*
X113725945Y52467794D01*
X113676969Y52715141D01*
X113580883Y52948264D01*
X113441346Y53158284D01*
X113263673Y53337201D01*
X113054633Y53478200D01*
X112822186Y53575912D01*
X112645212Y53612239D01*
X112787577Y53637342D01*
X113022661Y53728525D01*
X113235557Y53863633D01*
X113418156Y54037520D01*
X113563502Y54243561D01*
X113666060Y54473911D01*
X113721923Y54719793D01*
X113725945Y55007794D01*
X113676969Y55255141D01*
X113580883Y55488264D01*
X113441346Y55698284D01*
X113263673Y55877201D01*
X113054633Y56018200D01*
X112822186Y56115912D01*
X112645212Y56152239D01*
X112787577Y56177342D01*
X113022661Y56268525D01*
X113235557Y56403633D01*
X113418156Y56577520D01*
X113563502Y56783561D01*
X113666060Y57013911D01*
X113721923Y57259793D01*
X113725945Y57547794D01*
X113676969Y57795141D01*
X113580883Y58028264D01*
X113441346Y58238284D01*
X113263673Y58417201D01*
X113054633Y58558200D01*
X112822186Y58655912D01*
X112645212Y58692239D01*
X112787577Y58717342D01*
X113022661Y58808525D01*
X113235557Y58943633D01*
X113418156Y59117520D01*
X113563502Y59323561D01*
X113666060Y59553911D01*
X113721923Y59799793D01*
X113725945Y60087794D01*
X113676969Y60335141D01*
X113580883Y60568264D01*
X113441346Y60778284D01*
X113263673Y60957201D01*
X113054633Y61098200D01*
X112822186Y61195912D01*
X112645212Y61232239D01*
X112787577Y61257342D01*
X113022661Y61348525D01*
X113235557Y61483633D01*
X113418156Y61657520D01*
X113563502Y61863561D01*
X113666060Y62093911D01*
X113721923Y62339793D01*
X113725945Y62627794D01*
X113676969Y62875141D01*
X113580883Y63108264D01*
X113441346Y63318284D01*
X113263673Y63497201D01*
X113054633Y63638200D01*
X112822186Y63735912D01*
X112645212Y63772239D01*
X112787577Y63797342D01*
X113022661Y63888525D01*
X113235557Y64023633D01*
X113418156Y64197520D01*
X113563502Y64403561D01*
X113666060Y64633911D01*
X113721923Y64879793D01*
X113725945Y65167794D01*
X113676969Y65415141D01*
X113580883Y65648264D01*
X113441346Y65858284D01*
X113263673Y66037201D01*
X113054633Y66178200D01*
X112822186Y66275912D01*
X112645212Y66312239D01*
X112787577Y66337342D01*
X113022661Y66428525D01*
X113235557Y66563633D01*
X113418156Y66737520D01*
X113563502Y66943561D01*
X113666060Y67173911D01*
X113721923Y67419793D01*
X113725945Y67707794D01*
X113676969Y67955141D01*
X113580883Y68188264D01*
X113441346Y68398284D01*
X113263673Y68577201D01*
X113054633Y68718200D01*
X112822186Y68815912D01*
X112645212Y68852239D01*
X112787577Y68877342D01*
X113022661Y68968525D01*
X113235557Y69103633D01*
X113418156Y69277520D01*
X113563502Y69483561D01*
X113666060Y69713911D01*
X113721923Y69959793D01*
X113725945Y70247794D01*
X113676969Y70495141D01*
X113580883Y70728264D01*
X113441346Y70938284D01*
X113263673Y71117201D01*
X113129936Y71207408D01*
X113143960Y71212590D01*
X113254026Y71271421D01*
X113354281Y71523073D01*
X112440140Y72437214D01*
X112425998Y72423071D01*
X112201492Y72647577D01*
X112215634Y72661720D01*
X112664646Y72661720D01*
X113578787Y71747579D01*
X113830439Y71847834D01*
X113962506Y72134707D01*
X114036070Y72441832D01*
X114048302Y72757408D01*
X113998734Y73069306D01*
X113889270Y73365540D01*
X113830439Y73475606D01*
X113578787Y73575861D01*
X112664646Y72661720D01*
X112215634Y72661720D01*
X112201492Y72675862D01*
X112425998Y72900368D01*
X112440140Y72886226D01*
X113354281Y73800367D01*
X113254026Y74052019D01*
X113123125Y74112282D01*
X113235557Y74183633D01*
X113322148Y74266093D01*
X117030520Y74266093D01*
X117096711Y74042992D01*
X117335717Y73938980D01*
X117590422Y73883594D01*
X117851038Y73878964D01*
X118107550Y73925266D01*
X118350100Y74020721D01*
X118391769Y74042992D01*
X118457960Y74266093D01*
X117744240Y74979814D01*
X117030520Y74266093D01*
X113322148Y74266093D01*
X113418156Y74357520D01*
X113563502Y74563561D01*
X113666060Y74793911D01*
X113721923Y75039793D01*
X113722729Y75097522D01*
X116418884Y75097522D01*
X116465186Y74841010D01*
X116560641Y74598460D01*
X116582912Y74556791D01*
X116806013Y74490600D01*
X117519734Y75204320D01*
X116806013Y75918040D01*
X116582912Y75851849D01*
X116478900Y75612843D01*
X116423514Y75358138D01*
X116418884Y75097522D01*
X113722729Y75097522D01*
X113725945Y75327794D01*
X113676969Y75575141D01*
X113580883Y75808264D01*
X113441346Y76018284D01*
X113317947Y76142547D01*
X117030520Y76142547D01*
X117744240Y75428826D01*
X118457960Y76142547D01*
X118391769Y76365648D01*
X118152763Y76469660D01*
X117898058Y76525046D01*
X117637442Y76529676D01*
X117380930Y76483374D01*
X117138380Y76387919D01*
X117096711Y76365648D01*
X117030520Y76142547D01*
X113317947Y76142547D01*
X113263673Y76197201D01*
X113054633Y76338200D01*
X112822186Y76435912D01*
X112645212Y76472239D01*
X112787577Y76497342D01*
X113022661Y76588525D01*
X113235557Y76723633D01*
X113418156Y76897520D01*
X113500373Y77014070D01*
X117051218Y77014070D01*
X117089240Y76974697D01*
X117251201Y76862131D01*
X117431942Y76783167D01*
X117624579Y76740813D01*
X117821773Y76736683D01*
X118016015Y76770932D01*
X118199904Y76842258D01*
X118366437Y76947944D01*
X118509271Y77083963D01*
X118622965Y77245134D01*
X118703189Y77425320D01*
X118746887Y77617656D01*
X118750033Y77842939D01*
X118711722Y78036420D01*
X118636561Y78218775D01*
X118527411Y78383059D01*
X118388431Y78523013D01*
X118224913Y78633307D01*
X118043087Y78709740D01*
X117849878Y78749400D01*
X117652645Y78750777D01*
X117458901Y78713818D01*
X117276026Y78639932D01*
X117110984Y78531931D01*
X117052409Y78474570D01*
X113496965Y78474570D01*
X113441346Y78558284D01*
X113263673Y78737201D01*
X113054633Y78878200D01*
X112822186Y78975912D01*
X112645212Y79012239D01*
X112787577Y79037342D01*
X113022661Y79128525D01*
X113235557Y79263633D01*
X113418156Y79437520D01*
X113498539Y79551470D01*
X117053729Y79551470D01*
X117089240Y79514697D01*
X117089240Y79514697D01*
G37*
X117089240Y79514697D02*
X117251201Y79402131D01*
X117431942Y79323167D01*
X117624579Y79280813D01*
X117716952Y79278878D01*
X119033290Y77962541D01*
X119033290Y75512252D01*
X119023294Y75567630D01*
X118927839Y75810180D01*
X118905568Y75851849D01*
X118682467Y75918040D01*
X117968746Y75204320D01*
X118682467Y74490600D01*
X118905568Y74556791D01*
X119009580Y74795797D01*
X119033290Y74904833D01*
X119033290Y51215600D01*
X115618040Y47800350D01*
X115221611Y47800350D01*
X115210024Y47801527D01*
X115182362Y47798912D01*
X114908140Y47798912D01*
X114862635Y47795283D01*
X114785455Y47771382D01*
X114717989Y47726925D01*
X114665579Y47665432D01*
X114658169Y47648993D01*
X114623285Y47701931D01*
X114561792Y47754341D01*
X114488133Y47787544D01*
X114408140Y47798912D01*
X114137949Y47798912D01*
X114115616Y47801417D01*
X114114494Y47801425D01*
X114113793Y47801501D01*
X114113040Y47801435D01*
X114108080Y47801470D01*
X113608413Y47801470D01*
X113580883Y47868264D01*
X113441346Y48078284D01*
X113263673Y48257201D01*
X113054633Y48398200D01*
X112822186Y48495912D01*
X112645212Y48532239D01*
X112787577Y48557342D01*
X113022661Y48648525D01*
X113235557Y48783633D01*
X113418156Y48957520D01*
X113563502Y49163561D01*
X113666060Y49393911D01*
X113721923Y49639793D01*
X113725945Y49927794D01*
X113676969Y50175141D01*
X113580883Y50408264D01*
X113441346Y50618284D01*
X113263673Y50797201D01*
X113054633Y50938200D01*
X112822186Y51035912D01*
X112645212Y51072239D01*
X112787577Y51097342D01*
X113022661Y51188525D01*
X113235557Y51323633D01*
X113418156Y51497520D01*
X113563502Y51703561D01*
X113666060Y51933911D01*
X113721923Y52179793D01*
X113725945Y52467794D01*
X113676969Y52715141D01*
X113580883Y52948264D01*
X113441346Y53158284D01*
X113263673Y53337201D01*
X113054633Y53478200D01*
X112822186Y53575912D01*
X112645212Y53612239D01*
X112787577Y53637342D01*
X113022661Y53728525D01*
X113235557Y53863633D01*
X113418156Y54037520D01*
X113563502Y54243561D01*
X113666060Y54473911D01*
X113721923Y54719793D01*
X113725945Y55007794D01*
X113676969Y55255141D01*
X113580883Y55488264D01*
X113441346Y55698284D01*
X113263673Y55877201D01*
X113054633Y56018200D01*
X112822186Y56115912D01*
X112645212Y56152239D01*
X112787577Y56177342D01*
X113022661Y56268525D01*
X113235557Y56403633D01*
X113418156Y56577520D01*
X113563502Y56783561D01*
X113666060Y57013911D01*
X113721923Y57259793D01*
X113725945Y57547794D01*
X113676969Y57795141D01*
X113580883Y58028264D01*
X113441346Y58238284D01*
X113263673Y58417201D01*
X113054633Y58558200D01*
X112822186Y58655912D01*
X112645212Y58692239D01*
X112787577Y58717342D01*
X113022661Y58808525D01*
X113235557Y58943633D01*
X113418156Y59117520D01*
X113563502Y59323561D01*
X113666060Y59553911D01*
X113721923Y59799793D01*
X113725945Y60087794D01*
X113676969Y60335141D01*
X113580883Y60568264D01*
X113441346Y60778284D01*
X113263673Y60957201D01*
X113054633Y61098200D01*
X112822186Y61195912D01*
X112645212Y61232239D01*
X112787577Y61257342D01*
X113022661Y61348525D01*
X113235557Y61483633D01*
X113418156Y61657520D01*
X113563502Y61863561D01*
X113666060Y62093911D01*
X113721923Y62339793D01*
X113725945Y62627794D01*
X113676969Y62875141D01*
X113580883Y63108264D01*
X113441346Y63318284D01*
X113263673Y63497201D01*
X113054633Y63638200D01*
X112822186Y63735912D01*
X112645212Y63772239D01*
X112787577Y63797342D01*
X113022661Y63888525D01*
X113235557Y64023633D01*
X113418156Y64197520D01*
X113563502Y64403561D01*
X113666060Y64633911D01*
X113721923Y64879793D01*
X113725945Y65167794D01*
X113676969Y65415141D01*
X113580883Y65648264D01*
X113441346Y65858284D01*
X113263673Y66037201D01*
X113054633Y66178200D01*
X112822186Y66275912D01*
X112645212Y66312239D01*
X112787577Y66337342D01*
X113022661Y66428525D01*
X113235557Y66563633D01*
X113418156Y66737520D01*
X113563502Y66943561D01*
X113666060Y67173911D01*
X113721923Y67419793D01*
X113725945Y67707794D01*
X113676969Y67955141D01*
X113580883Y68188264D01*
X113441346Y68398284D01*
X113263673Y68577201D01*
X113054633Y68718200D01*
X112822186Y68815912D01*
X112645212Y68852239D01*
X112787577Y68877342D01*
X113022661Y68968525D01*
X113235557Y69103633D01*
X113418156Y69277520D01*
X113563502Y69483561D01*
X113666060Y69713911D01*
X113721923Y69959793D01*
X113725945Y70247794D01*
X113676969Y70495141D01*
X113580883Y70728264D01*
X113441346Y70938284D01*
X113263673Y71117201D01*
X113129936Y71207408D01*
X113143960Y71212590D01*
X113254026Y71271421D01*
X113354281Y71523073D01*
X112440140Y72437214D01*
X112425998Y72423071D01*
X112201492Y72647577D01*
X112215634Y72661720D01*
X112664646Y72661720D01*
X113578787Y71747579D01*
X113830439Y71847834D01*
X113962506Y72134707D01*
X114036070Y72441832D01*
X114048302Y72757408D01*
X113998734Y73069306D01*
X113889270Y73365540D01*
X113830439Y73475606D01*
X113578787Y73575861D01*
X112664646Y72661720D01*
X112215634Y72661720D01*
X112201492Y72675862D01*
X112425998Y72900368D01*
X112440140Y72886226D01*
X113354281Y73800367D01*
X113254026Y74052019D01*
X113123125Y74112282D01*
X113235557Y74183633D01*
X113322148Y74266093D01*
X117030520Y74266093D01*
X117096711Y74042992D01*
X117335717Y73938980D01*
X117590422Y73883594D01*
X117851038Y73878964D01*
X118107550Y73925266D01*
X118350100Y74020721D01*
X118391769Y74042992D01*
X118457960Y74266093D01*
X117744240Y74979814D01*
X117030520Y74266093D01*
X113322148Y74266093D01*
X113418156Y74357520D01*
X113563502Y74563561D01*
X113666060Y74793911D01*
X113721923Y75039793D01*
X113722729Y75097522D01*
X116418884Y75097522D01*
X116465186Y74841010D01*
X116560641Y74598460D01*
X116582912Y74556791D01*
X116806013Y74490600D01*
X117519734Y75204320D01*
X116806013Y75918040D01*
X116582912Y75851849D01*
X116478900Y75612843D01*
X116423514Y75358138D01*
X116418884Y75097522D01*
X113722729Y75097522D01*
X113725945Y75327794D01*
X113676969Y75575141D01*
X113580883Y75808264D01*
X113441346Y76018284D01*
X113317947Y76142547D01*
X117030520Y76142547D01*
X117744240Y75428826D01*
X118457960Y76142547D01*
X118391769Y76365648D01*
X118152763Y76469660D01*
X117898058Y76525046D01*
X117637442Y76529676D01*
X117380930Y76483374D01*
X117138380Y76387919D01*
X117096711Y76365648D01*
X117030520Y76142547D01*
X113317947Y76142547D01*
X113263673Y76197201D01*
X113054633Y76338200D01*
X112822186Y76435912D01*
X112645212Y76472239D01*
X112787577Y76497342D01*
X113022661Y76588525D01*
X113235557Y76723633D01*
X113418156Y76897520D01*
X113500373Y77014070D01*
X117051218Y77014070D01*
X117089240Y76974697D01*
X117251201Y76862131D01*
X117431942Y76783167D01*
X117624579Y76740813D01*
X117821773Y76736683D01*
X118016015Y76770932D01*
X118199904Y76842258D01*
X118366437Y76947944D01*
X118509271Y77083963D01*
X118622965Y77245134D01*
X118703189Y77425320D01*
X118746887Y77617656D01*
X118750033Y77842939D01*
X118711722Y78036420D01*
X118636561Y78218775D01*
X118527411Y78383059D01*
X118388431Y78523013D01*
X118224913Y78633307D01*
X118043087Y78709740D01*
X117849878Y78749400D01*
X117652645Y78750777D01*
X117458901Y78713818D01*
X117276026Y78639932D01*
X117110984Y78531931D01*
X117052409Y78474570D01*
X113496965Y78474570D01*
X113441346Y78558284D01*
X113263673Y78737201D01*
X113054633Y78878200D01*
X112822186Y78975912D01*
X112645212Y79012239D01*
X112787577Y79037342D01*
X113022661Y79128525D01*
X113235557Y79263633D01*
X113418156Y79437520D01*
X113498539Y79551470D01*
X117053729Y79551470D01*
X117089240Y79514697D01*
G36*
X111296563Y52937501D02*
X111208645Y52732373D01*
X111156221Y52485735D01*
X111152700Y52233611D01*
X111198218Y51985605D01*
X111291040Y51751163D01*
X111427631Y51539215D01*
X111602788Y51357835D01*
X111809839Y51213930D01*
X112040899Y51112983D01*
X112231903Y51070988D01*
X112075363Y51041126D01*
X111842581Y50947075D01*
X100453398Y62336258D01*
X100425757Y62358962D01*
X100398340Y62381968D01*
X100396554Y62382950D01*
X100394981Y62384242D01*
X100363421Y62401165D01*
X100332093Y62418387D01*
X100330156Y62419002D01*
X100328357Y62419966D01*
X100294085Y62430444D01*
X100260035Y62441245D01*
X100258013Y62441472D01*
X100256063Y62442068D01*
X100220462Y62445684D01*
X100184908Y62449672D01*
X100180921Y62449700D01*
X100180852Y62449707D01*
X100180788Y62449701D01*
X100179500Y62449710D01*
X75022724Y62449710D01*
X75029541Y62459374D01*
X75087789Y62590202D01*
X75119517Y62729853D01*
X75120319Y62787297D01*
X77816101Y65483079D01*
X77847762Y65521624D01*
X77879795Y65559799D01*
X77881161Y65562284D01*
X77882964Y65564479D01*
X77906541Y65608450D01*
X77930543Y65652110D01*
X77931401Y65654813D01*
X77932743Y65657317D01*
X77947323Y65705008D01*
X77962395Y65752520D01*
X77962712Y65755342D01*
X77963541Y65758055D01*
X77968582Y65807677D01*
X77974137Y65857204D01*
X77974176Y65862748D01*
X77974187Y65862856D01*
X77974177Y65862957D01*
X77974190Y65864740D01*
X77974190Y70404581D01*
X77989910Y70419551D01*
X78072461Y70536574D01*
X78130709Y70667402D01*
X78162437Y70807053D01*
X78164721Y70970625D01*
X78136905Y71111107D01*
X78082332Y71243510D01*
X78060610Y71276204D01*
X92957860Y71276204D01*
X111296563Y52937501D01*
X111296563Y52937501D01*
G37*
X111296563Y52937501D02*
X111208645Y52732373D01*
X111156221Y52485735D01*
X111152700Y52233611D01*
X111198218Y51985605D01*
X111291040Y51751163D01*
X111427631Y51539215D01*
X111602788Y51357835D01*
X111809839Y51213930D01*
X112040899Y51112983D01*
X112231903Y51070988D01*
X112075363Y51041126D01*
X111842581Y50947075D01*
X100453398Y62336258D01*
X100425757Y62358962D01*
X100398340Y62381968D01*
X100396554Y62382950D01*
X100394981Y62384242D01*
X100363421Y62401165D01*
X100332093Y62418387D01*
X100330156Y62419002D01*
X100328357Y62419966D01*
X100294085Y62430444D01*
X100260035Y62441245D01*
X100258013Y62441472D01*
X100256063Y62442068D01*
X100220462Y62445684D01*
X100184908Y62449672D01*
X100180921Y62449700D01*
X100180852Y62449707D01*
X100180788Y62449701D01*
X100179500Y62449710D01*
X75022724Y62449710D01*
X75029541Y62459374D01*
X75087789Y62590202D01*
X75119517Y62729853D01*
X75120319Y62787297D01*
X77816101Y65483079D01*
X77847762Y65521624D01*
X77879795Y65559799D01*
X77881161Y65562284D01*
X77882964Y65564479D01*
X77906541Y65608450D01*
X77930543Y65652110D01*
X77931401Y65654813D01*
X77932743Y65657317D01*
X77947323Y65705008D01*
X77962395Y65752520D01*
X77962712Y65755342D01*
X77963541Y65758055D01*
X77968582Y65807677D01*
X77974137Y65857204D01*
X77974176Y65862748D01*
X77974187Y65862856D01*
X77974177Y65862957D01*
X77974190Y65864740D01*
X77974190Y70404581D01*
X77989910Y70419551D01*
X78072461Y70536574D01*
X78130709Y70667402D01*
X78162437Y70807053D01*
X78164721Y70970625D01*
X78136905Y71111107D01*
X78082332Y71243510D01*
X78060610Y71276204D01*
X92957860Y71276204D01*
X111296563Y52937501D01*
G36*
X111296563Y70717501D02*
X111208645Y70512373D01*
X111156221Y70265735D01*
X111152700Y70013611D01*
X111198218Y69765605D01*
X111291040Y69531163D01*
X111427631Y69319215D01*
X111602788Y69137835D01*
X111809839Y68993930D01*
X112040899Y68892983D01*
X112231903Y68850988D01*
X112075363Y68821126D01*
X111841575Y68726669D01*
X111630586Y68588602D01*
X111450433Y68412183D01*
X111307977Y68204132D01*
X111208645Y67972373D01*
X111156221Y67725735D01*
X111152700Y67473611D01*
X111198218Y67225605D01*
X111291040Y66991163D01*
X111427631Y66779215D01*
X111602788Y66597835D01*
X111809839Y66453930D01*
X112040899Y66352983D01*
X112231903Y66310988D01*
X112075363Y66281126D01*
X111841575Y66186669D01*
X111630586Y66048602D01*
X111450433Y65872183D01*
X111307977Y65664132D01*
X111208645Y65432373D01*
X111156221Y65185735D01*
X111152700Y64933611D01*
X111198218Y64685605D01*
X111291040Y64451163D01*
X111427631Y64239215D01*
X111602788Y64057835D01*
X111809839Y63913930D01*
X112040899Y63812983D01*
X112231903Y63770988D01*
X112075363Y63741126D01*
X111841575Y63646669D01*
X111630586Y63508602D01*
X111450433Y63332183D01*
X111307977Y63124132D01*
X111208645Y62892373D01*
X111156221Y62645735D01*
X111152700Y62393611D01*
X111198218Y62145605D01*
X111291040Y61911163D01*
X111427631Y61699215D01*
X111602788Y61517835D01*
X111809839Y61373930D01*
X112040899Y61272983D01*
X112231903Y61230988D01*
X112075363Y61201126D01*
X111841575Y61106669D01*
X111630586Y60968602D01*
X111450433Y60792183D01*
X111307977Y60584132D01*
X111208645Y60352373D01*
X111156221Y60105735D01*
X111152700Y59853611D01*
X111198218Y59605605D01*
X111291040Y59371163D01*
X111427631Y59159215D01*
X111602788Y58977835D01*
X111809839Y58833930D01*
X112040899Y58732983D01*
X112231903Y58690988D01*
X112075363Y58661126D01*
X111842581Y58567075D01*
X97952346Y72457310D01*
X109556754Y72457310D01*
X111296563Y70717501D01*
X111296563Y70717501D01*
G37*
X111296563Y70717501D02*
X111208645Y70512373D01*
X111156221Y70265735D01*
X111152700Y70013611D01*
X111198218Y69765605D01*
X111291040Y69531163D01*
X111427631Y69319215D01*
X111602788Y69137835D01*
X111809839Y68993930D01*
X112040899Y68892983D01*
X112231903Y68850988D01*
X112075363Y68821126D01*
X111841575Y68726669D01*
X111630586Y68588602D01*
X111450433Y68412183D01*
X111307977Y68204132D01*
X111208645Y67972373D01*
X111156221Y67725735D01*
X111152700Y67473611D01*
X111198218Y67225605D01*
X111291040Y66991163D01*
X111427631Y66779215D01*
X111602788Y66597835D01*
X111809839Y66453930D01*
X112040899Y66352983D01*
X112231903Y66310988D01*
X112075363Y66281126D01*
X111841575Y66186669D01*
X111630586Y66048602D01*
X111450433Y65872183D01*
X111307977Y65664132D01*
X111208645Y65432373D01*
X111156221Y65185735D01*
X111152700Y64933611D01*
X111198218Y64685605D01*
X111291040Y64451163D01*
X111427631Y64239215D01*
X111602788Y64057835D01*
X111809839Y63913930D01*
X112040899Y63812983D01*
X112231903Y63770988D01*
X112075363Y63741126D01*
X111841575Y63646669D01*
X111630586Y63508602D01*
X111450433Y63332183D01*
X111307977Y63124132D01*
X111208645Y62892373D01*
X111156221Y62645735D01*
X111152700Y62393611D01*
X111198218Y62145605D01*
X111291040Y61911163D01*
X111427631Y61699215D01*
X111602788Y61517835D01*
X111809839Y61373930D01*
X112040899Y61272983D01*
X112231903Y61230988D01*
X112075363Y61201126D01*
X111841575Y61106669D01*
X111630586Y60968602D01*
X111450433Y60792183D01*
X111307977Y60584132D01*
X111208645Y60352373D01*
X111156221Y60105735D01*
X111152700Y59853611D01*
X111198218Y59605605D01*
X111291040Y59371163D01*
X111427631Y59159215D01*
X111602788Y58977835D01*
X111809839Y58833930D01*
X112040899Y58732983D01*
X112231903Y58690988D01*
X112075363Y58661126D01*
X111842581Y58567075D01*
X97952346Y72457310D01*
X109556754Y72457310D01*
X111296563Y70717501D01*
G36*
X67113710Y71252340D02*
X67113928Y71250117D01*
X67113928Y70852340D01*
X67117557Y70806835D01*
X67141458Y70729655D01*
X67185915Y70662189D01*
X67247408Y70609779D01*
X67321067Y70576576D01*
X67401060Y70565208D01*
X67601060Y70565208D01*
X67646565Y70568837D01*
X67700904Y70585665D01*
X67721067Y70576576D01*
X67801060Y70565208D01*
X68001060Y70565208D01*
X68046565Y70568837D01*
X68100904Y70585665D01*
X68121067Y70576576D01*
X68201060Y70565208D01*
X68401060Y70565208D01*
X68446565Y70568837D01*
X68500904Y70585665D01*
X68521067Y70576576D01*
X68601060Y70565208D01*
X68801060Y70565208D01*
X68846565Y70568837D01*
X68900904Y70585665D01*
X68921067Y70576576D01*
X69001060Y70565208D01*
X69201060Y70565208D01*
X69215925Y70566393D01*
X69213928Y70552340D01*
X69213928Y70352340D01*
X69217557Y70306835D01*
X69234385Y70252496D01*
X69225296Y70232333D01*
X69213928Y70152340D01*
X69213928Y69952340D01*
X69217557Y69906835D01*
X69234385Y69852496D01*
X69225296Y69832333D01*
X69213928Y69752340D01*
X69213928Y69552340D01*
X69217557Y69506835D01*
X69234385Y69452496D01*
X69225296Y69432333D01*
X69213928Y69352340D01*
X69213928Y69152340D01*
X69217557Y69106835D01*
X69241458Y69029655D01*
X69285915Y68962189D01*
X69347408Y68909779D01*
X69421067Y68876576D01*
X69501060Y68865208D01*
X70301060Y68865208D01*
X70346565Y68868837D01*
X70423745Y68892738D01*
X70491211Y68937195D01*
X70543621Y68998688D01*
X70576824Y69072347D01*
X70588192Y69152340D01*
X70588192Y69352340D01*
X70584563Y69397845D01*
X70567735Y69452184D01*
X70576824Y69472347D01*
X70588192Y69552340D01*
X70588192Y69752340D01*
X70584563Y69797845D01*
X70567735Y69852184D01*
X70576824Y69872347D01*
X70588192Y69952340D01*
X70588192Y70152340D01*
X70584563Y70197845D01*
X70567735Y70252184D01*
X70576824Y70272347D01*
X70588192Y70352340D01*
X70588192Y70552340D01*
X70584563Y70597845D01*
X70560662Y70675025D01*
X70516205Y70742491D01*
X70454712Y70794901D01*
X70381053Y70828104D01*
X70301060Y70839472D01*
X70288410Y70839472D01*
X70288410Y71091374D01*
X70473240Y71276204D01*
X75703537Y71276204D01*
X75689061Y71255063D01*
X75632645Y71123434D01*
X75602870Y70983354D01*
X75600870Y70840159D01*
X75626723Y70699302D01*
X75679441Y70566149D01*
X75757019Y70445772D01*
X75792330Y70409207D01*
X75792330Y66294052D01*
X74592128Y65093850D01*
X72685072Y65093850D01*
X72659611Y65119490D01*
X72540885Y65199571D01*
X72408866Y65255067D01*
X72268581Y65283863D01*
X72125375Y65284863D01*
X71984703Y65258028D01*
X71851921Y65204381D01*
X71814690Y65180018D01*
X71814690Y65448180D01*
X71811200Y65483779D01*
X71808080Y65519434D01*
X71807512Y65521390D01*
X71807313Y65523417D01*
X71796968Y65557683D01*
X71786989Y65592029D01*
X71786052Y65593836D01*
X71785463Y65595788D01*
X71768648Y65627412D01*
X71752199Y65659145D01*
X71750929Y65660735D01*
X71749972Y65662536D01*
X71727346Y65690279D01*
X71705035Y65718227D01*
X71702237Y65721065D01*
X71702192Y65721120D01*
X71702141Y65721162D01*
X71701238Y65722078D01*
X71199701Y66223615D01*
X71258860Y66215208D01*
X73058860Y66215208D01*
X73104365Y66218837D01*
X73181545Y66242738D01*
X73249011Y66287195D01*
X73301421Y66348688D01*
X73334624Y66422347D01*
X73345992Y66502340D01*
X73345992Y67502340D01*
X73342363Y67547845D01*
X73318462Y67625025D01*
X73274005Y67692491D01*
X73212512Y67744901D01*
X73138853Y67778104D01*
X73058860Y67789472D01*
X71919524Y67789472D01*
X71456656Y68252340D01*
X71919524Y68715208D01*
X73058860Y68715208D01*
X73104365Y68718837D01*
X73181545Y68742738D01*
X73249011Y68787195D01*
X73301421Y68848688D01*
X73334624Y68922347D01*
X73345992Y69002340D01*
X73345992Y70002340D01*
X73342363Y70047845D01*
X73318462Y70125025D01*
X73274005Y70192491D01*
X73212512Y70244901D01*
X73138853Y70278104D01*
X73058860Y70289472D01*
X71258860Y70289472D01*
X71213355Y70285843D01*
X71136175Y70261942D01*
X71068709Y70217485D01*
X71016299Y70155992D01*
X70983096Y70082333D01*
X70971728Y70002340D01*
X70971728Y69002340D01*
X70975357Y68956835D01*
X70996686Y68887962D01*
X70948414Y68839690D01*
X69901060Y68839690D01*
X69898837Y68839472D01*
X69501060Y68839472D01*
X69455555Y68835843D01*
X69378375Y68811942D01*
X69310909Y68767485D01*
X69258499Y68705992D01*
X69225296Y68632333D01*
X69213928Y68552340D01*
X69213928Y68352340D01*
X69217557Y68306835D01*
X69234385Y68252496D01*
X69225296Y68232333D01*
X69213928Y68152340D01*
X69213928Y67952340D01*
X69217557Y67906835D01*
X69234385Y67852496D01*
X69225296Y67832333D01*
X69213928Y67752340D01*
X69213928Y67552340D01*
X69217557Y67506835D01*
X69234385Y67452496D01*
X69225296Y67432333D01*
X69213928Y67352340D01*
X69213928Y67152340D01*
X69217557Y67106835D01*
X69234385Y67052496D01*
X69225296Y67032333D01*
X69213928Y66952340D01*
X69213928Y66752340D01*
X69217557Y66706835D01*
X69234385Y66652496D01*
X69225296Y66632333D01*
X69213928Y66552340D01*
X69213928Y66352340D01*
X69217557Y66306835D01*
X69234385Y66252496D01*
X69225296Y66232333D01*
X69213928Y66152340D01*
X69213928Y65952340D01*
X69215113Y65937475D01*
X69201060Y65939472D01*
X69001060Y65939472D01*
X68955555Y65935843D01*
X68901216Y65919015D01*
X68881053Y65928104D01*
X68801060Y65939472D01*
X68601060Y65939472D01*
X68555555Y65935843D01*
X68501216Y65919015D01*
X68481053Y65928104D01*
X68401060Y65939472D01*
X68201060Y65939472D01*
X68155555Y65935843D01*
X68101216Y65919015D01*
X68081053Y65928104D01*
X68001060Y65939472D01*
X67801060Y65939472D01*
X67755555Y65935843D01*
X67701216Y65919015D01*
X67681053Y65928104D01*
X67601060Y65939472D01*
X67401060Y65939472D01*
X67355555Y65935843D01*
X67301216Y65919015D01*
X67281053Y65928104D01*
X67201060Y65939472D01*
X67001060Y65939472D01*
X66955555Y65935843D01*
X66901216Y65919015D01*
X66881053Y65928104D01*
X66801060Y65939472D01*
X66601060Y65939472D01*
X66555555Y65935843D01*
X66501216Y65919015D01*
X66481053Y65928104D01*
X66401060Y65939472D01*
X66201060Y65939472D01*
X66155555Y65935843D01*
X66101216Y65919015D01*
X66081053Y65928104D01*
X66001060Y65939472D01*
X65801060Y65939472D01*
X65755555Y65935843D01*
X65701216Y65919015D01*
X65681053Y65928104D01*
X65601060Y65939472D01*
X65401060Y65939472D01*
X65355555Y65935843D01*
X65301216Y65919015D01*
X65281053Y65928104D01*
X65201060Y65939472D01*
X65001060Y65939472D01*
X64955555Y65935843D01*
X64901216Y65919015D01*
X64881053Y65928104D01*
X64801060Y65939472D01*
X64601060Y65939472D01*
X64586195Y65938287D01*
X64588192Y65952340D01*
X64588192Y66152340D01*
X64584563Y66197845D01*
X64567735Y66252184D01*
X64576824Y66272347D01*
X64588192Y66352340D01*
X64588192Y66552340D01*
X64584563Y66597845D01*
X64567735Y66652184D01*
X64576824Y66672347D01*
X64588192Y66752340D01*
X64588192Y66952340D01*
X64584563Y66997845D01*
X64567735Y67052184D01*
X64576824Y67072347D01*
X64588192Y67152340D01*
X64588192Y67352340D01*
X64584563Y67397845D01*
X64567735Y67452184D01*
X64576824Y67472347D01*
X64588192Y67552340D01*
X64588192Y67752340D01*
X64584563Y67797845D01*
X64567735Y67852184D01*
X64576824Y67872347D01*
X64588192Y67952340D01*
X64588192Y68152340D01*
X64584563Y68197845D01*
X64567735Y68252184D01*
X64576824Y68272347D01*
X64588192Y68352340D01*
X64588192Y68552340D01*
X64584563Y68597845D01*
X64567735Y68652184D01*
X64576824Y68672347D01*
X64588192Y68752340D01*
X64588192Y68952340D01*
X64584563Y68997845D01*
X64567735Y69052184D01*
X64576824Y69072347D01*
X64588192Y69152340D01*
X64588192Y69352340D01*
X64584563Y69397845D01*
X64567735Y69452184D01*
X64576824Y69472347D01*
X64588192Y69552340D01*
X64588192Y69752340D01*
X64584563Y69797845D01*
X64567735Y69852184D01*
X64576824Y69872347D01*
X64588192Y69952340D01*
X64588192Y70152340D01*
X64584563Y70197845D01*
X64567735Y70252184D01*
X64576824Y70272347D01*
X64588192Y70352340D01*
X64588192Y70552340D01*
X64587007Y70567205D01*
X64601060Y70565208D01*
X64801060Y70565208D01*
X64846565Y70568837D01*
X64900904Y70585665D01*
X64921067Y70576576D01*
X65001060Y70565208D01*
X65201060Y70565208D01*
X65246565Y70568837D01*
X65300904Y70585665D01*
X65321067Y70576576D01*
X65401060Y70565208D01*
X65601060Y70565208D01*
X65646565Y70568837D01*
X65700904Y70585665D01*
X65721067Y70576576D01*
X65801060Y70565208D01*
X66001060Y70565208D01*
X66046565Y70568837D01*
X66100904Y70585665D01*
X66121067Y70576576D01*
X66201060Y70565208D01*
X66401060Y70565208D01*
X66446565Y70568837D01*
X66523745Y70592738D01*
X66591211Y70637195D01*
X66643621Y70698688D01*
X66676824Y70772347D01*
X66688192Y70852340D01*
X66688192Y71245327D01*
X66688372Y71246932D01*
X66688410Y71252340D01*
X66688410Y71896254D01*
X67113710Y72321554D01*
X67113710Y71252340D01*
X67113710Y71252340D01*
G37*
X67113710Y71252340D02*
X67113928Y71250117D01*
X67113928Y70852340D01*
X67117557Y70806835D01*
X67141458Y70729655D01*
X67185915Y70662189D01*
X67247408Y70609779D01*
X67321067Y70576576D01*
X67401060Y70565208D01*
X67601060Y70565208D01*
X67646565Y70568837D01*
X67700904Y70585665D01*
X67721067Y70576576D01*
X67801060Y70565208D01*
X68001060Y70565208D01*
X68046565Y70568837D01*
X68100904Y70585665D01*
X68121067Y70576576D01*
X68201060Y70565208D01*
X68401060Y70565208D01*
X68446565Y70568837D01*
X68500904Y70585665D01*
X68521067Y70576576D01*
X68601060Y70565208D01*
X68801060Y70565208D01*
X68846565Y70568837D01*
X68900904Y70585665D01*
X68921067Y70576576D01*
X69001060Y70565208D01*
X69201060Y70565208D01*
X69215925Y70566393D01*
X69213928Y70552340D01*
X69213928Y70352340D01*
X69217557Y70306835D01*
X69234385Y70252496D01*
X69225296Y70232333D01*
X69213928Y70152340D01*
X69213928Y69952340D01*
X69217557Y69906835D01*
X69234385Y69852496D01*
X69225296Y69832333D01*
X69213928Y69752340D01*
X69213928Y69552340D01*
X69217557Y69506835D01*
X69234385Y69452496D01*
X69225296Y69432333D01*
X69213928Y69352340D01*
X69213928Y69152340D01*
X69217557Y69106835D01*
X69241458Y69029655D01*
X69285915Y68962189D01*
X69347408Y68909779D01*
X69421067Y68876576D01*
X69501060Y68865208D01*
X70301060Y68865208D01*
X70346565Y68868837D01*
X70423745Y68892738D01*
X70491211Y68937195D01*
X70543621Y68998688D01*
X70576824Y69072347D01*
X70588192Y69152340D01*
X70588192Y69352340D01*
X70584563Y69397845D01*
X70567735Y69452184D01*
X70576824Y69472347D01*
X70588192Y69552340D01*
X70588192Y69752340D01*
X70584563Y69797845D01*
X70567735Y69852184D01*
X70576824Y69872347D01*
X70588192Y69952340D01*
X70588192Y70152340D01*
X70584563Y70197845D01*
X70567735Y70252184D01*
X70576824Y70272347D01*
X70588192Y70352340D01*
X70588192Y70552340D01*
X70584563Y70597845D01*
X70560662Y70675025D01*
X70516205Y70742491D01*
X70454712Y70794901D01*
X70381053Y70828104D01*
X70301060Y70839472D01*
X70288410Y70839472D01*
X70288410Y71091374D01*
X70473240Y71276204D01*
X75703537Y71276204D01*
X75689061Y71255063D01*
X75632645Y71123434D01*
X75602870Y70983354D01*
X75600870Y70840159D01*
X75626723Y70699302D01*
X75679441Y70566149D01*
X75757019Y70445772D01*
X75792330Y70409207D01*
X75792330Y66294052D01*
X74592128Y65093850D01*
X72685072Y65093850D01*
X72659611Y65119490D01*
X72540885Y65199571D01*
X72408866Y65255067D01*
X72268581Y65283863D01*
X72125375Y65284863D01*
X71984703Y65258028D01*
X71851921Y65204381D01*
X71814690Y65180018D01*
X71814690Y65448180D01*
X71811200Y65483779D01*
X71808080Y65519434D01*
X71807512Y65521390D01*
X71807313Y65523417D01*
X71796968Y65557683D01*
X71786989Y65592029D01*
X71786052Y65593836D01*
X71785463Y65595788D01*
X71768648Y65627412D01*
X71752199Y65659145D01*
X71750929Y65660735D01*
X71749972Y65662536D01*
X71727346Y65690279D01*
X71705035Y65718227D01*
X71702237Y65721065D01*
X71702192Y65721120D01*
X71702141Y65721162D01*
X71701238Y65722078D01*
X71199701Y66223615D01*
X71258860Y66215208D01*
X73058860Y66215208D01*
X73104365Y66218837D01*
X73181545Y66242738D01*
X73249011Y66287195D01*
X73301421Y66348688D01*
X73334624Y66422347D01*
X73345992Y66502340D01*
X73345992Y67502340D01*
X73342363Y67547845D01*
X73318462Y67625025D01*
X73274005Y67692491D01*
X73212512Y67744901D01*
X73138853Y67778104D01*
X73058860Y67789472D01*
X71919524Y67789472D01*
X71456656Y68252340D01*
X71919524Y68715208D01*
X73058860Y68715208D01*
X73104365Y68718837D01*
X73181545Y68742738D01*
X73249011Y68787195D01*
X73301421Y68848688D01*
X73334624Y68922347D01*
X73345992Y69002340D01*
X73345992Y70002340D01*
X73342363Y70047845D01*
X73318462Y70125025D01*
X73274005Y70192491D01*
X73212512Y70244901D01*
X73138853Y70278104D01*
X73058860Y70289472D01*
X71258860Y70289472D01*
X71213355Y70285843D01*
X71136175Y70261942D01*
X71068709Y70217485D01*
X71016299Y70155992D01*
X70983096Y70082333D01*
X70971728Y70002340D01*
X70971728Y69002340D01*
X70975357Y68956835D01*
X70996686Y68887962D01*
X70948414Y68839690D01*
X69901060Y68839690D01*
X69898837Y68839472D01*
X69501060Y68839472D01*
X69455555Y68835843D01*
X69378375Y68811942D01*
X69310909Y68767485D01*
X69258499Y68705992D01*
X69225296Y68632333D01*
X69213928Y68552340D01*
X69213928Y68352340D01*
X69217557Y68306835D01*
X69234385Y68252496D01*
X69225296Y68232333D01*
X69213928Y68152340D01*
X69213928Y67952340D01*
X69217557Y67906835D01*
X69234385Y67852496D01*
X69225296Y67832333D01*
X69213928Y67752340D01*
X69213928Y67552340D01*
X69217557Y67506835D01*
X69234385Y67452496D01*
X69225296Y67432333D01*
X69213928Y67352340D01*
X69213928Y67152340D01*
X69217557Y67106835D01*
X69234385Y67052496D01*
X69225296Y67032333D01*
X69213928Y66952340D01*
X69213928Y66752340D01*
X69217557Y66706835D01*
X69234385Y66652496D01*
X69225296Y66632333D01*
X69213928Y66552340D01*
X69213928Y66352340D01*
X69217557Y66306835D01*
X69234385Y66252496D01*
X69225296Y66232333D01*
X69213928Y66152340D01*
X69213928Y65952340D01*
X69215113Y65937475D01*
X69201060Y65939472D01*
X69001060Y65939472D01*
X68955555Y65935843D01*
X68901216Y65919015D01*
X68881053Y65928104D01*
X68801060Y65939472D01*
X68601060Y65939472D01*
X68555555Y65935843D01*
X68501216Y65919015D01*
X68481053Y65928104D01*
X68401060Y65939472D01*
X68201060Y65939472D01*
X68155555Y65935843D01*
X68101216Y65919015D01*
X68081053Y65928104D01*
X68001060Y65939472D01*
X67801060Y65939472D01*
X67755555Y65935843D01*
X67701216Y65919015D01*
X67681053Y65928104D01*
X67601060Y65939472D01*
X67401060Y65939472D01*
X67355555Y65935843D01*
X67301216Y65919015D01*
X67281053Y65928104D01*
X67201060Y65939472D01*
X67001060Y65939472D01*
X66955555Y65935843D01*
X66901216Y65919015D01*
X66881053Y65928104D01*
X66801060Y65939472D01*
X66601060Y65939472D01*
X66555555Y65935843D01*
X66501216Y65919015D01*
X66481053Y65928104D01*
X66401060Y65939472D01*
X66201060Y65939472D01*
X66155555Y65935843D01*
X66101216Y65919015D01*
X66081053Y65928104D01*
X66001060Y65939472D01*
X65801060Y65939472D01*
X65755555Y65935843D01*
X65701216Y65919015D01*
X65681053Y65928104D01*
X65601060Y65939472D01*
X65401060Y65939472D01*
X65355555Y65935843D01*
X65301216Y65919015D01*
X65281053Y65928104D01*
X65201060Y65939472D01*
X65001060Y65939472D01*
X64955555Y65935843D01*
X64901216Y65919015D01*
X64881053Y65928104D01*
X64801060Y65939472D01*
X64601060Y65939472D01*
X64586195Y65938287D01*
X64588192Y65952340D01*
X64588192Y66152340D01*
X64584563Y66197845D01*
X64567735Y66252184D01*
X64576824Y66272347D01*
X64588192Y66352340D01*
X64588192Y66552340D01*
X64584563Y66597845D01*
X64567735Y66652184D01*
X64576824Y66672347D01*
X64588192Y66752340D01*
X64588192Y66952340D01*
X64584563Y66997845D01*
X64567735Y67052184D01*
X64576824Y67072347D01*
X64588192Y67152340D01*
X64588192Y67352340D01*
X64584563Y67397845D01*
X64567735Y67452184D01*
X64576824Y67472347D01*
X64588192Y67552340D01*
X64588192Y67752340D01*
X64584563Y67797845D01*
X64567735Y67852184D01*
X64576824Y67872347D01*
X64588192Y67952340D01*
X64588192Y68152340D01*
X64584563Y68197845D01*
X64567735Y68252184D01*
X64576824Y68272347D01*
X64588192Y68352340D01*
X64588192Y68552340D01*
X64584563Y68597845D01*
X64567735Y68652184D01*
X64576824Y68672347D01*
X64588192Y68752340D01*
X64588192Y68952340D01*
X64584563Y68997845D01*
X64567735Y69052184D01*
X64576824Y69072347D01*
X64588192Y69152340D01*
X64588192Y69352340D01*
X64584563Y69397845D01*
X64567735Y69452184D01*
X64576824Y69472347D01*
X64588192Y69552340D01*
X64588192Y69752340D01*
X64584563Y69797845D01*
X64567735Y69852184D01*
X64576824Y69872347D01*
X64588192Y69952340D01*
X64588192Y70152340D01*
X64584563Y70197845D01*
X64567735Y70252184D01*
X64576824Y70272347D01*
X64588192Y70352340D01*
X64588192Y70552340D01*
X64587007Y70567205D01*
X64601060Y70565208D01*
X64801060Y70565208D01*
X64846565Y70568837D01*
X64900904Y70585665D01*
X64921067Y70576576D01*
X65001060Y70565208D01*
X65201060Y70565208D01*
X65246565Y70568837D01*
X65300904Y70585665D01*
X65321067Y70576576D01*
X65401060Y70565208D01*
X65601060Y70565208D01*
X65646565Y70568837D01*
X65700904Y70585665D01*
X65721067Y70576576D01*
X65801060Y70565208D01*
X66001060Y70565208D01*
X66046565Y70568837D01*
X66100904Y70585665D01*
X66121067Y70576576D01*
X66201060Y70565208D01*
X66401060Y70565208D01*
X66446565Y70568837D01*
X66523745Y70592738D01*
X66591211Y70637195D01*
X66643621Y70698688D01*
X66676824Y70772347D01*
X66688192Y70852340D01*
X66688192Y71245327D01*
X66688372Y71246932D01*
X66688410Y71252340D01*
X66688410Y71896254D01*
X67113710Y72321554D01*
X67113710Y71252340D01*
G36*
X75601273Y73967845D02*
X75600870Y73938959D01*
X75626723Y73798102D01*
X75679441Y73664949D01*
X75704728Y73625712D01*
X68061324Y73625712D01*
X68025725Y73622222D01*
X67990070Y73619102D01*
X67988114Y73618534D01*
X67986087Y73618335D01*
X67951835Y73607994D01*
X67917474Y73598011D01*
X67915666Y73597074D01*
X67913716Y73596485D01*
X67882110Y73579680D01*
X67850359Y73563221D01*
X67848769Y73561951D01*
X67846968Y73560994D01*
X67819225Y73538368D01*
X67791277Y73516057D01*
X67788439Y73513259D01*
X67788384Y73513214D01*
X67788342Y73513163D01*
X67787426Y73512260D01*
X67659250Y73384084D01*
X67659250Y73427094D01*
X68170206Y73938050D01*
X68199817Y73972792D01*
X68237491Y74044268D01*
X68253761Y74123410D01*
X68247338Y74203951D01*
X68218731Y74279514D01*
X68170206Y74344116D01*
X68110237Y74404085D01*
X68110291Y74404074D01*
X68190832Y74410497D01*
X68266395Y74439104D01*
X68330997Y74487629D01*
X68684551Y74841183D01*
X68714162Y74875925D01*
X68751836Y74947401D01*
X68768106Y75026543D01*
X68761683Y75107084D01*
X68733076Y75182647D01*
X68684551Y75247249D01*
X68260287Y75671513D01*
X68225545Y75701124D01*
X68154069Y75738798D01*
X68074927Y75755068D01*
X67994386Y75748645D01*
X67918823Y75720038D01*
X67854221Y75671513D01*
X67500667Y75317959D01*
X67471056Y75283217D01*
X67433382Y75211741D01*
X67417112Y75132599D01*
X67420179Y75094143D01*
X67357033Y75157289D01*
X67322291Y75186900D01*
X67250815Y75224574D01*
X67171673Y75240844D01*
X67091132Y75234421D01*
X67015569Y75205814D01*
X66950967Y75157289D01*
X66243860Y74450182D01*
X66214249Y74415440D01*
X66176575Y74343964D01*
X66160305Y74264822D01*
X66166728Y74184281D01*
X66195335Y74108718D01*
X66243860Y74044116D01*
X66884550Y73403426D01*
X66884550Y73187986D01*
X66179347Y72482783D01*
X66178755Y72483525D01*
X66175957Y72486363D01*
X66175912Y72486418D01*
X66175861Y72486460D01*
X66174958Y72487376D01*
X65366997Y73295337D01*
X65366997Y73609715D01*
X65942820Y74185538D01*
X65972431Y74220280D01*
X66010105Y74291756D01*
X66026375Y74370898D01*
X66019952Y74451439D01*
X65991345Y74527002D01*
X65942820Y74591604D01*
X65129647Y75404777D01*
X65094905Y75434388D01*
X65023429Y75472062D01*
X64944287Y75488332D01*
X64863746Y75481909D01*
X64788183Y75453302D01*
X64746931Y75422316D01*
X64745365Y75441954D01*
X64716758Y75517517D01*
X64668233Y75582119D01*
X64314679Y75935673D01*
X64279937Y75965284D01*
X64208461Y76002958D01*
X64129319Y76019228D01*
X64048778Y76012805D01*
X63973215Y75984198D01*
X63908613Y75935673D01*
X63484349Y75511409D01*
X63454738Y75476667D01*
X63417064Y75405191D01*
X63400794Y75326049D01*
X63407217Y75245508D01*
X63435824Y75169945D01*
X63484349Y75105343D01*
X63837903Y74751789D01*
X63872645Y74722178D01*
X63944121Y74684504D01*
X63996138Y74673810D01*
X63986863Y74662928D01*
X63949189Y74591452D01*
X63932919Y74512310D01*
X63939342Y74431769D01*
X63967949Y74356206D01*
X64016474Y74291604D01*
X64592297Y73715781D01*
X64592297Y73134891D01*
X64595787Y73099292D01*
X64598907Y73063637D01*
X64599475Y73061681D01*
X64599674Y73059654D01*
X64610015Y73025402D01*
X64619998Y72991041D01*
X64620935Y72989233D01*
X64621524Y72987283D01*
X64638329Y72955677D01*
X64654788Y72923926D01*
X64656058Y72922336D01*
X64657015Y72920535D01*
X64679641Y72892792D01*
X64701952Y72864844D01*
X64704750Y72862006D01*
X64704795Y72861951D01*
X64704846Y72861909D01*
X64705749Y72860993D01*
X65513710Y72053032D01*
X65513710Y71939472D01*
X65401060Y71939472D01*
X65355555Y71935843D01*
X65301216Y71919015D01*
X65281053Y71928104D01*
X65201060Y71939472D01*
X65001060Y71939472D01*
X64955555Y71935843D01*
X64901216Y71919015D01*
X64881053Y71928104D01*
X64801060Y71939472D01*
X64601060Y71939472D01*
X64555555Y71935843D01*
X64478375Y71911942D01*
X64410909Y71867485D01*
X64358499Y71805992D01*
X64325296Y71732333D01*
X64313928Y71652340D01*
X64313928Y71639690D01*
X63898946Y71639690D01*
X63617515Y71921121D01*
X63618134Y71965405D01*
X63597574Y72069240D01*
X63557237Y72167104D01*
X63498660Y72255269D01*
X63424075Y72330377D01*
X63336320Y72389568D01*
X63238741Y72430587D01*
X63214250Y72435614D01*
X63214250Y77487728D01*
X64917372Y79190850D01*
X70378268Y79190850D01*
X75601273Y73967845D01*
X75601273Y73967845D01*
G37*
X75601273Y73967845D02*
X75600870Y73938959D01*
X75626723Y73798102D01*
X75679441Y73664949D01*
X75704728Y73625712D01*
X68061324Y73625712D01*
X68025725Y73622222D01*
X67990070Y73619102D01*
X67988114Y73618534D01*
X67986087Y73618335D01*
X67951835Y73607994D01*
X67917474Y73598011D01*
X67915666Y73597074D01*
X67913716Y73596485D01*
X67882110Y73579680D01*
X67850359Y73563221D01*
X67848769Y73561951D01*
X67846968Y73560994D01*
X67819225Y73538368D01*
X67791277Y73516057D01*
X67788439Y73513259D01*
X67788384Y73513214D01*
X67788342Y73513163D01*
X67787426Y73512260D01*
X67659250Y73384084D01*
X67659250Y73427094D01*
X68170206Y73938050D01*
X68199817Y73972792D01*
X68237491Y74044268D01*
X68253761Y74123410D01*
X68247338Y74203951D01*
X68218731Y74279514D01*
X68170206Y74344116D01*
X68110237Y74404085D01*
X68110291Y74404074D01*
X68190832Y74410497D01*
X68266395Y74439104D01*
X68330997Y74487629D01*
X68684551Y74841183D01*
X68714162Y74875925D01*
X68751836Y74947401D01*
X68768106Y75026543D01*
X68761683Y75107084D01*
X68733076Y75182647D01*
X68684551Y75247249D01*
X68260287Y75671513D01*
X68225545Y75701124D01*
X68154069Y75738798D01*
X68074927Y75755068D01*
X67994386Y75748645D01*
X67918823Y75720038D01*
X67854221Y75671513D01*
X67500667Y75317959D01*
X67471056Y75283217D01*
X67433382Y75211741D01*
X67417112Y75132599D01*
X67420179Y75094143D01*
X67357033Y75157289D01*
X67322291Y75186900D01*
X67250815Y75224574D01*
X67171673Y75240844D01*
X67091132Y75234421D01*
X67015569Y75205814D01*
X66950967Y75157289D01*
X66243860Y74450182D01*
X66214249Y74415440D01*
X66176575Y74343964D01*
X66160305Y74264822D01*
X66166728Y74184281D01*
X66195335Y74108718D01*
X66243860Y74044116D01*
X66884550Y73403426D01*
X66884550Y73187986D01*
X66179347Y72482783D01*
X66178755Y72483525D01*
X66175957Y72486363D01*
X66175912Y72486418D01*
X66175861Y72486460D01*
X66174958Y72487376D01*
X65366997Y73295337D01*
X65366997Y73609715D01*
X65942820Y74185538D01*
X65972431Y74220280D01*
X66010105Y74291756D01*
X66026375Y74370898D01*
X66019952Y74451439D01*
X65991345Y74527002D01*
X65942820Y74591604D01*
X65129647Y75404777D01*
X65094905Y75434388D01*
X65023429Y75472062D01*
X64944287Y75488332D01*
X64863746Y75481909D01*
X64788183Y75453302D01*
X64746931Y75422316D01*
X64745365Y75441954D01*
X64716758Y75517517D01*
X64668233Y75582119D01*
X64314679Y75935673D01*
X64279937Y75965284D01*
X64208461Y76002958D01*
X64129319Y76019228D01*
X64048778Y76012805D01*
X63973215Y75984198D01*
X63908613Y75935673D01*
X63484349Y75511409D01*
X63454738Y75476667D01*
X63417064Y75405191D01*
X63400794Y75326049D01*
X63407217Y75245508D01*
X63435824Y75169945D01*
X63484349Y75105343D01*
X63837903Y74751789D01*
X63872645Y74722178D01*
X63944121Y74684504D01*
X63996138Y74673810D01*
X63986863Y74662928D01*
X63949189Y74591452D01*
X63932919Y74512310D01*
X63939342Y74431769D01*
X63967949Y74356206D01*
X64016474Y74291604D01*
X64592297Y73715781D01*
X64592297Y73134891D01*
X64595787Y73099292D01*
X64598907Y73063637D01*
X64599475Y73061681D01*
X64599674Y73059654D01*
X64610015Y73025402D01*
X64619998Y72991041D01*
X64620935Y72989233D01*
X64621524Y72987283D01*
X64638329Y72955677D01*
X64654788Y72923926D01*
X64656058Y72922336D01*
X64657015Y72920535D01*
X64679641Y72892792D01*
X64701952Y72864844D01*
X64704750Y72862006D01*
X64704795Y72861951D01*
X64704846Y72861909D01*
X64705749Y72860993D01*
X65513710Y72053032D01*
X65513710Y71939472D01*
X65401060Y71939472D01*
X65355555Y71935843D01*
X65301216Y71919015D01*
X65281053Y71928104D01*
X65201060Y71939472D01*
X65001060Y71939472D01*
X64955555Y71935843D01*
X64901216Y71919015D01*
X64881053Y71928104D01*
X64801060Y71939472D01*
X64601060Y71939472D01*
X64555555Y71935843D01*
X64478375Y71911942D01*
X64410909Y71867485D01*
X64358499Y71805992D01*
X64325296Y71732333D01*
X64313928Y71652340D01*
X64313928Y71639690D01*
X63898946Y71639690D01*
X63617515Y71921121D01*
X63618134Y71965405D01*
X63597574Y72069240D01*
X63557237Y72167104D01*
X63498660Y72255269D01*
X63424075Y72330377D01*
X63336320Y72389568D01*
X63238741Y72430587D01*
X63214250Y72435614D01*
X63214250Y77487728D01*
X64917372Y79190850D01*
X70378268Y79190850D01*
X75601273Y73967845D01*
G36*
X120374410Y78664707D02*
X120373585Y78665740D01*
X120371781Y78669134D01*
X120329136Y78721421D01*
X120287064Y78774125D01*
X120281794Y78779468D01*
X120281704Y78779579D01*
X120281601Y78779664D01*
X120279904Y78781385D01*
X118749046Y80312244D01*
X118750033Y80382939D01*
X118711722Y80576420D01*
X118636561Y80758775D01*
X118527411Y80923059D01*
X118474490Y80976351D01*
X118474490Y83342368D01*
X118506240Y83342368D01*
X118551745Y83345997D01*
X118628925Y83369898D01*
X118696391Y83414355D01*
X118748801Y83475848D01*
X118782004Y83549507D01*
X118793372Y83629500D01*
X118793372Y85153500D01*
X118789743Y85199005D01*
X118765842Y85276185D01*
X118721385Y85343651D01*
X118659892Y85396061D01*
X118586233Y85429264D01*
X118506240Y85440632D01*
X116982240Y85440632D01*
X116936735Y85437003D01*
X116859555Y85413102D01*
X116792089Y85368645D01*
X116739679Y85307152D01*
X116706476Y85233493D01*
X116695108Y85153500D01*
X116695108Y83629500D01*
X116698737Y83583995D01*
X116722638Y83506815D01*
X116767095Y83439349D01*
X116828588Y83386939D01*
X116902247Y83353736D01*
X116982240Y83342368D01*
X117013990Y83342368D01*
X117013990Y81011970D01*
X113498693Y81011970D01*
X113441346Y81098284D01*
X113263673Y81277201D01*
X113129936Y81367408D01*
X113143960Y81372590D01*
X113254026Y81431421D01*
X113354281Y81683073D01*
X112440140Y82597214D01*
X111525999Y81683073D01*
X111626254Y81431421D01*
X111756915Y81371269D01*
X111630586Y81288602D01*
X111450433Y81112183D01*
X111307977Y80904132D01*
X111208645Y80672373D01*
X111156221Y80425735D01*
X111152700Y80173611D01*
X111198218Y79925605D01*
X111291040Y79691163D01*
X111427631Y79479215D01*
X111602788Y79297835D01*
X111809839Y79153930D01*
X112040899Y79052983D01*
X112231903Y79010988D01*
X112075363Y78981126D01*
X111841575Y78886669D01*
X111630586Y78748602D01*
X111450433Y78572183D01*
X111307977Y78364132D01*
X111208645Y78132373D01*
X111156221Y77885735D01*
X111152700Y77633611D01*
X111198218Y77385605D01*
X111291040Y77151163D01*
X111427631Y76939215D01*
X111602788Y76757835D01*
X111809839Y76613930D01*
X112040899Y76512983D01*
X112231903Y76470988D01*
X112075363Y76441126D01*
X111841575Y76346669D01*
X111630586Y76208602D01*
X111450433Y76032183D01*
X111307977Y75824132D01*
X111208645Y75592373D01*
X111156221Y75345735D01*
X111152700Y75093611D01*
X111198218Y74845605D01*
X111291040Y74611163D01*
X111295252Y74604627D01*
X110316336Y73625712D01*
X78063853Y73625712D01*
X78072461Y73637914D01*
X78130709Y73768742D01*
X78162437Y73908393D01*
X78164721Y74071965D01*
X78136905Y74212447D01*
X78082332Y74344850D01*
X78003081Y74464132D01*
X77902171Y74565750D01*
X77783445Y74645831D01*
X77695780Y74682682D01*
X71536696Y80841766D01*
X73420962Y82726032D01*
X110831978Y82726032D01*
X110881546Y82414134D01*
X110991010Y82117900D01*
X111049841Y82007834D01*
X111301493Y81907579D01*
X112215634Y82821720D01*
X112664646Y82821720D01*
X113578787Y81907579D01*
X113830439Y82007834D01*
X113962506Y82294707D01*
X114036070Y82601832D01*
X114048302Y82917408D01*
X113998734Y83229306D01*
X113889270Y83525540D01*
X113830439Y83635606D01*
X113578787Y83735861D01*
X112664646Y82821720D01*
X112215634Y82821720D01*
X111301493Y83735861D01*
X111049841Y83635606D01*
X110917774Y83348733D01*
X110844210Y83041608D01*
X110831978Y82726032D01*
X73420962Y82726032D01*
X74655297Y83960367D01*
X111525999Y83960367D01*
X112440140Y83046226D01*
X113354281Y83960367D01*
X113254026Y84212019D01*
X112967153Y84344086D01*
X112660028Y84417650D01*
X112344452Y84429882D01*
X112032554Y84380314D01*
X111736320Y84270850D01*
X111626254Y84212019D01*
X111525999Y83960367D01*
X74655297Y83960367D01*
X76658097Y85963167D01*
X117000413Y85963167D01*
X117071731Y85735790D01*
X117317925Y85627565D01*
X117580502Y85569450D01*
X117849371Y85563678D01*
X118114199Y85610470D01*
X118364811Y85708028D01*
X118416749Y85735790D01*
X118488067Y85963167D01*
X117744240Y86706994D01*
X117000413Y85963167D01*
X76658097Y85963167D01*
X77521299Y86826369D01*
X116376418Y86826369D01*
X116423210Y86561541D01*
X116520768Y86310929D01*
X116548530Y86258991D01*
X116775907Y86187673D01*
X117519734Y86931500D01*
X117968746Y86931500D01*
X118712573Y86187673D01*
X118939950Y86258991D01*
X119048175Y86505185D01*
X119106290Y86767762D01*
X119112062Y87036631D01*
X119065270Y87301459D01*
X118967712Y87552071D01*
X118939950Y87604009D01*
X118712573Y87675327D01*
X117968746Y86931500D01*
X117519734Y86931500D01*
X116775907Y87675327D01*
X116548530Y87604009D01*
X116440305Y87357815D01*
X116382190Y87095238D01*
X116376418Y86826369D01*
X77521299Y86826369D01*
X78571685Y87876755D01*
X110758497Y87876755D01*
X111071603Y87519813D01*
X111644524Y87306663D01*
X112248020Y87209379D01*
X112858899Y87231701D01*
X113453686Y87372771D01*
X113808677Y87519813D01*
X114121783Y87876755D01*
X114098705Y87899833D01*
X117000413Y87899833D01*
X117744240Y87156006D01*
X118488067Y87899833D01*
X118416749Y88127210D01*
X118170555Y88235435D01*
X117907978Y88293550D01*
X117639109Y88299322D01*
X117374281Y88252530D01*
X117123669Y88154972D01*
X117071731Y88127210D01*
X117000413Y87899833D01*
X114098705Y87899833D01*
X112440140Y89558398D01*
X110758497Y87876755D01*
X78571685Y87876755D01*
X81208770Y90513840D01*
X109327799Y90513840D01*
X109350121Y89902961D01*
X109491191Y89308174D01*
X109638233Y88953183D01*
X109995175Y88640077D01*
X111676818Y90321720D01*
X113203462Y90321720D01*
X114885105Y88640077D01*
X115242047Y88953183D01*
X115455197Y89526104D01*
X115552481Y90129600D01*
X115530159Y90740479D01*
X115389089Y91335266D01*
X115242047Y91690257D01*
X114885105Y92003363D01*
X113203462Y90321720D01*
X111676818Y90321720D01*
X109995175Y92003363D01*
X109638233Y91690257D01*
X109425083Y91117336D01*
X109327799Y90513840D01*
X81208770Y90513840D01*
X83634800Y92939870D01*
X110910413Y92939870D01*
X110758497Y92766685D01*
X112440140Y91085042D01*
X114121783Y92766685D01*
X113969867Y92939870D01*
X116402900Y92939870D01*
X116695108Y92647662D01*
X116695108Y91869260D01*
X116698737Y91823755D01*
X116722638Y91746575D01*
X116767095Y91679109D01*
X116828588Y91626699D01*
X116902247Y91593496D01*
X116982240Y91582128D01*
X118506240Y91582128D01*
X118551745Y91585757D01*
X118628925Y91609658D01*
X118696391Y91654115D01*
X118748801Y91715608D01*
X118782004Y91789267D01*
X118793372Y91869260D01*
X118793372Y93393260D01*
X118789743Y93438765D01*
X118765842Y93515945D01*
X118721385Y93583411D01*
X118659892Y93635821D01*
X118586233Y93669024D01*
X118506240Y93680392D01*
X117727838Y93680392D01*
X117599426Y93808804D01*
X117849371Y93803438D01*
X118114199Y93850230D01*
X118364811Y93947788D01*
X118416749Y93975550D01*
X118488067Y94202927D01*
X117744240Y94946754D01*
X117730098Y94932611D01*
X117505592Y95157117D01*
X117519734Y95171260D01*
X117968746Y95171260D01*
X118712573Y94427433D01*
X118939950Y94498751D01*
X119048175Y94744945D01*
X119106290Y95007522D01*
X119112062Y95276391D01*
X119065270Y95541219D01*
X118967712Y95791831D01*
X118939950Y95843769D01*
X118712573Y95915087D01*
X117968746Y95171260D01*
X117519734Y95171260D01*
X116775907Y95915087D01*
X116548530Y95843769D01*
X116440305Y95597575D01*
X116382190Y95334998D01*
X116376418Y95066129D01*
X116423210Y94801301D01*
X116520768Y94550689D01*
X116548530Y94498751D01*
X116775905Y94427434D01*
X116745422Y94396951D01*
X116715576Y94400299D01*
X116708064Y94400351D01*
X116707929Y94400365D01*
X116707803Y94400353D01*
X116705380Y94400370D01*
X83332320Y94400370D01*
X83265141Y94393783D01*
X83197989Y94387908D01*
X83194307Y94386838D01*
X83190480Y94386463D01*
X83125864Y94366954D01*
X83061128Y94348147D01*
X83057719Y94346380D01*
X83054043Y94345270D01*
X82994460Y94313589D01*
X82934598Y94282559D01*
X82931600Y94280165D01*
X82928206Y94278361D01*
X82875919Y94235716D01*
X82823215Y94193644D01*
X82817867Y94188371D01*
X82817761Y94188284D01*
X82817680Y94188186D01*
X82815955Y94186485D01*
X70236503Y81607033D01*
X70190992Y81598351D01*
X70035118Y81535374D01*
X69894445Y81443320D01*
X69774331Y81325696D01*
X69679351Y81186982D01*
X69613123Y81032461D01*
X69578170Y80868019D01*
X69575823Y80699920D01*
X69606171Y80534567D01*
X69668059Y80378257D01*
X69737600Y80270350D01*
X64693800Y80270350D01*
X64644212Y80265488D01*
X64594513Y80261140D01*
X64591787Y80260348D01*
X64588962Y80260071D01*
X64541193Y80245649D01*
X64493355Y80231750D01*
X64490839Y80230446D01*
X64488117Y80229624D01*
X64444051Y80206193D01*
X64399831Y80183272D01*
X64397613Y80181502D01*
X64395107Y80180169D01*
X64356435Y80148629D01*
X64317506Y80117552D01*
X64313556Y80113658D01*
X64313474Y80113591D01*
X64313412Y80113516D01*
X64312139Y80112261D01*
X63214250Y79014372D01*
X63214250Y96139593D01*
X117000413Y96139593D01*
X117744240Y95395766D01*
X118488067Y96139593D01*
X118416749Y96366970D01*
X118170555Y96475195D01*
X117907978Y96533310D01*
X117639109Y96539082D01*
X117374281Y96492290D01*
X117123669Y96394732D01*
X117071731Y96366970D01*
X117000413Y96139593D01*
X63214250Y96139593D01*
X63214250Y98449130D01*
X120374410Y98449130D01*
X120374410Y78664707D01*
X120374410Y78664707D01*
G37*
X120374410Y78664707D02*
X120373585Y78665740D01*
X120371781Y78669134D01*
X120329136Y78721421D01*
X120287064Y78774125D01*
X120281794Y78779468D01*
X120281704Y78779579D01*
X120281601Y78779664D01*
X120279904Y78781385D01*
X118749046Y80312244D01*
X118750033Y80382939D01*
X118711722Y80576420D01*
X118636561Y80758775D01*
X118527411Y80923059D01*
X118474490Y80976351D01*
X118474490Y83342368D01*
X118506240Y83342368D01*
X118551745Y83345997D01*
X118628925Y83369898D01*
X118696391Y83414355D01*
X118748801Y83475848D01*
X118782004Y83549507D01*
X118793372Y83629500D01*
X118793372Y85153500D01*
X118789743Y85199005D01*
X118765842Y85276185D01*
X118721385Y85343651D01*
X118659892Y85396061D01*
X118586233Y85429264D01*
X118506240Y85440632D01*
X116982240Y85440632D01*
X116936735Y85437003D01*
X116859555Y85413102D01*
X116792089Y85368645D01*
X116739679Y85307152D01*
X116706476Y85233493D01*
X116695108Y85153500D01*
X116695108Y83629500D01*
X116698737Y83583995D01*
X116722638Y83506815D01*
X116767095Y83439349D01*
X116828588Y83386939D01*
X116902247Y83353736D01*
X116982240Y83342368D01*
X117013990Y83342368D01*
X117013990Y81011970D01*
X113498693Y81011970D01*
X113441346Y81098284D01*
X113263673Y81277201D01*
X113129936Y81367408D01*
X113143960Y81372590D01*
X113254026Y81431421D01*
X113354281Y81683073D01*
X112440140Y82597214D01*
X111525999Y81683073D01*
X111626254Y81431421D01*
X111756915Y81371269D01*
X111630586Y81288602D01*
X111450433Y81112183D01*
X111307977Y80904132D01*
X111208645Y80672373D01*
X111156221Y80425735D01*
X111152700Y80173611D01*
X111198218Y79925605D01*
X111291040Y79691163D01*
X111427631Y79479215D01*
X111602788Y79297835D01*
X111809839Y79153930D01*
X112040899Y79052983D01*
X112231903Y79010988D01*
X112075363Y78981126D01*
X111841575Y78886669D01*
X111630586Y78748602D01*
X111450433Y78572183D01*
X111307977Y78364132D01*
X111208645Y78132373D01*
X111156221Y77885735D01*
X111152700Y77633611D01*
X111198218Y77385605D01*
X111291040Y77151163D01*
X111427631Y76939215D01*
X111602788Y76757835D01*
X111809839Y76613930D01*
X112040899Y76512983D01*
X112231903Y76470988D01*
X112075363Y76441126D01*
X111841575Y76346669D01*
X111630586Y76208602D01*
X111450433Y76032183D01*
X111307977Y75824132D01*
X111208645Y75592373D01*
X111156221Y75345735D01*
X111152700Y75093611D01*
X111198218Y74845605D01*
X111291040Y74611163D01*
X111295252Y74604627D01*
X110316336Y73625712D01*
X78063853Y73625712D01*
X78072461Y73637914D01*
X78130709Y73768742D01*
X78162437Y73908393D01*
X78164721Y74071965D01*
X78136905Y74212447D01*
X78082332Y74344850D01*
X78003081Y74464132D01*
X77902171Y74565750D01*
X77783445Y74645831D01*
X77695780Y74682682D01*
X71536696Y80841766D01*
X73420962Y82726032D01*
X110831978Y82726032D01*
X110881546Y82414134D01*
X110991010Y82117900D01*
X111049841Y82007834D01*
X111301493Y81907579D01*
X112215634Y82821720D01*
X112664646Y82821720D01*
X113578787Y81907579D01*
X113830439Y82007834D01*
X113962506Y82294707D01*
X114036070Y82601832D01*
X114048302Y82917408D01*
X113998734Y83229306D01*
X113889270Y83525540D01*
X113830439Y83635606D01*
X113578787Y83735861D01*
X112664646Y82821720D01*
X112215634Y82821720D01*
X111301493Y83735861D01*
X111049841Y83635606D01*
X110917774Y83348733D01*
X110844210Y83041608D01*
X110831978Y82726032D01*
X73420962Y82726032D01*
X74655297Y83960367D01*
X111525999Y83960367D01*
X112440140Y83046226D01*
X113354281Y83960367D01*
X113254026Y84212019D01*
X112967153Y84344086D01*
X112660028Y84417650D01*
X112344452Y84429882D01*
X112032554Y84380314D01*
X111736320Y84270850D01*
X111626254Y84212019D01*
X111525999Y83960367D01*
X74655297Y83960367D01*
X76658097Y85963167D01*
X117000413Y85963167D01*
X117071731Y85735790D01*
X117317925Y85627565D01*
X117580502Y85569450D01*
X117849371Y85563678D01*
X118114199Y85610470D01*
X118364811Y85708028D01*
X118416749Y85735790D01*
X118488067Y85963167D01*
X117744240Y86706994D01*
X117000413Y85963167D01*
X76658097Y85963167D01*
X77521299Y86826369D01*
X116376418Y86826369D01*
X116423210Y86561541D01*
X116520768Y86310929D01*
X116548530Y86258991D01*
X116775907Y86187673D01*
X117519734Y86931500D01*
X117968746Y86931500D01*
X118712573Y86187673D01*
X118939950Y86258991D01*
X119048175Y86505185D01*
X119106290Y86767762D01*
X119112062Y87036631D01*
X119065270Y87301459D01*
X118967712Y87552071D01*
X118939950Y87604009D01*
X118712573Y87675327D01*
X117968746Y86931500D01*
X117519734Y86931500D01*
X116775907Y87675327D01*
X116548530Y87604009D01*
X116440305Y87357815D01*
X116382190Y87095238D01*
X116376418Y86826369D01*
X77521299Y86826369D01*
X78571685Y87876755D01*
X110758497Y87876755D01*
X111071603Y87519813D01*
X111644524Y87306663D01*
X112248020Y87209379D01*
X112858899Y87231701D01*
X113453686Y87372771D01*
X113808677Y87519813D01*
X114121783Y87876755D01*
X114098705Y87899833D01*
X117000413Y87899833D01*
X117744240Y87156006D01*
X118488067Y87899833D01*
X118416749Y88127210D01*
X118170555Y88235435D01*
X117907978Y88293550D01*
X117639109Y88299322D01*
X117374281Y88252530D01*
X117123669Y88154972D01*
X117071731Y88127210D01*
X117000413Y87899833D01*
X114098705Y87899833D01*
X112440140Y89558398D01*
X110758497Y87876755D01*
X78571685Y87876755D01*
X81208770Y90513840D01*
X109327799Y90513840D01*
X109350121Y89902961D01*
X109491191Y89308174D01*
X109638233Y88953183D01*
X109995175Y88640077D01*
X111676818Y90321720D01*
X113203462Y90321720D01*
X114885105Y88640077D01*
X115242047Y88953183D01*
X115455197Y89526104D01*
X115552481Y90129600D01*
X115530159Y90740479D01*
X115389089Y91335266D01*
X115242047Y91690257D01*
X114885105Y92003363D01*
X113203462Y90321720D01*
X111676818Y90321720D01*
X109995175Y92003363D01*
X109638233Y91690257D01*
X109425083Y91117336D01*
X109327799Y90513840D01*
X81208770Y90513840D01*
X83634800Y92939870D01*
X110910413Y92939870D01*
X110758497Y92766685D01*
X112440140Y91085042D01*
X114121783Y92766685D01*
X113969867Y92939870D01*
X116402900Y92939870D01*
X116695108Y92647662D01*
X116695108Y91869260D01*
X116698737Y91823755D01*
X116722638Y91746575D01*
X116767095Y91679109D01*
X116828588Y91626699D01*
X116902247Y91593496D01*
X116982240Y91582128D01*
X118506240Y91582128D01*
X118551745Y91585757D01*
X118628925Y91609658D01*
X118696391Y91654115D01*
X118748801Y91715608D01*
X118782004Y91789267D01*
X118793372Y91869260D01*
X118793372Y93393260D01*
X118789743Y93438765D01*
X118765842Y93515945D01*
X118721385Y93583411D01*
X118659892Y93635821D01*
X118586233Y93669024D01*
X118506240Y93680392D01*
X117727838Y93680392D01*
X117599426Y93808804D01*
X117849371Y93803438D01*
X118114199Y93850230D01*
X118364811Y93947788D01*
X118416749Y93975550D01*
X118488067Y94202927D01*
X117744240Y94946754D01*
X117730098Y94932611D01*
X117505592Y95157117D01*
X117519734Y95171260D01*
X117968746Y95171260D01*
X118712573Y94427433D01*
X118939950Y94498751D01*
X119048175Y94744945D01*
X119106290Y95007522D01*
X119112062Y95276391D01*
X119065270Y95541219D01*
X118967712Y95791831D01*
X118939950Y95843769D01*
X118712573Y95915087D01*
X117968746Y95171260D01*
X117519734Y95171260D01*
X116775907Y95915087D01*
X116548530Y95843769D01*
X116440305Y95597575D01*
X116382190Y95334998D01*
X116376418Y95066129D01*
X116423210Y94801301D01*
X116520768Y94550689D01*
X116548530Y94498751D01*
X116775905Y94427434D01*
X116745422Y94396951D01*
X116715576Y94400299D01*
X116708064Y94400351D01*
X116707929Y94400365D01*
X116707803Y94400353D01*
X116705380Y94400370D01*
X83332320Y94400370D01*
X83265141Y94393783D01*
X83197989Y94387908D01*
X83194307Y94386838D01*
X83190480Y94386463D01*
X83125864Y94366954D01*
X83061128Y94348147D01*
X83057719Y94346380D01*
X83054043Y94345270D01*
X82994460Y94313589D01*
X82934598Y94282559D01*
X82931600Y94280165D01*
X82928206Y94278361D01*
X82875919Y94235716D01*
X82823215Y94193644D01*
X82817867Y94188371D01*
X82817761Y94188284D01*
X82817680Y94188186D01*
X82815955Y94186485D01*
X70236503Y81607033D01*
X70190992Y81598351D01*
X70035118Y81535374D01*
X69894445Y81443320D01*
X69774331Y81325696D01*
X69679351Y81186982D01*
X69613123Y81032461D01*
X69578170Y80868019D01*
X69575823Y80699920D01*
X69606171Y80534567D01*
X69668059Y80378257D01*
X69737600Y80270350D01*
X64693800Y80270350D01*
X64644212Y80265488D01*
X64594513Y80261140D01*
X64591787Y80260348D01*
X64588962Y80260071D01*
X64541193Y80245649D01*
X64493355Y80231750D01*
X64490839Y80230446D01*
X64488117Y80229624D01*
X64444051Y80206193D01*
X64399831Y80183272D01*
X64397613Y80181502D01*
X64395107Y80180169D01*
X64356435Y80148629D01*
X64317506Y80117552D01*
X64313556Y80113658D01*
X64313474Y80113591D01*
X64313412Y80113516D01*
X64312139Y80112261D01*
X63214250Y79014372D01*
X63214250Y96139593D01*
X117000413Y96139593D01*
X117744240Y95395766D01*
X118488067Y96139593D01*
X118416749Y96366970D01*
X118170555Y96475195D01*
X117907978Y96533310D01*
X117639109Y96539082D01*
X117374281Y96492290D01*
X117123669Y96394732D01*
X117071731Y96366970D01*
X117000413Y96139593D01*
X63214250Y96139593D01*
X63214250Y98449130D01*
X120374410Y98449130D01*
X120374410Y78664707D01*
M02*
