*
%LPD*%
%LNbase-B.Cu*%
%FSLAX25Y25*%
%MOIN*%
%AD*%
%AD*%
%ADD11C,0.03*%
%ADD12R,0.070866142X0.082677165*%
%ADD13R,0.023622047X0.019685039*%
%ADD14R,0.019685039X0.023622047*%
%ADD15R,0.2X0.095275591*%
%ADD16C,0.038188976*%
%ADD17R,0.03503937X0.018110236*%
%ADD18R,0.047244094X0.029527559*%
%ADD19R,0.039370079X0.039370079*%
%ADD20C,0.039370079*%
%ADD21R,0.049212598X0.059055118*%
%ADD22C,0.014*%
%ADD23C,0.039370079*%
%ADD24C,0.014015748*%
%ADD25C,0.012*%
%ADD26C,0.035*%
%ADD27C,0.01*%
%ADD28C,0.02*%
%ADD29C,0.03*%
%ADD30C,0.005*%
G54D11*
%SRX1Y1I0.0J0.0*%
G1X260850Y69200D3*
G1X300350Y69200D3*
G1X308250Y69200D3*
G1X316150Y69200D3*
G1X324050Y69200D3*
G1X331950Y69200D3*
G1X292450Y69200D3*
G1X284550Y69200D3*
G1X276650Y69200D3*
G1X268750Y69200D3*
G1X268750Y155800D3*
G1X276650Y155800D3*
G1X284550Y155800D3*
G1X292450Y155800D3*
G1X331950Y155800D3*
G1X324050Y155800D3*
G1X316150Y155800D3*
G1X308250Y155800D3*
G1X300350Y155800D3*
G1X260850Y155800D3*
G54D12*
G1X78778Y126959D3*
G1X78778Y115541D3*
G1X69722Y115541D3*
G1X69722Y126959D3*
G54D13*
G1X102165Y96500D3*
G1X97835Y96500D3*
G1X102165Y103500D3*
G1X97835Y103500D3*
G1X78665Y134000D3*
G1X74335Y134000D3*
G1X69835Y108500D3*
G1X74165Y108500D3*
G54D14*
G1X49500Y119835D3*
G1X49500Y124165D3*
G1X93000Y87335D3*
G1X93000Y91665D3*
G1X88250Y112665D3*
G1X88250Y108335D3*
G54D13*
G1X94915Y100000D3*
G1X90585Y100000D3*
G54D14*
G1X331750Y162835D3*
G1X331750Y167165D3*
G1X335250Y162835D3*
G1X335250Y167165D3*
G1X338750Y162835D3*
G1X338750Y167165D3*
G1X59000Y115365D3*
G1X59000Y111035D3*
G54D15*
G1X10728Y122744D3*
G1X10728Y88256D3*
G54D16*
G1X24272Y122744D3*
G1X24272Y88256D3*
G54D17*
G1X22480Y122744D3*
G1X22480Y88256D3*
G54D18*
G1X61490Y120000D3*
G1X54010Y120000D3*
G54D19*
G1X113500Y16250D3*
G54D20*
G1X113500Y6250D3*
G54D19*
G1X71250Y171000D3*
G54D20*
G1X81250Y171000D3*
G54D21*
G1X88500Y77579D3*
G1X88500Y87421D3*
G54D19*
G1X6000Y16250D3*
G54D20*
G1X6000Y6250D3*
G1X16000Y16250D3*
G1X16000Y6250D3*
G1X26000Y16250D3*
G1X26000Y6250D3*
G1X36000Y16250D3*
G1X36000Y6250D3*
G1X46000Y16250D3*
G1X46000Y6250D3*
G1X56000Y16250D3*
G1X56000Y6250D3*
G1X66000Y16250D3*
G1X66000Y6250D3*
G1X76000Y16250D3*
G1X76000Y6250D3*
G1X86000Y16250D3*
G1X86000Y6250D3*
G1X96000Y16250D3*
G1X96000Y6250D3*
G54D19*
G1X53750Y171000D3*
G54D20*
G1X43750Y171000D3*
G54D19*
G1X131000Y6250D3*
G54D20*
G1X141000Y6250D3*
G1X151000Y6250D3*
G1X161000Y6250D3*
G1X171000Y6250D3*
G1X181000Y6250D3*
G1X191000Y6250D3*
G1X201000Y6250D3*
G54D22*
G1X77933Y102067D3*
G1X82067Y102067D3*
G1X82067Y97933D3*
G1X77933Y97933D3*
G1X86201Y97933D3*
G1X86201Y102067D3*
G1X73799Y102067D3*
G1X73799Y97933D3*
G1X77933Y93799D3*
G1X82067Y93799D3*
G1X77933Y106201D3*
G1X82067Y106201D3*
G1X73799Y106201D3*
G1X86201Y106201D3*
G1X73799Y93799D3*
G1X86201Y93799D3*
G54D23*
G1X106250Y96250D3*
G1X106250Y103730D3*
G1X66000Y56250D3*
G1X6000Y56250D3*
G1X36000Y56250D3*
G1X26000Y56250D3*
G54D24*
G1X30500Y114250D3*
G1X30500Y97250D3*
G1X30500Y124250D3*
G1X30500Y134250D3*
G1X30500Y87250D3*
G1X30500Y77250D3*
G1X20500Y77250D3*
G1X10500Y77250D3*
G1X20500Y134250D3*
G1X10500Y134250D3*
G1X40500Y114250D3*
G1X50500Y114250D3*
G1X40500Y97250D3*
G1X50500Y97250D3*
G1X40500Y87250D3*
G1X40500Y77500D3*
G1X40500Y124250D3*
G1X40500Y134250D3*
G54D23*
G1X201000Y153750D3*
G1X201000Y103750D3*
G1X201000Y93750D3*
G54D24*
G1X10500Y67250D3*
G1X10500Y144250D3*
G1X20500Y144250D3*
G1X30500Y144250D3*
G1X40500Y144250D3*
G1X50500Y134250D3*
G1X50500Y144250D3*
G1X10500Y154250D3*
G1X20500Y154250D3*
G1X30500Y154250D3*
G1X40500Y154250D3*
G1X50500Y154250D3*
G54D23*
G1X201000Y83750D3*
G1X201000Y73750D3*
G54D24*
G1X232500Y26250D3*
G1X252500Y26250D3*
G1X272500Y26250D3*
G1X292500Y26250D3*
G1X312500Y26250D3*
G1X332500Y26250D3*
G1X232500Y46250D3*
G1X252500Y46250D3*
G1X272500Y46250D3*
G1X292500Y46250D3*
G1X312500Y46250D3*
G1X332500Y46250D3*
G1X83500Y36250D3*
G1X103500Y36250D3*
G1X123500Y36250D3*
G54D25*
G1X77750Y123500D3*
G1X72500Y115500D3*
G1X64000Y103750D3*
G1X59000Y111035D3*
G1X56250Y108750D3*
G54D26*
G1X201000Y163750D3*
G54D25*
G1X122250Y15250D3*
G54D26*
G1X16000Y56250D3*
G54D25*
G1X81000Y26750D3*
G1X16000Y26750D3*
G1X87250Y90250D3*
G1X94750Y97500D3*
G1X88250Y123000D3*
G1X31000Y11400D3*
G1X61000Y11400D3*
G1X122200Y11250D3*
G1X95500Y77000D3*
G1X5250Y24250D3*
G1X88250Y117500D3*
G1X70400Y24200D3*
G1X30400Y24200D3*
G54D26*
G1X56000Y56250D3*
G1X46000Y56250D3*
G1X131000Y56250D3*
G1X141000Y56250D3*
G1X151000Y56250D3*
G1X161000Y56250D3*
G1X171000Y56250D3*
G1X181000Y56250D3*
G1X191000Y56250D3*
G1X201000Y56250D3*
G54D25*
G1X84500Y78000D3*
G54D26*
G1X76000Y56250D3*
G54D25*
G1X94500Y82250D3*
G1X69500Y82000D3*
G54D26*
G1X201000Y113750D3*
G1X201000Y123750D3*
G1X201000Y143750D3*
G1X201000Y133750D3*
G1X102165Y96500D2*
G54D27*
G1X106000Y96500D1*
G1X106250Y96250D1*
G1X102165Y103500D2*
G1X106020Y103500D1*
G1X106250Y103730D1*
G1X78665Y134000D2*
G1X78665Y127071D1*
G1X78778Y126959D1*
G1X77750Y123500D2*
G1X78778Y124528D1*
G1X78778Y126959D1*
G1X69835Y108500D2*
G1X69835Y115429D1*
G1X69722Y115541D1*
G1X72500Y115500D2*
G1X72459Y115541D1*
G1X69722Y115541D1*
G1X59000Y111035D2*
G54D28*
G1X60715Y111035D1*
G1X64000Y107750D2*
G1X64000Y103750D1*
G1X60715Y111035D2*
G1X64000Y107750D1*
G1X59000Y111000D2*
G1X59000Y111035D1*
G1X56250Y108750D2*
G1X56250Y117760D1*
G1X54010Y120000D1*
G1X53844Y119835D2*
G1X54010Y120000D1*
G1X49500Y119835D2*
G1X53844Y119835D1*
G1X59000Y115365D2*
G1X59000Y117510D1*
G1X61490Y120000D1*
G1X61490Y147490D1*
G1X81000Y26750D2*
G1X20500Y26750D1*
G1X352250Y24000D2*
G1X343500Y15250D1*
G1X320500Y163750D2*
G1X328750Y155500D1*
G1X328750Y153750D1*
G1X352250Y130250D1*
G1X352250Y24000D1*
G1X77750Y163750D2*
G1X201000Y163750D1*
G1X320500Y163750D1*
G1X343500Y15250D2*
G1X122250Y15250D1*
G1X98250Y81500D2*
G1X93000Y86750D1*
G1X30000Y70250D2*
G1X16000Y56250D1*
G1X92500Y70250D2*
G1X30000Y70250D1*
G1X98250Y76000D2*
G1X92500Y70250D1*
G1X98250Y81500D2*
G1X98250Y76000D1*
G1X16000Y26750D2*
G1X20500Y26750D1*
G1X61490Y147490D2*
G1X77750Y163750D1*
G1X93000Y87335D2*
G1X93000Y86750D1*
G1X93000Y87335D2*
G1X88587Y87335D1*
G1X88500Y87421D1*
G1X87250Y90250D2*
G1X88500Y89000D1*
G1X88500Y87421D1*
G1X94915Y97665D2*
G1X94915Y100000D1*
G1X94750Y97500D2*
G1X94915Y97665D1*
G1X88250Y123000D2*
G1X88250Y117500D1*
G1X335250Y162835D2*
G54D29*
G1X338750Y162835D1*
G1X331750Y162835D2*
G1X335250Y162835D1*
G1X315750Y171000D2*
G1X340000Y171000D1*
G1X81250Y171000D2*
G1X315750Y171000D1*
G1X342250Y165500D2*
G1X339585Y162835D1*
G1X342250Y168750D2*
G1X342250Y165500D1*
G1X340000Y171000D2*
G1X342250Y168750D1*
G1X339585Y162835D2*
G1X338750Y162835D1*
G1X31000Y11400D2*
G1X61000Y11400D1*
G1X122200Y11250D2*
G1X344750Y11250D1*
G1X356000Y22500D1*
G1X356000Y131750D1*
G1X331950Y155800D1*
G1X331750Y162835D2*
G1X331750Y156000D1*
G1X331950Y155800D1*
G1X6000Y56250D2*
G54D28*
G1X22500Y72750D1*
G1X91250Y72750D2*
G1X95500Y77000D1*
G1X22500Y72750D2*
G1X91250Y72750D1*
G1X30400Y24200D2*
G1X5300Y24200D1*
G1X5250Y24250D1*
G1X88250Y117500D2*
G1X88250Y112665D1*
G1X30400Y24200D2*
G1X36000Y24200D1*
G1X70400Y24200D1*
G1X84921Y77579D2*
G1X84500Y78000D1*
G1X88500Y77579D2*
G1X84921Y77579D1*
G1X94500Y82250D2*
G54D27*
G1X94250Y82000D1*
G1X69500Y82000D1*
G1X53750Y171000D2*
G54D29*
G1X71250Y171000D1*
G1X250Y179750D2*
G54D30*
G1X359750Y179750D1*
G1X250Y179450D2*
G1X359750Y179450D1*
G1X250Y179150D2*
G1X359750Y179150D1*
G1X250Y178850D2*
G1X359750Y178850D1*
G1X250Y178550D2*
G1X359750Y178550D1*
G1X250Y178250D2*
G1X359750Y178250D1*
G1X250Y177950D2*
G1X359750Y177950D1*
G1X250Y177650D2*
G1X359750Y177650D1*
G1X250Y177350D2*
G1X359750Y177350D1*
G1X250Y177050D2*
G1X359750Y177050D1*
G1X250Y176750D2*
G1X359750Y176750D1*
G1X250Y176450D2*
G1X359750Y176450D1*
G1X250Y176150D2*
G1X359750Y176150D1*
G1X250Y175850D2*
G1X359750Y175850D1*
G1X250Y175550D2*
G1X359750Y175550D1*
G1X250Y175250D2*
G1X359750Y175250D1*
G1X250Y174950D2*
G1X42280Y174950D1*
G1X42412Y174950D2*
G1X45088Y174950D1*
G1X45220Y174950D2*
G1X359750Y174950D1*
G1X250Y174650D2*
G1X41719Y174650D1*
G1X42886Y174650D2*
G1X44614Y174650D1*
G1X45782Y174650D2*
G1X359750Y174650D1*
G1X250Y174350D2*
G1X41321Y174350D1*
G1X43000Y174350D2*
G1X44500Y174350D1*
G1X46179Y174350D2*
G1X359750Y174350D1*
G1X250Y174050D2*
G1X40923Y174050D1*
G1X43000Y174050D2*
G1X44500Y174050D1*
G1X46577Y174050D2*
G1X359750Y174050D1*
G1X250Y173750D2*
G1X40568Y173750D1*
G1X43000Y173750D2*
G1X44500Y173750D1*
G1X46932Y173750D2*
G1X81141Y173750D1*
G1X81359Y173750D2*
G1X359750Y173750D1*
G1X250Y173450D2*
G1X40391Y173450D1*
G1X43000Y173450D2*
G1X44500Y173450D1*
G1X47109Y173450D2*
G1X51203Y173450D1*
G1X56300Y173450D2*
G1X68703Y173450D1*
G1X73800Y173450D2*
G1X80038Y173450D1*
G1X82462Y173450D2*
G1X359750Y173450D1*
G1X250Y173150D2*
G1X40214Y173150D1*
G1X43000Y173150D2*
G1X44500Y173150D1*
G1X47286Y173150D2*
G1X51054Y173150D1*
G1X73949Y173150D2*
G1X79589Y173150D1*
G1X340503Y173150D2*
G1X359750Y173150D1*
G1X250Y172850D2*
G1X40038Y172850D1*
G1X43000Y172850D2*
G1X44500Y172850D1*
G1X47462Y172850D2*
G1X51017Y172850D1*
G1X73983Y172850D2*
G1X79244Y172850D1*
G1X341203Y172850D2*
G1X359750Y172850D1*
G1X250Y172550D2*
G1X39861Y172550D1*
G1X43000Y172550D2*
G1X44500Y172550D1*
G1X47639Y172550D2*
G1X51017Y172550D1*
G1X73983Y172550D2*
G1X79043Y172550D1*
G1X341632Y172550D2*
G1X359750Y172550D1*
G1X250Y172250D2*
G1X39853Y172250D1*
G1X43000Y172250D2*
G1X44500Y172250D1*
G1X47647Y172250D2*
G1X51017Y172250D1*
G1X73983Y172250D2*
G1X78843Y172250D1*
G1X341932Y172250D2*
G1X359750Y172250D1*
G1X250Y171950D2*
G1X40038Y171950D1*
G1X43000Y171950D2*
G1X44500Y171950D1*
G1X47462Y171950D2*
G1X51017Y171950D1*
G1X73983Y171950D2*
G1X78710Y171950D1*
G1X342232Y171950D2*
G1X359750Y171950D1*
G1X250Y171650D2*
G1X51017Y171650D1*
G1X73983Y171650D2*
G1X78650Y171650D1*
G1X342532Y171650D2*
G1X359750Y171650D1*
G1X250Y171350D2*
G1X51017Y171350D1*
G1X73983Y171350D2*
G1X78591Y171350D1*
G1X342832Y171350D2*
G1X359750Y171350D1*
G1X250Y171050D2*
G1X51017Y171050D1*
G1X73983Y171050D2*
G1X78531Y171050D1*
G1X343132Y171050D2*
G1X359750Y171050D1*
G1X250Y170750D2*
G1X51017Y170750D1*
G1X73983Y170750D2*
G1X78571Y170750D1*
G1X343432Y170750D2*
G1X359750Y170750D1*
G1X250Y170450D2*
G1X51017Y170450D1*
G1X73983Y170450D2*
G1X78630Y170450D1*
G1X343732Y170450D2*
G1X359750Y170450D1*
G1X250Y170150D2*
G1X40100Y170150D1*
G1X43000Y170150D2*
G1X44500Y170150D1*
G1X47400Y170150D2*
G1X51017Y170150D1*
G1X73983Y170150D2*
G1X78690Y170150D1*
G1X343969Y170150D2*
G1X359750Y170150D1*
G1X250Y169850D2*
G1X39915Y169850D1*
G1X43000Y169850D2*
G1X44500Y169850D1*
G1X47585Y169850D2*
G1X51017Y169850D1*
G1X73983Y169850D2*
G1X78776Y169850D1*
G1X344169Y169850D2*
G1X359750Y169850D1*
G1X250Y169550D2*
G1X39802Y169550D1*
G1X43000Y169550D2*
G1X44500Y169550D1*
G1X47698Y169550D2*
G1X51017Y169550D1*
G1X73983Y169550D2*
G1X78977Y169550D1*
G1X344341Y169550D2*
G1X359750Y169550D1*
G1X250Y169250D2*
G1X39979Y169250D1*
G1X43000Y169250D2*
G1X44500Y169250D1*
G1X47521Y169250D2*
G1X51017Y169250D1*
G1X73983Y169250D2*
G1X79177Y169250D1*
G1X344401Y169250D2*
G1X359750Y169250D1*
G1X250Y168950D2*
G1X40156Y168950D1*
G1X43000Y168950D2*
G1X44500Y168950D1*
G1X47344Y168950D2*
G1X51032Y168950D1*
G1X73967Y168950D2*
G1X79439Y168950D1*
G1X344460Y168950D2*
G1X359750Y168950D1*
G1X250Y168650D2*
G1X40332Y168650D1*
G1X43000Y168650D2*
G1X44500Y168650D1*
G1X47168Y168650D2*
G1X51136Y168650D1*
G1X56366Y168650D2*
G1X68636Y168650D1*
G1X73866Y168650D2*
G1X79888Y168650D1*
G1X82612Y168650D2*
G1X339168Y168650D1*
G1X344500Y168650D2*
G1X359750Y168650D1*
G1X250Y168350D2*
G1X40509Y168350D1*
G1X43000Y168350D2*
G1X44500Y168350D1*
G1X46991Y168350D2*
G1X51450Y168350D1*
G1X56044Y168350D2*
G1X68950Y168350D1*
G1X73544Y168350D2*
G1X80638Y168350D1*
G1X81862Y168350D2*
G1X339468Y168350D1*
G1X344500Y168350D2*
G1X359750Y168350D1*
G1X250Y168050D2*
G1X40790Y168050D1*
G1X43000Y168050D2*
G1X44500Y168050D1*
G1X46710Y168050D2*
G1X339768Y168050D1*
G1X344500Y168050D2*
G1X359750Y168050D1*
G1X250Y167750D2*
G1X41188Y167750D1*
G1X43000Y167750D2*
G1X44500Y167750D1*
G1X46312Y167750D2*
G1X340000Y167750D1*
G1X344500Y167750D2*
G1X359750Y167750D1*
G1X250Y167450D2*
G1X41586Y167450D1*
G1X43000Y167450D2*
G1X44500Y167450D1*
G1X45914Y167450D2*
G1X340000Y167450D1*
G1X344500Y167450D2*
G1X359750Y167450D1*
G1X250Y167150D2*
G1X42039Y167150D1*
G1X42570Y167150D2*
G1X44930Y167150D1*
G1X45461Y167150D2*
G1X340000Y167150D1*
G1X344500Y167150D2*
G1X359750Y167150D1*
G1X250Y166850D2*
G1X340000Y166850D1*
G1X344500Y166850D2*
G1X359750Y166850D1*
G1X250Y166550D2*
G1X340000Y166550D1*
G1X344500Y166550D2*
G1X359750Y166550D1*
G1X250Y166250D2*
G1X200504Y166250D1*
G1X201000Y166250D2*
G1X339818Y166250D1*
G1X344500Y166250D2*
G1X359750Y166250D1*
G1X250Y165950D2*
G1X199778Y165950D1*
G1X202221Y165950D2*
G1X339518Y165950D1*
G1X344500Y165950D2*
G1X359750Y165950D1*
G1X250Y165650D2*
G1X199365Y165650D1*
G1X202636Y165650D2*
G1X339218Y165650D1*
G1X344500Y165650D2*
G1X359750Y165650D1*
G1X250Y165350D2*
G1X77055Y165350D1*
G1X321195Y165350D2*
G1X338918Y165350D1*
G1X344470Y165350D2*
G1X359750Y165350D1*
G1X250Y165050D2*
G1X76606Y165050D1*
G1X321644Y165050D2*
G1X331576Y165050D1*
G1X344411Y165050D2*
G1X359750Y165050D1*
G1X250Y164750D2*
G1X76275Y164750D1*
G1X321975Y164750D2*
G1X330604Y164750D1*
G1X344351Y164750D2*
G1X359750Y164750D1*
G1X250Y164450D2*
G1X75975Y164450D1*
G1X322275Y164450D2*
G1X330155Y164450D1*
G1X344202Y164450D2*
G1X359750Y164450D1*
G1X250Y164150D2*
G1X75675Y164150D1*
G1X322575Y164150D2*
G1X329975Y164150D1*
G1X344002Y164150D2*
G1X359750Y164150D1*
G1X250Y163850D2*
G1X75375Y163850D1*
G1X322875Y163850D2*
G1X329774Y163850D1*
G1X343782Y163850D2*
G1X359750Y163850D1*
G1X250Y163550D2*
G1X75075Y163550D1*
G1X323175Y163550D2*
G1X329642Y163550D1*
G1X343482Y163550D2*
G1X359750Y163550D1*
G1X250Y163250D2*
G1X74775Y163250D1*
G1X323475Y163250D2*
G1X329583Y163250D1*
G1X343182Y163250D2*
G1X359750Y163250D1*
G1X250Y162950D2*
G1X74475Y162950D1*
G1X323775Y162950D2*
G1X329523Y162950D1*
G1X342882Y162950D2*
G1X359750Y162950D1*
G1X250Y162650D2*
G1X74175Y162650D1*
G1X324075Y162650D2*
G1X329500Y162650D1*
G1X342582Y162650D2*
G1X359750Y162650D1*
G1X250Y162350D2*
G1X73875Y162350D1*
G1X324375Y162350D2*
G1X329500Y162350D1*
G1X342282Y162350D2*
G1X359750Y162350D1*
G1X250Y162050D2*
G1X73575Y162050D1*
G1X324675Y162050D2*
G1X329500Y162050D1*
G1X341982Y162050D2*
G1X359750Y162050D1*
G1X250Y161750D2*
G1X73275Y161750D1*
G1X78225Y161750D2*
G1X199464Y161750D1*
G1X202535Y161750D2*
G1X320025Y161750D1*
G1X324975Y161750D2*
G1X329500Y161750D1*
G1X341682Y161750D2*
G1X359750Y161750D1*
G1X250Y161450D2*
G1X72975Y161450D1*
G1X77925Y161450D2*
G1X200020Y161450D1*
G1X201980Y161450D2*
G1X320325Y161450D1*
G1X325275Y161450D2*
G1X329500Y161450D1*
G1X341382Y161450D2*
G1X359750Y161450D1*
G1X250Y161150D2*
G1X72675Y161150D1*
G1X77625Y161150D2*
G1X320625Y161150D1*
G1X325575Y161150D2*
G1X329500Y161150D1*
G1X341035Y161150D2*
G1X359750Y161150D1*
G1X250Y160850D2*
G1X72375Y160850D1*
G1X77325Y160850D2*
G1X320925Y160850D1*
G1X325875Y160850D2*
G1X329500Y160850D1*
G1X340586Y160850D2*
G1X359750Y160850D1*
G1X250Y160550D2*
G1X72075Y160550D1*
G1X77025Y160550D2*
G1X321225Y160550D1*
G1X326175Y160550D2*
G1X329500Y160550D1*
G1X334000Y160550D2*
G1X359750Y160550D1*
G1X250Y160250D2*
G1X71775Y160250D1*
G1X76725Y160250D2*
G1X321525Y160250D1*
G1X326475Y160250D2*
G1X329500Y160250D1*
G1X334000Y160250D2*
G1X359750Y160250D1*
G1X250Y159950D2*
G1X71475Y159950D1*
G1X76425Y159950D2*
G1X321825Y159950D1*
G1X326775Y159950D2*
G1X329500Y159950D1*
G1X334000Y159950D2*
G1X359750Y159950D1*
G1X250Y159650D2*
G1X71175Y159650D1*
G1X76125Y159650D2*
G1X322125Y159650D1*
G1X327075Y159650D2*
G1X329500Y159650D1*
G1X334000Y159650D2*
G1X359750Y159650D1*
G1X250Y159350D2*
G1X70875Y159350D1*
G1X75825Y159350D2*
G1X259437Y159350D1*
G1X262129Y159350D2*
G1X322425Y159350D1*
G1X327375Y159350D2*
G1X329500Y159350D1*
G1X334000Y159350D2*
G1X359750Y159350D1*
G1X250Y159050D2*
G1X70575Y159050D1*
G1X75525Y159050D2*
G1X259216Y159050D1*
G1X262484Y159050D2*
G1X322725Y159050D1*
G1X327675Y159050D2*
G1X329500Y159050D1*
G1X334000Y159050D2*
G1X359750Y159050D1*
G1X250Y158750D2*
G1X70275Y158750D1*
G1X75225Y158750D2*
G1X259166Y158750D1*
G1X262534Y158750D2*
G1X323025Y158750D1*
G1X327975Y158750D2*
G1X329500Y158750D1*
G1X334000Y158750D2*
G1X359750Y158750D1*
G1X250Y158450D2*
G1X69975Y158450D1*
G1X74925Y158450D2*
G1X259261Y158450D1*
G1X262439Y158450D2*
G1X323325Y158450D1*
G1X328275Y158450D2*
G1X329500Y158450D1*
G1X334000Y158450D2*
G1X359750Y158450D1*
G1X250Y158150D2*
G1X69675Y158150D1*
G1X74625Y158150D2*
G1X259561Y158150D1*
G1X262139Y158150D2*
G1X323625Y158150D1*
G1X328575Y158150D2*
G1X329500Y158150D1*
G1X334000Y158150D2*
G1X359750Y158150D1*
G1X250Y157850D2*
G1X69375Y157850D1*
G1X74325Y157850D2*
G1X259861Y157850D1*
G1X261839Y157850D2*
G1X267819Y157850D1*
G1X269680Y157850D2*
G1X275719Y157850D1*
G1X277580Y157850D2*
G1X283619Y157850D1*
G1X285480Y157850D2*
G1X291519Y157850D1*
G1X293380Y157850D2*
G1X299419Y157850D1*
G1X301280Y157850D2*
G1X307319Y157850D1*
G1X309180Y157850D2*
G1X315219Y157850D1*
G1X317080Y157850D2*
G1X323119Y157850D1*
G1X328875Y157850D2*
G1X329500Y157850D1*
G1X334000Y157850D2*
G1X359750Y157850D1*
G1X250Y157550D2*
G1X69075Y157550D1*
G1X74025Y157550D2*
G1X260161Y157550D1*
G1X261539Y157550D2*
G1X267318Y157550D1*
G1X270182Y157550D2*
G1X275218Y157550D1*
G1X278082Y157550D2*
G1X283118Y157550D1*
G1X285982Y157550D2*
G1X291018Y157550D1*
G1X293882Y157550D2*
G1X298918Y157550D1*
G1X301782Y157550D2*
G1X306818Y157550D1*
G1X309682Y157550D2*
G1X314718Y157550D1*
G1X317582Y157550D2*
G1X322618Y157550D1*
G1X329175Y157550D2*
G1X329500Y157550D1*
G1X334000Y157550D2*
G1X359750Y157550D1*
G1X250Y157250D2*
G1X68775Y157250D1*
G1X73725Y157250D2*
G1X257341Y157250D1*
G1X258339Y157250D2*
G1X260461Y157250D1*
G1X261239Y157250D2*
G1X263361Y157250D1*
G1X264385Y157250D2*
G1X267018Y157250D1*
G1X270482Y157250D2*
G1X274918Y157250D1*
G1X278382Y157250D2*
G1X282818Y157250D1*
G1X286282Y157250D2*
G1X290718Y157250D1*
G1X294182Y157250D2*
G1X298618Y157250D1*
G1X302082Y157250D2*
G1X306518Y157250D1*
G1X309982Y157250D2*
G1X314418Y157250D1*
G1X317882Y157250D2*
G1X322318Y157250D1*
G1X329475Y157250D2*
G1X329500Y157250D1*
G1X334000Y157250D2*
G1X359750Y157250D1*
G1X250Y156950D2*
G1X68475Y156950D1*
G1X73425Y156950D2*
G1X257269Y156950D1*
G1X258639Y156950D2*
G1X260761Y156950D1*
G1X260939Y156950D2*
G1X263061Y156950D1*
G1X264464Y156950D2*
G1X266791Y156950D1*
G1X270709Y156950D2*
G1X274691Y156950D1*
G1X278609Y156950D2*
G1X282591Y156950D1*
G1X286509Y156950D2*
G1X290491Y156950D1*
G1X294409Y156950D2*
G1X298391Y156950D1*
G1X302309Y156950D2*
G1X306291Y156950D1*
G1X310209Y156950D2*
G1X314191Y156950D1*
G1X318109Y156950D2*
G1X322091Y156950D1*
G1X334000Y156950D2*
G1X359750Y156950D1*
G1X250Y156650D2*
G1X68175Y156650D1*
G1X73125Y156650D2*
G1X257198Y156650D1*
G1X258939Y156650D2*
G1X262761Y156650D1*
G1X264512Y156650D2*
G1X266667Y156650D1*
G1X270833Y156650D2*
G1X274567Y156650D1*
G1X278733Y156650D2*
G1X282467Y156650D1*
G1X286633Y156650D2*
G1X290367Y156650D1*
G1X294533Y156650D2*
G1X298267Y156650D1*
G1X302433Y156650D2*
G1X306167Y156650D1*
G1X310333Y156650D2*
G1X314067Y156650D1*
G1X318233Y156650D2*
G1X321967Y156650D1*
G1X334282Y156650D2*
G1X359750Y156650D1*
G1X250Y156350D2*
G1X67875Y156350D1*
G1X72825Y156350D2*
G1X257126Y156350D1*
G1X259239Y156350D2*
G1X262461Y156350D1*
G1X264560Y156350D2*
G1X266542Y156350D1*
G1X270957Y156350D2*
G1X274442Y156350D1*
G1X278857Y156350D2*
G1X282342Y156350D1*
G1X286757Y156350D2*
G1X290242Y156350D1*
G1X294657Y156350D2*
G1X298142Y156350D1*
G1X302557Y156350D2*
G1X306042Y156350D1*
G1X310457Y156350D2*
G1X313942Y156350D1*
G1X318357Y156350D2*
G1X321842Y156350D1*
G1X334582Y156350D2*
G1X359750Y156350D1*
G1X250Y156050D2*
G1X67575Y156050D1*
G1X72525Y156050D2*
G1X257054Y156050D1*
G1X259539Y156050D2*
G1X262161Y156050D1*
G1X264608Y156050D2*
G1X266500Y156050D1*
G1X271000Y156050D2*
G1X274400Y156050D1*
G1X278900Y156050D2*
G1X282300Y156050D1*
G1X286800Y156050D2*
G1X290200Y156050D1*
G1X294700Y156050D2*
G1X298100Y156050D1*
G1X302600Y156050D2*
G1X306000Y156050D1*
G1X310500Y156050D2*
G1X313900Y156050D1*
G1X318400Y156050D2*
G1X321800Y156050D1*
G1X334882Y156050D2*
G1X359750Y156050D1*
G1X250Y155750D2*
G1X67275Y155750D1*
G1X72225Y155750D2*
G1X257061Y155750D1*
G1X259739Y155750D2*
G1X261961Y155750D1*
G1X264655Y155750D2*
G1X266500Y155750D1*
G1X271000Y155750D2*
G1X274400Y155750D1*
G1X278900Y155750D2*
G1X282300Y155750D1*
G1X286800Y155750D2*
G1X290200Y155750D1*
G1X294700Y155750D2*
G1X298100Y155750D1*
G1X302600Y155750D2*
G1X306000Y155750D1*
G1X310500Y155750D2*
G1X313900Y155750D1*
G1X318400Y155750D2*
G1X321800Y155750D1*
G1X335182Y155750D2*
G1X359750Y155750D1*
G1X250Y155450D2*
G1X66975Y155450D1*
G1X71925Y155450D2*
G1X257108Y155450D1*
G1X259439Y155450D2*
G1X262261Y155450D1*
G1X264622Y155450D2*
G1X266500Y155450D1*
G1X271000Y155450D2*
G1X274400Y155450D1*
G1X278900Y155450D2*
G1X282300Y155450D1*
G1X286800Y155450D2*
G1X290200Y155450D1*
G1X294700Y155450D2*
G1X298100Y155450D1*
G1X302600Y155450D2*
G1X306000Y155450D1*
G1X310500Y155450D2*
G1X313900Y155450D1*
G1X318400Y155450D2*
G1X321800Y155450D1*
G1X326300Y155450D2*
G1X326325Y155450D1*
G1X335482Y155450D2*
G1X359750Y155450D1*
G1X250Y155150D2*
G1X66675Y155150D1*
G1X71625Y155150D2*
G1X257156Y155150D1*
G1X259139Y155150D2*
G1X262561Y155150D1*
G1X264550Y155150D2*
G1X266584Y155150D1*
G1X270916Y155150D2*
G1X274484Y155150D1*
G1X278816Y155150D2*
G1X282384Y155150D1*
G1X286716Y155150D2*
G1X290284Y155150D1*
G1X294616Y155150D2*
G1X298184Y155150D1*
G1X302516Y155150D2*
G1X306084Y155150D1*
G1X310416Y155150D2*
G1X313984Y155150D1*
G1X318316Y155150D2*
G1X321884Y155150D1*
G1X326216Y155150D2*
G1X326625Y155150D1*
G1X335782Y155150D2*
G1X359750Y155150D1*
G1X250Y154850D2*
G1X66375Y154850D1*
G1X71325Y154850D2*
G1X257204Y154850D1*
G1X258839Y154850D2*
G1X262861Y154850D1*
G1X264479Y154850D2*
G1X266708Y154850D1*
G1X270792Y154850D2*
G1X274608Y154850D1*
G1X278692Y154850D2*
G1X282508Y154850D1*
G1X286592Y154850D2*
G1X290408Y154850D1*
G1X294492Y154850D2*
G1X298308Y154850D1*
G1X302392Y154850D2*
G1X306208Y154850D1*
G1X310292Y154850D2*
G1X314108Y154850D1*
G1X318192Y154850D2*
G1X322008Y154850D1*
G1X326092Y154850D2*
G1X326925Y154850D1*
G1X336082Y154850D2*
G1X359750Y154850D1*
G1X250Y154550D2*
G1X66075Y154550D1*
G1X71025Y154550D2*
G1X257252Y154550D1*
G1X258539Y154550D2*
G1X260661Y154550D1*
G1X261039Y154550D2*
G1X263161Y154550D1*
G1X264407Y154550D2*
G1X266832Y154550D1*
G1X270667Y154550D2*
G1X274732Y154550D1*
G1X278567Y154550D2*
G1X282632Y154550D1*
G1X286467Y154550D2*
G1X290532Y154550D1*
G1X294367Y154550D2*
G1X298432Y154550D1*
G1X302267Y154550D2*
G1X306332Y154550D1*
G1X310167Y154550D2*
G1X314232Y154550D1*
G1X318067Y154550D2*
G1X322132Y154550D1*
G1X325967Y154550D2*
G1X327000Y154550D1*
G1X336382Y154550D2*
G1X359750Y154550D1*
G1X250Y154250D2*
G1X65775Y154250D1*
G1X70725Y154250D2*
G1X257357Y154250D1*
G1X258239Y154250D2*
G1X260361Y154250D1*
G1X261339Y154250D2*
G1X263461Y154250D1*
G1X264335Y154250D2*
G1X267118Y154250D1*
G1X270382Y154250D2*
G1X275018Y154250D1*
G1X278282Y154250D2*
G1X282918Y154250D1*
G1X286182Y154250D2*
G1X290818Y154250D1*
G1X294082Y154250D2*
G1X298718Y154250D1*
G1X301982Y154250D2*
G1X306618Y154250D1*
G1X309882Y154250D2*
G1X314518Y154250D1*
G1X317782Y154250D2*
G1X322418Y154250D1*
G1X325682Y154250D2*
G1X327000Y154250D1*
G1X336682Y154250D2*
G1X359750Y154250D1*
G1X250Y153950D2*
G1X65475Y153950D1*
G1X70425Y153950D2*
G1X260061Y153950D1*
G1X261639Y153950D2*
G1X267418Y153950D1*
G1X270082Y153950D2*
G1X275318Y153950D1*
G1X277982Y153950D2*
G1X283218Y153950D1*
G1X285882Y153950D2*
G1X291118Y153950D1*
G1X293782Y153950D2*
G1X299018Y153950D1*
G1X301682Y153950D2*
G1X306918Y153950D1*
G1X309582Y153950D2*
G1X314818Y153950D1*
G1X317482Y153950D2*
G1X322718Y153950D1*
G1X325382Y153950D2*
G1X327000Y153950D1*
G1X336982Y153950D2*
G1X359750Y153950D1*
G1X250Y153650D2*
G1X65175Y153650D1*
G1X70125Y153650D2*
G1X259761Y153650D1*
G1X261939Y153650D2*
G1X268061Y153650D1*
G1X269439Y153650D2*
G1X275961Y153650D1*
G1X277339Y153650D2*
G1X283861Y153650D1*
G1X285239Y153650D2*
G1X291761Y153650D1*
G1X293139Y153650D2*
G1X299661Y153650D1*
G1X301039Y153650D2*
G1X307561Y153650D1*
G1X308939Y153650D2*
G1X315461Y153650D1*
G1X316839Y153650D2*
G1X323361Y153650D1*
G1X324739Y153650D2*
G1X327020Y153650D1*
G1X337282Y153650D2*
G1X359750Y153650D1*
G1X250Y153350D2*
G1X64875Y153350D1*
G1X69825Y153350D2*
G1X259461Y153350D1*
G1X262239Y153350D2*
G1X327080Y153350D1*
G1X337582Y153350D2*
G1X359750Y153350D1*
G1X250Y153050D2*
G1X64575Y153050D1*
G1X69525Y153050D2*
G1X259161Y153050D1*
G1X262539Y153050D2*
G1X327153Y153050D1*
G1X337882Y153050D2*
G1X359750Y153050D1*
G1X250Y152750D2*
G1X64275Y152750D1*
G1X69225Y152750D2*
G1X259182Y152750D1*
G1X262518Y152750D2*
G1X327354Y152750D1*
G1X338182Y152750D2*
G1X359750Y152750D1*
G1X250Y152450D2*
G1X63975Y152450D1*
G1X68925Y152450D2*
G1X259232Y152450D1*
G1X262468Y152450D2*
G1X327575Y152450D1*
G1X338482Y152450D2*
G1X359750Y152450D1*
G1X250Y152150D2*
G1X63675Y152150D1*
G1X68625Y152150D2*
G1X259990Y152150D1*
G1X261774Y152150D2*
G1X327875Y152150D1*
G1X338782Y152150D2*
G1X359750Y152150D1*
G1X250Y151850D2*
G1X63375Y151850D1*
G1X68325Y151850D2*
G1X328175Y151850D1*
G1X339082Y151850D2*
G1X359750Y151850D1*
G1X250Y151550D2*
G1X63075Y151550D1*
G1X68025Y151550D2*
G1X328475Y151550D1*
G1X339382Y151550D2*
G1X359750Y151550D1*
G1X250Y151250D2*
G1X62775Y151250D1*
G1X67725Y151250D2*
G1X328775Y151250D1*
G1X339682Y151250D2*
G1X359750Y151250D1*
G1X250Y150950D2*
G1X62475Y150950D1*
G1X67425Y150950D2*
G1X329075Y150950D1*
G1X339982Y150950D2*
G1X359750Y150950D1*
G1X250Y150650D2*
G1X62175Y150650D1*
G1X67125Y150650D2*
G1X329375Y150650D1*
G1X340282Y150650D2*
G1X359750Y150650D1*
G1X250Y150350D2*
G1X61875Y150350D1*
G1X66825Y150350D2*
G1X329675Y150350D1*
G1X340582Y150350D2*
G1X359750Y150350D1*
G1X250Y150050D2*
G1X61575Y150050D1*
G1X66525Y150050D2*
G1X329975Y150050D1*
G1X340882Y150050D2*
G1X359750Y150050D1*
G1X250Y149750D2*
G1X61275Y149750D1*
G1X66225Y149750D2*
G1X330275Y149750D1*
G1X341182Y149750D2*
G1X359750Y149750D1*
G1X250Y149450D2*
G1X60975Y149450D1*
G1X65925Y149450D2*
G1X330575Y149450D1*
G1X341482Y149450D2*
G1X359750Y149450D1*
G1X250Y149150D2*
G1X60675Y149150D1*
G1X65625Y149150D2*
G1X330875Y149150D1*
G1X341782Y149150D2*
G1X359750Y149150D1*
G1X250Y148850D2*
G1X60375Y148850D1*
G1X65325Y148850D2*
G1X331175Y148850D1*
G1X342082Y148850D2*
G1X359750Y148850D1*
G1X250Y148550D2*
G1X60134Y148550D1*
G1X65025Y148550D2*
G1X331475Y148550D1*
G1X342382Y148550D2*
G1X359750Y148550D1*
G1X250Y148250D2*
G1X59934Y148250D1*
G1X64725Y148250D2*
G1X331775Y148250D1*
G1X342682Y148250D2*
G1X359750Y148250D1*
G1X250Y147950D2*
G1X59832Y147950D1*
G1X64425Y147950D2*
G1X332075Y147950D1*
G1X342982Y147950D2*
G1X359750Y147950D1*
G1X250Y147650D2*
G1X59772Y147650D1*
G1X64125Y147650D2*
G1X332375Y147650D1*
G1X343282Y147650D2*
G1X359750Y147650D1*
G1X250Y147350D2*
G1X59740Y147350D1*
G1X63825Y147350D2*
G1X332675Y147350D1*
G1X343582Y147350D2*
G1X359750Y147350D1*
G1X250Y147050D2*
G1X59740Y147050D1*
G1X63525Y147050D2*
G1X332975Y147050D1*
G1X343882Y147050D2*
G1X359750Y147050D1*
G1X250Y146750D2*
G1X59740Y146750D1*
G1X63240Y146750D2*
G1X333275Y146750D1*
G1X344182Y146750D2*
G1X359750Y146750D1*
G1X250Y146450D2*
G1X59740Y146450D1*
G1X63240Y146450D2*
G1X333575Y146450D1*
G1X344482Y146450D2*
G1X359750Y146450D1*
G1X250Y146150D2*
G1X59740Y146150D1*
G1X63240Y146150D2*
G1X200262Y146150D1*
G1X201739Y146150D2*
G1X333875Y146150D1*
G1X344782Y146150D2*
G1X359750Y146150D1*
G1X250Y145850D2*
G1X59740Y145850D1*
G1X63240Y145850D2*
G1X199565Y145850D1*
G1X202436Y145850D2*
G1X334175Y145850D1*
G1X345082Y145850D2*
G1X359750Y145850D1*
G1X250Y145550D2*
G1X59740Y145550D1*
G1X63240Y145550D2*
G1X199265Y145550D1*
G1X202736Y145550D2*
G1X334475Y145550D1*
G1X345382Y145550D2*
G1X359750Y145550D1*
G1X250Y145250D2*
G1X59740Y145250D1*
G1X63240Y145250D2*
G1X198964Y145250D1*
G1X203035Y145250D2*
G1X334775Y145250D1*
G1X345682Y145250D2*
G1X359750Y145250D1*
G1X250Y144950D2*
G1X59740Y144950D1*
G1X63240Y144950D2*
G1X198791Y144950D1*
G1X203209Y144950D2*
G1X335075Y144950D1*
G1X345982Y144950D2*
G1X359750Y144950D1*
G1X250Y144650D2*
G1X59740Y144650D1*
G1X63240Y144650D2*
G1X198667Y144650D1*
G1X203333Y144650D2*
G1X335375Y144650D1*
G1X346282Y144650D2*
G1X359750Y144650D1*
G1X250Y144350D2*
G1X59740Y144350D1*
G1X63240Y144350D2*
G1X198542Y144350D1*
G1X203457Y144350D2*
G1X335675Y144350D1*
G1X346582Y144350D2*
G1X359750Y144350D1*
G1X250Y144050D2*
G1X59740Y144050D1*
G1X63240Y144050D2*
G1X198500Y144050D1*
G1X203500Y144050D2*
G1X335975Y144050D1*
G1X346882Y144050D2*
G1X359750Y144050D1*
G1X250Y143750D2*
G1X59740Y143750D1*
G1X63240Y143750D2*
G1X198500Y143750D1*
G1X203500Y143750D2*
G1X336275Y143750D1*
G1X347182Y143750D2*
G1X359750Y143750D1*
G1X250Y143450D2*
G1X59740Y143450D1*
G1X63240Y143450D2*
G1X198500Y143450D1*
G1X203500Y143450D2*
G1X336575Y143450D1*
G1X347482Y143450D2*
G1X359750Y143450D1*
G1X250Y143150D2*
G1X59740Y143150D1*
G1X63240Y143150D2*
G1X198543Y143150D1*
G1X203458Y143150D2*
G1X336875Y143150D1*
G1X347782Y143150D2*
G1X359750Y143150D1*
G1X250Y142850D2*
G1X59740Y142850D1*
G1X63240Y142850D2*
G1X198667Y142850D1*
G1X203333Y142850D2*
G1X337175Y142850D1*
G1X348082Y142850D2*
G1X359750Y142850D1*
G1X250Y142550D2*
G1X59740Y142550D1*
G1X63240Y142550D2*
G1X198791Y142550D1*
G1X203209Y142550D2*
G1X337475Y142550D1*
G1X348382Y142550D2*
G1X359750Y142550D1*
G1X250Y142250D2*
G1X59740Y142250D1*
G1X63240Y142250D2*
G1X198965Y142250D1*
G1X203036Y142250D2*
G1X337775Y142250D1*
G1X348682Y142250D2*
G1X359750Y142250D1*
G1X250Y141950D2*
G1X59740Y141950D1*
G1X63240Y141950D2*
G1X199264Y141950D1*
G1X202735Y141950D2*
G1X338075Y141950D1*
G1X348982Y141950D2*
G1X359750Y141950D1*
G1X250Y141650D2*
G1X59740Y141650D1*
G1X63240Y141650D2*
G1X199564Y141650D1*
G1X202435Y141650D2*
G1X338375Y141650D1*
G1X349282Y141650D2*
G1X359750Y141650D1*
G1X250Y141350D2*
G1X59740Y141350D1*
G1X63240Y141350D2*
G1X200261Y141350D1*
G1X201738Y141350D2*
G1X338675Y141350D1*
G1X349582Y141350D2*
G1X359750Y141350D1*
G1X250Y141050D2*
G1X59740Y141050D1*
G1X63240Y141050D2*
G1X338975Y141050D1*
G1X349882Y141050D2*
G1X359750Y141050D1*
G1X250Y140750D2*
G1X59740Y140750D1*
G1X63240Y140750D2*
G1X339275Y140750D1*
G1X350182Y140750D2*
G1X359750Y140750D1*
G1X250Y140450D2*
G1X59740Y140450D1*
G1X63240Y140450D2*
G1X339575Y140450D1*
G1X350482Y140450D2*
G1X359750Y140450D1*
G1X250Y140150D2*
G1X59740Y140150D1*
G1X63240Y140150D2*
G1X339875Y140150D1*
G1X350782Y140150D2*
G1X359750Y140150D1*
G1X250Y139850D2*
G1X59740Y139850D1*
G1X63240Y139850D2*
G1X340175Y139850D1*
G1X351082Y139850D2*
G1X359750Y139850D1*
G1X250Y139550D2*
G1X59740Y139550D1*
G1X63240Y139550D2*
G1X340475Y139550D1*
G1X351382Y139550D2*
G1X359750Y139550D1*
G1X250Y139250D2*
G1X59740Y139250D1*
G1X63240Y139250D2*
G1X340775Y139250D1*
G1X351682Y139250D2*
G1X359750Y139250D1*
G1X250Y138950D2*
G1X59740Y138950D1*
G1X63240Y138950D2*
G1X341075Y138950D1*
G1X351982Y138950D2*
G1X359750Y138950D1*
G1X250Y138650D2*
G1X59740Y138650D1*
G1X63240Y138650D2*
G1X341375Y138650D1*
G1X352282Y138650D2*
G1X359750Y138650D1*
G1X250Y138350D2*
G1X59740Y138350D1*
G1X63240Y138350D2*
G1X341675Y138350D1*
G1X352582Y138350D2*
G1X359750Y138350D1*
G1X250Y138050D2*
G1X59740Y138050D1*
G1X63240Y138050D2*
G1X341975Y138050D1*
G1X352882Y138050D2*
G1X359750Y138050D1*
G1X250Y137750D2*
G1X59740Y137750D1*
G1X63240Y137750D2*
G1X342275Y137750D1*
G1X353182Y137750D2*
G1X359750Y137750D1*
G1X250Y137450D2*
G1X59740Y137450D1*
G1X63240Y137450D2*
G1X342575Y137450D1*
G1X353482Y137450D2*
G1X359750Y137450D1*
G1X250Y137150D2*
G1X59740Y137150D1*
G1X63240Y137150D2*
G1X342875Y137150D1*
G1X353782Y137150D2*
G1X359750Y137150D1*
G1X250Y136850D2*
G1X59740Y136850D1*
G1X63240Y136850D2*
G1X343175Y136850D1*
G1X354082Y136850D2*
G1X359750Y136850D1*
G1X250Y136550D2*
G1X59740Y136550D1*
G1X63240Y136550D2*
G1X343475Y136550D1*
G1X354382Y136550D2*
G1X359750Y136550D1*
G1X250Y136250D2*
G1X59740Y136250D1*
G1X63240Y136250D2*
G1X200504Y136250D1*
G1X201000Y136250D2*
G1X343775Y136250D1*
G1X354682Y136250D2*
G1X359750Y136250D1*
G1X250Y135950D2*
G1X59740Y135950D1*
G1X63240Y135950D2*
G1X199778Y135950D1*
G1X202221Y135950D2*
G1X344075Y135950D1*
G1X354982Y135950D2*
G1X359750Y135950D1*
G1X250Y135650D2*
G1X59740Y135650D1*
G1X63240Y135650D2*
G1X77134Y135650D1*
G1X80201Y135650D2*
G1X199365Y135650D1*
G1X202636Y135650D2*
G1X344375Y135650D1*
G1X355282Y135650D2*
G1X359750Y135650D1*
G1X250Y135350D2*
G1X59740Y135350D1*
G1X63240Y135350D2*
G1X76826Y135350D1*
G1X80502Y135350D2*
G1X199064Y135350D1*
G1X202935Y135350D2*
G1X344675Y135350D1*
G1X355582Y135350D2*
G1X359750Y135350D1*
G1X250Y135050D2*
G1X59740Y135050D1*
G1X63240Y135050D2*
G1X76733Y135050D1*
G1X80599Y135050D2*
G1X198833Y135050D1*
G1X203168Y135050D2*
G1X344975Y135050D1*
G1X355882Y135050D2*
G1X359750Y135050D1*
G1X250Y134750D2*
G1X59740Y134750D1*
G1X63240Y134750D2*
G1X76720Y134750D1*
G1X80611Y134750D2*
G1X198708Y134750D1*
G1X203292Y134750D2*
G1X345275Y134750D1*
G1X356182Y134750D2*
G1X359750Y134750D1*
G1X250Y134450D2*
G1X59740Y134450D1*
G1X63240Y134450D2*
G1X76720Y134450D1*
G1X80611Y134450D2*
G1X198584Y134450D1*
G1X203416Y134450D2*
G1X345575Y134450D1*
G1X356482Y134450D2*
G1X359750Y134450D1*
G1X250Y134150D2*
G1X59740Y134150D1*
G1X63240Y134150D2*
G1X76720Y134150D1*
G1X80611Y134150D2*
G1X198500Y134150D1*
G1X203500Y134150D2*
G1X345875Y134150D1*
G1X356782Y134150D2*
G1X359750Y134150D1*
G1X250Y133850D2*
G1X59740Y133850D1*
G1X63240Y133850D2*
G1X76720Y133850D1*
G1X80611Y133850D2*
G1X198500Y133850D1*
G1X203500Y133850D2*
G1X346175Y133850D1*
G1X357082Y133850D2*
G1X359750Y133850D1*
G1X250Y133550D2*
G1X59740Y133550D1*
G1X63240Y133550D2*
G1X76720Y133550D1*
G1X80611Y133550D2*
G1X198500Y133550D1*
G1X203500Y133550D2*
G1X346475Y133550D1*
G1X357382Y133550D2*
G1X359750Y133550D1*
G1X250Y133250D2*
G1X59740Y133250D1*
G1X63240Y133250D2*
G1X76720Y133250D1*
G1X80611Y133250D2*
G1X198502Y133250D1*
G1X203499Y133250D2*
G1X346775Y133250D1*
G1X357652Y133250D2*
G1X359750Y133250D1*
G1X250Y132950D2*
G1X59740Y132950D1*
G1X63240Y132950D2*
G1X76732Y132950D1*
G1X80598Y132950D2*
G1X198626Y132950D1*
G1X203375Y132950D2*
G1X347075Y132950D1*
G1X357852Y132950D2*
G1X359750Y132950D1*
G1X250Y132650D2*
G1X59740Y132650D1*
G1X63240Y132650D2*
G1X76828Y132650D1*
G1X80504Y132650D2*
G1X198750Y132650D1*
G1X203250Y132650D2*
G1X347375Y132650D1*
G1X358053Y132650D2*
G1X359750Y132650D1*
G1X250Y132350D2*
G1X59740Y132350D1*
G1X63240Y132350D2*
G1X77130Y132350D1*
G1X80197Y132350D2*
G1X198873Y132350D1*
G1X203126Y132350D2*
G1X347675Y132350D1*
G1X358131Y132350D2*
G1X359750Y132350D1*
G1X250Y132050D2*
G1X59740Y132050D1*
G1X63240Y132050D2*
G1X77415Y132050D1*
G1X79915Y132050D2*
G1X199165Y132050D1*
G1X202836Y132050D2*
G1X347975Y132050D1*
G1X358190Y132050D2*
G1X359750Y132050D1*
G1X250Y131750D2*
G1X59740Y131750D1*
G1X63240Y131750D2*
G1X74871Y131750D1*
G1X82687Y131750D2*
G1X199464Y131750D1*
G1X202535Y131750D2*
G1X348275Y131750D1*
G1X358250Y131750D2*
G1X359750Y131750D1*
G1X250Y131450D2*
G1X59740Y131450D1*
G1X63240Y131450D2*
G1X74571Y131450D1*
G1X82982Y131450D2*
G1X200020Y131450D1*
G1X201980Y131450D2*
G1X348575Y131450D1*
G1X358250Y131450D2*
G1X359750Y131450D1*
G1X250Y131150D2*
G1X59740Y131150D1*
G1X63240Y131150D2*
G1X74481Y131150D1*
G1X83075Y131150D2*
G1X348875Y131150D1*
G1X358250Y131150D2*
G1X359750Y131150D1*
G1X250Y130850D2*
G1X59740Y130850D1*
G1X63240Y130850D2*
G1X74470Y130850D1*
G1X83086Y130850D2*
G1X349175Y130850D1*
G1X358250Y130850D2*
G1X359750Y130850D1*
G1X250Y130550D2*
G1X59740Y130550D1*
G1X63240Y130550D2*
G1X74470Y130550D1*
G1X83086Y130550D2*
G1X349475Y130550D1*
G1X358250Y130550D2*
G1X359750Y130550D1*
G1X250Y130250D2*
G1X59740Y130250D1*
G1X63240Y130250D2*
G1X74470Y130250D1*
G1X83086Y130250D2*
G1X349775Y130250D1*
G1X358250Y130250D2*
G1X359750Y130250D1*
G1X250Y129950D2*
G1X59740Y129950D1*
G1X63240Y129950D2*
G1X74470Y129950D1*
G1X83086Y129950D2*
G1X350075Y129950D1*
G1X358250Y129950D2*
G1X359750Y129950D1*
G1X250Y129650D2*
G1X59740Y129650D1*
G1X63240Y129650D2*
G1X74470Y129650D1*
G1X83086Y129650D2*
G1X350375Y129650D1*
G1X358250Y129650D2*
G1X359750Y129650D1*
G1X250Y129350D2*
G1X59740Y129350D1*
G1X63240Y129350D2*
G1X74470Y129350D1*
G1X83086Y129350D2*
G1X350500Y129350D1*
G1X358250Y129350D2*
G1X359750Y129350D1*
G1X250Y129050D2*
G1X59740Y129050D1*
G1X63240Y129050D2*
G1X74470Y129050D1*
G1X83086Y129050D2*
G1X350500Y129050D1*
G1X358250Y129050D2*
G1X359750Y129050D1*
G1X250Y128750D2*
G1X59740Y128750D1*
G1X63240Y128750D2*
G1X74470Y128750D1*
G1X83086Y128750D2*
G1X350500Y128750D1*
G1X358250Y128750D2*
G1X359750Y128750D1*
G1X250Y128450D2*
G1X59740Y128450D1*
G1X63240Y128450D2*
G1X74470Y128450D1*
G1X83086Y128450D2*
G1X350500Y128450D1*
G1X358250Y128450D2*
G1X359750Y128450D1*
G1X250Y128150D2*
G1X59740Y128150D1*
G1X63240Y128150D2*
G1X74470Y128150D1*
G1X83086Y128150D2*
G1X350500Y128150D1*
G1X358250Y128150D2*
G1X359750Y128150D1*
G1X250Y127850D2*
G1X59740Y127850D1*
G1X63240Y127850D2*
G1X74470Y127850D1*
G1X83086Y127850D2*
G1X350500Y127850D1*
G1X358250Y127850D2*
G1X359750Y127850D1*
G1X250Y127550D2*
G1X59740Y127550D1*
G1X63240Y127550D2*
G1X74470Y127550D1*
G1X83086Y127550D2*
G1X350500Y127550D1*
G1X358250Y127550D2*
G1X359750Y127550D1*
G1X250Y127250D2*
G1X59740Y127250D1*
G1X63240Y127250D2*
G1X74470Y127250D1*
G1X83086Y127250D2*
G1X350500Y127250D1*
G1X358250Y127250D2*
G1X359750Y127250D1*
G1X250Y126950D2*
G1X24316Y126950D1*
G1X24624Y126950D2*
G1X59740Y126950D1*
G1X63240Y126950D2*
G1X74470Y126950D1*
G1X83086Y126950D2*
G1X350500Y126950D1*
G1X358250Y126950D2*
G1X359750Y126950D1*
G1X250Y126650D2*
G1X22638Y126650D1*
G1X25779Y126650D2*
G1X59740Y126650D1*
G1X63240Y126650D2*
G1X74470Y126650D1*
G1X83086Y126650D2*
G1X350500Y126650D1*
G1X358250Y126650D2*
G1X359750Y126650D1*
G1X250Y126350D2*
G1X22377Y126350D1*
G1X26167Y126350D2*
G1X59740Y126350D1*
G1X63240Y126350D2*
G1X74470Y126350D1*
G1X83086Y126350D2*
G1X350500Y126350D1*
G1X358250Y126350D2*
G1X359750Y126350D1*
G1X250Y126050D2*
G1X22308Y126050D1*
G1X26235Y126050D2*
G1X59740Y126050D1*
G1X63240Y126050D2*
G1X74470Y126050D1*
G1X83086Y126050D2*
G1X200020Y126050D1*
G1X201980Y126050D2*
G1X350500Y126050D1*
G1X358250Y126050D2*
G1X359750Y126050D1*
G1X250Y125750D2*
G1X22326Y125750D1*
G1X26217Y125750D2*
G1X59740Y125750D1*
G1X63240Y125750D2*
G1X74470Y125750D1*
G1X83086Y125750D2*
G1X199465Y125750D1*
G1X202536Y125750D2*
G1X350500Y125750D1*
G1X358250Y125750D2*
G1X359750Y125750D1*
G1X250Y125450D2*
G1X22626Y125450D1*
G1X25917Y125450D2*
G1X59740Y125450D1*
G1X63240Y125450D2*
G1X74470Y125450D1*
G1X83086Y125450D2*
G1X199164Y125450D1*
G1X202835Y125450D2*
G1X350500Y125450D1*
G1X358250Y125450D2*
G1X359750Y125450D1*
G1X250Y125150D2*
G1X22926Y125150D1*
G1X25617Y125150D2*
G1X59740Y125150D1*
G1X63240Y125150D2*
G1X74470Y125150D1*
G1X83086Y125150D2*
G1X198874Y125150D1*
G1X203127Y125150D2*
G1X350500Y125150D1*
G1X358250Y125150D2*
G1X359750Y125150D1*
G1X250Y124850D2*
G1X23226Y124850D1*
G1X25317Y124850D2*
G1X59740Y124850D1*
G1X63240Y124850D2*
G1X74470Y124850D1*
G1X83086Y124850D2*
G1X198750Y124850D1*
G1X203251Y124850D2*
G1X350500Y124850D1*
G1X358250Y124850D2*
G1X359750Y124850D1*
G1X250Y124550D2*
G1X20443Y124550D1*
G1X21405Y124550D2*
G1X23526Y124550D1*
G1X25017Y124550D2*
G1X27138Y124550D1*
G1X28106Y124550D2*
G1X59740Y124550D1*
G1X63240Y124550D2*
G1X74470Y124550D1*
G1X83086Y124550D2*
G1X87480Y124550D1*
G1X89020Y124550D2*
G1X198625Y124550D1*
G1X203374Y124550D2*
G1X350500Y124550D1*
G1X358250Y124550D2*
G1X359750Y124550D1*
G1X250Y124250D2*
G1X20365Y124250D1*
G1X21705Y124250D2*
G1X23826Y124250D1*
G1X24717Y124250D2*
G1X26838Y124250D1*
G1X28231Y124250D2*
G1X59740Y124250D1*
G1X63240Y124250D2*
G1X74470Y124250D1*
G1X83086Y124250D2*
G1X87031Y124250D1*
G1X89469Y124250D2*
G1X198501Y124250D1*
G1X203498Y124250D2*
G1X350500Y124250D1*
G1X358250Y124250D2*
G1X359750Y124250D1*
G1X250Y123950D2*
G1X20287Y123950D1*
G1X22005Y123950D2*
G1X24126Y123950D1*
G1X24417Y123950D2*
G1X26538Y123950D1*
G1X28303Y123950D2*
G1X59740Y123950D1*
G1X63240Y123950D2*
G1X74470Y123950D1*
G1X83086Y123950D2*
G1X86821Y123950D1*
G1X89679Y123950D2*
G1X198500Y123950D1*
G1X203500Y123950D2*
G1X350500Y123950D1*
G1X358250Y123950D2*
G1X359750Y123950D1*
G1X250Y123650D2*
G1X20209Y123650D1*
G1X22305Y123650D2*
G1X26238Y123650D1*
G1X28345Y123650D2*
G1X59740Y123650D1*
G1X63240Y123650D2*
G1X74470Y123650D1*
G1X83086Y123650D2*
G1X86629Y123650D1*
G1X89871Y123650D2*
G1X198500Y123650D1*
G1X203500Y123650D2*
G1X350500Y123650D1*
G1X358250Y123650D2*
G1X359750Y123650D1*
G1X250Y123350D2*
G1X20132Y123350D1*
G1X22605Y123350D2*
G1X25938Y123350D1*
G1X28387Y123350D2*
G1X59740Y123350D1*
G1X63240Y123350D2*
G1X74470Y123350D1*
G1X83086Y123350D2*
G1X86570Y123350D1*
G1X89930Y123350D2*
G1X198500Y123350D1*
G1X203500Y123350D2*
G1X350500Y123350D1*
G1X358250Y123350D2*
G1X359750Y123350D1*
G1X250Y123050D2*
G1X20054Y123050D1*
G1X22905Y123050D2*
G1X25638Y123050D1*
G1X28429Y123050D2*
G1X59740Y123050D1*
G1X63240Y123050D2*
G1X74470Y123050D1*
G1X83086Y123050D2*
G1X86510Y123050D1*
G1X89990Y123050D2*
G1X198584Y123050D1*
G1X203416Y123050D2*
G1X350500Y123050D1*
G1X358250Y123050D2*
G1X359750Y123050D1*
G1X250Y122750D2*
G1X20071Y122750D1*
G1X23205Y122750D2*
G1X25338Y122750D1*
G1X28471Y122750D2*
G1X59740Y122750D1*
G1X63240Y122750D2*
G1X74484Y122750D1*
G1X83070Y122750D2*
G1X86500Y122750D1*
G1X90000Y122750D2*
G1X198708Y122750D1*
G1X203292Y122750D2*
G1X350500Y122750D1*
G1X358250Y122750D2*
G1X359750Y122750D1*
G1X250Y122450D2*
G1X20113Y122450D1*
G1X22917Y122450D2*
G1X25626Y122450D1*
G1X28493Y122450D2*
G1X59740Y122450D1*
G1X63240Y122450D2*
G1X74584Y122450D1*
G1X82972Y122450D2*
G1X86500Y122450D1*
G1X90000Y122450D2*
G1X198832Y122450D1*
G1X203167Y122450D2*
G1X350500Y122450D1*
G1X358250Y122450D2*
G1X359750Y122450D1*
G1X250Y122150D2*
G1X20155Y122150D1*
G1X22617Y122150D2*
G1X25926Y122150D1*
G1X28415Y122150D2*
G1X51309Y122150D1*
G1X56715Y122150D2*
G1X58790Y122150D1*
G1X64195Y122150D2*
G1X74893Y122150D1*
G1X82657Y122150D2*
G1X86500Y122150D1*
G1X90000Y122150D2*
G1X199065Y122150D1*
G1X202936Y122150D2*
G1X350500Y122150D1*
G1X358250Y122150D2*
G1X359750Y122150D1*
G1X250Y121850D2*
G1X20197Y121850D1*
G1X22317Y121850D2*
G1X26226Y121850D1*
G1X28337Y121850D2*
G1X50995Y121850D1*
G1X57023Y121850D2*
G1X58476Y121850D1*
G1X64503Y121850D2*
G1X86500Y121850D1*
G1X90000Y121850D2*
G1X199364Y121850D1*
G1X202635Y121850D2*
G1X350500Y121850D1*
G1X358250Y121850D2*
G1X359750Y121850D1*
G1X250Y121550D2*
G1X20238Y121550D1*
G1X22017Y121550D2*
G1X24138Y121550D1*
G1X24405Y121550D2*
G1X26526Y121550D1*
G1X28259Y121550D2*
G1X47973Y121550D1*
G1X57123Y121550D2*
G1X58378Y121550D1*
G1X64603Y121550D2*
G1X86500Y121550D1*
G1X90000Y121550D2*
G1X199779Y121550D1*
G1X202222Y121550D2*
G1X350500Y121550D1*
G1X358250Y121550D2*
G1X359750Y121550D1*
G1X250Y121250D2*
G1X20308Y121250D1*
G1X21717Y121250D2*
G1X23838Y121250D1*
G1X24705Y121250D2*
G1X26826Y121250D1*
G1X28181Y121250D2*
G1X47799Y121250D1*
G1X57137Y121250D2*
G1X58363Y121250D1*
G1X64617Y121250D2*
G1X86500Y121250D1*
G1X90000Y121250D2*
G1X201000Y121250D1*
G1X201496Y121250D2*
G1X350500Y121250D1*
G1X358250Y121250D2*
G1X359750Y121250D1*
G1X250Y120950D2*
G1X20432Y120950D1*
G1X21417Y120950D2*
G1X23538Y120950D1*
G1X25005Y120950D2*
G1X27126Y120950D1*
G1X28103Y120950D2*
G1X47751Y120950D1*
G1X57137Y120950D2*
G1X58363Y120950D1*
G1X64617Y120950D2*
G1X86500Y120950D1*
G1X90000Y120950D2*
G1X350500Y120950D1*
G1X358250Y120950D2*
G1X359750Y120950D1*
G1X250Y120650D2*
G1X23238Y120650D1*
G1X25305Y120650D2*
G1X47751Y120650D1*
G1X57137Y120650D2*
G1X58363Y120650D1*
G1X64617Y120650D2*
G1X86500Y120650D1*
G1X90000Y120650D2*
G1X350500Y120650D1*
G1X358250Y120650D2*
G1X359750Y120650D1*
G1X250Y120350D2*
G1X22938Y120350D1*
G1X25605Y120350D2*
G1X47751Y120350D1*
G1X57137Y120350D2*
G1X58363Y120350D1*
G1X64617Y120350D2*
G1X65843Y120350D1*
G1X73607Y120350D2*
G1X86500Y120350D1*
G1X90000Y120350D2*
G1X350500Y120350D1*
G1X358250Y120350D2*
G1X359750Y120350D1*
G1X250Y120050D2*
G1X22638Y120050D1*
G1X25905Y120050D2*
G1X47751Y120050D1*
G1X57137Y120050D2*
G1X58363Y120050D1*
G1X64617Y120050D2*
G1X65528Y120050D1*
G1X73916Y120050D2*
G1X86500Y120050D1*
G1X90000Y120050D2*
G1X350500Y120050D1*
G1X358250Y120050D2*
G1X359750Y120050D1*
G1X250Y119750D2*
G1X22338Y119750D1*
G1X26205Y119750D2*
G1X47751Y119750D1*
G1X57137Y119750D2*
G1X58363Y119750D1*
G1X64617Y119750D2*
G1X65430Y119750D1*
G1X74016Y119750D2*
G1X86500Y119750D1*
G1X90000Y119750D2*
G1X350500Y119750D1*
G1X358250Y119750D2*
G1X359750Y119750D1*
G1X250Y119450D2*
G1X22305Y119450D1*
G1X26238Y119450D2*
G1X47751Y119450D1*
G1X57137Y119450D2*
G1X58363Y119450D1*
G1X64617Y119450D2*
G1X65414Y119450D1*
G1X74030Y119450D2*
G1X86500Y119450D1*
G1X90000Y119450D2*
G1X350500Y119450D1*
G1X358250Y119450D2*
G1X359750Y119450D1*
G1X250Y119150D2*
G1X22374Y119150D1*
G1X26169Y119150D2*
G1X47751Y119150D1*
G1X57335Y119150D2*
G1X58165Y119150D1*
G1X64617Y119150D2*
G1X65414Y119150D1*
G1X74030Y119150D2*
G1X86500Y119150D1*
G1X90000Y119150D2*
G1X350500Y119150D1*
G1X358250Y119150D2*
G1X359750Y119150D1*
G1X250Y118850D2*
G1X22719Y118850D1*
G1X25934Y118850D2*
G1X47751Y118850D1*
G1X57586Y118850D2*
G1X57865Y118850D1*
G1X64617Y118850D2*
G1X65414Y118850D1*
G1X74030Y118850D2*
G1X86500Y118850D1*
G1X90000Y118850D2*
G1X350500Y118850D1*
G1X358250Y118850D2*
G1X359750Y118850D1*
G1X250Y118550D2*
G1X23874Y118550D1*
G1X24312Y118550D2*
G1X47771Y118550D1*
G1X64617Y118550D2*
G1X65414Y118550D1*
G1X74030Y118550D2*
G1X86500Y118550D1*
G1X90000Y118550D2*
G1X350500Y118550D1*
G1X358250Y118550D2*
G1X359750Y118550D1*
G1X250Y118250D2*
G1X47884Y118250D1*
G1X64562Y118250D2*
G1X65414Y118250D1*
G1X74030Y118250D2*
G1X86500Y118250D1*
G1X90000Y118250D2*
G1X350500Y118250D1*
G1X358250Y118250D2*
G1X359750Y118250D1*
G1X250Y117950D2*
G1X48217Y117950D1*
G1X50776Y117950D2*
G1X51159Y117950D1*
G1X64346Y117950D2*
G1X65414Y117950D1*
G1X74030Y117950D2*
G1X86500Y117950D1*
G1X90000Y117950D2*
G1X350500Y117950D1*
G1X358250Y117950D2*
G1X359750Y117950D1*
G1X250Y117650D2*
G1X53885Y117650D1*
G1X61615Y117650D2*
G1X65414Y117650D1*
G1X74030Y117650D2*
G1X86500Y117650D1*
G1X90000Y117650D2*
G1X350500Y117650D1*
G1X358250Y117650D2*
G1X359750Y117650D1*
G1X250Y117350D2*
G1X54185Y117350D1*
G1X61315Y117350D2*
G1X65414Y117350D1*
G1X74030Y117350D2*
G1X86500Y117350D1*
G1X90000Y117350D2*
G1X350500Y117350D1*
G1X358250Y117350D2*
G1X359750Y117350D1*
G1X250Y117050D2*
G1X54485Y117050D1*
G1X61015Y117050D2*
G1X65414Y117050D1*
G1X74030Y117050D2*
G1X86500Y117050D1*
G1X90000Y117050D2*
G1X350500Y117050D1*
G1X358250Y117050D2*
G1X359750Y117050D1*
G1X250Y116750D2*
G1X54500Y116750D1*
G1X60750Y116750D2*
G1X65414Y116750D1*
G1X74030Y116750D2*
G1X86500Y116750D1*
G1X90000Y116750D2*
G1X350500Y116750D1*
G1X358250Y116750D2*
G1X359750Y116750D1*
G1X250Y116450D2*
G1X54500Y116450D1*
G1X60750Y116450D2*
G1X65414Y116450D1*
G1X74030Y116450D2*
G1X86500Y116450D1*
G1X90000Y116450D2*
G1X350500Y116450D1*
G1X358250Y116450D2*
G1X359750Y116450D1*
G1X250Y116150D2*
G1X54500Y116150D1*
G1X60750Y116150D2*
G1X65414Y116150D1*
G1X74030Y116150D2*
G1X86500Y116150D1*
G1X90000Y116150D2*
G1X200262Y116150D1*
G1X201739Y116150D2*
G1X350500Y116150D1*
G1X358250Y116150D2*
G1X359750Y116150D1*
G1X250Y115850D2*
G1X54500Y115850D1*
G1X60750Y115850D2*
G1X65414Y115850D1*
G1X74030Y115850D2*
G1X86500Y115850D1*
G1X90000Y115850D2*
G1X199565Y115850D1*
G1X202436Y115850D2*
G1X350500Y115850D1*
G1X358250Y115850D2*
G1X359750Y115850D1*
G1X250Y115550D2*
G1X54500Y115550D1*
G1X60750Y115550D2*
G1X65414Y115550D1*
G1X74030Y115550D2*
G1X86500Y115550D1*
G1X90000Y115550D2*
G1X199265Y115550D1*
G1X202736Y115550D2*
G1X350500Y115550D1*
G1X358250Y115550D2*
G1X359750Y115550D1*
G1X250Y115250D2*
G1X54500Y115250D1*
G1X60749Y115250D2*
G1X65414Y115250D1*
G1X74030Y115250D2*
G1X86500Y115250D1*
G1X90000Y115250D2*
G1X198964Y115250D1*
G1X203035Y115250D2*
G1X350500Y115250D1*
G1X358250Y115250D2*
G1X359750Y115250D1*
G1X250Y114950D2*
G1X54500Y114950D1*
G1X60749Y114950D2*
G1X65414Y114950D1*
G1X74030Y114950D2*
G1X86500Y114950D1*
G1X90000Y114950D2*
G1X198791Y114950D1*
G1X203209Y114950D2*
G1X350500Y114950D1*
G1X358250Y114950D2*
G1X359750Y114950D1*
G1X250Y114650D2*
G1X54500Y114650D1*
G1X60749Y114650D2*
G1X65414Y114650D1*
G1X74030Y114650D2*
G1X86500Y114650D1*
G1X90000Y114650D2*
G1X198667Y114650D1*
G1X203333Y114650D2*
G1X350500Y114650D1*
G1X358250Y114650D2*
G1X359750Y114650D1*
G1X250Y114350D2*
G1X54500Y114350D1*
G1X60749Y114350D2*
G1X65414Y114350D1*
G1X74030Y114350D2*
G1X86500Y114350D1*
G1X90000Y114350D2*
G1X198542Y114350D1*
G1X203457Y114350D2*
G1X350500Y114350D1*
G1X358250Y114350D2*
G1X359750Y114350D1*
G1X250Y114050D2*
G1X54500Y114050D1*
G1X60722Y114050D2*
G1X65414Y114050D1*
G1X74030Y114050D2*
G1X86500Y114050D1*
G1X90000Y114050D2*
G1X198500Y114050D1*
G1X203500Y114050D2*
G1X350500Y114050D1*
G1X358250Y114050D2*
G1X359750Y114050D1*
G1X250Y113750D2*
G1X54500Y113750D1*
G1X60595Y113750D2*
G1X65414Y113750D1*
G1X74030Y113750D2*
G1X86500Y113750D1*
G1X90000Y113750D2*
G1X198500Y113750D1*
G1X203500Y113750D2*
G1X350500Y113750D1*
G1X358250Y113750D2*
G1X359750Y113750D1*
G1X250Y113450D2*
G1X54500Y113450D1*
G1X60146Y113450D2*
G1X65414Y113450D1*
G1X74030Y113450D2*
G1X86500Y113450D1*
G1X90000Y113450D2*
G1X198500Y113450D1*
G1X203500Y113450D2*
G1X350500Y113450D1*
G1X358250Y113450D2*
G1X359750Y113450D1*
G1X250Y113150D2*
G1X54500Y113150D1*
G1X58000Y113150D2*
G1X65414Y113150D1*
G1X74030Y113150D2*
G1X86500Y113150D1*
G1X90000Y113150D2*
G1X198543Y113150D1*
G1X203458Y113150D2*
G1X350500Y113150D1*
G1X358250Y113150D2*
G1X359750Y113150D1*
G1X250Y112850D2*
G1X54500Y112850D1*
G1X60384Y112850D2*
G1X65414Y112850D1*
G1X74030Y112850D2*
G1X86500Y112850D1*
G1X90000Y112850D2*
G1X198667Y112850D1*
G1X203333Y112850D2*
G1X350500Y112850D1*
G1X358250Y112850D2*
G1X359750Y112850D1*
G1X250Y112550D2*
G1X54500Y112550D1*
G1X61537Y112550D2*
G1X65414Y112550D1*
G1X74030Y112550D2*
G1X86501Y112550D1*
G1X89999Y112550D2*
G1X198791Y112550D1*
G1X203209Y112550D2*
G1X350500Y112550D1*
G1X358250Y112550D2*
G1X359750Y112550D1*
G1X250Y112250D2*
G1X54500Y112250D1*
G1X61975Y112250D2*
G1X65414Y112250D1*
G1X74030Y112250D2*
G1X86501Y112250D1*
G1X89999Y112250D2*
G1X198965Y112250D1*
G1X203036Y112250D2*
G1X350500Y112250D1*
G1X358250Y112250D2*
G1X359750Y112250D1*
G1X250Y111950D2*
G1X54500Y111950D1*
G1X62275Y111950D2*
G1X65414Y111950D1*
G1X74030Y111950D2*
G1X86501Y111950D1*
G1X89999Y111950D2*
G1X199264Y111950D1*
G1X202735Y111950D2*
G1X350500Y111950D1*
G1X358250Y111950D2*
G1X359750Y111950D1*
G1X250Y111650D2*
G1X54500Y111650D1*
G1X62575Y111650D2*
G1X65414Y111650D1*
G1X74030Y111650D2*
G1X86501Y111650D1*
G1X89999Y111650D2*
G1X199564Y111650D1*
G1X202435Y111650D2*
G1X350500Y111650D1*
G1X358250Y111650D2*
G1X359750Y111650D1*
G1X250Y111350D2*
G1X54500Y111350D1*
G1X62875Y111350D2*
G1X65425Y111350D1*
G1X74019Y111350D2*
G1X86526Y111350D1*
G1X89972Y111350D2*
G1X200261Y111350D1*
G1X201738Y111350D2*
G1X350500Y111350D1*
G1X358250Y111350D2*
G1X359750Y111350D1*
G1X250Y111050D2*
G1X54500Y111050D1*
G1X63175Y111050D2*
G1X65518Y111050D1*
G1X73929Y111050D2*
G1X86654Y111050D1*
G1X89845Y111050D2*
G1X350500Y111050D1*
G1X358250Y111050D2*
G1X359750Y111050D1*
G1X250Y110750D2*
G1X54500Y110750D1*
G1X63475Y110750D2*
G1X65813Y110750D1*
G1X73629Y110750D2*
G1X87115Y110750D1*
G1X89396Y110750D2*
G1X350500Y110750D1*
G1X358250Y110750D2*
G1X359750Y110750D1*
G1X250Y110450D2*
G1X54500Y110450D1*
G1X63775Y110450D2*
G1X68585Y110450D1*
G1X71085Y110450D2*
G1X350500Y110450D1*
G1X358250Y110450D2*
G1X359750Y110450D1*
G1X250Y110150D2*
G1X54500Y110150D1*
G1X64075Y110150D2*
G1X68303Y110150D1*
G1X71370Y110150D2*
G1X350500Y110150D1*
G1X358250Y110150D2*
G1X359750Y110150D1*
G1X250Y109850D2*
G1X54500Y109850D1*
G1X64375Y109850D2*
G1X67996Y109850D1*
G1X71672Y109850D2*
G1X350500Y109850D1*
G1X358250Y109850D2*
G1X359750Y109850D1*
G1X250Y109550D2*
G1X54500Y109550D1*
G1X64675Y109550D2*
G1X67902Y109550D1*
G1X71768Y109550D2*
G1X350500Y109550D1*
G1X358250Y109550D2*
G1X359750Y109550D1*
G1X250Y109250D2*
G1X54500Y109250D1*
G1X64975Y109250D2*
G1X67889Y109250D1*
G1X71780Y109250D2*
G1X350500Y109250D1*
G1X358250Y109250D2*
G1X359750Y109250D1*
G1X250Y108950D2*
G1X54500Y108950D1*
G1X58000Y108950D2*
G1X60325Y108950D1*
G1X65262Y108950D2*
G1X67889Y108950D1*
G1X71780Y108950D2*
G1X350500Y108950D1*
G1X358250Y108950D2*
G1X359750Y108950D1*
G1X250Y108650D2*
G1X54520Y108650D1*
G1X57980Y108650D2*
G1X60625Y108650D1*
G1X65463Y108650D2*
G1X67889Y108650D1*
G1X71780Y108650D2*
G1X350500Y108650D1*
G1X358250Y108650D2*
G1X359750Y108650D1*
G1X250Y108350D2*
G1X54580Y108350D1*
G1X57920Y108350D2*
G1X60925Y108350D1*
G1X65631Y108350D2*
G1X67889Y108350D1*
G1X71780Y108350D2*
G1X350500Y108350D1*
G1X358250Y108350D2*
G1X359750Y108350D1*
G1X250Y108050D2*
G1X54653Y108050D1*
G1X57847Y108050D2*
G1X61225Y108050D1*
G1X65690Y108050D2*
G1X67889Y108050D1*
G1X71780Y108050D2*
G1X350500Y108050D1*
G1X358250Y108050D2*
G1X359750Y108050D1*
G1X250Y107750D2*
G1X54854Y107750D1*
G1X57646Y107750D2*
G1X61525Y107750D1*
G1X65750Y107750D2*
G1X67889Y107750D1*
G1X71780Y107750D2*
G1X350500Y107750D1*
G1X358250Y107750D2*
G1X359750Y107750D1*
G1X250Y107450D2*
G1X55106Y107450D1*
G1X57394Y107450D2*
G1X61825Y107450D1*
G1X65750Y107450D2*
G1X67901Y107450D1*
G1X71767Y107450D2*
G1X350500Y107450D1*
G1X358250Y107450D2*
G1X359750Y107450D1*
G1X250Y107150D2*
G1X55555Y107150D1*
G1X56945Y107150D2*
G1X62125Y107150D1*
G1X65750Y107150D2*
G1X67998Y107150D1*
G1X71674Y107150D2*
G1X350500Y107150D1*
G1X358250Y107150D2*
G1X359750Y107150D1*
G1X250Y106850D2*
G1X62250Y106850D1*
G1X65750Y106850D2*
G1X68299Y106850D1*
G1X71366Y106850D2*
G1X350500Y106850D1*
G1X358250Y106850D2*
G1X359750Y106850D1*
G1X250Y106550D2*
G1X62250Y106550D1*
G1X65750Y106550D2*
G1X350500Y106550D1*
G1X358250Y106550D2*
G1X359750Y106550D1*
G1X250Y106250D2*
G1X62250Y106250D1*
G1X65750Y106250D2*
G1X105229Y106250D1*
G1X107271Y106250D2*
G1X350500Y106250D1*
G1X358250Y106250D2*
G1X359750Y106250D1*
G1X250Y105950D2*
G1X62250Y105950D1*
G1X65750Y105950D2*
G1X104626Y105950D1*
G1X107875Y105950D2*
G1X350500Y105950D1*
G1X358250Y105950D2*
G1X359750Y105950D1*
G1X250Y105650D2*
G1X62250Y105650D1*
G1X65750Y105650D2*
G1X104325Y105650D1*
G1X108175Y105650D2*
G1X350500Y105650D1*
G1X358250Y105650D2*
G1X359750Y105650D1*
G1X250Y105350D2*
G1X62250Y105350D1*
G1X65750Y105350D2*
G1X104025Y105350D1*
G1X108474Y105350D2*
G1X350500Y105350D1*
G1X358250Y105350D2*
G1X359750Y105350D1*
G1X250Y105050D2*
G1X62250Y105050D1*
G1X65750Y105050D2*
G1X100478Y105050D1*
G1X103847Y105050D2*
G1X103854Y105050D1*
G1X108646Y105050D2*
G1X350500Y105050D1*
G1X358250Y105050D2*
G1X359750Y105050D1*
G1X250Y104750D2*
G1X62250Y104750D1*
G1X65750Y104750D2*
G1X100273Y104750D1*
G1X108770Y104750D2*
G1X350500Y104750D1*
G1X358250Y104750D2*
G1X359750Y104750D1*
G1X250Y104450D2*
G1X62250Y104450D1*
G1X65750Y104450D2*
G1X100220Y104450D1*
G1X108894Y104450D2*
G1X350500Y104450D1*
G1X358250Y104450D2*
G1X359750Y104450D1*
G1X250Y104150D2*
G1X62250Y104150D1*
G1X65750Y104150D2*
G1X100220Y104150D1*
G1X108969Y104150D2*
G1X350500Y104150D1*
G1X358250Y104150D2*
G1X359750Y104150D1*
G1X250Y103850D2*
G1X62250Y103850D1*
G1X65750Y103850D2*
G1X100220Y103850D1*
G1X108969Y103850D2*
G1X350500Y103850D1*
G1X358250Y103850D2*
G1X359750Y103850D1*
G1X250Y103550D2*
G1X62290Y103550D1*
G1X65710Y103550D2*
G1X100220Y103550D1*
G1X108968Y103550D2*
G1X350500Y103550D1*
G1X358250Y103550D2*
G1X359750Y103550D1*
G1X250Y103250D2*
G1X62349Y103250D1*
G1X65651Y103250D2*
G1X100220Y103250D1*
G1X108968Y103250D2*
G1X350500Y103250D1*
G1X358250Y103250D2*
G1X359750Y103250D1*
G1X250Y102950D2*
G1X62470Y102950D1*
G1X65530Y102950D2*
G1X100220Y102950D1*
G1X108870Y102950D2*
G1X350500Y102950D1*
G1X358250Y102950D2*
G1X359750Y102950D1*
G1X250Y102650D2*
G1X62671Y102650D1*
G1X65329Y102650D2*
G1X100220Y102650D1*
G1X108745Y102650D2*
G1X350500Y102650D1*
G1X358250Y102650D2*
G1X359750Y102650D1*
G1X250Y102350D2*
G1X63006Y102350D1*
G1X64994Y102350D2*
G1X100251Y102350D1*
G1X108620Y102350D2*
G1X350500Y102350D1*
G1X358250Y102350D2*
G1X359750Y102350D1*
G1X250Y102050D2*
G1X63749Y102050D1*
G1X64251Y102050D2*
G1X100393Y102050D1*
G1X103936Y102050D2*
G1X104086Y102050D1*
G1X108415Y102050D2*
G1X350500Y102050D1*
G1X358250Y102050D2*
G1X359750Y102050D1*
G1X250Y101750D2*
G1X94915Y101750D1*
G1X104386Y101750D1*
G1X108114Y101750D2*
G1X350500Y101750D1*
G1X358250Y101750D2*
G1X359750Y101750D1*
G1X250Y101450D2*
G1X93145Y101450D1*
G1X96688Y101450D2*
G1X104685Y101450D1*
G1X107814Y101450D2*
G1X350500Y101450D1*
G1X358250Y101450D2*
G1X359750Y101450D1*
G1X250Y101150D2*
G1X93003Y101150D1*
G1X96830Y101150D2*
G1X105375Y101150D1*
G1X107124Y101150D2*
G1X350500Y101150D1*
G1X358250Y101150D2*
G1X359750Y101150D1*
G1X250Y100850D2*
G1X92970Y100850D1*
G1X96861Y100850D2*
G1X350500Y100850D1*
G1X358250Y100850D2*
G1X359750Y100850D1*
G1X250Y100550D2*
G1X92970Y100550D1*
G1X96861Y100550D2*
G1X350500Y100550D1*
G1X358250Y100550D2*
G1X359750Y100550D1*
G1X250Y100250D2*
G1X92970Y100250D1*
G1X96861Y100250D2*
G1X350500Y100250D1*
G1X358250Y100250D2*
G1X359750Y100250D1*
G1X250Y99950D2*
G1X92970Y99950D1*
G1X96861Y99950D2*
G1X350500Y99950D1*
G1X358250Y99950D2*
G1X359750Y99950D1*
G1X250Y99650D2*
G1X92970Y99650D1*
G1X96861Y99650D2*
G1X350500Y99650D1*
G1X358250Y99650D2*
G1X359750Y99650D1*
G1X250Y99350D2*
G1X92970Y99350D1*
G1X96861Y99350D2*
G1X350500Y99350D1*
G1X358250Y99350D2*
G1X359750Y99350D1*
G1X250Y99050D2*
G1X92970Y99050D1*
G1X96861Y99050D2*
G1X350500Y99050D1*
G1X358250Y99050D2*
G1X359750Y99050D1*
G1X250Y98750D2*
G1X93020Y98750D1*
G1X96807Y98750D2*
G1X105182Y98750D1*
G1X107318Y98750D2*
G1X350500Y98750D1*
G1X358250Y98750D2*
G1X359750Y98750D1*
G1X250Y98450D2*
G1X93165Y98450D1*
G1X96665Y98450D2*
G1X104606Y98450D1*
G1X107895Y98450D2*
G1X350500Y98450D1*
G1X358250Y98450D2*
G1X359750Y98450D1*
G1X250Y98150D2*
G1X93129Y98150D1*
G1X96665Y98150D2*
G1X100634Y98150D1*
G1X103701Y98150D2*
G1X104305Y98150D1*
G1X108195Y98150D2*
G1X350500Y98150D1*
G1X358250Y98150D2*
G1X359750Y98150D1*
G1X250Y97850D2*
G1X93070Y97850D1*
G1X96665Y97850D2*
G1X100326Y97850D1*
G1X104002Y97850D2*
G1X104005Y97850D1*
G1X108494Y97850D2*
G1X350500Y97850D1*
G1X358250Y97850D2*
G1X359750Y97850D1*
G1X250Y97550D2*
G1X93010Y97550D1*
G1X96642Y97550D2*
G1X100233Y97550D1*
G1X108654Y97550D2*
G1X350500Y97550D1*
G1X358250Y97550D2*
G1X359750Y97550D1*
G1X250Y97250D2*
G1X93050Y97250D1*
G1X96583Y97250D2*
G1X100220Y97250D1*
G1X108778Y97250D2*
G1X350500Y97250D1*
G1X358250Y97250D2*
G1X359750Y97250D1*
G1X250Y96950D2*
G1X93109Y96950D1*
G1X96502Y96950D2*
G1X100220Y96950D1*
G1X108902Y96950D2*
G1X350500Y96950D1*
G1X358250Y96950D2*
G1X359750Y96950D1*
G1X250Y96650D2*
G1X93254Y96650D1*
G1X96301Y96650D2*
G1X100220Y96650D1*
G1X108969Y96650D2*
G1X350500Y96650D1*
G1X358250Y96650D2*
G1X359750Y96650D1*
G1X250Y96350D2*
G1X93454Y96350D1*
G1X96075Y96350D2*
G1X100220Y96350D1*
G1X108969Y96350D2*
G1X350500Y96350D1*
G1X358250Y96350D2*
G1X359750Y96350D1*
G1X250Y96050D2*
G1X93831Y96050D1*
G1X95669Y96050D2*
G1X100220Y96050D1*
G1X108968Y96050D2*
G1X350500Y96050D1*
G1X358250Y96050D2*
G1X359750Y96050D1*
G1X250Y95750D2*
G1X100220Y95750D1*
G1X108968Y95750D2*
G1X350500Y95750D1*
G1X358250Y95750D2*
G1X359750Y95750D1*
G1X250Y95450D2*
G1X100232Y95450D1*
G1X108861Y95450D2*
G1X350500Y95450D1*
G1X358250Y95450D2*
G1X359750Y95450D1*
G1X250Y95150D2*
G1X100328Y95150D1*
G1X108737Y95150D2*
G1X350500Y95150D1*
G1X358250Y95150D2*
G1X359750Y95150D1*
G1X250Y94850D2*
G1X100630Y94850D1*
G1X103697Y94850D2*
G1X103887Y94850D1*
G1X108612Y94850D2*
G1X350500Y94850D1*
G1X358250Y94850D2*
G1X359750Y94850D1*
G1X250Y94550D2*
G1X104106Y94550D1*
G1X108395Y94550D2*
G1X350500Y94550D1*
G1X358250Y94550D2*
G1X359750Y94550D1*
G1X250Y94250D2*
G1X104405Y94250D1*
G1X108094Y94250D2*
G1X350500Y94250D1*
G1X358250Y94250D2*
G1X359750Y94250D1*
G1X250Y93950D2*
G1X104705Y93950D1*
G1X107794Y93950D2*
G1X350500Y93950D1*
G1X358250Y93950D2*
G1X359750Y93950D1*
G1X250Y93650D2*
G1X105423Y93650D1*
G1X107076Y93650D2*
G1X350500Y93650D1*
G1X358250Y93650D2*
G1X359750Y93650D1*
G1X250Y93350D2*
G1X350500Y93350D1*
G1X358250Y93350D2*
G1X359750Y93350D1*
G1X250Y93050D2*
G1X350500Y93050D1*
G1X358250Y93050D2*
G1X359750Y93050D1*
G1X250Y92750D2*
G1X350500Y92750D1*
G1X358250Y92750D2*
G1X359750Y92750D1*
G1X250Y92450D2*
G1X24232Y92450D1*
G1X24670Y92450D2*
G1X350500Y92450D1*
G1X358250Y92450D2*
G1X359750Y92450D1*
G1X250Y92150D2*
G1X22609Y92150D1*
G1X25824Y92150D2*
G1X350500Y92150D1*
G1X358250Y92150D2*
G1X359750Y92150D1*
G1X250Y91850D2*
G1X22374Y91850D1*
G1X26169Y91850D2*
G1X86555Y91850D1*
G1X87945Y91850D2*
G1X350500Y91850D1*
G1X358250Y91850D2*
G1X359750Y91850D1*
G1X250Y91550D2*
G1X22305Y91550D1*
G1X26238Y91550D2*
G1X86106Y91550D1*
G1X88394Y91550D2*
G1X350500Y91550D1*
G1X358250Y91550D2*
G1X359750Y91550D1*
G1X250Y91250D2*
G1X22338Y91250D1*
G1X26205Y91250D2*
G1X85854Y91250D1*
G1X88725Y91250D2*
G1X350500Y91250D1*
G1X358250Y91250D2*
G1X359750Y91250D1*
G1X250Y90950D2*
G1X22638Y90950D1*
G1X25905Y90950D2*
G1X85549Y90950D1*
G1X91446Y90950D2*
G1X350500Y90950D1*
G1X358250Y90950D2*
G1X359750Y90950D1*
G1X250Y90650D2*
G1X22938Y90650D1*
G1X25605Y90650D2*
G1X85331Y90650D1*
G1X91673Y90650D2*
G1X350500Y90650D1*
G1X358250Y90650D2*
G1X359750Y90650D1*
G1X250Y90350D2*
G1X23238Y90350D1*
G1X25305Y90350D2*
G1X85275Y90350D1*
G1X91725Y90350D2*
G1X350500Y90350D1*
G1X358250Y90350D2*
G1X359750Y90350D1*
G1X250Y90050D2*
G1X20440Y90050D1*
G1X21417Y90050D2*
G1X23538Y90050D1*
G1X25005Y90050D2*
G1X27126Y90050D1*
G1X28111Y90050D2*
G1X85275Y90050D1*
G1X91725Y90050D2*
G1X350500Y90050D1*
G1X358250Y90050D2*
G1X359750Y90050D1*
G1X250Y89750D2*
G1X20362Y89750D1*
G1X21717Y89750D2*
G1X23838Y89750D1*
G1X24705Y89750D2*
G1X26826Y89750D1*
G1X28235Y89750D2*
G1X85275Y89750D1*
G1X91725Y89750D2*
G1X350500Y89750D1*
G1X358250Y89750D2*
G1X359750Y89750D1*
G1X250Y89450D2*
G1X20284Y89450D1*
G1X22017Y89450D2*
G1X24138Y89450D1*
G1X24405Y89450D2*
G1X26526Y89450D1*
G1X28305Y89450D2*
G1X85275Y89450D1*
G1X91725Y89450D2*
G1X350500Y89450D1*
G1X358250Y89450D2*
G1X359750Y89450D1*
G1X250Y89150D2*
G1X20206Y89150D1*
G1X22317Y89150D2*
G1X26226Y89150D1*
G1X28347Y89150D2*
G1X85275Y89150D1*
G1X94384Y89150D2*
G1X350500Y89150D1*
G1X358250Y89150D2*
G1X359750Y89150D1*
G1X250Y88850D2*
G1X20128Y88850D1*
G1X22617Y88850D2*
G1X25926Y88850D1*
G1X28389Y88850D2*
G1X85275Y88850D1*
G1X94660Y88850D2*
G1X350500Y88850D1*
G1X358250Y88850D2*
G1X359750Y88850D1*
G1X250Y88550D2*
G1X20051Y88550D1*
G1X22917Y88550D2*
G1X25626Y88550D1*
G1X28430Y88550D2*
G1X85275Y88550D1*
G1X94743Y88550D2*
G1X350500Y88550D1*
G1X358250Y88550D2*
G1X359750Y88550D1*
G1X250Y88250D2*
G1X20073Y88250D1*
G1X23205Y88250D2*
G1X25338Y88250D1*
G1X28472Y88250D2*
G1X85275Y88250D1*
G1X94749Y88250D2*
G1X350500Y88250D1*
G1X358250Y88250D2*
G1X359750Y88250D1*
G1X250Y87950D2*
G1X20115Y87950D1*
G1X22905Y87950D2*
G1X25638Y87950D1*
G1X28490Y87950D2*
G1X85275Y87950D1*
G1X94749Y87950D2*
G1X350500Y87950D1*
G1X358250Y87950D2*
G1X359750Y87950D1*
G1X250Y87650D2*
G1X20156Y87650D1*
G1X22605Y87650D2*
G1X25938Y87650D1*
G1X28412Y87650D2*
G1X85275Y87650D1*
G1X94749Y87650D2*
G1X350500Y87650D1*
G1X358250Y87650D2*
G1X359750Y87650D1*
G1X250Y87350D2*
G1X20198Y87350D1*
G1X22305Y87350D2*
G1X26238Y87350D1*
G1X28334Y87350D2*
G1X85275Y87350D1*
G1X94875Y87350D2*
G1X350500Y87350D1*
G1X358250Y87350D2*
G1X359750Y87350D1*
G1X250Y87050D2*
G1X20240Y87050D1*
G1X22005Y87050D2*
G1X24126Y87050D1*
G1X24417Y87050D2*
G1X26538Y87050D1*
G1X28256Y87050D2*
G1X85275Y87050D1*
G1X95175Y87050D2*
G1X350500Y87050D1*
G1X358250Y87050D2*
G1X359750Y87050D1*
G1X250Y86750D2*
G1X20313Y86750D1*
G1X21705Y86750D2*
G1X23826Y86750D1*
G1X24717Y86750D2*
G1X26838Y86750D1*
G1X28178Y86750D2*
G1X85275Y86750D1*
G1X95475Y86750D2*
G1X350500Y86750D1*
G1X358250Y86750D2*
G1X359750Y86750D1*
G1X250Y86450D2*
G1X20437Y86450D1*
G1X21405Y86450D2*
G1X23526Y86450D1*
G1X25017Y86450D2*
G1X27138Y86450D1*
G1X28100Y86450D2*
G1X85275Y86450D1*
G1X95775Y86450D2*
G1X200416Y86450D1*
G1X201587Y86450D2*
G1X350500Y86450D1*
G1X358250Y86450D2*
G1X359750Y86450D1*
G1X250Y86150D2*
G1X23226Y86150D1*
G1X25317Y86150D2*
G1X85275Y86150D1*
G1X96075Y86150D2*
G1X199690Y86150D1*
G1X202309Y86150D2*
G1X350500Y86150D1*
G1X358250Y86150D2*
G1X359750Y86150D1*
G1X250Y85850D2*
G1X22926Y85850D1*
G1X25617Y85850D2*
G1X85275Y85850D1*
G1X96375Y85850D2*
G1X199256Y85850D1*
G1X202745Y85850D2*
G1X350500Y85850D1*
G1X358250Y85850D2*
G1X359750Y85850D1*
G1X250Y85550D2*
G1X22626Y85550D1*
G1X25917Y85550D2*
G1X85275Y85550D1*
G1X96675Y85550D2*
G1X198955Y85550D1*
G1X203044Y85550D2*
G1X350500Y85550D1*
G1X358250Y85550D2*
G1X359750Y85550D1*
G1X250Y85250D2*
G1X22326Y85250D1*
G1X26217Y85250D2*
G1X85275Y85250D1*
G1X91725Y85250D2*
G1X92025Y85250D1*
G1X96975Y85250D2*
G1X198679Y85250D1*
G1X203322Y85250D2*
G1X350500Y85250D1*
G1X358250Y85250D2*
G1X359750Y85250D1*
G1X250Y84950D2*
G1X22308Y84950D1*
G1X26235Y84950D2*
G1X85275Y84950D1*
G1X91725Y84950D2*
G1X92325Y84950D1*
G1X97275Y84950D2*
G1X198555Y84950D1*
G1X203446Y84950D2*
G1X350500Y84950D1*
G1X358250Y84950D2*
G1X359750Y84950D1*
G1X250Y84650D2*
G1X22377Y84650D1*
G1X26167Y84650D2*
G1X85275Y84650D1*
G1X91725Y84650D2*
G1X92625Y84650D1*
G1X97575Y84650D2*
G1X198430Y84650D1*
G1X203570Y84650D2*
G1X350500Y84650D1*
G1X358250Y84650D2*
G1X359750Y84650D1*
G1X250Y84350D2*
G1X22764Y84350D1*
G1X25906Y84350D2*
G1X85297Y84350D1*
G1X91701Y84350D2*
G1X92925Y84350D1*
G1X97875Y84350D2*
G1X198306Y84350D1*
G1X203694Y84350D2*
G1X350500Y84350D1*
G1X358250Y84350D2*
G1X359750Y84350D1*
G1X250Y84050D2*
G1X23919Y84050D1*
G1X24227Y84050D2*
G1X85417Y84050D1*
G1X91582Y84050D2*
G1X93225Y84050D1*
G1X98175Y84050D2*
G1X198282Y84050D1*
G1X203719Y84050D2*
G1X350500Y84050D1*
G1X358250Y84050D2*
G1X359750Y84050D1*
G1X250Y83750D2*
G1X85811Y83750D1*
G1X91206Y83750D2*
G1X93525Y83750D1*
G1X98475Y83750D2*
G1X198281Y83750D1*
G1X203719Y83750D2*
G1X350500Y83750D1*
G1X358250Y83750D2*
G1X359750Y83750D1*
G1X250Y83450D2*
G1X93825Y83450D1*
G1X98775Y83450D2*
G1X198281Y83450D1*
G1X203718Y83450D2*
G1X350500Y83450D1*
G1X358250Y83450D2*
G1X359750Y83450D1*
G1X250Y83150D2*
G1X68748Y83150D1*
G1X99075Y83150D2*
G1X198306Y83150D1*
G1X203694Y83150D2*
G1X350500Y83150D1*
G1X358250Y83150D2*
G1X359750Y83150D1*
G1X250Y82850D2*
G1X68441Y82850D1*
G1X99375Y82850D2*
G1X198430Y82850D1*
G1X203570Y82850D2*
G1X350500Y82850D1*
G1X358250Y82850D2*
G1X359750Y82850D1*
G1X250Y82550D2*
G1X68267Y82550D1*
G1X99613Y82550D2*
G1X198554Y82550D1*
G1X203445Y82550D2*
G1X350500Y82550D1*
G1X358250Y82550D2*
G1X359750Y82550D1*
G1X250Y82250D2*
G1X68150Y82250D1*
G1X99813Y82250D2*
G1X198678Y82250D1*
G1X203321Y82250D2*
G1X350500Y82250D1*
G1X358250Y82250D2*
G1X359750Y82250D1*
G1X250Y81950D2*
G1X68150Y81950D1*
G1X99911Y81950D2*
G1X198956Y81950D1*
G1X203045Y81950D2*
G1X350500Y81950D1*
G1X358250Y81950D2*
G1X359750Y81950D1*
G1X250Y81650D2*
G1X68184Y81650D1*
G1X99970Y81650D2*
G1X199255Y81650D1*
G1X202744Y81650D2*
G1X350500Y81650D1*
G1X358250Y81650D2*
G1X359750Y81650D1*
G1X250Y81350D2*
G1X68308Y81350D1*
G1X100000Y81350D2*
G1X199691Y81350D1*
G1X202310Y81350D2*
G1X350500Y81350D1*
G1X358250Y81350D2*
G1X359750Y81350D1*
G1X250Y81050D2*
G1X68541Y81050D1*
G1X100000Y81050D2*
G1X200413Y81050D1*
G1X201584Y81050D2*
G1X350500Y81050D1*
G1X358250Y81050D2*
G1X359750Y81050D1*
G1X250Y80750D2*
G1X68990Y80750D1*
G1X70010Y80750D2*
G1X85319Y80750D1*
G1X100000Y80750D2*
G1X350500Y80750D1*
G1X358250Y80750D2*
G1X359750Y80750D1*
G1X250Y80450D2*
G1X85275Y80450D1*
G1X100000Y80450D2*
G1X350500Y80450D1*
G1X358250Y80450D2*
G1X359750Y80450D1*
G1X250Y80150D2*
G1X85275Y80150D1*
G1X100000Y80150D2*
G1X350500Y80150D1*
G1X358250Y80150D2*
G1X359750Y80150D1*
G1X250Y79850D2*
G1X85275Y79850D1*
G1X100000Y79850D2*
G1X350500Y79850D1*
G1X358250Y79850D2*
G1X359750Y79850D1*
G1X250Y79550D2*
G1X83730Y79550D1*
G1X85270Y79550D2*
G1X85275Y79550D1*
G1X100000Y79550D2*
G1X350500Y79550D1*
G1X358250Y79550D2*
G1X359750Y79550D1*
G1X250Y79250D2*
G1X83281Y79250D1*
G1X100000Y79250D2*
G1X350500Y79250D1*
G1X358250Y79250D2*
G1X359750Y79250D1*
G1X250Y78950D2*
G1X83071Y78950D1*
G1X100000Y78950D2*
G1X350500Y78950D1*
G1X358250Y78950D2*
G1X359750Y78950D1*
G1X250Y78650D2*
G1X82879Y78650D1*
G1X100000Y78650D2*
G1X350500Y78650D1*
G1X358250Y78650D2*
G1X359750Y78650D1*
G1X250Y78350D2*
G1X82820Y78350D1*
G1X100000Y78350D2*
G1X350500Y78350D1*
G1X358250Y78350D2*
G1X359750Y78350D1*
G1X250Y78050D2*
G1X82760Y78050D1*
G1X100000Y78050D2*
G1X350500Y78050D1*
G1X358250Y78050D2*
G1X359750Y78050D1*
G1X250Y77750D2*
G1X82800Y77750D1*
G1X100000Y77750D2*
G1X350500Y77750D1*
G1X358250Y77750D2*
G1X359750Y77750D1*
G1X250Y77450D2*
G1X82859Y77450D1*
G1X100000Y77450D2*
G1X350500Y77450D1*
G1X358250Y77450D2*
G1X359750Y77450D1*
G1X250Y77150D2*
G1X83004Y77150D1*
G1X100000Y77150D2*
G1X350500Y77150D1*
G1X358250Y77150D2*
G1X359750Y77150D1*
G1X250Y76850D2*
G1X83204Y76850D1*
G1X100000Y76850D2*
G1X350500Y76850D1*
G1X358250Y76850D2*
G1X359750Y76850D1*
G1X250Y76550D2*
G1X83475Y76550D1*
G1X100000Y76550D2*
G1X350500Y76550D1*
G1X358250Y76550D2*
G1X359750Y76550D1*
G1X250Y76250D2*
G1X83820Y76250D1*
G1X100000Y76250D2*
G1X199932Y76250D1*
G1X202068Y76250D2*
G1X350500Y76250D1*
G1X358250Y76250D2*
G1X359750Y76250D1*
G1X250Y75950D2*
G1X84312Y75950D1*
G1X99990Y75950D2*
G1X199356Y75950D1*
G1X202645Y75950D2*
G1X350500Y75950D1*
G1X358250Y75950D2*
G1X359750Y75950D1*
G1X250Y75650D2*
G1X85275Y75650D1*
G1X99930Y75650D2*
G1X199055Y75650D1*
G1X202945Y75650D2*
G1X350500Y75650D1*
G1X358250Y75650D2*
G1X359750Y75650D1*
G1X250Y75350D2*
G1X85275Y75350D1*
G1X99871Y75350D2*
G1X198755Y75350D1*
G1X203244Y75350D2*
G1X350500Y75350D1*
G1X358250Y75350D2*
G1X359750Y75350D1*
G1X250Y75050D2*
G1X85275Y75050D1*
G1X99679Y75050D2*
G1X198596Y75050D1*
G1X203404Y75050D2*
G1X350500Y75050D1*
G1X358250Y75050D2*
G1X359750Y75050D1*
G1X250Y74750D2*
G1X85275Y74750D1*
G1X99475Y74750D2*
G1X198472Y74750D1*
G1X203528Y74750D2*
G1X350500Y74750D1*
G1X358250Y74750D2*
G1X359750Y74750D1*
G1X250Y74450D2*
G1X22249Y74450D1*
G1X99175Y74450D2*
G1X198347Y74450D1*
G1X203652Y74450D2*
G1X350500Y74450D1*
G1X358250Y74450D2*
G1X359750Y74450D1*
G1X250Y74150D2*
G1X21506Y74150D1*
G1X98875Y74150D2*
G1X198282Y74150D1*
G1X203719Y74150D2*
G1X350500Y74150D1*
G1X358250Y74150D2*
G1X359750Y74150D1*
G1X250Y73850D2*
G1X21125Y73850D1*
G1X98575Y73850D2*
G1X198282Y73850D1*
G1X203719Y73850D2*
G1X350500Y73850D1*
G1X358250Y73850D2*
G1X359750Y73850D1*
G1X250Y73550D2*
G1X20825Y73550D1*
G1X98275Y73550D2*
G1X198281Y73550D1*
G1X203718Y73550D2*
G1X350500Y73550D1*
G1X358250Y73550D2*
G1X359750Y73550D1*
G1X250Y73250D2*
G1X20525Y73250D1*
G1X97975Y73250D2*
G1X198281Y73250D1*
G1X203718Y73250D2*
G1X350500Y73250D1*
G1X358250Y73250D2*
G1X359750Y73250D1*
G1X250Y72950D2*
G1X20225Y72950D1*
G1X97675Y72950D2*
G1X198389Y72950D1*
G1X203611Y72950D2*
G1X350500Y72950D1*
G1X358250Y72950D2*
G1X359750Y72950D1*
G1X250Y72650D2*
G1X19925Y72650D1*
G1X97375Y72650D2*
G1X198513Y72650D1*
G1X203487Y72650D2*
G1X350500Y72650D1*
G1X358250Y72650D2*
G1X359750Y72650D1*
G1X250Y72350D2*
G1X19625Y72350D1*
G1X97075Y72350D2*
G1X198637Y72350D1*
G1X203362Y72350D2*
G1X350500Y72350D1*
G1X358250Y72350D2*
G1X359750Y72350D1*
G1X250Y72050D2*
G1X19325Y72050D1*
G1X96775Y72050D2*
G1X198856Y72050D1*
G1X203145Y72050D2*
G1X350500Y72050D1*
G1X358250Y72050D2*
G1X359750Y72050D1*
G1X250Y71750D2*
G1X19025Y71750D1*
G1X96475Y71750D2*
G1X199155Y71750D1*
G1X202844Y71750D2*
G1X350500Y71750D1*
G1X358250Y71750D2*
G1X359750Y71750D1*
G1X250Y71450D2*
G1X18725Y71450D1*
G1X96175Y71450D2*
G1X199455Y71450D1*
G1X202544Y71450D2*
G1X260403Y71450D1*
G1X260850Y71450D2*
G1X268303Y71450D1*
G1X268750Y71450D2*
G1X276203Y71450D1*
G1X276650Y71450D2*
G1X284103Y71450D1*
G1X284550Y71450D2*
G1X292003Y71450D1*
G1X292450Y71450D2*
G1X299903Y71450D1*
G1X300350Y71450D2*
G1X307803Y71450D1*
G1X308250Y71450D2*
G1X315703Y71450D1*
G1X316150Y71450D2*
G1X323603Y71450D1*
G1X324050Y71450D2*
G1X331503Y71450D1*
G1X331950Y71450D2*
G1X350500Y71450D1*
G1X358250Y71450D2*
G1X359750Y71450D1*
G1X250Y71150D2*
G1X18425Y71150D1*
G1X95875Y71150D2*
G1X200173Y71150D1*
G1X201826Y71150D2*
G1X259677Y71150D1*
G1X262021Y71150D2*
G1X267577Y71150D1*
G1X269921Y71150D2*
G1X275477Y71150D1*
G1X277821Y71150D2*
G1X283377Y71150D1*
G1X285721Y71150D2*
G1X291277Y71150D1*
G1X293621Y71150D2*
G1X299177Y71150D1*
G1X301521Y71150D2*
G1X307077Y71150D1*
G1X309421Y71150D2*
G1X314977Y71150D1*
G1X317321Y71150D2*
G1X322877Y71150D1*
G1X325221Y71150D2*
G1X330777Y71150D1*
G1X333121Y71150D2*
G1X350500Y71150D1*
G1X358250Y71150D2*
G1X359750Y71150D1*
G1X250Y70850D2*
G1X18125Y70850D1*
G1X23075Y70850D2*
G1X28125Y70850D1*
G1X95575Y70850D2*
G1X259318Y70850D1*
G1X262382Y70850D2*
G1X267218Y70850D1*
G1X270282Y70850D2*
G1X275118Y70850D1*
G1X278182Y70850D2*
G1X283018Y70850D1*
G1X286082Y70850D2*
G1X290918Y70850D1*
G1X293982Y70850D2*
G1X298818Y70850D1*
G1X301882Y70850D2*
G1X306718Y70850D1*
G1X309782Y70850D2*
G1X314618Y70850D1*
G1X317682Y70850D2*
G1X322518Y70850D1*
G1X325582Y70850D2*
G1X330418Y70850D1*
G1X333482Y70850D2*
G1X350500Y70850D1*
G1X358250Y70850D2*
G1X359750Y70850D1*
G1X250Y70550D2*
G1X17825Y70550D1*
G1X22775Y70550D2*
G1X27825Y70550D1*
G1X95275Y70550D2*
G1X259018Y70550D1*
G1X262682Y70550D2*
G1X266918Y70550D1*
G1X270582Y70550D2*
G1X274818Y70550D1*
G1X278482Y70550D2*
G1X282718Y70550D1*
G1X286382Y70550D2*
G1X290618Y70550D1*
G1X294282Y70550D2*
G1X298518Y70550D1*
G1X302182Y70550D2*
G1X306418Y70550D1*
G1X310082Y70550D2*
G1X314318Y70550D1*
G1X317982Y70550D2*
G1X322218Y70550D1*
G1X325882Y70550D2*
G1X330118Y70550D1*
G1X333782Y70550D2*
G1X350500Y70550D1*
G1X358250Y70550D2*
G1X359750Y70550D1*
G1X250Y70250D2*
G1X17525Y70250D1*
G1X22475Y70250D2*
G1X27525Y70250D1*
G1X94975Y70250D2*
G1X258850Y70250D1*
G1X262851Y70250D2*
G1X266750Y70250D1*
G1X270751Y70250D2*
G1X274650Y70250D1*
G1X278651Y70250D2*
G1X282550Y70250D1*
G1X286551Y70250D2*
G1X290450Y70250D1*
G1X294451Y70250D2*
G1X298350Y70250D1*
G1X302351Y70250D2*
G1X306250Y70250D1*
G1X310251Y70250D2*
G1X314150Y70250D1*
G1X318151Y70250D2*
G1X322050Y70250D1*
G1X326051Y70250D2*
G1X329950Y70250D1*
G1X333951Y70250D2*
G1X350500Y70250D1*
G1X358250Y70250D2*
G1X359750Y70250D1*
G1X250Y69950D2*
G1X17225Y69950D1*
G1X22175Y69950D2*
G1X27225Y69950D1*
G1X94675Y69950D2*
G1X258725Y69950D1*
G1X262975Y69950D2*
G1X266625Y69950D1*
G1X270875Y69950D2*
G1X274525Y69950D1*
G1X278775Y69950D2*
G1X282425Y69950D1*
G1X286675Y69950D2*
G1X290325Y69950D1*
G1X294575Y69950D2*
G1X298225Y69950D1*
G1X302475Y69950D2*
G1X306125Y69950D1*
G1X310375Y69950D2*
G1X314025Y69950D1*
G1X318275Y69950D2*
G1X321925Y69950D1*
G1X326175Y69950D2*
G1X329825Y69950D1*
G1X334075Y69950D2*
G1X350500Y69950D1*
G1X358250Y69950D2*
G1X359750Y69950D1*
G1X250Y69650D2*
G1X16925Y69650D1*
G1X21875Y69650D2*
G1X26925Y69650D1*
G1X94375Y69650D2*
G1X258601Y69650D1*
G1X263099Y69650D2*
G1X266501Y69650D1*
G1X270999Y69650D2*
G1X274401Y69650D1*
G1X278899Y69650D2*
G1X282301Y69650D1*
G1X286799Y69650D2*
G1X290201Y69650D1*
G1X294699Y69650D2*
G1X298101Y69650D1*
G1X302599Y69650D2*
G1X306001Y69650D1*
G1X310499Y69650D2*
G1X313901Y69650D1*
G1X318399Y69650D2*
G1X321801Y69650D1*
G1X326299Y69650D2*
G1X329701Y69650D1*
G1X334199Y69650D2*
G1X350500Y69650D1*
G1X358250Y69650D2*
G1X359750Y69650D1*
G1X250Y69350D2*
G1X16625Y69350D1*
G1X21575Y69350D2*
G1X26625Y69350D1*
G1X94075Y69350D2*
G1X258600Y69350D1*
G1X263100Y69350D2*
G1X266500Y69350D1*
G1X271000Y69350D2*
G1X274400Y69350D1*
G1X278900Y69350D2*
G1X282300Y69350D1*
G1X286800Y69350D2*
G1X290200Y69350D1*
G1X294700Y69350D2*
G1X298100Y69350D1*
G1X302600Y69350D2*
G1X306000Y69350D1*
G1X310500Y69350D2*
G1X313900Y69350D1*
G1X318400Y69350D2*
G1X321800Y69350D1*
G1X326300Y69350D2*
G1X329700Y69350D1*
G1X334200Y69350D2*
G1X350500Y69350D1*
G1X358250Y69350D2*
G1X359750Y69350D1*
G1X250Y69050D2*
G1X16325Y69050D1*
G1X21275Y69050D2*
G1X26325Y69050D1*
G1X93775Y69050D2*
G1X258600Y69050D1*
G1X263100Y69050D2*
G1X266500Y69050D1*
G1X271000Y69050D2*
G1X274400Y69050D1*
G1X278900Y69050D2*
G1X282300Y69050D1*
G1X286800Y69050D2*
G1X290200Y69050D1*
G1X294700Y69050D2*
G1X298100Y69050D1*
G1X302600Y69050D2*
G1X306000Y69050D1*
G1X310500Y69050D2*
G1X313900Y69050D1*
G1X318400Y69050D2*
G1X321800Y69050D1*
G1X326300Y69050D2*
G1X329700Y69050D1*
G1X334200Y69050D2*
G1X350500Y69050D1*
G1X358250Y69050D2*
G1X359750Y69050D1*
G1X250Y68750D2*
G1X16025Y68750D1*
G1X20975Y68750D2*
G1X26025Y68750D1*
G1X93344Y68750D2*
G1X258601Y68750D1*
G1X263099Y68750D2*
G1X266501Y68750D1*
G1X270999Y68750D2*
G1X274401Y68750D1*
G1X278899Y68750D2*
G1X282301Y68750D1*
G1X286799Y68750D2*
G1X290201Y68750D1*
G1X294699Y68750D2*
G1X298101Y68750D1*
G1X302599Y68750D2*
G1X306001Y68750D1*
G1X310499Y68750D2*
G1X313901Y68750D1*
G1X318399Y68750D2*
G1X321801Y68750D1*
G1X326299Y68750D2*
G1X329701Y68750D1*
G1X334199Y68750D2*
G1X350500Y68750D1*
G1X358250Y68750D2*
G1X359750Y68750D1*
G1X250Y68450D2*
G1X15725Y68450D1*
G1X20675Y68450D2*
G1X25725Y68450D1*
G1X30675Y68450D2*
G1X258725Y68450D1*
G1X262975Y68450D2*
G1X266625Y68450D1*
G1X270875Y68450D2*
G1X274525Y68450D1*
G1X278775Y68450D2*
G1X282425Y68450D1*
G1X286675Y68450D2*
G1X290325Y68450D1*
G1X294575Y68450D2*
G1X298225Y68450D1*
G1X302475Y68450D2*
G1X306125Y68450D1*
G1X310375Y68450D2*
G1X314025Y68450D1*
G1X318275Y68450D2*
G1X321925Y68450D1*
G1X326175Y68450D2*
G1X329825Y68450D1*
G1X334075Y68450D2*
G1X350500Y68450D1*
G1X358250Y68450D2*
G1X359750Y68450D1*
G1X250Y68150D2*
G1X15425Y68150D1*
G1X20375Y68150D2*
G1X25425Y68150D1*
G1X30375Y68150D2*
G1X258849Y68150D1*
G1X262850Y68150D2*
G1X266749Y68150D1*
G1X270750Y68150D2*
G1X274649Y68150D1*
G1X278650Y68150D2*
G1X282549Y68150D1*
G1X286550Y68150D2*
G1X290449Y68150D1*
G1X294450Y68150D2*
G1X298349Y68150D1*
G1X302350Y68150D2*
G1X306249Y68150D1*
G1X310250Y68150D2*
G1X314149Y68150D1*
G1X318150Y68150D2*
G1X322049Y68150D1*
G1X326050Y68150D2*
G1X329949Y68150D1*
G1X333950Y68150D2*
G1X350500Y68150D1*
G1X358250Y68150D2*
G1X359750Y68150D1*
G1X250Y67850D2*
G1X15125Y67850D1*
G1X20075Y67850D2*
G1X25125Y67850D1*
G1X30075Y67850D2*
G1X259018Y67850D1*
G1X262682Y67850D2*
G1X266918Y67850D1*
G1X270582Y67850D2*
G1X274818Y67850D1*
G1X278482Y67850D2*
G1X282718Y67850D1*
G1X286382Y67850D2*
G1X290618Y67850D1*
G1X294282Y67850D2*
G1X298518Y67850D1*
G1X302182Y67850D2*
G1X306418Y67850D1*
G1X310082Y67850D2*
G1X314318Y67850D1*
G1X317982Y67850D2*
G1X322218Y67850D1*
G1X325882Y67850D2*
G1X330118Y67850D1*
G1X333782Y67850D2*
G1X350500Y67850D1*
G1X358250Y67850D2*
G1X359750Y67850D1*
G1X250Y67550D2*
G1X14825Y67550D1*
G1X19775Y67550D2*
G1X24825Y67550D1*
G1X29775Y67550D2*
G1X259318Y67550D1*
G1X262382Y67550D2*
G1X267218Y67550D1*
G1X270282Y67550D2*
G1X275118Y67550D1*
G1X278182Y67550D2*
G1X283018Y67550D1*
G1X286082Y67550D2*
G1X290918Y67550D1*
G1X293982Y67550D2*
G1X298818Y67550D1*
G1X301882Y67550D2*
G1X306718Y67550D1*
G1X309782Y67550D2*
G1X314618Y67550D1*
G1X317682Y67550D2*
G1X322518Y67550D1*
G1X325582Y67550D2*
G1X330418Y67550D1*
G1X333482Y67550D2*
G1X350500Y67550D1*
G1X358250Y67550D2*
G1X359750Y67550D1*
G1X250Y67250D2*
G1X14525Y67250D1*
G1X19475Y67250D2*
G1X24525Y67250D1*
G1X29475Y67250D2*
G1X259679Y67250D1*
G1X262023Y67250D2*
G1X267579Y67250D1*
G1X269923Y67250D2*
G1X275479Y67250D1*
G1X277823Y67250D2*
G1X283379Y67250D1*
G1X285723Y67250D2*
G1X291279Y67250D1*
G1X293623Y67250D2*
G1X299179Y67250D1*
G1X301523Y67250D2*
G1X307079Y67250D1*
G1X309423Y67250D2*
G1X314979Y67250D1*
G1X317323Y67250D2*
G1X322879Y67250D1*
G1X325223Y67250D2*
G1X330779Y67250D1*
G1X333123Y67250D2*
G1X350500Y67250D1*
G1X358250Y67250D2*
G1X359750Y67250D1*
G1X250Y66950D2*
G1X14225Y66950D1*
G1X19175Y66950D2*
G1X24225Y66950D1*
G1X29175Y66950D2*
G1X260850Y66950D1*
G1X261297Y66950D2*
G1X268750Y66950D1*
G1X269197Y66950D2*
G1X276650Y66950D1*
G1X277097Y66950D2*
G1X284550Y66950D1*
G1X284997Y66950D2*
G1X292450Y66950D1*
G1X292897Y66950D2*
G1X300350Y66950D1*
G1X300797Y66950D2*
G1X308250Y66950D1*
G1X308697Y66950D2*
G1X316150Y66950D1*
G1X316597Y66950D2*
G1X324050Y66950D1*
G1X324497Y66950D2*
G1X331950Y66950D1*
G1X332397Y66950D2*
G1X350500Y66950D1*
G1X358250Y66950D2*
G1X359750Y66950D1*
G1X250Y66650D2*
G1X13925Y66650D1*
G1X18875Y66650D2*
G1X23925Y66650D1*
G1X28875Y66650D2*
G1X350500Y66650D1*
G1X358250Y66650D2*
G1X359750Y66650D1*
G1X250Y66350D2*
G1X13625Y66350D1*
G1X18575Y66350D2*
G1X23625Y66350D1*
G1X28575Y66350D2*
G1X350500Y66350D1*
G1X358250Y66350D2*
G1X359750Y66350D1*
G1X250Y66050D2*
G1X13325Y66050D1*
G1X18275Y66050D2*
G1X23325Y66050D1*
G1X28275Y66050D2*
G1X350500Y66050D1*
G1X358250Y66050D2*
G1X359750Y66050D1*
G1X250Y65750D2*
G1X13025Y65750D1*
G1X17975Y65750D2*
G1X23025Y65750D1*
G1X27975Y65750D2*
G1X350500Y65750D1*
G1X358250Y65750D2*
G1X359750Y65750D1*
G1X250Y65450D2*
G1X12725Y65450D1*
G1X17675Y65450D2*
G1X22725Y65450D1*
G1X27675Y65450D2*
G1X350500Y65450D1*
G1X358250Y65450D2*
G1X359750Y65450D1*
G1X250Y65150D2*
G1X12425Y65150D1*
G1X17375Y65150D2*
G1X22425Y65150D1*
G1X27375Y65150D2*
G1X350500Y65150D1*
G1X358250Y65150D2*
G1X359750Y65150D1*
G1X250Y64850D2*
G1X12125Y64850D1*
G1X17075Y64850D2*
G1X22125Y64850D1*
G1X27075Y64850D2*
G1X350500Y64850D1*
G1X358250Y64850D2*
G1X359750Y64850D1*
G1X250Y64550D2*
G1X11825Y64550D1*
G1X16775Y64550D2*
G1X21825Y64550D1*
G1X26775Y64550D2*
G1X350500Y64550D1*
G1X358250Y64550D2*
G1X359750Y64550D1*
G1X250Y64250D2*
G1X11525Y64250D1*
G1X16475Y64250D2*
G1X21525Y64250D1*
G1X26475Y64250D2*
G1X350500Y64250D1*
G1X358250Y64250D2*
G1X359750Y64250D1*
G1X250Y63950D2*
G1X11225Y63950D1*
G1X16175Y63950D2*
G1X21225Y63950D1*
G1X26175Y63950D2*
G1X350500Y63950D1*
G1X358250Y63950D2*
G1X359750Y63950D1*
G1X250Y63650D2*
G1X10925Y63650D1*
G1X15875Y63650D2*
G1X20925Y63650D1*
G1X25875Y63650D2*
G1X350500Y63650D1*
G1X358250Y63650D2*
G1X359750Y63650D1*
G1X250Y63350D2*
G1X10625Y63350D1*
G1X15575Y63350D2*
G1X20625Y63350D1*
G1X25575Y63350D2*
G1X350500Y63350D1*
G1X358250Y63350D2*
G1X359750Y63350D1*
G1X250Y63050D2*
G1X10325Y63050D1*
G1X15275Y63050D2*
G1X20325Y63050D1*
G1X25275Y63050D2*
G1X350500Y63050D1*
G1X358250Y63050D2*
G1X359750Y63050D1*
G1X250Y62750D2*
G1X10025Y62750D1*
G1X14975Y62750D2*
G1X20025Y62750D1*
G1X24975Y62750D2*
G1X350500Y62750D1*
G1X358250Y62750D2*
G1X359750Y62750D1*
G1X250Y62450D2*
G1X9725Y62450D1*
G1X14675Y62450D2*
G1X19725Y62450D1*
G1X24675Y62450D2*
G1X350500Y62450D1*
G1X358250Y62450D2*
G1X359750Y62450D1*
G1X250Y62150D2*
G1X9425Y62150D1*
G1X14375Y62150D2*
G1X19425Y62150D1*
G1X24375Y62150D2*
G1X350500Y62150D1*
G1X358250Y62150D2*
G1X359750Y62150D1*
G1X250Y61850D2*
G1X9125Y61850D1*
G1X14075Y61850D2*
G1X19125Y61850D1*
G1X24075Y61850D2*
G1X350500Y61850D1*
G1X358250Y61850D2*
G1X359750Y61850D1*
G1X250Y61550D2*
G1X8825Y61550D1*
G1X13775Y61550D2*
G1X18825Y61550D1*
G1X23775Y61550D2*
G1X350500Y61550D1*
G1X358250Y61550D2*
G1X359750Y61550D1*
G1X250Y61250D2*
G1X8525Y61250D1*
G1X13475Y61250D2*
G1X18525Y61250D1*
G1X23475Y61250D2*
G1X350500Y61250D1*
G1X358250Y61250D2*
G1X359750Y61250D1*
G1X250Y60950D2*
G1X8225Y60950D1*
G1X13175Y60950D2*
G1X18225Y60950D1*
G1X23175Y60950D2*
G1X350500Y60950D1*
G1X358250Y60950D2*
G1X359750Y60950D1*
G1X250Y60650D2*
G1X7925Y60650D1*
G1X12875Y60650D2*
G1X17925Y60650D1*
G1X22875Y60650D2*
G1X350500Y60650D1*
G1X358250Y60650D2*
G1X359750Y60650D1*
G1X250Y60350D2*
G1X7625Y60350D1*
G1X12575Y60350D2*
G1X17625Y60350D1*
G1X22575Y60350D2*
G1X350500Y60350D1*
G1X358250Y60350D2*
G1X359750Y60350D1*
G1X250Y60050D2*
G1X7325Y60050D1*
G1X12275Y60050D2*
G1X17325Y60050D1*
G1X22275Y60050D2*
G1X350500Y60050D1*
G1X358250Y60050D2*
G1X359750Y60050D1*
G1X250Y59750D2*
G1X7025Y59750D1*
G1X11975Y59750D2*
G1X17025Y59750D1*
G1X21975Y59750D2*
G1X350500Y59750D1*
G1X358250Y59750D2*
G1X359750Y59750D1*
G1X250Y59450D2*
G1X6725Y59450D1*
G1X11675Y59450D2*
G1X16725Y59450D1*
G1X21675Y59450D2*
G1X350500Y59450D1*
G1X358250Y59450D2*
G1X359750Y59450D1*
G1X250Y59150D2*
G1X6425Y59150D1*
G1X11375Y59150D2*
G1X16425Y59150D1*
G1X21375Y59150D2*
G1X350500Y59150D1*
G1X358250Y59150D2*
G1X359750Y59150D1*
G1X250Y58850D2*
G1X5174Y58850D1*
G1X11075Y58850D2*
G1X16125Y58850D1*
G1X21075Y58850D2*
G1X350500Y58850D1*
G1X358250Y58850D2*
G1X359750Y58850D1*
G1X250Y58550D2*
G1X4456Y58550D1*
G1X10775Y58550D2*
G1X15020Y58550D1*
G1X20775Y58550D2*
G1X45020Y58550D1*
G1X46980Y58550D2*
G1X55020Y58550D1*
G1X56980Y58550D2*
G1X75020Y58550D1*
G1X76980Y58550D2*
G1X130020Y58550D1*
G1X131980Y58550D2*
G1X140020Y58550D1*
G1X141980Y58550D2*
G1X150020Y58550D1*
G1X151980Y58550D2*
G1X160020Y58550D1*
G1X161980Y58550D2*
G1X170020Y58550D1*
G1X171980Y58550D2*
G1X180020Y58550D1*
G1X181980Y58550D2*
G1X190020Y58550D1*
G1X191980Y58550D2*
G1X200020Y58550D1*
G1X201980Y58550D2*
G1X350500Y58550D1*
G1X358250Y58550D2*
G1X359750Y58550D1*
G1X250Y58250D2*
G1X4156Y58250D1*
G1X10475Y58250D2*
G1X14465Y58250D1*
G1X20475Y58250D2*
G1X44465Y58250D1*
G1X47536Y58250D2*
G1X54465Y58250D1*
G1X57536Y58250D2*
G1X74465Y58250D1*
G1X77536Y58250D2*
G1X129465Y58250D1*
G1X132536Y58250D2*
G1X139465Y58250D1*
G1X142536Y58250D2*
G1X149465Y58250D1*
G1X152536Y58250D2*
G1X159465Y58250D1*
G1X162536Y58250D2*
G1X169465Y58250D1*
G1X172536Y58250D2*
G1X179465Y58250D1*
G1X182536Y58250D2*
G1X189465Y58250D1*
G1X192536Y58250D2*
G1X199465Y58250D1*
G1X202536Y58250D2*
G1X350500Y58250D1*
G1X358250Y58250D2*
G1X359750Y58250D1*
G1X250Y57950D2*
G1X3855Y57950D1*
G1X10175Y57950D2*
G1X14164Y57950D1*
G1X20175Y57950D2*
G1X44164Y57950D1*
G1X47835Y57950D2*
G1X54164Y57950D1*
G1X57835Y57950D2*
G1X74164Y57950D1*
G1X77835Y57950D2*
G1X129164Y57950D1*
G1X132835Y57950D2*
G1X139164Y57950D1*
G1X142835Y57950D2*
G1X149164Y57950D1*
G1X152835Y57950D2*
G1X159164Y57950D1*
G1X162835Y57950D2*
G1X169164Y57950D1*
G1X172835Y57950D2*
G1X179164Y57950D1*
G1X182835Y57950D2*
G1X189164Y57950D1*
G1X192835Y57950D2*
G1X199164Y57950D1*
G1X202835Y57950D2*
G1X350500Y57950D1*
G1X358250Y57950D2*
G1X359750Y57950D1*
G1X250Y57650D2*
G1X3638Y57650D1*
G1X9875Y57650D2*
G1X13874Y57650D1*
G1X19875Y57650D2*
G1X43874Y57650D1*
G1X48127Y57650D2*
G1X53874Y57650D1*
G1X58127Y57650D2*
G1X73874Y57650D1*
G1X78127Y57650D2*
G1X128874Y57650D1*
G1X133127Y57650D2*
G1X138874Y57650D1*
G1X143127Y57650D2*
G1X148874Y57650D1*
G1X153127Y57650D2*
G1X158874Y57650D1*
G1X163127Y57650D2*
G1X168874Y57650D1*
G1X173127Y57650D2*
G1X178874Y57650D1*
G1X183127Y57650D2*
G1X188874Y57650D1*
G1X193127Y57650D2*
G1X198874Y57650D1*
G1X203127Y57650D2*
G1X350500Y57650D1*
G1X358250Y57650D2*
G1X359750Y57650D1*
G1X250Y57350D2*
G1X3513Y57350D1*
G1X9575Y57350D2*
G1X13750Y57350D1*
G1X19575Y57350D2*
G1X43750Y57350D1*
G1X48251Y57350D2*
G1X53750Y57350D1*
G1X58251Y57350D2*
G1X73750Y57350D1*
G1X78251Y57350D2*
G1X128750Y57350D1*
G1X133251Y57350D2*
G1X138750Y57350D1*
G1X143250Y57350D2*
G1X148750Y57350D1*
G1X153250Y57350D2*
G1X158750Y57350D1*
G1X163251Y57350D2*
G1X168750Y57350D1*
G1X173251Y57350D2*
G1X178750Y57350D1*
G1X183251Y57350D2*
G1X188750Y57350D1*
G1X193251Y57350D2*
G1X198750Y57350D1*
G1X203251Y57350D2*
G1X350500Y57350D1*
G1X358250Y57350D2*
G1X359750Y57350D1*
G1X250Y57050D2*
G1X3389Y57050D1*
G1X9275Y57050D2*
G1X13625Y57050D1*
G1X19275Y57050D2*
G1X43625Y57050D1*
G1X48374Y57050D2*
G1X53625Y57050D1*
G1X58374Y57050D2*
G1X73625Y57050D1*
G1X78374Y57050D2*
G1X128625Y57050D1*
G1X133374Y57050D2*
G1X138625Y57050D1*
G1X143374Y57050D2*
G1X148625Y57050D1*
G1X153374Y57050D2*
G1X158625Y57050D1*
G1X163374Y57050D2*
G1X168625Y57050D1*
G1X173374Y57050D2*
G1X178625Y57050D1*
G1X183374Y57050D2*
G1X188625Y57050D1*
G1X193374Y57050D2*
G1X198625Y57050D1*
G1X203374Y57050D2*
G1X350500Y57050D1*
G1X358250Y57050D2*
G1X359750Y57050D1*
G1X250Y56750D2*
G1X3282Y56750D1*
G1X8975Y56750D2*
G1X13501Y56750D1*
G1X18975Y56750D2*
G1X43501Y56750D1*
G1X48498Y56750D2*
G1X53501Y56750D1*
G1X58498Y56750D2*
G1X73501Y56750D1*
G1X78498Y56750D2*
G1X128501Y56750D1*
G1X133498Y56750D2*
G1X138501Y56750D1*
G1X143498Y56750D2*
G1X148501Y56750D1*
G1X153498Y56750D2*
G1X158501Y56750D1*
G1X163498Y56750D2*
G1X168501Y56750D1*
G1X173498Y56750D2*
G1X178501Y56750D1*
G1X183498Y56750D2*
G1X188501Y56750D1*
G1X193498Y56750D2*
G1X198501Y56750D1*
G1X203498Y56750D2*
G1X350500Y56750D1*
G1X358250Y56750D2*
G1X359750Y56750D1*
G1X250Y56450D2*
G1X3282Y56450D1*
G1X8719Y56450D2*
G1X13500Y56450D1*
G1X18675Y56450D2*
G1X43500Y56450D1*
G1X48500Y56450D2*
G1X53500Y56450D1*
G1X58500Y56450D2*
G1X73500Y56450D1*
G1X78500Y56450D2*
G1X128500Y56450D1*
G1X133500Y56450D2*
G1X138500Y56450D1*
G1X143500Y56450D2*
G1X148500Y56450D1*
G1X153500Y56450D2*
G1X158500Y56450D1*
G1X163500Y56450D2*
G1X168500Y56450D1*
G1X173500Y56450D2*
G1X178500Y56450D1*
G1X183500Y56450D2*
G1X188500Y56450D1*
G1X193500Y56450D2*
G1X198500Y56450D1*
G1X203500Y56450D2*
G1X350500Y56450D1*
G1X358250Y56450D2*
G1X359750Y56450D1*
G1X250Y56150D2*
G1X3281Y56150D1*
G1X8718Y56150D2*
G1X13500Y56150D1*
G1X18500Y56150D2*
G1X43500Y56150D1*
G1X48500Y56150D2*
G1X53500Y56150D1*
G1X58500Y56150D2*
G1X73500Y56150D1*
G1X78500Y56150D2*
G1X128500Y56150D1*
G1X133500Y56150D2*
G1X138500Y56150D1*
G1X143500Y56150D2*
G1X148500Y56150D1*
G1X153500Y56150D2*
G1X158500Y56150D1*
G1X163500Y56150D2*
G1X168500Y56150D1*
G1X173500Y56150D2*
G1X178500Y56150D1*
G1X183500Y56150D2*
G1X188500Y56150D1*
G1X193500Y56150D2*
G1X198500Y56150D1*
G1X203500Y56150D2*
G1X350500Y56150D1*
G1X358250Y56150D2*
G1X359750Y56150D1*
G1X250Y55850D2*
G1X3281Y55850D1*
G1X8718Y55850D2*
G1X13500Y55850D1*
G1X18500Y55850D2*
G1X43500Y55850D1*
G1X48500Y55850D2*
G1X53500Y55850D1*
G1X58500Y55850D2*
G1X73500Y55850D1*
G1X78500Y55850D2*
G1X128500Y55850D1*
G1X133500Y55850D2*
G1X138500Y55850D1*
G1X143500Y55850D2*
G1X148500Y55850D1*
G1X153500Y55850D2*
G1X158500Y55850D1*
G1X163500Y55850D2*
G1X168500Y55850D1*
G1X173500Y55850D2*
G1X178500Y55850D1*
G1X183500Y55850D2*
G1X188500Y55850D1*
G1X193500Y55850D2*
G1X198500Y55850D1*
G1X203500Y55850D2*
G1X350500Y55850D1*
G1X358250Y55850D2*
G1X359750Y55850D1*
G1X250Y55550D2*
G1X3348Y55550D1*
G1X8653Y55550D2*
G1X13584Y55550D1*
G1X18416Y55550D2*
G1X43584Y55550D1*
G1X48416Y55550D2*
G1X53584Y55550D1*
G1X58416Y55550D2*
G1X73584Y55550D1*
G1X78416Y55550D2*
G1X128584Y55550D1*
G1X133416Y55550D2*
G1X138584Y55550D1*
G1X143416Y55550D2*
G1X148584Y55550D1*
G1X153416Y55550D2*
G1X158584Y55550D1*
G1X163416Y55550D2*
G1X168584Y55550D1*
G1X173416Y55550D2*
G1X178584Y55550D1*
G1X183416Y55550D2*
G1X188584Y55550D1*
G1X193416Y55550D2*
G1X198584Y55550D1*
G1X203416Y55550D2*
G1X350500Y55550D1*
G1X358250Y55550D2*
G1X359750Y55550D1*
G1X250Y55250D2*
G1X3472Y55250D1*
G1X8528Y55250D2*
G1X13708Y55250D1*
G1X18292Y55250D2*
G1X43708Y55250D1*
G1X48292Y55250D2*
G1X53708Y55250D1*
G1X58292Y55250D2*
G1X73708Y55250D1*
G1X78292Y55250D2*
G1X128708Y55250D1*
G1X133292Y55250D2*
G1X138708Y55250D1*
G1X143292Y55250D2*
G1X148708Y55250D1*
G1X153292Y55250D2*
G1X158708Y55250D1*
G1X163292Y55250D2*
G1X168708Y55250D1*
G1X173292Y55250D2*
G1X178708Y55250D1*
G1X183292Y55250D2*
G1X188708Y55250D1*
G1X193292Y55250D2*
G1X198708Y55250D1*
G1X203292Y55250D2*
G1X350500Y55250D1*
G1X358250Y55250D2*
G1X359750Y55250D1*
G1X250Y54950D2*
G1X3596Y54950D1*
G1X8404Y54950D2*
G1X13832Y54950D1*
G1X18167Y54950D2*
G1X43832Y54950D1*
G1X48167Y54950D2*
G1X53832Y54950D1*
G1X58167Y54950D2*
G1X73832Y54950D1*
G1X78167Y54950D2*
G1X128832Y54950D1*
G1X133167Y54950D2*
G1X138832Y54950D1*
G1X143167Y54950D2*
G1X148832Y54950D1*
G1X153167Y54950D2*
G1X158832Y54950D1*
G1X163167Y54950D2*
G1X168832Y54950D1*
G1X173167Y54950D2*
G1X178832Y54950D1*
G1X183167Y54950D2*
G1X188832Y54950D1*
G1X193167Y54950D2*
G1X198832Y54950D1*
G1X203167Y54950D2*
G1X350500Y54950D1*
G1X358250Y54950D2*
G1X359750Y54950D1*
G1X250Y54650D2*
G1X3756Y54650D1*
G1X8245Y54650D2*
G1X14065Y54650D1*
G1X17936Y54650D2*
G1X44065Y54650D1*
G1X47936Y54650D2*
G1X54065Y54650D1*
G1X57936Y54650D2*
G1X74065Y54650D1*
G1X77936Y54650D2*
G1X129065Y54650D1*
G1X132936Y54650D2*
G1X139065Y54650D1*
G1X142936Y54650D2*
G1X149065Y54650D1*
G1X152936Y54650D2*
G1X159065Y54650D1*
G1X162936Y54650D2*
G1X169065Y54650D1*
G1X172936Y54650D2*
G1X179065Y54650D1*
G1X182936Y54650D2*
G1X189065Y54650D1*
G1X192936Y54650D2*
G1X199065Y54650D1*
G1X202936Y54650D2*
G1X350500Y54650D1*
G1X358250Y54650D2*
G1X359750Y54650D1*
G1X250Y54350D2*
G1X4055Y54350D1*
G1X7945Y54350D2*
G1X14364Y54350D1*
G1X17635Y54350D2*
G1X44364Y54350D1*
G1X47635Y54350D2*
G1X54364Y54350D1*
G1X57635Y54350D2*
G1X74364Y54350D1*
G1X77635Y54350D2*
G1X129364Y54350D1*
G1X132635Y54350D2*
G1X139364Y54350D1*
G1X142635Y54350D2*
G1X149364Y54350D1*
G1X152635Y54350D2*
G1X159364Y54350D1*
G1X162635Y54350D2*
G1X169364Y54350D1*
G1X172635Y54350D2*
G1X179364Y54350D1*
G1X182635Y54350D2*
G1X189364Y54350D1*
G1X192635Y54350D2*
G1X199364Y54350D1*
G1X202635Y54350D2*
G1X350500Y54350D1*
G1X358250Y54350D2*
G1X359750Y54350D1*
G1X250Y54050D2*
G1X4355Y54050D1*
G1X7644Y54050D2*
G1X14779Y54050D1*
G1X17222Y54050D2*
G1X44779Y54050D1*
G1X47222Y54050D2*
G1X54779Y54050D1*
G1X57222Y54050D2*
G1X74779Y54050D1*
G1X77222Y54050D2*
G1X129779Y54050D1*
G1X132222Y54050D2*
G1X139779Y54050D1*
G1X142222Y54050D2*
G1X149779Y54050D1*
G1X152222Y54050D2*
G1X159779Y54050D1*
G1X162222Y54050D2*
G1X169779Y54050D1*
G1X172222Y54050D2*
G1X179779Y54050D1*
G1X182222Y54050D2*
G1X189779Y54050D1*
G1X192222Y54050D2*
G1X199779Y54050D1*
G1X202222Y54050D2*
G1X350500Y54050D1*
G1X358250Y54050D2*
G1X359750Y54050D1*
G1X250Y53750D2*
G1X4932Y53750D1*
G1X7068Y53750D2*
G1X16000Y53750D1*
G1X16496Y53750D2*
G1X46000Y53750D1*
G1X46496Y53750D2*
G1X56000Y53750D1*
G1X56496Y53750D2*
G1X76000Y53750D1*
G1X76496Y53750D2*
G1X131000Y53750D1*
G1X131496Y53750D2*
G1X141000Y53750D1*
G1X141496Y53750D2*
G1X151000Y53750D1*
G1X151496Y53750D2*
G1X161000Y53750D1*
G1X161496Y53750D2*
G1X171000Y53750D1*
G1X171496Y53750D2*
G1X181000Y53750D1*
G1X181496Y53750D2*
G1X191000Y53750D1*
G1X191496Y53750D2*
G1X201000Y53750D1*
G1X201496Y53750D2*
G1X350500Y53750D1*
G1X358250Y53750D2*
G1X359750Y53750D1*
G1X250Y53450D2*
G1X350500Y53450D1*
G1X358250Y53450D2*
G1X359750Y53450D1*
G1X250Y53150D2*
G1X350500Y53150D1*
G1X358250Y53150D2*
G1X359750Y53150D1*
G1X250Y52850D2*
G1X350500Y52850D1*
G1X358250Y52850D2*
G1X359750Y52850D1*
G1X250Y52550D2*
G1X350500Y52550D1*
G1X358250Y52550D2*
G1X359750Y52550D1*
G1X250Y52250D2*
G1X350500Y52250D1*
G1X358250Y52250D2*
G1X359750Y52250D1*
G1X250Y51950D2*
G1X350500Y51950D1*
G1X358250Y51950D2*
G1X359750Y51950D1*
G1X250Y51650D2*
G1X350500Y51650D1*
G1X358250Y51650D2*
G1X359750Y51650D1*
G1X250Y51350D2*
G1X350500Y51350D1*
G1X358250Y51350D2*
G1X359750Y51350D1*
G1X250Y51050D2*
G1X350500Y51050D1*
G1X358250Y51050D2*
G1X359750Y51050D1*
G1X250Y50750D2*
G1X350500Y50750D1*
G1X358250Y50750D2*
G1X359750Y50750D1*
G1X250Y50450D2*
G1X350500Y50450D1*
G1X358250Y50450D2*
G1X359750Y50450D1*
G1X250Y50150D2*
G1X350500Y50150D1*
G1X358250Y50150D2*
G1X359750Y50150D1*
G1X250Y49850D2*
G1X350500Y49850D1*
G1X358250Y49850D2*
G1X359750Y49850D1*
G1X250Y49550D2*
G1X350500Y49550D1*
G1X358250Y49550D2*
G1X359750Y49550D1*
G1X250Y49250D2*
G1X350500Y49250D1*
G1X358250Y49250D2*
G1X359750Y49250D1*
G1X250Y48950D2*
G1X350500Y48950D1*
G1X358250Y48950D2*
G1X359750Y48950D1*
G1X250Y48650D2*
G1X350500Y48650D1*
G1X358250Y48650D2*
G1X359750Y48650D1*
G1X250Y48350D2*
G1X350500Y48350D1*
G1X358250Y48350D2*
G1X359750Y48350D1*
G1X250Y48050D2*
G1X350500Y48050D1*
G1X358250Y48050D2*
G1X359750Y48050D1*
G1X250Y47750D2*
G1X350500Y47750D1*
G1X358250Y47750D2*
G1X359750Y47750D1*
G1X250Y47450D2*
G1X350500Y47450D1*
G1X358250Y47450D2*
G1X359750Y47450D1*
G1X250Y47150D2*
G1X350500Y47150D1*
G1X358250Y47150D2*
G1X359750Y47150D1*
G1X250Y46850D2*
G1X350500Y46850D1*
G1X358250Y46850D2*
G1X359750Y46850D1*
G1X250Y46550D2*
G1X350500Y46550D1*
G1X358250Y46550D2*
G1X359750Y46550D1*
G1X250Y46250D2*
G1X350500Y46250D1*
G1X358250Y46250D2*
G1X359750Y46250D1*
G1X250Y45950D2*
G1X350500Y45950D1*
G1X358250Y45950D2*
G1X359750Y45950D1*
G1X250Y45650D2*
G1X350500Y45650D1*
G1X358250Y45650D2*
G1X359750Y45650D1*
G1X250Y45350D2*
G1X350500Y45350D1*
G1X358250Y45350D2*
G1X359750Y45350D1*
G1X250Y45050D2*
G1X350500Y45050D1*
G1X358250Y45050D2*
G1X359750Y45050D1*
G1X250Y44750D2*
G1X350500Y44750D1*
G1X358250Y44750D2*
G1X359750Y44750D1*
G1X250Y44450D2*
G1X350500Y44450D1*
G1X358250Y44450D2*
G1X359750Y44450D1*
G1X250Y44150D2*
G1X350500Y44150D1*
G1X358250Y44150D2*
G1X359750Y44150D1*
G1X250Y43850D2*
G1X350500Y43850D1*
G1X358250Y43850D2*
G1X359750Y43850D1*
G1X250Y43550D2*
G1X350500Y43550D1*
G1X358250Y43550D2*
G1X359750Y43550D1*
G1X250Y43250D2*
G1X350500Y43250D1*
G1X358250Y43250D2*
G1X359750Y43250D1*
G1X250Y42950D2*
G1X350500Y42950D1*
G1X358250Y42950D2*
G1X359750Y42950D1*
G1X250Y42650D2*
G1X350500Y42650D1*
G1X358250Y42650D2*
G1X359750Y42650D1*
G1X250Y42350D2*
G1X350500Y42350D1*
G1X358250Y42350D2*
G1X359750Y42350D1*
G1X250Y42050D2*
G1X350500Y42050D1*
G1X358250Y42050D2*
G1X359750Y42050D1*
G1X250Y41750D2*
G1X350500Y41750D1*
G1X358250Y41750D2*
G1X359750Y41750D1*
G1X250Y41450D2*
G1X350500Y41450D1*
G1X358250Y41450D2*
G1X359750Y41450D1*
G1X250Y41150D2*
G1X350500Y41150D1*
G1X358250Y41150D2*
G1X359750Y41150D1*
G1X250Y40850D2*
G1X350500Y40850D1*
G1X358250Y40850D2*
G1X359750Y40850D1*
G1X250Y40550D2*
G1X350500Y40550D1*
G1X358250Y40550D2*
G1X359750Y40550D1*
G1X250Y40250D2*
G1X350500Y40250D1*
G1X358250Y40250D2*
G1X359750Y40250D1*
G1X250Y39950D2*
G1X350500Y39950D1*
G1X358250Y39950D2*
G1X359750Y39950D1*
G1X250Y39650D2*
G1X350500Y39650D1*
G1X358250Y39650D2*
G1X359750Y39650D1*
G1X250Y39350D2*
G1X350500Y39350D1*
G1X358250Y39350D2*
G1X359750Y39350D1*
G1X250Y39050D2*
G1X350500Y39050D1*
G1X358250Y39050D2*
G1X359750Y39050D1*
G1X250Y38750D2*
G1X350500Y38750D1*
G1X358250Y38750D2*
G1X359750Y38750D1*
G1X250Y38450D2*
G1X350500Y38450D1*
G1X358250Y38450D2*
G1X359750Y38450D1*
G1X250Y38150D2*
G1X350500Y38150D1*
G1X358250Y38150D2*
G1X359750Y38150D1*
G1X250Y37850D2*
G1X350500Y37850D1*
G1X358250Y37850D2*
G1X359750Y37850D1*
G1X250Y37550D2*
G1X350500Y37550D1*
G1X358250Y37550D2*
G1X359750Y37550D1*
G1X250Y37250D2*
G1X350500Y37250D1*
G1X358250Y37250D2*
G1X359750Y37250D1*
G1X250Y36950D2*
G1X350500Y36950D1*
G1X358250Y36950D2*
G1X359750Y36950D1*
G1X250Y36650D2*
G1X350500Y36650D1*
G1X358250Y36650D2*
G1X359750Y36650D1*
G1X250Y36350D2*
G1X350500Y36350D1*
G1X358250Y36350D2*
G1X359750Y36350D1*
G1X250Y36050D2*
G1X350500Y36050D1*
G1X358250Y36050D2*
G1X359750Y36050D1*
G1X250Y35750D2*
G1X350500Y35750D1*
G1X358250Y35750D2*
G1X359750Y35750D1*
G1X250Y35450D2*
G1X350500Y35450D1*
G1X358250Y35450D2*
G1X359750Y35450D1*
G1X250Y35150D2*
G1X350500Y35150D1*
G1X358250Y35150D2*
G1X359750Y35150D1*
G1X250Y34850D2*
G1X350500Y34850D1*
G1X358250Y34850D2*
G1X359750Y34850D1*
G1X250Y34550D2*
G1X350500Y34550D1*
G1X358250Y34550D2*
G1X359750Y34550D1*
G1X250Y34250D2*
G1X350500Y34250D1*
G1X358250Y34250D2*
G1X359750Y34250D1*
G1X250Y33950D2*
G1X350500Y33950D1*
G1X358250Y33950D2*
G1X359750Y33950D1*
G1X250Y33650D2*
G1X350500Y33650D1*
G1X358250Y33650D2*
G1X359750Y33650D1*
G1X250Y33350D2*
G1X350500Y33350D1*
G1X358250Y33350D2*
G1X359750Y33350D1*
G1X250Y33050D2*
G1X350500Y33050D1*
G1X358250Y33050D2*
G1X359750Y33050D1*
G1X250Y32750D2*
G1X350500Y32750D1*
G1X358250Y32750D2*
G1X359750Y32750D1*
G1X250Y32450D2*
G1X350500Y32450D1*
G1X358250Y32450D2*
G1X359750Y32450D1*
G1X250Y32150D2*
G1X350500Y32150D1*
G1X358250Y32150D2*
G1X359750Y32150D1*
G1X250Y31850D2*
G1X350500Y31850D1*
G1X358250Y31850D2*
G1X359750Y31850D1*
G1X250Y31550D2*
G1X350500Y31550D1*
G1X358250Y31550D2*
G1X359750Y31550D1*
G1X250Y31250D2*
G1X350500Y31250D1*
G1X358250Y31250D2*
G1X359750Y31250D1*
G1X250Y30950D2*
G1X350500Y30950D1*
G1X358250Y30950D2*
G1X359750Y30950D1*
G1X250Y30650D2*
G1X350500Y30650D1*
G1X358250Y30650D2*
G1X359750Y30650D1*
G1X250Y30350D2*
G1X350500Y30350D1*
G1X358250Y30350D2*
G1X359750Y30350D1*
G1X250Y30050D2*
G1X350500Y30050D1*
G1X358250Y30050D2*
G1X359750Y30050D1*
G1X250Y29750D2*
G1X350500Y29750D1*
G1X358250Y29750D2*
G1X359750Y29750D1*
G1X250Y29450D2*
G1X350500Y29450D1*
G1X358250Y29450D2*
G1X359750Y29450D1*
G1X250Y29150D2*
G1X350500Y29150D1*
G1X358250Y29150D2*
G1X359750Y29150D1*
G1X250Y28850D2*
G1X350500Y28850D1*
G1X358250Y28850D2*
G1X359750Y28850D1*
G1X250Y28550D2*
G1X350500Y28550D1*
G1X358250Y28550D2*
G1X359750Y28550D1*
G1X250Y28250D2*
G1X15156Y28250D1*
G1X81844Y28250D2*
G1X350500Y28250D1*
G1X358250Y28250D2*
G1X359750Y28250D1*
G1X250Y27950D2*
G1X14738Y27950D1*
G1X82262Y27950D2*
G1X350500Y27950D1*
G1X358250Y27950D2*
G1X359750Y27950D1*
G1X250Y27650D2*
G1X14537Y27650D1*
G1X82463Y27650D2*
G1X350500Y27650D1*
G1X358250Y27650D2*
G1X359750Y27650D1*
G1X250Y27350D2*
G1X14369Y27350D1*
G1X82631Y27350D2*
G1X350500Y27350D1*
G1X358250Y27350D2*
G1X359750Y27350D1*
G1X250Y27050D2*
G1X14310Y27050D1*
G1X82690Y27050D2*
G1X350500Y27050D1*
G1X358250Y27050D2*
G1X359750Y27050D1*
G1X250Y26750D2*
G1X14250Y26750D1*
G1X82750Y26750D2*
G1X350500Y26750D1*
G1X358250Y26750D2*
G1X359750Y26750D1*
G1X250Y26450D2*
G1X14310Y26450D1*
G1X82690Y26450D2*
G1X350500Y26450D1*
G1X358250Y26450D2*
G1X359750Y26450D1*
G1X250Y26150D2*
G1X14369Y26150D1*
G1X82631Y26150D2*
G1X350500Y26150D1*
G1X358250Y26150D2*
G1X359750Y26150D1*
G1X250Y25850D2*
G1X4555Y25850D1*
G1X82463Y25850D2*
G1X350500Y25850D1*
G1X358250Y25850D2*
G1X359750Y25850D1*
G1X250Y25550D2*
G1X4106Y25550D1*
G1X82262Y25550D2*
G1X350500Y25550D1*
G1X358250Y25550D2*
G1X359750Y25550D1*
G1X250Y25250D2*
G1X3854Y25250D1*
G1X81844Y25250D2*
G1X350500Y25250D1*
G1X358250Y25250D2*
G1X359750Y25250D1*
G1X250Y24950D2*
G1X3653Y24950D1*
G1X71963Y24950D2*
G1X350500Y24950D1*
G1X358250Y24950D2*
G1X359750Y24950D1*
G1X250Y24650D2*
G1X3580Y24650D1*
G1X72061Y24650D2*
G1X350425Y24650D1*
G1X358250Y24650D2*
G1X359750Y24650D1*
G1X250Y24350D2*
G1X3520Y24350D1*
G1X72120Y24350D2*
G1X350125Y24350D1*
G1X358250Y24350D2*
G1X359750Y24350D1*
G1X250Y24050D2*
G1X3540Y24050D1*
G1X72120Y24050D2*
G1X349825Y24050D1*
G1X358250Y24050D2*
G1X359750Y24050D1*
G1X250Y23750D2*
G1X3599Y23750D1*
G1X72060Y23750D2*
G1X349525Y23750D1*
G1X358250Y23750D2*
G1X359750Y23750D1*
G1X250Y23450D2*
G1X3720Y23450D1*
G1X71963Y23450D2*
G1X349225Y23450D1*
G1X358250Y23450D2*
G1X359750Y23450D1*
G1X250Y23150D2*
G1X3921Y23150D1*
G1X71763Y23150D2*
G1X348925Y23150D1*
G1X358250Y23150D2*
G1X359750Y23150D1*
G1X250Y22850D2*
G1X4231Y22850D1*
G1X71469Y22850D2*
G1X348625Y22850D1*
G1X358250Y22850D2*
G1X359750Y22850D1*
G1X250Y22550D2*
G1X4797Y22550D1*
G1X70903Y22550D2*
G1X348325Y22550D1*
G1X358250Y22550D2*
G1X359750Y22550D1*
G1X250Y22250D2*
G1X348025Y22250D1*
G1X358200Y22250D2*
G1X359750Y22250D1*
G1X250Y21950D2*
G1X347725Y21950D1*
G1X358141Y21950D2*
G1X359750Y21950D1*
G1X250Y21650D2*
G1X347425Y21650D1*
G1X358081Y21650D2*
G1X359750Y21650D1*
G1X250Y21350D2*
G1X347125Y21350D1*
G1X357886Y21350D2*
G1X359750Y21350D1*
G1X250Y21050D2*
G1X346825Y21050D1*
G1X357685Y21050D2*
G1X359750Y21050D1*
G1X250Y20750D2*
G1X346525Y20750D1*
G1X357432Y20750D2*
G1X359750Y20750D1*
G1X250Y20450D2*
G1X346225Y20450D1*
G1X357132Y20450D2*
G1X359750Y20450D1*
G1X250Y20150D2*
G1X345925Y20150D1*
G1X356832Y20150D2*
G1X359750Y20150D1*
G1X250Y19850D2*
G1X345625Y19850D1*
G1X356532Y19850D2*
G1X359750Y19850D1*
G1X250Y19550D2*
G1X345325Y19550D1*
G1X356232Y19550D2*
G1X359750Y19550D1*
G1X250Y19250D2*
G1X345025Y19250D1*
G1X355932Y19250D2*
G1X359750Y19250D1*
G1X250Y18950D2*
G1X3855Y18950D1*
G1X8132Y18950D2*
G1X15639Y18950D1*
G1X16361Y18950D2*
G1X25639Y18950D1*
G1X26361Y18950D2*
G1X35639Y18950D1*
G1X36361Y18950D2*
G1X45639Y18950D1*
G1X46361Y18950D2*
G1X55639Y18950D1*
G1X56361Y18950D2*
G1X65639Y18950D1*
G1X66361Y18950D2*
G1X75639Y18950D1*
G1X76361Y18950D2*
G1X85639Y18950D1*
G1X86361Y18950D2*
G1X95639Y18950D1*
G1X96361Y18950D2*
G1X111355Y18950D1*
G1X115632Y18950D2*
G1X344725Y18950D1*
G1X355632Y18950D2*
G1X359750Y18950D1*
G1X250Y18650D2*
G1X3419Y18650D1*
G1X8582Y18650D2*
G1X14713Y18650D1*
G1X17287Y18650D2*
G1X24713Y18650D1*
G1X27287Y18650D2*
G1X34713Y18650D1*
G1X37287Y18650D2*
G1X44713Y18650D1*
G1X47287Y18650D2*
G1X54713Y18650D1*
G1X57287Y18650D2*
G1X64713Y18650D1*
G1X67287Y18650D2*
G1X74713Y18650D1*
G1X77287Y18650D2*
G1X84713Y18650D1*
G1X87287Y18650D2*
G1X94713Y18650D1*
G1X97287Y18650D2*
G1X110919Y18650D1*
G1X116082Y18650D2*
G1X344425Y18650D1*
G1X355332Y18650D2*
G1X359750Y18650D1*
G1X250Y18350D2*
G1X3293Y18350D1*
G1X8708Y18350D2*
G1X14264Y18350D1*
G1X17736Y18350D2*
G1X24264Y18350D1*
G1X27736Y18350D2*
G1X34264Y18350D1*
G1X37736Y18350D2*
G1X44264Y18350D1*
G1X47736Y18350D2*
G1X54264Y18350D1*
G1X57736Y18350D2*
G1X64264Y18350D1*
G1X67736Y18350D2*
G1X74264Y18350D1*
G1X77736Y18350D2*
G1X84264Y18350D1*
G1X87736Y18350D2*
G1X94264Y18350D1*
G1X97736Y18350D2*
G1X110793Y18350D1*
G1X116208Y18350D2*
G1X344125Y18350D1*
G1X355032Y18350D2*
G1X359750Y18350D1*
G1X250Y18050D2*
G1X3267Y18050D1*
G1X8733Y18050D2*
G1X13960Y18050D1*
G1X18040Y18050D2*
G1X23960Y18050D1*
G1X28040Y18050D2*
G1X33960Y18050D1*
G1X38040Y18050D2*
G1X43960Y18050D1*
G1X48040Y18050D2*
G1X53960Y18050D1*
G1X58040Y18050D2*
G1X63960Y18050D1*
G1X68040Y18050D2*
G1X73960Y18050D1*
G1X78040Y18050D2*
G1X83960Y18050D1*
G1X88040Y18050D2*
G1X93960Y18050D1*
G1X98040Y18050D2*
G1X110767Y18050D1*
G1X116233Y18050D2*
G1X343825Y18050D1*
G1X354732Y18050D2*
G1X359750Y18050D1*
G1X250Y17750D2*
G1X3267Y17750D1*
G1X8733Y17750D2*
G1X13760Y17750D1*
G1X18240Y17750D2*
G1X23760Y17750D1*
G1X28240Y17750D2*
G1X33760Y17750D1*
G1X38240Y17750D2*
G1X43760Y17750D1*
G1X48240Y17750D2*
G1X53760Y17750D1*
G1X58240Y17750D2*
G1X63760Y17750D1*
G1X68240Y17750D2*
G1X73760Y17750D1*
G1X78240Y17750D2*
G1X83760Y17750D1*
G1X88240Y17750D2*
G1X93760Y17750D1*
G1X98240Y17750D2*
G1X110767Y17750D1*
G1X116233Y17750D2*
G1X343525Y17750D1*
G1X354432Y17750D2*
G1X359750Y17750D1*
G1X250Y17450D2*
G1X3267Y17450D1*
G1X8733Y17450D2*
G1X13560Y17450D1*
G1X18440Y17450D2*
G1X23560Y17450D1*
G1X28440Y17450D2*
G1X33560Y17450D1*
G1X38440Y17450D2*
G1X43560Y17450D1*
G1X48440Y17450D2*
G1X53560Y17450D1*
G1X58440Y17450D2*
G1X63560Y17450D1*
G1X68440Y17450D2*
G1X73560Y17450D1*
G1X78440Y17450D2*
G1X83560Y17450D1*
G1X88440Y17450D2*
G1X93560Y17450D1*
G1X98440Y17450D2*
G1X110767Y17450D1*
G1X116233Y17450D2*
G1X343225Y17450D1*
G1X354132Y17450D2*
G1X359750Y17450D1*
G1X250Y17150D2*
G1X3267Y17150D1*
G1X8733Y17150D2*
G1X13450Y17150D1*
G1X18550Y17150D2*
G1X23450Y17150D1*
G1X28550Y17150D2*
G1X33450Y17150D1*
G1X38550Y17150D2*
G1X43450Y17150D1*
G1X48550Y17150D2*
G1X53450Y17150D1*
G1X58550Y17150D2*
G1X63450Y17150D1*
G1X68550Y17150D2*
G1X73450Y17150D1*
G1X78550Y17150D2*
G1X83450Y17150D1*
G1X88550Y17150D2*
G1X93450Y17150D1*
G1X98550Y17150D2*
G1X110767Y17150D1*
G1X116233Y17150D2*
G1X342925Y17150D1*
G1X353832Y17150D2*
G1X359750Y17150D1*
G1X250Y16850D2*
G1X3267Y16850D1*
G1X8733Y16850D2*
G1X13390Y16850D1*
G1X18610Y16850D2*
G1X23390Y16850D1*
G1X28610Y16850D2*
G1X33390Y16850D1*
G1X38610Y16850D2*
G1X43390Y16850D1*
G1X48610Y16850D2*
G1X53390Y16850D1*
G1X58610Y16850D2*
G1X63390Y16850D1*
G1X68610Y16850D2*
G1X73390Y16850D1*
G1X78610Y16850D2*
G1X83390Y16850D1*
G1X88610Y16850D2*
G1X93390Y16850D1*
G1X98610Y16850D2*
G1X110767Y16850D1*
G1X116233Y16850D2*
G1X121555Y16850D1*
G1X353532Y16850D2*
G1X359750Y16850D1*
G1X250Y16550D2*
G1X3267Y16550D1*
G1X8733Y16550D2*
G1X13331Y16550D1*
G1X18669Y16550D2*
G1X23331Y16550D1*
G1X28669Y16550D2*
G1X33331Y16550D1*
G1X38669Y16550D2*
G1X43331Y16550D1*
G1X48669Y16550D2*
G1X53331Y16550D1*
G1X58669Y16550D2*
G1X63331Y16550D1*
G1X68669Y16550D2*
G1X73331Y16550D1*
G1X78669Y16550D2*
G1X83331Y16550D1*
G1X88669Y16550D2*
G1X93331Y16550D1*
G1X98669Y16550D2*
G1X110767Y16550D1*
G1X116233Y16550D2*
G1X121106Y16550D1*
G1X353232Y16550D2*
G1X359750Y16550D1*
G1X250Y16250D2*
G1X3267Y16250D1*
G1X8733Y16250D2*
G1X13281Y16250D1*
G1X18719Y16250D2*
G1X23281Y16250D1*
G1X28719Y16250D2*
G1X33281Y16250D1*
G1X38719Y16250D2*
G1X43281Y16250D1*
G1X48719Y16250D2*
G1X53281Y16250D1*
G1X58719Y16250D2*
G1X63281Y16250D1*
G1X68719Y16250D2*
G1X73281Y16250D1*
G1X78719Y16250D2*
G1X83281Y16250D1*
G1X88719Y16250D2*
G1X93281Y16250D1*
G1X98719Y16250D2*
G1X110767Y16250D1*
G1X116233Y16250D2*
G1X120854Y16250D1*
G1X352932Y16250D2*
G1X359750Y16250D1*
G1X250Y15950D2*
G1X3267Y15950D1*
G1X8733Y15950D2*
G1X13331Y15950D1*
G1X18669Y15950D2*
G1X23331Y15950D1*
G1X28669Y15950D2*
G1X33331Y15950D1*
G1X38669Y15950D2*
G1X43331Y15950D1*
G1X48669Y15950D2*
G1X53331Y15950D1*
G1X58669Y15950D2*
G1X63331Y15950D1*
G1X68669Y15950D2*
G1X73331Y15950D1*
G1X78669Y15950D2*
G1X83331Y15950D1*
G1X88669Y15950D2*
G1X93331Y15950D1*
G1X98669Y15950D2*
G1X110767Y15950D1*
G1X116233Y15950D2*
G1X120653Y15950D1*
G1X352632Y15950D2*
G1X359750Y15950D1*
G1X250Y15650D2*
G1X3267Y15650D1*
G1X8733Y15650D2*
G1X13390Y15650D1*
G1X18610Y15650D2*
G1X23390Y15650D1*
G1X28610Y15650D2*
G1X33390Y15650D1*
G1X38610Y15650D2*
G1X43390Y15650D1*
G1X48610Y15650D2*
G1X53390Y15650D1*
G1X58610Y15650D2*
G1X63390Y15650D1*
G1X68610Y15650D2*
G1X73390Y15650D1*
G1X78610Y15650D2*
G1X83390Y15650D1*
G1X88610Y15650D2*
G1X93390Y15650D1*
G1X98610Y15650D2*
G1X110767Y15650D1*
G1X116233Y15650D2*
G1X120580Y15650D1*
G1X352332Y15650D2*
G1X359750Y15650D1*
G1X250Y15350D2*
G1X3267Y15350D1*
G1X8733Y15350D2*
G1X13450Y15350D1*
G1X18550Y15350D2*
G1X23450Y15350D1*
G1X28550Y15350D2*
G1X33450Y15350D1*
G1X38550Y15350D2*
G1X43450Y15350D1*
G1X48550Y15350D2*
G1X53450Y15350D1*
G1X58550Y15350D2*
G1X63450Y15350D1*
G1X68550Y15350D2*
G1X73450Y15350D1*
G1X78550Y15350D2*
G1X83450Y15350D1*
G1X88550Y15350D2*
G1X93450Y15350D1*
G1X98550Y15350D2*
G1X110767Y15350D1*
G1X116233Y15350D2*
G1X120520Y15350D1*
G1X352032Y15350D2*
G1X359750Y15350D1*
G1X250Y15050D2*
G1X3267Y15050D1*
G1X8733Y15050D2*
G1X13560Y15050D1*
G1X18440Y15050D2*
G1X23560Y15050D1*
G1X28440Y15050D2*
G1X33560Y15050D1*
G1X38440Y15050D2*
G1X43560Y15050D1*
G1X48440Y15050D2*
G1X53560Y15050D1*
G1X58440Y15050D2*
G1X63560Y15050D1*
G1X68440Y15050D2*
G1X73560Y15050D1*
G1X78440Y15050D2*
G1X83560Y15050D1*
G1X88440Y15050D2*
G1X93560Y15050D1*
G1X98440Y15050D2*
G1X110767Y15050D1*
G1X116233Y15050D2*
G1X120540Y15050D1*
G1X351732Y15050D2*
G1X359750Y15050D1*
G1X250Y14750D2*
G1X3267Y14750D1*
G1X8733Y14750D2*
G1X13760Y14750D1*
G1X18240Y14750D2*
G1X23760Y14750D1*
G1X28240Y14750D2*
G1X33760Y14750D1*
G1X38240Y14750D2*
G1X43760Y14750D1*
G1X48240Y14750D2*
G1X53760Y14750D1*
G1X58240Y14750D2*
G1X63760Y14750D1*
G1X68240Y14750D2*
G1X73760Y14750D1*
G1X78240Y14750D2*
G1X83760Y14750D1*
G1X88240Y14750D2*
G1X93760Y14750D1*
G1X98240Y14750D2*
G1X110767Y14750D1*
G1X116233Y14750D2*
G1X120599Y14750D1*
G1X351432Y14750D2*
G1X359750Y14750D1*
G1X250Y14450D2*
G1X3267Y14450D1*
G1X8733Y14450D2*
G1X13960Y14450D1*
G1X18040Y14450D2*
G1X23960Y14450D1*
G1X28040Y14450D2*
G1X33960Y14450D1*
G1X38040Y14450D2*
G1X43960Y14450D1*
G1X48040Y14450D2*
G1X53960Y14450D1*
G1X58040Y14450D2*
G1X63960Y14450D1*
G1X68040Y14450D2*
G1X73960Y14450D1*
G1X78040Y14450D2*
G1X83960Y14450D1*
G1X88040Y14450D2*
G1X93960Y14450D1*
G1X98040Y14450D2*
G1X110767Y14450D1*
G1X116233Y14450D2*
G1X120720Y14450D1*
G1X351132Y14450D2*
G1X359750Y14450D1*
G1X250Y14150D2*
G1X3292Y14150D1*
G1X8707Y14150D2*
G1X14264Y14150D1*
G1X17736Y14150D2*
G1X24264Y14150D1*
G1X27736Y14150D2*
G1X34264Y14150D1*
G1X37736Y14150D2*
G1X44264Y14150D1*
G1X47736Y14150D2*
G1X54264Y14150D1*
G1X57736Y14150D2*
G1X64264Y14150D1*
G1X67736Y14150D2*
G1X74264Y14150D1*
G1X77736Y14150D2*
G1X84264Y14150D1*
G1X87736Y14150D2*
G1X94264Y14150D1*
G1X97736Y14150D2*
G1X110792Y14150D1*
G1X116207Y14150D2*
G1X120921Y14150D1*
G1X350832Y14150D2*
G1X359750Y14150D1*
G1X250Y13850D2*
G1X3418Y13850D1*
G1X8581Y13850D2*
G1X14713Y13850D1*
G1X17287Y13850D2*
G1X24713Y13850D1*
G1X27287Y13850D2*
G1X34713Y13850D1*
G1X37287Y13850D2*
G1X44713Y13850D1*
G1X47287Y13850D2*
G1X54713Y13850D1*
G1X57287Y13850D2*
G1X64713Y13850D1*
G1X67287Y13850D2*
G1X74713Y13850D1*
G1X77287Y13850D2*
G1X84713Y13850D1*
G1X87287Y13850D2*
G1X94713Y13850D1*
G1X97287Y13850D2*
G1X110918Y13850D1*
G1X116081Y13850D2*
G1X121256Y13850D1*
G1X350532Y13850D2*
G1X359750Y13850D1*
G1X250Y13550D2*
G1X3868Y13550D1*
G1X8145Y13550D2*
G1X15639Y13550D1*
G1X16361Y13550D2*
G1X25639Y13550D1*
G1X26361Y13550D2*
G1X30497Y13550D1*
G1X61503Y13550D2*
G1X65639Y13550D1*
G1X66361Y13550D2*
G1X75639Y13550D1*
G1X76361Y13550D2*
G1X85639Y13550D1*
G1X86361Y13550D2*
G1X95639Y13550D1*
G1X96361Y13550D2*
G1X111368Y13550D1*
G1X115645Y13550D2*
G1X121999Y13550D1*
G1X350232Y13550D2*
G1X359750Y13550D1*
G1X250Y13250D2*
G1X29797Y13250D1*
G1X62203Y13250D2*
G1X121221Y13250D1*
G1X349932Y13250D2*
G1X359750Y13250D1*
G1X250Y12950D2*
G1X29382Y12950D1*
G1X62618Y12950D2*
G1X120772Y12950D1*
G1X349632Y12950D2*
G1X359750Y12950D1*
G1X250Y12650D2*
G1X29181Y12650D1*
G1X62819Y12650D2*
G1X120481Y12650D1*
G1X349332Y12650D2*
G1X359750Y12650D1*
G1X250Y12350D2*
G1X28981Y12350D1*
G1X63019Y12350D2*
G1X120281Y12350D1*
G1X349032Y12350D2*
G1X359750Y12350D1*
G1X250Y12050D2*
G1X28879Y12050D1*
G1X63121Y12050D2*
G1X120109Y12050D1*
G1X348732Y12050D2*
G1X359750Y12050D1*
G1X250Y11750D2*
G1X28820Y11750D1*
G1X63180Y11750D2*
G1X120049Y11750D1*
G1X348432Y11750D2*
G1X359750Y11750D1*
G1X250Y11450D2*
G1X28760Y11450D1*
G1X63240Y11450D2*
G1X119990Y11450D1*
G1X348132Y11450D2*
G1X359750Y11450D1*
G1X250Y11150D2*
G1X28800Y11150D1*
G1X63200Y11150D2*
G1X119970Y11150D1*
G1X347832Y11150D2*
G1X359750Y11150D1*
G1X250Y10850D2*
G1X28859Y10850D1*
G1X63141Y10850D2*
G1X120030Y10850D1*
G1X347532Y10850D2*
G1X359750Y10850D1*
G1X250Y10550D2*
G1X28919Y10550D1*
G1X63081Y10550D2*
G1X120089Y10550D1*
G1X347232Y10550D2*
G1X359750Y10550D1*
G1X250Y10250D2*
G1X29114Y10250D1*
G1X62886Y10250D2*
G1X120214Y10250D1*
G1X346932Y10250D2*
G1X359750Y10250D1*
G1X250Y9950D2*
G1X14035Y9950D1*
G1X15057Y9950D2*
G1X16943Y9950D1*
G1X17965Y9950D2*
G1X24035Y9950D1*
G1X25057Y9950D2*
G1X26943Y9950D1*
G1X27965Y9950D2*
G1X29315Y9950D1*
G1X62685Y9950D2*
G1X64035Y9950D1*
G1X65057Y9950D2*
G1X66943Y9950D1*
G1X67965Y9950D2*
G1X74035Y9950D1*
G1X75057Y9950D2*
G1X76943Y9950D1*
G1X77965Y9950D2*
G1X84035Y9950D1*
G1X85057Y9950D2*
G1X86943Y9950D1*
G1X87965Y9950D2*
G1X94035Y9950D1*
G1X95057Y9950D2*
G1X96943Y9950D1*
G1X97965Y9950D2*
G1X111629Y9950D1*
G1X112569Y9950D2*
G1X114431Y9950D1*
G1X115371Y9950D2*
G1X120415Y9950D1*
G1X346632Y9950D2*
G1X359750Y9950D1*
G1X250Y9650D2*
G1X13637Y9650D1*
G1X15250Y9650D2*
G1X16750Y9650D1*
G1X18363Y9650D2*
G1X23637Y9650D1*
G1X25250Y9650D2*
G1X26750Y9650D1*
G1X28363Y9650D2*
G1X29647Y9650D1*
G1X62353Y9650D2*
G1X63637Y9650D1*
G1X65250Y9650D2*
G1X66750Y9650D1*
G1X68363Y9650D2*
G1X73637Y9650D1*
G1X75250Y9650D2*
G1X76750Y9650D1*
G1X78363Y9650D2*
G1X83637Y9650D1*
G1X85250Y9650D2*
G1X86750Y9650D1*
G1X88363Y9650D2*
G1X93637Y9650D1*
G1X95250Y9650D2*
G1X96750Y9650D1*
G1X98363Y9650D2*
G1X111120Y9650D1*
G1X112750Y9650D2*
G1X114250Y9650D1*
G1X115880Y9650D2*
G1X120622Y9650D1*
G1X346328Y9650D2*
G1X359750Y9650D1*
G1X250Y9350D2*
G1X13239Y9350D1*
G1X15250Y9350D2*
G1X16750Y9350D1*
G1X18761Y9350D2*
G1X23239Y9350D1*
G1X25250Y9350D2*
G1X26750Y9350D1*
G1X28761Y9350D2*
G1X30096Y9350D1*
G1X61904Y9350D2*
G1X63239Y9350D1*
G1X65250Y9350D2*
G1X66750Y9350D1*
G1X68761Y9350D2*
G1X73239Y9350D1*
G1X75250Y9350D2*
G1X76750Y9350D1*
G1X78761Y9350D2*
G1X83239Y9350D1*
G1X85250Y9350D2*
G1X86750Y9350D1*
G1X88761Y9350D2*
G1X93239Y9350D1*
G1X95250Y9350D2*
G1X96750Y9350D1*
G1X98761Y9350D2*
G1X110655Y9350D1*
G1X112750Y9350D2*
G1X114250Y9350D1*
G1X116345Y9350D2*
G1X121071Y9350D1*
G1X345879Y9350D2*
G1X359750Y9350D1*
G1X250Y9050D2*
G1X12847Y9050D1*
G1X15250Y9050D2*
G1X16750Y9050D1*
G1X19153Y9050D2*
G1X22847Y9050D1*
G1X25250Y9050D2*
G1X26750Y9050D1*
G1X29153Y9050D2*
G1X32847Y9050D1*
G1X39153Y9050D2*
G1X42847Y9050D1*
G1X49153Y9050D2*
G1X52847Y9050D1*
G1X59153Y9050D2*
G1X62847Y9050D1*
G1X65250Y9050D2*
G1X66750Y9050D1*
G1X69153Y9050D2*
G1X72847Y9050D1*
G1X75250Y9050D2*
G1X76750Y9050D1*
G1X79153Y9050D2*
G1X82847Y9050D1*
G1X85250Y9050D2*
G1X86750Y9050D1*
G1X89153Y9050D2*
G1X92847Y9050D1*
G1X95250Y9050D2*
G1X96750Y9050D1*
G1X99153Y9050D2*
G1X110429Y9050D1*
G1X112750Y9050D2*
G1X114250Y9050D1*
G1X116571Y9050D2*
G1X121949Y9050D1*
G1X345001Y9050D2*
G1X359750Y9050D1*
G1X250Y8750D2*
G1X4863Y8750D1*
G1X7137Y8750D2*
G1X12671Y8750D1*
G1X15250Y8750D2*
G1X16750Y8750D1*
G1X19329Y8750D2*
G1X22671Y8750D1*
G1X25250Y8750D2*
G1X26750Y8750D1*
G1X29329Y8750D2*
G1X32671Y8750D1*
G1X39329Y8750D2*
G1X42671Y8750D1*
G1X49329Y8750D2*
G1X52671Y8750D1*
G1X59329Y8750D2*
G1X62671Y8750D1*
G1X65250Y8750D2*
G1X66750Y8750D1*
G1X69329Y8750D2*
G1X72671Y8750D1*
G1X75250Y8750D2*
G1X76750Y8750D1*
G1X79329Y8750D2*
G1X82671Y8750D1*
G1X85250Y8750D2*
G1X86750Y8750D1*
G1X89329Y8750D2*
G1X92671Y8750D1*
G1X95250Y8750D2*
G1X96750Y8750D1*
G1X99329Y8750D2*
G1X110203Y8750D1*
G1X112750Y8750D2*
G1X114250Y8750D1*
G1X116797Y8750D2*
G1X128487Y8750D1*
G1X133518Y8750D2*
G1X139863Y8750D1*
G1X142137Y8750D2*
G1X149863Y8750D1*
G1X152137Y8750D2*
G1X159863Y8750D1*
G1X162137Y8750D2*
G1X169863Y8750D1*
G1X172137Y8750D2*
G1X179863Y8750D1*
G1X182137Y8750D2*
G1X189863Y8750D1*
G1X192137Y8750D2*
G1X199863Y8750D1*
G1X202137Y8750D2*
G1X359750Y8750D1*
G1X250Y8450D2*
G1X4414Y8450D1*
G1X7586Y8450D2*
G1X12494Y8450D1*
G1X15250Y8450D2*
G1X16750Y8450D1*
G1X19506Y8450D2*
G1X22494Y8450D1*
G1X25250Y8450D2*
G1X26750Y8450D1*
G1X29506Y8450D2*
G1X32494Y8450D1*
G1X39506Y8450D2*
G1X42494Y8450D1*
G1X49506Y8450D2*
G1X52494Y8450D1*
G1X59506Y8450D2*
G1X62494Y8450D1*
G1X65250Y8450D2*
G1X66750Y8450D1*
G1X69506Y8450D2*
G1X72494Y8450D1*
G1X75250Y8450D2*
G1X76750Y8450D1*
G1X79506Y8450D2*
G1X82494Y8450D1*
G1X85250Y8450D2*
G1X86750Y8450D1*
G1X89506Y8450D2*
G1X92494Y8450D1*
G1X95250Y8450D2*
G1X96750Y8450D1*
G1X99506Y8450D2*
G1X109977Y8450D1*
G1X112750Y8450D2*
G1X114250Y8450D1*
G1X117023Y8450D2*
G1X128314Y8450D1*
G1X133690Y8450D2*
G1X139414Y8450D1*
G1X142586Y8450D2*
G1X149414Y8450D1*
G1X152586Y8450D2*
G1X159414Y8450D1*
G1X162586Y8450D2*
G1X169414Y8450D1*
G1X172586Y8450D2*
G1X179414Y8450D1*
G1X182586Y8450D2*
G1X189414Y8450D1*
G1X192586Y8450D2*
G1X199414Y8450D1*
G1X202586Y8450D2*
G1X359750Y8450D1*
G1X250Y8150D2*
G1X4027Y8150D1*
G1X7973Y8150D2*
G1X12317Y8150D1*
G1X15250Y8150D2*
G1X16750Y8150D1*
G1X19683Y8150D2*
G1X22317Y8150D1*
G1X25250Y8150D2*
G1X26750Y8150D1*
G1X29683Y8150D2*
G1X32317Y8150D1*
G1X39683Y8150D2*
G1X42317Y8150D1*
G1X49683Y8150D2*
G1X52317Y8150D1*
G1X59683Y8150D2*
G1X62317Y8150D1*
G1X65250Y8150D2*
G1X66750Y8150D1*
G1X69683Y8150D2*
G1X72317Y8150D1*
G1X75250Y8150D2*
G1X76750Y8150D1*
G1X79683Y8150D2*
G1X82317Y8150D1*
G1X85250Y8150D2*
G1X86750Y8150D1*
G1X89683Y8150D2*
G1X92317Y8150D1*
G1X95250Y8150D2*
G1X96750Y8150D1*
G1X99683Y8150D2*
G1X109751Y8150D1*
G1X112750Y8150D2*
G1X114250Y8150D1*
G1X117249Y8150D2*
G1X128267Y8150D1*
G1X133733Y8150D2*
G1X139027Y8150D1*
G1X142973Y8150D2*
G1X149027Y8150D1*
G1X152973Y8150D2*
G1X159027Y8150D1*
G1X162973Y8150D2*
G1X169027Y8150D1*
G1X172973Y8150D2*
G1X179027Y8150D1*
G1X182973Y8150D2*
G1X189027Y8150D1*
G1X192973Y8150D2*
G1X199027Y8150D1*
G1X202973Y8150D2*
G1X359750Y8150D1*
G1X250Y7850D2*
G1X3827Y7850D1*
G1X8173Y7850D2*
G1X12141Y7850D1*
G1X15250Y7850D2*
G1X16750Y7850D1*
G1X19859Y7850D2*
G1X22141Y7850D1*
G1X25250Y7850D2*
G1X26750Y7850D1*
G1X29859Y7850D2*
G1X32141Y7850D1*
G1X39859Y7850D2*
G1X42141Y7850D1*
G1X49859Y7850D2*
G1X52141Y7850D1*
G1X59859Y7850D2*
G1X62141Y7850D1*
G1X65250Y7850D2*
G1X66750Y7850D1*
G1X69859Y7850D2*
G1X72141Y7850D1*
G1X75250Y7850D2*
G1X76750Y7850D1*
G1X79859Y7850D2*
G1X82141Y7850D1*
G1X85250Y7850D2*
G1X86750Y7850D1*
G1X89859Y7850D2*
G1X92141Y7850D1*
G1X95250Y7850D2*
G1X96750Y7850D1*
G1X99859Y7850D2*
G1X109604Y7850D1*
G1X112750Y7850D2*
G1X114250Y7850D1*
G1X117396Y7850D2*
G1X128267Y7850D1*
G1X133733Y7850D2*
G1X138827Y7850D1*
G1X143173Y7850D2*
G1X148827Y7850D1*
G1X153173Y7850D2*
G1X158827Y7850D1*
G1X163173Y7850D2*
G1X168827Y7850D1*
G1X173173Y7850D2*
G1X178827Y7850D1*
G1X183173Y7850D2*
G1X188827Y7850D1*
G1X193173Y7850D2*
G1X198827Y7850D1*
G1X203173Y7850D2*
G1X359750Y7850D1*
G1X250Y7550D2*
G1X3626Y7550D1*
G1X8374Y7550D2*
G1X12073Y7550D1*
G1X15250Y7550D2*
G1X16750Y7550D1*
G1X19927Y7550D2*
G1X22073Y7550D1*
G1X25250Y7550D2*
G1X26750Y7550D1*
G1X29927Y7550D2*
G1X32073Y7550D1*
G1X39927Y7550D2*
G1X42073Y7550D1*
G1X49927Y7550D2*
G1X52073Y7550D1*
G1X59927Y7550D2*
G1X62073Y7550D1*
G1X65250Y7550D2*
G1X66750Y7550D1*
G1X69927Y7550D2*
G1X72073Y7550D1*
G1X75250Y7550D2*
G1X76750Y7550D1*
G1X79927Y7550D2*
G1X82073Y7550D1*
G1X85250Y7550D2*
G1X86750Y7550D1*
G1X89927Y7550D2*
G1X92073Y7550D1*
G1X95250Y7550D2*
G1X96750Y7550D1*
G1X99927Y7550D2*
G1X109574Y7550D1*
G1X112750Y7550D2*
G1X114250Y7550D1*
G1X117426Y7550D2*
G1X128267Y7550D1*
G1X133733Y7550D2*
G1X138626Y7550D1*
G1X143374Y7550D2*
G1X148626Y7550D1*
G1X153374Y7550D2*
G1X158626Y7550D1*
G1X163374Y7550D2*
G1X168626Y7550D1*
G1X173374Y7550D2*
G1X178626Y7550D1*
G1X183374Y7550D2*
G1X188626Y7550D1*
G1X193374Y7550D2*
G1X198626Y7550D1*
G1X203374Y7550D2*
G1X359750Y7550D1*
G1X250Y7250D2*
G1X3470Y7250D1*
G1X8530Y7250D2*
G1X12257Y7250D1*
G1X15250Y7250D2*
G1X16750Y7250D1*
G1X19743Y7250D2*
G1X22257Y7250D1*
G1X25250Y7250D2*
G1X26750Y7250D1*
G1X29743Y7250D2*
G1X32257Y7250D1*
G1X39743Y7250D2*
G1X42257Y7250D1*
G1X49743Y7250D2*
G1X52257Y7250D1*
G1X59743Y7250D2*
G1X62257Y7250D1*
G1X65250Y7250D2*
G1X66750Y7250D1*
G1X69743Y7250D2*
G1X72257Y7250D1*
G1X75250Y7250D2*
G1X76750Y7250D1*
G1X79743Y7250D2*
G1X82257Y7250D1*
G1X85250Y7250D2*
G1X86750Y7250D1*
G1X89743Y7250D2*
G1X92257Y7250D1*
G1X95250Y7250D2*
G1X96750Y7250D1*
G1X99743Y7250D2*
G1X109764Y7250D1*
G1X112750Y7250D2*
G1X114250Y7250D1*
G1X117236Y7250D2*
G1X128267Y7250D1*
G1X133733Y7250D2*
G1X138470Y7250D1*
G1X143530Y7250D2*
G1X148470Y7250D1*
G1X153530Y7250D2*
G1X158470Y7250D1*
G1X163530Y7250D2*
G1X168470Y7250D1*
G1X173530Y7250D2*
G1X178470Y7250D1*
G1X183530Y7250D2*
G1X188470Y7250D1*
G1X193530Y7250D2*
G1X198470Y7250D1*
G1X203530Y7250D2*
G1X359750Y7250D1*
G1X250Y6950D2*
G1X3410Y6950D1*
G1X8590Y6950D2*
G1X128267Y6950D1*
G1X133733Y6950D2*
G1X138410Y6950D1*
G1X143590Y6950D2*
G1X148410Y6950D1*
G1X153590Y6950D2*
G1X158410Y6950D1*
G1X163590Y6950D2*
G1X168410Y6950D1*
G1X173590Y6950D2*
G1X178410Y6950D1*
G1X183590Y6950D2*
G1X188410Y6950D1*
G1X193590Y6950D2*
G1X198410Y6950D1*
G1X203590Y6950D2*
G1X359750Y6950D1*
G1X250Y6650D2*
G1X3350Y6650D1*
G1X8650Y6650D2*
G1X128267Y6650D1*
G1X133733Y6650D2*
G1X138350Y6650D1*
G1X143650Y6650D2*
G1X148350Y6650D1*
G1X153650Y6650D2*
G1X158350Y6650D1*
G1X163650Y6650D2*
G1X168350Y6650D1*
G1X173650Y6650D2*
G1X178350Y6650D1*
G1X183650Y6650D2*
G1X188350Y6650D1*
G1X193650Y6650D2*
G1X198350Y6650D1*
G1X203650Y6650D2*
G1X359750Y6650D1*
G1X250Y6350D2*
G1X3291Y6350D1*
G1X8709Y6350D2*
G1X128267Y6350D1*
G1X133733Y6350D2*
G1X138291Y6350D1*
G1X143709Y6350D2*
G1X148291Y6350D1*
G1X153709Y6350D2*
G1X158291Y6350D1*
G1X163709Y6350D2*
G1X168291Y6350D1*
G1X173709Y6350D2*
G1X178291Y6350D1*
G1X183709Y6350D2*
G1X188291Y6350D1*
G1X193709Y6350D2*
G1X198291Y6350D1*
G1X203709Y6350D2*
G1X359750Y6350D1*
G1X250Y6050D2*
G1X3311Y6050D1*
G1X8689Y6050D2*
G1X128267Y6050D1*
G1X133733Y6050D2*
G1X138311Y6050D1*
G1X143689Y6050D2*
G1X148311Y6050D1*
G1X153689Y6050D2*
G1X158311Y6050D1*
G1X163689Y6050D2*
G1X168311Y6050D1*
G1X173689Y6050D2*
G1X178311Y6050D1*
G1X183689Y6050D2*
G1X188311Y6050D1*
G1X193689Y6050D2*
G1X198311Y6050D1*
G1X203689Y6050D2*
G1X359750Y6050D1*
G1X250Y5750D2*
G1X3370Y5750D1*
G1X8630Y5750D2*
G1X128267Y5750D1*
G1X133733Y5750D2*
G1X138370Y5750D1*
G1X143630Y5750D2*
G1X148370Y5750D1*
G1X153630Y5750D2*
G1X158370Y5750D1*
G1X163630Y5750D2*
G1X168370Y5750D1*
G1X173630Y5750D2*
G1X178370Y5750D1*
G1X183630Y5750D2*
G1X188370Y5750D1*
G1X193630Y5750D2*
G1X198370Y5750D1*
G1X203630Y5750D2*
G1X359750Y5750D1*
G1X250Y5450D2*
G1X3430Y5450D1*
G1X8570Y5450D2*
G1X12380Y5450D1*
G1X15250Y5450D2*
G1X16750Y5450D1*
G1X19620Y5450D2*
G1X22380Y5450D1*
G1X25250Y5450D2*
G1X26750Y5450D1*
G1X29620Y5450D2*
G1X32380Y5450D1*
G1X35250Y5450D2*
G1X36750Y5450D1*
G1X39620Y5450D2*
G1X42380Y5450D1*
G1X45250Y5450D2*
G1X46750Y5450D1*
G1X49620Y5450D2*
G1X52380Y5450D1*
G1X55250Y5450D2*
G1X56750Y5450D1*
G1X59620Y5450D2*
G1X62380Y5450D1*
G1X65250Y5450D2*
G1X66750Y5450D1*
G1X69620Y5450D2*
G1X72380Y5450D1*
G1X75250Y5450D2*
G1X76750Y5450D1*
G1X79620Y5450D2*
G1X82380Y5450D1*
G1X85250Y5450D2*
G1X86750Y5450D1*
G1X89620Y5450D2*
G1X92380Y5450D1*
G1X95250Y5450D2*
G1X96750Y5450D1*
G1X99620Y5450D2*
G1X109890Y5450D1*
G1X112750Y5450D2*
G1X114250Y5450D1*
G1X117110Y5450D2*
G1X128267Y5450D1*
G1X133733Y5450D2*
G1X138430Y5450D1*
G1X143570Y5450D2*
G1X148430Y5450D1*
G1X153570Y5450D2*
G1X158430Y5450D1*
G1X163570Y5450D2*
G1X168430Y5450D1*
G1X173570Y5450D2*
G1X178430Y5450D1*
G1X183570Y5450D2*
G1X188430Y5450D1*
G1X193570Y5450D2*
G1X198430Y5450D1*
G1X203570Y5450D2*
G1X359750Y5450D1*
G1X250Y5150D2*
G1X3493Y5150D1*
G1X8507Y5150D2*
G1X12196Y5150D1*
G1X15250Y5150D2*
G1X16750Y5150D1*
G1X19804Y5150D2*
G1X22196Y5150D1*
G1X25250Y5150D2*
G1X26750Y5150D1*
G1X29804Y5150D2*
G1X32196Y5150D1*
G1X35250Y5150D2*
G1X36750Y5150D1*
G1X39804Y5150D2*
G1X42196Y5150D1*
G1X45250Y5150D2*
G1X46750Y5150D1*
G1X49804Y5150D2*
G1X52196Y5150D1*
G1X55250Y5150D2*
G1X56750Y5150D1*
G1X59804Y5150D2*
G1X62196Y5150D1*
G1X65250Y5150D2*
G1X66750Y5150D1*
G1X69804Y5150D2*
G1X72196Y5150D1*
G1X75250Y5150D2*
G1X76750Y5150D1*
G1X79804Y5150D2*
G1X82196Y5150D1*
G1X85250Y5150D2*
G1X86750Y5150D1*
G1X89804Y5150D2*
G1X92196Y5150D1*
G1X95250Y5150D2*
G1X96750Y5150D1*
G1X99804Y5150D2*
G1X109701Y5150D1*
G1X112750Y5150D2*
G1X114250Y5150D1*
G1X117299Y5150D2*
G1X128267Y5150D1*
G1X133733Y5150D2*
G1X138493Y5150D1*
G1X143507Y5150D2*
G1X148493Y5150D1*
G1X153507Y5150D2*
G1X158493Y5150D1*
G1X163507Y5150D2*
G1X168493Y5150D1*
G1X173507Y5150D2*
G1X178493Y5150D1*
G1X183507Y5150D2*
G1X188493Y5150D1*
G1X193507Y5150D2*
G1X198493Y5150D1*
G1X203507Y5150D2*
G1X359750Y5150D1*
G1X250Y4850D2*
G1X3693Y4850D1*
G1X8307Y4850D2*
G1X12023Y4850D1*
G1X15250Y4850D2*
G1X16750Y4850D1*
G1X19977Y4850D2*
G1X22023Y4850D1*
G1X25250Y4850D2*
G1X26750Y4850D1*
G1X29977Y4850D2*
G1X32023Y4850D1*
G1X35250Y4850D2*
G1X36750Y4850D1*
G1X39977Y4850D2*
G1X42023Y4850D1*
G1X45250Y4850D2*
G1X46750Y4850D1*
G1X49977Y4850D2*
G1X52023Y4850D1*
G1X55250Y4850D2*
G1X56750Y4850D1*
G1X59977Y4850D2*
G1X62023Y4850D1*
G1X65250Y4850D2*
G1X66750Y4850D1*
G1X69977Y4850D2*
G1X72023Y4850D1*
G1X75250Y4850D2*
G1X76750Y4850D1*
G1X79977Y4850D2*
G1X82023Y4850D1*
G1X85250Y4850D2*
G1X86750Y4850D1*
G1X89977Y4850D2*
G1X92023Y4850D1*
G1X95250Y4850D2*
G1X96750Y4850D1*
G1X99977Y4850D2*
G1X109521Y4850D1*
G1X112750Y4850D2*
G1X114250Y4850D1*
G1X117479Y4850D2*
G1X128267Y4850D1*
G1X133733Y4850D2*
G1X138693Y4850D1*
G1X143307Y4850D2*
G1X148693Y4850D1*
G1X153307Y4850D2*
G1X158693Y4850D1*
G1X163307Y4850D2*
G1X168693Y4850D1*
G1X173307Y4850D2*
G1X178693Y4850D1*
G1X183307Y4850D2*
G1X188693Y4850D1*
G1X193307Y4850D2*
G1X198693Y4850D1*
G1X203307Y4850D2*
G1X359750Y4850D1*
G1X250Y4550D2*
G1X3894Y4550D1*
G1X8106Y4550D2*
G1X12199Y4550D1*
G1X15250Y4550D2*
G1X16750Y4550D1*
G1X19801Y4550D2*
G1X22199Y4550D1*
G1X25250Y4550D2*
G1X26750Y4550D1*
G1X29801Y4550D2*
G1X32199Y4550D1*
G1X35250Y4550D2*
G1X36750Y4550D1*
G1X39801Y4550D2*
G1X42199Y4550D1*
G1X45250Y4550D2*
G1X46750Y4550D1*
G1X49801Y4550D2*
G1X52199Y4550D1*
G1X55250Y4550D2*
G1X56750Y4550D1*
G1X59801Y4550D2*
G1X62199Y4550D1*
G1X65250Y4550D2*
G1X66750Y4550D1*
G1X69801Y4550D2*
G1X72199Y4550D1*
G1X75250Y4550D2*
G1X76750Y4550D1*
G1X79801Y4550D2*
G1X82199Y4550D1*
G1X85250Y4550D2*
G1X86750Y4550D1*
G1X89801Y4550D2*
G1X92199Y4550D1*
G1X95250Y4550D2*
G1X96750Y4550D1*
G1X99801Y4550D2*
G1X109645Y4550D1*
G1X112750Y4550D2*
G1X114250Y4550D1*
G1X117355Y4550D2*
G1X128267Y4550D1*
G1X133733Y4550D2*
G1X138894Y4550D1*
G1X143106Y4550D2*
G1X148894Y4550D1*
G1X153106Y4550D2*
G1X158894Y4550D1*
G1X163106Y4550D2*
G1X168894Y4550D1*
G1X173106Y4550D2*
G1X178894Y4550D1*
G1X183106Y4550D2*
G1X188894Y4550D1*
G1X193106Y4550D2*
G1X198894Y4550D1*
G1X203106Y4550D2*
G1X359750Y4550D1*
G1X250Y4250D2*
G1X4114Y4250D1*
G1X7886Y4250D2*
G1X12376Y4250D1*
G1X15250Y4250D2*
G1X16750Y4250D1*
G1X19624Y4250D2*
G1X22376Y4250D1*
G1X25250Y4250D2*
G1X26750Y4250D1*
G1X29624Y4250D2*
G1X32376Y4250D1*
G1X35250Y4250D2*
G1X36750Y4250D1*
G1X39624Y4250D2*
G1X42376Y4250D1*
G1X45250Y4250D2*
G1X46750Y4250D1*
G1X49624Y4250D2*
G1X52376Y4250D1*
G1X55250Y4250D2*
G1X56750Y4250D1*
G1X59624Y4250D2*
G1X62376Y4250D1*
G1X65250Y4250D2*
G1X66750Y4250D1*
G1X69624Y4250D2*
G1X72376Y4250D1*
G1X75250Y4250D2*
G1X76750Y4250D1*
G1X79624Y4250D2*
G1X82376Y4250D1*
G1X85250Y4250D2*
G1X86750Y4250D1*
G1X89624Y4250D2*
G1X92376Y4250D1*
G1X95250Y4250D2*
G1X96750Y4250D1*
G1X99624Y4250D2*
G1X109826Y4250D1*
G1X112750Y4250D2*
G1X114250Y4250D1*
G1X117174Y4250D2*
G1X128273Y4250D1*
G1X133727Y4250D2*
G1X139114Y4250D1*
G1X142886Y4250D2*
G1X149114Y4250D1*
G1X152886Y4250D2*
G1X159114Y4250D1*
G1X162886Y4250D2*
G1X169114Y4250D1*
G1X172886Y4250D2*
G1X179114Y4250D1*
G1X182886Y4250D2*
G1X189114Y4250D1*
G1X192886Y4250D2*
G1X199114Y4250D1*
G1X202886Y4250D2*
G1X359750Y4250D1*
G1X250Y3950D2*
G1X4563Y3950D1*
G1X7437Y3950D2*
G1X12553Y3950D1*
G1X15250Y3950D2*
G1X16750Y3950D1*
G1X19447Y3950D2*
G1X22553Y3950D1*
G1X25250Y3950D2*
G1X26750Y3950D1*
G1X29447Y3950D2*
G1X32553Y3950D1*
G1X35250Y3950D2*
G1X36750Y3950D1*
G1X39447Y3950D2*
G1X42553Y3950D1*
G1X45250Y3950D2*
G1X46750Y3950D1*
G1X49447Y3950D2*
G1X52553Y3950D1*
G1X55250Y3950D2*
G1X56750Y3950D1*
G1X59447Y3950D2*
G1X62553Y3950D1*
G1X65250Y3950D2*
G1X66750Y3950D1*
G1X69447Y3950D2*
G1X72553Y3950D1*
G1X75250Y3950D2*
G1X76750Y3950D1*
G1X79447Y3950D2*
G1X82553Y3950D1*
G1X85250Y3950D2*
G1X86750Y3950D1*
G1X89447Y3950D2*
G1X92553Y3950D1*
G1X95250Y3950D2*
G1X96750Y3950D1*
G1X99447Y3950D2*
G1X110052Y3950D1*
G1X112750Y3950D2*
G1X114250Y3950D1*
G1X116948Y3950D2*
G1X128354Y3950D1*
G1X133650Y3950D2*
G1X139563Y3950D1*
G1X142437Y3950D2*
G1X149563Y3950D1*
G1X152437Y3950D2*
G1X159563Y3950D1*
G1X162437Y3950D2*
G1X169563Y3950D1*
G1X172437Y3950D2*
G1X179563Y3950D1*
G1X182437Y3950D2*
G1X189563Y3950D1*
G1X192437Y3950D2*
G1X199563Y3950D1*
G1X202437Y3950D2*
G1X359750Y3950D1*
G1X250Y3650D2*
G1X5136Y3650D1*
G1X6864Y3650D2*
G1X12729Y3650D1*
G1X15250Y3650D2*
G1X16750Y3650D1*
G1X19271Y3650D2*
G1X22729Y3650D1*
G1X25250Y3650D2*
G1X26750Y3650D1*
G1X29271Y3650D2*
G1X32729Y3650D1*
G1X35250Y3650D2*
G1X36750Y3650D1*
G1X39271Y3650D2*
G1X42729Y3650D1*
G1X45250Y3650D2*
G1X46750Y3650D1*
G1X49271Y3650D2*
G1X52729Y3650D1*
G1X55250Y3650D2*
G1X56750Y3650D1*
G1X59271Y3650D2*
G1X62729Y3650D1*
G1X65250Y3650D2*
G1X66750Y3650D1*
G1X69271Y3650D2*
G1X72729Y3650D1*
G1X75250Y3650D2*
G1X76750Y3650D1*
G1X79271Y3650D2*
G1X82729Y3650D1*
G1X85250Y3650D2*
G1X86750Y3650D1*
G1X89271Y3650D2*
G1X92729Y3650D1*
G1X95250Y3650D2*
G1X96750Y3650D1*
G1X99271Y3650D2*
G1X110279Y3650D1*
G1X112750Y3650D2*
G1X114250Y3650D1*
G1X116721Y3650D2*
G1X128627Y3650D1*
G1X133372Y3650D2*
G1X140136Y3650D1*
G1X141864Y3650D2*
G1X150136Y3650D1*
G1X151864Y3650D2*
G1X160136Y3650D1*
G1X161864Y3650D2*
G1X170136Y3650D1*
G1X171864Y3650D2*
G1X180136Y3650D1*
G1X181864Y3650D2*
G1X190136Y3650D1*
G1X191864Y3650D2*
G1X200136Y3650D1*
G1X201864Y3650D2*
G1X359750Y3650D1*
G1X250Y3350D2*
G1X12974Y3350D1*
G1X15250Y3350D2*
G1X16750Y3350D1*
G1X19026Y3350D2*
G1X22974Y3350D1*
G1X25250Y3350D2*
G1X26750Y3350D1*
G1X29026Y3350D2*
G1X32974Y3350D1*
G1X35250Y3350D2*
G1X36750Y3350D1*
G1X39026Y3350D2*
G1X42974Y3350D1*
G1X45250Y3350D2*
G1X46750Y3350D1*
G1X49026Y3350D2*
G1X52974Y3350D1*
G1X55250Y3350D2*
G1X56750Y3350D1*
G1X59026Y3350D2*
G1X62974Y3350D1*
G1X65250Y3350D2*
G1X66750Y3350D1*
G1X69026Y3350D2*
G1X72974Y3350D1*
G1X75250Y3350D2*
G1X76750Y3350D1*
G1X79026Y3350D2*
G1X82974Y3350D1*
G1X85250Y3350D2*
G1X86750Y3350D1*
G1X89026Y3350D2*
G1X92974Y3350D1*
G1X95250Y3350D2*
G1X96750Y3350D1*
G1X99026Y3350D2*
G1X110505Y3350D1*
G1X112750Y3350D2*
G1X114250Y3350D1*
G1X116495Y3350D2*
G1X359750Y3350D1*
G1X250Y3050D2*
G1X13371Y3050D1*
G1X15250Y3050D2*
G1X16750Y3050D1*
G1X18629Y3050D2*
G1X23371Y3050D1*
G1X25250Y3050D2*
G1X26750Y3050D1*
G1X28629Y3050D2*
G1X33371Y3050D1*
G1X35250Y3050D2*
G1X36750Y3050D1*
G1X38629Y3050D2*
G1X43371Y3050D1*
G1X45250Y3050D2*
G1X46750Y3050D1*
G1X48629Y3050D2*
G1X53371Y3050D1*
G1X55250Y3050D2*
G1X56750Y3050D1*
G1X58629Y3050D2*
G1X63371Y3050D1*
G1X65250Y3050D2*
G1X66750Y3050D1*
G1X68629Y3050D2*
G1X73371Y3050D1*
G1X75250Y3050D2*
G1X76750Y3050D1*
G1X78629Y3050D2*
G1X83371Y3050D1*
G1X85250Y3050D2*
G1X86750Y3050D1*
G1X88629Y3050D2*
G1X93371Y3050D1*
G1X95250Y3050D2*
G1X96750Y3050D1*
G1X98629Y3050D2*
G1X110780Y3050D1*
G1X112750Y3050D2*
G1X114250Y3050D1*
G1X116220Y3050D2*
G1X359750Y3050D1*
G1X250Y2750D2*
G1X13769Y2750D1*
G1X15250Y2750D2*
G1X16750Y2750D1*
G1X18231Y2750D2*
G1X23769Y2750D1*
G1X25250Y2750D2*
G1X26750Y2750D1*
G1X28231Y2750D2*
G1X33769Y2750D1*
G1X35250Y2750D2*
G1X36750Y2750D1*
G1X38231Y2750D2*
G1X43769Y2750D1*
G1X45250Y2750D2*
G1X46750Y2750D1*
G1X48231Y2750D2*
G1X53769Y2750D1*
G1X55250Y2750D2*
G1X56750Y2750D1*
G1X58231Y2750D2*
G1X63769Y2750D1*
G1X65250Y2750D2*
G1X66750Y2750D1*
G1X68231Y2750D2*
G1X73769Y2750D1*
G1X75250Y2750D2*
G1X76750Y2750D1*
G1X78231Y2750D2*
G1X83769Y2750D1*
G1X85250Y2750D2*
G1X86750Y2750D1*
G1X88231Y2750D2*
G1X93769Y2750D1*
G1X95250Y2750D2*
G1X96750Y2750D1*
G1X98231Y2750D2*
G1X111290Y2750D1*
G1X112750Y2750D2*
G1X114250Y2750D1*
G1X115710Y2750D2*
G1X359750Y2750D1*
G1X250Y2450D2*
G1X14168Y2450D1*
G1X14899Y2450D2*
G1X17101Y2450D1*
G1X17832Y2450D2*
G1X24168Y2450D1*
G1X24899Y2450D2*
G1X27101Y2450D1*
G1X27832Y2450D2*
G1X34168Y2450D1*
G1X34899Y2450D2*
G1X37101Y2450D1*
G1X37832Y2450D2*
G1X44168Y2450D1*
G1X44899Y2450D2*
G1X47101Y2450D1*
G1X47832Y2450D2*
G1X54168Y2450D1*
G1X54899Y2450D2*
G1X57101Y2450D1*
G1X57832Y2450D2*
G1X64168Y2450D1*
G1X64899Y2450D2*
G1X67101Y2450D1*
G1X67832Y2450D2*
G1X74168Y2450D1*
G1X74899Y2450D2*
G1X77101Y2450D1*
G1X77832Y2450D2*
G1X84168Y2450D1*
G1X84899Y2450D2*
G1X87101Y2450D1*
G1X87832Y2450D2*
G1X94168Y2450D1*
G1X94899Y2450D2*
G1X97101Y2450D1*
G1X97832Y2450D2*
G1X111799Y2450D1*
G1X112407Y2450D2*
G1X114593Y2450D1*
G1X115201Y2450D2*
G1X359750Y2450D1*
G1X250Y2150D2*
G1X359750Y2150D1*
G1X250Y1850D2*
G1X359750Y1850D1*
G1X250Y1550D2*
G1X359750Y1550D1*
G1X250Y1250D2*
G1X359750Y1250D1*
G1X250Y950D2*
G1X359750Y950D1*
G1X250Y650D2*
G1X359750Y650D1*
G1X250Y350D2*
G1X359750Y350D1*
G1X359750Y250D2*
G1X250Y250D1*
G1X250Y6303D1*
G1X3281Y6303D1*
G1X3281Y6197D1*
G1X3488Y5156D1*
G1X4078Y4274D1*
G1X4960Y3685D1*
G1X6000Y3478D1*
G1X7040Y3685D1*
G1X7922Y4274D1*
G1X8313Y4860D1*
G1X12017Y4860D1*
G1X12852Y3441D1*
G1X14167Y2451D1*
G1X14610Y2267D1*
G1X15250Y2672D1*
G1X15250Y5500D1*
G1X16750Y5500D1*
G1X16750Y2672D1*
G1X17390Y2267D1*
G1X17833Y2451D1*
G1X19148Y3441D1*
G1X19983Y4860D1*
G1X22017Y4860D1*
G1X22852Y3441D1*
G1X24167Y2451D1*
G1X24610Y2267D1*
G1X25250Y2672D1*
G1X25250Y5500D1*
G1X26750Y5500D1*
G1X26750Y2672D1*
G1X27390Y2267D1*
G1X27833Y2451D1*
G1X29148Y3441D1*
G1X29983Y4860D1*
G1X32017Y4860D1*
G1X32852Y3441D1*
G1X34167Y2451D1*
G1X34610Y2267D1*
G1X35250Y2672D1*
G1X35250Y5500D1*
G1X36750Y5500D1*
G1X36750Y2672D1*
G1X37390Y2267D1*
G1X37833Y2451D1*
G1X39148Y3441D1*
G1X39983Y4860D1*
G1X42017Y4860D1*
G1X42852Y3441D1*
G1X44167Y2451D1*
G1X44610Y2267D1*
G1X45250Y2672D1*
G1X45250Y5500D1*
G1X46750Y5500D1*
G1X46750Y2672D1*
G1X47390Y2267D1*
G1X47833Y2451D1*
G1X49148Y3441D1*
G1X49983Y4860D1*
G1X52017Y4860D1*
G1X52852Y3441D1*
G1X54167Y2451D1*
G1X54610Y2267D1*
G1X55250Y2672D1*
G1X55250Y5500D1*
G1X56750Y5500D1*
G1X56750Y2672D1*
G1X57390Y2267D1*
G1X57833Y2451D1*
G1X59148Y3441D1*
G1X59983Y4860D1*
G1X62017Y4860D1*
G1X62852Y3441D1*
G1X64167Y2451D1*
G1X64610Y2267D1*
G1X65250Y2672D1*
G1X65250Y5500D1*
G1X66750Y5500D1*
G1X66750Y2672D1*
G1X67390Y2267D1*
G1X67833Y2451D1*
G1X69148Y3441D1*
G1X69983Y4860D1*
G1X72017Y4860D1*
G1X72852Y3441D1*
G1X74167Y2451D1*
G1X74610Y2267D1*
G1X75250Y2672D1*
G1X75250Y5500D1*
G1X76750Y5500D1*
G1X76750Y2672D1*
G1X77390Y2267D1*
G1X77833Y2451D1*
G1X79148Y3441D1*
G1X79983Y4860D1*
G1X82017Y4860D1*
G1X82852Y3441D1*
G1X84167Y2451D1*
G1X84610Y2267D1*
G1X85250Y2672D1*
G1X85250Y5500D1*
G1X86750Y5500D1*
G1X86750Y2672D1*
G1X87390Y2267D1*
G1X87833Y2451D1*
G1X89148Y3441D1*
G1X89983Y4860D1*
G1X92017Y4860D1*
G1X92852Y3441D1*
G1X94167Y2451D1*
G1X94610Y2267D1*
G1X95250Y2672D1*
G1X95250Y5500D1*
G1X96750Y5500D1*
G1X96750Y2672D1*
G1X97390Y2267D1*
G1X97833Y2451D1*
G1X99148Y3441D1*
G1X99983Y4860D1*
G1X99983Y4860D1*
G1X109517Y4860D1*
G1X109701Y4417D1*
G1X110691Y3102D1*
G1X112110Y2267D1*
G1X112750Y2661D1*
G1X112750Y5500D1*
G1X114250Y5500D1*
G1X114250Y2661D1*
G1X114890Y2267D1*
G1X116309Y3102D1*
G1X117299Y4417D1*
G1X117483Y4860D1*
G1X117078Y5500D1*
G1X114250Y5500D1*
G1X112750Y5500D1*
G1X109922Y5500D1*
G1X109517Y4860D1*
G1X99983Y4860D1*
G1X99589Y5500D1*
G1X96750Y5500D1*
G1X95250Y5500D1*
G1X92411Y5500D1*
G1X92017Y4860D1*
G1X89983Y4860D1*
G1X89589Y5500D1*
G1X86750Y5500D1*
G1X85250Y5500D1*
G1X82411Y5500D1*
G1X82017Y4860D1*
G1X79983Y4860D1*
G1X79589Y5500D1*
G1X76750Y5500D1*
G1X75250Y5500D1*
G1X72411Y5500D1*
G1X72017Y4860D1*
G1X69983Y4860D1*
G1X69589Y5500D1*
G1X66750Y5500D1*
G1X65250Y5500D1*
G1X62411Y5500D1*
G1X62017Y4860D1*
G1X59983Y4860D1*
G1X59589Y5500D1*
G1X56750Y5500D1*
G1X55250Y5500D1*
G1X52411Y5500D1*
G1X52017Y4860D1*
G1X49983Y4860D1*
G1X49589Y5500D1*
G1X46750Y5500D1*
G1X45250Y5500D1*
G1X42411Y5500D1*
G1X42017Y4860D1*
G1X39983Y4860D1*
G1X39589Y5500D1*
G1X36750Y5500D1*
G1X35250Y5500D1*
G1X32411Y5500D1*
G1X32017Y4860D1*
G1X29983Y4860D1*
G1X29589Y5500D1*
G1X26750Y5500D1*
G1X25250Y5500D1*
G1X22411Y5500D1*
G1X22017Y4860D1*
G1X19983Y4860D1*
G1X19589Y5500D1*
G1X16750Y5500D1*
G1X15250Y5500D1*
G1X12411Y5500D1*
G1X12017Y4860D1*
G1X8313Y4860D1*
G1X8512Y5156D1*
G1X8719Y6197D1*
G1X8719Y6303D1*
G1X8512Y7344D1*
G1X8313Y7640D1*
G1X12017Y7640D1*
G1X12411Y7000D1*
G1X15250Y7000D1*
G1X15250Y9828D1*
G1X16750Y9828D1*
G1X16750Y7000D1*
G1X19589Y7000D1*
G1X19983Y7640D1*
G1X22017Y7640D1*
G1X22411Y7000D1*
G1X25250Y7000D1*
G1X25250Y9828D1*
G1X26750Y9828D1*
G1X26750Y7000D1*
G1X29589Y7000D1*
G1X29983Y7640D1*
G1X29148Y9059D1*
G1X27833Y10049D1*
G1X27390Y10233D1*
G1X26750Y9828D1*
G1X25250Y9828D1*
G1X24610Y10233D1*
G1X24167Y10049D1*
G1X22852Y9059D1*
G1X22017Y7640D1*
G1X19983Y7640D1*
G1X19148Y9059D1*
G1X17833Y10049D1*
G1X17390Y10233D1*
G1X16750Y9828D1*
G1X15250Y9828D1*
G1X14610Y10233D1*
G1X14167Y10049D1*
G1X12852Y9059D1*
G1X12017Y7640D1*
G1X8313Y7640D1*
G1X7922Y8226D1*
G1X7040Y8815D1*
G1X6000Y9022D1*
G1X4960Y8815D1*
G1X4078Y8226D1*
G1X3488Y7344D1*
G1X3281Y6303D1*
G1X250Y6303D1*
G1X250Y11400D1*
G1X28750Y11400D1*
G1X28921Y10539D1*
G1X29409Y9809D1*
G1X30139Y9321D1*
G1X31000Y9150D1*
G1X32974Y9150D1*
G1X32852Y9059D1*
G1X32017Y7640D1*
G1X32411Y7000D1*
G1X35250Y7000D1*
G1X35250Y7079D1*
G1X36750Y7079D1*
G1X36750Y7000D1*
G1X39589Y7000D1*
G1X39983Y7640D1*
G1X39148Y9059D1*
G1X39026Y9150D1*
G1X42974Y9150D1*
G1X42852Y9059D1*
G1X42017Y7640D1*
G1X42411Y7000D1*
G1X45250Y7000D1*
G1X45250Y7079D1*
G1X46750Y7079D1*
G1X46750Y7000D1*
G1X49589Y7000D1*
G1X49983Y7640D1*
G1X49148Y9059D1*
G1X49026Y9150D1*
G1X52974Y9150D1*
G1X52852Y9059D1*
G1X52017Y7640D1*
G1X52411Y7000D1*
G1X55250Y7000D1*
G1X55250Y7079D1*
G1X56750Y7079D1*
G1X56750Y7000D1*
G1X59589Y7000D1*
G1X59983Y7640D1*
G1X62017Y7640D1*
G1X62411Y7000D1*
G1X65250Y7000D1*
G1X65250Y9828D1*
G1X66750Y9828D1*
G1X66750Y7000D1*
G1X69589Y7000D1*
G1X69983Y7640D1*
G1X72017Y7640D1*
G1X72411Y7000D1*
G1X75250Y7000D1*
G1X75250Y9828D1*
G1X76750Y9828D1*
G1X76750Y7000D1*
G1X79589Y7000D1*
G1X79983Y7640D1*
G1X82017Y7640D1*
G1X82411Y7000D1*
G1X85250Y7000D1*
G1X85250Y9828D1*
G1X86750Y9828D1*
G1X86750Y7000D1*
G1X89589Y7000D1*
G1X89983Y7640D1*
G1X92017Y7640D1*
G1X92411Y7000D1*
G1X95250Y7000D1*
G1X95250Y9828D1*
G1X96750Y9828D1*
G1X96750Y7000D1*
G1X99589Y7000D1*
G1X99983Y7640D1*
G1X109517Y7640D1*
G1X109922Y7000D1*
G1X112750Y7000D1*
G1X112750Y9839D1*
G1X114250Y9839D1*
G1X114250Y7000D1*
G1X117078Y7000D1*
G1X117483Y7640D1*
G1X117299Y8083D1*
G1X117198Y8219D1*
G1X128267Y8219D1*
G1X128267Y4281D1*
G1X128319Y4004D1*
G1X128483Y3748D1*
G1X128734Y3577D1*
G1X129031Y3517D1*
G1X132969Y3517D1*
G1X133246Y3569D1*
G1X133502Y3733D1*
G1X133673Y3984D1*
G1X133733Y4281D1*
G1X133733Y8219D1*
G1X133681Y8496D1*
G1X133517Y8752D1*
G1X133266Y8923D1*
G1X132969Y8983D1*
G1X129031Y8983D1*
G1X128754Y8931D1*
G1X128498Y8767D1*
G1X128327Y8516D1*
G1X128267Y8219D1*
G1X117198Y8219D1*
G1X116309Y9398D1*
G1X114890Y10233D1*
G1X114250Y9839D1*
G1X112750Y9839D1*
G1X112110Y10233D1*
G1X110691Y9398D1*
G1X109701Y8083D1*
G1X109517Y7640D1*
G1X99983Y7640D1*
G1X99983Y7640D1*
G1X99148Y9059D1*
G1X97833Y10049D1*
G1X97390Y10233D1*
G1X96750Y9828D1*
G1X95250Y9828D1*
G1X94610Y10233D1*
G1X94167Y10049D1*
G1X92852Y9059D1*
G1X92017Y7640D1*
G1X89983Y7640D1*
G1X89148Y9059D1*
G1X87833Y10049D1*
G1X87390Y10233D1*
G1X86750Y9828D1*
G1X85250Y9828D1*
G1X84610Y10233D1*
G1X84167Y10049D1*
G1X82852Y9059D1*
G1X82017Y7640D1*
G1X79983Y7640D1*
G1X79148Y9059D1*
G1X77833Y10049D1*
G1X77390Y10233D1*
G1X76750Y9828D1*
G1X75250Y9828D1*
G1X74610Y10233D1*
G1X74167Y10049D1*
G1X72852Y9059D1*
G1X72017Y7640D1*
G1X69983Y7640D1*
G1X69148Y9059D1*
G1X67833Y10049D1*
G1X67390Y10233D1*
G1X66750Y9828D1*
G1X65250Y9828D1*
G1X64610Y10233D1*
G1X64167Y10049D1*
G1X62852Y9059D1*
G1X62017Y7640D1*
G1X59983Y7640D1*
G1X59148Y9059D1*
G1X59026Y9150D1*
G1X61000Y9150D1*
G1X61861Y9321D1*
G1X62591Y9809D1*
G1X63079Y10539D1*
G1X63250Y11400D1*
G1X63079Y12261D1*
G1X62591Y12991D1*
G1X61861Y13479D1*
G1X61000Y13650D1*
G1X56864Y13650D1*
G1X57040Y13685D1*
G1X57922Y14274D1*
G1X58512Y15156D1*
G1X58719Y16197D1*
G1X58719Y16303D1*
G1X63281Y16303D1*
G1X63281Y16197D1*
G1X63488Y15156D1*
G1X64078Y14274D1*
G1X64960Y13685D1*
G1X66000Y13478D1*
G1X67040Y13685D1*
G1X67922Y14274D1*
G1X68512Y15156D1*
G1X68719Y16197D1*
G1X68719Y16303D1*
G1X73281Y16303D1*
G1X73281Y16197D1*
G1X73488Y15156D1*
G1X74078Y14274D1*
G1X74960Y13685D1*
G1X76000Y13478D1*
G1X77040Y13685D1*
G1X77922Y14274D1*
G1X78512Y15156D1*
G1X78719Y16197D1*
G1X78719Y16303D1*
G1X83281Y16303D1*
G1X83281Y16197D1*
G1X83488Y15156D1*
G1X84078Y14274D1*
G1X84960Y13685D1*
G1X86000Y13478D1*
G1X87040Y13685D1*
G1X87922Y14274D1*
G1X88512Y15156D1*
G1X88719Y16197D1*
G1X88719Y16303D1*
G1X93281Y16303D1*
G1X93281Y16197D1*
G1X93488Y15156D1*
G1X94078Y14274D1*
G1X94960Y13685D1*
G1X96000Y13478D1*
G1X97040Y13685D1*
G1X97922Y14274D1*
G1X98512Y15156D1*
G1X98719Y16197D1*
G1X98719Y16303D1*
G1X98512Y17344D1*
G1X97927Y18219D1*
G1X110767Y18219D1*
G1X110767Y14281D1*
G1X110819Y14004D1*
G1X110983Y13748D1*
G1X111234Y13577D1*
G1X111531Y13517D1*
G1X115469Y13517D1*
G1X115746Y13569D1*
G1X116002Y13733D1*
G1X116173Y13984D1*
G1X116233Y14281D1*
G1X116233Y18219D1*
G1X116181Y18496D1*
G1X116017Y18752D1*
G1X115766Y18923D1*
G1X115469Y18983D1*
G1X111531Y18983D1*
G1X111254Y18931D1*
G1X110998Y18767D1*
G1X110827Y18516D1*
G1X110767Y18219D1*
G1X97927Y18219D1*
G1X97922Y18226D1*
G1X97040Y18815D1*
G1X96000Y19022D1*
G1X94960Y18815D1*
G1X94078Y18226D1*
G1X93488Y17344D1*
G1X93281Y16303D1*
G1X88719Y16303D1*
G1X88512Y17344D1*
G1X87922Y18226D1*
G1X87040Y18815D1*
G1X86000Y19022D1*
G1X84960Y18815D1*
G1X84078Y18226D1*
G1X83488Y17344D1*
G1X83281Y16303D1*
G1X78719Y16303D1*
G1X78512Y17344D1*
G1X77922Y18226D1*
G1X77040Y18815D1*
G1X76000Y19022D1*
G1X74960Y18815D1*
G1X74078Y18226D1*
G1X73488Y17344D1*
G1X73281Y16303D1*
G1X68719Y16303D1*
G1X68512Y17344D1*
G1X67922Y18226D1*
G1X67040Y18815D1*
G1X66000Y19022D1*
G1X64960Y18815D1*
G1X64078Y18226D1*
G1X63488Y17344D1*
G1X63281Y16303D1*
G1X58719Y16303D1*
G1X58512Y17344D1*
G1X57922Y18226D1*
G1X57040Y18815D1*
G1X56000Y19022D1*
G1X54960Y18815D1*
G1X54078Y18226D1*
G1X53488Y17344D1*
G1X53281Y16303D1*
G1X53281Y16197D1*
G1X53488Y15156D1*
G1X54078Y14274D1*
G1X54960Y13685D1*
G1X55136Y13650D1*
G1X46864Y13650D1*
G1X47040Y13685D1*
G1X47922Y14274D1*
G1X48512Y15156D1*
G1X48719Y16197D1*
G1X48719Y16303D1*
G1X48512Y17344D1*
G1X47922Y18226D1*
G1X47040Y18815D1*
G1X46000Y19022D1*
G1X44960Y18815D1*
G1X44078Y18226D1*
G1X43488Y17344D1*
G1X43281Y16303D1*
G1X43281Y16197D1*
G1X43488Y15156D1*
G1X44078Y14274D1*
G1X44960Y13685D1*
G1X45136Y13650D1*
G1X36864Y13650D1*
G1X37040Y13685D1*
G1X37922Y14274D1*
G1X38512Y15156D1*
G1X38719Y16197D1*
G1X38719Y16303D1*
G1X38512Y17344D1*
G1X37922Y18226D1*
G1X37040Y18815D1*
G1X36000Y19022D1*
G1X34960Y18815D1*
G1X34078Y18226D1*
G1X33488Y17344D1*
G1X33281Y16303D1*
G1X33281Y16197D1*
G1X33488Y15156D1*
G1X34078Y14274D1*
G1X34960Y13685D1*
G1X35136Y13650D1*
G1X31000Y13650D1*
G1X30139Y13479D1*
G1X29409Y12991D1*
G1X28921Y12261D1*
G1X28750Y11400D1*
G1X250Y11400D1*
G1X250Y18219D1*
G1X3267Y18219D1*
G1X3267Y14281D1*
G1X3319Y14004D1*
G1X3483Y13748D1*
G1X3734Y13577D1*
G1X4031Y13517D1*
G1X7969Y13517D1*
G1X8246Y13569D1*
G1X8502Y13733D1*
G1X8673Y13984D1*
G1X8733Y14281D1*
G1X8733Y16303D1*
G1X13281Y16303D1*
G1X13281Y16197D1*
G1X13488Y15156D1*
G1X14078Y14274D1*
G1X14960Y13685D1*
G1X16000Y13478D1*
G1X17040Y13685D1*
G1X17922Y14274D1*
G1X18512Y15156D1*
G1X18719Y16197D1*
G1X18719Y16303D1*
G1X23281Y16303D1*
G1X23281Y16197D1*
G1X23488Y15156D1*
G1X24078Y14274D1*
G1X24960Y13685D1*
G1X26000Y13478D1*
G1X27040Y13685D1*
G1X27922Y14274D1*
G1X28512Y15156D1*
G1X28719Y16197D1*
G1X28719Y16303D1*
G1X28512Y17344D1*
G1X27922Y18226D1*
G1X27040Y18815D1*
G1X26000Y19022D1*
G1X24960Y18815D1*
G1X24078Y18226D1*
G1X23488Y17344D1*
G1X23281Y16303D1*
G1X18719Y16303D1*
G1X18512Y17344D1*
G1X17922Y18226D1*
G1X17040Y18815D1*
G1X16000Y19022D1*
G1X14960Y18815D1*
G1X14078Y18226D1*
G1X13488Y17344D1*
G1X13281Y16303D1*
G1X8733Y16303D1*
G1X8733Y18219D1*
G1X8681Y18496D1*
G1X8517Y18752D1*
G1X8266Y18923D1*
G1X7969Y18983D1*
G1X4031Y18983D1*
G1X3754Y18931D1*
G1X3498Y18767D1*
G1X3327Y18516D1*
G1X3267Y18219D1*
G1X250Y18219D1*
G1X250Y24250D1*
G1X3500Y24250D1*
G1X3633Y23580D1*
G1X4013Y23013D1*
G1X4063Y22963D1*
G1X4630Y22583D1*
G1X5300Y22450D1*
G1X70400Y22450D1*
G1X71070Y22583D1*
G1X71637Y22963D1*
G1X72017Y23530D1*
G1X72150Y24200D1*
G1X72017Y24870D1*
G1X71930Y25000D1*
G1X81000Y25000D1*
G1X81670Y25133D1*
G1X82237Y25513D1*
G1X82617Y26080D1*
G1X82750Y26750D1*
G1X82617Y27420D1*
G1X82237Y27987D1*
G1X81670Y28367D1*
G1X81000Y28500D1*
G1X16000Y28500D1*
G1X15330Y28367D1*
G1X14763Y27987D1*
G1X14383Y27420D1*
G1X14250Y26750D1*
G1X14383Y26080D1*
G1X14470Y25950D1*
G1X5501Y25950D1*
G1X5250Y26000D1*
G1X4580Y25867D1*
G1X4013Y25487D1*
G1X3633Y24920D1*
G1X3500Y24250D1*
G1X250Y24250D1*
G1X250Y55712D1*
G1X3281Y55712D1*
G1X3694Y54712D1*
G1X4458Y53947D1*
G1X5457Y53532D1*
G1X6538Y53531D1*
G1X7538Y53944D1*
G1X8303Y54708D1*
G1X8718Y55707D1*
G1X8719Y56494D1*
G1X23225Y71000D1*
G1X28275Y71000D1*
G1X16025Y58750D1*
G1X15505Y58750D1*
G1X14586Y58371D1*
G1X13882Y57668D1*
G1X13500Y56749D1*
G1X13500Y55755D1*
G1X13879Y54836D1*
G1X14582Y54132D1*
G1X15501Y53750D1*
G1X16495Y53750D1*
G1X17414Y54129D1*
G1X18118Y54832D1*
G1X18500Y55751D1*
G1X18500Y55755D1*
G1X43500Y55755D1*
G1X43879Y54836D1*
G1X44582Y54132D1*
G1X45501Y53750D1*
G1X46495Y53750D1*
G1X47414Y54129D1*
G1X48118Y54832D1*
G1X48500Y55751D1*
G1X48500Y55755D1*
G1X53500Y55755D1*
G1X53879Y54836D1*
G1X54582Y54132D1*
G1X55501Y53750D1*
G1X56495Y53750D1*
G1X57414Y54129D1*
G1X58118Y54832D1*
G1X58500Y55751D1*
G1X58500Y55755D1*
G1X73500Y55755D1*
G1X73879Y54836D1*
G1X74582Y54132D1*
G1X75501Y53750D1*
G1X76495Y53750D1*
G1X77414Y54129D1*
G1X78118Y54832D1*
G1X78500Y55751D1*
G1X78500Y55755D1*
G1X128500Y55755D1*
G1X128879Y54836D1*
G1X129582Y54132D1*
G1X130501Y53750D1*
G1X131495Y53750D1*
G1X132414Y54129D1*
G1X133118Y54832D1*
G1X133500Y55751D1*
G1X133500Y55755D1*
G1X138500Y55755D1*
G1X138879Y54836D1*
G1X139582Y54132D1*
G1X140501Y53750D1*
G1X141495Y53750D1*
G1X142414Y54129D1*
G1X143118Y54832D1*
G1X143500Y55751D1*
G1X143500Y55755D1*
G1X148500Y55755D1*
G1X148879Y54836D1*
G1X149582Y54132D1*
G1X150501Y53750D1*
G1X151495Y53750D1*
G1X152414Y54129D1*
G1X153118Y54832D1*
G1X153500Y55751D1*
G1X153500Y55755D1*
G1X158500Y55755D1*
G1X158879Y54836D1*
G1X159582Y54132D1*
G1X160501Y53750D1*
G1X161495Y53750D1*
G1X162414Y54129D1*
G1X163118Y54832D1*
G1X163500Y55751D1*
G1X163500Y55755D1*
G1X168500Y55755D1*
G1X168879Y54836D1*
G1X169582Y54132D1*
G1X170501Y53750D1*
G1X171495Y53750D1*
G1X172414Y54129D1*
G1X173118Y54832D1*
G1X173500Y55751D1*
G1X173500Y55755D1*
G1X178500Y55755D1*
G1X178879Y54836D1*
G1X179582Y54132D1*
G1X180501Y53750D1*
G1X181495Y53750D1*
G1X182414Y54129D1*
G1X183118Y54832D1*
G1X183500Y55751D1*
G1X183500Y55755D1*
G1X188500Y55755D1*
G1X188879Y54836D1*
G1X189582Y54132D1*
G1X190501Y53750D1*
G1X191495Y53750D1*
G1X192414Y54129D1*
G1X193118Y54832D1*
G1X193500Y55751D1*
G1X193500Y55755D1*
G1X198500Y55755D1*
G1X198879Y54836D1*
G1X199582Y54132D1*
G1X200501Y53750D1*
G1X201495Y53750D1*
G1X202414Y54129D1*
G1X203118Y54832D1*
G1X203500Y55751D1*
G1X203500Y56745D1*
G1X203121Y57664D1*
G1X202418Y58368D1*
G1X201499Y58750D1*
G1X200505Y58750D1*
G1X199586Y58371D1*
G1X198882Y57668D1*
G1X198500Y56749D1*
G1X198500Y55755D1*
G1X193500Y55755D1*
G1X193500Y56745D1*
G1X193121Y57664D1*
G1X192418Y58368D1*
G1X191499Y58750D1*
G1X190505Y58750D1*
G1X189586Y58371D1*
G1X188882Y57668D1*
G1X188500Y56749D1*
G1X188500Y55755D1*
G1X183500Y55755D1*
G1X183500Y56745D1*
G1X183121Y57664D1*
G1X182418Y58368D1*
G1X181499Y58750D1*
G1X180505Y58750D1*
G1X179586Y58371D1*
G1X178882Y57668D1*
G1X178500Y56749D1*
G1X178500Y55755D1*
G1X173500Y55755D1*
G1X173500Y56745D1*
G1X173121Y57664D1*
G1X172418Y58368D1*
G1X171499Y58750D1*
G1X170505Y58750D1*
G1X169586Y58371D1*
G1X168882Y57668D1*
G1X168500Y56749D1*
G1X168500Y55755D1*
G1X163500Y55755D1*
G1X163500Y56745D1*
G1X163121Y57664D1*
G1X162418Y58368D1*
G1X161499Y58750D1*
G1X160505Y58750D1*
G1X159586Y58371D1*
G1X158882Y57668D1*
G1X158500Y56749D1*
G1X158500Y55755D1*
G1X153500Y55755D1*
G1X153500Y56745D1*
G1X153121Y57664D1*
G1X152418Y58368D1*
G1X151499Y58750D1*
G1X150505Y58750D1*
G1X149586Y58371D1*
G1X148882Y57668D1*
G1X148500Y56749D1*
G1X148500Y55755D1*
G1X143500Y55755D1*
G1X143500Y56745D1*
G1X143121Y57664D1*
G1X142418Y58368D1*
G1X141499Y58750D1*
G1X140505Y58750D1*
G1X139586Y58371D1*
G1X138882Y57668D1*
G1X138500Y56749D1*
G1X138500Y55755D1*
G1X133500Y55755D1*
G1X133500Y56745D1*
G1X133121Y57664D1*
G1X132418Y58368D1*
G1X131499Y58750D1*
G1X130505Y58750D1*
G1X129586Y58371D1*
G1X128882Y57668D1*
G1X128500Y56749D1*
G1X128500Y55755D1*
G1X78500Y55755D1*
G1X78500Y56745D1*
G1X78121Y57664D1*
G1X77418Y58368D1*
G1X76499Y58750D1*
G1X75505Y58750D1*
G1X74586Y58371D1*
G1X73882Y57668D1*
G1X73500Y56749D1*
G1X73500Y55755D1*
G1X58500Y55755D1*
G1X58500Y56745D1*
G1X58121Y57664D1*
G1X57418Y58368D1*
G1X56499Y58750D1*
G1X55505Y58750D1*
G1X54586Y58371D1*
G1X53882Y57668D1*
G1X53500Y56749D1*
G1X53500Y55755D1*
G1X48500Y55755D1*
G1X48500Y56745D1*
G1X48121Y57664D1*
G1X47418Y58368D1*
G1X46499Y58750D1*
G1X45505Y58750D1*
G1X44586Y58371D1*
G1X43882Y57668D1*
G1X43500Y56749D1*
G1X43500Y55755D1*
G1X18500Y55755D1*
G1X18500Y56275D1*
G1X30725Y68500D1*
G1X92500Y68500D1*
G1X93170Y68633D1*
G1X93351Y68754D1*
G1X258600Y68754D1*
G1X258941Y67927D1*
G1X259574Y67294D1*
G1X260400Y66950D1*
G1X261296Y66950D1*
G1X262123Y67291D1*
G1X262756Y67924D1*
G1X263100Y68750D1*
G1X263100Y68754D1*
G1X266500Y68754D1*
G1X266841Y67927D1*
G1X267474Y67294D1*
G1X268300Y66950D1*
G1X269196Y66950D1*
G1X270023Y67291D1*
G1X270656Y67924D1*
G1X271000Y68750D1*
G1X271000Y68754D1*
G1X274400Y68754D1*
G1X274741Y67927D1*
G1X275374Y67294D1*
G1X276200Y66950D1*
G1X277096Y66950D1*
G1X277923Y67291D1*
G1X278556Y67924D1*
G1X278900Y68750D1*
G1X278900Y68754D1*
G1X282300Y68754D1*
G1X282641Y67927D1*
G1X283274Y67294D1*
G1X284100Y66950D1*
G1X284996Y66950D1*
G1X285823Y67291D1*
G1X286456Y67924D1*
G1X286800Y68750D1*
G1X286800Y68754D1*
G1X290200Y68754D1*
G1X290541Y67927D1*
G1X291174Y67294D1*
G1X292000Y66950D1*
G1X292896Y66950D1*
G1X293723Y67291D1*
G1X294356Y67924D1*
G1X294700Y68750D1*
G1X294700Y68754D1*
G1X298100Y68754D1*
G1X298441Y67927D1*
G1X299074Y67294D1*
G1X299900Y66950D1*
G1X300796Y66950D1*
G1X301623Y67291D1*
G1X302256Y67924D1*
G1X302600Y68750D1*
G1X302600Y68754D1*
G1X306000Y68754D1*
G1X306341Y67927D1*
G1X306974Y67294D1*
G1X307800Y66950D1*
G1X308696Y66950D1*
G1X309523Y67291D1*
G1X310156Y67924D1*
G1X310500Y68750D1*
G1X310500Y68754D1*
G1X313900Y68754D1*
G1X314241Y67927D1*
G1X314874Y67294D1*
G1X315700Y66950D1*
G1X316596Y66950D1*
G1X317423Y67291D1*
G1X318056Y67924D1*
G1X318400Y68750D1*
G1X318400Y68754D1*
G1X321800Y68754D1*
G1X322141Y67927D1*
G1X322774Y67294D1*
G1X323600Y66950D1*
G1X324496Y66950D1*
G1X325323Y67291D1*
G1X325956Y67924D1*
G1X326300Y68750D1*
G1X326300Y68754D1*
G1X329700Y68754D1*
G1X330041Y67927D1*
G1X330674Y67294D1*
G1X331500Y66950D1*
G1X332396Y66950D1*
G1X333223Y67291D1*
G1X333856Y67924D1*
G1X334200Y68750D1*
G1X334200Y69646D1*
G1X333859Y70473D1*
G1X333226Y71106D1*
G1X332400Y71450D1*
G1X331504Y71450D1*
G1X330677Y71109D1*
G1X330044Y70476D1*
G1X329700Y69650D1*
G1X329700Y68754D1*
G1X326300Y68754D1*
G1X326300Y69646D1*
G1X325959Y70473D1*
G1X325326Y71106D1*
G1X324500Y71450D1*
G1X323604Y71450D1*
G1X322777Y71109D1*
G1X322144Y70476D1*
G1X321800Y69650D1*
G1X321800Y68754D1*
G1X318400Y68754D1*
G1X318400Y69646D1*
G1X318059Y70473D1*
G1X317426Y71106D1*
G1X316600Y71450D1*
G1X315704Y71450D1*
G1X314877Y71109D1*
G1X314244Y70476D1*
G1X313900Y69650D1*
G1X313900Y68754D1*
G1X310500Y68754D1*
G1X310500Y69646D1*
G1X310159Y70473D1*
G1X309526Y71106D1*
G1X308700Y71450D1*
G1X307804Y71450D1*
G1X306977Y71109D1*
G1X306344Y70476D1*
G1X306000Y69650D1*
G1X306000Y68754D1*
G1X302600Y68754D1*
G1X302600Y69646D1*
G1X302259Y70473D1*
G1X301626Y71106D1*
G1X300800Y71450D1*
G1X299904Y71450D1*
G1X299077Y71109D1*
G1X298444Y70476D1*
G1X298100Y69650D1*
G1X298100Y68754D1*
G1X294700Y68754D1*
G1X294700Y69646D1*
G1X294359Y70473D1*
G1X293726Y71106D1*
G1X292900Y71450D1*
G1X292004Y71450D1*
G1X291177Y71109D1*
G1X290544Y70476D1*
G1X290200Y69650D1*
G1X290200Y68754D1*
G1X286800Y68754D1*
G1X286800Y69646D1*
G1X286459Y70473D1*
G1X285826Y71106D1*
G1X285000Y71450D1*
G1X284104Y71450D1*
G1X283277Y71109D1*
G1X282644Y70476D1*
G1X282300Y69650D1*
G1X282300Y68754D1*
G1X278900Y68754D1*
G1X278900Y69646D1*
G1X278559Y70473D1*
G1X277926Y71106D1*
G1X277100Y71450D1*
G1X276204Y71450D1*
G1X275377Y71109D1*
G1X274744Y70476D1*
G1X274400Y69650D1*
G1X274400Y68754D1*
G1X271000Y68754D1*
G1X271000Y69646D1*
G1X270659Y70473D1*
G1X270026Y71106D1*
G1X269200Y71450D1*
G1X268304Y71450D1*
G1X267477Y71109D1*
G1X266844Y70476D1*
G1X266500Y69650D1*
G1X266500Y68754D1*
G1X263100Y68754D1*
G1X263100Y69646D1*
G1X262759Y70473D1*
G1X262126Y71106D1*
G1X261300Y71450D1*
G1X260404Y71450D1*
G1X259577Y71109D1*
G1X258944Y70476D1*
G1X258600Y69650D1*
G1X258600Y68754D1*
G1X93351Y68754D1*
G1X93737Y69013D1*
G1X97936Y73212D1*
G1X198281Y73212D1*
G1X198694Y72212D1*
G1X199458Y71447D1*
G1X200457Y71032D1*
G1X201538Y71031D1*
G1X202538Y71444D1*
G1X203303Y72208D1*
G1X203718Y73207D1*
G1X203719Y74288D1*
G1X203306Y75288D1*
G1X202542Y76053D1*
G1X201543Y76468D1*
G1X200462Y76469D1*
G1X199462Y76056D1*
G1X198697Y75292D1*
G1X198282Y74293D1*
G1X198281Y73212D1*
G1X97936Y73212D1*
G1X99487Y74763D1*
G1X99867Y75330D1*
G1X100000Y76000D1*
G1X100000Y81500D1*
G1X99867Y82170D1*
G1X99487Y82737D1*
G1X99013Y83212D1*
G1X198281Y83212D1*
G1X198694Y82212D1*
G1X199458Y81447D1*
G1X200457Y81032D1*
G1X201538Y81031D1*
G1X202538Y81444D1*
G1X203303Y82208D1*
G1X203718Y83207D1*
G1X203719Y84288D1*
G1X203306Y85288D1*
G1X202542Y86053D1*
G1X201543Y86468D1*
G1X200462Y86469D1*
G1X199462Y86056D1*
G1X198697Y85292D1*
G1X198282Y84293D1*
G1X198281Y83212D1*
G1X99013Y83212D1*
G1X94749Y87476D1*
G1X94749Y88516D1*
G1X94697Y88794D1*
G1X94532Y89049D1*
G1X94282Y89220D1*
G1X93984Y89280D1*
G1X92016Y89280D1*
G1X91738Y89228D1*
G1X91725Y89220D1*
G1X91725Y90374D1*
G1X91673Y90652D1*
G1X91509Y90907D1*
G1X91258Y91078D1*
G1X90961Y91139D1*
G1X88836Y91139D1*
G1X88487Y91487D1*
G1X87920Y91867D1*
G1X87250Y92000D1*
G1X86580Y91867D1*
G1X86013Y91487D1*
G1X85732Y91067D1*
G1X85506Y90922D1*
G1X85335Y90672D1*
G1X85275Y90374D1*
G1X85275Y84469D1*
G1X85327Y84191D1*
G1X85491Y83935D1*
G1X85742Y83764D1*
G1X86039Y83704D1*
G1X90961Y83704D1*
G1X91239Y83756D1*
G1X91494Y83920D1*
G1X91665Y84171D1*
G1X91725Y84469D1*
G1X91725Y85448D1*
G1X91853Y85422D1*
G1X93838Y83437D1*
G1X93736Y83395D1*
G1X93591Y83250D1*
G1X70010Y83250D1*
G1X69770Y83350D1*
G1X69233Y83350D1*
G1X68736Y83145D1*
G1X68356Y82766D1*
G1X68150Y82270D1*
G1X68150Y81733D1*
G1X68355Y81236D1*
G1X68734Y80856D1*
G1X69230Y80650D1*
G1X69767Y80650D1*
G1X70010Y80750D1*
G1X85319Y80750D1*
G1X85275Y80531D1*
G1X85275Y79547D1*
G1X85170Y79617D1*
G1X84500Y79750D1*
G1X83830Y79617D1*
G1X83263Y79237D1*
G1X82883Y78670D1*
G1X82750Y78000D1*
G1X82883Y77330D1*
G1X83263Y76763D1*
G1X83684Y76341D1*
G1X84252Y75962D1*
G1X84921Y75829D1*
G1X85275Y75829D1*
G1X85275Y74626D1*
G1X85298Y74500D1*
G1X22500Y74500D1*
G1X21830Y74367D1*
G1X21656Y74250D1*
G1X21263Y73987D1*
G1X6243Y58968D1*
G1X5462Y58969D1*
G1X4462Y58556D1*
G1X3697Y57792D1*
G1X3282Y56793D1*
G1X3281Y55712D1*
G1X250Y55712D1*
G1X250Y85179D1*
G1X22256Y85179D1*
G1X22425Y84438D1*
G1X24026Y84022D1*
G1X25665Y84251D1*
G1X26118Y84438D1*
G1X26288Y85179D1*
G1X24272Y87195D1*
G1X22256Y85179D1*
G1X250Y85179D1*
G1X250Y88501D1*
G1X20038Y88501D1*
G1X20266Y86862D1*
G1X20454Y86409D1*
G1X21195Y86240D1*
G1X23211Y88256D1*
G1X25332Y88256D1*
G1X27348Y86240D1*
G1X28089Y86409D1*
G1X28506Y88011D1*
G1X28277Y89650D1*
G1X28089Y90103D1*
G1X27348Y90272D1*
G1X25332Y88256D1*
G1X23211Y88256D1*
G1X21195Y90272D1*
G1X20454Y90103D1*
G1X20038Y88501D1*
G1X250Y88501D1*
G1X250Y91333D1*
G1X22256Y91333D1*
G1X24272Y89317D1*
G1X26288Y91333D1*
G1X26118Y92074D1*
G1X24517Y92490D1*
G1X22878Y92261D1*
G1X22425Y92074D1*
G1X22256Y91333D1*
G1X250Y91333D1*
G1X250Y100984D1*
G1X92970Y100984D1*
G1X92970Y99016D1*
G1X93022Y98738D1*
G1X93165Y98515D1*
G1X93165Y98218D1*
G1X93133Y98170D1*
G1X93000Y97500D1*
G1X93133Y96830D1*
G1X93513Y96263D1*
G1X94080Y95883D1*
G1X94750Y95750D1*
G1X95420Y95883D1*
G1X95987Y96263D1*
G1X96153Y96428D1*
G1X96359Y96736D1*
G1X96532Y96996D1*
G1X96629Y97484D1*
G1X100220Y97484D1*
G1X100220Y95516D1*
G1X100272Y95238D1*
G1X100436Y94983D1*
G1X100687Y94811D1*
G1X100984Y94751D1*
G1X103346Y94751D1*
G1X103624Y94803D1*
G1X103847Y94947D1*
G1X103944Y94712D1*
G1X104708Y93947D1*
G1X105707Y93532D1*
G1X106788Y93531D1*
G1X107788Y93944D1*
G1X108553Y94708D1*
G1X108968Y95707D1*
G1X108969Y96788D1*
G1X108556Y97788D1*
G1X107792Y98553D1*
G1X106793Y98968D1*
G1X105712Y98969D1*
G1X104712Y98556D1*
G1X104003Y97848D1*
G1X103895Y98017D1*
G1X103644Y98189D1*
G1X103346Y98249D1*
G1X100984Y98249D1*
G1X100706Y98197D1*
G1X100451Y98032D1*
G1X100280Y97782D1*
G1X100220Y97484D1*
G1X96629Y97484D1*
G1X96665Y97665D1*
G1X96665Y98520D1*
G1X96801Y98718D1*
G1X96861Y99016D1*
G1X96861Y100984D1*
G1X96809Y101262D1*
G1X96645Y101517D1*
G1X96394Y101689D1*
G1X96096Y101749D1*
G1X94921Y101749D1*
G1X94915Y101750D1*
G1X94910Y101749D1*
G1X93734Y101749D1*
G1X93456Y101697D1*
G1X93201Y101532D1*
G1X93030Y101282D1*
G1X92970Y100984D1*
G1X250Y100984D1*
G1X250Y119667D1*
G1X22256Y119667D1*
G1X22425Y118926D1*
G1X24026Y118510D1*
G1X25665Y118739D1*
G1X26118Y118926D1*
G1X26288Y119667D1*
G1X26120Y119835D1*
G1X47750Y119835D1*
G1X47751Y119829D1*
G1X47751Y118654D1*
G1X47803Y118376D1*
G1X47968Y118120D1*
G1X48218Y117949D1*
G1X48516Y117889D1*
G1X50484Y117889D1*
G1X50762Y117941D1*
G1X50985Y118085D1*
G1X51039Y118085D1*
G1X51099Y117990D1*
G1X51350Y117819D1*
G1X51648Y117759D1*
G1X53776Y117759D1*
G1X54500Y117035D1*
G1X54500Y108750D1*
G1X54633Y108080D1*
G1X55013Y107513D1*
G1X55580Y107133D1*
G1X56250Y107000D1*
G1X56920Y107133D1*
G1X57487Y107513D1*
G1X57867Y108080D1*
G1X58000Y108750D1*
G1X58000Y109092D1*
G1X58016Y109089D1*
G1X59984Y109089D1*
G1X60154Y109121D1*
G1X62250Y107025D1*
G1X62250Y103750D1*
G1X62383Y103080D1*
G1X62763Y102513D1*
G1X63330Y102133D1*
G1X64000Y102000D1*
G1X64670Y102133D1*
G1X65237Y102513D1*
G1X65617Y103080D1*
G1X65750Y103750D1*
G1X65750Y104484D1*
G1X100220Y104484D1*
G1X100220Y102516D1*
G1X100272Y102238D1*
G1X100436Y101983D1*
G1X100687Y101811D1*
G1X100984Y101751D1*
G1X103346Y101751D1*
G1X103624Y101803D1*
G1X103880Y101968D1*
G1X103997Y102139D1*
G1X104708Y101427D1*
G1X105707Y101012D1*
G1X106788Y101011D1*
G1X107788Y101424D1*
G1X108553Y102188D1*
G1X108968Y103187D1*
G1X108969Y104269D1*
G1X108556Y105268D1*
G1X107792Y106034D1*
G1X106793Y106448D1*
G1X105712Y106449D1*
G1X104712Y106036D1*
G1X103947Y105272D1*
G1X103853Y105046D1*
G1X103644Y105189D1*
G1X103346Y105249D1*
G1X100984Y105249D1*
G1X100706Y105197D1*
G1X100451Y105032D1*
G1X100280Y104782D1*
G1X100220Y104484D1*
G1X65750Y104484D1*
G1X65750Y107750D1*
G1X65617Y108420D1*
G1X65237Y108987D1*
G1X61953Y112272D1*
G1X61858Y112336D1*
G1X61385Y112651D1*
G1X60715Y112785D1*
G1X60480Y112785D1*
G1X60282Y112920D1*
G1X59984Y112980D1*
G1X58016Y112980D1*
G1X58000Y112977D1*
G1X58000Y113423D1*
G1X58016Y113420D1*
G1X59984Y113420D1*
G1X60262Y113472D1*
G1X60517Y113636D1*
G1X60689Y113887D1*
G1X60749Y114184D1*
G1X60749Y115360D1*
G1X60750Y115365D1*
G1X60750Y116785D1*
G1X61724Y117759D1*
G1X63852Y117759D1*
G1X64130Y117811D1*
G1X64386Y117975D1*
G1X64557Y118226D1*
G1X64617Y118524D1*
G1X64617Y119675D1*
G1X65414Y119675D1*
G1X65414Y111407D1*
G1X65467Y111130D1*
G1X65631Y110874D1*
G1X65882Y110703D1*
G1X66179Y110643D1*
G1X68585Y110643D1*
G1X68585Y110236D1*
G1X68376Y110197D1*
G1X68120Y110032D1*
G1X67949Y109782D1*
G1X67889Y109484D1*
G1X67889Y107516D1*
G1X67941Y107238D1*
G1X68105Y106983D1*
G1X68356Y106811D1*
G1X68654Y106751D1*
G1X71016Y106751D1*
G1X71294Y106803D1*
G1X71549Y106968D1*
G1X71720Y107218D1*
G1X71780Y107516D1*
G1X71780Y109484D1*
G1X71728Y109762D1*
G1X71564Y110017D1*
G1X71313Y110189D1*
G1X71085Y110235D1*
G1X71085Y110643D1*
G1X73266Y110643D1*
G1X73544Y110695D1*
G1X73799Y110859D1*
G1X73970Y111110D1*
G1X74030Y111407D1*
G1X74030Y119675D1*
G1X73978Y119953D1*
G1X73814Y120208D1*
G1X73563Y120380D1*
G1X73266Y120440D1*
G1X66179Y120440D1*
G1X65901Y120388D1*
G1X65646Y120223D1*
G1X65475Y119973D1*
G1X65414Y119675D1*
G1X64617Y119675D1*
G1X64617Y121476D1*
G1X64565Y121754D1*
G1X64401Y122010D1*
G1X64150Y122181D1*
G1X63852Y122241D1*
G1X63240Y122241D1*
G1X63240Y131093D1*
G1X74470Y131093D1*
G1X74470Y122825D1*
G1X74522Y122547D1*
G1X74686Y122292D1*
G1X74937Y122120D1*
G1X75234Y122060D1*
G1X82321Y122060D1*
G1X82599Y122112D1*
G1X82854Y122277D1*
G1X83025Y122527D1*
G1X83086Y122825D1*
G1X83086Y123000D1*
G1X86500Y123000D1*
G1X86500Y112665D1*
G1X86501Y112660D1*
G1X86501Y111484D1*
G1X86553Y111206D1*
G1X86718Y110951D1*
G1X86968Y110780D1*
G1X87266Y110720D1*
G1X89234Y110720D1*
G1X89512Y110772D1*
G1X89767Y110936D1*
G1X89939Y111187D1*
G1X89999Y111484D1*
G1X89999Y112660D1*
G1X90000Y112665D1*
G1X90000Y113255D1*
G1X198500Y113255D1*
G1X198879Y112336D1*
G1X199582Y111632D1*
G1X200501Y111250D1*
G1X201495Y111250D1*
G1X202414Y111629D1*
G1X203118Y112332D1*
G1X203500Y113251D1*
G1X203500Y114245D1*
G1X203121Y115164D1*
G1X202418Y115868D1*
G1X201499Y116250D1*
G1X200505Y116250D1*
G1X199586Y115871D1*
G1X198882Y115168D1*
G1X198500Y114249D1*
G1X198500Y113255D1*
G1X90000Y113255D1*
G1X90000Y123000D1*
G1X89949Y123255D1*
G1X198500Y123255D1*
G1X198879Y122336D1*
G1X199582Y121632D1*
G1X200501Y121250D1*
G1X201495Y121250D1*
G1X202414Y121629D1*
G1X203118Y122332D1*
G1X203500Y123251D1*
G1X203500Y124245D1*
G1X203121Y125164D1*
G1X202418Y125868D1*
G1X201499Y126250D1*
G1X200505Y126250D1*
G1X199586Y125871D1*
G1X198882Y125168D1*
G1X198500Y124249D1*
G1X198500Y123255D1*
G1X89949Y123255D1*
G1X89867Y123670D1*
G1X89487Y124237D1*
G1X88920Y124617D1*
G1X88250Y124750D1*
G1X87580Y124617D1*
G1X87013Y124237D1*
G1X86633Y123670D1*
G1X86500Y123000D1*
G1X83086Y123000D1*
G1X83086Y131093D1*
G1X83033Y131370D1*
G1X82869Y131626D1*
G1X82618Y131797D1*
G1X82321Y131857D1*
G1X79915Y131857D1*
G1X79915Y132264D1*
G1X80124Y132303D1*
G1X80380Y132468D1*
G1X80551Y132718D1*
G1X80611Y133016D1*
G1X80611Y133255D1*
G1X198500Y133255D1*
G1X198879Y132336D1*
G1X199582Y131632D1*
G1X200501Y131250D1*
G1X201495Y131250D1*
G1X202414Y131629D1*
G1X203118Y132332D1*
G1X203500Y133251D1*
G1X203500Y134245D1*
G1X203121Y135164D1*
G1X202418Y135868D1*
G1X201499Y136250D1*
G1X200505Y136250D1*
G1X199586Y135871D1*
G1X198882Y135168D1*
G1X198500Y134249D1*
G1X198500Y133255D1*
G1X80611Y133255D1*
G1X80611Y134984D1*
G1X80559Y135262D1*
G1X80395Y135517D1*
G1X80144Y135689D1*
G1X79846Y135749D1*
G1X77484Y135749D1*
G1X77206Y135697D1*
G1X76951Y135532D1*
G1X76780Y135282D1*
G1X76720Y134984D1*
G1X76720Y133016D1*
G1X76772Y132738D1*
G1X76936Y132483D1*
G1X77187Y132311D1*
G1X77415Y132265D1*
G1X77415Y131857D1*
G1X75234Y131857D1*
G1X74956Y131805D1*
G1X74701Y131641D1*
G1X74530Y131390D1*
G1X74470Y131093D1*
G1X63240Y131093D1*
G1X63240Y143255D1*
G1X198500Y143255D1*
G1X198879Y142336D1*
G1X199582Y141632D1*
G1X200501Y141250D1*
G1X201495Y141250D1*
G1X202414Y141629D1*
G1X203118Y142332D1*
G1X203500Y143251D1*
G1X203500Y144245D1*
G1X203121Y145164D1*
G1X202418Y145868D1*
G1X201499Y146250D1*
G1X200505Y146250D1*
G1X199586Y145871D1*
G1X198882Y145168D1*
G1X198500Y144249D1*
G1X198500Y143255D1*
G1X63240Y143255D1*
G1X63240Y146765D1*
G1X69501Y153026D1*
G1X259136Y153026D1*
G1X259253Y152326D1*
G1X260704Y151979D1*
G1X262177Y152214D1*
G1X262447Y152326D1*
G1X262564Y153026D1*
G1X260850Y154739D1*
G1X259136Y153026D1*
G1X69501Y153026D1*
G1X72421Y155946D1*
G1X257029Y155946D1*
G1X257264Y154473D1*
G1X257376Y154203D1*
G1X258076Y154086D1*
G1X259789Y155800D1*
G1X261911Y155800D1*
G1X263624Y154086D1*
G1X264324Y154203D1*
G1X264599Y155354D1*
G1X266500Y155354D1*
G1X266841Y154527D1*
G1X267474Y153894D1*
G1X268300Y153550D1*
G1X269196Y153550D1*
G1X270023Y153891D1*
G1X270656Y154524D1*
G1X271000Y155350D1*
G1X271000Y155354D1*
G1X274400Y155354D1*
G1X274741Y154527D1*
G1X275374Y153894D1*
G1X276200Y153550D1*
G1X277096Y153550D1*
G1X277923Y153891D1*
G1X278556Y154524D1*
G1X278900Y155350D1*
G1X278900Y155354D1*
G1X282300Y155354D1*
G1X282641Y154527D1*
G1X283274Y153894D1*
G1X284100Y153550D1*
G1X284996Y153550D1*
G1X285823Y153891D1*
G1X286456Y154524D1*
G1X286800Y155350D1*
G1X286800Y155354D1*
G1X290200Y155354D1*
G1X290541Y154527D1*
G1X291174Y153894D1*
G1X292000Y153550D1*
G1X292896Y153550D1*
G1X293723Y153891D1*
G1X294356Y154524D1*
G1X294700Y155350D1*
G1X294700Y155354D1*
G1X298100Y155354D1*
G1X298441Y154527D1*
G1X299074Y153894D1*
G1X299900Y153550D1*
G1X300796Y153550D1*
G1X301623Y153891D1*
G1X302256Y154524D1*
G1X302600Y155350D1*
G1X302600Y155354D1*
G1X306000Y155354D1*
G1X306341Y154527D1*
G1X306974Y153894D1*
G1X307800Y153550D1*
G1X308696Y153550D1*
G1X309523Y153891D1*
G1X310156Y154524D1*
G1X310500Y155350D1*
G1X310500Y155354D1*
G1X313900Y155354D1*
G1X314241Y154527D1*
G1X314874Y153894D1*
G1X315700Y153550D1*
G1X316596Y153550D1*
G1X317423Y153891D1*
G1X318056Y154524D1*
G1X318400Y155350D1*
G1X318400Y156246D1*
G1X318059Y157073D1*
G1X317426Y157706D1*
G1X316600Y158050D1*
G1X315704Y158050D1*
G1X314877Y157709D1*
G1X314244Y157076D1*
G1X313900Y156250D1*
G1X313900Y155354D1*
G1X310500Y155354D1*
G1X310500Y156246D1*
G1X310159Y157073D1*
G1X309526Y157706D1*
G1X308700Y158050D1*
G1X307804Y158050D1*
G1X306977Y157709D1*
G1X306344Y157076D1*
G1X306000Y156250D1*
G1X306000Y155354D1*
G1X302600Y155354D1*
G1X302600Y156246D1*
G1X302259Y157073D1*
G1X301626Y157706D1*
G1X300800Y158050D1*
G1X299904Y158050D1*
G1X299077Y157709D1*
G1X298444Y157076D1*
G1X298100Y156250D1*
G1X298100Y155354D1*
G1X294700Y155354D1*
G1X294700Y156246D1*
G1X294359Y157073D1*
G1X293726Y157706D1*
G1X292900Y158050D1*
G1X292004Y158050D1*
G1X291177Y157709D1*
G1X290544Y157076D1*
G1X290200Y156250D1*
G1X290200Y155354D1*
G1X286800Y155354D1*
G1X286800Y156246D1*
G1X286459Y157073D1*
G1X285826Y157706D1*
G1X285000Y158050D1*
G1X284104Y158050D1*
G1X283277Y157709D1*
G1X282644Y157076D1*
G1X282300Y156250D1*
G1X282300Y155354D1*
G1X278900Y155354D1*
G1X278900Y156246D1*
G1X278559Y157073D1*
G1X277926Y157706D1*
G1X277100Y158050D1*
G1X276204Y158050D1*
G1X275377Y157709D1*
G1X274744Y157076D1*
G1X274400Y156250D1*
G1X274400Y155354D1*
G1X271000Y155354D1*
G1X271000Y156246D1*
G1X270659Y157073D1*
G1X270026Y157706D1*
G1X269200Y158050D1*
G1X268304Y158050D1*
G1X267477Y157709D1*
G1X266844Y157076D1*
G1X266500Y156250D1*
G1X266500Y155354D1*
G1X264599Y155354D1*
G1X264671Y155654D1*
G1X264436Y157127D1*
G1X264324Y157397D1*
G1X263624Y157514D1*
G1X261911Y155800D1*
G1X259789Y155800D1*
G1X258076Y157514D1*
G1X257376Y157397D1*
G1X257029Y155946D1*
G1X72421Y155946D1*
G1X75049Y158574D1*
G1X259136Y158574D1*
G1X260850Y156861D1*
G1X262564Y158574D1*
G1X262447Y159274D1*
G1X260996Y159621D1*
G1X259523Y159386D1*
G1X259253Y159274D1*
G1X259136Y158574D1*
G1X75049Y158574D1*
G1X78475Y162000D1*
G1X199214Y162000D1*
G1X199582Y161632D1*
G1X200501Y161250D1*
G1X201495Y161250D1*
G1X202414Y161629D1*
G1X202786Y162000D1*
G1X319775Y162000D1*
G1X323725Y158050D1*
G1X323604Y158050D1*
G1X322777Y157709D1*
G1X322144Y157076D1*
G1X321800Y156250D1*
G1X321800Y155354D1*
G1X322141Y154527D1*
G1X322774Y153894D1*
G1X323600Y153550D1*
G1X324496Y153550D1*
G1X325323Y153891D1*
G1X325956Y154524D1*
G1X326300Y155350D1*
G1X326300Y155475D1*
G1X327000Y154775D1*
G1X327000Y153750D1*
G1X327133Y153080D1*
G1X327513Y152513D1*
G1X350500Y129525D1*
G1X350500Y24725D1*
G1X342775Y17000D1*
G1X122250Y17000D1*
G1X121580Y16867D1*
G1X121013Y16487D1*
G1X120633Y15920D1*
G1X120500Y15250D1*
G1X120633Y14580D1*
G1X121013Y14013D1*
G1X121580Y13633D1*
G1X122250Y13500D1*
G1X122200Y13500D1*
G1X121339Y13329D1*
G1X120609Y12841D1*
G1X120121Y12111D1*
G1X119950Y11250D1*
G1X120121Y10389D1*
G1X120609Y9659D1*
G1X121339Y9171D1*
G1X122200Y9000D1*
G1X140891Y9000D1*
G1X139960Y8815D1*
G1X139078Y8226D1*
G1X138488Y7344D1*
G1X138281Y6303D1*
G1X138281Y6197D1*
G1X138488Y5156D1*
G1X139078Y4274D1*
G1X139960Y3685D1*
G1X141000Y3478D1*
G1X142040Y3685D1*
G1X142922Y4274D1*
G1X143512Y5156D1*
G1X143719Y6197D1*
G1X143719Y6303D1*
G1X143512Y7344D1*
G1X142922Y8226D1*
G1X142040Y8815D1*
G1X141109Y9000D1*
G1X150891Y9000D1*
G1X149960Y8815D1*
G1X149078Y8226D1*
G1X148488Y7344D1*
G1X148281Y6303D1*
G1X148281Y6197D1*
G1X148488Y5156D1*
G1X149078Y4274D1*
G1X149960Y3685D1*
G1X151000Y3478D1*
G1X152040Y3685D1*
G1X152922Y4274D1*
G1X153512Y5156D1*
G1X153719Y6197D1*
G1X153719Y6303D1*
G1X153512Y7344D1*
G1X152922Y8226D1*
G1X152040Y8815D1*
G1X151109Y9000D1*
G1X160891Y9000D1*
G1X159960Y8815D1*
G1X159078Y8226D1*
G1X158488Y7344D1*
G1X158281Y6303D1*
G1X158281Y6197D1*
G1X158488Y5156D1*
G1X159078Y4274D1*
G1X159960Y3685D1*
G1X161000Y3478D1*
G1X162040Y3685D1*
G1X162922Y4274D1*
G1X163512Y5156D1*
G1X163719Y6197D1*
G1X163719Y6303D1*
G1X163512Y7344D1*
G1X162922Y8226D1*
G1X162040Y8815D1*
G1X161109Y9000D1*
G1X170891Y9000D1*
G1X169960Y8815D1*
G1X169078Y8226D1*
G1X168488Y7344D1*
G1X168281Y6303D1*
G1X168281Y6197D1*
G1X168488Y5156D1*
G1X169078Y4274D1*
G1X169960Y3685D1*
G1X171000Y3478D1*
G1X172040Y3685D1*
G1X172922Y4274D1*
G1X173512Y5156D1*
G1X173719Y6197D1*
G1X173719Y6303D1*
G1X173512Y7344D1*
G1X172922Y8226D1*
G1X172040Y8815D1*
G1X171109Y9000D1*
G1X180891Y9000D1*
G1X179960Y8815D1*
G1X179078Y8226D1*
G1X178488Y7344D1*
G1X178281Y6303D1*
G1X178281Y6197D1*
G1X178488Y5156D1*
G1X179078Y4274D1*
G1X179960Y3685D1*
G1X181000Y3478D1*
G1X182040Y3685D1*
G1X182922Y4274D1*
G1X183512Y5156D1*
G1X183719Y6197D1*
G1X183719Y6303D1*
G1X183512Y7344D1*
G1X182922Y8226D1*
G1X182040Y8815D1*
G1X181109Y9000D1*
G1X190891Y9000D1*
G1X189960Y8815D1*
G1X189078Y8226D1*
G1X188488Y7344D1*
G1X188281Y6303D1*
G1X188281Y6197D1*
G1X188488Y5156D1*
G1X189078Y4274D1*
G1X189960Y3685D1*
G1X191000Y3478D1*
G1X192040Y3685D1*
G1X192922Y4274D1*
G1X193512Y5156D1*
G1X193719Y6197D1*
G1X193719Y6303D1*
G1X193512Y7344D1*
G1X192922Y8226D1*
G1X192040Y8815D1*
G1X191109Y9000D1*
G1X200891Y9000D1*
G1X199960Y8815D1*
G1X199078Y8226D1*
G1X198488Y7344D1*
G1X198281Y6303D1*
G1X198281Y6197D1*
G1X198488Y5156D1*
G1X199078Y4274D1*
G1X199960Y3685D1*
G1X201000Y3478D1*
G1X202040Y3685D1*
G1X202922Y4274D1*
G1X203512Y5156D1*
G1X203719Y6197D1*
G1X203719Y6303D1*
G1X203512Y7344D1*
G1X202922Y8226D1*
G1X202040Y8815D1*
G1X201109Y9000D1*
G1X344750Y9000D1*
G1X344750Y9000D3*
G1X344750Y9000D2*
G1X345504Y9150D1*
G1X345611Y9171D1*
G1X346341Y9659D1*
G1X357591Y20909D1*
G1X357591Y20909D3*
G1X357591Y20909D2*
G1X358079Y21639D1*
G1X358250Y22500D1*
G1X358250Y131750D1*
G1X358079Y132611D1*
G1X357591Y133341D1*
G1X357591Y133341D3*
G1X357591Y133341D2*
G1X334000Y156932D1*
G1X334000Y160585D1*
G1X339585Y160585D1*
G1X339585Y160585D3*
G1X339585Y160585D2*
G1X340303Y160728D1*
G1X340446Y160756D1*
G1X341176Y161244D1*
G1X343841Y163909D1*
G1X343841Y163909D3*
G1X343841Y163909D2*
G1X344329Y164639D1*
G1X344329Y164639D3*
G1X344329Y164639D2*
G1X344500Y165500D1*
G1X344500Y165500D1*
G1X344500Y168750D1*
G1X344500Y168750D3*
G1X344500Y168750D2*
G1X344329Y169611D1*
G1X344329Y169611D3*
G1X344329Y169611D2*
G1X343841Y170341D1*
G1X343841Y170341D3*
G1X343841Y170341D2*
G1X341591Y172591D1*
G1X340861Y173079D1*
G1X340718Y173107D1*
G1X340000Y173250D1*
G1X340000Y173250D3*
G1X340000Y173250D2*
G1X82761Y173250D1*
G1X82290Y173565D1*
G1X81250Y173772D1*
G1X80210Y173565D1*
G1X79328Y172976D1*
G1X78738Y172094D1*
G1X78531Y171053D1*
G1X78531Y170947D1*
G1X78738Y169906D1*
G1X79328Y169024D1*
G1X80210Y168435D1*
G1X81250Y168228D1*
G1X82290Y168435D1*
G1X82761Y168750D1*
G1X339068Y168750D1*
G1X340000Y167818D1*
G1X340000Y166432D1*
G1X338653Y165085D1*
G1X331750Y165085D1*
G1X330889Y164913D1*
G1X330660Y164761D1*
G1X330488Y164728D1*
G1X330233Y164564D1*
G1X330061Y164313D1*
G1X330051Y164265D1*
G1X329671Y163696D1*
G1X329500Y162835D1*
G1X329500Y157225D1*
G1X321737Y164987D1*
G1X321592Y165085D1*
G1X321170Y165367D1*
G1X320500Y165500D1*
G1X202786Y165500D1*
G1X202418Y165868D1*
G1X201499Y166250D1*
G1X200505Y166250D1*
G1X199586Y165871D1*
G1X199214Y165500D1*
G1X77750Y165500D1*
G1X77080Y165367D1*
G1X76658Y165085D1*
G1X76513Y164987D1*
G1X60253Y148728D1*
G1X59873Y148160D1*
G1X59740Y147490D1*
G1X59740Y122241D1*
G1X59128Y122241D1*
G1X58850Y122189D1*
G1X58595Y122025D1*
G1X58424Y121774D1*
G1X58363Y121476D1*
G1X58363Y119348D1*
G1X57763Y118747D1*
G1X57709Y118666D1*
G1X57487Y118997D1*
G1X57137Y119348D1*
G1X57137Y121476D1*
G1X57084Y121754D1*
G1X56920Y122010D1*
G1X56670Y122181D1*
G1X56372Y122241D1*
G1X51648Y122241D1*
G1X51370Y122189D1*
G1X51114Y122025D1*
G1X50943Y121774D1*
G1X50914Y121630D1*
G1X50782Y121720D1*
G1X50484Y121780D1*
G1X48516Y121780D1*
G1X48238Y121728D1*
G1X47983Y121564D1*
G1X47811Y121313D1*
G1X47751Y121016D1*
G1X47751Y119840D1*
G1X47750Y119835D1*
G1X26120Y119835D1*
G1X24272Y121683D1*
G1X22256Y119667D1*
G1X250Y119667D1*
G1X250Y122989D1*
G1X20038Y122989D1*
G1X20266Y121350D1*
G1X20454Y120897D1*
G1X21195Y120728D1*
G1X23211Y122744D1*
G1X25332Y122744D1*
G1X27348Y120728D1*
G1X28089Y120897D1*
G1X28506Y122499D1*
G1X28277Y124138D1*
G1X28089Y124591D1*
G1X27348Y124760D1*
G1X25332Y122744D1*
G1X23211Y122744D1*
G1X21195Y124760D1*
G1X20454Y124591D1*
G1X20038Y122989D1*
G1X250Y122989D1*
G1X250Y125821D1*
G1X22256Y125821D1*
G1X24272Y123805D1*
G1X26288Y125821D1*
G1X26118Y126562D1*
G1X24517Y126978D1*
G1X22878Y126749D1*
G1X22425Y126562D1*
G1X22256Y125821D1*
G1X250Y125821D1*
G1X250Y169610D1*
G1X39767Y169610D1*
G1X40602Y168191D1*
G1X41917Y167201D1*
G1X42360Y167017D1*
G1X43000Y167422D1*
G1X43000Y170250D1*
G1X44500Y170250D1*
G1X44500Y167422D1*
G1X45140Y167017D1*
G1X45583Y167201D1*
G1X46898Y168191D1*
G1X47733Y169610D1*
G1X47339Y170250D1*
G1X44500Y170250D1*
G1X43000Y170250D1*
G1X40161Y170250D1*
G1X39767Y169610D1*
G1X250Y169610D1*
G1X250Y172390D1*
G1X39767Y172390D1*
G1X40161Y171750D1*
G1X43000Y171750D1*
G1X43000Y174578D1*
G1X44500Y174578D1*
G1X44500Y171750D1*
G1X47339Y171750D1*
G1X47733Y172390D1*
G1X47392Y172969D1*
G1X51017Y172969D1*
G1X51017Y169031D1*
G1X51069Y168754D1*
G1X51233Y168498D1*
G1X51484Y168327D1*
G1X51781Y168267D1*
G1X55719Y168267D1*
G1X55996Y168319D1*
G1X56252Y168483D1*
G1X56423Y168734D1*
G1X56426Y168750D1*
G1X68571Y168750D1*
G1X68733Y168498D1*
G1X68984Y168327D1*
G1X69281Y168267D1*
G1X73219Y168267D1*
G1X73496Y168319D1*
G1X73752Y168483D1*
G1X73923Y168734D1*
G1X73983Y169031D1*
G1X73983Y172969D1*
G1X73931Y173246D1*
G1X73767Y173502D1*
G1X73516Y173673D1*
G1X73219Y173733D1*
G1X69281Y173733D1*
G1X69004Y173681D1*
G1X68748Y173517D1*
G1X68577Y173266D1*
G1X68574Y173250D1*
G1X56429Y173250D1*
G1X56267Y173502D1*
G1X56016Y173673D1*
G1X55719Y173733D1*
G1X51781Y173733D1*
G1X51504Y173681D1*
G1X51248Y173517D1*
G1X51077Y173266D1*
G1X51017Y172969D1*
G1X47392Y172969D1*
G1X46898Y173809D1*
G1X45583Y174799D1*
G1X45140Y174983D1*
G1X44500Y174578D1*
G1X43000Y174578D1*
G1X42360Y174983D1*
G1X41917Y174799D1*
G1X40602Y173809D1*
G1X39767Y172390D1*
G1X250Y172390D1*
G1X250Y179750D1*
G1X359750Y179750D1*
G1X359750Y250D1*
M2*
