G04 #@! TF.FileFunction,Legend,Top*
%FSLAX46Y46*%
G04 Gerber Fmt 4.6, Leading zero omitted, Abs format (unit mm)*
G04 Created by KiCad (PCBNEW 4.0.6) date 06/21/17 17:12:11*
%MOMM*%
%LPD*%
G01*
G04 APERTURE LIST*
%ADD10C,0.025400*%
%ADD11C,0.254000*%
%ADD12C,0.127000*%
%ADD13C,0.150000*%
%ADD14C,0.120000*%
G04 APERTURE END LIST*
D10*
D11*
X36798069Y4436291D02*
X35927212Y4436291D01*
X36362640Y4436291D02*
X36362640Y5960291D01*
X36217497Y5742577D01*
X36072355Y5597434D01*
X35927212Y5524863D01*
X66688425Y95041720D02*
X65962711Y95041720D01*
X66833568Y95477149D02*
X66325568Y93953149D01*
X65817568Y95477149D01*
X65309568Y93953149D02*
X65309568Y95186863D01*
X65236996Y95332006D01*
X65164425Y95404577D01*
X65019282Y95477149D01*
X64728996Y95477149D01*
X64583854Y95404577D01*
X64511282Y95332006D01*
X64438711Y95186863D01*
X64438711Y93953149D01*
X63712997Y95477149D02*
X63712997Y93953149D01*
X63350140Y93953149D01*
X63132425Y94025720D01*
X62987283Y94170863D01*
X62914711Y94316006D01*
X62842140Y94606291D01*
X62842140Y94824006D01*
X62914711Y95114291D01*
X62987283Y95259434D01*
X63132425Y95404577D01*
X63350140Y95477149D01*
X63712997Y95477149D01*
X62188997Y95477149D02*
X62188997Y93953149D01*
X61172997Y93953149D02*
X60882711Y93953149D01*
X60737569Y94025720D01*
X60592426Y94170863D01*
X60519854Y94461149D01*
X60519854Y94969149D01*
X60592426Y95259434D01*
X60737569Y95404577D01*
X60882711Y95477149D01*
X61172997Y95477149D01*
X61318140Y95404577D01*
X61463283Y95259434D01*
X61535854Y94969149D01*
X61535854Y94461149D01*
X61463283Y94170863D01*
X61318140Y94025720D01*
X61172997Y93953149D01*
D12*
X77265712Y94343220D02*
X77338283Y94306934D01*
X77447140Y94306934D01*
X77555997Y94343220D01*
X77628569Y94415791D01*
X77664854Y94488363D01*
X77701140Y94633506D01*
X77701140Y94742363D01*
X77664854Y94887506D01*
X77628569Y94960077D01*
X77555997Y95032649D01*
X77447140Y95068934D01*
X77374569Y95068934D01*
X77265712Y95032649D01*
X77229426Y94996363D01*
X77229426Y94742363D01*
X77374569Y94742363D01*
X76902854Y95068934D02*
X76902854Y94306934D01*
X76467426Y95068934D01*
X76467426Y94306934D01*
X76104568Y95068934D02*
X76104568Y94306934D01*
X75923140Y94306934D01*
X75814283Y94343220D01*
X75741711Y94415791D01*
X75705426Y94488363D01*
X75669140Y94633506D01*
X75669140Y94742363D01*
X75705426Y94887506D01*
X75741711Y94960077D01*
X75814283Y95032649D01*
X75923140Y95068934D01*
X76104568Y95068934D01*
X90836568Y4363720D02*
X90763997Y4400006D01*
X90655140Y4400006D01*
X90546283Y4363720D01*
X90473711Y4291149D01*
X90437426Y4218577D01*
X90401140Y4073434D01*
X90401140Y3964577D01*
X90437426Y3819434D01*
X90473711Y3746863D01*
X90546283Y3674291D01*
X90655140Y3638006D01*
X90727711Y3638006D01*
X90836568Y3674291D01*
X90872854Y3710577D01*
X90872854Y3964577D01*
X90727711Y3964577D01*
X91199426Y3638006D02*
X91199426Y4400006D01*
X91634854Y3638006D01*
X91634854Y4400006D01*
X91997712Y3638006D02*
X91997712Y4400006D01*
X92179140Y4400006D01*
X92287997Y4363720D01*
X92360569Y4291149D01*
X92396854Y4218577D01*
X92433140Y4073434D01*
X92433140Y3964577D01*
X92396854Y3819434D01*
X92360569Y3746863D01*
X92287997Y3674291D01*
X92179140Y3638006D01*
X91997712Y3638006D01*
X103935712Y90215720D02*
X104008283Y90179434D01*
X104117140Y90179434D01*
X104225997Y90215720D01*
X104298569Y90288291D01*
X104334854Y90360863D01*
X104371140Y90506006D01*
X104371140Y90614863D01*
X104334854Y90760006D01*
X104298569Y90832577D01*
X104225997Y90905149D01*
X104117140Y90941434D01*
X104044569Y90941434D01*
X103935712Y90905149D01*
X103899426Y90868863D01*
X103899426Y90614863D01*
X104044569Y90614863D01*
X103572854Y90941434D02*
X103572854Y90179434D01*
X103137426Y90941434D01*
X103137426Y90179434D01*
X102774568Y90941434D02*
X102774568Y90179434D01*
X102593140Y90179434D01*
X102484283Y90215720D01*
X102411711Y90288291D01*
X102375426Y90360863D01*
X102339140Y90506006D01*
X102339140Y90614863D01*
X102375426Y90760006D01*
X102411711Y90832577D01*
X102484283Y90905149D01*
X102593140Y90941434D01*
X102774568Y90941434D01*
X93648712Y90215720D02*
X93721283Y90179434D01*
X93830140Y90179434D01*
X93938997Y90215720D01*
X94011569Y90288291D01*
X94047854Y90360863D01*
X94084140Y90506006D01*
X94084140Y90614863D01*
X94047854Y90760006D01*
X94011569Y90832577D01*
X93938997Y90905149D01*
X93830140Y90941434D01*
X93757569Y90941434D01*
X93648712Y90905149D01*
X93612426Y90868863D01*
X93612426Y90614863D01*
X93757569Y90614863D01*
X93285854Y90941434D02*
X93285854Y90179434D01*
X92850426Y90941434D01*
X92850426Y90179434D01*
X92487568Y90941434D02*
X92487568Y90179434D01*
X92306140Y90179434D01*
X92197283Y90215720D01*
X92124711Y90288291D01*
X92088426Y90360863D01*
X92052140Y90506006D01*
X92052140Y90614863D01*
X92088426Y90760006D01*
X92124711Y90832577D01*
X92197283Y90905149D01*
X92306140Y90941434D01*
X92487568Y90941434D01*
D11*
X109505569Y90324577D02*
X108344426Y90324577D01*
X108924997Y90905149D02*
X108924997Y89744006D01*
X106892998Y89381149D02*
X107618712Y89381149D01*
X107691283Y90106863D01*
X107618712Y90034291D01*
X107473569Y89961720D01*
X107110712Y89961720D01*
X106965569Y90034291D01*
X106892998Y90106863D01*
X106820426Y90252006D01*
X106820426Y90614863D01*
X106892998Y90760006D01*
X106965569Y90832577D01*
X107110712Y90905149D01*
X107473569Y90905149D01*
X107618712Y90832577D01*
X107691283Y90760006D01*
X106384997Y89381149D02*
X105876997Y90905149D01*
X105368997Y89381149D01*
X101323140Y90324577D02*
X100161997Y90324577D01*
X100742568Y90905149D02*
X100742568Y89744006D01*
X99581426Y89381149D02*
X98637997Y89381149D01*
X99145997Y89961720D01*
X98928283Y89961720D01*
X98783140Y90034291D01*
X98710569Y90106863D01*
X98637997Y90252006D01*
X98637997Y90614863D01*
X98710569Y90760006D01*
X98783140Y90832577D01*
X98928283Y90905149D01*
X99363711Y90905149D01*
X99508854Y90832577D01*
X99581426Y90760006D01*
X97984854Y90760006D02*
X97912282Y90832577D01*
X97984854Y90905149D01*
X98057425Y90832577D01*
X97984854Y90760006D01*
X97984854Y90905149D01*
X97404283Y89381149D02*
X96460854Y89381149D01*
X96968854Y89961720D01*
X96751140Y89961720D01*
X96605997Y90034291D01*
X96533426Y90106863D01*
X96460854Y90252006D01*
X96460854Y90614863D01*
X96533426Y90760006D01*
X96605997Y90832577D01*
X96751140Y90905149D01*
X97186568Y90905149D01*
X97331711Y90832577D01*
X97404283Y90760006D01*
X96025425Y89381149D02*
X95517425Y90905149D01*
X95009425Y89381149D01*
X102094212Y3293291D02*
X101368498Y3293291D01*
X101368498Y4817291D01*
X102602212Y3293291D02*
X102602212Y4309291D01*
X102602212Y4817291D02*
X102529641Y4744720D01*
X102602212Y4672149D01*
X102674784Y4744720D01*
X102602212Y4817291D01*
X102602212Y4672149D01*
X103981069Y4309291D02*
X103981069Y3075577D01*
X103908498Y2930434D01*
X103835926Y2857863D01*
X103690783Y2785291D01*
X103473069Y2785291D01*
X103327926Y2857863D01*
X103981069Y3365863D02*
X103835926Y3293291D01*
X103545640Y3293291D01*
X103400498Y3365863D01*
X103327926Y3438434D01*
X103255355Y3583577D01*
X103255355Y4019006D01*
X103327926Y4164149D01*
X103400498Y4236720D01*
X103545640Y4309291D01*
X103835926Y4309291D01*
X103981069Y4236720D01*
X104706783Y3293291D02*
X104706783Y4817291D01*
X105359926Y3293291D02*
X105359926Y4091577D01*
X105287355Y4236720D01*
X105142212Y4309291D01*
X104924497Y4309291D01*
X104779355Y4236720D01*
X104706783Y4164149D01*
X105867926Y4309291D02*
X106448497Y4309291D01*
X106085640Y4817291D02*
X106085640Y3511006D01*
X106158212Y3365863D01*
X106303354Y3293291D01*
X106448497Y3293291D01*
D13*
X87447120Y40058340D02*
X87447120Y15674340D01*
X87447120Y15674340D02*
X113863120Y15674340D01*
X113863120Y15674340D02*
X120390920Y23268940D01*
X120390920Y23268940D02*
X120390920Y32463740D01*
X120390920Y32463740D02*
X113863120Y40058340D01*
X113863120Y40058340D02*
X87447120Y40058340D01*
D14*
X117515940Y74246780D02*
G75*
G03X117515940Y74246780I-1155000J0D01*
G01*
X121250940Y82566780D02*
X121250940Y72916780D01*
X115030940Y82566780D02*
X115030940Y72916780D01*
X121250940Y82566780D02*
X115030940Y82566780D01*
X121250940Y72916780D02*
X115030940Y72916780D01*
X117094940Y73370780D02*
X115484940Y74981780D01*
X117235940Y73510780D02*
X115625940Y75122780D01*
X65402960Y-2752200D02*
X73402960Y-2752200D01*
X65402960Y4567800D02*
X73402960Y4567800D01*
X73402960Y4567800D02*
X73402960Y-2752200D01*
X73402960Y-2200D02*
X65402960Y-2200D01*
X65402960Y-2752200D02*
X65402960Y4567800D01*
D13*
X51820580Y10051040D02*
X51820580Y4051040D01*
X52919600Y7051040D02*
G75*
G03X52919600Y7051040I-5099020J0D01*
G01*
D14*
X107739280Y45022960D02*
X107739280Y45522960D01*
X106799280Y45522960D02*
X106799280Y45022960D01*
X111054000Y46482540D02*
X110124000Y46482540D01*
X107894000Y46482540D02*
X108824000Y46482540D01*
X107894000Y46482540D02*
X107894000Y44322540D01*
X111054000Y46482540D02*
X111054000Y45022540D01*
X71283860Y68927340D02*
X71283860Y67577340D01*
X73033860Y68927340D02*
X73033860Y67577340D01*
X114408140Y46791780D02*
X114908140Y46791780D01*
X114908140Y47731780D02*
X114408140Y47731780D01*
X115641020Y48062960D02*
X115641020Y47562960D01*
X116581020Y47562960D02*
X116581020Y48062960D01*
D13*
X70051060Y71402340D02*
X70051060Y70877340D01*
X63751060Y65102340D02*
X63751060Y65627340D01*
X70051060Y65102340D02*
X70051060Y65627340D01*
X63751060Y71402340D02*
X64276060Y71402340D01*
X63751060Y65102340D02*
X64276060Y65102340D01*
X70051060Y65102340D02*
X69526060Y65102340D01*
X70051060Y71402340D02*
X69526060Y71402340D01*
D14*
X69302440Y63274040D02*
X68802440Y63274040D01*
X68802440Y62334040D02*
X69302440Y62334040D01*
X30837060Y10121800D02*
X31337060Y10121800D01*
X31337060Y11061800D02*
X30837060Y11061800D01*
X19165380Y11061800D02*
X18665380Y11061800D01*
X18665380Y10121800D02*
X19165380Y10121800D01*
X62615988Y76707386D02*
X62365988Y76274374D01*
X63180052Y75804374D02*
X63430052Y76237386D01*
X65743434Y76558048D02*
X66176446Y76308048D01*
X66646446Y77122112D02*
X66213434Y77372112D01*
D13*
X40390580Y27831040D02*
X40390580Y21831040D01*
X41489600Y24831040D02*
G75*
G03X41489600Y24831040I-5099020J0D01*
G01*
X22610580Y27831040D02*
X22610580Y21831040D01*
X23709600Y24831040D02*
G75*
G03X23709600Y24831040I-5099020J0D01*
G01*
X31500580Y36721040D02*
X31500580Y30721040D01*
X32599600Y33721040D02*
G75*
G03X32599600Y33721040I-5099020J0D01*
G01*
X31500580Y18941040D02*
X31500580Y12941040D01*
X32599600Y15941040D02*
G75*
G03X32599600Y15941040I-5099020J0D01*
G01*
X103640140Y88821720D02*
X66240140Y88821720D01*
X66240140Y88821720D02*
X66240140Y9821720D01*
X66240140Y9821720D02*
X103640140Y9821720D01*
X103640140Y9821720D02*
X103640140Y88821720D01*
X97940140Y80321720D02*
X71940140Y80321720D01*
X71940140Y80321720D02*
X71940140Y18321720D01*
X71940140Y18321720D02*
X97940140Y18321720D01*
X97940140Y18321720D02*
X97940140Y80321720D01*
X100394740Y91213120D02*
X92294740Y91213120D01*
X92294740Y91213120D02*
X92294740Y98213120D01*
X92294740Y98213120D02*
X100394740Y98213120D01*
X100394740Y98213120D02*
X100394740Y91213120D01*
X109157740Y91213120D02*
X101057740Y91213120D01*
X101057740Y91213120D02*
X101057740Y98213120D01*
X101057740Y98213120D02*
X109157740Y98213120D01*
X109157740Y98213120D02*
X109157740Y91213120D01*
X67174140Y98357240D02*
X75274140Y98357240D01*
X75274140Y98357240D02*
X75274140Y91357240D01*
X75274140Y91357240D02*
X67174140Y91357240D01*
X67174140Y91357240D02*
X67174140Y98357240D01*
D14*
X66017411Y72551858D02*
X67667411Y75409742D01*
X67667411Y75409742D02*
X64203309Y77409742D01*
D13*
X100900200Y324300D02*
X92800200Y324300D01*
X92800200Y324300D02*
X92800200Y7324300D01*
X92800200Y7324300D02*
X100900200Y7324300D01*
X100900200Y7324300D02*
X100900200Y324300D01*
D14*
X32621220Y9668820D02*
X9701220Y9668820D01*
X9701220Y9668820D02*
X9701220Y4468820D01*
X9701220Y4468820D02*
X35221220Y4468820D01*
X35221220Y4468820D02*
X35221220Y7068820D01*
X35221220Y7068820D02*
X32621220Y7068820D01*
X32621220Y7068820D02*
X32621220Y9668820D01*
X33891220Y9668820D02*
X35221220Y9668820D01*
X35221220Y9668820D02*
X35221220Y8338820D01*
X60892500Y70121880D02*
X60392500Y70121880D01*
X60392500Y69181880D02*
X60892500Y69181880D01*
D13*
X117762115Y36757859D02*
X117762115Y35948335D01*
X117809734Y35853097D01*
X117857353Y35805478D01*
X117952591Y35757859D01*
X118143068Y35757859D01*
X118238306Y35805478D01*
X118285925Y35853097D01*
X118333544Y35948335D01*
X118333544Y36757859D01*
X118762115Y36662621D02*
X118809734Y36710240D01*
X118904972Y36757859D01*
X119143068Y36757859D01*
X119238306Y36710240D01*
X119285925Y36662621D01*
X119333544Y36567383D01*
X119333544Y36472145D01*
X119285925Y36329288D01*
X118714496Y35757859D01*
X119333544Y35757859D01*
X116094902Y82778339D02*
X115761568Y83254530D01*
X115523473Y82778339D02*
X115523473Y83778339D01*
X115904426Y83778339D01*
X115999664Y83730720D01*
X116047283Y83683101D01*
X116094902Y83587863D01*
X116094902Y83445006D01*
X116047283Y83349768D01*
X115999664Y83302149D01*
X115904426Y83254530D01*
X115523473Y83254530D01*
X116380616Y83778339D02*
X116713949Y82778339D01*
X117047283Y83778339D01*
X117904426Y82778339D02*
X117332997Y82778339D01*
X117618711Y82778339D02*
X117618711Y83778339D01*
X117523473Y83635482D01*
X117428235Y83540244D01*
X117332997Y83492625D01*
X64818521Y2016855D02*
X63818521Y2016855D01*
X64294711Y2016855D02*
X64294711Y2588284D01*
X64818521Y2588284D02*
X63818521Y2588284D01*
X63913759Y3016855D02*
X63866140Y3064474D01*
X63818521Y3159712D01*
X63818521Y3397808D01*
X63866140Y3493046D01*
X63913759Y3540665D01*
X64008997Y3588284D01*
X64104235Y3588284D01*
X64247092Y3540665D01*
X64818521Y2969236D01*
X64818521Y3588284D01*
X41249151Y6646279D02*
X41296770Y6789136D01*
X41344390Y6836755D01*
X41439628Y6884374D01*
X41582485Y6884374D01*
X41677723Y6836755D01*
X41725342Y6789136D01*
X41772961Y6693898D01*
X41772961Y6312945D01*
X40772961Y6312945D01*
X40772961Y6646279D01*
X40820580Y6741517D01*
X40868199Y6789136D01*
X40963437Y6836755D01*
X41058675Y6836755D01*
X41153913Y6789136D01*
X41201532Y6741517D01*
X41249151Y6646279D01*
X41249151Y6312945D01*
X41772961Y7836755D02*
X41772961Y7265326D01*
X41772961Y7551040D02*
X40772961Y7551040D01*
X40915818Y7455802D01*
X41011056Y7360564D01*
X41058675Y7265326D01*
X46648667Y71977713D02*
X46648667Y72453904D01*
X46934381Y71882475D02*
X45934381Y72215808D01*
X46934381Y72549142D01*
X46410571Y72882475D02*
X46410571Y73215809D01*
X46934381Y73358666D02*
X46934381Y72882475D01*
X45934381Y72882475D01*
X45934381Y73358666D01*
X46934381Y74311047D02*
X46934381Y73739618D01*
X46934381Y74025332D02*
X45934381Y74025332D01*
X46077238Y73930094D01*
X46172476Y73834856D01*
X46220095Y73739618D01*
X107744521Y43059054D02*
X107268330Y42725720D01*
X107744521Y42487625D02*
X106744521Y42487625D01*
X106744521Y42868578D01*
X106792140Y42963816D01*
X106839759Y43011435D01*
X106934997Y43059054D01*
X107077854Y43059054D01*
X107173092Y43011435D01*
X107220711Y42963816D01*
X107268330Y42868578D01*
X107268330Y42487625D01*
X106744521Y43963816D02*
X106744521Y43487625D01*
X107220711Y43440006D01*
X107173092Y43487625D01*
X107125473Y43582863D01*
X107125473Y43820959D01*
X107173092Y43916197D01*
X107220711Y43963816D01*
X107315950Y44011435D01*
X107554045Y44011435D01*
X107649283Y43963816D01*
X107696902Y43916197D01*
X107744521Y43820959D01*
X107744521Y43582863D01*
X107696902Y43487625D01*
X107649283Y43440006D01*
X109355902Y42678101D02*
X109260664Y42725720D01*
X109165426Y42820958D01*
X109022569Y42963815D01*
X108927330Y43011434D01*
X108832092Y43011434D01*
X108879711Y42773339D02*
X108784473Y42820958D01*
X108689235Y42916196D01*
X108641616Y43106672D01*
X108641616Y43440006D01*
X108689235Y43630482D01*
X108784473Y43725720D01*
X108879711Y43773339D01*
X109070188Y43773339D01*
X109165426Y43725720D01*
X109260664Y43630482D01*
X109308283Y43440006D01*
X109308283Y43106672D01*
X109260664Y42916196D01*
X109165426Y42820958D01*
X109070188Y42773339D01*
X108879711Y42773339D01*
X110260664Y42773339D02*
X109689235Y42773339D01*
X109974949Y42773339D02*
X109974949Y43773339D01*
X109879711Y43630482D01*
X109784473Y43535244D01*
X109689235Y43487625D01*
X74135050Y67776149D02*
X74611241Y67776149D01*
X73611241Y67442816D02*
X74135050Y67776149D01*
X73611241Y68109483D01*
X74611241Y68966626D02*
X74611241Y68395197D01*
X74611241Y68680911D02*
X73611241Y68680911D01*
X73754098Y68585673D01*
X73849336Y68490435D01*
X73896955Y68395197D01*
X114491474Y47916839D02*
X114158140Y48393030D01*
X113920045Y47916839D02*
X113920045Y48916839D01*
X114300998Y48916839D01*
X114396236Y48869220D01*
X114443855Y48821601D01*
X114491474Y48726363D01*
X114491474Y48583506D01*
X114443855Y48488268D01*
X114396236Y48440649D01*
X114300998Y48393030D01*
X113920045Y48393030D01*
X115348617Y48583506D02*
X115348617Y47916839D01*
X115110521Y48964458D02*
X114872426Y48250172D01*
X115491474Y48250172D01*
X116539283Y44614863D02*
X116586902Y44567244D01*
X116634521Y44424387D01*
X116634521Y44329149D01*
X116586902Y44186291D01*
X116491664Y44091053D01*
X116396426Y44043434D01*
X116205950Y43995815D01*
X116063092Y43995815D01*
X115872616Y44043434D01*
X115777378Y44091053D01*
X115682140Y44186291D01*
X115634521Y44329149D01*
X115634521Y44424387D01*
X115682140Y44567244D01*
X115729759Y44614863D01*
X115729759Y44995815D02*
X115682140Y45043434D01*
X115634521Y45138672D01*
X115634521Y45376768D01*
X115682140Y45472006D01*
X115729759Y45519625D01*
X115824997Y45567244D01*
X115920235Y45567244D01*
X116063092Y45519625D01*
X116634521Y44948196D01*
X116634521Y45567244D01*
X115634521Y46186291D02*
X115634521Y46281530D01*
X115682140Y46376768D01*
X115729759Y46424387D01*
X115824997Y46472006D01*
X116015473Y46519625D01*
X116253569Y46519625D01*
X116444045Y46472006D01*
X116539283Y46424387D01*
X116586902Y46376768D01*
X116634521Y46281530D01*
X116634521Y46186291D01*
X116586902Y46091053D01*
X116539283Y46043434D01*
X116444045Y45995815D01*
X116253569Y45948196D01*
X116015473Y45948196D01*
X115824997Y45995815D01*
X115729759Y46043434D01*
X115682140Y46091053D01*
X115634521Y46186291D01*
X62715235Y73364339D02*
X62715235Y72554815D01*
X62762854Y72459577D01*
X62810473Y72411958D01*
X62905711Y72364339D01*
X63096188Y72364339D01*
X63191426Y72411958D01*
X63239045Y72459577D01*
X63286664Y72554815D01*
X63286664Y73364339D01*
X64286664Y72364339D02*
X63715235Y72364339D01*
X64000949Y72364339D02*
X64000949Y73364339D01*
X63905711Y73221482D01*
X63810473Y73126244D01*
X63715235Y73078625D01*
X70041474Y63474339D02*
X69565283Y63474339D01*
X69565283Y64474339D01*
X70279569Y64474339D02*
X70898617Y64474339D01*
X70565283Y64093387D01*
X70708141Y64093387D01*
X70803379Y64045768D01*
X70850998Y63998149D01*
X70898617Y63902910D01*
X70898617Y63664815D01*
X70850998Y63569577D01*
X70803379Y63521958D01*
X70708141Y63474339D01*
X70422426Y63474339D01*
X70327188Y63521958D01*
X70279569Y63569577D01*
X30928014Y11513559D02*
X30594680Y11989750D01*
X30356585Y11513559D02*
X30356585Y12513559D01*
X30737538Y12513559D01*
X30832776Y12465940D01*
X30880395Y12418321D01*
X30928014Y12323083D01*
X30928014Y12180226D01*
X30880395Y12084988D01*
X30832776Y12037369D01*
X30737538Y11989750D01*
X30356585Y11989750D01*
X31261347Y12513559D02*
X31880395Y12513559D01*
X31547061Y12132607D01*
X31689919Y12132607D01*
X31785157Y12084988D01*
X31832776Y12037369D01*
X31880395Y11942130D01*
X31880395Y11704035D01*
X31832776Y11608797D01*
X31785157Y11561178D01*
X31689919Y11513559D01*
X31404204Y11513559D01*
X31308966Y11561178D01*
X31261347Y11608797D01*
X18748714Y11409419D02*
X18415380Y11885610D01*
X18177285Y11409419D02*
X18177285Y12409419D01*
X18558238Y12409419D01*
X18653476Y12361800D01*
X18701095Y12314181D01*
X18748714Y12218943D01*
X18748714Y12076086D01*
X18701095Y11980848D01*
X18653476Y11933229D01*
X18558238Y11885610D01*
X18177285Y11885610D01*
X19129666Y12314181D02*
X19177285Y12361800D01*
X19272523Y12409419D01*
X19510619Y12409419D01*
X19605857Y12361800D01*
X19653476Y12314181D01*
X19701095Y12218943D01*
X19701095Y12123705D01*
X19653476Y11980848D01*
X19082047Y11409419D01*
X19701095Y11409419D01*
X62024130Y76567972D02*
X62041560Y76502923D01*
X62011370Y76355395D01*
X61963751Y76272917D01*
X61851083Y76173008D01*
X61720986Y76138148D01*
X61614698Y76144528D01*
X61425931Y76198527D01*
X61302212Y76269956D01*
X61161065Y76406433D01*
X61102396Y76495291D01*
X61067536Y76625389D01*
X61097726Y76772917D01*
X61145345Y76855395D01*
X61258013Y76955304D01*
X61323062Y76972734D01*
X62344703Y76932745D02*
X62439941Y77097702D01*
X62446322Y77203991D01*
X62428892Y77269040D01*
X62352793Y77422947D01*
X62211646Y77559424D01*
X61881731Y77749901D01*
X61775443Y77756280D01*
X61710394Y77738851D01*
X61621536Y77680182D01*
X61526297Y77515224D01*
X61519917Y77408936D01*
X61537347Y77343887D01*
X61596016Y77255029D01*
X61802212Y77135981D01*
X61908500Y77129601D01*
X61973550Y77147031D01*
X62062408Y77205700D01*
X62157647Y77370658D01*
X62164027Y77476946D01*
X62146596Y77541995D01*
X62087927Y77630853D01*
X66462357Y77708433D02*
X66397308Y77691003D01*
X66249780Y77721193D01*
X66167302Y77768812D01*
X66067393Y77881480D01*
X66032533Y78011577D01*
X66038913Y78117865D01*
X66092912Y78306632D01*
X66164341Y78430351D01*
X66300818Y78571498D01*
X66389676Y78630167D01*
X66519774Y78665027D01*
X66667302Y78634837D01*
X66749780Y78587218D01*
X66849689Y78474550D01*
X66867119Y78409501D01*
X67195323Y77835113D02*
X67136654Y77923971D01*
X67119224Y77989020D01*
X67125604Y78095308D01*
X67149414Y78136547D01*
X67238272Y78195216D01*
X67303321Y78212646D01*
X67409609Y78206266D01*
X67574567Y78111027D01*
X67633236Y78022169D01*
X67650665Y77957120D01*
X67644286Y77850832D01*
X67620476Y77809593D01*
X67531618Y77750924D01*
X67466569Y77733494D01*
X67360281Y77739874D01*
X67195323Y77835113D01*
X67089035Y77841492D01*
X67023986Y77824063D01*
X66935128Y77765393D01*
X66839890Y77600436D01*
X66833510Y77494148D01*
X66850940Y77429099D01*
X66909609Y77340241D01*
X67074567Y77245002D01*
X67180855Y77238622D01*
X67245903Y77256052D01*
X67334762Y77314721D01*
X67430000Y77479678D01*
X67436380Y77585967D01*
X67418950Y77651016D01*
X67360281Y77739874D01*
X29814211Y24405959D02*
X29861830Y24548816D01*
X29909450Y24596435D01*
X30004688Y24644054D01*
X30147545Y24644054D01*
X30242783Y24596435D01*
X30290402Y24548816D01*
X30338021Y24453578D01*
X30338021Y24072625D01*
X29338021Y24072625D01*
X29338021Y24405959D01*
X29385640Y24501197D01*
X29433259Y24548816D01*
X29528497Y24596435D01*
X29623735Y24596435D01*
X29718973Y24548816D01*
X29766592Y24501197D01*
X29814211Y24405959D01*
X29814211Y24072625D01*
X29433259Y25025006D02*
X29385640Y25072625D01*
X29338021Y25167863D01*
X29338021Y25405959D01*
X29385640Y25501197D01*
X29433259Y25548816D01*
X29528497Y25596435D01*
X29623735Y25596435D01*
X29766592Y25548816D01*
X30338021Y24977387D01*
X30338021Y25596435D01*
X25028851Y24461839D02*
X25076470Y24604696D01*
X25124090Y24652315D01*
X25219328Y24699934D01*
X25362185Y24699934D01*
X25457423Y24652315D01*
X25505042Y24604696D01*
X25552661Y24509458D01*
X25552661Y24128505D01*
X24552661Y24128505D01*
X24552661Y24461839D01*
X24600280Y24557077D01*
X24647899Y24604696D01*
X24743137Y24652315D01*
X24838375Y24652315D01*
X24933613Y24604696D01*
X24981232Y24557077D01*
X25028851Y24461839D01*
X25028851Y24128505D01*
X24552661Y25033267D02*
X24552661Y25652315D01*
X24933613Y25318981D01*
X24933613Y25461839D01*
X24981232Y25557077D01*
X25028851Y25604696D01*
X25124090Y25652315D01*
X25362185Y25652315D01*
X25457423Y25604696D01*
X25505042Y25557077D01*
X25552661Y25461839D01*
X25552661Y25176124D01*
X25505042Y25080886D01*
X25457423Y25033267D01*
X33969651Y33275639D02*
X34017270Y33418496D01*
X34064890Y33466115D01*
X34160128Y33513734D01*
X34302985Y33513734D01*
X34398223Y33466115D01*
X34445842Y33418496D01*
X34493461Y33323258D01*
X34493461Y32942305D01*
X33493461Y32942305D01*
X33493461Y33275639D01*
X33541080Y33370877D01*
X33588699Y33418496D01*
X33683937Y33466115D01*
X33779175Y33466115D01*
X33874413Y33418496D01*
X33922032Y33370877D01*
X33969651Y33275639D01*
X33969651Y32942305D01*
X33826794Y34370877D02*
X34493461Y34370877D01*
X33445842Y34132781D02*
X34160128Y33894686D01*
X34160128Y34513734D01*
X20929151Y15536279D02*
X20976770Y15679136D01*
X21024390Y15726755D01*
X21119628Y15774374D01*
X21262485Y15774374D01*
X21357723Y15726755D01*
X21405342Y15679136D01*
X21452961Y15583898D01*
X21452961Y15202945D01*
X20452961Y15202945D01*
X20452961Y15536279D01*
X20500580Y15631517D01*
X20548199Y15679136D01*
X20643437Y15726755D01*
X20738675Y15726755D01*
X20833913Y15679136D01*
X20881532Y15631517D01*
X20929151Y15536279D01*
X20929151Y15202945D01*
X20452961Y16679136D02*
X20452961Y16202945D01*
X20929151Y16155326D01*
X20881532Y16202945D01*
X20833913Y16298183D01*
X20833913Y16536279D01*
X20881532Y16631517D01*
X20929151Y16679136D01*
X21024390Y16726755D01*
X21262485Y16726755D01*
X21357723Y16679136D01*
X21405342Y16631517D01*
X21452961Y16536279D01*
X21452961Y16298183D01*
X21405342Y16202945D01*
X21357723Y16155326D01*
X111157854Y94335339D02*
X111157854Y95335339D01*
X111395949Y95335339D01*
X111538807Y95287720D01*
X111634045Y95192482D01*
X111681664Y95097244D01*
X111729283Y94906768D01*
X111729283Y94763910D01*
X111681664Y94573434D01*
X111634045Y94478196D01*
X111538807Y94382958D01*
X111395949Y94335339D01*
X111157854Y94335339D01*
X112110235Y94382958D02*
X112253092Y94335339D01*
X112491188Y94335339D01*
X112586426Y94382958D01*
X112634045Y94430577D01*
X112681664Y94525815D01*
X112681664Y94621053D01*
X112634045Y94716291D01*
X112586426Y94763910D01*
X112491188Y94811530D01*
X112300711Y94859149D01*
X112205473Y94906768D01*
X112157854Y94954387D01*
X112110235Y95049625D01*
X112110235Y95144863D01*
X112157854Y95240101D01*
X112205473Y95287720D01*
X112300711Y95335339D01*
X112538807Y95335339D01*
X112681664Y95287720D01*
X113634045Y94335339D02*
X113062616Y94335339D01*
X113348330Y94335339D02*
X113348330Y95335339D01*
X113253092Y95192482D01*
X113157854Y95097244D01*
X113062616Y95049625D01*
X95606645Y96760739D02*
X95606645Y97760739D01*
X95987598Y97760739D01*
X96082836Y97713120D01*
X96130455Y97665501D01*
X96178074Y97570263D01*
X96178074Y97427406D01*
X96130455Y97332168D01*
X96082836Y97284549D01*
X95987598Y97236930D01*
X95606645Y97236930D01*
X97130455Y96760739D02*
X96559026Y96760739D01*
X96844740Y96760739D02*
X96844740Y97760739D01*
X96749502Y97617882D01*
X96654264Y97522644D01*
X96559026Y97475025D01*
X104369645Y96760739D02*
X104369645Y97760739D01*
X104750598Y97760739D01*
X104845836Y97713120D01*
X104893455Y97665501D01*
X104941074Y97570263D01*
X104941074Y97427406D01*
X104893455Y97332168D01*
X104845836Y97284549D01*
X104750598Y97236930D01*
X104369645Y97236930D01*
X105322026Y97665501D02*
X105369645Y97713120D01*
X105464883Y97760739D01*
X105702979Y97760739D01*
X105798217Y97713120D01*
X105845836Y97665501D01*
X105893455Y97570263D01*
X105893455Y97475025D01*
X105845836Y97332168D01*
X105274407Y96760739D01*
X105893455Y96760739D01*
X70486045Y91904859D02*
X70486045Y92904859D01*
X70866998Y92904859D01*
X70962236Y92857240D01*
X71009855Y92809621D01*
X71057474Y92714383D01*
X71057474Y92571526D01*
X71009855Y92476288D01*
X70962236Y92428669D01*
X70866998Y92381050D01*
X70486045Y92381050D01*
X71390807Y92904859D02*
X72009855Y92904859D01*
X71676521Y92523907D01*
X71819379Y92523907D01*
X71914617Y92476288D01*
X71962236Y92428669D01*
X72009855Y92333430D01*
X72009855Y92095335D01*
X71962236Y92000097D01*
X71914617Y91952478D01*
X71819379Y91904859D01*
X71533664Y91904859D01*
X71438426Y91952478D01*
X71390807Y92000097D01*
X63484871Y73117754D02*
X63246776Y72705360D01*
X63458101Y73738052D02*
X63484871Y73117754D01*
X64035452Y73404718D01*
X64235268Y73179383D02*
X64300317Y73196813D01*
X64406605Y73190433D01*
X64612802Y73071385D01*
X64671471Y72982527D01*
X64688901Y72917478D01*
X64682521Y72811190D01*
X64634902Y72728711D01*
X64522235Y72628803D01*
X63741648Y72419646D01*
X64277759Y72110122D01*
X96112105Y5871919D02*
X96112105Y6871919D01*
X96493058Y6871919D01*
X96588296Y6824300D01*
X96635915Y6776681D01*
X96683534Y6681443D01*
X96683534Y6538586D01*
X96635915Y6443348D01*
X96588296Y6395729D01*
X96493058Y6348110D01*
X96112105Y6348110D01*
X97540677Y6538586D02*
X97540677Y5871919D01*
X97302581Y6919538D02*
X97064486Y6205252D01*
X97683534Y6205252D01*
X35854735Y4508239D02*
X35854735Y5508239D01*
X35854735Y5032049D02*
X36426164Y5032049D01*
X36426164Y4508239D02*
X36426164Y5508239D01*
X37426164Y4508239D02*
X36854735Y4508239D01*
X37140449Y4508239D02*
X37140449Y5508239D01*
X37045211Y5365382D01*
X36949973Y5270144D01*
X36854735Y5222525D01*
X60475834Y70564737D02*
X60428215Y70517118D01*
X60285358Y70469499D01*
X60190120Y70469499D01*
X60047262Y70517118D01*
X59952024Y70612356D01*
X59904405Y70707594D01*
X59856786Y70898070D01*
X59856786Y71040928D01*
X59904405Y71231404D01*
X59952024Y71326642D01*
X60047262Y71421880D01*
X60190120Y71469499D01*
X60285358Y71469499D01*
X60428215Y71421880D01*
X60475834Y71374261D01*
X60809167Y71469499D02*
X61475834Y71469499D01*
X61047262Y70469499D01*
M02*
