G04 #@! TF.FileFunction,Legend,Bot*
%FSLAX46Y46*%
G04 Gerber Fmt 4.6, Leading zero omitted, Abs format (unit mm)*
G04 Created by KiCad (PCBNEW 4.0.5) date 04/12/17 17:38:15*
%MOMM*%
%LPD*%
G01*
G04 APERTURE LIST*
%ADD10C,0.025400*%
%ADD11C,0.120000*%
%ADD12C,0.076200*%
G04 APERTURE END LIST*
D10*
D11*
X17074960Y67167660D02*
X16574960Y67167660D01*
X16574960Y68107660D02*
X17074960Y68107660D01*
X23213160Y63587440D02*
X23213160Y63087440D01*
X22273160Y63087440D02*
X22273160Y63587440D01*
X16393600Y76042500D02*
X20893600Y76042500D01*
X20893600Y76042500D02*
X20893600Y70642500D01*
X26979980Y66340800D02*
X26979980Y65840800D01*
X26039980Y65840800D02*
X26039980Y66340800D01*
X25708800Y68508980D02*
X26208800Y68508980D01*
X26208800Y67568980D02*
X25708800Y67568980D01*
X20873620Y73242360D02*
X20873620Y73742360D01*
X21813620Y73742360D02*
X21813620Y73242360D01*
X18893600Y69669560D02*
X18393600Y69669560D01*
X18393600Y70609560D02*
X18893600Y70609560D01*
X18268760Y68277640D02*
X17768760Y68277640D01*
X17768760Y69217640D02*
X18268760Y69217640D01*
X25760780Y63892240D02*
X25760780Y63392240D01*
X24820780Y63392240D02*
X24820780Y63892240D01*
X22273160Y69932740D02*
X22273160Y70432740D01*
X23213160Y70432740D02*
X23213160Y69932740D01*
X22413060Y63587440D02*
X22413060Y63087440D01*
X21473060Y63087440D02*
X21473060Y63587440D01*
X24108600Y66510000D02*
X24608600Y66510000D01*
X24608600Y65570000D02*
X24108600Y65570000D01*
X69714300Y44094500D02*
X70214300Y44094500D01*
X70214300Y43154500D02*
X69714300Y43154500D01*
X69714300Y44894600D02*
X70214300Y44894600D01*
X70214300Y43954600D02*
X69714300Y43954600D01*
X69714300Y45694700D02*
X70214300Y45694700D01*
X70214300Y44754700D02*
X69714300Y44754700D01*
X14830500Y72790800D02*
X14830500Y72090800D01*
X16030500Y72090800D02*
X16030500Y72790800D01*
X24863160Y62341380D02*
X24863160Y61341380D01*
X23163160Y61341380D02*
X23163160Y62341380D01*
D12*
X17151532Y66592631D02*
X17175722Y66568441D01*
X17248294Y66544250D01*
X17296675Y66544250D01*
X17369246Y66568441D01*
X17417627Y66616822D01*
X17441818Y66665203D01*
X17466008Y66761965D01*
X17466008Y66834536D01*
X17441818Y66931298D01*
X17417627Y66979679D01*
X17369246Y67028060D01*
X17296675Y67052250D01*
X17248294Y67052250D01*
X17175722Y67028060D01*
X17151532Y67003870D01*
X16667722Y66544250D02*
X16958008Y66544250D01*
X16812865Y66544250D02*
X16812865Y67052250D01*
X16861246Y66979679D01*
X16909627Y66931298D01*
X16958008Y66907108D01*
X16353246Y67052250D02*
X16304865Y67052250D01*
X16256484Y67028060D01*
X16232293Y67003870D01*
X16208103Y66955489D01*
X16183912Y66858727D01*
X16183912Y66737774D01*
X16208103Y66641012D01*
X16232293Y66592631D01*
X16256484Y66568441D01*
X16304865Y66544250D01*
X16353246Y66544250D01*
X16401627Y66568441D01*
X16425817Y66592631D01*
X16450008Y66641012D01*
X16474198Y66737774D01*
X16474198Y66858727D01*
X16450008Y66955489D01*
X16425817Y67003870D01*
X16401627Y67028060D01*
X16353246Y67052250D01*
X22924589Y61949512D02*
X22948779Y61973702D01*
X22972970Y62046274D01*
X22972970Y62094655D01*
X22948779Y62167226D01*
X22900398Y62215607D01*
X22852017Y62239798D01*
X22755255Y62263988D01*
X22682684Y62263988D01*
X22585922Y62239798D01*
X22537541Y62215607D01*
X22489160Y62167226D01*
X22464970Y62094655D01*
X22464970Y62046274D01*
X22489160Y61973702D01*
X22513350Y61949512D01*
X22972970Y61465702D02*
X22972970Y61755988D01*
X22972970Y61610845D02*
X22464970Y61610845D01*
X22537541Y61659226D01*
X22585922Y61707607D01*
X22610112Y61755988D01*
X22464970Y61296369D02*
X22464970Y60957702D01*
X22972970Y61175416D01*
X18872805Y76402595D02*
X18872805Y76160690D01*
X19042138Y76668690D02*
X18872805Y76402595D01*
X18703471Y76668690D01*
X18558328Y76620310D02*
X18534138Y76644500D01*
X18485757Y76668690D01*
X18364804Y76668690D01*
X18316423Y76644500D01*
X18292233Y76620310D01*
X18268042Y76571929D01*
X18268042Y76523548D01*
X18292233Y76450976D01*
X18582519Y76160690D01*
X18268042Y76160690D01*
X25980209Y66188167D02*
X26004399Y66212357D01*
X26028590Y66284929D01*
X26028590Y66333310D01*
X26004399Y66405881D01*
X25956018Y66454262D01*
X25907637Y66478453D01*
X25810875Y66502643D01*
X25738304Y66502643D01*
X25641542Y66478453D01*
X25593161Y66454262D01*
X25544780Y66405881D01*
X25520590Y66333310D01*
X25520590Y66284929D01*
X25544780Y66212357D01*
X25568970Y66188167D01*
X25520590Y65752738D02*
X25520590Y65849500D01*
X25544780Y65897881D01*
X25568970Y65922072D01*
X25641542Y65970453D01*
X25738304Y65994643D01*
X25931828Y65994643D01*
X25980209Y65970453D01*
X26004399Y65946262D01*
X26028590Y65897881D01*
X26028590Y65801119D01*
X26004399Y65752738D01*
X25980209Y65728548D01*
X25931828Y65704357D01*
X25810875Y65704357D01*
X25762494Y65728548D01*
X25738304Y65752738D01*
X25714113Y65801119D01*
X25714113Y65897881D01*
X25738304Y65946262D01*
X25762494Y65970453D01*
X25810875Y65994643D01*
X26030767Y68568751D02*
X26054957Y68544561D01*
X26127529Y68520370D01*
X26175910Y68520370D01*
X26248481Y68544561D01*
X26296862Y68592942D01*
X26321053Y68641323D01*
X26345243Y68738085D01*
X26345243Y68810656D01*
X26321053Y68907418D01*
X26296862Y68955799D01*
X26248481Y69004180D01*
X26175910Y69028370D01*
X26127529Y69028370D01*
X26054957Y69004180D01*
X26030767Y68979990D01*
X25861434Y69028370D02*
X25522767Y69028370D01*
X25740481Y68520370D01*
X22393729Y73592267D02*
X22417919Y73616457D01*
X22442110Y73689029D01*
X22442110Y73737410D01*
X22417919Y73809981D01*
X22369538Y73858362D01*
X22321157Y73882553D01*
X22224395Y73906743D01*
X22151824Y73906743D01*
X22055062Y73882553D01*
X22006681Y73858362D01*
X21958300Y73809981D01*
X21934110Y73737410D01*
X21934110Y73689029D01*
X21958300Y73616457D01*
X21982490Y73592267D01*
X22151824Y73301981D02*
X22127633Y73350362D01*
X22103443Y73374553D01*
X22055062Y73398743D01*
X22030871Y73398743D01*
X21982490Y73374553D01*
X21958300Y73350362D01*
X21934110Y73301981D01*
X21934110Y73205219D01*
X21958300Y73156838D01*
X21982490Y73132648D01*
X22030871Y73108457D01*
X22055062Y73108457D01*
X22103443Y73132648D01*
X22127633Y73156838D01*
X22151824Y73205219D01*
X22151824Y73301981D01*
X22176014Y73350362D01*
X22200205Y73374553D01*
X22248586Y73398743D01*
X22345348Y73398743D01*
X22393729Y73374553D01*
X22417919Y73350362D01*
X22442110Y73301981D01*
X22442110Y73205219D01*
X22417919Y73156838D01*
X22393729Y73132648D01*
X22345348Y73108457D01*
X22248586Y73108457D01*
X22200205Y73132648D01*
X22176014Y73156838D01*
X22151824Y73205219D01*
X20201467Y69983531D02*
X20225657Y69959341D01*
X20298229Y69935150D01*
X20346610Y69935150D01*
X20419181Y69959341D01*
X20467562Y70007722D01*
X20491753Y70056103D01*
X20515943Y70152865D01*
X20515943Y70225436D01*
X20491753Y70322198D01*
X20467562Y70370579D01*
X20419181Y70418960D01*
X20346610Y70443150D01*
X20298229Y70443150D01*
X20225657Y70418960D01*
X20201467Y70394770D01*
X19959562Y69935150D02*
X19862800Y69935150D01*
X19814419Y69959341D01*
X19790229Y69983531D01*
X19741848Y70056103D01*
X19717657Y70152865D01*
X19717657Y70346389D01*
X19741848Y70394770D01*
X19766038Y70418960D01*
X19814419Y70443150D01*
X19911181Y70443150D01*
X19959562Y70418960D01*
X19983753Y70394770D01*
X20007943Y70346389D01*
X20007943Y70225436D01*
X19983753Y70177055D01*
X19959562Y70152865D01*
X19911181Y70128674D01*
X19814419Y70128674D01*
X19766038Y70152865D01*
X19741848Y70177055D01*
X19717657Y70225436D01*
X16630832Y68540811D02*
X16655022Y68516621D01*
X16727594Y68492430D01*
X16775975Y68492430D01*
X16848546Y68516621D01*
X16896927Y68565002D01*
X16921118Y68613383D01*
X16945308Y68710145D01*
X16945308Y68782716D01*
X16921118Y68879478D01*
X16896927Y68927859D01*
X16848546Y68976240D01*
X16775975Y69000430D01*
X16727594Y69000430D01*
X16655022Y68976240D01*
X16630832Y68952050D01*
X16147022Y68492430D02*
X16437308Y68492430D01*
X16292165Y68492430D02*
X16292165Y69000430D01*
X16340546Y68927859D01*
X16388927Y68879478D01*
X16437308Y68855288D01*
X15977689Y69000430D02*
X15663212Y69000430D01*
X15832546Y68806907D01*
X15759974Y68806907D01*
X15711593Y68782716D01*
X15687403Y68758526D01*
X15663212Y68710145D01*
X15663212Y68589192D01*
X15687403Y68540811D01*
X15711593Y68516621D01*
X15759974Y68492430D01*
X15905117Y68492430D01*
X15953498Y68516621D01*
X15977689Y68540811D01*
X26246909Y64286312D02*
X26271099Y64310502D01*
X26295290Y64383074D01*
X26295290Y64431455D01*
X26271099Y64504026D01*
X26222718Y64552407D01*
X26174337Y64576598D01*
X26077575Y64600788D01*
X26005004Y64600788D01*
X25908242Y64576598D01*
X25859861Y64552407D01*
X25811480Y64504026D01*
X25787290Y64431455D01*
X25787290Y64383074D01*
X25811480Y64310502D01*
X25835670Y64286312D01*
X26295290Y63802502D02*
X26295290Y64092788D01*
X26295290Y63947645D02*
X25787290Y63947645D01*
X25859861Y63996026D01*
X25908242Y64044407D01*
X25932432Y64092788D01*
X25956623Y63367073D02*
X26295290Y63367073D01*
X25763099Y63488026D02*
X26125956Y63608978D01*
X26125956Y63294502D01*
X22099089Y70509312D02*
X22123279Y70533502D01*
X22147470Y70606074D01*
X22147470Y70654455D01*
X22123279Y70727026D01*
X22074898Y70775407D01*
X22026517Y70799598D01*
X21929755Y70823788D01*
X21857184Y70823788D01*
X21760422Y70799598D01*
X21712041Y70775407D01*
X21663660Y70727026D01*
X21639470Y70654455D01*
X21639470Y70606074D01*
X21663660Y70533502D01*
X21687850Y70509312D01*
X22147470Y70025502D02*
X22147470Y70315788D01*
X22147470Y70170645D02*
X21639470Y70170645D01*
X21712041Y70219026D01*
X21760422Y70267407D01*
X21784612Y70315788D01*
X21639470Y69565883D02*
X21639470Y69807788D01*
X21881374Y69831978D01*
X21857184Y69807788D01*
X21832993Y69759407D01*
X21832993Y69638454D01*
X21857184Y69590073D01*
X21881374Y69565883D01*
X21929755Y69541692D01*
X22050708Y69541692D01*
X22099089Y69565883D01*
X22123279Y69590073D01*
X22147470Y69638454D01*
X22147470Y69759407D01*
X22123279Y69807788D01*
X22099089Y69831978D01*
X22124489Y61949512D02*
X22148679Y61973702D01*
X22172870Y62046274D01*
X22172870Y62094655D01*
X22148679Y62167226D01*
X22100298Y62215607D01*
X22051917Y62239798D01*
X21955155Y62263988D01*
X21882584Y62263988D01*
X21785822Y62239798D01*
X21737441Y62215607D01*
X21689060Y62167226D01*
X21664870Y62094655D01*
X21664870Y62046274D01*
X21689060Y61973702D01*
X21713250Y61949512D01*
X22172870Y61465702D02*
X22172870Y61755988D01*
X22172870Y61610845D02*
X21664870Y61610845D01*
X21737441Y61659226D01*
X21785822Y61707607D01*
X21810012Y61755988D01*
X21664870Y61030273D02*
X21664870Y61127035D01*
X21689060Y61175416D01*
X21713250Y61199607D01*
X21785822Y61247988D01*
X21882584Y61272178D01*
X22076108Y61272178D01*
X22124489Y61247988D01*
X22148679Y61223797D01*
X22172870Y61175416D01*
X22172870Y61078654D01*
X22148679Y61030273D01*
X22124489Y61006083D01*
X22076108Y60981892D01*
X21955155Y60981892D01*
X21906774Y61006083D01*
X21882584Y61030273D01*
X21858393Y61078654D01*
X21858393Y61175416D01*
X21882584Y61223797D01*
X21906774Y61247988D01*
X21955155Y61272178D01*
X24685172Y66684071D02*
X24709362Y66659881D01*
X24781934Y66635690D01*
X24830315Y66635690D01*
X24902886Y66659881D01*
X24951267Y66708262D01*
X24975458Y66756643D01*
X24999648Y66853405D01*
X24999648Y66925976D01*
X24975458Y67022738D01*
X24951267Y67071119D01*
X24902886Y67119500D01*
X24830315Y67143690D01*
X24781934Y67143690D01*
X24709362Y67119500D01*
X24685172Y67095310D01*
X24201362Y66635690D02*
X24491648Y66635690D01*
X24346505Y66635690D02*
X24346505Y67143690D01*
X24394886Y67071119D01*
X24443267Y67022738D01*
X24491648Y66998548D01*
X23911076Y66925976D02*
X23959457Y66950167D01*
X23983648Y66974357D01*
X24007838Y67022738D01*
X24007838Y67046929D01*
X23983648Y67095310D01*
X23959457Y67119500D01*
X23911076Y67143690D01*
X23814314Y67143690D01*
X23765933Y67119500D01*
X23741743Y67095310D01*
X23717552Y67046929D01*
X23717552Y67022738D01*
X23741743Y66974357D01*
X23765933Y66950167D01*
X23814314Y66925976D01*
X23911076Y66925976D01*
X23959457Y66901786D01*
X23983648Y66877595D01*
X24007838Y66829214D01*
X24007838Y66732452D01*
X23983648Y66684071D01*
X23959457Y66659881D01*
X23911076Y66635690D01*
X23814314Y66635690D01*
X23765933Y66659881D01*
X23741743Y66684071D01*
X23717552Y66732452D01*
X23717552Y66829214D01*
X23741743Y66877595D01*
X23765933Y66901786D01*
X23814314Y66925976D01*
X68512872Y43443071D02*
X68537062Y43418881D01*
X68609634Y43394690D01*
X68658015Y43394690D01*
X68730586Y43418881D01*
X68778967Y43467262D01*
X68803158Y43515643D01*
X68827348Y43612405D01*
X68827348Y43684976D01*
X68803158Y43781738D01*
X68778967Y43830119D01*
X68730586Y43878500D01*
X68658015Y43902690D01*
X68609634Y43902690D01*
X68537062Y43878500D01*
X68512872Y43854310D01*
X68319348Y43854310D02*
X68295158Y43878500D01*
X68246777Y43902690D01*
X68125824Y43902690D01*
X68077443Y43878500D01*
X68053253Y43854310D01*
X68029062Y43805929D01*
X68029062Y43757548D01*
X68053253Y43684976D01*
X68343539Y43394690D01*
X68029062Y43394690D01*
X67714586Y43902690D02*
X67666205Y43902690D01*
X67617824Y43878500D01*
X67593633Y43854310D01*
X67569443Y43805929D01*
X67545252Y43709167D01*
X67545252Y43588214D01*
X67569443Y43491452D01*
X67593633Y43443071D01*
X67617824Y43418881D01*
X67666205Y43394690D01*
X67714586Y43394690D01*
X67762967Y43418881D01*
X67787157Y43443071D01*
X67811348Y43491452D01*
X67835538Y43588214D01*
X67835538Y43709167D01*
X67811348Y43805929D01*
X67787157Y43854310D01*
X67762967Y43878500D01*
X67714586Y43902690D01*
X68512872Y44243171D02*
X68537062Y44218981D01*
X68609634Y44194790D01*
X68658015Y44194790D01*
X68730586Y44218981D01*
X68778967Y44267362D01*
X68803158Y44315743D01*
X68827348Y44412505D01*
X68827348Y44485076D01*
X68803158Y44581838D01*
X68778967Y44630219D01*
X68730586Y44678600D01*
X68658015Y44702790D01*
X68609634Y44702790D01*
X68537062Y44678600D01*
X68512872Y44654410D01*
X68319348Y44654410D02*
X68295158Y44678600D01*
X68246777Y44702790D01*
X68125824Y44702790D01*
X68077443Y44678600D01*
X68053253Y44654410D01*
X68029062Y44606029D01*
X68029062Y44557648D01*
X68053253Y44485076D01*
X68343539Y44194790D01*
X68029062Y44194790D01*
X67545252Y44194790D02*
X67835538Y44194790D01*
X67690395Y44194790D02*
X67690395Y44702790D01*
X67738776Y44630219D01*
X67787157Y44581838D01*
X67835538Y44557648D01*
X68512872Y45043271D02*
X68537062Y45019081D01*
X68609634Y44994890D01*
X68658015Y44994890D01*
X68730586Y45019081D01*
X68778967Y45067462D01*
X68803158Y45115843D01*
X68827348Y45212605D01*
X68827348Y45285176D01*
X68803158Y45381938D01*
X68778967Y45430319D01*
X68730586Y45478700D01*
X68658015Y45502890D01*
X68609634Y45502890D01*
X68537062Y45478700D01*
X68512872Y45454510D01*
X68319348Y45454510D02*
X68295158Y45478700D01*
X68246777Y45502890D01*
X68125824Y45502890D01*
X68077443Y45478700D01*
X68053253Y45454510D01*
X68029062Y45406129D01*
X68029062Y45357748D01*
X68053253Y45285176D01*
X68343539Y44994890D01*
X68029062Y44994890D01*
X67835538Y45454510D02*
X67811348Y45478700D01*
X67762967Y45502890D01*
X67642014Y45502890D01*
X67593633Y45478700D01*
X67569443Y45454510D01*
X67545252Y45406129D01*
X67545252Y45357748D01*
X67569443Y45285176D01*
X67859729Y44994890D01*
X67545252Y44994890D01*
X15419614Y75353333D02*
X15419614Y75522667D01*
X15685710Y75522667D02*
X15177710Y75522667D01*
X15177710Y75280762D01*
X15419614Y74917904D02*
X15443805Y74845333D01*
X15467995Y74821142D01*
X15516376Y74796952D01*
X15588948Y74796952D01*
X15637329Y74821142D01*
X15661519Y74845333D01*
X15685710Y74893714D01*
X15685710Y75087238D01*
X15177710Y75087238D01*
X15177710Y74917904D01*
X15201900Y74869523D01*
X15226090Y74845333D01*
X15274471Y74821142D01*
X15322852Y74821142D01*
X15371233Y74845333D01*
X15395424Y74869523D01*
X15419614Y74917904D01*
X15419614Y75087238D01*
X15685710Y74313142D02*
X15685710Y74603428D01*
X15685710Y74458285D02*
X15177710Y74458285D01*
X15250281Y74506666D01*
X15298662Y74555047D01*
X15322852Y74603428D01*
X25500270Y61938747D02*
X25500270Y62180652D01*
X24992270Y62180652D01*
X25161603Y61551699D02*
X25500270Y61551699D01*
X24968079Y61672652D02*
X25330936Y61793604D01*
X25330936Y61479128D01*
M02*
