M48
;DRILL file {KiCad 4.0.5} date 04/12/17 17:38:17
;FORMAT={-:-/ absolute / inch / decimal}
FMAT,2
INCH,TZ
T1C0.010
T2C0.018
T3C0.020
T4C0.020
T5C0.022
T6C0.025
T7C0.025
T8C0.031
T9C0.039
T10C0.118
%
G90
G05
M72
T1
X0.2805Y2.74
X0.313Y2.7305
X0.3355Y2.7305
X0.358Y2.7305
X0.3905Y2.74
X0.4225Y2.74
X0.455Y2.7315
X0.4775Y2.7315
X0.5Y2.7315
X0.5325Y2.74
X0.6045Y2.1745
X0.6365Y2.6629
X0.639Y2.711
X0.6835Y2.7065
X0.6887Y2.8305
X0.7725Y2.6915
X0.7725Y2.6502
X0.7725Y2.6088
X0.7725Y2.5675
X0.7793Y2.9446
X0.8138Y2.6915
X0.8138Y2.6502
X0.8138Y2.6088
X0.8138Y2.5675
X0.8345Y2.1295
X0.8345Y2.0295
X0.8345Y1.9295
X0.8345Y1.8295
X0.8345Y1.7295
X0.8345Y1.6295
X0.8345Y1.5295
X0.8345Y1.4295
X0.8345Y1.3295
X0.8345Y1.2295
X0.8345Y1.1295
X0.8345Y1.0295
X0.8345Y0.9295
X0.8345Y0.8295
X0.8345Y0.7295
X0.8345Y0.6295
X0.8552Y2.6915
X0.8552Y2.6502
X0.8552Y2.6088
X0.8552Y2.5675
X0.8955Y2.789
X0.8955Y2.47
X0.8965Y2.6915
X0.8965Y2.6502
X0.8965Y2.6088
X0.8965Y2.5675
X0.9327Y2.4051
X0.9385Y2.484
X0.9805Y2.435
X0.985Y2.6
X1.0345Y3.6295
X1.0345Y3.5295
X1.0345Y3.4295
X1.0345Y3.3295
X1.0345Y3.2295
X1.0345Y2.2295
X1.0345Y1.9295
X1.0345Y1.8295
X1.0345Y1.7295
X1.0345Y1.6295
X1.0345Y1.5295
X1.0345Y1.4295
X1.0345Y1.3295
X1.0345Y1.2295
X1.0345Y1.1295
X1.0345Y1.0295
X1.0345Y0.9295
X1.0345Y0.8295
X1.0345Y0.7295
X1.0345Y0.6295
X1.0345Y0.5295
X1.0345Y0.4295
X1.0437Y2.6787
X1.0437Y2.5803
X1.1345Y3.7295
X1.1345Y3.5295
X1.1345Y3.3295
X1.1345Y3.1295
X1.1345Y2.2295
X1.1345Y2.1295
X1.1345Y1.8295
X1.1345Y1.6295
X1.1345Y1.4295
X1.1345Y1.2295
X1.1345Y1.0295
X1.1345Y0.8295
X1.1345Y0.6295
X1.1345Y0.4295
X1.1345Y0.3295
X1.2345Y3.8295
X1.2345Y3.6295
X1.2345Y3.4295
X1.2345Y3.2295
X1.2345Y3.0295
X1.2345Y2.4295
X1.2345Y2.1295
X1.2345Y2.0295
X1.2345Y1.7295
X1.2345Y1.5295
X1.2345Y1.3295
X1.2345Y1.1295
X1.2345Y0.9295
X1.2345Y0.7295
X1.2345Y0.5295
X1.2345Y0.3295
X1.3345Y3.9295
X1.3345Y3.7295
X1.3345Y3.5295
X1.3345Y3.3295
X1.3345Y3.1295
X1.3345Y2.9295
X1.3345Y2.7295
X1.3345Y2.6295
X1.3345Y2.5295
X1.3345Y2.4295
X1.3345Y2.0295
X1.3345Y1.9295
X1.3345Y1.6295
X1.3345Y1.4295
X1.3345Y1.2295
X1.3345Y1.0295
X1.3345Y0.8295
X1.3345Y0.6295
X1.3345Y0.4295
X1.3345Y0.3295
X1.4345Y3.9295
X1.4345Y3.8295
X1.4345Y3.6295
X1.4345Y3.4295
X1.4345Y3.2295
X1.4345Y3.0295
X1.4345Y2.9295
X1.4345Y2.7295
X1.4345Y2.6295
X1.4345Y2.4295
X1.4345Y2.2295
X1.4345Y1.9295
X1.4345Y1.8295
X1.4345Y1.5295
X1.4345Y1.3295
X1.4345Y1.1295
X1.4345Y0.9295
X1.4345Y0.7295
X1.4345Y0.5295
X1.4345Y0.3295
X1.5345Y3.9295
X1.5345Y3.7295
X1.5345Y3.5295
X1.5345Y3.3295
X1.5345Y3.1295
X1.5345Y2.9295
X1.5345Y2.7295
X1.5345Y2.5295
X1.5345Y2.4295
X1.5345Y2.2295
X1.5345Y2.1295
X1.5345Y1.8295
X1.5345Y1.7295
X1.5345Y1.4295
X1.5345Y1.3295
X1.5345Y1.2295
X1.5345Y1.1295
X1.5345Y1.0295
X1.5345Y0.9295
X1.5345Y0.8295
X1.5345Y0.7295
X1.5345Y0.6295
X1.5345Y0.5295
X1.5345Y0.4295
X1.5345Y0.3295
X1.6345Y3.9295
X1.6345Y3.8295
X1.6345Y3.6295
X1.6345Y3.4295
X1.6345Y3.2295
X1.6345Y3.0295
X1.6345Y2.9295
X1.6345Y2.7295
X1.6345Y2.6295
X1.6345Y2.4295
X1.6345Y2.2295
X1.6345Y2.0295
X1.6345Y1.7295
X1.6345Y1.6295
X1.7345Y3.9295
X1.7345Y3.7295
X1.7345Y3.5295
X1.7345Y3.3295
X1.7345Y3.1295
X1.7345Y2.9295
X1.7345Y2.7295
X1.7345Y2.5295
X1.7345Y2.4295
X1.7345Y2.2295
X1.7345Y2.1295
X1.7345Y1.9295
X1.7345Y1.6295
X1.7345Y1.5295
X1.7345Y1.3295
X1.7345Y1.2295
X1.7345Y1.1295
X1.7345Y1.0295
X1.7345Y0.9295
X1.7345Y0.8295
X1.7345Y0.7295
X1.7345Y0.6295
X1.7345Y0.5295
X1.7345Y0.4295
X1.7345Y0.3295
X1.8345Y3.9295
X1.8345Y3.8295
X1.8345Y3.6295
X1.8345Y3.4295
X1.8345Y3.2295
X1.8345Y3.0295
X1.8345Y2.9295
X1.8345Y2.7295
X1.8345Y2.6295
X1.8345Y2.4295
X1.8345Y2.2295
X1.8345Y2.0295
X1.8345Y1.8295
X1.8345Y1.5295
X1.8345Y1.4295
X1.8345Y1.3295
X1.8345Y1.2295
X1.8345Y1.1295
X1.8345Y1.0295
X1.8345Y0.9295
X1.8345Y0.8295
X1.8345Y0.7295
X1.8345Y0.6295
X1.8345Y0.4295
X1.8345Y0.3295
X1.9345Y3.9295
X1.9345Y3.7295
X1.9345Y3.5295
X1.9345Y3.3295
X1.9345Y3.1295
X1.9345Y2.9295
X1.9345Y2.7295
X1.9345Y2.5295
X1.9345Y2.4295
X1.9345Y2.2295
X1.9345Y2.1295
X1.9345Y1.9295
X1.9345Y1.8295
X1.9345Y1.4295
X1.9345Y1.3295
X1.9345Y1.2295
X1.9345Y1.1295
X1.9345Y1.0295
X1.9345Y0.9295
X1.9345Y0.8295
X1.9345Y0.7295
X1.9345Y0.6295
X1.9345Y0.5295
X1.9345Y0.3295
X2.0345Y3.9295
X2.0345Y3.8295
X2.0345Y3.6295
X2.0345Y3.4295
X2.0345Y3.2295
X2.0345Y3.0295
X2.0345Y2.9295
X2.0345Y2.7295
X2.0345Y2.6295
X2.0345Y2.5295
X2.0345Y2.4295
X2.0345Y2.1295
X2.0345Y2.0295
X2.0345Y1.8295
X2.0345Y0.7295
X2.0345Y0.5295
X2.0345Y0.4295
X2.1345Y3.9295
X2.1345Y3.7295
X2.1345Y3.5295
X2.1345Y3.3295
X2.1345Y3.1295
X2.1345Y2.9295
X2.1345Y2.6295
X2.1345Y2.4295
X2.1345Y2.0295
X2.1345Y1.9295
X2.1345Y1.8295
X2.1345Y0.7295
X2.1345Y0.6295
X2.1345Y0.4295
X2.1345Y0.3295
X2.2345Y3.9295
X2.2345Y3.8295
X2.2345Y3.6295
X2.2345Y3.4295
X2.2345Y3.2295
X2.2345Y3.0295
X2.2345Y2.9295
X2.2345Y2.5295
X2.2345Y2.3295
X2.2345Y1.9295
X2.2345Y1.8295
X2.2345Y0.7295
X2.2345Y0.5295
X2.2345Y0.3295
X2.3345Y3.9295
X2.3345Y3.7295
X2.3345Y3.5295
X2.3345Y3.3295
X2.3345Y3.1295
X2.3345Y2.9295
X2.3345Y2.4295
X2.3345Y2.2295
X2.3345Y1.8295
X2.3345Y0.7295
X2.3345Y0.6295
X2.3345Y0.4295
X2.3345Y0.3295
X2.4345Y3.9295
X2.4345Y3.8295
X2.4345Y3.7295
X2.4345Y3.6295
X2.4345Y3.5295
X2.4345Y3.4295
X2.4345Y3.2295
X2.4345Y3.0295
X2.4345Y2.9295
X2.4345Y2.3295
X2.4345Y2.1295
X2.4345Y0.7295
X2.4345Y0.5295
X2.4345Y0.3295
X2.5345Y3.3295
X2.5345Y3.2295
X2.5345Y3.1295
X2.5345Y3.0295
X2.5345Y2.2295
X2.5345Y2.0295
X2.5345Y0.7295
X2.5345Y0.6295
X2.5345Y0.5295
X2.5345Y0.4295
X2.5345Y0.3295
X2.6345Y3.6295
X2.6345Y3.5295
X2.6345Y2.1295
X2.6345Y2.0295
X2.7345Y3.6295
X2.7345Y3.5295
X2.8345Y3.6295
X2.8345Y3.5295
X2.9345Y3.6295
X2.9345Y3.5295
X2.9345Y2.9295
X2.9345Y2.8295
X2.9345Y2.7295
X2.9345Y2.6295
X2.9345Y2.5295
X2.9345Y2.4295
X2.9345Y2.3295
X2.9345Y2.2295
T2
X0.2352Y2.8569
X0.2352Y2.5121
T4
X0.5405Y2.1499
X0.6075Y2.8658
X1.0206Y2.4839
X1.2345Y2.8969
X1.2345Y2.7655
X2.065Y1.68
X2.065Y0.814
X2.144Y1.68
X2.144Y0.814
X2.223Y1.68
X2.223Y0.814
X2.302Y1.68
X2.302Y0.814
X2.381Y1.68
X2.381Y0.814
X2.46Y1.68
X2.46Y0.814
X2.539Y1.68
X2.539Y0.814
X2.618Y1.68
X2.618Y0.814
X2.697Y1.68
X2.697Y0.814
X2.776Y1.68
X2.776Y0.814
T6
X0.4702Y1.0398
X0.4705Y1.56
X0.4705Y1.3395
X0.6075Y2.988
X0.7489Y3.1295
X0.8955Y3.1655
X2.5175Y4.031
X2.5985Y4.031
T7
X0.062Y0.2865
X0.162Y0.2865
X0.2365Y1.6395
X0.2365Y1.5395
X0.2365Y1.4395
X0.2365Y1.3395
X0.2365Y1.2395
X0.2365Y1.1395
X0.2365Y1.0395
X0.2365Y0.9395
X0.2365Y0.8395
X0.2365Y0.7395
X0.2865Y0.511
X0.2865Y0.411
X0.2865Y0.162
X0.2865Y0.062
X0.3365Y1.6395
X0.3365Y1.5395
X0.3365Y1.4395
X0.3365Y1.3395
X0.3365Y1.2395
X0.3365Y1.1395
X0.3365Y1.0395
X0.3365Y0.9395
X0.3365Y0.8395
X0.3365Y0.7395
X0.411Y0.2865
X0.511Y0.2865
X0.8555Y0.062
X0.9555Y0.062
X2.3265Y0.062
X2.4265Y0.062
X2.458Y4.148
X2.558Y4.148
X3.018Y3.8575
X3.018Y3.7575
T8
X2.9569Y3.3085
X2.9569Y3.2085
X2.9569Y3.1085
T9
X2.7232Y3.4085
X2.7232Y3.3085
X2.7232Y3.2085
X2.7232Y3.1085
X2.7232Y3.0085
X2.7232Y2.9085
X2.7232Y2.8085
X2.7232Y2.7085
X2.7232Y2.6085
X2.7232Y2.5085
X2.7232Y2.4085
X2.7232Y2.3085
X2.7232Y2.2085
X2.7232Y2.1085
X2.7232Y2.0085
X2.7232Y1.9085
T10
X0.5578Y3.8022
X0.5578Y0.5738
X2.7232Y3.8022
X2.7232Y0.5738
T3
X1.5032Y0.0442G85X1.5032Y0.0698
G05
X1.7788Y0.0442G85X1.7788Y0.0698
G05
T5
X1.5367Y0.1633G85X1.5485Y0.1633
G05
X1.7335Y0.1633G85X1.7453Y0.1633
G05
T0
M30
