G04 #@! TF.FileFunction,Legend,Top*
%FSLAX46Y46*%
G04 Gerber Fmt 4.6, Leading zero omitted, Abs format (unit mm)*
G04 Created by KiCad (PCBNEW 4.0.5) date 04/12/17 17:38:15*
%MOMM*%
%LPD*%
G01*
G04 APERTURE LIST*
%ADD10C,0.025400*%
%ADD11C,0.127000*%
%ADD12C,0.300000*%
%ADD13C,0.150000*%
%ADD14C,0.120000*%
%ADD15C,0.076200*%
G04 APERTURE END LIST*
D10*
D11*
X2681514Y10294257D02*
X2899229Y9713686D01*
X3116943Y10294257D01*
X2899229Y10657115D02*
X2899229Y11237686D01*
X2899229Y12181115D02*
X2899229Y12761686D01*
X2681514Y13124544D02*
X2899229Y13705115D01*
X3116943Y13124544D01*
X1429657Y11872686D02*
X849086Y11654971D01*
X1429657Y11437257D01*
X1792515Y11654971D02*
X2373086Y11654971D01*
X3316515Y11654971D02*
X3897086Y11654971D01*
X4259944Y11872686D02*
X4840515Y11654971D01*
X4259944Y11437257D01*
D12*
X26499500Y1681943D02*
X26713786Y1610514D01*
X26785214Y1539086D01*
X26856643Y1396229D01*
X26856643Y1181943D01*
X26785214Y1039086D01*
X26713786Y967657D01*
X26570928Y896229D01*
X25999500Y896229D01*
X25999500Y2396229D01*
X26499500Y2396229D01*
X26642357Y2324800D01*
X26713786Y2253371D01*
X26785214Y2110514D01*
X26785214Y1967657D01*
X26713786Y1824800D01*
X26642357Y1753371D01*
X26499500Y1681943D01*
X25999500Y1681943D01*
X27285214Y2396229D02*
X28142357Y2396229D01*
X27713786Y896229D02*
X27713786Y2396229D01*
X28642357Y896229D02*
X28642357Y2396229D01*
X29499500Y896229D01*
X29499500Y2396229D01*
X51294885Y1324800D02*
X52009171Y1324800D01*
X51152028Y896229D02*
X51652028Y2396229D01*
X52152028Y896229D01*
X52652028Y2396229D02*
X52652028Y1181943D01*
X52723456Y1039086D01*
X52794885Y967657D01*
X52937742Y896229D01*
X53223456Y896229D01*
X53366314Y967657D01*
X53437742Y1039086D01*
X53509171Y1181943D01*
X53509171Y2396229D01*
X54223457Y896229D02*
X54223457Y2396229D01*
X54580600Y2396229D01*
X54794885Y2324800D01*
X54937743Y2181943D01*
X55009171Y2039086D01*
X55080600Y1753371D01*
X55080600Y1539086D01*
X55009171Y1253371D01*
X54937743Y1110514D01*
X54794885Y967657D01*
X54580600Y896229D01*
X54223457Y896229D01*
X55723457Y896229D02*
X55723457Y2396229D01*
X56723457Y2396229D02*
X57009171Y2396229D01*
X57152029Y2324800D01*
X57294886Y2181943D01*
X57366314Y1896229D01*
X57366314Y1396229D01*
X57294886Y1110514D01*
X57152029Y967657D01*
X57009171Y896229D01*
X56723457Y896229D01*
X56580600Y967657D01*
X56437743Y1110514D01*
X56366314Y1396229D01*
X56366314Y1896229D01*
X56437743Y2181943D01*
X56580600Y2324800D01*
X56723457Y2396229D01*
X11781529Y32177586D02*
X11781529Y31320443D01*
X10281529Y31749014D02*
X11781529Y31749014D01*
X11781529Y30534729D02*
X11781529Y30249015D01*
X11710100Y30106157D01*
X11567243Y29963300D01*
X11281529Y29891872D01*
X10781529Y29891872D01*
X10495814Y29963300D01*
X10352957Y30106157D01*
X10281529Y30249015D01*
X10281529Y30534729D01*
X10352957Y30677586D01*
X10495814Y30820443D01*
X10781529Y30891872D01*
X11281529Y30891872D01*
X11567243Y30820443D01*
X11710100Y30677586D01*
X11781529Y30534729D01*
X10281529Y29249014D02*
X11781529Y29249014D01*
X11781529Y28677586D01*
X11710100Y28534728D01*
X11638671Y28463300D01*
X11495814Y28391871D01*
X11281529Y28391871D01*
X11138671Y28463300D01*
X11067243Y28534728D01*
X10995814Y28677586D01*
X10995814Y29249014D01*
X2763129Y19069014D02*
X2763129Y19926157D01*
X2763129Y19497585D02*
X4263129Y19497585D01*
X4048843Y19640442D01*
X3905986Y19783300D01*
X3834557Y19926157D01*
X4263129Y17783300D02*
X4263129Y18069014D01*
X4191700Y18211871D01*
X4120271Y18283300D01*
X3905986Y18426157D01*
X3620271Y18497586D01*
X3048843Y18497586D01*
X2905986Y18426157D01*
X2834557Y18354729D01*
X2763129Y18211871D01*
X2763129Y17926157D01*
X2834557Y17783300D01*
X2905986Y17711871D01*
X3048843Y17640443D01*
X3405986Y17640443D01*
X3548843Y17711871D01*
X3620271Y17783300D01*
X3691700Y17926157D01*
X3691700Y18211871D01*
X3620271Y18354729D01*
X3548843Y18426157D01*
X3405986Y18497586D01*
X10281529Y41214728D02*
X10281529Y42071871D01*
X10281529Y41643299D02*
X11781529Y41643299D01*
X11567243Y41786156D01*
X11424386Y41929014D01*
X11352957Y42071871D01*
X76764343Y89638429D02*
X76764343Y90781286D01*
X77335771Y90209857D02*
X76192914Y90209857D01*
X75835771Y91352715D02*
X75835771Y92281286D01*
X76407200Y91781286D01*
X76407200Y91995572D01*
X76478629Y92138429D01*
X76550057Y92209858D01*
X76692914Y92281286D01*
X77050057Y92281286D01*
X77192914Y92209858D01*
X77264343Y92138429D01*
X77335771Y91995572D01*
X77335771Y91567000D01*
X77264343Y91424143D01*
X77192914Y91352715D01*
X75835771Y92709857D02*
X77335771Y93209857D01*
X75835771Y93709857D01*
X70775271Y105466343D02*
X69632414Y105466343D01*
X70203843Y106037771D02*
X70203843Y104894914D01*
X68203842Y104537771D02*
X68918128Y104537771D01*
X68989557Y105252057D01*
X68918128Y105180629D01*
X68775271Y105109200D01*
X68418128Y105109200D01*
X68275271Y105180629D01*
X68203842Y105252057D01*
X68132414Y105394914D01*
X68132414Y105752057D01*
X68203842Y105894914D01*
X68275271Y105966343D01*
X68418128Y106037771D01*
X68775271Y106037771D01*
X68918128Y105966343D01*
X68989557Y105894914D01*
X67703843Y104537771D02*
X67203843Y106037771D01*
X66703843Y104537771D01*
D13*
X60368700Y95075200D02*
X22968700Y95075200D01*
X22968700Y95075200D02*
X22968700Y16075200D01*
X22968700Y16075200D02*
X60368700Y16075200D01*
X60368700Y16075200D02*
X60368700Y95075200D01*
X54668700Y86575200D02*
X28668700Y86575200D01*
X28668700Y86575200D02*
X28668700Y24575200D01*
X28668700Y24575200D02*
X54668700Y24575200D01*
X54668700Y24575200D02*
X54668700Y86575200D01*
D14*
X9877100Y40373300D02*
X9877100Y17453300D01*
X9877100Y17453300D02*
X4677100Y17453300D01*
X4677100Y17453300D02*
X4677100Y42973300D01*
X4677100Y42973300D02*
X7277100Y42973300D01*
X7277100Y42973300D02*
X7277100Y40373300D01*
X7277100Y40373300D02*
X9877100Y40373300D01*
X9877100Y41643300D02*
X9877100Y42973300D01*
X9877100Y42973300D02*
X8607100Y42973300D01*
X13055500Y68995100D02*
X13055500Y68495100D01*
X13995500Y68495100D02*
X13995500Y68995100D01*
D13*
X45288200Y43865800D02*
X45288200Y19481800D01*
X45288200Y19481800D02*
X71704200Y19481800D01*
X71704200Y19481800D02*
X78232000Y27076400D01*
X78232000Y27076400D02*
X78232000Y36271200D01*
X78232000Y36271200D02*
X71704200Y43865800D01*
X71704200Y43865800D02*
X45288200Y43865800D01*
D14*
X6654700Y68995100D02*
X6654700Y68495100D01*
X7594700Y68495100D02*
X7594700Y68995100D01*
X9448700Y68995100D02*
X9448700Y68495100D01*
X10388700Y68495100D02*
X10388700Y68995100D01*
X10261500Y68995100D02*
X10261500Y68495100D01*
X11201500Y68495100D02*
X11201500Y68995100D01*
X14672500Y67716300D02*
X15172500Y67716300D01*
X15172500Y68656300D02*
X14672500Y68656300D01*
X16560700Y70590220D02*
X16560700Y70090220D01*
X17500700Y70090220D02*
X17500700Y70590220D01*
X15760600Y70590220D02*
X15760600Y70090220D01*
X16700600Y70090220D02*
X16700600Y70590220D01*
X10030360Y42441940D02*
X10030360Y41941940D01*
X10970360Y41941940D02*
X10970360Y42441940D01*
X15900500Y70090220D02*
X15900500Y70590220D01*
X14960500Y70590220D02*
X14960500Y70090220D01*
X10027820Y24664480D02*
X10027820Y24164480D01*
X10967820Y24164480D02*
X10967820Y24664480D01*
X10847260Y33553300D02*
X11347260Y33553300D01*
X11347260Y34493300D02*
X10847260Y34493300D01*
X8771700Y68656300D02*
X8271700Y68656300D01*
X8271700Y67716300D02*
X8771700Y67716300D01*
X12378500Y68656300D02*
X11878500Y68656300D01*
X11878500Y67716300D02*
X12378500Y67716300D01*
X23389400Y61559540D02*
X22889400Y61559540D01*
X22889400Y60619540D02*
X23389400Y60619540D01*
X77987200Y96710500D02*
X77987200Y99310500D01*
X77987200Y99310500D02*
X75327200Y99310500D01*
X75327200Y99310500D02*
X75327200Y96710500D01*
X75327200Y96710500D02*
X77987200Y96710500D01*
X77987200Y95440500D02*
X77987200Y94110500D01*
X77987200Y94110500D02*
X76657200Y94110500D01*
D13*
X24346300Y69939300D02*
X24346300Y69414300D01*
X18046300Y63639300D02*
X18046300Y64164300D01*
X24346300Y63639300D02*
X24346300Y64164300D01*
X18046300Y69939300D02*
X18571300Y69939300D01*
X18046300Y63639300D02*
X18571300Y63639300D01*
X24346300Y63639300D02*
X23821300Y63639300D01*
X24346300Y69939300D02*
X23821300Y69939300D01*
D14*
X73248620Y51312000D02*
X73248620Y51812000D01*
X72308620Y51812000D02*
X72308620Y51312000D01*
X71129080Y50543360D02*
X71629080Y50543360D01*
X71629080Y51483360D02*
X71129080Y51483360D01*
X25634980Y67464300D02*
X25634980Y66114300D01*
X27384980Y67464300D02*
X27384980Y66114300D01*
X67782560Y50234120D02*
X66852560Y50234120D01*
X64622560Y50234120D02*
X65552560Y50234120D01*
X64622560Y50234120D02*
X64622560Y48074120D01*
X67782560Y50234120D02*
X67782560Y48774120D01*
X64521180Y48774540D02*
X64521180Y49274540D01*
X63581180Y49274540D02*
X63581180Y48774540D01*
X75100964Y84950591D02*
G75*
G02X77410260Y84990900I1154296J40309D01*
G01*
X77409312Y85011021D02*
G75*
G02X76015260Y83861900I-1154052J-20121D01*
G01*
X72635260Y76670900D02*
X72635260Y86320900D01*
X77586260Y76670900D02*
X77586260Y86320900D01*
X72635260Y76670900D02*
X77586260Y76670900D01*
X72635260Y86320900D02*
X77586260Y86320900D01*
X75521260Y85866900D02*
X77131260Y84255900D01*
X75380260Y85726900D02*
X76990260Y84114900D01*
X37681400Y-2752200D02*
X45681400Y-2752200D01*
X37681400Y4567800D02*
X45681400Y4567800D01*
X45681400Y4567800D02*
X45681400Y-2752200D01*
X45681400Y-2200D02*
X37681400Y-2200D01*
X37681400Y-2752200D02*
X37681400Y4567800D01*
X22999700Y2904800D02*
X20399700Y2904800D01*
X20399700Y2904800D02*
X20399700Y244800D01*
X20399700Y244800D02*
X22999700Y244800D01*
X22999700Y244800D02*
X22999700Y2904800D01*
X24269700Y2904800D02*
X25599700Y2904800D01*
X25599700Y2904800D02*
X25599700Y1574800D01*
X8607100Y2844800D02*
X8607100Y5444800D01*
X8607100Y5444800D02*
X5947100Y5444800D01*
X5947100Y5444800D02*
X5947100Y2844800D01*
X5947100Y2844800D02*
X8607100Y2844800D01*
X8607100Y1574800D02*
X8607100Y244800D01*
X8607100Y244800D02*
X7277100Y244800D01*
X11709400Y8607100D02*
X9109400Y8607100D01*
X9109400Y8607100D02*
X9109400Y5947100D01*
X9109400Y5947100D02*
X11709400Y5947100D01*
X11709400Y5947100D02*
X11709400Y8607100D01*
X12979400Y8607100D02*
X14309400Y8607100D01*
X14309400Y8607100D02*
X14309400Y7277100D01*
X2844800Y5947100D02*
X5444800Y5947100D01*
X5444800Y5947100D02*
X5444800Y8607100D01*
X5444800Y8607100D02*
X2844800Y8607100D01*
X2844800Y8607100D02*
X2844800Y5947100D01*
X1574800Y5947100D02*
X244800Y5947100D01*
X244800Y5947100D02*
X244800Y7277100D01*
X5947100Y11709400D02*
X5947100Y9109400D01*
X5947100Y9109400D02*
X8607100Y9109400D01*
X8607100Y9109400D02*
X8607100Y11709400D01*
X8607100Y11709400D02*
X5947100Y11709400D01*
X5947100Y12979400D02*
X5947100Y14309400D01*
X5947100Y14309400D02*
X7277100Y14309400D01*
X60363100Y244800D02*
X62963100Y244800D01*
X62963100Y244800D02*
X62963100Y2904800D01*
X62963100Y2904800D02*
X60363100Y2904800D01*
X60363100Y2904800D02*
X60363100Y244800D01*
X59093100Y244800D02*
X57763100Y244800D01*
X57763100Y244800D02*
X57763100Y1574800D01*
X63703200Y106689200D02*
X61103200Y106689200D01*
X61103200Y106689200D02*
X61103200Y104029200D01*
X61103200Y104029200D02*
X63703200Y104029200D01*
X63703200Y104029200D02*
X63703200Y106689200D01*
X64973200Y106689200D02*
X66303200Y106689200D01*
X66303200Y106689200D02*
X66303200Y105359200D01*
D13*
X10121081Y54360914D02*
X9121081Y54360914D01*
X9121081Y54599009D01*
X9168700Y54741867D01*
X9263938Y54837105D01*
X9359176Y54884724D01*
X9549652Y54932343D01*
X9692510Y54932343D01*
X9882986Y54884724D01*
X9978224Y54837105D01*
X10073462Y54741867D01*
X10121081Y54599009D01*
X10121081Y54360914D01*
X10073462Y55313295D02*
X10121081Y55456152D01*
X10121081Y55694248D01*
X10073462Y55789486D01*
X10025843Y55837105D01*
X9930605Y55884724D01*
X9835367Y55884724D01*
X9740129Y55837105D01*
X9692510Y55789486D01*
X9644890Y55694248D01*
X9597271Y55503771D01*
X9549652Y55408533D01*
X9502033Y55360914D01*
X9406795Y55313295D01*
X9311557Y55313295D01*
X9216319Y55360914D01*
X9168700Y55408533D01*
X9121081Y55503771D01*
X9121081Y55741867D01*
X9168700Y55884724D01*
X10121081Y56837105D02*
X10121081Y56265676D01*
X10121081Y56551390D02*
X9121081Y56551390D01*
X9263938Y56456152D01*
X9359176Y56360914D01*
X9406795Y56265676D01*
D15*
X4382710Y41268347D02*
X3874710Y41268347D01*
X3874710Y41461871D01*
X3898900Y41510252D01*
X3923090Y41534443D01*
X3971471Y41558633D01*
X4044043Y41558633D01*
X4092424Y41534443D01*
X4116614Y41510252D01*
X4140805Y41461871D01*
X4140805Y41268347D01*
X4382710Y42042443D02*
X4382710Y41752157D01*
X4382710Y41897300D02*
X3874710Y41897300D01*
X3947281Y41848919D01*
X3995662Y41800538D01*
X4019852Y41752157D01*
X13732329Y67161833D02*
X13756519Y67137643D01*
X13780710Y67065071D01*
X13780710Y67016690D01*
X13756519Y66944119D01*
X13708138Y66895738D01*
X13659757Y66871547D01*
X13562995Y66847357D01*
X13490424Y66847357D01*
X13393662Y66871547D01*
X13345281Y66895738D01*
X13296900Y66944119D01*
X13272710Y67016690D01*
X13272710Y67065071D01*
X13296900Y67137643D01*
X13321090Y67161833D01*
X13442043Y67597262D02*
X13780710Y67597262D01*
X13248519Y67476309D02*
X13611376Y67355357D01*
X13611376Y67669833D01*
X70123352Y44499590D02*
X70123352Y44088352D01*
X70147543Y44039971D01*
X70171733Y44015781D01*
X70220114Y43991590D01*
X70316876Y43991590D01*
X70365257Y44015781D01*
X70389448Y44039971D01*
X70413638Y44088352D01*
X70413638Y44499590D01*
X70631352Y44451210D02*
X70655542Y44475400D01*
X70703923Y44499590D01*
X70824876Y44499590D01*
X70873257Y44475400D01*
X70897447Y44451210D01*
X70921638Y44402829D01*
X70921638Y44354448D01*
X70897447Y44281876D01*
X70607161Y43991590D01*
X70921638Y43991590D01*
X7306129Y67187233D02*
X7330319Y67163043D01*
X7354510Y67090471D01*
X7354510Y67042090D01*
X7330319Y66969519D01*
X7281938Y66921138D01*
X7233557Y66896947D01*
X7136795Y66872757D01*
X7064224Y66872757D01*
X6967462Y66896947D01*
X6919081Y66921138D01*
X6870700Y66969519D01*
X6846510Y67042090D01*
X6846510Y67090471D01*
X6870700Y67163043D01*
X6894890Y67187233D01*
X7354510Y67671043D02*
X7354510Y67380757D01*
X7354510Y67525900D02*
X6846510Y67525900D01*
X6919081Y67477519D01*
X6967462Y67429138D01*
X6991652Y67380757D01*
X10100129Y67187233D02*
X10124319Y67163043D01*
X10148510Y67090471D01*
X10148510Y67042090D01*
X10124319Y66969519D01*
X10075938Y66921138D01*
X10027557Y66896947D01*
X9930795Y66872757D01*
X9858224Y66872757D01*
X9761462Y66896947D01*
X9713081Y66921138D01*
X9664700Y66969519D01*
X9640510Y67042090D01*
X9640510Y67090471D01*
X9664700Y67163043D01*
X9688890Y67187233D01*
X9688890Y67380757D02*
X9664700Y67404947D01*
X9640510Y67453328D01*
X9640510Y67574281D01*
X9664700Y67622662D01*
X9688890Y67646852D01*
X9737271Y67671043D01*
X9785652Y67671043D01*
X9858224Y67646852D01*
X10148510Y67356566D01*
X10148510Y67671043D01*
X10912929Y67187233D02*
X10937119Y67163043D01*
X10961310Y67090471D01*
X10961310Y67042090D01*
X10937119Y66969519D01*
X10888738Y66921138D01*
X10840357Y66896947D01*
X10743595Y66872757D01*
X10671024Y66872757D01*
X10574262Y66896947D01*
X10525881Y66921138D01*
X10477500Y66969519D01*
X10453310Y67042090D01*
X10453310Y67090471D01*
X10477500Y67163043D01*
X10501690Y67187233D01*
X10453310Y67356566D02*
X10453310Y67671043D01*
X10646833Y67501709D01*
X10646833Y67574281D01*
X10671024Y67622662D01*
X10695214Y67646852D01*
X10743595Y67671043D01*
X10864548Y67671043D01*
X10912929Y67646852D01*
X10937119Y67622662D01*
X10961310Y67574281D01*
X10961310Y67429138D01*
X10937119Y67380757D01*
X10912929Y67356566D01*
X14837833Y67115871D02*
X14813643Y67091681D01*
X14741071Y67067490D01*
X14692690Y67067490D01*
X14620119Y67091681D01*
X14571738Y67140062D01*
X14547547Y67188443D01*
X14523357Y67285205D01*
X14523357Y67357776D01*
X14547547Y67454538D01*
X14571738Y67502919D01*
X14620119Y67551300D01*
X14692690Y67575490D01*
X14741071Y67575490D01*
X14813643Y67551300D01*
X14837833Y67527110D01*
X15297452Y67575490D02*
X15055547Y67575490D01*
X15031357Y67333586D01*
X15055547Y67357776D01*
X15103928Y67381967D01*
X15224881Y67381967D01*
X15273262Y67357776D01*
X15297452Y67333586D01*
X15321643Y67285205D01*
X15321643Y67164252D01*
X15297452Y67115871D01*
X15273262Y67091681D01*
X15224881Y67067490D01*
X15103928Y67067490D01*
X15055547Y67091681D01*
X15031357Y67115871D01*
X17212129Y71740848D02*
X17236319Y71716658D01*
X17260510Y71644086D01*
X17260510Y71595705D01*
X17236319Y71523134D01*
X17187938Y71474753D01*
X17139557Y71450562D01*
X17042795Y71426372D01*
X16970224Y71426372D01*
X16873462Y71450562D01*
X16825081Y71474753D01*
X16776700Y71523134D01*
X16752510Y71595705D01*
X16752510Y71644086D01*
X16776700Y71716658D01*
X16800890Y71740848D01*
X17260510Y72224658D02*
X17260510Y71934372D01*
X17260510Y72079515D02*
X16752510Y72079515D01*
X16825081Y72031134D01*
X16873462Y71982753D01*
X16897652Y71934372D01*
X17260510Y72708468D02*
X17260510Y72418182D01*
X17260510Y72563325D02*
X16752510Y72563325D01*
X16825081Y72514944D01*
X16873462Y72466563D01*
X16897652Y72418182D01*
X16412029Y71740848D02*
X16436219Y71716658D01*
X16460410Y71644086D01*
X16460410Y71595705D01*
X16436219Y71523134D01*
X16387838Y71474753D01*
X16339457Y71450562D01*
X16242695Y71426372D01*
X16170124Y71426372D01*
X16073362Y71450562D01*
X16024981Y71474753D01*
X15976600Y71523134D01*
X15952410Y71595705D01*
X15952410Y71644086D01*
X15976600Y71716658D01*
X16000790Y71740848D01*
X16460410Y72224658D02*
X16460410Y71934372D01*
X16460410Y72079515D02*
X15952410Y72079515D01*
X16024981Y72031134D01*
X16073362Y71982753D01*
X16097552Y71934372D01*
X16000790Y72418182D02*
X15976600Y72442372D01*
X15952410Y72490753D01*
X15952410Y72611706D01*
X15976600Y72660087D01*
X16000790Y72684277D01*
X16049171Y72708468D01*
X16097552Y72708468D01*
X16170124Y72684277D01*
X16460410Y72393991D01*
X16460410Y72708468D01*
X11392989Y41865368D02*
X11417179Y41841178D01*
X11441370Y41768606D01*
X11441370Y41720225D01*
X11417179Y41647654D01*
X11368798Y41599273D01*
X11320417Y41575082D01*
X11223655Y41550892D01*
X11151084Y41550892D01*
X11054322Y41575082D01*
X11005941Y41599273D01*
X10957560Y41647654D01*
X10933370Y41720225D01*
X10933370Y41768606D01*
X10957560Y41841178D01*
X10981750Y41865368D01*
X11441370Y42349178D02*
X11441370Y42058892D01*
X11441370Y42204035D02*
X10933370Y42204035D01*
X11005941Y42155654D01*
X11054322Y42107273D01*
X11078512Y42058892D01*
X11441370Y42591083D02*
X11441370Y42687845D01*
X11417179Y42736226D01*
X11392989Y42760416D01*
X11320417Y42808797D01*
X11223655Y42832988D01*
X11030131Y42832988D01*
X10981750Y42808797D01*
X10957560Y42784607D01*
X10933370Y42736226D01*
X10933370Y42639464D01*
X10957560Y42591083D01*
X10981750Y42566892D01*
X11030131Y42542702D01*
X11151084Y42542702D01*
X11199465Y42566892D01*
X11223655Y42591083D01*
X11247846Y42639464D01*
X11247846Y42736226D01*
X11223655Y42784607D01*
X11199465Y42808797D01*
X11151084Y42832988D01*
X15660310Y71703353D02*
X15418405Y71534020D01*
X15660310Y71413067D02*
X15152310Y71413067D01*
X15152310Y71606591D01*
X15176500Y71654972D01*
X15200690Y71679163D01*
X15249071Y71703353D01*
X15321643Y71703353D01*
X15370024Y71679163D01*
X15394214Y71654972D01*
X15418405Y71606591D01*
X15418405Y71413067D01*
X15660310Y72187163D02*
X15660310Y71896877D01*
X15660310Y72042020D02*
X15152310Y72042020D01*
X15224881Y71993639D01*
X15273262Y71945258D01*
X15297452Y71896877D01*
X11578530Y24342513D02*
X11336625Y24173180D01*
X11578530Y24052227D02*
X11070530Y24052227D01*
X11070530Y24245751D01*
X11094720Y24294132D01*
X11118910Y24318323D01*
X11167291Y24342513D01*
X11239863Y24342513D01*
X11288244Y24318323D01*
X11312434Y24294132D01*
X11336625Y24245751D01*
X11336625Y24052227D01*
X11118910Y24536037D02*
X11094720Y24560227D01*
X11070530Y24608608D01*
X11070530Y24729561D01*
X11094720Y24777942D01*
X11118910Y24802132D01*
X11167291Y24826323D01*
X11215672Y24826323D01*
X11288244Y24802132D01*
X11578530Y24511846D01*
X11578530Y24826323D01*
X11037993Y32929890D02*
X10868660Y33171795D01*
X10747707Y32929890D02*
X10747707Y33437890D01*
X10941231Y33437890D01*
X10989612Y33413700D01*
X11013803Y33389510D01*
X11037993Y33341129D01*
X11037993Y33268557D01*
X11013803Y33220176D01*
X10989612Y33195986D01*
X10941231Y33171795D01*
X10747707Y33171795D01*
X11207326Y33437890D02*
X11521803Y33437890D01*
X11352469Y33244367D01*
X11425041Y33244367D01*
X11473422Y33220176D01*
X11497612Y33195986D01*
X11521803Y33147605D01*
X11521803Y33026652D01*
X11497612Y32978271D01*
X11473422Y32954081D01*
X11425041Y32929890D01*
X11279898Y32929890D01*
X11231517Y32954081D01*
X11207326Y32978271D01*
X8437033Y67092890D02*
X8195128Y67092890D01*
X8195128Y67600890D01*
X8872462Y67092890D02*
X8582176Y67092890D01*
X8727319Y67092890D02*
X8727319Y67600890D01*
X8678938Y67528319D01*
X8630557Y67479938D01*
X8582176Y67455748D01*
X12043833Y67092890D02*
X11801928Y67092890D01*
X11801928Y67600890D01*
X12188976Y67552510D02*
X12213166Y67576700D01*
X12261547Y67600890D01*
X12382500Y67600890D01*
X12430881Y67576700D01*
X12455071Y67552510D01*
X12479262Y67504129D01*
X12479262Y67455748D01*
X12455071Y67383176D01*
X12164785Y67092890D01*
X12479262Y67092890D01*
X24464433Y60859730D02*
X24222528Y60859730D01*
X24222528Y61367730D01*
X24585385Y61367730D02*
X24899862Y61367730D01*
X24730528Y61174207D01*
X24803100Y61174207D01*
X24851481Y61150016D01*
X24875671Y61125826D01*
X24899862Y61077445D01*
X24899862Y60956492D01*
X24875671Y60908111D01*
X24851481Y60883921D01*
X24803100Y60859730D01*
X24657957Y60859730D01*
X24609576Y60883921D01*
X24585385Y60908111D01*
X75020110Y95065547D02*
X74512110Y95065547D01*
X74512110Y95259071D01*
X74536300Y95307452D01*
X74560490Y95331643D01*
X74608871Y95355833D01*
X74681443Y95355833D01*
X74729824Y95331643D01*
X74754014Y95307452D01*
X74778205Y95259071D01*
X74778205Y95065547D01*
X74512110Y95525166D02*
X74512110Y95839643D01*
X74705633Y95670309D01*
X74705633Y95742881D01*
X74729824Y95791262D01*
X74754014Y95815452D01*
X74802395Y95839643D01*
X74923348Y95839643D01*
X74971729Y95815452D01*
X74995919Y95791262D01*
X75020110Y95742881D01*
X75020110Y95597738D01*
X74995919Y95549357D01*
X74971729Y95525166D01*
X23806452Y71131490D02*
X23806452Y70720252D01*
X23830643Y70671871D01*
X23854833Y70647681D01*
X23903214Y70623490D01*
X23999976Y70623490D01*
X24048357Y70647681D01*
X24072548Y70671871D01*
X24096738Y70720252D01*
X24096738Y71131490D01*
X24604738Y70623490D02*
X24314452Y70623490D01*
X24459595Y70623490D02*
X24459595Y71131490D01*
X24411214Y71058919D01*
X24362833Y71010538D01*
X24314452Y70986348D01*
X72960049Y52949928D02*
X72984239Y52925738D01*
X73008430Y52853166D01*
X73008430Y52804785D01*
X72984239Y52732214D01*
X72935858Y52683833D01*
X72887477Y52659642D01*
X72790715Y52635452D01*
X72718144Y52635452D01*
X72621382Y52659642D01*
X72573001Y52683833D01*
X72524620Y52732214D01*
X72500430Y52804785D01*
X72500430Y52853166D01*
X72524620Y52925738D01*
X72548810Y52949928D01*
X72548810Y53143452D02*
X72524620Y53167642D01*
X72500430Y53216023D01*
X72500430Y53336976D01*
X72524620Y53385357D01*
X72548810Y53409547D01*
X72597191Y53433738D01*
X72645572Y53433738D01*
X72718144Y53409547D01*
X73008430Y53119261D01*
X73008430Y53433738D01*
X72500430Y53603071D02*
X72500430Y53917548D01*
X72693953Y53748214D01*
X72693953Y53820786D01*
X72718144Y53869167D01*
X72742334Y53893357D01*
X72790715Y53917548D01*
X72911668Y53917548D01*
X72960049Y53893357D01*
X72984239Y53869167D01*
X73008430Y53820786D01*
X73008430Y53675643D01*
X72984239Y53627262D01*
X72960049Y53603071D01*
X71294413Y51583650D02*
X71125080Y51825555D01*
X71004127Y51583650D02*
X71004127Y52091650D01*
X71197651Y52091650D01*
X71246032Y52067460D01*
X71270223Y52043270D01*
X71294413Y51994889D01*
X71294413Y51922317D01*
X71270223Y51873936D01*
X71246032Y51849746D01*
X71197651Y51825555D01*
X71004127Y51825555D01*
X71729842Y51922317D02*
X71729842Y51583650D01*
X71608889Y52115841D02*
X71487937Y51752984D01*
X71802413Y51752984D01*
X28072685Y66547395D02*
X28314590Y66547395D01*
X27806590Y66378062D02*
X28072685Y66547395D01*
X27806590Y66716729D01*
X28314590Y67152158D02*
X28314590Y66861872D01*
X28314590Y67007015D02*
X27806590Y67007015D01*
X27879161Y66958634D01*
X27927542Y66910253D01*
X27951732Y66861872D01*
X3879547Y61504890D02*
X3879547Y62012890D01*
X4073071Y62012890D01*
X4121452Y61988700D01*
X4145643Y61964510D01*
X4169833Y61916129D01*
X4169833Y61843557D01*
X4145643Y61795176D01*
X4121452Y61770986D01*
X4073071Y61746795D01*
X3879547Y61746795D01*
X4363357Y61964510D02*
X4387547Y61988700D01*
X4435928Y62012890D01*
X4556881Y62012890D01*
X4605262Y61988700D01*
X4629452Y61964510D01*
X4653643Y61916129D01*
X4653643Y61867748D01*
X4629452Y61795176D01*
X4339166Y61504890D01*
X4653643Y61504890D01*
X66154179Y51240630D02*
X66105798Y51264820D01*
X66057417Y51313201D01*
X65984846Y51385772D01*
X65936465Y51409963D01*
X65888084Y51409963D01*
X65912274Y51289010D02*
X65863893Y51313201D01*
X65815512Y51361582D01*
X65791322Y51458344D01*
X65791322Y51627677D01*
X65815512Y51724439D01*
X65863893Y51772820D01*
X65912274Y51797010D01*
X66009036Y51797010D01*
X66057417Y51772820D01*
X66105798Y51724439D01*
X66129989Y51627677D01*
X66129989Y51458344D01*
X66105798Y51361582D01*
X66057417Y51313201D01*
X66009036Y51289010D01*
X65912274Y51289010D01*
X66613798Y51289010D02*
X66323512Y51289010D01*
X66468655Y51289010D02*
X66468655Y51797010D01*
X66420274Y51724439D01*
X66371893Y51676058D01*
X66323512Y51651868D01*
X63480890Y48939873D02*
X63238985Y48770540D01*
X63480890Y48649587D02*
X62972890Y48649587D01*
X62972890Y48843111D01*
X62997080Y48891492D01*
X63021270Y48915683D01*
X63069651Y48939873D01*
X63142223Y48939873D01*
X63190604Y48915683D01*
X63214794Y48891492D01*
X63238985Y48843111D01*
X63238985Y48649587D01*
X62972890Y49399492D02*
X62972890Y49157587D01*
X63214794Y49133397D01*
X63190604Y49157587D01*
X63166413Y49205968D01*
X63166413Y49326921D01*
X63190604Y49375302D01*
X63214794Y49399492D01*
X63263175Y49423683D01*
X63384128Y49423683D01*
X63432509Y49399492D01*
X63456699Y49375302D01*
X63480890Y49326921D01*
X63480890Y49205968D01*
X63456699Y49157587D01*
X63432509Y49133397D01*
X78154470Y81193519D02*
X77912565Y81024186D01*
X78154470Y80903233D02*
X77646470Y80903233D01*
X77646470Y81096757D01*
X77670660Y81145138D01*
X77694850Y81169329D01*
X77743231Y81193519D01*
X77815803Y81193519D01*
X77864184Y81169329D01*
X77888374Y81145138D01*
X77912565Y81096757D01*
X77912565Y80903233D01*
X77646470Y81338662D02*
X78154470Y81507995D01*
X77646470Y81677329D01*
X78154470Y82112758D02*
X78154470Y81822472D01*
X78154470Y81967615D02*
X77646470Y81967615D01*
X77719041Y81919234D01*
X77767422Y81870853D01*
X77791612Y81822472D01*
X38804547Y5116890D02*
X38804547Y5624890D01*
X38998071Y5624890D01*
X39046452Y5600700D01*
X39070643Y5576510D01*
X39094833Y5528129D01*
X39094833Y5455557D01*
X39070643Y5407176D01*
X39046452Y5382986D01*
X38998071Y5358795D01*
X38804547Y5358795D01*
X39530262Y5455557D02*
X39530262Y5116890D01*
X39409309Y5649081D02*
X39288357Y5286224D01*
X39602833Y5286224D01*
X23894747Y3211890D02*
X23894747Y3719890D01*
X24088271Y3719890D01*
X24136652Y3695700D01*
X24160843Y3671510D01*
X24185033Y3623129D01*
X24185033Y3550557D01*
X24160843Y3502176D01*
X24136652Y3477986D01*
X24088271Y3453795D01*
X23894747Y3453795D01*
X24644652Y3719890D02*
X24402747Y3719890D01*
X24378557Y3477986D01*
X24402747Y3502176D01*
X24451128Y3526367D01*
X24572081Y3526367D01*
X24620462Y3502176D01*
X24644652Y3477986D01*
X24668843Y3429605D01*
X24668843Y3308652D01*
X24644652Y3260271D01*
X24620462Y3236081D01*
X24572081Y3211890D01*
X24451128Y3211890D01*
X24402747Y3236081D01*
X24378557Y3260271D01*
X5652710Y1212547D02*
X5144710Y1212547D01*
X5144710Y1406071D01*
X5168900Y1454452D01*
X5193090Y1478643D01*
X5241471Y1502833D01*
X5314043Y1502833D01*
X5362424Y1478643D01*
X5386614Y1454452D01*
X5410805Y1406071D01*
X5410805Y1212547D01*
X5144710Y1938262D02*
X5144710Y1841500D01*
X5168900Y1793119D01*
X5193090Y1768928D01*
X5265662Y1720547D01*
X5362424Y1696357D01*
X5555948Y1696357D01*
X5604329Y1720547D01*
X5628519Y1744738D01*
X5652710Y1793119D01*
X5652710Y1889881D01*
X5628519Y1938262D01*
X5604329Y1962452D01*
X5555948Y1986643D01*
X5434995Y1986643D01*
X5386614Y1962452D01*
X5362424Y1938262D01*
X5338233Y1889881D01*
X5338233Y1793119D01*
X5362424Y1744738D01*
X5386614Y1720547D01*
X5434995Y1696357D01*
X12617147Y8901490D02*
X12617147Y9409490D01*
X12810671Y9409490D01*
X12859052Y9385300D01*
X12883243Y9361110D01*
X12907433Y9312729D01*
X12907433Y9240157D01*
X12883243Y9191776D01*
X12859052Y9167586D01*
X12810671Y9143395D01*
X12617147Y9143395D01*
X13076766Y9409490D02*
X13415433Y9409490D01*
X13197719Y8901490D01*
X1212547Y8901490D02*
X1212547Y9409490D01*
X1406071Y9409490D01*
X1454452Y9385300D01*
X1478643Y9361110D01*
X1502833Y9312729D01*
X1502833Y9240157D01*
X1478643Y9191776D01*
X1454452Y9167586D01*
X1406071Y9143395D01*
X1212547Y9143395D01*
X1793119Y9191776D02*
X1744738Y9215967D01*
X1720547Y9240157D01*
X1696357Y9288538D01*
X1696357Y9312729D01*
X1720547Y9361110D01*
X1744738Y9385300D01*
X1793119Y9409490D01*
X1889881Y9409490D01*
X1938262Y9385300D01*
X1962452Y9361110D01*
X1986643Y9312729D01*
X1986643Y9288538D01*
X1962452Y9240157D01*
X1938262Y9215967D01*
X1889881Y9191776D01*
X1793119Y9191776D01*
X1744738Y9167586D01*
X1720547Y9143395D01*
X1696357Y9095014D01*
X1696357Y8998252D01*
X1720547Y8949871D01*
X1744738Y8925681D01*
X1793119Y8901490D01*
X1889881Y8901490D01*
X1938262Y8925681D01*
X1962452Y8949871D01*
X1986643Y8998252D01*
X1986643Y9095014D01*
X1962452Y9143395D01*
X1938262Y9167586D01*
X1889881Y9191776D01*
X5652710Y12617147D02*
X5144710Y12617147D01*
X5144710Y12810671D01*
X5168900Y12859052D01*
X5193090Y12883243D01*
X5241471Y12907433D01*
X5314043Y12907433D01*
X5362424Y12883243D01*
X5386614Y12859052D01*
X5410805Y12810671D01*
X5410805Y12617147D01*
X5652710Y13149338D02*
X5652710Y13246100D01*
X5628519Y13294481D01*
X5604329Y13318671D01*
X5531757Y13367052D01*
X5434995Y13391243D01*
X5241471Y13391243D01*
X5193090Y13367052D01*
X5168900Y13342862D01*
X5144710Y13294481D01*
X5144710Y13197719D01*
X5168900Y13149338D01*
X5193090Y13125147D01*
X5241471Y13100957D01*
X5362424Y13100957D01*
X5410805Y13125147D01*
X5434995Y13149338D01*
X5459186Y13197719D01*
X5459186Y13294481D01*
X5434995Y13342862D01*
X5410805Y13367052D01*
X5362424Y13391243D01*
X58476242Y3211890D02*
X58476242Y3719890D01*
X58669766Y3719890D01*
X58718147Y3695700D01*
X58742338Y3671510D01*
X58766528Y3623129D01*
X58766528Y3550557D01*
X58742338Y3502176D01*
X58718147Y3477986D01*
X58669766Y3453795D01*
X58476242Y3453795D01*
X59250338Y3211890D02*
X58960052Y3211890D01*
X59105195Y3211890D02*
X59105195Y3719890D01*
X59056814Y3647319D01*
X59008433Y3598938D01*
X58960052Y3574748D01*
X59564814Y3719890D02*
X59613195Y3719890D01*
X59661576Y3695700D01*
X59685767Y3671510D01*
X59709957Y3623129D01*
X59734148Y3526367D01*
X59734148Y3405414D01*
X59709957Y3308652D01*
X59685767Y3260271D01*
X59661576Y3236081D01*
X59613195Y3211890D01*
X59564814Y3211890D01*
X59516433Y3236081D01*
X59492243Y3260271D01*
X59468052Y3308652D01*
X59443862Y3405414D01*
X59443862Y3526367D01*
X59468052Y3623129D01*
X59492243Y3671510D01*
X59516433Y3695700D01*
X59564814Y3719890D01*
X64369042Y103211690D02*
X64369042Y103719690D01*
X64562566Y103719690D01*
X64610947Y103695500D01*
X64635138Y103671310D01*
X64659328Y103622929D01*
X64659328Y103550357D01*
X64635138Y103501976D01*
X64610947Y103477786D01*
X64562566Y103453595D01*
X64369042Y103453595D01*
X65143138Y103211690D02*
X64852852Y103211690D01*
X64997995Y103211690D02*
X64997995Y103719690D01*
X64949614Y103647119D01*
X64901233Y103598738D01*
X64852852Y103574548D01*
X65626948Y103211690D02*
X65336662Y103211690D01*
X65481805Y103211690D02*
X65481805Y103719690D01*
X65433424Y103647119D01*
X65385043Y103598738D01*
X65336662Y103574548D01*
M02*
