M48
;DRILL file {KiCad 4.0.5} date 03/10/17 17:56:34
;FORMAT={2:4/ absolute / inch / suppress leading zeros}
FMAT,2
INCH,TZ
T1C0.005
T2C0.008
T3C0.018
T4C0.020
T5C0.020
T6C0.026
T7C0.030
T8C0.031
T9C0.039
%
G90
G05
M72
T1
X24000Y-57400
X24750Y-59650
X30000Y-54150
X30000Y-54850
X30150Y-51750
X30200Y-50650
X32500Y-50600
X32500Y-51800
X32600Y-55950
X47450Y-45450
X47700Y-51050
X48500Y-50850
X48500Y-51300
X48800Y-47650
X49000Y-51400
X49350Y-51050
X49900Y-51600
X50400Y-51100
X50550Y-56100
X52050Y-52900
X52050Y-53100
X52300Y-52650
X52300Y-54550
X52450Y-53050
X52500Y-52700
X52500Y-54550
X52600Y-59050
X52700Y-52600
X52700Y-54550
X52900Y-52600
X52900Y-54550
X53100Y-54550
X53300Y-54550
X53400Y-59050
X53500Y-54550
X53700Y-52650
X53700Y-54550
X54030Y-53305
X54050Y-53900
X54200Y-57950
X54700Y-57950
X55000Y-57700
X55175Y-55500
X55200Y-57450
X55200Y-57950
X55400Y-57700
X56900Y-49350
X56900Y-50650
X57950Y-46350
X57950Y-46850
X57950Y-47350
X57950Y-47850
X57950Y-48350
X57950Y-48850
X59100Y-45350
X59100Y-45850
X59100Y-46350
X59100Y-46850
X59100Y-47350
X59100Y-47850
X59100Y-48350
X59100Y-48850
X59100Y-49350
X59100Y-49850
X59100Y-50350
T2
X54040Y-53100
T3
X58148Y-51501
X58148Y-54949
T4
X56527Y-49755
X57275Y-49755
T5
X18015Y-56215
X18015Y-58185
X19985Y-56215
X19985Y-58185
T6
X36950Y-44100
X37050Y-60550
X37450Y-44100
X37550Y-60550
X37950Y-44100
X38050Y-60550
X38450Y-44100
X38550Y-60550
X38950Y-44100
X39050Y-60550
X39450Y-44100
X39550Y-60550
X51950Y-44100
X51950Y-60550
X52450Y-44100
X52450Y-60550
X52950Y-44100
X52950Y-60550
X53450Y-44100
X53450Y-60550
X53950Y-44100
X53950Y-60550
X54450Y-44100
X54450Y-60550
T7
X27900Y-40950
X49400Y-48500
X49800Y-50650
T8
X48100Y-52500
X48887Y-52500
T9
X26450Y-49500
X26450Y-50500
X26450Y-51500
X26450Y-52500
X26450Y-53500
X26450Y-54500
X26450Y-55500
X26450Y-56500
X26450Y-57500
X26450Y-58500
X27450Y-49500
X27450Y-50500
X27450Y-51500
X27450Y-52500
X27450Y-53500
X27450Y-54500
X27450Y-55500
X27450Y-56500
X27450Y-57500
X27450Y-58500
X31800Y-44150
X31800Y-45150
X31800Y-46150
X31800Y-47150
X31800Y-48150
X31800Y-49150
X31800Y-50150
X31800Y-51150
X31800Y-52450
X31800Y-53450
X31800Y-54450
X31800Y-55450
X31800Y-56450
X31800Y-57450
X31800Y-58450
X31800Y-59450
X31800Y-60450
X33100Y-45150
X33100Y-46150
X35600Y-47950
X36600Y-47950
X37600Y-47950
X38600Y-47950
X40425Y-47950
X43500Y-56550
X43500Y-57550
X43500Y-58550
X46800Y-44150
X46800Y-45150
X46800Y-46150
X46800Y-47150
X46800Y-48150
X46800Y-49150
X46800Y-50150
X46800Y-51150
X46800Y-52450
X46800Y-53450
X46800Y-54450
X46800Y-55450
X46800Y-56450
X46800Y-57450
X46800Y-58450
X46800Y-59450
X46800Y-60450
X48100Y-45150
X48100Y-46150
X50600Y-47950
X51600Y-47950
X52600Y-47950
X53600Y-47950
X55425Y-47950
X58400Y-56550
X58400Y-57550
X58400Y-58550
T0
M30
