G04 #@! TF.FileFunction,Soldermask,Bot*
%FSLAX46Y46*%
G04 Gerber Fmt 4.6, Leading zero omitted, Abs format (unit mm)*
G04 Created by KiCad (PCBNEW 4.0.5) date 04/12/17 15:12:10*
%MOMM*%
%LPD*%
G01*
G04 APERTURE LIST*
%ADD10C,0.100000*%
%ADD11R,6.880000X2.820000*%
%ADD12R,2.100000X2.100000*%
%ADD13O,2.100000X2.100000*%
%ADD14C,2.100000*%
%ADD15R,1.600000X1.150000*%
%ADD16C,1.187400*%
%ADD17R,0.900000X1.300000*%
%ADD18R,1.300000X0.900000*%
%ADD19C,1.400000*%
G04 APERTURE END LIST*
D10*
D11*
X154499500Y43689500D03*
X154499500Y52449500D03*
D12*
X57594500Y59055000D03*
D13*
X57594500Y56515000D03*
D12*
X32702500Y66421000D03*
D13*
X32702500Y63881000D03*
D12*
X127444500Y59055000D03*
D13*
X127444500Y56515000D03*
D12*
X107378500Y55689500D03*
D14*
X104838500Y55689500D03*
X107378500Y53149500D03*
X104838500Y53149500D03*
X107378500Y50609500D03*
X104838500Y50609500D03*
X107378500Y48069500D03*
X104838500Y48069500D03*
X107378500Y45529500D03*
X104838500Y45529500D03*
X107378500Y42989500D03*
X104838500Y42989500D03*
X107378500Y40449500D03*
X104838500Y40449500D03*
X107378500Y37909500D03*
X104838500Y37909500D03*
X107378500Y35369500D03*
X104838500Y35369500D03*
X107378500Y32829500D03*
X104838500Y32829500D03*
D12*
X9144000Y64071500D03*
D13*
X9144000Y66611500D03*
D12*
X107378500Y16637000D03*
D13*
X107378500Y19177000D03*
D15*
X7300000Y6413500D03*
X5400000Y6413500D03*
D12*
X57594500Y84455000D03*
D13*
X60134500Y84455000D03*
D12*
X32702500Y19431000D03*
D13*
X32702500Y16891000D03*
D12*
X86042500Y19431000D03*
D13*
X86042500Y16891000D03*
D12*
X86042500Y66421000D03*
D13*
X86042500Y63881000D03*
D12*
X155829000Y66421000D03*
D13*
X155829000Y63881000D03*
D12*
X155829000Y19431000D03*
D13*
X155829000Y16891000D03*
D12*
X102489000Y19431000D03*
D13*
X102489000Y16891000D03*
D12*
X102489000Y66421000D03*
D13*
X102489000Y63881000D03*
D16*
X3848100Y11391900D03*
X8851900Y11391900D03*
X8851900Y6388100D03*
X3848100Y6388100D03*
D17*
X11494200Y9017000D03*
X9994200Y9017000D03*
X126289500Y44704000D03*
X124789500Y44704000D03*
X126289500Y46228000D03*
X124789500Y46228000D03*
X126289500Y47752000D03*
X124789500Y47752000D03*
X118312500Y43243500D03*
X119812500Y43243500D03*
X118312500Y48260000D03*
X119812500Y48260000D03*
D18*
X109728000Y51256500D03*
X109728000Y52756500D03*
D19*
X143954500Y57150000D03*
X142054500Y57150000D03*
D12*
X115887500Y38100000D03*
D13*
X115887500Y40640000D03*
X115887500Y43180000D03*
X115887500Y45720000D03*
X115887500Y48260000D03*
X115887500Y50800000D03*
X115887500Y53340000D03*
X115887500Y55880000D03*
X115887500Y58420000D03*
X115887500Y60960000D03*
D12*
X68580000Y30480000D03*
D13*
X66040000Y30480000D03*
X63500000Y30480000D03*
X60960000Y30480000D03*
X58420000Y30480000D03*
X55880000Y30480000D03*
D12*
X68580000Y5080000D03*
D13*
X66040000Y5080000D03*
X63500000Y5080000D03*
X60960000Y5080000D03*
X58420000Y5080000D03*
X55880000Y5080000D03*
D12*
X138430000Y30480000D03*
D13*
X135890000Y30480000D03*
X133350000Y30480000D03*
X130810000Y30480000D03*
X128270000Y30480000D03*
X125730000Y30480000D03*
D12*
X46037500Y16573500D03*
D13*
X46037500Y19113500D03*
X46037500Y21653500D03*
X46037500Y24193500D03*
X46037500Y26733500D03*
X46037500Y29273500D03*
X46037500Y31813500D03*
X46037500Y34353500D03*
D12*
X24447500Y29210000D03*
D13*
X24447500Y31750000D03*
X24447500Y34290000D03*
X24447500Y36830000D03*
X24447500Y39370000D03*
X24447500Y41910000D03*
X24447500Y44450000D03*
X24447500Y46990000D03*
D12*
X115887500Y16573500D03*
D13*
X115887500Y19113500D03*
X115887500Y21653500D03*
X115887500Y24193500D03*
X115887500Y26733500D03*
X115887500Y29273500D03*
X115887500Y31813500D03*
X115887500Y34353500D03*
D12*
X46037500Y38100000D03*
D13*
X46037500Y40640000D03*
X46037500Y43180000D03*
X46037500Y45720000D03*
X46037500Y48260000D03*
X46037500Y50800000D03*
X46037500Y53340000D03*
X46037500Y55880000D03*
X46037500Y58420000D03*
X46037500Y60960000D03*
D12*
X24447500Y50736500D03*
D13*
X24447500Y53276500D03*
X24447500Y55816500D03*
X24447500Y58356500D03*
X24447500Y60896500D03*
X24447500Y63436500D03*
X24447500Y65976500D03*
X24447500Y68516500D03*
X24447500Y71056500D03*
X24447500Y73596500D03*
D12*
X6197600Y71907400D03*
D13*
X8737600Y71907400D03*
M02*
