G04 #@! TF.FileFunction,Copper,L2,Bot,Signal*
%FSLAX46Y46*%
G04 Gerber Fmt 4.6, Leading zero omitted, Abs format (unit mm)*
G04 Created by KiCad (PCBNEW 4.0.5) date 03/10/17 17:56:50*
%MOMM*%
%LPD*%
G01*
G04 APERTURE LIST*
%ADD10C,0.100000*%
%ADD11R,1.350000X1.350000*%
%ADD12O,1.350000X1.350000*%
%ADD13R,1.700000X1.700000*%
%ADD14C,1.700000*%
%ADD15R,1.000000X1.000000*%
%ADD16O,1.000000X1.000000*%
%ADD17R,5.080000X2.420000*%
%ADD18C,0.970000*%
%ADD19R,0.914400X0.482600*%
%ADD20C,0.787400*%
%ADD21R,0.900000X0.500000*%
%ADD22C,1.000000*%
%ADD23O,1.700000X1.700000*%
%ADD24C,0.254000*%
%ADD25C,1.016000*%
%ADD26C,0.254000*%
%ADD27C,1.016000*%
%ADD28C,0.508000*%
%ADD29C,0.127000*%
G04 APERTURE END LIST*
D10*
D11*
X122174000Y-133350000D03*
D12*
X124174000Y-133350000D03*
D13*
X69723000Y-148590000D03*
D14*
X67183000Y-148590000D03*
X69723000Y-146050000D03*
X67183000Y-146050000D03*
X69723000Y-143510000D03*
X67183000Y-143510000D03*
X69723000Y-140970000D03*
X67183000Y-140970000D03*
X69723000Y-138430000D03*
X67183000Y-138430000D03*
X69723000Y-135890000D03*
X67183000Y-135890000D03*
X69723000Y-133350000D03*
X67183000Y-133350000D03*
X69723000Y-130810000D03*
X67183000Y-130810000D03*
X69723000Y-128270000D03*
X67183000Y-128270000D03*
X69723000Y-125730000D03*
X67183000Y-125730000D03*
D15*
X131953000Y-153797000D03*
D16*
X133223000Y-153797000D03*
X134493000Y-153797000D03*
X135763000Y-153797000D03*
X137033000Y-153797000D03*
X138303000Y-153797000D03*
D15*
X131953000Y-112014000D03*
D16*
X133223000Y-112014000D03*
X134493000Y-112014000D03*
X135763000Y-112014000D03*
X137033000Y-112014000D03*
X138303000Y-112014000D03*
D15*
X94107000Y-153797000D03*
D16*
X95377000Y-153797000D03*
X96647000Y-153797000D03*
X97917000Y-153797000D03*
X99187000Y-153797000D03*
X100457000Y-153797000D03*
D15*
X93853000Y-112014000D03*
D16*
X95123000Y-112014000D03*
X96393000Y-112014000D03*
X97663000Y-112014000D03*
X98933000Y-112014000D03*
X100203000Y-112014000D03*
D17*
X151135500Y-139571500D03*
X151135500Y-130811500D03*
D18*
X147695500Y-139571500D03*
X147695500Y-130811500D03*
D19*
X148145500Y-139571500D03*
X148145500Y-130811500D03*
D20*
X45758100Y-147789900D03*
X45758100Y-142786100D03*
X50761900Y-142786100D03*
X50761900Y-147789900D03*
D21*
X140779500Y-124027500D03*
X140779500Y-125527500D03*
X128016000Y-132322000D03*
X128016000Y-130822000D03*
X125857000Y-140855000D03*
X125857000Y-142355000D03*
X130683000Y-143371000D03*
X130683000Y-141871000D03*
D22*
X145478500Y-126377700D03*
X143578500Y-126377700D03*
D13*
X128524000Y-121793000D03*
D23*
X131064000Y-121793000D03*
X133604000Y-121793000D03*
X136144000Y-121793000D03*
D13*
X90424000Y-121793000D03*
D23*
X92964000Y-121793000D03*
X95504000Y-121793000D03*
X98044000Y-121793000D03*
D13*
X102679500Y-121793000D03*
X84074000Y-117221000D03*
D23*
X84074000Y-114681000D03*
D13*
X118872000Y-129921000D03*
D23*
X118872000Y-127381000D03*
X118872000Y-124841000D03*
X118872000Y-122301000D03*
X118872000Y-119761000D03*
X118872000Y-117221000D03*
X118872000Y-114681000D03*
X118872000Y-112141000D03*
D13*
X80772000Y-129921000D03*
D23*
X80772000Y-127381000D03*
X80772000Y-124841000D03*
X80772000Y-122301000D03*
X80772000Y-119761000D03*
X80772000Y-117221000D03*
X80772000Y-114681000D03*
X80772000Y-112141000D03*
D13*
X110490000Y-148717000D03*
D23*
X110490000Y-146177000D03*
X110490000Y-143637000D03*
D13*
X122174000Y-117221000D03*
D23*
X122174000Y-114681000D03*
D13*
X118872000Y-153543000D03*
D23*
X118872000Y-151003000D03*
X118872000Y-148463000D03*
X118872000Y-145923000D03*
X118872000Y-143383000D03*
X118872000Y-140843000D03*
X118872000Y-138303000D03*
X118872000Y-135763000D03*
X118872000Y-133223000D03*
D13*
X80772000Y-153543000D03*
D23*
X80772000Y-151003000D03*
X80772000Y-148463000D03*
X80772000Y-145923000D03*
X80772000Y-143383000D03*
X80772000Y-140843000D03*
X80772000Y-138303000D03*
X80772000Y-135763000D03*
X80772000Y-133223000D03*
D13*
X148336000Y-148717000D03*
D23*
X148336000Y-146177000D03*
X148336000Y-143637000D03*
D13*
X140779500Y-121793000D03*
D24*
X140716000Y-146558000D03*
X139700000Y-146558000D03*
X137668000Y-147193000D03*
X138938000Y-147193000D03*
X140208000Y-147193000D03*
X140208000Y-145923000D03*
X150114000Y-115189000D03*
X150114000Y-116459000D03*
X150114000Y-117729000D03*
X150114000Y-118999000D03*
X150114000Y-120269000D03*
X150114000Y-121539000D03*
X150114000Y-122809000D03*
X150114000Y-127889000D03*
X150114000Y-126619000D03*
X150114000Y-125349000D03*
X150114000Y-124079000D03*
X144526000Y-125349000D03*
X147193000Y-117729000D03*
X147193000Y-118999000D03*
X147193000Y-120269000D03*
X147193000Y-121539000D03*
X147193000Y-122809000D03*
X147193000Y-124079000D03*
X126746000Y-131064000D03*
X128016000Y-129794000D03*
X133350000Y-133858000D03*
X133223000Y-134747000D03*
X124460000Y-130556000D03*
D25*
X126492000Y-128651000D03*
X125476000Y-123190000D03*
D24*
X128397000Y-142494000D03*
D25*
X70866000Y-104013000D03*
D24*
X137287000Y-136906000D03*
X140144500Y-140970000D03*
X144526000Y-128651000D03*
X137236200Y-135394700D03*
X137261600Y-134874000D03*
X82804000Y-142113000D03*
X76200000Y-137541000D03*
X76200000Y-139319000D03*
X76581000Y-131445000D03*
X82550000Y-131572000D03*
X82550000Y-128524000D03*
X76708000Y-128651000D03*
X123190000Y-130302000D03*
X123190000Y-129159000D03*
X132842000Y-138557000D03*
X134366000Y-138557000D03*
X125349000Y-129667000D03*
X121158000Y-129667000D03*
X120523000Y-115443000D03*
X132207000Y-134366000D03*
X132207000Y-134874000D03*
X123952000Y-121031000D03*
X133604000Y-149987000D03*
X135636000Y-149987000D03*
X133858000Y-138557000D03*
X133350000Y-138557000D03*
X132842000Y-133731000D03*
X133858000Y-133604000D03*
X134366000Y-133604000D03*
X134874000Y-138557000D03*
X135382000Y-138557000D03*
X135890000Y-138557000D03*
X136398000Y-138557000D03*
X62865000Y-151511000D03*
X60960000Y-145796000D03*
X136398000Y-133731000D03*
D26*
X128016000Y-132322000D02*
X128004000Y-132322000D01*
X128004000Y-132322000D02*
X126746000Y-131064000D01*
X133350000Y-133858000D02*
X133223000Y-133985000D01*
X133223000Y-133985000D02*
X133223000Y-134747000D01*
D27*
X131953000Y-112014000D02*
X138303000Y-112014000D01*
X97917000Y-111633000D02*
X97917000Y-102489000D01*
X91694000Y-96266000D02*
X97917000Y-102489000D01*
X78613000Y-96266000D02*
X91694000Y-96266000D01*
X78613000Y-96266000D02*
X70866000Y-104013000D01*
X97917000Y-111633000D02*
X97536000Y-112014000D01*
X97536000Y-112014000D02*
X100203000Y-112014000D01*
X100203000Y-112014000D02*
X93853000Y-112014000D01*
D28*
X122174000Y-131826000D02*
X122174000Y-133350000D01*
X122555000Y-131445000D02*
X122174000Y-131826000D01*
X123571000Y-131445000D02*
X122555000Y-131445000D01*
X124460000Y-130556000D02*
X123571000Y-131445000D01*
D27*
X126492000Y-124206000D02*
X126492000Y-128651000D01*
X125476000Y-123190000D02*
X126492000Y-124206000D01*
D26*
X128397000Y-141986000D02*
X128397000Y-142494000D01*
X125857000Y-142355000D02*
X127647000Y-142355000D01*
X127647000Y-142355000D02*
X128016000Y-141986000D01*
X130683000Y-141986000D02*
X128397000Y-141986000D01*
X128397000Y-141986000D02*
X128016000Y-141986000D01*
X130683000Y-141986000D02*
X130683000Y-141871000D01*
X130683000Y-141859000D02*
X130683000Y-141871000D01*
D28*
X130683000Y-141859000D02*
X130683000Y-141871000D01*
D26*
X137287000Y-136906000D02*
X140144500Y-139763500D01*
X140144500Y-139763500D02*
X140144500Y-140970000D01*
X144526000Y-129921000D02*
X144526000Y-128651000D01*
X139052300Y-135394700D02*
X144526000Y-129921000D01*
X144526000Y-129921000D02*
X144399000Y-130048000D01*
X137236200Y-135394700D02*
X139052300Y-135394700D01*
X143700500Y-127924560D02*
X145249900Y-126375160D01*
X145249900Y-126375160D02*
X145481040Y-126375160D01*
X145481040Y-126375160D02*
X145478500Y-126377700D01*
X142430500Y-130771900D02*
X143700500Y-129501900D01*
X143700500Y-129501900D02*
X143700500Y-127924560D01*
X143700500Y-127924560D02*
X143700500Y-127952500D01*
X137261600Y-134874000D02*
X138328400Y-134874000D01*
X138328400Y-134874000D02*
X142430500Y-130771900D01*
X142430500Y-130771900D02*
X142443200Y-130759200D01*
D28*
X110490000Y-146177000D02*
X86868000Y-146177000D01*
X86868000Y-146177000D02*
X82804000Y-142113000D01*
X84074000Y-114681000D02*
X83566000Y-114681000D01*
X83566000Y-114681000D02*
X82296000Y-115951000D01*
X82296000Y-115951000D02*
X79121000Y-115951000D01*
X79121000Y-115951000D02*
X77724000Y-117348000D01*
X77724000Y-117348000D02*
X77724000Y-136017000D01*
X77724000Y-136017000D02*
X76200000Y-137541000D01*
X76200000Y-139319000D02*
X74549000Y-140970000D01*
X74549000Y-140970000D02*
X69723000Y-140970000D01*
X84074000Y-117221000D02*
X84074000Y-119507000D01*
X76581000Y-138430000D02*
X69723000Y-138430000D01*
X78867000Y-136144000D02*
X76581000Y-138430000D01*
X78867000Y-121793000D02*
X78867000Y-136144000D01*
X79629000Y-121031000D02*
X78867000Y-121793000D01*
X82550000Y-121031000D02*
X79629000Y-121031000D01*
X84074000Y-119507000D02*
X82550000Y-121031000D01*
X110490000Y-143637000D02*
X94615000Y-143637000D01*
X74676000Y-133350000D02*
X69723000Y-133350000D01*
X76581000Y-131445000D02*
X74676000Y-133350000D01*
X94615000Y-143637000D02*
X82550000Y-131572000D01*
X102679500Y-121793000D02*
X102679500Y-122491500D01*
X102679500Y-122491500D02*
X96647000Y-128524000D01*
X96647000Y-128524000D02*
X82550000Y-128524000D01*
X76708000Y-128651000D02*
X74549000Y-130810000D01*
X74549000Y-130810000D02*
X69723000Y-130810000D01*
D26*
X123190000Y-129159000D02*
X123190000Y-130302000D01*
X118872000Y-135763000D02*
X124206000Y-135763000D01*
X127000000Y-138557000D02*
X132842000Y-138557000D01*
X124206000Y-135763000D02*
X127000000Y-138557000D01*
X118872000Y-143383000D02*
X130683000Y-143383000D01*
X130683000Y-143383000D02*
X134366000Y-139700000D01*
X134366000Y-139700000D02*
X134366000Y-138557000D01*
X126873000Y-129667000D02*
X128016000Y-130810000D01*
X128016000Y-130810000D02*
X128016000Y-130822000D01*
X125349000Y-129667000D02*
X126873000Y-129667000D01*
X121158000Y-129540000D02*
X121158000Y-129667000D01*
X120523000Y-128905000D02*
X121158000Y-129540000D01*
X120523000Y-115443000D02*
X120523000Y-128905000D01*
X130683000Y-134366000D02*
X132207000Y-134366000D01*
X129413000Y-133096000D02*
X130683000Y-134366000D01*
X129413000Y-132207000D02*
X129413000Y-133096000D01*
X126873000Y-129667000D02*
X129413000Y-132207000D01*
X125476000Y-130302000D02*
X125476000Y-131699000D01*
X128016000Y-134874000D02*
X132207000Y-134874000D01*
X125476000Y-131699000D02*
X128016000Y-134874000D01*
X125476000Y-130302000D02*
X123952000Y-129413000D01*
X123952000Y-121031000D02*
X123952000Y-129413000D01*
X135636000Y-149987000D02*
X133604000Y-149987000D01*
X125857000Y-140855000D02*
X125857000Y-140843000D01*
X125857000Y-140843000D02*
X132207000Y-140843000D01*
X132207000Y-140843000D02*
X133858000Y-139192000D01*
X133858000Y-139192000D02*
X133858000Y-138557000D01*
X118872000Y-140843000D02*
X132207000Y-140843000D01*
X133858000Y-139192000D02*
X133858000Y-138557000D01*
X132207000Y-140843000D02*
X133858000Y-139192000D01*
X118872000Y-138303000D02*
X125349000Y-138303000D01*
X133350000Y-138938000D02*
X133350000Y-138557000D01*
X132207000Y-140081000D02*
X133350000Y-138938000D01*
X127127000Y-140081000D02*
X132207000Y-140081000D01*
X125349000Y-138303000D02*
X127127000Y-140081000D01*
X128524000Y-121793000D02*
X128524000Y-125476000D01*
X132842000Y-129794000D02*
X132842000Y-133731000D01*
X128524000Y-125476000D02*
X132842000Y-129794000D01*
X131064000Y-121793000D02*
X131064000Y-127000000D01*
X133858000Y-129794000D02*
X133858000Y-133604000D01*
X131064000Y-127000000D02*
X133858000Y-129794000D01*
X133604000Y-121793000D02*
X133604000Y-128397000D01*
X133604000Y-128397000D02*
X134366000Y-129159000D01*
X134366000Y-129159000D02*
X134366000Y-133604000D01*
X118872000Y-145923000D02*
X131445000Y-145923000D01*
X134874000Y-140208000D02*
X134874000Y-138557000D01*
X133350000Y-141732000D02*
X134874000Y-140208000D01*
X133350000Y-144018000D02*
X133350000Y-141732000D01*
X131445000Y-145923000D02*
X133350000Y-144018000D01*
X118872000Y-148463000D02*
X131445000Y-148463000D01*
X135382000Y-140462000D02*
X135382000Y-138557000D01*
X133985000Y-141859000D02*
X135382000Y-140462000D01*
X133985000Y-145923000D02*
X133985000Y-141859000D01*
X131445000Y-148463000D02*
X133985000Y-145923000D01*
X118872000Y-151003000D02*
X129921000Y-151003000D01*
X135890000Y-140970000D02*
X135890000Y-138557000D01*
X134747000Y-142113000D02*
X135890000Y-140970000D01*
X134747000Y-146177000D02*
X134747000Y-142113000D01*
X129921000Y-151003000D02*
X134747000Y-146177000D01*
X118872000Y-153543000D02*
X128397000Y-153543000D01*
X136398000Y-141224000D02*
X136398000Y-138557000D01*
X135382000Y-142240000D02*
X136398000Y-141224000D01*
X135382000Y-146558000D02*
X135382000Y-142240000D01*
X128397000Y-153543000D02*
X135382000Y-146558000D01*
D28*
X78740000Y-137795000D02*
X80772000Y-135763000D01*
X78740000Y-147701000D02*
X78740000Y-137795000D01*
X74930000Y-151511000D02*
X78740000Y-147701000D01*
X62865000Y-151511000D02*
X74930000Y-151511000D01*
X79629000Y-148463000D02*
X80772000Y-148463000D01*
X75565000Y-152527000D02*
X79629000Y-148463000D01*
X61595000Y-152527000D02*
X75565000Y-152527000D01*
X60960000Y-151892000D02*
X61595000Y-152527000D01*
X60960000Y-151003000D02*
X60960000Y-151892000D01*
X60960000Y-148844000D02*
X60960000Y-151003000D01*
X60960000Y-145796000D02*
X60960000Y-148844000D01*
D26*
X140779500Y-121793000D02*
X140779500Y-124015500D01*
X140779500Y-124015500D02*
X140779500Y-124027500D01*
X140779500Y-125527500D02*
X140779500Y-129349500D01*
X140779500Y-129349500D02*
X136398000Y-133731000D01*
X118872000Y-127381000D02*
X118872000Y-127635000D01*
D29*
G36*
X153987500Y-155638500D02*
X116649500Y-155638500D01*
X116649500Y-142105000D01*
X125212768Y-142105000D01*
X125212768Y-142605000D01*
X125226051Y-142675595D01*
X125267773Y-142740432D01*
X125331433Y-142783929D01*
X125407000Y-142799232D01*
X126307000Y-142799232D01*
X126377595Y-142785949D01*
X126442432Y-142744227D01*
X126485929Y-142680567D01*
X126487563Y-142672500D01*
X127647000Y-142672500D01*
X127768502Y-142648332D01*
X127871506Y-142579506D01*
X128079500Y-142371513D01*
X128079500Y-142493723D01*
X128079445Y-142556878D01*
X128127680Y-142673614D01*
X128216916Y-142763006D01*
X128333568Y-142811445D01*
X128459878Y-142811555D01*
X128518501Y-142787332D01*
X128518502Y-142787332D01*
X128518503Y-142787331D01*
X128576614Y-142763320D01*
X128666006Y-142674084D01*
X128714445Y-142557432D01*
X128714555Y-142431122D01*
X128714500Y-142430989D01*
X128714500Y-142303500D01*
X130175067Y-142303500D01*
X130233000Y-142315232D01*
X130681653Y-142315232D01*
X130683000Y-142315500D01*
X130684347Y-142315232D01*
X131133000Y-142315232D01*
X131203595Y-142301949D01*
X131268432Y-142260227D01*
X131311929Y-142196567D01*
X131327232Y-142121000D01*
X131327232Y-141621000D01*
X131313949Y-141550405D01*
X131272227Y-141485568D01*
X131208567Y-141442071D01*
X131133000Y-141426768D01*
X130744675Y-141426768D01*
X130683000Y-141414500D01*
X130621325Y-141426768D01*
X130233000Y-141426768D01*
X130162405Y-141440051D01*
X130097568Y-141481773D01*
X130054071Y-141545433D01*
X130038768Y-141621000D01*
X130038768Y-141668500D01*
X128016000Y-141668500D01*
X127894498Y-141692668D01*
X127791494Y-141761493D01*
X127515488Y-142037500D01*
X126488531Y-142037500D01*
X126487949Y-142034405D01*
X126446227Y-141969568D01*
X126382567Y-141926071D01*
X126307000Y-141910768D01*
X125407000Y-141910768D01*
X125336405Y-141924051D01*
X125271568Y-141965773D01*
X125228071Y-142029433D01*
X125212768Y-142105000D01*
X116649500Y-142105000D01*
X116649500Y-135763000D01*
X117811115Y-135763000D01*
X117890318Y-136161182D01*
X118115870Y-136498745D01*
X118453433Y-136724297D01*
X118851615Y-136803500D01*
X118892385Y-136803500D01*
X119290567Y-136724297D01*
X119628130Y-136498745D01*
X119853682Y-136161182D01*
X119869731Y-136080500D01*
X124074488Y-136080500D01*
X126775494Y-138781507D01*
X126878498Y-138850332D01*
X127000000Y-138874500D01*
X132841723Y-138874500D01*
X132904878Y-138874555D01*
X132963501Y-138850332D01*
X132963502Y-138850332D01*
X132963503Y-138850331D01*
X133006369Y-138832619D01*
X132075488Y-139763500D01*
X127258513Y-139763500D01*
X125573506Y-138078494D01*
X125470502Y-138009668D01*
X125349000Y-137985500D01*
X119869731Y-137985500D01*
X119853682Y-137904818D01*
X119628130Y-137567255D01*
X119290567Y-137341703D01*
X118892385Y-137262500D01*
X118851615Y-137262500D01*
X118453433Y-137341703D01*
X118115870Y-137567255D01*
X117890318Y-137904818D01*
X117811115Y-138303000D01*
X117890318Y-138701182D01*
X118115870Y-139038745D01*
X118453433Y-139264297D01*
X118851615Y-139343500D01*
X118892385Y-139343500D01*
X119290567Y-139264297D01*
X119628130Y-139038745D01*
X119853682Y-138701182D01*
X119869731Y-138620500D01*
X125217488Y-138620500D01*
X126902494Y-140305507D01*
X127005498Y-140374332D01*
X127127000Y-140398500D01*
X132202488Y-140398500D01*
X132075488Y-140525500D01*
X126482219Y-140525500D01*
X126446227Y-140469568D01*
X126382567Y-140426071D01*
X126307000Y-140410768D01*
X125407000Y-140410768D01*
X125336405Y-140424051D01*
X125271568Y-140465773D01*
X125230758Y-140525500D01*
X119869731Y-140525500D01*
X119853682Y-140444818D01*
X119628130Y-140107255D01*
X119290567Y-139881703D01*
X118892385Y-139802500D01*
X118851615Y-139802500D01*
X118453433Y-139881703D01*
X118115870Y-140107255D01*
X117890318Y-140444818D01*
X117811115Y-140843000D01*
X117890318Y-141241182D01*
X118115870Y-141578745D01*
X118453433Y-141804297D01*
X118851615Y-141883500D01*
X118892385Y-141883500D01*
X119290567Y-141804297D01*
X119628130Y-141578745D01*
X119853682Y-141241182D01*
X119869731Y-141160500D01*
X125223211Y-141160500D01*
X125226051Y-141175595D01*
X125267773Y-141240432D01*
X125331433Y-141283929D01*
X125407000Y-141299232D01*
X126307000Y-141299232D01*
X126377595Y-141285949D01*
X126442432Y-141244227D01*
X126485929Y-141180567D01*
X126489993Y-141160500D01*
X132207000Y-141160500D01*
X132328502Y-141136332D01*
X132431506Y-141067506D01*
X134048500Y-139450513D01*
X134048500Y-139568487D01*
X130690220Y-142926768D01*
X130233000Y-142926768D01*
X130162405Y-142940051D01*
X130097568Y-142981773D01*
X130054071Y-143045433D01*
X130050007Y-143065500D01*
X119869731Y-143065500D01*
X119853682Y-142984818D01*
X119628130Y-142647255D01*
X119290567Y-142421703D01*
X118892385Y-142342500D01*
X118851615Y-142342500D01*
X118453433Y-142421703D01*
X118115870Y-142647255D01*
X117890318Y-142984818D01*
X117811115Y-143383000D01*
X117890318Y-143781182D01*
X118115870Y-144118745D01*
X118453433Y-144344297D01*
X118851615Y-144423500D01*
X118892385Y-144423500D01*
X119290567Y-144344297D01*
X119628130Y-144118745D01*
X119853682Y-143781182D01*
X119869731Y-143700500D01*
X130057781Y-143700500D01*
X130093773Y-143756432D01*
X130157433Y-143799929D01*
X130233000Y-143815232D01*
X131133000Y-143815232D01*
X131203595Y-143801949D01*
X131268432Y-143760227D01*
X131311929Y-143696567D01*
X131327232Y-143621000D01*
X131327232Y-143187780D01*
X134556500Y-139958513D01*
X134556500Y-140076487D01*
X133125494Y-141507494D01*
X133056668Y-141610498D01*
X133032500Y-141732000D01*
X133032500Y-143886487D01*
X131313488Y-145605500D01*
X119869731Y-145605500D01*
X119853682Y-145524818D01*
X119628130Y-145187255D01*
X119290567Y-144961703D01*
X118892385Y-144882500D01*
X118851615Y-144882500D01*
X118453433Y-144961703D01*
X118115870Y-145187255D01*
X117890318Y-145524818D01*
X117811115Y-145923000D01*
X117890318Y-146321182D01*
X118115870Y-146658745D01*
X118453433Y-146884297D01*
X118851615Y-146963500D01*
X118892385Y-146963500D01*
X119290567Y-146884297D01*
X119628130Y-146658745D01*
X119853682Y-146321182D01*
X119869731Y-146240500D01*
X131445000Y-146240500D01*
X131566502Y-146216332D01*
X131669506Y-146147506D01*
X133574507Y-144242506D01*
X133643332Y-144139502D01*
X133667500Y-144018000D01*
X133667500Y-145791487D01*
X131313488Y-148145500D01*
X119869731Y-148145500D01*
X119853682Y-148064818D01*
X119628130Y-147727255D01*
X119290567Y-147501703D01*
X118892385Y-147422500D01*
X118851615Y-147422500D01*
X118453433Y-147501703D01*
X118115870Y-147727255D01*
X117890318Y-148064818D01*
X117811115Y-148463000D01*
X117890318Y-148861182D01*
X118115870Y-149198745D01*
X118453433Y-149424297D01*
X118851615Y-149503500D01*
X118892385Y-149503500D01*
X119290567Y-149424297D01*
X119628130Y-149198745D01*
X119853682Y-148861182D01*
X119869731Y-148780500D01*
X131445000Y-148780500D01*
X131566502Y-148756332D01*
X131669506Y-148687506D01*
X134209506Y-146147507D01*
X134278332Y-146044502D01*
X134302500Y-145923000D01*
X134302500Y-141990512D01*
X135572500Y-140720513D01*
X135572500Y-140838488D01*
X134522494Y-141888494D01*
X134453668Y-141991498D01*
X134429500Y-142113000D01*
X134429500Y-146045487D01*
X129789488Y-150685500D01*
X119869731Y-150685500D01*
X119853682Y-150604818D01*
X119628130Y-150267255D01*
X119290567Y-150041703D01*
X118892385Y-149962500D01*
X118851615Y-149962500D01*
X118453433Y-150041703D01*
X118115870Y-150267255D01*
X117890318Y-150604818D01*
X117811115Y-151003000D01*
X117890318Y-151401182D01*
X118115870Y-151738745D01*
X118453433Y-151964297D01*
X118851615Y-152043500D01*
X118892385Y-152043500D01*
X119290567Y-151964297D01*
X119628130Y-151738745D01*
X119853682Y-151401182D01*
X119869731Y-151320500D01*
X129921000Y-151320500D01*
X130042502Y-151296332D01*
X130145506Y-151227506D01*
X134971507Y-146401506D01*
X135040332Y-146298502D01*
X135064500Y-146177000D01*
X135064500Y-146426487D01*
X128265488Y-153225500D01*
X119916232Y-153225500D01*
X119916232Y-152693000D01*
X119902949Y-152622405D01*
X119861227Y-152557568D01*
X119797567Y-152514071D01*
X119722000Y-152498768D01*
X118022000Y-152498768D01*
X117951405Y-152512051D01*
X117886568Y-152553773D01*
X117843071Y-152617433D01*
X117827768Y-152693000D01*
X117827768Y-154393000D01*
X117841051Y-154463595D01*
X117882773Y-154528432D01*
X117946433Y-154571929D01*
X118022000Y-154587232D01*
X119722000Y-154587232D01*
X119792595Y-154573949D01*
X119857432Y-154532227D01*
X119900929Y-154468567D01*
X119916232Y-154393000D01*
X119916232Y-154130375D01*
X130881500Y-154130375D01*
X130881500Y-154410678D01*
X130968506Y-154620728D01*
X131129271Y-154781494D01*
X131339321Y-154868500D01*
X131619625Y-154868500D01*
X131762500Y-154725625D01*
X131762500Y-153987500D01*
X132143500Y-153987500D01*
X132143500Y-154725625D01*
X132286375Y-154868500D01*
X132566679Y-154868500D01*
X132776729Y-154781494D01*
X132784806Y-154773417D01*
X132869896Y-154808647D01*
X133032500Y-154705875D01*
X133032500Y-153987500D01*
X133413500Y-153987500D01*
X133413500Y-154705875D01*
X133576104Y-154808647D01*
X133688672Y-154762041D01*
X133858000Y-154634401D01*
X134027328Y-154762041D01*
X134139896Y-154808647D01*
X134302500Y-154705875D01*
X134302500Y-153987500D01*
X134683500Y-153987500D01*
X134683500Y-154705875D01*
X134846104Y-154808647D01*
X134958672Y-154762041D01*
X135128000Y-154634401D01*
X135297328Y-154762041D01*
X135409896Y-154808647D01*
X135572500Y-154705875D01*
X135572500Y-153987500D01*
X135953500Y-153987500D01*
X135953500Y-154705875D01*
X136116104Y-154808647D01*
X136228672Y-154762041D01*
X136398000Y-154634401D01*
X136567328Y-154762041D01*
X136679896Y-154808647D01*
X136842500Y-154705875D01*
X136842500Y-153987500D01*
X137223500Y-153987500D01*
X137223500Y-154705875D01*
X137386104Y-154808647D01*
X137498672Y-154762041D01*
X137668000Y-154634401D01*
X137837328Y-154762041D01*
X137949896Y-154808647D01*
X138112500Y-154705875D01*
X138112500Y-153987500D01*
X138493500Y-153987500D01*
X138493500Y-154705875D01*
X138656104Y-154808647D01*
X138768672Y-154762041D01*
X139102530Y-154510377D01*
X139314667Y-154150107D01*
X139214575Y-153987500D01*
X138493500Y-153987500D01*
X138112500Y-153987500D01*
X137223500Y-153987500D01*
X136842500Y-153987500D01*
X135953500Y-153987500D01*
X135572500Y-153987500D01*
X134683500Y-153987500D01*
X134302500Y-153987500D01*
X133413500Y-153987500D01*
X133032500Y-153987500D01*
X132143500Y-153987500D01*
X131762500Y-153987500D01*
X131024375Y-153987500D01*
X130881500Y-154130375D01*
X119916232Y-154130375D01*
X119916232Y-153860500D01*
X128397000Y-153860500D01*
X128518502Y-153836332D01*
X128621506Y-153767506D01*
X129205690Y-153183322D01*
X130881500Y-153183322D01*
X130881500Y-153463625D01*
X131024375Y-153606500D01*
X131762500Y-153606500D01*
X131762500Y-152868375D01*
X132143500Y-152868375D01*
X132143500Y-153606500D01*
X133032500Y-153606500D01*
X133032500Y-152888125D01*
X133413500Y-152888125D01*
X133413500Y-153606500D01*
X134302500Y-153606500D01*
X134302500Y-152888125D01*
X134683500Y-152888125D01*
X134683500Y-153606500D01*
X135572500Y-153606500D01*
X135572500Y-152888125D01*
X135953500Y-152888125D01*
X135953500Y-153606500D01*
X136842500Y-153606500D01*
X136842500Y-152888125D01*
X137223500Y-152888125D01*
X137223500Y-153606500D01*
X138112500Y-153606500D01*
X138112500Y-152888125D01*
X138493500Y-152888125D01*
X138493500Y-153606500D01*
X139214575Y-153606500D01*
X139314667Y-153443893D01*
X139102530Y-153083623D01*
X138768672Y-152831959D01*
X138656104Y-152785353D01*
X138493500Y-152888125D01*
X138112500Y-152888125D01*
X137949896Y-152785353D01*
X137837328Y-152831959D01*
X137668000Y-152959599D01*
X137498672Y-152831959D01*
X137386104Y-152785353D01*
X137223500Y-152888125D01*
X136842500Y-152888125D01*
X136679896Y-152785353D01*
X136567328Y-152831959D01*
X136398000Y-152959599D01*
X136228672Y-152831959D01*
X136116104Y-152785353D01*
X135953500Y-152888125D01*
X135572500Y-152888125D01*
X135409896Y-152785353D01*
X135297328Y-152831959D01*
X135128000Y-152959599D01*
X134958672Y-152831959D01*
X134846104Y-152785353D01*
X134683500Y-152888125D01*
X134302500Y-152888125D01*
X134139896Y-152785353D01*
X134027328Y-152831959D01*
X133858000Y-152959599D01*
X133688672Y-152831959D01*
X133576104Y-152785353D01*
X133413500Y-152888125D01*
X133032500Y-152888125D01*
X132869896Y-152785353D01*
X132784806Y-152820583D01*
X132776729Y-152812506D01*
X132566679Y-152725500D01*
X132286375Y-152725500D01*
X132143500Y-152868375D01*
X131762500Y-152868375D01*
X131619625Y-152725500D01*
X131339321Y-152725500D01*
X131129271Y-152812506D01*
X130968506Y-152973272D01*
X130881500Y-153183322D01*
X129205690Y-153183322D01*
X132339134Y-150049878D01*
X133286445Y-150049878D01*
X133334680Y-150166614D01*
X133423916Y-150256006D01*
X133540568Y-150304445D01*
X133666878Y-150304555D01*
X133667011Y-150304500D01*
X135635723Y-150304500D01*
X135698878Y-150304555D01*
X135757501Y-150280332D01*
X135757502Y-150280332D01*
X135757503Y-150280331D01*
X135815614Y-150256320D01*
X135905006Y-150167084D01*
X135953445Y-150050432D01*
X135953555Y-149924122D01*
X135905320Y-149807386D01*
X135816084Y-149717994D01*
X135699432Y-149669555D01*
X135573122Y-149669445D01*
X135572989Y-149669500D01*
X133604277Y-149669500D01*
X133541122Y-149669445D01*
X133482499Y-149693668D01*
X133482498Y-149693668D01*
X133482497Y-149693669D01*
X133424386Y-149717680D01*
X133334994Y-149806916D01*
X133286555Y-149923568D01*
X133286445Y-150049878D01*
X132339134Y-150049878D01*
X133338637Y-149050375D01*
X146914500Y-149050375D01*
X146914500Y-149680679D01*
X147001506Y-149890729D01*
X147162272Y-150051494D01*
X147372322Y-150138500D01*
X148002625Y-150138500D01*
X148145500Y-149995625D01*
X148145500Y-148907500D01*
X148526500Y-148907500D01*
X148526500Y-149995625D01*
X148669375Y-150138500D01*
X149299678Y-150138500D01*
X149509728Y-150051494D01*
X149670494Y-149890729D01*
X149757500Y-149680679D01*
X149757500Y-149050375D01*
X149614625Y-148907500D01*
X148526500Y-148907500D01*
X148145500Y-148907500D01*
X147057375Y-148907500D01*
X146914500Y-149050375D01*
X133338637Y-149050375D01*
X134635691Y-147753321D01*
X146914500Y-147753321D01*
X146914500Y-148383625D01*
X147057375Y-148526500D01*
X148145500Y-148526500D01*
X148145500Y-147438375D01*
X148526500Y-147438375D01*
X148526500Y-148526500D01*
X149614625Y-148526500D01*
X149757500Y-148383625D01*
X149757500Y-147753321D01*
X149670494Y-147543271D01*
X149509728Y-147382506D01*
X149299678Y-147295500D01*
X148669375Y-147295500D01*
X148526500Y-147438375D01*
X148145500Y-147438375D01*
X148002625Y-147295500D01*
X147372322Y-147295500D01*
X147162272Y-147382506D01*
X147001506Y-147543271D01*
X146914500Y-147753321D01*
X134635691Y-147753321D01*
X135606507Y-146782506D01*
X135675332Y-146679502D01*
X135699500Y-146558000D01*
X135699500Y-146177000D01*
X147275115Y-146177000D01*
X147354318Y-146575182D01*
X147579870Y-146912745D01*
X147917433Y-147138297D01*
X148315615Y-147217500D01*
X148356385Y-147217500D01*
X148754567Y-147138297D01*
X149092130Y-146912745D01*
X149317682Y-146575182D01*
X149396885Y-146177000D01*
X149317682Y-145778818D01*
X149092130Y-145441255D01*
X148754567Y-145215703D01*
X148356385Y-145136500D01*
X148315615Y-145136500D01*
X147917433Y-145215703D01*
X147579870Y-145441255D01*
X147354318Y-145778818D01*
X147275115Y-146177000D01*
X135699500Y-146177000D01*
X135699500Y-143637000D01*
X147275115Y-143637000D01*
X147354318Y-144035182D01*
X147579870Y-144372745D01*
X147917433Y-144598297D01*
X148315615Y-144677500D01*
X148356385Y-144677500D01*
X148754567Y-144598297D01*
X149092130Y-144372745D01*
X149317682Y-144035182D01*
X149396885Y-143637000D01*
X149317682Y-143238818D01*
X149092130Y-142901255D01*
X148754567Y-142675703D01*
X148356385Y-142596500D01*
X148315615Y-142596500D01*
X147917433Y-142675703D01*
X147579870Y-142901255D01*
X147354318Y-143238818D01*
X147275115Y-143637000D01*
X135699500Y-143637000D01*
X135699500Y-142371512D01*
X136622506Y-141448506D01*
X136691332Y-141345502D01*
X136715500Y-141224000D01*
X136715500Y-138557000D01*
X136715555Y-138494122D01*
X136667320Y-138377386D01*
X136578084Y-138287994D01*
X136461432Y-138239555D01*
X136335122Y-138239445D01*
X136276499Y-138263668D01*
X136276498Y-138263668D01*
X136276497Y-138263669D01*
X136218386Y-138287680D01*
X136143948Y-138361988D01*
X136070084Y-138287994D01*
X135953432Y-138239555D01*
X135827122Y-138239445D01*
X135768499Y-138263668D01*
X135768498Y-138263668D01*
X135768497Y-138263669D01*
X135710386Y-138287680D01*
X135635948Y-138361988D01*
X135562084Y-138287994D01*
X135445432Y-138239555D01*
X135319122Y-138239445D01*
X135260499Y-138263668D01*
X135260498Y-138263668D01*
X135260497Y-138263669D01*
X135202386Y-138287680D01*
X135127948Y-138361988D01*
X135054084Y-138287994D01*
X134937432Y-138239555D01*
X134811122Y-138239445D01*
X134752499Y-138263668D01*
X134752498Y-138263668D01*
X134752497Y-138263669D01*
X134694386Y-138287680D01*
X134619948Y-138361988D01*
X134546084Y-138287994D01*
X134429432Y-138239555D01*
X134303122Y-138239445D01*
X134244499Y-138263668D01*
X134244498Y-138263668D01*
X134244497Y-138263669D01*
X134186386Y-138287680D01*
X134111948Y-138361988D01*
X134038084Y-138287994D01*
X133921432Y-138239555D01*
X133795122Y-138239445D01*
X133736499Y-138263668D01*
X133736498Y-138263668D01*
X133736497Y-138263669D01*
X133678386Y-138287680D01*
X133603948Y-138361988D01*
X133530084Y-138287994D01*
X133413432Y-138239555D01*
X133287122Y-138239445D01*
X133228499Y-138263668D01*
X133228498Y-138263668D01*
X133228497Y-138263669D01*
X133170386Y-138287680D01*
X133095948Y-138361988D01*
X133022084Y-138287994D01*
X132905432Y-138239555D01*
X132779122Y-138239445D01*
X132778989Y-138239500D01*
X127131513Y-138239500D01*
X125860891Y-136968878D01*
X136969445Y-136968878D01*
X137017680Y-137085614D01*
X137106916Y-137175006D01*
X137107049Y-137175061D01*
X139827000Y-139895013D01*
X139827000Y-140969723D01*
X139826945Y-141032878D01*
X139875180Y-141149614D01*
X139964416Y-141239006D01*
X140081068Y-141287445D01*
X140207378Y-141287555D01*
X140266001Y-141263332D01*
X140266002Y-141263332D01*
X140266003Y-141263331D01*
X140324114Y-141239320D01*
X140413506Y-141150084D01*
X140461945Y-141033432D01*
X140462055Y-140907122D01*
X140462000Y-140906989D01*
X140462000Y-139763500D01*
X140450419Y-139705276D01*
X147019883Y-139705276D01*
X147122505Y-139953640D01*
X147312360Y-140143827D01*
X147560545Y-140246883D01*
X147829276Y-140247117D01*
X148077640Y-140144495D01*
X148215343Y-140007032D01*
X148401268Y-140007032D01*
X148401268Y-140781500D01*
X148414551Y-140852095D01*
X148456273Y-140916932D01*
X148519933Y-140960429D01*
X148595500Y-140975732D01*
X153675500Y-140975732D01*
X153746095Y-140962449D01*
X153810932Y-140920727D01*
X153854429Y-140857067D01*
X153869732Y-140781500D01*
X153869732Y-138361500D01*
X153856449Y-138290905D01*
X153814727Y-138226068D01*
X153751067Y-138182571D01*
X153675500Y-138167268D01*
X148595500Y-138167268D01*
X148524905Y-138180551D01*
X148460068Y-138222273D01*
X148416571Y-138285933D01*
X148401268Y-138361500D01*
X148401268Y-139135968D01*
X148215196Y-139135968D01*
X148078640Y-138999173D01*
X147830455Y-138896117D01*
X147561724Y-138895883D01*
X147313360Y-138998505D01*
X147123173Y-139188360D01*
X147020117Y-139436545D01*
X147019883Y-139705276D01*
X140450419Y-139705276D01*
X140437832Y-139641998D01*
X140395402Y-139578498D01*
X140369006Y-139538993D01*
X137511506Y-136681494D01*
X137467084Y-136636994D01*
X137350432Y-136588555D01*
X137224122Y-136588445D01*
X137165499Y-136612668D01*
X137165498Y-136612668D01*
X137165497Y-136612669D01*
X137107386Y-136636680D01*
X137017994Y-136725916D01*
X136969555Y-136842568D01*
X136969445Y-136968878D01*
X125860891Y-136968878D01*
X124430506Y-135538494D01*
X124327502Y-135469668D01*
X124266721Y-135457578D01*
X136918645Y-135457578D01*
X136966880Y-135574314D01*
X137056116Y-135663706D01*
X137172768Y-135712145D01*
X137299078Y-135712255D01*
X137299211Y-135712200D01*
X139052300Y-135712200D01*
X139173802Y-135688032D01*
X139276806Y-135619206D01*
X143950736Y-130945276D01*
X147019883Y-130945276D01*
X147122505Y-131193640D01*
X147312360Y-131383827D01*
X147560545Y-131486883D01*
X147829276Y-131487117D01*
X148077640Y-131384495D01*
X148215343Y-131247032D01*
X148401268Y-131247032D01*
X148401268Y-132021500D01*
X148414551Y-132092095D01*
X148456273Y-132156932D01*
X148519933Y-132200429D01*
X148595500Y-132215732D01*
X153675500Y-132215732D01*
X153746095Y-132202449D01*
X153810932Y-132160727D01*
X153854429Y-132097067D01*
X153869732Y-132021500D01*
X153869732Y-129601500D01*
X153856449Y-129530905D01*
X153814727Y-129466068D01*
X153751067Y-129422571D01*
X153675500Y-129407268D01*
X148595500Y-129407268D01*
X148524905Y-129420551D01*
X148460068Y-129462273D01*
X148416571Y-129525933D01*
X148401268Y-129601500D01*
X148401268Y-130375968D01*
X148215196Y-130375968D01*
X148078640Y-130239173D01*
X147830455Y-130136117D01*
X147561724Y-130135883D01*
X147313360Y-130238505D01*
X147123173Y-130428360D01*
X147020117Y-130676545D01*
X147019883Y-130945276D01*
X143950736Y-130945276D01*
X144750507Y-130145506D01*
X144819332Y-130042502D01*
X144843500Y-129921000D01*
X144843500Y-128651000D01*
X144843555Y-128588122D01*
X144795320Y-128471386D01*
X144706084Y-128381994D01*
X144589432Y-128333555D01*
X144463122Y-128333445D01*
X144404499Y-128357668D01*
X144404498Y-128357668D01*
X144404497Y-128357669D01*
X144346386Y-128381680D01*
X144256994Y-128470916D01*
X144208555Y-128587568D01*
X144208445Y-128713878D01*
X144208500Y-128714011D01*
X144208500Y-129789487D01*
X138920788Y-135077200D01*
X138574212Y-135077200D01*
X142655006Y-130996407D01*
X142655008Y-130996404D01*
X142667707Y-130983706D01*
X142667709Y-130983703D01*
X143925006Y-129726407D01*
X143993832Y-129623402D01*
X143997777Y-129603568D01*
X144018000Y-129501900D01*
X144018000Y-128056072D01*
X145104153Y-126969920D01*
X145340548Y-127068080D01*
X145615246Y-127068320D01*
X145869126Y-126963419D01*
X146063536Y-126769348D01*
X146168880Y-126515652D01*
X146169120Y-126240954D01*
X146064219Y-125987074D01*
X145870148Y-125792664D01*
X145616452Y-125687320D01*
X145341754Y-125687080D01*
X145087874Y-125791981D01*
X144893464Y-125986052D01*
X144788120Y-126239748D01*
X144787990Y-126388057D01*
X143475994Y-127700054D01*
X143407168Y-127803058D01*
X143383000Y-127924560D01*
X143383000Y-129370387D01*
X142218697Y-130534691D01*
X142218694Y-130534693D01*
X142205996Y-130547392D01*
X142205993Y-130547394D01*
X138196888Y-134556500D01*
X137261877Y-134556500D01*
X137198722Y-134556445D01*
X137140099Y-134580668D01*
X137140098Y-134580668D01*
X137140097Y-134580669D01*
X137081986Y-134604680D01*
X136992594Y-134693916D01*
X136944155Y-134810568D01*
X136944045Y-134936878D01*
X136992280Y-135053614D01*
X137061779Y-135123234D01*
X137056586Y-135125380D01*
X136967194Y-135214616D01*
X136918755Y-135331268D01*
X136918645Y-135457578D01*
X124266721Y-135457578D01*
X124206000Y-135445500D01*
X119869731Y-135445500D01*
X119853682Y-135364818D01*
X119628130Y-135027255D01*
X119290567Y-134801703D01*
X118892385Y-134722500D01*
X118851615Y-134722500D01*
X118453433Y-134801703D01*
X118115870Y-135027255D01*
X117890318Y-135364818D01*
X117811115Y-135763000D01*
X116649500Y-135763000D01*
X116649500Y-133631520D01*
X117510467Y-133631520D01*
X117620370Y-133896891D01*
X117973532Y-134324572D01*
X118463477Y-134584549D01*
X118681500Y-134488818D01*
X118681500Y-133413500D01*
X119062500Y-133413500D01*
X119062500Y-134488818D01*
X119280523Y-134584549D01*
X119770468Y-134324572D01*
X120123630Y-133896891D01*
X120233533Y-133631520D01*
X120136354Y-133413500D01*
X119062500Y-133413500D01*
X118681500Y-133413500D01*
X117607646Y-133413500D01*
X117510467Y-133631520D01*
X116649500Y-133631520D01*
X116649500Y-132814480D01*
X117510467Y-132814480D01*
X117607646Y-133032500D01*
X118681500Y-133032500D01*
X118681500Y-131957182D01*
X119062500Y-131957182D01*
X119062500Y-133032500D01*
X120136354Y-133032500D01*
X120233533Y-132814480D01*
X120175768Y-132675000D01*
X121304768Y-132675000D01*
X121304768Y-134025000D01*
X121318051Y-134095595D01*
X121359773Y-134160432D01*
X121423433Y-134203929D01*
X121499000Y-134219232D01*
X122849000Y-134219232D01*
X122919595Y-134205949D01*
X122984432Y-134164227D01*
X123027929Y-134100567D01*
X123043232Y-134025000D01*
X123043232Y-133333044D01*
X123308500Y-133333044D01*
X123308500Y-133366956D01*
X123374382Y-133698169D01*
X123561999Y-133978957D01*
X123842787Y-134166574D01*
X124174000Y-134232456D01*
X124505213Y-134166574D01*
X124786001Y-133978957D01*
X124973618Y-133698169D01*
X125039500Y-133366956D01*
X125039500Y-133333044D01*
X124973618Y-133001831D01*
X124786001Y-132721043D01*
X124505213Y-132533426D01*
X124174000Y-132467544D01*
X123842787Y-132533426D01*
X123561999Y-132721043D01*
X123374382Y-133001831D01*
X123308500Y-133333044D01*
X123043232Y-133333044D01*
X123043232Y-132675000D01*
X123029949Y-132604405D01*
X122988227Y-132539568D01*
X122924567Y-132496071D01*
X122849000Y-132480768D01*
X122618500Y-132480768D01*
X122618500Y-132010118D01*
X122739118Y-131889500D01*
X123571000Y-131889500D01*
X123741103Y-131855664D01*
X123885309Y-131759309D01*
X124774309Y-130870309D01*
X124870664Y-130726102D01*
X124904500Y-130556000D01*
X124870664Y-130385898D01*
X124794632Y-130272106D01*
X125158500Y-130484363D01*
X125158500Y-131699000D01*
X125167219Y-131742833D01*
X125171044Y-131787366D01*
X125179209Y-131803110D01*
X125182668Y-131820502D01*
X125207497Y-131857660D01*
X125228074Y-131897341D01*
X127768074Y-135072341D01*
X127781643Y-135083763D01*
X127791494Y-135098506D01*
X127828652Y-135123335D01*
X127862848Y-135152120D01*
X127879752Y-135157479D01*
X127894498Y-135167332D01*
X127938335Y-135176052D01*
X127980938Y-135189558D01*
X127998607Y-135188040D01*
X128016000Y-135191500D01*
X132206723Y-135191500D01*
X132269878Y-135191555D01*
X132328501Y-135167332D01*
X132328502Y-135167332D01*
X132328503Y-135167331D01*
X132386614Y-135143320D01*
X132476006Y-135054084D01*
X132524445Y-134937432D01*
X132524555Y-134811122D01*
X132476320Y-134694386D01*
X132402012Y-134619948D01*
X132476006Y-134546084D01*
X132524445Y-134429432D01*
X132524555Y-134303122D01*
X132476320Y-134186386D01*
X132387084Y-134096994D01*
X132270432Y-134048555D01*
X132144122Y-134048445D01*
X132143989Y-134048500D01*
X130814513Y-134048500D01*
X129730500Y-132964488D01*
X129730500Y-132207000D01*
X129706332Y-132085498D01*
X129685369Y-132054125D01*
X129637506Y-131982493D01*
X128660232Y-131005219D01*
X128660232Y-130572000D01*
X128646949Y-130501405D01*
X128605227Y-130436568D01*
X128541567Y-130393071D01*
X128466000Y-130377768D01*
X128032780Y-130377768D01*
X127097506Y-129442494D01*
X126994502Y-129373668D01*
X126873000Y-129349500D01*
X126630624Y-129349500D01*
X126887151Y-129243504D01*
X127083814Y-129047185D01*
X127190378Y-128790550D01*
X127190621Y-128512669D01*
X127190500Y-128512376D01*
X127190500Y-124206000D01*
X127179162Y-124149002D01*
X127137330Y-123938695D01*
X126985914Y-123712086D01*
X125969914Y-122696086D01*
X125969913Y-122696086D01*
X125872185Y-122598186D01*
X125743307Y-122544671D01*
X125743305Y-122544670D01*
X125743303Y-122544670D01*
X125615550Y-122491622D01*
X125337669Y-122491379D01*
X125208698Y-122544669D01*
X125208695Y-122544670D01*
X125208693Y-122544671D01*
X125080849Y-122597496D01*
X124884186Y-122793815D01*
X124777622Y-123050450D01*
X124777379Y-123328331D01*
X124830669Y-123457302D01*
X124830670Y-123457305D01*
X124830671Y-123457307D01*
X124883496Y-123585151D01*
X125079815Y-123781814D01*
X125080107Y-123781935D01*
X125793500Y-124495328D01*
X125793500Y-128650962D01*
X125793379Y-128789331D01*
X125899496Y-129046151D01*
X126095815Y-129242814D01*
X126352450Y-129349378D01*
X126491962Y-129349500D01*
X125349277Y-129349500D01*
X125286122Y-129349445D01*
X125227499Y-129373668D01*
X125227498Y-129373668D01*
X125227497Y-129373669D01*
X125169386Y-129397680D01*
X125079994Y-129486916D01*
X125031555Y-129603568D01*
X125031493Y-129675133D01*
X124269500Y-129230637D01*
X124269500Y-121031000D01*
X124269555Y-120968122D01*
X124259175Y-120943000D01*
X127479768Y-120943000D01*
X127479768Y-122643000D01*
X127493051Y-122713595D01*
X127534773Y-122778432D01*
X127598433Y-122821929D01*
X127674000Y-122837232D01*
X128206500Y-122837232D01*
X128206500Y-125476000D01*
X128216744Y-125527500D01*
X128230668Y-125597502D01*
X128299494Y-125700506D01*
X132524500Y-129925513D01*
X132524500Y-133730723D01*
X132524445Y-133793878D01*
X132572680Y-133910614D01*
X132661916Y-134000006D01*
X132778568Y-134048445D01*
X132904878Y-134048555D01*
X132963501Y-134024332D01*
X132963502Y-134024332D01*
X132963503Y-134024331D01*
X133021614Y-134000320D01*
X133111006Y-133911084D01*
X133159445Y-133794432D01*
X133159555Y-133668122D01*
X133159500Y-133667989D01*
X133159500Y-129794000D01*
X133135332Y-129672498D01*
X133089274Y-129603568D01*
X133066506Y-129569493D01*
X128841500Y-125344488D01*
X128841500Y-122837232D01*
X129374000Y-122837232D01*
X129444595Y-122823949D01*
X129509432Y-122782227D01*
X129552929Y-122718567D01*
X129568232Y-122643000D01*
X129568232Y-121772615D01*
X130023500Y-121772615D01*
X130023500Y-121813385D01*
X130102703Y-122211567D01*
X130328255Y-122549130D01*
X130665818Y-122774682D01*
X130746500Y-122790731D01*
X130746500Y-127000000D01*
X130759131Y-127063500D01*
X130770668Y-127121502D01*
X130839494Y-127224506D01*
X133540500Y-129925513D01*
X133540500Y-133603723D01*
X133540445Y-133666878D01*
X133588680Y-133783614D01*
X133677916Y-133873006D01*
X133794568Y-133921445D01*
X133920878Y-133921555D01*
X133979501Y-133897332D01*
X133979502Y-133897332D01*
X133979503Y-133897331D01*
X134037614Y-133873320D01*
X134112052Y-133799012D01*
X134185916Y-133873006D01*
X134302568Y-133921445D01*
X134428878Y-133921555D01*
X134487501Y-133897332D01*
X134487502Y-133897332D01*
X134487503Y-133897331D01*
X134545614Y-133873320D01*
X134625194Y-133793878D01*
X136080445Y-133793878D01*
X136128680Y-133910614D01*
X136217916Y-134000006D01*
X136334568Y-134048445D01*
X136460878Y-134048555D01*
X136519501Y-134024332D01*
X136519502Y-134024332D01*
X136519503Y-134024331D01*
X136577614Y-134000320D01*
X136667006Y-133911084D01*
X136667061Y-133910951D01*
X141004007Y-129574006D01*
X141072832Y-129471002D01*
X141097000Y-129349500D01*
X141097000Y-126514446D01*
X142887880Y-126514446D01*
X142992781Y-126768326D01*
X143186852Y-126962736D01*
X143440548Y-127068080D01*
X143715246Y-127068320D01*
X143969126Y-126963419D01*
X144163536Y-126769348D01*
X144268880Y-126515652D01*
X144269120Y-126240954D01*
X144164219Y-125987074D01*
X143970148Y-125792664D01*
X143716452Y-125687320D01*
X143441754Y-125687080D01*
X143187874Y-125791981D01*
X142993464Y-125986052D01*
X142888120Y-126239748D01*
X142887880Y-126514446D01*
X141097000Y-126514446D01*
X141097000Y-125971732D01*
X141229500Y-125971732D01*
X141300095Y-125958449D01*
X141364932Y-125916727D01*
X141408429Y-125853067D01*
X141423732Y-125777500D01*
X141423732Y-125277500D01*
X141410449Y-125206905D01*
X141368727Y-125142068D01*
X141305067Y-125098571D01*
X141229500Y-125083268D01*
X140329500Y-125083268D01*
X140258905Y-125096551D01*
X140194068Y-125138273D01*
X140150571Y-125201933D01*
X140135268Y-125277500D01*
X140135268Y-125777500D01*
X140148551Y-125848095D01*
X140190273Y-125912932D01*
X140253933Y-125956429D01*
X140329500Y-125971732D01*
X140462000Y-125971732D01*
X140462000Y-129217987D01*
X136173690Y-133506298D01*
X136128994Y-133550916D01*
X136080555Y-133667568D01*
X136080445Y-133793878D01*
X134625194Y-133793878D01*
X134635006Y-133784084D01*
X134683445Y-133667432D01*
X134683555Y-133541122D01*
X134683500Y-133540989D01*
X134683500Y-129159000D01*
X134659332Y-129037498D01*
X134631225Y-128995433D01*
X134590507Y-128934494D01*
X133921500Y-128265488D01*
X133921500Y-122790731D01*
X134002182Y-122774682D01*
X134339745Y-122549130D01*
X134565297Y-122211567D01*
X134567294Y-122201523D01*
X134782451Y-122201523D01*
X135042428Y-122691468D01*
X135470109Y-123044630D01*
X135735480Y-123154533D01*
X135953500Y-123057354D01*
X135953500Y-121983500D01*
X136334500Y-121983500D01*
X136334500Y-123057354D01*
X136552520Y-123154533D01*
X136817891Y-123044630D01*
X137245572Y-122691468D01*
X137505549Y-122201523D01*
X137409818Y-121983500D01*
X136334500Y-121983500D01*
X135953500Y-121983500D01*
X134878182Y-121983500D01*
X134782451Y-122201523D01*
X134567294Y-122201523D01*
X134644500Y-121813385D01*
X134644500Y-121772615D01*
X134567295Y-121384477D01*
X134782451Y-121384477D01*
X134878182Y-121602500D01*
X135953500Y-121602500D01*
X135953500Y-120528646D01*
X136334500Y-120528646D01*
X136334500Y-121602500D01*
X137409818Y-121602500D01*
X137505549Y-121384477D01*
X137271291Y-120943000D01*
X139735268Y-120943000D01*
X139735268Y-122643000D01*
X139748551Y-122713595D01*
X139790273Y-122778432D01*
X139853933Y-122821929D01*
X139929500Y-122837232D01*
X140462000Y-122837232D01*
X140462000Y-123583268D01*
X140329500Y-123583268D01*
X140258905Y-123596551D01*
X140194068Y-123638273D01*
X140150571Y-123701933D01*
X140135268Y-123777500D01*
X140135268Y-124277500D01*
X140148551Y-124348095D01*
X140190273Y-124412932D01*
X140253933Y-124456429D01*
X140329500Y-124471732D01*
X141229500Y-124471732D01*
X141300095Y-124458449D01*
X141364932Y-124416727D01*
X141408429Y-124353067D01*
X141423732Y-124277500D01*
X141423732Y-123777500D01*
X141410449Y-123706905D01*
X141368727Y-123642068D01*
X141305067Y-123598571D01*
X141229500Y-123583268D01*
X141097000Y-123583268D01*
X141097000Y-122837232D01*
X141629500Y-122837232D01*
X141700095Y-122823949D01*
X141764932Y-122782227D01*
X141808429Y-122718567D01*
X141823732Y-122643000D01*
X141823732Y-120943000D01*
X141810449Y-120872405D01*
X141768727Y-120807568D01*
X141705067Y-120764071D01*
X141629500Y-120748768D01*
X139929500Y-120748768D01*
X139858905Y-120762051D01*
X139794068Y-120803773D01*
X139750571Y-120867433D01*
X139735268Y-120943000D01*
X137271291Y-120943000D01*
X137245572Y-120894532D01*
X136817891Y-120541370D01*
X136552520Y-120431467D01*
X136334500Y-120528646D01*
X135953500Y-120528646D01*
X135735480Y-120431467D01*
X135470109Y-120541370D01*
X135042428Y-120894532D01*
X134782451Y-121384477D01*
X134567295Y-121384477D01*
X134565297Y-121374433D01*
X134339745Y-121036870D01*
X134002182Y-120811318D01*
X133604000Y-120732115D01*
X133205818Y-120811318D01*
X132868255Y-121036870D01*
X132642703Y-121374433D01*
X132563500Y-121772615D01*
X132563500Y-121813385D01*
X132642703Y-122211567D01*
X132868255Y-122549130D01*
X133205818Y-122774682D01*
X133286500Y-122790731D01*
X133286500Y-128397000D01*
X133309265Y-128511450D01*
X133310668Y-128518502D01*
X133379494Y-128621506D01*
X134048500Y-129290513D01*
X134048500Y-129535487D01*
X131381500Y-126868488D01*
X131381500Y-122790731D01*
X131462182Y-122774682D01*
X131799745Y-122549130D01*
X132025297Y-122211567D01*
X132104500Y-121813385D01*
X132104500Y-121772615D01*
X132025297Y-121374433D01*
X131799745Y-121036870D01*
X131462182Y-120811318D01*
X131064000Y-120732115D01*
X130665818Y-120811318D01*
X130328255Y-121036870D01*
X130102703Y-121374433D01*
X130023500Y-121772615D01*
X129568232Y-121772615D01*
X129568232Y-120943000D01*
X129554949Y-120872405D01*
X129513227Y-120807568D01*
X129449567Y-120764071D01*
X129374000Y-120748768D01*
X127674000Y-120748768D01*
X127603405Y-120762051D01*
X127538568Y-120803773D01*
X127495071Y-120867433D01*
X127479768Y-120943000D01*
X124259175Y-120943000D01*
X124221320Y-120851386D01*
X124132084Y-120761994D01*
X124015432Y-120713555D01*
X123889122Y-120713445D01*
X123830499Y-120737668D01*
X123830498Y-120737668D01*
X123830497Y-120737669D01*
X123772386Y-120761680D01*
X123682994Y-120850916D01*
X123634555Y-120967568D01*
X123634445Y-121093878D01*
X123634500Y-121094011D01*
X123634500Y-129413000D01*
X123642466Y-129453048D01*
X123644954Y-129493801D01*
X123654443Y-129513263D01*
X123658668Y-129534502D01*
X123681353Y-129568452D01*
X123699248Y-129605153D01*
X123715465Y-129619504D01*
X123727494Y-129637506D01*
X123761441Y-129660189D01*
X123792021Y-129687250D01*
X124549995Y-130129401D01*
X124460000Y-130111500D01*
X124289898Y-130145336D01*
X124145691Y-130241691D01*
X123386882Y-131000500D01*
X122555000Y-131000500D01*
X122384897Y-131034336D01*
X122240691Y-131130691D01*
X121859691Y-131511691D01*
X121763336Y-131655897D01*
X121729500Y-131826000D01*
X121729500Y-132480768D01*
X121499000Y-132480768D01*
X121428405Y-132494051D01*
X121363568Y-132535773D01*
X121320071Y-132599433D01*
X121304768Y-132675000D01*
X120175768Y-132675000D01*
X120123630Y-132549109D01*
X119770468Y-132121428D01*
X119280523Y-131861451D01*
X119062500Y-131957182D01*
X118681500Y-131957182D01*
X118463477Y-131861451D01*
X117973532Y-132121428D01*
X117620370Y-132549109D01*
X117510467Y-132814480D01*
X116649500Y-132814480D01*
X116649500Y-129071000D01*
X117827768Y-129071000D01*
X117827768Y-130771000D01*
X117841051Y-130841595D01*
X117882773Y-130906432D01*
X117946433Y-130949929D01*
X118022000Y-130965232D01*
X119722000Y-130965232D01*
X119792595Y-130951949D01*
X119857432Y-130910227D01*
X119900929Y-130846567D01*
X119916232Y-130771000D01*
X119916232Y-129071000D01*
X119902949Y-129000405D01*
X119861227Y-128935568D01*
X119797567Y-128892071D01*
X119722000Y-128876768D01*
X118022000Y-128876768D01*
X117951405Y-128890051D01*
X117886568Y-128931773D01*
X117843071Y-128995433D01*
X117827768Y-129071000D01*
X116649500Y-129071000D01*
X116649500Y-127381000D01*
X117811115Y-127381000D01*
X117890318Y-127779182D01*
X118115870Y-128116745D01*
X118453433Y-128342297D01*
X118851615Y-128421500D01*
X118892385Y-128421500D01*
X119290567Y-128342297D01*
X119628130Y-128116745D01*
X119853682Y-127779182D01*
X119932885Y-127381000D01*
X119853682Y-126982818D01*
X119628130Y-126645255D01*
X119290567Y-126419703D01*
X118892385Y-126340500D01*
X118851615Y-126340500D01*
X118453433Y-126419703D01*
X118115870Y-126645255D01*
X117890318Y-126982818D01*
X117811115Y-127381000D01*
X116649500Y-127381000D01*
X116649500Y-124841000D01*
X117811115Y-124841000D01*
X117890318Y-125239182D01*
X118115870Y-125576745D01*
X118453433Y-125802297D01*
X118851615Y-125881500D01*
X118892385Y-125881500D01*
X119290567Y-125802297D01*
X119628130Y-125576745D01*
X119853682Y-125239182D01*
X119932885Y-124841000D01*
X119853682Y-124442818D01*
X119628130Y-124105255D01*
X119290567Y-123879703D01*
X118892385Y-123800500D01*
X118851615Y-123800500D01*
X118453433Y-123879703D01*
X118115870Y-124105255D01*
X117890318Y-124442818D01*
X117811115Y-124841000D01*
X116649500Y-124841000D01*
X116649500Y-122301000D01*
X117811115Y-122301000D01*
X117890318Y-122699182D01*
X118115870Y-123036745D01*
X118453433Y-123262297D01*
X118851615Y-123341500D01*
X118892385Y-123341500D01*
X119290567Y-123262297D01*
X119628130Y-123036745D01*
X119853682Y-122699182D01*
X119932885Y-122301000D01*
X119853682Y-121902818D01*
X119628130Y-121565255D01*
X119290567Y-121339703D01*
X118892385Y-121260500D01*
X118851615Y-121260500D01*
X118453433Y-121339703D01*
X118115870Y-121565255D01*
X117890318Y-121902818D01*
X117811115Y-122301000D01*
X116649500Y-122301000D01*
X116649500Y-119761000D01*
X117811115Y-119761000D01*
X117890318Y-120159182D01*
X118115870Y-120496745D01*
X118453433Y-120722297D01*
X118851615Y-120801500D01*
X118892385Y-120801500D01*
X119290567Y-120722297D01*
X119628130Y-120496745D01*
X119853682Y-120159182D01*
X119932885Y-119761000D01*
X119853682Y-119362818D01*
X119628130Y-119025255D01*
X119290567Y-118799703D01*
X118892385Y-118720500D01*
X118851615Y-118720500D01*
X118453433Y-118799703D01*
X118115870Y-119025255D01*
X117890318Y-119362818D01*
X117811115Y-119761000D01*
X116649500Y-119761000D01*
X116649500Y-117221000D01*
X117811115Y-117221000D01*
X117890318Y-117619182D01*
X118115870Y-117956745D01*
X118453433Y-118182297D01*
X118851615Y-118261500D01*
X118892385Y-118261500D01*
X119290567Y-118182297D01*
X119628130Y-117956745D01*
X119853682Y-117619182D01*
X119932885Y-117221000D01*
X119853682Y-116822818D01*
X119628130Y-116485255D01*
X119290567Y-116259703D01*
X118892385Y-116180500D01*
X118851615Y-116180500D01*
X118453433Y-116259703D01*
X118115870Y-116485255D01*
X117890318Y-116822818D01*
X117811115Y-117221000D01*
X116649500Y-117221000D01*
X116649500Y-114681000D01*
X117811115Y-114681000D01*
X117890318Y-115079182D01*
X118115870Y-115416745D01*
X118453433Y-115642297D01*
X118851615Y-115721500D01*
X118892385Y-115721500D01*
X119290567Y-115642297D01*
X119494732Y-115505878D01*
X120205445Y-115505878D01*
X120205500Y-115506011D01*
X120205500Y-128905000D01*
X120223488Y-128995433D01*
X120229668Y-129026502D01*
X120298494Y-129129506D01*
X120840496Y-129671509D01*
X120840445Y-129729878D01*
X120888680Y-129846614D01*
X120977916Y-129936006D01*
X121094568Y-129984445D01*
X121220878Y-129984555D01*
X121279501Y-129960332D01*
X121279502Y-129960332D01*
X121279503Y-129960331D01*
X121337614Y-129936320D01*
X121427006Y-129847084D01*
X121475445Y-129730432D01*
X121475555Y-129604122D01*
X121475500Y-129603989D01*
X121475500Y-129540000D01*
X121451332Y-129418498D01*
X121443828Y-129407268D01*
X121382507Y-129315494D01*
X121288891Y-129221878D01*
X122872445Y-129221878D01*
X122872500Y-129222011D01*
X122872500Y-130301723D01*
X122872445Y-130364878D01*
X122920680Y-130481614D01*
X123009916Y-130571006D01*
X123126568Y-130619445D01*
X123252878Y-130619555D01*
X123311501Y-130595332D01*
X123311502Y-130595332D01*
X123311503Y-130595331D01*
X123369614Y-130571320D01*
X123459006Y-130482084D01*
X123507445Y-130365432D01*
X123507555Y-130239122D01*
X123507500Y-130238989D01*
X123507500Y-129159000D01*
X123507555Y-129096122D01*
X123459320Y-128979386D01*
X123370084Y-128889994D01*
X123253432Y-128841555D01*
X123127122Y-128841445D01*
X123068499Y-128865668D01*
X123068498Y-128865668D01*
X123068497Y-128865669D01*
X123010386Y-128889680D01*
X122920994Y-128978916D01*
X122872555Y-129095568D01*
X122872445Y-129221878D01*
X121288891Y-129221878D01*
X120840500Y-128773488D01*
X120840500Y-116371000D01*
X121129768Y-116371000D01*
X121129768Y-118071000D01*
X121143051Y-118141595D01*
X121184773Y-118206432D01*
X121248433Y-118249929D01*
X121324000Y-118265232D01*
X123024000Y-118265232D01*
X123094595Y-118251949D01*
X123159432Y-118210227D01*
X123202929Y-118146567D01*
X123218232Y-118071000D01*
X123218232Y-116371000D01*
X123204949Y-116300405D01*
X123163227Y-116235568D01*
X123099567Y-116192071D01*
X123024000Y-116176768D01*
X121324000Y-116176768D01*
X121253405Y-116190051D01*
X121188568Y-116231773D01*
X121145071Y-116295433D01*
X121129768Y-116371000D01*
X120840500Y-116371000D01*
X120840500Y-115443000D01*
X120840555Y-115380122D01*
X120792320Y-115263386D01*
X120703084Y-115173994D01*
X120586432Y-115125555D01*
X120460122Y-115125445D01*
X120401499Y-115149668D01*
X120401498Y-115149668D01*
X120401497Y-115149669D01*
X120343386Y-115173680D01*
X120253994Y-115262916D01*
X120205555Y-115379568D01*
X120205445Y-115505878D01*
X119494732Y-115505878D01*
X119628130Y-115416745D01*
X119853682Y-115079182D01*
X119932885Y-114681000D01*
X121113115Y-114681000D01*
X121192318Y-115079182D01*
X121417870Y-115416745D01*
X121755433Y-115642297D01*
X122153615Y-115721500D01*
X122194385Y-115721500D01*
X122592567Y-115642297D01*
X122930130Y-115416745D01*
X123155682Y-115079182D01*
X123234885Y-114681000D01*
X123155682Y-114282818D01*
X122930130Y-113945255D01*
X122592567Y-113719703D01*
X122194385Y-113640500D01*
X122153615Y-113640500D01*
X121755433Y-113719703D01*
X121417870Y-113945255D01*
X121192318Y-114282818D01*
X121113115Y-114681000D01*
X119932885Y-114681000D01*
X119853682Y-114282818D01*
X119628130Y-113945255D01*
X119290567Y-113719703D01*
X118892385Y-113640500D01*
X118851615Y-113640500D01*
X118453433Y-113719703D01*
X118115870Y-113945255D01*
X117890318Y-114282818D01*
X117811115Y-114681000D01*
X116649500Y-114681000D01*
X116649500Y-112549520D01*
X117510467Y-112549520D01*
X117620370Y-112814891D01*
X117973532Y-113242572D01*
X118463477Y-113502549D01*
X118681500Y-113406818D01*
X118681500Y-112331500D01*
X119062500Y-112331500D01*
X119062500Y-113406818D01*
X119280523Y-113502549D01*
X119770468Y-113242572D01*
X120123630Y-112814891D01*
X120233533Y-112549520D01*
X120136354Y-112331500D01*
X119062500Y-112331500D01*
X118681500Y-112331500D01*
X117607646Y-112331500D01*
X117510467Y-112549520D01*
X116649500Y-112549520D01*
X116649500Y-112014000D01*
X131254500Y-112014000D01*
X131258768Y-112035457D01*
X131258768Y-112514000D01*
X131272051Y-112584595D01*
X131313773Y-112649432D01*
X131377433Y-112692929D01*
X131453000Y-112708232D01*
X131931543Y-112708232D01*
X131953000Y-112712500D01*
X133195209Y-112712500D01*
X133223000Y-112718028D01*
X133250791Y-112712500D01*
X134465209Y-112712500D01*
X134493000Y-112718028D01*
X134520791Y-112712500D01*
X135735209Y-112712500D01*
X135763000Y-112718028D01*
X135790791Y-112712500D01*
X137005209Y-112712500D01*
X137033000Y-112718028D01*
X137060791Y-112712500D01*
X138275209Y-112712500D01*
X138303000Y-112718028D01*
X138567243Y-112665467D01*
X138791257Y-112515785D01*
X138796195Y-112508394D01*
X138796914Y-112507914D01*
X138948330Y-112281304D01*
X139001500Y-112014000D01*
X138948330Y-111746696D01*
X138796914Y-111520086D01*
X138796195Y-111519606D01*
X138791257Y-111512215D01*
X138567243Y-111362533D01*
X138303000Y-111309972D01*
X138275209Y-111315500D01*
X137060791Y-111315500D01*
X137033000Y-111309972D01*
X137005209Y-111315500D01*
X135790791Y-111315500D01*
X135763000Y-111309972D01*
X135735209Y-111315500D01*
X134520791Y-111315500D01*
X134493000Y-111309972D01*
X134465209Y-111315500D01*
X133250791Y-111315500D01*
X133223000Y-111309972D01*
X133195209Y-111315500D01*
X131953000Y-111315500D01*
X131931543Y-111319768D01*
X131453000Y-111319768D01*
X131382405Y-111333051D01*
X131317568Y-111374773D01*
X131274071Y-111438433D01*
X131258768Y-111514000D01*
X131258768Y-111992543D01*
X131254500Y-112014000D01*
X116649500Y-112014000D01*
X116649500Y-111732480D01*
X117510467Y-111732480D01*
X117607646Y-111950500D01*
X118681500Y-111950500D01*
X118681500Y-110875182D01*
X119062500Y-110875182D01*
X119062500Y-111950500D01*
X120136354Y-111950500D01*
X120233533Y-111732480D01*
X120123630Y-111467109D01*
X119770468Y-111039428D01*
X119280523Y-110779451D01*
X119062500Y-110875182D01*
X118681500Y-110875182D01*
X118463477Y-110779451D01*
X117973532Y-111039428D01*
X117620370Y-111467109D01*
X117510467Y-111732480D01*
X116649500Y-111732480D01*
X116649500Y-110172500D01*
X153987500Y-110172500D01*
X153987500Y-155638500D01*
X153987500Y-155638500D01*
G37*
X153987500Y-155638500D02*
X116649500Y-155638500D01*
X116649500Y-142105000D01*
X125212768Y-142105000D01*
X125212768Y-142605000D01*
X125226051Y-142675595D01*
X125267773Y-142740432D01*
X125331433Y-142783929D01*
X125407000Y-142799232D01*
X126307000Y-142799232D01*
X126377595Y-142785949D01*
X126442432Y-142744227D01*
X126485929Y-142680567D01*
X126487563Y-142672500D01*
X127647000Y-142672500D01*
X127768502Y-142648332D01*
X127871506Y-142579506D01*
X128079500Y-142371513D01*
X128079500Y-142493723D01*
X128079445Y-142556878D01*
X128127680Y-142673614D01*
X128216916Y-142763006D01*
X128333568Y-142811445D01*
X128459878Y-142811555D01*
X128518501Y-142787332D01*
X128518502Y-142787332D01*
X128518503Y-142787331D01*
X128576614Y-142763320D01*
X128666006Y-142674084D01*
X128714445Y-142557432D01*
X128714555Y-142431122D01*
X128714500Y-142430989D01*
X128714500Y-142303500D01*
X130175067Y-142303500D01*
X130233000Y-142315232D01*
X130681653Y-142315232D01*
X130683000Y-142315500D01*
X130684347Y-142315232D01*
X131133000Y-142315232D01*
X131203595Y-142301949D01*
X131268432Y-142260227D01*
X131311929Y-142196567D01*
X131327232Y-142121000D01*
X131327232Y-141621000D01*
X131313949Y-141550405D01*
X131272227Y-141485568D01*
X131208567Y-141442071D01*
X131133000Y-141426768D01*
X130744675Y-141426768D01*
X130683000Y-141414500D01*
X130621325Y-141426768D01*
X130233000Y-141426768D01*
X130162405Y-141440051D01*
X130097568Y-141481773D01*
X130054071Y-141545433D01*
X130038768Y-141621000D01*
X130038768Y-141668500D01*
X128016000Y-141668500D01*
X127894498Y-141692668D01*
X127791494Y-141761493D01*
X127515488Y-142037500D01*
X126488531Y-142037500D01*
X126487949Y-142034405D01*
X126446227Y-141969568D01*
X126382567Y-141926071D01*
X126307000Y-141910768D01*
X125407000Y-141910768D01*
X125336405Y-141924051D01*
X125271568Y-141965773D01*
X125228071Y-142029433D01*
X125212768Y-142105000D01*
X116649500Y-142105000D01*
X116649500Y-135763000D01*
X117811115Y-135763000D01*
X117890318Y-136161182D01*
X118115870Y-136498745D01*
X118453433Y-136724297D01*
X118851615Y-136803500D01*
X118892385Y-136803500D01*
X119290567Y-136724297D01*
X119628130Y-136498745D01*
X119853682Y-136161182D01*
X119869731Y-136080500D01*
X124074488Y-136080500D01*
X126775494Y-138781507D01*
X126878498Y-138850332D01*
X127000000Y-138874500D01*
X132841723Y-138874500D01*
X132904878Y-138874555D01*
X132963501Y-138850332D01*
X132963502Y-138850332D01*
X132963503Y-138850331D01*
X133006369Y-138832619D01*
X132075488Y-139763500D01*
X127258513Y-139763500D01*
X125573506Y-138078494D01*
X125470502Y-138009668D01*
X125349000Y-137985500D01*
X119869731Y-137985500D01*
X119853682Y-137904818D01*
X119628130Y-137567255D01*
X119290567Y-137341703D01*
X118892385Y-137262500D01*
X118851615Y-137262500D01*
X118453433Y-137341703D01*
X118115870Y-137567255D01*
X117890318Y-137904818D01*
X117811115Y-138303000D01*
X117890318Y-138701182D01*
X118115870Y-139038745D01*
X118453433Y-139264297D01*
X118851615Y-139343500D01*
X118892385Y-139343500D01*
X119290567Y-139264297D01*
X119628130Y-139038745D01*
X119853682Y-138701182D01*
X119869731Y-138620500D01*
X125217488Y-138620500D01*
X126902494Y-140305507D01*
X127005498Y-140374332D01*
X127127000Y-140398500D01*
X132202488Y-140398500D01*
X132075488Y-140525500D01*
X126482219Y-140525500D01*
X126446227Y-140469568D01*
X126382567Y-140426071D01*
X126307000Y-140410768D01*
X125407000Y-140410768D01*
X125336405Y-140424051D01*
X125271568Y-140465773D01*
X125230758Y-140525500D01*
X119869731Y-140525500D01*
X119853682Y-140444818D01*
X119628130Y-140107255D01*
X119290567Y-139881703D01*
X118892385Y-139802500D01*
X118851615Y-139802500D01*
X118453433Y-139881703D01*
X118115870Y-140107255D01*
X117890318Y-140444818D01*
X117811115Y-140843000D01*
X117890318Y-141241182D01*
X118115870Y-141578745D01*
X118453433Y-141804297D01*
X118851615Y-141883500D01*
X118892385Y-141883500D01*
X119290567Y-141804297D01*
X119628130Y-141578745D01*
X119853682Y-141241182D01*
X119869731Y-141160500D01*
X125223211Y-141160500D01*
X125226051Y-141175595D01*
X125267773Y-141240432D01*
X125331433Y-141283929D01*
X125407000Y-141299232D01*
X126307000Y-141299232D01*
X126377595Y-141285949D01*
X126442432Y-141244227D01*
X126485929Y-141180567D01*
X126489993Y-141160500D01*
X132207000Y-141160500D01*
X132328502Y-141136332D01*
X132431506Y-141067506D01*
X134048500Y-139450513D01*
X134048500Y-139568487D01*
X130690220Y-142926768D01*
X130233000Y-142926768D01*
X130162405Y-142940051D01*
X130097568Y-142981773D01*
X130054071Y-143045433D01*
X130050007Y-143065500D01*
X119869731Y-143065500D01*
X119853682Y-142984818D01*
X119628130Y-142647255D01*
X119290567Y-142421703D01*
X118892385Y-142342500D01*
X118851615Y-142342500D01*
X118453433Y-142421703D01*
X118115870Y-142647255D01*
X117890318Y-142984818D01*
X117811115Y-143383000D01*
X117890318Y-143781182D01*
X118115870Y-144118745D01*
X118453433Y-144344297D01*
X118851615Y-144423500D01*
X118892385Y-144423500D01*
X119290567Y-144344297D01*
X119628130Y-144118745D01*
X119853682Y-143781182D01*
X119869731Y-143700500D01*
X130057781Y-143700500D01*
X130093773Y-143756432D01*
X130157433Y-143799929D01*
X130233000Y-143815232D01*
X131133000Y-143815232D01*
X131203595Y-143801949D01*
X131268432Y-143760227D01*
X131311929Y-143696567D01*
X131327232Y-143621000D01*
X131327232Y-143187780D01*
X134556500Y-139958513D01*
X134556500Y-140076487D01*
X133125494Y-141507494D01*
X133056668Y-141610498D01*
X133032500Y-141732000D01*
X133032500Y-143886487D01*
X131313488Y-145605500D01*
X119869731Y-145605500D01*
X119853682Y-145524818D01*
X119628130Y-145187255D01*
X119290567Y-144961703D01*
X118892385Y-144882500D01*
X118851615Y-144882500D01*
X118453433Y-144961703D01*
X118115870Y-145187255D01*
X117890318Y-145524818D01*
X117811115Y-145923000D01*
X117890318Y-146321182D01*
X118115870Y-146658745D01*
X118453433Y-146884297D01*
X118851615Y-146963500D01*
X118892385Y-146963500D01*
X119290567Y-146884297D01*
X119628130Y-146658745D01*
X119853682Y-146321182D01*
X119869731Y-146240500D01*
X131445000Y-146240500D01*
X131566502Y-146216332D01*
X131669506Y-146147506D01*
X133574507Y-144242506D01*
X133643332Y-144139502D01*
X133667500Y-144018000D01*
X133667500Y-145791487D01*
X131313488Y-148145500D01*
X119869731Y-148145500D01*
X119853682Y-148064818D01*
X119628130Y-147727255D01*
X119290567Y-147501703D01*
X118892385Y-147422500D01*
X118851615Y-147422500D01*
X118453433Y-147501703D01*
X118115870Y-147727255D01*
X117890318Y-148064818D01*
X117811115Y-148463000D01*
X117890318Y-148861182D01*
X118115870Y-149198745D01*
X118453433Y-149424297D01*
X118851615Y-149503500D01*
X118892385Y-149503500D01*
X119290567Y-149424297D01*
X119628130Y-149198745D01*
X119853682Y-148861182D01*
X119869731Y-148780500D01*
X131445000Y-148780500D01*
X131566502Y-148756332D01*
X131669506Y-148687506D01*
X134209506Y-146147507D01*
X134278332Y-146044502D01*
X134302500Y-145923000D01*
X134302500Y-141990512D01*
X135572500Y-140720513D01*
X135572500Y-140838488D01*
X134522494Y-141888494D01*
X134453668Y-141991498D01*
X134429500Y-142113000D01*
X134429500Y-146045487D01*
X129789488Y-150685500D01*
X119869731Y-150685500D01*
X119853682Y-150604818D01*
X119628130Y-150267255D01*
X119290567Y-150041703D01*
X118892385Y-149962500D01*
X118851615Y-149962500D01*
X118453433Y-150041703D01*
X118115870Y-150267255D01*
X117890318Y-150604818D01*
X117811115Y-151003000D01*
X117890318Y-151401182D01*
X118115870Y-151738745D01*
X118453433Y-151964297D01*
X118851615Y-152043500D01*
X118892385Y-152043500D01*
X119290567Y-151964297D01*
X119628130Y-151738745D01*
X119853682Y-151401182D01*
X119869731Y-151320500D01*
X129921000Y-151320500D01*
X130042502Y-151296332D01*
X130145506Y-151227506D01*
X134971507Y-146401506D01*
X135040332Y-146298502D01*
X135064500Y-146177000D01*
X135064500Y-146426487D01*
X128265488Y-153225500D01*
X119916232Y-153225500D01*
X119916232Y-152693000D01*
X119902949Y-152622405D01*
X119861227Y-152557568D01*
X119797567Y-152514071D01*
X119722000Y-152498768D01*
X118022000Y-152498768D01*
X117951405Y-152512051D01*
X117886568Y-152553773D01*
X117843071Y-152617433D01*
X117827768Y-152693000D01*
X117827768Y-154393000D01*
X117841051Y-154463595D01*
X117882773Y-154528432D01*
X117946433Y-154571929D01*
X118022000Y-154587232D01*
X119722000Y-154587232D01*
X119792595Y-154573949D01*
X119857432Y-154532227D01*
X119900929Y-154468567D01*
X119916232Y-154393000D01*
X119916232Y-154130375D01*
X130881500Y-154130375D01*
X130881500Y-154410678D01*
X130968506Y-154620728D01*
X131129271Y-154781494D01*
X131339321Y-154868500D01*
X131619625Y-154868500D01*
X131762500Y-154725625D01*
X131762500Y-153987500D01*
X132143500Y-153987500D01*
X132143500Y-154725625D01*
X132286375Y-154868500D01*
X132566679Y-154868500D01*
X132776729Y-154781494D01*
X132784806Y-154773417D01*
X132869896Y-154808647D01*
X133032500Y-154705875D01*
X133032500Y-153987500D01*
X133413500Y-153987500D01*
X133413500Y-154705875D01*
X133576104Y-154808647D01*
X133688672Y-154762041D01*
X133858000Y-154634401D01*
X134027328Y-154762041D01*
X134139896Y-154808647D01*
X134302500Y-154705875D01*
X134302500Y-153987500D01*
X134683500Y-153987500D01*
X134683500Y-154705875D01*
X134846104Y-154808647D01*
X134958672Y-154762041D01*
X135128000Y-154634401D01*
X135297328Y-154762041D01*
X135409896Y-154808647D01*
X135572500Y-154705875D01*
X135572500Y-153987500D01*
X135953500Y-153987500D01*
X135953500Y-154705875D01*
X136116104Y-154808647D01*
X136228672Y-154762041D01*
X136398000Y-154634401D01*
X136567328Y-154762041D01*
X136679896Y-154808647D01*
X136842500Y-154705875D01*
X136842500Y-153987500D01*
X137223500Y-153987500D01*
X137223500Y-154705875D01*
X137386104Y-154808647D01*
X137498672Y-154762041D01*
X137668000Y-154634401D01*
X137837328Y-154762041D01*
X137949896Y-154808647D01*
X138112500Y-154705875D01*
X138112500Y-153987500D01*
X138493500Y-153987500D01*
X138493500Y-154705875D01*
X138656104Y-154808647D01*
X138768672Y-154762041D01*
X139102530Y-154510377D01*
X139314667Y-154150107D01*
X139214575Y-153987500D01*
X138493500Y-153987500D01*
X138112500Y-153987500D01*
X137223500Y-153987500D01*
X136842500Y-153987500D01*
X135953500Y-153987500D01*
X135572500Y-153987500D01*
X134683500Y-153987500D01*
X134302500Y-153987500D01*
X133413500Y-153987500D01*
X133032500Y-153987500D01*
X132143500Y-153987500D01*
X131762500Y-153987500D01*
X131024375Y-153987500D01*
X130881500Y-154130375D01*
X119916232Y-154130375D01*
X119916232Y-153860500D01*
X128397000Y-153860500D01*
X128518502Y-153836332D01*
X128621506Y-153767506D01*
X129205690Y-153183322D01*
X130881500Y-153183322D01*
X130881500Y-153463625D01*
X131024375Y-153606500D01*
X131762500Y-153606500D01*
X131762500Y-152868375D01*
X132143500Y-152868375D01*
X132143500Y-153606500D01*
X133032500Y-153606500D01*
X133032500Y-152888125D01*
X133413500Y-152888125D01*
X133413500Y-153606500D01*
X134302500Y-153606500D01*
X134302500Y-152888125D01*
X134683500Y-152888125D01*
X134683500Y-153606500D01*
X135572500Y-153606500D01*
X135572500Y-152888125D01*
X135953500Y-152888125D01*
X135953500Y-153606500D01*
X136842500Y-153606500D01*
X136842500Y-152888125D01*
X137223500Y-152888125D01*
X137223500Y-153606500D01*
X138112500Y-153606500D01*
X138112500Y-152888125D01*
X138493500Y-152888125D01*
X138493500Y-153606500D01*
X139214575Y-153606500D01*
X139314667Y-153443893D01*
X139102530Y-153083623D01*
X138768672Y-152831959D01*
X138656104Y-152785353D01*
X138493500Y-152888125D01*
X138112500Y-152888125D01*
X137949896Y-152785353D01*
X137837328Y-152831959D01*
X137668000Y-152959599D01*
X137498672Y-152831959D01*
X137386104Y-152785353D01*
X137223500Y-152888125D01*
X136842500Y-152888125D01*
X136679896Y-152785353D01*
X136567328Y-152831959D01*
X136398000Y-152959599D01*
X136228672Y-152831959D01*
X136116104Y-152785353D01*
X135953500Y-152888125D01*
X135572500Y-152888125D01*
X135409896Y-152785353D01*
X135297328Y-152831959D01*
X135128000Y-152959599D01*
X134958672Y-152831959D01*
X134846104Y-152785353D01*
X134683500Y-152888125D01*
X134302500Y-152888125D01*
X134139896Y-152785353D01*
X134027328Y-152831959D01*
X133858000Y-152959599D01*
X133688672Y-152831959D01*
X133576104Y-152785353D01*
X133413500Y-152888125D01*
X133032500Y-152888125D01*
X132869896Y-152785353D01*
X132784806Y-152820583D01*
X132776729Y-152812506D01*
X132566679Y-152725500D01*
X132286375Y-152725500D01*
X132143500Y-152868375D01*
X131762500Y-152868375D01*
X131619625Y-152725500D01*
X131339321Y-152725500D01*
X131129271Y-152812506D01*
X130968506Y-152973272D01*
X130881500Y-153183322D01*
X129205690Y-153183322D01*
X132339134Y-150049878D01*
X133286445Y-150049878D01*
X133334680Y-150166614D01*
X133423916Y-150256006D01*
X133540568Y-150304445D01*
X133666878Y-150304555D01*
X133667011Y-150304500D01*
X135635723Y-150304500D01*
X135698878Y-150304555D01*
X135757501Y-150280332D01*
X135757502Y-150280332D01*
X135757503Y-150280331D01*
X135815614Y-150256320D01*
X135905006Y-150167084D01*
X135953445Y-150050432D01*
X135953555Y-149924122D01*
X135905320Y-149807386D01*
X135816084Y-149717994D01*
X135699432Y-149669555D01*
X135573122Y-149669445D01*
X135572989Y-149669500D01*
X133604277Y-149669500D01*
X133541122Y-149669445D01*
X133482499Y-149693668D01*
X133482498Y-149693668D01*
X133482497Y-149693669D01*
X133424386Y-149717680D01*
X133334994Y-149806916D01*
X133286555Y-149923568D01*
X133286445Y-150049878D01*
X132339134Y-150049878D01*
X133338637Y-149050375D01*
X146914500Y-149050375D01*
X146914500Y-149680679D01*
X147001506Y-149890729D01*
X147162272Y-150051494D01*
X147372322Y-150138500D01*
X148002625Y-150138500D01*
X148145500Y-149995625D01*
X148145500Y-148907500D01*
X148526500Y-148907500D01*
X148526500Y-149995625D01*
X148669375Y-150138500D01*
X149299678Y-150138500D01*
X149509728Y-150051494D01*
X149670494Y-149890729D01*
X149757500Y-149680679D01*
X149757500Y-149050375D01*
X149614625Y-148907500D01*
X148526500Y-148907500D01*
X148145500Y-148907500D01*
X147057375Y-148907500D01*
X146914500Y-149050375D01*
X133338637Y-149050375D01*
X134635691Y-147753321D01*
X146914500Y-147753321D01*
X146914500Y-148383625D01*
X147057375Y-148526500D01*
X148145500Y-148526500D01*
X148145500Y-147438375D01*
X148526500Y-147438375D01*
X148526500Y-148526500D01*
X149614625Y-148526500D01*
X149757500Y-148383625D01*
X149757500Y-147753321D01*
X149670494Y-147543271D01*
X149509728Y-147382506D01*
X149299678Y-147295500D01*
X148669375Y-147295500D01*
X148526500Y-147438375D01*
X148145500Y-147438375D01*
X148002625Y-147295500D01*
X147372322Y-147295500D01*
X147162272Y-147382506D01*
X147001506Y-147543271D01*
X146914500Y-147753321D01*
X134635691Y-147753321D01*
X135606507Y-146782506D01*
X135675332Y-146679502D01*
X135699500Y-146558000D01*
X135699500Y-146177000D01*
X147275115Y-146177000D01*
X147354318Y-146575182D01*
X147579870Y-146912745D01*
X147917433Y-147138297D01*
X148315615Y-147217500D01*
X148356385Y-147217500D01*
X148754567Y-147138297D01*
X149092130Y-146912745D01*
X149317682Y-146575182D01*
X149396885Y-146177000D01*
X149317682Y-145778818D01*
X149092130Y-145441255D01*
X148754567Y-145215703D01*
X148356385Y-145136500D01*
X148315615Y-145136500D01*
X147917433Y-145215703D01*
X147579870Y-145441255D01*
X147354318Y-145778818D01*
X147275115Y-146177000D01*
X135699500Y-146177000D01*
X135699500Y-143637000D01*
X147275115Y-143637000D01*
X147354318Y-144035182D01*
X147579870Y-144372745D01*
X147917433Y-144598297D01*
X148315615Y-144677500D01*
X148356385Y-144677500D01*
X148754567Y-144598297D01*
X149092130Y-144372745D01*
X149317682Y-144035182D01*
X149396885Y-143637000D01*
X149317682Y-143238818D01*
X149092130Y-142901255D01*
X148754567Y-142675703D01*
X148356385Y-142596500D01*
X148315615Y-142596500D01*
X147917433Y-142675703D01*
X147579870Y-142901255D01*
X147354318Y-143238818D01*
X147275115Y-143637000D01*
X135699500Y-143637000D01*
X135699500Y-142371512D01*
X136622506Y-141448506D01*
X136691332Y-141345502D01*
X136715500Y-141224000D01*
X136715500Y-138557000D01*
X136715555Y-138494122D01*
X136667320Y-138377386D01*
X136578084Y-138287994D01*
X136461432Y-138239555D01*
X136335122Y-138239445D01*
X136276499Y-138263668D01*
X136276498Y-138263668D01*
X136276497Y-138263669D01*
X136218386Y-138287680D01*
X136143948Y-138361988D01*
X136070084Y-138287994D01*
X135953432Y-138239555D01*
X135827122Y-138239445D01*
X135768499Y-138263668D01*
X135768498Y-138263668D01*
X135768497Y-138263669D01*
X135710386Y-138287680D01*
X135635948Y-138361988D01*
X135562084Y-138287994D01*
X135445432Y-138239555D01*
X135319122Y-138239445D01*
X135260499Y-138263668D01*
X135260498Y-138263668D01*
X135260497Y-138263669D01*
X135202386Y-138287680D01*
X135127948Y-138361988D01*
X135054084Y-138287994D01*
X134937432Y-138239555D01*
X134811122Y-138239445D01*
X134752499Y-138263668D01*
X134752498Y-138263668D01*
X134752497Y-138263669D01*
X134694386Y-138287680D01*
X134619948Y-138361988D01*
X134546084Y-138287994D01*
X134429432Y-138239555D01*
X134303122Y-138239445D01*
X134244499Y-138263668D01*
X134244498Y-138263668D01*
X134244497Y-138263669D01*
X134186386Y-138287680D01*
X134111948Y-138361988D01*
X134038084Y-138287994D01*
X133921432Y-138239555D01*
X133795122Y-138239445D01*
X133736499Y-138263668D01*
X133736498Y-138263668D01*
X133736497Y-138263669D01*
X133678386Y-138287680D01*
X133603948Y-138361988D01*
X133530084Y-138287994D01*
X133413432Y-138239555D01*
X133287122Y-138239445D01*
X133228499Y-138263668D01*
X133228498Y-138263668D01*
X133228497Y-138263669D01*
X133170386Y-138287680D01*
X133095948Y-138361988D01*
X133022084Y-138287994D01*
X132905432Y-138239555D01*
X132779122Y-138239445D01*
X132778989Y-138239500D01*
X127131513Y-138239500D01*
X125860891Y-136968878D01*
X136969445Y-136968878D01*
X137017680Y-137085614D01*
X137106916Y-137175006D01*
X137107049Y-137175061D01*
X139827000Y-139895013D01*
X139827000Y-140969723D01*
X139826945Y-141032878D01*
X139875180Y-141149614D01*
X139964416Y-141239006D01*
X140081068Y-141287445D01*
X140207378Y-141287555D01*
X140266001Y-141263332D01*
X140266002Y-141263332D01*
X140266003Y-141263331D01*
X140324114Y-141239320D01*
X140413506Y-141150084D01*
X140461945Y-141033432D01*
X140462055Y-140907122D01*
X140462000Y-140906989D01*
X140462000Y-139763500D01*
X140450419Y-139705276D01*
X147019883Y-139705276D01*
X147122505Y-139953640D01*
X147312360Y-140143827D01*
X147560545Y-140246883D01*
X147829276Y-140247117D01*
X148077640Y-140144495D01*
X148215343Y-140007032D01*
X148401268Y-140007032D01*
X148401268Y-140781500D01*
X148414551Y-140852095D01*
X148456273Y-140916932D01*
X148519933Y-140960429D01*
X148595500Y-140975732D01*
X153675500Y-140975732D01*
X153746095Y-140962449D01*
X153810932Y-140920727D01*
X153854429Y-140857067D01*
X153869732Y-140781500D01*
X153869732Y-138361500D01*
X153856449Y-138290905D01*
X153814727Y-138226068D01*
X153751067Y-138182571D01*
X153675500Y-138167268D01*
X148595500Y-138167268D01*
X148524905Y-138180551D01*
X148460068Y-138222273D01*
X148416571Y-138285933D01*
X148401268Y-138361500D01*
X148401268Y-139135968D01*
X148215196Y-139135968D01*
X148078640Y-138999173D01*
X147830455Y-138896117D01*
X147561724Y-138895883D01*
X147313360Y-138998505D01*
X147123173Y-139188360D01*
X147020117Y-139436545D01*
X147019883Y-139705276D01*
X140450419Y-139705276D01*
X140437832Y-139641998D01*
X140395402Y-139578498D01*
X140369006Y-139538993D01*
X137511506Y-136681494D01*
X137467084Y-136636994D01*
X137350432Y-136588555D01*
X137224122Y-136588445D01*
X137165499Y-136612668D01*
X137165498Y-136612668D01*
X137165497Y-136612669D01*
X137107386Y-136636680D01*
X137017994Y-136725916D01*
X136969555Y-136842568D01*
X136969445Y-136968878D01*
X125860891Y-136968878D01*
X124430506Y-135538494D01*
X124327502Y-135469668D01*
X124266721Y-135457578D01*
X136918645Y-135457578D01*
X136966880Y-135574314D01*
X137056116Y-135663706D01*
X137172768Y-135712145D01*
X137299078Y-135712255D01*
X137299211Y-135712200D01*
X139052300Y-135712200D01*
X139173802Y-135688032D01*
X139276806Y-135619206D01*
X143950736Y-130945276D01*
X147019883Y-130945276D01*
X147122505Y-131193640D01*
X147312360Y-131383827D01*
X147560545Y-131486883D01*
X147829276Y-131487117D01*
X148077640Y-131384495D01*
X148215343Y-131247032D01*
X148401268Y-131247032D01*
X148401268Y-132021500D01*
X148414551Y-132092095D01*
X148456273Y-132156932D01*
X148519933Y-132200429D01*
X148595500Y-132215732D01*
X153675500Y-132215732D01*
X153746095Y-132202449D01*
X153810932Y-132160727D01*
X153854429Y-132097067D01*
X153869732Y-132021500D01*
X153869732Y-129601500D01*
X153856449Y-129530905D01*
X153814727Y-129466068D01*
X153751067Y-129422571D01*
X153675500Y-129407268D01*
X148595500Y-129407268D01*
X148524905Y-129420551D01*
X148460068Y-129462273D01*
X148416571Y-129525933D01*
X148401268Y-129601500D01*
X148401268Y-130375968D01*
X148215196Y-130375968D01*
X148078640Y-130239173D01*
X147830455Y-130136117D01*
X147561724Y-130135883D01*
X147313360Y-130238505D01*
X147123173Y-130428360D01*
X147020117Y-130676545D01*
X147019883Y-130945276D01*
X143950736Y-130945276D01*
X144750507Y-130145506D01*
X144819332Y-130042502D01*
X144843500Y-129921000D01*
X144843500Y-128651000D01*
X144843555Y-128588122D01*
X144795320Y-128471386D01*
X144706084Y-128381994D01*
X144589432Y-128333555D01*
X144463122Y-128333445D01*
X144404499Y-128357668D01*
X144404498Y-128357668D01*
X144404497Y-128357669D01*
X144346386Y-128381680D01*
X144256994Y-128470916D01*
X144208555Y-128587568D01*
X144208445Y-128713878D01*
X144208500Y-128714011D01*
X144208500Y-129789487D01*
X138920788Y-135077200D01*
X138574212Y-135077200D01*
X142655006Y-130996407D01*
X142655008Y-130996404D01*
X142667707Y-130983706D01*
X142667709Y-130983703D01*
X143925006Y-129726407D01*
X143993832Y-129623402D01*
X143997777Y-129603568D01*
X144018000Y-129501900D01*
X144018000Y-128056072D01*
X145104153Y-126969920D01*
X145340548Y-127068080D01*
X145615246Y-127068320D01*
X145869126Y-126963419D01*
X146063536Y-126769348D01*
X146168880Y-126515652D01*
X146169120Y-126240954D01*
X146064219Y-125987074D01*
X145870148Y-125792664D01*
X145616452Y-125687320D01*
X145341754Y-125687080D01*
X145087874Y-125791981D01*
X144893464Y-125986052D01*
X144788120Y-126239748D01*
X144787990Y-126388057D01*
X143475994Y-127700054D01*
X143407168Y-127803058D01*
X143383000Y-127924560D01*
X143383000Y-129370387D01*
X142218697Y-130534691D01*
X142218694Y-130534693D01*
X142205996Y-130547392D01*
X142205993Y-130547394D01*
X138196888Y-134556500D01*
X137261877Y-134556500D01*
X137198722Y-134556445D01*
X137140099Y-134580668D01*
X137140098Y-134580668D01*
X137140097Y-134580669D01*
X137081986Y-134604680D01*
X136992594Y-134693916D01*
X136944155Y-134810568D01*
X136944045Y-134936878D01*
X136992280Y-135053614D01*
X137061779Y-135123234D01*
X137056586Y-135125380D01*
X136967194Y-135214616D01*
X136918755Y-135331268D01*
X136918645Y-135457578D01*
X124266721Y-135457578D01*
X124206000Y-135445500D01*
X119869731Y-135445500D01*
X119853682Y-135364818D01*
X119628130Y-135027255D01*
X119290567Y-134801703D01*
X118892385Y-134722500D01*
X118851615Y-134722500D01*
X118453433Y-134801703D01*
X118115870Y-135027255D01*
X117890318Y-135364818D01*
X117811115Y-135763000D01*
X116649500Y-135763000D01*
X116649500Y-133631520D01*
X117510467Y-133631520D01*
X117620370Y-133896891D01*
X117973532Y-134324572D01*
X118463477Y-134584549D01*
X118681500Y-134488818D01*
X118681500Y-133413500D01*
X119062500Y-133413500D01*
X119062500Y-134488818D01*
X119280523Y-134584549D01*
X119770468Y-134324572D01*
X120123630Y-133896891D01*
X120233533Y-133631520D01*
X120136354Y-133413500D01*
X119062500Y-133413500D01*
X118681500Y-133413500D01*
X117607646Y-133413500D01*
X117510467Y-133631520D01*
X116649500Y-133631520D01*
X116649500Y-132814480D01*
X117510467Y-132814480D01*
X117607646Y-133032500D01*
X118681500Y-133032500D01*
X118681500Y-131957182D01*
X119062500Y-131957182D01*
X119062500Y-133032500D01*
X120136354Y-133032500D01*
X120233533Y-132814480D01*
X120175768Y-132675000D01*
X121304768Y-132675000D01*
X121304768Y-134025000D01*
X121318051Y-134095595D01*
X121359773Y-134160432D01*
X121423433Y-134203929D01*
X121499000Y-134219232D01*
X122849000Y-134219232D01*
X122919595Y-134205949D01*
X122984432Y-134164227D01*
X123027929Y-134100567D01*
X123043232Y-134025000D01*
X123043232Y-133333044D01*
X123308500Y-133333044D01*
X123308500Y-133366956D01*
X123374382Y-133698169D01*
X123561999Y-133978957D01*
X123842787Y-134166574D01*
X124174000Y-134232456D01*
X124505213Y-134166574D01*
X124786001Y-133978957D01*
X124973618Y-133698169D01*
X125039500Y-133366956D01*
X125039500Y-133333044D01*
X124973618Y-133001831D01*
X124786001Y-132721043D01*
X124505213Y-132533426D01*
X124174000Y-132467544D01*
X123842787Y-132533426D01*
X123561999Y-132721043D01*
X123374382Y-133001831D01*
X123308500Y-133333044D01*
X123043232Y-133333044D01*
X123043232Y-132675000D01*
X123029949Y-132604405D01*
X122988227Y-132539568D01*
X122924567Y-132496071D01*
X122849000Y-132480768D01*
X122618500Y-132480768D01*
X122618500Y-132010118D01*
X122739118Y-131889500D01*
X123571000Y-131889500D01*
X123741103Y-131855664D01*
X123885309Y-131759309D01*
X124774309Y-130870309D01*
X124870664Y-130726102D01*
X124904500Y-130556000D01*
X124870664Y-130385898D01*
X124794632Y-130272106D01*
X125158500Y-130484363D01*
X125158500Y-131699000D01*
X125167219Y-131742833D01*
X125171044Y-131787366D01*
X125179209Y-131803110D01*
X125182668Y-131820502D01*
X125207497Y-131857660D01*
X125228074Y-131897341D01*
X127768074Y-135072341D01*
X127781643Y-135083763D01*
X127791494Y-135098506D01*
X127828652Y-135123335D01*
X127862848Y-135152120D01*
X127879752Y-135157479D01*
X127894498Y-135167332D01*
X127938335Y-135176052D01*
X127980938Y-135189558D01*
X127998607Y-135188040D01*
X128016000Y-135191500D01*
X132206723Y-135191500D01*
X132269878Y-135191555D01*
X132328501Y-135167332D01*
X132328502Y-135167332D01*
X132328503Y-135167331D01*
X132386614Y-135143320D01*
X132476006Y-135054084D01*
X132524445Y-134937432D01*
X132524555Y-134811122D01*
X132476320Y-134694386D01*
X132402012Y-134619948D01*
X132476006Y-134546084D01*
X132524445Y-134429432D01*
X132524555Y-134303122D01*
X132476320Y-134186386D01*
X132387084Y-134096994D01*
X132270432Y-134048555D01*
X132144122Y-134048445D01*
X132143989Y-134048500D01*
X130814513Y-134048500D01*
X129730500Y-132964488D01*
X129730500Y-132207000D01*
X129706332Y-132085498D01*
X129685369Y-132054125D01*
X129637506Y-131982493D01*
X128660232Y-131005219D01*
X128660232Y-130572000D01*
X128646949Y-130501405D01*
X128605227Y-130436568D01*
X128541567Y-130393071D01*
X128466000Y-130377768D01*
X128032780Y-130377768D01*
X127097506Y-129442494D01*
X126994502Y-129373668D01*
X126873000Y-129349500D01*
X126630624Y-129349500D01*
X126887151Y-129243504D01*
X127083814Y-129047185D01*
X127190378Y-128790550D01*
X127190621Y-128512669D01*
X127190500Y-128512376D01*
X127190500Y-124206000D01*
X127179162Y-124149002D01*
X127137330Y-123938695D01*
X126985914Y-123712086D01*
X125969914Y-122696086D01*
X125969913Y-122696086D01*
X125872185Y-122598186D01*
X125743307Y-122544671D01*
X125743305Y-122544670D01*
X125743303Y-122544670D01*
X125615550Y-122491622D01*
X125337669Y-122491379D01*
X125208698Y-122544669D01*
X125208695Y-122544670D01*
X125208693Y-122544671D01*
X125080849Y-122597496D01*
X124884186Y-122793815D01*
X124777622Y-123050450D01*
X124777379Y-123328331D01*
X124830669Y-123457302D01*
X124830670Y-123457305D01*
X124830671Y-123457307D01*
X124883496Y-123585151D01*
X125079815Y-123781814D01*
X125080107Y-123781935D01*
X125793500Y-124495328D01*
X125793500Y-128650962D01*
X125793379Y-128789331D01*
X125899496Y-129046151D01*
X126095815Y-129242814D01*
X126352450Y-129349378D01*
X126491962Y-129349500D01*
X125349277Y-129349500D01*
X125286122Y-129349445D01*
X125227499Y-129373668D01*
X125227498Y-129373668D01*
X125227497Y-129373669D01*
X125169386Y-129397680D01*
X125079994Y-129486916D01*
X125031555Y-129603568D01*
X125031493Y-129675133D01*
X124269500Y-129230637D01*
X124269500Y-121031000D01*
X124269555Y-120968122D01*
X124259175Y-120943000D01*
X127479768Y-120943000D01*
X127479768Y-122643000D01*
X127493051Y-122713595D01*
X127534773Y-122778432D01*
X127598433Y-122821929D01*
X127674000Y-122837232D01*
X128206500Y-122837232D01*
X128206500Y-125476000D01*
X128216744Y-125527500D01*
X128230668Y-125597502D01*
X128299494Y-125700506D01*
X132524500Y-129925513D01*
X132524500Y-133730723D01*
X132524445Y-133793878D01*
X132572680Y-133910614D01*
X132661916Y-134000006D01*
X132778568Y-134048445D01*
X132904878Y-134048555D01*
X132963501Y-134024332D01*
X132963502Y-134024332D01*
X132963503Y-134024331D01*
X133021614Y-134000320D01*
X133111006Y-133911084D01*
X133159445Y-133794432D01*
X133159555Y-133668122D01*
X133159500Y-133667989D01*
X133159500Y-129794000D01*
X133135332Y-129672498D01*
X133089274Y-129603568D01*
X133066506Y-129569493D01*
X128841500Y-125344488D01*
X128841500Y-122837232D01*
X129374000Y-122837232D01*
X129444595Y-122823949D01*
X129509432Y-122782227D01*
X129552929Y-122718567D01*
X129568232Y-122643000D01*
X129568232Y-121772615D01*
X130023500Y-121772615D01*
X130023500Y-121813385D01*
X130102703Y-122211567D01*
X130328255Y-122549130D01*
X130665818Y-122774682D01*
X130746500Y-122790731D01*
X130746500Y-127000000D01*
X130759131Y-127063500D01*
X130770668Y-127121502D01*
X130839494Y-127224506D01*
X133540500Y-129925513D01*
X133540500Y-133603723D01*
X133540445Y-133666878D01*
X133588680Y-133783614D01*
X133677916Y-133873006D01*
X133794568Y-133921445D01*
X133920878Y-133921555D01*
X133979501Y-133897332D01*
X133979502Y-133897332D01*
X133979503Y-133897331D01*
X134037614Y-133873320D01*
X134112052Y-133799012D01*
X134185916Y-133873006D01*
X134302568Y-133921445D01*
X134428878Y-133921555D01*
X134487501Y-133897332D01*
X134487502Y-133897332D01*
X134487503Y-133897331D01*
X134545614Y-133873320D01*
X134625194Y-133793878D01*
X136080445Y-133793878D01*
X136128680Y-133910614D01*
X136217916Y-134000006D01*
X136334568Y-134048445D01*
X136460878Y-134048555D01*
X136519501Y-134024332D01*
X136519502Y-134024332D01*
X136519503Y-134024331D01*
X136577614Y-134000320D01*
X136667006Y-133911084D01*
X136667061Y-133910951D01*
X141004007Y-129574006D01*
X141072832Y-129471002D01*
X141097000Y-129349500D01*
X141097000Y-126514446D01*
X142887880Y-126514446D01*
X142992781Y-126768326D01*
X143186852Y-126962736D01*
X143440548Y-127068080D01*
X143715246Y-127068320D01*
X143969126Y-126963419D01*
X144163536Y-126769348D01*
X144268880Y-126515652D01*
X144269120Y-126240954D01*
X144164219Y-125987074D01*
X143970148Y-125792664D01*
X143716452Y-125687320D01*
X143441754Y-125687080D01*
X143187874Y-125791981D01*
X142993464Y-125986052D01*
X142888120Y-126239748D01*
X142887880Y-126514446D01*
X141097000Y-126514446D01*
X141097000Y-125971732D01*
X141229500Y-125971732D01*
X141300095Y-125958449D01*
X141364932Y-125916727D01*
X141408429Y-125853067D01*
X141423732Y-125777500D01*
X141423732Y-125277500D01*
X141410449Y-125206905D01*
X141368727Y-125142068D01*
X141305067Y-125098571D01*
X141229500Y-125083268D01*
X140329500Y-125083268D01*
X140258905Y-125096551D01*
X140194068Y-125138273D01*
X140150571Y-125201933D01*
X140135268Y-125277500D01*
X140135268Y-125777500D01*
X140148551Y-125848095D01*
X140190273Y-125912932D01*
X140253933Y-125956429D01*
X140329500Y-125971732D01*
X140462000Y-125971732D01*
X140462000Y-129217987D01*
X136173690Y-133506298D01*
X136128994Y-133550916D01*
X136080555Y-133667568D01*
X136080445Y-133793878D01*
X134625194Y-133793878D01*
X134635006Y-133784084D01*
X134683445Y-133667432D01*
X134683555Y-133541122D01*
X134683500Y-133540989D01*
X134683500Y-129159000D01*
X134659332Y-129037498D01*
X134631225Y-128995433D01*
X134590507Y-128934494D01*
X133921500Y-128265488D01*
X133921500Y-122790731D01*
X134002182Y-122774682D01*
X134339745Y-122549130D01*
X134565297Y-122211567D01*
X134567294Y-122201523D01*
X134782451Y-122201523D01*
X135042428Y-122691468D01*
X135470109Y-123044630D01*
X135735480Y-123154533D01*
X135953500Y-123057354D01*
X135953500Y-121983500D01*
X136334500Y-121983500D01*
X136334500Y-123057354D01*
X136552520Y-123154533D01*
X136817891Y-123044630D01*
X137245572Y-122691468D01*
X137505549Y-122201523D01*
X137409818Y-121983500D01*
X136334500Y-121983500D01*
X135953500Y-121983500D01*
X134878182Y-121983500D01*
X134782451Y-122201523D01*
X134567294Y-122201523D01*
X134644500Y-121813385D01*
X134644500Y-121772615D01*
X134567295Y-121384477D01*
X134782451Y-121384477D01*
X134878182Y-121602500D01*
X135953500Y-121602500D01*
X135953500Y-120528646D01*
X136334500Y-120528646D01*
X136334500Y-121602500D01*
X137409818Y-121602500D01*
X137505549Y-121384477D01*
X137271291Y-120943000D01*
X139735268Y-120943000D01*
X139735268Y-122643000D01*
X139748551Y-122713595D01*
X139790273Y-122778432D01*
X139853933Y-122821929D01*
X139929500Y-122837232D01*
X140462000Y-122837232D01*
X140462000Y-123583268D01*
X140329500Y-123583268D01*
X140258905Y-123596551D01*
X140194068Y-123638273D01*
X140150571Y-123701933D01*
X140135268Y-123777500D01*
X140135268Y-124277500D01*
X140148551Y-124348095D01*
X140190273Y-124412932D01*
X140253933Y-124456429D01*
X140329500Y-124471732D01*
X141229500Y-124471732D01*
X141300095Y-124458449D01*
X141364932Y-124416727D01*
X141408429Y-124353067D01*
X141423732Y-124277500D01*
X141423732Y-123777500D01*
X141410449Y-123706905D01*
X141368727Y-123642068D01*
X141305067Y-123598571D01*
X141229500Y-123583268D01*
X141097000Y-123583268D01*
X141097000Y-122837232D01*
X141629500Y-122837232D01*
X141700095Y-122823949D01*
X141764932Y-122782227D01*
X141808429Y-122718567D01*
X141823732Y-122643000D01*
X141823732Y-120943000D01*
X141810449Y-120872405D01*
X141768727Y-120807568D01*
X141705067Y-120764071D01*
X141629500Y-120748768D01*
X139929500Y-120748768D01*
X139858905Y-120762051D01*
X139794068Y-120803773D01*
X139750571Y-120867433D01*
X139735268Y-120943000D01*
X137271291Y-120943000D01*
X137245572Y-120894532D01*
X136817891Y-120541370D01*
X136552520Y-120431467D01*
X136334500Y-120528646D01*
X135953500Y-120528646D01*
X135735480Y-120431467D01*
X135470109Y-120541370D01*
X135042428Y-120894532D01*
X134782451Y-121384477D01*
X134567295Y-121384477D01*
X134565297Y-121374433D01*
X134339745Y-121036870D01*
X134002182Y-120811318D01*
X133604000Y-120732115D01*
X133205818Y-120811318D01*
X132868255Y-121036870D01*
X132642703Y-121374433D01*
X132563500Y-121772615D01*
X132563500Y-121813385D01*
X132642703Y-122211567D01*
X132868255Y-122549130D01*
X133205818Y-122774682D01*
X133286500Y-122790731D01*
X133286500Y-128397000D01*
X133309265Y-128511450D01*
X133310668Y-128518502D01*
X133379494Y-128621506D01*
X134048500Y-129290513D01*
X134048500Y-129535487D01*
X131381500Y-126868488D01*
X131381500Y-122790731D01*
X131462182Y-122774682D01*
X131799745Y-122549130D01*
X132025297Y-122211567D01*
X132104500Y-121813385D01*
X132104500Y-121772615D01*
X132025297Y-121374433D01*
X131799745Y-121036870D01*
X131462182Y-120811318D01*
X131064000Y-120732115D01*
X130665818Y-120811318D01*
X130328255Y-121036870D01*
X130102703Y-121374433D01*
X130023500Y-121772615D01*
X129568232Y-121772615D01*
X129568232Y-120943000D01*
X129554949Y-120872405D01*
X129513227Y-120807568D01*
X129449567Y-120764071D01*
X129374000Y-120748768D01*
X127674000Y-120748768D01*
X127603405Y-120762051D01*
X127538568Y-120803773D01*
X127495071Y-120867433D01*
X127479768Y-120943000D01*
X124259175Y-120943000D01*
X124221320Y-120851386D01*
X124132084Y-120761994D01*
X124015432Y-120713555D01*
X123889122Y-120713445D01*
X123830499Y-120737668D01*
X123830498Y-120737668D01*
X123830497Y-120737669D01*
X123772386Y-120761680D01*
X123682994Y-120850916D01*
X123634555Y-120967568D01*
X123634445Y-121093878D01*
X123634500Y-121094011D01*
X123634500Y-129413000D01*
X123642466Y-129453048D01*
X123644954Y-129493801D01*
X123654443Y-129513263D01*
X123658668Y-129534502D01*
X123681353Y-129568452D01*
X123699248Y-129605153D01*
X123715465Y-129619504D01*
X123727494Y-129637506D01*
X123761441Y-129660189D01*
X123792021Y-129687250D01*
X124549995Y-130129401D01*
X124460000Y-130111500D01*
X124289898Y-130145336D01*
X124145691Y-130241691D01*
X123386882Y-131000500D01*
X122555000Y-131000500D01*
X122384897Y-131034336D01*
X122240691Y-131130691D01*
X121859691Y-131511691D01*
X121763336Y-131655897D01*
X121729500Y-131826000D01*
X121729500Y-132480768D01*
X121499000Y-132480768D01*
X121428405Y-132494051D01*
X121363568Y-132535773D01*
X121320071Y-132599433D01*
X121304768Y-132675000D01*
X120175768Y-132675000D01*
X120123630Y-132549109D01*
X119770468Y-132121428D01*
X119280523Y-131861451D01*
X119062500Y-131957182D01*
X118681500Y-131957182D01*
X118463477Y-131861451D01*
X117973532Y-132121428D01*
X117620370Y-132549109D01*
X117510467Y-132814480D01*
X116649500Y-132814480D01*
X116649500Y-129071000D01*
X117827768Y-129071000D01*
X117827768Y-130771000D01*
X117841051Y-130841595D01*
X117882773Y-130906432D01*
X117946433Y-130949929D01*
X118022000Y-130965232D01*
X119722000Y-130965232D01*
X119792595Y-130951949D01*
X119857432Y-130910227D01*
X119900929Y-130846567D01*
X119916232Y-130771000D01*
X119916232Y-129071000D01*
X119902949Y-129000405D01*
X119861227Y-128935568D01*
X119797567Y-128892071D01*
X119722000Y-128876768D01*
X118022000Y-128876768D01*
X117951405Y-128890051D01*
X117886568Y-128931773D01*
X117843071Y-128995433D01*
X117827768Y-129071000D01*
X116649500Y-129071000D01*
X116649500Y-127381000D01*
X117811115Y-127381000D01*
X117890318Y-127779182D01*
X118115870Y-128116745D01*
X118453433Y-128342297D01*
X118851615Y-128421500D01*
X118892385Y-128421500D01*
X119290567Y-128342297D01*
X119628130Y-128116745D01*
X119853682Y-127779182D01*
X119932885Y-127381000D01*
X119853682Y-126982818D01*
X119628130Y-126645255D01*
X119290567Y-126419703D01*
X118892385Y-126340500D01*
X118851615Y-126340500D01*
X118453433Y-126419703D01*
X118115870Y-126645255D01*
X117890318Y-126982818D01*
X117811115Y-127381000D01*
X116649500Y-127381000D01*
X116649500Y-124841000D01*
X117811115Y-124841000D01*
X117890318Y-125239182D01*
X118115870Y-125576745D01*
X118453433Y-125802297D01*
X118851615Y-125881500D01*
X118892385Y-125881500D01*
X119290567Y-125802297D01*
X119628130Y-125576745D01*
X119853682Y-125239182D01*
X119932885Y-124841000D01*
X119853682Y-124442818D01*
X119628130Y-124105255D01*
X119290567Y-123879703D01*
X118892385Y-123800500D01*
X118851615Y-123800500D01*
X118453433Y-123879703D01*
X118115870Y-124105255D01*
X117890318Y-124442818D01*
X117811115Y-124841000D01*
X116649500Y-124841000D01*
X116649500Y-122301000D01*
X117811115Y-122301000D01*
X117890318Y-122699182D01*
X118115870Y-123036745D01*
X118453433Y-123262297D01*
X118851615Y-123341500D01*
X118892385Y-123341500D01*
X119290567Y-123262297D01*
X119628130Y-123036745D01*
X119853682Y-122699182D01*
X119932885Y-122301000D01*
X119853682Y-121902818D01*
X119628130Y-121565255D01*
X119290567Y-121339703D01*
X118892385Y-121260500D01*
X118851615Y-121260500D01*
X118453433Y-121339703D01*
X118115870Y-121565255D01*
X117890318Y-121902818D01*
X117811115Y-122301000D01*
X116649500Y-122301000D01*
X116649500Y-119761000D01*
X117811115Y-119761000D01*
X117890318Y-120159182D01*
X118115870Y-120496745D01*
X118453433Y-120722297D01*
X118851615Y-120801500D01*
X118892385Y-120801500D01*
X119290567Y-120722297D01*
X119628130Y-120496745D01*
X119853682Y-120159182D01*
X119932885Y-119761000D01*
X119853682Y-119362818D01*
X119628130Y-119025255D01*
X119290567Y-118799703D01*
X118892385Y-118720500D01*
X118851615Y-118720500D01*
X118453433Y-118799703D01*
X118115870Y-119025255D01*
X117890318Y-119362818D01*
X117811115Y-119761000D01*
X116649500Y-119761000D01*
X116649500Y-117221000D01*
X117811115Y-117221000D01*
X117890318Y-117619182D01*
X118115870Y-117956745D01*
X118453433Y-118182297D01*
X118851615Y-118261500D01*
X118892385Y-118261500D01*
X119290567Y-118182297D01*
X119628130Y-117956745D01*
X119853682Y-117619182D01*
X119932885Y-117221000D01*
X119853682Y-116822818D01*
X119628130Y-116485255D01*
X119290567Y-116259703D01*
X118892385Y-116180500D01*
X118851615Y-116180500D01*
X118453433Y-116259703D01*
X118115870Y-116485255D01*
X117890318Y-116822818D01*
X117811115Y-117221000D01*
X116649500Y-117221000D01*
X116649500Y-114681000D01*
X117811115Y-114681000D01*
X117890318Y-115079182D01*
X118115870Y-115416745D01*
X118453433Y-115642297D01*
X118851615Y-115721500D01*
X118892385Y-115721500D01*
X119290567Y-115642297D01*
X119494732Y-115505878D01*
X120205445Y-115505878D01*
X120205500Y-115506011D01*
X120205500Y-128905000D01*
X120223488Y-128995433D01*
X120229668Y-129026502D01*
X120298494Y-129129506D01*
X120840496Y-129671509D01*
X120840445Y-129729878D01*
X120888680Y-129846614D01*
X120977916Y-129936006D01*
X121094568Y-129984445D01*
X121220878Y-129984555D01*
X121279501Y-129960332D01*
X121279502Y-129960332D01*
X121279503Y-129960331D01*
X121337614Y-129936320D01*
X121427006Y-129847084D01*
X121475445Y-129730432D01*
X121475555Y-129604122D01*
X121475500Y-129603989D01*
X121475500Y-129540000D01*
X121451332Y-129418498D01*
X121443828Y-129407268D01*
X121382507Y-129315494D01*
X121288891Y-129221878D01*
X122872445Y-129221878D01*
X122872500Y-129222011D01*
X122872500Y-130301723D01*
X122872445Y-130364878D01*
X122920680Y-130481614D01*
X123009916Y-130571006D01*
X123126568Y-130619445D01*
X123252878Y-130619555D01*
X123311501Y-130595332D01*
X123311502Y-130595332D01*
X123311503Y-130595331D01*
X123369614Y-130571320D01*
X123459006Y-130482084D01*
X123507445Y-130365432D01*
X123507555Y-130239122D01*
X123507500Y-130238989D01*
X123507500Y-129159000D01*
X123507555Y-129096122D01*
X123459320Y-128979386D01*
X123370084Y-128889994D01*
X123253432Y-128841555D01*
X123127122Y-128841445D01*
X123068499Y-128865668D01*
X123068498Y-128865668D01*
X123068497Y-128865669D01*
X123010386Y-128889680D01*
X122920994Y-128978916D01*
X122872555Y-129095568D01*
X122872445Y-129221878D01*
X121288891Y-129221878D01*
X120840500Y-128773488D01*
X120840500Y-116371000D01*
X121129768Y-116371000D01*
X121129768Y-118071000D01*
X121143051Y-118141595D01*
X121184773Y-118206432D01*
X121248433Y-118249929D01*
X121324000Y-118265232D01*
X123024000Y-118265232D01*
X123094595Y-118251949D01*
X123159432Y-118210227D01*
X123202929Y-118146567D01*
X123218232Y-118071000D01*
X123218232Y-116371000D01*
X123204949Y-116300405D01*
X123163227Y-116235568D01*
X123099567Y-116192071D01*
X123024000Y-116176768D01*
X121324000Y-116176768D01*
X121253405Y-116190051D01*
X121188568Y-116231773D01*
X121145071Y-116295433D01*
X121129768Y-116371000D01*
X120840500Y-116371000D01*
X120840500Y-115443000D01*
X120840555Y-115380122D01*
X120792320Y-115263386D01*
X120703084Y-115173994D01*
X120586432Y-115125555D01*
X120460122Y-115125445D01*
X120401499Y-115149668D01*
X120401498Y-115149668D01*
X120401497Y-115149669D01*
X120343386Y-115173680D01*
X120253994Y-115262916D01*
X120205555Y-115379568D01*
X120205445Y-115505878D01*
X119494732Y-115505878D01*
X119628130Y-115416745D01*
X119853682Y-115079182D01*
X119932885Y-114681000D01*
X121113115Y-114681000D01*
X121192318Y-115079182D01*
X121417870Y-115416745D01*
X121755433Y-115642297D01*
X122153615Y-115721500D01*
X122194385Y-115721500D01*
X122592567Y-115642297D01*
X122930130Y-115416745D01*
X123155682Y-115079182D01*
X123234885Y-114681000D01*
X123155682Y-114282818D01*
X122930130Y-113945255D01*
X122592567Y-113719703D01*
X122194385Y-113640500D01*
X122153615Y-113640500D01*
X121755433Y-113719703D01*
X121417870Y-113945255D01*
X121192318Y-114282818D01*
X121113115Y-114681000D01*
X119932885Y-114681000D01*
X119853682Y-114282818D01*
X119628130Y-113945255D01*
X119290567Y-113719703D01*
X118892385Y-113640500D01*
X118851615Y-113640500D01*
X118453433Y-113719703D01*
X118115870Y-113945255D01*
X117890318Y-114282818D01*
X117811115Y-114681000D01*
X116649500Y-114681000D01*
X116649500Y-112549520D01*
X117510467Y-112549520D01*
X117620370Y-112814891D01*
X117973532Y-113242572D01*
X118463477Y-113502549D01*
X118681500Y-113406818D01*
X118681500Y-112331500D01*
X119062500Y-112331500D01*
X119062500Y-113406818D01*
X119280523Y-113502549D01*
X119770468Y-113242572D01*
X120123630Y-112814891D01*
X120233533Y-112549520D01*
X120136354Y-112331500D01*
X119062500Y-112331500D01*
X118681500Y-112331500D01*
X117607646Y-112331500D01*
X117510467Y-112549520D01*
X116649500Y-112549520D01*
X116649500Y-112014000D01*
X131254500Y-112014000D01*
X131258768Y-112035457D01*
X131258768Y-112514000D01*
X131272051Y-112584595D01*
X131313773Y-112649432D01*
X131377433Y-112692929D01*
X131453000Y-112708232D01*
X131931543Y-112708232D01*
X131953000Y-112712500D01*
X133195209Y-112712500D01*
X133223000Y-112718028D01*
X133250791Y-112712500D01*
X134465209Y-112712500D01*
X134493000Y-112718028D01*
X134520791Y-112712500D01*
X135735209Y-112712500D01*
X135763000Y-112718028D01*
X135790791Y-112712500D01*
X137005209Y-112712500D01*
X137033000Y-112718028D01*
X137060791Y-112712500D01*
X138275209Y-112712500D01*
X138303000Y-112718028D01*
X138567243Y-112665467D01*
X138791257Y-112515785D01*
X138796195Y-112508394D01*
X138796914Y-112507914D01*
X138948330Y-112281304D01*
X139001500Y-112014000D01*
X138948330Y-111746696D01*
X138796914Y-111520086D01*
X138796195Y-111519606D01*
X138791257Y-111512215D01*
X138567243Y-111362533D01*
X138303000Y-111309972D01*
X138275209Y-111315500D01*
X137060791Y-111315500D01*
X137033000Y-111309972D01*
X137005209Y-111315500D01*
X135790791Y-111315500D01*
X135763000Y-111309972D01*
X135735209Y-111315500D01*
X134520791Y-111315500D01*
X134493000Y-111309972D01*
X134465209Y-111315500D01*
X133250791Y-111315500D01*
X133223000Y-111309972D01*
X133195209Y-111315500D01*
X131953000Y-111315500D01*
X131931543Y-111319768D01*
X131453000Y-111319768D01*
X131382405Y-111333051D01*
X131317568Y-111374773D01*
X131274071Y-111438433D01*
X131258768Y-111514000D01*
X131258768Y-111992543D01*
X131254500Y-112014000D01*
X116649500Y-112014000D01*
X116649500Y-111732480D01*
X117510467Y-111732480D01*
X117607646Y-111950500D01*
X118681500Y-111950500D01*
X118681500Y-110875182D01*
X119062500Y-110875182D01*
X119062500Y-111950500D01*
X120136354Y-111950500D01*
X120233533Y-111732480D01*
X120123630Y-111467109D01*
X119770468Y-111039428D01*
X119280523Y-110779451D01*
X119062500Y-110875182D01*
X118681500Y-110875182D01*
X118463477Y-110779451D01*
X117973532Y-111039428D01*
X117620370Y-111467109D01*
X117510467Y-111732480D01*
X116649500Y-111732480D01*
X116649500Y-110172500D01*
X153987500Y-110172500D01*
X153987500Y-155638500D01*
G36*
X127371768Y-130614780D02*
X127371768Y-131072000D01*
X127385051Y-131142595D01*
X127426773Y-131207432D01*
X127490433Y-131250929D01*
X127566000Y-131266232D01*
X128023219Y-131266232D01*
X128303431Y-131546444D01*
X128206500Y-131643375D01*
X128206500Y-132197000D01*
X128894625Y-132197000D01*
X128924306Y-132167319D01*
X129095500Y-132338513D01*
X129095500Y-133096000D01*
X129119668Y-133217502D01*
X129188494Y-133320506D01*
X130424487Y-134556500D01*
X128168599Y-134556500D01*
X126595299Y-132589875D01*
X126994500Y-132589875D01*
X126994500Y-132685678D01*
X127081506Y-132895728D01*
X127242271Y-133056494D01*
X127452321Y-133143500D01*
X127682625Y-133143500D01*
X127825500Y-133000625D01*
X127825500Y-132447000D01*
X128206500Y-132447000D01*
X128206500Y-133000625D01*
X128349375Y-133143500D01*
X128579679Y-133143500D01*
X128789729Y-133056494D01*
X128950494Y-132895728D01*
X129037500Y-132685678D01*
X129037500Y-132589875D01*
X128894625Y-132447000D01*
X128206500Y-132447000D01*
X127825500Y-132447000D01*
X127137375Y-132447000D01*
X126994500Y-132589875D01*
X126595299Y-132589875D01*
X126090057Y-131958322D01*
X126994500Y-131958322D01*
X126994500Y-132054125D01*
X127137375Y-132197000D01*
X127825500Y-132197000D01*
X127825500Y-131643375D01*
X127682625Y-131500500D01*
X127452321Y-131500500D01*
X127242271Y-131587506D01*
X127081506Y-131748272D01*
X126994500Y-131958322D01*
X126090057Y-131958322D01*
X125793500Y-131587627D01*
X125793500Y-130302000D01*
X125785533Y-130261947D01*
X125783045Y-130221198D01*
X125773557Y-130201739D01*
X125769332Y-130180498D01*
X125746646Y-130146547D01*
X125728752Y-130109847D01*
X125712535Y-130095496D01*
X125700506Y-130077494D01*
X125666559Y-130054811D01*
X125635979Y-130027750D01*
X125561836Y-129984500D01*
X126741488Y-129984500D01*
X127371768Y-130614780D01*
X127371768Y-130614780D01*
G37*
X127371768Y-130614780D02*
X127371768Y-131072000D01*
X127385051Y-131142595D01*
X127426773Y-131207432D01*
X127490433Y-131250929D01*
X127566000Y-131266232D01*
X128023219Y-131266232D01*
X128303431Y-131546444D01*
X128206500Y-131643375D01*
X128206500Y-132197000D01*
X128894625Y-132197000D01*
X128924306Y-132167319D01*
X129095500Y-132338513D01*
X129095500Y-133096000D01*
X129119668Y-133217502D01*
X129188494Y-133320506D01*
X130424487Y-134556500D01*
X128168599Y-134556500D01*
X126595299Y-132589875D01*
X126994500Y-132589875D01*
X126994500Y-132685678D01*
X127081506Y-132895728D01*
X127242271Y-133056494D01*
X127452321Y-133143500D01*
X127682625Y-133143500D01*
X127825500Y-133000625D01*
X127825500Y-132447000D01*
X128206500Y-132447000D01*
X128206500Y-133000625D01*
X128349375Y-133143500D01*
X128579679Y-133143500D01*
X128789729Y-133056494D01*
X128950494Y-132895728D01*
X129037500Y-132685678D01*
X129037500Y-132589875D01*
X128894625Y-132447000D01*
X128206500Y-132447000D01*
X127825500Y-132447000D01*
X127137375Y-132447000D01*
X126994500Y-132589875D01*
X126595299Y-132589875D01*
X126090057Y-131958322D01*
X126994500Y-131958322D01*
X126994500Y-132054125D01*
X127137375Y-132197000D01*
X127825500Y-132197000D01*
X127825500Y-131643375D01*
X127682625Y-131500500D01*
X127452321Y-131500500D01*
X127242271Y-131587506D01*
X127081506Y-131748272D01*
X126994500Y-131958322D01*
X126090057Y-131958322D01*
X125793500Y-131587627D01*
X125793500Y-130302000D01*
X125785533Y-130261947D01*
X125783045Y-130221198D01*
X125773557Y-130201739D01*
X125769332Y-130180498D01*
X125746646Y-130146547D01*
X125728752Y-130109847D01*
X125712535Y-130095496D01*
X125700506Y-130077494D01*
X125666559Y-130054811D01*
X125635979Y-130027750D01*
X125561836Y-129984500D01*
X126741488Y-129984500D01*
X127371768Y-130614780D01*
D26*
G36*
X115951000Y-116638606D02*
X115951000Y-155575000D01*
X30607000Y-155575000D01*
X30607000Y-148502661D01*
X45224944Y-148502661D01*
X45248881Y-148706846D01*
X45638543Y-148831917D01*
X46046407Y-148798351D01*
X46267319Y-148706846D01*
X46291256Y-148502661D01*
X50228744Y-148502661D01*
X50252681Y-148706846D01*
X50642343Y-148831917D01*
X51050207Y-148798351D01*
X51271119Y-148706846D01*
X51295056Y-148502661D01*
X50761900Y-147969505D01*
X50228744Y-148502661D01*
X46291256Y-148502661D01*
X45758100Y-147969505D01*
X45224944Y-148502661D01*
X30607000Y-148502661D01*
X30607000Y-147670343D01*
X44716083Y-147670343D01*
X44749649Y-148078207D01*
X44841154Y-148299119D01*
X45045339Y-148323056D01*
X45578495Y-147789900D01*
X45937705Y-147789900D01*
X46470861Y-148323056D01*
X46675046Y-148299119D01*
X46800117Y-147909457D01*
X46780439Y-147670343D01*
X49719883Y-147670343D01*
X49753449Y-148078207D01*
X49844954Y-148299119D01*
X50049139Y-148323056D01*
X50582295Y-147789900D01*
X50941505Y-147789900D01*
X51474661Y-148323056D01*
X51678846Y-148299119D01*
X51803917Y-147909457D01*
X51770351Y-147501593D01*
X51678846Y-147280681D01*
X51474661Y-147256744D01*
X50941505Y-147789900D01*
X50582295Y-147789900D01*
X50049139Y-147256744D01*
X49844954Y-147280681D01*
X49719883Y-147670343D01*
X46780439Y-147670343D01*
X46766551Y-147501593D01*
X46675046Y-147280681D01*
X46470861Y-147256744D01*
X45937705Y-147789900D01*
X45578495Y-147789900D01*
X45045339Y-147256744D01*
X44841154Y-147280681D01*
X44716083Y-147670343D01*
X30607000Y-147670343D01*
X30607000Y-147077139D01*
X45224944Y-147077139D01*
X45758100Y-147610295D01*
X46291256Y-147077139D01*
X50228744Y-147077139D01*
X50761900Y-147610295D01*
X51295056Y-147077139D01*
X51271119Y-146872954D01*
X50881457Y-146747883D01*
X50473593Y-146781449D01*
X50252681Y-146872954D01*
X50228744Y-147077139D01*
X46291256Y-147077139D01*
X46267319Y-146872954D01*
X45877657Y-146747883D01*
X45469793Y-146781449D01*
X45248881Y-146872954D01*
X45224944Y-147077139D01*
X30607000Y-147077139D01*
X30607000Y-145796000D01*
X60452000Y-145796000D01*
X60452000Y-151892000D01*
X60490669Y-152086403D01*
X60600790Y-152251210D01*
X61235790Y-152886211D01*
X61400597Y-152996331D01*
X61595000Y-153035000D01*
X75565000Y-153035000D01*
X75759403Y-152996331D01*
X75924210Y-152886210D01*
X76117420Y-152693000D01*
X79663024Y-152693000D01*
X79663024Y-154393000D01*
X79680735Y-154487127D01*
X79736364Y-154573576D01*
X79821244Y-154631572D01*
X79922000Y-154651976D01*
X81622000Y-154651976D01*
X81716127Y-154634265D01*
X81802576Y-154578636D01*
X81860572Y-154493756D01*
X81880976Y-154393000D01*
X81880976Y-154082750D01*
X92972000Y-154082750D01*
X92972000Y-154423309D01*
X93068673Y-154656698D01*
X93247301Y-154835327D01*
X93480690Y-154932000D01*
X93821250Y-154932000D01*
X93980000Y-154773250D01*
X93980000Y-153924000D01*
X94234000Y-153924000D01*
X94234000Y-154773250D01*
X94392750Y-154932000D01*
X94733310Y-154932000D01*
X94953558Y-154840770D01*
X95075126Y-154891119D01*
X95250000Y-154764954D01*
X95250000Y-153924000D01*
X95504000Y-153924000D01*
X95504000Y-154764954D01*
X95678874Y-154891119D01*
X95937209Y-154784127D01*
X96012000Y-154719511D01*
X96086791Y-154784127D01*
X96345126Y-154891119D01*
X96520000Y-154764954D01*
X96520000Y-153924000D01*
X96774000Y-153924000D01*
X96774000Y-154764954D01*
X96948874Y-154891119D01*
X97207209Y-154784127D01*
X97282000Y-154719511D01*
X97356791Y-154784127D01*
X97615126Y-154891119D01*
X97790000Y-154764954D01*
X97790000Y-153924000D01*
X98044000Y-153924000D01*
X98044000Y-154764954D01*
X98218874Y-154891119D01*
X98477209Y-154784127D01*
X98552000Y-154719511D01*
X98626791Y-154784127D01*
X98885126Y-154891119D01*
X99060000Y-154764954D01*
X99060000Y-153924000D01*
X99314000Y-153924000D01*
X99314000Y-154764954D01*
X99488874Y-154891119D01*
X99747209Y-154784127D01*
X99822000Y-154719511D01*
X99896791Y-154784127D01*
X100155126Y-154891119D01*
X100330000Y-154764954D01*
X100330000Y-153924000D01*
X100584000Y-153924000D01*
X100584000Y-154764954D01*
X100758874Y-154891119D01*
X101017209Y-154784127D01*
X101352323Y-154494604D01*
X101551132Y-154098877D01*
X101426135Y-153924000D01*
X100584000Y-153924000D01*
X100330000Y-153924000D01*
X99314000Y-153924000D01*
X99060000Y-153924000D01*
X98044000Y-153924000D01*
X97790000Y-153924000D01*
X96774000Y-153924000D01*
X96520000Y-153924000D01*
X95504000Y-153924000D01*
X95250000Y-153924000D01*
X94234000Y-153924000D01*
X93980000Y-153924000D01*
X93130750Y-153924000D01*
X92972000Y-154082750D01*
X81880976Y-154082750D01*
X81880976Y-153170691D01*
X92972000Y-153170691D01*
X92972000Y-153511250D01*
X93130750Y-153670000D01*
X93980000Y-153670000D01*
X93980000Y-152820750D01*
X94234000Y-152820750D01*
X94234000Y-153670000D01*
X95250000Y-153670000D01*
X95250000Y-152829046D01*
X95504000Y-152829046D01*
X95504000Y-153670000D01*
X96520000Y-153670000D01*
X96520000Y-152829046D01*
X96774000Y-152829046D01*
X96774000Y-153670000D01*
X97790000Y-153670000D01*
X97790000Y-152829046D01*
X98044000Y-152829046D01*
X98044000Y-153670000D01*
X99060000Y-153670000D01*
X99060000Y-152829046D01*
X99314000Y-152829046D01*
X99314000Y-153670000D01*
X100330000Y-153670000D01*
X100330000Y-152829046D01*
X100584000Y-152829046D01*
X100584000Y-153670000D01*
X101426135Y-153670000D01*
X101551132Y-153495123D01*
X101352323Y-153099396D01*
X101017209Y-152809873D01*
X100758874Y-152702881D01*
X100584000Y-152829046D01*
X100330000Y-152829046D01*
X100155126Y-152702881D01*
X99896791Y-152809873D01*
X99822000Y-152874489D01*
X99747209Y-152809873D01*
X99488874Y-152702881D01*
X99314000Y-152829046D01*
X99060000Y-152829046D01*
X98885126Y-152702881D01*
X98626791Y-152809873D01*
X98552000Y-152874489D01*
X98477209Y-152809873D01*
X98218874Y-152702881D01*
X98044000Y-152829046D01*
X97790000Y-152829046D01*
X97615126Y-152702881D01*
X97356791Y-152809873D01*
X97282000Y-152874489D01*
X97207209Y-152809873D01*
X96948874Y-152702881D01*
X96774000Y-152829046D01*
X96520000Y-152829046D01*
X96345126Y-152702881D01*
X96086791Y-152809873D01*
X96012000Y-152874489D01*
X95937209Y-152809873D01*
X95678874Y-152702881D01*
X95504000Y-152829046D01*
X95250000Y-152829046D01*
X95075126Y-152702881D01*
X94953558Y-152753230D01*
X94733310Y-152662000D01*
X94392750Y-152662000D01*
X94234000Y-152820750D01*
X93980000Y-152820750D01*
X93821250Y-152662000D01*
X93480690Y-152662000D01*
X93247301Y-152758673D01*
X93068673Y-152937302D01*
X92972000Y-153170691D01*
X81880976Y-153170691D01*
X81880976Y-152693000D01*
X81863265Y-152598873D01*
X81807636Y-152512424D01*
X81722756Y-152454428D01*
X81622000Y-152434024D01*
X79922000Y-152434024D01*
X79827873Y-152451735D01*
X79741424Y-152507364D01*
X79683428Y-152592244D01*
X79663024Y-152693000D01*
X76117420Y-152693000D01*
X77807420Y-151003000D01*
X79646371Y-151003000D01*
X79730408Y-151425483D01*
X79969725Y-151783646D01*
X80327888Y-152022963D01*
X80750371Y-152107000D01*
X80793629Y-152107000D01*
X81216112Y-152022963D01*
X81574275Y-151783646D01*
X81813592Y-151425483D01*
X81897629Y-151003000D01*
X81813592Y-150580517D01*
X81574275Y-150222354D01*
X81216112Y-149983037D01*
X80793629Y-149899000D01*
X80750371Y-149899000D01*
X80327888Y-149983037D01*
X79969725Y-150222354D01*
X79730408Y-150580517D01*
X79646371Y-151003000D01*
X77807420Y-151003000D01*
X79808325Y-149002095D01*
X79969725Y-149243646D01*
X80327888Y-149482963D01*
X80750371Y-149567000D01*
X80793629Y-149567000D01*
X81216112Y-149482963D01*
X81574275Y-149243646D01*
X81735236Y-149002750D01*
X109005000Y-149002750D01*
X109005000Y-149693310D01*
X109101673Y-149926699D01*
X109280302Y-150105327D01*
X109513691Y-150202000D01*
X110204250Y-150202000D01*
X110363000Y-150043250D01*
X110363000Y-148844000D01*
X110617000Y-148844000D01*
X110617000Y-150043250D01*
X110775750Y-150202000D01*
X111466309Y-150202000D01*
X111699698Y-150105327D01*
X111878327Y-149926699D01*
X111975000Y-149693310D01*
X111975000Y-149002750D01*
X111816250Y-148844000D01*
X110617000Y-148844000D01*
X110363000Y-148844000D01*
X109163750Y-148844000D01*
X109005000Y-149002750D01*
X81735236Y-149002750D01*
X81813592Y-148885483D01*
X81897629Y-148463000D01*
X81813592Y-148040517D01*
X81574275Y-147682354D01*
X81216112Y-147443037D01*
X80793629Y-147359000D01*
X80750371Y-147359000D01*
X80327888Y-147443037D01*
X79969725Y-147682354D01*
X79787549Y-147955000D01*
X79629000Y-147955000D01*
X79434597Y-147993669D01*
X79269790Y-148103790D01*
X75354580Y-152019000D01*
X74930000Y-152019000D01*
X75124403Y-151980331D01*
X75289210Y-151870210D01*
X79099210Y-148060210D01*
X79209331Y-147895403D01*
X79248000Y-147701000D01*
X79248000Y-145923000D01*
X79646371Y-145923000D01*
X79730408Y-146345483D01*
X79969725Y-146703646D01*
X80327888Y-146942963D01*
X80750371Y-147027000D01*
X80793629Y-147027000D01*
X81216112Y-146942963D01*
X81574275Y-146703646D01*
X81813592Y-146345483D01*
X81897629Y-145923000D01*
X81813592Y-145500517D01*
X81574275Y-145142354D01*
X81216112Y-144903037D01*
X80793629Y-144819000D01*
X80750371Y-144819000D01*
X80327888Y-144903037D01*
X79969725Y-145142354D01*
X79730408Y-145500517D01*
X79646371Y-145923000D01*
X79248000Y-145923000D01*
X79248000Y-143383000D01*
X79646371Y-143383000D01*
X79730408Y-143805483D01*
X79969725Y-144163646D01*
X80327888Y-144402963D01*
X80750371Y-144487000D01*
X80793629Y-144487000D01*
X81216112Y-144402963D01*
X81574275Y-144163646D01*
X81813592Y-143805483D01*
X81897629Y-143383000D01*
X81813592Y-142960517D01*
X81574275Y-142602354D01*
X81216112Y-142363037D01*
X80793629Y-142279000D01*
X80750371Y-142279000D01*
X80327888Y-142363037D01*
X79969725Y-142602354D01*
X79730408Y-142960517D01*
X79646371Y-143383000D01*
X79248000Y-143383000D01*
X79248000Y-142113000D01*
X82296000Y-142113000D01*
X82334669Y-142307403D01*
X82444790Y-142472210D01*
X86508790Y-146536210D01*
X86673597Y-146646331D01*
X86868000Y-146685000D01*
X109505549Y-146685000D01*
X109687725Y-146957646D01*
X110045888Y-147196963D01*
X110362998Y-147260040D01*
X110362998Y-147390748D01*
X110204250Y-147232000D01*
X109513691Y-147232000D01*
X109280302Y-147328673D01*
X109101673Y-147507301D01*
X109005000Y-147740690D01*
X109005000Y-148431250D01*
X109163750Y-148590000D01*
X110363000Y-148590000D01*
X110363000Y-148570000D01*
X110617000Y-148570000D01*
X110617000Y-148590000D01*
X111816250Y-148590000D01*
X111975000Y-148431250D01*
X111975000Y-147740690D01*
X111878327Y-147507301D01*
X111699698Y-147328673D01*
X111466309Y-147232000D01*
X110775750Y-147232000D01*
X110617002Y-147390748D01*
X110617002Y-147260040D01*
X110934112Y-147196963D01*
X111292275Y-146957646D01*
X111531592Y-146599483D01*
X111615629Y-146177000D01*
X111531592Y-145754517D01*
X111292275Y-145396354D01*
X110934112Y-145157037D01*
X110511629Y-145073000D01*
X110468371Y-145073000D01*
X110045888Y-145157037D01*
X109687725Y-145396354D01*
X109505549Y-145669000D01*
X87078420Y-145669000D01*
X83163210Y-141753790D01*
X82998403Y-141643669D01*
X82804000Y-141605000D01*
X82609597Y-141643669D01*
X82444790Y-141753790D01*
X82334669Y-141918597D01*
X82296000Y-142113000D01*
X79248000Y-142113000D01*
X79248000Y-140843000D01*
X79646371Y-140843000D01*
X79730408Y-141265483D01*
X79969725Y-141623646D01*
X80327888Y-141862963D01*
X80750371Y-141947000D01*
X80793629Y-141947000D01*
X81216112Y-141862963D01*
X81574275Y-141623646D01*
X81813592Y-141265483D01*
X81897629Y-140843000D01*
X81813592Y-140420517D01*
X81574275Y-140062354D01*
X81216112Y-139823037D01*
X80793629Y-139739000D01*
X80750371Y-139739000D01*
X80327888Y-139823037D01*
X79969725Y-140062354D01*
X79730408Y-140420517D01*
X79646371Y-140843000D01*
X79248000Y-140843000D01*
X79248000Y-138303000D01*
X79646371Y-138303000D01*
X79730408Y-138725483D01*
X79969725Y-139083646D01*
X80327888Y-139322963D01*
X80750371Y-139407000D01*
X80793629Y-139407000D01*
X81216112Y-139322963D01*
X81574275Y-139083646D01*
X81813592Y-138725483D01*
X81897629Y-138303000D01*
X81813592Y-137880517D01*
X81574275Y-137522354D01*
X81216112Y-137283037D01*
X80793629Y-137199000D01*
X80750371Y-137199000D01*
X80327888Y-137283037D01*
X79969725Y-137522354D01*
X79730408Y-137880517D01*
X79646371Y-138303000D01*
X79248000Y-138303000D01*
X79248000Y-138005420D01*
X80446803Y-136806617D01*
X80750371Y-136867000D01*
X80793629Y-136867000D01*
X81216112Y-136782963D01*
X81574275Y-136543646D01*
X81813592Y-136185483D01*
X81897629Y-135763000D01*
X81813592Y-135340517D01*
X81574275Y-134982354D01*
X81216112Y-134743037D01*
X80899002Y-134679960D01*
X80899002Y-134543820D01*
X81128892Y-134664486D01*
X81653358Y-134418183D01*
X82043645Y-133989924D01*
X82213476Y-133579890D01*
X82092155Y-133350000D01*
X80899000Y-133350000D01*
X80899000Y-133370000D01*
X80645000Y-133370000D01*
X80645000Y-133350000D01*
X80625000Y-133350000D01*
X80625000Y-133096000D01*
X80645000Y-133096000D01*
X80645000Y-131902181D01*
X80899000Y-131902181D01*
X80899000Y-133096000D01*
X82092155Y-133096000D01*
X82213476Y-132866110D01*
X82043645Y-132456076D01*
X81653358Y-132027817D01*
X81128892Y-131781514D01*
X80899000Y-131902181D01*
X80645000Y-131902181D01*
X80415108Y-131781514D01*
X79890642Y-132027817D01*
X79500355Y-132456076D01*
X79375000Y-132758729D01*
X79375000Y-131572000D01*
X82042000Y-131572000D01*
X82080669Y-131766403D01*
X82190790Y-131931210D01*
X94255790Y-143996211D01*
X94420597Y-144106331D01*
X94615000Y-144145000D01*
X109505549Y-144145000D01*
X109687725Y-144417646D01*
X110045888Y-144656963D01*
X110468371Y-144741000D01*
X110511629Y-144741000D01*
X110934112Y-144656963D01*
X111292275Y-144417646D01*
X111531592Y-144059483D01*
X111615629Y-143637000D01*
X111531592Y-143214517D01*
X111292275Y-142856354D01*
X110934112Y-142617037D01*
X110511629Y-142533000D01*
X110468371Y-142533000D01*
X110045888Y-142617037D01*
X109687725Y-142856354D01*
X109505549Y-143129000D01*
X94825421Y-143129000D01*
X82909210Y-131212790D01*
X82744403Y-131102669D01*
X82550000Y-131064000D01*
X82355597Y-131102669D01*
X82190790Y-131212790D01*
X82080669Y-131377597D01*
X82042000Y-131572000D01*
X79375000Y-131572000D01*
X79375000Y-129071000D01*
X79663024Y-129071000D01*
X79663024Y-130771000D01*
X79680735Y-130865127D01*
X79736364Y-130951576D01*
X79821244Y-131009572D01*
X79922000Y-131029976D01*
X81622000Y-131029976D01*
X81716127Y-131012265D01*
X81802576Y-130956636D01*
X81860572Y-130871756D01*
X81880976Y-130771000D01*
X81880976Y-129071000D01*
X81863265Y-128976873D01*
X81807636Y-128890424D01*
X81722756Y-128832428D01*
X81622000Y-128812024D01*
X79922000Y-128812024D01*
X79827873Y-128829735D01*
X79741424Y-128885364D01*
X79683428Y-128970244D01*
X79663024Y-129071000D01*
X79375000Y-129071000D01*
X79375000Y-128524000D01*
X82042000Y-128524000D01*
X82080669Y-128718403D01*
X82190790Y-128883210D01*
X82355597Y-128993331D01*
X82550000Y-129032000D01*
X96647000Y-129032000D01*
X96841403Y-128993331D01*
X97006210Y-128883210D01*
X102987444Y-122901976D01*
X103529500Y-122901976D01*
X103623627Y-122884265D01*
X103710076Y-122828636D01*
X103768072Y-122743756D01*
X103788476Y-122643000D01*
X103788476Y-120943000D01*
X103770765Y-120848873D01*
X103715136Y-120762424D01*
X103630256Y-120704428D01*
X103529500Y-120684024D01*
X101829500Y-120684024D01*
X101735373Y-120701735D01*
X101648924Y-120757364D01*
X101590928Y-120842244D01*
X101570524Y-120943000D01*
X101570524Y-122643000D01*
X101588235Y-122737127D01*
X101638046Y-122814534D01*
X96436580Y-128016000D01*
X82550000Y-128016000D01*
X82355597Y-128054669D01*
X82190790Y-128164790D01*
X82080669Y-128329597D01*
X82042000Y-128524000D01*
X79375000Y-128524000D01*
X79375000Y-127381000D01*
X79646371Y-127381000D01*
X79730408Y-127803483D01*
X79969725Y-128161646D01*
X80327888Y-128400963D01*
X80750371Y-128485000D01*
X80793629Y-128485000D01*
X81216112Y-128400963D01*
X81574275Y-128161646D01*
X81813592Y-127803483D01*
X81897629Y-127381000D01*
X81813592Y-126958517D01*
X81574275Y-126600354D01*
X81216112Y-126361037D01*
X80793629Y-126277000D01*
X80750371Y-126277000D01*
X80327888Y-126361037D01*
X79969725Y-126600354D01*
X79730408Y-126958517D01*
X79646371Y-127381000D01*
X79375000Y-127381000D01*
X79375000Y-124841000D01*
X79646371Y-124841000D01*
X79730408Y-125263483D01*
X79969725Y-125621646D01*
X80327888Y-125860963D01*
X80750371Y-125945000D01*
X80793629Y-125945000D01*
X81216112Y-125860963D01*
X81574275Y-125621646D01*
X81813592Y-125263483D01*
X81897629Y-124841000D01*
X81813592Y-124418517D01*
X81574275Y-124060354D01*
X81216112Y-123821037D01*
X80793629Y-123737000D01*
X80750371Y-123737000D01*
X80327888Y-123821037D01*
X79969725Y-124060354D01*
X79730408Y-124418517D01*
X79646371Y-124841000D01*
X79375000Y-124841000D01*
X79375000Y-122003420D01*
X79839420Y-121539000D01*
X79957266Y-121539000D01*
X79730408Y-121878517D01*
X79646371Y-122301000D01*
X79730408Y-122723483D01*
X79969725Y-123081646D01*
X80327888Y-123320963D01*
X80750371Y-123405000D01*
X80793629Y-123405000D01*
X81216112Y-123320963D01*
X81574275Y-123081646D01*
X81813592Y-122723483D01*
X81897629Y-122301000D01*
X81813592Y-121878517D01*
X81586734Y-121539000D01*
X82550000Y-121539000D01*
X82744403Y-121500331D01*
X82909210Y-121390210D01*
X83356420Y-120943000D01*
X89315024Y-120943000D01*
X89315024Y-122643000D01*
X89332735Y-122737127D01*
X89388364Y-122823576D01*
X89473244Y-122881572D01*
X89574000Y-122901976D01*
X91274000Y-122901976D01*
X91368127Y-122884265D01*
X91454576Y-122828636D01*
X91512572Y-122743756D01*
X91532976Y-122643000D01*
X91532976Y-121771371D01*
X91860000Y-121771371D01*
X91860000Y-121814629D01*
X91944037Y-122237112D01*
X92183354Y-122595275D01*
X92541517Y-122834592D01*
X92964000Y-122918629D01*
X93386483Y-122834592D01*
X93744646Y-122595275D01*
X93983963Y-122237112D01*
X94068000Y-121814629D01*
X94068000Y-121771371D01*
X94400000Y-121771371D01*
X94400000Y-121814629D01*
X94484037Y-122237112D01*
X94723354Y-122595275D01*
X95081517Y-122834592D01*
X95504000Y-122918629D01*
X95926483Y-122834592D01*
X96284646Y-122595275D01*
X96523963Y-122237112D01*
X96587040Y-121920002D01*
X96723180Y-121920002D01*
X96602514Y-122149892D01*
X96848817Y-122674358D01*
X97277076Y-123064645D01*
X97687110Y-123234476D01*
X97917000Y-123113155D01*
X97917000Y-121920000D01*
X98171000Y-121920000D01*
X98171000Y-123113155D01*
X98400890Y-123234476D01*
X98810924Y-123064645D01*
X99239183Y-122674358D01*
X99485486Y-122149892D01*
X99364819Y-121920000D01*
X98171000Y-121920000D01*
X97917000Y-121920000D01*
X97897000Y-121920000D01*
X97897000Y-121666000D01*
X97917000Y-121666000D01*
X97917000Y-120472845D01*
X98171000Y-120472845D01*
X98171000Y-121666000D01*
X99364819Y-121666000D01*
X99485486Y-121436108D01*
X99239183Y-120911642D01*
X98810924Y-120521355D01*
X98400890Y-120351524D01*
X98171000Y-120472845D01*
X97917000Y-120472845D01*
X97687110Y-120351524D01*
X97277076Y-120521355D01*
X96848817Y-120911642D01*
X96602514Y-121436108D01*
X96723180Y-121665998D01*
X96587040Y-121665998D01*
X96523963Y-121348888D01*
X96284646Y-120990725D01*
X95926483Y-120751408D01*
X95504000Y-120667371D01*
X95081517Y-120751408D01*
X94723354Y-120990725D01*
X94484037Y-121348888D01*
X94400000Y-121771371D01*
X94068000Y-121771371D01*
X93983963Y-121348888D01*
X93744646Y-120990725D01*
X93386483Y-120751408D01*
X92964000Y-120667371D01*
X92541517Y-120751408D01*
X92183354Y-120990725D01*
X91944037Y-121348888D01*
X91860000Y-121771371D01*
X91532976Y-121771371D01*
X91532976Y-120943000D01*
X91515265Y-120848873D01*
X91459636Y-120762424D01*
X91374756Y-120704428D01*
X91274000Y-120684024D01*
X89574000Y-120684024D01*
X89479873Y-120701735D01*
X89393424Y-120757364D01*
X89335428Y-120842244D01*
X89315024Y-120943000D01*
X83356420Y-120943000D01*
X84433210Y-119866211D01*
X84543330Y-119701404D01*
X84543331Y-119701403D01*
X84582000Y-119507000D01*
X84582000Y-118329976D01*
X84924000Y-118329976D01*
X85018127Y-118312265D01*
X85104576Y-118256636D01*
X85162572Y-118171756D01*
X85182976Y-118071000D01*
X85182976Y-116371000D01*
X85165265Y-116276873D01*
X85109636Y-116190424D01*
X85024756Y-116132428D01*
X84924000Y-116112024D01*
X83224000Y-116112024D01*
X83129873Y-116129735D01*
X83043424Y-116185364D01*
X82985428Y-116270244D01*
X82965024Y-116371000D01*
X82965024Y-118071000D01*
X82982735Y-118165127D01*
X83038364Y-118251576D01*
X83123244Y-118309572D01*
X83224000Y-118329976D01*
X83566000Y-118329976D01*
X83566000Y-119296579D01*
X82339580Y-120523000D01*
X81586734Y-120523000D01*
X81813592Y-120183483D01*
X81897629Y-119761000D01*
X81813592Y-119338517D01*
X81574275Y-118980354D01*
X81216112Y-118741037D01*
X80793629Y-118657000D01*
X80750371Y-118657000D01*
X80327888Y-118741037D01*
X79969725Y-118980354D01*
X79730408Y-119338517D01*
X79646371Y-119761000D01*
X79730408Y-120183483D01*
X79957266Y-120523000D01*
X79629000Y-120523000D01*
X79434597Y-120561669D01*
X79269790Y-120671790D01*
X78507790Y-121433790D01*
X78397669Y-121598597D01*
X78359000Y-121793000D01*
X78359000Y-135933580D01*
X78221179Y-136071401D01*
X78232000Y-136017000D01*
X78232000Y-117558420D01*
X79331420Y-116459000D01*
X79957266Y-116459000D01*
X79730408Y-116798517D01*
X79646371Y-117221000D01*
X79730408Y-117643483D01*
X79969725Y-118001646D01*
X80327888Y-118240963D01*
X80750371Y-118325000D01*
X80793629Y-118325000D01*
X81216112Y-118240963D01*
X81574275Y-118001646D01*
X81813592Y-117643483D01*
X81897629Y-117221000D01*
X81813592Y-116798517D01*
X81586734Y-116459000D01*
X82296000Y-116459000D01*
X82490403Y-116420331D01*
X82655210Y-116310210D01*
X83410828Y-115554592D01*
X83629888Y-115700963D01*
X84052371Y-115785000D01*
X84095629Y-115785000D01*
X84518112Y-115700963D01*
X84876275Y-115461646D01*
X85115592Y-115103483D01*
X85199629Y-114681000D01*
X85115592Y-114258517D01*
X84876275Y-113900354D01*
X84518112Y-113661037D01*
X84095629Y-113577000D01*
X84052371Y-113577000D01*
X83629888Y-113661037D01*
X83271725Y-113900354D01*
X83032408Y-114258517D01*
X82973398Y-114555182D01*
X82085580Y-115443000D01*
X81586734Y-115443000D01*
X81813592Y-115103483D01*
X81897629Y-114681000D01*
X81813592Y-114258517D01*
X81574275Y-113900354D01*
X81216112Y-113661037D01*
X80899002Y-113597960D01*
X80899002Y-113461820D01*
X81128892Y-113582486D01*
X81653358Y-113336183D01*
X82043645Y-112907924D01*
X82213476Y-112497890D01*
X82092155Y-112268000D01*
X80899000Y-112268000D01*
X80899000Y-112288000D01*
X80645000Y-112288000D01*
X80645000Y-112268000D01*
X79451845Y-112268000D01*
X79330524Y-112497890D01*
X79500355Y-112907924D01*
X79890642Y-113336183D01*
X80415108Y-113582486D01*
X80644998Y-113461820D01*
X80644998Y-113597960D01*
X80327888Y-113661037D01*
X79969725Y-113900354D01*
X79730408Y-114258517D01*
X79646371Y-114681000D01*
X79730408Y-115103483D01*
X79957266Y-115443000D01*
X79121000Y-115443000D01*
X78958850Y-115475254D01*
X78926596Y-115481669D01*
X78761790Y-115591790D01*
X77364790Y-116988790D01*
X77254669Y-117153597D01*
X77216000Y-117348000D01*
X77216000Y-128651000D01*
X77216000Y-135806579D01*
X75840790Y-137181790D01*
X75730669Y-137346597D01*
X75692000Y-137541000D01*
X75730669Y-137735403D01*
X75840790Y-137900210D01*
X75873401Y-137922000D01*
X70707629Y-137922000D01*
X70659472Y-137805451D01*
X70349182Y-137494620D01*
X69943563Y-137326192D01*
X69504364Y-137325808D01*
X69098451Y-137493528D01*
X68787620Y-137803818D01*
X68655686Y-138121549D01*
X68653315Y-138068542D01*
X68478259Y-137645920D01*
X68226958Y-137565647D01*
X67362605Y-138430000D01*
X68226958Y-139294353D01*
X68478259Y-139214080D01*
X68653191Y-138731848D01*
X68786528Y-139054549D01*
X69096818Y-139365380D01*
X69502437Y-139533808D01*
X69941636Y-139534192D01*
X70347549Y-139366472D01*
X70658380Y-139056182D01*
X70707454Y-138938000D01*
X75873400Y-138938000D01*
X75840790Y-138959789D01*
X74338580Y-140462000D01*
X70707629Y-140462000D01*
X70659472Y-140345451D01*
X70349182Y-140034620D01*
X69943563Y-139866192D01*
X69504364Y-139865808D01*
X69098451Y-140033528D01*
X68787620Y-140343818D01*
X68655686Y-140661549D01*
X68653315Y-140608542D01*
X68478259Y-140185920D01*
X68226958Y-140105647D01*
X67362605Y-140970000D01*
X68226958Y-141834353D01*
X68478259Y-141754080D01*
X68653191Y-141271848D01*
X68786528Y-141594549D01*
X69096818Y-141905380D01*
X69502437Y-142073808D01*
X69941636Y-142074192D01*
X70347549Y-141906472D01*
X70658380Y-141596182D01*
X70707454Y-141478000D01*
X74549000Y-141478000D01*
X74743403Y-141439331D01*
X74908210Y-141329210D01*
X76559211Y-139678210D01*
X76669331Y-139513403D01*
X76708000Y-139319000D01*
X76669331Y-139124596D01*
X76559211Y-138959789D01*
X76526601Y-138938000D01*
X76581000Y-138938000D01*
X76775403Y-138899331D01*
X76940210Y-138789210D01*
X79226210Y-136503210D01*
X79336331Y-136338404D01*
X79375000Y-136144000D01*
X79375000Y-133687271D01*
X79500355Y-133989924D01*
X79890642Y-134418183D01*
X80415108Y-134664486D01*
X80644998Y-134543820D01*
X80644998Y-134679960D01*
X80327888Y-134743037D01*
X79969725Y-134982354D01*
X79730408Y-135340517D01*
X79646371Y-135763000D01*
X79713931Y-136102649D01*
X78380790Y-137435790D01*
X78270669Y-137600597D01*
X78232000Y-137795000D01*
X78232000Y-147490580D01*
X74719580Y-151003000D01*
X62865000Y-151003000D01*
X62670597Y-151041669D01*
X62505790Y-151151790D01*
X62395669Y-151316597D01*
X62357000Y-151511000D01*
X62395669Y-151705403D01*
X62505790Y-151870210D01*
X62670597Y-151980331D01*
X62865000Y-152019000D01*
X61805421Y-152019000D01*
X61468000Y-151681580D01*
X61468000Y-148808636D01*
X66078808Y-148808636D01*
X66246528Y-149214549D01*
X66556818Y-149525380D01*
X66962437Y-149693808D01*
X67401636Y-149694192D01*
X67807549Y-149526472D01*
X68118380Y-149216182D01*
X68286808Y-148810563D01*
X68287192Y-148371364D01*
X68119472Y-147965451D01*
X67894414Y-147740000D01*
X68614024Y-147740000D01*
X68614024Y-149440000D01*
X68631735Y-149534127D01*
X68687364Y-149620576D01*
X68772244Y-149678572D01*
X68873000Y-149698976D01*
X70573000Y-149698976D01*
X70667127Y-149681265D01*
X70753576Y-149625636D01*
X70811572Y-149540756D01*
X70831976Y-149440000D01*
X70831976Y-147740000D01*
X70814265Y-147645873D01*
X70758636Y-147559424D01*
X70673756Y-147501428D01*
X70573000Y-147481024D01*
X68873000Y-147481024D01*
X68778873Y-147498735D01*
X68692424Y-147554364D01*
X68634428Y-147639244D01*
X68614024Y-147740000D01*
X67894414Y-147740000D01*
X67809182Y-147654620D01*
X67491451Y-147522686D01*
X67544458Y-147520315D01*
X67967080Y-147345259D01*
X68047353Y-147093958D01*
X67183000Y-146229605D01*
X66318647Y-147093958D01*
X66398920Y-147345259D01*
X66881152Y-147520191D01*
X66558451Y-147653528D01*
X66247620Y-147963818D01*
X66079192Y-148369437D01*
X66078808Y-148808636D01*
X61468000Y-148808636D01*
X61468000Y-145821279D01*
X65686282Y-145821279D01*
X65712685Y-146411458D01*
X65887741Y-146834080D01*
X66139042Y-146914353D01*
X67003395Y-146050000D01*
X67362605Y-146050000D01*
X68226958Y-146914353D01*
X68478259Y-146834080D01*
X68653191Y-146351848D01*
X68786528Y-146674549D01*
X69096818Y-146985380D01*
X69502437Y-147153808D01*
X69941636Y-147154192D01*
X70347549Y-146986472D01*
X70658380Y-146676182D01*
X70826808Y-146270563D01*
X70827192Y-145831364D01*
X70659472Y-145425451D01*
X70349182Y-145114620D01*
X69943563Y-144946192D01*
X69504364Y-144945808D01*
X69098451Y-145113528D01*
X68787620Y-145423818D01*
X68655686Y-145741549D01*
X68653315Y-145688542D01*
X68478259Y-145265920D01*
X68226958Y-145185647D01*
X67362605Y-146050000D01*
X67003395Y-146050000D01*
X66139042Y-145185647D01*
X65887741Y-145265920D01*
X65686282Y-145821279D01*
X61468000Y-145821279D01*
X61468000Y-145796000D01*
X61429331Y-145601597D01*
X61319210Y-145436790D01*
X61154403Y-145326669D01*
X60960000Y-145288000D01*
X60765597Y-145326669D01*
X60600790Y-145436790D01*
X60490669Y-145601597D01*
X60452000Y-145796000D01*
X30607000Y-145796000D01*
X30607000Y-144553958D01*
X66318647Y-144553958D01*
X66390852Y-144780000D01*
X66318647Y-145006042D01*
X67183000Y-145870395D01*
X68047353Y-145006042D01*
X67975148Y-144780000D01*
X68047353Y-144553958D01*
X67183000Y-143689605D01*
X66318647Y-144553958D01*
X30607000Y-144553958D01*
X30607000Y-142914370D01*
X45110288Y-142914370D01*
X45208687Y-143152513D01*
X45390728Y-143334873D01*
X45628699Y-143433687D01*
X45886370Y-143433912D01*
X46124513Y-143335513D01*
X46306873Y-143153472D01*
X46405687Y-142915501D01*
X46405687Y-142914370D01*
X50114088Y-142914370D01*
X50212487Y-143152513D01*
X50394528Y-143334873D01*
X50632499Y-143433687D01*
X50890170Y-143433912D01*
X51128313Y-143335513D01*
X51182642Y-143281279D01*
X65686282Y-143281279D01*
X65712685Y-143871458D01*
X65887741Y-144294080D01*
X66139042Y-144374353D01*
X67003395Y-143510000D01*
X67362605Y-143510000D01*
X68226958Y-144374353D01*
X68478259Y-144294080D01*
X68653191Y-143811848D01*
X68786528Y-144134549D01*
X69096818Y-144445380D01*
X69502437Y-144613808D01*
X69941636Y-144614192D01*
X70347549Y-144446472D01*
X70658380Y-144136182D01*
X70826808Y-143730563D01*
X70827192Y-143291364D01*
X70659472Y-142885451D01*
X70349182Y-142574620D01*
X69943563Y-142406192D01*
X69504364Y-142405808D01*
X69098451Y-142573528D01*
X68787620Y-142883818D01*
X68655686Y-143201549D01*
X68653315Y-143148542D01*
X68478259Y-142725920D01*
X68226958Y-142645647D01*
X67362605Y-143510000D01*
X67003395Y-143510000D01*
X66139042Y-142645647D01*
X65887741Y-142725920D01*
X65686282Y-143281279D01*
X51182642Y-143281279D01*
X51310673Y-143153472D01*
X51409487Y-142915501D01*
X51409712Y-142657830D01*
X51311313Y-142419687D01*
X51129272Y-142237327D01*
X50891301Y-142138513D01*
X50633630Y-142138288D01*
X50395487Y-142236687D01*
X50213127Y-142418728D01*
X50114313Y-142656699D01*
X50114088Y-142914370D01*
X46405687Y-142914370D01*
X46405912Y-142657830D01*
X46307513Y-142419687D01*
X46125472Y-142237327D01*
X45887501Y-142138513D01*
X45629830Y-142138288D01*
X45391687Y-142236687D01*
X45209327Y-142418728D01*
X45110513Y-142656699D01*
X45110288Y-142914370D01*
X30607000Y-142914370D01*
X30607000Y-142013958D01*
X66318647Y-142013958D01*
X66390852Y-142240000D01*
X66318647Y-142466042D01*
X67183000Y-143330395D01*
X68047353Y-142466042D01*
X67975148Y-142240000D01*
X68047353Y-142013958D01*
X67183000Y-141149605D01*
X66318647Y-142013958D01*
X30607000Y-142013958D01*
X30607000Y-140741279D01*
X65686282Y-140741279D01*
X65712685Y-141331458D01*
X65887741Y-141754080D01*
X66139042Y-141834353D01*
X67003395Y-140970000D01*
X66139042Y-140105647D01*
X65887741Y-140185920D01*
X65686282Y-140741279D01*
X30607000Y-140741279D01*
X30607000Y-139473958D01*
X66318647Y-139473958D01*
X66390852Y-139700000D01*
X66318647Y-139926042D01*
X67183000Y-140790395D01*
X68047353Y-139926042D01*
X67975148Y-139700000D01*
X68047353Y-139473958D01*
X67183000Y-138609605D01*
X66318647Y-139473958D01*
X30607000Y-139473958D01*
X30607000Y-138201279D01*
X65686282Y-138201279D01*
X65712685Y-138791458D01*
X65887741Y-139214080D01*
X66139042Y-139294353D01*
X67003395Y-138430000D01*
X66139042Y-137565647D01*
X65887741Y-137645920D01*
X65686282Y-138201279D01*
X30607000Y-138201279D01*
X30607000Y-136933958D01*
X66318647Y-136933958D01*
X66390852Y-137160000D01*
X66318647Y-137386042D01*
X67183000Y-138250395D01*
X68047353Y-137386042D01*
X67975148Y-137160000D01*
X68047353Y-136933958D01*
X67183000Y-136069605D01*
X66318647Y-136933958D01*
X30607000Y-136933958D01*
X30607000Y-135661279D01*
X65686282Y-135661279D01*
X65712685Y-136251458D01*
X65887741Y-136674080D01*
X66139042Y-136754353D01*
X67003395Y-135890000D01*
X67362605Y-135890000D01*
X68226958Y-136754353D01*
X68478259Y-136674080D01*
X68653191Y-136191848D01*
X68786528Y-136514549D01*
X69096818Y-136825380D01*
X69502437Y-136993808D01*
X69941636Y-136994192D01*
X70347549Y-136826472D01*
X70658380Y-136516182D01*
X70826808Y-136110563D01*
X70827192Y-135671364D01*
X70659472Y-135265451D01*
X70349182Y-134954620D01*
X69943563Y-134786192D01*
X69504364Y-134785808D01*
X69098451Y-134953528D01*
X68787620Y-135263818D01*
X68655686Y-135581549D01*
X68653315Y-135528542D01*
X68478259Y-135105920D01*
X68226958Y-135025647D01*
X67362605Y-135890000D01*
X67003395Y-135890000D01*
X66139042Y-135025647D01*
X65887741Y-135105920D01*
X65686282Y-135661279D01*
X30607000Y-135661279D01*
X30607000Y-134393958D01*
X66318647Y-134393958D01*
X66390852Y-134620000D01*
X66318647Y-134846042D01*
X67183000Y-135710395D01*
X68047353Y-134846042D01*
X67975148Y-134620000D01*
X68047353Y-134393958D01*
X67183000Y-133529605D01*
X66318647Y-134393958D01*
X30607000Y-134393958D01*
X30607000Y-133121279D01*
X65686282Y-133121279D01*
X65712685Y-133711458D01*
X65887741Y-134134080D01*
X66139042Y-134214353D01*
X67003395Y-133350000D01*
X67362605Y-133350000D01*
X68226958Y-134214353D01*
X68478259Y-134134080D01*
X68653191Y-133651848D01*
X68786528Y-133974549D01*
X69096818Y-134285380D01*
X69502437Y-134453808D01*
X69941636Y-134454192D01*
X70347549Y-134286472D01*
X70658380Y-133976182D01*
X70707454Y-133858000D01*
X74676000Y-133858000D01*
X74870403Y-133819331D01*
X75035210Y-133709210D01*
X76940210Y-131804210D01*
X77050331Y-131639403D01*
X77089000Y-131445000D01*
X77050331Y-131250596D01*
X76940210Y-131085790D01*
X76775404Y-130975669D01*
X76581000Y-130937000D01*
X76386597Y-130975669D01*
X76221790Y-131085790D01*
X74465580Y-132842000D01*
X70707629Y-132842000D01*
X70659472Y-132725451D01*
X70349182Y-132414620D01*
X69943563Y-132246192D01*
X69504364Y-132245808D01*
X69098451Y-132413528D01*
X68787620Y-132723818D01*
X68655686Y-133041549D01*
X68653315Y-132988542D01*
X68478259Y-132565920D01*
X68226958Y-132485647D01*
X67362605Y-133350000D01*
X67003395Y-133350000D01*
X66139042Y-132485647D01*
X65887741Y-132565920D01*
X65686282Y-133121279D01*
X30607000Y-133121279D01*
X30607000Y-131853958D01*
X66318647Y-131853958D01*
X66390852Y-132080000D01*
X66318647Y-132306042D01*
X67183000Y-133170395D01*
X68047353Y-132306042D01*
X67975148Y-132080000D01*
X68047353Y-131853958D01*
X67183000Y-130989605D01*
X66318647Y-131853958D01*
X30607000Y-131853958D01*
X30607000Y-130581279D01*
X65686282Y-130581279D01*
X65712685Y-131171458D01*
X65887741Y-131594080D01*
X66139042Y-131674353D01*
X67003395Y-130810000D01*
X67362605Y-130810000D01*
X68226958Y-131674353D01*
X68478259Y-131594080D01*
X68653191Y-131111848D01*
X68786528Y-131434549D01*
X69096818Y-131745380D01*
X69502437Y-131913808D01*
X69941636Y-131914192D01*
X70347549Y-131746472D01*
X70658380Y-131436182D01*
X70707454Y-131318000D01*
X74549000Y-131318000D01*
X74743403Y-131279331D01*
X74908210Y-131169210D01*
X77067210Y-129010210D01*
X77177331Y-128845404D01*
X77216000Y-128651000D01*
X77177331Y-128456597D01*
X77067210Y-128291790D01*
X76902403Y-128181669D01*
X76708000Y-128143000D01*
X76513596Y-128181669D01*
X76348790Y-128291790D01*
X74338580Y-130302000D01*
X70707629Y-130302000D01*
X70659472Y-130185451D01*
X70349182Y-129874620D01*
X69943563Y-129706192D01*
X69504364Y-129705808D01*
X69098451Y-129873528D01*
X68787620Y-130183818D01*
X68655686Y-130501549D01*
X68653315Y-130448542D01*
X68478259Y-130025920D01*
X68226958Y-129945647D01*
X67362605Y-130810000D01*
X67003395Y-130810000D01*
X66139042Y-129945647D01*
X65887741Y-130025920D01*
X65686282Y-130581279D01*
X30607000Y-130581279D01*
X30607000Y-129313958D01*
X66318647Y-129313958D01*
X66390852Y-129540000D01*
X66318647Y-129766042D01*
X67183000Y-130630395D01*
X68047353Y-129766042D01*
X67975148Y-129540000D01*
X68047353Y-129313958D01*
X67183000Y-128449605D01*
X66318647Y-129313958D01*
X30607000Y-129313958D01*
X30607000Y-128041279D01*
X65686282Y-128041279D01*
X65712685Y-128631458D01*
X65887741Y-129054080D01*
X66139042Y-129134353D01*
X67003395Y-128270000D01*
X67362605Y-128270000D01*
X68226958Y-129134353D01*
X68478259Y-129054080D01*
X68653191Y-128571848D01*
X68786528Y-128894549D01*
X69096818Y-129205380D01*
X69502437Y-129373808D01*
X69941636Y-129374192D01*
X70347549Y-129206472D01*
X70658380Y-128896182D01*
X70826808Y-128490563D01*
X70827192Y-128051364D01*
X70659472Y-127645451D01*
X70349182Y-127334620D01*
X69943563Y-127166192D01*
X69504364Y-127165808D01*
X69098451Y-127333528D01*
X68787620Y-127643818D01*
X68655686Y-127961549D01*
X68653315Y-127908542D01*
X68478259Y-127485920D01*
X68226958Y-127405647D01*
X67362605Y-128270000D01*
X67003395Y-128270000D01*
X66139042Y-127405647D01*
X65887741Y-127485920D01*
X65686282Y-128041279D01*
X30607000Y-128041279D01*
X30607000Y-126773958D01*
X66318647Y-126773958D01*
X66390852Y-127000000D01*
X66318647Y-127226042D01*
X67183000Y-128090395D01*
X68047353Y-127226042D01*
X67975148Y-127000000D01*
X68047353Y-126773958D01*
X67183000Y-125909605D01*
X66318647Y-126773958D01*
X30607000Y-126773958D01*
X30607000Y-125501279D01*
X65686282Y-125501279D01*
X65712685Y-126091458D01*
X65887741Y-126514080D01*
X66139042Y-126594353D01*
X67003395Y-125730000D01*
X67362605Y-125730000D01*
X68226958Y-126594353D01*
X68478259Y-126514080D01*
X68653191Y-126031848D01*
X68786528Y-126354549D01*
X69096818Y-126665380D01*
X69502437Y-126833808D01*
X69941636Y-126834192D01*
X70347549Y-126666472D01*
X70658380Y-126356182D01*
X70826808Y-125950563D01*
X70827192Y-125511364D01*
X70659472Y-125105451D01*
X70349182Y-124794620D01*
X69943563Y-124626192D01*
X69504364Y-124625808D01*
X69098451Y-124793528D01*
X68787620Y-125103818D01*
X68655686Y-125421549D01*
X68653315Y-125368542D01*
X68478259Y-124945920D01*
X68226958Y-124865647D01*
X67362605Y-125730000D01*
X67003395Y-125730000D01*
X66139042Y-124865647D01*
X65887741Y-124945920D01*
X65686282Y-125501279D01*
X30607000Y-125501279D01*
X30607000Y-124686042D01*
X66318647Y-124686042D01*
X67183000Y-125550395D01*
X68047353Y-124686042D01*
X67967080Y-124434741D01*
X67411721Y-124233282D01*
X66821542Y-124259685D01*
X66398920Y-124434741D01*
X66318647Y-124686042D01*
X30607000Y-124686042D01*
X30607000Y-111784110D01*
X79330524Y-111784110D01*
X79451845Y-112014000D01*
X80645000Y-112014000D01*
X80645000Y-110820181D01*
X80899000Y-110820181D01*
X80899000Y-112014000D01*
X82092155Y-112014000D01*
X82213476Y-111784110D01*
X82043645Y-111374076D01*
X81653358Y-110945817D01*
X81128892Y-110699514D01*
X80899000Y-110820181D01*
X80645000Y-110820181D01*
X80415108Y-110699514D01*
X79890642Y-110945817D01*
X79500355Y-111374076D01*
X79330524Y-111784110D01*
X30607000Y-111784110D01*
X30607000Y-104163906D01*
X70103868Y-104163906D01*
X70219632Y-104444074D01*
X70433798Y-104658615D01*
X70713764Y-104774867D01*
X71016906Y-104775132D01*
X71297074Y-104659368D01*
X71511615Y-104445202D01*
X71511748Y-104444882D01*
X78928631Y-97028000D01*
X91378370Y-97028000D01*
X97155000Y-102804630D01*
X97155000Y-111252000D01*
X96427045Y-111252000D01*
X96393000Y-111245228D01*
X96358955Y-111252000D01*
X95157045Y-111252000D01*
X95123000Y-111245228D01*
X95088955Y-111252000D01*
X93853000Y-111252000D01*
X93837797Y-111255024D01*
X93353000Y-111255024D01*
X93258873Y-111272735D01*
X93172424Y-111328364D01*
X93114428Y-111413244D01*
X93094024Y-111514000D01*
X93094024Y-111998797D01*
X93091000Y-112014000D01*
X93094024Y-112029203D01*
X93094024Y-112514000D01*
X93111735Y-112608127D01*
X93167364Y-112694576D01*
X93252244Y-112752572D01*
X93353000Y-112772976D01*
X93837797Y-112772976D01*
X93853000Y-112776000D01*
X95088955Y-112776000D01*
X95123000Y-112782772D01*
X95157045Y-112776000D01*
X96358955Y-112776000D01*
X96393000Y-112782772D01*
X96427045Y-112776000D01*
X97628955Y-112776000D01*
X97663000Y-112782772D01*
X97697045Y-112776000D01*
X98898955Y-112776000D01*
X98933000Y-112782772D01*
X98967045Y-112776000D01*
X100168955Y-112776000D01*
X100203000Y-112782772D01*
X100491543Y-112725377D01*
X100736159Y-112561931D01*
X100899605Y-112317315D01*
X100899789Y-112316391D01*
X100906996Y-112305605D01*
X100965000Y-112014000D01*
X100906996Y-111722395D01*
X100899789Y-111711609D01*
X100899605Y-111710685D01*
X100736159Y-111466069D01*
X100491543Y-111302623D01*
X100203000Y-111245228D01*
X100168955Y-111252000D01*
X98967045Y-111252000D01*
X98933000Y-111245228D01*
X98898955Y-111252000D01*
X98679000Y-111252000D01*
X98679000Y-102489000D01*
X98620996Y-102197395D01*
X98455815Y-101950185D01*
X92232815Y-95727185D01*
X91985605Y-95562004D01*
X91694000Y-95504000D01*
X78613000Y-95504000D01*
X78321395Y-95562004D01*
X78074184Y-95727185D01*
X70327369Y-103474001D01*
X70220385Y-103580798D01*
X70104133Y-103860764D01*
X70103868Y-104163906D01*
X30607000Y-104163906D01*
X30607000Y-94488000D01*
X93800394Y-94488000D01*
X115951000Y-116638606D01*
X115951000Y-116638606D01*
G37*
X115951000Y-116638606D02*
X115951000Y-155575000D01*
X30607000Y-155575000D01*
X30607000Y-148502661D01*
X45224944Y-148502661D01*
X45248881Y-148706846D01*
X45638543Y-148831917D01*
X46046407Y-148798351D01*
X46267319Y-148706846D01*
X46291256Y-148502661D01*
X50228744Y-148502661D01*
X50252681Y-148706846D01*
X50642343Y-148831917D01*
X51050207Y-148798351D01*
X51271119Y-148706846D01*
X51295056Y-148502661D01*
X50761900Y-147969505D01*
X50228744Y-148502661D01*
X46291256Y-148502661D01*
X45758100Y-147969505D01*
X45224944Y-148502661D01*
X30607000Y-148502661D01*
X30607000Y-147670343D01*
X44716083Y-147670343D01*
X44749649Y-148078207D01*
X44841154Y-148299119D01*
X45045339Y-148323056D01*
X45578495Y-147789900D01*
X45937705Y-147789900D01*
X46470861Y-148323056D01*
X46675046Y-148299119D01*
X46800117Y-147909457D01*
X46780439Y-147670343D01*
X49719883Y-147670343D01*
X49753449Y-148078207D01*
X49844954Y-148299119D01*
X50049139Y-148323056D01*
X50582295Y-147789900D01*
X50941505Y-147789900D01*
X51474661Y-148323056D01*
X51678846Y-148299119D01*
X51803917Y-147909457D01*
X51770351Y-147501593D01*
X51678846Y-147280681D01*
X51474661Y-147256744D01*
X50941505Y-147789900D01*
X50582295Y-147789900D01*
X50049139Y-147256744D01*
X49844954Y-147280681D01*
X49719883Y-147670343D01*
X46780439Y-147670343D01*
X46766551Y-147501593D01*
X46675046Y-147280681D01*
X46470861Y-147256744D01*
X45937705Y-147789900D01*
X45578495Y-147789900D01*
X45045339Y-147256744D01*
X44841154Y-147280681D01*
X44716083Y-147670343D01*
X30607000Y-147670343D01*
X30607000Y-147077139D01*
X45224944Y-147077139D01*
X45758100Y-147610295D01*
X46291256Y-147077139D01*
X50228744Y-147077139D01*
X50761900Y-147610295D01*
X51295056Y-147077139D01*
X51271119Y-146872954D01*
X50881457Y-146747883D01*
X50473593Y-146781449D01*
X50252681Y-146872954D01*
X50228744Y-147077139D01*
X46291256Y-147077139D01*
X46267319Y-146872954D01*
X45877657Y-146747883D01*
X45469793Y-146781449D01*
X45248881Y-146872954D01*
X45224944Y-147077139D01*
X30607000Y-147077139D01*
X30607000Y-145796000D01*
X60452000Y-145796000D01*
X60452000Y-151892000D01*
X60490669Y-152086403D01*
X60600790Y-152251210D01*
X61235790Y-152886211D01*
X61400597Y-152996331D01*
X61595000Y-153035000D01*
X75565000Y-153035000D01*
X75759403Y-152996331D01*
X75924210Y-152886210D01*
X76117420Y-152693000D01*
X79663024Y-152693000D01*
X79663024Y-154393000D01*
X79680735Y-154487127D01*
X79736364Y-154573576D01*
X79821244Y-154631572D01*
X79922000Y-154651976D01*
X81622000Y-154651976D01*
X81716127Y-154634265D01*
X81802576Y-154578636D01*
X81860572Y-154493756D01*
X81880976Y-154393000D01*
X81880976Y-154082750D01*
X92972000Y-154082750D01*
X92972000Y-154423309D01*
X93068673Y-154656698D01*
X93247301Y-154835327D01*
X93480690Y-154932000D01*
X93821250Y-154932000D01*
X93980000Y-154773250D01*
X93980000Y-153924000D01*
X94234000Y-153924000D01*
X94234000Y-154773250D01*
X94392750Y-154932000D01*
X94733310Y-154932000D01*
X94953558Y-154840770D01*
X95075126Y-154891119D01*
X95250000Y-154764954D01*
X95250000Y-153924000D01*
X95504000Y-153924000D01*
X95504000Y-154764954D01*
X95678874Y-154891119D01*
X95937209Y-154784127D01*
X96012000Y-154719511D01*
X96086791Y-154784127D01*
X96345126Y-154891119D01*
X96520000Y-154764954D01*
X96520000Y-153924000D01*
X96774000Y-153924000D01*
X96774000Y-154764954D01*
X96948874Y-154891119D01*
X97207209Y-154784127D01*
X97282000Y-154719511D01*
X97356791Y-154784127D01*
X97615126Y-154891119D01*
X97790000Y-154764954D01*
X97790000Y-153924000D01*
X98044000Y-153924000D01*
X98044000Y-154764954D01*
X98218874Y-154891119D01*
X98477209Y-154784127D01*
X98552000Y-154719511D01*
X98626791Y-154784127D01*
X98885126Y-154891119D01*
X99060000Y-154764954D01*
X99060000Y-153924000D01*
X99314000Y-153924000D01*
X99314000Y-154764954D01*
X99488874Y-154891119D01*
X99747209Y-154784127D01*
X99822000Y-154719511D01*
X99896791Y-154784127D01*
X100155126Y-154891119D01*
X100330000Y-154764954D01*
X100330000Y-153924000D01*
X100584000Y-153924000D01*
X100584000Y-154764954D01*
X100758874Y-154891119D01*
X101017209Y-154784127D01*
X101352323Y-154494604D01*
X101551132Y-154098877D01*
X101426135Y-153924000D01*
X100584000Y-153924000D01*
X100330000Y-153924000D01*
X99314000Y-153924000D01*
X99060000Y-153924000D01*
X98044000Y-153924000D01*
X97790000Y-153924000D01*
X96774000Y-153924000D01*
X96520000Y-153924000D01*
X95504000Y-153924000D01*
X95250000Y-153924000D01*
X94234000Y-153924000D01*
X93980000Y-153924000D01*
X93130750Y-153924000D01*
X92972000Y-154082750D01*
X81880976Y-154082750D01*
X81880976Y-153170691D01*
X92972000Y-153170691D01*
X92972000Y-153511250D01*
X93130750Y-153670000D01*
X93980000Y-153670000D01*
X93980000Y-152820750D01*
X94234000Y-152820750D01*
X94234000Y-153670000D01*
X95250000Y-153670000D01*
X95250000Y-152829046D01*
X95504000Y-152829046D01*
X95504000Y-153670000D01*
X96520000Y-153670000D01*
X96520000Y-152829046D01*
X96774000Y-152829046D01*
X96774000Y-153670000D01*
X97790000Y-153670000D01*
X97790000Y-152829046D01*
X98044000Y-152829046D01*
X98044000Y-153670000D01*
X99060000Y-153670000D01*
X99060000Y-152829046D01*
X99314000Y-152829046D01*
X99314000Y-153670000D01*
X100330000Y-153670000D01*
X100330000Y-152829046D01*
X100584000Y-152829046D01*
X100584000Y-153670000D01*
X101426135Y-153670000D01*
X101551132Y-153495123D01*
X101352323Y-153099396D01*
X101017209Y-152809873D01*
X100758874Y-152702881D01*
X100584000Y-152829046D01*
X100330000Y-152829046D01*
X100155126Y-152702881D01*
X99896791Y-152809873D01*
X99822000Y-152874489D01*
X99747209Y-152809873D01*
X99488874Y-152702881D01*
X99314000Y-152829046D01*
X99060000Y-152829046D01*
X98885126Y-152702881D01*
X98626791Y-152809873D01*
X98552000Y-152874489D01*
X98477209Y-152809873D01*
X98218874Y-152702881D01*
X98044000Y-152829046D01*
X97790000Y-152829046D01*
X97615126Y-152702881D01*
X97356791Y-152809873D01*
X97282000Y-152874489D01*
X97207209Y-152809873D01*
X96948874Y-152702881D01*
X96774000Y-152829046D01*
X96520000Y-152829046D01*
X96345126Y-152702881D01*
X96086791Y-152809873D01*
X96012000Y-152874489D01*
X95937209Y-152809873D01*
X95678874Y-152702881D01*
X95504000Y-152829046D01*
X95250000Y-152829046D01*
X95075126Y-152702881D01*
X94953558Y-152753230D01*
X94733310Y-152662000D01*
X94392750Y-152662000D01*
X94234000Y-152820750D01*
X93980000Y-152820750D01*
X93821250Y-152662000D01*
X93480690Y-152662000D01*
X93247301Y-152758673D01*
X93068673Y-152937302D01*
X92972000Y-153170691D01*
X81880976Y-153170691D01*
X81880976Y-152693000D01*
X81863265Y-152598873D01*
X81807636Y-152512424D01*
X81722756Y-152454428D01*
X81622000Y-152434024D01*
X79922000Y-152434024D01*
X79827873Y-152451735D01*
X79741424Y-152507364D01*
X79683428Y-152592244D01*
X79663024Y-152693000D01*
X76117420Y-152693000D01*
X77807420Y-151003000D01*
X79646371Y-151003000D01*
X79730408Y-151425483D01*
X79969725Y-151783646D01*
X80327888Y-152022963D01*
X80750371Y-152107000D01*
X80793629Y-152107000D01*
X81216112Y-152022963D01*
X81574275Y-151783646D01*
X81813592Y-151425483D01*
X81897629Y-151003000D01*
X81813592Y-150580517D01*
X81574275Y-150222354D01*
X81216112Y-149983037D01*
X80793629Y-149899000D01*
X80750371Y-149899000D01*
X80327888Y-149983037D01*
X79969725Y-150222354D01*
X79730408Y-150580517D01*
X79646371Y-151003000D01*
X77807420Y-151003000D01*
X79808325Y-149002095D01*
X79969725Y-149243646D01*
X80327888Y-149482963D01*
X80750371Y-149567000D01*
X80793629Y-149567000D01*
X81216112Y-149482963D01*
X81574275Y-149243646D01*
X81735236Y-149002750D01*
X109005000Y-149002750D01*
X109005000Y-149693310D01*
X109101673Y-149926699D01*
X109280302Y-150105327D01*
X109513691Y-150202000D01*
X110204250Y-150202000D01*
X110363000Y-150043250D01*
X110363000Y-148844000D01*
X110617000Y-148844000D01*
X110617000Y-150043250D01*
X110775750Y-150202000D01*
X111466309Y-150202000D01*
X111699698Y-150105327D01*
X111878327Y-149926699D01*
X111975000Y-149693310D01*
X111975000Y-149002750D01*
X111816250Y-148844000D01*
X110617000Y-148844000D01*
X110363000Y-148844000D01*
X109163750Y-148844000D01*
X109005000Y-149002750D01*
X81735236Y-149002750D01*
X81813592Y-148885483D01*
X81897629Y-148463000D01*
X81813592Y-148040517D01*
X81574275Y-147682354D01*
X81216112Y-147443037D01*
X80793629Y-147359000D01*
X80750371Y-147359000D01*
X80327888Y-147443037D01*
X79969725Y-147682354D01*
X79787549Y-147955000D01*
X79629000Y-147955000D01*
X79434597Y-147993669D01*
X79269790Y-148103790D01*
X75354580Y-152019000D01*
X74930000Y-152019000D01*
X75124403Y-151980331D01*
X75289210Y-151870210D01*
X79099210Y-148060210D01*
X79209331Y-147895403D01*
X79248000Y-147701000D01*
X79248000Y-145923000D01*
X79646371Y-145923000D01*
X79730408Y-146345483D01*
X79969725Y-146703646D01*
X80327888Y-146942963D01*
X80750371Y-147027000D01*
X80793629Y-147027000D01*
X81216112Y-146942963D01*
X81574275Y-146703646D01*
X81813592Y-146345483D01*
X81897629Y-145923000D01*
X81813592Y-145500517D01*
X81574275Y-145142354D01*
X81216112Y-144903037D01*
X80793629Y-144819000D01*
X80750371Y-144819000D01*
X80327888Y-144903037D01*
X79969725Y-145142354D01*
X79730408Y-145500517D01*
X79646371Y-145923000D01*
X79248000Y-145923000D01*
X79248000Y-143383000D01*
X79646371Y-143383000D01*
X79730408Y-143805483D01*
X79969725Y-144163646D01*
X80327888Y-144402963D01*
X80750371Y-144487000D01*
X80793629Y-144487000D01*
X81216112Y-144402963D01*
X81574275Y-144163646D01*
X81813592Y-143805483D01*
X81897629Y-143383000D01*
X81813592Y-142960517D01*
X81574275Y-142602354D01*
X81216112Y-142363037D01*
X80793629Y-142279000D01*
X80750371Y-142279000D01*
X80327888Y-142363037D01*
X79969725Y-142602354D01*
X79730408Y-142960517D01*
X79646371Y-143383000D01*
X79248000Y-143383000D01*
X79248000Y-142113000D01*
X82296000Y-142113000D01*
X82334669Y-142307403D01*
X82444790Y-142472210D01*
X86508790Y-146536210D01*
X86673597Y-146646331D01*
X86868000Y-146685000D01*
X109505549Y-146685000D01*
X109687725Y-146957646D01*
X110045888Y-147196963D01*
X110362998Y-147260040D01*
X110362998Y-147390748D01*
X110204250Y-147232000D01*
X109513691Y-147232000D01*
X109280302Y-147328673D01*
X109101673Y-147507301D01*
X109005000Y-147740690D01*
X109005000Y-148431250D01*
X109163750Y-148590000D01*
X110363000Y-148590000D01*
X110363000Y-148570000D01*
X110617000Y-148570000D01*
X110617000Y-148590000D01*
X111816250Y-148590000D01*
X111975000Y-148431250D01*
X111975000Y-147740690D01*
X111878327Y-147507301D01*
X111699698Y-147328673D01*
X111466309Y-147232000D01*
X110775750Y-147232000D01*
X110617002Y-147390748D01*
X110617002Y-147260040D01*
X110934112Y-147196963D01*
X111292275Y-146957646D01*
X111531592Y-146599483D01*
X111615629Y-146177000D01*
X111531592Y-145754517D01*
X111292275Y-145396354D01*
X110934112Y-145157037D01*
X110511629Y-145073000D01*
X110468371Y-145073000D01*
X110045888Y-145157037D01*
X109687725Y-145396354D01*
X109505549Y-145669000D01*
X87078420Y-145669000D01*
X83163210Y-141753790D01*
X82998403Y-141643669D01*
X82804000Y-141605000D01*
X82609597Y-141643669D01*
X82444790Y-141753790D01*
X82334669Y-141918597D01*
X82296000Y-142113000D01*
X79248000Y-142113000D01*
X79248000Y-140843000D01*
X79646371Y-140843000D01*
X79730408Y-141265483D01*
X79969725Y-141623646D01*
X80327888Y-141862963D01*
X80750371Y-141947000D01*
X80793629Y-141947000D01*
X81216112Y-141862963D01*
X81574275Y-141623646D01*
X81813592Y-141265483D01*
X81897629Y-140843000D01*
X81813592Y-140420517D01*
X81574275Y-140062354D01*
X81216112Y-139823037D01*
X80793629Y-139739000D01*
X80750371Y-139739000D01*
X80327888Y-139823037D01*
X79969725Y-140062354D01*
X79730408Y-140420517D01*
X79646371Y-140843000D01*
X79248000Y-140843000D01*
X79248000Y-138303000D01*
X79646371Y-138303000D01*
X79730408Y-138725483D01*
X79969725Y-139083646D01*
X80327888Y-139322963D01*
X80750371Y-139407000D01*
X80793629Y-139407000D01*
X81216112Y-139322963D01*
X81574275Y-139083646D01*
X81813592Y-138725483D01*
X81897629Y-138303000D01*
X81813592Y-137880517D01*
X81574275Y-137522354D01*
X81216112Y-137283037D01*
X80793629Y-137199000D01*
X80750371Y-137199000D01*
X80327888Y-137283037D01*
X79969725Y-137522354D01*
X79730408Y-137880517D01*
X79646371Y-138303000D01*
X79248000Y-138303000D01*
X79248000Y-138005420D01*
X80446803Y-136806617D01*
X80750371Y-136867000D01*
X80793629Y-136867000D01*
X81216112Y-136782963D01*
X81574275Y-136543646D01*
X81813592Y-136185483D01*
X81897629Y-135763000D01*
X81813592Y-135340517D01*
X81574275Y-134982354D01*
X81216112Y-134743037D01*
X80899002Y-134679960D01*
X80899002Y-134543820D01*
X81128892Y-134664486D01*
X81653358Y-134418183D01*
X82043645Y-133989924D01*
X82213476Y-133579890D01*
X82092155Y-133350000D01*
X80899000Y-133350000D01*
X80899000Y-133370000D01*
X80645000Y-133370000D01*
X80645000Y-133350000D01*
X80625000Y-133350000D01*
X80625000Y-133096000D01*
X80645000Y-133096000D01*
X80645000Y-131902181D01*
X80899000Y-131902181D01*
X80899000Y-133096000D01*
X82092155Y-133096000D01*
X82213476Y-132866110D01*
X82043645Y-132456076D01*
X81653358Y-132027817D01*
X81128892Y-131781514D01*
X80899000Y-131902181D01*
X80645000Y-131902181D01*
X80415108Y-131781514D01*
X79890642Y-132027817D01*
X79500355Y-132456076D01*
X79375000Y-132758729D01*
X79375000Y-131572000D01*
X82042000Y-131572000D01*
X82080669Y-131766403D01*
X82190790Y-131931210D01*
X94255790Y-143996211D01*
X94420597Y-144106331D01*
X94615000Y-144145000D01*
X109505549Y-144145000D01*
X109687725Y-144417646D01*
X110045888Y-144656963D01*
X110468371Y-144741000D01*
X110511629Y-144741000D01*
X110934112Y-144656963D01*
X111292275Y-144417646D01*
X111531592Y-144059483D01*
X111615629Y-143637000D01*
X111531592Y-143214517D01*
X111292275Y-142856354D01*
X110934112Y-142617037D01*
X110511629Y-142533000D01*
X110468371Y-142533000D01*
X110045888Y-142617037D01*
X109687725Y-142856354D01*
X109505549Y-143129000D01*
X94825421Y-143129000D01*
X82909210Y-131212790D01*
X82744403Y-131102669D01*
X82550000Y-131064000D01*
X82355597Y-131102669D01*
X82190790Y-131212790D01*
X82080669Y-131377597D01*
X82042000Y-131572000D01*
X79375000Y-131572000D01*
X79375000Y-129071000D01*
X79663024Y-129071000D01*
X79663024Y-130771000D01*
X79680735Y-130865127D01*
X79736364Y-130951576D01*
X79821244Y-131009572D01*
X79922000Y-131029976D01*
X81622000Y-131029976D01*
X81716127Y-131012265D01*
X81802576Y-130956636D01*
X81860572Y-130871756D01*
X81880976Y-130771000D01*
X81880976Y-129071000D01*
X81863265Y-128976873D01*
X81807636Y-128890424D01*
X81722756Y-128832428D01*
X81622000Y-128812024D01*
X79922000Y-128812024D01*
X79827873Y-128829735D01*
X79741424Y-128885364D01*
X79683428Y-128970244D01*
X79663024Y-129071000D01*
X79375000Y-129071000D01*
X79375000Y-128524000D01*
X82042000Y-128524000D01*
X82080669Y-128718403D01*
X82190790Y-128883210D01*
X82355597Y-128993331D01*
X82550000Y-129032000D01*
X96647000Y-129032000D01*
X96841403Y-128993331D01*
X97006210Y-128883210D01*
X102987444Y-122901976D01*
X103529500Y-122901976D01*
X103623627Y-122884265D01*
X103710076Y-122828636D01*
X103768072Y-122743756D01*
X103788476Y-122643000D01*
X103788476Y-120943000D01*
X103770765Y-120848873D01*
X103715136Y-120762424D01*
X103630256Y-120704428D01*
X103529500Y-120684024D01*
X101829500Y-120684024D01*
X101735373Y-120701735D01*
X101648924Y-120757364D01*
X101590928Y-120842244D01*
X101570524Y-120943000D01*
X101570524Y-122643000D01*
X101588235Y-122737127D01*
X101638046Y-122814534D01*
X96436580Y-128016000D01*
X82550000Y-128016000D01*
X82355597Y-128054669D01*
X82190790Y-128164790D01*
X82080669Y-128329597D01*
X82042000Y-128524000D01*
X79375000Y-128524000D01*
X79375000Y-127381000D01*
X79646371Y-127381000D01*
X79730408Y-127803483D01*
X79969725Y-128161646D01*
X80327888Y-128400963D01*
X80750371Y-128485000D01*
X80793629Y-128485000D01*
X81216112Y-128400963D01*
X81574275Y-128161646D01*
X81813592Y-127803483D01*
X81897629Y-127381000D01*
X81813592Y-126958517D01*
X81574275Y-126600354D01*
X81216112Y-126361037D01*
X80793629Y-126277000D01*
X80750371Y-126277000D01*
X80327888Y-126361037D01*
X79969725Y-126600354D01*
X79730408Y-126958517D01*
X79646371Y-127381000D01*
X79375000Y-127381000D01*
X79375000Y-124841000D01*
X79646371Y-124841000D01*
X79730408Y-125263483D01*
X79969725Y-125621646D01*
X80327888Y-125860963D01*
X80750371Y-125945000D01*
X80793629Y-125945000D01*
X81216112Y-125860963D01*
X81574275Y-125621646D01*
X81813592Y-125263483D01*
X81897629Y-124841000D01*
X81813592Y-124418517D01*
X81574275Y-124060354D01*
X81216112Y-123821037D01*
X80793629Y-123737000D01*
X80750371Y-123737000D01*
X80327888Y-123821037D01*
X79969725Y-124060354D01*
X79730408Y-124418517D01*
X79646371Y-124841000D01*
X79375000Y-124841000D01*
X79375000Y-122003420D01*
X79839420Y-121539000D01*
X79957266Y-121539000D01*
X79730408Y-121878517D01*
X79646371Y-122301000D01*
X79730408Y-122723483D01*
X79969725Y-123081646D01*
X80327888Y-123320963D01*
X80750371Y-123405000D01*
X80793629Y-123405000D01*
X81216112Y-123320963D01*
X81574275Y-123081646D01*
X81813592Y-122723483D01*
X81897629Y-122301000D01*
X81813592Y-121878517D01*
X81586734Y-121539000D01*
X82550000Y-121539000D01*
X82744403Y-121500331D01*
X82909210Y-121390210D01*
X83356420Y-120943000D01*
X89315024Y-120943000D01*
X89315024Y-122643000D01*
X89332735Y-122737127D01*
X89388364Y-122823576D01*
X89473244Y-122881572D01*
X89574000Y-122901976D01*
X91274000Y-122901976D01*
X91368127Y-122884265D01*
X91454576Y-122828636D01*
X91512572Y-122743756D01*
X91532976Y-122643000D01*
X91532976Y-121771371D01*
X91860000Y-121771371D01*
X91860000Y-121814629D01*
X91944037Y-122237112D01*
X92183354Y-122595275D01*
X92541517Y-122834592D01*
X92964000Y-122918629D01*
X93386483Y-122834592D01*
X93744646Y-122595275D01*
X93983963Y-122237112D01*
X94068000Y-121814629D01*
X94068000Y-121771371D01*
X94400000Y-121771371D01*
X94400000Y-121814629D01*
X94484037Y-122237112D01*
X94723354Y-122595275D01*
X95081517Y-122834592D01*
X95504000Y-122918629D01*
X95926483Y-122834592D01*
X96284646Y-122595275D01*
X96523963Y-122237112D01*
X96587040Y-121920002D01*
X96723180Y-121920002D01*
X96602514Y-122149892D01*
X96848817Y-122674358D01*
X97277076Y-123064645D01*
X97687110Y-123234476D01*
X97917000Y-123113155D01*
X97917000Y-121920000D01*
X98171000Y-121920000D01*
X98171000Y-123113155D01*
X98400890Y-123234476D01*
X98810924Y-123064645D01*
X99239183Y-122674358D01*
X99485486Y-122149892D01*
X99364819Y-121920000D01*
X98171000Y-121920000D01*
X97917000Y-121920000D01*
X97897000Y-121920000D01*
X97897000Y-121666000D01*
X97917000Y-121666000D01*
X97917000Y-120472845D01*
X98171000Y-120472845D01*
X98171000Y-121666000D01*
X99364819Y-121666000D01*
X99485486Y-121436108D01*
X99239183Y-120911642D01*
X98810924Y-120521355D01*
X98400890Y-120351524D01*
X98171000Y-120472845D01*
X97917000Y-120472845D01*
X97687110Y-120351524D01*
X97277076Y-120521355D01*
X96848817Y-120911642D01*
X96602514Y-121436108D01*
X96723180Y-121665998D01*
X96587040Y-121665998D01*
X96523963Y-121348888D01*
X96284646Y-120990725D01*
X95926483Y-120751408D01*
X95504000Y-120667371D01*
X95081517Y-120751408D01*
X94723354Y-120990725D01*
X94484037Y-121348888D01*
X94400000Y-121771371D01*
X94068000Y-121771371D01*
X93983963Y-121348888D01*
X93744646Y-120990725D01*
X93386483Y-120751408D01*
X92964000Y-120667371D01*
X92541517Y-120751408D01*
X92183354Y-120990725D01*
X91944037Y-121348888D01*
X91860000Y-121771371D01*
X91532976Y-121771371D01*
X91532976Y-120943000D01*
X91515265Y-120848873D01*
X91459636Y-120762424D01*
X91374756Y-120704428D01*
X91274000Y-120684024D01*
X89574000Y-120684024D01*
X89479873Y-120701735D01*
X89393424Y-120757364D01*
X89335428Y-120842244D01*
X89315024Y-120943000D01*
X83356420Y-120943000D01*
X84433210Y-119866211D01*
X84543330Y-119701404D01*
X84543331Y-119701403D01*
X84582000Y-119507000D01*
X84582000Y-118329976D01*
X84924000Y-118329976D01*
X85018127Y-118312265D01*
X85104576Y-118256636D01*
X85162572Y-118171756D01*
X85182976Y-118071000D01*
X85182976Y-116371000D01*
X85165265Y-116276873D01*
X85109636Y-116190424D01*
X85024756Y-116132428D01*
X84924000Y-116112024D01*
X83224000Y-116112024D01*
X83129873Y-116129735D01*
X83043424Y-116185364D01*
X82985428Y-116270244D01*
X82965024Y-116371000D01*
X82965024Y-118071000D01*
X82982735Y-118165127D01*
X83038364Y-118251576D01*
X83123244Y-118309572D01*
X83224000Y-118329976D01*
X83566000Y-118329976D01*
X83566000Y-119296579D01*
X82339580Y-120523000D01*
X81586734Y-120523000D01*
X81813592Y-120183483D01*
X81897629Y-119761000D01*
X81813592Y-119338517D01*
X81574275Y-118980354D01*
X81216112Y-118741037D01*
X80793629Y-118657000D01*
X80750371Y-118657000D01*
X80327888Y-118741037D01*
X79969725Y-118980354D01*
X79730408Y-119338517D01*
X79646371Y-119761000D01*
X79730408Y-120183483D01*
X79957266Y-120523000D01*
X79629000Y-120523000D01*
X79434597Y-120561669D01*
X79269790Y-120671790D01*
X78507790Y-121433790D01*
X78397669Y-121598597D01*
X78359000Y-121793000D01*
X78359000Y-135933580D01*
X78221179Y-136071401D01*
X78232000Y-136017000D01*
X78232000Y-117558420D01*
X79331420Y-116459000D01*
X79957266Y-116459000D01*
X79730408Y-116798517D01*
X79646371Y-117221000D01*
X79730408Y-117643483D01*
X79969725Y-118001646D01*
X80327888Y-118240963D01*
X80750371Y-118325000D01*
X80793629Y-118325000D01*
X81216112Y-118240963D01*
X81574275Y-118001646D01*
X81813592Y-117643483D01*
X81897629Y-117221000D01*
X81813592Y-116798517D01*
X81586734Y-116459000D01*
X82296000Y-116459000D01*
X82490403Y-116420331D01*
X82655210Y-116310210D01*
X83410828Y-115554592D01*
X83629888Y-115700963D01*
X84052371Y-115785000D01*
X84095629Y-115785000D01*
X84518112Y-115700963D01*
X84876275Y-115461646D01*
X85115592Y-115103483D01*
X85199629Y-114681000D01*
X85115592Y-114258517D01*
X84876275Y-113900354D01*
X84518112Y-113661037D01*
X84095629Y-113577000D01*
X84052371Y-113577000D01*
X83629888Y-113661037D01*
X83271725Y-113900354D01*
X83032408Y-114258517D01*
X82973398Y-114555182D01*
X82085580Y-115443000D01*
X81586734Y-115443000D01*
X81813592Y-115103483D01*
X81897629Y-114681000D01*
X81813592Y-114258517D01*
X81574275Y-113900354D01*
X81216112Y-113661037D01*
X80899002Y-113597960D01*
X80899002Y-113461820D01*
X81128892Y-113582486D01*
X81653358Y-113336183D01*
X82043645Y-112907924D01*
X82213476Y-112497890D01*
X82092155Y-112268000D01*
X80899000Y-112268000D01*
X80899000Y-112288000D01*
X80645000Y-112288000D01*
X80645000Y-112268000D01*
X79451845Y-112268000D01*
X79330524Y-112497890D01*
X79500355Y-112907924D01*
X79890642Y-113336183D01*
X80415108Y-113582486D01*
X80644998Y-113461820D01*
X80644998Y-113597960D01*
X80327888Y-113661037D01*
X79969725Y-113900354D01*
X79730408Y-114258517D01*
X79646371Y-114681000D01*
X79730408Y-115103483D01*
X79957266Y-115443000D01*
X79121000Y-115443000D01*
X78958850Y-115475254D01*
X78926596Y-115481669D01*
X78761790Y-115591790D01*
X77364790Y-116988790D01*
X77254669Y-117153597D01*
X77216000Y-117348000D01*
X77216000Y-128651000D01*
X77216000Y-135806579D01*
X75840790Y-137181790D01*
X75730669Y-137346597D01*
X75692000Y-137541000D01*
X75730669Y-137735403D01*
X75840790Y-137900210D01*
X75873401Y-137922000D01*
X70707629Y-137922000D01*
X70659472Y-137805451D01*
X70349182Y-137494620D01*
X69943563Y-137326192D01*
X69504364Y-137325808D01*
X69098451Y-137493528D01*
X68787620Y-137803818D01*
X68655686Y-138121549D01*
X68653315Y-138068542D01*
X68478259Y-137645920D01*
X68226958Y-137565647D01*
X67362605Y-138430000D01*
X68226958Y-139294353D01*
X68478259Y-139214080D01*
X68653191Y-138731848D01*
X68786528Y-139054549D01*
X69096818Y-139365380D01*
X69502437Y-139533808D01*
X69941636Y-139534192D01*
X70347549Y-139366472D01*
X70658380Y-139056182D01*
X70707454Y-138938000D01*
X75873400Y-138938000D01*
X75840790Y-138959789D01*
X74338580Y-140462000D01*
X70707629Y-140462000D01*
X70659472Y-140345451D01*
X70349182Y-140034620D01*
X69943563Y-139866192D01*
X69504364Y-139865808D01*
X69098451Y-140033528D01*
X68787620Y-140343818D01*
X68655686Y-140661549D01*
X68653315Y-140608542D01*
X68478259Y-140185920D01*
X68226958Y-140105647D01*
X67362605Y-140970000D01*
X68226958Y-141834353D01*
X68478259Y-141754080D01*
X68653191Y-141271848D01*
X68786528Y-141594549D01*
X69096818Y-141905380D01*
X69502437Y-142073808D01*
X69941636Y-142074192D01*
X70347549Y-141906472D01*
X70658380Y-141596182D01*
X70707454Y-141478000D01*
X74549000Y-141478000D01*
X74743403Y-141439331D01*
X74908210Y-141329210D01*
X76559211Y-139678210D01*
X76669331Y-139513403D01*
X76708000Y-139319000D01*
X76669331Y-139124596D01*
X76559211Y-138959789D01*
X76526601Y-138938000D01*
X76581000Y-138938000D01*
X76775403Y-138899331D01*
X76940210Y-138789210D01*
X79226210Y-136503210D01*
X79336331Y-136338404D01*
X79375000Y-136144000D01*
X79375000Y-133687271D01*
X79500355Y-133989924D01*
X79890642Y-134418183D01*
X80415108Y-134664486D01*
X80644998Y-134543820D01*
X80644998Y-134679960D01*
X80327888Y-134743037D01*
X79969725Y-134982354D01*
X79730408Y-135340517D01*
X79646371Y-135763000D01*
X79713931Y-136102649D01*
X78380790Y-137435790D01*
X78270669Y-137600597D01*
X78232000Y-137795000D01*
X78232000Y-147490580D01*
X74719580Y-151003000D01*
X62865000Y-151003000D01*
X62670597Y-151041669D01*
X62505790Y-151151790D01*
X62395669Y-151316597D01*
X62357000Y-151511000D01*
X62395669Y-151705403D01*
X62505790Y-151870210D01*
X62670597Y-151980331D01*
X62865000Y-152019000D01*
X61805421Y-152019000D01*
X61468000Y-151681580D01*
X61468000Y-148808636D01*
X66078808Y-148808636D01*
X66246528Y-149214549D01*
X66556818Y-149525380D01*
X66962437Y-149693808D01*
X67401636Y-149694192D01*
X67807549Y-149526472D01*
X68118380Y-149216182D01*
X68286808Y-148810563D01*
X68287192Y-148371364D01*
X68119472Y-147965451D01*
X67894414Y-147740000D01*
X68614024Y-147740000D01*
X68614024Y-149440000D01*
X68631735Y-149534127D01*
X68687364Y-149620576D01*
X68772244Y-149678572D01*
X68873000Y-149698976D01*
X70573000Y-149698976D01*
X70667127Y-149681265D01*
X70753576Y-149625636D01*
X70811572Y-149540756D01*
X70831976Y-149440000D01*
X70831976Y-147740000D01*
X70814265Y-147645873D01*
X70758636Y-147559424D01*
X70673756Y-147501428D01*
X70573000Y-147481024D01*
X68873000Y-147481024D01*
X68778873Y-147498735D01*
X68692424Y-147554364D01*
X68634428Y-147639244D01*
X68614024Y-147740000D01*
X67894414Y-147740000D01*
X67809182Y-147654620D01*
X67491451Y-147522686D01*
X67544458Y-147520315D01*
X67967080Y-147345259D01*
X68047353Y-147093958D01*
X67183000Y-146229605D01*
X66318647Y-147093958D01*
X66398920Y-147345259D01*
X66881152Y-147520191D01*
X66558451Y-147653528D01*
X66247620Y-147963818D01*
X66079192Y-148369437D01*
X66078808Y-148808636D01*
X61468000Y-148808636D01*
X61468000Y-145821279D01*
X65686282Y-145821279D01*
X65712685Y-146411458D01*
X65887741Y-146834080D01*
X66139042Y-146914353D01*
X67003395Y-146050000D01*
X67362605Y-146050000D01*
X68226958Y-146914353D01*
X68478259Y-146834080D01*
X68653191Y-146351848D01*
X68786528Y-146674549D01*
X69096818Y-146985380D01*
X69502437Y-147153808D01*
X69941636Y-147154192D01*
X70347549Y-146986472D01*
X70658380Y-146676182D01*
X70826808Y-146270563D01*
X70827192Y-145831364D01*
X70659472Y-145425451D01*
X70349182Y-145114620D01*
X69943563Y-144946192D01*
X69504364Y-144945808D01*
X69098451Y-145113528D01*
X68787620Y-145423818D01*
X68655686Y-145741549D01*
X68653315Y-145688542D01*
X68478259Y-145265920D01*
X68226958Y-145185647D01*
X67362605Y-146050000D01*
X67003395Y-146050000D01*
X66139042Y-145185647D01*
X65887741Y-145265920D01*
X65686282Y-145821279D01*
X61468000Y-145821279D01*
X61468000Y-145796000D01*
X61429331Y-145601597D01*
X61319210Y-145436790D01*
X61154403Y-145326669D01*
X60960000Y-145288000D01*
X60765597Y-145326669D01*
X60600790Y-145436790D01*
X60490669Y-145601597D01*
X60452000Y-145796000D01*
X30607000Y-145796000D01*
X30607000Y-144553958D01*
X66318647Y-144553958D01*
X66390852Y-144780000D01*
X66318647Y-145006042D01*
X67183000Y-145870395D01*
X68047353Y-145006042D01*
X67975148Y-144780000D01*
X68047353Y-144553958D01*
X67183000Y-143689605D01*
X66318647Y-144553958D01*
X30607000Y-144553958D01*
X30607000Y-142914370D01*
X45110288Y-142914370D01*
X45208687Y-143152513D01*
X45390728Y-143334873D01*
X45628699Y-143433687D01*
X45886370Y-143433912D01*
X46124513Y-143335513D01*
X46306873Y-143153472D01*
X46405687Y-142915501D01*
X46405687Y-142914370D01*
X50114088Y-142914370D01*
X50212487Y-143152513D01*
X50394528Y-143334873D01*
X50632499Y-143433687D01*
X50890170Y-143433912D01*
X51128313Y-143335513D01*
X51182642Y-143281279D01*
X65686282Y-143281279D01*
X65712685Y-143871458D01*
X65887741Y-144294080D01*
X66139042Y-144374353D01*
X67003395Y-143510000D01*
X67362605Y-143510000D01*
X68226958Y-144374353D01*
X68478259Y-144294080D01*
X68653191Y-143811848D01*
X68786528Y-144134549D01*
X69096818Y-144445380D01*
X69502437Y-144613808D01*
X69941636Y-144614192D01*
X70347549Y-144446472D01*
X70658380Y-144136182D01*
X70826808Y-143730563D01*
X70827192Y-143291364D01*
X70659472Y-142885451D01*
X70349182Y-142574620D01*
X69943563Y-142406192D01*
X69504364Y-142405808D01*
X69098451Y-142573528D01*
X68787620Y-142883818D01*
X68655686Y-143201549D01*
X68653315Y-143148542D01*
X68478259Y-142725920D01*
X68226958Y-142645647D01*
X67362605Y-143510000D01*
X67003395Y-143510000D01*
X66139042Y-142645647D01*
X65887741Y-142725920D01*
X65686282Y-143281279D01*
X51182642Y-143281279D01*
X51310673Y-143153472D01*
X51409487Y-142915501D01*
X51409712Y-142657830D01*
X51311313Y-142419687D01*
X51129272Y-142237327D01*
X50891301Y-142138513D01*
X50633630Y-142138288D01*
X50395487Y-142236687D01*
X50213127Y-142418728D01*
X50114313Y-142656699D01*
X50114088Y-142914370D01*
X46405687Y-142914370D01*
X46405912Y-142657830D01*
X46307513Y-142419687D01*
X46125472Y-142237327D01*
X45887501Y-142138513D01*
X45629830Y-142138288D01*
X45391687Y-142236687D01*
X45209327Y-142418728D01*
X45110513Y-142656699D01*
X45110288Y-142914370D01*
X30607000Y-142914370D01*
X30607000Y-142013958D01*
X66318647Y-142013958D01*
X66390852Y-142240000D01*
X66318647Y-142466042D01*
X67183000Y-143330395D01*
X68047353Y-142466042D01*
X67975148Y-142240000D01*
X68047353Y-142013958D01*
X67183000Y-141149605D01*
X66318647Y-142013958D01*
X30607000Y-142013958D01*
X30607000Y-140741279D01*
X65686282Y-140741279D01*
X65712685Y-141331458D01*
X65887741Y-141754080D01*
X66139042Y-141834353D01*
X67003395Y-140970000D01*
X66139042Y-140105647D01*
X65887741Y-140185920D01*
X65686282Y-140741279D01*
X30607000Y-140741279D01*
X30607000Y-139473958D01*
X66318647Y-139473958D01*
X66390852Y-139700000D01*
X66318647Y-139926042D01*
X67183000Y-140790395D01*
X68047353Y-139926042D01*
X67975148Y-139700000D01*
X68047353Y-139473958D01*
X67183000Y-138609605D01*
X66318647Y-139473958D01*
X30607000Y-139473958D01*
X30607000Y-138201279D01*
X65686282Y-138201279D01*
X65712685Y-138791458D01*
X65887741Y-139214080D01*
X66139042Y-139294353D01*
X67003395Y-138430000D01*
X66139042Y-137565647D01*
X65887741Y-137645920D01*
X65686282Y-138201279D01*
X30607000Y-138201279D01*
X30607000Y-136933958D01*
X66318647Y-136933958D01*
X66390852Y-137160000D01*
X66318647Y-137386042D01*
X67183000Y-138250395D01*
X68047353Y-137386042D01*
X67975148Y-137160000D01*
X68047353Y-136933958D01*
X67183000Y-136069605D01*
X66318647Y-136933958D01*
X30607000Y-136933958D01*
X30607000Y-135661279D01*
X65686282Y-135661279D01*
X65712685Y-136251458D01*
X65887741Y-136674080D01*
X66139042Y-136754353D01*
X67003395Y-135890000D01*
X67362605Y-135890000D01*
X68226958Y-136754353D01*
X68478259Y-136674080D01*
X68653191Y-136191848D01*
X68786528Y-136514549D01*
X69096818Y-136825380D01*
X69502437Y-136993808D01*
X69941636Y-136994192D01*
X70347549Y-136826472D01*
X70658380Y-136516182D01*
X70826808Y-136110563D01*
X70827192Y-135671364D01*
X70659472Y-135265451D01*
X70349182Y-134954620D01*
X69943563Y-134786192D01*
X69504364Y-134785808D01*
X69098451Y-134953528D01*
X68787620Y-135263818D01*
X68655686Y-135581549D01*
X68653315Y-135528542D01*
X68478259Y-135105920D01*
X68226958Y-135025647D01*
X67362605Y-135890000D01*
X67003395Y-135890000D01*
X66139042Y-135025647D01*
X65887741Y-135105920D01*
X65686282Y-135661279D01*
X30607000Y-135661279D01*
X30607000Y-134393958D01*
X66318647Y-134393958D01*
X66390852Y-134620000D01*
X66318647Y-134846042D01*
X67183000Y-135710395D01*
X68047353Y-134846042D01*
X67975148Y-134620000D01*
X68047353Y-134393958D01*
X67183000Y-133529605D01*
X66318647Y-134393958D01*
X30607000Y-134393958D01*
X30607000Y-133121279D01*
X65686282Y-133121279D01*
X65712685Y-133711458D01*
X65887741Y-134134080D01*
X66139042Y-134214353D01*
X67003395Y-133350000D01*
X67362605Y-133350000D01*
X68226958Y-134214353D01*
X68478259Y-134134080D01*
X68653191Y-133651848D01*
X68786528Y-133974549D01*
X69096818Y-134285380D01*
X69502437Y-134453808D01*
X69941636Y-134454192D01*
X70347549Y-134286472D01*
X70658380Y-133976182D01*
X70707454Y-133858000D01*
X74676000Y-133858000D01*
X74870403Y-133819331D01*
X75035210Y-133709210D01*
X76940210Y-131804210D01*
X77050331Y-131639403D01*
X77089000Y-131445000D01*
X77050331Y-131250596D01*
X76940210Y-131085790D01*
X76775404Y-130975669D01*
X76581000Y-130937000D01*
X76386597Y-130975669D01*
X76221790Y-131085790D01*
X74465580Y-132842000D01*
X70707629Y-132842000D01*
X70659472Y-132725451D01*
X70349182Y-132414620D01*
X69943563Y-132246192D01*
X69504364Y-132245808D01*
X69098451Y-132413528D01*
X68787620Y-132723818D01*
X68655686Y-133041549D01*
X68653315Y-132988542D01*
X68478259Y-132565920D01*
X68226958Y-132485647D01*
X67362605Y-133350000D01*
X67003395Y-133350000D01*
X66139042Y-132485647D01*
X65887741Y-132565920D01*
X65686282Y-133121279D01*
X30607000Y-133121279D01*
X30607000Y-131853958D01*
X66318647Y-131853958D01*
X66390852Y-132080000D01*
X66318647Y-132306042D01*
X67183000Y-133170395D01*
X68047353Y-132306042D01*
X67975148Y-132080000D01*
X68047353Y-131853958D01*
X67183000Y-130989605D01*
X66318647Y-131853958D01*
X30607000Y-131853958D01*
X30607000Y-130581279D01*
X65686282Y-130581279D01*
X65712685Y-131171458D01*
X65887741Y-131594080D01*
X66139042Y-131674353D01*
X67003395Y-130810000D01*
X67362605Y-130810000D01*
X68226958Y-131674353D01*
X68478259Y-131594080D01*
X68653191Y-131111848D01*
X68786528Y-131434549D01*
X69096818Y-131745380D01*
X69502437Y-131913808D01*
X69941636Y-131914192D01*
X70347549Y-131746472D01*
X70658380Y-131436182D01*
X70707454Y-131318000D01*
X74549000Y-131318000D01*
X74743403Y-131279331D01*
X74908210Y-131169210D01*
X77067210Y-129010210D01*
X77177331Y-128845404D01*
X77216000Y-128651000D01*
X77177331Y-128456597D01*
X77067210Y-128291790D01*
X76902403Y-128181669D01*
X76708000Y-128143000D01*
X76513596Y-128181669D01*
X76348790Y-128291790D01*
X74338580Y-130302000D01*
X70707629Y-130302000D01*
X70659472Y-130185451D01*
X70349182Y-129874620D01*
X69943563Y-129706192D01*
X69504364Y-129705808D01*
X69098451Y-129873528D01*
X68787620Y-130183818D01*
X68655686Y-130501549D01*
X68653315Y-130448542D01*
X68478259Y-130025920D01*
X68226958Y-129945647D01*
X67362605Y-130810000D01*
X67003395Y-130810000D01*
X66139042Y-129945647D01*
X65887741Y-130025920D01*
X65686282Y-130581279D01*
X30607000Y-130581279D01*
X30607000Y-129313958D01*
X66318647Y-129313958D01*
X66390852Y-129540000D01*
X66318647Y-129766042D01*
X67183000Y-130630395D01*
X68047353Y-129766042D01*
X67975148Y-129540000D01*
X68047353Y-129313958D01*
X67183000Y-128449605D01*
X66318647Y-129313958D01*
X30607000Y-129313958D01*
X30607000Y-128041279D01*
X65686282Y-128041279D01*
X65712685Y-128631458D01*
X65887741Y-129054080D01*
X66139042Y-129134353D01*
X67003395Y-128270000D01*
X67362605Y-128270000D01*
X68226958Y-129134353D01*
X68478259Y-129054080D01*
X68653191Y-128571848D01*
X68786528Y-128894549D01*
X69096818Y-129205380D01*
X69502437Y-129373808D01*
X69941636Y-129374192D01*
X70347549Y-129206472D01*
X70658380Y-128896182D01*
X70826808Y-128490563D01*
X70827192Y-128051364D01*
X70659472Y-127645451D01*
X70349182Y-127334620D01*
X69943563Y-127166192D01*
X69504364Y-127165808D01*
X69098451Y-127333528D01*
X68787620Y-127643818D01*
X68655686Y-127961549D01*
X68653315Y-127908542D01*
X68478259Y-127485920D01*
X68226958Y-127405647D01*
X67362605Y-128270000D01*
X67003395Y-128270000D01*
X66139042Y-127405647D01*
X65887741Y-127485920D01*
X65686282Y-128041279D01*
X30607000Y-128041279D01*
X30607000Y-126773958D01*
X66318647Y-126773958D01*
X66390852Y-127000000D01*
X66318647Y-127226042D01*
X67183000Y-128090395D01*
X68047353Y-127226042D01*
X67975148Y-127000000D01*
X68047353Y-126773958D01*
X67183000Y-125909605D01*
X66318647Y-126773958D01*
X30607000Y-126773958D01*
X30607000Y-125501279D01*
X65686282Y-125501279D01*
X65712685Y-126091458D01*
X65887741Y-126514080D01*
X66139042Y-126594353D01*
X67003395Y-125730000D01*
X67362605Y-125730000D01*
X68226958Y-126594353D01*
X68478259Y-126514080D01*
X68653191Y-126031848D01*
X68786528Y-126354549D01*
X69096818Y-126665380D01*
X69502437Y-126833808D01*
X69941636Y-126834192D01*
X70347549Y-126666472D01*
X70658380Y-126356182D01*
X70826808Y-125950563D01*
X70827192Y-125511364D01*
X70659472Y-125105451D01*
X70349182Y-124794620D01*
X69943563Y-124626192D01*
X69504364Y-124625808D01*
X69098451Y-124793528D01*
X68787620Y-125103818D01*
X68655686Y-125421549D01*
X68653315Y-125368542D01*
X68478259Y-124945920D01*
X68226958Y-124865647D01*
X67362605Y-125730000D01*
X67003395Y-125730000D01*
X66139042Y-124865647D01*
X65887741Y-124945920D01*
X65686282Y-125501279D01*
X30607000Y-125501279D01*
X30607000Y-124686042D01*
X66318647Y-124686042D01*
X67183000Y-125550395D01*
X68047353Y-124686042D01*
X67967080Y-124434741D01*
X67411721Y-124233282D01*
X66821542Y-124259685D01*
X66398920Y-124434741D01*
X66318647Y-124686042D01*
X30607000Y-124686042D01*
X30607000Y-111784110D01*
X79330524Y-111784110D01*
X79451845Y-112014000D01*
X80645000Y-112014000D01*
X80645000Y-110820181D01*
X80899000Y-110820181D01*
X80899000Y-112014000D01*
X82092155Y-112014000D01*
X82213476Y-111784110D01*
X82043645Y-111374076D01*
X81653358Y-110945817D01*
X81128892Y-110699514D01*
X80899000Y-110820181D01*
X80645000Y-110820181D01*
X80415108Y-110699514D01*
X79890642Y-110945817D01*
X79500355Y-111374076D01*
X79330524Y-111784110D01*
X30607000Y-111784110D01*
X30607000Y-104163906D01*
X70103868Y-104163906D01*
X70219632Y-104444074D01*
X70433798Y-104658615D01*
X70713764Y-104774867D01*
X71016906Y-104775132D01*
X71297074Y-104659368D01*
X71511615Y-104445202D01*
X71511748Y-104444882D01*
X78928631Y-97028000D01*
X91378370Y-97028000D01*
X97155000Y-102804630D01*
X97155000Y-111252000D01*
X96427045Y-111252000D01*
X96393000Y-111245228D01*
X96358955Y-111252000D01*
X95157045Y-111252000D01*
X95123000Y-111245228D01*
X95088955Y-111252000D01*
X93853000Y-111252000D01*
X93837797Y-111255024D01*
X93353000Y-111255024D01*
X93258873Y-111272735D01*
X93172424Y-111328364D01*
X93114428Y-111413244D01*
X93094024Y-111514000D01*
X93094024Y-111998797D01*
X93091000Y-112014000D01*
X93094024Y-112029203D01*
X93094024Y-112514000D01*
X93111735Y-112608127D01*
X93167364Y-112694576D01*
X93252244Y-112752572D01*
X93353000Y-112772976D01*
X93837797Y-112772976D01*
X93853000Y-112776000D01*
X95088955Y-112776000D01*
X95123000Y-112782772D01*
X95157045Y-112776000D01*
X96358955Y-112776000D01*
X96393000Y-112782772D01*
X96427045Y-112776000D01*
X97628955Y-112776000D01*
X97663000Y-112782772D01*
X97697045Y-112776000D01*
X98898955Y-112776000D01*
X98933000Y-112782772D01*
X98967045Y-112776000D01*
X100168955Y-112776000D01*
X100203000Y-112782772D01*
X100491543Y-112725377D01*
X100736159Y-112561931D01*
X100899605Y-112317315D01*
X100899789Y-112316391D01*
X100906996Y-112305605D01*
X100965000Y-112014000D01*
X100906996Y-111722395D01*
X100899789Y-111711609D01*
X100899605Y-111710685D01*
X100736159Y-111466069D01*
X100491543Y-111302623D01*
X100203000Y-111245228D01*
X100168955Y-111252000D01*
X98967045Y-111252000D01*
X98933000Y-111245228D01*
X98898955Y-111252000D01*
X98679000Y-111252000D01*
X98679000Y-102489000D01*
X98620996Y-102197395D01*
X98455815Y-101950185D01*
X92232815Y-95727185D01*
X91985605Y-95562004D01*
X91694000Y-95504000D01*
X78613000Y-95504000D01*
X78321395Y-95562004D01*
X78074184Y-95727185D01*
X70327369Y-103474001D01*
X70220385Y-103580798D01*
X70104133Y-103860764D01*
X70103868Y-104163906D01*
X30607000Y-104163906D01*
X30607000Y-94488000D01*
X93800394Y-94488000D01*
X115951000Y-116638606D01*
M02*
