G04 #@! TF.FileFunction,Legend,Top*
%FSLAX46Y46*%
G04 Gerber Fmt 4.6, Leading zero omitted, Abs format (unit mm)*
G04 Created by KiCad (PCBNEW 4.0.5) date 05/07/17 17:05:54*
%MOMM*%
%LPD*%
G01*
G04 APERTURE LIST*
%ADD10C,0.100000*%
%ADD11C,0.150000*%
%ADD12C,0.120000*%
%ADD13C,0.025400*%
%ADD14C,0.152400*%
%ADD15C,0.031750*%
%ADD16C,0.063500*%
%ADD17C,0.127000*%
G04 APERTURE END LIST*
D10*
D11*
X14944000Y16341000D02*
X14944000Y15816000D01*
X9694000Y11091000D02*
X9694000Y11616000D01*
X14944000Y11091000D02*
X14944000Y11616000D01*
X9694000Y16341000D02*
X10219000Y16341000D01*
X9694000Y11091000D02*
X10219000Y11091000D01*
X14944000Y11091000D02*
X14419000Y11091000D01*
X14944000Y16341000D02*
X14419000Y16341000D01*
D12*
X15723600Y11610800D02*
X15723600Y8810800D01*
X15723600Y8810800D02*
X19023600Y8810800D01*
X23253800Y20349400D02*
X23253800Y20849400D01*
X22313800Y20849400D02*
X22313800Y20349400D01*
X19189600Y10918000D02*
X19189600Y10418000D01*
X20129600Y10418000D02*
X20129600Y10918000D01*
X16615600Y7708800D02*
X17115600Y7708800D01*
X17115600Y8648800D02*
X16615600Y8648800D01*
X21056500Y22030500D02*
X21056500Y21530500D01*
X21996500Y21530500D02*
X21996500Y22030500D01*
X20129600Y8284400D02*
X20129600Y8784400D01*
X19189600Y8784400D02*
X19189600Y8284400D01*
D13*
X13944613Y7035800D02*
G75*
G03X13944613Y7035800I-5994413J0D01*
G01*
D12*
X22214200Y19264600D02*
X20864200Y19264600D01*
X22214200Y17514600D02*
X20864200Y17514600D01*
D14*
X15494000Y13284200D02*
X15494000Y14147800D01*
X15494000Y14147800D02*
X16916400Y14147800D01*
X16916400Y14147800D02*
X16916400Y13284200D01*
X16916400Y13284200D02*
X15494000Y13284200D01*
D12*
X2937200Y26365200D02*
X2937200Y13605200D01*
X2937200Y13605200D02*
X5597200Y13605200D01*
X5597200Y13605200D02*
X5597200Y26365200D01*
X5597200Y26365200D02*
X2937200Y26365200D01*
X2937200Y27635200D02*
X2937200Y28965200D01*
X2937200Y28965200D02*
X4267200Y28965200D01*
X12094400Y17868800D02*
X12594400Y17868800D01*
X12594400Y18808800D02*
X12094400Y18808800D01*
X12594400Y19774000D02*
X12094400Y19774000D01*
X12094400Y18834000D02*
X12594400Y18834000D01*
X20713800Y20362100D02*
X20713800Y20862100D01*
X19773800Y20862100D02*
X19773800Y20362100D01*
X35677400Y30906200D02*
X35677400Y30206200D01*
X34477400Y30206200D02*
X34477400Y30906200D01*
X13950400Y7323200D02*
X13950400Y8323200D01*
X15310400Y8323200D02*
X15310400Y7323200D01*
X20561400Y13161200D02*
X20561400Y13661200D01*
X19621400Y13661200D02*
X19621400Y13161200D01*
X21479700Y13500000D02*
X21979700Y13500000D01*
X21979700Y14440000D02*
X21479700Y14440000D01*
X33085000Y31339000D02*
X34225000Y31339000D01*
X34225000Y31339000D02*
X34225000Y33439000D01*
X33085000Y31339000D02*
X33085000Y33439000D01*
X6389600Y12365200D02*
X7529600Y12365200D01*
X7529600Y12365200D02*
X7529600Y14465200D01*
X6389600Y12365200D02*
X6389600Y14465200D01*
X12477200Y7323200D02*
X12477200Y8323200D01*
X13837200Y8323200D02*
X13837200Y7323200D01*
X18127600Y15779200D02*
X17127600Y15779200D01*
X17127600Y17139200D02*
X18127600Y17139200D01*
X7803600Y11488800D02*
X7803600Y12488800D01*
X9163600Y12488800D02*
X9163600Y11488800D01*
D14*
X7663299Y11226800D02*
G75*
G03X7663299Y11226800I-297299J0D01*
G01*
D15*
X12227318Y14750748D02*
X12227318Y14647938D01*
X12233366Y14635843D01*
X12239413Y14629795D01*
X12251509Y14623748D01*
X12275699Y14623748D01*
X12287794Y14629795D01*
X12293842Y14635843D01*
X12299890Y14647938D01*
X12299890Y14750748D01*
X12426890Y14623748D02*
X12354318Y14623748D01*
X12390604Y14623748D02*
X12390604Y14750748D01*
X12378509Y14732605D01*
X12366414Y14720510D01*
X12354318Y14714462D01*
X17310585Y10216364D02*
X17310585Y10155888D01*
X17268251Y10282888D02*
X17310585Y10216364D01*
X17352918Y10282888D01*
X17389203Y10270792D02*
X17395251Y10276840D01*
X17407346Y10282888D01*
X17437584Y10282888D01*
X17449680Y10276840D01*
X17455727Y10270792D01*
X17461775Y10258697D01*
X17461775Y10246602D01*
X17455727Y10228459D01*
X17383156Y10155888D01*
X17461775Y10155888D01*
D16*
X22620514Y20508686D02*
X22608419Y20496590D01*
X22572133Y20484495D01*
X22547943Y20484495D01*
X22511657Y20496590D01*
X22487466Y20520781D01*
X22475371Y20544971D01*
X22463276Y20593352D01*
X22463276Y20629638D01*
X22475371Y20678019D01*
X22487466Y20702210D01*
X22511657Y20726400D01*
X22547943Y20738495D01*
X22572133Y20738495D01*
X22608419Y20726400D01*
X22620514Y20714305D01*
X22862419Y20484495D02*
X22717276Y20484495D01*
X22789847Y20484495D02*
X22789847Y20738495D01*
X22765657Y20702210D01*
X22741466Y20678019D01*
X22717276Y20665924D01*
X22947086Y20738495D02*
X23104324Y20738495D01*
X23019657Y20641733D01*
X23055943Y20641733D01*
X23080133Y20629638D01*
X23092229Y20617543D01*
X23104324Y20593352D01*
X23104324Y20532876D01*
X23092229Y20508686D01*
X23080133Y20496590D01*
X23055943Y20484495D01*
X22983371Y20484495D01*
X22959181Y20496590D01*
X22947086Y20508686D01*
X19496314Y10577286D02*
X19484219Y10565190D01*
X19447933Y10553095D01*
X19423743Y10553095D01*
X19387457Y10565190D01*
X19363266Y10589381D01*
X19351171Y10613571D01*
X19339076Y10661952D01*
X19339076Y10698238D01*
X19351171Y10746619D01*
X19363266Y10770810D01*
X19387457Y10795000D01*
X19423743Y10807095D01*
X19447933Y10807095D01*
X19484219Y10795000D01*
X19496314Y10782905D01*
X19738219Y10553095D02*
X19593076Y10553095D01*
X19665647Y10553095D02*
X19665647Y10807095D01*
X19641457Y10770810D01*
X19617266Y10746619D01*
X19593076Y10734524D01*
X19955933Y10722429D02*
X19955933Y10553095D01*
X19895457Y10819190D02*
X19834981Y10637762D01*
X19992219Y10637762D01*
X16956314Y8015514D02*
X16968410Y8003419D01*
X16980505Y7967133D01*
X16980505Y7942943D01*
X16968410Y7906657D01*
X16944219Y7882466D01*
X16920029Y7870371D01*
X16871648Y7858276D01*
X16835362Y7858276D01*
X16786981Y7870371D01*
X16762790Y7882466D01*
X16738600Y7906657D01*
X16726505Y7942943D01*
X16726505Y7967133D01*
X16738600Y8003419D01*
X16750695Y8015514D01*
X16980505Y8257419D02*
X16980505Y8112276D01*
X16980505Y8184847D02*
X16726505Y8184847D01*
X16762790Y8160657D01*
X16786981Y8136466D01*
X16799076Y8112276D01*
X16726505Y8487229D02*
X16726505Y8366276D01*
X16847457Y8354181D01*
X16835362Y8366276D01*
X16823267Y8390467D01*
X16823267Y8450943D01*
X16835362Y8475133D01*
X16847457Y8487229D01*
X16871648Y8499324D01*
X16932124Y8499324D01*
X16956314Y8487229D01*
X16968410Y8475133D01*
X16980505Y8450943D01*
X16980505Y8390467D01*
X16968410Y8366276D01*
X16956314Y8354181D01*
D17*
X22457833Y22185690D02*
X22215928Y22185690D01*
X22215928Y22693690D01*
X22602976Y22645310D02*
X22627166Y22669500D01*
X22675547Y22693690D01*
X22796500Y22693690D01*
X22844881Y22669500D01*
X22869071Y22645310D01*
X22893262Y22596929D01*
X22893262Y22548548D01*
X22869071Y22475976D01*
X22578785Y22185690D01*
X22893262Y22185690D01*
D16*
X19617267Y8482995D02*
X19496314Y8482995D01*
X19496314Y8736995D01*
X19677743Y8736995D02*
X19834981Y8736995D01*
X19750314Y8640233D01*
X19786600Y8640233D01*
X19810790Y8628138D01*
X19822886Y8616043D01*
X19834981Y8591852D01*
X19834981Y8531376D01*
X19822886Y8507186D01*
X19810790Y8495090D01*
X19786600Y8482995D01*
X19714028Y8482995D01*
X19689838Y8495090D01*
X19677743Y8507186D01*
D11*
X7132581Y5797705D02*
X6132581Y5797705D01*
X6132581Y6178658D01*
X6180200Y6273896D01*
X6227819Y6321515D01*
X6323057Y6369134D01*
X6465914Y6369134D01*
X6561152Y6321515D01*
X6608771Y6273896D01*
X6656390Y6178658D01*
X6656390Y5797705D01*
X6608771Y7131039D02*
X6656390Y7273896D01*
X6704010Y7321515D01*
X6799248Y7369134D01*
X6942105Y7369134D01*
X7037343Y7321515D01*
X7084962Y7273896D01*
X7132581Y7178658D01*
X7132581Y6797705D01*
X6132581Y6797705D01*
X6132581Y7131039D01*
X6180200Y7226277D01*
X6227819Y7273896D01*
X6323057Y7321515D01*
X6418295Y7321515D01*
X6513533Y7273896D01*
X6561152Y7226277D01*
X6608771Y7131039D01*
X6608771Y6797705D01*
X7132581Y8321515D02*
X7132581Y7750086D01*
X7132581Y8035800D02*
X6132581Y8035800D01*
X6275438Y7940562D01*
X6370676Y7845324D01*
X6418295Y7750086D01*
D16*
X21418248Y18395648D02*
X21418248Y18274695D01*
X21333581Y18528695D02*
X21418248Y18395648D01*
X21502915Y18528695D01*
X21720629Y18274695D02*
X21575486Y18274695D01*
X21648057Y18274695D02*
X21648057Y18528695D01*
X21623867Y18492410D01*
X21599676Y18468219D01*
X21575486Y18456124D01*
X15941524Y12972143D02*
X15977810Y12960048D01*
X15989905Y12947952D01*
X16002000Y12923762D01*
X16002000Y12887476D01*
X15989905Y12863286D01*
X15977810Y12851190D01*
X15953619Y12839095D01*
X15856857Y12839095D01*
X15856857Y13093095D01*
X15941524Y13093095D01*
X15965714Y13081000D01*
X15977810Y13068905D01*
X15989905Y13044714D01*
X15989905Y13020524D01*
X15977810Y12996333D01*
X15965714Y12984238D01*
X15941524Y12972143D01*
X15856857Y12972143D01*
X16098762Y12911667D02*
X16219714Y12911667D01*
X16074571Y12839095D02*
X16159238Y13093095D01*
X16243905Y12839095D01*
X16449524Y12839095D02*
X16328571Y12839095D01*
X16328571Y13093095D01*
X16667238Y12839095D02*
X16522095Y12839095D01*
X16594666Y12839095D02*
X16594666Y13093095D01*
X16570476Y13056810D01*
X16546285Y13032619D01*
X16522095Y13020524D01*
X4182534Y30104295D02*
X4182534Y29922867D01*
X4170438Y29886581D01*
X4146248Y29862390D01*
X4109962Y29850295D01*
X4085772Y29850295D01*
X4436534Y29850295D02*
X4291391Y29850295D01*
X4363962Y29850295D02*
X4363962Y30104295D01*
X4339772Y30068010D01*
X4315581Y30043819D01*
X4291391Y30031724D01*
X12181114Y18248086D02*
X12169019Y18235990D01*
X12132733Y18223895D01*
X12108543Y18223895D01*
X12072257Y18235990D01*
X12048066Y18260181D01*
X12035971Y18284371D01*
X12023876Y18332752D01*
X12023876Y18369038D01*
X12035971Y18417419D01*
X12048066Y18441610D01*
X12072257Y18465800D01*
X12108543Y18477895D01*
X12132733Y18477895D01*
X12169019Y18465800D01*
X12181114Y18453705D01*
X12423019Y18223895D02*
X12277876Y18223895D01*
X12350447Y18223895D02*
X12350447Y18477895D01*
X12326257Y18441610D01*
X12302066Y18417419D01*
X12277876Y18405324D01*
X12580257Y18477895D02*
X12604448Y18477895D01*
X12628638Y18465800D01*
X12640733Y18453705D01*
X12652829Y18429514D01*
X12664924Y18381133D01*
X12664924Y18320657D01*
X12652829Y18272276D01*
X12640733Y18248086D01*
X12628638Y18235990D01*
X12604448Y18223895D01*
X12580257Y18223895D01*
X12556067Y18235990D01*
X12543971Y18248086D01*
X12531876Y18272276D01*
X12519781Y18320657D01*
X12519781Y18381133D01*
X12531876Y18429514D01*
X12543971Y18453705D01*
X12556067Y18465800D01*
X12580257Y18477895D01*
X12181114Y19213286D02*
X12169019Y19201190D01*
X12132733Y19189095D01*
X12108543Y19189095D01*
X12072257Y19201190D01*
X12048066Y19225381D01*
X12035971Y19249571D01*
X12023876Y19297952D01*
X12023876Y19334238D01*
X12035971Y19382619D01*
X12048066Y19406810D01*
X12072257Y19431000D01*
X12108543Y19443095D01*
X12132733Y19443095D01*
X12169019Y19431000D01*
X12181114Y19418905D01*
X12423019Y19189095D02*
X12277876Y19189095D01*
X12350447Y19189095D02*
X12350447Y19443095D01*
X12326257Y19406810D01*
X12302066Y19382619D01*
X12277876Y19370524D01*
X12664924Y19189095D02*
X12519781Y19189095D01*
X12592352Y19189095D02*
X12592352Y19443095D01*
X12568162Y19406810D01*
X12543971Y19382619D01*
X12519781Y19370524D01*
X20080514Y20521386D02*
X20068419Y20509290D01*
X20032133Y20497195D01*
X20007943Y20497195D01*
X19971657Y20509290D01*
X19947466Y20533481D01*
X19935371Y20557671D01*
X19923276Y20606052D01*
X19923276Y20642338D01*
X19935371Y20690719D01*
X19947466Y20714910D01*
X19971657Y20739100D01*
X20007943Y20751195D01*
X20032133Y20751195D01*
X20068419Y20739100D01*
X20080514Y20727005D01*
X20322419Y20497195D02*
X20177276Y20497195D01*
X20249847Y20497195D02*
X20249847Y20751195D01*
X20225657Y20714910D01*
X20201466Y20690719D01*
X20177276Y20678624D01*
X20419181Y20727005D02*
X20431276Y20739100D01*
X20455467Y20751195D01*
X20515943Y20751195D01*
X20540133Y20739100D01*
X20552229Y20727005D01*
X20564324Y20702814D01*
X20564324Y20678624D01*
X20552229Y20642338D01*
X20407086Y20497195D01*
X20564324Y20497195D01*
X34901414Y30401986D02*
X34889319Y30389890D01*
X34853033Y30377795D01*
X34828843Y30377795D01*
X34792557Y30389890D01*
X34768366Y30414081D01*
X34756271Y30438271D01*
X34744176Y30486652D01*
X34744176Y30522938D01*
X34756271Y30571319D01*
X34768366Y30595510D01*
X34792557Y30619700D01*
X34828843Y30631795D01*
X34853033Y30631795D01*
X34889319Y30619700D01*
X34901414Y30607605D01*
X35143319Y30377795D02*
X34998176Y30377795D01*
X35070747Y30377795D02*
X35070747Y30631795D01*
X35046557Y30595510D01*
X35022366Y30571319D01*
X34998176Y30559224D01*
X35264271Y30377795D02*
X35312652Y30377795D01*
X35336843Y30389890D01*
X35348938Y30401986D01*
X35373129Y30438271D01*
X35385224Y30486652D01*
X35385224Y30583414D01*
X35373129Y30607605D01*
X35361033Y30619700D01*
X35336843Y30631795D01*
X35288462Y30631795D01*
X35264271Y30619700D01*
X35252176Y30607605D01*
X35240081Y30583414D01*
X35240081Y30522938D01*
X35252176Y30498748D01*
X35264271Y30486652D01*
X35288462Y30474557D01*
X35336843Y30474557D01*
X35361033Y30486652D01*
X35373129Y30498748D01*
X35385224Y30522938D01*
D11*
X16532781Y7656534D02*
X16056590Y7323200D01*
X16532781Y7085105D02*
X15532781Y7085105D01*
X15532781Y7466058D01*
X15580400Y7561296D01*
X15628019Y7608915D01*
X15723257Y7656534D01*
X15866114Y7656534D01*
X15961352Y7608915D01*
X16008971Y7561296D01*
X16056590Y7466058D01*
X16056590Y7085105D01*
X16532781Y8608915D02*
X16532781Y8037486D01*
X16532781Y8323200D02*
X15532781Y8323200D01*
X15675638Y8227962D01*
X15770876Y8132724D01*
X15818495Y8037486D01*
D16*
X20182114Y13222514D02*
X20194210Y13210419D01*
X20206305Y13174133D01*
X20206305Y13149943D01*
X20194210Y13113657D01*
X20170019Y13089466D01*
X20145829Y13077371D01*
X20097448Y13065276D01*
X20061162Y13065276D01*
X20012781Y13077371D01*
X19988590Y13089466D01*
X19964400Y13113657D01*
X19952305Y13149943D01*
X19952305Y13174133D01*
X19964400Y13210419D01*
X19976495Y13222514D01*
X20206305Y13464419D02*
X20206305Y13319276D01*
X20206305Y13391847D02*
X19952305Y13391847D01*
X19988590Y13367657D01*
X20012781Y13343466D01*
X20024876Y13319276D01*
X19952305Y13682133D02*
X19952305Y13633752D01*
X19964400Y13609562D01*
X19976495Y13597467D01*
X20012781Y13573276D01*
X20061162Y13561181D01*
X20157924Y13561181D01*
X20182114Y13573276D01*
X20194210Y13585371D01*
X20206305Y13609562D01*
X20206305Y13657943D01*
X20194210Y13682133D01*
X20182114Y13694229D01*
X20157924Y13706324D01*
X20097448Y13706324D01*
X20073257Y13694229D01*
X20061162Y13682133D01*
X20049067Y13657943D01*
X20049067Y13609562D01*
X20061162Y13585371D01*
X20073257Y13573276D01*
X20097448Y13561181D01*
X21566414Y13879286D02*
X21554319Y13867190D01*
X21518033Y13855095D01*
X21493843Y13855095D01*
X21457557Y13867190D01*
X21433366Y13891381D01*
X21421271Y13915571D01*
X21409176Y13963952D01*
X21409176Y14000238D01*
X21421271Y14048619D01*
X21433366Y14072810D01*
X21457557Y14097000D01*
X21493843Y14109095D01*
X21518033Y14109095D01*
X21554319Y14097000D01*
X21566414Y14084905D01*
X21808319Y13855095D02*
X21663176Y13855095D01*
X21735747Y13855095D02*
X21735747Y14109095D01*
X21711557Y14072810D01*
X21687366Y14048619D01*
X21663176Y14036524D01*
X21892986Y14109095D02*
X22062319Y14109095D01*
X21953462Y13855095D01*
X33454824Y32498695D02*
X33454824Y32752695D01*
X33515300Y32752695D01*
X33551586Y32740600D01*
X33575777Y32716410D01*
X33587872Y32692219D01*
X33599967Y32643838D01*
X33599967Y32607552D01*
X33587872Y32559171D01*
X33575777Y32534981D01*
X33551586Y32510790D01*
X33515300Y32498695D01*
X33454824Y32498695D01*
X33684634Y32752695D02*
X33841872Y32752695D01*
X33757205Y32655933D01*
X33793491Y32655933D01*
X33817681Y32643838D01*
X33829777Y32631743D01*
X33841872Y32607552D01*
X33841872Y32547076D01*
X33829777Y32522886D01*
X33817681Y32510790D01*
X33793491Y32498695D01*
X33720919Y32498695D01*
X33696729Y32510790D01*
X33684634Y32522886D01*
D11*
X6011981Y12927105D02*
X5011981Y12927105D01*
X5011981Y13165200D01*
X5059600Y13308058D01*
X5154838Y13403296D01*
X5250076Y13450915D01*
X5440552Y13498534D01*
X5583410Y13498534D01*
X5773886Y13450915D01*
X5869124Y13403296D01*
X5964362Y13308058D01*
X6011981Y13165200D01*
X6011981Y12927105D01*
X6011981Y14450915D02*
X6011981Y13879486D01*
X6011981Y14165200D02*
X5011981Y14165200D01*
X5154838Y14069962D01*
X5250076Y13974724D01*
X5297695Y13879486D01*
X12136381Y18276274D02*
X12136381Y17800083D01*
X11136381Y17800083D01*
X12136381Y19133417D02*
X12136381Y18561988D01*
X12136381Y18847702D02*
X11136381Y18847702D01*
X11279238Y18752464D01*
X11374476Y18657226D01*
X11422095Y18561988D01*
X15059581Y7656534D02*
X14583390Y7323200D01*
X15059581Y7085105D02*
X14059581Y7085105D01*
X14059581Y7466058D01*
X14107200Y7561296D01*
X14154819Y7608915D01*
X14250057Y7656534D01*
X14392914Y7656534D01*
X14488152Y7608915D01*
X14535771Y7561296D01*
X14583390Y7466058D01*
X14583390Y7085105D01*
X14154819Y8037486D02*
X14107200Y8085105D01*
X14059581Y8180343D01*
X14059581Y8418439D01*
X14107200Y8513677D01*
X14154819Y8561296D01*
X14250057Y8608915D01*
X14345295Y8608915D01*
X14488152Y8561296D01*
X15059581Y7989867D01*
X15059581Y8608915D01*
D16*
X17464314Y16344295D02*
X17379647Y16465248D01*
X17319171Y16344295D02*
X17319171Y16598295D01*
X17415933Y16598295D01*
X17440124Y16586200D01*
X17452219Y16574105D01*
X17464314Y16549914D01*
X17464314Y16513629D01*
X17452219Y16489438D01*
X17440124Y16477343D01*
X17415933Y16465248D01*
X17319171Y16465248D01*
X17706219Y16344295D02*
X17561076Y16344295D01*
X17633647Y16344295D02*
X17633647Y16598295D01*
X17609457Y16562010D01*
X17585266Y16537819D01*
X17561076Y16525724D01*
X17790886Y16598295D02*
X17948124Y16598295D01*
X17863457Y16501533D01*
X17899743Y16501533D01*
X17923933Y16489438D01*
X17936029Y16477343D01*
X17948124Y16453152D01*
X17948124Y16392676D01*
X17936029Y16368486D01*
X17923933Y16356390D01*
X17899743Y16344295D01*
X17827171Y16344295D01*
X17802981Y16356390D01*
X17790886Y16368486D01*
D11*
X10385981Y11822134D02*
X9909790Y11488800D01*
X10385981Y11250705D02*
X9385981Y11250705D01*
X9385981Y11631658D01*
X9433600Y11726896D01*
X9481219Y11774515D01*
X9576457Y11822134D01*
X9719314Y11822134D01*
X9814552Y11774515D01*
X9862171Y11726896D01*
X9909790Y11631658D01*
X9909790Y11250705D01*
X9814552Y12393562D02*
X9766933Y12298324D01*
X9719314Y12250705D01*
X9624076Y12203086D01*
X9576457Y12203086D01*
X9481219Y12250705D01*
X9433600Y12298324D01*
X9385981Y12393562D01*
X9385981Y12584039D01*
X9433600Y12679277D01*
X9481219Y12726896D01*
X9576457Y12774515D01*
X9624076Y12774515D01*
X9719314Y12726896D01*
X9766933Y12679277D01*
X9814552Y12584039D01*
X9814552Y12393562D01*
X9862171Y12298324D01*
X9909790Y12250705D01*
X10005029Y12203086D01*
X10195505Y12203086D01*
X10290743Y12250705D01*
X10338362Y12298324D01*
X10385981Y12393562D01*
X10385981Y12584039D01*
X10338362Y12679277D01*
X10290743Y12726896D01*
X10195505Y12774515D01*
X10005029Y12774515D01*
X9909790Y12726896D01*
X9862171Y12679277D01*
X9814552Y12584039D01*
D16*
X7045476Y12051695D02*
X7190619Y12051695D01*
X7118048Y11797695D02*
X7118048Y12051695D01*
X7275286Y11797695D02*
X7275286Y12051695D01*
X7372048Y12051695D01*
X7396239Y12039600D01*
X7408334Y12027505D01*
X7420429Y12003314D01*
X7420429Y11967029D01*
X7408334Y11942838D01*
X7396239Y11930743D01*
X7372048Y11918648D01*
X7275286Y11918648D01*
X7517191Y12027505D02*
X7529286Y12039600D01*
X7553477Y12051695D01*
X7613953Y12051695D01*
X7638143Y12039600D01*
X7650239Y12027505D01*
X7662334Y12003314D01*
X7662334Y11979124D01*
X7650239Y11942838D01*
X7505096Y11797695D01*
X7662334Y11797695D01*
M02*
