M48
;DRILL file {KiCad 4.0.5} date 04/12/17 15:12:16
;FORMAT={2:4/ absolute / inch / suppress leading zeros}
FMAT,2
INCH,TZ
T1C0.010
T2C0.018
T3C0.020
T4C0.020
T5C0.039
%
G90
G05
M72
T1
X44350Y18225
X44875Y25975
X49075Y22300
X49125Y18875
X49400Y19375
X49650Y19875
X50400Y19975
X51550Y19750
X51550Y19500
X51550Y19250
X51550Y19000
X51550Y18750
X51800Y19750
X51800Y19500
X51800Y19250
X51800Y19000
X51800Y18750
X52050Y19750
X52050Y19500
X52050Y19250
X52050Y19000
X52050Y18750
X52300Y19750
X52300Y19500
X52300Y19250
X52300Y19000
X52300Y18750
X52550Y19750
X52550Y19500
X52550Y19250
X52550Y19000
X52550Y18750
X52900Y15225
X52900Y14775
X53100Y20300
X53350Y14775
X53375Y14150
X53525Y21100
X53600Y16825
X53800Y14775
X53825Y14150
X53850Y25975
X54250Y14775
X54250Y14150
X54300Y16275
X54425Y18525
X54450Y25875
X54450Y25275
X54450Y24675
X54450Y24075
X54450Y23475
X54450Y22875
X54450Y22275
X54450Y21675
X54450Y21075
X54575Y26850
X54575Y20600
X54700Y14775
X54700Y14150
X55100Y19750
X55150Y14775
X55150Y14150
X55325Y26175
X55325Y25575
X55325Y24975
X55325Y24375
X55325Y23775
X55325Y23175
X55400Y26850
X55400Y18550
X55500Y20625
X55525Y19825
X55600Y17025
X55600Y16575
X55600Y16125
X55600Y15675
X55600Y15225
X55600Y14775
X55825Y20350
X55875Y21375
X56225Y26850
X56300Y26300
X56400Y18100
X56850Y20600
X56875Y20075
X56875Y18100
X57050Y26850
X57100Y18550
X57125Y21650
X57125Y21200
X57175Y25875
X57175Y25250
X57175Y24650
X57175Y24050
X57175Y23450
X57175Y22850
X57175Y22250
X57425Y20075
X57550Y20600
X57700Y18075
X57850Y19500
X57875Y26850
X57900Y26150
X57900Y25550
X57900Y24950
X57900Y24350
X57900Y23750
X57900Y23150
X57900Y22550
X57900Y21950
X57900Y21425
X57900Y20900
X58175Y19500
X58175Y18075
X58650Y17675
X58675Y19325
X59075Y19325
X59075Y18500
X59075Y18075
T2
X59748Y20649
X59748Y17201
T3
X55927Y22500
X56675Y22500
T4
X1515Y4485
X1515Y2515
X3485Y4485
X3485Y2515
T5
X2440Y28310
X3440Y28310
X3600Y26225
X3600Y25225
X9625Y28975
X9625Y27975
X9625Y26975
X9625Y25975
X9625Y24975
X9625Y23975
X9625Y22975
X9625Y21975
X9625Y20975
X9625Y19975
X9625Y18500
X9625Y17500
X9625Y16500
X9625Y15500
X9625Y14500
X9625Y13500
X9625Y12500
X9625Y11500
X12875Y26150
X12875Y25150
X12875Y7650
X12875Y6650
X18125Y24000
X18125Y23000
X18125Y22000
X18125Y21000
X18125Y20000
X18125Y19000
X18125Y18000
X18125Y17000
X18125Y16000
X18125Y15000
X18125Y13525
X18125Y12525
X18125Y11525
X18125Y10525
X18125Y9525
X18125Y8525
X18125Y7525
X18125Y6525
X22000Y12000
X22000Y2000
X22675Y33250
X22675Y23250
X22675Y22250
X23000Y12000
X23000Y2000
X23675Y33250
X24000Y12000
X24000Y2000
X25000Y12000
X25000Y2000
X26000Y12000
X26000Y2000
X27000Y12000
X27000Y2000
X33875Y26150
X33875Y25150
X33875Y7650
X33875Y6650
X40350Y26150
X40350Y25150
X40350Y7650
X40350Y6650
X41275Y21925
X41275Y20925
X41275Y19925
X41275Y18925
X41275Y17925
X41275Y16925
X41275Y15925
X41275Y14925
X41275Y13925
X41275Y12925
X42275Y21925
X42275Y20925
X42275Y19925
X42275Y18925
X42275Y17925
X42275Y16925
X42275Y15925
X42275Y14925
X42275Y13925
X42275Y12925
X42275Y7550
X42275Y6550
X45625Y24000
X45625Y23000
X45625Y22000
X45625Y21000
X45625Y20000
X45625Y19000
X45625Y18000
X45625Y17000
X45625Y16000
X45625Y15000
X45625Y13525
X45625Y12525
X45625Y11525
X45625Y10525
X45625Y9525
X45625Y8525
X45625Y7525
X45625Y6525
X49500Y12000
X50175Y23250
X50175Y22250
X50500Y12000
X51500Y12000
X52500Y12000
X53500Y12000
X54500Y12000
X61350Y26150
X61350Y25150
X61350Y7650
X61350Y6650
T0
M30
