G04 #@! TF.FileFunction,Copper,L2,Bot,Signal*
%FSLAX46Y46*%
G04 Gerber Fmt 4.6, Leading zero omitted, Abs format (unit mm)*
G04 Created by KiCad (PCBNEW 4.0.5) date 04/28/17 15:15:31*
%MOMM*%
%LPD*%
G01*
G04 APERTURE LIST*
%ADD10C,0.100000*%
%ADD11R,1.651000X1.651000*%
%ADD12C,1.550000*%
%ADD13C,0.254000*%
G04 APERTURE END LIST*
D10*
D11*
X16555500Y17445800D03*
X9443500Y24557800D03*
X9443500Y17445800D03*
X16555500Y24557800D03*
D12*
X12999500Y21001800D03*
D13*
G36*
X15872500Y29001800D02*
X15882506Y28952390D01*
X15910947Y28910765D01*
X15953341Y28883485D01*
X15999500Y28874800D01*
X25872500Y28874800D01*
X25872500Y128800D01*
X126500Y128800D01*
X126500Y17160050D01*
X7983000Y17160050D01*
X7983000Y16493991D01*
X8079673Y16260602D01*
X8258301Y16081973D01*
X8491690Y15985300D01*
X9157750Y15985300D01*
X9316500Y16144050D01*
X9316500Y17318800D01*
X9570500Y17318800D01*
X9570500Y16144050D01*
X9729250Y15985300D01*
X10395310Y15985300D01*
X10628699Y16081973D01*
X10807327Y16260602D01*
X10904000Y16493991D01*
X10904000Y17160050D01*
X15095000Y17160050D01*
X15095000Y16493991D01*
X15191673Y16260602D01*
X15370301Y16081973D01*
X15603690Y15985300D01*
X16269750Y15985300D01*
X16428500Y16144050D01*
X16428500Y17318800D01*
X16682500Y17318800D01*
X16682500Y16144050D01*
X16841250Y15985300D01*
X17507310Y15985300D01*
X17740699Y16081973D01*
X17919327Y16260602D01*
X18016000Y16493991D01*
X18016000Y17160050D01*
X17857250Y17318800D01*
X16682500Y17318800D01*
X16428500Y17318800D01*
X15253750Y17318800D01*
X15095000Y17160050D01*
X10904000Y17160050D01*
X10745250Y17318800D01*
X9570500Y17318800D01*
X9316500Y17318800D01*
X8141750Y17318800D01*
X7983000Y17160050D01*
X126500Y17160050D01*
X126500Y18397609D01*
X7983000Y18397609D01*
X7983000Y17731550D01*
X8141750Y17572800D01*
X9316500Y17572800D01*
X9316500Y18747550D01*
X9570500Y18747550D01*
X9570500Y17572800D01*
X10745250Y17572800D01*
X10904000Y17731550D01*
X10904000Y18397609D01*
X15095000Y18397609D01*
X15095000Y17731550D01*
X15253750Y17572800D01*
X16428500Y17572800D01*
X16428500Y18747550D01*
X16682500Y18747550D01*
X16682500Y17572800D01*
X17857250Y17572800D01*
X18016000Y17731550D01*
X18016000Y18397609D01*
X17919327Y18630998D01*
X17740699Y18809627D01*
X17507310Y18906300D01*
X16841250Y18906300D01*
X16682500Y18747550D01*
X16428500Y18747550D01*
X16269750Y18906300D01*
X15603690Y18906300D01*
X15370301Y18809627D01*
X15191673Y18630998D01*
X15095000Y18397609D01*
X10904000Y18397609D01*
X10807327Y18630998D01*
X10628699Y18809627D01*
X10395310Y18906300D01*
X9729250Y18906300D01*
X9570500Y18747550D01*
X9316500Y18747550D01*
X9157750Y18906300D01*
X8491690Y18906300D01*
X8258301Y18809627D01*
X8079673Y18630998D01*
X7983000Y18397609D01*
X126500Y18397609D01*
X126500Y20722564D01*
X11589255Y20722564D01*
X11803463Y20204142D01*
X12199756Y19807157D01*
X12717803Y19592045D01*
X13278736Y19591555D01*
X13797158Y19805763D01*
X14194143Y20202056D01*
X14409255Y20720103D01*
X14409745Y21281036D01*
X14195537Y21799458D01*
X13799244Y22196443D01*
X13281197Y22411555D01*
X12720264Y22412045D01*
X12201842Y22197837D01*
X11804857Y21801544D01*
X11589745Y21283497D01*
X11589255Y20722564D01*
X126500Y20722564D01*
X126500Y24272050D01*
X7983000Y24272050D01*
X7983000Y23605991D01*
X8079673Y23372602D01*
X8258301Y23193973D01*
X8491690Y23097300D01*
X9157750Y23097300D01*
X9316500Y23256050D01*
X9316500Y24430800D01*
X9570500Y24430800D01*
X9570500Y23256050D01*
X9729250Y23097300D01*
X10395310Y23097300D01*
X10628699Y23193973D01*
X10807327Y23372602D01*
X10904000Y23605991D01*
X10904000Y24272050D01*
X15095000Y24272050D01*
X15095000Y23605991D01*
X15191673Y23372602D01*
X15370301Y23193973D01*
X15603690Y23097300D01*
X16269750Y23097300D01*
X16428500Y23256050D01*
X16428500Y24430800D01*
X16682500Y24430800D01*
X16682500Y23256050D01*
X16841250Y23097300D01*
X17507310Y23097300D01*
X17740699Y23193973D01*
X17919327Y23372602D01*
X18016000Y23605991D01*
X18016000Y24272050D01*
X17857250Y24430800D01*
X16682500Y24430800D01*
X16428500Y24430800D01*
X15253750Y24430800D01*
X15095000Y24272050D01*
X10904000Y24272050D01*
X10745250Y24430800D01*
X9570500Y24430800D01*
X9316500Y24430800D01*
X8141750Y24430800D01*
X7983000Y24272050D01*
X126500Y24272050D01*
X126500Y25509609D01*
X7983000Y25509609D01*
X7983000Y24843550D01*
X8141750Y24684800D01*
X9316500Y24684800D01*
X9316500Y25859550D01*
X9570500Y25859550D01*
X9570500Y24684800D01*
X10745250Y24684800D01*
X10904000Y24843550D01*
X10904000Y25509609D01*
X15095000Y25509609D01*
X15095000Y24843550D01*
X15253750Y24684800D01*
X16428500Y24684800D01*
X16428500Y25859550D01*
X16682500Y25859550D01*
X16682500Y24684800D01*
X17857250Y24684800D01*
X18016000Y24843550D01*
X18016000Y25509609D01*
X17919327Y25742998D01*
X17740699Y25921627D01*
X17507310Y26018300D01*
X16841250Y26018300D01*
X16682500Y25859550D01*
X16428500Y25859550D01*
X16269750Y26018300D01*
X15603690Y26018300D01*
X15370301Y25921627D01*
X15191673Y25742998D01*
X15095000Y25509609D01*
X10904000Y25509609D01*
X10807327Y25742998D01*
X10628699Y25921627D01*
X10395310Y26018300D01*
X9729250Y26018300D01*
X9570500Y25859550D01*
X9316500Y25859550D01*
X9157750Y26018300D01*
X8491690Y26018300D01*
X8258301Y25921627D01*
X8079673Y25742998D01*
X7983000Y25509609D01*
X126500Y25509609D01*
X126500Y39874800D01*
X15872500Y39874800D01*
X15872500Y29001800D01*
X15872500Y29001800D01*
G37*
X15872500Y29001800D02*
X15882506Y28952390D01*
X15910947Y28910765D01*
X15953341Y28883485D01*
X15999500Y28874800D01*
X25872500Y28874800D01*
X25872500Y128800D01*
X126500Y128800D01*
X126500Y17160050D01*
X7983000Y17160050D01*
X7983000Y16493991D01*
X8079673Y16260602D01*
X8258301Y16081973D01*
X8491690Y15985300D01*
X9157750Y15985300D01*
X9316500Y16144050D01*
X9316500Y17318800D01*
X9570500Y17318800D01*
X9570500Y16144050D01*
X9729250Y15985300D01*
X10395310Y15985300D01*
X10628699Y16081973D01*
X10807327Y16260602D01*
X10904000Y16493991D01*
X10904000Y17160050D01*
X15095000Y17160050D01*
X15095000Y16493991D01*
X15191673Y16260602D01*
X15370301Y16081973D01*
X15603690Y15985300D01*
X16269750Y15985300D01*
X16428500Y16144050D01*
X16428500Y17318800D01*
X16682500Y17318800D01*
X16682500Y16144050D01*
X16841250Y15985300D01*
X17507310Y15985300D01*
X17740699Y16081973D01*
X17919327Y16260602D01*
X18016000Y16493991D01*
X18016000Y17160050D01*
X17857250Y17318800D01*
X16682500Y17318800D01*
X16428500Y17318800D01*
X15253750Y17318800D01*
X15095000Y17160050D01*
X10904000Y17160050D01*
X10745250Y17318800D01*
X9570500Y17318800D01*
X9316500Y17318800D01*
X8141750Y17318800D01*
X7983000Y17160050D01*
X126500Y17160050D01*
X126500Y18397609D01*
X7983000Y18397609D01*
X7983000Y17731550D01*
X8141750Y17572800D01*
X9316500Y17572800D01*
X9316500Y18747550D01*
X9570500Y18747550D01*
X9570500Y17572800D01*
X10745250Y17572800D01*
X10904000Y17731550D01*
X10904000Y18397609D01*
X15095000Y18397609D01*
X15095000Y17731550D01*
X15253750Y17572800D01*
X16428500Y17572800D01*
X16428500Y18747550D01*
X16682500Y18747550D01*
X16682500Y17572800D01*
X17857250Y17572800D01*
X18016000Y17731550D01*
X18016000Y18397609D01*
X17919327Y18630998D01*
X17740699Y18809627D01*
X17507310Y18906300D01*
X16841250Y18906300D01*
X16682500Y18747550D01*
X16428500Y18747550D01*
X16269750Y18906300D01*
X15603690Y18906300D01*
X15370301Y18809627D01*
X15191673Y18630998D01*
X15095000Y18397609D01*
X10904000Y18397609D01*
X10807327Y18630998D01*
X10628699Y18809627D01*
X10395310Y18906300D01*
X9729250Y18906300D01*
X9570500Y18747550D01*
X9316500Y18747550D01*
X9157750Y18906300D01*
X8491690Y18906300D01*
X8258301Y18809627D01*
X8079673Y18630998D01*
X7983000Y18397609D01*
X126500Y18397609D01*
X126500Y20722564D01*
X11589255Y20722564D01*
X11803463Y20204142D01*
X12199756Y19807157D01*
X12717803Y19592045D01*
X13278736Y19591555D01*
X13797158Y19805763D01*
X14194143Y20202056D01*
X14409255Y20720103D01*
X14409745Y21281036D01*
X14195537Y21799458D01*
X13799244Y22196443D01*
X13281197Y22411555D01*
X12720264Y22412045D01*
X12201842Y22197837D01*
X11804857Y21801544D01*
X11589745Y21283497D01*
X11589255Y20722564D01*
X126500Y20722564D01*
X126500Y24272050D01*
X7983000Y24272050D01*
X7983000Y23605991D01*
X8079673Y23372602D01*
X8258301Y23193973D01*
X8491690Y23097300D01*
X9157750Y23097300D01*
X9316500Y23256050D01*
X9316500Y24430800D01*
X9570500Y24430800D01*
X9570500Y23256050D01*
X9729250Y23097300D01*
X10395310Y23097300D01*
X10628699Y23193973D01*
X10807327Y23372602D01*
X10904000Y23605991D01*
X10904000Y24272050D01*
X15095000Y24272050D01*
X15095000Y23605991D01*
X15191673Y23372602D01*
X15370301Y23193973D01*
X15603690Y23097300D01*
X16269750Y23097300D01*
X16428500Y23256050D01*
X16428500Y24430800D01*
X16682500Y24430800D01*
X16682500Y23256050D01*
X16841250Y23097300D01*
X17507310Y23097300D01*
X17740699Y23193973D01*
X17919327Y23372602D01*
X18016000Y23605991D01*
X18016000Y24272050D01*
X17857250Y24430800D01*
X16682500Y24430800D01*
X16428500Y24430800D01*
X15253750Y24430800D01*
X15095000Y24272050D01*
X10904000Y24272050D01*
X10745250Y24430800D01*
X9570500Y24430800D01*
X9316500Y24430800D01*
X8141750Y24430800D01*
X7983000Y24272050D01*
X126500Y24272050D01*
X126500Y25509609D01*
X7983000Y25509609D01*
X7983000Y24843550D01*
X8141750Y24684800D01*
X9316500Y24684800D01*
X9316500Y25859550D01*
X9570500Y25859550D01*
X9570500Y24684800D01*
X10745250Y24684800D01*
X10904000Y24843550D01*
X10904000Y25509609D01*
X15095000Y25509609D01*
X15095000Y24843550D01*
X15253750Y24684800D01*
X16428500Y24684800D01*
X16428500Y25859550D01*
X16682500Y25859550D01*
X16682500Y24684800D01*
X17857250Y24684800D01*
X18016000Y24843550D01*
X18016000Y25509609D01*
X17919327Y25742998D01*
X17740699Y25921627D01*
X17507310Y26018300D01*
X16841250Y26018300D01*
X16682500Y25859550D01*
X16428500Y25859550D01*
X16269750Y26018300D01*
X15603690Y26018300D01*
X15370301Y25921627D01*
X15191673Y25742998D01*
X15095000Y25509609D01*
X10904000Y25509609D01*
X10807327Y25742998D01*
X10628699Y25921627D01*
X10395310Y26018300D01*
X9729250Y26018300D01*
X9570500Y25859550D01*
X9316500Y25859550D01*
X9157750Y26018300D01*
X8491690Y26018300D01*
X8258301Y25921627D01*
X8079673Y25742998D01*
X7983000Y25509609D01*
X126500Y25509609D01*
X126500Y39874800D01*
X15872500Y39874800D01*
X15872500Y29001800D01*
M02*
