*
%LPD*%
%LN915 Chip Antenna-F.Cu*%
%FSLAX25Y25*%
%MOIN*%
%AD*%
%AD*%
%ADD11C,0.060629921*%
%ADD12C,0.01*%
%ADD18R,0.039370079X0.070866142*%
%ADD19R,0.019685039X0.200787402*%
%ADD20R,0.279527559X0.019685039*%
%ADD21R,0.019685039X0.098425197*%
%ADD22C,0.031*%
G54D11*
%SRX1Y1I0.0J0.0*%
G1X556929Y-374016D3*
G1X566929Y-384016D3*
G1X576929Y-374016D3*
G1X566929Y-374016D3*
G54D18*
G1X586642Y-307130D3*
G1X614142Y-307130D3*
G54D19*
G1X615142Y-320630D3*
G54D20*
G1X602142Y-329680D3*
G54D21*
G1X589142Y-325730D3*
G1X584646Y-307087D2*
G54D22*
G1X580709Y-307087D1*
G1X566929Y-307087D2*
G1X566929Y-374016D1*
G1X580709Y-307087D2*
G1X566929Y-307087D1*
G54D12*
G36*
G1X516248Y-387159D2*
G1X516248Y-456193D1*
G1X617610Y-456193D1*
G1X617610Y-387159D1*
G1X581955Y-387159D1*
G1X581883Y-387332D1*
G1X580237Y-388975D1*
G1X578087Y-389863D1*
G1X575761Y-389861D1*
G1X573613Y-388969D1*
G1X571970Y-387323D1*
G1X571902Y-387159D1*
G1X570921Y-387159D1*
G1X570811Y-387191D1*
G1X570779Y-387159D1*
G1X569365Y-387159D1*
G1X570104Y-387898D1*
G1X569827Y-388854D1*
G1X568302Y-389486D1*
G1X566104Y-389595D1*
G1X564032Y-388854D1*
G1X563754Y-387898D1*
G1X564493Y-387159D1*
G1X563079Y-387159D1*
G1X563047Y-387191D1*
G1X562937Y-387159D1*
G1X561954Y-387159D1*
G1X561883Y-387332D1*
G1X560237Y-388975D1*
G1X558087Y-389863D1*
G1X555761Y-389861D1*
G1X553613Y-388969D1*
G1X551970Y-387323D1*
G1X551902Y-387159D1*
G1X516248Y-387159D1*
G37*
G36*
G1X516248Y-382293D2*
G1X516248Y-387159D1*
G1X551902Y-387159D1*
G1X551082Y-385174D1*
G1X551084Y-382848D1*
G1X551314Y-382293D1*
G1X516248Y-382293D1*
G37*
G36*
G1X561954Y-387159D2*
G1X562937Y-387159D1*
G1X562090Y-386913D1*
G1X562073Y-386872D1*
G1X561954Y-387159D1*
G37*
G36*
G1X563079Y-387159D2*
G1X564493Y-387159D1*
G1X566929Y-384723D1*
G1X569365Y-387159D1*
G1X570779Y-387159D1*
G1X567636Y-384016D1*
G1X569359Y-382293D1*
G1X567945Y-382293D1*
G1X566929Y-383309D1*
G1X565913Y-382293D1*
G1X564499Y-382293D1*
G1X566222Y-384016D1*
G1X563079Y-387159D1*
G37*
G36*
G1X571768Y-386913D2*
G1X570921Y-387159D1*
G1X571902Y-387159D1*
G1X571783Y-386871D1*
G1X571768Y-386913D1*
G37*
G36*
G1X582775Y-385184D2*
G1X581955Y-387159D1*
G1X617610Y-387159D1*
G1X617610Y-382293D1*
G1X582543Y-382293D1*
G1X582777Y-382858D1*
G1X582775Y-385184D1*
G37*
G36*
G1X516248Y-365739D2*
G1X551315Y-365739D1*
G1X551082Y-365174D1*
G1X551084Y-362848D1*
G1X551976Y-360700D1*
G1X553622Y-359056D1*
G1X555771Y-358168D1*
G1X558097Y-358170D1*
G1X560245Y-359062D1*
G1X561888Y-360708D1*
G1X562777Y-362858D1*
G1X562775Y-365184D1*
G1X562545Y-365739D1*
G1X562879Y-365739D1*
G1X562879Y-307087D1*
G1X563187Y-305537D1*
G1X564065Y-304223D1*
G1X565379Y-303345D1*
G1X566929Y-303037D1*
G1X578240Y-303037D1*
G1X578240Y-299713D1*
G1X516248Y-299713D1*
G1X516248Y-365739D1*
G37*
G36*
G1X570979Y-365739D2*
G1X571315Y-365739D1*
G1X571082Y-365174D1*
G1X571084Y-362848D1*
G1X571976Y-360700D1*
G1X573622Y-359056D1*
G1X575771Y-358168D1*
G1X578097Y-358170D1*
G1X580245Y-359062D1*
G1X581888Y-360708D1*
G1X582777Y-362858D1*
G1X582775Y-365184D1*
G1X582545Y-365739D1*
G1X617610Y-365739D1*
G1X617610Y-343020D1*
G1X578740Y-343020D1*
G1X578558Y-342986D1*
G1X578392Y-342878D1*
G1X578280Y-342714D1*
G1X578240Y-342520D1*
G1X578240Y-311137D1*
G1X570979Y-311137D1*
G1X570979Y-365739D1*
G37*
G36*
G1X516248Y-374016D2*
G1X516248Y-382293D1*
G1X551314Y-382293D1*
G1X551976Y-380700D1*
G1X553622Y-379056D1*
G1X554074Y-378870D1*
G1X554032Y-378854D1*
G1X553754Y-377898D1*
G1X556929Y-374723D1*
G1X560104Y-377898D1*
G1X559827Y-378854D1*
G1X559786Y-378871D1*
G1X560245Y-379062D1*
G1X561888Y-380708D1*
G1X562075Y-381161D1*
G1X562090Y-381118D1*
G1X563047Y-380841D1*
G1X564499Y-382293D1*
G1X565913Y-382293D1*
G1X563754Y-380134D1*
G1X564032Y-379177D1*
G1X564484Y-378990D1*
G1X563792Y-378702D1*
G1X562237Y-377145D1*
G1X561941Y-376429D1*
G1X561768Y-376913D1*
G1X560811Y-377191D1*
G1X557636Y-374016D1*
G1X556222Y-374016D1*
G1X553047Y-377191D1*
G1X552090Y-376913D1*
G1X551459Y-375388D1*
G1X551391Y-374016D1*
G1X516248Y-374016D1*
G37*
G36*
G1X516248Y-374016D2*
G1X551391Y-374016D1*
G1X551350Y-373191D1*
G1X552090Y-371118D1*
G1X553047Y-370841D1*
G1X556222Y-374016D1*
G1X557636Y-374016D1*
G1X560811Y-370841D1*
G1X561768Y-371118D1*
G1X561955Y-371570D1*
G1X562242Y-370878D1*
G1X562879Y-370243D1*
G1X562879Y-365739D1*
G1X562545Y-365739D1*
G1X561883Y-367332D1*
G1X560237Y-368975D1*
G1X559784Y-369162D1*
G1X559827Y-369177D1*
G1X560104Y-370134D1*
G1X556929Y-373309D1*
G1X553754Y-370134D1*
G1X554032Y-369177D1*
G1X554073Y-369160D1*
G1X553613Y-368969D1*
G1X551970Y-367323D1*
G1X551315Y-365739D1*
G1X516248Y-365739D1*
G1X516248Y-374016D1*
G37*
G36*
G1X567945Y-382293D2*
G1X569359Y-382293D1*
G1X570811Y-380841D1*
G1X571768Y-381118D1*
G1X571785Y-381159D1*
G1X571976Y-380700D1*
G1X573622Y-379056D1*
G1X574074Y-378870D1*
G1X574032Y-378854D1*
G1X573754Y-377898D1*
G1X576929Y-374723D1*
G1X580104Y-377898D1*
G1X579827Y-378854D1*
G1X579786Y-378871D1*
G1X580245Y-379062D1*
G1X581888Y-380708D1*
G1X582543Y-382293D1*
G1X617610Y-382293D1*
G1X617610Y-374016D1*
G1X582467Y-374016D1*
G1X582508Y-374841D1*
G1X581768Y-376913D1*
G1X580811Y-377191D1*
G1X577636Y-374016D1*
G1X576222Y-374016D1*
G1X573047Y-377191D1*
G1X572090Y-376913D1*
G1X571903Y-376461D1*
G1X571616Y-377153D1*
G1X570058Y-378708D1*
G1X569342Y-379004D1*
G1X569827Y-379177D1*
G1X570104Y-380134D1*
G1X567945Y-382293D1*
G37*
G36*
G1X570979Y-370243D2*
G1X571621Y-370886D1*
G1X571917Y-371603D1*
G1X572090Y-371118D1*
G1X573047Y-370841D1*
G1X576222Y-374016D1*
G1X577636Y-374016D1*
G1X580811Y-370841D1*
G1X581768Y-371118D1*
G1X582399Y-372643D1*
G1X582467Y-374016D1*
G1X617610Y-374016D1*
G1X617610Y-365739D1*
G1X582545Y-365739D1*
G1X581883Y-367332D1*
G1X580237Y-368975D1*
G1X579784Y-369162D1*
G1X579827Y-369177D1*
G1X580104Y-370134D1*
G1X576929Y-373309D1*
G1X573754Y-370134D1*
G1X574032Y-369177D1*
G1X574073Y-369160D1*
G1X573613Y-368969D1*
G1X571970Y-367323D1*
G1X571315Y-365739D1*
G1X570979Y-365739D1*
G1X570979Y-370243D1*
G37*
G1X578240Y-303037D2*
G1X566929Y-303037D1*
G1X565379Y-303345D1*
G1X564065Y-304223D1*
G1X563187Y-305537D1*
G1X562879Y-307087D1*
G1X562879Y-370243D1*
G1X562242Y-370878D1*
G1X561955Y-371570D1*
G1X561768Y-371118D1*
G1X560811Y-370841D1*
G1X557636Y-374016D1*
G1X560811Y-377191D1*
G1X561768Y-376913D1*
G1X561941Y-376429D1*
G1X562237Y-377145D1*
G1X563792Y-378702D1*
G1X564484Y-378990D1*
G1X564032Y-379177D1*
G1X563754Y-380134D1*
G1X566929Y-383309D1*
G1X570104Y-380134D1*
G1X569827Y-379177D1*
G1X569342Y-379004D1*
G1X570058Y-378708D1*
G1X571616Y-377153D1*
G1X571903Y-376461D1*
G1X572090Y-376913D1*
G1X573047Y-377191D1*
G1X576222Y-374016D1*
G1X577636Y-374016D1*
G1X580811Y-377191D1*
G1X581768Y-376913D1*
G1X582508Y-374841D1*
G1X582399Y-372643D1*
G1X581768Y-371118D1*
G1X580811Y-370841D1*
G1X577636Y-374016D1*
G1X576222Y-374016D1*
G1X573047Y-370841D1*
G1X572090Y-371118D1*
G1X571917Y-371603D1*
G1X571621Y-370886D1*
G1X570979Y-370243D1*
G1X570979Y-365174D1*
G1X571082Y-365174D1*
G1X571970Y-367323D1*
G1X573613Y-368969D1*
G1X574073Y-369160D1*
G1X574032Y-369177D1*
G1X573754Y-370134D1*
G1X576929Y-373309D1*
G1X580104Y-370134D1*
G1X579827Y-369177D1*
G1X579784Y-369162D1*
G1X580237Y-368975D1*
G1X581883Y-367332D1*
G1X582775Y-365184D1*
G1X582777Y-362858D1*
G1X581888Y-360708D1*
G1X580245Y-359062D1*
G1X578097Y-358170D1*
G1X575771Y-358168D1*
G1X573622Y-359056D1*
G1X571976Y-360700D1*
G1X571084Y-362848D1*
G1X571082Y-365174D1*
G1X570979Y-365174D1*
G1X570979Y-311137D1*
G1X578240Y-311137D1*
G1X578240Y-342520D1*
G1X578280Y-342714D1*
G1X578392Y-342878D1*
G1X578558Y-342986D1*
G1X578740Y-343020D1*
G1X617610Y-343020D1*
G1X617610Y-456193D1*
G1X516248Y-456193D1*
G1X516248Y-385174D1*
G1X551082Y-385174D1*
G1X551970Y-387323D1*
G1X553613Y-388969D1*
G1X555761Y-389861D1*
G1X558087Y-389863D1*
G1X560237Y-388975D1*
G1X561316Y-387898D1*
G1X563754Y-387898D1*
G1X564032Y-388854D1*
G1X566104Y-389595D1*
G1X568302Y-389486D1*
G1X569827Y-388854D1*
G1X570104Y-387898D1*
G1X566929Y-384723D1*
G1X563754Y-387898D1*
G1X561316Y-387898D1*
G1X561883Y-387332D1*
G1X562073Y-386872D1*
G1X562090Y-386913D1*
G1X563047Y-387191D1*
G1X566222Y-384016D1*
G1X567636Y-384016D1*
G1X570811Y-387191D1*
G1X571768Y-386913D1*
G1X571783Y-386871D1*
G1X571970Y-387323D1*
G1X573613Y-388969D1*
G1X575761Y-389861D1*
G1X578087Y-389863D1*
G1X580237Y-388975D1*
G1X581883Y-387332D1*
G1X582775Y-385184D1*
G1X582777Y-382858D1*
G1X581888Y-380708D1*
G1X580245Y-379062D1*
G1X579786Y-378871D1*
G1X579827Y-378854D1*
G1X580104Y-377898D1*
G1X576929Y-374723D1*
G1X573754Y-377898D1*
G1X574032Y-378854D1*
G1X574074Y-378870D1*
G1X573622Y-379056D1*
G1X571976Y-380700D1*
G1X571785Y-381159D1*
G1X571768Y-381118D1*
G1X570811Y-380841D1*
G1X567636Y-384016D1*
G1X566222Y-384016D1*
G1X563047Y-380841D1*
G1X562090Y-381118D1*
G1X562075Y-381161D1*
G1X561888Y-380708D1*
G1X560245Y-379062D1*
G1X559786Y-378871D1*
G1X559827Y-378854D1*
G1X560104Y-377898D1*
G1X556929Y-374723D1*
G1X553754Y-377898D1*
G1X554032Y-378854D1*
G1X554074Y-378870D1*
G1X553622Y-379056D1*
G1X551976Y-380700D1*
G1X551084Y-382848D1*
G1X551082Y-385174D1*
G1X516248Y-385174D1*
G1X516248Y-373191D1*
G1X551350Y-373191D1*
G1X551459Y-375388D1*
G1X552090Y-376913D1*
G1X553047Y-377191D1*
G1X556222Y-374016D1*
G1X553047Y-370841D1*
G1X552090Y-371118D1*
G1X551350Y-373191D1*
G1X516248Y-373191D1*
G1X516248Y-365174D1*
G1X551082Y-365174D1*
G1X551970Y-367323D1*
G1X553613Y-368969D1*
G1X554073Y-369160D1*
G1X554032Y-369177D1*
G1X553754Y-370134D1*
G1X556929Y-373309D1*
G1X560104Y-370134D1*
G1X559827Y-369177D1*
G1X559784Y-369162D1*
G1X560237Y-368975D1*
G1X561883Y-367332D1*
G1X562775Y-365184D1*
G1X562777Y-362858D1*
G1X561888Y-360708D1*
G1X560245Y-359062D1*
G1X558097Y-358170D1*
G1X555771Y-358168D1*
G1X553622Y-359056D1*
G1X551976Y-360700D1*
G1X551084Y-362848D1*
G1X551082Y-365174D1*
G1X516248Y-365174D1*
G1X516248Y-299713D1*
G1X578240Y-299713D1*
G1X578240Y-303037D1*
M2*
