G04 #@! TF.FileFunction,Copper,L1,Top,Signal*
%FSLAX46Y46*%
G04 Gerber Fmt 4.6, Leading zero omitted, Abs format (unit mm)*
G04 Created by KiCad (PCBNEW 4.0.5) date 05/07/17 16:04:07*
%MOMM*%
%LPD*%
G01*
G04 APERTURE LIST*
%ADD10C,0.100000*%
%ADD11C,1.000000*%
%ADD12C,0.750800*%
%ADD13R,1.000000X1.800000*%
%ADD14R,0.500000X5.100000*%
%ADD15R,7.100000X0.500000*%
%ADD16R,0.500000X2.500000*%
%ADD17R,1.651000X1.651000*%
%ADD18C,1.550000*%
%ADD19C,0.787400*%
%ADD20C,0.254000*%
G04 APERTURE END LIST*
D10*
D11*
X146000000Y-89524000D03*
D12*
X146304000Y-76708000D03*
X145034000Y-76708000D03*
D11*
X155702000Y-87884000D03*
X154000000Y-88000000D03*
X148000000Y-88000000D03*
X152000000Y-88000000D03*
X150000000Y-88000000D03*
X146000000Y-84000000D03*
X146000000Y-86000000D03*
X146000000Y-88000000D03*
X146000000Y-82000000D03*
X146000000Y-80000000D03*
X145000000Y-99000000D03*
X143000000Y-99000000D03*
X148000000Y-94000000D03*
X148000000Y-96000000D03*
X140000000Y-96000000D03*
X140000000Y-94000000D03*
X140000000Y-89000000D03*
X142000000Y-79000000D03*
X142000000Y-81000000D03*
X142000000Y-83000000D03*
X142000000Y-89000000D03*
X142000000Y-87000000D03*
X142000000Y-85000000D03*
X142000000Y-77000000D03*
X138000000Y-77000000D03*
X140000000Y-77000000D03*
X136000000Y-77000000D03*
X134000000Y-77000000D03*
X156000000Y-91000000D03*
X155956000Y-89408000D03*
X156000000Y-101000000D03*
X156000000Y-103000000D03*
X156000000Y-105000000D03*
X156000000Y-107000000D03*
X156000000Y-99000000D03*
X156000000Y-97000000D03*
X156000000Y-95000000D03*
X156000000Y-93000000D03*
X156000000Y-113000000D03*
X156000000Y-111000000D03*
X156000000Y-109000000D03*
X156000000Y-115000000D03*
X152000000Y-115000000D03*
X154000000Y-115000000D03*
X150000000Y-115000000D03*
X148000000Y-115000000D03*
X140000000Y-115000000D03*
X142000000Y-115000000D03*
X146000000Y-115000000D03*
X144000000Y-115000000D03*
X136000000Y-115000000D03*
X138000000Y-115000000D03*
X134000000Y-115000000D03*
X132000000Y-109000000D03*
X132000000Y-111000000D03*
X132000000Y-113000000D03*
X132000000Y-115000000D03*
X132000000Y-93000000D03*
X132000000Y-95000000D03*
X132000000Y-97000000D03*
X132000000Y-99000000D03*
X132000000Y-107000000D03*
X132000000Y-105000000D03*
X132000000Y-103000000D03*
X132000000Y-101000000D03*
X132000000Y-85000000D03*
X132000000Y-87000000D03*
X132000000Y-89000000D03*
X132000000Y-91000000D03*
X132000000Y-83000000D03*
X132000000Y-81000000D03*
X132000000Y-79000000D03*
D13*
X149007000Y-78011000D03*
X155992000Y-78011000D03*
D14*
X156246000Y-81440000D03*
D15*
X152944000Y-83738700D03*
D16*
X149642000Y-82735400D03*
D17*
X147556000Y-98556000D03*
X140444000Y-91444000D03*
X140444000Y-98556000D03*
X147556000Y-91444000D03*
D18*
X144000000Y-95000000D03*
D11*
X132000000Y-77000000D03*
D12*
X143510000Y-76708000D03*
D19*
X148500000Y-78000000D02*
X147500000Y-78000000D01*
X144000000Y-78000000D02*
X144000000Y-95000000D01*
X147500000Y-78000000D02*
X144000000Y-78000000D01*
D20*
G36*
X146873000Y-76971300D02*
X144000000Y-76971300D01*
X143606334Y-77049605D01*
X143272599Y-77272599D01*
X143049605Y-77606334D01*
X142971300Y-78000000D01*
X142971300Y-94034602D01*
X142805357Y-94200256D01*
X142590245Y-94718303D01*
X142589755Y-95279236D01*
X142803963Y-95797658D01*
X143200256Y-96194643D01*
X143718303Y-96409755D01*
X144279236Y-96410245D01*
X144797658Y-96196037D01*
X145194643Y-95799744D01*
X145409755Y-95281697D01*
X145410245Y-94720764D01*
X145196037Y-94202342D01*
X145028700Y-94034713D01*
X145028700Y-91729750D01*
X146095500Y-91729750D01*
X146095500Y-92395809D01*
X146192173Y-92629198D01*
X146370801Y-92807827D01*
X146604190Y-92904500D01*
X147270250Y-92904500D01*
X147429000Y-92745750D01*
X147429000Y-91571000D01*
X147683000Y-91571000D01*
X147683000Y-92745750D01*
X147841750Y-92904500D01*
X148507810Y-92904500D01*
X148741199Y-92807827D01*
X148919827Y-92629198D01*
X149016500Y-92395809D01*
X149016500Y-91729750D01*
X148857750Y-91571000D01*
X147683000Y-91571000D01*
X147429000Y-91571000D01*
X146254250Y-91571000D01*
X146095500Y-91729750D01*
X145028700Y-91729750D01*
X145028700Y-90492191D01*
X146095500Y-90492191D01*
X146095500Y-91158250D01*
X146254250Y-91317000D01*
X147429000Y-91317000D01*
X147429000Y-90142250D01*
X147683000Y-90142250D01*
X147683000Y-91317000D01*
X148857750Y-91317000D01*
X149016500Y-91158250D01*
X149016500Y-90492191D01*
X148919827Y-90258802D01*
X148741199Y-90080173D01*
X148507810Y-89983500D01*
X147841750Y-89983500D01*
X147683000Y-90142250D01*
X147429000Y-90142250D01*
X147270250Y-89983500D01*
X146604190Y-89983500D01*
X146370801Y-90080173D01*
X146192173Y-90258802D01*
X146095500Y-90492191D01*
X145028700Y-90492191D01*
X145028700Y-79028700D01*
X146873000Y-79028700D01*
X146873000Y-87000000D01*
X146883006Y-87049410D01*
X146911447Y-87091035D01*
X146953841Y-87118315D01*
X147000000Y-87127000D01*
X156873000Y-87127000D01*
X156873000Y-115873000D01*
X131127000Y-115873000D01*
X131127000Y-98841750D01*
X138983500Y-98841750D01*
X138983500Y-99507809D01*
X139080173Y-99741198D01*
X139258801Y-99919827D01*
X139492190Y-100016500D01*
X140158250Y-100016500D01*
X140317000Y-99857750D01*
X140317000Y-98683000D01*
X140571000Y-98683000D01*
X140571000Y-99857750D01*
X140729750Y-100016500D01*
X141395810Y-100016500D01*
X141629199Y-99919827D01*
X141807827Y-99741198D01*
X141904500Y-99507809D01*
X141904500Y-98841750D01*
X146095500Y-98841750D01*
X146095500Y-99507809D01*
X146192173Y-99741198D01*
X146370801Y-99919827D01*
X146604190Y-100016500D01*
X147270250Y-100016500D01*
X147429000Y-99857750D01*
X147429000Y-98683000D01*
X147683000Y-98683000D01*
X147683000Y-99857750D01*
X147841750Y-100016500D01*
X148507810Y-100016500D01*
X148741199Y-99919827D01*
X148919827Y-99741198D01*
X149016500Y-99507809D01*
X149016500Y-98841750D01*
X148857750Y-98683000D01*
X147683000Y-98683000D01*
X147429000Y-98683000D01*
X146254250Y-98683000D01*
X146095500Y-98841750D01*
X141904500Y-98841750D01*
X141745750Y-98683000D01*
X140571000Y-98683000D01*
X140317000Y-98683000D01*
X139142250Y-98683000D01*
X138983500Y-98841750D01*
X131127000Y-98841750D01*
X131127000Y-97604191D01*
X138983500Y-97604191D01*
X138983500Y-98270250D01*
X139142250Y-98429000D01*
X140317000Y-98429000D01*
X140317000Y-97254250D01*
X140571000Y-97254250D01*
X140571000Y-98429000D01*
X141745750Y-98429000D01*
X141904500Y-98270250D01*
X141904500Y-97604191D01*
X146095500Y-97604191D01*
X146095500Y-98270250D01*
X146254250Y-98429000D01*
X147429000Y-98429000D01*
X147429000Y-97254250D01*
X147683000Y-97254250D01*
X147683000Y-98429000D01*
X148857750Y-98429000D01*
X149016500Y-98270250D01*
X149016500Y-97604191D01*
X148919827Y-97370802D01*
X148741199Y-97192173D01*
X148507810Y-97095500D01*
X147841750Y-97095500D01*
X147683000Y-97254250D01*
X147429000Y-97254250D01*
X147270250Y-97095500D01*
X146604190Y-97095500D01*
X146370801Y-97192173D01*
X146192173Y-97370802D01*
X146095500Y-97604191D01*
X141904500Y-97604191D01*
X141807827Y-97370802D01*
X141629199Y-97192173D01*
X141395810Y-97095500D01*
X140729750Y-97095500D01*
X140571000Y-97254250D01*
X140317000Y-97254250D01*
X140158250Y-97095500D01*
X139492190Y-97095500D01*
X139258801Y-97192173D01*
X139080173Y-97370802D01*
X138983500Y-97604191D01*
X131127000Y-97604191D01*
X131127000Y-91729750D01*
X138983500Y-91729750D01*
X138983500Y-92395809D01*
X139080173Y-92629198D01*
X139258801Y-92807827D01*
X139492190Y-92904500D01*
X140158250Y-92904500D01*
X140317000Y-92745750D01*
X140317000Y-91571000D01*
X140571000Y-91571000D01*
X140571000Y-92745750D01*
X140729750Y-92904500D01*
X141395810Y-92904500D01*
X141629199Y-92807827D01*
X141807827Y-92629198D01*
X141904500Y-92395809D01*
X141904500Y-91729750D01*
X141745750Y-91571000D01*
X140571000Y-91571000D01*
X140317000Y-91571000D01*
X139142250Y-91571000D01*
X138983500Y-91729750D01*
X131127000Y-91729750D01*
X131127000Y-90492191D01*
X138983500Y-90492191D01*
X138983500Y-91158250D01*
X139142250Y-91317000D01*
X140317000Y-91317000D01*
X140317000Y-90142250D01*
X140571000Y-90142250D01*
X140571000Y-91317000D01*
X141745750Y-91317000D01*
X141904500Y-91158250D01*
X141904500Y-90492191D01*
X141807827Y-90258802D01*
X141629199Y-90080173D01*
X141395810Y-89983500D01*
X140729750Y-89983500D01*
X140571000Y-90142250D01*
X140317000Y-90142250D01*
X140158250Y-89983500D01*
X139492190Y-89983500D01*
X139258801Y-90080173D01*
X139080173Y-90258802D01*
X138983500Y-90492191D01*
X131127000Y-90492191D01*
X131127000Y-76127000D01*
X146873000Y-76127000D01*
X146873000Y-76971300D01*
X146873000Y-76971300D01*
G37*
X146873000Y-76971300D02*
X144000000Y-76971300D01*
X143606334Y-77049605D01*
X143272599Y-77272599D01*
X143049605Y-77606334D01*
X142971300Y-78000000D01*
X142971300Y-94034602D01*
X142805357Y-94200256D01*
X142590245Y-94718303D01*
X142589755Y-95279236D01*
X142803963Y-95797658D01*
X143200256Y-96194643D01*
X143718303Y-96409755D01*
X144279236Y-96410245D01*
X144797658Y-96196037D01*
X145194643Y-95799744D01*
X145409755Y-95281697D01*
X145410245Y-94720764D01*
X145196037Y-94202342D01*
X145028700Y-94034713D01*
X145028700Y-91729750D01*
X146095500Y-91729750D01*
X146095500Y-92395809D01*
X146192173Y-92629198D01*
X146370801Y-92807827D01*
X146604190Y-92904500D01*
X147270250Y-92904500D01*
X147429000Y-92745750D01*
X147429000Y-91571000D01*
X147683000Y-91571000D01*
X147683000Y-92745750D01*
X147841750Y-92904500D01*
X148507810Y-92904500D01*
X148741199Y-92807827D01*
X148919827Y-92629198D01*
X149016500Y-92395809D01*
X149016500Y-91729750D01*
X148857750Y-91571000D01*
X147683000Y-91571000D01*
X147429000Y-91571000D01*
X146254250Y-91571000D01*
X146095500Y-91729750D01*
X145028700Y-91729750D01*
X145028700Y-90492191D01*
X146095500Y-90492191D01*
X146095500Y-91158250D01*
X146254250Y-91317000D01*
X147429000Y-91317000D01*
X147429000Y-90142250D01*
X147683000Y-90142250D01*
X147683000Y-91317000D01*
X148857750Y-91317000D01*
X149016500Y-91158250D01*
X149016500Y-90492191D01*
X148919827Y-90258802D01*
X148741199Y-90080173D01*
X148507810Y-89983500D01*
X147841750Y-89983500D01*
X147683000Y-90142250D01*
X147429000Y-90142250D01*
X147270250Y-89983500D01*
X146604190Y-89983500D01*
X146370801Y-90080173D01*
X146192173Y-90258802D01*
X146095500Y-90492191D01*
X145028700Y-90492191D01*
X145028700Y-79028700D01*
X146873000Y-79028700D01*
X146873000Y-87000000D01*
X146883006Y-87049410D01*
X146911447Y-87091035D01*
X146953841Y-87118315D01*
X147000000Y-87127000D01*
X156873000Y-87127000D01*
X156873000Y-115873000D01*
X131127000Y-115873000D01*
X131127000Y-98841750D01*
X138983500Y-98841750D01*
X138983500Y-99507809D01*
X139080173Y-99741198D01*
X139258801Y-99919827D01*
X139492190Y-100016500D01*
X140158250Y-100016500D01*
X140317000Y-99857750D01*
X140317000Y-98683000D01*
X140571000Y-98683000D01*
X140571000Y-99857750D01*
X140729750Y-100016500D01*
X141395810Y-100016500D01*
X141629199Y-99919827D01*
X141807827Y-99741198D01*
X141904500Y-99507809D01*
X141904500Y-98841750D01*
X146095500Y-98841750D01*
X146095500Y-99507809D01*
X146192173Y-99741198D01*
X146370801Y-99919827D01*
X146604190Y-100016500D01*
X147270250Y-100016500D01*
X147429000Y-99857750D01*
X147429000Y-98683000D01*
X147683000Y-98683000D01*
X147683000Y-99857750D01*
X147841750Y-100016500D01*
X148507810Y-100016500D01*
X148741199Y-99919827D01*
X148919827Y-99741198D01*
X149016500Y-99507809D01*
X149016500Y-98841750D01*
X148857750Y-98683000D01*
X147683000Y-98683000D01*
X147429000Y-98683000D01*
X146254250Y-98683000D01*
X146095500Y-98841750D01*
X141904500Y-98841750D01*
X141745750Y-98683000D01*
X140571000Y-98683000D01*
X140317000Y-98683000D01*
X139142250Y-98683000D01*
X138983500Y-98841750D01*
X131127000Y-98841750D01*
X131127000Y-97604191D01*
X138983500Y-97604191D01*
X138983500Y-98270250D01*
X139142250Y-98429000D01*
X140317000Y-98429000D01*
X140317000Y-97254250D01*
X140571000Y-97254250D01*
X140571000Y-98429000D01*
X141745750Y-98429000D01*
X141904500Y-98270250D01*
X141904500Y-97604191D01*
X146095500Y-97604191D01*
X146095500Y-98270250D01*
X146254250Y-98429000D01*
X147429000Y-98429000D01*
X147429000Y-97254250D01*
X147683000Y-97254250D01*
X147683000Y-98429000D01*
X148857750Y-98429000D01*
X149016500Y-98270250D01*
X149016500Y-97604191D01*
X148919827Y-97370802D01*
X148741199Y-97192173D01*
X148507810Y-97095500D01*
X147841750Y-97095500D01*
X147683000Y-97254250D01*
X147429000Y-97254250D01*
X147270250Y-97095500D01*
X146604190Y-97095500D01*
X146370801Y-97192173D01*
X146192173Y-97370802D01*
X146095500Y-97604191D01*
X141904500Y-97604191D01*
X141807827Y-97370802D01*
X141629199Y-97192173D01*
X141395810Y-97095500D01*
X140729750Y-97095500D01*
X140571000Y-97254250D01*
X140317000Y-97254250D01*
X140158250Y-97095500D01*
X139492190Y-97095500D01*
X139258801Y-97192173D01*
X139080173Y-97370802D01*
X138983500Y-97604191D01*
X131127000Y-97604191D01*
X131127000Y-91729750D01*
X138983500Y-91729750D01*
X138983500Y-92395809D01*
X139080173Y-92629198D01*
X139258801Y-92807827D01*
X139492190Y-92904500D01*
X140158250Y-92904500D01*
X140317000Y-92745750D01*
X140317000Y-91571000D01*
X140571000Y-91571000D01*
X140571000Y-92745750D01*
X140729750Y-92904500D01*
X141395810Y-92904500D01*
X141629199Y-92807827D01*
X141807827Y-92629198D01*
X141904500Y-92395809D01*
X141904500Y-91729750D01*
X141745750Y-91571000D01*
X140571000Y-91571000D01*
X140317000Y-91571000D01*
X139142250Y-91571000D01*
X138983500Y-91729750D01*
X131127000Y-91729750D01*
X131127000Y-90492191D01*
X138983500Y-90492191D01*
X138983500Y-91158250D01*
X139142250Y-91317000D01*
X140317000Y-91317000D01*
X140317000Y-90142250D01*
X140571000Y-90142250D01*
X140571000Y-91317000D01*
X141745750Y-91317000D01*
X141904500Y-91158250D01*
X141904500Y-90492191D01*
X141807827Y-90258802D01*
X141629199Y-90080173D01*
X141395810Y-89983500D01*
X140729750Y-89983500D01*
X140571000Y-90142250D01*
X140317000Y-90142250D01*
X140158250Y-89983500D01*
X139492190Y-89983500D01*
X139258801Y-90080173D01*
X139080173Y-90258802D01*
X138983500Y-90492191D01*
X131127000Y-90492191D01*
X131127000Y-76127000D01*
X146873000Y-76127000D01*
X146873000Y-76971300D01*
M02*
