M48
;DRILL file {KiCad 4.0.5} date 05/07/17 16:04:06
;FORMAT={-:-/ absolute / inch / decimal}
FMAT,2
INCH,TZ
T1C0.018
T2C0.025
T3C0.039
T4C0.045
%
G90
G05
M72
T1
X5.65Y-3.02
X5.71Y-3.02
X5.76Y-3.02
T2
X5.1969Y-3.0315
X5.1969Y-3.1102
X5.1969Y-3.189
X5.1969Y-3.2677
X5.1969Y-3.3465
X5.1969Y-3.4252
X5.1969Y-3.5039
X5.1969Y-3.5827
X5.1969Y-3.6614
X5.1969Y-3.7402
X5.1969Y-3.8189
X5.1969Y-3.8976
X5.1969Y-3.9764
X5.1969Y-4.0551
X5.1969Y-4.1339
X5.1969Y-4.2126
X5.1969Y-4.2913
X5.1969Y-4.3701
X5.1969Y-4.4488
X5.1969Y-4.5276
X5.2756Y-3.0315
X5.2756Y-4.5276
X5.3543Y-3.0315
X5.3543Y-4.5276
X5.4331Y-3.0315
X5.4331Y-4.5276
X5.5118Y-3.0315
X5.5118Y-3.5039
X5.5118Y-3.7008
X5.5118Y-3.7795
X5.5118Y-4.5276
X5.5906Y-3.0315
X5.5906Y-3.1102
X5.5906Y-3.189
X5.5906Y-3.2677
X5.5906Y-3.3465
X5.5906Y-3.4252
X5.5906Y-3.5039
X5.5906Y-4.5276
X5.6299Y-3.8976
X5.6693Y-4.5276
X5.7087Y-3.8976
X5.748Y-3.1496
X5.748Y-3.2283
X5.748Y-3.3071
X5.748Y-3.3858
X5.748Y-3.4646
X5.748Y-3.5246
X5.748Y-4.5276
X5.8268Y-3.4646
X5.8268Y-3.7008
X5.8268Y-3.7795
X5.8268Y-4.5276
X5.9055Y-3.4646
X5.9055Y-4.5276
X5.9843Y-3.4646
X5.9843Y-4.5276
X6.063Y-3.4646
X6.063Y-4.5276
X6.13Y-3.46
X6.14Y-3.52
X6.1417Y-3.5827
X6.1417Y-3.6614
X6.1417Y-3.7402
X6.1417Y-3.8189
X6.1417Y-3.8976
X6.1417Y-3.9764
X6.1417Y-4.0551
X6.1417Y-4.1339
X6.1417Y-4.2126
X6.1417Y-4.2913
X6.1417Y-4.3701
X6.1417Y-4.4488
X6.1417Y-4.5276
T3
X5.6693Y-3.7402
T4
X5.5293Y-3.6002
X5.5293Y-3.8802
X5.8093Y-3.6002
X5.8093Y-3.8802
T0
M30
