G04 #@! TF.FileFunction,Legend,Bot*
%FSLAX46Y46*%
G04 Gerber Fmt 4.6, Leading zero omitted, Abs format (unit mm)*
G04 Created by KiCad (PCBNEW 4.0.5) date 05/07/17 17:05:54*
%MOMM*%
%LPD*%
G01*
G04 APERTURE LIST*
%ADD10C,0.100000*%
%ADD11C,0.150000*%
%ADD12C,0.120000*%
%ADD13C,0.152400*%
%ADD14C,0.063500*%
G04 APERTURE END LIST*
D10*
D11*
X31876842Y36449000D02*
G75*
G03X31876842Y36449000I-12763342J0D01*
G01*
D12*
X15328800Y15955200D02*
X15328800Y16455200D01*
X16268800Y16455200D02*
X16268800Y15955200D01*
X16294000Y15955200D02*
X16294000Y16455200D01*
X17234000Y16455200D02*
X17234000Y15955200D01*
X17259200Y15955200D02*
X17259200Y16455200D01*
X18199200Y16455200D02*
X18199200Y15955200D01*
X19554000Y12678000D02*
X19054000Y12678000D01*
X19054000Y13738000D02*
X19554000Y13738000D01*
X12382600Y18030000D02*
X12382600Y17530000D01*
X11442600Y17530000D02*
X11442600Y18030000D01*
X11442800Y18030000D02*
X11442800Y17530000D01*
X10502800Y17530000D02*
X10502800Y18030000D01*
X10503000Y18030000D02*
X10503000Y17530000D01*
X9563000Y17530000D02*
X9563000Y18030000D01*
X17513200Y13516800D02*
X17513200Y14016800D01*
X18453200Y14016800D02*
X18453200Y13516800D01*
X15633600Y13161200D02*
X15633600Y13661200D01*
X16573600Y13661200D02*
X16573600Y13161200D01*
X16548000Y13516800D02*
X16548000Y14016800D01*
X17488000Y14016800D02*
X17488000Y13516800D01*
X8137600Y8986000D02*
X8137600Y8286000D01*
X9337600Y8286000D02*
X9337600Y8986000D01*
X15333600Y3576800D02*
X14333600Y3576800D01*
X14333600Y3576800D02*
X14333600Y5676800D01*
X15333600Y3576800D02*
X15333600Y5676800D01*
X8221600Y23286000D02*
X7221600Y23286000D01*
X7221600Y21926000D02*
X8221600Y21926000D01*
X7221600Y23805600D02*
X8221600Y23805600D01*
X8221600Y25165600D02*
X7221600Y25165600D01*
X7538000Y18854800D02*
X7538000Y19854800D01*
X6178000Y19854800D02*
X6178000Y18854800D01*
X8184600Y18534000D02*
X8184600Y17534000D01*
X9544600Y17534000D02*
X9544600Y18534000D01*
X17862000Y19448400D02*
X17862000Y18448400D01*
X19222000Y18448400D02*
X19222000Y19448400D01*
X16379600Y18487200D02*
X16379600Y17987200D01*
X15319600Y17987200D02*
X15319600Y18487200D01*
X7039200Y9757600D02*
X7039200Y10257600D01*
X8099200Y10257600D02*
X8099200Y9757600D01*
X16633600Y4822000D02*
X16633600Y4322000D01*
X15573600Y4322000D02*
X15573600Y4822000D01*
X12848400Y19688400D02*
X12348400Y19688400D01*
X12348400Y20748400D02*
X12848400Y20748400D01*
D13*
X12489299Y21183600D02*
G75*
G03X12489299Y21183600I-297299J0D01*
G01*
X17162899Y17780000D02*
G75*
G03X17162899Y17780000I-297299J0D01*
G01*
X8425299Y19710400D02*
G75*
G03X8425299Y19710400I-297299J0D01*
G01*
X21226899Y13258800D02*
G75*
G03X21226899Y13258800I-297299J0D01*
G01*
X18839299Y20929600D02*
G75*
G03X18839299Y20929600I-297299J0D01*
G01*
D11*
X19899214Y40330429D02*
X19756357Y40282810D01*
X19708738Y40235190D01*
X19661119Y40139952D01*
X19661119Y39997095D01*
X19708738Y39901857D01*
X19756357Y39854238D01*
X19851595Y39806619D01*
X20232548Y39806619D01*
X20232548Y40806619D01*
X19899214Y40806619D01*
X19803976Y40759000D01*
X19756357Y40711381D01*
X19708738Y40616143D01*
X19708738Y40520905D01*
X19756357Y40425667D01*
X19803976Y40378048D01*
X19899214Y40330429D01*
X20232548Y40330429D01*
X19375405Y40806619D02*
X18803976Y40806619D01*
X19089691Y39806619D02*
X19089691Y40806619D01*
X17946833Y39806619D02*
X18518262Y39806619D01*
X18232548Y39806619D02*
X18232548Y40806619D01*
X18327786Y40663762D01*
X18423024Y40568524D01*
X18518262Y40520905D01*
D14*
X15841133Y16101786D02*
X15853228Y16089690D01*
X15889514Y16077595D01*
X15913704Y16077595D01*
X15949990Y16089690D01*
X15974181Y16113881D01*
X15986276Y16138071D01*
X15998371Y16186452D01*
X15998371Y16222738D01*
X15986276Y16271119D01*
X15974181Y16295310D01*
X15949990Y16319500D01*
X15913704Y16331595D01*
X15889514Y16331595D01*
X15853228Y16319500D01*
X15841133Y16307405D01*
X15720181Y16077595D02*
X15671800Y16077595D01*
X15647609Y16089690D01*
X15635514Y16101786D01*
X15611323Y16138071D01*
X15599228Y16186452D01*
X15599228Y16283214D01*
X15611323Y16307405D01*
X15623419Y16319500D01*
X15647609Y16331595D01*
X15695990Y16331595D01*
X15720181Y16319500D01*
X15732276Y16307405D01*
X15744371Y16283214D01*
X15744371Y16222738D01*
X15732276Y16198548D01*
X15720181Y16186452D01*
X15695990Y16174357D01*
X15647609Y16174357D01*
X15623419Y16186452D01*
X15611323Y16198548D01*
X15599228Y16222738D01*
X16819033Y16076386D02*
X16831128Y16064290D01*
X16867414Y16052195D01*
X16891604Y16052195D01*
X16927890Y16064290D01*
X16952081Y16088481D01*
X16964176Y16112671D01*
X16976271Y16161052D01*
X16976271Y16197338D01*
X16964176Y16245719D01*
X16952081Y16269910D01*
X16927890Y16294100D01*
X16891604Y16306195D01*
X16867414Y16306195D01*
X16831128Y16294100D01*
X16819033Y16282005D01*
X16734366Y16306195D02*
X16565033Y16306195D01*
X16673890Y16052195D01*
X17771533Y16114486D02*
X17783628Y16102390D01*
X17819914Y16090295D01*
X17844104Y16090295D01*
X17880390Y16102390D01*
X17904581Y16126581D01*
X17916676Y16150771D01*
X17928771Y16199152D01*
X17928771Y16235438D01*
X17916676Y16283819D01*
X17904581Y16308010D01*
X17880390Y16332200D01*
X17844104Y16344295D01*
X17819914Y16344295D01*
X17783628Y16332200D01*
X17771533Y16320105D01*
X17626390Y16235438D02*
X17650581Y16247533D01*
X17662676Y16259629D01*
X17674771Y16283819D01*
X17674771Y16295914D01*
X17662676Y16320105D01*
X17650581Y16332200D01*
X17626390Y16344295D01*
X17578009Y16344295D01*
X17553819Y16332200D01*
X17541723Y16320105D01*
X17529628Y16295914D01*
X17529628Y16283819D01*
X17541723Y16259629D01*
X17553819Y16247533D01*
X17578009Y16235438D01*
X17626390Y16235438D01*
X17650581Y16223343D01*
X17662676Y16211248D01*
X17674771Y16187057D01*
X17674771Y16138676D01*
X17662676Y16114486D01*
X17650581Y16102390D01*
X17626390Y16090295D01*
X17578009Y16090295D01*
X17553819Y16102390D01*
X17541723Y16114486D01*
X17529628Y16138676D01*
X17529628Y16187057D01*
X17541723Y16211248D01*
X17553819Y16223343D01*
X17578009Y16235438D01*
X19346333Y13093095D02*
X19431000Y13214048D01*
X19491476Y13093095D02*
X19491476Y13347095D01*
X19394714Y13347095D01*
X19370523Y13335000D01*
X19358428Y13322905D01*
X19346333Y13298714D01*
X19346333Y13262429D01*
X19358428Y13238238D01*
X19370523Y13226143D01*
X19394714Y13214048D01*
X19491476Y13214048D01*
X19225381Y13093095D02*
X19177000Y13093095D01*
X19152809Y13105190D01*
X19140714Y13117286D01*
X19116523Y13153571D01*
X19104428Y13201952D01*
X19104428Y13298714D01*
X19116523Y13322905D01*
X19128619Y13335000D01*
X19152809Y13347095D01*
X19201190Y13347095D01*
X19225381Y13335000D01*
X19237476Y13322905D01*
X19249571Y13298714D01*
X19249571Y13238238D01*
X19237476Y13214048D01*
X19225381Y13201952D01*
X19201190Y13189857D01*
X19152809Y13189857D01*
X19128619Y13201952D01*
X19116523Y13214048D01*
X19104428Y13238238D01*
X11954933Y17689286D02*
X11967028Y17677190D01*
X12003314Y17665095D01*
X12027504Y17665095D01*
X12063790Y17677190D01*
X12087981Y17701381D01*
X12100076Y17725571D01*
X12112171Y17773952D01*
X12112171Y17810238D01*
X12100076Y17858619D01*
X12087981Y17882810D01*
X12063790Y17907000D01*
X12027504Y17919095D01*
X12003314Y17919095D01*
X11967028Y17907000D01*
X11954933Y17894905D01*
X11713028Y17665095D02*
X11858171Y17665095D01*
X11785600Y17665095D02*
X11785600Y17919095D01*
X11809790Y17882810D01*
X11833981Y17858619D01*
X11858171Y17846524D01*
X11015133Y17689286D02*
X11027228Y17677190D01*
X11063514Y17665095D01*
X11087704Y17665095D01*
X11123990Y17677190D01*
X11148181Y17701381D01*
X11160276Y17725571D01*
X11172371Y17773952D01*
X11172371Y17810238D01*
X11160276Y17858619D01*
X11148181Y17882810D01*
X11123990Y17907000D01*
X11087704Y17919095D01*
X11063514Y17919095D01*
X11027228Y17907000D01*
X11015133Y17894905D01*
X10918371Y17894905D02*
X10906276Y17907000D01*
X10882085Y17919095D01*
X10821609Y17919095D01*
X10797419Y17907000D01*
X10785323Y17894905D01*
X10773228Y17870714D01*
X10773228Y17846524D01*
X10785323Y17810238D01*
X10930466Y17665095D01*
X10773228Y17665095D01*
X10075333Y17689286D02*
X10087428Y17677190D01*
X10123714Y17665095D01*
X10147904Y17665095D01*
X10184190Y17677190D01*
X10208381Y17701381D01*
X10220476Y17725571D01*
X10232571Y17773952D01*
X10232571Y17810238D01*
X10220476Y17858619D01*
X10208381Y17882810D01*
X10184190Y17907000D01*
X10147904Y17919095D01*
X10123714Y17919095D01*
X10087428Y17907000D01*
X10075333Y17894905D01*
X9990666Y17919095D02*
X9833428Y17919095D01*
X9918095Y17822333D01*
X9881809Y17822333D01*
X9857619Y17810238D01*
X9845523Y17798143D01*
X9833428Y17773952D01*
X9833428Y17713476D01*
X9845523Y17689286D01*
X9857619Y17677190D01*
X9881809Y17665095D01*
X9954381Y17665095D01*
X9978571Y17677190D01*
X9990666Y17689286D01*
X18025533Y13676086D02*
X18037628Y13663990D01*
X18073914Y13651895D01*
X18098104Y13651895D01*
X18134390Y13663990D01*
X18158581Y13688181D01*
X18170676Y13712371D01*
X18182771Y13760752D01*
X18182771Y13797038D01*
X18170676Y13845419D01*
X18158581Y13869610D01*
X18134390Y13893800D01*
X18098104Y13905895D01*
X18073914Y13905895D01*
X18037628Y13893800D01*
X18025533Y13881705D01*
X17807819Y13821229D02*
X17807819Y13651895D01*
X17868295Y13917990D02*
X17928771Y13736562D01*
X17771533Y13736562D01*
X16145933Y13320486D02*
X16158028Y13308390D01*
X16194314Y13296295D01*
X16218504Y13296295D01*
X16254790Y13308390D01*
X16278981Y13332581D01*
X16291076Y13356771D01*
X16303171Y13405152D01*
X16303171Y13441438D01*
X16291076Y13489819D01*
X16278981Y13514010D01*
X16254790Y13538200D01*
X16218504Y13550295D01*
X16194314Y13550295D01*
X16158028Y13538200D01*
X16145933Y13526105D01*
X15916123Y13550295D02*
X16037076Y13550295D01*
X16049171Y13429343D01*
X16037076Y13441438D01*
X16012885Y13453533D01*
X15952409Y13453533D01*
X15928219Y13441438D01*
X15916123Y13429343D01*
X15904028Y13405152D01*
X15904028Y13344676D01*
X15916123Y13320486D01*
X15928219Y13308390D01*
X15952409Y13296295D01*
X16012885Y13296295D01*
X16037076Y13308390D01*
X16049171Y13320486D01*
X17060333Y13676086D02*
X17072428Y13663990D01*
X17108714Y13651895D01*
X17132904Y13651895D01*
X17169190Y13663990D01*
X17193381Y13688181D01*
X17205476Y13712371D01*
X17217571Y13760752D01*
X17217571Y13797038D01*
X17205476Y13845419D01*
X17193381Y13869610D01*
X17169190Y13893800D01*
X17132904Y13905895D01*
X17108714Y13905895D01*
X17072428Y13893800D01*
X17060333Y13881705D01*
X16842619Y13905895D02*
X16891000Y13905895D01*
X16915190Y13893800D01*
X16927285Y13881705D01*
X16951476Y13845419D01*
X16963571Y13797038D01*
X16963571Y13700276D01*
X16951476Y13676086D01*
X16939381Y13663990D01*
X16915190Y13651895D01*
X16866809Y13651895D01*
X16842619Y13663990D01*
X16830523Y13676086D01*
X16818428Y13700276D01*
X16818428Y13760752D01*
X16830523Y13784943D01*
X16842619Y13797038D01*
X16866809Y13809133D01*
X16915190Y13809133D01*
X16939381Y13797038D01*
X16951476Y13784943D01*
X16963571Y13760752D01*
D11*
X7844743Y9278857D02*
X7892362Y9326476D01*
X7939981Y9469333D01*
X7939981Y9564571D01*
X7892362Y9707429D01*
X7797124Y9802667D01*
X7701886Y9850286D01*
X7511410Y9897905D01*
X7368552Y9897905D01*
X7178076Y9850286D01*
X7082838Y9802667D01*
X6987600Y9707429D01*
X6939981Y9564571D01*
X6939981Y9469333D01*
X6987600Y9326476D01*
X7035219Y9278857D01*
X7939981Y8326476D02*
X7939981Y8897905D01*
X7939981Y8612191D02*
X6939981Y8612191D01*
X7082838Y8707429D01*
X7178076Y8802667D01*
X7225695Y8897905D01*
X7368552Y7755048D02*
X7320933Y7850286D01*
X7273314Y7897905D01*
X7178076Y7945524D01*
X7130457Y7945524D01*
X7035219Y7897905D01*
X6987600Y7850286D01*
X6939981Y7755048D01*
X6939981Y7564571D01*
X6987600Y7469333D01*
X7035219Y7421714D01*
X7130457Y7374095D01*
X7178076Y7374095D01*
X7273314Y7421714D01*
X7320933Y7469333D01*
X7368552Y7564571D01*
X7368552Y7755048D01*
X7416171Y7850286D01*
X7463790Y7897905D01*
X7559029Y7945524D01*
X7749505Y7945524D01*
X7844743Y7897905D01*
X7892362Y7850286D01*
X7939981Y7755048D01*
X7939981Y7564571D01*
X7892362Y7469333D01*
X7844743Y7421714D01*
X7749505Y7374095D01*
X7559029Y7374095D01*
X7463790Y7421714D01*
X7416171Y7469333D01*
X7368552Y7564571D01*
D14*
X14948505Y5064276D02*
X14694505Y5064276D01*
X14694505Y5003800D01*
X14706600Y4967514D01*
X14730790Y4943323D01*
X14754981Y4931228D01*
X14803362Y4919133D01*
X14839648Y4919133D01*
X14888029Y4931228D01*
X14912219Y4943323D01*
X14936410Y4967514D01*
X14948505Y5003800D01*
X14948505Y5064276D01*
X14718695Y4822371D02*
X14706600Y4810276D01*
X14694505Y4786085D01*
X14694505Y4725609D01*
X14706600Y4701419D01*
X14718695Y4689323D01*
X14742886Y4677228D01*
X14767076Y4677228D01*
X14803362Y4689323D01*
X14948505Y4834466D01*
X14948505Y4677228D01*
X7763933Y22496175D02*
X7848600Y22617128D01*
X7909076Y22496175D02*
X7909076Y22750175D01*
X7812314Y22750175D01*
X7788123Y22738080D01*
X7776028Y22725985D01*
X7763933Y22701794D01*
X7763933Y22665509D01*
X7776028Y22641318D01*
X7788123Y22629223D01*
X7812314Y22617128D01*
X7909076Y22617128D01*
X7679266Y22750175D02*
X7522028Y22750175D01*
X7606695Y22653413D01*
X7570409Y22653413D01*
X7546219Y22641318D01*
X7534123Y22629223D01*
X7522028Y22605032D01*
X7522028Y22544556D01*
X7534123Y22520366D01*
X7546219Y22508270D01*
X7570409Y22496175D01*
X7642981Y22496175D01*
X7667171Y22508270D01*
X7679266Y22520366D01*
X7763933Y24370695D02*
X7848600Y24491648D01*
X7909076Y24370695D02*
X7909076Y24624695D01*
X7812314Y24624695D01*
X7788123Y24612600D01*
X7776028Y24600505D01*
X7763933Y24576314D01*
X7763933Y24540029D01*
X7776028Y24515838D01*
X7788123Y24503743D01*
X7812314Y24491648D01*
X7909076Y24491648D01*
X7534123Y24624695D02*
X7655076Y24624695D01*
X7667171Y24503743D01*
X7655076Y24515838D01*
X7630885Y24527933D01*
X7570409Y24527933D01*
X7546219Y24515838D01*
X7534123Y24503743D01*
X7522028Y24479552D01*
X7522028Y24419076D01*
X7534123Y24394886D01*
X7546219Y24382790D01*
X7570409Y24370695D01*
X7630885Y24370695D01*
X7655076Y24382790D01*
X7667171Y24394886D01*
X6900333Y19239895D02*
X6985000Y19360848D01*
X7045476Y19239895D02*
X7045476Y19493895D01*
X6948714Y19493895D01*
X6924523Y19481800D01*
X6912428Y19469705D01*
X6900333Y19445514D01*
X6900333Y19409229D01*
X6912428Y19385038D01*
X6924523Y19372943D01*
X6948714Y19360848D01*
X7045476Y19360848D01*
X6682619Y19493895D02*
X6731000Y19493895D01*
X6755190Y19481800D01*
X6767285Y19469705D01*
X6791476Y19433419D01*
X6803571Y19385038D01*
X6803571Y19288276D01*
X6791476Y19264086D01*
X6779381Y19251990D01*
X6755190Y19239895D01*
X6706809Y19239895D01*
X6682619Y19251990D01*
X6670523Y19264086D01*
X6658428Y19288276D01*
X6658428Y19348752D01*
X6670523Y19372943D01*
X6682619Y19385038D01*
X6706809Y19397133D01*
X6755190Y19397133D01*
X6779381Y19385038D01*
X6791476Y19372943D01*
X6803571Y19348752D01*
X8906933Y17919095D02*
X8991600Y18040048D01*
X9052076Y17919095D02*
X9052076Y18173095D01*
X8955314Y18173095D01*
X8931123Y18161000D01*
X8919028Y18148905D01*
X8906933Y18124714D01*
X8906933Y18088429D01*
X8919028Y18064238D01*
X8931123Y18052143D01*
X8955314Y18040048D01*
X9052076Y18040048D01*
X8822266Y18173095D02*
X8652933Y18173095D01*
X8761790Y17919095D01*
X18679886Y18833495D02*
X18764553Y18954448D01*
X18825029Y18833495D02*
X18825029Y19087495D01*
X18728267Y19087495D01*
X18704076Y19075400D01*
X18691981Y19063305D01*
X18679886Y19039114D01*
X18679886Y19002829D01*
X18691981Y18978638D01*
X18704076Y18966543D01*
X18728267Y18954448D01*
X18825029Y18954448D01*
X18437981Y18833495D02*
X18583124Y18833495D01*
X18510553Y18833495D02*
X18510553Y19087495D01*
X18534743Y19051210D01*
X18558934Y19027019D01*
X18583124Y19014924D01*
X18280743Y19087495D02*
X18256552Y19087495D01*
X18232362Y19075400D01*
X18220267Y19063305D01*
X18208171Y19039114D01*
X18196076Y18990733D01*
X18196076Y18930257D01*
X18208171Y18881876D01*
X18220267Y18857686D01*
X18232362Y18845590D01*
X18256552Y18833495D01*
X18280743Y18833495D01*
X18304933Y18845590D01*
X18317029Y18857686D01*
X18329124Y18881876D01*
X18341219Y18930257D01*
X18341219Y18990733D01*
X18329124Y19039114D01*
X18317029Y19063305D01*
X18304933Y19075400D01*
X18280743Y19087495D01*
X16000186Y18122295D02*
X16084853Y18243248D01*
X16145329Y18122295D02*
X16145329Y18376295D01*
X16048567Y18376295D01*
X16024376Y18364200D01*
X16012281Y18352105D01*
X16000186Y18327914D01*
X16000186Y18291629D01*
X16012281Y18267438D01*
X16024376Y18255343D01*
X16048567Y18243248D01*
X16145329Y18243248D01*
X15758281Y18122295D02*
X15903424Y18122295D01*
X15830853Y18122295D02*
X15830853Y18376295D01*
X15855043Y18340010D01*
X15879234Y18315819D01*
X15903424Y18303724D01*
X15516376Y18122295D02*
X15661519Y18122295D01*
X15588948Y18122295D02*
X15588948Y18376295D01*
X15613138Y18340010D01*
X15637329Y18315819D01*
X15661519Y18303724D01*
D11*
X6671581Y10650457D02*
X6195390Y10983791D01*
X6671581Y11221886D02*
X5671581Y11221886D01*
X5671581Y10840933D01*
X5719200Y10745695D01*
X5766819Y10698076D01*
X5862057Y10650457D01*
X6004914Y10650457D01*
X6100152Y10698076D01*
X6147771Y10745695D01*
X6195390Y10840933D01*
X6195390Y11221886D01*
X6671581Y9698076D02*
X6671581Y10269505D01*
X6671581Y9983791D02*
X5671581Y9983791D01*
X5814438Y10079029D01*
X5909676Y10174267D01*
X5957295Y10269505D01*
X6004914Y8840933D02*
X6671581Y8840933D01*
X5623962Y9079029D02*
X6338248Y9317124D01*
X6338248Y8698076D01*
D14*
X16218505Y4735286D02*
X16097552Y4819953D01*
X16218505Y4880429D02*
X15964505Y4880429D01*
X15964505Y4783667D01*
X15976600Y4759476D01*
X15988695Y4747381D01*
X16012886Y4735286D01*
X16049171Y4735286D01*
X16073362Y4747381D01*
X16085457Y4759476D01*
X16097552Y4783667D01*
X16097552Y4880429D01*
X16218505Y4493381D02*
X16218505Y4638524D01*
X16218505Y4565953D02*
X15964505Y4565953D01*
X16000790Y4590143D01*
X16024981Y4614334D01*
X16037076Y4638524D01*
X15964505Y4263571D02*
X15964505Y4384524D01*
X16085457Y4396619D01*
X16073362Y4384524D01*
X16061267Y4360333D01*
X16061267Y4299857D01*
X16073362Y4275667D01*
X16085457Y4263571D01*
X16109648Y4251476D01*
X16170124Y4251476D01*
X16194314Y4263571D01*
X16206410Y4275667D01*
X16218505Y4299857D01*
X16218505Y4360333D01*
X16206410Y4384524D01*
X16194314Y4396619D01*
X12774386Y20103495D02*
X12859053Y20224448D01*
X12919529Y20103495D02*
X12919529Y20357495D01*
X12822767Y20357495D01*
X12798576Y20345400D01*
X12786481Y20333305D01*
X12774386Y20309114D01*
X12774386Y20272829D01*
X12786481Y20248638D01*
X12798576Y20236543D01*
X12822767Y20224448D01*
X12919529Y20224448D01*
X12532481Y20103495D02*
X12677624Y20103495D01*
X12605053Y20103495D02*
X12605053Y20357495D01*
X12629243Y20321210D01*
X12653434Y20297019D01*
X12677624Y20284924D01*
X12435719Y20333305D02*
X12423624Y20345400D01*
X12399433Y20357495D01*
X12338957Y20357495D01*
X12314767Y20345400D01*
X12302671Y20333305D01*
X12290576Y20309114D01*
X12290576Y20284924D01*
X12302671Y20248638D01*
X12447814Y20103495D01*
X12290576Y20103495D01*
X12512524Y21322695D02*
X12367381Y21322695D01*
X12439952Y21068695D02*
X12439952Y21322695D01*
X12282714Y21068695D02*
X12282714Y21322695D01*
X12185952Y21322695D01*
X12161761Y21310600D01*
X12149666Y21298505D01*
X12137571Y21274314D01*
X12137571Y21238029D01*
X12149666Y21213838D01*
X12161761Y21201743D01*
X12185952Y21189648D01*
X12282714Y21189648D01*
X11907761Y21322695D02*
X12028714Y21322695D01*
X12040809Y21201743D01*
X12028714Y21213838D01*
X12004523Y21225933D01*
X11944047Y21225933D01*
X11919857Y21213838D01*
X11907761Y21201743D01*
X11895666Y21177552D01*
X11895666Y21117076D01*
X11907761Y21092886D01*
X11919857Y21080790D01*
X11944047Y21068695D01*
X12004523Y21068695D01*
X12028714Y21080790D01*
X12040809Y21092886D01*
X17186124Y17233295D02*
X17040981Y17233295D01*
X17113552Y16979295D02*
X17113552Y17233295D01*
X16956314Y16979295D02*
X16956314Y17233295D01*
X16859552Y17233295D01*
X16835361Y17221200D01*
X16823266Y17209105D01*
X16811171Y17184914D01*
X16811171Y17148629D01*
X16823266Y17124438D01*
X16835361Y17112343D01*
X16859552Y17100248D01*
X16956314Y17100248D01*
X16593457Y17233295D02*
X16641838Y17233295D01*
X16666028Y17221200D01*
X16678123Y17209105D01*
X16702314Y17172819D01*
X16714409Y17124438D01*
X16714409Y17027676D01*
X16702314Y17003486D01*
X16690219Y16991390D01*
X16666028Y16979295D01*
X16617647Y16979295D01*
X16593457Y16991390D01*
X16581361Y17003486D01*
X16569266Y17027676D01*
X16569266Y17088152D01*
X16581361Y17112343D01*
X16593457Y17124438D01*
X16617647Y17136533D01*
X16666028Y17136533D01*
X16690219Y17124438D01*
X16702314Y17112343D01*
X16714409Y17088152D01*
X8854924Y20347335D02*
X8709781Y20347335D01*
X8782352Y20093335D02*
X8782352Y20347335D01*
X8625114Y20093335D02*
X8625114Y20347335D01*
X8528352Y20347335D01*
X8504161Y20335240D01*
X8492066Y20323145D01*
X8479971Y20298954D01*
X8479971Y20262669D01*
X8492066Y20238478D01*
X8504161Y20226383D01*
X8528352Y20214288D01*
X8625114Y20214288D01*
X8238066Y20093335D02*
X8383209Y20093335D01*
X8310638Y20093335D02*
X8310638Y20347335D01*
X8334828Y20311050D01*
X8359019Y20286859D01*
X8383209Y20274764D01*
X21250124Y12712095D02*
X21104981Y12712095D01*
X21177552Y12458095D02*
X21177552Y12712095D01*
X21020314Y12458095D02*
X21020314Y12712095D01*
X20923552Y12712095D01*
X20899361Y12700000D01*
X20887266Y12687905D01*
X20875171Y12663714D01*
X20875171Y12627429D01*
X20887266Y12603238D01*
X20899361Y12591143D01*
X20923552Y12579048D01*
X21020314Y12579048D01*
X20790504Y12712095D02*
X20633266Y12712095D01*
X20717933Y12615333D01*
X20681647Y12615333D01*
X20657457Y12603238D01*
X20645361Y12591143D01*
X20633266Y12566952D01*
X20633266Y12506476D01*
X20645361Y12482286D01*
X20657457Y12470190D01*
X20681647Y12458095D01*
X20754219Y12458095D01*
X20778409Y12470190D01*
X20790504Y12482286D01*
X18862524Y20382895D02*
X18717381Y20382895D01*
X18789952Y20128895D02*
X18789952Y20382895D01*
X18632714Y20128895D02*
X18632714Y20382895D01*
X18535952Y20382895D01*
X18511761Y20370800D01*
X18499666Y20358705D01*
X18487571Y20334514D01*
X18487571Y20298229D01*
X18499666Y20274038D01*
X18511761Y20261943D01*
X18535952Y20249848D01*
X18632714Y20249848D01*
X18269857Y20298229D02*
X18269857Y20128895D01*
X18330333Y20394990D02*
X18390809Y20213562D01*
X18233571Y20213562D01*
M02*
