G04 #@! TF.FileFunction,Legend,Top*
%FSLAX46Y46*%
G04 Gerber Fmt 4.6, Leading zero omitted, Abs format (unit mm)*
G04 Created by KiCad (PCBNEW 4.0.5) date 04/28/17 15:12:26*
%MOMM*%
%LPD*%
G01*
G04 APERTURE LIST*
%ADD10C,0.100000*%
%ADD11C,0.150000*%
G04 APERTURE END LIST*
D10*
D11*
X37570043Y12174400D02*
G75*
G03X37570043Y12174400I-282843J0D01*
G01*
X39537200Y9554400D02*
X33817200Y9554400D01*
X39547200Y19584400D02*
X33817200Y19584400D01*
X33817200Y19584400D02*
X33827200Y19564400D01*
X33817200Y19574400D02*
X33817200Y9574400D01*
X39557200Y19574400D02*
X39557200Y9574400D01*
X33997905Y17334019D02*
X33997905Y18334019D01*
X34378858Y18334019D01*
X34474096Y18286400D01*
X34521715Y18238781D01*
X34569334Y18143543D01*
X34569334Y18000686D01*
X34521715Y17905448D01*
X34474096Y17857829D01*
X34378858Y17810210D01*
X33997905Y17810210D01*
X34950286Y18238781D02*
X34997905Y18286400D01*
X35093143Y18334019D01*
X35331239Y18334019D01*
X35426477Y18286400D01*
X35474096Y18238781D01*
X35521715Y18143543D01*
X35521715Y18048305D01*
X35474096Y17905448D01*
X34902667Y17334019D01*
X35521715Y17334019D01*
X14676381Y2843305D02*
X13676381Y2843305D01*
X13676381Y3224258D01*
X13724000Y3319496D01*
X13771619Y3367115D01*
X13866857Y3414734D01*
X14009714Y3414734D01*
X14104952Y3367115D01*
X14152571Y3319496D01*
X14200190Y3224258D01*
X14200190Y2843305D01*
X14676381Y4367115D02*
X14676381Y3795686D01*
X14676381Y4081400D02*
X13676381Y4081400D01*
X13819238Y3986162D01*
X13914476Y3890924D01*
X13962095Y3795686D01*
M02*
