G04 #@! TF.FileFunction,Legend,Bot*
%FSLAX46Y46*%
G04 Gerber Fmt 4.6, Leading zero omitted, Abs format (unit mm)*
G04 Created by KiCad (PCBNEW 4.0.5) date 03/29/17 17:32:54*
%MOMM*%
%LPD*%
G01*
G04 APERTURE LIST*
%ADD10C,0.100000*%
%ADD11C,0.120000*%
%ADD12C,0.150000*%
G04 APERTURE END LIST*
D10*
D11*
X141459500Y-125277500D02*
X141459500Y-124277500D01*
X140099500Y-124277500D02*
X140099500Y-125277500D01*
X127336000Y-131072000D02*
X127336000Y-132072000D01*
X128696000Y-132072000D02*
X128696000Y-131072000D01*
X126537000Y-142105000D02*
X126537000Y-141105000D01*
X125177000Y-141105000D02*
X125177000Y-142105000D01*
X130003000Y-142121000D02*
X130003000Y-143121000D01*
X131363000Y-143121000D02*
X131363000Y-142121000D01*
D12*
X139781881Y-124610834D02*
X139305690Y-124277500D01*
X139781881Y-124039405D02*
X138781881Y-124039405D01*
X138781881Y-124420358D01*
X138829500Y-124515596D01*
X138877119Y-124563215D01*
X138972357Y-124610834D01*
X139115214Y-124610834D01*
X139210452Y-124563215D01*
X139258071Y-124515596D01*
X139305690Y-124420358D01*
X139305690Y-124039405D01*
X138781881Y-124944167D02*
X138781881Y-125563215D01*
X139162833Y-125229881D01*
X139162833Y-125372739D01*
X139210452Y-125467977D01*
X139258071Y-125515596D01*
X139353310Y-125563215D01*
X139591405Y-125563215D01*
X139686643Y-125515596D01*
X139734262Y-125467977D01*
X139781881Y-125372739D01*
X139781881Y-125087024D01*
X139734262Y-124991786D01*
X139686643Y-124944167D01*
X129918381Y-131405334D02*
X129442190Y-131072000D01*
X129918381Y-130833905D02*
X128918381Y-130833905D01*
X128918381Y-131214858D01*
X128966000Y-131310096D01*
X129013619Y-131357715D01*
X129108857Y-131405334D01*
X129251714Y-131405334D01*
X129346952Y-131357715D01*
X129394571Y-131310096D01*
X129442190Y-131214858D01*
X129442190Y-130833905D01*
X128918381Y-132310096D02*
X128918381Y-131833905D01*
X129394571Y-131786286D01*
X129346952Y-131833905D01*
X129299333Y-131929143D01*
X129299333Y-132167239D01*
X129346952Y-132262477D01*
X129394571Y-132310096D01*
X129489810Y-132357715D01*
X129727905Y-132357715D01*
X129823143Y-132310096D01*
X129870762Y-132262477D01*
X129918381Y-132167239D01*
X129918381Y-131929143D01*
X129870762Y-131833905D01*
X129823143Y-131786286D01*
X124859381Y-141438334D02*
X124383190Y-141105000D01*
X124859381Y-140866905D02*
X123859381Y-140866905D01*
X123859381Y-141247858D01*
X123907000Y-141343096D01*
X123954619Y-141390715D01*
X124049857Y-141438334D01*
X124192714Y-141438334D01*
X124287952Y-141390715D01*
X124335571Y-141343096D01*
X124383190Y-141247858D01*
X124383190Y-140866905D01*
X123859381Y-142295477D02*
X123859381Y-142105000D01*
X123907000Y-142009762D01*
X123954619Y-141962143D01*
X124097476Y-141866905D01*
X124287952Y-141819286D01*
X124668905Y-141819286D01*
X124764143Y-141866905D01*
X124811762Y-141914524D01*
X124859381Y-142009762D01*
X124859381Y-142200239D01*
X124811762Y-142295477D01*
X124764143Y-142343096D01*
X124668905Y-142390715D01*
X124430810Y-142390715D01*
X124335571Y-142343096D01*
X124287952Y-142295477D01*
X124240333Y-142200239D01*
X124240333Y-142009762D01*
X124287952Y-141914524D01*
X124335571Y-141866905D01*
X124430810Y-141819286D01*
X132585381Y-142454334D02*
X132109190Y-142121000D01*
X132585381Y-141882905D02*
X131585381Y-141882905D01*
X131585381Y-142263858D01*
X131633000Y-142359096D01*
X131680619Y-142406715D01*
X131775857Y-142454334D01*
X131918714Y-142454334D01*
X132013952Y-142406715D01*
X132061571Y-142359096D01*
X132109190Y-142263858D01*
X132109190Y-141882905D01*
X131585381Y-142787667D02*
X131585381Y-143454334D01*
X132585381Y-143025762D01*
M02*
