G04 #@! TF.FileFunction,Legend,Top*
%FSLAX46Y46*%
G04 Gerber Fmt 4.6, Leading zero omitted, Abs format (unit mm)*
G04 Created by KiCad (PCBNEW 4.0.5) date 05/26/17 17:56:53*
%MOMM*%
%LPD*%
G01*
G04 APERTURE LIST*
%ADD10C,0.100000*%
%ADD11C,0.150000*%
%ADD12C,0.120000*%
%ADD13C,0.152400*%
%ADD14C,0.031750*%
%ADD15C,0.063500*%
G04 APERTURE END LIST*
D10*
D11*
X14946540Y16341000D02*
X14946540Y15816000D01*
X9696540Y11091000D02*
X9696540Y11616000D01*
X14946540Y11091000D02*
X14946540Y11616000D01*
X9696540Y16341000D02*
X10221540Y16341000D01*
X9696540Y11091000D02*
X10221540Y11091000D01*
X14946540Y11091000D02*
X14421540Y11091000D01*
X14946540Y16341000D02*
X14421540Y16341000D01*
D12*
X707340Y5583000D02*
X1967340Y5583000D01*
X7527340Y5583000D02*
X6267340Y5583000D01*
X707340Y9343000D02*
X707340Y5583000D01*
X7527340Y11593000D02*
X7527340Y5583000D01*
X29308540Y24596800D02*
X28608540Y24596800D01*
X28608540Y25796800D02*
X29308540Y25796800D01*
X15726140Y11610800D02*
X15726140Y8810800D01*
X15726140Y8810800D02*
X19026140Y8810800D01*
X23256340Y20349400D02*
X23256340Y20849400D01*
X22316340Y20849400D02*
X22316340Y20349400D01*
X19192140Y10918000D02*
X19192140Y10418000D01*
X20132140Y10418000D02*
X20132140Y10918000D01*
X16618140Y7708800D02*
X17118140Y7708800D01*
X17118140Y8648800D02*
X16618140Y8648800D01*
X22216740Y19188400D02*
X20866740Y19188400D01*
X22216740Y17438400D02*
X20866740Y17438400D01*
D13*
X15496540Y13284200D02*
X15496540Y14147800D01*
X15496540Y14147800D02*
X16918940Y14147800D01*
X16918940Y14147800D02*
X16918940Y13284200D01*
X16918940Y13284200D02*
X15496540Y13284200D01*
D12*
X20716340Y20349400D02*
X20716340Y20849400D01*
X19776340Y20849400D02*
X19776340Y20349400D01*
X28066140Y28972700D02*
X28066140Y29472700D01*
X27006140Y29472700D02*
X27006140Y28972700D01*
X8067940Y20477100D02*
X8067940Y19477100D01*
X9767940Y19477100D02*
X9767940Y20477100D01*
X9905440Y19271500D02*
X9905440Y19971500D01*
X11105440Y19971500D02*
X11105440Y19271500D01*
X11436540Y17297300D02*
X11936540Y17297300D01*
X11936540Y18237300D02*
X11436540Y18237300D01*
X17016540Y13271600D02*
X16516540Y13271600D01*
X16516540Y12331600D02*
X17016540Y12331600D01*
X19280240Y17330800D02*
X19280240Y18330800D01*
X17580240Y18330800D02*
X17580240Y17330800D01*
X17442740Y17812500D02*
X17442740Y17112500D01*
X16242740Y17112500D02*
X16242740Y17812500D01*
X16110140Y15112900D02*
X16610140Y15112900D01*
X16610140Y16052900D02*
X16110140Y16052900D01*
X12008040Y19545200D02*
X12508040Y19545200D01*
X12508040Y20485200D02*
X12008040Y20485200D01*
X12508040Y19532700D02*
X12008040Y19532700D01*
X12008040Y18592700D02*
X12508040Y18592700D01*
X21325940Y13085000D02*
X21325940Y13585000D01*
X20385940Y13585000D02*
X20385940Y13085000D01*
X25847140Y13148500D02*
X25847140Y13648500D01*
X24907140Y13648500D02*
X24907140Y13148500D01*
X3393540Y12716700D02*
X3393540Y13216700D01*
X2453540Y13216700D02*
X2453540Y12716700D01*
X5099240Y12344300D02*
X5599240Y12344300D01*
X5599240Y13284300D02*
X5099240Y13284300D01*
X9223640Y9402700D02*
X9223640Y8402700D01*
X10923640Y8402700D02*
X10923640Y9402700D01*
X7911540Y11029200D02*
X7911540Y11729200D01*
X9111540Y11729200D02*
X9111540Y11029200D01*
X8456740Y13779600D02*
X7956740Y13779600D01*
X7956740Y12839600D02*
X8456740Y12839600D01*
X3643940Y20218400D02*
X3643940Y32978400D01*
X3643940Y32978400D02*
X983940Y32978400D01*
X983940Y32978400D02*
X983940Y20218400D01*
X983940Y20218400D02*
X3643940Y20218400D01*
X3643940Y18948400D02*
X3643940Y17618400D01*
X3643940Y17618400D02*
X2313940Y17618400D01*
X23945440Y8085900D02*
X23945440Y7585900D01*
X25005440Y7585900D02*
X25005440Y8085900D01*
X26999340Y28972700D02*
X26999340Y29472700D01*
X25939340Y29472700D02*
X25939340Y28972700D01*
X22766540Y14531900D02*
X23466540Y14531900D01*
X23466540Y13331900D02*
X22766540Y13331900D01*
X5193440Y23333900D02*
X5193440Y23833900D01*
X4133440Y23833900D02*
X4133440Y23333900D01*
X5256940Y26750200D02*
X5256940Y27250200D01*
X4196940Y27250200D02*
X4196940Y26750200D01*
X4554350Y15042243D02*
X4200797Y14688690D01*
X4950330Y13939157D02*
X5303883Y14292710D01*
X13740540Y8513000D02*
X13740540Y9013000D01*
X12680540Y9013000D02*
X12680540Y8513000D01*
X14820040Y8513000D02*
X14820040Y9013000D01*
X13760040Y9013000D02*
X13760040Y8513000D01*
D14*
X12229858Y14750748D02*
X12229858Y14647938D01*
X12235906Y14635843D01*
X12241953Y14629795D01*
X12254049Y14623748D01*
X12278239Y14623748D01*
X12290334Y14629795D01*
X12296382Y14635843D01*
X12302430Y14647938D01*
X12302430Y14750748D01*
X12429430Y14623748D02*
X12356858Y14623748D01*
X12393144Y14623748D02*
X12393144Y14750748D01*
X12381049Y14732605D01*
X12368954Y14720510D01*
X12356858Y14714462D01*
D11*
X8069721Y6731095D02*
X8879245Y6731095D01*
X8974483Y6778714D01*
X9022102Y6826333D01*
X9069721Y6921571D01*
X9069721Y7112048D01*
X9022102Y7207286D01*
X8974483Y7254905D01*
X8879245Y7302524D01*
X8069721Y7302524D01*
X8164959Y7731095D02*
X8117340Y7778714D01*
X8069721Y7873952D01*
X8069721Y8112048D01*
X8117340Y8207286D01*
X8164959Y8254905D01*
X8260197Y8302524D01*
X8355435Y8302524D01*
X8498292Y8254905D01*
X9069721Y7683476D01*
X9069721Y8302524D01*
X28315683Y23589657D02*
X28268064Y23542038D01*
X28125207Y23494419D01*
X28029969Y23494419D01*
X27887111Y23542038D01*
X27791873Y23637276D01*
X27744254Y23732514D01*
X27696635Y23922990D01*
X27696635Y24065848D01*
X27744254Y24256324D01*
X27791873Y24351562D01*
X27887111Y24446800D01*
X28029969Y24494419D01*
X28125207Y24494419D01*
X28268064Y24446800D01*
X28315683Y24399181D01*
X29268064Y23494419D02*
X28696635Y23494419D01*
X28982349Y23494419D02*
X28982349Y24494419D01*
X28887111Y24351562D01*
X28791873Y24256324D01*
X28696635Y24208705D01*
X29839492Y24065848D02*
X29744254Y24113467D01*
X29696635Y24161086D01*
X29649016Y24256324D01*
X29649016Y24303943D01*
X29696635Y24399181D01*
X29744254Y24446800D01*
X29839492Y24494419D01*
X30029969Y24494419D01*
X30125207Y24446800D01*
X30172826Y24399181D01*
X30220445Y24303943D01*
X30220445Y24256324D01*
X30172826Y24161086D01*
X30125207Y24113467D01*
X30029969Y24065848D01*
X29839492Y24065848D01*
X29744254Y24018229D01*
X29696635Y23970610D01*
X29649016Y23875371D01*
X29649016Y23684895D01*
X29696635Y23589657D01*
X29744254Y23542038D01*
X29839492Y23494419D01*
X30029969Y23494419D01*
X30125207Y23542038D01*
X30172826Y23589657D01*
X30220445Y23684895D01*
X30220445Y23875371D01*
X30172826Y23970610D01*
X30125207Y24018229D01*
X30029969Y24065848D01*
D15*
X17252648Y10219388D02*
X17252648Y10098435D01*
X17167981Y10352435D02*
X17252648Y10219388D01*
X17337315Y10352435D01*
X17409886Y10328245D02*
X17421981Y10340340D01*
X17446172Y10352435D01*
X17506648Y10352435D01*
X17530838Y10340340D01*
X17542934Y10328245D01*
X17555029Y10304054D01*
X17555029Y10279864D01*
X17542934Y10243578D01*
X17397791Y10098435D01*
X17555029Y10098435D01*
X22623054Y20508686D02*
X22610959Y20496590D01*
X22574673Y20484495D01*
X22550483Y20484495D01*
X22514197Y20496590D01*
X22490006Y20520781D01*
X22477911Y20544971D01*
X22465816Y20593352D01*
X22465816Y20629638D01*
X22477911Y20678019D01*
X22490006Y20702210D01*
X22514197Y20726400D01*
X22550483Y20738495D01*
X22574673Y20738495D01*
X22610959Y20726400D01*
X22623054Y20714305D01*
X22864959Y20484495D02*
X22719816Y20484495D01*
X22792387Y20484495D02*
X22792387Y20738495D01*
X22768197Y20702210D01*
X22744006Y20678019D01*
X22719816Y20665924D01*
X22949626Y20738495D02*
X23106864Y20738495D01*
X23022197Y20641733D01*
X23058483Y20641733D01*
X23082673Y20629638D01*
X23094769Y20617543D01*
X23106864Y20593352D01*
X23106864Y20532876D01*
X23094769Y20508686D01*
X23082673Y20496590D01*
X23058483Y20484495D01*
X22985911Y20484495D01*
X22961721Y20496590D01*
X22949626Y20508686D01*
X19498854Y10577286D02*
X19486759Y10565190D01*
X19450473Y10553095D01*
X19426283Y10553095D01*
X19389997Y10565190D01*
X19365806Y10589381D01*
X19353711Y10613571D01*
X19341616Y10661952D01*
X19341616Y10698238D01*
X19353711Y10746619D01*
X19365806Y10770810D01*
X19389997Y10795000D01*
X19426283Y10807095D01*
X19450473Y10807095D01*
X19486759Y10795000D01*
X19498854Y10782905D01*
X19740759Y10553095D02*
X19595616Y10553095D01*
X19668187Y10553095D02*
X19668187Y10807095D01*
X19643997Y10770810D01*
X19619806Y10746619D01*
X19595616Y10734524D01*
X19958473Y10722429D02*
X19958473Y10553095D01*
X19897997Y10819190D02*
X19837521Y10637762D01*
X19994759Y10637762D01*
X16958854Y8015514D02*
X16970950Y8003419D01*
X16983045Y7967133D01*
X16983045Y7942943D01*
X16970950Y7906657D01*
X16946759Y7882466D01*
X16922569Y7870371D01*
X16874188Y7858276D01*
X16837902Y7858276D01*
X16789521Y7870371D01*
X16765330Y7882466D01*
X16741140Y7906657D01*
X16729045Y7942943D01*
X16729045Y7967133D01*
X16741140Y8003419D01*
X16753235Y8015514D01*
X16983045Y8257419D02*
X16983045Y8112276D01*
X16983045Y8184847D02*
X16729045Y8184847D01*
X16765330Y8160657D01*
X16789521Y8136466D01*
X16801616Y8112276D01*
X16729045Y8487229D02*
X16729045Y8366276D01*
X16849997Y8354181D01*
X16837902Y8366276D01*
X16825807Y8390467D01*
X16825807Y8450943D01*
X16837902Y8475133D01*
X16849997Y8487229D01*
X16874188Y8499324D01*
X16934664Y8499324D01*
X16958854Y8487229D01*
X16970950Y8475133D01*
X16983045Y8450943D01*
X16983045Y8390467D01*
X16970950Y8366276D01*
X16958854Y8354181D01*
X21420788Y18319448D02*
X21420788Y18198495D01*
X21336121Y18452495D02*
X21420788Y18319448D01*
X21505455Y18452495D01*
X21723169Y18198495D02*
X21578026Y18198495D01*
X21650597Y18198495D02*
X21650597Y18452495D01*
X21626407Y18416210D01*
X21602216Y18392019D01*
X21578026Y18379924D01*
X15944064Y12972143D02*
X15980350Y12960048D01*
X15992445Y12947952D01*
X16004540Y12923762D01*
X16004540Y12887476D01*
X15992445Y12863286D01*
X15980350Y12851190D01*
X15956159Y12839095D01*
X15859397Y12839095D01*
X15859397Y13093095D01*
X15944064Y13093095D01*
X15968254Y13081000D01*
X15980350Y13068905D01*
X15992445Y13044714D01*
X15992445Y13020524D01*
X15980350Y12996333D01*
X15968254Y12984238D01*
X15944064Y12972143D01*
X15859397Y12972143D01*
X16101302Y12911667D02*
X16222254Y12911667D01*
X16077111Y12839095D02*
X16161778Y13093095D01*
X16246445Y12839095D01*
X16452064Y12839095D02*
X16331111Y12839095D01*
X16331111Y13093095D01*
X16669778Y12839095D02*
X16524635Y12839095D01*
X16597206Y12839095D02*
X16597206Y13093095D01*
X16573016Y13056810D01*
X16548825Y13032619D01*
X16524635Y13020524D01*
X20083054Y20508686D02*
X20070959Y20496590D01*
X20034673Y20484495D01*
X20010483Y20484495D01*
X19974197Y20496590D01*
X19950006Y20520781D01*
X19937911Y20544971D01*
X19925816Y20593352D01*
X19925816Y20629638D01*
X19937911Y20678019D01*
X19950006Y20702210D01*
X19974197Y20726400D01*
X20010483Y20738495D01*
X20034673Y20738495D01*
X20070959Y20726400D01*
X20083054Y20714305D01*
X20324959Y20484495D02*
X20179816Y20484495D01*
X20252387Y20484495D02*
X20252387Y20738495D01*
X20228197Y20702210D01*
X20204006Y20678019D01*
X20179816Y20665924D01*
X20421721Y20714305D02*
X20433816Y20726400D01*
X20458007Y20738495D01*
X20518483Y20738495D01*
X20542673Y20726400D01*
X20554769Y20714305D01*
X20566864Y20690114D01*
X20566864Y20665924D01*
X20554769Y20629638D01*
X20409626Y20484495D01*
X20566864Y20484495D01*
D11*
X11973821Y18250874D02*
X11973821Y17774683D01*
X10973821Y17774683D01*
X11973821Y19108017D02*
X11973821Y18536588D01*
X11973821Y18822302D02*
X10973821Y18822302D01*
X11116678Y18727064D01*
X11211916Y18631826D01*
X11259535Y18536588D01*
X29338521Y28579843D02*
X28862330Y28246509D01*
X29338521Y28008414D02*
X28338521Y28008414D01*
X28338521Y28389367D01*
X28386140Y28484605D01*
X28433759Y28532224D01*
X28528997Y28579843D01*
X28671854Y28579843D01*
X28767092Y28532224D01*
X28814711Y28484605D01*
X28862330Y28389367D01*
X28862330Y28008414D01*
X29338521Y29532224D02*
X29338521Y28960795D01*
X29338521Y29246509D02*
X28338521Y29246509D01*
X28481378Y29151271D01*
X28576616Y29056033D01*
X28624235Y28960795D01*
X28671854Y30389367D02*
X29338521Y30389367D01*
X28290902Y30151271D02*
X29005188Y29913176D01*
X29005188Y30532224D01*
X7775083Y19810434D02*
X7822702Y19762815D01*
X7870321Y19619958D01*
X7870321Y19524720D01*
X7822702Y19381862D01*
X7727464Y19286624D01*
X7632226Y19239005D01*
X7441750Y19191386D01*
X7298892Y19191386D01*
X7108416Y19239005D01*
X7013178Y19286624D01*
X6917940Y19381862D01*
X6870321Y19524720D01*
X6870321Y19619958D01*
X6917940Y19762815D01*
X6965559Y19810434D01*
X7870321Y20762815D02*
X7870321Y20191386D01*
X7870321Y20477100D02*
X6870321Y20477100D01*
X7013178Y20381862D01*
X7108416Y20286624D01*
X7156035Y20191386D01*
X9362583Y19454834D02*
X9410202Y19407215D01*
X9457821Y19264358D01*
X9457821Y19169120D01*
X9410202Y19026262D01*
X9314964Y18931024D01*
X9219726Y18883405D01*
X9029250Y18835786D01*
X8886392Y18835786D01*
X8695916Y18883405D01*
X8600678Y18931024D01*
X8505440Y19026262D01*
X8457821Y19169120D01*
X8457821Y19264358D01*
X8505440Y19407215D01*
X8553059Y19454834D01*
X8553059Y19835786D02*
X8505440Y19883405D01*
X8457821Y19978643D01*
X8457821Y20216739D01*
X8505440Y20311977D01*
X8553059Y20359596D01*
X8648297Y20407215D01*
X8743535Y20407215D01*
X8886392Y20359596D01*
X9457821Y19788167D01*
X9457821Y20407215D01*
X11519874Y16140157D02*
X11472255Y16092538D01*
X11329398Y16044919D01*
X11234160Y16044919D01*
X11091302Y16092538D01*
X10996064Y16187776D01*
X10948445Y16283014D01*
X10900826Y16473490D01*
X10900826Y16616348D01*
X10948445Y16806824D01*
X10996064Y16902062D01*
X11091302Y16997300D01*
X11234160Y17044919D01*
X11329398Y17044919D01*
X11472255Y16997300D01*
X11519874Y16949681D01*
X11853207Y17044919D02*
X12472255Y17044919D01*
X12138921Y16663967D01*
X12281779Y16663967D01*
X12377017Y16616348D01*
X12424636Y16568729D01*
X12472255Y16473490D01*
X12472255Y16235395D01*
X12424636Y16140157D01*
X12377017Y16092538D01*
X12281779Y16044919D01*
X11996064Y16044919D01*
X11900826Y16092538D01*
X11853207Y16140157D01*
X16599874Y13714457D02*
X16552255Y13666838D01*
X16409398Y13619219D01*
X16314160Y13619219D01*
X16171302Y13666838D01*
X16076064Y13762076D01*
X16028445Y13857314D01*
X15980826Y14047790D01*
X15980826Y14190648D01*
X16028445Y14381124D01*
X16076064Y14476362D01*
X16171302Y14571600D01*
X16314160Y14619219D01*
X16409398Y14619219D01*
X16552255Y14571600D01*
X16599874Y14523981D01*
X17457017Y14619219D02*
X17266540Y14619219D01*
X17171302Y14571600D01*
X17123683Y14523981D01*
X17028445Y14381124D01*
X16980826Y14190648D01*
X16980826Y13809695D01*
X17028445Y13714457D01*
X17076064Y13666838D01*
X17171302Y13619219D01*
X17361779Y13619219D01*
X17457017Y13666838D01*
X17504636Y13714457D01*
X17552255Y13809695D01*
X17552255Y14047790D01*
X17504636Y14143029D01*
X17457017Y14190648D01*
X17361779Y14238267D01*
X17171302Y14238267D01*
X17076064Y14190648D01*
X17028445Y14143029D01*
X16980826Y14047790D01*
X20287383Y17664134D02*
X20335002Y17616515D01*
X20382621Y17473658D01*
X20382621Y17378420D01*
X20335002Y17235562D01*
X20239764Y17140324D01*
X20144526Y17092705D01*
X19954050Y17045086D01*
X19811192Y17045086D01*
X19620716Y17092705D01*
X19525478Y17140324D01*
X19430240Y17235562D01*
X19382621Y17378420D01*
X19382621Y17473658D01*
X19430240Y17616515D01*
X19477859Y17664134D01*
X19382621Y17997467D02*
X19382621Y18664134D01*
X20382621Y18235562D01*
X18699883Y17295834D02*
X18747502Y17248215D01*
X18795121Y17105358D01*
X18795121Y17010120D01*
X18747502Y16867262D01*
X18652264Y16772024D01*
X18557026Y16724405D01*
X18366550Y16676786D01*
X18223692Y16676786D01*
X18033216Y16724405D01*
X17937978Y16772024D01*
X17842740Y16867262D01*
X17795121Y17010120D01*
X17795121Y17105358D01*
X17842740Y17248215D01*
X17890359Y17295834D01*
X18223692Y17867262D02*
X18176073Y17772024D01*
X18128454Y17724405D01*
X18033216Y17676786D01*
X17985597Y17676786D01*
X17890359Y17724405D01*
X17842740Y17772024D01*
X17795121Y17867262D01*
X17795121Y18057739D01*
X17842740Y18152977D01*
X17890359Y18200596D01*
X17985597Y18248215D01*
X18033216Y18248215D01*
X18128454Y18200596D01*
X18176073Y18152977D01*
X18223692Y18057739D01*
X18223692Y17867262D01*
X18271311Y17772024D01*
X18318930Y17724405D01*
X18414169Y17676786D01*
X18604645Y17676786D01*
X18699883Y17724405D01*
X18747502Y17772024D01*
X18795121Y17867262D01*
X18795121Y18057739D01*
X18747502Y18152977D01*
X18699883Y18200596D01*
X18604645Y18248215D01*
X18414169Y18248215D01*
X18318930Y18200596D01*
X18271311Y18152977D01*
X18223692Y18057739D01*
X16193474Y13955757D02*
X16145855Y13908138D01*
X16002998Y13860519D01*
X15907760Y13860519D01*
X15764902Y13908138D01*
X15669664Y14003376D01*
X15622045Y14098614D01*
X15574426Y14289090D01*
X15574426Y14431948D01*
X15622045Y14622424D01*
X15669664Y14717662D01*
X15764902Y14812900D01*
X15907760Y14860519D01*
X16002998Y14860519D01*
X16145855Y14812900D01*
X16193474Y14765281D01*
X16669664Y13860519D02*
X16860140Y13860519D01*
X16955379Y13908138D01*
X17002998Y13955757D01*
X17098236Y14098614D01*
X17145855Y14289090D01*
X17145855Y14670043D01*
X17098236Y14765281D01*
X17050617Y14812900D01*
X16955379Y14860519D01*
X16764902Y14860519D01*
X16669664Y14812900D01*
X16622045Y14765281D01*
X16574426Y14670043D01*
X16574426Y14431948D01*
X16622045Y14336710D01*
X16669664Y14289090D01*
X16764902Y14241471D01*
X16955379Y14241471D01*
X17050617Y14289090D01*
X17098236Y14336710D01*
X17145855Y14431948D01*
X11615183Y18388057D02*
X11567564Y18340438D01*
X11424707Y18292819D01*
X11329469Y18292819D01*
X11186611Y18340438D01*
X11091373Y18435676D01*
X11043754Y18530914D01*
X10996135Y18721390D01*
X10996135Y18864248D01*
X11043754Y19054724D01*
X11091373Y19149962D01*
X11186611Y19245200D01*
X11329469Y19292819D01*
X11424707Y19292819D01*
X11567564Y19245200D01*
X11615183Y19197581D01*
X12567564Y18292819D02*
X11996135Y18292819D01*
X12281849Y18292819D02*
X12281849Y19292819D01*
X12186611Y19149962D01*
X12091373Y19054724D01*
X11996135Y19007105D01*
X13186611Y19292819D02*
X13281850Y19292819D01*
X13377088Y19245200D01*
X13424707Y19197581D01*
X13472326Y19102343D01*
X13519945Y18911867D01*
X13519945Y18673771D01*
X13472326Y18483295D01*
X13424707Y18388057D01*
X13377088Y18340438D01*
X13281850Y18292819D01*
X13186611Y18292819D01*
X13091373Y18340438D01*
X13043754Y18388057D01*
X12996135Y18483295D01*
X12948516Y18673771D01*
X12948516Y18911867D01*
X12996135Y19102343D01*
X13043754Y19197581D01*
X13091373Y19245200D01*
X13186611Y19292819D01*
X11615183Y19975557D02*
X11567564Y19927938D01*
X11424707Y19880319D01*
X11329469Y19880319D01*
X11186611Y19927938D01*
X11091373Y20023176D01*
X11043754Y20118414D01*
X10996135Y20308890D01*
X10996135Y20451748D01*
X11043754Y20642224D01*
X11091373Y20737462D01*
X11186611Y20832700D01*
X11329469Y20880319D01*
X11424707Y20880319D01*
X11567564Y20832700D01*
X11615183Y20785081D01*
X12567564Y19880319D02*
X11996135Y19880319D01*
X12281849Y19880319D02*
X12281849Y20880319D01*
X12186611Y20737462D01*
X12091373Y20642224D01*
X11996135Y20594605D01*
X13519945Y19880319D02*
X12948516Y19880319D01*
X13234230Y19880319D02*
X13234230Y20880319D01*
X13138992Y20737462D01*
X13043754Y20642224D01*
X12948516Y20594605D01*
X22483083Y12692143D02*
X22530702Y12644524D01*
X22578321Y12501667D01*
X22578321Y12406429D01*
X22530702Y12263571D01*
X22435464Y12168333D01*
X22340226Y12120714D01*
X22149750Y12073095D01*
X22006892Y12073095D01*
X21816416Y12120714D01*
X21721178Y12168333D01*
X21625940Y12263571D01*
X21578321Y12406429D01*
X21578321Y12501667D01*
X21625940Y12644524D01*
X21673559Y12692143D01*
X22578321Y13644524D02*
X22578321Y13073095D01*
X22578321Y13358809D02*
X21578321Y13358809D01*
X21721178Y13263571D01*
X21816416Y13168333D01*
X21864035Y13073095D01*
X21578321Y14501667D02*
X21578321Y14311190D01*
X21625940Y14215952D01*
X21673559Y14168333D01*
X21816416Y14073095D01*
X22006892Y14025476D01*
X22387845Y14025476D01*
X22483083Y14073095D01*
X22530702Y14120714D01*
X22578321Y14215952D01*
X22578321Y14406429D01*
X22530702Y14501667D01*
X22483083Y14549286D01*
X22387845Y14596905D01*
X22149750Y14596905D01*
X22054511Y14549286D01*
X22006892Y14501667D01*
X21959273Y14406429D01*
X21959273Y14215952D01*
X22006892Y14120714D01*
X22054511Y14073095D01*
X22149750Y14025476D01*
X27004283Y12755643D02*
X27051902Y12708024D01*
X27099521Y12565167D01*
X27099521Y12469929D01*
X27051902Y12327071D01*
X26956664Y12231833D01*
X26861426Y12184214D01*
X26670950Y12136595D01*
X26528092Y12136595D01*
X26337616Y12184214D01*
X26242378Y12231833D01*
X26147140Y12327071D01*
X26099521Y12469929D01*
X26099521Y12565167D01*
X26147140Y12708024D01*
X26194759Y12755643D01*
X27099521Y13708024D02*
X27099521Y13136595D01*
X27099521Y13422309D02*
X26099521Y13422309D01*
X26242378Y13327071D01*
X26337616Y13231833D01*
X26385235Y13136595D01*
X26099521Y14041357D02*
X26099521Y14708024D01*
X27099521Y14279452D01*
X4550683Y12323843D02*
X4598302Y12276224D01*
X4645921Y12133367D01*
X4645921Y12038129D01*
X4598302Y11895271D01*
X4503064Y11800033D01*
X4407826Y11752414D01*
X4217350Y11704795D01*
X4074492Y11704795D01*
X3884016Y11752414D01*
X3788778Y11800033D01*
X3693540Y11895271D01*
X3645921Y12038129D01*
X3645921Y12133367D01*
X3693540Y12276224D01*
X3741159Y12323843D01*
X3741159Y12704795D02*
X3693540Y12752414D01*
X3645921Y12847652D01*
X3645921Y13085748D01*
X3693540Y13180986D01*
X3741159Y13228605D01*
X3836397Y13276224D01*
X3931635Y13276224D01*
X4074492Y13228605D01*
X4645921Y12657176D01*
X4645921Y13276224D01*
X3645921Y13895271D02*
X3645921Y13990510D01*
X3693540Y14085748D01*
X3741159Y14133367D01*
X3836397Y14180986D01*
X4026873Y14228605D01*
X4264969Y14228605D01*
X4455445Y14180986D01*
X4550683Y14133367D01*
X4598302Y14085748D01*
X4645921Y13990510D01*
X4645921Y13895271D01*
X4598302Y13800033D01*
X4550683Y13752414D01*
X4455445Y13704795D01*
X4264969Y13657176D01*
X4026873Y13657176D01*
X3836397Y13704795D01*
X3741159Y13752414D01*
X3693540Y13800033D01*
X3645921Y13895271D01*
X4706383Y11187157D02*
X4658764Y11139538D01*
X4515907Y11091919D01*
X4420669Y11091919D01*
X4277811Y11139538D01*
X4182573Y11234776D01*
X4134954Y11330014D01*
X4087335Y11520490D01*
X4087335Y11663348D01*
X4134954Y11853824D01*
X4182573Y11949062D01*
X4277811Y12044300D01*
X4420669Y12091919D01*
X4515907Y12091919D01*
X4658764Y12044300D01*
X4706383Y11996681D01*
X5087335Y11996681D02*
X5134954Y12044300D01*
X5230192Y12091919D01*
X5468288Y12091919D01*
X5563526Y12044300D01*
X5611145Y11996681D01*
X5658764Y11901443D01*
X5658764Y11806205D01*
X5611145Y11663348D01*
X5039716Y11091919D01*
X5658764Y11091919D01*
X6611145Y11091919D02*
X6039716Y11091919D01*
X6325430Y11091919D02*
X6325430Y12091919D01*
X6230192Y11949062D01*
X6134954Y11853824D01*
X6039716Y11806205D01*
X8930783Y8259843D02*
X8978402Y8212224D01*
X9026021Y8069367D01*
X9026021Y7974129D01*
X8978402Y7831271D01*
X8883164Y7736033D01*
X8787926Y7688414D01*
X8597450Y7640795D01*
X8454592Y7640795D01*
X8264116Y7688414D01*
X8168878Y7736033D01*
X8073640Y7831271D01*
X8026021Y7974129D01*
X8026021Y8069367D01*
X8073640Y8212224D01*
X8121259Y8259843D01*
X8121259Y8640795D02*
X8073640Y8688414D01*
X8026021Y8783652D01*
X8026021Y9021748D01*
X8073640Y9116986D01*
X8121259Y9164605D01*
X8216497Y9212224D01*
X8311735Y9212224D01*
X8454592Y9164605D01*
X9026021Y8593176D01*
X9026021Y9212224D01*
X8121259Y9593176D02*
X8073640Y9640795D01*
X8026021Y9736033D01*
X8026021Y9974129D01*
X8073640Y10069367D01*
X8121259Y10116986D01*
X8216497Y10164605D01*
X8311735Y10164605D01*
X8454592Y10116986D01*
X9026021Y9545557D01*
X9026021Y10164605D01*
X7368683Y10736343D02*
X7416302Y10688724D01*
X7463921Y10545867D01*
X7463921Y10450629D01*
X7416302Y10307771D01*
X7321064Y10212533D01*
X7225826Y10164914D01*
X7035350Y10117295D01*
X6892492Y10117295D01*
X6702016Y10164914D01*
X6606778Y10212533D01*
X6511540Y10307771D01*
X6463921Y10450629D01*
X6463921Y10545867D01*
X6511540Y10688724D01*
X6559159Y10736343D01*
X6559159Y11117295D02*
X6511540Y11164914D01*
X6463921Y11260152D01*
X6463921Y11498248D01*
X6511540Y11593486D01*
X6559159Y11641105D01*
X6654397Y11688724D01*
X6749635Y11688724D01*
X6892492Y11641105D01*
X7463921Y11069676D01*
X7463921Y11688724D01*
X6463921Y12022057D02*
X6463921Y12641105D01*
X6844873Y12307771D01*
X6844873Y12450629D01*
X6892492Y12545867D01*
X6940111Y12593486D01*
X7035350Y12641105D01*
X7273445Y12641105D01*
X7368683Y12593486D01*
X7416302Y12545867D01*
X7463921Y12450629D01*
X7463921Y12164914D01*
X7416302Y12069676D01*
X7368683Y12022057D01*
X7563883Y14222457D02*
X7516264Y14174838D01*
X7373407Y14127219D01*
X7278169Y14127219D01*
X7135311Y14174838D01*
X7040073Y14270076D01*
X6992454Y14365314D01*
X6944835Y14555790D01*
X6944835Y14698648D01*
X6992454Y14889124D01*
X7040073Y14984362D01*
X7135311Y15079600D01*
X7278169Y15127219D01*
X7373407Y15127219D01*
X7516264Y15079600D01*
X7563883Y15031981D01*
X7944835Y15031981D02*
X7992454Y15079600D01*
X8087692Y15127219D01*
X8325788Y15127219D01*
X8421026Y15079600D01*
X8468645Y15031981D01*
X8516264Y14936743D01*
X8516264Y14841505D01*
X8468645Y14698648D01*
X7897216Y14127219D01*
X8516264Y14127219D01*
X9373407Y14793886D02*
X9373407Y14127219D01*
X9135311Y15174838D02*
X8897216Y14460552D01*
X9516264Y14460552D01*
X1980607Y17166019D02*
X1980607Y16451733D01*
X1932987Y16308876D01*
X1837749Y16213638D01*
X1694892Y16166019D01*
X1599654Y16166019D01*
X2980607Y16166019D02*
X2409178Y16166019D01*
X2694892Y16166019D02*
X2694892Y17166019D01*
X2599654Y17023162D01*
X2504416Y16927924D01*
X2409178Y16880305D01*
X23577821Y7193043D02*
X23101630Y6859709D01*
X23577821Y6621614D02*
X22577821Y6621614D01*
X22577821Y7002567D01*
X22625440Y7097805D01*
X22673059Y7145424D01*
X22768297Y7193043D01*
X22911154Y7193043D01*
X23006392Y7145424D01*
X23054011Y7097805D01*
X23101630Y7002567D01*
X23101630Y6621614D01*
X23577821Y8145424D02*
X23577821Y7573995D01*
X23577821Y7859709D02*
X22577821Y7859709D01*
X22720678Y7764471D01*
X22815916Y7669233D01*
X22863535Y7573995D01*
X22577821Y9050186D02*
X22577821Y8573995D01*
X23054011Y8526376D01*
X23006392Y8573995D01*
X22958773Y8669233D01*
X22958773Y8907329D01*
X23006392Y9002567D01*
X23054011Y9050186D01*
X23149250Y9097805D01*
X23387345Y9097805D01*
X23482583Y9050186D01*
X23530202Y9002567D01*
X23577821Y8907329D01*
X23577821Y8669233D01*
X23530202Y8573995D01*
X23482583Y8526376D01*
X28271721Y28579843D02*
X27795530Y28246509D01*
X28271721Y28008414D02*
X27271721Y28008414D01*
X27271721Y28389367D01*
X27319340Y28484605D01*
X27366959Y28532224D01*
X27462197Y28579843D01*
X27605054Y28579843D01*
X27700292Y28532224D01*
X27747911Y28484605D01*
X27795530Y28389367D01*
X27795530Y28008414D01*
X28271721Y29532224D02*
X28271721Y28960795D01*
X28271721Y29246509D02*
X27271721Y29246509D01*
X27414578Y29151271D01*
X27509816Y29056033D01*
X27557435Y28960795D01*
X27271721Y29865557D02*
X27271721Y30532224D01*
X28271721Y30103652D01*
X22949874Y14729519D02*
X22473683Y14729519D01*
X22473683Y15729519D01*
X23235588Y15634281D02*
X23283207Y15681900D01*
X23378445Y15729519D01*
X23616541Y15729519D01*
X23711779Y15681900D01*
X23759398Y15634281D01*
X23807017Y15539043D01*
X23807017Y15443805D01*
X23759398Y15300948D01*
X23187969Y14729519D01*
X23807017Y14729519D01*
X6465821Y23417234D02*
X5989630Y23083900D01*
X6465821Y22845805D02*
X5465821Y22845805D01*
X5465821Y23226758D01*
X5513440Y23321996D01*
X5561059Y23369615D01*
X5656297Y23417234D01*
X5799154Y23417234D01*
X5894392Y23369615D01*
X5942011Y23321996D01*
X5989630Y23226758D01*
X5989630Y22845805D01*
X5465821Y23750567D02*
X5465821Y24369615D01*
X5846773Y24036281D01*
X5846773Y24179139D01*
X5894392Y24274377D01*
X5942011Y24321996D01*
X6037250Y24369615D01*
X6275345Y24369615D01*
X6370583Y24321996D01*
X6418202Y24274377D01*
X6465821Y24179139D01*
X6465821Y23893424D01*
X6418202Y23798186D01*
X6370583Y23750567D01*
X6529321Y26833534D02*
X6053130Y26500200D01*
X6529321Y26262105D02*
X5529321Y26262105D01*
X5529321Y26643058D01*
X5576940Y26738296D01*
X5624559Y26785915D01*
X5719797Y26833534D01*
X5862654Y26833534D01*
X5957892Y26785915D01*
X6005511Y26738296D01*
X6053130Y26643058D01*
X6053130Y26262105D01*
X5529321Y27738296D02*
X5529321Y27262105D01*
X6005511Y27214486D01*
X5957892Y27262105D01*
X5910273Y27357343D01*
X5910273Y27595439D01*
X5957892Y27690677D01*
X6005511Y27738296D01*
X6100750Y27785915D01*
X6338845Y27785915D01*
X6434083Y27738296D01*
X6481702Y27690677D01*
X6529321Y27595439D01*
X6529321Y27357343D01*
X6481702Y27262105D01*
X6434083Y27214486D01*
X3999777Y15007562D02*
X3427356Y15108577D01*
X3595716Y14603500D02*
X2888609Y15310607D01*
X3157983Y15579982D01*
X3258999Y15613653D01*
X3326342Y15613653D01*
X3427357Y15579982D01*
X3528372Y15478966D01*
X3562044Y15377951D01*
X3562044Y15310608D01*
X3528372Y15209593D01*
X3258998Y14940218D01*
X4134464Y16085058D02*
X4605869Y15613653D01*
X3696731Y16186072D02*
X4033449Y15512637D01*
X4471182Y15950370D01*
X15012921Y8596334D02*
X14536730Y8263000D01*
X15012921Y8024905D02*
X14012921Y8024905D01*
X14012921Y8405858D01*
X14060540Y8501096D01*
X14108159Y8548715D01*
X14203397Y8596334D01*
X14346254Y8596334D01*
X14441492Y8548715D01*
X14489111Y8501096D01*
X14536730Y8405858D01*
X14536730Y8024905D01*
X14108159Y8977286D02*
X14060540Y9024905D01*
X14012921Y9120143D01*
X14012921Y9358239D01*
X14060540Y9453477D01*
X14108159Y9501096D01*
X14203397Y9548715D01*
X14298635Y9548715D01*
X14441492Y9501096D01*
X15012921Y8929667D01*
X15012921Y9548715D01*
X16092421Y8596334D02*
X15616230Y8263000D01*
X16092421Y8024905D02*
X15092421Y8024905D01*
X15092421Y8405858D01*
X15140040Y8501096D01*
X15187659Y8548715D01*
X15282897Y8596334D01*
X15425754Y8596334D01*
X15520992Y8548715D01*
X15568611Y8501096D01*
X15616230Y8405858D01*
X15616230Y8024905D01*
X16092421Y9548715D02*
X16092421Y8977286D01*
X16092421Y9263000D02*
X15092421Y9263000D01*
X15235278Y9167762D01*
X15330516Y9072524D01*
X15378135Y8977286D01*
M02*
