G04 #@! TF.FileFunction,Copper,L1,Top,Signal*
%FSLAX46Y46*%
G04 Gerber Fmt 4.6, Leading zero omitted, Abs format (unit mm)*
G04 Created by KiCad (PCBNEW 4.0.5) date 05/26/17 17:56:53*
%MOMM*%
%LPD*%
G01*
G04 APERTURE LIST*
%ADD10C,0.100000*%
%ADD11R,0.812800X0.254000*%
%ADD12R,0.254000X0.812800*%
%ADD13R,1.725000X1.725000*%
%ADD14C,2.032000*%
%ADD15R,3.800000X2.000000*%
%ADD16R,1.500000X2.000000*%
%ADD17R,1.200000X0.750000*%
%ADD18C,0.356000*%
%ADD19R,1.150000X1.000000*%
%ADD20R,0.500000X0.600000*%
%ADD21R,0.600000X0.500000*%
%ADD22R,1.000000X1.800000*%
%ADD23R,0.330200X0.330200*%
%ADD24R,2.540000X1.021080*%
%ADD25R,0.600000X0.400000*%
%ADD26R,1.250000X1.000000*%
%ADD27R,0.750000X0.800000*%
%ADD28R,1.700000X1.700000*%
%ADD29O,1.700000X1.700000*%
%ADD30O,1.727200X3.048000*%
%ADD31C,1.016000*%
%ADD32C,0.558800*%
%ADD33C,0.254000*%
%ADD34C,0.558800*%
%ADD35C,1.016000*%
%ADD36C,0.152400*%
G04 APERTURE END LIST*
D10*
D11*
X9781540Y15466000D03*
X9781540Y14966000D03*
X9781540Y14466000D03*
X9781540Y13966000D03*
X9781540Y13466000D03*
X9781540Y12966000D03*
X9781540Y12466000D03*
X9781540Y11966000D03*
D12*
X10571540Y11176000D03*
X11071540Y11176000D03*
X11571540Y11176000D03*
X12071540Y11176000D03*
X12571540Y11176000D03*
X13071540Y11176000D03*
X13571540Y11176000D03*
X14071540Y11176000D03*
D11*
X14861540Y11966000D03*
X14861540Y12466000D03*
X14861540Y12966000D03*
X14861540Y13466000D03*
X14861540Y13966000D03*
X14861540Y14466000D03*
X14861540Y14966000D03*
X14861540Y15466000D03*
D12*
X14071540Y16256000D03*
X13571540Y16256000D03*
X13071540Y16256000D03*
X12571540Y16256000D03*
X12071540Y16256000D03*
X11571540Y16256000D03*
X11051540Y16256000D03*
X10571540Y16256000D03*
D13*
X13184040Y12853500D03*
X13184040Y14578500D03*
X11459040Y12853500D03*
X11459040Y14578500D03*
D14*
X13464540Y31521400D03*
X10924540Y31521400D03*
X12194540Y4597400D03*
D15*
X4117340Y4343000D03*
D16*
X4117340Y10643000D03*
X1817340Y10643000D03*
X6417340Y10643000D03*
D17*
X29908540Y25196800D03*
X28008540Y25196800D03*
D18*
X16880840Y18237200D03*
X20881340Y9956800D03*
X20881340Y10617200D03*
X20881340Y9296400D03*
X25681940Y5054600D03*
X25681940Y7594600D03*
X25681940Y10769600D03*
X25681940Y11404600D03*
X25681940Y8229600D03*
X25681940Y6324600D03*
X25681940Y5689600D03*
X25681940Y8864600D03*
X25681940Y10134600D03*
X25681940Y9499600D03*
X25681940Y6959600D03*
X20881340Y7315200D03*
X25681940Y3784600D03*
X16563340Y6756400D03*
X25681940Y4419600D03*
X18544540Y6756400D03*
X20957540Y15265400D03*
X18900140Y22453600D03*
X19204940Y6756400D03*
X17223740Y6756400D03*
X17884140Y6756400D03*
X19865340Y6756400D03*
X20881340Y8636000D03*
X15902940Y6756400D03*
X25681940Y3149600D03*
X25681940Y2514600D03*
X15255240Y6756400D03*
X25681940Y1244600D03*
X25681940Y609600D03*
X20525740Y6756400D03*
X25173940Y11785600D03*
X29085540Y17526000D03*
X27942540Y17526000D03*
X25402540Y15621000D03*
X24640540Y15621000D03*
X23815040Y15621000D03*
X23053040Y15621000D03*
X23815040Y16827500D03*
X23815040Y20066000D03*
X23815040Y21336000D03*
X34546540Y17526000D03*
X20474940Y14782800D03*
X10276840Y17767300D03*
X17693640Y15595600D03*
X36019740Y18516600D03*
X18900140Y20802600D03*
X14937740Y7327900D03*
X18290540Y9550400D03*
X16512540Y10972800D03*
X12588240Y10058400D03*
X19662140Y8166100D03*
X13934440Y7327900D03*
X19662140Y9309100D03*
X25681940Y1879600D03*
X18519140Y8166100D03*
X23230840Y7785100D03*
X20881340Y7975600D03*
X18430240Y17830800D03*
X25212040Y20955000D03*
X23713440Y22517100D03*
X33403540Y17526000D03*
X25212040Y17526000D03*
X25212040Y16383000D03*
X22291040Y15621000D03*
X21529040Y15621000D03*
X21516340Y22123400D03*
X25212040Y22237700D03*
X30228540Y17526000D03*
X18900140Y21640800D03*
X13591540Y12446000D03*
X12956540Y12446000D03*
X12321540Y12446000D03*
X11686540Y12446000D03*
X11051540Y12446000D03*
X11051540Y13081000D03*
X11686540Y13081000D03*
X12321540Y13081000D03*
X12956540Y13081000D03*
X13591540Y13081000D03*
X13591540Y13716000D03*
X12956540Y13716000D03*
X12321540Y13716000D03*
X11686540Y13716000D03*
X11051540Y13716000D03*
X11051540Y14351000D03*
X11686540Y14351000D03*
X12321540Y14351000D03*
X12956540Y14351000D03*
X13591540Y14351000D03*
X13591540Y14986000D03*
X12956540Y14986000D03*
X12321540Y14986000D03*
X11686540Y14986000D03*
D19*
X16501140Y9510800D03*
X18251140Y9510800D03*
X18251140Y10910800D03*
X16501140Y10910800D03*
D18*
X11051540Y14986000D03*
D20*
X22786340Y21149400D03*
X22786340Y20049400D03*
X19662140Y10118000D03*
X19662140Y11218000D03*
D21*
X17418140Y8178800D03*
X16318140Y8178800D03*
D22*
X20291740Y18313400D03*
X22791740Y18313400D03*
D23*
X15699740Y13957300D03*
X15699740Y13474700D03*
X16715740Y13957300D03*
X16715740Y13474700D03*
D20*
X20246340Y21149400D03*
X20246340Y20049400D03*
D24*
X14721840Y19763740D03*
X14721840Y17472660D03*
D25*
X27536140Y29672700D03*
X27536140Y28772700D03*
D26*
X8917940Y18977100D03*
X8917940Y20977100D03*
D27*
X10505440Y18871500D03*
X10505440Y20371500D03*
D21*
X12236540Y17767300D03*
X11136540Y17767300D03*
X16216540Y12801600D03*
X17316540Y12801600D03*
D26*
X18430240Y18830800D03*
X18430240Y16830800D03*
D27*
X16842740Y18212500D03*
X16842740Y16712500D03*
D21*
X16910140Y15582900D03*
X15810140Y15582900D03*
X12808040Y20015200D03*
X11708040Y20015200D03*
X11708040Y19062700D03*
X12808040Y19062700D03*
D20*
X20855940Y13885000D03*
X20855940Y12785000D03*
X25377140Y13948500D03*
X25377140Y12848500D03*
X2923540Y13516700D03*
X2923540Y12416700D03*
D21*
X5899240Y12814300D03*
X4799240Y12814300D03*
D26*
X10073640Y7902700D03*
X10073640Y9902700D03*
D27*
X8511540Y10629200D03*
X8511540Y12129200D03*
D21*
X7656740Y13309600D03*
X8756740Y13309600D03*
D28*
X2313940Y18948400D03*
D29*
X2313940Y21488400D03*
X2313940Y24028400D03*
X2313940Y26568400D03*
X2313940Y29108400D03*
X2313940Y31648400D03*
D30*
X31549340Y31851600D03*
X26469340Y31851600D03*
X31549340Y19151600D03*
X26469340Y19151600D03*
D25*
X24475440Y7385900D03*
X24475440Y8285900D03*
X26469340Y29672700D03*
X26469340Y28772700D03*
D17*
X22166540Y13931900D03*
X24066540Y13931900D03*
D25*
X4663440Y24033900D03*
X4663440Y23133900D03*
X4726940Y27450200D03*
X4726940Y26550200D03*
D10*
G36*
X4504853Y13818949D02*
X4080589Y14243213D01*
X4363431Y14526055D01*
X4787695Y14101791D01*
X4504853Y13818949D01*
X4504853Y13818949D01*
G37*
G36*
X5141249Y14455345D02*
X4716985Y14879609D01*
X4999827Y15162451D01*
X5424091Y14738187D01*
X5141249Y14455345D01*
X5141249Y14455345D01*
G37*
D25*
X13210540Y9213000D03*
X13210540Y8313000D03*
X14290040Y9213000D03*
X14290040Y8313000D03*
D31*
X15547340Y2286000D03*
X7927340Y2286000D03*
X11737340Y2286000D03*
D32*
X16216540Y12801600D03*
D31*
X17668240Y20815300D03*
D32*
X18442940Y16833000D03*
D31*
X28958540Y27152600D03*
D32*
X17515840Y29070300D03*
X13705840Y29070300D03*
X9895840Y29070300D03*
X29908540Y25196800D03*
X10086340Y9880600D03*
D31*
X4117340Y7683500D03*
D32*
X8917940Y18977100D03*
X18251140Y10910800D03*
X14721840Y17472660D03*
X14703640Y19773900D03*
X20291740Y18313400D03*
X34724340Y28778200D03*
X24475440Y6438900D03*
X28008540Y25196800D03*
X11572240Y16916400D03*
X15420340Y16395700D03*
X11635740Y10058400D03*
X18150840Y4216400D03*
X23167340Y4216400D03*
D33*
X11051540Y16256000D02*
X11051540Y16662400D01*
X11051540Y16662400D02*
X11038840Y16675100D01*
X25347840Y13931900D02*
X25377140Y13961200D01*
X22799040Y21187500D02*
X20301040Y21187500D01*
X20301040Y21187500D02*
X20259040Y21145500D01*
X20259040Y21145500D02*
X20259040Y21187500D01*
D34*
X13184040Y14578500D02*
X13591540Y14986000D01*
X12956540Y14986000D02*
X13184040Y14578500D01*
X13184040Y14578500D02*
X12729040Y14578500D01*
X12729040Y14578500D02*
X12321540Y14986000D01*
X11686540Y14986000D02*
X11459040Y14578500D01*
X11459040Y14578500D02*
X11051540Y14986000D01*
X11051540Y14351000D02*
X11459040Y14578500D01*
X11459040Y14578500D02*
X11686540Y14351000D01*
X12321540Y14351000D02*
X13184040Y14578500D01*
X13184040Y14578500D02*
X12956540Y14351000D01*
X13591540Y14351000D02*
X13184040Y14578500D01*
X13184040Y12853500D02*
X13184040Y13308500D01*
X13184040Y13308500D02*
X13591540Y13716000D01*
X12956540Y13716000D02*
X13184040Y12853500D01*
X13184040Y12853500D02*
X12321540Y13716000D01*
X11686540Y13716000D02*
X11459040Y12853500D01*
X11459040Y12853500D02*
X11459040Y13308500D01*
X11459040Y13308500D02*
X11051540Y13716000D01*
X11051540Y13081000D02*
X11459040Y12853500D01*
X11459040Y12853500D02*
X11686540Y13081000D01*
X12321540Y13081000D02*
X13184040Y12853500D01*
X13184040Y12853500D02*
X12956540Y13081000D01*
X13591540Y13081000D02*
X13184040Y12853500D01*
X13184040Y12853500D02*
X13591540Y12446000D01*
X12956540Y12446000D02*
X13184040Y12853500D01*
X13184040Y12853500D02*
X12729040Y12853500D01*
X12729040Y12853500D02*
X12321540Y12446000D01*
X11686540Y12446000D02*
X11459040Y12853500D01*
X11459040Y12853500D02*
X11051540Y12446000D01*
D33*
X14861540Y15466000D02*
X15693240Y15466000D01*
X15693240Y15466000D02*
X15810140Y15582900D01*
D35*
X11737340Y2286000D02*
X15547340Y2286000D01*
X4117340Y2616200D02*
X4447540Y2286000D01*
X4447540Y2286000D02*
X7927340Y2286000D01*
X4117340Y4343000D02*
X4117340Y2730500D01*
X4117340Y2730500D02*
X4117340Y2616200D01*
D33*
X14785340Y12966000D02*
X16052140Y12966000D01*
D35*
X17515840Y29070300D02*
X17668240Y20815300D01*
D33*
X18442940Y16833000D02*
X18440740Y16830800D01*
X18440740Y16830800D02*
X18430240Y16830800D01*
D35*
X17515840Y29070300D02*
X23878540Y29070300D01*
X23878540Y29070300D02*
X25796240Y27152600D01*
X25796240Y27152600D02*
X28958540Y27152600D01*
X9895840Y29070300D02*
X13705840Y29070300D01*
D33*
X18430240Y16830800D02*
X16961040Y16830800D01*
X16961040Y16830800D02*
X16842740Y16712500D01*
X15810140Y15582900D02*
X15810140Y15679900D01*
X15810140Y15679900D02*
X16842740Y16712500D01*
X14785340Y15466000D02*
X15693240Y15466000D01*
X15693240Y15466000D02*
X15810140Y15582900D01*
D34*
X10086340Y9880600D02*
X10073640Y9893300D01*
X10073640Y9893300D02*
X10073640Y9902700D01*
D33*
X4799240Y12814300D02*
X4799240Y12429400D01*
X4117340Y11747500D02*
X4117340Y11620500D01*
X4799240Y12429400D02*
X4117340Y11747500D01*
X8511540Y12129200D02*
X4626040Y12129200D01*
X4626040Y12129200D02*
X4117340Y11620500D01*
X4117340Y11620500D02*
X4117340Y11620500D01*
X4117340Y11620500D02*
X4117340Y10643000D01*
X8511540Y12129200D02*
X8511540Y11887200D01*
X8511540Y11887200D02*
X10073640Y10325100D01*
X10073640Y10325100D02*
X10073640Y9902700D01*
X8511540Y12129200D02*
X8511540Y12052300D01*
X8756740Y13309600D02*
X8756740Y12374400D01*
X8756740Y12374400D02*
X8511540Y12129200D01*
X9857740Y12966000D02*
X9100340Y12966000D01*
X9100340Y12966000D02*
X8756740Y13309600D01*
D35*
X4117340Y4343000D02*
X4117340Y7683500D01*
X4117340Y7683500D02*
X4117340Y10643000D01*
D33*
X4117340Y10643000D02*
X4117340Y13855700D01*
X4117340Y13855700D02*
X4434142Y14172502D01*
X4726940Y26550200D02*
X2332140Y26550200D01*
X2332140Y26550200D02*
X2313940Y26568400D01*
X9857740Y15466000D02*
X9857740Y17284700D01*
X6459640Y26550200D02*
X4726940Y26550200D01*
X7609840Y25400000D02*
X6459640Y26550200D01*
X7609840Y18122900D02*
X7609840Y25400000D01*
X7901940Y17830800D02*
X7609840Y18122900D01*
X9311640Y17830800D02*
X7901940Y17830800D01*
X9857740Y17284700D02*
X9311640Y17830800D01*
X4663440Y24033900D02*
X2319440Y24033900D01*
X2319440Y24033900D02*
X2313940Y24028400D01*
X9857740Y14966000D02*
X8087040Y14966000D01*
X5038940Y24033900D02*
X4663440Y24033900D01*
X5692140Y23380700D02*
X5038940Y24033900D01*
X5692140Y17360900D02*
X5692140Y23380700D01*
X8087040Y14966000D02*
X5692140Y17360900D01*
X13571540Y11252200D02*
X13571540Y10419400D01*
X13210540Y10058400D02*
X13210540Y9213000D01*
X13571540Y10419400D02*
X13210540Y10058400D01*
X14071540Y11252200D02*
X14071540Y10378500D01*
X14290040Y10160000D02*
X14290040Y9213000D01*
X14071540Y10378500D02*
X14290040Y10160000D01*
X14785340Y14466000D02*
X19040540Y14466000D01*
X22354540Y17208500D02*
X22799040Y17653000D01*
X21021040Y17208500D02*
X22354540Y17208500D01*
X20830540Y17018000D02*
X21021040Y17208500D01*
X20830540Y16256000D02*
X20830540Y17018000D01*
X19040540Y14466000D02*
X20830540Y16256000D01*
X22799040Y17653000D02*
X22799040Y18478500D01*
X22799040Y18478500D02*
X22842540Y18415000D01*
X22799040Y18351500D02*
X22842540Y18415000D01*
X22799040Y20087500D02*
X22799040Y18351500D01*
X12571540Y16256000D02*
X12571540Y16848900D01*
X12575540Y16852900D02*
X12571540Y16852900D01*
X12571540Y16848900D02*
X12575540Y16852900D01*
X9023540Y18871500D02*
X8917940Y18977100D01*
X10505440Y18871500D02*
X9023540Y18871500D01*
X12236540Y17767300D02*
X12236540Y18131700D01*
X10949240Y18427700D02*
X10505440Y18871500D01*
X11940540Y18427700D02*
X10949240Y18427700D01*
X12236540Y18131700D02*
X11940540Y18427700D01*
X12571540Y16179800D02*
X12571540Y16852900D01*
X12571540Y16852900D02*
X12571540Y17432300D01*
X12571540Y17432300D02*
X12236540Y17767300D01*
X12575540Y16192500D02*
X12571540Y16179800D01*
X12575540Y16306800D02*
X12571540Y16179800D01*
X15902940Y12141200D02*
X15598140Y12446000D01*
X17680940Y12141200D02*
X15902940Y12141200D01*
X18251140Y10910800D02*
X18251140Y11571000D01*
X15598140Y12446000D02*
X14836140Y12446000D01*
X18251140Y11571000D02*
X17680940Y12141200D01*
X14836140Y12446000D02*
X14785340Y12466000D01*
X19662140Y11218000D02*
X18586540Y11218000D01*
X18586540Y11218000D02*
X18239740Y10871200D01*
X18239740Y10871200D02*
X18251140Y10910800D01*
X18239740Y10922000D02*
X18251140Y10910800D01*
X14798040Y12446000D02*
X14785340Y12466000D01*
X16318140Y8178800D02*
X16318140Y9406800D01*
X16318140Y9406800D02*
X16563340Y9652000D01*
X16563340Y9652000D02*
X16501140Y9510800D01*
X14785340Y11966000D02*
X14785340Y10363200D01*
X15598140Y9550400D02*
X16461740Y9550400D01*
X14785340Y10363200D02*
X15598140Y9550400D01*
X16461740Y9550400D02*
X16501140Y9510800D01*
X13571540Y16256000D02*
X13571540Y16822100D01*
X13571540Y16179800D02*
X13571540Y16822100D01*
X13571540Y16822100D02*
X14222100Y17472660D01*
X14222100Y17472660D02*
X14721840Y17472660D01*
X13591540Y16192500D02*
X13571540Y16179800D01*
X20855940Y13885000D02*
X22119640Y13885000D01*
X22119640Y13885000D02*
X22166540Y13931900D01*
X16715740Y13957300D02*
X20783640Y13957300D01*
X20783640Y13957300D02*
X20855940Y13885000D01*
X13071540Y16256000D02*
X13071540Y16903000D01*
X13070840Y16903700D02*
X13071540Y16903700D01*
X13071540Y16903000D02*
X13070840Y16903700D01*
X14703640Y19773900D02*
X14713800Y19763740D01*
X14713800Y19763740D02*
X14721840Y19763740D01*
X12808040Y20015200D02*
X14470380Y20015200D01*
X14470380Y20015200D02*
X14721840Y19763740D01*
X12808040Y20015200D02*
X12808040Y19062700D01*
X13071540Y16179800D02*
X13071540Y16903700D01*
X13071540Y16903700D02*
X13071540Y18799200D01*
X13071540Y18799200D02*
X12808040Y19062700D01*
X20259040Y20087500D02*
X20259040Y18542000D01*
X20342540Y20046000D02*
X20259040Y20129500D01*
X20259040Y20129500D02*
X20259040Y20087500D01*
X20322540Y16510000D02*
X20322540Y18478500D01*
X20322540Y18478500D02*
X20342540Y18415000D01*
X20259040Y18542000D02*
X20386040Y18415000D01*
X20386040Y18415000D02*
X20342540Y18415000D01*
X14785340Y14966000D02*
X18778540Y14966000D01*
X18778540Y14966000D02*
X20322540Y16510000D01*
X27536140Y28772700D02*
X34718840Y28772700D01*
X34718840Y28772700D02*
X34724340Y28778200D01*
X24475440Y6438900D02*
X24475440Y7385900D01*
X5070538Y14808898D02*
X5070538Y14947202D01*
X5070538Y14947202D02*
X4777740Y15240000D01*
X9857740Y13966000D02*
X6051740Y13966000D01*
X3507740Y21488400D02*
X2313940Y21488400D01*
X4168140Y20828000D02*
X3507740Y21488400D01*
X4168140Y15849600D02*
X4168140Y20828000D01*
X6051740Y13966000D02*
X4777740Y15240000D01*
X4777740Y15240000D02*
X4168140Y15849600D01*
X14785340Y13966000D02*
X15695740Y13966000D01*
X15695740Y13966000D02*
X15699740Y13970000D01*
X15699740Y13970000D02*
X15699740Y13957300D01*
X14785340Y13466000D02*
X15695740Y13466000D01*
X15695740Y13466000D02*
X15699740Y13462000D01*
X15699740Y13462000D02*
X15699740Y13474700D01*
X11571540Y16256000D02*
X11571540Y16915700D01*
X11571540Y16915700D02*
X11572240Y16916400D01*
X27536140Y29672700D02*
X26469340Y29672700D01*
X26469340Y31851600D02*
X26469340Y29672700D01*
X11571540Y16915700D02*
X11572240Y16916400D01*
X11571540Y16179800D02*
X11571540Y16915700D01*
X2923540Y12416700D02*
X2406740Y12416700D01*
X2406740Y12416700D02*
X1817340Y13006100D01*
D35*
X1817340Y10643000D02*
X1817340Y13006100D01*
X1817340Y13006100D02*
X1817340Y18451800D01*
X1817340Y18451800D02*
X2313940Y18948400D01*
D33*
X14071540Y16256000D02*
X14137640Y16256000D01*
X14137640Y16256000D02*
X14213840Y16179800D01*
X14071540Y16179800D02*
X14213840Y16179800D01*
X14213840Y16179800D02*
X15204440Y16179800D01*
X15204440Y16179800D02*
X15420340Y16395700D01*
X18150840Y4216400D02*
X23167340Y4216400D01*
X11071540Y10622600D02*
X11635740Y10058400D01*
X11071540Y11252200D02*
X11071540Y10622600D01*
D36*
G36*
X24183340Y16522700D02*
X21338540Y16522700D01*
X21338540Y16700500D01*
X22354540Y16700500D01*
X22548943Y16739169D01*
X22713750Y16849290D01*
X22889396Y17024936D01*
X23291740Y17024936D01*
X23432930Y17051503D01*
X23558493Y17132300D01*
X23688040Y17132300D01*
X23715735Y17137511D01*
X23741172Y17153879D01*
X23758237Y17178854D01*
X23764240Y17208500D01*
X23764240Y19621500D01*
X23759029Y19649195D01*
X23742661Y19674632D01*
X23717686Y19691697D01*
X23688040Y19697700D01*
X23446740Y19697700D01*
X23446740Y20701000D01*
X23441529Y20728695D01*
X23425161Y20754132D01*
X23400186Y20771197D01*
X23370540Y20777200D01*
X19890740Y20777200D01*
X19890740Y22974300D01*
X24183340Y22974300D01*
X24183340Y16522700D01*
X24183340Y16522700D01*
G37*
X24183340Y16522700D02*
X21338540Y16522700D01*
X21338540Y16700500D01*
X22354540Y16700500D01*
X22548943Y16739169D01*
X22713750Y16849290D01*
X22889396Y17024936D01*
X23291740Y17024936D01*
X23432930Y17051503D01*
X23558493Y17132300D01*
X23688040Y17132300D01*
X23715735Y17137511D01*
X23741172Y17153879D01*
X23758237Y17178854D01*
X23764240Y17208500D01*
X23764240Y19621500D01*
X23759029Y19649195D01*
X23742661Y19674632D01*
X23717686Y19691697D01*
X23688040Y19697700D01*
X23446740Y19697700D01*
X23446740Y20701000D01*
X23441529Y20728695D01*
X23425161Y20754132D01*
X23400186Y20771197D01*
X23370540Y20777200D01*
X19890740Y20777200D01*
X19890740Y22974300D01*
X24183340Y22974300D01*
X24183340Y16522700D01*
G36*
X19261006Y10560141D02*
X19412140Y10529536D01*
X19912140Y10529536D01*
X20053330Y10556103D01*
X20093940Y10582235D01*
X20093940Y7493000D01*
X15725140Y7493000D01*
X15725140Y7680540D01*
X15739686Y7657935D01*
X15867006Y7570941D01*
X16018140Y7540336D01*
X16618140Y7540336D01*
X16759330Y7566903D01*
X16889005Y7650346D01*
X16975999Y7777666D01*
X17006604Y7928800D01*
X17006604Y8428800D01*
X16980037Y8569990D01*
X16946354Y8622336D01*
X17076140Y8622336D01*
X17217330Y8648903D01*
X17347005Y8732346D01*
X17433999Y8859666D01*
X17464604Y9010800D01*
X17464604Y10010800D01*
X17446593Y10106518D01*
X17525006Y10052941D01*
X17676140Y10022336D01*
X18826140Y10022336D01*
X18967330Y10048903D01*
X19097005Y10132346D01*
X19183999Y10259666D01*
X19214604Y10410800D01*
X19214604Y10591846D01*
X19261006Y10560141D01*
X19261006Y10560141D01*
G37*
X19261006Y10560141D02*
X19412140Y10529536D01*
X19912140Y10529536D01*
X20053330Y10556103D01*
X20093940Y10582235D01*
X20093940Y7493000D01*
X15725140Y7493000D01*
X15725140Y7680540D01*
X15739686Y7657935D01*
X15867006Y7570941D01*
X16018140Y7540336D01*
X16618140Y7540336D01*
X16759330Y7566903D01*
X16889005Y7650346D01*
X16975999Y7777666D01*
X17006604Y7928800D01*
X17006604Y8428800D01*
X16980037Y8569990D01*
X16946354Y8622336D01*
X17076140Y8622336D01*
X17217330Y8648903D01*
X17347005Y8732346D01*
X17433999Y8859666D01*
X17464604Y9010800D01*
X17464604Y10010800D01*
X17446593Y10106518D01*
X17525006Y10052941D01*
X17676140Y10022336D01*
X18826140Y10022336D01*
X18967330Y10048903D01*
X19097005Y10132346D01*
X19183999Y10259666D01*
X19214604Y10410800D01*
X19214604Y10591846D01*
X19261006Y10560141D01*
G36*
X15902940Y11633200D02*
X17366975Y11633200D01*
X17318281Y11561934D01*
X17287676Y11410800D01*
X17287676Y10410800D01*
X17305687Y10315082D01*
X17227274Y10368659D01*
X17076140Y10399264D01*
X15926140Y10399264D01*
X15784950Y10372697D01*
X15725140Y10334211D01*
X15725140Y11658600D01*
X15775247Y11658600D01*
X15902940Y11633200D01*
X15902940Y11633200D01*
G37*
X15902940Y11633200D02*
X17366975Y11633200D01*
X17318281Y11561934D01*
X17287676Y11410800D01*
X17287676Y10410800D01*
X17305687Y10315082D01*
X17227274Y10368659D01*
X17076140Y10399264D01*
X15926140Y10399264D01*
X15784950Y10372697D01*
X15725140Y10334211D01*
X15725140Y11658600D01*
X15775247Y11658600D01*
X15902940Y11633200D01*
G36*
X38280340Y17068800D02*
X25745440Y17068800D01*
X25715794Y17062797D01*
X25690819Y17045732D01*
X25674451Y17020295D01*
X25669240Y16992600D01*
X25669240Y16141700D01*
X25675243Y16112054D01*
X25692308Y16087079D01*
X25717745Y16070711D01*
X25745440Y16065500D01*
X25885140Y16065500D01*
X25914786Y16071503D01*
X25939761Y16088568D01*
X25956129Y16114005D01*
X25961340Y16141700D01*
X25961340Y16421100D01*
X31206440Y16421100D01*
X31206440Y11569700D01*
X28641040Y11569700D01*
X28611394Y11563697D01*
X28586419Y11546632D01*
X28570051Y11521195D01*
X28564840Y11493500D01*
X28564840Y9499600D01*
X28570843Y9469954D01*
X28587908Y9444979D01*
X28613345Y9428611D01*
X28641040Y9423400D01*
X31206440Y9423400D01*
X31206440Y6883400D01*
X28641040Y6883400D01*
X28611394Y6877397D01*
X28586419Y6860332D01*
X28570051Y6834895D01*
X28564840Y6807200D01*
X28564840Y4813300D01*
X28570843Y4783654D01*
X28587908Y4758679D01*
X28613345Y4742311D01*
X28641040Y4737100D01*
X31206440Y4737100D01*
X31206440Y2159000D01*
X26926540Y2159000D01*
X26926540Y2501900D01*
X30787340Y2501900D01*
X30816986Y2507903D01*
X30841961Y2524968D01*
X30858329Y2550405D01*
X30863540Y2578100D01*
X30863540Y4318000D01*
X30857537Y4347646D01*
X30840472Y4372621D01*
X30815035Y4388989D01*
X30787340Y4394200D01*
X28221940Y4394200D01*
X28221940Y7226300D01*
X30787340Y7226300D01*
X30816986Y7232303D01*
X30841961Y7249368D01*
X30858329Y7274805D01*
X30863540Y7302500D01*
X30863540Y9004300D01*
X30857537Y9033946D01*
X30840472Y9058921D01*
X30815035Y9075289D01*
X30787340Y9080500D01*
X28221940Y9080500D01*
X28221940Y11912600D01*
X30787340Y11912600D01*
X30816986Y11918603D01*
X30841961Y11935668D01*
X30858329Y11961105D01*
X30863540Y11988800D01*
X30863540Y13690600D01*
X30857537Y13720246D01*
X30840472Y13745221D01*
X30815035Y13761589D01*
X30787340Y13766800D01*
X26266140Y13766800D01*
X26257906Y13766354D01*
X25941345Y13731945D01*
X25874790Y13798500D01*
X25502140Y13798500D01*
X25502140Y13703300D01*
X25252140Y13703300D01*
X25252140Y13798500D01*
X25199340Y13798500D01*
X25199340Y14098500D01*
X25252140Y14098500D01*
X25252140Y14185900D01*
X25502140Y14185900D01*
X25502140Y14098500D01*
X25874790Y14098500D01*
X25936506Y14160216D01*
X26257339Y14122910D01*
X26266140Y14122400D01*
X30787340Y14122400D01*
X30816986Y14128403D01*
X30841961Y14145468D01*
X30858329Y14170905D01*
X30863540Y14198600D01*
X30863540Y15595600D01*
X30857537Y15625246D01*
X30840472Y15650221D01*
X30815035Y15666589D01*
X30787340Y15671800D01*
X25961340Y15671800D01*
X25961340Y15963900D01*
X25955337Y15993546D01*
X25938272Y16018521D01*
X25912835Y16034889D01*
X25885140Y16040100D01*
X25745440Y16040100D01*
X25715794Y16034097D01*
X25690819Y16017032D01*
X25674451Y15991595D01*
X25669240Y15963900D01*
X25669240Y15455900D01*
X25675243Y15426254D01*
X25692308Y15401279D01*
X25717745Y15384911D01*
X25745440Y15379700D01*
X26304240Y15379700D01*
X26304240Y14490700D01*
X25851913Y14490700D01*
X25814183Y14528430D01*
X25692821Y14578700D01*
X25584690Y14578700D01*
X25502140Y14496150D01*
X25502140Y14490700D01*
X25252140Y14490700D01*
X25252140Y14496150D01*
X25169590Y14578700D01*
X25061459Y14578700D01*
X24940097Y14528430D01*
X24926040Y14514373D01*
X24853583Y14586830D01*
X24732221Y14637100D01*
X24326890Y14637100D01*
X24244340Y14554550D01*
X24244340Y14109700D01*
X24264340Y14109700D01*
X24264340Y13754100D01*
X24244340Y13754100D01*
X24244340Y13309250D01*
X24326890Y13226700D01*
X24732221Y13226700D01*
X24816603Y13261652D01*
X24796940Y13214181D01*
X24796940Y13081050D01*
X24879490Y12998500D01*
X25252140Y12998500D01*
X25252140Y13046300D01*
X25502140Y13046300D01*
X25502140Y12998500D01*
X25874790Y12998500D01*
X25957340Y13081050D01*
X25957340Y13214181D01*
X25907070Y13335543D01*
X25844113Y13398500D01*
X25869513Y13423900D01*
X26304240Y13423900D01*
X26304240Y76200D01*
X78740Y76200D01*
X78740Y11643000D01*
X834262Y11643000D01*
X834262Y9643000D01*
X850202Y9558286D01*
X900268Y9480482D01*
X976660Y9428285D01*
X1067340Y9409922D01*
X2567340Y9409922D01*
X2652054Y9425862D01*
X2729858Y9475928D01*
X2782055Y9552320D01*
X2800418Y9643000D01*
X2800418Y11643000D01*
X2784478Y11727714D01*
X2734412Y11805518D01*
X2658020Y11857715D01*
X2567340Y11876078D01*
X2553940Y11876078D01*
X2553940Y11921745D01*
X2582860Y11901985D01*
X2673540Y11883622D01*
X3173540Y11883622D01*
X3258254Y11899562D01*
X3336058Y11949628D01*
X3388255Y12026020D01*
X3406618Y12116700D01*
X3406618Y12716700D01*
X3390678Y12801414D01*
X3340612Y12879218D01*
X3295710Y12909899D01*
X3360583Y12936770D01*
X3453470Y13029657D01*
X3503740Y13151019D01*
X3503740Y13284150D01*
X3421190Y13366700D01*
X3048540Y13366700D01*
X3048540Y13318900D01*
X2798540Y13318900D01*
X2798540Y13366700D01*
X2725740Y13366700D01*
X2725740Y13666700D01*
X2798540Y13666700D01*
X2798540Y14064350D01*
X3048540Y14064350D01*
X3048540Y13666700D01*
X3421190Y13666700D01*
X3503740Y13749250D01*
X3503740Y13882381D01*
X3453470Y14003743D01*
X3360583Y14096630D01*
X3239221Y14146900D01*
X3131090Y14146900D01*
X3048540Y14064350D01*
X2798540Y14064350D01*
X2715990Y14146900D01*
X2607859Y14146900D01*
X2553940Y14124566D01*
X2553940Y17865322D01*
X3163940Y17865322D01*
X3248654Y17881262D01*
X3326458Y17931328D01*
X3378655Y18007720D01*
X3397018Y18098400D01*
X3397018Y19798400D01*
X3381078Y19883114D01*
X3331012Y19960918D01*
X3254620Y20013115D01*
X3163940Y20031478D01*
X1463940Y20031478D01*
X1379226Y20015538D01*
X1301422Y19965472D01*
X1249225Y19889080D01*
X1230862Y19798400D01*
X1230862Y18874443D01*
X1136810Y18733685D01*
X1080740Y18451800D01*
X1080740Y11876078D01*
X1067340Y11876078D01*
X982626Y11860138D01*
X904822Y11810072D01*
X852625Y11733680D01*
X834262Y11643000D01*
X78740Y11643000D01*
X78740Y26568400D01*
X1214209Y26568400D01*
X1296313Y26155638D01*
X1530124Y25805715D01*
X1880047Y25571904D01*
X2292809Y25489800D01*
X2335071Y25489800D01*
X2747833Y25571904D01*
X3097756Y25805715D01*
X3331567Y26155638D01*
X3339317Y26194600D01*
X4255416Y26194600D01*
X4259868Y26187682D01*
X4336260Y26135485D01*
X4426940Y26117122D01*
X5026940Y26117122D01*
X5111654Y26133062D01*
X5189458Y26183128D01*
X5197297Y26194600D01*
X6312346Y26194600D01*
X7254240Y25252706D01*
X7254240Y18122900D01*
X7281308Y17986817D01*
X7358393Y17871453D01*
X7650493Y17579353D01*
X7765857Y17502268D01*
X7901940Y17475200D01*
X9164346Y17475200D01*
X9502140Y17137406D01*
X9502140Y15826078D01*
X9375140Y15826078D01*
X9290426Y15810138D01*
X9212622Y15760072D01*
X9160425Y15683680D01*
X9142062Y15593000D01*
X9142062Y15339000D01*
X9145336Y15321600D01*
X8234334Y15321600D01*
X6047740Y17508194D01*
X6047740Y23380700D01*
X6020672Y23516782D01*
X5943587Y23632147D01*
X5290387Y24285347D01*
X5175023Y24362432D01*
X5149058Y24367597D01*
X5130512Y24396418D01*
X5054120Y24448615D01*
X4963440Y24466978D01*
X4363440Y24466978D01*
X4278726Y24451038D01*
X4200922Y24400972D01*
X4193083Y24389500D01*
X3341843Y24389500D01*
X3331567Y24441162D01*
X3097756Y24791085D01*
X2747833Y25024896D01*
X2335071Y25107000D01*
X2292809Y25107000D01*
X1880047Y25024896D01*
X1530124Y24791085D01*
X1296313Y24441162D01*
X1214209Y24028400D01*
X1296313Y23615638D01*
X1530124Y23265715D01*
X1880047Y23031904D01*
X2292809Y22949800D01*
X2335071Y22949800D01*
X2342863Y22951350D01*
X4033240Y22951350D01*
X4033240Y22868219D01*
X4083510Y22746857D01*
X4176397Y22653970D01*
X4297759Y22603700D01*
X4430890Y22603700D01*
X4513440Y22686250D01*
X4513440Y23033900D01*
X4813440Y23033900D01*
X4813440Y22686250D01*
X4895990Y22603700D01*
X5029121Y22603700D01*
X5150483Y22653970D01*
X5243370Y22746857D01*
X5293640Y22868219D01*
X5293640Y22951350D01*
X5211090Y23033900D01*
X4813440Y23033900D01*
X4513440Y23033900D01*
X4115790Y23033900D01*
X4033240Y22951350D01*
X2342863Y22951350D01*
X2747833Y23031904D01*
X3097756Y23265715D01*
X3331567Y23615638D01*
X3344031Y23678300D01*
X4191916Y23678300D01*
X4196368Y23671382D01*
X4241270Y23640701D01*
X4176397Y23613830D01*
X4083510Y23520943D01*
X4033240Y23399581D01*
X4033240Y23316450D01*
X4115790Y23233900D01*
X4513440Y23233900D01*
X4513440Y23331700D01*
X4813440Y23331700D01*
X4813440Y23233900D01*
X5211090Y23233900D01*
X5273568Y23296378D01*
X5336540Y23233406D01*
X5336540Y17360900D01*
X5363608Y17224817D01*
X5440693Y17109453D01*
X7835593Y14714553D01*
X7950957Y14637468D01*
X8087040Y14610400D01*
X9145586Y14610400D01*
X9142062Y14593000D01*
X9142062Y14339000D01*
X9145336Y14321600D01*
X6199034Y14321600D01*
X4523740Y15996894D01*
X4523740Y20828000D01*
X4496672Y20964082D01*
X4419587Y21079447D01*
X3759187Y21739847D01*
X3643823Y21816932D01*
X3507740Y21844000D01*
X3342937Y21844000D01*
X3331567Y21901162D01*
X3097756Y22251085D01*
X2747833Y22484896D01*
X2335071Y22567000D01*
X2292809Y22567000D01*
X1880047Y22484896D01*
X1530124Y22251085D01*
X1296313Y21901162D01*
X1214209Y21488400D01*
X1296313Y21075638D01*
X1530124Y20725715D01*
X1880047Y20491904D01*
X2292809Y20409800D01*
X2335071Y20409800D01*
X2747833Y20491904D01*
X3097756Y20725715D01*
X3331567Y21075638D01*
X3342937Y21132800D01*
X3360446Y21132800D01*
X3812540Y20680706D01*
X3812540Y15849600D01*
X3839608Y15713517D01*
X3916693Y15598153D01*
X4518991Y14995855D01*
X4503543Y14973247D01*
X4483929Y14882829D01*
X4501038Y14791903D01*
X4552174Y14714798D01*
X4976438Y14290534D01*
X5047611Y14241903D01*
X5138029Y14222289D01*
X5228955Y14239398D01*
X5256909Y14257937D01*
X5800293Y13714553D01*
X5915657Y13637468D01*
X6051740Y13610400D01*
X7026540Y13610400D01*
X7026540Y13517150D01*
X7109090Y13434600D01*
X7506740Y13434600D01*
X7506740Y13507400D01*
X7806740Y13507400D01*
X7806740Y13434600D01*
X7854540Y13434600D01*
X7854540Y13184600D01*
X7806740Y13184600D01*
X7806740Y12811950D01*
X7889290Y12729400D01*
X8022421Y12729400D01*
X8031073Y12732984D01*
X7974022Y12696272D01*
X7921825Y12619880D01*
X7903462Y12529200D01*
X7903462Y12484800D01*
X6523716Y12484800D01*
X6529440Y12498619D01*
X6529440Y12606750D01*
X6446890Y12689300D01*
X6049240Y12689300D01*
X6049240Y12616500D01*
X5749240Y12616500D01*
X5749240Y12689300D01*
X5701440Y12689300D01*
X5701440Y12939300D01*
X5749240Y12939300D01*
X5749240Y13311950D01*
X6049240Y13311950D01*
X6049240Y12939300D01*
X6446890Y12939300D01*
X6529440Y13021850D01*
X6529440Y13102050D01*
X7026540Y13102050D01*
X7026540Y12993919D01*
X7076810Y12872557D01*
X7169697Y12779670D01*
X7291059Y12729400D01*
X7424190Y12729400D01*
X7506740Y12811950D01*
X7506740Y13184600D01*
X7109090Y13184600D01*
X7026540Y13102050D01*
X6529440Y13102050D01*
X6529440Y13129981D01*
X6479170Y13251343D01*
X6386283Y13344230D01*
X6264921Y13394500D01*
X6131790Y13394500D01*
X6049240Y13311950D01*
X5749240Y13311950D01*
X5666690Y13394500D01*
X5533559Y13394500D01*
X5412197Y13344230D01*
X5319310Y13251343D01*
X5292375Y13186316D01*
X5266312Y13226818D01*
X5189920Y13279015D01*
X5099240Y13297378D01*
X4499240Y13297378D01*
X4472940Y13292429D01*
X4472940Y13592117D01*
X4501633Y13585893D01*
X4592559Y13603002D01*
X4669664Y13654138D01*
X4952506Y13936980D01*
X5001137Y14008153D01*
X5020751Y14098571D01*
X5003642Y14189497D01*
X4952506Y14266602D01*
X4528242Y14690866D01*
X4457069Y14739497D01*
X4366651Y14759111D01*
X4275725Y14742002D01*
X4198620Y14690866D01*
X3915778Y14408024D01*
X3867147Y14336851D01*
X3847533Y14246433D01*
X3864642Y14155507D01*
X3884424Y14125678D01*
X3865893Y14107147D01*
X3788808Y13991783D01*
X3788808Y13991782D01*
X3761740Y13855700D01*
X3761740Y11876078D01*
X3367340Y11876078D01*
X3282626Y11860138D01*
X3204822Y11810072D01*
X3152625Y11733680D01*
X3134262Y11643000D01*
X3134262Y9643000D01*
X3150202Y9558286D01*
X3200268Y9480482D01*
X3276660Y9428285D01*
X3367340Y9409922D01*
X3380740Y9409922D01*
X3380740Y7684143D01*
X3380612Y7537624D01*
X3380740Y7537314D01*
X3380740Y5576078D01*
X2217340Y5576078D01*
X2132626Y5560138D01*
X2054822Y5510072D01*
X2002625Y5433680D01*
X1984262Y5343000D01*
X1984262Y3343000D01*
X2000202Y3258286D01*
X2050268Y3180482D01*
X2126660Y3128285D01*
X2217340Y3109922D01*
X3380740Y3109922D01*
X3380740Y2616200D01*
X3436810Y2334315D01*
X3596485Y2095345D01*
X3926685Y1765145D01*
X4165655Y1605470D01*
X4447540Y1549400D01*
X7926697Y1549400D01*
X8073216Y1549272D01*
X8344045Y1661177D01*
X8551435Y1868205D01*
X8663812Y2138838D01*
X8663813Y2140124D01*
X11000612Y2140124D01*
X11112517Y1869295D01*
X11319545Y1661905D01*
X11590178Y1549528D01*
X11883216Y1549272D01*
X11883526Y1549400D01*
X15546697Y1549400D01*
X15693216Y1549272D01*
X15964045Y1661177D01*
X16171435Y1868205D01*
X16283812Y2138838D01*
X16284068Y2431876D01*
X16172163Y2702705D01*
X15965135Y2910095D01*
X15694502Y3022472D01*
X15401464Y3022728D01*
X15401154Y3022600D01*
X11737983Y3022600D01*
X11591464Y3022728D01*
X11320635Y2910823D01*
X11113245Y2703795D01*
X11000868Y2433162D01*
X11000612Y2140124D01*
X8663813Y2140124D01*
X8664068Y2431876D01*
X8552163Y2702705D01*
X8345135Y2910095D01*
X8074502Y3022472D01*
X7781464Y3022728D01*
X7781154Y3022600D01*
X4853940Y3022600D01*
X4853940Y3109922D01*
X6017340Y3109922D01*
X6102054Y3125862D01*
X6179858Y3175928D01*
X6232055Y3252320D01*
X6250418Y3343000D01*
X6250418Y3568198D01*
X11416785Y3568198D01*
X11538402Y3391812D01*
X12049706Y3232489D01*
X12583060Y3280961D01*
X12850678Y3391812D01*
X12972295Y3568198D01*
X12194540Y4345953D01*
X11416785Y3568198D01*
X6250418Y3568198D01*
X6250418Y4742234D01*
X10829629Y4742234D01*
X10878101Y4208880D01*
X10988952Y3941262D01*
X11165338Y3819645D01*
X11943093Y4597400D01*
X12445987Y4597400D01*
X13223742Y3819645D01*
X13400128Y3941262D01*
X13454513Y4115796D01*
X17642752Y4115796D01*
X17719928Y3929017D01*
X17862706Y3785990D01*
X18049349Y3708489D01*
X18251444Y3708312D01*
X18438223Y3785488D01*
X18513666Y3860800D01*
X22804526Y3860800D01*
X22879206Y3785990D01*
X23065849Y3708489D01*
X23267944Y3708312D01*
X23454723Y3785488D01*
X23597750Y3928266D01*
X23675251Y4114909D01*
X23675428Y4317004D01*
X23598252Y4503783D01*
X23455474Y4646810D01*
X23268831Y4724311D01*
X23066736Y4724488D01*
X22879957Y4647312D01*
X22804514Y4572000D01*
X18513654Y4572000D01*
X18438974Y4646810D01*
X18252331Y4724311D01*
X18050236Y4724488D01*
X17863457Y4647312D01*
X17720430Y4504534D01*
X17642929Y4317891D01*
X17642752Y4115796D01*
X13454513Y4115796D01*
X13559451Y4452566D01*
X13510979Y4985920D01*
X13400128Y5253538D01*
X13223742Y5375155D01*
X12445987Y4597400D01*
X11943093Y4597400D01*
X11165338Y5375155D01*
X10988952Y5253538D01*
X10829629Y4742234D01*
X6250418Y4742234D01*
X6250418Y5343000D01*
X6234478Y5427714D01*
X6184412Y5505518D01*
X6108020Y5557715D01*
X6017340Y5576078D01*
X4853940Y5576078D01*
X4853940Y5626602D01*
X11416785Y5626602D01*
X12194540Y4848847D01*
X12972295Y5626602D01*
X12850678Y5802988D01*
X12339374Y5962311D01*
X11806020Y5913839D01*
X11538402Y5802988D01*
X11416785Y5626602D01*
X4853940Y5626602D01*
X4853940Y7642350D01*
X9118440Y7642350D01*
X9118440Y7337019D01*
X9168710Y7215657D01*
X9261597Y7122770D01*
X9382959Y7072500D01*
X9813290Y7072500D01*
X9895840Y7155050D01*
X9895840Y7724900D01*
X10251440Y7724900D01*
X10251440Y7155050D01*
X10333990Y7072500D01*
X10764321Y7072500D01*
X10885683Y7122770D01*
X10978570Y7215657D01*
X11028840Y7337019D01*
X11028840Y7642350D01*
X10946290Y7724900D01*
X10251440Y7724900D01*
X9895840Y7724900D01*
X9200990Y7724900D01*
X9118440Y7642350D01*
X4853940Y7642350D01*
X4853940Y7682857D01*
X4854068Y7829376D01*
X4853940Y7829686D01*
X4853940Y8468381D01*
X9118440Y8468381D01*
X9118440Y8163050D01*
X9200990Y8080500D01*
X9895840Y8080500D01*
X9895840Y8650350D01*
X10251440Y8650350D01*
X10251440Y8080500D01*
X10946290Y8080500D01*
X10996240Y8130450D01*
X12580340Y8130450D01*
X12580340Y8047319D01*
X12630610Y7925957D01*
X12723497Y7833070D01*
X12844859Y7782800D01*
X12977990Y7782800D01*
X13060540Y7865350D01*
X13060540Y8213000D01*
X13360540Y8213000D01*
X13360540Y7865350D01*
X13443090Y7782800D01*
X13576221Y7782800D01*
X13697583Y7833070D01*
X13750290Y7885777D01*
X13802997Y7833070D01*
X13924359Y7782800D01*
X14057490Y7782800D01*
X14140040Y7865350D01*
X14140040Y8213000D01*
X14440040Y8213000D01*
X14440040Y7865350D01*
X14522590Y7782800D01*
X14655721Y7782800D01*
X14777083Y7833070D01*
X14869970Y7925957D01*
X14920240Y8047319D01*
X14920240Y8130450D01*
X14837690Y8213000D01*
X14440040Y8213000D01*
X14140040Y8213000D01*
X13360540Y8213000D01*
X13060540Y8213000D01*
X12662890Y8213000D01*
X12580340Y8130450D01*
X10996240Y8130450D01*
X11028840Y8163050D01*
X11028840Y8468381D01*
X10978570Y8589743D01*
X10885683Y8682630D01*
X10764321Y8732900D01*
X10333990Y8732900D01*
X10251440Y8650350D01*
X9895840Y8650350D01*
X9813290Y8732900D01*
X9382959Y8732900D01*
X9261597Y8682630D01*
X9168710Y8589743D01*
X9118440Y8468381D01*
X4853940Y8468381D01*
X4853940Y9409922D01*
X4867340Y9409922D01*
X4952054Y9425862D01*
X5029858Y9475928D01*
X5082055Y9552320D01*
X5100418Y9643000D01*
X5100418Y10382650D01*
X5337140Y10382650D01*
X5337140Y9577319D01*
X5387410Y9455957D01*
X5480297Y9363070D01*
X5601659Y9312800D01*
X6156990Y9312800D01*
X6239540Y9395350D01*
X6239540Y10465200D01*
X6595140Y10465200D01*
X6595140Y9395350D01*
X6677690Y9312800D01*
X7233021Y9312800D01*
X7354383Y9363070D01*
X7447270Y9455957D01*
X7497540Y9577319D01*
X7497540Y10368850D01*
X7806340Y10368850D01*
X7806340Y10163519D01*
X7856610Y10042157D01*
X7949497Y9949270D01*
X8070859Y9899000D01*
X8251190Y9899000D01*
X8333740Y9981550D01*
X8333740Y10451400D01*
X7888890Y10451400D01*
X7806340Y10368850D01*
X7497540Y10368850D01*
X7497540Y10382650D01*
X7414990Y10465200D01*
X6595140Y10465200D01*
X6239540Y10465200D01*
X5419690Y10465200D01*
X5337140Y10382650D01*
X5100418Y10382650D01*
X5100418Y11643000D01*
X5084478Y11727714D01*
X5054951Y11773600D01*
X5364030Y11773600D01*
X5337140Y11708681D01*
X5337140Y10903350D01*
X5419690Y10820800D01*
X6239540Y10820800D01*
X6239540Y10840800D01*
X6595140Y10840800D01*
X6595140Y10820800D01*
X7414990Y10820800D01*
X7497540Y10903350D01*
X7497540Y11094881D01*
X7806340Y11094881D01*
X7806340Y10889550D01*
X7888890Y10807000D01*
X8333740Y10807000D01*
X8333740Y11276850D01*
X8251190Y11359400D01*
X8070859Y11359400D01*
X7949497Y11309130D01*
X7856610Y11216243D01*
X7806340Y11094881D01*
X7497540Y11094881D01*
X7497540Y11708681D01*
X7470650Y11773600D01*
X7903462Y11773600D01*
X7903462Y11729200D01*
X7919402Y11644486D01*
X7969468Y11566682D01*
X8045860Y11514485D01*
X8136540Y11496122D01*
X8399724Y11496122D01*
X8689340Y11206506D01*
X8689340Y10807000D01*
X9088846Y10807000D01*
X9310431Y10585415D01*
X9286122Y10569772D01*
X9233925Y10493380D01*
X9215562Y10402700D01*
X9215562Y10370028D01*
X9134190Y10451400D01*
X8689340Y10451400D01*
X8689340Y9981550D01*
X8771890Y9899000D01*
X8952221Y9899000D01*
X9073583Y9949270D01*
X9166470Y10042157D01*
X9215562Y10160675D01*
X9215562Y9402700D01*
X9231502Y9317986D01*
X9281568Y9240182D01*
X9357960Y9187985D01*
X9448640Y9169622D01*
X10698640Y9169622D01*
X10783354Y9185562D01*
X10861158Y9235628D01*
X10913355Y9312020D01*
X10931718Y9402700D01*
X10931718Y10259528D01*
X11127745Y10063501D01*
X11127652Y9957796D01*
X11204828Y9771017D01*
X11347606Y9627990D01*
X11534249Y9550489D01*
X11736344Y9550312D01*
X11923123Y9627488D01*
X12066150Y9770266D01*
X12143651Y9956909D01*
X12143828Y10159004D01*
X12066652Y10345783D01*
X11923874Y10488810D01*
X11774534Y10550821D01*
X11783254Y10552462D01*
X11821442Y10577036D01*
X11853860Y10554885D01*
X11944540Y10536522D01*
X12198540Y10536522D01*
X12283254Y10552462D01*
X12321442Y10577036D01*
X12353860Y10554885D01*
X12444540Y10536522D01*
X12698540Y10536522D01*
X12783254Y10552462D01*
X12821442Y10577036D01*
X12853860Y10554885D01*
X12944540Y10536522D01*
X13185768Y10536522D01*
X12959093Y10309847D01*
X12882008Y10194483D01*
X12874951Y10159004D01*
X12854940Y10058400D01*
X12854940Y9635616D01*
X12825826Y9630138D01*
X12748022Y9580072D01*
X12695825Y9503680D01*
X12677462Y9413000D01*
X12677462Y9013000D01*
X12693402Y8928286D01*
X12743468Y8850482D01*
X12788370Y8819801D01*
X12723497Y8792930D01*
X12630610Y8700043D01*
X12580340Y8578681D01*
X12580340Y8495550D01*
X12662890Y8413000D01*
X13060540Y8413000D01*
X13060540Y8510800D01*
X13360540Y8510800D01*
X13360540Y8413000D01*
X14140040Y8413000D01*
X14140040Y8510800D01*
X14440040Y8510800D01*
X14440040Y8413000D01*
X14837690Y8413000D01*
X14920240Y8495550D01*
X14920240Y8578681D01*
X14869970Y8700043D01*
X14777083Y8792930D01*
X14712056Y8819865D01*
X14752558Y8845928D01*
X14804755Y8922320D01*
X14823118Y9013000D01*
X14823118Y9413000D01*
X14807178Y9497714D01*
X14757112Y9575518D01*
X14680720Y9627715D01*
X14645640Y9634819D01*
X14645640Y9836336D01*
X15318740Y9163236D01*
X15318740Y7162800D01*
X15324743Y7133154D01*
X15341808Y7108179D01*
X15367245Y7091811D01*
X15394940Y7086600D01*
X20424140Y7086600D01*
X20453786Y7092603D01*
X20478761Y7109668D01*
X20495129Y7135105D01*
X20500340Y7162800D01*
X20500340Y8103350D01*
X23845240Y8103350D01*
X23845240Y8020219D01*
X23895510Y7898857D01*
X23988397Y7805970D01*
X24053424Y7779035D01*
X24012922Y7752972D01*
X23960725Y7676580D01*
X23942362Y7585900D01*
X23942362Y7185900D01*
X23958302Y7101186D01*
X24008368Y7023382D01*
X24084760Y6971185D01*
X24119840Y6964081D01*
X24119840Y6801714D01*
X24045030Y6727034D01*
X23967529Y6540391D01*
X23967352Y6338296D01*
X24044528Y6151517D01*
X24187306Y6008490D01*
X24373949Y5930989D01*
X24576044Y5930812D01*
X24762823Y6007988D01*
X24905850Y6150766D01*
X24983351Y6337409D01*
X24983528Y6539504D01*
X24906352Y6726283D01*
X24831040Y6801726D01*
X24831040Y6963284D01*
X24860154Y6968762D01*
X24937958Y7018828D01*
X24990155Y7095220D01*
X25008518Y7185900D01*
X25008518Y7585900D01*
X24992578Y7670614D01*
X24942512Y7748418D01*
X24897610Y7779099D01*
X24962483Y7805970D01*
X25055370Y7898857D01*
X25105640Y8020219D01*
X25105640Y8103350D01*
X25023090Y8185900D01*
X24625440Y8185900D01*
X24625440Y8088100D01*
X24325440Y8088100D01*
X24325440Y8185900D01*
X23927790Y8185900D01*
X23845240Y8103350D01*
X20500340Y8103350D01*
X20500340Y8551581D01*
X23845240Y8551581D01*
X23845240Y8468450D01*
X23927790Y8385900D01*
X24325440Y8385900D01*
X24325440Y8733550D01*
X24625440Y8733550D01*
X24625440Y8385900D01*
X25023090Y8385900D01*
X25105640Y8468450D01*
X25105640Y8551581D01*
X25055370Y8672943D01*
X24962483Y8765830D01*
X24841121Y8816100D01*
X24707990Y8816100D01*
X24625440Y8733550D01*
X24325440Y8733550D01*
X24242890Y8816100D01*
X24109759Y8816100D01*
X23988397Y8765830D01*
X23895510Y8672943D01*
X23845240Y8551581D01*
X20500340Y8551581D01*
X20500340Y11988800D01*
X20494337Y12018446D01*
X20477272Y12043421D01*
X20451835Y12059789D01*
X20424140Y12065000D01*
X18260034Y12065000D01*
X17932387Y12392647D01*
X17913369Y12405355D01*
X17946740Y12485919D01*
X17946740Y12552450D01*
X20275740Y12552450D01*
X20275740Y12419319D01*
X20326010Y12297957D01*
X20418897Y12205070D01*
X20540259Y12154800D01*
X20648390Y12154800D01*
X20730940Y12237350D01*
X20730940Y12635000D01*
X20980940Y12635000D01*
X20980940Y12237350D01*
X21063490Y12154800D01*
X21171621Y12154800D01*
X21292983Y12205070D01*
X21385870Y12297957D01*
X21436140Y12419319D01*
X21436140Y12552450D01*
X21372640Y12615950D01*
X24796940Y12615950D01*
X24796940Y12482819D01*
X24847210Y12361457D01*
X24940097Y12268570D01*
X25061459Y12218300D01*
X25169590Y12218300D01*
X25252140Y12300850D01*
X25252140Y12698500D01*
X25502140Y12698500D01*
X25502140Y12300850D01*
X25584690Y12218300D01*
X25692821Y12218300D01*
X25814183Y12268570D01*
X25907070Y12361457D01*
X25957340Y12482819D01*
X25957340Y12615950D01*
X25874790Y12698500D01*
X25502140Y12698500D01*
X25252140Y12698500D01*
X24879490Y12698500D01*
X24796940Y12615950D01*
X21372640Y12615950D01*
X21353590Y12635000D01*
X20980940Y12635000D01*
X20730940Y12635000D01*
X20358290Y12635000D01*
X20275740Y12552450D01*
X17946740Y12552450D01*
X17946740Y12594050D01*
X17864190Y12676600D01*
X17466540Y12676600D01*
X17466540Y12603800D01*
X17166540Y12603800D01*
X17166540Y12676600D01*
X17118740Y12676600D01*
X17118740Y12926600D01*
X17166540Y12926600D01*
X17166540Y13136487D01*
X17211040Y13243919D01*
X17211040Y13299250D01*
X17466540Y13299250D01*
X17466540Y12926600D01*
X17864190Y12926600D01*
X17946740Y13009150D01*
X17946740Y13117281D01*
X17896470Y13238643D01*
X17803583Y13331530D01*
X17682221Y13381800D01*
X17549090Y13381800D01*
X17466540Y13299250D01*
X17211040Y13299250D01*
X17211040Y13309600D01*
X17128490Y13392150D01*
X16798290Y13392150D01*
X16798290Y13309600D01*
X16633190Y13309600D01*
X16633190Y13392150D01*
X16302990Y13392150D01*
X16220440Y13309600D01*
X16220440Y13309596D01*
X16115936Y13309688D01*
X16114666Y13309163D01*
X16097918Y13312494D01*
X16097918Y13639800D01*
X16083054Y13718797D01*
X16097918Y13792200D01*
X16097918Y14110400D01*
X16317562Y14110400D01*
X16317562Y13873695D01*
X16270710Y13826843D01*
X16220440Y13705481D01*
X16220440Y13639800D01*
X16302990Y13557250D01*
X16633190Y13557250D01*
X16633190Y13559122D01*
X16798290Y13559122D01*
X16798290Y13557250D01*
X17128490Y13557250D01*
X17172940Y13601700D01*
X20372862Y13601700D01*
X20372862Y13585000D01*
X20388802Y13500286D01*
X20438868Y13422482D01*
X20483770Y13391801D01*
X20418897Y13364930D01*
X20326010Y13272043D01*
X20275740Y13150681D01*
X20275740Y13017550D01*
X20358290Y12935000D01*
X20730940Y12935000D01*
X20730940Y12982800D01*
X20980940Y12982800D01*
X20980940Y12935000D01*
X21353590Y12935000D01*
X21436140Y13017550D01*
X21436140Y13150681D01*
X21385870Y13272043D01*
X21292983Y13364930D01*
X21227956Y13391865D01*
X21268458Y13417928D01*
X21320655Y13494320D01*
X21327759Y13529400D01*
X21338636Y13529400D01*
X21349402Y13472186D01*
X21399468Y13394382D01*
X21475860Y13342185D01*
X21566540Y13323822D01*
X22766540Y13323822D01*
X22851254Y13339762D01*
X22929058Y13389828D01*
X22981255Y13466220D01*
X22999618Y13556900D01*
X22999618Y13671550D01*
X23136340Y13671550D01*
X23136340Y13491219D01*
X23186610Y13369857D01*
X23279497Y13276970D01*
X23400859Y13226700D01*
X23806190Y13226700D01*
X23888740Y13309250D01*
X23888740Y13754100D01*
X23218890Y13754100D01*
X23136340Y13671550D01*
X22999618Y13671550D01*
X22999618Y14306900D01*
X22987260Y14372581D01*
X23136340Y14372581D01*
X23136340Y14192250D01*
X23218890Y14109700D01*
X23888740Y14109700D01*
X23888740Y14554550D01*
X23806190Y14637100D01*
X23400859Y14637100D01*
X23279497Y14586830D01*
X23186610Y14493943D01*
X23136340Y14372581D01*
X22987260Y14372581D01*
X22983678Y14391614D01*
X22933612Y14469418D01*
X22857220Y14521615D01*
X22766540Y14539978D01*
X21566540Y14539978D01*
X21481826Y14524038D01*
X21404022Y14473972D01*
X21351825Y14397580D01*
X21333462Y14306900D01*
X21333462Y14240600D01*
X21328556Y14240600D01*
X21323078Y14269714D01*
X21273012Y14347518D01*
X21196620Y14399715D01*
X21105940Y14418078D01*
X20605940Y14418078D01*
X20521226Y14402138D01*
X20443422Y14352072D01*
X20416657Y14312900D01*
X19390334Y14312900D01*
X21066734Y15989300D01*
X24767540Y15989300D01*
X24797186Y15995303D01*
X24822161Y16012368D01*
X24838529Y16037805D01*
X24843740Y16065500D01*
X24843740Y19846335D01*
X25377140Y19846335D01*
X25377140Y18456865D01*
X25460279Y18038898D01*
X25697038Y17684563D01*
X26051373Y17447804D01*
X26469340Y17364665D01*
X26887307Y17447804D01*
X27241642Y17684563D01*
X27478401Y18038898D01*
X27561540Y18456865D01*
X27561540Y19846335D01*
X30457140Y19846335D01*
X30457140Y18456865D01*
X30540279Y18038898D01*
X30777038Y17684563D01*
X31131373Y17447804D01*
X31549340Y17364665D01*
X31967307Y17447804D01*
X32321642Y17684563D01*
X32558401Y18038898D01*
X32641540Y18456865D01*
X32641540Y19846335D01*
X32558401Y20264302D01*
X32321642Y20618637D01*
X31967307Y20855396D01*
X31549340Y20938535D01*
X31131373Y20855396D01*
X30777038Y20618637D01*
X30540279Y20264302D01*
X30457140Y19846335D01*
X27561540Y19846335D01*
X27478401Y20264302D01*
X27241642Y20618637D01*
X26887307Y20855396D01*
X26469340Y20938535D01*
X26051373Y20855396D01*
X25697038Y20618637D01*
X25460279Y20264302D01*
X25377140Y19846335D01*
X24843740Y19846335D01*
X24843740Y23431500D01*
X24837737Y23461146D01*
X24820672Y23486121D01*
X24795235Y23502489D01*
X24767540Y23507700D01*
X19306540Y23507700D01*
X19276894Y23501697D01*
X19251919Y23484632D01*
X19235551Y23459195D01*
X19230340Y23431500D01*
X19230340Y19615677D01*
X19120921Y19661000D01*
X18690590Y19661000D01*
X18608040Y19578450D01*
X18608040Y19008600D01*
X18628040Y19008600D01*
X18628040Y18653000D01*
X18608040Y18653000D01*
X18608040Y18083150D01*
X18690590Y18000600D01*
X19120921Y18000600D01*
X19230340Y18045923D01*
X19230340Y17480842D01*
X19222312Y17493318D01*
X19145920Y17545515D01*
X19055240Y17563878D01*
X17805240Y17563878D01*
X17720526Y17547938D01*
X17642722Y17497872D01*
X17590525Y17421480D01*
X17572162Y17330800D01*
X17572162Y17186400D01*
X17436913Y17186400D01*
X17434878Y17197214D01*
X17384812Y17275018D01*
X17308420Y17327215D01*
X17217740Y17345578D01*
X16467740Y17345578D01*
X16383026Y17329638D01*
X16305222Y17279572D01*
X16253025Y17203180D01*
X16234662Y17112500D01*
X16234662Y16607316D01*
X15928257Y16300911D01*
X15928428Y16496304D01*
X15851252Y16683083D01*
X15805373Y16729042D01*
X15991840Y16729042D01*
X16076554Y16744982D01*
X16154358Y16795048D01*
X16206555Y16871440D01*
X16224918Y16962120D01*
X16224918Y17588349D01*
X16280697Y17532570D01*
X16402059Y17482300D01*
X16582390Y17482300D01*
X16664940Y17564850D01*
X16664940Y18034700D01*
X16220090Y18034700D01*
X16215998Y18030608D01*
X16208978Y18067914D01*
X16158912Y18145718D01*
X16082520Y18197915D01*
X15991840Y18216278D01*
X13451840Y18216278D01*
X13427140Y18211630D01*
X13427140Y18678181D01*
X16137540Y18678181D01*
X16137540Y18472850D01*
X16220090Y18390300D01*
X16664940Y18390300D01*
X16664940Y18860150D01*
X17020540Y18860150D01*
X17020540Y18390300D01*
X17040540Y18390300D01*
X17040540Y18034700D01*
X17020540Y18034700D01*
X17020540Y17564850D01*
X17103090Y17482300D01*
X17283421Y17482300D01*
X17404783Y17532570D01*
X17497670Y17625457D01*
X17547940Y17746819D01*
X17547940Y17952150D01*
X17465392Y18034698D01*
X17547940Y18034698D01*
X17547940Y18121127D01*
X17618197Y18050870D01*
X17739559Y18000600D01*
X18169890Y18000600D01*
X18252440Y18083150D01*
X18252440Y18653000D01*
X17557590Y18653000D01*
X17547940Y18643350D01*
X17547940Y18678181D01*
X17497670Y18799543D01*
X17404783Y18892430D01*
X17283421Y18942700D01*
X17103090Y18942700D01*
X17020540Y18860150D01*
X16664940Y18860150D01*
X16582390Y18942700D01*
X16402059Y18942700D01*
X16280697Y18892430D01*
X16187810Y18799543D01*
X16137540Y18678181D01*
X13427140Y18678181D01*
X13427140Y18799200D01*
X13416011Y18855150D01*
X13400072Y18935283D01*
X13341118Y19023512D01*
X13341118Y19052179D01*
X13361160Y19038485D01*
X13451840Y19020122D01*
X15991840Y19020122D01*
X16076554Y19036062D01*
X16154358Y19086128D01*
X16206555Y19162520D01*
X16224918Y19253200D01*
X16224918Y19396481D01*
X17475040Y19396481D01*
X17475040Y19091150D01*
X17557590Y19008600D01*
X18252440Y19008600D01*
X18252440Y19578450D01*
X18169890Y19661000D01*
X17739559Y19661000D01*
X17618197Y19610730D01*
X17525310Y19517843D01*
X17475040Y19396481D01*
X16224918Y19396481D01*
X16224918Y20274280D01*
X16208978Y20358994D01*
X16158912Y20436798D01*
X16082520Y20488995D01*
X15991840Y20507358D01*
X13451840Y20507358D01*
X13367126Y20491418D01*
X13289322Y20441352D01*
X13277486Y20424029D01*
X13275112Y20427718D01*
X13198720Y20479915D01*
X13108040Y20498278D01*
X12508040Y20498278D01*
X12423326Y20482338D01*
X12345522Y20432272D01*
X12314841Y20387370D01*
X12287970Y20452243D01*
X12195083Y20545130D01*
X12073721Y20595400D01*
X11940590Y20595400D01*
X11858040Y20512850D01*
X11858040Y20140200D01*
X11905840Y20140200D01*
X11905840Y19890200D01*
X11858040Y19890200D01*
X11858040Y19187700D01*
X11905840Y19187700D01*
X11905840Y18937700D01*
X11858040Y18937700D01*
X11858040Y18864900D01*
X11558040Y18864900D01*
X11558040Y18937700D01*
X11510240Y18937700D01*
X11510240Y19187700D01*
X11558040Y19187700D01*
X11558040Y19890200D01*
X11510240Y19890200D01*
X11510240Y20140200D01*
X11558040Y20140200D01*
X11558040Y20512850D01*
X11475490Y20595400D01*
X11342359Y20595400D01*
X11220997Y20545130D01*
X11210640Y20534773D01*
X11210640Y20549302D01*
X11128092Y20549302D01*
X11210640Y20631850D01*
X11210640Y20837181D01*
X11160370Y20958543D01*
X11067483Y21051430D01*
X10946121Y21101700D01*
X10765790Y21101700D01*
X10683240Y21019150D01*
X10683240Y20549300D01*
X10703240Y20549300D01*
X10703240Y20193700D01*
X10683240Y20193700D01*
X10683240Y19723850D01*
X10765790Y19641300D01*
X10946121Y19641300D01*
X11067483Y19691570D01*
X11077840Y19701927D01*
X11077840Y19699519D01*
X11128110Y19578157D01*
X11167317Y19538950D01*
X11128110Y19499743D01*
X11079984Y19383556D01*
X11047512Y19434018D01*
X10971120Y19486215D01*
X10880440Y19504578D01*
X10130440Y19504578D01*
X10045726Y19488638D01*
X9967922Y19438572D01*
X9915725Y19362180D01*
X9897362Y19271500D01*
X9897362Y19227100D01*
X9776018Y19227100D01*
X9776018Y19477100D01*
X9760078Y19561814D01*
X9710012Y19639618D01*
X9633620Y19691815D01*
X9542940Y19710178D01*
X8292940Y19710178D01*
X8208226Y19694238D01*
X8130422Y19644172D01*
X8078225Y19567780D01*
X8059862Y19477100D01*
X8059862Y18477100D01*
X8075802Y18392386D01*
X8125868Y18314582D01*
X8202260Y18262385D01*
X8292940Y18244022D01*
X9542940Y18244022D01*
X9627654Y18259962D01*
X9705458Y18310028D01*
X9757655Y18386420D01*
X9776018Y18477100D01*
X9776018Y18515900D01*
X9897362Y18515900D01*
X9897362Y18471500D01*
X9913302Y18386786D01*
X9963368Y18308982D01*
X10039760Y18256785D01*
X10130440Y18238422D01*
X10590689Y18238422D01*
X10556610Y18204343D01*
X10506340Y18082981D01*
X10506340Y17974850D01*
X10588890Y17892300D01*
X10986540Y17892300D01*
X10986540Y17965100D01*
X11286540Y17965100D01*
X11286540Y17892300D01*
X11334340Y17892300D01*
X11334340Y17642300D01*
X11286540Y17642300D01*
X11286540Y17569500D01*
X10986540Y17569500D01*
X10986540Y17642300D01*
X10588890Y17642300D01*
X10506340Y17559750D01*
X10506340Y17451619D01*
X10556610Y17330257D01*
X10649497Y17237370D01*
X10770859Y17187100D01*
X10903990Y17187100D01*
X10958738Y17241848D01*
X10958738Y17187100D01*
X11134591Y17187100D01*
X11064329Y17017891D01*
X11064152Y16815796D01*
X11115040Y16692638D01*
X11115040Y16433800D01*
X11178540Y16433800D01*
X11178540Y16078200D01*
X11115040Y16078200D01*
X11115040Y16058200D01*
X10988040Y16058200D01*
X10988040Y16078200D01*
X10931618Y16078200D01*
X10931618Y16433800D01*
X10988040Y16433800D01*
X10988040Y16910050D01*
X10905490Y16992600D01*
X10858859Y16992600D01*
X10737497Y16942330D01*
X10690645Y16895478D01*
X10444540Y16895478D01*
X10359826Y16879538D01*
X10282022Y16829472D01*
X10229825Y16753080D01*
X10213340Y16671674D01*
X10213340Y17284700D01*
X10209783Y17302585D01*
X10186272Y17420783D01*
X10109187Y17536147D01*
X9563087Y18082247D01*
X9447723Y18159332D01*
X9311640Y18186400D01*
X8049234Y18186400D01*
X7965440Y18270194D01*
X7965440Y20404901D01*
X8013010Y20290057D01*
X8105897Y20197170D01*
X8227259Y20146900D01*
X8657590Y20146900D01*
X8740140Y20229450D01*
X8740140Y20799300D01*
X8720140Y20799300D01*
X8720140Y21154900D01*
X8740140Y21154900D01*
X8740140Y21724750D01*
X9095740Y21724750D01*
X9095740Y21154900D01*
X9115740Y21154900D01*
X9115740Y20799300D01*
X9095740Y20799300D01*
X9095740Y20229450D01*
X9178290Y20146900D01*
X9608621Y20146900D01*
X9729983Y20197170D01*
X9800240Y20267427D01*
X9800240Y20193698D01*
X9882788Y20193698D01*
X9800240Y20111150D01*
X9800240Y19905819D01*
X9850510Y19784457D01*
X9943397Y19691570D01*
X10064759Y19641300D01*
X10245090Y19641300D01*
X10327640Y19723850D01*
X10327640Y20193700D01*
X10307640Y20193700D01*
X10307640Y20549300D01*
X10327640Y20549300D01*
X10327640Y21019150D01*
X10245090Y21101700D01*
X10064759Y21101700D01*
X9943397Y21051430D01*
X9873140Y20981173D01*
X9873140Y21154902D01*
X9790592Y21154902D01*
X9873140Y21237450D01*
X9873140Y21542781D01*
X9822870Y21664143D01*
X9729983Y21757030D01*
X9608621Y21807300D01*
X9178290Y21807300D01*
X9095740Y21724750D01*
X8740140Y21724750D01*
X8657590Y21807300D01*
X8227259Y21807300D01*
X8105897Y21757030D01*
X8013010Y21664143D01*
X7965440Y21549299D01*
X7965440Y25400000D01*
X7938372Y25536082D01*
X7861287Y25651447D01*
X6711087Y26801647D01*
X6595723Y26878732D01*
X6459640Y26905800D01*
X5198464Y26905800D01*
X5194012Y26912718D01*
X5149110Y26943399D01*
X5213983Y26970270D01*
X5306870Y27063157D01*
X5357140Y27184519D01*
X5357140Y27267650D01*
X5274590Y27350200D01*
X4876940Y27350200D01*
X4876940Y27252400D01*
X4576940Y27252400D01*
X4576940Y27350200D01*
X4179290Y27350200D01*
X4096740Y27267650D01*
X4096740Y27184519D01*
X4147010Y27063157D01*
X4239897Y26970270D01*
X4304924Y26943335D01*
X4264422Y26917272D01*
X4256583Y26905800D01*
X3346558Y26905800D01*
X3331567Y26981162D01*
X3097756Y27331085D01*
X2747833Y27564896D01*
X2335071Y27647000D01*
X2292809Y27647000D01*
X1880047Y27564896D01*
X1530124Y27331085D01*
X1296313Y26981162D01*
X1214209Y26568400D01*
X78740Y26568400D01*
X78740Y27715881D01*
X4096740Y27715881D01*
X4096740Y27632750D01*
X4179290Y27550200D01*
X4576940Y27550200D01*
X4576940Y27897850D01*
X4876940Y27897850D01*
X4876940Y27550200D01*
X5274590Y27550200D01*
X5357140Y27632750D01*
X5357140Y27715881D01*
X5306870Y27837243D01*
X5213983Y27930130D01*
X5092621Y27980400D01*
X4959490Y27980400D01*
X4876940Y27897850D01*
X4576940Y27897850D01*
X4494390Y27980400D01*
X4361259Y27980400D01*
X4239897Y27930130D01*
X4147010Y27837243D01*
X4096740Y27715881D01*
X78740Y27715881D01*
X78740Y28750272D01*
X1189388Y28750272D01*
X1265514Y28566447D01*
X1552717Y28206485D01*
X1955810Y27983832D01*
X2136140Y28024203D01*
X2136140Y28930600D01*
X2491740Y28930600D01*
X2491740Y28024203D01*
X2672070Y27983832D01*
X3075163Y28206485D01*
X3362366Y28566447D01*
X3438492Y28750272D01*
X3397094Y28930600D01*
X2491740Y28930600D01*
X2136140Y28930600D01*
X1230786Y28930600D01*
X1189388Y28750272D01*
X78740Y28750272D01*
X78740Y29070300D01*
X9159240Y29070300D01*
X9215310Y28788415D01*
X9374985Y28549445D01*
X9613955Y28389770D01*
X9895840Y28333700D01*
X13705840Y28333700D01*
X13987725Y28389770D01*
X14226695Y28549445D01*
X14386370Y28788415D01*
X14442440Y29070300D01*
X16779240Y29070300D01*
X16780590Y29063515D01*
X16779365Y29056704D01*
X16931634Y20808863D01*
X16931512Y20669424D01*
X17043417Y20398595D01*
X17250445Y20191205D01*
X17521078Y20078828D01*
X17814116Y20078572D01*
X18084945Y20190477D01*
X18292335Y20397505D01*
X18404712Y20668138D01*
X18404968Y20961176D01*
X18402147Y20968004D01*
X18317154Y25571800D01*
X27175462Y25571800D01*
X27175462Y24821800D01*
X27191402Y24737086D01*
X27241468Y24659282D01*
X27317860Y24607085D01*
X27408540Y24588722D01*
X28608540Y24588722D01*
X28693254Y24604662D01*
X28771058Y24654728D01*
X28823255Y24731120D01*
X28841618Y24821800D01*
X28841618Y25571800D01*
X29075462Y25571800D01*
X29075462Y24821800D01*
X29091402Y24737086D01*
X29141468Y24659282D01*
X29217860Y24607085D01*
X29308540Y24588722D01*
X30508540Y24588722D01*
X30593254Y24604662D01*
X30671058Y24654728D01*
X30723255Y24731120D01*
X30741618Y24821800D01*
X30741618Y25571800D01*
X30725678Y25656514D01*
X30675612Y25734318D01*
X30599220Y25786515D01*
X30508540Y25804878D01*
X29308540Y25804878D01*
X29223826Y25788938D01*
X29146022Y25738872D01*
X29093825Y25662480D01*
X29075462Y25571800D01*
X28841618Y25571800D01*
X28825678Y25656514D01*
X28775612Y25734318D01*
X28699220Y25786515D01*
X28608540Y25804878D01*
X27408540Y25804878D01*
X27323826Y25788938D01*
X27246022Y25738872D01*
X27193825Y25662480D01*
X27175462Y25571800D01*
X18317154Y25571800D01*
X18266165Y28333700D01*
X23573430Y28333700D01*
X25275385Y26631745D01*
X25514355Y26472070D01*
X25796240Y26416000D01*
X28957897Y26416000D01*
X29104416Y26415872D01*
X29375245Y26527777D01*
X29582635Y26734805D01*
X29695012Y27005438D01*
X29695268Y27298476D01*
X29583363Y27569305D01*
X29376335Y27776695D01*
X29105702Y27889072D01*
X28812664Y27889328D01*
X28812354Y27889200D01*
X26101350Y27889200D01*
X25400400Y28590150D01*
X25839140Y28590150D01*
X25839140Y28507019D01*
X25889410Y28385657D01*
X25982297Y28292770D01*
X26103659Y28242500D01*
X26236790Y28242500D01*
X26319340Y28325050D01*
X26319340Y28672700D01*
X25921690Y28672700D01*
X25839140Y28590150D01*
X25400400Y28590150D01*
X24399395Y29591155D01*
X24160425Y29750830D01*
X23878540Y29806900D01*
X17515840Y29806900D01*
X17509055Y29805550D01*
X17502244Y29806775D01*
X17368348Y29777562D01*
X17233955Y29750830D01*
X17228202Y29746986D01*
X17221442Y29745511D01*
X17108937Y29667295D01*
X16994985Y29591155D01*
X16991140Y29585401D01*
X16985460Y29581452D01*
X16911456Y29466145D01*
X16835310Y29352185D01*
X16833960Y29345398D01*
X16830223Y29339575D01*
X16805973Y29204695D01*
X16779240Y29070300D01*
X14442440Y29070300D01*
X14386370Y29352185D01*
X14226695Y29591155D01*
X13987725Y29750830D01*
X13705840Y29806900D01*
X9895840Y29806900D01*
X9613955Y29750830D01*
X9374985Y29591155D01*
X9215310Y29352185D01*
X9159240Y29070300D01*
X78740Y29070300D01*
X78740Y29466528D01*
X1189388Y29466528D01*
X1230786Y29286200D01*
X2136140Y29286200D01*
X2136140Y30192597D01*
X2491740Y30192597D01*
X2491740Y29286200D01*
X3397094Y29286200D01*
X3438492Y29466528D01*
X3362366Y29650353D01*
X3075163Y30010315D01*
X2672070Y30232968D01*
X2491740Y30192597D01*
X2136140Y30192597D01*
X1955810Y30232968D01*
X1552717Y30010315D01*
X1265514Y29650353D01*
X1189388Y29466528D01*
X78740Y29466528D01*
X78740Y31648400D01*
X1214209Y31648400D01*
X1296313Y31235638D01*
X1530124Y30885715D01*
X1880047Y30651904D01*
X2292809Y30569800D01*
X2335071Y30569800D01*
X2747833Y30651904D01*
X3097756Y30885715D01*
X3331567Y31235638D01*
X3339380Y31274920D01*
X9679725Y31274920D01*
X9868804Y30817312D01*
X10218610Y30466895D01*
X10675888Y30277017D01*
X11171020Y30276585D01*
X11628628Y30465664D01*
X11979045Y30815470D01*
X12168923Y31272748D01*
X12168924Y31274920D01*
X12219725Y31274920D01*
X12408804Y30817312D01*
X12758610Y30466895D01*
X13215888Y30277017D01*
X13711020Y30276585D01*
X14168628Y30465664D01*
X14519045Y30815470D01*
X14708923Y31272748D01*
X14709355Y31767880D01*
X14520276Y32225488D01*
X14199989Y32546335D01*
X25377140Y32546335D01*
X25377140Y31156865D01*
X25460279Y30738898D01*
X25697038Y30384563D01*
X26051373Y30147804D01*
X26113740Y30135398D01*
X26113740Y30095316D01*
X26084626Y30089838D01*
X26006822Y30039772D01*
X25954625Y29963380D01*
X25936262Y29872700D01*
X25936262Y29472700D01*
X25952202Y29387986D01*
X26002268Y29310182D01*
X26047170Y29279501D01*
X25982297Y29252630D01*
X25889410Y29159743D01*
X25839140Y29038381D01*
X25839140Y28955250D01*
X25921690Y28872700D01*
X26319340Y28872700D01*
X26319340Y28970500D01*
X26619340Y28970500D01*
X26619340Y28872700D01*
X26667140Y28872700D01*
X26667140Y28672700D01*
X26619340Y28672700D01*
X26619340Y28325050D01*
X26701890Y28242500D01*
X26835021Y28242500D01*
X26956383Y28292770D01*
X27049270Y28385657D01*
X27063204Y28419295D01*
X27069068Y28410182D01*
X27145460Y28357985D01*
X27236140Y28339622D01*
X27836140Y28339622D01*
X27920854Y28355562D01*
X27998658Y28405628D01*
X28006497Y28417100D01*
X34367017Y28417100D01*
X34436206Y28347790D01*
X34622849Y28270289D01*
X34824944Y28270112D01*
X35011723Y28347288D01*
X35154750Y28490066D01*
X35232251Y28676709D01*
X35232428Y28878804D01*
X35155252Y29065583D01*
X35012474Y29208610D01*
X34825831Y29286111D01*
X34623736Y29286288D01*
X34436957Y29209112D01*
X34356004Y29128300D01*
X28007664Y29128300D01*
X28003212Y29135218D01*
X27926820Y29187415D01*
X27836140Y29205778D01*
X27236140Y29205778D01*
X27151426Y29189838D01*
X27073622Y29139772D01*
X27063611Y29125121D01*
X27049270Y29159743D01*
X26956383Y29252630D01*
X26891356Y29279565D01*
X26931858Y29305628D01*
X26939697Y29317100D01*
X27064616Y29317100D01*
X27069068Y29310182D01*
X27145460Y29257985D01*
X27236140Y29239622D01*
X27836140Y29239622D01*
X27920854Y29255562D01*
X27998658Y29305628D01*
X28050855Y29382020D01*
X28069218Y29472700D01*
X28069218Y29872700D01*
X28053278Y29957414D01*
X28003212Y30035218D01*
X27926820Y30087415D01*
X27836140Y30105778D01*
X27236140Y30105778D01*
X27151426Y30089838D01*
X27073622Y30039772D01*
X27065783Y30028300D01*
X26940864Y30028300D01*
X26936412Y30035218D01*
X26860020Y30087415D01*
X26824940Y30094519D01*
X26824940Y30135398D01*
X26887307Y30147804D01*
X27241642Y30384563D01*
X27478401Y30738898D01*
X27561540Y31156865D01*
X27561540Y32546335D01*
X30457140Y32546335D01*
X30457140Y31156865D01*
X30540279Y30738898D01*
X30777038Y30384563D01*
X31131373Y30147804D01*
X31549340Y30064665D01*
X31967307Y30147804D01*
X32321642Y30384563D01*
X32558401Y30738898D01*
X32641540Y31156865D01*
X32641540Y32546335D01*
X32558401Y32964302D01*
X32321642Y33318637D01*
X31967307Y33555396D01*
X31549340Y33638535D01*
X31131373Y33555396D01*
X30777038Y33318637D01*
X30540279Y32964302D01*
X30457140Y32546335D01*
X27561540Y32546335D01*
X27478401Y32964302D01*
X27241642Y33318637D01*
X26887307Y33555396D01*
X26469340Y33638535D01*
X26051373Y33555396D01*
X25697038Y33318637D01*
X25460279Y32964302D01*
X25377140Y32546335D01*
X14199989Y32546335D01*
X14170470Y32575905D01*
X13713192Y32765783D01*
X13218060Y32766215D01*
X12760452Y32577136D01*
X12410035Y32227330D01*
X12220157Y31770052D01*
X12219725Y31274920D01*
X12168924Y31274920D01*
X12169355Y31767880D01*
X11980276Y32225488D01*
X11630470Y32575905D01*
X11173192Y32765783D01*
X10678060Y32766215D01*
X10220452Y32577136D01*
X9870035Y32227330D01*
X9680157Y31770052D01*
X9679725Y31274920D01*
X3339380Y31274920D01*
X3413671Y31648400D01*
X3331567Y32061162D01*
X3097756Y32411085D01*
X2747833Y32644896D01*
X2335071Y32727000D01*
X2292809Y32727000D01*
X1880047Y32644896D01*
X1530124Y32411085D01*
X1296313Y32061162D01*
X1214209Y31648400D01*
X78740Y31648400D01*
X78740Y33705800D01*
X38280340Y33705800D01*
X38280340Y17068800D01*
X38280340Y17068800D01*
G37*
X38280340Y17068800D02*
X25745440Y17068800D01*
X25715794Y17062797D01*
X25690819Y17045732D01*
X25674451Y17020295D01*
X25669240Y16992600D01*
X25669240Y16141700D01*
X25675243Y16112054D01*
X25692308Y16087079D01*
X25717745Y16070711D01*
X25745440Y16065500D01*
X25885140Y16065500D01*
X25914786Y16071503D01*
X25939761Y16088568D01*
X25956129Y16114005D01*
X25961340Y16141700D01*
X25961340Y16421100D01*
X31206440Y16421100D01*
X31206440Y11569700D01*
X28641040Y11569700D01*
X28611394Y11563697D01*
X28586419Y11546632D01*
X28570051Y11521195D01*
X28564840Y11493500D01*
X28564840Y9499600D01*
X28570843Y9469954D01*
X28587908Y9444979D01*
X28613345Y9428611D01*
X28641040Y9423400D01*
X31206440Y9423400D01*
X31206440Y6883400D01*
X28641040Y6883400D01*
X28611394Y6877397D01*
X28586419Y6860332D01*
X28570051Y6834895D01*
X28564840Y6807200D01*
X28564840Y4813300D01*
X28570843Y4783654D01*
X28587908Y4758679D01*
X28613345Y4742311D01*
X28641040Y4737100D01*
X31206440Y4737100D01*
X31206440Y2159000D01*
X26926540Y2159000D01*
X26926540Y2501900D01*
X30787340Y2501900D01*
X30816986Y2507903D01*
X30841961Y2524968D01*
X30858329Y2550405D01*
X30863540Y2578100D01*
X30863540Y4318000D01*
X30857537Y4347646D01*
X30840472Y4372621D01*
X30815035Y4388989D01*
X30787340Y4394200D01*
X28221940Y4394200D01*
X28221940Y7226300D01*
X30787340Y7226300D01*
X30816986Y7232303D01*
X30841961Y7249368D01*
X30858329Y7274805D01*
X30863540Y7302500D01*
X30863540Y9004300D01*
X30857537Y9033946D01*
X30840472Y9058921D01*
X30815035Y9075289D01*
X30787340Y9080500D01*
X28221940Y9080500D01*
X28221940Y11912600D01*
X30787340Y11912600D01*
X30816986Y11918603D01*
X30841961Y11935668D01*
X30858329Y11961105D01*
X30863540Y11988800D01*
X30863540Y13690600D01*
X30857537Y13720246D01*
X30840472Y13745221D01*
X30815035Y13761589D01*
X30787340Y13766800D01*
X26266140Y13766800D01*
X26257906Y13766354D01*
X25941345Y13731945D01*
X25874790Y13798500D01*
X25502140Y13798500D01*
X25502140Y13703300D01*
X25252140Y13703300D01*
X25252140Y13798500D01*
X25199340Y13798500D01*
X25199340Y14098500D01*
X25252140Y14098500D01*
X25252140Y14185900D01*
X25502140Y14185900D01*
X25502140Y14098500D01*
X25874790Y14098500D01*
X25936506Y14160216D01*
X26257339Y14122910D01*
X26266140Y14122400D01*
X30787340Y14122400D01*
X30816986Y14128403D01*
X30841961Y14145468D01*
X30858329Y14170905D01*
X30863540Y14198600D01*
X30863540Y15595600D01*
X30857537Y15625246D01*
X30840472Y15650221D01*
X30815035Y15666589D01*
X30787340Y15671800D01*
X25961340Y15671800D01*
X25961340Y15963900D01*
X25955337Y15993546D01*
X25938272Y16018521D01*
X25912835Y16034889D01*
X25885140Y16040100D01*
X25745440Y16040100D01*
X25715794Y16034097D01*
X25690819Y16017032D01*
X25674451Y15991595D01*
X25669240Y15963900D01*
X25669240Y15455900D01*
X25675243Y15426254D01*
X25692308Y15401279D01*
X25717745Y15384911D01*
X25745440Y15379700D01*
X26304240Y15379700D01*
X26304240Y14490700D01*
X25851913Y14490700D01*
X25814183Y14528430D01*
X25692821Y14578700D01*
X25584690Y14578700D01*
X25502140Y14496150D01*
X25502140Y14490700D01*
X25252140Y14490700D01*
X25252140Y14496150D01*
X25169590Y14578700D01*
X25061459Y14578700D01*
X24940097Y14528430D01*
X24926040Y14514373D01*
X24853583Y14586830D01*
X24732221Y14637100D01*
X24326890Y14637100D01*
X24244340Y14554550D01*
X24244340Y14109700D01*
X24264340Y14109700D01*
X24264340Y13754100D01*
X24244340Y13754100D01*
X24244340Y13309250D01*
X24326890Y13226700D01*
X24732221Y13226700D01*
X24816603Y13261652D01*
X24796940Y13214181D01*
X24796940Y13081050D01*
X24879490Y12998500D01*
X25252140Y12998500D01*
X25252140Y13046300D01*
X25502140Y13046300D01*
X25502140Y12998500D01*
X25874790Y12998500D01*
X25957340Y13081050D01*
X25957340Y13214181D01*
X25907070Y13335543D01*
X25844113Y13398500D01*
X25869513Y13423900D01*
X26304240Y13423900D01*
X26304240Y76200D01*
X78740Y76200D01*
X78740Y11643000D01*
X834262Y11643000D01*
X834262Y9643000D01*
X850202Y9558286D01*
X900268Y9480482D01*
X976660Y9428285D01*
X1067340Y9409922D01*
X2567340Y9409922D01*
X2652054Y9425862D01*
X2729858Y9475928D01*
X2782055Y9552320D01*
X2800418Y9643000D01*
X2800418Y11643000D01*
X2784478Y11727714D01*
X2734412Y11805518D01*
X2658020Y11857715D01*
X2567340Y11876078D01*
X2553940Y11876078D01*
X2553940Y11921745D01*
X2582860Y11901985D01*
X2673540Y11883622D01*
X3173540Y11883622D01*
X3258254Y11899562D01*
X3336058Y11949628D01*
X3388255Y12026020D01*
X3406618Y12116700D01*
X3406618Y12716700D01*
X3390678Y12801414D01*
X3340612Y12879218D01*
X3295710Y12909899D01*
X3360583Y12936770D01*
X3453470Y13029657D01*
X3503740Y13151019D01*
X3503740Y13284150D01*
X3421190Y13366700D01*
X3048540Y13366700D01*
X3048540Y13318900D01*
X2798540Y13318900D01*
X2798540Y13366700D01*
X2725740Y13366700D01*
X2725740Y13666700D01*
X2798540Y13666700D01*
X2798540Y14064350D01*
X3048540Y14064350D01*
X3048540Y13666700D01*
X3421190Y13666700D01*
X3503740Y13749250D01*
X3503740Y13882381D01*
X3453470Y14003743D01*
X3360583Y14096630D01*
X3239221Y14146900D01*
X3131090Y14146900D01*
X3048540Y14064350D01*
X2798540Y14064350D01*
X2715990Y14146900D01*
X2607859Y14146900D01*
X2553940Y14124566D01*
X2553940Y17865322D01*
X3163940Y17865322D01*
X3248654Y17881262D01*
X3326458Y17931328D01*
X3378655Y18007720D01*
X3397018Y18098400D01*
X3397018Y19798400D01*
X3381078Y19883114D01*
X3331012Y19960918D01*
X3254620Y20013115D01*
X3163940Y20031478D01*
X1463940Y20031478D01*
X1379226Y20015538D01*
X1301422Y19965472D01*
X1249225Y19889080D01*
X1230862Y19798400D01*
X1230862Y18874443D01*
X1136810Y18733685D01*
X1080740Y18451800D01*
X1080740Y11876078D01*
X1067340Y11876078D01*
X982626Y11860138D01*
X904822Y11810072D01*
X852625Y11733680D01*
X834262Y11643000D01*
X78740Y11643000D01*
X78740Y26568400D01*
X1214209Y26568400D01*
X1296313Y26155638D01*
X1530124Y25805715D01*
X1880047Y25571904D01*
X2292809Y25489800D01*
X2335071Y25489800D01*
X2747833Y25571904D01*
X3097756Y25805715D01*
X3331567Y26155638D01*
X3339317Y26194600D01*
X4255416Y26194600D01*
X4259868Y26187682D01*
X4336260Y26135485D01*
X4426940Y26117122D01*
X5026940Y26117122D01*
X5111654Y26133062D01*
X5189458Y26183128D01*
X5197297Y26194600D01*
X6312346Y26194600D01*
X7254240Y25252706D01*
X7254240Y18122900D01*
X7281308Y17986817D01*
X7358393Y17871453D01*
X7650493Y17579353D01*
X7765857Y17502268D01*
X7901940Y17475200D01*
X9164346Y17475200D01*
X9502140Y17137406D01*
X9502140Y15826078D01*
X9375140Y15826078D01*
X9290426Y15810138D01*
X9212622Y15760072D01*
X9160425Y15683680D01*
X9142062Y15593000D01*
X9142062Y15339000D01*
X9145336Y15321600D01*
X8234334Y15321600D01*
X6047740Y17508194D01*
X6047740Y23380700D01*
X6020672Y23516782D01*
X5943587Y23632147D01*
X5290387Y24285347D01*
X5175023Y24362432D01*
X5149058Y24367597D01*
X5130512Y24396418D01*
X5054120Y24448615D01*
X4963440Y24466978D01*
X4363440Y24466978D01*
X4278726Y24451038D01*
X4200922Y24400972D01*
X4193083Y24389500D01*
X3341843Y24389500D01*
X3331567Y24441162D01*
X3097756Y24791085D01*
X2747833Y25024896D01*
X2335071Y25107000D01*
X2292809Y25107000D01*
X1880047Y25024896D01*
X1530124Y24791085D01*
X1296313Y24441162D01*
X1214209Y24028400D01*
X1296313Y23615638D01*
X1530124Y23265715D01*
X1880047Y23031904D01*
X2292809Y22949800D01*
X2335071Y22949800D01*
X2342863Y22951350D01*
X4033240Y22951350D01*
X4033240Y22868219D01*
X4083510Y22746857D01*
X4176397Y22653970D01*
X4297759Y22603700D01*
X4430890Y22603700D01*
X4513440Y22686250D01*
X4513440Y23033900D01*
X4813440Y23033900D01*
X4813440Y22686250D01*
X4895990Y22603700D01*
X5029121Y22603700D01*
X5150483Y22653970D01*
X5243370Y22746857D01*
X5293640Y22868219D01*
X5293640Y22951350D01*
X5211090Y23033900D01*
X4813440Y23033900D01*
X4513440Y23033900D01*
X4115790Y23033900D01*
X4033240Y22951350D01*
X2342863Y22951350D01*
X2747833Y23031904D01*
X3097756Y23265715D01*
X3331567Y23615638D01*
X3344031Y23678300D01*
X4191916Y23678300D01*
X4196368Y23671382D01*
X4241270Y23640701D01*
X4176397Y23613830D01*
X4083510Y23520943D01*
X4033240Y23399581D01*
X4033240Y23316450D01*
X4115790Y23233900D01*
X4513440Y23233900D01*
X4513440Y23331700D01*
X4813440Y23331700D01*
X4813440Y23233900D01*
X5211090Y23233900D01*
X5273568Y23296378D01*
X5336540Y23233406D01*
X5336540Y17360900D01*
X5363608Y17224817D01*
X5440693Y17109453D01*
X7835593Y14714553D01*
X7950957Y14637468D01*
X8087040Y14610400D01*
X9145586Y14610400D01*
X9142062Y14593000D01*
X9142062Y14339000D01*
X9145336Y14321600D01*
X6199034Y14321600D01*
X4523740Y15996894D01*
X4523740Y20828000D01*
X4496672Y20964082D01*
X4419587Y21079447D01*
X3759187Y21739847D01*
X3643823Y21816932D01*
X3507740Y21844000D01*
X3342937Y21844000D01*
X3331567Y21901162D01*
X3097756Y22251085D01*
X2747833Y22484896D01*
X2335071Y22567000D01*
X2292809Y22567000D01*
X1880047Y22484896D01*
X1530124Y22251085D01*
X1296313Y21901162D01*
X1214209Y21488400D01*
X1296313Y21075638D01*
X1530124Y20725715D01*
X1880047Y20491904D01*
X2292809Y20409800D01*
X2335071Y20409800D01*
X2747833Y20491904D01*
X3097756Y20725715D01*
X3331567Y21075638D01*
X3342937Y21132800D01*
X3360446Y21132800D01*
X3812540Y20680706D01*
X3812540Y15849600D01*
X3839608Y15713517D01*
X3916693Y15598153D01*
X4518991Y14995855D01*
X4503543Y14973247D01*
X4483929Y14882829D01*
X4501038Y14791903D01*
X4552174Y14714798D01*
X4976438Y14290534D01*
X5047611Y14241903D01*
X5138029Y14222289D01*
X5228955Y14239398D01*
X5256909Y14257937D01*
X5800293Y13714553D01*
X5915657Y13637468D01*
X6051740Y13610400D01*
X7026540Y13610400D01*
X7026540Y13517150D01*
X7109090Y13434600D01*
X7506740Y13434600D01*
X7506740Y13507400D01*
X7806740Y13507400D01*
X7806740Y13434600D01*
X7854540Y13434600D01*
X7854540Y13184600D01*
X7806740Y13184600D01*
X7806740Y12811950D01*
X7889290Y12729400D01*
X8022421Y12729400D01*
X8031073Y12732984D01*
X7974022Y12696272D01*
X7921825Y12619880D01*
X7903462Y12529200D01*
X7903462Y12484800D01*
X6523716Y12484800D01*
X6529440Y12498619D01*
X6529440Y12606750D01*
X6446890Y12689300D01*
X6049240Y12689300D01*
X6049240Y12616500D01*
X5749240Y12616500D01*
X5749240Y12689300D01*
X5701440Y12689300D01*
X5701440Y12939300D01*
X5749240Y12939300D01*
X5749240Y13311950D01*
X6049240Y13311950D01*
X6049240Y12939300D01*
X6446890Y12939300D01*
X6529440Y13021850D01*
X6529440Y13102050D01*
X7026540Y13102050D01*
X7026540Y12993919D01*
X7076810Y12872557D01*
X7169697Y12779670D01*
X7291059Y12729400D01*
X7424190Y12729400D01*
X7506740Y12811950D01*
X7506740Y13184600D01*
X7109090Y13184600D01*
X7026540Y13102050D01*
X6529440Y13102050D01*
X6529440Y13129981D01*
X6479170Y13251343D01*
X6386283Y13344230D01*
X6264921Y13394500D01*
X6131790Y13394500D01*
X6049240Y13311950D01*
X5749240Y13311950D01*
X5666690Y13394500D01*
X5533559Y13394500D01*
X5412197Y13344230D01*
X5319310Y13251343D01*
X5292375Y13186316D01*
X5266312Y13226818D01*
X5189920Y13279015D01*
X5099240Y13297378D01*
X4499240Y13297378D01*
X4472940Y13292429D01*
X4472940Y13592117D01*
X4501633Y13585893D01*
X4592559Y13603002D01*
X4669664Y13654138D01*
X4952506Y13936980D01*
X5001137Y14008153D01*
X5020751Y14098571D01*
X5003642Y14189497D01*
X4952506Y14266602D01*
X4528242Y14690866D01*
X4457069Y14739497D01*
X4366651Y14759111D01*
X4275725Y14742002D01*
X4198620Y14690866D01*
X3915778Y14408024D01*
X3867147Y14336851D01*
X3847533Y14246433D01*
X3864642Y14155507D01*
X3884424Y14125678D01*
X3865893Y14107147D01*
X3788808Y13991783D01*
X3788808Y13991782D01*
X3761740Y13855700D01*
X3761740Y11876078D01*
X3367340Y11876078D01*
X3282626Y11860138D01*
X3204822Y11810072D01*
X3152625Y11733680D01*
X3134262Y11643000D01*
X3134262Y9643000D01*
X3150202Y9558286D01*
X3200268Y9480482D01*
X3276660Y9428285D01*
X3367340Y9409922D01*
X3380740Y9409922D01*
X3380740Y7684143D01*
X3380612Y7537624D01*
X3380740Y7537314D01*
X3380740Y5576078D01*
X2217340Y5576078D01*
X2132626Y5560138D01*
X2054822Y5510072D01*
X2002625Y5433680D01*
X1984262Y5343000D01*
X1984262Y3343000D01*
X2000202Y3258286D01*
X2050268Y3180482D01*
X2126660Y3128285D01*
X2217340Y3109922D01*
X3380740Y3109922D01*
X3380740Y2616200D01*
X3436810Y2334315D01*
X3596485Y2095345D01*
X3926685Y1765145D01*
X4165655Y1605470D01*
X4447540Y1549400D01*
X7926697Y1549400D01*
X8073216Y1549272D01*
X8344045Y1661177D01*
X8551435Y1868205D01*
X8663812Y2138838D01*
X8663813Y2140124D01*
X11000612Y2140124D01*
X11112517Y1869295D01*
X11319545Y1661905D01*
X11590178Y1549528D01*
X11883216Y1549272D01*
X11883526Y1549400D01*
X15546697Y1549400D01*
X15693216Y1549272D01*
X15964045Y1661177D01*
X16171435Y1868205D01*
X16283812Y2138838D01*
X16284068Y2431876D01*
X16172163Y2702705D01*
X15965135Y2910095D01*
X15694502Y3022472D01*
X15401464Y3022728D01*
X15401154Y3022600D01*
X11737983Y3022600D01*
X11591464Y3022728D01*
X11320635Y2910823D01*
X11113245Y2703795D01*
X11000868Y2433162D01*
X11000612Y2140124D01*
X8663813Y2140124D01*
X8664068Y2431876D01*
X8552163Y2702705D01*
X8345135Y2910095D01*
X8074502Y3022472D01*
X7781464Y3022728D01*
X7781154Y3022600D01*
X4853940Y3022600D01*
X4853940Y3109922D01*
X6017340Y3109922D01*
X6102054Y3125862D01*
X6179858Y3175928D01*
X6232055Y3252320D01*
X6250418Y3343000D01*
X6250418Y3568198D01*
X11416785Y3568198D01*
X11538402Y3391812D01*
X12049706Y3232489D01*
X12583060Y3280961D01*
X12850678Y3391812D01*
X12972295Y3568198D01*
X12194540Y4345953D01*
X11416785Y3568198D01*
X6250418Y3568198D01*
X6250418Y4742234D01*
X10829629Y4742234D01*
X10878101Y4208880D01*
X10988952Y3941262D01*
X11165338Y3819645D01*
X11943093Y4597400D01*
X12445987Y4597400D01*
X13223742Y3819645D01*
X13400128Y3941262D01*
X13454513Y4115796D01*
X17642752Y4115796D01*
X17719928Y3929017D01*
X17862706Y3785990D01*
X18049349Y3708489D01*
X18251444Y3708312D01*
X18438223Y3785488D01*
X18513666Y3860800D01*
X22804526Y3860800D01*
X22879206Y3785990D01*
X23065849Y3708489D01*
X23267944Y3708312D01*
X23454723Y3785488D01*
X23597750Y3928266D01*
X23675251Y4114909D01*
X23675428Y4317004D01*
X23598252Y4503783D01*
X23455474Y4646810D01*
X23268831Y4724311D01*
X23066736Y4724488D01*
X22879957Y4647312D01*
X22804514Y4572000D01*
X18513654Y4572000D01*
X18438974Y4646810D01*
X18252331Y4724311D01*
X18050236Y4724488D01*
X17863457Y4647312D01*
X17720430Y4504534D01*
X17642929Y4317891D01*
X17642752Y4115796D01*
X13454513Y4115796D01*
X13559451Y4452566D01*
X13510979Y4985920D01*
X13400128Y5253538D01*
X13223742Y5375155D01*
X12445987Y4597400D01*
X11943093Y4597400D01*
X11165338Y5375155D01*
X10988952Y5253538D01*
X10829629Y4742234D01*
X6250418Y4742234D01*
X6250418Y5343000D01*
X6234478Y5427714D01*
X6184412Y5505518D01*
X6108020Y5557715D01*
X6017340Y5576078D01*
X4853940Y5576078D01*
X4853940Y5626602D01*
X11416785Y5626602D01*
X12194540Y4848847D01*
X12972295Y5626602D01*
X12850678Y5802988D01*
X12339374Y5962311D01*
X11806020Y5913839D01*
X11538402Y5802988D01*
X11416785Y5626602D01*
X4853940Y5626602D01*
X4853940Y7642350D01*
X9118440Y7642350D01*
X9118440Y7337019D01*
X9168710Y7215657D01*
X9261597Y7122770D01*
X9382959Y7072500D01*
X9813290Y7072500D01*
X9895840Y7155050D01*
X9895840Y7724900D01*
X10251440Y7724900D01*
X10251440Y7155050D01*
X10333990Y7072500D01*
X10764321Y7072500D01*
X10885683Y7122770D01*
X10978570Y7215657D01*
X11028840Y7337019D01*
X11028840Y7642350D01*
X10946290Y7724900D01*
X10251440Y7724900D01*
X9895840Y7724900D01*
X9200990Y7724900D01*
X9118440Y7642350D01*
X4853940Y7642350D01*
X4853940Y7682857D01*
X4854068Y7829376D01*
X4853940Y7829686D01*
X4853940Y8468381D01*
X9118440Y8468381D01*
X9118440Y8163050D01*
X9200990Y8080500D01*
X9895840Y8080500D01*
X9895840Y8650350D01*
X10251440Y8650350D01*
X10251440Y8080500D01*
X10946290Y8080500D01*
X10996240Y8130450D01*
X12580340Y8130450D01*
X12580340Y8047319D01*
X12630610Y7925957D01*
X12723497Y7833070D01*
X12844859Y7782800D01*
X12977990Y7782800D01*
X13060540Y7865350D01*
X13060540Y8213000D01*
X13360540Y8213000D01*
X13360540Y7865350D01*
X13443090Y7782800D01*
X13576221Y7782800D01*
X13697583Y7833070D01*
X13750290Y7885777D01*
X13802997Y7833070D01*
X13924359Y7782800D01*
X14057490Y7782800D01*
X14140040Y7865350D01*
X14140040Y8213000D01*
X14440040Y8213000D01*
X14440040Y7865350D01*
X14522590Y7782800D01*
X14655721Y7782800D01*
X14777083Y7833070D01*
X14869970Y7925957D01*
X14920240Y8047319D01*
X14920240Y8130450D01*
X14837690Y8213000D01*
X14440040Y8213000D01*
X14140040Y8213000D01*
X13360540Y8213000D01*
X13060540Y8213000D01*
X12662890Y8213000D01*
X12580340Y8130450D01*
X10996240Y8130450D01*
X11028840Y8163050D01*
X11028840Y8468381D01*
X10978570Y8589743D01*
X10885683Y8682630D01*
X10764321Y8732900D01*
X10333990Y8732900D01*
X10251440Y8650350D01*
X9895840Y8650350D01*
X9813290Y8732900D01*
X9382959Y8732900D01*
X9261597Y8682630D01*
X9168710Y8589743D01*
X9118440Y8468381D01*
X4853940Y8468381D01*
X4853940Y9409922D01*
X4867340Y9409922D01*
X4952054Y9425862D01*
X5029858Y9475928D01*
X5082055Y9552320D01*
X5100418Y9643000D01*
X5100418Y10382650D01*
X5337140Y10382650D01*
X5337140Y9577319D01*
X5387410Y9455957D01*
X5480297Y9363070D01*
X5601659Y9312800D01*
X6156990Y9312800D01*
X6239540Y9395350D01*
X6239540Y10465200D01*
X6595140Y10465200D01*
X6595140Y9395350D01*
X6677690Y9312800D01*
X7233021Y9312800D01*
X7354383Y9363070D01*
X7447270Y9455957D01*
X7497540Y9577319D01*
X7497540Y10368850D01*
X7806340Y10368850D01*
X7806340Y10163519D01*
X7856610Y10042157D01*
X7949497Y9949270D01*
X8070859Y9899000D01*
X8251190Y9899000D01*
X8333740Y9981550D01*
X8333740Y10451400D01*
X7888890Y10451400D01*
X7806340Y10368850D01*
X7497540Y10368850D01*
X7497540Y10382650D01*
X7414990Y10465200D01*
X6595140Y10465200D01*
X6239540Y10465200D01*
X5419690Y10465200D01*
X5337140Y10382650D01*
X5100418Y10382650D01*
X5100418Y11643000D01*
X5084478Y11727714D01*
X5054951Y11773600D01*
X5364030Y11773600D01*
X5337140Y11708681D01*
X5337140Y10903350D01*
X5419690Y10820800D01*
X6239540Y10820800D01*
X6239540Y10840800D01*
X6595140Y10840800D01*
X6595140Y10820800D01*
X7414990Y10820800D01*
X7497540Y10903350D01*
X7497540Y11094881D01*
X7806340Y11094881D01*
X7806340Y10889550D01*
X7888890Y10807000D01*
X8333740Y10807000D01*
X8333740Y11276850D01*
X8251190Y11359400D01*
X8070859Y11359400D01*
X7949497Y11309130D01*
X7856610Y11216243D01*
X7806340Y11094881D01*
X7497540Y11094881D01*
X7497540Y11708681D01*
X7470650Y11773600D01*
X7903462Y11773600D01*
X7903462Y11729200D01*
X7919402Y11644486D01*
X7969468Y11566682D01*
X8045860Y11514485D01*
X8136540Y11496122D01*
X8399724Y11496122D01*
X8689340Y11206506D01*
X8689340Y10807000D01*
X9088846Y10807000D01*
X9310431Y10585415D01*
X9286122Y10569772D01*
X9233925Y10493380D01*
X9215562Y10402700D01*
X9215562Y10370028D01*
X9134190Y10451400D01*
X8689340Y10451400D01*
X8689340Y9981550D01*
X8771890Y9899000D01*
X8952221Y9899000D01*
X9073583Y9949270D01*
X9166470Y10042157D01*
X9215562Y10160675D01*
X9215562Y9402700D01*
X9231502Y9317986D01*
X9281568Y9240182D01*
X9357960Y9187985D01*
X9448640Y9169622D01*
X10698640Y9169622D01*
X10783354Y9185562D01*
X10861158Y9235628D01*
X10913355Y9312020D01*
X10931718Y9402700D01*
X10931718Y10259528D01*
X11127745Y10063501D01*
X11127652Y9957796D01*
X11204828Y9771017D01*
X11347606Y9627990D01*
X11534249Y9550489D01*
X11736344Y9550312D01*
X11923123Y9627488D01*
X12066150Y9770266D01*
X12143651Y9956909D01*
X12143828Y10159004D01*
X12066652Y10345783D01*
X11923874Y10488810D01*
X11774534Y10550821D01*
X11783254Y10552462D01*
X11821442Y10577036D01*
X11853860Y10554885D01*
X11944540Y10536522D01*
X12198540Y10536522D01*
X12283254Y10552462D01*
X12321442Y10577036D01*
X12353860Y10554885D01*
X12444540Y10536522D01*
X12698540Y10536522D01*
X12783254Y10552462D01*
X12821442Y10577036D01*
X12853860Y10554885D01*
X12944540Y10536522D01*
X13185768Y10536522D01*
X12959093Y10309847D01*
X12882008Y10194483D01*
X12874951Y10159004D01*
X12854940Y10058400D01*
X12854940Y9635616D01*
X12825826Y9630138D01*
X12748022Y9580072D01*
X12695825Y9503680D01*
X12677462Y9413000D01*
X12677462Y9013000D01*
X12693402Y8928286D01*
X12743468Y8850482D01*
X12788370Y8819801D01*
X12723497Y8792930D01*
X12630610Y8700043D01*
X12580340Y8578681D01*
X12580340Y8495550D01*
X12662890Y8413000D01*
X13060540Y8413000D01*
X13060540Y8510800D01*
X13360540Y8510800D01*
X13360540Y8413000D01*
X14140040Y8413000D01*
X14140040Y8510800D01*
X14440040Y8510800D01*
X14440040Y8413000D01*
X14837690Y8413000D01*
X14920240Y8495550D01*
X14920240Y8578681D01*
X14869970Y8700043D01*
X14777083Y8792930D01*
X14712056Y8819865D01*
X14752558Y8845928D01*
X14804755Y8922320D01*
X14823118Y9013000D01*
X14823118Y9413000D01*
X14807178Y9497714D01*
X14757112Y9575518D01*
X14680720Y9627715D01*
X14645640Y9634819D01*
X14645640Y9836336D01*
X15318740Y9163236D01*
X15318740Y7162800D01*
X15324743Y7133154D01*
X15341808Y7108179D01*
X15367245Y7091811D01*
X15394940Y7086600D01*
X20424140Y7086600D01*
X20453786Y7092603D01*
X20478761Y7109668D01*
X20495129Y7135105D01*
X20500340Y7162800D01*
X20500340Y8103350D01*
X23845240Y8103350D01*
X23845240Y8020219D01*
X23895510Y7898857D01*
X23988397Y7805970D01*
X24053424Y7779035D01*
X24012922Y7752972D01*
X23960725Y7676580D01*
X23942362Y7585900D01*
X23942362Y7185900D01*
X23958302Y7101186D01*
X24008368Y7023382D01*
X24084760Y6971185D01*
X24119840Y6964081D01*
X24119840Y6801714D01*
X24045030Y6727034D01*
X23967529Y6540391D01*
X23967352Y6338296D01*
X24044528Y6151517D01*
X24187306Y6008490D01*
X24373949Y5930989D01*
X24576044Y5930812D01*
X24762823Y6007988D01*
X24905850Y6150766D01*
X24983351Y6337409D01*
X24983528Y6539504D01*
X24906352Y6726283D01*
X24831040Y6801726D01*
X24831040Y6963284D01*
X24860154Y6968762D01*
X24937958Y7018828D01*
X24990155Y7095220D01*
X25008518Y7185900D01*
X25008518Y7585900D01*
X24992578Y7670614D01*
X24942512Y7748418D01*
X24897610Y7779099D01*
X24962483Y7805970D01*
X25055370Y7898857D01*
X25105640Y8020219D01*
X25105640Y8103350D01*
X25023090Y8185900D01*
X24625440Y8185900D01*
X24625440Y8088100D01*
X24325440Y8088100D01*
X24325440Y8185900D01*
X23927790Y8185900D01*
X23845240Y8103350D01*
X20500340Y8103350D01*
X20500340Y8551581D01*
X23845240Y8551581D01*
X23845240Y8468450D01*
X23927790Y8385900D01*
X24325440Y8385900D01*
X24325440Y8733550D01*
X24625440Y8733550D01*
X24625440Y8385900D01*
X25023090Y8385900D01*
X25105640Y8468450D01*
X25105640Y8551581D01*
X25055370Y8672943D01*
X24962483Y8765830D01*
X24841121Y8816100D01*
X24707990Y8816100D01*
X24625440Y8733550D01*
X24325440Y8733550D01*
X24242890Y8816100D01*
X24109759Y8816100D01*
X23988397Y8765830D01*
X23895510Y8672943D01*
X23845240Y8551581D01*
X20500340Y8551581D01*
X20500340Y11988800D01*
X20494337Y12018446D01*
X20477272Y12043421D01*
X20451835Y12059789D01*
X20424140Y12065000D01*
X18260034Y12065000D01*
X17932387Y12392647D01*
X17913369Y12405355D01*
X17946740Y12485919D01*
X17946740Y12552450D01*
X20275740Y12552450D01*
X20275740Y12419319D01*
X20326010Y12297957D01*
X20418897Y12205070D01*
X20540259Y12154800D01*
X20648390Y12154800D01*
X20730940Y12237350D01*
X20730940Y12635000D01*
X20980940Y12635000D01*
X20980940Y12237350D01*
X21063490Y12154800D01*
X21171621Y12154800D01*
X21292983Y12205070D01*
X21385870Y12297957D01*
X21436140Y12419319D01*
X21436140Y12552450D01*
X21372640Y12615950D01*
X24796940Y12615950D01*
X24796940Y12482819D01*
X24847210Y12361457D01*
X24940097Y12268570D01*
X25061459Y12218300D01*
X25169590Y12218300D01*
X25252140Y12300850D01*
X25252140Y12698500D01*
X25502140Y12698500D01*
X25502140Y12300850D01*
X25584690Y12218300D01*
X25692821Y12218300D01*
X25814183Y12268570D01*
X25907070Y12361457D01*
X25957340Y12482819D01*
X25957340Y12615950D01*
X25874790Y12698500D01*
X25502140Y12698500D01*
X25252140Y12698500D01*
X24879490Y12698500D01*
X24796940Y12615950D01*
X21372640Y12615950D01*
X21353590Y12635000D01*
X20980940Y12635000D01*
X20730940Y12635000D01*
X20358290Y12635000D01*
X20275740Y12552450D01*
X17946740Y12552450D01*
X17946740Y12594050D01*
X17864190Y12676600D01*
X17466540Y12676600D01*
X17466540Y12603800D01*
X17166540Y12603800D01*
X17166540Y12676600D01*
X17118740Y12676600D01*
X17118740Y12926600D01*
X17166540Y12926600D01*
X17166540Y13136487D01*
X17211040Y13243919D01*
X17211040Y13299250D01*
X17466540Y13299250D01*
X17466540Y12926600D01*
X17864190Y12926600D01*
X17946740Y13009150D01*
X17946740Y13117281D01*
X17896470Y13238643D01*
X17803583Y13331530D01*
X17682221Y13381800D01*
X17549090Y13381800D01*
X17466540Y13299250D01*
X17211040Y13299250D01*
X17211040Y13309600D01*
X17128490Y13392150D01*
X16798290Y13392150D01*
X16798290Y13309600D01*
X16633190Y13309600D01*
X16633190Y13392150D01*
X16302990Y13392150D01*
X16220440Y13309600D01*
X16220440Y13309596D01*
X16115936Y13309688D01*
X16114666Y13309163D01*
X16097918Y13312494D01*
X16097918Y13639800D01*
X16083054Y13718797D01*
X16097918Y13792200D01*
X16097918Y14110400D01*
X16317562Y14110400D01*
X16317562Y13873695D01*
X16270710Y13826843D01*
X16220440Y13705481D01*
X16220440Y13639800D01*
X16302990Y13557250D01*
X16633190Y13557250D01*
X16633190Y13559122D01*
X16798290Y13559122D01*
X16798290Y13557250D01*
X17128490Y13557250D01*
X17172940Y13601700D01*
X20372862Y13601700D01*
X20372862Y13585000D01*
X20388802Y13500286D01*
X20438868Y13422482D01*
X20483770Y13391801D01*
X20418897Y13364930D01*
X20326010Y13272043D01*
X20275740Y13150681D01*
X20275740Y13017550D01*
X20358290Y12935000D01*
X20730940Y12935000D01*
X20730940Y12982800D01*
X20980940Y12982800D01*
X20980940Y12935000D01*
X21353590Y12935000D01*
X21436140Y13017550D01*
X21436140Y13150681D01*
X21385870Y13272043D01*
X21292983Y13364930D01*
X21227956Y13391865D01*
X21268458Y13417928D01*
X21320655Y13494320D01*
X21327759Y13529400D01*
X21338636Y13529400D01*
X21349402Y13472186D01*
X21399468Y13394382D01*
X21475860Y13342185D01*
X21566540Y13323822D01*
X22766540Y13323822D01*
X22851254Y13339762D01*
X22929058Y13389828D01*
X22981255Y13466220D01*
X22999618Y13556900D01*
X22999618Y13671550D01*
X23136340Y13671550D01*
X23136340Y13491219D01*
X23186610Y13369857D01*
X23279497Y13276970D01*
X23400859Y13226700D01*
X23806190Y13226700D01*
X23888740Y13309250D01*
X23888740Y13754100D01*
X23218890Y13754100D01*
X23136340Y13671550D01*
X22999618Y13671550D01*
X22999618Y14306900D01*
X22987260Y14372581D01*
X23136340Y14372581D01*
X23136340Y14192250D01*
X23218890Y14109700D01*
X23888740Y14109700D01*
X23888740Y14554550D01*
X23806190Y14637100D01*
X23400859Y14637100D01*
X23279497Y14586830D01*
X23186610Y14493943D01*
X23136340Y14372581D01*
X22987260Y14372581D01*
X22983678Y14391614D01*
X22933612Y14469418D01*
X22857220Y14521615D01*
X22766540Y14539978D01*
X21566540Y14539978D01*
X21481826Y14524038D01*
X21404022Y14473972D01*
X21351825Y14397580D01*
X21333462Y14306900D01*
X21333462Y14240600D01*
X21328556Y14240600D01*
X21323078Y14269714D01*
X21273012Y14347518D01*
X21196620Y14399715D01*
X21105940Y14418078D01*
X20605940Y14418078D01*
X20521226Y14402138D01*
X20443422Y14352072D01*
X20416657Y14312900D01*
X19390334Y14312900D01*
X21066734Y15989300D01*
X24767540Y15989300D01*
X24797186Y15995303D01*
X24822161Y16012368D01*
X24838529Y16037805D01*
X24843740Y16065500D01*
X24843740Y19846335D01*
X25377140Y19846335D01*
X25377140Y18456865D01*
X25460279Y18038898D01*
X25697038Y17684563D01*
X26051373Y17447804D01*
X26469340Y17364665D01*
X26887307Y17447804D01*
X27241642Y17684563D01*
X27478401Y18038898D01*
X27561540Y18456865D01*
X27561540Y19846335D01*
X30457140Y19846335D01*
X30457140Y18456865D01*
X30540279Y18038898D01*
X30777038Y17684563D01*
X31131373Y17447804D01*
X31549340Y17364665D01*
X31967307Y17447804D01*
X32321642Y17684563D01*
X32558401Y18038898D01*
X32641540Y18456865D01*
X32641540Y19846335D01*
X32558401Y20264302D01*
X32321642Y20618637D01*
X31967307Y20855396D01*
X31549340Y20938535D01*
X31131373Y20855396D01*
X30777038Y20618637D01*
X30540279Y20264302D01*
X30457140Y19846335D01*
X27561540Y19846335D01*
X27478401Y20264302D01*
X27241642Y20618637D01*
X26887307Y20855396D01*
X26469340Y20938535D01*
X26051373Y20855396D01*
X25697038Y20618637D01*
X25460279Y20264302D01*
X25377140Y19846335D01*
X24843740Y19846335D01*
X24843740Y23431500D01*
X24837737Y23461146D01*
X24820672Y23486121D01*
X24795235Y23502489D01*
X24767540Y23507700D01*
X19306540Y23507700D01*
X19276894Y23501697D01*
X19251919Y23484632D01*
X19235551Y23459195D01*
X19230340Y23431500D01*
X19230340Y19615677D01*
X19120921Y19661000D01*
X18690590Y19661000D01*
X18608040Y19578450D01*
X18608040Y19008600D01*
X18628040Y19008600D01*
X18628040Y18653000D01*
X18608040Y18653000D01*
X18608040Y18083150D01*
X18690590Y18000600D01*
X19120921Y18000600D01*
X19230340Y18045923D01*
X19230340Y17480842D01*
X19222312Y17493318D01*
X19145920Y17545515D01*
X19055240Y17563878D01*
X17805240Y17563878D01*
X17720526Y17547938D01*
X17642722Y17497872D01*
X17590525Y17421480D01*
X17572162Y17330800D01*
X17572162Y17186400D01*
X17436913Y17186400D01*
X17434878Y17197214D01*
X17384812Y17275018D01*
X17308420Y17327215D01*
X17217740Y17345578D01*
X16467740Y17345578D01*
X16383026Y17329638D01*
X16305222Y17279572D01*
X16253025Y17203180D01*
X16234662Y17112500D01*
X16234662Y16607316D01*
X15928257Y16300911D01*
X15928428Y16496304D01*
X15851252Y16683083D01*
X15805373Y16729042D01*
X15991840Y16729042D01*
X16076554Y16744982D01*
X16154358Y16795048D01*
X16206555Y16871440D01*
X16224918Y16962120D01*
X16224918Y17588349D01*
X16280697Y17532570D01*
X16402059Y17482300D01*
X16582390Y17482300D01*
X16664940Y17564850D01*
X16664940Y18034700D01*
X16220090Y18034700D01*
X16215998Y18030608D01*
X16208978Y18067914D01*
X16158912Y18145718D01*
X16082520Y18197915D01*
X15991840Y18216278D01*
X13451840Y18216278D01*
X13427140Y18211630D01*
X13427140Y18678181D01*
X16137540Y18678181D01*
X16137540Y18472850D01*
X16220090Y18390300D01*
X16664940Y18390300D01*
X16664940Y18860150D01*
X17020540Y18860150D01*
X17020540Y18390300D01*
X17040540Y18390300D01*
X17040540Y18034700D01*
X17020540Y18034700D01*
X17020540Y17564850D01*
X17103090Y17482300D01*
X17283421Y17482300D01*
X17404783Y17532570D01*
X17497670Y17625457D01*
X17547940Y17746819D01*
X17547940Y17952150D01*
X17465392Y18034698D01*
X17547940Y18034698D01*
X17547940Y18121127D01*
X17618197Y18050870D01*
X17739559Y18000600D01*
X18169890Y18000600D01*
X18252440Y18083150D01*
X18252440Y18653000D01*
X17557590Y18653000D01*
X17547940Y18643350D01*
X17547940Y18678181D01*
X17497670Y18799543D01*
X17404783Y18892430D01*
X17283421Y18942700D01*
X17103090Y18942700D01*
X17020540Y18860150D01*
X16664940Y18860150D01*
X16582390Y18942700D01*
X16402059Y18942700D01*
X16280697Y18892430D01*
X16187810Y18799543D01*
X16137540Y18678181D01*
X13427140Y18678181D01*
X13427140Y18799200D01*
X13416011Y18855150D01*
X13400072Y18935283D01*
X13341118Y19023512D01*
X13341118Y19052179D01*
X13361160Y19038485D01*
X13451840Y19020122D01*
X15991840Y19020122D01*
X16076554Y19036062D01*
X16154358Y19086128D01*
X16206555Y19162520D01*
X16224918Y19253200D01*
X16224918Y19396481D01*
X17475040Y19396481D01*
X17475040Y19091150D01*
X17557590Y19008600D01*
X18252440Y19008600D01*
X18252440Y19578450D01*
X18169890Y19661000D01*
X17739559Y19661000D01*
X17618197Y19610730D01*
X17525310Y19517843D01*
X17475040Y19396481D01*
X16224918Y19396481D01*
X16224918Y20274280D01*
X16208978Y20358994D01*
X16158912Y20436798D01*
X16082520Y20488995D01*
X15991840Y20507358D01*
X13451840Y20507358D01*
X13367126Y20491418D01*
X13289322Y20441352D01*
X13277486Y20424029D01*
X13275112Y20427718D01*
X13198720Y20479915D01*
X13108040Y20498278D01*
X12508040Y20498278D01*
X12423326Y20482338D01*
X12345522Y20432272D01*
X12314841Y20387370D01*
X12287970Y20452243D01*
X12195083Y20545130D01*
X12073721Y20595400D01*
X11940590Y20595400D01*
X11858040Y20512850D01*
X11858040Y20140200D01*
X11905840Y20140200D01*
X11905840Y19890200D01*
X11858040Y19890200D01*
X11858040Y19187700D01*
X11905840Y19187700D01*
X11905840Y18937700D01*
X11858040Y18937700D01*
X11858040Y18864900D01*
X11558040Y18864900D01*
X11558040Y18937700D01*
X11510240Y18937700D01*
X11510240Y19187700D01*
X11558040Y19187700D01*
X11558040Y19890200D01*
X11510240Y19890200D01*
X11510240Y20140200D01*
X11558040Y20140200D01*
X11558040Y20512850D01*
X11475490Y20595400D01*
X11342359Y20595400D01*
X11220997Y20545130D01*
X11210640Y20534773D01*
X11210640Y20549302D01*
X11128092Y20549302D01*
X11210640Y20631850D01*
X11210640Y20837181D01*
X11160370Y20958543D01*
X11067483Y21051430D01*
X10946121Y21101700D01*
X10765790Y21101700D01*
X10683240Y21019150D01*
X10683240Y20549300D01*
X10703240Y20549300D01*
X10703240Y20193700D01*
X10683240Y20193700D01*
X10683240Y19723850D01*
X10765790Y19641300D01*
X10946121Y19641300D01*
X11067483Y19691570D01*
X11077840Y19701927D01*
X11077840Y19699519D01*
X11128110Y19578157D01*
X11167317Y19538950D01*
X11128110Y19499743D01*
X11079984Y19383556D01*
X11047512Y19434018D01*
X10971120Y19486215D01*
X10880440Y19504578D01*
X10130440Y19504578D01*
X10045726Y19488638D01*
X9967922Y19438572D01*
X9915725Y19362180D01*
X9897362Y19271500D01*
X9897362Y19227100D01*
X9776018Y19227100D01*
X9776018Y19477100D01*
X9760078Y19561814D01*
X9710012Y19639618D01*
X9633620Y19691815D01*
X9542940Y19710178D01*
X8292940Y19710178D01*
X8208226Y19694238D01*
X8130422Y19644172D01*
X8078225Y19567780D01*
X8059862Y19477100D01*
X8059862Y18477100D01*
X8075802Y18392386D01*
X8125868Y18314582D01*
X8202260Y18262385D01*
X8292940Y18244022D01*
X9542940Y18244022D01*
X9627654Y18259962D01*
X9705458Y18310028D01*
X9757655Y18386420D01*
X9776018Y18477100D01*
X9776018Y18515900D01*
X9897362Y18515900D01*
X9897362Y18471500D01*
X9913302Y18386786D01*
X9963368Y18308982D01*
X10039760Y18256785D01*
X10130440Y18238422D01*
X10590689Y18238422D01*
X10556610Y18204343D01*
X10506340Y18082981D01*
X10506340Y17974850D01*
X10588890Y17892300D01*
X10986540Y17892300D01*
X10986540Y17965100D01*
X11286540Y17965100D01*
X11286540Y17892300D01*
X11334340Y17892300D01*
X11334340Y17642300D01*
X11286540Y17642300D01*
X11286540Y17569500D01*
X10986540Y17569500D01*
X10986540Y17642300D01*
X10588890Y17642300D01*
X10506340Y17559750D01*
X10506340Y17451619D01*
X10556610Y17330257D01*
X10649497Y17237370D01*
X10770859Y17187100D01*
X10903990Y17187100D01*
X10958738Y17241848D01*
X10958738Y17187100D01*
X11134591Y17187100D01*
X11064329Y17017891D01*
X11064152Y16815796D01*
X11115040Y16692638D01*
X11115040Y16433800D01*
X11178540Y16433800D01*
X11178540Y16078200D01*
X11115040Y16078200D01*
X11115040Y16058200D01*
X10988040Y16058200D01*
X10988040Y16078200D01*
X10931618Y16078200D01*
X10931618Y16433800D01*
X10988040Y16433800D01*
X10988040Y16910050D01*
X10905490Y16992600D01*
X10858859Y16992600D01*
X10737497Y16942330D01*
X10690645Y16895478D01*
X10444540Y16895478D01*
X10359826Y16879538D01*
X10282022Y16829472D01*
X10229825Y16753080D01*
X10213340Y16671674D01*
X10213340Y17284700D01*
X10209783Y17302585D01*
X10186272Y17420783D01*
X10109187Y17536147D01*
X9563087Y18082247D01*
X9447723Y18159332D01*
X9311640Y18186400D01*
X8049234Y18186400D01*
X7965440Y18270194D01*
X7965440Y20404901D01*
X8013010Y20290057D01*
X8105897Y20197170D01*
X8227259Y20146900D01*
X8657590Y20146900D01*
X8740140Y20229450D01*
X8740140Y20799300D01*
X8720140Y20799300D01*
X8720140Y21154900D01*
X8740140Y21154900D01*
X8740140Y21724750D01*
X9095740Y21724750D01*
X9095740Y21154900D01*
X9115740Y21154900D01*
X9115740Y20799300D01*
X9095740Y20799300D01*
X9095740Y20229450D01*
X9178290Y20146900D01*
X9608621Y20146900D01*
X9729983Y20197170D01*
X9800240Y20267427D01*
X9800240Y20193698D01*
X9882788Y20193698D01*
X9800240Y20111150D01*
X9800240Y19905819D01*
X9850510Y19784457D01*
X9943397Y19691570D01*
X10064759Y19641300D01*
X10245090Y19641300D01*
X10327640Y19723850D01*
X10327640Y20193700D01*
X10307640Y20193700D01*
X10307640Y20549300D01*
X10327640Y20549300D01*
X10327640Y21019150D01*
X10245090Y21101700D01*
X10064759Y21101700D01*
X9943397Y21051430D01*
X9873140Y20981173D01*
X9873140Y21154902D01*
X9790592Y21154902D01*
X9873140Y21237450D01*
X9873140Y21542781D01*
X9822870Y21664143D01*
X9729983Y21757030D01*
X9608621Y21807300D01*
X9178290Y21807300D01*
X9095740Y21724750D01*
X8740140Y21724750D01*
X8657590Y21807300D01*
X8227259Y21807300D01*
X8105897Y21757030D01*
X8013010Y21664143D01*
X7965440Y21549299D01*
X7965440Y25400000D01*
X7938372Y25536082D01*
X7861287Y25651447D01*
X6711087Y26801647D01*
X6595723Y26878732D01*
X6459640Y26905800D01*
X5198464Y26905800D01*
X5194012Y26912718D01*
X5149110Y26943399D01*
X5213983Y26970270D01*
X5306870Y27063157D01*
X5357140Y27184519D01*
X5357140Y27267650D01*
X5274590Y27350200D01*
X4876940Y27350200D01*
X4876940Y27252400D01*
X4576940Y27252400D01*
X4576940Y27350200D01*
X4179290Y27350200D01*
X4096740Y27267650D01*
X4096740Y27184519D01*
X4147010Y27063157D01*
X4239897Y26970270D01*
X4304924Y26943335D01*
X4264422Y26917272D01*
X4256583Y26905800D01*
X3346558Y26905800D01*
X3331567Y26981162D01*
X3097756Y27331085D01*
X2747833Y27564896D01*
X2335071Y27647000D01*
X2292809Y27647000D01*
X1880047Y27564896D01*
X1530124Y27331085D01*
X1296313Y26981162D01*
X1214209Y26568400D01*
X78740Y26568400D01*
X78740Y27715881D01*
X4096740Y27715881D01*
X4096740Y27632750D01*
X4179290Y27550200D01*
X4576940Y27550200D01*
X4576940Y27897850D01*
X4876940Y27897850D01*
X4876940Y27550200D01*
X5274590Y27550200D01*
X5357140Y27632750D01*
X5357140Y27715881D01*
X5306870Y27837243D01*
X5213983Y27930130D01*
X5092621Y27980400D01*
X4959490Y27980400D01*
X4876940Y27897850D01*
X4576940Y27897850D01*
X4494390Y27980400D01*
X4361259Y27980400D01*
X4239897Y27930130D01*
X4147010Y27837243D01*
X4096740Y27715881D01*
X78740Y27715881D01*
X78740Y28750272D01*
X1189388Y28750272D01*
X1265514Y28566447D01*
X1552717Y28206485D01*
X1955810Y27983832D01*
X2136140Y28024203D01*
X2136140Y28930600D01*
X2491740Y28930600D01*
X2491740Y28024203D01*
X2672070Y27983832D01*
X3075163Y28206485D01*
X3362366Y28566447D01*
X3438492Y28750272D01*
X3397094Y28930600D01*
X2491740Y28930600D01*
X2136140Y28930600D01*
X1230786Y28930600D01*
X1189388Y28750272D01*
X78740Y28750272D01*
X78740Y29070300D01*
X9159240Y29070300D01*
X9215310Y28788415D01*
X9374985Y28549445D01*
X9613955Y28389770D01*
X9895840Y28333700D01*
X13705840Y28333700D01*
X13987725Y28389770D01*
X14226695Y28549445D01*
X14386370Y28788415D01*
X14442440Y29070300D01*
X16779240Y29070300D01*
X16780590Y29063515D01*
X16779365Y29056704D01*
X16931634Y20808863D01*
X16931512Y20669424D01*
X17043417Y20398595D01*
X17250445Y20191205D01*
X17521078Y20078828D01*
X17814116Y20078572D01*
X18084945Y20190477D01*
X18292335Y20397505D01*
X18404712Y20668138D01*
X18404968Y20961176D01*
X18402147Y20968004D01*
X18317154Y25571800D01*
X27175462Y25571800D01*
X27175462Y24821800D01*
X27191402Y24737086D01*
X27241468Y24659282D01*
X27317860Y24607085D01*
X27408540Y24588722D01*
X28608540Y24588722D01*
X28693254Y24604662D01*
X28771058Y24654728D01*
X28823255Y24731120D01*
X28841618Y24821800D01*
X28841618Y25571800D01*
X29075462Y25571800D01*
X29075462Y24821800D01*
X29091402Y24737086D01*
X29141468Y24659282D01*
X29217860Y24607085D01*
X29308540Y24588722D01*
X30508540Y24588722D01*
X30593254Y24604662D01*
X30671058Y24654728D01*
X30723255Y24731120D01*
X30741618Y24821800D01*
X30741618Y25571800D01*
X30725678Y25656514D01*
X30675612Y25734318D01*
X30599220Y25786515D01*
X30508540Y25804878D01*
X29308540Y25804878D01*
X29223826Y25788938D01*
X29146022Y25738872D01*
X29093825Y25662480D01*
X29075462Y25571800D01*
X28841618Y25571800D01*
X28825678Y25656514D01*
X28775612Y25734318D01*
X28699220Y25786515D01*
X28608540Y25804878D01*
X27408540Y25804878D01*
X27323826Y25788938D01*
X27246022Y25738872D01*
X27193825Y25662480D01*
X27175462Y25571800D01*
X18317154Y25571800D01*
X18266165Y28333700D01*
X23573430Y28333700D01*
X25275385Y26631745D01*
X25514355Y26472070D01*
X25796240Y26416000D01*
X28957897Y26416000D01*
X29104416Y26415872D01*
X29375245Y26527777D01*
X29582635Y26734805D01*
X29695012Y27005438D01*
X29695268Y27298476D01*
X29583363Y27569305D01*
X29376335Y27776695D01*
X29105702Y27889072D01*
X28812664Y27889328D01*
X28812354Y27889200D01*
X26101350Y27889200D01*
X25400400Y28590150D01*
X25839140Y28590150D01*
X25839140Y28507019D01*
X25889410Y28385657D01*
X25982297Y28292770D01*
X26103659Y28242500D01*
X26236790Y28242500D01*
X26319340Y28325050D01*
X26319340Y28672700D01*
X25921690Y28672700D01*
X25839140Y28590150D01*
X25400400Y28590150D01*
X24399395Y29591155D01*
X24160425Y29750830D01*
X23878540Y29806900D01*
X17515840Y29806900D01*
X17509055Y29805550D01*
X17502244Y29806775D01*
X17368348Y29777562D01*
X17233955Y29750830D01*
X17228202Y29746986D01*
X17221442Y29745511D01*
X17108937Y29667295D01*
X16994985Y29591155D01*
X16991140Y29585401D01*
X16985460Y29581452D01*
X16911456Y29466145D01*
X16835310Y29352185D01*
X16833960Y29345398D01*
X16830223Y29339575D01*
X16805973Y29204695D01*
X16779240Y29070300D01*
X14442440Y29070300D01*
X14386370Y29352185D01*
X14226695Y29591155D01*
X13987725Y29750830D01*
X13705840Y29806900D01*
X9895840Y29806900D01*
X9613955Y29750830D01*
X9374985Y29591155D01*
X9215310Y29352185D01*
X9159240Y29070300D01*
X78740Y29070300D01*
X78740Y29466528D01*
X1189388Y29466528D01*
X1230786Y29286200D01*
X2136140Y29286200D01*
X2136140Y30192597D01*
X2491740Y30192597D01*
X2491740Y29286200D01*
X3397094Y29286200D01*
X3438492Y29466528D01*
X3362366Y29650353D01*
X3075163Y30010315D01*
X2672070Y30232968D01*
X2491740Y30192597D01*
X2136140Y30192597D01*
X1955810Y30232968D01*
X1552717Y30010315D01*
X1265514Y29650353D01*
X1189388Y29466528D01*
X78740Y29466528D01*
X78740Y31648400D01*
X1214209Y31648400D01*
X1296313Y31235638D01*
X1530124Y30885715D01*
X1880047Y30651904D01*
X2292809Y30569800D01*
X2335071Y30569800D01*
X2747833Y30651904D01*
X3097756Y30885715D01*
X3331567Y31235638D01*
X3339380Y31274920D01*
X9679725Y31274920D01*
X9868804Y30817312D01*
X10218610Y30466895D01*
X10675888Y30277017D01*
X11171020Y30276585D01*
X11628628Y30465664D01*
X11979045Y30815470D01*
X12168923Y31272748D01*
X12168924Y31274920D01*
X12219725Y31274920D01*
X12408804Y30817312D01*
X12758610Y30466895D01*
X13215888Y30277017D01*
X13711020Y30276585D01*
X14168628Y30465664D01*
X14519045Y30815470D01*
X14708923Y31272748D01*
X14709355Y31767880D01*
X14520276Y32225488D01*
X14199989Y32546335D01*
X25377140Y32546335D01*
X25377140Y31156865D01*
X25460279Y30738898D01*
X25697038Y30384563D01*
X26051373Y30147804D01*
X26113740Y30135398D01*
X26113740Y30095316D01*
X26084626Y30089838D01*
X26006822Y30039772D01*
X25954625Y29963380D01*
X25936262Y29872700D01*
X25936262Y29472700D01*
X25952202Y29387986D01*
X26002268Y29310182D01*
X26047170Y29279501D01*
X25982297Y29252630D01*
X25889410Y29159743D01*
X25839140Y29038381D01*
X25839140Y28955250D01*
X25921690Y28872700D01*
X26319340Y28872700D01*
X26319340Y28970500D01*
X26619340Y28970500D01*
X26619340Y28872700D01*
X26667140Y28872700D01*
X26667140Y28672700D01*
X26619340Y28672700D01*
X26619340Y28325050D01*
X26701890Y28242500D01*
X26835021Y28242500D01*
X26956383Y28292770D01*
X27049270Y28385657D01*
X27063204Y28419295D01*
X27069068Y28410182D01*
X27145460Y28357985D01*
X27236140Y28339622D01*
X27836140Y28339622D01*
X27920854Y28355562D01*
X27998658Y28405628D01*
X28006497Y28417100D01*
X34367017Y28417100D01*
X34436206Y28347790D01*
X34622849Y28270289D01*
X34824944Y28270112D01*
X35011723Y28347288D01*
X35154750Y28490066D01*
X35232251Y28676709D01*
X35232428Y28878804D01*
X35155252Y29065583D01*
X35012474Y29208610D01*
X34825831Y29286111D01*
X34623736Y29286288D01*
X34436957Y29209112D01*
X34356004Y29128300D01*
X28007664Y29128300D01*
X28003212Y29135218D01*
X27926820Y29187415D01*
X27836140Y29205778D01*
X27236140Y29205778D01*
X27151426Y29189838D01*
X27073622Y29139772D01*
X27063611Y29125121D01*
X27049270Y29159743D01*
X26956383Y29252630D01*
X26891356Y29279565D01*
X26931858Y29305628D01*
X26939697Y29317100D01*
X27064616Y29317100D01*
X27069068Y29310182D01*
X27145460Y29257985D01*
X27236140Y29239622D01*
X27836140Y29239622D01*
X27920854Y29255562D01*
X27998658Y29305628D01*
X28050855Y29382020D01*
X28069218Y29472700D01*
X28069218Y29872700D01*
X28053278Y29957414D01*
X28003212Y30035218D01*
X27926820Y30087415D01*
X27836140Y30105778D01*
X27236140Y30105778D01*
X27151426Y30089838D01*
X27073622Y30039772D01*
X27065783Y30028300D01*
X26940864Y30028300D01*
X26936412Y30035218D01*
X26860020Y30087415D01*
X26824940Y30094519D01*
X26824940Y30135398D01*
X26887307Y30147804D01*
X27241642Y30384563D01*
X27478401Y30738898D01*
X27561540Y31156865D01*
X27561540Y32546335D01*
X30457140Y32546335D01*
X30457140Y31156865D01*
X30540279Y30738898D01*
X30777038Y30384563D01*
X31131373Y30147804D01*
X31549340Y30064665D01*
X31967307Y30147804D01*
X32321642Y30384563D01*
X32558401Y30738898D01*
X32641540Y31156865D01*
X32641540Y32546335D01*
X32558401Y32964302D01*
X32321642Y33318637D01*
X31967307Y33555396D01*
X31549340Y33638535D01*
X31131373Y33555396D01*
X30777038Y33318637D01*
X30540279Y32964302D01*
X30457140Y32546335D01*
X27561540Y32546335D01*
X27478401Y32964302D01*
X27241642Y33318637D01*
X26887307Y33555396D01*
X26469340Y33638535D01*
X26051373Y33555396D01*
X25697038Y33318637D01*
X25460279Y32964302D01*
X25377140Y32546335D01*
X14199989Y32546335D01*
X14170470Y32575905D01*
X13713192Y32765783D01*
X13218060Y32766215D01*
X12760452Y32577136D01*
X12410035Y32227330D01*
X12220157Y31770052D01*
X12219725Y31274920D01*
X12168924Y31274920D01*
X12169355Y31767880D01*
X11980276Y32225488D01*
X11630470Y32575905D01*
X11173192Y32765783D01*
X10678060Y32766215D01*
X10220452Y32577136D01*
X9870035Y32227330D01*
X9680157Y31770052D01*
X9679725Y31274920D01*
X3339380Y31274920D01*
X3413671Y31648400D01*
X3331567Y32061162D01*
X3097756Y32411085D01*
X2747833Y32644896D01*
X2335071Y32727000D01*
X2292809Y32727000D01*
X1880047Y32644896D01*
X1530124Y32411085D01*
X1296313Y32061162D01*
X1214209Y31648400D01*
X78740Y31648400D01*
X78740Y33705800D01*
X38280340Y33705800D01*
X38280340Y17068800D01*
G36*
X11636840Y14756300D02*
X13006240Y14756300D01*
X13006240Y14776300D01*
X13361840Y14776300D01*
X13361840Y14756300D01*
X13381840Y14756300D01*
X13381840Y14400700D01*
X13361840Y14400700D01*
X13361840Y13031300D01*
X13381840Y13031300D01*
X13381840Y12675700D01*
X13361840Y12675700D01*
X13361840Y12655700D01*
X13006240Y12655700D01*
X13006240Y12675700D01*
X11636840Y12675700D01*
X11636840Y12655700D01*
X11281240Y12655700D01*
X11281240Y12675700D01*
X11261240Y12675700D01*
X11261240Y13031300D01*
X11281240Y13031300D01*
X11281240Y14400700D01*
X11636840Y14400700D01*
X11636840Y13031300D01*
X13006240Y13031300D01*
X13006240Y14400700D01*
X11636840Y14400700D01*
X11281240Y14400700D01*
X11261240Y14400700D01*
X11261240Y14756300D01*
X11281240Y14756300D01*
X11281240Y14776300D01*
X11636840Y14776300D01*
X11636840Y14756300D01*
X11636840Y14756300D01*
G37*
X11636840Y14756300D02*
X13006240Y14756300D01*
X13006240Y14776300D01*
X13361840Y14776300D01*
X13361840Y14756300D01*
X13381840Y14756300D01*
X13381840Y14400700D01*
X13361840Y14400700D01*
X13361840Y13031300D01*
X13381840Y13031300D01*
X13381840Y12675700D01*
X13361840Y12675700D01*
X13361840Y12655700D01*
X13006240Y12655700D01*
X13006240Y12675700D01*
X11636840Y12675700D01*
X11636840Y12655700D01*
X11281240Y12655700D01*
X11281240Y12675700D01*
X11261240Y12675700D01*
X11261240Y13031300D01*
X11281240Y13031300D01*
X11281240Y14400700D01*
X11636840Y14400700D01*
X11636840Y13031300D01*
X13006240Y13031300D01*
X13006240Y14400700D01*
X11636840Y14400700D01*
X11281240Y14400700D01*
X11261240Y14400700D01*
X11261240Y14756300D01*
X11281240Y14756300D01*
X11281240Y14776300D01*
X11636840Y14776300D01*
X11636840Y14756300D01*
G36*
X17572162Y16330800D02*
X17588102Y16246086D01*
X17638168Y16168282D01*
X17714560Y16116085D01*
X17805240Y16097722D01*
X19055240Y16097722D01*
X19139954Y16113662D01*
X19217758Y16163728D01*
X19230340Y16182142D01*
X19230340Y16065500D01*
X19236343Y16035854D01*
X19253408Y16010879D01*
X19278845Y15994511D01*
X19300149Y15990503D01*
X18631246Y15321600D01*
X17540340Y15321600D01*
X17540340Y15375350D01*
X17457790Y15457900D01*
X17060140Y15457900D01*
X17060140Y15385100D01*
X16760140Y15385100D01*
X16760140Y15457900D01*
X16712340Y15457900D01*
X16712340Y15707900D01*
X16760140Y15707900D01*
X16760140Y15780700D01*
X17060140Y15780700D01*
X17060140Y15707900D01*
X17457790Y15707900D01*
X17540340Y15790450D01*
X17540340Y15898581D01*
X17490070Y16019943D01*
X17397183Y16112830D01*
X17356067Y16129861D01*
X17380258Y16145428D01*
X17432455Y16221820D01*
X17450818Y16312500D01*
X17450818Y16475200D01*
X17572162Y16475200D01*
X17572162Y16330800D01*
X17572162Y16330800D01*
G37*
X17572162Y16330800D02*
X17588102Y16246086D01*
X17638168Y16168282D01*
X17714560Y16116085D01*
X17805240Y16097722D01*
X19055240Y16097722D01*
X19139954Y16113662D01*
X19217758Y16163728D01*
X19230340Y16182142D01*
X19230340Y16065500D01*
X19236343Y16035854D01*
X19253408Y16010879D01*
X19278845Y15994511D01*
X19300149Y15990503D01*
X18631246Y15321600D01*
X17540340Y15321600D01*
X17540340Y15375350D01*
X17457790Y15457900D01*
X17060140Y15457900D01*
X17060140Y15385100D01*
X16760140Y15385100D01*
X16760140Y15457900D01*
X16712340Y15457900D01*
X16712340Y15707900D01*
X16760140Y15707900D01*
X16760140Y15780700D01*
X17060140Y15780700D01*
X17060140Y15707900D01*
X17457790Y15707900D01*
X17540340Y15790450D01*
X17540340Y15898581D01*
X17490070Y16019943D01*
X17397183Y16112830D01*
X17356067Y16129861D01*
X17380258Y16145428D01*
X17432455Y16221820D01*
X17450818Y16312500D01*
X17450818Y16475200D01*
X17572162Y16475200D01*
X17572162Y16330800D01*
M02*
