G04 #@! TF.FileFunction,Soldermask,Top*
%FSLAX46Y46*%
G04 Gerber Fmt 4.6, Leading zero omitted, Abs format (unit mm)*
G04 Created by KiCad (PCBNEW 4.0.5) date 05/26/17 17:56:53*
%MOMM*%
%LPD*%
G01*
G04 APERTURE LIST*
%ADD10C,0.100000*%
%ADD11R,0.965200X0.406400*%
%ADD12R,0.406400X0.965200*%
%ADD13R,1.877400X1.877400*%
%ADD14C,2.184400*%
%ADD15R,3.952400X2.152400*%
%ADD16R,1.652400X2.152400*%
%ADD17R,1.352400X0.902400*%
%ADD18R,1.302400X1.152400*%
%ADD19R,0.652400X0.752400*%
%ADD20R,0.752400X0.652400*%
%ADD21R,1.152400X1.952400*%
%ADD22R,0.533400X0.533400*%
%ADD23R,2.692400X1.173480*%
%ADD24R,0.752400X0.552400*%
%ADD25R,1.402400X1.152400*%
%ADD26R,0.902400X0.952400*%
%ADD27R,1.852400X1.852400*%
%ADD28O,1.852400X1.852400*%
%ADD29O,1.879600X3.200400*%
G04 APERTURE END LIST*
D10*
D11*
X9781540Y15466000D03*
X9781540Y14966000D03*
X9781540Y14466000D03*
X9781540Y13966000D03*
X9781540Y13466000D03*
X9781540Y12966000D03*
X9781540Y12466000D03*
X9781540Y11966000D03*
D12*
X10571540Y11176000D03*
X11071540Y11176000D03*
X11571540Y11176000D03*
X12071540Y11176000D03*
X12571540Y11176000D03*
X13071540Y11176000D03*
X13571540Y11176000D03*
X14071540Y11176000D03*
D11*
X14861540Y11966000D03*
X14861540Y12466000D03*
X14861540Y12966000D03*
X14861540Y13466000D03*
X14861540Y13966000D03*
X14861540Y14466000D03*
X14861540Y14966000D03*
X14861540Y15466000D03*
D12*
X14071540Y16256000D03*
X13571540Y16256000D03*
X13071540Y16256000D03*
X12571540Y16256000D03*
X12071540Y16256000D03*
X11571540Y16256000D03*
X11051540Y16256000D03*
X10571540Y16256000D03*
D13*
X13184040Y12853500D03*
X13184040Y14578500D03*
X11459040Y12853500D03*
X11459040Y14578500D03*
D14*
X13464540Y31521400D03*
X10924540Y31521400D03*
X12194540Y4597400D03*
D15*
X4117340Y4343000D03*
D16*
X4117340Y10643000D03*
X1817340Y10643000D03*
X6417340Y10643000D03*
D17*
X29908540Y25196800D03*
X28008540Y25196800D03*
D18*
X16501140Y9510800D03*
X18251140Y9510800D03*
X18251140Y10910800D03*
X16501140Y10910800D03*
D19*
X22786340Y21149400D03*
X22786340Y20049400D03*
X19662140Y10118000D03*
X19662140Y11218000D03*
D20*
X17418140Y8178800D03*
X16318140Y8178800D03*
D21*
X20291740Y18313400D03*
X22791740Y18313400D03*
D22*
X15699740Y13957300D03*
X15699740Y13474700D03*
X16715740Y13957300D03*
X16715740Y13474700D03*
D19*
X20246340Y21149400D03*
X20246340Y20049400D03*
D23*
X14721840Y19763740D03*
X14721840Y17472660D03*
D24*
X27536140Y29672700D03*
X27536140Y28772700D03*
D25*
X8917940Y18977100D03*
X8917940Y20977100D03*
D26*
X10505440Y18871500D03*
X10505440Y20371500D03*
D20*
X12236540Y17767300D03*
X11136540Y17767300D03*
X16216540Y12801600D03*
X17316540Y12801600D03*
D25*
X18430240Y18830800D03*
X18430240Y16830800D03*
D26*
X16842740Y18212500D03*
X16842740Y16712500D03*
D20*
X16910140Y15582900D03*
X15810140Y15582900D03*
X12808040Y20015200D03*
X11708040Y20015200D03*
X11708040Y19062700D03*
X12808040Y19062700D03*
D19*
X20855940Y13885000D03*
X20855940Y12785000D03*
X25377140Y13948500D03*
X25377140Y12848500D03*
X2923540Y13516700D03*
X2923540Y12416700D03*
D20*
X5899240Y12814300D03*
X4799240Y12814300D03*
D25*
X10073640Y7902700D03*
X10073640Y9902700D03*
D26*
X8511540Y10629200D03*
X8511540Y12129200D03*
D20*
X7656740Y13309600D03*
X8756740Y13309600D03*
D27*
X2313940Y18948400D03*
D28*
X2313940Y21488400D03*
X2313940Y24028400D03*
X2313940Y26568400D03*
X2313940Y29108400D03*
X2313940Y31648400D03*
D29*
X31549340Y31851600D03*
X26469340Y31851600D03*
X31549340Y19151600D03*
X26469340Y19151600D03*
D24*
X24475440Y7385900D03*
X24475440Y8285900D03*
X26469340Y29672700D03*
X26469340Y28772700D03*
D17*
X22166540Y13931900D03*
X24066540Y13931900D03*
D24*
X4663440Y24033900D03*
X4663440Y23133900D03*
X4726940Y27450200D03*
X4726940Y26550200D03*
D10*
G36*
X4504853Y13711186D02*
X3972826Y14243213D01*
X4363431Y14633818D01*
X4895458Y14101791D01*
X4504853Y13711186D01*
X4504853Y13711186D01*
G37*
G36*
X5141249Y14347582D02*
X4609222Y14879609D01*
X4999827Y15270214D01*
X5531854Y14738187D01*
X5141249Y14347582D01*
X5141249Y14347582D01*
G37*
D24*
X13210540Y9213000D03*
X13210540Y8313000D03*
X14290040Y9213000D03*
X14290040Y8313000D03*
M02*
