M48
;DRILL file {KiCad 4.0.5} date 05/26/17 17:56:54
;FORMAT={-:-/ absolute / inch / decimal}
FMAT,2
INCH,TZ
T1C0.010
T2C0.030
T3C0.032
T4C0.039
T5C0.040
%
G90
G05
M72
T1
X0.3511Y0.7471
X0.3896Y1.1445
X0.3971Y0.389
X0.4046Y0.6995
X0.4351Y0.59
X0.4351Y0.565
X0.4351Y0.54
X0.4351Y0.515
X0.4351Y0.49
X0.4556Y0.666
X0.4581Y0.396
X0.4601Y0.59
X0.4601Y0.565
X0.4601Y0.54
X0.4601Y0.515
X0.4601Y0.49
X0.4851Y0.59
X0.4851Y0.565
X0.4851Y0.54
X0.4851Y0.515
X0.4851Y0.49
X0.4956Y0.396
X0.5101Y0.59
X0.5101Y0.565
X0.5101Y0.54
X0.5101Y0.515
X0.5101Y0.49
X0.5351Y0.59
X0.5351Y0.565
X0.5351Y0.54
X0.5351Y0.515
X0.5351Y0.49
X0.5396Y1.1445
X0.5486Y0.2885
X0.5789Y0.7785
X0.5796Y0.6879
X0.5881Y0.2885
X0.6006Y0.266
X0.6071Y0.6455
X0.6261Y0.266
X0.6384Y0.504
X0.6501Y0.432
X0.6521Y0.266
X0.6646Y0.718
X0.6781Y0.266
X0.6896Y1.1445
X0.6966Y0.614
X0.7041Y0.266
X0.7146Y0.166
X0.7185Y0.4296
X0.7201Y0.376
X0.7256Y0.702
X0.7261Y0.6627
X0.7291Y0.3215
X0.7301Y0.266
X0.7441Y0.884
X0.7441Y0.852
X0.7441Y0.819
X0.7561Y0.266
X0.7741Y0.3665
X0.7741Y0.3215
X0.7821Y0.266
X0.7989Y0.721
X0.8061Y0.582
X0.8081Y0.266
X0.8221Y0.418
X0.8221Y0.392
X0.8221Y0.366
X0.8221Y0.34
X0.8221Y0.314
X0.8221Y0.288
X0.8251Y0.601
X0.8471Y0.871
X0.8476Y0.615
X0.8776Y0.615
X0.9076Y0.615
X0.9121Y0.166
X0.9146Y0.3065
X0.9336Y0.8865
X0.9376Y0.84
X0.9376Y0.79
X0.9376Y0.6625
X0.9376Y0.615
X0.9636Y0.2535
X0.9701Y0.615
X0.9911Y0.464
X0.9926Y0.8755
X0.9926Y0.825
X0.9926Y0.69
X0.9926Y0.645
X1.0001Y0.615
X1.0111Y0.449
X1.0111Y0.424
X1.0111Y0.399
X1.0111Y0.374
X1.0111Y0.349
X1.0111Y0.324
X1.0111Y0.299
X1.0111Y0.274
X1.0111Y0.249
X1.0111Y0.224
X1.0111Y0.199
X1.0111Y0.174
X1.0111Y0.149
X1.0111Y0.124
X1.0111Y0.099
X1.0111Y0.074
X1.0111Y0.049
X1.0111Y0.024
X1.1001Y0.69
X1.1027Y0.992
X1.1451Y0.69
X1.1775Y0.992
X1.1901Y0.69
X1.3151Y0.69
X1.3601Y0.69
X1.3671Y1.133
X1.4181Y0.729
T2
X0.1621Y0.3025
X0.3121Y0.09
X0.4621Y0.09
X0.6121Y0.09
X0.6956Y0.8195
X1.1401Y1.069
T3
X1.0421Y1.254
X1.0421Y0.754
X1.2421Y1.254
X1.2421Y0.754
T4
X0.0911Y1.246
X0.0911Y1.146
X0.0911Y1.046
X0.0911Y0.946
X0.0911Y0.846
X0.0911Y0.746
T5
X0.4301Y1.241
X0.4801Y0.181
X0.5301Y1.241
T0
M30
