M48
;DRILL file {KiCad 4.0.5} date 04/10/17 15:14:03
;FORMAT={2:4/ absolute / inch / suppress leading zeros}
FMAT,2
INCH,TZ
T1C0.005
T2C0.008
T3C0.018
T4C0.020
T5C0.020
T6C0.039
%
G90
G05
M72
T1
X51225Y24250
X51550Y19750
X51550Y19500
X51550Y19250
X51550Y19000
X51550Y18750
X51575Y24250
X51800Y19750
X51800Y19500
X51800Y19250
X51800Y19000
X51800Y18750
X51925Y24250
X52050Y19750
X52050Y19500
X52050Y19250
X52050Y19000
X52050Y18750
X52275Y24250
X52300Y19750
X52300Y19500
X52300Y19250
X52300Y19000
X52300Y18750
X52550Y19750
X52550Y19500
X52550Y19250
X52550Y19000
X52550Y18750
X52625Y24250
X52925Y15250
X52925Y14800
X52975Y24250
X53325Y24250
X53350Y22325
X53375Y15250
X53375Y14800
X53600Y16825
X53825Y15700
X53825Y15250
X53825Y14800
X54275Y15700
X54275Y15250
X54275Y14800
X54430Y18530
X54725Y17175
X54725Y14800
X55025Y17175
X55050Y19700
X55175Y14800
X55300Y26250
X55300Y26050
X55300Y25650
X55300Y25250
X55300Y24850
X55300Y24450
X55300Y24050
X55300Y23650
X55300Y23250
X55300Y22950
X55325Y17175
X55375Y18525
X55475Y18800
X55525Y19750
X55625Y17175
X55625Y16600
X55625Y16150
X55625Y15700
X55625Y15250
X55625Y14800
X55825Y20350
X55875Y21375
X55900Y19875
X56225Y18175
X56300Y26300
X56650Y18175
X56875Y20075
X56925Y18525
X57100Y26250
X57100Y26050
X57100Y25650
X57100Y25250
X57100Y24850
X57100Y24450
X57100Y24050
X57100Y23650
X57100Y23250
X57100Y22850
X57100Y22250
X57100Y21550
X57100Y21250
X57150Y22525
X57150Y21950
X57325Y18525
X57425Y20075
X57700Y18175
X57825Y19750
X57825Y19400
X57975Y18175
X58325Y18175
X59050Y19300
X59050Y18500
T2
X44375Y15300
X48625Y22075
X48750Y18875
X49400Y19375
X49650Y19875
X50400Y19975
X52975Y20275
X53550Y21325
T3
X59748Y20624
X59748Y17176
T4
X55927Y22500
X56675Y22500
T5
X1515Y4485
X1515Y2515
X3485Y4485
X3485Y2515
T6
X2440Y28310
X3440Y28310
X3600Y26225
X3600Y25225
X9625Y28975
X9625Y27975
X9625Y26975
X9625Y25975
X9625Y24975
X9625Y23975
X9625Y22975
X9625Y21975
X9625Y20975
X9625Y19975
X9625Y18500
X9625Y17500
X9625Y16500
X9625Y15500
X9625Y14500
X9625Y13500
X9625Y12500
X9625Y11500
X12875Y26150
X12875Y25150
X12875Y7650
X12875Y6650
X18125Y24000
X18125Y23000
X18125Y22000
X18125Y21000
X18125Y20000
X18125Y19000
X18125Y18000
X18125Y17000
X18125Y16000
X18125Y15000
X18125Y13525
X18125Y12525
X18125Y11525
X18125Y10525
X18125Y9525
X18125Y8525
X18125Y7525
X18125Y6525
X22000Y12000
X22000Y2000
X22675Y33250
X22675Y23250
X22675Y22250
X23000Y12000
X23000Y2000
X23675Y33250
X24000Y12000
X24000Y2000
X25000Y12000
X25000Y2000
X26000Y12000
X26000Y2000
X27000Y12000
X27000Y2000
X33875Y26150
X33875Y25150
X33875Y7650
X33875Y6650
X40350Y26150
X40350Y25150
X40350Y7650
X40350Y6650
X41275Y21925
X41275Y20925
X41275Y19925
X41275Y18925
X41275Y17925
X41275Y16925
X41275Y15925
X41275Y14925
X41275Y13925
X41275Y12925
X42275Y21925
X42275Y20925
X42275Y19925
X42275Y18925
X42275Y17925
X42275Y16925
X42275Y15925
X42275Y14925
X42275Y13925
X42275Y12925
X42275Y7550
X42275Y6550
X45625Y24000
X45625Y23000
X45625Y22000
X45625Y21000
X45625Y20000
X45625Y19000
X45625Y18000
X45625Y17000
X45625Y16000
X45625Y15000
X45625Y13525
X45625Y12525
X45625Y11525
X45625Y10525
X45625Y9525
X45625Y8525
X45625Y7525
X45625Y6525
X49500Y12000
X50175Y23250
X50175Y22250
X50500Y12000
X51500Y12000
X52500Y12000
X53500Y12000
X54500Y12000
X61350Y26150
X61350Y25150
X61350Y7650
X61350Y6650
T0
M30
