G04 #@! TF.FileFunction,Copper,L2,Bot,Signal*
%FSLAX46Y46*%
G04 Gerber Fmt 4.6, Leading zero omitted, Abs format (unit mm)*
G04 Created by KiCad (PCBNEW 4.0.5) date 02/21/17 00:05:23*
%MOMM*%
%LPD*%
G01*
G04 APERTURE LIST*
%ADD10C,0.025400*%
%ADD11R,2.420000X5.080000*%
%ADD12C,0.970000*%
%ADD13R,0.460000X0.890000*%
%ADD14C,0.355600*%
%ADD15C,0.254000*%
G04 APERTURE END LIST*
D10*
D11*
X140463500Y-96601700D03*
X149223500Y-96601700D03*
D12*
X140463500Y-93161700D03*
X149223500Y-93161700D03*
D13*
X140463500Y-93611700D03*
X149223500Y-93611700D03*
D14*
X150799800Y-82931000D03*
D15*
G36*
X159791400Y-100076000D02*
X128625600Y-100076000D01*
X128625600Y-96887450D01*
X138618500Y-96887450D01*
X138618500Y-99268009D01*
X138715173Y-99501398D01*
X138893801Y-99680027D01*
X139127190Y-99776700D01*
X140177750Y-99776700D01*
X140336500Y-99617950D01*
X140336500Y-96728700D01*
X140590500Y-96728700D01*
X140590500Y-99617950D01*
X140749250Y-99776700D01*
X141799810Y-99776700D01*
X142033199Y-99680027D01*
X142211827Y-99501398D01*
X142308500Y-99268009D01*
X142308500Y-96887450D01*
X147378500Y-96887450D01*
X147378500Y-99268009D01*
X147475173Y-99501398D01*
X147653801Y-99680027D01*
X147887190Y-99776700D01*
X148937750Y-99776700D01*
X149096500Y-99617950D01*
X149096500Y-96728700D01*
X149350500Y-96728700D01*
X149350500Y-99617950D01*
X149509250Y-99776700D01*
X150559810Y-99776700D01*
X150793199Y-99680027D01*
X150971827Y-99501398D01*
X151068500Y-99268009D01*
X151068500Y-96887450D01*
X150909750Y-96728700D01*
X149350500Y-96728700D01*
X149096500Y-96728700D01*
X147537250Y-96728700D01*
X147378500Y-96887450D01*
X142308500Y-96887450D01*
X142149750Y-96728700D01*
X140590500Y-96728700D01*
X140336500Y-96728700D01*
X138777250Y-96728700D01*
X138618500Y-96887450D01*
X128625600Y-96887450D01*
X128625600Y-93935391D01*
X138618500Y-93935391D01*
X138618500Y-96315950D01*
X138777250Y-96474700D01*
X140336500Y-96474700D01*
X140336500Y-96454700D01*
X140590500Y-96454700D01*
X140590500Y-96474700D01*
X142149750Y-96474700D01*
X142308500Y-96315950D01*
X142308500Y-93935391D01*
X147378500Y-93935391D01*
X147378500Y-96315950D01*
X147537250Y-96474700D01*
X149096500Y-96474700D01*
X149096500Y-96454700D01*
X149350500Y-96454700D01*
X149350500Y-96474700D01*
X150909750Y-96474700D01*
X151068500Y-96315950D01*
X151068500Y-93935391D01*
X150971827Y-93702002D01*
X150793199Y-93523373D01*
X150559810Y-93426700D01*
X150315629Y-93426700D01*
X150356649Y-93303136D01*
X150324518Y-92858732D01*
X150216268Y-92597392D01*
X150002700Y-92562105D01*
X149874815Y-92689990D01*
X149813199Y-92628373D01*
X149646338Y-92559257D01*
X149823095Y-92382500D01*
X149787808Y-92168932D01*
X149364936Y-92028551D01*
X148920532Y-92060682D01*
X148659192Y-92168932D01*
X148623905Y-92382500D01*
X148800662Y-92559257D01*
X148633801Y-92628373D01*
X148572185Y-92689990D01*
X148444300Y-92562105D01*
X148230732Y-92597392D01*
X148090351Y-93020264D01*
X148119737Y-93426700D01*
X147887190Y-93426700D01*
X147653801Y-93523373D01*
X147475173Y-93702002D01*
X147378500Y-93935391D01*
X142308500Y-93935391D01*
X142211827Y-93702002D01*
X142033199Y-93523373D01*
X141799810Y-93426700D01*
X141555629Y-93426700D01*
X141596649Y-93303136D01*
X141564518Y-92858732D01*
X141456268Y-92597392D01*
X141242700Y-92562105D01*
X141114815Y-92689990D01*
X141053199Y-92628373D01*
X140886338Y-92559257D01*
X141063095Y-92382500D01*
X141027808Y-92168932D01*
X140604936Y-92028551D01*
X140160532Y-92060682D01*
X139899192Y-92168932D01*
X139863905Y-92382500D01*
X140040662Y-92559257D01*
X139873801Y-92628373D01*
X139812185Y-92689990D01*
X139684300Y-92562105D01*
X139470732Y-92597392D01*
X139330351Y-93020264D01*
X139359737Y-93426700D01*
X139127190Y-93426700D01*
X138893801Y-93523373D01*
X138715173Y-93702002D01*
X138618500Y-93935391D01*
X128625600Y-93935391D01*
X128625600Y-82550000D01*
X159791400Y-82550000D01*
X159791400Y-100076000D01*
X159791400Y-100076000D01*
G37*
X159791400Y-100076000D02*
X128625600Y-100076000D01*
X128625600Y-96887450D01*
X138618500Y-96887450D01*
X138618500Y-99268009D01*
X138715173Y-99501398D01*
X138893801Y-99680027D01*
X139127190Y-99776700D01*
X140177750Y-99776700D01*
X140336500Y-99617950D01*
X140336500Y-96728700D01*
X140590500Y-96728700D01*
X140590500Y-99617950D01*
X140749250Y-99776700D01*
X141799810Y-99776700D01*
X142033199Y-99680027D01*
X142211827Y-99501398D01*
X142308500Y-99268009D01*
X142308500Y-96887450D01*
X147378500Y-96887450D01*
X147378500Y-99268009D01*
X147475173Y-99501398D01*
X147653801Y-99680027D01*
X147887190Y-99776700D01*
X148937750Y-99776700D01*
X149096500Y-99617950D01*
X149096500Y-96728700D01*
X149350500Y-96728700D01*
X149350500Y-99617950D01*
X149509250Y-99776700D01*
X150559810Y-99776700D01*
X150793199Y-99680027D01*
X150971827Y-99501398D01*
X151068500Y-99268009D01*
X151068500Y-96887450D01*
X150909750Y-96728700D01*
X149350500Y-96728700D01*
X149096500Y-96728700D01*
X147537250Y-96728700D01*
X147378500Y-96887450D01*
X142308500Y-96887450D01*
X142149750Y-96728700D01*
X140590500Y-96728700D01*
X140336500Y-96728700D01*
X138777250Y-96728700D01*
X138618500Y-96887450D01*
X128625600Y-96887450D01*
X128625600Y-93935391D01*
X138618500Y-93935391D01*
X138618500Y-96315950D01*
X138777250Y-96474700D01*
X140336500Y-96474700D01*
X140336500Y-96454700D01*
X140590500Y-96454700D01*
X140590500Y-96474700D01*
X142149750Y-96474700D01*
X142308500Y-96315950D01*
X142308500Y-93935391D01*
X147378500Y-93935391D01*
X147378500Y-96315950D01*
X147537250Y-96474700D01*
X149096500Y-96474700D01*
X149096500Y-96454700D01*
X149350500Y-96454700D01*
X149350500Y-96474700D01*
X150909750Y-96474700D01*
X151068500Y-96315950D01*
X151068500Y-93935391D01*
X150971827Y-93702002D01*
X150793199Y-93523373D01*
X150559810Y-93426700D01*
X150315629Y-93426700D01*
X150356649Y-93303136D01*
X150324518Y-92858732D01*
X150216268Y-92597392D01*
X150002700Y-92562105D01*
X149874815Y-92689990D01*
X149813199Y-92628373D01*
X149646338Y-92559257D01*
X149823095Y-92382500D01*
X149787808Y-92168932D01*
X149364936Y-92028551D01*
X148920532Y-92060682D01*
X148659192Y-92168932D01*
X148623905Y-92382500D01*
X148800662Y-92559257D01*
X148633801Y-92628373D01*
X148572185Y-92689990D01*
X148444300Y-92562105D01*
X148230732Y-92597392D01*
X148090351Y-93020264D01*
X148119737Y-93426700D01*
X147887190Y-93426700D01*
X147653801Y-93523373D01*
X147475173Y-93702002D01*
X147378500Y-93935391D01*
X142308500Y-93935391D01*
X142211827Y-93702002D01*
X142033199Y-93523373D01*
X141799810Y-93426700D01*
X141555629Y-93426700D01*
X141596649Y-93303136D01*
X141564518Y-92858732D01*
X141456268Y-92597392D01*
X141242700Y-92562105D01*
X141114815Y-92689990D01*
X141053199Y-92628373D01*
X140886338Y-92559257D01*
X141063095Y-92382500D01*
X141027808Y-92168932D01*
X140604936Y-92028551D01*
X140160532Y-92060682D01*
X139899192Y-92168932D01*
X139863905Y-92382500D01*
X140040662Y-92559257D01*
X139873801Y-92628373D01*
X139812185Y-92689990D01*
X139684300Y-92562105D01*
X139470732Y-92597392D01*
X139330351Y-93020264D01*
X139359737Y-93426700D01*
X139127190Y-93426700D01*
X138893801Y-93523373D01*
X138715173Y-93702002D01*
X138618500Y-93935391D01*
X128625600Y-93935391D01*
X128625600Y-82550000D01*
X159791400Y-82550000D01*
X159791400Y-100076000D01*
M02*
