G04 #@! TF.FileFunction,Copper,L1,Top,Signal*
%FSLAX46Y46*%
G04 Gerber Fmt 4.6, Leading zero omitted, Abs format (unit mm)*
G04 Created by KiCad (PCBNEW 4.0.5) date 02/21/17 00:05:23*
%MOMM*%
%LPD*%
G01*
G04 APERTURE LIST*
%ADD10C,0.025400*%
%ADD11R,2.290000X5.080000*%
%ADD12R,2.420000X5.080000*%
%ADD13C,0.970000*%
%ADD14R,0.460000X0.890000*%
%ADD15C,0.355600*%
%ADD16C,0.254000*%
G04 APERTURE END LIST*
D10*
D11*
X144843500Y-96601700D03*
D12*
X140463500Y-96601700D03*
X149223500Y-96601700D03*
D13*
X140463500Y-93161700D03*
X149223500Y-93161700D03*
D14*
X140463500Y-93611700D03*
X149223500Y-93611700D03*
D15*
X150799800Y-82931000D03*
D16*
G36*
X152171400Y-82423000D02*
X152181406Y-82472410D01*
X152209847Y-82514035D01*
X152252241Y-82541315D01*
X152298400Y-82550000D01*
X159791400Y-82550000D01*
X159791400Y-100076000D01*
X128625600Y-100076000D01*
X128625600Y-96887450D01*
X138618500Y-96887450D01*
X138618500Y-99268009D01*
X138715173Y-99501398D01*
X138893801Y-99680027D01*
X139127190Y-99776700D01*
X140177750Y-99776700D01*
X140336500Y-99617950D01*
X140336500Y-96728700D01*
X140590500Y-96728700D01*
X140590500Y-99617950D01*
X140749250Y-99776700D01*
X141799810Y-99776700D01*
X142033199Y-99680027D01*
X142211827Y-99501398D01*
X142308500Y-99268009D01*
X142308500Y-96887450D01*
X142149750Y-96728700D01*
X140590500Y-96728700D01*
X140336500Y-96728700D01*
X138777250Y-96728700D01*
X138618500Y-96887450D01*
X128625600Y-96887450D01*
X128625600Y-93935391D01*
X138618500Y-93935391D01*
X138618500Y-96315950D01*
X138777250Y-96474700D01*
X140336500Y-96474700D01*
X140336500Y-96454700D01*
X140590500Y-96454700D01*
X140590500Y-96474700D01*
X142149750Y-96474700D01*
X142308500Y-96315950D01*
X142308500Y-93935391D01*
X142211827Y-93702002D01*
X142033199Y-93523373D01*
X141799810Y-93426700D01*
X141555629Y-93426700D01*
X141596649Y-93303136D01*
X141564518Y-92858732D01*
X141456268Y-92597392D01*
X141242700Y-92562105D01*
X141114815Y-92689990D01*
X141053199Y-92628373D01*
X140886338Y-92559257D01*
X141063095Y-92382500D01*
X141027808Y-92168932D01*
X140604936Y-92028551D01*
X140160532Y-92060682D01*
X139899192Y-92168932D01*
X139863905Y-92382500D01*
X140040662Y-92559257D01*
X139873801Y-92628373D01*
X139812185Y-92689990D01*
X139684300Y-92562105D01*
X139470732Y-92597392D01*
X139330351Y-93020264D01*
X139359737Y-93426700D01*
X139127190Y-93426700D01*
X138893801Y-93523373D01*
X138715173Y-93702002D01*
X138618500Y-93935391D01*
X128625600Y-93935391D01*
X128625600Y-82550000D01*
X143433800Y-82550000D01*
X143433800Y-93484023D01*
X143338801Y-93523373D01*
X143160173Y-93702002D01*
X143063500Y-93935391D01*
X143063500Y-96315950D01*
X143065500Y-96317950D01*
X143065500Y-96885450D01*
X143063500Y-96887450D01*
X143063500Y-99268009D01*
X143160173Y-99501398D01*
X143338801Y-99680027D01*
X143572190Y-99776700D01*
X144557750Y-99776700D01*
X144563250Y-99771200D01*
X145123750Y-99771200D01*
X145129250Y-99776700D01*
X146114810Y-99776700D01*
X146348199Y-99680027D01*
X146526827Y-99501398D01*
X146623500Y-99268009D01*
X146623500Y-96887450D01*
X147378500Y-96887450D01*
X147378500Y-99268009D01*
X147475173Y-99501398D01*
X147653801Y-99680027D01*
X147887190Y-99776700D01*
X148937750Y-99776700D01*
X149096500Y-99617950D01*
X149096500Y-96728700D01*
X149350500Y-96728700D01*
X149350500Y-99617950D01*
X149509250Y-99776700D01*
X150559810Y-99776700D01*
X150793199Y-99680027D01*
X150971827Y-99501398D01*
X151068500Y-99268009D01*
X151068500Y-96887450D01*
X150909750Y-96728700D01*
X149350500Y-96728700D01*
X149096500Y-96728700D01*
X147537250Y-96728700D01*
X147378500Y-96887450D01*
X146623500Y-96887450D01*
X146621500Y-96885450D01*
X146621500Y-96317950D01*
X146623500Y-96315950D01*
X146623500Y-93935391D01*
X147378500Y-93935391D01*
X147378500Y-96315950D01*
X147537250Y-96474700D01*
X149096500Y-96474700D01*
X149096500Y-96454700D01*
X149350500Y-96454700D01*
X149350500Y-96474700D01*
X150909750Y-96474700D01*
X151068500Y-96315950D01*
X151068500Y-93935391D01*
X150971827Y-93702002D01*
X150793199Y-93523373D01*
X150559810Y-93426700D01*
X150315629Y-93426700D01*
X150356649Y-93303136D01*
X150324518Y-92858732D01*
X150216268Y-92597392D01*
X150002700Y-92562105D01*
X149874815Y-92689990D01*
X149813199Y-92628373D01*
X149646338Y-92559257D01*
X149823095Y-92382500D01*
X149787808Y-92168932D01*
X149364936Y-92028551D01*
X148920532Y-92060682D01*
X148659192Y-92168932D01*
X148623905Y-92382500D01*
X148800662Y-92559257D01*
X148633801Y-92628373D01*
X148572185Y-92689990D01*
X148444300Y-92562105D01*
X148230732Y-92597392D01*
X148090351Y-93020264D01*
X148119737Y-93426700D01*
X147887190Y-93426700D01*
X147653801Y-93523373D01*
X147475173Y-93702002D01*
X147378500Y-93935391D01*
X146623500Y-93935391D01*
X146526827Y-93702002D01*
X146348199Y-93523373D01*
X146253200Y-93484023D01*
X146253200Y-82550000D01*
X149301200Y-82550000D01*
X149350610Y-82539994D01*
X149392235Y-82511553D01*
X149419515Y-82469159D01*
X149428200Y-82423000D01*
X149428200Y-77114400D01*
X149418194Y-77064990D01*
X149389753Y-77023365D01*
X149347359Y-76996085D01*
X149301200Y-76987400D01*
X145262600Y-76987400D01*
X145213190Y-76997406D01*
X145171565Y-77025847D01*
X145144285Y-77068241D01*
X145135600Y-77114400D01*
X145135600Y-82423000D01*
X145145606Y-82472410D01*
X145174047Y-82514035D01*
X145216441Y-82541315D01*
X145262600Y-82550000D01*
X145745200Y-82550000D01*
X145745200Y-93426700D01*
X145129250Y-93426700D01*
X144970500Y-93585450D01*
X144970500Y-96824800D01*
X144716500Y-96824800D01*
X144716500Y-93585450D01*
X144557750Y-93426700D01*
X143941800Y-93426700D01*
X143941800Y-82550000D01*
X144424400Y-82550000D01*
X144473810Y-82539994D01*
X144515435Y-82511553D01*
X144542715Y-82469159D01*
X144551400Y-82423000D01*
X144551400Y-77114400D01*
X144541394Y-77064990D01*
X144512953Y-77023365D01*
X144470559Y-76996085D01*
X144424400Y-76987400D01*
X136245600Y-76987400D01*
X136245600Y-74752200D01*
X152171400Y-74752200D01*
X152171400Y-82423000D01*
X152171400Y-82423000D01*
G37*
X152171400Y-82423000D02*
X152181406Y-82472410D01*
X152209847Y-82514035D01*
X152252241Y-82541315D01*
X152298400Y-82550000D01*
X159791400Y-82550000D01*
X159791400Y-100076000D01*
X128625600Y-100076000D01*
X128625600Y-96887450D01*
X138618500Y-96887450D01*
X138618500Y-99268009D01*
X138715173Y-99501398D01*
X138893801Y-99680027D01*
X139127190Y-99776700D01*
X140177750Y-99776700D01*
X140336500Y-99617950D01*
X140336500Y-96728700D01*
X140590500Y-96728700D01*
X140590500Y-99617950D01*
X140749250Y-99776700D01*
X141799810Y-99776700D01*
X142033199Y-99680027D01*
X142211827Y-99501398D01*
X142308500Y-99268009D01*
X142308500Y-96887450D01*
X142149750Y-96728700D01*
X140590500Y-96728700D01*
X140336500Y-96728700D01*
X138777250Y-96728700D01*
X138618500Y-96887450D01*
X128625600Y-96887450D01*
X128625600Y-93935391D01*
X138618500Y-93935391D01*
X138618500Y-96315950D01*
X138777250Y-96474700D01*
X140336500Y-96474700D01*
X140336500Y-96454700D01*
X140590500Y-96454700D01*
X140590500Y-96474700D01*
X142149750Y-96474700D01*
X142308500Y-96315950D01*
X142308500Y-93935391D01*
X142211827Y-93702002D01*
X142033199Y-93523373D01*
X141799810Y-93426700D01*
X141555629Y-93426700D01*
X141596649Y-93303136D01*
X141564518Y-92858732D01*
X141456268Y-92597392D01*
X141242700Y-92562105D01*
X141114815Y-92689990D01*
X141053199Y-92628373D01*
X140886338Y-92559257D01*
X141063095Y-92382500D01*
X141027808Y-92168932D01*
X140604936Y-92028551D01*
X140160532Y-92060682D01*
X139899192Y-92168932D01*
X139863905Y-92382500D01*
X140040662Y-92559257D01*
X139873801Y-92628373D01*
X139812185Y-92689990D01*
X139684300Y-92562105D01*
X139470732Y-92597392D01*
X139330351Y-93020264D01*
X139359737Y-93426700D01*
X139127190Y-93426700D01*
X138893801Y-93523373D01*
X138715173Y-93702002D01*
X138618500Y-93935391D01*
X128625600Y-93935391D01*
X128625600Y-82550000D01*
X143433800Y-82550000D01*
X143433800Y-93484023D01*
X143338801Y-93523373D01*
X143160173Y-93702002D01*
X143063500Y-93935391D01*
X143063500Y-96315950D01*
X143065500Y-96317950D01*
X143065500Y-96885450D01*
X143063500Y-96887450D01*
X143063500Y-99268009D01*
X143160173Y-99501398D01*
X143338801Y-99680027D01*
X143572190Y-99776700D01*
X144557750Y-99776700D01*
X144563250Y-99771200D01*
X145123750Y-99771200D01*
X145129250Y-99776700D01*
X146114810Y-99776700D01*
X146348199Y-99680027D01*
X146526827Y-99501398D01*
X146623500Y-99268009D01*
X146623500Y-96887450D01*
X147378500Y-96887450D01*
X147378500Y-99268009D01*
X147475173Y-99501398D01*
X147653801Y-99680027D01*
X147887190Y-99776700D01*
X148937750Y-99776700D01*
X149096500Y-99617950D01*
X149096500Y-96728700D01*
X149350500Y-96728700D01*
X149350500Y-99617950D01*
X149509250Y-99776700D01*
X150559810Y-99776700D01*
X150793199Y-99680027D01*
X150971827Y-99501398D01*
X151068500Y-99268009D01*
X151068500Y-96887450D01*
X150909750Y-96728700D01*
X149350500Y-96728700D01*
X149096500Y-96728700D01*
X147537250Y-96728700D01*
X147378500Y-96887450D01*
X146623500Y-96887450D01*
X146621500Y-96885450D01*
X146621500Y-96317950D01*
X146623500Y-96315950D01*
X146623500Y-93935391D01*
X147378500Y-93935391D01*
X147378500Y-96315950D01*
X147537250Y-96474700D01*
X149096500Y-96474700D01*
X149096500Y-96454700D01*
X149350500Y-96454700D01*
X149350500Y-96474700D01*
X150909750Y-96474700D01*
X151068500Y-96315950D01*
X151068500Y-93935391D01*
X150971827Y-93702002D01*
X150793199Y-93523373D01*
X150559810Y-93426700D01*
X150315629Y-93426700D01*
X150356649Y-93303136D01*
X150324518Y-92858732D01*
X150216268Y-92597392D01*
X150002700Y-92562105D01*
X149874815Y-92689990D01*
X149813199Y-92628373D01*
X149646338Y-92559257D01*
X149823095Y-92382500D01*
X149787808Y-92168932D01*
X149364936Y-92028551D01*
X148920532Y-92060682D01*
X148659192Y-92168932D01*
X148623905Y-92382500D01*
X148800662Y-92559257D01*
X148633801Y-92628373D01*
X148572185Y-92689990D01*
X148444300Y-92562105D01*
X148230732Y-92597392D01*
X148090351Y-93020264D01*
X148119737Y-93426700D01*
X147887190Y-93426700D01*
X147653801Y-93523373D01*
X147475173Y-93702002D01*
X147378500Y-93935391D01*
X146623500Y-93935391D01*
X146526827Y-93702002D01*
X146348199Y-93523373D01*
X146253200Y-93484023D01*
X146253200Y-82550000D01*
X149301200Y-82550000D01*
X149350610Y-82539994D01*
X149392235Y-82511553D01*
X149419515Y-82469159D01*
X149428200Y-82423000D01*
X149428200Y-77114400D01*
X149418194Y-77064990D01*
X149389753Y-77023365D01*
X149347359Y-76996085D01*
X149301200Y-76987400D01*
X145262600Y-76987400D01*
X145213190Y-76997406D01*
X145171565Y-77025847D01*
X145144285Y-77068241D01*
X145135600Y-77114400D01*
X145135600Y-82423000D01*
X145145606Y-82472410D01*
X145174047Y-82514035D01*
X145216441Y-82541315D01*
X145262600Y-82550000D01*
X145745200Y-82550000D01*
X145745200Y-93426700D01*
X145129250Y-93426700D01*
X144970500Y-93585450D01*
X144970500Y-96824800D01*
X144716500Y-96824800D01*
X144716500Y-93585450D01*
X144557750Y-93426700D01*
X143941800Y-93426700D01*
X143941800Y-82550000D01*
X144424400Y-82550000D01*
X144473810Y-82539994D01*
X144515435Y-82511553D01*
X144542715Y-82469159D01*
X144551400Y-82423000D01*
X144551400Y-77114400D01*
X144541394Y-77064990D01*
X144512953Y-77023365D01*
X144470559Y-76996085D01*
X144424400Y-76987400D01*
X136245600Y-76987400D01*
X136245600Y-74752200D01*
X152171400Y-74752200D01*
X152171400Y-82423000D01*
M02*
