G04 #@! TF.FileFunction,Copper,L1,Top,Signal*
%FSLAX46Y46*%
G04 Gerber Fmt 4.6, Leading zero omitted, Abs format (unit mm)*
G04 Created by KiCad (PCBNEW 4.0.5) date 05/07/17 17:09:00*
%MOMM*%
%LPD*%
G01*
G04 APERTURE LIST*
%ADD10C,0.100000*%
%ADD11C,0.750800*%
%ADD12C,1.000000*%
%ADD13R,2.290000X5.080000*%
%ADD14R,2.420000X5.080000*%
%ADD15C,0.970000*%
%ADD16R,0.460000X0.900000*%
%ADD17O,5.130000X3.780000*%
%ADD18O,4.370000X3.780000*%
%ADD19R,0.600000X0.500000*%
%ADD20R,0.500000X0.600000*%
%ADD21C,0.838000*%
%ADD22C,0.254000*%
G04 APERTURE END LIST*
D10*
D11*
X28212000Y5326000D03*
X28212000Y4056000D03*
X28212000Y500000D03*
X28212000Y1770000D03*
X28212000Y2913000D03*
X23792400Y2887600D03*
X23792400Y1744600D03*
X23792400Y474600D03*
X23792400Y4030600D03*
D12*
X23767000Y6850000D03*
X28593000Y6977000D03*
X53358000Y8755000D03*
X55644000Y8755000D03*
X51072000Y8755000D03*
X29228000Y8755000D03*
X34054000Y8755000D03*
X31641000Y8755000D03*
X41420000Y8755000D03*
X44087000Y8755000D03*
X39007000Y8755000D03*
X36467000Y8755000D03*
X48913000Y8755000D03*
X46627000Y8755000D03*
X21100000Y8755000D03*
X23513000Y8755000D03*
X10686000Y8755000D03*
X13226000Y8755000D03*
X18306000Y8755000D03*
X15639000Y8755000D03*
X5860000Y8755000D03*
X8273000Y8755000D03*
X3447000Y8755000D03*
D13*
X26100000Y2700000D03*
D14*
X21720000Y2700000D03*
X30480000Y2700000D03*
D15*
X21720000Y6140000D03*
X30480000Y6140000D03*
D16*
X21720000Y5690000D03*
X30480000Y5690000D03*
D17*
X43301100Y13796400D03*
X26101100Y13796400D03*
D18*
X12601100Y13796400D03*
D19*
X26265000Y8755000D03*
X27365000Y8755000D03*
D20*
X26103800Y7273000D03*
X26103800Y6173000D03*
D12*
X907000Y8755000D03*
D11*
X23792400Y5300600D03*
D21*
X26103800Y7273000D02*
X26103800Y8593800D01*
X26103800Y8593800D02*
X26265000Y8755000D01*
X26101100Y13796400D02*
X26101100Y8918900D01*
X26101100Y8918900D02*
X26265000Y8755000D01*
X26103800Y6173000D02*
X26103800Y2703800D01*
X26103800Y2703800D02*
X26100000Y2700000D01*
X26101100Y2701100D02*
X26100000Y2700000D01*
D22*
G36*
X56673000Y-73000D02*
X32280807Y-73000D01*
X32325000Y33691D01*
X32325000Y2414250D01*
X32166250Y2573000D01*
X30607000Y2573000D01*
X30607000Y2553000D01*
X30353000Y2553000D01*
X30353000Y2573000D01*
X28793750Y2573000D01*
X28635000Y2414250D01*
X28635000Y33691D01*
X28679193Y-73000D01*
X27927000Y-73000D01*
X27927000Y5366309D01*
X28635000Y5366309D01*
X28635000Y2985750D01*
X28793750Y2827000D01*
X30353000Y2827000D01*
X30353000Y2847000D01*
X30607000Y2847000D01*
X30607000Y2827000D01*
X32166250Y2827000D01*
X32325000Y2985750D01*
X32325000Y5366309D01*
X32228327Y5599698D01*
X32049699Y5778327D01*
X31816310Y5875000D01*
X31572129Y5875000D01*
X31613149Y5998564D01*
X31581018Y6442968D01*
X31472768Y6704308D01*
X31259200Y6739595D01*
X31133815Y6614210D01*
X31069699Y6678327D01*
X30906374Y6745979D01*
X31079595Y6919200D01*
X31044308Y7132768D01*
X30621436Y7273149D01*
X30177032Y7241018D01*
X29915692Y7132768D01*
X29880405Y6919200D01*
X30053626Y6745979D01*
X29890301Y6678327D01*
X29826185Y6614210D01*
X29700800Y6739595D01*
X29487232Y6704308D01*
X29346851Y6281436D01*
X29376237Y5875000D01*
X29143690Y5875000D01*
X28910301Y5778327D01*
X28731673Y5599698D01*
X28635000Y5366309D01*
X27927000Y5366309D01*
X27927000Y5800000D01*
X27916994Y5849410D01*
X27888553Y5891035D01*
X27846159Y5918315D01*
X27800000Y5927000D01*
X27157800Y5927000D01*
X27157800Y6173000D01*
X27127000Y6327842D01*
X27127000Y7118158D01*
X27157800Y7273000D01*
X27157800Y7948550D01*
X27238000Y8028750D01*
X27238000Y8350500D01*
X27238769Y8351651D01*
X27294136Y8630000D01*
X27492000Y8630000D01*
X27492000Y8028750D01*
X27650750Y7870000D01*
X27791309Y7870000D01*
X28024698Y7966673D01*
X28203327Y8145301D01*
X28300000Y8378690D01*
X28300000Y8471250D01*
X28141250Y8630000D01*
X27492000Y8630000D01*
X27294136Y8630000D01*
X27319001Y8755000D01*
X27238769Y9158348D01*
X27238000Y9159499D01*
X27238000Y9481250D01*
X27492000Y9481250D01*
X27492000Y8880000D01*
X28141250Y8880000D01*
X28300000Y9038750D01*
X28300000Y9131310D01*
X28203327Y9364699D01*
X28024698Y9543327D01*
X27791309Y9640000D01*
X27650750Y9640000D01*
X27492000Y9481250D01*
X27238000Y9481250D01*
X27155100Y9564150D01*
X27155100Y9673000D01*
X56673000Y9673000D01*
X56673000Y-73000D01*
X56673000Y-73000D01*
G37*
X56673000Y-73000D02*
X32280807Y-73000D01*
X32325000Y33691D01*
X32325000Y2414250D01*
X32166250Y2573000D01*
X30607000Y2573000D01*
X30607000Y2553000D01*
X30353000Y2553000D01*
X30353000Y2573000D01*
X28793750Y2573000D01*
X28635000Y2414250D01*
X28635000Y33691D01*
X28679193Y-73000D01*
X27927000Y-73000D01*
X27927000Y5366309D01*
X28635000Y5366309D01*
X28635000Y2985750D01*
X28793750Y2827000D01*
X30353000Y2827000D01*
X30353000Y2847000D01*
X30607000Y2847000D01*
X30607000Y2827000D01*
X32166250Y2827000D01*
X32325000Y2985750D01*
X32325000Y5366309D01*
X32228327Y5599698D01*
X32049699Y5778327D01*
X31816310Y5875000D01*
X31572129Y5875000D01*
X31613149Y5998564D01*
X31581018Y6442968D01*
X31472768Y6704308D01*
X31259200Y6739595D01*
X31133815Y6614210D01*
X31069699Y6678327D01*
X30906374Y6745979D01*
X31079595Y6919200D01*
X31044308Y7132768D01*
X30621436Y7273149D01*
X30177032Y7241018D01*
X29915692Y7132768D01*
X29880405Y6919200D01*
X30053626Y6745979D01*
X29890301Y6678327D01*
X29826185Y6614210D01*
X29700800Y6739595D01*
X29487232Y6704308D01*
X29346851Y6281436D01*
X29376237Y5875000D01*
X29143690Y5875000D01*
X28910301Y5778327D01*
X28731673Y5599698D01*
X28635000Y5366309D01*
X27927000Y5366309D01*
X27927000Y5800000D01*
X27916994Y5849410D01*
X27888553Y5891035D01*
X27846159Y5918315D01*
X27800000Y5927000D01*
X27157800Y5927000D01*
X27157800Y6173000D01*
X27127000Y6327842D01*
X27127000Y7118158D01*
X27157800Y7273000D01*
X27157800Y7948550D01*
X27238000Y8028750D01*
X27238000Y8350500D01*
X27238769Y8351651D01*
X27294136Y8630000D01*
X27492000Y8630000D01*
X27492000Y8028750D01*
X27650750Y7870000D01*
X27791309Y7870000D01*
X28024698Y7966673D01*
X28203327Y8145301D01*
X28300000Y8378690D01*
X28300000Y8471250D01*
X28141250Y8630000D01*
X27492000Y8630000D01*
X27294136Y8630000D01*
X27319001Y8755000D01*
X27238769Y9158348D01*
X27238000Y9159499D01*
X27238000Y9481250D01*
X27492000Y9481250D01*
X27492000Y8880000D01*
X28141250Y8880000D01*
X28300000Y9038750D01*
X28300000Y9131310D01*
X28203327Y9364699D01*
X28024698Y9543327D01*
X27791309Y9640000D01*
X27650750Y9640000D01*
X27492000Y9481250D01*
X27238000Y9481250D01*
X27155100Y9564150D01*
X27155100Y9673000D01*
X56673000Y9673000D01*
X56673000Y-73000D01*
G36*
X25047100Y8918905D02*
X25047099Y8918900D01*
X25080783Y8749563D01*
X25049799Y8593800D01*
X25049800Y8593795D01*
X25049800Y7273000D01*
X25130031Y6869652D01*
X25173000Y6805344D01*
X25173000Y6640656D01*
X25130031Y6576348D01*
X25049800Y6173000D01*
X25049800Y5927000D01*
X24400000Y5927000D01*
X24350590Y5916994D01*
X24308965Y5888553D01*
X24281685Y5846159D01*
X24273000Y5800000D01*
X24273000Y27000D01*
X27000Y27000D01*
X27000Y5360800D01*
X21120405Y5360800D01*
X21155692Y5147232D01*
X21578564Y5006851D01*
X22022968Y5038982D01*
X22284308Y5147232D01*
X22319595Y5360800D01*
X21720000Y5960395D01*
X21120405Y5360800D01*
X27000Y5360800D01*
X27000Y6281436D01*
X20586851Y6281436D01*
X20618982Y5837032D01*
X20727232Y5575692D01*
X20940800Y5540405D01*
X21540395Y6140000D01*
X21899605Y6140000D01*
X22499200Y5540405D01*
X22712768Y5575692D01*
X22853149Y5998564D01*
X22821018Y6442968D01*
X22712768Y6704308D01*
X22499200Y6739595D01*
X21899605Y6140000D01*
X21540395Y6140000D01*
X20940800Y6739595D01*
X20727232Y6704308D01*
X20586851Y6281436D01*
X27000Y6281436D01*
X27000Y6919200D01*
X21120405Y6919200D01*
X21720000Y6319605D01*
X22319595Y6919200D01*
X22284308Y7132768D01*
X21861436Y7273149D01*
X21417032Y7241018D01*
X21155692Y7132768D01*
X21120405Y6919200D01*
X27000Y6919200D01*
X27000Y9573000D01*
X25047100Y9573000D01*
X25047100Y8918905D01*
X25047100Y8918905D01*
G37*
X25047100Y8918905D02*
X25047099Y8918900D01*
X25080783Y8749563D01*
X25049799Y8593800D01*
X25049800Y8593795D01*
X25049800Y7273000D01*
X25130031Y6869652D01*
X25173000Y6805344D01*
X25173000Y6640656D01*
X25130031Y6576348D01*
X25049800Y6173000D01*
X25049800Y5927000D01*
X24400000Y5927000D01*
X24350590Y5916994D01*
X24308965Y5888553D01*
X24281685Y5846159D01*
X24273000Y5800000D01*
X24273000Y27000D01*
X27000Y27000D01*
X27000Y5360800D01*
X21120405Y5360800D01*
X21155692Y5147232D01*
X21578564Y5006851D01*
X22022968Y5038982D01*
X22284308Y5147232D01*
X22319595Y5360800D01*
X21720000Y5960395D01*
X21120405Y5360800D01*
X27000Y5360800D01*
X27000Y6281436D01*
X20586851Y6281436D01*
X20618982Y5837032D01*
X20727232Y5575692D01*
X20940800Y5540405D01*
X21540395Y6140000D01*
X21899605Y6140000D01*
X22499200Y5540405D01*
X22712768Y5575692D01*
X22853149Y5998564D01*
X22821018Y6442968D01*
X22712768Y6704308D01*
X22499200Y6739595D01*
X21899605Y6140000D01*
X21540395Y6140000D01*
X20940800Y6739595D01*
X20727232Y6704308D01*
X20586851Y6281436D01*
X27000Y6281436D01*
X27000Y6919200D01*
X21120405Y6919200D01*
X21720000Y6319605D01*
X22319595Y6919200D01*
X22284308Y7132768D01*
X21861436Y7273149D01*
X21417032Y7241018D01*
X21155692Y7132768D01*
X21120405Y6919200D01*
X27000Y6919200D01*
X27000Y9573000D01*
X25047100Y9573000D01*
X25047100Y8918905D01*
M02*
