M48
;DRILL file {KiCad 4.0.5} date 05/07/17 17:08:57
;FORMAT={-:-/ absolute / inch / decimal}
FMAT,2
INCH,TZ
T1C0.018
T2C0.018
T3C0.025
%
G90
G05
M72
T1
X0.9367Y0.2087
X0.9367Y0.1587
X0.9367Y0.1137
X0.9367Y0.0687
X0.9367Y0.0187
X1.1107Y0.2097
X1.1107Y0.1597
X1.1107Y0.1147
X1.1107Y0.0697
X1.1107Y0.0197
T2
X0.8551Y0.2417
X1.2Y0.2417
T3
X0.0357Y0.3447
X0.1357Y0.3447
X0.2307Y0.3447
X0.3257Y0.3447
X0.4207Y0.3447
X0.5207Y0.3447
X0.6157Y0.3447
X0.7207Y0.3447
X0.8307Y0.3447
X0.9257Y0.3447
X0.9357Y0.2697
X1.1257Y0.2747
X1.1507Y0.3447
X1.2457Y0.3447
X1.3407Y0.3447
X1.4357Y0.3447
X1.5357Y0.3447
X1.6307Y0.3447
X1.7357Y0.3447
X1.8357Y0.3447
X1.9257Y0.3447
X2.0107Y0.3447
X2.1007Y0.3447
X2.1907Y0.3447
T0
M30
