G04 #@! TF.FileFunction,Copper,L2,Bot,Signal*
%FSLAX46Y46*%
G04 Gerber Fmt 4.6, Leading zero omitted, Abs format (unit mm)*
G04 Created by KiCad (PCBNEW 4.0.5) date 05/07/17 17:09:00*
%MOMM*%
%LPD*%
G01*
G04 APERTURE LIST*
%ADD10C,0.100000*%
%ADD11C,0.750800*%
%ADD12C,1.000000*%
%ADD13R,2.420000X5.080000*%
%ADD14C,0.970000*%
%ADD15R,0.460000X0.900000*%
%ADD16C,0.254000*%
G04 APERTURE END LIST*
D10*
D11*
X28212000Y5326000D03*
X28212000Y4056000D03*
X28212000Y500000D03*
X28212000Y1770000D03*
X28212000Y2913000D03*
X23792400Y2887600D03*
X23792400Y1744600D03*
X23792400Y474600D03*
X23792400Y4030600D03*
D12*
X23767000Y6850000D03*
X28593000Y6977000D03*
X53358000Y8755000D03*
X55644000Y8755000D03*
X51072000Y8755000D03*
X29228000Y8755000D03*
X34054000Y8755000D03*
X31641000Y8755000D03*
X41420000Y8755000D03*
X44087000Y8755000D03*
X39007000Y8755000D03*
X36467000Y8755000D03*
X48913000Y8755000D03*
X46627000Y8755000D03*
X21100000Y8755000D03*
X23513000Y8755000D03*
X10686000Y8755000D03*
X13226000Y8755000D03*
X18306000Y8755000D03*
X15639000Y8755000D03*
X5860000Y8755000D03*
X8273000Y8755000D03*
X3447000Y8755000D03*
D13*
X21720000Y2700000D03*
X30480000Y2700000D03*
D14*
X21720000Y6140000D03*
X30480000Y6140000D03*
D15*
X21720000Y5690000D03*
X30480000Y5690000D03*
D12*
X907000Y8755000D03*
D11*
X23792400Y5300600D03*
D16*
G36*
X56473000Y127000D02*
X127000Y127000D01*
X127000Y5360800D01*
X21120405Y5360800D01*
X21155692Y5147232D01*
X21578564Y5006851D01*
X22022968Y5038982D01*
X22284308Y5147232D01*
X22319595Y5360800D01*
X29880405Y5360800D01*
X29915692Y5147232D01*
X30338564Y5006851D01*
X30782968Y5038982D01*
X31044308Y5147232D01*
X31079595Y5360800D01*
X30480000Y5960395D01*
X29880405Y5360800D01*
X22319595Y5360800D01*
X21720000Y5960395D01*
X21120405Y5360800D01*
X127000Y5360800D01*
X127000Y6281436D01*
X20586851Y6281436D01*
X20618982Y5837032D01*
X20727232Y5575692D01*
X20940800Y5540405D01*
X21540395Y6140000D01*
X21899605Y6140000D01*
X22499200Y5540405D01*
X22712768Y5575692D01*
X22853149Y5998564D01*
X22832697Y6281436D01*
X29346851Y6281436D01*
X29378982Y5837032D01*
X29487232Y5575692D01*
X29700800Y5540405D01*
X30300395Y6140000D01*
X30659605Y6140000D01*
X31259200Y5540405D01*
X31472768Y5575692D01*
X31613149Y5998564D01*
X31581018Y6442968D01*
X31472768Y6704308D01*
X31259200Y6739595D01*
X30659605Y6140000D01*
X30300395Y6140000D01*
X29700800Y6739595D01*
X29487232Y6704308D01*
X29346851Y6281436D01*
X22832697Y6281436D01*
X22821018Y6442968D01*
X22712768Y6704308D01*
X22499200Y6739595D01*
X21899605Y6140000D01*
X21540395Y6140000D01*
X20940800Y6739595D01*
X20727232Y6704308D01*
X20586851Y6281436D01*
X127000Y6281436D01*
X127000Y6919200D01*
X21120405Y6919200D01*
X21720000Y6319605D01*
X22319595Y6919200D01*
X29880405Y6919200D01*
X30480000Y6319605D01*
X31079595Y6919200D01*
X31044308Y7132768D01*
X30621436Y7273149D01*
X30177032Y7241018D01*
X29915692Y7132768D01*
X29880405Y6919200D01*
X22319595Y6919200D01*
X22284308Y7132768D01*
X21861436Y7273149D01*
X21417032Y7241018D01*
X21155692Y7132768D01*
X21120405Y6919200D01*
X127000Y6919200D01*
X127000Y9473000D01*
X56473000Y9473000D01*
X56473000Y127000D01*
X56473000Y127000D01*
G37*
X56473000Y127000D02*
X127000Y127000D01*
X127000Y5360800D01*
X21120405Y5360800D01*
X21155692Y5147232D01*
X21578564Y5006851D01*
X22022968Y5038982D01*
X22284308Y5147232D01*
X22319595Y5360800D01*
X29880405Y5360800D01*
X29915692Y5147232D01*
X30338564Y5006851D01*
X30782968Y5038982D01*
X31044308Y5147232D01*
X31079595Y5360800D01*
X30480000Y5960395D01*
X29880405Y5360800D01*
X22319595Y5360800D01*
X21720000Y5960395D01*
X21120405Y5360800D01*
X127000Y5360800D01*
X127000Y6281436D01*
X20586851Y6281436D01*
X20618982Y5837032D01*
X20727232Y5575692D01*
X20940800Y5540405D01*
X21540395Y6140000D01*
X21899605Y6140000D01*
X22499200Y5540405D01*
X22712768Y5575692D01*
X22853149Y5998564D01*
X22832697Y6281436D01*
X29346851Y6281436D01*
X29378982Y5837032D01*
X29487232Y5575692D01*
X29700800Y5540405D01*
X30300395Y6140000D01*
X30659605Y6140000D01*
X31259200Y5540405D01*
X31472768Y5575692D01*
X31613149Y5998564D01*
X31581018Y6442968D01*
X31472768Y6704308D01*
X31259200Y6739595D01*
X30659605Y6140000D01*
X30300395Y6140000D01*
X29700800Y6739595D01*
X29487232Y6704308D01*
X29346851Y6281436D01*
X22832697Y6281436D01*
X22821018Y6442968D01*
X22712768Y6704308D01*
X22499200Y6739595D01*
X21899605Y6140000D01*
X21540395Y6140000D01*
X20940800Y6739595D01*
X20727232Y6704308D01*
X20586851Y6281436D01*
X127000Y6281436D01*
X127000Y6919200D01*
X21120405Y6919200D01*
X21720000Y6319605D01*
X22319595Y6919200D01*
X29880405Y6919200D01*
X30480000Y6319605D01*
X31079595Y6919200D01*
X31044308Y7132768D01*
X30621436Y7273149D01*
X30177032Y7241018D01*
X29915692Y7132768D01*
X29880405Y6919200D01*
X22319595Y6919200D01*
X22284308Y7132768D01*
X21861436Y7273149D01*
X21417032Y7241018D01*
X21155692Y7132768D01*
X21120405Y6919200D01*
X127000Y6919200D01*
X127000Y9473000D01*
X56473000Y9473000D01*
X56473000Y127000D01*
M02*
