M48
;DRILL file {KiCad 4.0.5} date 05/07/17 17:06:19
;FORMAT={-:-/ absolute / inch / decimal}
FMAT,2
INCH,TZ
T1C0.018
T2C0.025
%
G90
G05
M72
T1
X0.9496Y0.2528
X1.2945Y0.2528
T2
X0.0364Y0.6725
X0.1454Y0.67
X0.2564Y0.6725
X0.3664Y0.6725
X0.4864Y0.6725
X0.6064Y0.6725
X0.7264Y0.6725
X0.8364Y0.6725
X0.9564Y0.6725
X1.0434Y0.3785
X1.0529Y0.488
X1.0564Y0.6725
X1.0564Y0.2725
X1.1959Y0.4905
X1.1964Y0.6725
X1.1964Y0.2725
X1.2059Y0.377
X1.3064Y0.6725
X1.4164Y0.6725
X1.5264Y0.6725
X1.6464Y0.6725
X1.7664Y0.6725
X1.8864Y0.6725
X1.9964Y0.6725
X2.1164Y0.6725
X2.2164Y0.6725
X2.3064Y0.6725
T0
M30
