G04 #@! TF.FileFunction,Copper,L1,Top,Signal*
%FSLAX46Y46*%
G04 Gerber Fmt 4.6, Leading zero omitted, Abs format (unit mm)*
G04 Created by KiCad (PCBNEW 4.0.5) date 05/07/17 17:06:23*
%MOMM*%
%LPD*%
G01*
G04 APERTURE LIST*
%ADD10C,0.100000*%
%ADD11C,1.000000*%
%ADD12R,2.290000X5.080000*%
%ADD13R,2.420000X5.080000*%
%ADD14C,0.970000*%
%ADD15R,0.460000X0.900000*%
%ADD16R,5.130000X0.890000*%
%ADD17R,2.160000X0.890000*%
%ADD18R,5.130000X1.390000*%
%ADD19R,5.130000X0.630000*%
%ADD20R,1.500000X1.250000*%
%ADD21R,1.250000X1.500000*%
%ADD22C,0.838000*%
%ADD23C,0.254000*%
G04 APERTURE END LIST*
D10*
D11*
X3692600Y17018500D03*
X30375300Y12459200D03*
X30629300Y9576300D03*
X30388000Y6922000D03*
X58582000Y17082000D03*
X30388000Y17082000D03*
X33182000Y17082000D03*
X38770000Y17082000D03*
X35976000Y17082000D03*
X47914000Y17082000D03*
X44866000Y17082000D03*
X41818000Y17082000D03*
X50708000Y17082000D03*
X56296000Y17082000D03*
X53756000Y17082000D03*
X24292000Y17082000D03*
X26832000Y6922000D03*
X26501800Y9614400D03*
X26743100Y12395700D03*
X26832000Y17082000D03*
X21244000Y17082000D03*
X12354000Y17082000D03*
X15402000Y17082000D03*
X18450000Y17082000D03*
X6512000Y17082000D03*
X9306000Y17082000D03*
D12*
X28500000Y2980000D03*
D13*
X24120000Y2980000D03*
X32880000Y2980000D03*
D14*
X24120000Y6420000D03*
X32880000Y6420000D03*
D15*
X24120000Y5970000D03*
X32880000Y5970000D03*
D16*
X28401100Y24696400D03*
D17*
X48401100Y19896400D03*
D18*
X28501100Y20146400D03*
D19*
X13401100Y19746400D03*
D16*
X46901100Y24696400D03*
X13301100Y24696400D03*
D11*
X924000Y17082000D03*
D20*
X28452200Y14999200D03*
X30952200Y14999200D03*
D21*
X28508400Y10813600D03*
X28508400Y8313600D03*
D22*
X47520000Y6420000D02*
X32880000Y6420000D01*
X48401100Y7301100D02*
X47520000Y6420000D01*
X48401100Y19896400D02*
X48401100Y7301100D01*
X28501100Y20146400D02*
X28501100Y15966300D01*
X28501100Y15966300D02*
X28503000Y15964400D01*
X28503000Y15964400D02*
X28503000Y10819000D01*
X28503000Y10819000D02*
X28508400Y10813600D01*
X28508400Y8313600D02*
X28508400Y2988400D01*
X28508400Y2988400D02*
X28500000Y2980000D01*
X28501100Y2981100D02*
X28500000Y2980000D01*
D23*
G36*
X59373000Y127000D02*
X34647670Y127000D01*
X34725000Y313691D01*
X34725000Y2694250D01*
X34566250Y2853000D01*
X33007000Y2853000D01*
X33007000Y2833000D01*
X32753000Y2833000D01*
X32753000Y2853000D01*
X31193750Y2853000D01*
X31035000Y2694250D01*
X31035000Y313691D01*
X31112330Y127000D01*
X30627000Y127000D01*
X30627000Y5646309D01*
X31035000Y5646309D01*
X31035000Y3265750D01*
X31193750Y3107000D01*
X32753000Y3107000D01*
X32753000Y3127000D01*
X33007000Y3127000D01*
X33007000Y3107000D01*
X34566250Y3107000D01*
X34725000Y3265750D01*
X34725000Y5646309D01*
X34628327Y5879698D01*
X34449699Y6058327D01*
X34216310Y6155000D01*
X33972129Y6155000D01*
X34013149Y6278564D01*
X33981018Y6722968D01*
X33872768Y6984308D01*
X33659200Y7019595D01*
X33533815Y6894210D01*
X33469699Y6958327D01*
X33306374Y7025979D01*
X33479595Y7199200D01*
X33444308Y7412768D01*
X33021436Y7553149D01*
X32577032Y7521018D01*
X32315692Y7412768D01*
X32280405Y7199200D01*
X32453626Y7025979D01*
X32290301Y6958327D01*
X32226185Y6894210D01*
X32100800Y7019595D01*
X31887232Y6984308D01*
X31746851Y6561436D01*
X31776237Y6155000D01*
X31543690Y6155000D01*
X31310301Y6058327D01*
X31131673Y5879698D01*
X31035000Y5646309D01*
X30627000Y5646309D01*
X30627000Y6200000D01*
X30616994Y6249410D01*
X30588553Y6291035D01*
X30546159Y6318315D01*
X30500000Y6327000D01*
X29627000Y6327000D01*
X29627000Y7161212D01*
X29729831Y7311710D01*
X29780840Y7563600D01*
X29780840Y9063600D01*
X29736562Y9298917D01*
X29627000Y9469181D01*
X29627000Y9661212D01*
X29729831Y9811710D01*
X29780840Y10063600D01*
X29780840Y11563600D01*
X29736562Y11798917D01*
X29627000Y11969181D01*
X29627000Y13892967D01*
X29653641Y13910110D01*
X29700169Y13978206D01*
X29842502Y13835873D01*
X30075891Y13739200D01*
X30666450Y13739200D01*
X30825200Y13897950D01*
X30825200Y14872200D01*
X31079200Y14872200D01*
X31079200Y13897950D01*
X31237950Y13739200D01*
X31828509Y13739200D01*
X32061898Y13835873D01*
X32240527Y14014501D01*
X32337200Y14247890D01*
X32337200Y14713450D01*
X32178450Y14872200D01*
X31079200Y14872200D01*
X30825200Y14872200D01*
X30805200Y14872200D01*
X30805200Y15126200D01*
X30825200Y15126200D01*
X30825200Y16100450D01*
X31079200Y16100450D01*
X31079200Y15126200D01*
X32178450Y15126200D01*
X32337200Y15284950D01*
X32337200Y15750510D01*
X32240527Y15983899D01*
X32061898Y16162527D01*
X31828509Y16259200D01*
X31237950Y16259200D01*
X31079200Y16100450D01*
X30825200Y16100450D01*
X30666450Y16259200D01*
X30075891Y16259200D01*
X29842502Y16162527D01*
X29701264Y16021290D01*
X29666290Y16075641D01*
X29627000Y16102487D01*
X29627000Y17873000D01*
X59373000Y17873000D01*
X59373000Y127000D01*
X59373000Y127000D01*
G37*
X59373000Y127000D02*
X34647670Y127000D01*
X34725000Y313691D01*
X34725000Y2694250D01*
X34566250Y2853000D01*
X33007000Y2853000D01*
X33007000Y2833000D01*
X32753000Y2833000D01*
X32753000Y2853000D01*
X31193750Y2853000D01*
X31035000Y2694250D01*
X31035000Y313691D01*
X31112330Y127000D01*
X30627000Y127000D01*
X30627000Y5646309D01*
X31035000Y5646309D01*
X31035000Y3265750D01*
X31193750Y3107000D01*
X32753000Y3107000D01*
X32753000Y3127000D01*
X33007000Y3127000D01*
X33007000Y3107000D01*
X34566250Y3107000D01*
X34725000Y3265750D01*
X34725000Y5646309D01*
X34628327Y5879698D01*
X34449699Y6058327D01*
X34216310Y6155000D01*
X33972129Y6155000D01*
X34013149Y6278564D01*
X33981018Y6722968D01*
X33872768Y6984308D01*
X33659200Y7019595D01*
X33533815Y6894210D01*
X33469699Y6958327D01*
X33306374Y7025979D01*
X33479595Y7199200D01*
X33444308Y7412768D01*
X33021436Y7553149D01*
X32577032Y7521018D01*
X32315692Y7412768D01*
X32280405Y7199200D01*
X32453626Y7025979D01*
X32290301Y6958327D01*
X32226185Y6894210D01*
X32100800Y7019595D01*
X31887232Y6984308D01*
X31746851Y6561436D01*
X31776237Y6155000D01*
X31543690Y6155000D01*
X31310301Y6058327D01*
X31131673Y5879698D01*
X31035000Y5646309D01*
X30627000Y5646309D01*
X30627000Y6200000D01*
X30616994Y6249410D01*
X30588553Y6291035D01*
X30546159Y6318315D01*
X30500000Y6327000D01*
X29627000Y6327000D01*
X29627000Y7161212D01*
X29729831Y7311710D01*
X29780840Y7563600D01*
X29780840Y9063600D01*
X29736562Y9298917D01*
X29627000Y9469181D01*
X29627000Y9661212D01*
X29729831Y9811710D01*
X29780840Y10063600D01*
X29780840Y11563600D01*
X29736562Y11798917D01*
X29627000Y11969181D01*
X29627000Y13892967D01*
X29653641Y13910110D01*
X29700169Y13978206D01*
X29842502Y13835873D01*
X30075891Y13739200D01*
X30666450Y13739200D01*
X30825200Y13897950D01*
X30825200Y14872200D01*
X31079200Y14872200D01*
X31079200Y13897950D01*
X31237950Y13739200D01*
X31828509Y13739200D01*
X32061898Y13835873D01*
X32240527Y14014501D01*
X32337200Y14247890D01*
X32337200Y14713450D01*
X32178450Y14872200D01*
X31079200Y14872200D01*
X30825200Y14872200D01*
X30805200Y14872200D01*
X30805200Y15126200D01*
X30825200Y15126200D01*
X30825200Y16100450D01*
X31079200Y16100450D01*
X31079200Y15126200D01*
X32178450Y15126200D01*
X32337200Y15284950D01*
X32337200Y15750510D01*
X32240527Y15983899D01*
X32061898Y16162527D01*
X31828509Y16259200D01*
X31237950Y16259200D01*
X31079200Y16100450D01*
X30825200Y16100450D01*
X30666450Y16259200D01*
X30075891Y16259200D01*
X29842502Y16162527D01*
X29701264Y16021290D01*
X29666290Y16075641D01*
X29627000Y16102487D01*
X29627000Y17873000D01*
X59373000Y17873000D01*
X59373000Y127000D01*
G36*
X27373000Y16166950D02*
X27250759Y16088290D01*
X27105769Y15876090D01*
X27054760Y15624200D01*
X27054760Y14374200D01*
X27099038Y14138883D01*
X27238110Y13922759D01*
X27373000Y13830593D01*
X27373000Y11941401D01*
X27286969Y11815490D01*
X27235960Y11563600D01*
X27235960Y10063600D01*
X27280238Y9828283D01*
X27373000Y9684127D01*
X27373000Y9441401D01*
X27286969Y9315490D01*
X27235960Y9063600D01*
X27235960Y7563600D01*
X27280238Y7328283D01*
X27373000Y7184127D01*
X27373000Y6327000D01*
X26500000Y6327000D01*
X26450590Y6316994D01*
X26408965Y6288553D01*
X26381685Y6246159D01*
X26373000Y6200000D01*
X26373000Y127000D01*
X127000Y127000D01*
X127000Y5640800D01*
X23520405Y5640800D01*
X23555692Y5427232D01*
X23978564Y5286851D01*
X24422968Y5318982D01*
X24684308Y5427232D01*
X24719595Y5640800D01*
X24120000Y6240395D01*
X23520405Y5640800D01*
X127000Y5640800D01*
X127000Y6561436D01*
X22986851Y6561436D01*
X23018982Y6117032D01*
X23127232Y5855692D01*
X23340800Y5820405D01*
X23940395Y6420000D01*
X24299605Y6420000D01*
X24899200Y5820405D01*
X25112768Y5855692D01*
X25253149Y6278564D01*
X25221018Y6722968D01*
X25112768Y6984308D01*
X24899200Y7019595D01*
X24299605Y6420000D01*
X23940395Y6420000D01*
X23340800Y7019595D01*
X23127232Y6984308D01*
X22986851Y6561436D01*
X127000Y6561436D01*
X127000Y7199200D01*
X23520405Y7199200D01*
X24120000Y6599605D01*
X24719595Y7199200D01*
X24684308Y7412768D01*
X24261436Y7553149D01*
X23817032Y7521018D01*
X23555692Y7412768D01*
X23520405Y7199200D01*
X127000Y7199200D01*
X127000Y17873000D01*
X27373000Y17873000D01*
X27373000Y16166950D01*
X27373000Y16166950D01*
G37*
X27373000Y16166950D02*
X27250759Y16088290D01*
X27105769Y15876090D01*
X27054760Y15624200D01*
X27054760Y14374200D01*
X27099038Y14138883D01*
X27238110Y13922759D01*
X27373000Y13830593D01*
X27373000Y11941401D01*
X27286969Y11815490D01*
X27235960Y11563600D01*
X27235960Y10063600D01*
X27280238Y9828283D01*
X27373000Y9684127D01*
X27373000Y9441401D01*
X27286969Y9315490D01*
X27235960Y9063600D01*
X27235960Y7563600D01*
X27280238Y7328283D01*
X27373000Y7184127D01*
X27373000Y6327000D01*
X26500000Y6327000D01*
X26450590Y6316994D01*
X26408965Y6288553D01*
X26381685Y6246159D01*
X26373000Y6200000D01*
X26373000Y127000D01*
X127000Y127000D01*
X127000Y5640800D01*
X23520405Y5640800D01*
X23555692Y5427232D01*
X23978564Y5286851D01*
X24422968Y5318982D01*
X24684308Y5427232D01*
X24719595Y5640800D01*
X24120000Y6240395D01*
X23520405Y5640800D01*
X127000Y5640800D01*
X127000Y6561436D01*
X22986851Y6561436D01*
X23018982Y6117032D01*
X23127232Y5855692D01*
X23340800Y5820405D01*
X23940395Y6420000D01*
X24299605Y6420000D01*
X24899200Y5820405D01*
X25112768Y5855692D01*
X25253149Y6278564D01*
X25221018Y6722968D01*
X25112768Y6984308D01*
X24899200Y7019595D01*
X24299605Y6420000D01*
X23940395Y6420000D01*
X23340800Y7019595D01*
X23127232Y6984308D01*
X22986851Y6561436D01*
X127000Y6561436D01*
X127000Y7199200D01*
X23520405Y7199200D01*
X24120000Y6599605D01*
X24719595Y7199200D01*
X24684308Y7412768D01*
X24261436Y7553149D01*
X23817032Y7521018D01*
X23555692Y7412768D01*
X23520405Y7199200D01*
X127000Y7199200D01*
X127000Y17873000D01*
X27373000Y17873000D01*
X27373000Y16166950D01*
M02*
