G04 #@! TF.FileFunction,Copper,L2,Bot,Signal*
%FSLAX46Y46*%
G04 Gerber Fmt 4.6, Leading zero omitted, Abs format (unit mm)*
G04 Created by KiCad (PCBNEW 4.0.5) date 04/12/17 15:12:09*
%MOMM*%
%LPD*%
G01*
G04 APERTURE LIST*
%ADD10C,0.100000*%
%ADD11C,0.356000*%
%ADD12R,6.480000X2.420000*%
%ADD13C,0.970000*%
%ADD14R,1.700000X1.700000*%
%ADD15O,1.700000X1.700000*%
%ADD16C,1.700000*%
%ADD17R,1.200000X0.750000*%
%ADD18C,0.787400*%
%ADD19R,0.500000X0.900000*%
%ADD20R,0.900000X0.500000*%
%ADD21C,1.000000*%
%ADD22C,0.558800*%
%ADD23C,1.016000*%
%ADD24C,0.558800*%
%ADD25C,0.254000*%
%ADD26C,0.508000*%
%ADD27C,0.152400*%
G04 APERTURE END LIST*
D10*
D11*
X140081000Y35941000D03*
X138938000Y35941000D03*
X137795000Y35941000D03*
X136715500Y35941000D03*
X135572500Y35941000D03*
X140716000Y47117000D03*
X144462500Y45974000D03*
X141033500Y50355500D03*
X144462500Y50990500D03*
X145859500Y50990500D03*
X146939000Y49530000D03*
X147764500Y49530000D03*
X148971000Y44894500D03*
X150050500Y45910500D03*
X149034500Y49085500D03*
X150050500Y49085500D03*
X150050500Y46990000D03*
X147764500Y45910500D03*
X146558000Y45910500D03*
X145034000Y47117000D03*
X143256000Y45974000D03*
D12*
X154499500Y43689500D03*
X154499500Y52449500D03*
D13*
X151759500Y43689500D03*
X151759500Y52449500D03*
D11*
X137922000Y41338500D03*
X136144000Y42735500D03*
X134366000Y38671500D03*
X141224000Y43243500D03*
X141224000Y42100500D03*
X141224000Y40957500D03*
X141224000Y39814500D03*
X141224000Y38671500D03*
X141224000Y37528500D03*
X140081000Y37528500D03*
X138938000Y37528500D03*
X137795000Y37528500D03*
X136652000Y37528500D03*
X135509000Y37528500D03*
X134366000Y37528500D03*
X140716000Y68199000D03*
X144907000Y68199000D03*
X142811500Y68199000D03*
X138620500Y68199000D03*
X147002500Y68199000D03*
X147066000Y66421000D03*
X147066000Y64897000D03*
X147066000Y63373000D03*
X147066000Y61849000D03*
X147066000Y60325000D03*
X147066000Y58801000D03*
X147066000Y57277000D03*
X147066000Y55753000D03*
X147066000Y54419500D03*
X146177000Y52324000D03*
X147066000Y53086000D03*
X144399000Y52324000D03*
X140970000Y52387500D03*
X138620500Y52324000D03*
X138303000Y53530500D03*
X138303000Y55054500D03*
X138303000Y56578500D03*
X138303000Y58102500D03*
X138303000Y59626500D03*
X138303000Y61150500D03*
X138303000Y62674500D03*
X138303000Y64198500D03*
X138303000Y65722500D03*
X140525500Y58864500D03*
X140525500Y60388500D03*
X140525500Y61912500D03*
X140525500Y63436500D03*
X140525500Y64960500D03*
X140525500Y66484500D03*
X143002000Y66802000D03*
X145224500Y65722500D03*
X145224500Y64135000D03*
X145224500Y62611000D03*
X145224500Y61087000D03*
X145224500Y59563000D03*
X141922500Y54292500D03*
X145224500Y58039000D03*
X145224500Y56515000D03*
X145097500Y54991000D03*
X145097500Y53848000D03*
X133477000Y47625000D03*
X132842000Y47625000D03*
X132207000Y47625000D03*
X131572000Y47625000D03*
X130937000Y47625000D03*
X130937000Y48260000D03*
X131572000Y48260000D03*
X132207000Y48260000D03*
X132842000Y48260000D03*
X133477000Y48260000D03*
X133477000Y48895000D03*
X132842000Y48895000D03*
X132207000Y48895000D03*
X131572000Y48895000D03*
X130937000Y48895000D03*
X130937000Y49530000D03*
X131572000Y49530000D03*
X132207000Y49530000D03*
X132842000Y49530000D03*
X133477000Y49530000D03*
X133477000Y50165000D03*
X132842000Y50165000D03*
X132207000Y50165000D03*
X131572000Y50165000D03*
D14*
X57594500Y59055000D03*
D15*
X57594500Y56515000D03*
D14*
X32702500Y66421000D03*
D15*
X32702500Y63881000D03*
D14*
X127444500Y59055000D03*
D15*
X127444500Y56515000D03*
D14*
X107378500Y55689500D03*
D16*
X104838500Y55689500D03*
X107378500Y53149500D03*
X104838500Y53149500D03*
X107378500Y50609500D03*
X104838500Y50609500D03*
X107378500Y48069500D03*
X104838500Y48069500D03*
X107378500Y45529500D03*
X104838500Y45529500D03*
X107378500Y42989500D03*
X104838500Y42989500D03*
X107378500Y40449500D03*
X104838500Y40449500D03*
X107378500Y37909500D03*
X104838500Y37909500D03*
X107378500Y35369500D03*
X104838500Y35369500D03*
X107378500Y32829500D03*
X104838500Y32829500D03*
D14*
X9144000Y64071500D03*
D15*
X9144000Y66611500D03*
D14*
X107378500Y16637000D03*
D15*
X107378500Y19177000D03*
D17*
X7300000Y6413500D03*
X5400000Y6413500D03*
D14*
X57594500Y84455000D03*
D15*
X60134500Y84455000D03*
D14*
X32702500Y19431000D03*
D15*
X32702500Y16891000D03*
D14*
X86042500Y19431000D03*
D15*
X86042500Y16891000D03*
D14*
X86042500Y66421000D03*
D15*
X86042500Y63881000D03*
D14*
X155829000Y66421000D03*
D15*
X155829000Y63881000D03*
D14*
X155829000Y19431000D03*
D15*
X155829000Y16891000D03*
D14*
X102489000Y19431000D03*
D15*
X102489000Y16891000D03*
D14*
X102489000Y66421000D03*
D15*
X102489000Y63881000D03*
D18*
X3848100Y11391900D03*
X8851900Y11391900D03*
X8851900Y6388100D03*
X3848100Y6388100D03*
D19*
X11494200Y9017000D03*
X9994200Y9017000D03*
X126289500Y44704000D03*
X124789500Y44704000D03*
X126289500Y46228000D03*
X124789500Y46228000D03*
X126289500Y47752000D03*
X124789500Y47752000D03*
X118312500Y43243500D03*
X119812500Y43243500D03*
X118312500Y48260000D03*
X119812500Y48260000D03*
D20*
X109728000Y51256500D03*
X109728000Y52756500D03*
D21*
X143954500Y57150000D03*
X142054500Y57150000D03*
D14*
X115887500Y38100000D03*
D15*
X115887500Y40640000D03*
X115887500Y43180000D03*
X115887500Y45720000D03*
X115887500Y48260000D03*
X115887500Y50800000D03*
X115887500Y53340000D03*
X115887500Y55880000D03*
X115887500Y58420000D03*
X115887500Y60960000D03*
D14*
X68580000Y30480000D03*
D15*
X66040000Y30480000D03*
X63500000Y30480000D03*
X60960000Y30480000D03*
X58420000Y30480000D03*
X55880000Y30480000D03*
D14*
X68580000Y5080000D03*
D15*
X66040000Y5080000D03*
X63500000Y5080000D03*
X60960000Y5080000D03*
X58420000Y5080000D03*
X55880000Y5080000D03*
D14*
X138430000Y30480000D03*
D15*
X135890000Y30480000D03*
X133350000Y30480000D03*
X130810000Y30480000D03*
X128270000Y30480000D03*
X125730000Y30480000D03*
D14*
X46037500Y16573500D03*
D15*
X46037500Y19113500D03*
X46037500Y21653500D03*
X46037500Y24193500D03*
X46037500Y26733500D03*
X46037500Y29273500D03*
X46037500Y31813500D03*
X46037500Y34353500D03*
D14*
X24447500Y29210000D03*
D15*
X24447500Y31750000D03*
X24447500Y34290000D03*
X24447500Y36830000D03*
X24447500Y39370000D03*
X24447500Y41910000D03*
X24447500Y44450000D03*
X24447500Y46990000D03*
D14*
X115887500Y16573500D03*
D15*
X115887500Y19113500D03*
X115887500Y21653500D03*
X115887500Y24193500D03*
X115887500Y26733500D03*
X115887500Y29273500D03*
X115887500Y31813500D03*
X115887500Y34353500D03*
D14*
X46037500Y38100000D03*
D15*
X46037500Y40640000D03*
X46037500Y43180000D03*
X46037500Y45720000D03*
X46037500Y48260000D03*
X46037500Y50800000D03*
X46037500Y53340000D03*
X46037500Y55880000D03*
X46037500Y58420000D03*
X46037500Y60960000D03*
D14*
X24447500Y50736500D03*
D15*
X24447500Y53276500D03*
X24447500Y55816500D03*
X24447500Y58356500D03*
X24447500Y60896500D03*
X24447500Y63436500D03*
X24447500Y65976500D03*
X24447500Y68516500D03*
X24447500Y71056500D03*
X24447500Y73596500D03*
D14*
X6197600Y71907400D03*
D15*
X8737600Y71907400D03*
D11*
X130937000Y50165000D03*
D22*
X138239500Y47053500D03*
X135953500Y53594000D03*
X113982500Y65976500D03*
X136779000Y65976500D03*
X124777500Y47942500D03*
X141795500Y51689000D03*
X128016000Y50736500D03*
X126111000Y50482500D03*
X112649000Y46291500D03*
X134874000Y51562000D03*
X124650500Y56642000D03*
X125476000Y49212500D03*
X139954000Y50165000D03*
D23*
X104838500Y53149500D02*
X104838500Y32829500D01*
D24*
X140398500Y44958000D02*
X140335000Y44958000D01*
X140335000Y44958000D02*
X138239500Y47053500D01*
D25*
X138239500Y47053500D02*
X138239500Y47078900D01*
D24*
X136715500Y54356000D02*
X136969500Y54610000D01*
X135953500Y53594000D02*
X136715500Y54356000D01*
X136969500Y54610000D02*
X136779000Y54419500D01*
X136779000Y54419500D02*
X136779000Y54800500D01*
D23*
X136779000Y65976500D02*
X136779000Y54800500D01*
X136779000Y54800500D02*
X136779000Y54991000D01*
X136779000Y54991000D02*
X136779000Y54927500D01*
D25*
X124789500Y44704000D02*
X124777500Y44704000D01*
X124777500Y47942500D02*
X124789500Y47752000D01*
D24*
X123825000Y42608500D02*
X124777500Y43561000D01*
X119316500Y38100000D02*
X123825000Y42608500D01*
X115887500Y38100000D02*
X119316500Y38100000D01*
X124777500Y43561000D02*
X124777500Y47879000D01*
X124777500Y47879000D02*
X124789500Y47752000D01*
D23*
X102489000Y63881000D02*
X111887000Y63881000D01*
X111887000Y63881000D02*
X113982500Y65976500D01*
X113982500Y65976500D02*
X113982500Y65976500D01*
D24*
X142798800Y42519600D02*
X142798800Y44069000D01*
X142798800Y44069000D02*
X141909800Y44958000D01*
X141909800Y44958000D02*
X140398500Y44958000D01*
X140398500Y44958000D02*
X140360400Y44958000D01*
X138430000Y30480000D02*
X138430000Y32283400D01*
X138430000Y32283400D02*
X142798800Y36652200D01*
X142798800Y36652200D02*
X142798800Y42519600D01*
D23*
X155829000Y16891000D02*
X138747500Y16891000D01*
X138747500Y16891000D02*
X138430000Y16573500D01*
X115887500Y38100000D02*
X113157000Y35433000D01*
X113157000Y35433000D02*
X113157000Y16637000D01*
X113157000Y16637000D02*
X113157000Y16573500D01*
X138430000Y30480000D02*
X138430000Y16573500D01*
X115887500Y16573500D02*
X138430000Y16573500D01*
X107378500Y55689500D02*
X107378500Y59372500D01*
X107378500Y59372500D02*
X113982500Y65976500D01*
X115887500Y16573500D02*
X113157000Y16573500D01*
X113157000Y16573500D02*
X107378500Y16573500D01*
X107378500Y16573500D02*
X107315000Y16637000D01*
X107315000Y16637000D02*
X107378500Y16637000D01*
D26*
X109728000Y52756500D02*
X109728000Y53403500D01*
X109728000Y53403500D02*
X107315000Y55816500D01*
X107315000Y55816500D02*
X107315000Y55943500D01*
X107315000Y55943500D02*
X107378500Y55689500D01*
D24*
X141795500Y51689000D02*
X142494000Y52451000D01*
D25*
X142494000Y52451000D02*
X142494000Y52578000D01*
X142494000Y52578000D02*
X143891000Y53975000D01*
D24*
X142494000Y52451000D02*
X142367000Y52324000D01*
D25*
X143891000Y53975000D02*
X143891000Y57150000D01*
X143891000Y57150000D02*
X143954500Y57150000D01*
X143891000Y57150000D02*
X143954500Y57150000D01*
D24*
X9994200Y9017000D02*
X8915400Y9017000D01*
X8915400Y9017000D02*
X8851900Y9017000D01*
X8851900Y6388100D02*
X7391400Y6388100D01*
X7391400Y6388100D02*
X7366000Y6413500D01*
X7366000Y6413500D02*
X7300000Y6413500D01*
X8851900Y6388100D02*
X8851900Y9017000D01*
X8851900Y9017000D02*
X8851900Y11328400D01*
X8851900Y11328400D02*
X8890000Y11366500D01*
X8890000Y11366500D02*
X8851900Y11391900D01*
D23*
X60960000Y5080000D02*
X60960000Y30480000D01*
D25*
X128016000Y50736500D02*
X128016000Y46355000D01*
X126301500Y44640500D02*
X128016000Y46355000D01*
D24*
X115887500Y50800000D02*
X109791500Y50800000D01*
X109791500Y50800000D02*
X109728000Y50800000D01*
D25*
X126301500Y44640500D02*
X126289500Y44704000D01*
D26*
X109728000Y51256500D02*
X109728000Y50800000D01*
X109728000Y50800000D02*
X109728000Y50609500D01*
X109728000Y50609500D02*
X107378500Y48260000D01*
X107378500Y48260000D02*
X107378500Y48069500D01*
D25*
X127127000Y48260000D02*
X127127000Y49466500D01*
X127127000Y49466500D02*
X126111000Y50482500D01*
X115887500Y48260000D02*
X118300500Y48260000D01*
X118300500Y48260000D02*
X118364000Y48196500D01*
X118364000Y48196500D02*
X118312500Y48260000D01*
D24*
X107378500Y45529500D02*
X107886500Y45529500D01*
X107886500Y45529500D02*
X110617000Y48260000D01*
X110617000Y48260000D02*
X115887500Y48260000D01*
D25*
X127127000Y48260000D02*
X127127000Y46545500D01*
X127127000Y46545500D02*
X126809500Y46228000D01*
X126809500Y46228000D02*
X126301500Y46228000D01*
X126301500Y46228000D02*
X126289500Y46228000D01*
D24*
X107378500Y37909500D02*
X110807500Y37909500D01*
X112649000Y39751000D02*
X112649000Y46291500D01*
X110807500Y37909500D02*
X112649000Y39751000D01*
D25*
X133032500Y53403500D02*
X134874000Y51562000D01*
X127889000Y53403500D02*
X133032500Y53403500D01*
X124650500Y56642000D02*
X127889000Y53403500D01*
D24*
X32702500Y63881000D02*
X32702500Y58928000D01*
X32702500Y58928000D02*
X24511000Y50736500D01*
X24511000Y50736500D02*
X24447500Y50736500D01*
D23*
X24447500Y50736500D02*
X1397000Y50736500D01*
X1397000Y50736500D02*
X1270000Y50736500D01*
X46037500Y16573500D02*
X46037500Y1333500D01*
X46037500Y1333500D02*
X46037500Y1143000D01*
X24447500Y29210000D02*
X24447500Y1270000D01*
X24447500Y1270000D02*
X24447500Y1143000D01*
D24*
X11494200Y9017000D02*
X11494200Y1207200D01*
X11494200Y1207200D02*
X11493500Y1206500D01*
X11493500Y1206500D02*
X11493500Y1143000D01*
D23*
X74168000Y5080000D02*
X70231000Y1143000D01*
X70231000Y1143000D02*
X46037500Y1143000D01*
X46037500Y1143000D02*
X24447500Y1143000D01*
X24447500Y1143000D02*
X11493500Y1143000D01*
X11493500Y1143000D02*
X3683000Y1143000D01*
X3683000Y1143000D02*
X3619500Y1143000D01*
X3619500Y1143000D02*
X3492500Y1143000D01*
X3492500Y1143000D02*
X3492500Y1206500D01*
X3492500Y1206500D02*
X1270000Y3429000D01*
X1270000Y3429000D02*
X1270000Y50736500D01*
X1270000Y50736500D02*
X1270000Y56197500D01*
X1270000Y56197500D02*
X9144000Y64071500D01*
X68580000Y5080000D02*
X74168000Y5080000D01*
X74168000Y5080000D02*
X74104500Y5080000D01*
X74104500Y5080000D02*
X74231500Y5080000D01*
X74231500Y5080000D02*
X86042500Y16891000D01*
X86042500Y16891000D02*
X86042500Y19367500D01*
X68897500Y30797500D02*
X68580000Y30480000D01*
X32702500Y63881000D02*
X32702500Y66421000D01*
X68580000Y30480000D02*
X68580000Y5016500D01*
X68580000Y5016500D02*
X68580000Y5080000D01*
D25*
X126301500Y47752000D02*
X126301500Y48387000D01*
X126301500Y48387000D02*
X125476000Y49212500D01*
X126301500Y47752000D02*
X126289500Y47752000D01*
D26*
X115887500Y43180000D02*
X118300500Y43180000D01*
D25*
X126301500Y47752000D02*
X126289500Y47752000D01*
X142113000Y57150000D02*
X139954000Y54991000D01*
X139954000Y50165000D02*
X139954000Y54991000D01*
X142113000Y57150000D02*
X142054500Y57150000D01*
D23*
X57594500Y59055000D02*
X60134500Y61595000D01*
X60134500Y61595000D02*
X60134500Y84455000D01*
X66040000Y5080000D02*
X66040000Y30480000D01*
X63500000Y30480000D02*
X63500000Y5080000D01*
X58420000Y30480000D02*
X58420000Y5080000D01*
D25*
G36*
X158242000Y14478000D02*
X100076000Y14478000D01*
X100076000Y16673383D01*
X101277388Y16673383D01*
X101286337Y16628387D01*
X101478382Y16188138D01*
X101824284Y15854893D01*
X102271383Y15679386D01*
X102463600Y15755510D01*
X102463600Y16865600D01*
X102514400Y16865600D01*
X102514400Y15755510D01*
X102706617Y15679386D01*
X103153716Y15854893D01*
X103499618Y16188138D01*
X103691663Y16628387D01*
X103700612Y16673383D01*
X103624466Y16865600D01*
X102514400Y16865600D01*
X102463600Y16865600D01*
X101353534Y16865600D01*
X101277388Y16673383D01*
X100076000Y16673383D01*
X100076000Y17108617D01*
X101277388Y17108617D01*
X101353534Y16916400D01*
X102463600Y16916400D01*
X102463600Y18026490D01*
X102514400Y18026490D01*
X102514400Y16916400D01*
X103624466Y16916400D01*
X103700612Y17108617D01*
X103691663Y17153613D01*
X103499618Y17593862D01*
X103153716Y17927107D01*
X102706617Y18102614D01*
X102514400Y18026490D01*
X102463600Y18026490D01*
X102271383Y18102614D01*
X101824284Y17927107D01*
X101478382Y17593862D01*
X101286337Y17153613D01*
X101277388Y17108617D01*
X100076000Y17108617D01*
X100076000Y19310350D01*
X101258000Y19310350D01*
X101258000Y18505215D01*
X101316004Y18365181D01*
X101423180Y18258004D01*
X101563214Y18200000D01*
X102368350Y18200000D01*
X102463600Y18295250D01*
X102463600Y19405600D01*
X102514400Y19405600D01*
X102514400Y18295250D01*
X102609650Y18200000D01*
X103414786Y18200000D01*
X103554820Y18258004D01*
X103661996Y18365181D01*
X103720000Y18505215D01*
X103720000Y19310350D01*
X103624750Y19405600D01*
X102514400Y19405600D01*
X102463600Y19405600D01*
X101353250Y19405600D01*
X101258000Y19310350D01*
X100076000Y19310350D01*
X100076000Y20356785D01*
X101258000Y20356785D01*
X101258000Y19551650D01*
X101353250Y19456400D01*
X102463600Y19456400D01*
X102463600Y20566750D01*
X102514400Y20566750D01*
X102514400Y19456400D01*
X103624750Y19456400D01*
X103720000Y19551650D01*
X103720000Y20356785D01*
X103661996Y20496819D01*
X103554820Y20603996D01*
X103414786Y20662000D01*
X102609650Y20662000D01*
X102514400Y20566750D01*
X102463600Y20566750D01*
X102368350Y20662000D01*
X101563214Y20662000D01*
X101423180Y20603996D01*
X101316004Y20496819D01*
X101258000Y20356785D01*
X100076000Y20356785D01*
X100076000Y31991586D01*
X104036507Y31991586D01*
X104121461Y31799367D01*
X104570258Y31603382D01*
X105059892Y31594064D01*
X105515820Y31772829D01*
X105555539Y31799367D01*
X105640493Y31991586D01*
X104838500Y32793579D01*
X104036507Y31991586D01*
X100076000Y31991586D01*
X100076000Y32608108D01*
X103603064Y32608108D01*
X103781829Y32152180D01*
X103808367Y32112461D01*
X104000586Y32027507D01*
X104802579Y32829500D01*
X104874421Y32829500D01*
X105676414Y32027507D01*
X105868633Y32112461D01*
X106064618Y32561258D01*
X106073936Y33050892D01*
X105895171Y33506820D01*
X105868633Y33546539D01*
X105676414Y33631493D01*
X104874421Y32829500D01*
X104802579Y32829500D01*
X104000586Y33631493D01*
X103808367Y33546539D01*
X103612382Y33097742D01*
X103603064Y32608108D01*
X100076000Y32608108D01*
X100076000Y33667414D01*
X104036507Y33667414D01*
X104838500Y32865421D01*
X105640493Y33667414D01*
X105555539Y33859633D01*
X105106742Y34055618D01*
X104617108Y34064936D01*
X104161180Y33886171D01*
X104121461Y33859633D01*
X104036507Y33667414D01*
X100076000Y33667414D01*
X100076000Y34531586D01*
X104036507Y34531586D01*
X104121461Y34339367D01*
X104570258Y34143382D01*
X105059892Y34134064D01*
X105515820Y34312829D01*
X105555539Y34339367D01*
X105640493Y34531586D01*
X104838500Y35333579D01*
X104036507Y34531586D01*
X100076000Y34531586D01*
X100076000Y35148108D01*
X103603064Y35148108D01*
X103781829Y34692180D01*
X103808367Y34652461D01*
X104000586Y34567507D01*
X104802579Y35369500D01*
X104874421Y35369500D01*
X105676414Y34567507D01*
X105868633Y34652461D01*
X106064618Y35101258D01*
X106073936Y35590892D01*
X105895171Y36046820D01*
X105868633Y36086539D01*
X105676414Y36171493D01*
X104874421Y35369500D01*
X104802579Y35369500D01*
X104000586Y36171493D01*
X103808367Y36086539D01*
X103612382Y35637742D01*
X103603064Y35148108D01*
X100076000Y35148108D01*
X100076000Y36207414D01*
X104036507Y36207414D01*
X104838500Y35405421D01*
X105640493Y36207414D01*
X105555539Y36399633D01*
X105106742Y36595618D01*
X104617108Y36604936D01*
X104161180Y36426171D01*
X104121461Y36399633D01*
X104036507Y36207414D01*
X100076000Y36207414D01*
X100076000Y37071586D01*
X104036507Y37071586D01*
X104121461Y36879367D01*
X104570258Y36683382D01*
X105059892Y36674064D01*
X105515820Y36852829D01*
X105555539Y36879367D01*
X105640493Y37071586D01*
X104838500Y37873579D01*
X104036507Y37071586D01*
X100076000Y37071586D01*
X100076000Y37688108D01*
X103603064Y37688108D01*
X103781829Y37232180D01*
X103808367Y37192461D01*
X104000586Y37107507D01*
X104802579Y37909500D01*
X104874421Y37909500D01*
X105676414Y37107507D01*
X105868633Y37192461D01*
X106064618Y37641258D01*
X106073936Y38130892D01*
X105895171Y38586820D01*
X105868633Y38626539D01*
X105676414Y38711493D01*
X104874421Y37909500D01*
X104802579Y37909500D01*
X104000586Y38711493D01*
X103808367Y38626539D01*
X103612382Y38177742D01*
X103603064Y37688108D01*
X100076000Y37688108D01*
X100076000Y38747414D01*
X104036507Y38747414D01*
X104838500Y37945421D01*
X105640493Y38747414D01*
X105555539Y38939633D01*
X105106742Y39135618D01*
X104617108Y39144936D01*
X104161180Y38966171D01*
X104121461Y38939633D01*
X104036507Y38747414D01*
X100076000Y38747414D01*
X100076000Y39611586D01*
X104036507Y39611586D01*
X104121461Y39419367D01*
X104570258Y39223382D01*
X105059892Y39214064D01*
X105515820Y39392829D01*
X105555539Y39419367D01*
X105640493Y39611586D01*
X104838500Y40413579D01*
X104036507Y39611586D01*
X100076000Y39611586D01*
X100076000Y40228108D01*
X103603064Y40228108D01*
X103781829Y39772180D01*
X103808367Y39732461D01*
X104000586Y39647507D01*
X104802579Y40449500D01*
X104874421Y40449500D01*
X105676414Y39647507D01*
X105868633Y39732461D01*
X106064618Y40181258D01*
X106073936Y40670892D01*
X105895171Y41126820D01*
X105868633Y41166539D01*
X105676414Y41251493D01*
X104874421Y40449500D01*
X104802579Y40449500D01*
X104000586Y41251493D01*
X103808367Y41166539D01*
X103612382Y40717742D01*
X103603064Y40228108D01*
X100076000Y40228108D01*
X100076000Y41287414D01*
X104036507Y41287414D01*
X104838500Y40485421D01*
X105640493Y41287414D01*
X105555539Y41479633D01*
X105106742Y41675618D01*
X104617108Y41684936D01*
X104161180Y41506171D01*
X104121461Y41479633D01*
X104036507Y41287414D01*
X100076000Y41287414D01*
X100076000Y42151586D01*
X104036507Y42151586D01*
X104121461Y41959367D01*
X104570258Y41763382D01*
X105059892Y41754064D01*
X105515820Y41932829D01*
X105555539Y41959367D01*
X105640493Y42151586D01*
X104838500Y42953579D01*
X104036507Y42151586D01*
X100076000Y42151586D01*
X100076000Y42768108D01*
X103603064Y42768108D01*
X103781829Y42312180D01*
X103808367Y42272461D01*
X104000586Y42187507D01*
X104802579Y42989500D01*
X104874421Y42989500D01*
X105676414Y42187507D01*
X105868633Y42272461D01*
X106064618Y42721258D01*
X106073936Y43210892D01*
X105895171Y43666820D01*
X105868633Y43706539D01*
X105676414Y43791493D01*
X104874421Y42989500D01*
X104802579Y42989500D01*
X104000586Y43791493D01*
X103808367Y43706539D01*
X103612382Y43257742D01*
X103603064Y42768108D01*
X100076000Y42768108D01*
X100076000Y43827414D01*
X104036507Y43827414D01*
X104838500Y43025421D01*
X105640493Y43827414D01*
X105555539Y44019633D01*
X105106742Y44215618D01*
X104617108Y44224936D01*
X104161180Y44046171D01*
X104121461Y44019633D01*
X104036507Y43827414D01*
X100076000Y43827414D01*
X100076000Y44691586D01*
X104036507Y44691586D01*
X104121461Y44499367D01*
X104570258Y44303382D01*
X105059892Y44294064D01*
X105515820Y44472829D01*
X105555539Y44499367D01*
X105640493Y44691586D01*
X104838500Y45493579D01*
X104036507Y44691586D01*
X100076000Y44691586D01*
X100076000Y45308108D01*
X103603064Y45308108D01*
X103781829Y44852180D01*
X103808367Y44812461D01*
X104000586Y44727507D01*
X104802579Y45529500D01*
X104874421Y45529500D01*
X105676414Y44727507D01*
X105868633Y44812461D01*
X106064618Y45261258D01*
X106073936Y45750892D01*
X105895171Y46206820D01*
X105868633Y46246539D01*
X105676414Y46331493D01*
X104874421Y45529500D01*
X104802579Y45529500D01*
X104000586Y46331493D01*
X103808367Y46246539D01*
X103612382Y45797742D01*
X103603064Y45308108D01*
X100076000Y45308108D01*
X100076000Y46367414D01*
X104036507Y46367414D01*
X104838500Y45565421D01*
X105640493Y46367414D01*
X105555539Y46559633D01*
X105106742Y46755618D01*
X104617108Y46764936D01*
X104161180Y46586171D01*
X104121461Y46559633D01*
X104036507Y46367414D01*
X100076000Y46367414D01*
X100076000Y47231586D01*
X104036507Y47231586D01*
X104121461Y47039367D01*
X104570258Y46843382D01*
X105059892Y46834064D01*
X105515820Y47012829D01*
X105555539Y47039367D01*
X105640493Y47231586D01*
X104838500Y48033579D01*
X104036507Y47231586D01*
X100076000Y47231586D01*
X100076000Y47848108D01*
X103603064Y47848108D01*
X103781829Y47392180D01*
X103808367Y47352461D01*
X104000586Y47267507D01*
X104802579Y48069500D01*
X104874421Y48069500D01*
X105676414Y47267507D01*
X105868633Y47352461D01*
X106064618Y47801258D01*
X106073936Y48290892D01*
X105895171Y48746820D01*
X105868633Y48786539D01*
X105676414Y48871493D01*
X104874421Y48069500D01*
X104802579Y48069500D01*
X104000586Y48871493D01*
X103808367Y48786539D01*
X103612382Y48337742D01*
X103603064Y47848108D01*
X100076000Y47848108D01*
X100076000Y48907414D01*
X104036507Y48907414D01*
X104838500Y48105421D01*
X105640493Y48907414D01*
X105555539Y49099633D01*
X105106742Y49295618D01*
X104617108Y49304936D01*
X104161180Y49126171D01*
X104121461Y49099633D01*
X104036507Y48907414D01*
X100076000Y48907414D01*
X100076000Y49771586D01*
X104036507Y49771586D01*
X104121461Y49579367D01*
X104570258Y49383382D01*
X105059892Y49374064D01*
X105515820Y49552829D01*
X105555539Y49579367D01*
X105640493Y49771586D01*
X104838500Y50573579D01*
X104036507Y49771586D01*
X100076000Y49771586D01*
X100076000Y50388108D01*
X103603064Y50388108D01*
X103781829Y49932180D01*
X103808367Y49892461D01*
X104000586Y49807507D01*
X104802579Y50609500D01*
X104874421Y50609500D01*
X105676414Y49807507D01*
X105868633Y49892461D01*
X106064618Y50341258D01*
X106073936Y50830892D01*
X105895171Y51286820D01*
X105868633Y51326539D01*
X105676414Y51411493D01*
X104874421Y50609500D01*
X104802579Y50609500D01*
X104000586Y51411493D01*
X103808367Y51326539D01*
X103612382Y50877742D01*
X103603064Y50388108D01*
X100076000Y50388108D01*
X100076000Y51447414D01*
X104036507Y51447414D01*
X104838500Y50645421D01*
X105640493Y51447414D01*
X105555539Y51639633D01*
X105106742Y51835618D01*
X104617108Y51844936D01*
X104161180Y51666171D01*
X104121461Y51639633D01*
X104036507Y51447414D01*
X100076000Y51447414D01*
X100076000Y52311586D01*
X104036507Y52311586D01*
X104121461Y52119367D01*
X104570258Y51923382D01*
X105059892Y51914064D01*
X105515820Y52092829D01*
X105555539Y52119367D01*
X105640493Y52311586D01*
X104838500Y53113579D01*
X104036507Y52311586D01*
X100076000Y52311586D01*
X100076000Y52928108D01*
X103603064Y52928108D01*
X103781829Y52472180D01*
X103808367Y52432461D01*
X104000586Y52347507D01*
X104802579Y53149500D01*
X104874421Y53149500D01*
X105676414Y52347507D01*
X105868633Y52432461D01*
X106064618Y52881258D01*
X106073936Y53370892D01*
X105895171Y53826820D01*
X105868633Y53866539D01*
X105676414Y53951493D01*
X104874421Y53149500D01*
X104802579Y53149500D01*
X104000586Y53951493D01*
X103808367Y53866539D01*
X103612382Y53417742D01*
X103603064Y52928108D01*
X100076000Y52928108D01*
X100076000Y53987414D01*
X104036507Y53987414D01*
X104838500Y53185421D01*
X105640493Y53987414D01*
X105555539Y54179633D01*
X105106742Y54375618D01*
X104617108Y54384936D01*
X104161180Y54206171D01*
X104121461Y54179633D01*
X104036507Y53987414D01*
X100076000Y53987414D01*
X100076000Y63881000D01*
X101182088Y63881000D01*
X101279659Y63390476D01*
X101557519Y62974631D01*
X101973364Y62696771D01*
X102463888Y62599200D01*
X102514112Y62599200D01*
X103004636Y62696771D01*
X103370448Y62941200D01*
X109618122Y62941200D01*
X106713961Y60037039D01*
X106510238Y59732146D01*
X106438700Y59372500D01*
X106438700Y56962862D01*
X106368485Y56949650D01*
X106221520Y56855081D01*
X106122927Y56710785D01*
X106088241Y56539500D01*
X106088241Y56021473D01*
X105925791Y56414633D01*
X105565529Y56775524D01*
X105094584Y56971077D01*
X104584653Y56971522D01*
X104113367Y56776791D01*
X103752476Y56416529D01*
X103556923Y55945584D01*
X103556478Y55435653D01*
X103751209Y54964367D01*
X104111471Y54603476D01*
X104582416Y54407923D01*
X105092347Y54407478D01*
X105563633Y54602209D01*
X105924524Y54962471D01*
X106088241Y55356746D01*
X106088241Y54839500D01*
X106118350Y54679485D01*
X106212919Y54532520D01*
X106357215Y54433927D01*
X106528500Y54399241D01*
X107046527Y54399241D01*
X106653367Y54236791D01*
X106292476Y53876529D01*
X106096923Y53405584D01*
X106096478Y52895653D01*
X106291209Y52424367D01*
X106651471Y52063476D01*
X107095045Y51879288D01*
X106653367Y51696791D01*
X106292476Y51336529D01*
X106096923Y50865584D01*
X106096478Y50355653D01*
X106291209Y49884367D01*
X106651471Y49523476D01*
X107095045Y49339288D01*
X106653367Y49156791D01*
X106292476Y48796529D01*
X106096923Y48325584D01*
X106096478Y47815653D01*
X106291209Y47344367D01*
X106651471Y46983476D01*
X107095045Y46799288D01*
X106653367Y46616791D01*
X106292476Y46256529D01*
X106096923Y45785584D01*
X106096478Y45275653D01*
X106291209Y44804367D01*
X106651471Y44443476D01*
X107095045Y44259288D01*
X106653367Y44076791D01*
X106292476Y43716529D01*
X106096923Y43245584D01*
X106096478Y42735653D01*
X106291209Y42264367D01*
X106651471Y41903476D01*
X107095045Y41719288D01*
X106653367Y41536791D01*
X106292476Y41176529D01*
X106096923Y40705584D01*
X106096478Y40195653D01*
X106291209Y39724367D01*
X106651471Y39363476D01*
X107095045Y39179288D01*
X106653367Y38996791D01*
X106292476Y38636529D01*
X106096923Y38165584D01*
X106096478Y37655653D01*
X106291209Y37184367D01*
X106651471Y36823476D01*
X107095045Y36639288D01*
X106653367Y36456791D01*
X106292476Y36096529D01*
X106096923Y35625584D01*
X106096478Y35115653D01*
X106291209Y34644367D01*
X106651471Y34283476D01*
X107095045Y34099288D01*
X106653367Y33916791D01*
X106292476Y33556529D01*
X106096923Y33085584D01*
X106096478Y32575653D01*
X106291209Y32104367D01*
X106651471Y31743476D01*
X107122416Y31547923D01*
X107632347Y31547478D01*
X108103633Y31742209D01*
X108464524Y32102471D01*
X108660077Y32573416D01*
X108660522Y33083347D01*
X108465791Y33554633D01*
X108105529Y33915524D01*
X107661955Y34099712D01*
X108103633Y34282209D01*
X108464524Y34642471D01*
X108660077Y35113416D01*
X108660522Y35623347D01*
X108465791Y36094633D01*
X108105529Y36455524D01*
X107661955Y36639712D01*
X108103633Y36822209D01*
X108464524Y37182471D01*
X108471097Y37198300D01*
X110807500Y37198300D01*
X111079665Y37252437D01*
X111310394Y37406606D01*
X113151894Y39248105D01*
X113306063Y39478835D01*
X113315045Y39523990D01*
X113360200Y39751000D01*
X113360200Y46291500D01*
X113360323Y46432346D01*
X113252277Y46693836D01*
X113052388Y46894074D01*
X112791087Y47002576D01*
X112508154Y47002823D01*
X112246664Y46894777D01*
X112046426Y46694888D01*
X111937924Y46433587D01*
X111937677Y46150654D01*
X111937800Y46150356D01*
X111937800Y40045589D01*
X110512912Y38620700D01*
X108471548Y38620700D01*
X108465791Y38634633D01*
X108105529Y38995524D01*
X107661955Y39179712D01*
X108103633Y39362209D01*
X108464524Y39722471D01*
X108660077Y40193416D01*
X108660522Y40703347D01*
X108465791Y41174633D01*
X108105529Y41535524D01*
X107661955Y41719712D01*
X108103633Y41902209D01*
X108464524Y42262471D01*
X108660077Y42733416D01*
X108660522Y43243347D01*
X108465791Y43714633D01*
X108105529Y44075524D01*
X107661955Y44259712D01*
X108103633Y44442209D01*
X108464524Y44802471D01*
X108660077Y45273416D01*
X108660098Y45297310D01*
X110911588Y47548800D01*
X114825611Y47548800D01*
X114956019Y47353631D01*
X115371864Y47075771D01*
X115803065Y46990000D01*
X115371864Y46904229D01*
X114956019Y46626369D01*
X114678159Y46210524D01*
X114580588Y45720000D01*
X114678159Y45229476D01*
X114956019Y44813631D01*
X115371864Y44535771D01*
X115803065Y44450000D01*
X115371864Y44364229D01*
X114956019Y44086369D01*
X114678159Y43670524D01*
X114580588Y43180000D01*
X114678159Y42689476D01*
X114956019Y42273631D01*
X115371864Y41995771D01*
X115803065Y41910000D01*
X115371864Y41824229D01*
X114956019Y41546369D01*
X114678159Y41130524D01*
X114580588Y40640000D01*
X114678159Y40149476D01*
X114956019Y39733631D01*
X115371864Y39455771D01*
X115701216Y39390259D01*
X115037500Y39390259D01*
X114877485Y39360150D01*
X114730520Y39265581D01*
X114631927Y39121285D01*
X114597241Y38950000D01*
X114597241Y38153462D01*
X112500325Y36105311D01*
X112497142Y36100667D01*
X112492461Y36097539D01*
X112393603Y35949588D01*
X112293029Y35802835D01*
X112291866Y35797327D01*
X112288738Y35792646D01*
X112254026Y35618139D01*
X112217265Y35444056D01*
X112218298Y35438522D01*
X112217200Y35433000D01*
X112217200Y17513300D01*
X108663810Y17513300D01*
X108638650Y17647015D01*
X108544081Y17793980D01*
X108399785Y17892573D01*
X108228500Y17927259D01*
X107564784Y17927259D01*
X107894136Y17992771D01*
X108309981Y18270631D01*
X108587841Y18686476D01*
X108685412Y19177000D01*
X108587841Y19667524D01*
X108309981Y20083369D01*
X107894136Y20361229D01*
X107403612Y20458800D01*
X107353388Y20458800D01*
X106862864Y20361229D01*
X106447019Y20083369D01*
X106169159Y19667524D01*
X106071588Y19177000D01*
X106169159Y18686476D01*
X106447019Y18270631D01*
X106862864Y17992771D01*
X107192216Y17927259D01*
X106528500Y17927259D01*
X106368485Y17897150D01*
X106221520Y17802581D01*
X106122927Y17658285D01*
X106088241Y17487000D01*
X106088241Y15787000D01*
X106118350Y15626985D01*
X106212919Y15480020D01*
X106357215Y15381427D01*
X106528500Y15346741D01*
X108228500Y15346741D01*
X108388515Y15376850D01*
X108535480Y15471419D01*
X108634073Y15615715D01*
X108637715Y15633700D01*
X114614138Y15633700D01*
X114627350Y15563485D01*
X114721919Y15416520D01*
X114866215Y15317927D01*
X115037500Y15283241D01*
X116737500Y15283241D01*
X116897515Y15313350D01*
X117044480Y15407919D01*
X117143073Y15552215D01*
X117159574Y15633700D01*
X138430000Y15633700D01*
X138789646Y15705238D01*
X139094539Y15908961D01*
X139136778Y15951200D01*
X154947552Y15951200D01*
X155313364Y15706771D01*
X155803888Y15609200D01*
X155854112Y15609200D01*
X156344636Y15706771D01*
X156760481Y15984631D01*
X157038341Y16400476D01*
X157135912Y16891000D01*
X157038341Y17381524D01*
X156760481Y17797369D01*
X156344636Y18075229D01*
X156015284Y18140741D01*
X156679000Y18140741D01*
X156839015Y18170850D01*
X156985980Y18265419D01*
X157084573Y18409715D01*
X157119259Y18581000D01*
X157119259Y20281000D01*
X157089150Y20441015D01*
X156994581Y20587980D01*
X156850285Y20686573D01*
X156679000Y20721259D01*
X154979000Y20721259D01*
X154818985Y20691150D01*
X154672020Y20596581D01*
X154573427Y20452285D01*
X154538741Y20281000D01*
X154538741Y18581000D01*
X154568850Y18420985D01*
X154663419Y18274020D01*
X154807715Y18175427D01*
X154979000Y18140741D01*
X155642716Y18140741D01*
X155313364Y18075229D01*
X154947552Y17830800D01*
X139369800Y17830800D01*
X139369800Y29206638D01*
X139440015Y29219850D01*
X139586980Y29314419D01*
X139685573Y29458715D01*
X139720259Y29630000D01*
X139720259Y31330000D01*
X139690150Y31490015D01*
X139595581Y31636980D01*
X139451285Y31735573D01*
X139280000Y31770259D01*
X139141200Y31770259D01*
X139141200Y31988812D01*
X143301694Y36149306D01*
X143455863Y36380035D01*
X143465040Y36426171D01*
X143510000Y36652200D01*
X143510000Y43568850D01*
X150878500Y43568850D01*
X150878500Y42403715D01*
X150936504Y42263681D01*
X151043680Y42156504D01*
X151183714Y42098500D01*
X154378850Y42098500D01*
X154474100Y42193750D01*
X154474100Y43664100D01*
X154524900Y43664100D01*
X154524900Y42193750D01*
X154620150Y42098500D01*
X157815286Y42098500D01*
X157955320Y42156504D01*
X158062496Y42263681D01*
X158120500Y42403715D01*
X158120500Y43568850D01*
X158025250Y43664100D01*
X154524900Y43664100D01*
X154474100Y43664100D01*
X150973750Y43664100D01*
X150878500Y43568850D01*
X143510000Y43568850D01*
X143510000Y44069000D01*
X143474633Y44246800D01*
X143455863Y44341165D01*
X143301694Y44571894D01*
X142898303Y44975285D01*
X150878500Y44975285D01*
X150878500Y43810150D01*
X150973750Y43714900D01*
X154474100Y43714900D01*
X154474100Y45185250D01*
X154524900Y45185250D01*
X154524900Y43714900D01*
X158025250Y43714900D01*
X158120500Y43810150D01*
X158120500Y44975285D01*
X158062496Y45115319D01*
X157955320Y45222496D01*
X157815286Y45280500D01*
X154620150Y45280500D01*
X154524900Y45185250D01*
X154474100Y45185250D01*
X154378850Y45280500D01*
X151183714Y45280500D01*
X151043680Y45222496D01*
X150936504Y45115319D01*
X150878500Y44975285D01*
X142898303Y44975285D01*
X142412694Y45460894D01*
X142181965Y45615063D01*
X141909800Y45669200D01*
X140629589Y45669200D01*
X138742394Y47556394D01*
X138642888Y47656074D01*
X138511666Y47710562D01*
X138511665Y47710563D01*
X138511664Y47710563D01*
X138381587Y47764576D01*
X138098654Y47764823D01*
X137837164Y47656777D01*
X137636926Y47456888D01*
X137528424Y47195587D01*
X137528177Y46912654D01*
X137636223Y46651164D01*
X137836112Y46450926D01*
X137836409Y46450802D01*
X139832106Y44455105D01*
X140025906Y44325613D01*
X140062836Y44300937D01*
X140335000Y44246800D01*
X141615212Y44246800D01*
X142087600Y43774412D01*
X142087600Y36946788D01*
X137927106Y32786294D01*
X137772937Y32555565D01*
X137772937Y32555564D01*
X137718800Y32283400D01*
X137718800Y31770259D01*
X137580000Y31770259D01*
X137419985Y31740150D01*
X137273020Y31645581D01*
X137174427Y31501285D01*
X137139741Y31330000D01*
X137139741Y30666284D01*
X137074229Y30995636D01*
X136796369Y31411481D01*
X136380524Y31689341D01*
X135890000Y31786912D01*
X135399476Y31689341D01*
X134983631Y31411481D01*
X134705771Y30995636D01*
X134620000Y30564435D01*
X134534229Y30995636D01*
X134256369Y31411481D01*
X133840524Y31689341D01*
X133350000Y31786912D01*
X132859476Y31689341D01*
X132443631Y31411481D01*
X132165771Y30995636D01*
X132080000Y30564435D01*
X131994229Y30995636D01*
X131716369Y31411481D01*
X131300524Y31689341D01*
X130810000Y31786912D01*
X130319476Y31689341D01*
X129903631Y31411481D01*
X129625771Y30995636D01*
X129540000Y30564435D01*
X129454229Y30995636D01*
X129176369Y31411481D01*
X128760524Y31689341D01*
X128270000Y31786912D01*
X127779476Y31689341D01*
X127363631Y31411481D01*
X127085771Y30995636D01*
X126988200Y30505112D01*
X126988200Y30454888D01*
X127085771Y29964364D01*
X127363631Y29548519D01*
X127779476Y29270659D01*
X128270000Y29173088D01*
X128760524Y29270659D01*
X129176369Y29548519D01*
X129454229Y29964364D01*
X129540000Y30395565D01*
X129625771Y29964364D01*
X129903631Y29548519D01*
X130319476Y29270659D01*
X130810000Y29173088D01*
X131300524Y29270659D01*
X131716369Y29548519D01*
X131994229Y29964364D01*
X132080000Y30395565D01*
X132165771Y29964364D01*
X132443631Y29548519D01*
X132859476Y29270659D01*
X133350000Y29173088D01*
X133840524Y29270659D01*
X134256369Y29548519D01*
X134534229Y29964364D01*
X134620000Y30395565D01*
X134705771Y29964364D01*
X134983631Y29548519D01*
X135399476Y29270659D01*
X135890000Y29173088D01*
X136380524Y29270659D01*
X136796369Y29548519D01*
X137074229Y29964364D01*
X137139741Y30293716D01*
X137139741Y29630000D01*
X137169850Y29469985D01*
X137264419Y29323020D01*
X137408715Y29224427D01*
X137490200Y29207926D01*
X137490200Y17513300D01*
X117160862Y17513300D01*
X117147650Y17583515D01*
X117053081Y17730480D01*
X116908785Y17829073D01*
X116737500Y17863759D01*
X116073784Y17863759D01*
X116403136Y17929271D01*
X116818981Y18207131D01*
X117096841Y18622976D01*
X117194412Y19113500D01*
X117096841Y19604024D01*
X116818981Y20019869D01*
X116403136Y20297729D01*
X115971935Y20383500D01*
X116403136Y20469271D01*
X116818981Y20747131D01*
X117096841Y21162976D01*
X117194412Y21653500D01*
X117096841Y22144024D01*
X116818981Y22559869D01*
X116403136Y22837729D01*
X115971935Y22923500D01*
X116403136Y23009271D01*
X116818981Y23287131D01*
X117096841Y23702976D01*
X117194412Y24193500D01*
X117096841Y24684024D01*
X116818981Y25099869D01*
X116403136Y25377729D01*
X115971935Y25463500D01*
X116403136Y25549271D01*
X116818981Y25827131D01*
X117096841Y26242976D01*
X117194412Y26733500D01*
X117096841Y27224024D01*
X116818981Y27639869D01*
X116403136Y27917729D01*
X115971935Y28003500D01*
X116403136Y28089271D01*
X116818981Y28367131D01*
X117096841Y28782976D01*
X117194412Y29273500D01*
X117096841Y29764024D01*
X116818981Y30179869D01*
X116695491Y30262383D01*
X124518386Y30262383D01*
X124693893Y29815284D01*
X125027138Y29469382D01*
X125467387Y29277337D01*
X125512383Y29268388D01*
X125704600Y29344534D01*
X125704600Y30454600D01*
X125755400Y30454600D01*
X125755400Y29344534D01*
X125947617Y29268388D01*
X125992613Y29277337D01*
X126432862Y29469382D01*
X126766107Y29815284D01*
X126941614Y30262383D01*
X126865490Y30454600D01*
X125755400Y30454600D01*
X125704600Y30454600D01*
X124594510Y30454600D01*
X124518386Y30262383D01*
X116695491Y30262383D01*
X116403136Y30457729D01*
X115971935Y30543500D01*
X116403136Y30629271D01*
X116505422Y30697617D01*
X124518386Y30697617D01*
X124594510Y30505400D01*
X125704600Y30505400D01*
X125704600Y31615466D01*
X125755400Y31615466D01*
X125755400Y30505400D01*
X126865490Y30505400D01*
X126941614Y30697617D01*
X126766107Y31144716D01*
X126432862Y31490618D01*
X125992613Y31682663D01*
X125947617Y31691612D01*
X125755400Y31615466D01*
X125704600Y31615466D01*
X125512383Y31691612D01*
X125467387Y31682663D01*
X125027138Y31490618D01*
X124693893Y31144716D01*
X124518386Y30697617D01*
X116505422Y30697617D01*
X116818981Y30907131D01*
X117096841Y31322976D01*
X117194412Y31813500D01*
X117096841Y32304024D01*
X116818981Y32719869D01*
X116403136Y32997729D01*
X115912612Y33095300D01*
X115862388Y33095300D01*
X115371864Y32997729D01*
X114956019Y32719869D01*
X114678159Y32304024D01*
X114580588Y31813500D01*
X114678159Y31322976D01*
X114956019Y30907131D01*
X115371864Y30629271D01*
X115803065Y30543500D01*
X115371864Y30457729D01*
X114956019Y30179869D01*
X114678159Y29764024D01*
X114580588Y29273500D01*
X114678159Y28782976D01*
X114956019Y28367131D01*
X115371864Y28089271D01*
X115803065Y28003500D01*
X115371864Y27917729D01*
X114956019Y27639869D01*
X114678159Y27224024D01*
X114580588Y26733500D01*
X114678159Y26242976D01*
X114956019Y25827131D01*
X115371864Y25549271D01*
X115803065Y25463500D01*
X115371864Y25377729D01*
X114956019Y25099869D01*
X114678159Y24684024D01*
X114580588Y24193500D01*
X114678159Y23702976D01*
X114956019Y23287131D01*
X115371864Y23009271D01*
X115803065Y22923500D01*
X115371864Y22837729D01*
X114956019Y22559869D01*
X114678159Y22144024D01*
X114580588Y21653500D01*
X114678159Y21162976D01*
X114956019Y20747131D01*
X115371864Y20469271D01*
X115803065Y20383500D01*
X115371864Y20297729D01*
X114956019Y20019869D01*
X114678159Y19604024D01*
X114580588Y19113500D01*
X114678159Y18622976D01*
X114956019Y18207131D01*
X115371864Y17929271D01*
X115701216Y17863759D01*
X115037500Y17863759D01*
X114877485Y17833650D01*
X114730520Y17739081D01*
X114631927Y17594785D01*
X114615426Y17513300D01*
X114096800Y17513300D01*
X114096800Y34135883D01*
X114675888Y34135883D01*
X114684837Y34090887D01*
X114876882Y33650638D01*
X115222784Y33317393D01*
X115669883Y33141886D01*
X115862100Y33218010D01*
X115862100Y34328100D01*
X115912900Y34328100D01*
X115912900Y33218010D01*
X116105117Y33141886D01*
X116552216Y33317393D01*
X116898118Y33650638D01*
X117090163Y34090887D01*
X117099112Y34135883D01*
X117022966Y34328100D01*
X115912900Y34328100D01*
X115862100Y34328100D01*
X114752034Y34328100D01*
X114675888Y34135883D01*
X114096800Y34135883D01*
X114096800Y34571117D01*
X114675888Y34571117D01*
X114752034Y34378900D01*
X115862100Y34378900D01*
X115862100Y35488990D01*
X115912900Y35488990D01*
X115912900Y34378900D01*
X117022966Y34378900D01*
X117099112Y34571117D01*
X117090163Y34616113D01*
X116898118Y35056362D01*
X116552216Y35389607D01*
X116105117Y35565114D01*
X115912900Y35488990D01*
X115862100Y35488990D01*
X115669883Y35565114D01*
X115222784Y35389607D01*
X114876882Y35056362D01*
X114684837Y34616113D01*
X114675888Y34571117D01*
X114096800Y34571117D01*
X114096800Y35037230D01*
X115911514Y36809741D01*
X116737500Y36809741D01*
X116897515Y36839850D01*
X117044480Y36934419D01*
X117143073Y37078715D01*
X117177759Y37250000D01*
X117177759Y37388800D01*
X119316500Y37388800D01*
X119588665Y37442937D01*
X119819394Y37597106D01*
X124327894Y42105606D01*
X125280394Y43058105D01*
X125387299Y43218100D01*
X125434563Y43288836D01*
X125488700Y43561000D01*
X125488700Y47732596D01*
X125497546Y47818902D01*
X125488674Y47912796D01*
X125488823Y48083346D01*
X125479759Y48105282D01*
X125479759Y48202000D01*
X125449650Y48362015D01*
X125359958Y48501401D01*
X125396869Y48501369D01*
X125615576Y48282662D01*
X125599241Y48202000D01*
X125599241Y47302000D01*
X125629350Y47141985D01*
X125723919Y46995020D01*
X125730453Y46990556D01*
X125633927Y46849285D01*
X125599241Y46678000D01*
X125599241Y45778000D01*
X125629350Y45617985D01*
X125723919Y45471020D01*
X125730453Y45466556D01*
X125633927Y45325285D01*
X125599241Y45154000D01*
X125599241Y44254000D01*
X125629350Y44093985D01*
X125723919Y43947020D01*
X125868215Y43848427D01*
X126039500Y43813741D01*
X126539500Y43813741D01*
X126699515Y43843850D01*
X126846480Y43938419D01*
X126945073Y44082715D01*
X126979759Y44254000D01*
X126979759Y44528497D01*
X128411131Y45959869D01*
X128429059Y45986700D01*
X128532264Y46141156D01*
X128574800Y46355000D01*
X128574800Y50024154D01*
X139242677Y50024154D01*
X139350723Y49762664D01*
X139550612Y49562426D01*
X139811913Y49453924D01*
X140094846Y49453677D01*
X140356336Y49561723D01*
X140556574Y49761612D01*
X140665076Y50022913D01*
X140665323Y50305846D01*
X140557277Y50567336D01*
X140512800Y50611891D01*
X140512800Y51548154D01*
X141084177Y51548154D01*
X141192223Y51286664D01*
X141392112Y51086426D01*
X141653413Y50977924D01*
X141936346Y50977677D01*
X142197836Y51085723D01*
X142398074Y51285612D01*
X142404331Y51300679D01*
X143018264Y51970425D01*
X143082400Y52076074D01*
X143151063Y52178835D01*
X143154124Y52194222D01*
X143162265Y52207633D01*
X143180944Y52328850D01*
X150878500Y52328850D01*
X150878500Y51163715D01*
X150936504Y51023681D01*
X151043680Y50916504D01*
X151183714Y50858500D01*
X154378850Y50858500D01*
X154474100Y50953750D01*
X154474100Y52424100D01*
X154524900Y52424100D01*
X154524900Y50953750D01*
X154620150Y50858500D01*
X157815286Y50858500D01*
X157955320Y50916504D01*
X158062496Y51023681D01*
X158120500Y51163715D01*
X158120500Y52328850D01*
X158025250Y52424100D01*
X154524900Y52424100D01*
X154474100Y52424100D01*
X150973750Y52424100D01*
X150878500Y52328850D01*
X143180944Y52328850D01*
X143181089Y52329790D01*
X143205199Y52451000D01*
X143202139Y52466386D01*
X143204528Y52481892D01*
X143201311Y52495049D01*
X144286131Y53579868D01*
X144389977Y53735285D01*
X150878500Y53735285D01*
X150878500Y52570150D01*
X150973750Y52474900D01*
X154474100Y52474900D01*
X154474100Y53945250D01*
X154524900Y53945250D01*
X154524900Y52474900D01*
X158025250Y52474900D01*
X158120500Y52570150D01*
X158120500Y53735285D01*
X158062496Y53875319D01*
X157955320Y53982496D01*
X157815286Y54040500D01*
X154620150Y54040500D01*
X154524900Y53945250D01*
X154474100Y53945250D01*
X154378850Y54040500D01*
X151183714Y54040500D01*
X151043680Y53982496D01*
X150936504Y53875319D01*
X150878500Y53735285D01*
X144389977Y53735285D01*
X144390513Y53736087D01*
X144407264Y53761156D01*
X144449800Y53975000D01*
X144449800Y56346445D01*
X144481633Y56359598D01*
X144743981Y56621489D01*
X144886138Y56963840D01*
X144886461Y57334533D01*
X144744902Y57677133D01*
X144483011Y57939481D01*
X144140660Y58081638D01*
X143769967Y58081961D01*
X143427367Y57940402D01*
X143165019Y57678511D01*
X143022862Y57336160D01*
X143022539Y56965467D01*
X143164098Y56622867D01*
X143332200Y56454472D01*
X143332200Y54206463D01*
X142236772Y53111034D01*
X142221835Y53108063D01*
X142208789Y53099346D01*
X142193551Y53095620D01*
X142093873Y53022561D01*
X141991106Y52953894D01*
X141864106Y52826894D01*
X141838097Y52787968D01*
X141281883Y52181190D01*
X141192926Y52092388D01*
X141084424Y51831087D01*
X141084177Y51548154D01*
X140512800Y51548154D01*
X140512800Y54759538D01*
X141971534Y56218272D01*
X142239033Y56218039D01*
X142581633Y56359598D01*
X142843981Y56621489D01*
X142986138Y56963840D01*
X142986461Y57334533D01*
X142844902Y57677133D01*
X142583011Y57939481D01*
X142240660Y58081638D01*
X141869967Y58081961D01*
X141527367Y57940402D01*
X141265019Y57678511D01*
X141122862Y57336160D01*
X141122539Y56965467D01*
X141127119Y56954381D01*
X139558869Y55386131D01*
X139437736Y55204844D01*
X139395200Y54991000D01*
X139395200Y50612086D01*
X139351426Y50568388D01*
X139242924Y50307087D01*
X139242677Y50024154D01*
X128574800Y50024154D01*
X128574800Y50289414D01*
X128618574Y50333112D01*
X128727076Y50594413D01*
X128727323Y50877346D01*
X128619277Y51138836D01*
X128419388Y51339074D01*
X128158087Y51447576D01*
X127875154Y51447823D01*
X127613664Y51339777D01*
X127413426Y51139888D01*
X127304924Y50878587D01*
X127304677Y50595654D01*
X127412723Y50334164D01*
X127457200Y50289609D01*
X127457200Y49926562D01*
X126822269Y50561493D01*
X126822323Y50623346D01*
X126714277Y50884836D01*
X126514388Y51085074D01*
X126253087Y51193576D01*
X125970154Y51193823D01*
X125708664Y51085777D01*
X125508426Y50885888D01*
X125399924Y50624587D01*
X125399677Y50341654D01*
X125507723Y50080164D01*
X125696571Y49890987D01*
X125618087Y49923576D01*
X125335154Y49923823D01*
X125073664Y49815777D01*
X124873426Y49615888D01*
X124764924Y49354587D01*
X124764677Y49071654D01*
X124872723Y48810164D01*
X125040547Y48642047D01*
X125039500Y48642259D01*
X124946841Y48642259D01*
X124919587Y48653576D01*
X124636654Y48653823D01*
X124608667Y48642259D01*
X124539500Y48642259D01*
X124379485Y48612150D01*
X124232520Y48517581D01*
X124133927Y48373285D01*
X124099241Y48202000D01*
X124099241Y48163619D01*
X124066424Y48084587D01*
X124066177Y47801654D01*
X124066300Y47801356D01*
X124066300Y43855589D01*
X123322106Y43111394D01*
X119021912Y38811200D01*
X117177759Y38811200D01*
X117177759Y38950000D01*
X117147650Y39110015D01*
X117053081Y39256980D01*
X116908785Y39355573D01*
X116737500Y39390259D01*
X116073784Y39390259D01*
X116403136Y39455771D01*
X116818981Y39733631D01*
X117096841Y40149476D01*
X117194412Y40640000D01*
X117096841Y41130524D01*
X116818981Y41546369D01*
X116403136Y41824229D01*
X115971935Y41910000D01*
X116403136Y41995771D01*
X116818981Y42273631D01*
X116966361Y42494200D01*
X117741977Y42494200D01*
X117746919Y42486520D01*
X117891215Y42387927D01*
X118062500Y42353241D01*
X118562500Y42353241D01*
X118722515Y42383350D01*
X118869480Y42477919D01*
X118968073Y42622215D01*
X119002759Y42793500D01*
X119002759Y43122850D01*
X119181500Y43122850D01*
X119181500Y42717715D01*
X119239504Y42577681D01*
X119346680Y42470504D01*
X119486714Y42412500D01*
X119691850Y42412500D01*
X119787100Y42507750D01*
X119787100Y43218100D01*
X119837900Y43218100D01*
X119837900Y42507750D01*
X119933150Y42412500D01*
X120138286Y42412500D01*
X120278320Y42470504D01*
X120385496Y42577681D01*
X120443500Y42717715D01*
X120443500Y43122850D01*
X120348250Y43218100D01*
X119837900Y43218100D01*
X119787100Y43218100D01*
X119276750Y43218100D01*
X119181500Y43122850D01*
X119002759Y43122850D01*
X119002759Y43693500D01*
X118988500Y43769285D01*
X119181500Y43769285D01*
X119181500Y43364150D01*
X119276750Y43268900D01*
X119787100Y43268900D01*
X119787100Y43979250D01*
X119837900Y43979250D01*
X119837900Y43268900D01*
X120348250Y43268900D01*
X120443500Y43364150D01*
X120443500Y43769285D01*
X120385496Y43909319D01*
X120278320Y44016496D01*
X120138286Y44074500D01*
X119933150Y44074500D01*
X119837900Y43979250D01*
X119787100Y43979250D01*
X119691850Y44074500D01*
X119486714Y44074500D01*
X119346680Y44016496D01*
X119239504Y43909319D01*
X119181500Y43769285D01*
X118988500Y43769285D01*
X118972650Y43853515D01*
X118878081Y44000480D01*
X118733785Y44099073D01*
X118562500Y44133759D01*
X118062500Y44133759D01*
X117902485Y44103650D01*
X117755520Y44009081D01*
X117657621Y43865800D01*
X116966361Y43865800D01*
X116818981Y44086369D01*
X116403136Y44364229D01*
X115971935Y44450000D01*
X116403136Y44535771D01*
X116818981Y44813631D01*
X117096841Y45229476D01*
X117194412Y45720000D01*
X117096841Y46210524D01*
X116818981Y46626369D01*
X116403136Y46904229D01*
X115971935Y46990000D01*
X116403136Y47075771D01*
X116818981Y47353631D01*
X117051220Y47701200D01*
X117642713Y47701200D01*
X117652350Y47649985D01*
X117746919Y47503020D01*
X117891215Y47404427D01*
X118062500Y47369741D01*
X118562500Y47369741D01*
X118722515Y47399850D01*
X118869480Y47494419D01*
X118968073Y47638715D01*
X119002759Y47810000D01*
X119002759Y48139350D01*
X119181500Y48139350D01*
X119181500Y47734215D01*
X119239504Y47594181D01*
X119346680Y47487004D01*
X119486714Y47429000D01*
X119691850Y47429000D01*
X119787100Y47524250D01*
X119787100Y48234600D01*
X119837900Y48234600D01*
X119837900Y47524250D01*
X119933150Y47429000D01*
X120138286Y47429000D01*
X120278320Y47487004D01*
X120385496Y47594181D01*
X120443500Y47734215D01*
X120443500Y48139350D01*
X120348250Y48234600D01*
X119837900Y48234600D01*
X119787100Y48234600D01*
X119276750Y48234600D01*
X119181500Y48139350D01*
X119002759Y48139350D01*
X119002759Y48710000D01*
X118988500Y48785785D01*
X119181500Y48785785D01*
X119181500Y48380650D01*
X119276750Y48285400D01*
X119787100Y48285400D01*
X119787100Y48995750D01*
X119837900Y48995750D01*
X119837900Y48285400D01*
X120348250Y48285400D01*
X120443500Y48380650D01*
X120443500Y48785785D01*
X120385496Y48925819D01*
X120278320Y49032996D01*
X120138286Y49091000D01*
X119933150Y49091000D01*
X119837900Y48995750D01*
X119787100Y48995750D01*
X119691850Y49091000D01*
X119486714Y49091000D01*
X119346680Y49032996D01*
X119239504Y48925819D01*
X119181500Y48785785D01*
X118988500Y48785785D01*
X118972650Y48870015D01*
X118878081Y49016980D01*
X118733785Y49115573D01*
X118562500Y49150259D01*
X118062500Y49150259D01*
X117902485Y49120150D01*
X117755520Y49025581D01*
X117656927Y48881285D01*
X117644274Y48818800D01*
X117051220Y48818800D01*
X116818981Y49166369D01*
X116403136Y49444229D01*
X115971935Y49530000D01*
X116403136Y49615771D01*
X116818981Y49893631D01*
X117096841Y50309476D01*
X117194412Y50800000D01*
X117096841Y51290524D01*
X116818981Y51706369D01*
X116403136Y51984229D01*
X115971935Y52070000D01*
X116403136Y52155771D01*
X116818981Y52433631D01*
X117096841Y52849476D01*
X117194412Y53340000D01*
X117096841Y53830524D01*
X116818981Y54246369D01*
X116403136Y54524229D01*
X115971935Y54610000D01*
X116403136Y54695771D01*
X116818981Y54973631D01*
X117096841Y55389476D01*
X117194412Y55880000D01*
X117096841Y56370524D01*
X117009557Y56501154D01*
X123939177Y56501154D01*
X124047223Y56239664D01*
X124247112Y56039426D01*
X124508413Y55930924D01*
X124571369Y55930869D01*
X127493869Y53008368D01*
X127675157Y52887235D01*
X127889000Y52844700D01*
X132801038Y52844700D01*
X134162731Y51483007D01*
X134162677Y51421154D01*
X134270723Y51159664D01*
X134470612Y50959426D01*
X134731913Y50850924D01*
X135014846Y50850677D01*
X135276336Y50958723D01*
X135476574Y51158612D01*
X135585076Y51419913D01*
X135585323Y51702846D01*
X135477277Y51964336D01*
X135277388Y52164574D01*
X135016087Y52273076D01*
X134953131Y52273131D01*
X133773108Y53453154D01*
X135242177Y53453154D01*
X135350223Y53191664D01*
X135550112Y52991426D01*
X135681334Y52936938D01*
X135681335Y52936937D01*
X135681336Y52936937D01*
X135811413Y52882924D01*
X136094346Y52882677D01*
X136355836Y52990723D01*
X136556074Y53190612D01*
X136556197Y53190909D01*
X137218395Y53853106D01*
X137218397Y53853109D01*
X137472394Y54107105D01*
X137626563Y54337835D01*
X137645677Y54433927D01*
X137646967Y54440412D01*
X137647262Y54440854D01*
X137718800Y54800500D01*
X137718800Y63663383D01*
X154617388Y63663383D01*
X154626337Y63618387D01*
X154818382Y63178138D01*
X155164284Y62844893D01*
X155611383Y62669386D01*
X155803600Y62745510D01*
X155803600Y63855600D01*
X155854400Y63855600D01*
X155854400Y62745510D01*
X156046617Y62669386D01*
X156493716Y62844893D01*
X156839618Y63178138D01*
X157031663Y63618387D01*
X157040612Y63663383D01*
X156964466Y63855600D01*
X155854400Y63855600D01*
X155803600Y63855600D01*
X154693534Y63855600D01*
X154617388Y63663383D01*
X137718800Y63663383D01*
X137718800Y64098617D01*
X154617388Y64098617D01*
X154693534Y63906400D01*
X155803600Y63906400D01*
X155803600Y65016490D01*
X155854400Y65016490D01*
X155854400Y63906400D01*
X156964466Y63906400D01*
X157040612Y64098617D01*
X157031663Y64143613D01*
X156839618Y64583862D01*
X156493716Y64917107D01*
X156046617Y65092614D01*
X155854400Y65016490D01*
X155803600Y65016490D01*
X155611383Y65092614D01*
X155164284Y64917107D01*
X154818382Y64583862D01*
X154626337Y64143613D01*
X154617388Y64098617D01*
X137718800Y64098617D01*
X137718800Y65976500D01*
X137654383Y66300350D01*
X154598000Y66300350D01*
X154598000Y65495215D01*
X154656004Y65355181D01*
X154763180Y65248004D01*
X154903214Y65190000D01*
X155708350Y65190000D01*
X155803600Y65285250D01*
X155803600Y66395600D01*
X155854400Y66395600D01*
X155854400Y65285250D01*
X155949650Y65190000D01*
X156754786Y65190000D01*
X156894820Y65248004D01*
X157001996Y65355181D01*
X157060000Y65495215D01*
X157060000Y66300350D01*
X156964750Y66395600D01*
X155854400Y66395600D01*
X155803600Y66395600D01*
X154693250Y66395600D01*
X154598000Y66300350D01*
X137654383Y66300350D01*
X137647262Y66336146D01*
X137443539Y66641039D01*
X137138646Y66844762D01*
X136779000Y66916300D01*
X136419354Y66844762D01*
X136114461Y66641039D01*
X135910738Y66336146D01*
X135839200Y65976500D01*
X135839200Y54800500D01*
X135891464Y54537752D01*
X135450758Y54097046D01*
X135350926Y53997388D01*
X135242424Y53736087D01*
X135242177Y53453154D01*
X133773108Y53453154D01*
X133427631Y53798631D01*
X133346104Y53853106D01*
X133246344Y53919764D01*
X133032500Y53962300D01*
X128120463Y53962300D01*
X125567763Y56515000D01*
X126137588Y56515000D01*
X126235159Y56024476D01*
X126513019Y55608631D01*
X126928864Y55330771D01*
X127419388Y55233200D01*
X127469612Y55233200D01*
X127960136Y55330771D01*
X128375981Y55608631D01*
X128653841Y56024476D01*
X128751412Y56515000D01*
X128653841Y57005524D01*
X128375981Y57421369D01*
X127960136Y57699229D01*
X127469612Y57796800D01*
X127419388Y57796800D01*
X126928864Y57699229D01*
X126513019Y57421369D01*
X126235159Y57005524D01*
X126137588Y56515000D01*
X125567763Y56515000D01*
X125361769Y56720993D01*
X125361823Y56782846D01*
X125253777Y57044336D01*
X125053888Y57244574D01*
X124792587Y57353076D01*
X124509654Y57353323D01*
X124248164Y57245277D01*
X124047926Y57045388D01*
X123939424Y56784087D01*
X123939177Y56501154D01*
X117009557Y56501154D01*
X116818981Y56786369D01*
X116403136Y57064229D01*
X115971935Y57150000D01*
X116403136Y57235771D01*
X116818981Y57513631D01*
X117096841Y57929476D01*
X117194412Y58420000D01*
X117096841Y58910524D01*
X117080921Y58934350D01*
X126213500Y58934350D01*
X126213500Y58129215D01*
X126271504Y57989181D01*
X126378680Y57882004D01*
X126518714Y57824000D01*
X127323850Y57824000D01*
X127419100Y57919250D01*
X127419100Y59029600D01*
X127469900Y59029600D01*
X127469900Y57919250D01*
X127565150Y57824000D01*
X128370286Y57824000D01*
X128510320Y57882004D01*
X128617496Y57989181D01*
X128675500Y58129215D01*
X128675500Y58934350D01*
X128580250Y59029600D01*
X127469900Y59029600D01*
X127419100Y59029600D01*
X126308750Y59029600D01*
X126213500Y58934350D01*
X117080921Y58934350D01*
X116818981Y59326369D01*
X116403136Y59604229D01*
X115912612Y59701800D01*
X115862388Y59701800D01*
X115371864Y59604229D01*
X114956019Y59326369D01*
X114678159Y58910524D01*
X114580588Y58420000D01*
X114678159Y57929476D01*
X114956019Y57513631D01*
X115371864Y57235771D01*
X115803065Y57150000D01*
X115371864Y57064229D01*
X114956019Y56786369D01*
X114678159Y56370524D01*
X114580588Y55880000D01*
X114678159Y55389476D01*
X114956019Y54973631D01*
X115371864Y54695771D01*
X115803065Y54610000D01*
X115371864Y54524229D01*
X114956019Y54246369D01*
X114678159Y53830524D01*
X114580588Y53340000D01*
X114678159Y52849476D01*
X114956019Y52433631D01*
X115371864Y52155771D01*
X115803065Y52070000D01*
X115371864Y51984229D01*
X114956019Y51706369D01*
X114825611Y51511200D01*
X110617375Y51511200D01*
X110588150Y51666515D01*
X110493581Y51813480D01*
X110349285Y51912073D01*
X110178000Y51946759D01*
X109278000Y51946759D01*
X109117985Y51916650D01*
X108971020Y51822081D01*
X108872427Y51677785D01*
X108837741Y51506500D01*
X108837741Y51006500D01*
X108867850Y50846485D01*
X108917679Y50769047D01*
X108660215Y50511583D01*
X108660522Y50863347D01*
X108465791Y51334633D01*
X108105529Y51695524D01*
X107661955Y51879712D01*
X108103633Y52062209D01*
X108464524Y52422471D01*
X108660077Y52893416D01*
X108660522Y53403347D01*
X108591684Y53569948D01*
X108917654Y53243978D01*
X108872427Y53177785D01*
X108837741Y53006500D01*
X108837741Y52506500D01*
X108867850Y52346485D01*
X108962419Y52199520D01*
X109106715Y52100927D01*
X109278000Y52066241D01*
X110178000Y52066241D01*
X110338015Y52096350D01*
X110484980Y52190919D01*
X110583573Y52335215D01*
X110618259Y52506500D01*
X110618259Y53006500D01*
X110588150Y53166515D01*
X110493581Y53313480D01*
X110413800Y53367992D01*
X110413800Y53403500D01*
X110361597Y53665944D01*
X110212934Y53888434D01*
X108668759Y55432609D01*
X108668759Y56539500D01*
X108638650Y56699515D01*
X108544081Y56846480D01*
X108399785Y56945073D01*
X108318300Y56961574D01*
X108318300Y58983222D01*
X110077461Y60742383D01*
X114675888Y60742383D01*
X114684837Y60697387D01*
X114876882Y60257138D01*
X115222784Y59923893D01*
X115669883Y59748386D01*
X115862100Y59824510D01*
X115862100Y60934600D01*
X115912900Y60934600D01*
X115912900Y59824510D01*
X116105117Y59748386D01*
X116552216Y59923893D01*
X116611268Y59980785D01*
X126213500Y59980785D01*
X126213500Y59175650D01*
X126308750Y59080400D01*
X127419100Y59080400D01*
X127419100Y60190750D01*
X127469900Y60190750D01*
X127469900Y59080400D01*
X128580250Y59080400D01*
X128675500Y59175650D01*
X128675500Y59980785D01*
X128617496Y60120819D01*
X128510320Y60227996D01*
X128370286Y60286000D01*
X127565150Y60286000D01*
X127469900Y60190750D01*
X127419100Y60190750D01*
X127323850Y60286000D01*
X126518714Y60286000D01*
X126378680Y60227996D01*
X126271504Y60120819D01*
X126213500Y59980785D01*
X116611268Y59980785D01*
X116898118Y60257138D01*
X117090163Y60697387D01*
X117099112Y60742383D01*
X117022966Y60934600D01*
X115912900Y60934600D01*
X115862100Y60934600D01*
X114752034Y60934600D01*
X114675888Y60742383D01*
X110077461Y60742383D01*
X110512695Y61177617D01*
X114675888Y61177617D01*
X114752034Y60985400D01*
X115862100Y60985400D01*
X115862100Y62095490D01*
X115912900Y62095490D01*
X115912900Y60985400D01*
X117022966Y60985400D01*
X117099112Y61177617D01*
X117090163Y61222613D01*
X116898118Y61662862D01*
X116552216Y61996107D01*
X116105117Y62171614D01*
X115912900Y62095490D01*
X115862100Y62095490D01*
X115669883Y62171614D01*
X115222784Y61996107D01*
X114876882Y61662862D01*
X114684837Y61222613D01*
X114675888Y61177617D01*
X110512695Y61177617D01*
X114647039Y65311961D01*
X114850762Y65616854D01*
X114922300Y65976500D01*
X114850762Y66336146D01*
X114647039Y66641039D01*
X114342146Y66844762D01*
X113982500Y66916300D01*
X113622854Y66844762D01*
X113317961Y66641039D01*
X111497722Y64820800D01*
X103370448Y64820800D01*
X103004636Y65065229D01*
X102675284Y65130741D01*
X103339000Y65130741D01*
X103499015Y65160850D01*
X103645980Y65255419D01*
X103744573Y65399715D01*
X103779259Y65571000D01*
X103779259Y67271000D01*
X103765000Y67346785D01*
X154598000Y67346785D01*
X154598000Y66541650D01*
X154693250Y66446400D01*
X155803600Y66446400D01*
X155803600Y67556750D01*
X155854400Y67556750D01*
X155854400Y66446400D01*
X156964750Y66446400D01*
X157060000Y66541650D01*
X157060000Y67346785D01*
X157001996Y67486819D01*
X156894820Y67593996D01*
X156754786Y67652000D01*
X155949650Y67652000D01*
X155854400Y67556750D01*
X155803600Y67556750D01*
X155708350Y67652000D01*
X154903214Y67652000D01*
X154763180Y67593996D01*
X154656004Y67486819D01*
X154598000Y67346785D01*
X103765000Y67346785D01*
X103749150Y67431015D01*
X103654581Y67577980D01*
X103510285Y67676573D01*
X103339000Y67711259D01*
X101639000Y67711259D01*
X101478985Y67681150D01*
X101332020Y67586581D01*
X101233427Y67442285D01*
X101198741Y67271000D01*
X101198741Y65571000D01*
X101228850Y65410985D01*
X101323419Y65264020D01*
X101467715Y65165427D01*
X101639000Y65130741D01*
X102302716Y65130741D01*
X101973364Y65065229D01*
X101557519Y64787369D01*
X101279659Y64371524D01*
X101182088Y63881000D01*
X100076000Y63881000D01*
X100076000Y68834000D01*
X158242000Y68834000D01*
X158242000Y14478000D01*
X158242000Y14478000D01*
G37*
X158242000Y14478000D02*
X100076000Y14478000D01*
X100076000Y16673383D01*
X101277388Y16673383D01*
X101286337Y16628387D01*
X101478382Y16188138D01*
X101824284Y15854893D01*
X102271383Y15679386D01*
X102463600Y15755510D01*
X102463600Y16865600D01*
X102514400Y16865600D01*
X102514400Y15755510D01*
X102706617Y15679386D01*
X103153716Y15854893D01*
X103499618Y16188138D01*
X103691663Y16628387D01*
X103700612Y16673383D01*
X103624466Y16865600D01*
X102514400Y16865600D01*
X102463600Y16865600D01*
X101353534Y16865600D01*
X101277388Y16673383D01*
X100076000Y16673383D01*
X100076000Y17108617D01*
X101277388Y17108617D01*
X101353534Y16916400D01*
X102463600Y16916400D01*
X102463600Y18026490D01*
X102514400Y18026490D01*
X102514400Y16916400D01*
X103624466Y16916400D01*
X103700612Y17108617D01*
X103691663Y17153613D01*
X103499618Y17593862D01*
X103153716Y17927107D01*
X102706617Y18102614D01*
X102514400Y18026490D01*
X102463600Y18026490D01*
X102271383Y18102614D01*
X101824284Y17927107D01*
X101478382Y17593862D01*
X101286337Y17153613D01*
X101277388Y17108617D01*
X100076000Y17108617D01*
X100076000Y19310350D01*
X101258000Y19310350D01*
X101258000Y18505215D01*
X101316004Y18365181D01*
X101423180Y18258004D01*
X101563214Y18200000D01*
X102368350Y18200000D01*
X102463600Y18295250D01*
X102463600Y19405600D01*
X102514400Y19405600D01*
X102514400Y18295250D01*
X102609650Y18200000D01*
X103414786Y18200000D01*
X103554820Y18258004D01*
X103661996Y18365181D01*
X103720000Y18505215D01*
X103720000Y19310350D01*
X103624750Y19405600D01*
X102514400Y19405600D01*
X102463600Y19405600D01*
X101353250Y19405600D01*
X101258000Y19310350D01*
X100076000Y19310350D01*
X100076000Y20356785D01*
X101258000Y20356785D01*
X101258000Y19551650D01*
X101353250Y19456400D01*
X102463600Y19456400D01*
X102463600Y20566750D01*
X102514400Y20566750D01*
X102514400Y19456400D01*
X103624750Y19456400D01*
X103720000Y19551650D01*
X103720000Y20356785D01*
X103661996Y20496819D01*
X103554820Y20603996D01*
X103414786Y20662000D01*
X102609650Y20662000D01*
X102514400Y20566750D01*
X102463600Y20566750D01*
X102368350Y20662000D01*
X101563214Y20662000D01*
X101423180Y20603996D01*
X101316004Y20496819D01*
X101258000Y20356785D01*
X100076000Y20356785D01*
X100076000Y31991586D01*
X104036507Y31991586D01*
X104121461Y31799367D01*
X104570258Y31603382D01*
X105059892Y31594064D01*
X105515820Y31772829D01*
X105555539Y31799367D01*
X105640493Y31991586D01*
X104838500Y32793579D01*
X104036507Y31991586D01*
X100076000Y31991586D01*
X100076000Y32608108D01*
X103603064Y32608108D01*
X103781829Y32152180D01*
X103808367Y32112461D01*
X104000586Y32027507D01*
X104802579Y32829500D01*
X104874421Y32829500D01*
X105676414Y32027507D01*
X105868633Y32112461D01*
X106064618Y32561258D01*
X106073936Y33050892D01*
X105895171Y33506820D01*
X105868633Y33546539D01*
X105676414Y33631493D01*
X104874421Y32829500D01*
X104802579Y32829500D01*
X104000586Y33631493D01*
X103808367Y33546539D01*
X103612382Y33097742D01*
X103603064Y32608108D01*
X100076000Y32608108D01*
X100076000Y33667414D01*
X104036507Y33667414D01*
X104838500Y32865421D01*
X105640493Y33667414D01*
X105555539Y33859633D01*
X105106742Y34055618D01*
X104617108Y34064936D01*
X104161180Y33886171D01*
X104121461Y33859633D01*
X104036507Y33667414D01*
X100076000Y33667414D01*
X100076000Y34531586D01*
X104036507Y34531586D01*
X104121461Y34339367D01*
X104570258Y34143382D01*
X105059892Y34134064D01*
X105515820Y34312829D01*
X105555539Y34339367D01*
X105640493Y34531586D01*
X104838500Y35333579D01*
X104036507Y34531586D01*
X100076000Y34531586D01*
X100076000Y35148108D01*
X103603064Y35148108D01*
X103781829Y34692180D01*
X103808367Y34652461D01*
X104000586Y34567507D01*
X104802579Y35369500D01*
X104874421Y35369500D01*
X105676414Y34567507D01*
X105868633Y34652461D01*
X106064618Y35101258D01*
X106073936Y35590892D01*
X105895171Y36046820D01*
X105868633Y36086539D01*
X105676414Y36171493D01*
X104874421Y35369500D01*
X104802579Y35369500D01*
X104000586Y36171493D01*
X103808367Y36086539D01*
X103612382Y35637742D01*
X103603064Y35148108D01*
X100076000Y35148108D01*
X100076000Y36207414D01*
X104036507Y36207414D01*
X104838500Y35405421D01*
X105640493Y36207414D01*
X105555539Y36399633D01*
X105106742Y36595618D01*
X104617108Y36604936D01*
X104161180Y36426171D01*
X104121461Y36399633D01*
X104036507Y36207414D01*
X100076000Y36207414D01*
X100076000Y37071586D01*
X104036507Y37071586D01*
X104121461Y36879367D01*
X104570258Y36683382D01*
X105059892Y36674064D01*
X105515820Y36852829D01*
X105555539Y36879367D01*
X105640493Y37071586D01*
X104838500Y37873579D01*
X104036507Y37071586D01*
X100076000Y37071586D01*
X100076000Y37688108D01*
X103603064Y37688108D01*
X103781829Y37232180D01*
X103808367Y37192461D01*
X104000586Y37107507D01*
X104802579Y37909500D01*
X104874421Y37909500D01*
X105676414Y37107507D01*
X105868633Y37192461D01*
X106064618Y37641258D01*
X106073936Y38130892D01*
X105895171Y38586820D01*
X105868633Y38626539D01*
X105676414Y38711493D01*
X104874421Y37909500D01*
X104802579Y37909500D01*
X104000586Y38711493D01*
X103808367Y38626539D01*
X103612382Y38177742D01*
X103603064Y37688108D01*
X100076000Y37688108D01*
X100076000Y38747414D01*
X104036507Y38747414D01*
X104838500Y37945421D01*
X105640493Y38747414D01*
X105555539Y38939633D01*
X105106742Y39135618D01*
X104617108Y39144936D01*
X104161180Y38966171D01*
X104121461Y38939633D01*
X104036507Y38747414D01*
X100076000Y38747414D01*
X100076000Y39611586D01*
X104036507Y39611586D01*
X104121461Y39419367D01*
X104570258Y39223382D01*
X105059892Y39214064D01*
X105515820Y39392829D01*
X105555539Y39419367D01*
X105640493Y39611586D01*
X104838500Y40413579D01*
X104036507Y39611586D01*
X100076000Y39611586D01*
X100076000Y40228108D01*
X103603064Y40228108D01*
X103781829Y39772180D01*
X103808367Y39732461D01*
X104000586Y39647507D01*
X104802579Y40449500D01*
X104874421Y40449500D01*
X105676414Y39647507D01*
X105868633Y39732461D01*
X106064618Y40181258D01*
X106073936Y40670892D01*
X105895171Y41126820D01*
X105868633Y41166539D01*
X105676414Y41251493D01*
X104874421Y40449500D01*
X104802579Y40449500D01*
X104000586Y41251493D01*
X103808367Y41166539D01*
X103612382Y40717742D01*
X103603064Y40228108D01*
X100076000Y40228108D01*
X100076000Y41287414D01*
X104036507Y41287414D01*
X104838500Y40485421D01*
X105640493Y41287414D01*
X105555539Y41479633D01*
X105106742Y41675618D01*
X104617108Y41684936D01*
X104161180Y41506171D01*
X104121461Y41479633D01*
X104036507Y41287414D01*
X100076000Y41287414D01*
X100076000Y42151586D01*
X104036507Y42151586D01*
X104121461Y41959367D01*
X104570258Y41763382D01*
X105059892Y41754064D01*
X105515820Y41932829D01*
X105555539Y41959367D01*
X105640493Y42151586D01*
X104838500Y42953579D01*
X104036507Y42151586D01*
X100076000Y42151586D01*
X100076000Y42768108D01*
X103603064Y42768108D01*
X103781829Y42312180D01*
X103808367Y42272461D01*
X104000586Y42187507D01*
X104802579Y42989500D01*
X104874421Y42989500D01*
X105676414Y42187507D01*
X105868633Y42272461D01*
X106064618Y42721258D01*
X106073936Y43210892D01*
X105895171Y43666820D01*
X105868633Y43706539D01*
X105676414Y43791493D01*
X104874421Y42989500D01*
X104802579Y42989500D01*
X104000586Y43791493D01*
X103808367Y43706539D01*
X103612382Y43257742D01*
X103603064Y42768108D01*
X100076000Y42768108D01*
X100076000Y43827414D01*
X104036507Y43827414D01*
X104838500Y43025421D01*
X105640493Y43827414D01*
X105555539Y44019633D01*
X105106742Y44215618D01*
X104617108Y44224936D01*
X104161180Y44046171D01*
X104121461Y44019633D01*
X104036507Y43827414D01*
X100076000Y43827414D01*
X100076000Y44691586D01*
X104036507Y44691586D01*
X104121461Y44499367D01*
X104570258Y44303382D01*
X105059892Y44294064D01*
X105515820Y44472829D01*
X105555539Y44499367D01*
X105640493Y44691586D01*
X104838500Y45493579D01*
X104036507Y44691586D01*
X100076000Y44691586D01*
X100076000Y45308108D01*
X103603064Y45308108D01*
X103781829Y44852180D01*
X103808367Y44812461D01*
X104000586Y44727507D01*
X104802579Y45529500D01*
X104874421Y45529500D01*
X105676414Y44727507D01*
X105868633Y44812461D01*
X106064618Y45261258D01*
X106073936Y45750892D01*
X105895171Y46206820D01*
X105868633Y46246539D01*
X105676414Y46331493D01*
X104874421Y45529500D01*
X104802579Y45529500D01*
X104000586Y46331493D01*
X103808367Y46246539D01*
X103612382Y45797742D01*
X103603064Y45308108D01*
X100076000Y45308108D01*
X100076000Y46367414D01*
X104036507Y46367414D01*
X104838500Y45565421D01*
X105640493Y46367414D01*
X105555539Y46559633D01*
X105106742Y46755618D01*
X104617108Y46764936D01*
X104161180Y46586171D01*
X104121461Y46559633D01*
X104036507Y46367414D01*
X100076000Y46367414D01*
X100076000Y47231586D01*
X104036507Y47231586D01*
X104121461Y47039367D01*
X104570258Y46843382D01*
X105059892Y46834064D01*
X105515820Y47012829D01*
X105555539Y47039367D01*
X105640493Y47231586D01*
X104838500Y48033579D01*
X104036507Y47231586D01*
X100076000Y47231586D01*
X100076000Y47848108D01*
X103603064Y47848108D01*
X103781829Y47392180D01*
X103808367Y47352461D01*
X104000586Y47267507D01*
X104802579Y48069500D01*
X104874421Y48069500D01*
X105676414Y47267507D01*
X105868633Y47352461D01*
X106064618Y47801258D01*
X106073936Y48290892D01*
X105895171Y48746820D01*
X105868633Y48786539D01*
X105676414Y48871493D01*
X104874421Y48069500D01*
X104802579Y48069500D01*
X104000586Y48871493D01*
X103808367Y48786539D01*
X103612382Y48337742D01*
X103603064Y47848108D01*
X100076000Y47848108D01*
X100076000Y48907414D01*
X104036507Y48907414D01*
X104838500Y48105421D01*
X105640493Y48907414D01*
X105555539Y49099633D01*
X105106742Y49295618D01*
X104617108Y49304936D01*
X104161180Y49126171D01*
X104121461Y49099633D01*
X104036507Y48907414D01*
X100076000Y48907414D01*
X100076000Y49771586D01*
X104036507Y49771586D01*
X104121461Y49579367D01*
X104570258Y49383382D01*
X105059892Y49374064D01*
X105515820Y49552829D01*
X105555539Y49579367D01*
X105640493Y49771586D01*
X104838500Y50573579D01*
X104036507Y49771586D01*
X100076000Y49771586D01*
X100076000Y50388108D01*
X103603064Y50388108D01*
X103781829Y49932180D01*
X103808367Y49892461D01*
X104000586Y49807507D01*
X104802579Y50609500D01*
X104874421Y50609500D01*
X105676414Y49807507D01*
X105868633Y49892461D01*
X106064618Y50341258D01*
X106073936Y50830892D01*
X105895171Y51286820D01*
X105868633Y51326539D01*
X105676414Y51411493D01*
X104874421Y50609500D01*
X104802579Y50609500D01*
X104000586Y51411493D01*
X103808367Y51326539D01*
X103612382Y50877742D01*
X103603064Y50388108D01*
X100076000Y50388108D01*
X100076000Y51447414D01*
X104036507Y51447414D01*
X104838500Y50645421D01*
X105640493Y51447414D01*
X105555539Y51639633D01*
X105106742Y51835618D01*
X104617108Y51844936D01*
X104161180Y51666171D01*
X104121461Y51639633D01*
X104036507Y51447414D01*
X100076000Y51447414D01*
X100076000Y52311586D01*
X104036507Y52311586D01*
X104121461Y52119367D01*
X104570258Y51923382D01*
X105059892Y51914064D01*
X105515820Y52092829D01*
X105555539Y52119367D01*
X105640493Y52311586D01*
X104838500Y53113579D01*
X104036507Y52311586D01*
X100076000Y52311586D01*
X100076000Y52928108D01*
X103603064Y52928108D01*
X103781829Y52472180D01*
X103808367Y52432461D01*
X104000586Y52347507D01*
X104802579Y53149500D01*
X104874421Y53149500D01*
X105676414Y52347507D01*
X105868633Y52432461D01*
X106064618Y52881258D01*
X106073936Y53370892D01*
X105895171Y53826820D01*
X105868633Y53866539D01*
X105676414Y53951493D01*
X104874421Y53149500D01*
X104802579Y53149500D01*
X104000586Y53951493D01*
X103808367Y53866539D01*
X103612382Y53417742D01*
X103603064Y52928108D01*
X100076000Y52928108D01*
X100076000Y53987414D01*
X104036507Y53987414D01*
X104838500Y53185421D01*
X105640493Y53987414D01*
X105555539Y54179633D01*
X105106742Y54375618D01*
X104617108Y54384936D01*
X104161180Y54206171D01*
X104121461Y54179633D01*
X104036507Y53987414D01*
X100076000Y53987414D01*
X100076000Y63881000D01*
X101182088Y63881000D01*
X101279659Y63390476D01*
X101557519Y62974631D01*
X101973364Y62696771D01*
X102463888Y62599200D01*
X102514112Y62599200D01*
X103004636Y62696771D01*
X103370448Y62941200D01*
X109618122Y62941200D01*
X106713961Y60037039D01*
X106510238Y59732146D01*
X106438700Y59372500D01*
X106438700Y56962862D01*
X106368485Y56949650D01*
X106221520Y56855081D01*
X106122927Y56710785D01*
X106088241Y56539500D01*
X106088241Y56021473D01*
X105925791Y56414633D01*
X105565529Y56775524D01*
X105094584Y56971077D01*
X104584653Y56971522D01*
X104113367Y56776791D01*
X103752476Y56416529D01*
X103556923Y55945584D01*
X103556478Y55435653D01*
X103751209Y54964367D01*
X104111471Y54603476D01*
X104582416Y54407923D01*
X105092347Y54407478D01*
X105563633Y54602209D01*
X105924524Y54962471D01*
X106088241Y55356746D01*
X106088241Y54839500D01*
X106118350Y54679485D01*
X106212919Y54532520D01*
X106357215Y54433927D01*
X106528500Y54399241D01*
X107046527Y54399241D01*
X106653367Y54236791D01*
X106292476Y53876529D01*
X106096923Y53405584D01*
X106096478Y52895653D01*
X106291209Y52424367D01*
X106651471Y52063476D01*
X107095045Y51879288D01*
X106653367Y51696791D01*
X106292476Y51336529D01*
X106096923Y50865584D01*
X106096478Y50355653D01*
X106291209Y49884367D01*
X106651471Y49523476D01*
X107095045Y49339288D01*
X106653367Y49156791D01*
X106292476Y48796529D01*
X106096923Y48325584D01*
X106096478Y47815653D01*
X106291209Y47344367D01*
X106651471Y46983476D01*
X107095045Y46799288D01*
X106653367Y46616791D01*
X106292476Y46256529D01*
X106096923Y45785584D01*
X106096478Y45275653D01*
X106291209Y44804367D01*
X106651471Y44443476D01*
X107095045Y44259288D01*
X106653367Y44076791D01*
X106292476Y43716529D01*
X106096923Y43245584D01*
X106096478Y42735653D01*
X106291209Y42264367D01*
X106651471Y41903476D01*
X107095045Y41719288D01*
X106653367Y41536791D01*
X106292476Y41176529D01*
X106096923Y40705584D01*
X106096478Y40195653D01*
X106291209Y39724367D01*
X106651471Y39363476D01*
X107095045Y39179288D01*
X106653367Y38996791D01*
X106292476Y38636529D01*
X106096923Y38165584D01*
X106096478Y37655653D01*
X106291209Y37184367D01*
X106651471Y36823476D01*
X107095045Y36639288D01*
X106653367Y36456791D01*
X106292476Y36096529D01*
X106096923Y35625584D01*
X106096478Y35115653D01*
X106291209Y34644367D01*
X106651471Y34283476D01*
X107095045Y34099288D01*
X106653367Y33916791D01*
X106292476Y33556529D01*
X106096923Y33085584D01*
X106096478Y32575653D01*
X106291209Y32104367D01*
X106651471Y31743476D01*
X107122416Y31547923D01*
X107632347Y31547478D01*
X108103633Y31742209D01*
X108464524Y32102471D01*
X108660077Y32573416D01*
X108660522Y33083347D01*
X108465791Y33554633D01*
X108105529Y33915524D01*
X107661955Y34099712D01*
X108103633Y34282209D01*
X108464524Y34642471D01*
X108660077Y35113416D01*
X108660522Y35623347D01*
X108465791Y36094633D01*
X108105529Y36455524D01*
X107661955Y36639712D01*
X108103633Y36822209D01*
X108464524Y37182471D01*
X108471097Y37198300D01*
X110807500Y37198300D01*
X111079665Y37252437D01*
X111310394Y37406606D01*
X113151894Y39248105D01*
X113306063Y39478835D01*
X113315045Y39523990D01*
X113360200Y39751000D01*
X113360200Y46291500D01*
X113360323Y46432346D01*
X113252277Y46693836D01*
X113052388Y46894074D01*
X112791087Y47002576D01*
X112508154Y47002823D01*
X112246664Y46894777D01*
X112046426Y46694888D01*
X111937924Y46433587D01*
X111937677Y46150654D01*
X111937800Y46150356D01*
X111937800Y40045589D01*
X110512912Y38620700D01*
X108471548Y38620700D01*
X108465791Y38634633D01*
X108105529Y38995524D01*
X107661955Y39179712D01*
X108103633Y39362209D01*
X108464524Y39722471D01*
X108660077Y40193416D01*
X108660522Y40703347D01*
X108465791Y41174633D01*
X108105529Y41535524D01*
X107661955Y41719712D01*
X108103633Y41902209D01*
X108464524Y42262471D01*
X108660077Y42733416D01*
X108660522Y43243347D01*
X108465791Y43714633D01*
X108105529Y44075524D01*
X107661955Y44259712D01*
X108103633Y44442209D01*
X108464524Y44802471D01*
X108660077Y45273416D01*
X108660098Y45297310D01*
X110911588Y47548800D01*
X114825611Y47548800D01*
X114956019Y47353631D01*
X115371864Y47075771D01*
X115803065Y46990000D01*
X115371864Y46904229D01*
X114956019Y46626369D01*
X114678159Y46210524D01*
X114580588Y45720000D01*
X114678159Y45229476D01*
X114956019Y44813631D01*
X115371864Y44535771D01*
X115803065Y44450000D01*
X115371864Y44364229D01*
X114956019Y44086369D01*
X114678159Y43670524D01*
X114580588Y43180000D01*
X114678159Y42689476D01*
X114956019Y42273631D01*
X115371864Y41995771D01*
X115803065Y41910000D01*
X115371864Y41824229D01*
X114956019Y41546369D01*
X114678159Y41130524D01*
X114580588Y40640000D01*
X114678159Y40149476D01*
X114956019Y39733631D01*
X115371864Y39455771D01*
X115701216Y39390259D01*
X115037500Y39390259D01*
X114877485Y39360150D01*
X114730520Y39265581D01*
X114631927Y39121285D01*
X114597241Y38950000D01*
X114597241Y38153462D01*
X112500325Y36105311D01*
X112497142Y36100667D01*
X112492461Y36097539D01*
X112393603Y35949588D01*
X112293029Y35802835D01*
X112291866Y35797327D01*
X112288738Y35792646D01*
X112254026Y35618139D01*
X112217265Y35444056D01*
X112218298Y35438522D01*
X112217200Y35433000D01*
X112217200Y17513300D01*
X108663810Y17513300D01*
X108638650Y17647015D01*
X108544081Y17793980D01*
X108399785Y17892573D01*
X108228500Y17927259D01*
X107564784Y17927259D01*
X107894136Y17992771D01*
X108309981Y18270631D01*
X108587841Y18686476D01*
X108685412Y19177000D01*
X108587841Y19667524D01*
X108309981Y20083369D01*
X107894136Y20361229D01*
X107403612Y20458800D01*
X107353388Y20458800D01*
X106862864Y20361229D01*
X106447019Y20083369D01*
X106169159Y19667524D01*
X106071588Y19177000D01*
X106169159Y18686476D01*
X106447019Y18270631D01*
X106862864Y17992771D01*
X107192216Y17927259D01*
X106528500Y17927259D01*
X106368485Y17897150D01*
X106221520Y17802581D01*
X106122927Y17658285D01*
X106088241Y17487000D01*
X106088241Y15787000D01*
X106118350Y15626985D01*
X106212919Y15480020D01*
X106357215Y15381427D01*
X106528500Y15346741D01*
X108228500Y15346741D01*
X108388515Y15376850D01*
X108535480Y15471419D01*
X108634073Y15615715D01*
X108637715Y15633700D01*
X114614138Y15633700D01*
X114627350Y15563485D01*
X114721919Y15416520D01*
X114866215Y15317927D01*
X115037500Y15283241D01*
X116737500Y15283241D01*
X116897515Y15313350D01*
X117044480Y15407919D01*
X117143073Y15552215D01*
X117159574Y15633700D01*
X138430000Y15633700D01*
X138789646Y15705238D01*
X139094539Y15908961D01*
X139136778Y15951200D01*
X154947552Y15951200D01*
X155313364Y15706771D01*
X155803888Y15609200D01*
X155854112Y15609200D01*
X156344636Y15706771D01*
X156760481Y15984631D01*
X157038341Y16400476D01*
X157135912Y16891000D01*
X157038341Y17381524D01*
X156760481Y17797369D01*
X156344636Y18075229D01*
X156015284Y18140741D01*
X156679000Y18140741D01*
X156839015Y18170850D01*
X156985980Y18265419D01*
X157084573Y18409715D01*
X157119259Y18581000D01*
X157119259Y20281000D01*
X157089150Y20441015D01*
X156994581Y20587980D01*
X156850285Y20686573D01*
X156679000Y20721259D01*
X154979000Y20721259D01*
X154818985Y20691150D01*
X154672020Y20596581D01*
X154573427Y20452285D01*
X154538741Y20281000D01*
X154538741Y18581000D01*
X154568850Y18420985D01*
X154663419Y18274020D01*
X154807715Y18175427D01*
X154979000Y18140741D01*
X155642716Y18140741D01*
X155313364Y18075229D01*
X154947552Y17830800D01*
X139369800Y17830800D01*
X139369800Y29206638D01*
X139440015Y29219850D01*
X139586980Y29314419D01*
X139685573Y29458715D01*
X139720259Y29630000D01*
X139720259Y31330000D01*
X139690150Y31490015D01*
X139595581Y31636980D01*
X139451285Y31735573D01*
X139280000Y31770259D01*
X139141200Y31770259D01*
X139141200Y31988812D01*
X143301694Y36149306D01*
X143455863Y36380035D01*
X143465040Y36426171D01*
X143510000Y36652200D01*
X143510000Y43568850D01*
X150878500Y43568850D01*
X150878500Y42403715D01*
X150936504Y42263681D01*
X151043680Y42156504D01*
X151183714Y42098500D01*
X154378850Y42098500D01*
X154474100Y42193750D01*
X154474100Y43664100D01*
X154524900Y43664100D01*
X154524900Y42193750D01*
X154620150Y42098500D01*
X157815286Y42098500D01*
X157955320Y42156504D01*
X158062496Y42263681D01*
X158120500Y42403715D01*
X158120500Y43568850D01*
X158025250Y43664100D01*
X154524900Y43664100D01*
X154474100Y43664100D01*
X150973750Y43664100D01*
X150878500Y43568850D01*
X143510000Y43568850D01*
X143510000Y44069000D01*
X143474633Y44246800D01*
X143455863Y44341165D01*
X143301694Y44571894D01*
X142898303Y44975285D01*
X150878500Y44975285D01*
X150878500Y43810150D01*
X150973750Y43714900D01*
X154474100Y43714900D01*
X154474100Y45185250D01*
X154524900Y45185250D01*
X154524900Y43714900D01*
X158025250Y43714900D01*
X158120500Y43810150D01*
X158120500Y44975285D01*
X158062496Y45115319D01*
X157955320Y45222496D01*
X157815286Y45280500D01*
X154620150Y45280500D01*
X154524900Y45185250D01*
X154474100Y45185250D01*
X154378850Y45280500D01*
X151183714Y45280500D01*
X151043680Y45222496D01*
X150936504Y45115319D01*
X150878500Y44975285D01*
X142898303Y44975285D01*
X142412694Y45460894D01*
X142181965Y45615063D01*
X141909800Y45669200D01*
X140629589Y45669200D01*
X138742394Y47556394D01*
X138642888Y47656074D01*
X138511666Y47710562D01*
X138511665Y47710563D01*
X138511664Y47710563D01*
X138381587Y47764576D01*
X138098654Y47764823D01*
X137837164Y47656777D01*
X137636926Y47456888D01*
X137528424Y47195587D01*
X137528177Y46912654D01*
X137636223Y46651164D01*
X137836112Y46450926D01*
X137836409Y46450802D01*
X139832106Y44455105D01*
X140025906Y44325613D01*
X140062836Y44300937D01*
X140335000Y44246800D01*
X141615212Y44246800D01*
X142087600Y43774412D01*
X142087600Y36946788D01*
X137927106Y32786294D01*
X137772937Y32555565D01*
X137772937Y32555564D01*
X137718800Y32283400D01*
X137718800Y31770259D01*
X137580000Y31770259D01*
X137419985Y31740150D01*
X137273020Y31645581D01*
X137174427Y31501285D01*
X137139741Y31330000D01*
X137139741Y30666284D01*
X137074229Y30995636D01*
X136796369Y31411481D01*
X136380524Y31689341D01*
X135890000Y31786912D01*
X135399476Y31689341D01*
X134983631Y31411481D01*
X134705771Y30995636D01*
X134620000Y30564435D01*
X134534229Y30995636D01*
X134256369Y31411481D01*
X133840524Y31689341D01*
X133350000Y31786912D01*
X132859476Y31689341D01*
X132443631Y31411481D01*
X132165771Y30995636D01*
X132080000Y30564435D01*
X131994229Y30995636D01*
X131716369Y31411481D01*
X131300524Y31689341D01*
X130810000Y31786912D01*
X130319476Y31689341D01*
X129903631Y31411481D01*
X129625771Y30995636D01*
X129540000Y30564435D01*
X129454229Y30995636D01*
X129176369Y31411481D01*
X128760524Y31689341D01*
X128270000Y31786912D01*
X127779476Y31689341D01*
X127363631Y31411481D01*
X127085771Y30995636D01*
X126988200Y30505112D01*
X126988200Y30454888D01*
X127085771Y29964364D01*
X127363631Y29548519D01*
X127779476Y29270659D01*
X128270000Y29173088D01*
X128760524Y29270659D01*
X129176369Y29548519D01*
X129454229Y29964364D01*
X129540000Y30395565D01*
X129625771Y29964364D01*
X129903631Y29548519D01*
X130319476Y29270659D01*
X130810000Y29173088D01*
X131300524Y29270659D01*
X131716369Y29548519D01*
X131994229Y29964364D01*
X132080000Y30395565D01*
X132165771Y29964364D01*
X132443631Y29548519D01*
X132859476Y29270659D01*
X133350000Y29173088D01*
X133840524Y29270659D01*
X134256369Y29548519D01*
X134534229Y29964364D01*
X134620000Y30395565D01*
X134705771Y29964364D01*
X134983631Y29548519D01*
X135399476Y29270659D01*
X135890000Y29173088D01*
X136380524Y29270659D01*
X136796369Y29548519D01*
X137074229Y29964364D01*
X137139741Y30293716D01*
X137139741Y29630000D01*
X137169850Y29469985D01*
X137264419Y29323020D01*
X137408715Y29224427D01*
X137490200Y29207926D01*
X137490200Y17513300D01*
X117160862Y17513300D01*
X117147650Y17583515D01*
X117053081Y17730480D01*
X116908785Y17829073D01*
X116737500Y17863759D01*
X116073784Y17863759D01*
X116403136Y17929271D01*
X116818981Y18207131D01*
X117096841Y18622976D01*
X117194412Y19113500D01*
X117096841Y19604024D01*
X116818981Y20019869D01*
X116403136Y20297729D01*
X115971935Y20383500D01*
X116403136Y20469271D01*
X116818981Y20747131D01*
X117096841Y21162976D01*
X117194412Y21653500D01*
X117096841Y22144024D01*
X116818981Y22559869D01*
X116403136Y22837729D01*
X115971935Y22923500D01*
X116403136Y23009271D01*
X116818981Y23287131D01*
X117096841Y23702976D01*
X117194412Y24193500D01*
X117096841Y24684024D01*
X116818981Y25099869D01*
X116403136Y25377729D01*
X115971935Y25463500D01*
X116403136Y25549271D01*
X116818981Y25827131D01*
X117096841Y26242976D01*
X117194412Y26733500D01*
X117096841Y27224024D01*
X116818981Y27639869D01*
X116403136Y27917729D01*
X115971935Y28003500D01*
X116403136Y28089271D01*
X116818981Y28367131D01*
X117096841Y28782976D01*
X117194412Y29273500D01*
X117096841Y29764024D01*
X116818981Y30179869D01*
X116695491Y30262383D01*
X124518386Y30262383D01*
X124693893Y29815284D01*
X125027138Y29469382D01*
X125467387Y29277337D01*
X125512383Y29268388D01*
X125704600Y29344534D01*
X125704600Y30454600D01*
X125755400Y30454600D01*
X125755400Y29344534D01*
X125947617Y29268388D01*
X125992613Y29277337D01*
X126432862Y29469382D01*
X126766107Y29815284D01*
X126941614Y30262383D01*
X126865490Y30454600D01*
X125755400Y30454600D01*
X125704600Y30454600D01*
X124594510Y30454600D01*
X124518386Y30262383D01*
X116695491Y30262383D01*
X116403136Y30457729D01*
X115971935Y30543500D01*
X116403136Y30629271D01*
X116505422Y30697617D01*
X124518386Y30697617D01*
X124594510Y30505400D01*
X125704600Y30505400D01*
X125704600Y31615466D01*
X125755400Y31615466D01*
X125755400Y30505400D01*
X126865490Y30505400D01*
X126941614Y30697617D01*
X126766107Y31144716D01*
X126432862Y31490618D01*
X125992613Y31682663D01*
X125947617Y31691612D01*
X125755400Y31615466D01*
X125704600Y31615466D01*
X125512383Y31691612D01*
X125467387Y31682663D01*
X125027138Y31490618D01*
X124693893Y31144716D01*
X124518386Y30697617D01*
X116505422Y30697617D01*
X116818981Y30907131D01*
X117096841Y31322976D01*
X117194412Y31813500D01*
X117096841Y32304024D01*
X116818981Y32719869D01*
X116403136Y32997729D01*
X115912612Y33095300D01*
X115862388Y33095300D01*
X115371864Y32997729D01*
X114956019Y32719869D01*
X114678159Y32304024D01*
X114580588Y31813500D01*
X114678159Y31322976D01*
X114956019Y30907131D01*
X115371864Y30629271D01*
X115803065Y30543500D01*
X115371864Y30457729D01*
X114956019Y30179869D01*
X114678159Y29764024D01*
X114580588Y29273500D01*
X114678159Y28782976D01*
X114956019Y28367131D01*
X115371864Y28089271D01*
X115803065Y28003500D01*
X115371864Y27917729D01*
X114956019Y27639869D01*
X114678159Y27224024D01*
X114580588Y26733500D01*
X114678159Y26242976D01*
X114956019Y25827131D01*
X115371864Y25549271D01*
X115803065Y25463500D01*
X115371864Y25377729D01*
X114956019Y25099869D01*
X114678159Y24684024D01*
X114580588Y24193500D01*
X114678159Y23702976D01*
X114956019Y23287131D01*
X115371864Y23009271D01*
X115803065Y22923500D01*
X115371864Y22837729D01*
X114956019Y22559869D01*
X114678159Y22144024D01*
X114580588Y21653500D01*
X114678159Y21162976D01*
X114956019Y20747131D01*
X115371864Y20469271D01*
X115803065Y20383500D01*
X115371864Y20297729D01*
X114956019Y20019869D01*
X114678159Y19604024D01*
X114580588Y19113500D01*
X114678159Y18622976D01*
X114956019Y18207131D01*
X115371864Y17929271D01*
X115701216Y17863759D01*
X115037500Y17863759D01*
X114877485Y17833650D01*
X114730520Y17739081D01*
X114631927Y17594785D01*
X114615426Y17513300D01*
X114096800Y17513300D01*
X114096800Y34135883D01*
X114675888Y34135883D01*
X114684837Y34090887D01*
X114876882Y33650638D01*
X115222784Y33317393D01*
X115669883Y33141886D01*
X115862100Y33218010D01*
X115862100Y34328100D01*
X115912900Y34328100D01*
X115912900Y33218010D01*
X116105117Y33141886D01*
X116552216Y33317393D01*
X116898118Y33650638D01*
X117090163Y34090887D01*
X117099112Y34135883D01*
X117022966Y34328100D01*
X115912900Y34328100D01*
X115862100Y34328100D01*
X114752034Y34328100D01*
X114675888Y34135883D01*
X114096800Y34135883D01*
X114096800Y34571117D01*
X114675888Y34571117D01*
X114752034Y34378900D01*
X115862100Y34378900D01*
X115862100Y35488990D01*
X115912900Y35488990D01*
X115912900Y34378900D01*
X117022966Y34378900D01*
X117099112Y34571117D01*
X117090163Y34616113D01*
X116898118Y35056362D01*
X116552216Y35389607D01*
X116105117Y35565114D01*
X115912900Y35488990D01*
X115862100Y35488990D01*
X115669883Y35565114D01*
X115222784Y35389607D01*
X114876882Y35056362D01*
X114684837Y34616113D01*
X114675888Y34571117D01*
X114096800Y34571117D01*
X114096800Y35037230D01*
X115911514Y36809741D01*
X116737500Y36809741D01*
X116897515Y36839850D01*
X117044480Y36934419D01*
X117143073Y37078715D01*
X117177759Y37250000D01*
X117177759Y37388800D01*
X119316500Y37388800D01*
X119588665Y37442937D01*
X119819394Y37597106D01*
X124327894Y42105606D01*
X125280394Y43058105D01*
X125387299Y43218100D01*
X125434563Y43288836D01*
X125488700Y43561000D01*
X125488700Y47732596D01*
X125497546Y47818902D01*
X125488674Y47912796D01*
X125488823Y48083346D01*
X125479759Y48105282D01*
X125479759Y48202000D01*
X125449650Y48362015D01*
X125359958Y48501401D01*
X125396869Y48501369D01*
X125615576Y48282662D01*
X125599241Y48202000D01*
X125599241Y47302000D01*
X125629350Y47141985D01*
X125723919Y46995020D01*
X125730453Y46990556D01*
X125633927Y46849285D01*
X125599241Y46678000D01*
X125599241Y45778000D01*
X125629350Y45617985D01*
X125723919Y45471020D01*
X125730453Y45466556D01*
X125633927Y45325285D01*
X125599241Y45154000D01*
X125599241Y44254000D01*
X125629350Y44093985D01*
X125723919Y43947020D01*
X125868215Y43848427D01*
X126039500Y43813741D01*
X126539500Y43813741D01*
X126699515Y43843850D01*
X126846480Y43938419D01*
X126945073Y44082715D01*
X126979759Y44254000D01*
X126979759Y44528497D01*
X128411131Y45959869D01*
X128429059Y45986700D01*
X128532264Y46141156D01*
X128574800Y46355000D01*
X128574800Y50024154D01*
X139242677Y50024154D01*
X139350723Y49762664D01*
X139550612Y49562426D01*
X139811913Y49453924D01*
X140094846Y49453677D01*
X140356336Y49561723D01*
X140556574Y49761612D01*
X140665076Y50022913D01*
X140665323Y50305846D01*
X140557277Y50567336D01*
X140512800Y50611891D01*
X140512800Y51548154D01*
X141084177Y51548154D01*
X141192223Y51286664D01*
X141392112Y51086426D01*
X141653413Y50977924D01*
X141936346Y50977677D01*
X142197836Y51085723D01*
X142398074Y51285612D01*
X142404331Y51300679D01*
X143018264Y51970425D01*
X143082400Y52076074D01*
X143151063Y52178835D01*
X143154124Y52194222D01*
X143162265Y52207633D01*
X143180944Y52328850D01*
X150878500Y52328850D01*
X150878500Y51163715D01*
X150936504Y51023681D01*
X151043680Y50916504D01*
X151183714Y50858500D01*
X154378850Y50858500D01*
X154474100Y50953750D01*
X154474100Y52424100D01*
X154524900Y52424100D01*
X154524900Y50953750D01*
X154620150Y50858500D01*
X157815286Y50858500D01*
X157955320Y50916504D01*
X158062496Y51023681D01*
X158120500Y51163715D01*
X158120500Y52328850D01*
X158025250Y52424100D01*
X154524900Y52424100D01*
X154474100Y52424100D01*
X150973750Y52424100D01*
X150878500Y52328850D01*
X143180944Y52328850D01*
X143181089Y52329790D01*
X143205199Y52451000D01*
X143202139Y52466386D01*
X143204528Y52481892D01*
X143201311Y52495049D01*
X144286131Y53579868D01*
X144389977Y53735285D01*
X150878500Y53735285D01*
X150878500Y52570150D01*
X150973750Y52474900D01*
X154474100Y52474900D01*
X154474100Y53945250D01*
X154524900Y53945250D01*
X154524900Y52474900D01*
X158025250Y52474900D01*
X158120500Y52570150D01*
X158120500Y53735285D01*
X158062496Y53875319D01*
X157955320Y53982496D01*
X157815286Y54040500D01*
X154620150Y54040500D01*
X154524900Y53945250D01*
X154474100Y53945250D01*
X154378850Y54040500D01*
X151183714Y54040500D01*
X151043680Y53982496D01*
X150936504Y53875319D01*
X150878500Y53735285D01*
X144389977Y53735285D01*
X144390513Y53736087D01*
X144407264Y53761156D01*
X144449800Y53975000D01*
X144449800Y56346445D01*
X144481633Y56359598D01*
X144743981Y56621489D01*
X144886138Y56963840D01*
X144886461Y57334533D01*
X144744902Y57677133D01*
X144483011Y57939481D01*
X144140660Y58081638D01*
X143769967Y58081961D01*
X143427367Y57940402D01*
X143165019Y57678511D01*
X143022862Y57336160D01*
X143022539Y56965467D01*
X143164098Y56622867D01*
X143332200Y56454472D01*
X143332200Y54206463D01*
X142236772Y53111034D01*
X142221835Y53108063D01*
X142208789Y53099346D01*
X142193551Y53095620D01*
X142093873Y53022561D01*
X141991106Y52953894D01*
X141864106Y52826894D01*
X141838097Y52787968D01*
X141281883Y52181190D01*
X141192926Y52092388D01*
X141084424Y51831087D01*
X141084177Y51548154D01*
X140512800Y51548154D01*
X140512800Y54759538D01*
X141971534Y56218272D01*
X142239033Y56218039D01*
X142581633Y56359598D01*
X142843981Y56621489D01*
X142986138Y56963840D01*
X142986461Y57334533D01*
X142844902Y57677133D01*
X142583011Y57939481D01*
X142240660Y58081638D01*
X141869967Y58081961D01*
X141527367Y57940402D01*
X141265019Y57678511D01*
X141122862Y57336160D01*
X141122539Y56965467D01*
X141127119Y56954381D01*
X139558869Y55386131D01*
X139437736Y55204844D01*
X139395200Y54991000D01*
X139395200Y50612086D01*
X139351426Y50568388D01*
X139242924Y50307087D01*
X139242677Y50024154D01*
X128574800Y50024154D01*
X128574800Y50289414D01*
X128618574Y50333112D01*
X128727076Y50594413D01*
X128727323Y50877346D01*
X128619277Y51138836D01*
X128419388Y51339074D01*
X128158087Y51447576D01*
X127875154Y51447823D01*
X127613664Y51339777D01*
X127413426Y51139888D01*
X127304924Y50878587D01*
X127304677Y50595654D01*
X127412723Y50334164D01*
X127457200Y50289609D01*
X127457200Y49926562D01*
X126822269Y50561493D01*
X126822323Y50623346D01*
X126714277Y50884836D01*
X126514388Y51085074D01*
X126253087Y51193576D01*
X125970154Y51193823D01*
X125708664Y51085777D01*
X125508426Y50885888D01*
X125399924Y50624587D01*
X125399677Y50341654D01*
X125507723Y50080164D01*
X125696571Y49890987D01*
X125618087Y49923576D01*
X125335154Y49923823D01*
X125073664Y49815777D01*
X124873426Y49615888D01*
X124764924Y49354587D01*
X124764677Y49071654D01*
X124872723Y48810164D01*
X125040547Y48642047D01*
X125039500Y48642259D01*
X124946841Y48642259D01*
X124919587Y48653576D01*
X124636654Y48653823D01*
X124608667Y48642259D01*
X124539500Y48642259D01*
X124379485Y48612150D01*
X124232520Y48517581D01*
X124133927Y48373285D01*
X124099241Y48202000D01*
X124099241Y48163619D01*
X124066424Y48084587D01*
X124066177Y47801654D01*
X124066300Y47801356D01*
X124066300Y43855589D01*
X123322106Y43111394D01*
X119021912Y38811200D01*
X117177759Y38811200D01*
X117177759Y38950000D01*
X117147650Y39110015D01*
X117053081Y39256980D01*
X116908785Y39355573D01*
X116737500Y39390259D01*
X116073784Y39390259D01*
X116403136Y39455771D01*
X116818981Y39733631D01*
X117096841Y40149476D01*
X117194412Y40640000D01*
X117096841Y41130524D01*
X116818981Y41546369D01*
X116403136Y41824229D01*
X115971935Y41910000D01*
X116403136Y41995771D01*
X116818981Y42273631D01*
X116966361Y42494200D01*
X117741977Y42494200D01*
X117746919Y42486520D01*
X117891215Y42387927D01*
X118062500Y42353241D01*
X118562500Y42353241D01*
X118722515Y42383350D01*
X118869480Y42477919D01*
X118968073Y42622215D01*
X119002759Y42793500D01*
X119002759Y43122850D01*
X119181500Y43122850D01*
X119181500Y42717715D01*
X119239504Y42577681D01*
X119346680Y42470504D01*
X119486714Y42412500D01*
X119691850Y42412500D01*
X119787100Y42507750D01*
X119787100Y43218100D01*
X119837900Y43218100D01*
X119837900Y42507750D01*
X119933150Y42412500D01*
X120138286Y42412500D01*
X120278320Y42470504D01*
X120385496Y42577681D01*
X120443500Y42717715D01*
X120443500Y43122850D01*
X120348250Y43218100D01*
X119837900Y43218100D01*
X119787100Y43218100D01*
X119276750Y43218100D01*
X119181500Y43122850D01*
X119002759Y43122850D01*
X119002759Y43693500D01*
X118988500Y43769285D01*
X119181500Y43769285D01*
X119181500Y43364150D01*
X119276750Y43268900D01*
X119787100Y43268900D01*
X119787100Y43979250D01*
X119837900Y43979250D01*
X119837900Y43268900D01*
X120348250Y43268900D01*
X120443500Y43364150D01*
X120443500Y43769285D01*
X120385496Y43909319D01*
X120278320Y44016496D01*
X120138286Y44074500D01*
X119933150Y44074500D01*
X119837900Y43979250D01*
X119787100Y43979250D01*
X119691850Y44074500D01*
X119486714Y44074500D01*
X119346680Y44016496D01*
X119239504Y43909319D01*
X119181500Y43769285D01*
X118988500Y43769285D01*
X118972650Y43853515D01*
X118878081Y44000480D01*
X118733785Y44099073D01*
X118562500Y44133759D01*
X118062500Y44133759D01*
X117902485Y44103650D01*
X117755520Y44009081D01*
X117657621Y43865800D01*
X116966361Y43865800D01*
X116818981Y44086369D01*
X116403136Y44364229D01*
X115971935Y44450000D01*
X116403136Y44535771D01*
X116818981Y44813631D01*
X117096841Y45229476D01*
X117194412Y45720000D01*
X117096841Y46210524D01*
X116818981Y46626369D01*
X116403136Y46904229D01*
X115971935Y46990000D01*
X116403136Y47075771D01*
X116818981Y47353631D01*
X117051220Y47701200D01*
X117642713Y47701200D01*
X117652350Y47649985D01*
X117746919Y47503020D01*
X117891215Y47404427D01*
X118062500Y47369741D01*
X118562500Y47369741D01*
X118722515Y47399850D01*
X118869480Y47494419D01*
X118968073Y47638715D01*
X119002759Y47810000D01*
X119002759Y48139350D01*
X119181500Y48139350D01*
X119181500Y47734215D01*
X119239504Y47594181D01*
X119346680Y47487004D01*
X119486714Y47429000D01*
X119691850Y47429000D01*
X119787100Y47524250D01*
X119787100Y48234600D01*
X119837900Y48234600D01*
X119837900Y47524250D01*
X119933150Y47429000D01*
X120138286Y47429000D01*
X120278320Y47487004D01*
X120385496Y47594181D01*
X120443500Y47734215D01*
X120443500Y48139350D01*
X120348250Y48234600D01*
X119837900Y48234600D01*
X119787100Y48234600D01*
X119276750Y48234600D01*
X119181500Y48139350D01*
X119002759Y48139350D01*
X119002759Y48710000D01*
X118988500Y48785785D01*
X119181500Y48785785D01*
X119181500Y48380650D01*
X119276750Y48285400D01*
X119787100Y48285400D01*
X119787100Y48995750D01*
X119837900Y48995750D01*
X119837900Y48285400D01*
X120348250Y48285400D01*
X120443500Y48380650D01*
X120443500Y48785785D01*
X120385496Y48925819D01*
X120278320Y49032996D01*
X120138286Y49091000D01*
X119933150Y49091000D01*
X119837900Y48995750D01*
X119787100Y48995750D01*
X119691850Y49091000D01*
X119486714Y49091000D01*
X119346680Y49032996D01*
X119239504Y48925819D01*
X119181500Y48785785D01*
X118988500Y48785785D01*
X118972650Y48870015D01*
X118878081Y49016980D01*
X118733785Y49115573D01*
X118562500Y49150259D01*
X118062500Y49150259D01*
X117902485Y49120150D01*
X117755520Y49025581D01*
X117656927Y48881285D01*
X117644274Y48818800D01*
X117051220Y48818800D01*
X116818981Y49166369D01*
X116403136Y49444229D01*
X115971935Y49530000D01*
X116403136Y49615771D01*
X116818981Y49893631D01*
X117096841Y50309476D01*
X117194412Y50800000D01*
X117096841Y51290524D01*
X116818981Y51706369D01*
X116403136Y51984229D01*
X115971935Y52070000D01*
X116403136Y52155771D01*
X116818981Y52433631D01*
X117096841Y52849476D01*
X117194412Y53340000D01*
X117096841Y53830524D01*
X116818981Y54246369D01*
X116403136Y54524229D01*
X115971935Y54610000D01*
X116403136Y54695771D01*
X116818981Y54973631D01*
X117096841Y55389476D01*
X117194412Y55880000D01*
X117096841Y56370524D01*
X117009557Y56501154D01*
X123939177Y56501154D01*
X124047223Y56239664D01*
X124247112Y56039426D01*
X124508413Y55930924D01*
X124571369Y55930869D01*
X127493869Y53008368D01*
X127675157Y52887235D01*
X127889000Y52844700D01*
X132801038Y52844700D01*
X134162731Y51483007D01*
X134162677Y51421154D01*
X134270723Y51159664D01*
X134470612Y50959426D01*
X134731913Y50850924D01*
X135014846Y50850677D01*
X135276336Y50958723D01*
X135476574Y51158612D01*
X135585076Y51419913D01*
X135585323Y51702846D01*
X135477277Y51964336D01*
X135277388Y52164574D01*
X135016087Y52273076D01*
X134953131Y52273131D01*
X133773108Y53453154D01*
X135242177Y53453154D01*
X135350223Y53191664D01*
X135550112Y52991426D01*
X135681334Y52936938D01*
X135681335Y52936937D01*
X135681336Y52936937D01*
X135811413Y52882924D01*
X136094346Y52882677D01*
X136355836Y52990723D01*
X136556074Y53190612D01*
X136556197Y53190909D01*
X137218395Y53853106D01*
X137218397Y53853109D01*
X137472394Y54107105D01*
X137626563Y54337835D01*
X137645677Y54433927D01*
X137646967Y54440412D01*
X137647262Y54440854D01*
X137718800Y54800500D01*
X137718800Y63663383D01*
X154617388Y63663383D01*
X154626337Y63618387D01*
X154818382Y63178138D01*
X155164284Y62844893D01*
X155611383Y62669386D01*
X155803600Y62745510D01*
X155803600Y63855600D01*
X155854400Y63855600D01*
X155854400Y62745510D01*
X156046617Y62669386D01*
X156493716Y62844893D01*
X156839618Y63178138D01*
X157031663Y63618387D01*
X157040612Y63663383D01*
X156964466Y63855600D01*
X155854400Y63855600D01*
X155803600Y63855600D01*
X154693534Y63855600D01*
X154617388Y63663383D01*
X137718800Y63663383D01*
X137718800Y64098617D01*
X154617388Y64098617D01*
X154693534Y63906400D01*
X155803600Y63906400D01*
X155803600Y65016490D01*
X155854400Y65016490D01*
X155854400Y63906400D01*
X156964466Y63906400D01*
X157040612Y64098617D01*
X157031663Y64143613D01*
X156839618Y64583862D01*
X156493716Y64917107D01*
X156046617Y65092614D01*
X155854400Y65016490D01*
X155803600Y65016490D01*
X155611383Y65092614D01*
X155164284Y64917107D01*
X154818382Y64583862D01*
X154626337Y64143613D01*
X154617388Y64098617D01*
X137718800Y64098617D01*
X137718800Y65976500D01*
X137654383Y66300350D01*
X154598000Y66300350D01*
X154598000Y65495215D01*
X154656004Y65355181D01*
X154763180Y65248004D01*
X154903214Y65190000D01*
X155708350Y65190000D01*
X155803600Y65285250D01*
X155803600Y66395600D01*
X155854400Y66395600D01*
X155854400Y65285250D01*
X155949650Y65190000D01*
X156754786Y65190000D01*
X156894820Y65248004D01*
X157001996Y65355181D01*
X157060000Y65495215D01*
X157060000Y66300350D01*
X156964750Y66395600D01*
X155854400Y66395600D01*
X155803600Y66395600D01*
X154693250Y66395600D01*
X154598000Y66300350D01*
X137654383Y66300350D01*
X137647262Y66336146D01*
X137443539Y66641039D01*
X137138646Y66844762D01*
X136779000Y66916300D01*
X136419354Y66844762D01*
X136114461Y66641039D01*
X135910738Y66336146D01*
X135839200Y65976500D01*
X135839200Y54800500D01*
X135891464Y54537752D01*
X135450758Y54097046D01*
X135350926Y53997388D01*
X135242424Y53736087D01*
X135242177Y53453154D01*
X133773108Y53453154D01*
X133427631Y53798631D01*
X133346104Y53853106D01*
X133246344Y53919764D01*
X133032500Y53962300D01*
X128120463Y53962300D01*
X125567763Y56515000D01*
X126137588Y56515000D01*
X126235159Y56024476D01*
X126513019Y55608631D01*
X126928864Y55330771D01*
X127419388Y55233200D01*
X127469612Y55233200D01*
X127960136Y55330771D01*
X128375981Y55608631D01*
X128653841Y56024476D01*
X128751412Y56515000D01*
X128653841Y57005524D01*
X128375981Y57421369D01*
X127960136Y57699229D01*
X127469612Y57796800D01*
X127419388Y57796800D01*
X126928864Y57699229D01*
X126513019Y57421369D01*
X126235159Y57005524D01*
X126137588Y56515000D01*
X125567763Y56515000D01*
X125361769Y56720993D01*
X125361823Y56782846D01*
X125253777Y57044336D01*
X125053888Y57244574D01*
X124792587Y57353076D01*
X124509654Y57353323D01*
X124248164Y57245277D01*
X124047926Y57045388D01*
X123939424Y56784087D01*
X123939177Y56501154D01*
X117009557Y56501154D01*
X116818981Y56786369D01*
X116403136Y57064229D01*
X115971935Y57150000D01*
X116403136Y57235771D01*
X116818981Y57513631D01*
X117096841Y57929476D01*
X117194412Y58420000D01*
X117096841Y58910524D01*
X117080921Y58934350D01*
X126213500Y58934350D01*
X126213500Y58129215D01*
X126271504Y57989181D01*
X126378680Y57882004D01*
X126518714Y57824000D01*
X127323850Y57824000D01*
X127419100Y57919250D01*
X127419100Y59029600D01*
X127469900Y59029600D01*
X127469900Y57919250D01*
X127565150Y57824000D01*
X128370286Y57824000D01*
X128510320Y57882004D01*
X128617496Y57989181D01*
X128675500Y58129215D01*
X128675500Y58934350D01*
X128580250Y59029600D01*
X127469900Y59029600D01*
X127419100Y59029600D01*
X126308750Y59029600D01*
X126213500Y58934350D01*
X117080921Y58934350D01*
X116818981Y59326369D01*
X116403136Y59604229D01*
X115912612Y59701800D01*
X115862388Y59701800D01*
X115371864Y59604229D01*
X114956019Y59326369D01*
X114678159Y58910524D01*
X114580588Y58420000D01*
X114678159Y57929476D01*
X114956019Y57513631D01*
X115371864Y57235771D01*
X115803065Y57150000D01*
X115371864Y57064229D01*
X114956019Y56786369D01*
X114678159Y56370524D01*
X114580588Y55880000D01*
X114678159Y55389476D01*
X114956019Y54973631D01*
X115371864Y54695771D01*
X115803065Y54610000D01*
X115371864Y54524229D01*
X114956019Y54246369D01*
X114678159Y53830524D01*
X114580588Y53340000D01*
X114678159Y52849476D01*
X114956019Y52433631D01*
X115371864Y52155771D01*
X115803065Y52070000D01*
X115371864Y51984229D01*
X114956019Y51706369D01*
X114825611Y51511200D01*
X110617375Y51511200D01*
X110588150Y51666515D01*
X110493581Y51813480D01*
X110349285Y51912073D01*
X110178000Y51946759D01*
X109278000Y51946759D01*
X109117985Y51916650D01*
X108971020Y51822081D01*
X108872427Y51677785D01*
X108837741Y51506500D01*
X108837741Y51006500D01*
X108867850Y50846485D01*
X108917679Y50769047D01*
X108660215Y50511583D01*
X108660522Y50863347D01*
X108465791Y51334633D01*
X108105529Y51695524D01*
X107661955Y51879712D01*
X108103633Y52062209D01*
X108464524Y52422471D01*
X108660077Y52893416D01*
X108660522Y53403347D01*
X108591684Y53569948D01*
X108917654Y53243978D01*
X108872427Y53177785D01*
X108837741Y53006500D01*
X108837741Y52506500D01*
X108867850Y52346485D01*
X108962419Y52199520D01*
X109106715Y52100927D01*
X109278000Y52066241D01*
X110178000Y52066241D01*
X110338015Y52096350D01*
X110484980Y52190919D01*
X110583573Y52335215D01*
X110618259Y52506500D01*
X110618259Y53006500D01*
X110588150Y53166515D01*
X110493581Y53313480D01*
X110413800Y53367992D01*
X110413800Y53403500D01*
X110361597Y53665944D01*
X110212934Y53888434D01*
X108668759Y55432609D01*
X108668759Y56539500D01*
X108638650Y56699515D01*
X108544081Y56846480D01*
X108399785Y56945073D01*
X108318300Y56961574D01*
X108318300Y58983222D01*
X110077461Y60742383D01*
X114675888Y60742383D01*
X114684837Y60697387D01*
X114876882Y60257138D01*
X115222784Y59923893D01*
X115669883Y59748386D01*
X115862100Y59824510D01*
X115862100Y60934600D01*
X115912900Y60934600D01*
X115912900Y59824510D01*
X116105117Y59748386D01*
X116552216Y59923893D01*
X116611268Y59980785D01*
X126213500Y59980785D01*
X126213500Y59175650D01*
X126308750Y59080400D01*
X127419100Y59080400D01*
X127419100Y60190750D01*
X127469900Y60190750D01*
X127469900Y59080400D01*
X128580250Y59080400D01*
X128675500Y59175650D01*
X128675500Y59980785D01*
X128617496Y60120819D01*
X128510320Y60227996D01*
X128370286Y60286000D01*
X127565150Y60286000D01*
X127469900Y60190750D01*
X127419100Y60190750D01*
X127323850Y60286000D01*
X126518714Y60286000D01*
X126378680Y60227996D01*
X126271504Y60120819D01*
X126213500Y59980785D01*
X116611268Y59980785D01*
X116898118Y60257138D01*
X117090163Y60697387D01*
X117099112Y60742383D01*
X117022966Y60934600D01*
X115912900Y60934600D01*
X115862100Y60934600D01*
X114752034Y60934600D01*
X114675888Y60742383D01*
X110077461Y60742383D01*
X110512695Y61177617D01*
X114675888Y61177617D01*
X114752034Y60985400D01*
X115862100Y60985400D01*
X115862100Y62095490D01*
X115912900Y62095490D01*
X115912900Y60985400D01*
X117022966Y60985400D01*
X117099112Y61177617D01*
X117090163Y61222613D01*
X116898118Y61662862D01*
X116552216Y61996107D01*
X116105117Y62171614D01*
X115912900Y62095490D01*
X115862100Y62095490D01*
X115669883Y62171614D01*
X115222784Y61996107D01*
X114876882Y61662862D01*
X114684837Y61222613D01*
X114675888Y61177617D01*
X110512695Y61177617D01*
X114647039Y65311961D01*
X114850762Y65616854D01*
X114922300Y65976500D01*
X114850762Y66336146D01*
X114647039Y66641039D01*
X114342146Y66844762D01*
X113982500Y66916300D01*
X113622854Y66844762D01*
X113317961Y66641039D01*
X111497722Y64820800D01*
X103370448Y64820800D01*
X103004636Y65065229D01*
X102675284Y65130741D01*
X103339000Y65130741D01*
X103499015Y65160850D01*
X103645980Y65255419D01*
X103744573Y65399715D01*
X103779259Y65571000D01*
X103779259Y67271000D01*
X103765000Y67346785D01*
X154598000Y67346785D01*
X154598000Y66541650D01*
X154693250Y66446400D01*
X155803600Y66446400D01*
X155803600Y67556750D01*
X155854400Y67556750D01*
X155854400Y66446400D01*
X156964750Y66446400D01*
X157060000Y66541650D01*
X157060000Y67346785D01*
X157001996Y67486819D01*
X156894820Y67593996D01*
X156754786Y67652000D01*
X155949650Y67652000D01*
X155854400Y67556750D01*
X155803600Y67556750D01*
X155708350Y67652000D01*
X154903214Y67652000D01*
X154763180Y67593996D01*
X154656004Y67486819D01*
X154598000Y67346785D01*
X103765000Y67346785D01*
X103749150Y67431015D01*
X103654581Y67577980D01*
X103510285Y67676573D01*
X103339000Y67711259D01*
X101639000Y67711259D01*
X101478985Y67681150D01*
X101332020Y67586581D01*
X101233427Y67442285D01*
X101198741Y67271000D01*
X101198741Y65571000D01*
X101228850Y65410985D01*
X101323419Y65264020D01*
X101467715Y65165427D01*
X101639000Y65130741D01*
X102302716Y65130741D01*
X101973364Y65065229D01*
X101557519Y64787369D01*
X101279659Y64371524D01*
X101182088Y63881000D01*
X100076000Y63881000D01*
X100076000Y68834000D01*
X158242000Y68834000D01*
X158242000Y14478000D01*
D27*
G36*
X88506300Y68929436D02*
X88506300Y14382564D01*
X74199936Y76200D01*
X76200Y76200D01*
X76200Y56197500D01*
X381000Y56197500D01*
X381000Y3429000D01*
X448671Y3088794D01*
X641382Y2800382D01*
X2736013Y705751D01*
X2863882Y514382D01*
X3152294Y321671D01*
X3492500Y254000D01*
X70231000Y254000D01*
X70571206Y321671D01*
X70859618Y514382D01*
X74668749Y4323513D01*
X74860118Y4451382D01*
X86069262Y15660526D01*
X86537700Y15753704D01*
X86937065Y16020552D01*
X87203913Y16419917D01*
X87297617Y16891000D01*
X87203913Y17362083D01*
X86937065Y17761448D01*
X86931500Y17765166D01*
X86931500Y18199874D01*
X87033690Y18219103D01*
X87163365Y18302546D01*
X87250359Y18429866D01*
X87280964Y18581000D01*
X87280964Y20281000D01*
X87254397Y20422190D01*
X87170954Y20551865D01*
X87043634Y20638859D01*
X86892500Y20669464D01*
X85192500Y20669464D01*
X85051310Y20642897D01*
X84921635Y20559454D01*
X84834641Y20432134D01*
X84804036Y20281000D01*
X84804036Y18581000D01*
X84830603Y18439810D01*
X84914046Y18310135D01*
X85041366Y18223141D01*
X85153500Y18200434D01*
X85153500Y17765166D01*
X85147935Y17761448D01*
X84881087Y17362083D01*
X84787909Y16893645D01*
X73863264Y5969000D01*
X69811126Y5969000D01*
X69791897Y6071190D01*
X69708454Y6200865D01*
X69581134Y6287859D01*
X69469000Y6310566D01*
X69469000Y29248874D01*
X69571190Y29268103D01*
X69700865Y29351546D01*
X69787859Y29478866D01*
X69818464Y29630000D01*
X69818464Y31330000D01*
X69791897Y31471190D01*
X69708454Y31600865D01*
X69581134Y31687859D01*
X69430000Y31718464D01*
X67730000Y31718464D01*
X67588810Y31691897D01*
X67459135Y31608454D01*
X67372141Y31481134D01*
X67341536Y31330000D01*
X67341536Y29630000D01*
X67368103Y29488810D01*
X67451546Y29359135D01*
X67578866Y29272141D01*
X67691000Y29249434D01*
X67691000Y6311126D01*
X67588810Y6291897D01*
X67459135Y6208454D01*
X67372141Y6081134D01*
X67341536Y5930000D01*
X67341536Y4230000D01*
X67368103Y4088810D01*
X67451546Y3959135D01*
X67578866Y3872141D01*
X67730000Y3841536D01*
X69430000Y3841536D01*
X69571190Y3868103D01*
X69700865Y3951546D01*
X69787859Y4078866D01*
X69810566Y4191000D01*
X72021764Y4191000D01*
X69862764Y2032000D01*
X46926500Y2032000D01*
X46926500Y4845372D01*
X54723353Y4845372D01*
X54901186Y4420602D01*
X55228034Y4096220D01*
X55645373Y3923358D01*
X55829200Y3983526D01*
X55829200Y5029200D01*
X55930800Y5029200D01*
X55930800Y3983526D01*
X56114627Y3923358D01*
X56531966Y4096220D01*
X56858814Y4420602D01*
X57036647Y4845372D01*
X56976561Y5029200D01*
X55930800Y5029200D01*
X55829200Y5029200D01*
X54783439Y5029200D01*
X54723353Y4845372D01*
X46926500Y4845372D01*
X46926500Y5314628D01*
X54723353Y5314628D01*
X54783439Y5130800D01*
X55829200Y5130800D01*
X55829200Y6176474D01*
X55930800Y6176474D01*
X55930800Y5130800D01*
X56976561Y5130800D01*
X57036647Y5314628D01*
X56858814Y5739398D01*
X56531966Y6063780D01*
X56114627Y6236642D01*
X55930800Y6176474D01*
X55829200Y6176474D01*
X55645373Y6236642D01*
X55228034Y6063780D01*
X54901186Y5739398D01*
X54723353Y5314628D01*
X46926500Y5314628D01*
X46926500Y15342374D01*
X47028690Y15361603D01*
X47158365Y15445046D01*
X47245359Y15572366D01*
X47275964Y15723500D01*
X47275964Y17423500D01*
X47249397Y17564690D01*
X47165954Y17694365D01*
X47038634Y17781359D01*
X46887500Y17811964D01*
X45187500Y17811964D01*
X45046310Y17785397D01*
X44916635Y17701954D01*
X44829641Y17574634D01*
X44799036Y17423500D01*
X44799036Y15723500D01*
X44825603Y15582310D01*
X44909046Y15452635D01*
X45036366Y15365641D01*
X45148500Y15342934D01*
X45148500Y2032000D01*
X25336500Y2032000D01*
X25336500Y16656373D01*
X31545858Y16656373D01*
X31718720Y16239034D01*
X32043102Y15912186D01*
X32467872Y15734353D01*
X32651700Y15794439D01*
X32651700Y16840200D01*
X32753300Y16840200D01*
X32753300Y15794439D01*
X32937128Y15734353D01*
X33361898Y15912186D01*
X33686280Y16239034D01*
X33859142Y16656373D01*
X33798974Y16840200D01*
X32753300Y16840200D01*
X32651700Y16840200D01*
X31606026Y16840200D01*
X31545858Y16656373D01*
X25336500Y16656373D01*
X25336500Y17125627D01*
X31545858Y17125627D01*
X31606026Y16941800D01*
X32651700Y16941800D01*
X32651700Y17987561D01*
X32753300Y17987561D01*
X32753300Y16941800D01*
X33798974Y16941800D01*
X33859142Y17125627D01*
X33686280Y17542966D01*
X33361898Y17869814D01*
X32937128Y18047647D01*
X32753300Y17987561D01*
X32651700Y17987561D01*
X32467872Y18047647D01*
X32043102Y17869814D01*
X31718720Y17542966D01*
X31545858Y17125627D01*
X25336500Y17125627D01*
X25336500Y19297650D01*
X31522300Y19297650D01*
X31522300Y18515319D01*
X31572570Y18393957D01*
X31665457Y18301070D01*
X31786819Y18250800D01*
X32569150Y18250800D01*
X32651700Y18333350D01*
X32651700Y19380200D01*
X32753300Y19380200D01*
X32753300Y18333350D01*
X32835850Y18250800D01*
X33618181Y18250800D01*
X33739543Y18301070D01*
X33832430Y18393957D01*
X33882700Y18515319D01*
X33882700Y19113500D01*
X44782383Y19113500D01*
X44876087Y18642417D01*
X45142935Y18243052D01*
X45542300Y17976204D01*
X46013383Y17882500D01*
X46061617Y17882500D01*
X46532700Y17976204D01*
X46932065Y18243052D01*
X47198913Y18642417D01*
X47292617Y19113500D01*
X47198913Y19584583D01*
X46932065Y19983948D01*
X46532700Y20250796D01*
X46061617Y20344500D01*
X46013383Y20344500D01*
X45542300Y20250796D01*
X45142935Y19983948D01*
X44876087Y19584583D01*
X44782383Y19113500D01*
X33882700Y19113500D01*
X33882700Y19297650D01*
X33800150Y19380200D01*
X32753300Y19380200D01*
X32651700Y19380200D01*
X31604850Y19380200D01*
X31522300Y19297650D01*
X25336500Y19297650D01*
X25336500Y20346681D01*
X31522300Y20346681D01*
X31522300Y19564350D01*
X31604850Y19481800D01*
X32651700Y19481800D01*
X32651700Y20528650D01*
X32753300Y20528650D01*
X32753300Y19481800D01*
X33800150Y19481800D01*
X33882700Y19564350D01*
X33882700Y20346681D01*
X33832430Y20468043D01*
X33739543Y20560930D01*
X33618181Y20611200D01*
X32835850Y20611200D01*
X32753300Y20528650D01*
X32651700Y20528650D01*
X32569150Y20611200D01*
X31786819Y20611200D01*
X31665457Y20560930D01*
X31572570Y20468043D01*
X31522300Y20346681D01*
X25336500Y20346681D01*
X25336500Y21653500D01*
X44782383Y21653500D01*
X44876087Y21182417D01*
X45142935Y20783052D01*
X45542300Y20516204D01*
X46013383Y20422500D01*
X46061617Y20422500D01*
X46532700Y20516204D01*
X46932065Y20783052D01*
X47198913Y21182417D01*
X47292617Y21653500D01*
X47198913Y22124583D01*
X46932065Y22523948D01*
X46532700Y22790796D01*
X46061617Y22884500D01*
X46013383Y22884500D01*
X45542300Y22790796D01*
X45142935Y22523948D01*
X44876087Y22124583D01*
X44782383Y21653500D01*
X25336500Y21653500D01*
X25336500Y24193500D01*
X44782383Y24193500D01*
X44876087Y23722417D01*
X45142935Y23323052D01*
X45542300Y23056204D01*
X46013383Y22962500D01*
X46061617Y22962500D01*
X46532700Y23056204D01*
X46932065Y23323052D01*
X47198913Y23722417D01*
X47292617Y24193500D01*
X47198913Y24664583D01*
X46932065Y25063948D01*
X46532700Y25330796D01*
X46061617Y25424500D01*
X46013383Y25424500D01*
X45542300Y25330796D01*
X45142935Y25063948D01*
X44876087Y24664583D01*
X44782383Y24193500D01*
X25336500Y24193500D01*
X25336500Y26733500D01*
X44782383Y26733500D01*
X44876087Y26262417D01*
X45142935Y25863052D01*
X45542300Y25596204D01*
X46013383Y25502500D01*
X46061617Y25502500D01*
X46532700Y25596204D01*
X46932065Y25863052D01*
X47198913Y26262417D01*
X47292617Y26733500D01*
X47198913Y27204583D01*
X46932065Y27603948D01*
X46532700Y27870796D01*
X46061617Y27964500D01*
X46013383Y27964500D01*
X45542300Y27870796D01*
X45142935Y27603948D01*
X44876087Y27204583D01*
X44782383Y26733500D01*
X25336500Y26733500D01*
X25336500Y27978874D01*
X25438690Y27998103D01*
X25568365Y28081546D01*
X25655359Y28208866D01*
X25685964Y28360000D01*
X25685964Y29273500D01*
X44782383Y29273500D01*
X44876087Y28802417D01*
X45142935Y28403052D01*
X45542300Y28136204D01*
X46013383Y28042500D01*
X46061617Y28042500D01*
X46532700Y28136204D01*
X46932065Y28403052D01*
X47198913Y28802417D01*
X47292617Y29273500D01*
X47198913Y29744583D01*
X46932065Y30143948D01*
X46780274Y30245372D01*
X54723353Y30245372D01*
X54901186Y29820602D01*
X55228034Y29496220D01*
X55645373Y29323358D01*
X55829200Y29383526D01*
X55829200Y30429200D01*
X55930800Y30429200D01*
X55930800Y29383526D01*
X56114627Y29323358D01*
X56531966Y29496220D01*
X56858814Y29820602D01*
X57036647Y30245372D01*
X56976561Y30429200D01*
X55930800Y30429200D01*
X55829200Y30429200D01*
X54783439Y30429200D01*
X54723353Y30245372D01*
X46780274Y30245372D01*
X46532700Y30410796D01*
X46063543Y30504117D01*
X57189000Y30504117D01*
X57189000Y30455883D01*
X57282704Y29984800D01*
X57531000Y29613200D01*
X57531000Y5946800D01*
X57282704Y5575200D01*
X57189000Y5104117D01*
X57189000Y5055883D01*
X57282704Y4584800D01*
X57549552Y4185435D01*
X57948917Y3918587D01*
X58420000Y3824883D01*
X58891083Y3918587D01*
X59290448Y4185435D01*
X59557296Y4584800D01*
X59651000Y5055883D01*
X59651000Y5104117D01*
X59557296Y5575200D01*
X59309000Y5946800D01*
X59309000Y29613200D01*
X59557296Y29984800D01*
X59651000Y30455883D01*
X59651000Y30504117D01*
X59729000Y30504117D01*
X59729000Y30455883D01*
X59822704Y29984800D01*
X60071000Y29613200D01*
X60071000Y5946800D01*
X59822704Y5575200D01*
X59729000Y5104117D01*
X59729000Y5055883D01*
X59822704Y4584800D01*
X60089552Y4185435D01*
X60488917Y3918587D01*
X60960000Y3824883D01*
X61431083Y3918587D01*
X61830448Y4185435D01*
X62097296Y4584800D01*
X62191000Y5055883D01*
X62191000Y5104117D01*
X62097296Y5575200D01*
X61849000Y5946800D01*
X61849000Y29613200D01*
X62097296Y29984800D01*
X62191000Y30455883D01*
X62191000Y30504117D01*
X62269000Y30504117D01*
X62269000Y30455883D01*
X62362704Y29984800D01*
X62611000Y29613200D01*
X62611000Y5946800D01*
X62362704Y5575200D01*
X62269000Y5104117D01*
X62269000Y5055883D01*
X62362704Y4584800D01*
X62629552Y4185435D01*
X63028917Y3918587D01*
X63500000Y3824883D01*
X63971083Y3918587D01*
X64370448Y4185435D01*
X64637296Y4584800D01*
X64731000Y5055883D01*
X64731000Y5104117D01*
X64637296Y5575200D01*
X64389000Y5946800D01*
X64389000Y29613200D01*
X64637296Y29984800D01*
X64731000Y30455883D01*
X64731000Y30504117D01*
X64809000Y30504117D01*
X64809000Y30455883D01*
X64902704Y29984800D01*
X65151000Y29613200D01*
X65151000Y5946800D01*
X64902704Y5575200D01*
X64809000Y5104117D01*
X64809000Y5055883D01*
X64902704Y4584800D01*
X65169552Y4185435D01*
X65568917Y3918587D01*
X66040000Y3824883D01*
X66511083Y3918587D01*
X66910448Y4185435D01*
X67177296Y4584800D01*
X67271000Y5055883D01*
X67271000Y5104117D01*
X67177296Y5575200D01*
X66929000Y5946800D01*
X66929000Y29613200D01*
X67177296Y29984800D01*
X67271000Y30455883D01*
X67271000Y30504117D01*
X67177296Y30975200D01*
X66910448Y31374565D01*
X66511083Y31641413D01*
X66040000Y31735117D01*
X65568917Y31641413D01*
X65169552Y31374565D01*
X64902704Y30975200D01*
X64809000Y30504117D01*
X64731000Y30504117D01*
X64637296Y30975200D01*
X64370448Y31374565D01*
X63971083Y31641413D01*
X63500000Y31735117D01*
X63028917Y31641413D01*
X62629552Y31374565D01*
X62362704Y30975200D01*
X62269000Y30504117D01*
X62191000Y30504117D01*
X62097296Y30975200D01*
X61830448Y31374565D01*
X61431083Y31641413D01*
X60960000Y31735117D01*
X60488917Y31641413D01*
X60089552Y31374565D01*
X59822704Y30975200D01*
X59729000Y30504117D01*
X59651000Y30504117D01*
X59557296Y30975200D01*
X59290448Y31374565D01*
X58891083Y31641413D01*
X58420000Y31735117D01*
X57948917Y31641413D01*
X57549552Y31374565D01*
X57282704Y30975200D01*
X57189000Y30504117D01*
X46063543Y30504117D01*
X46061617Y30504500D01*
X46013383Y30504500D01*
X45542300Y30410796D01*
X45142935Y30143948D01*
X44876087Y29744583D01*
X44782383Y29273500D01*
X25685964Y29273500D01*
X25685964Y30060000D01*
X25659397Y30201190D01*
X25575954Y30330865D01*
X25448634Y30417859D01*
X25297500Y30448464D01*
X23597500Y30448464D01*
X23456310Y30421897D01*
X23326635Y30338454D01*
X23239641Y30211134D01*
X23209036Y30060000D01*
X23209036Y28360000D01*
X23235603Y28218810D01*
X23319046Y28089135D01*
X23446366Y28002141D01*
X23558500Y27979434D01*
X23558500Y2032000D01*
X12154600Y2032000D01*
X12154600Y9017000D01*
X12132664Y9127280D01*
X12132664Y9467000D01*
X12106097Y9608190D01*
X12022654Y9737865D01*
X11895334Y9824859D01*
X11744200Y9855464D01*
X11244200Y9855464D01*
X11103010Y9828897D01*
X10973335Y9745454D01*
X10886341Y9618134D01*
X10855736Y9467000D01*
X10855736Y9127280D01*
X10833800Y9017000D01*
X10833800Y2032000D01*
X3924236Y2032000D01*
X2159000Y3797236D01*
X2159000Y5890042D01*
X3421884Y5890042D01*
X3456393Y5762535D01*
X3725602Y5660254D01*
X4013461Y5668780D01*
X4239807Y5762535D01*
X4274316Y5890042D01*
X3848100Y6316258D01*
X3421884Y5890042D01*
X2159000Y5890042D01*
X2159000Y6510598D01*
X3120254Y6510598D01*
X3128780Y6222739D01*
X3222535Y5996393D01*
X3350042Y5961884D01*
X3776258Y6388100D01*
X3919942Y6388100D01*
X4346158Y5961884D01*
X4469800Y5995347D01*
X4469800Y5972819D01*
X4520070Y5851457D01*
X4612957Y5758570D01*
X4734319Y5708300D01*
X5266650Y5708300D01*
X5349200Y5790850D01*
X5349200Y6362700D01*
X5329200Y6362700D01*
X5329200Y6464300D01*
X5349200Y6464300D01*
X5349200Y7036150D01*
X5450800Y7036150D01*
X5450800Y6464300D01*
X5470800Y6464300D01*
X5470800Y6362700D01*
X5450800Y6362700D01*
X5450800Y5790850D01*
X5533350Y5708300D01*
X6065681Y5708300D01*
X6187043Y5758570D01*
X6279930Y5851457D01*
X6325864Y5962352D01*
X6338103Y5897310D01*
X6421546Y5767635D01*
X6548866Y5680641D01*
X6700000Y5650036D01*
X7900000Y5650036D01*
X8041190Y5676603D01*
X8120598Y5727700D01*
X8422186Y5727700D01*
X8697127Y5613535D01*
X9005321Y5613266D01*
X9290159Y5730959D01*
X9508276Y5948695D01*
X9626465Y6233327D01*
X9626734Y6541521D01*
X9512300Y6818472D01*
X9512300Y8264326D01*
X9593066Y8209141D01*
X9744200Y8178536D01*
X10244200Y8178536D01*
X10385390Y8205103D01*
X10515065Y8288546D01*
X10602059Y8415866D01*
X10632664Y8567000D01*
X10632664Y8906720D01*
X10654600Y9017000D01*
X10632664Y9127280D01*
X10632664Y9467000D01*
X10606097Y9608190D01*
X10522654Y9737865D01*
X10395334Y9824859D01*
X10244200Y9855464D01*
X9744200Y9855464D01*
X9603010Y9828897D01*
X9512300Y9770527D01*
X9512300Y10962186D01*
X9626465Y11237127D01*
X9626734Y11545321D01*
X9509041Y11830159D01*
X9291305Y12048276D01*
X9006673Y12166465D01*
X8698479Y12166734D01*
X8413641Y12049041D01*
X8195524Y11831305D01*
X8077335Y11546673D01*
X8077066Y11238479D01*
X8191500Y10961528D01*
X8191500Y7048500D01*
X8185445Y7048500D01*
X8178454Y7059365D01*
X8051134Y7146359D01*
X7900000Y7176964D01*
X6700000Y7176964D01*
X6558810Y7150397D01*
X6429135Y7066954D01*
X6342141Y6939634D01*
X6326598Y6862878D01*
X6279930Y6975543D01*
X6187043Y7068430D01*
X6065681Y7118700D01*
X5533350Y7118700D01*
X5450800Y7036150D01*
X5349200Y7036150D01*
X5266650Y7118700D01*
X4734319Y7118700D01*
X4612957Y7068430D01*
X4520070Y6975543D01*
X4469800Y6854181D01*
X4469800Y6780853D01*
X4346158Y6814316D01*
X3919942Y6388100D01*
X3776258Y6388100D01*
X3350042Y6814316D01*
X3222535Y6779807D01*
X3120254Y6510598D01*
X2159000Y6510598D01*
X2159000Y6886158D01*
X3421884Y6886158D01*
X3848100Y6459942D01*
X4274316Y6886158D01*
X4239807Y7013665D01*
X3970598Y7115946D01*
X3682739Y7107420D01*
X3456393Y7013665D01*
X3421884Y6886158D01*
X2159000Y6886158D01*
X2159000Y10893842D01*
X3421884Y10893842D01*
X3456393Y10766335D01*
X3725602Y10664054D01*
X4013461Y10672580D01*
X4239807Y10766335D01*
X4274316Y10893842D01*
X3848100Y11320058D01*
X3421884Y10893842D01*
X2159000Y10893842D01*
X2159000Y11514398D01*
X3120254Y11514398D01*
X3128780Y11226539D01*
X3222535Y11000193D01*
X3350042Y10965684D01*
X3776258Y11391900D01*
X3919942Y11391900D01*
X4346158Y10965684D01*
X4473665Y11000193D01*
X4575946Y11269402D01*
X4567420Y11557261D01*
X4473665Y11783607D01*
X4346158Y11818116D01*
X3919942Y11391900D01*
X3776258Y11391900D01*
X3350042Y11818116D01*
X3222535Y11783607D01*
X3120254Y11514398D01*
X2159000Y11514398D01*
X2159000Y11889958D01*
X3421884Y11889958D01*
X3848100Y11463742D01*
X4274316Y11889958D01*
X4239807Y12017465D01*
X3970598Y12119746D01*
X3682739Y12111220D01*
X3456393Y12017465D01*
X3421884Y11889958D01*
X2159000Y11889958D01*
X2159000Y31750000D01*
X23192383Y31750000D01*
X23286087Y31278917D01*
X23552935Y30879552D01*
X23952300Y30612704D01*
X24423383Y30519000D01*
X24471617Y30519000D01*
X24942700Y30612704D01*
X25342065Y30879552D01*
X25608913Y31278917D01*
X25702617Y31750000D01*
X25689987Y31813500D01*
X44782383Y31813500D01*
X44876087Y31342417D01*
X45142935Y30943052D01*
X45542300Y30676204D01*
X46013383Y30582500D01*
X46061617Y30582500D01*
X46532700Y30676204D01*
X46590205Y30714628D01*
X54723353Y30714628D01*
X54783439Y30530800D01*
X55829200Y30530800D01*
X55829200Y31576474D01*
X55930800Y31576474D01*
X55930800Y30530800D01*
X56976561Y30530800D01*
X57036647Y30714628D01*
X56858814Y31139398D01*
X56531966Y31463780D01*
X56114627Y31636642D01*
X55930800Y31576474D01*
X55829200Y31576474D01*
X55645373Y31636642D01*
X55228034Y31463780D01*
X54901186Y31139398D01*
X54723353Y30714628D01*
X46590205Y30714628D01*
X46932065Y30943052D01*
X47198913Y31342417D01*
X47292617Y31813500D01*
X47198913Y32284583D01*
X46932065Y32683948D01*
X46532700Y32950796D01*
X46061617Y33044500D01*
X46013383Y33044500D01*
X45542300Y32950796D01*
X45142935Y32683948D01*
X44876087Y32284583D01*
X44782383Y31813500D01*
X25689987Y31813500D01*
X25608913Y32221083D01*
X25342065Y32620448D01*
X24942700Y32887296D01*
X24471617Y32981000D01*
X24423383Y32981000D01*
X23952300Y32887296D01*
X23552935Y32620448D01*
X23286087Y32221083D01*
X23192383Y31750000D01*
X2159000Y31750000D01*
X2159000Y34290000D01*
X23192383Y34290000D01*
X23286087Y33818917D01*
X23552935Y33419552D01*
X23952300Y33152704D01*
X24423383Y33059000D01*
X24471617Y33059000D01*
X24942700Y33152704D01*
X25342065Y33419552D01*
X25608913Y33818917D01*
X25668577Y34118873D01*
X44880858Y34118873D01*
X45053720Y33701534D01*
X45378102Y33374686D01*
X45802872Y33196853D01*
X45986700Y33256939D01*
X45986700Y34302700D01*
X46088300Y34302700D01*
X46088300Y33256939D01*
X46272128Y33196853D01*
X46696898Y33374686D01*
X47021280Y33701534D01*
X47194142Y34118873D01*
X47133974Y34302700D01*
X46088300Y34302700D01*
X45986700Y34302700D01*
X44941026Y34302700D01*
X44880858Y34118873D01*
X25668577Y34118873D01*
X25702617Y34290000D01*
X25643317Y34588127D01*
X44880858Y34588127D01*
X44941026Y34404300D01*
X45986700Y34404300D01*
X45986700Y35450061D01*
X46088300Y35450061D01*
X46088300Y34404300D01*
X47133974Y34404300D01*
X47194142Y34588127D01*
X47021280Y35005466D01*
X46696898Y35332314D01*
X46272128Y35510147D01*
X46088300Y35450061D01*
X45986700Y35450061D01*
X45802872Y35510147D01*
X45378102Y35332314D01*
X45053720Y35005466D01*
X44880858Y34588127D01*
X25643317Y34588127D01*
X25608913Y34761083D01*
X25342065Y35160448D01*
X24942700Y35427296D01*
X24471617Y35521000D01*
X24423383Y35521000D01*
X23952300Y35427296D01*
X23552935Y35160448D01*
X23286087Y34761083D01*
X23192383Y34290000D01*
X2159000Y34290000D01*
X2159000Y36830000D01*
X23192383Y36830000D01*
X23286087Y36358917D01*
X23552935Y35959552D01*
X23952300Y35692704D01*
X24423383Y35599000D01*
X24471617Y35599000D01*
X24942700Y35692704D01*
X25342065Y35959552D01*
X25608913Y36358917D01*
X25702617Y36830000D01*
X25608913Y37301083D01*
X25342065Y37700448D01*
X24942700Y37967296D01*
X24471617Y38061000D01*
X24423383Y38061000D01*
X23952300Y37967296D01*
X23552935Y37700448D01*
X23286087Y37301083D01*
X23192383Y36830000D01*
X2159000Y36830000D01*
X2159000Y39370000D01*
X23192383Y39370000D01*
X23286087Y38898917D01*
X23552935Y38499552D01*
X23952300Y38232704D01*
X24423383Y38139000D01*
X24471617Y38139000D01*
X24942700Y38232704D01*
X25342065Y38499552D01*
X25608913Y38898917D01*
X25619074Y38950000D01*
X44799036Y38950000D01*
X44799036Y37250000D01*
X44825603Y37108810D01*
X44909046Y36979135D01*
X45036366Y36892141D01*
X45187500Y36861536D01*
X46887500Y36861536D01*
X47028690Y36888103D01*
X47158365Y36971546D01*
X47245359Y37098866D01*
X47275964Y37250000D01*
X47275964Y38950000D01*
X47249397Y39091190D01*
X47165954Y39220865D01*
X47038634Y39307859D01*
X46887500Y39338464D01*
X45187500Y39338464D01*
X45046310Y39311897D01*
X44916635Y39228454D01*
X44829641Y39101134D01*
X44799036Y38950000D01*
X25619074Y38950000D01*
X25702617Y39370000D01*
X25608913Y39841083D01*
X25342065Y40240448D01*
X24942700Y40507296D01*
X24471617Y40601000D01*
X24423383Y40601000D01*
X23952300Y40507296D01*
X23552935Y40240448D01*
X23286087Y39841083D01*
X23192383Y39370000D01*
X2159000Y39370000D01*
X2159000Y40640000D01*
X44782383Y40640000D01*
X44876087Y40168917D01*
X45142935Y39769552D01*
X45542300Y39502704D01*
X46013383Y39409000D01*
X46061617Y39409000D01*
X46532700Y39502704D01*
X46932065Y39769552D01*
X47198913Y40168917D01*
X47292617Y40640000D01*
X47198913Y41111083D01*
X46932065Y41510448D01*
X46532700Y41777296D01*
X46061617Y41871000D01*
X46013383Y41871000D01*
X45542300Y41777296D01*
X45142935Y41510448D01*
X44876087Y41111083D01*
X44782383Y40640000D01*
X2159000Y40640000D01*
X2159000Y41910000D01*
X23192383Y41910000D01*
X23286087Y41438917D01*
X23552935Y41039552D01*
X23952300Y40772704D01*
X24423383Y40679000D01*
X24471617Y40679000D01*
X24942700Y40772704D01*
X25342065Y41039552D01*
X25608913Y41438917D01*
X25702617Y41910000D01*
X25608913Y42381083D01*
X25342065Y42780448D01*
X24942700Y43047296D01*
X24471617Y43141000D01*
X24423383Y43141000D01*
X23952300Y43047296D01*
X23552935Y42780448D01*
X23286087Y42381083D01*
X23192383Y41910000D01*
X2159000Y41910000D01*
X2159000Y43180000D01*
X44782383Y43180000D01*
X44876087Y42708917D01*
X45142935Y42309552D01*
X45542300Y42042704D01*
X46013383Y41949000D01*
X46061617Y41949000D01*
X46532700Y42042704D01*
X46932065Y42309552D01*
X47198913Y42708917D01*
X47292617Y43180000D01*
X47198913Y43651083D01*
X46932065Y44050448D01*
X46532700Y44317296D01*
X46061617Y44411000D01*
X46013383Y44411000D01*
X45542300Y44317296D01*
X45142935Y44050448D01*
X44876087Y43651083D01*
X44782383Y43180000D01*
X2159000Y43180000D01*
X2159000Y44450000D01*
X23192383Y44450000D01*
X23286087Y43978917D01*
X23552935Y43579552D01*
X23952300Y43312704D01*
X24423383Y43219000D01*
X24471617Y43219000D01*
X24942700Y43312704D01*
X25342065Y43579552D01*
X25608913Y43978917D01*
X25702617Y44450000D01*
X25608913Y44921083D01*
X25342065Y45320448D01*
X24942700Y45587296D01*
X24471617Y45681000D01*
X24423383Y45681000D01*
X23952300Y45587296D01*
X23552935Y45320448D01*
X23286087Y44921083D01*
X23192383Y44450000D01*
X2159000Y44450000D01*
X2159000Y45720000D01*
X44782383Y45720000D01*
X44876087Y45248917D01*
X45142935Y44849552D01*
X45542300Y44582704D01*
X46013383Y44489000D01*
X46061617Y44489000D01*
X46532700Y44582704D01*
X46932065Y44849552D01*
X47198913Y45248917D01*
X47292617Y45720000D01*
X47198913Y46191083D01*
X46932065Y46590448D01*
X46532700Y46857296D01*
X46061617Y46951000D01*
X46013383Y46951000D01*
X45542300Y46857296D01*
X45142935Y46590448D01*
X44876087Y46191083D01*
X44782383Y45720000D01*
X2159000Y45720000D01*
X2159000Y46755373D01*
X23290858Y46755373D01*
X23463720Y46338034D01*
X23788102Y46011186D01*
X24212872Y45833353D01*
X24396700Y45893439D01*
X24396700Y46939200D01*
X24498300Y46939200D01*
X24498300Y45893439D01*
X24682128Y45833353D01*
X25106898Y46011186D01*
X25431280Y46338034D01*
X25604142Y46755373D01*
X25543974Y46939200D01*
X24498300Y46939200D01*
X24396700Y46939200D01*
X23351026Y46939200D01*
X23290858Y46755373D01*
X2159000Y46755373D01*
X2159000Y47224627D01*
X23290858Y47224627D01*
X23351026Y47040800D01*
X24396700Y47040800D01*
X24396700Y48086561D01*
X24498300Y48086561D01*
X24498300Y47040800D01*
X25543974Y47040800D01*
X25604142Y47224627D01*
X25431280Y47641966D01*
X25106898Y47968814D01*
X24682128Y48146647D01*
X24498300Y48086561D01*
X24396700Y48086561D01*
X24212872Y48146647D01*
X23788102Y47968814D01*
X23463720Y47641966D01*
X23290858Y47224627D01*
X2159000Y47224627D01*
X2159000Y48260000D01*
X44782383Y48260000D01*
X44876087Y47788917D01*
X45142935Y47389552D01*
X45542300Y47122704D01*
X46013383Y47029000D01*
X46061617Y47029000D01*
X46532700Y47122704D01*
X46932065Y47389552D01*
X47198913Y47788917D01*
X47292617Y48260000D01*
X47198913Y48731083D01*
X46932065Y49130448D01*
X46532700Y49397296D01*
X46061617Y49491000D01*
X46013383Y49491000D01*
X45542300Y49397296D01*
X45142935Y49130448D01*
X44876087Y48731083D01*
X44782383Y48260000D01*
X2159000Y48260000D01*
X2159000Y49847500D01*
X23216374Y49847500D01*
X23235603Y49745310D01*
X23319046Y49615635D01*
X23446366Y49528641D01*
X23597500Y49498036D01*
X25297500Y49498036D01*
X25438690Y49524603D01*
X25568365Y49608046D01*
X25655359Y49735366D01*
X25685964Y49886500D01*
X25685964Y50800000D01*
X44782383Y50800000D01*
X44876087Y50328917D01*
X45142935Y49929552D01*
X45542300Y49662704D01*
X46013383Y49569000D01*
X46061617Y49569000D01*
X46532700Y49662704D01*
X46932065Y49929552D01*
X47198913Y50328917D01*
X47292617Y50800000D01*
X47198913Y51271083D01*
X46932065Y51670448D01*
X46532700Y51937296D01*
X46061617Y52031000D01*
X46013383Y52031000D01*
X45542300Y51937296D01*
X45142935Y51670448D01*
X44876087Y51271083D01*
X44782383Y50800000D01*
X25685964Y50800000D01*
X25685964Y50977518D01*
X28048446Y53340000D01*
X44782383Y53340000D01*
X44876087Y52868917D01*
X45142935Y52469552D01*
X45542300Y52202704D01*
X46013383Y52109000D01*
X46061617Y52109000D01*
X46532700Y52202704D01*
X46932065Y52469552D01*
X47198913Y52868917D01*
X47292617Y53340000D01*
X47198913Y53811083D01*
X46932065Y54210448D01*
X46532700Y54477296D01*
X46061617Y54571000D01*
X46013383Y54571000D01*
X45542300Y54477296D01*
X45142935Y54210448D01*
X44876087Y53811083D01*
X44782383Y53340000D01*
X28048446Y53340000D01*
X30588446Y55880000D01*
X44782383Y55880000D01*
X44876087Y55408917D01*
X45142935Y55009552D01*
X45542300Y54742704D01*
X46013383Y54649000D01*
X46061617Y54649000D01*
X46532700Y54742704D01*
X46932065Y55009552D01*
X47198913Y55408917D01*
X47292617Y55880000D01*
X47212979Y56280373D01*
X56437858Y56280373D01*
X56610720Y55863034D01*
X56935102Y55536186D01*
X57359872Y55358353D01*
X57543700Y55418439D01*
X57543700Y56464200D01*
X57645300Y56464200D01*
X57645300Y55418439D01*
X57829128Y55358353D01*
X58253898Y55536186D01*
X58578280Y55863034D01*
X58751142Y56280373D01*
X58690974Y56464200D01*
X57645300Y56464200D01*
X57543700Y56464200D01*
X56498026Y56464200D01*
X56437858Y56280373D01*
X47212979Y56280373D01*
X47198913Y56351083D01*
X46932614Y56749627D01*
X56437858Y56749627D01*
X56498026Y56565800D01*
X57543700Y56565800D01*
X57543700Y57611561D01*
X57645300Y57611561D01*
X57645300Y56565800D01*
X58690974Y56565800D01*
X58751142Y56749627D01*
X58578280Y57166966D01*
X58253898Y57493814D01*
X57829128Y57671647D01*
X57645300Y57611561D01*
X57543700Y57611561D01*
X57359872Y57671647D01*
X56935102Y57493814D01*
X56610720Y57166966D01*
X56437858Y56749627D01*
X46932614Y56749627D01*
X46932065Y56750448D01*
X46532700Y57017296D01*
X46061617Y57111000D01*
X46013383Y57111000D01*
X45542300Y57017296D01*
X45142935Y56750448D01*
X44876087Y56351083D01*
X44782383Y55880000D01*
X30588446Y55880000D01*
X33128446Y58420000D01*
X44782383Y58420000D01*
X44876087Y57948917D01*
X45142935Y57549552D01*
X45542300Y57282704D01*
X46013383Y57189000D01*
X46061617Y57189000D01*
X46532700Y57282704D01*
X46932065Y57549552D01*
X47198913Y57948917D01*
X47292617Y58420000D01*
X47198913Y58891083D01*
X46932065Y59290448D01*
X46532700Y59557296D01*
X46061617Y59651000D01*
X46013383Y59651000D01*
X45542300Y59557296D01*
X45142935Y59290448D01*
X44876087Y58891083D01*
X44782383Y58420000D01*
X33128446Y58420000D01*
X33169473Y58461026D01*
X33312630Y58675276D01*
X33320491Y58714795D01*
X33362900Y58928000D01*
X33362900Y60725373D01*
X44880858Y60725373D01*
X45053720Y60308034D01*
X45378102Y59981186D01*
X45802872Y59803353D01*
X45986700Y59863439D01*
X45986700Y60909200D01*
X46088300Y60909200D01*
X46088300Y59863439D01*
X46272128Y59803353D01*
X46514920Y59905000D01*
X56356036Y59905000D01*
X56356036Y58205000D01*
X56382603Y58063810D01*
X56466046Y57934135D01*
X56593366Y57847141D01*
X56744500Y57816536D01*
X58444500Y57816536D01*
X58585690Y57843103D01*
X58715365Y57926546D01*
X58802359Y58053866D01*
X58832964Y58205000D01*
X58832964Y59036228D01*
X60763118Y60966382D01*
X60955829Y61254794D01*
X61023500Y61595000D01*
X61023500Y63646373D01*
X84885858Y63646373D01*
X85058720Y63229034D01*
X85383102Y62902186D01*
X85807872Y62724353D01*
X85991700Y62784439D01*
X85991700Y63830200D01*
X86093300Y63830200D01*
X86093300Y62784439D01*
X86277128Y62724353D01*
X86701898Y62902186D01*
X87026280Y63229034D01*
X87199142Y63646373D01*
X87138974Y63830200D01*
X86093300Y63830200D01*
X85991700Y63830200D01*
X84946026Y63830200D01*
X84885858Y63646373D01*
X61023500Y63646373D01*
X61023500Y64115627D01*
X84885858Y64115627D01*
X84946026Y63931800D01*
X85991700Y63931800D01*
X85991700Y64977561D01*
X86093300Y64977561D01*
X86093300Y63931800D01*
X87138974Y63931800D01*
X87199142Y64115627D01*
X87026280Y64532966D01*
X86701898Y64859814D01*
X86277128Y65037647D01*
X86093300Y64977561D01*
X85991700Y64977561D01*
X85807872Y65037647D01*
X85383102Y64859814D01*
X85058720Y64532966D01*
X84885858Y64115627D01*
X61023500Y64115627D01*
X61023500Y66287650D01*
X84862300Y66287650D01*
X84862300Y65505319D01*
X84912570Y65383957D01*
X85005457Y65291070D01*
X85126819Y65240800D01*
X85909150Y65240800D01*
X85991700Y65323350D01*
X85991700Y66370200D01*
X86093300Y66370200D01*
X86093300Y65323350D01*
X86175850Y65240800D01*
X86958181Y65240800D01*
X87079543Y65291070D01*
X87172430Y65383957D01*
X87222700Y65505319D01*
X87222700Y66287650D01*
X87140150Y66370200D01*
X86093300Y66370200D01*
X85991700Y66370200D01*
X84944850Y66370200D01*
X84862300Y66287650D01*
X61023500Y66287650D01*
X61023500Y67336681D01*
X84862300Y67336681D01*
X84862300Y66554350D01*
X84944850Y66471800D01*
X85991700Y66471800D01*
X85991700Y67518650D01*
X86093300Y67518650D01*
X86093300Y66471800D01*
X87140150Y66471800D01*
X87222700Y66554350D01*
X87222700Y67336681D01*
X87172430Y67458043D01*
X87079543Y67550930D01*
X86958181Y67601200D01*
X86175850Y67601200D01*
X86093300Y67518650D01*
X85991700Y67518650D01*
X85909150Y67601200D01*
X85126819Y67601200D01*
X85005457Y67550930D01*
X84912570Y67458043D01*
X84862300Y67336681D01*
X61023500Y67336681D01*
X61023500Y83588200D01*
X61271796Y83959800D01*
X61365500Y84430883D01*
X61365500Y84479117D01*
X61271796Y84950200D01*
X61004948Y85349565D01*
X60605583Y85616413D01*
X60134500Y85710117D01*
X59663417Y85616413D01*
X59264052Y85349565D01*
X58997204Y84950200D01*
X58903500Y84479117D01*
X58903500Y84430883D01*
X58997204Y83959800D01*
X59245500Y83588200D01*
X59245500Y61963236D01*
X57575728Y60293464D01*
X56744500Y60293464D01*
X56603310Y60266897D01*
X56473635Y60183454D01*
X56386641Y60056134D01*
X56356036Y59905000D01*
X46514920Y59905000D01*
X46696898Y59981186D01*
X47021280Y60308034D01*
X47194142Y60725373D01*
X47133974Y60909200D01*
X46088300Y60909200D01*
X45986700Y60909200D01*
X44941026Y60909200D01*
X44880858Y60725373D01*
X33362900Y60725373D01*
X33362900Y61194627D01*
X44880858Y61194627D01*
X44941026Y61010800D01*
X45986700Y61010800D01*
X45986700Y62056561D01*
X46088300Y62056561D01*
X46088300Y61010800D01*
X47133974Y61010800D01*
X47194142Y61194627D01*
X47021280Y61611966D01*
X46696898Y61938814D01*
X46272128Y62116647D01*
X46088300Y62056561D01*
X45986700Y62056561D01*
X45802872Y62116647D01*
X45378102Y61938814D01*
X45053720Y61611966D01*
X44880858Y61194627D01*
X33362900Y61194627D01*
X33362900Y62854087D01*
X33597065Y63010552D01*
X33863913Y63409917D01*
X33957617Y63881000D01*
X33863913Y64352083D01*
X33597065Y64751448D01*
X33591500Y64755166D01*
X33591500Y65189874D01*
X33693690Y65209103D01*
X33823365Y65292546D01*
X33910359Y65419866D01*
X33940964Y65571000D01*
X33940964Y67271000D01*
X33914397Y67412190D01*
X33830954Y67541865D01*
X33703634Y67628859D01*
X33552500Y67659464D01*
X31852500Y67659464D01*
X31711310Y67632897D01*
X31581635Y67549454D01*
X31494641Y67422134D01*
X31464036Y67271000D01*
X31464036Y65571000D01*
X31490603Y65429810D01*
X31574046Y65300135D01*
X31701366Y65213141D01*
X31813500Y65190434D01*
X31813500Y64755166D01*
X31807935Y64751448D01*
X31541087Y64352083D01*
X31447383Y63881000D01*
X31541087Y63409917D01*
X31807935Y63010552D01*
X32042100Y62854087D01*
X32042100Y59201547D01*
X25534290Y52693736D01*
X25608913Y52805417D01*
X25702617Y53276500D01*
X25608913Y53747583D01*
X25342065Y54146948D01*
X24942700Y54413796D01*
X24471617Y54507500D01*
X24423383Y54507500D01*
X23952300Y54413796D01*
X23552935Y54146948D01*
X23286087Y53747583D01*
X23192383Y53276500D01*
X23286087Y52805417D01*
X23552935Y52406052D01*
X23952300Y52139204D01*
X24423383Y52045500D01*
X24471617Y52045500D01*
X24942700Y52139204D01*
X25054381Y52213827D01*
X24815518Y51974964D01*
X23597500Y51974964D01*
X23456310Y51948397D01*
X23326635Y51864954D01*
X23239641Y51737634D01*
X23216934Y51625500D01*
X2159000Y51625500D01*
X2159000Y55816500D01*
X23192383Y55816500D01*
X23286087Y55345417D01*
X23552935Y54946052D01*
X23952300Y54679204D01*
X24423383Y54585500D01*
X24471617Y54585500D01*
X24942700Y54679204D01*
X25342065Y54946052D01*
X25608913Y55345417D01*
X25702617Y55816500D01*
X25608913Y56287583D01*
X25342065Y56686948D01*
X24942700Y56953796D01*
X24471617Y57047500D01*
X24423383Y57047500D01*
X23952300Y56953796D01*
X23552935Y56686948D01*
X23286087Y56287583D01*
X23192383Y55816500D01*
X2159000Y55816500D01*
X2159000Y55829264D01*
X4686236Y58356500D01*
X23192383Y58356500D01*
X23286087Y57885417D01*
X23552935Y57486052D01*
X23952300Y57219204D01*
X24423383Y57125500D01*
X24471617Y57125500D01*
X24942700Y57219204D01*
X25342065Y57486052D01*
X25608913Y57885417D01*
X25702617Y58356500D01*
X25608913Y58827583D01*
X25342065Y59226948D01*
X24942700Y59493796D01*
X24471617Y59587500D01*
X24423383Y59587500D01*
X23952300Y59493796D01*
X23552935Y59226948D01*
X23286087Y58827583D01*
X23192383Y58356500D01*
X4686236Y58356500D01*
X7226236Y60896500D01*
X23192383Y60896500D01*
X23286087Y60425417D01*
X23552935Y60026052D01*
X23952300Y59759204D01*
X24423383Y59665500D01*
X24471617Y59665500D01*
X24942700Y59759204D01*
X25342065Y60026052D01*
X25608913Y60425417D01*
X25702617Y60896500D01*
X25608913Y61367583D01*
X25342065Y61766948D01*
X24942700Y62033796D01*
X24471617Y62127500D01*
X24423383Y62127500D01*
X23952300Y62033796D01*
X23552935Y61766948D01*
X23286087Y61367583D01*
X23192383Y60896500D01*
X7226236Y60896500D01*
X9162772Y62833036D01*
X9994000Y62833036D01*
X10135190Y62859603D01*
X10264865Y62943046D01*
X10351859Y63070366D01*
X10382464Y63221500D01*
X10382464Y63436500D01*
X23192383Y63436500D01*
X23286087Y62965417D01*
X23552935Y62566052D01*
X23952300Y62299204D01*
X24423383Y62205500D01*
X24471617Y62205500D01*
X24942700Y62299204D01*
X25342065Y62566052D01*
X25608913Y62965417D01*
X25702617Y63436500D01*
X25608913Y63907583D01*
X25342065Y64306948D01*
X24942700Y64573796D01*
X24471617Y64667500D01*
X24423383Y64667500D01*
X23952300Y64573796D01*
X23552935Y64306948D01*
X23286087Y63907583D01*
X23192383Y63436500D01*
X10382464Y63436500D01*
X10382464Y64921500D01*
X10355897Y65062690D01*
X10272454Y65192365D01*
X10145134Y65279359D01*
X9994000Y65309964D01*
X8294000Y65309964D01*
X8152810Y65283397D01*
X8023135Y65199954D01*
X7936141Y65072634D01*
X7905536Y64921500D01*
X7905536Y64090272D01*
X641382Y56826118D01*
X448671Y56537706D01*
X381000Y56197500D01*
X76200Y56197500D01*
X76200Y66611500D01*
X7888883Y66611500D01*
X7982587Y66140417D01*
X8249435Y65741052D01*
X8648800Y65474204D01*
X9119883Y65380500D01*
X9168117Y65380500D01*
X9639200Y65474204D01*
X10038565Y65741052D01*
X10195886Y65976500D01*
X23192383Y65976500D01*
X23286087Y65505417D01*
X23552935Y65106052D01*
X23952300Y64839204D01*
X24423383Y64745500D01*
X24471617Y64745500D01*
X24942700Y64839204D01*
X25342065Y65106052D01*
X25608913Y65505417D01*
X25702617Y65976500D01*
X25608913Y66447583D01*
X25342065Y66846948D01*
X24942700Y67113796D01*
X24471617Y67207500D01*
X24423383Y67207500D01*
X23952300Y67113796D01*
X23552935Y66846948D01*
X23286087Y66447583D01*
X23192383Y65976500D01*
X10195886Y65976500D01*
X10305413Y66140417D01*
X10399117Y66611500D01*
X10305413Y67082583D01*
X10038565Y67481948D01*
X9639200Y67748796D01*
X9168117Y67842500D01*
X9119883Y67842500D01*
X8648800Y67748796D01*
X8249435Y67481948D01*
X7982587Y67082583D01*
X7888883Y66611500D01*
X76200Y66611500D01*
X76200Y68516500D01*
X23192383Y68516500D01*
X23286087Y68045417D01*
X23552935Y67646052D01*
X23952300Y67379204D01*
X24423383Y67285500D01*
X24471617Y67285500D01*
X24942700Y67379204D01*
X25342065Y67646052D01*
X25608913Y68045417D01*
X25702617Y68516500D01*
X25608913Y68987583D01*
X25342065Y69386948D01*
X24942700Y69653796D01*
X24471617Y69747500D01*
X24423383Y69747500D01*
X23952300Y69653796D01*
X23552935Y69386948D01*
X23286087Y68987583D01*
X23192383Y68516500D01*
X76200Y68516500D01*
X76200Y72757400D01*
X4959136Y72757400D01*
X4959136Y71057400D01*
X4985703Y70916210D01*
X5069146Y70786535D01*
X5196466Y70699541D01*
X5347600Y70668936D01*
X7047600Y70668936D01*
X7188790Y70695503D01*
X7318465Y70778946D01*
X7405459Y70906266D01*
X7436064Y71057400D01*
X7436064Y71672772D01*
X7580953Y71672772D01*
X7758786Y71248002D01*
X8085634Y70923620D01*
X8502973Y70750758D01*
X8686800Y70810926D01*
X8686800Y71856600D01*
X8788400Y71856600D01*
X8788400Y70810926D01*
X8972227Y70750758D01*
X9389566Y70923620D01*
X9523456Y71056500D01*
X23192383Y71056500D01*
X23286087Y70585417D01*
X23552935Y70186052D01*
X23952300Y69919204D01*
X24423383Y69825500D01*
X24471617Y69825500D01*
X24942700Y69919204D01*
X25342065Y70186052D01*
X25608913Y70585417D01*
X25702617Y71056500D01*
X25608913Y71527583D01*
X25342065Y71926948D01*
X24942700Y72193796D01*
X24471617Y72287500D01*
X24423383Y72287500D01*
X23952300Y72193796D01*
X23552935Y71926948D01*
X23286087Y71527583D01*
X23192383Y71056500D01*
X9523456Y71056500D01*
X9716414Y71248002D01*
X9894247Y71672772D01*
X9834161Y71856600D01*
X8788400Y71856600D01*
X8686800Y71856600D01*
X7641039Y71856600D01*
X7580953Y71672772D01*
X7436064Y71672772D01*
X7436064Y72142028D01*
X7580953Y72142028D01*
X7641039Y71958200D01*
X8686800Y71958200D01*
X8686800Y73003874D01*
X8788400Y73003874D01*
X8788400Y71958200D01*
X9834161Y71958200D01*
X9894247Y72142028D01*
X9716414Y72566798D01*
X9389566Y72891180D01*
X8972227Y73064042D01*
X8788400Y73003874D01*
X8686800Y73003874D01*
X8502973Y73064042D01*
X8085634Y72891180D01*
X7758786Y72566798D01*
X7580953Y72142028D01*
X7436064Y72142028D01*
X7436064Y72757400D01*
X7409497Y72898590D01*
X7326054Y73028265D01*
X7198734Y73115259D01*
X7047600Y73145864D01*
X5347600Y73145864D01*
X5206410Y73119297D01*
X5076735Y73035854D01*
X4989741Y72908534D01*
X4959136Y72757400D01*
X76200Y72757400D01*
X76200Y73361873D01*
X23290858Y73361873D01*
X23463720Y72944534D01*
X23788102Y72617686D01*
X24212872Y72439853D01*
X24396700Y72499939D01*
X24396700Y73545700D01*
X24498300Y73545700D01*
X24498300Y72499939D01*
X24682128Y72439853D01*
X25106898Y72617686D01*
X25431280Y72944534D01*
X25604142Y73361873D01*
X25543974Y73545700D01*
X24498300Y73545700D01*
X24396700Y73545700D01*
X23351026Y73545700D01*
X23290858Y73361873D01*
X76200Y73361873D01*
X76200Y73831127D01*
X23290858Y73831127D01*
X23351026Y73647300D01*
X24396700Y73647300D01*
X24396700Y74693061D01*
X24498300Y74693061D01*
X24498300Y73647300D01*
X25543974Y73647300D01*
X25604142Y73831127D01*
X25431280Y74248466D01*
X25106898Y74575314D01*
X24682128Y74753147D01*
X24498300Y74693061D01*
X24396700Y74693061D01*
X24212872Y74753147D01*
X23788102Y74575314D01*
X23463720Y74248466D01*
X23290858Y73831127D01*
X76200Y73831127D01*
X76200Y84321650D01*
X56414300Y84321650D01*
X56414300Y83539319D01*
X56464570Y83417957D01*
X56557457Y83325070D01*
X56678819Y83274800D01*
X57461150Y83274800D01*
X57543700Y83357350D01*
X57543700Y84404200D01*
X57645300Y84404200D01*
X57645300Y83357350D01*
X57727850Y83274800D01*
X58510181Y83274800D01*
X58631543Y83325070D01*
X58724430Y83417957D01*
X58774700Y83539319D01*
X58774700Y84321650D01*
X58692150Y84404200D01*
X57645300Y84404200D01*
X57543700Y84404200D01*
X56496850Y84404200D01*
X56414300Y84321650D01*
X76200Y84321650D01*
X76200Y85370681D01*
X56414300Y85370681D01*
X56414300Y84588350D01*
X56496850Y84505800D01*
X57543700Y84505800D01*
X57543700Y85552650D01*
X57645300Y85552650D01*
X57645300Y84505800D01*
X58692150Y84505800D01*
X58774700Y84588350D01*
X58774700Y85370681D01*
X58724430Y85492043D01*
X58631543Y85584930D01*
X58510181Y85635200D01*
X57727850Y85635200D01*
X57645300Y85552650D01*
X57543700Y85552650D01*
X57461150Y85635200D01*
X56678819Y85635200D01*
X56557457Y85584930D01*
X56464570Y85492043D01*
X56414300Y85370681D01*
X76200Y85370681D01*
X76200Y86918800D01*
X70516936Y86918800D01*
X88506300Y68929436D01*
X88506300Y68929436D01*
G37*
X88506300Y68929436D02*
X88506300Y14382564D01*
X74199936Y76200D01*
X76200Y76200D01*
X76200Y56197500D01*
X381000Y56197500D01*
X381000Y3429000D01*
X448671Y3088794D01*
X641382Y2800382D01*
X2736013Y705751D01*
X2863882Y514382D01*
X3152294Y321671D01*
X3492500Y254000D01*
X70231000Y254000D01*
X70571206Y321671D01*
X70859618Y514382D01*
X74668749Y4323513D01*
X74860118Y4451382D01*
X86069262Y15660526D01*
X86537700Y15753704D01*
X86937065Y16020552D01*
X87203913Y16419917D01*
X87297617Y16891000D01*
X87203913Y17362083D01*
X86937065Y17761448D01*
X86931500Y17765166D01*
X86931500Y18199874D01*
X87033690Y18219103D01*
X87163365Y18302546D01*
X87250359Y18429866D01*
X87280964Y18581000D01*
X87280964Y20281000D01*
X87254397Y20422190D01*
X87170954Y20551865D01*
X87043634Y20638859D01*
X86892500Y20669464D01*
X85192500Y20669464D01*
X85051310Y20642897D01*
X84921635Y20559454D01*
X84834641Y20432134D01*
X84804036Y20281000D01*
X84804036Y18581000D01*
X84830603Y18439810D01*
X84914046Y18310135D01*
X85041366Y18223141D01*
X85153500Y18200434D01*
X85153500Y17765166D01*
X85147935Y17761448D01*
X84881087Y17362083D01*
X84787909Y16893645D01*
X73863264Y5969000D01*
X69811126Y5969000D01*
X69791897Y6071190D01*
X69708454Y6200865D01*
X69581134Y6287859D01*
X69469000Y6310566D01*
X69469000Y29248874D01*
X69571190Y29268103D01*
X69700865Y29351546D01*
X69787859Y29478866D01*
X69818464Y29630000D01*
X69818464Y31330000D01*
X69791897Y31471190D01*
X69708454Y31600865D01*
X69581134Y31687859D01*
X69430000Y31718464D01*
X67730000Y31718464D01*
X67588810Y31691897D01*
X67459135Y31608454D01*
X67372141Y31481134D01*
X67341536Y31330000D01*
X67341536Y29630000D01*
X67368103Y29488810D01*
X67451546Y29359135D01*
X67578866Y29272141D01*
X67691000Y29249434D01*
X67691000Y6311126D01*
X67588810Y6291897D01*
X67459135Y6208454D01*
X67372141Y6081134D01*
X67341536Y5930000D01*
X67341536Y4230000D01*
X67368103Y4088810D01*
X67451546Y3959135D01*
X67578866Y3872141D01*
X67730000Y3841536D01*
X69430000Y3841536D01*
X69571190Y3868103D01*
X69700865Y3951546D01*
X69787859Y4078866D01*
X69810566Y4191000D01*
X72021764Y4191000D01*
X69862764Y2032000D01*
X46926500Y2032000D01*
X46926500Y4845372D01*
X54723353Y4845372D01*
X54901186Y4420602D01*
X55228034Y4096220D01*
X55645373Y3923358D01*
X55829200Y3983526D01*
X55829200Y5029200D01*
X55930800Y5029200D01*
X55930800Y3983526D01*
X56114627Y3923358D01*
X56531966Y4096220D01*
X56858814Y4420602D01*
X57036647Y4845372D01*
X56976561Y5029200D01*
X55930800Y5029200D01*
X55829200Y5029200D01*
X54783439Y5029200D01*
X54723353Y4845372D01*
X46926500Y4845372D01*
X46926500Y5314628D01*
X54723353Y5314628D01*
X54783439Y5130800D01*
X55829200Y5130800D01*
X55829200Y6176474D01*
X55930800Y6176474D01*
X55930800Y5130800D01*
X56976561Y5130800D01*
X57036647Y5314628D01*
X56858814Y5739398D01*
X56531966Y6063780D01*
X56114627Y6236642D01*
X55930800Y6176474D01*
X55829200Y6176474D01*
X55645373Y6236642D01*
X55228034Y6063780D01*
X54901186Y5739398D01*
X54723353Y5314628D01*
X46926500Y5314628D01*
X46926500Y15342374D01*
X47028690Y15361603D01*
X47158365Y15445046D01*
X47245359Y15572366D01*
X47275964Y15723500D01*
X47275964Y17423500D01*
X47249397Y17564690D01*
X47165954Y17694365D01*
X47038634Y17781359D01*
X46887500Y17811964D01*
X45187500Y17811964D01*
X45046310Y17785397D01*
X44916635Y17701954D01*
X44829641Y17574634D01*
X44799036Y17423500D01*
X44799036Y15723500D01*
X44825603Y15582310D01*
X44909046Y15452635D01*
X45036366Y15365641D01*
X45148500Y15342934D01*
X45148500Y2032000D01*
X25336500Y2032000D01*
X25336500Y16656373D01*
X31545858Y16656373D01*
X31718720Y16239034D01*
X32043102Y15912186D01*
X32467872Y15734353D01*
X32651700Y15794439D01*
X32651700Y16840200D01*
X32753300Y16840200D01*
X32753300Y15794439D01*
X32937128Y15734353D01*
X33361898Y15912186D01*
X33686280Y16239034D01*
X33859142Y16656373D01*
X33798974Y16840200D01*
X32753300Y16840200D01*
X32651700Y16840200D01*
X31606026Y16840200D01*
X31545858Y16656373D01*
X25336500Y16656373D01*
X25336500Y17125627D01*
X31545858Y17125627D01*
X31606026Y16941800D01*
X32651700Y16941800D01*
X32651700Y17987561D01*
X32753300Y17987561D01*
X32753300Y16941800D01*
X33798974Y16941800D01*
X33859142Y17125627D01*
X33686280Y17542966D01*
X33361898Y17869814D01*
X32937128Y18047647D01*
X32753300Y17987561D01*
X32651700Y17987561D01*
X32467872Y18047647D01*
X32043102Y17869814D01*
X31718720Y17542966D01*
X31545858Y17125627D01*
X25336500Y17125627D01*
X25336500Y19297650D01*
X31522300Y19297650D01*
X31522300Y18515319D01*
X31572570Y18393957D01*
X31665457Y18301070D01*
X31786819Y18250800D01*
X32569150Y18250800D01*
X32651700Y18333350D01*
X32651700Y19380200D01*
X32753300Y19380200D01*
X32753300Y18333350D01*
X32835850Y18250800D01*
X33618181Y18250800D01*
X33739543Y18301070D01*
X33832430Y18393957D01*
X33882700Y18515319D01*
X33882700Y19113500D01*
X44782383Y19113500D01*
X44876087Y18642417D01*
X45142935Y18243052D01*
X45542300Y17976204D01*
X46013383Y17882500D01*
X46061617Y17882500D01*
X46532700Y17976204D01*
X46932065Y18243052D01*
X47198913Y18642417D01*
X47292617Y19113500D01*
X47198913Y19584583D01*
X46932065Y19983948D01*
X46532700Y20250796D01*
X46061617Y20344500D01*
X46013383Y20344500D01*
X45542300Y20250796D01*
X45142935Y19983948D01*
X44876087Y19584583D01*
X44782383Y19113500D01*
X33882700Y19113500D01*
X33882700Y19297650D01*
X33800150Y19380200D01*
X32753300Y19380200D01*
X32651700Y19380200D01*
X31604850Y19380200D01*
X31522300Y19297650D01*
X25336500Y19297650D01*
X25336500Y20346681D01*
X31522300Y20346681D01*
X31522300Y19564350D01*
X31604850Y19481800D01*
X32651700Y19481800D01*
X32651700Y20528650D01*
X32753300Y20528650D01*
X32753300Y19481800D01*
X33800150Y19481800D01*
X33882700Y19564350D01*
X33882700Y20346681D01*
X33832430Y20468043D01*
X33739543Y20560930D01*
X33618181Y20611200D01*
X32835850Y20611200D01*
X32753300Y20528650D01*
X32651700Y20528650D01*
X32569150Y20611200D01*
X31786819Y20611200D01*
X31665457Y20560930D01*
X31572570Y20468043D01*
X31522300Y20346681D01*
X25336500Y20346681D01*
X25336500Y21653500D01*
X44782383Y21653500D01*
X44876087Y21182417D01*
X45142935Y20783052D01*
X45542300Y20516204D01*
X46013383Y20422500D01*
X46061617Y20422500D01*
X46532700Y20516204D01*
X46932065Y20783052D01*
X47198913Y21182417D01*
X47292617Y21653500D01*
X47198913Y22124583D01*
X46932065Y22523948D01*
X46532700Y22790796D01*
X46061617Y22884500D01*
X46013383Y22884500D01*
X45542300Y22790796D01*
X45142935Y22523948D01*
X44876087Y22124583D01*
X44782383Y21653500D01*
X25336500Y21653500D01*
X25336500Y24193500D01*
X44782383Y24193500D01*
X44876087Y23722417D01*
X45142935Y23323052D01*
X45542300Y23056204D01*
X46013383Y22962500D01*
X46061617Y22962500D01*
X46532700Y23056204D01*
X46932065Y23323052D01*
X47198913Y23722417D01*
X47292617Y24193500D01*
X47198913Y24664583D01*
X46932065Y25063948D01*
X46532700Y25330796D01*
X46061617Y25424500D01*
X46013383Y25424500D01*
X45542300Y25330796D01*
X45142935Y25063948D01*
X44876087Y24664583D01*
X44782383Y24193500D01*
X25336500Y24193500D01*
X25336500Y26733500D01*
X44782383Y26733500D01*
X44876087Y26262417D01*
X45142935Y25863052D01*
X45542300Y25596204D01*
X46013383Y25502500D01*
X46061617Y25502500D01*
X46532700Y25596204D01*
X46932065Y25863052D01*
X47198913Y26262417D01*
X47292617Y26733500D01*
X47198913Y27204583D01*
X46932065Y27603948D01*
X46532700Y27870796D01*
X46061617Y27964500D01*
X46013383Y27964500D01*
X45542300Y27870796D01*
X45142935Y27603948D01*
X44876087Y27204583D01*
X44782383Y26733500D01*
X25336500Y26733500D01*
X25336500Y27978874D01*
X25438690Y27998103D01*
X25568365Y28081546D01*
X25655359Y28208866D01*
X25685964Y28360000D01*
X25685964Y29273500D01*
X44782383Y29273500D01*
X44876087Y28802417D01*
X45142935Y28403052D01*
X45542300Y28136204D01*
X46013383Y28042500D01*
X46061617Y28042500D01*
X46532700Y28136204D01*
X46932065Y28403052D01*
X47198913Y28802417D01*
X47292617Y29273500D01*
X47198913Y29744583D01*
X46932065Y30143948D01*
X46780274Y30245372D01*
X54723353Y30245372D01*
X54901186Y29820602D01*
X55228034Y29496220D01*
X55645373Y29323358D01*
X55829200Y29383526D01*
X55829200Y30429200D01*
X55930800Y30429200D01*
X55930800Y29383526D01*
X56114627Y29323358D01*
X56531966Y29496220D01*
X56858814Y29820602D01*
X57036647Y30245372D01*
X56976561Y30429200D01*
X55930800Y30429200D01*
X55829200Y30429200D01*
X54783439Y30429200D01*
X54723353Y30245372D01*
X46780274Y30245372D01*
X46532700Y30410796D01*
X46063543Y30504117D01*
X57189000Y30504117D01*
X57189000Y30455883D01*
X57282704Y29984800D01*
X57531000Y29613200D01*
X57531000Y5946800D01*
X57282704Y5575200D01*
X57189000Y5104117D01*
X57189000Y5055883D01*
X57282704Y4584800D01*
X57549552Y4185435D01*
X57948917Y3918587D01*
X58420000Y3824883D01*
X58891083Y3918587D01*
X59290448Y4185435D01*
X59557296Y4584800D01*
X59651000Y5055883D01*
X59651000Y5104117D01*
X59557296Y5575200D01*
X59309000Y5946800D01*
X59309000Y29613200D01*
X59557296Y29984800D01*
X59651000Y30455883D01*
X59651000Y30504117D01*
X59729000Y30504117D01*
X59729000Y30455883D01*
X59822704Y29984800D01*
X60071000Y29613200D01*
X60071000Y5946800D01*
X59822704Y5575200D01*
X59729000Y5104117D01*
X59729000Y5055883D01*
X59822704Y4584800D01*
X60089552Y4185435D01*
X60488917Y3918587D01*
X60960000Y3824883D01*
X61431083Y3918587D01*
X61830448Y4185435D01*
X62097296Y4584800D01*
X62191000Y5055883D01*
X62191000Y5104117D01*
X62097296Y5575200D01*
X61849000Y5946800D01*
X61849000Y29613200D01*
X62097296Y29984800D01*
X62191000Y30455883D01*
X62191000Y30504117D01*
X62269000Y30504117D01*
X62269000Y30455883D01*
X62362704Y29984800D01*
X62611000Y29613200D01*
X62611000Y5946800D01*
X62362704Y5575200D01*
X62269000Y5104117D01*
X62269000Y5055883D01*
X62362704Y4584800D01*
X62629552Y4185435D01*
X63028917Y3918587D01*
X63500000Y3824883D01*
X63971083Y3918587D01*
X64370448Y4185435D01*
X64637296Y4584800D01*
X64731000Y5055883D01*
X64731000Y5104117D01*
X64637296Y5575200D01*
X64389000Y5946800D01*
X64389000Y29613200D01*
X64637296Y29984800D01*
X64731000Y30455883D01*
X64731000Y30504117D01*
X64809000Y30504117D01*
X64809000Y30455883D01*
X64902704Y29984800D01*
X65151000Y29613200D01*
X65151000Y5946800D01*
X64902704Y5575200D01*
X64809000Y5104117D01*
X64809000Y5055883D01*
X64902704Y4584800D01*
X65169552Y4185435D01*
X65568917Y3918587D01*
X66040000Y3824883D01*
X66511083Y3918587D01*
X66910448Y4185435D01*
X67177296Y4584800D01*
X67271000Y5055883D01*
X67271000Y5104117D01*
X67177296Y5575200D01*
X66929000Y5946800D01*
X66929000Y29613200D01*
X67177296Y29984800D01*
X67271000Y30455883D01*
X67271000Y30504117D01*
X67177296Y30975200D01*
X66910448Y31374565D01*
X66511083Y31641413D01*
X66040000Y31735117D01*
X65568917Y31641413D01*
X65169552Y31374565D01*
X64902704Y30975200D01*
X64809000Y30504117D01*
X64731000Y30504117D01*
X64637296Y30975200D01*
X64370448Y31374565D01*
X63971083Y31641413D01*
X63500000Y31735117D01*
X63028917Y31641413D01*
X62629552Y31374565D01*
X62362704Y30975200D01*
X62269000Y30504117D01*
X62191000Y30504117D01*
X62097296Y30975200D01*
X61830448Y31374565D01*
X61431083Y31641413D01*
X60960000Y31735117D01*
X60488917Y31641413D01*
X60089552Y31374565D01*
X59822704Y30975200D01*
X59729000Y30504117D01*
X59651000Y30504117D01*
X59557296Y30975200D01*
X59290448Y31374565D01*
X58891083Y31641413D01*
X58420000Y31735117D01*
X57948917Y31641413D01*
X57549552Y31374565D01*
X57282704Y30975200D01*
X57189000Y30504117D01*
X46063543Y30504117D01*
X46061617Y30504500D01*
X46013383Y30504500D01*
X45542300Y30410796D01*
X45142935Y30143948D01*
X44876087Y29744583D01*
X44782383Y29273500D01*
X25685964Y29273500D01*
X25685964Y30060000D01*
X25659397Y30201190D01*
X25575954Y30330865D01*
X25448634Y30417859D01*
X25297500Y30448464D01*
X23597500Y30448464D01*
X23456310Y30421897D01*
X23326635Y30338454D01*
X23239641Y30211134D01*
X23209036Y30060000D01*
X23209036Y28360000D01*
X23235603Y28218810D01*
X23319046Y28089135D01*
X23446366Y28002141D01*
X23558500Y27979434D01*
X23558500Y2032000D01*
X12154600Y2032000D01*
X12154600Y9017000D01*
X12132664Y9127280D01*
X12132664Y9467000D01*
X12106097Y9608190D01*
X12022654Y9737865D01*
X11895334Y9824859D01*
X11744200Y9855464D01*
X11244200Y9855464D01*
X11103010Y9828897D01*
X10973335Y9745454D01*
X10886341Y9618134D01*
X10855736Y9467000D01*
X10855736Y9127280D01*
X10833800Y9017000D01*
X10833800Y2032000D01*
X3924236Y2032000D01*
X2159000Y3797236D01*
X2159000Y5890042D01*
X3421884Y5890042D01*
X3456393Y5762535D01*
X3725602Y5660254D01*
X4013461Y5668780D01*
X4239807Y5762535D01*
X4274316Y5890042D01*
X3848100Y6316258D01*
X3421884Y5890042D01*
X2159000Y5890042D01*
X2159000Y6510598D01*
X3120254Y6510598D01*
X3128780Y6222739D01*
X3222535Y5996393D01*
X3350042Y5961884D01*
X3776258Y6388100D01*
X3919942Y6388100D01*
X4346158Y5961884D01*
X4469800Y5995347D01*
X4469800Y5972819D01*
X4520070Y5851457D01*
X4612957Y5758570D01*
X4734319Y5708300D01*
X5266650Y5708300D01*
X5349200Y5790850D01*
X5349200Y6362700D01*
X5329200Y6362700D01*
X5329200Y6464300D01*
X5349200Y6464300D01*
X5349200Y7036150D01*
X5450800Y7036150D01*
X5450800Y6464300D01*
X5470800Y6464300D01*
X5470800Y6362700D01*
X5450800Y6362700D01*
X5450800Y5790850D01*
X5533350Y5708300D01*
X6065681Y5708300D01*
X6187043Y5758570D01*
X6279930Y5851457D01*
X6325864Y5962352D01*
X6338103Y5897310D01*
X6421546Y5767635D01*
X6548866Y5680641D01*
X6700000Y5650036D01*
X7900000Y5650036D01*
X8041190Y5676603D01*
X8120598Y5727700D01*
X8422186Y5727700D01*
X8697127Y5613535D01*
X9005321Y5613266D01*
X9290159Y5730959D01*
X9508276Y5948695D01*
X9626465Y6233327D01*
X9626734Y6541521D01*
X9512300Y6818472D01*
X9512300Y8264326D01*
X9593066Y8209141D01*
X9744200Y8178536D01*
X10244200Y8178536D01*
X10385390Y8205103D01*
X10515065Y8288546D01*
X10602059Y8415866D01*
X10632664Y8567000D01*
X10632664Y8906720D01*
X10654600Y9017000D01*
X10632664Y9127280D01*
X10632664Y9467000D01*
X10606097Y9608190D01*
X10522654Y9737865D01*
X10395334Y9824859D01*
X10244200Y9855464D01*
X9744200Y9855464D01*
X9603010Y9828897D01*
X9512300Y9770527D01*
X9512300Y10962186D01*
X9626465Y11237127D01*
X9626734Y11545321D01*
X9509041Y11830159D01*
X9291305Y12048276D01*
X9006673Y12166465D01*
X8698479Y12166734D01*
X8413641Y12049041D01*
X8195524Y11831305D01*
X8077335Y11546673D01*
X8077066Y11238479D01*
X8191500Y10961528D01*
X8191500Y7048500D01*
X8185445Y7048500D01*
X8178454Y7059365D01*
X8051134Y7146359D01*
X7900000Y7176964D01*
X6700000Y7176964D01*
X6558810Y7150397D01*
X6429135Y7066954D01*
X6342141Y6939634D01*
X6326598Y6862878D01*
X6279930Y6975543D01*
X6187043Y7068430D01*
X6065681Y7118700D01*
X5533350Y7118700D01*
X5450800Y7036150D01*
X5349200Y7036150D01*
X5266650Y7118700D01*
X4734319Y7118700D01*
X4612957Y7068430D01*
X4520070Y6975543D01*
X4469800Y6854181D01*
X4469800Y6780853D01*
X4346158Y6814316D01*
X3919942Y6388100D01*
X3776258Y6388100D01*
X3350042Y6814316D01*
X3222535Y6779807D01*
X3120254Y6510598D01*
X2159000Y6510598D01*
X2159000Y6886158D01*
X3421884Y6886158D01*
X3848100Y6459942D01*
X4274316Y6886158D01*
X4239807Y7013665D01*
X3970598Y7115946D01*
X3682739Y7107420D01*
X3456393Y7013665D01*
X3421884Y6886158D01*
X2159000Y6886158D01*
X2159000Y10893842D01*
X3421884Y10893842D01*
X3456393Y10766335D01*
X3725602Y10664054D01*
X4013461Y10672580D01*
X4239807Y10766335D01*
X4274316Y10893842D01*
X3848100Y11320058D01*
X3421884Y10893842D01*
X2159000Y10893842D01*
X2159000Y11514398D01*
X3120254Y11514398D01*
X3128780Y11226539D01*
X3222535Y11000193D01*
X3350042Y10965684D01*
X3776258Y11391900D01*
X3919942Y11391900D01*
X4346158Y10965684D01*
X4473665Y11000193D01*
X4575946Y11269402D01*
X4567420Y11557261D01*
X4473665Y11783607D01*
X4346158Y11818116D01*
X3919942Y11391900D01*
X3776258Y11391900D01*
X3350042Y11818116D01*
X3222535Y11783607D01*
X3120254Y11514398D01*
X2159000Y11514398D01*
X2159000Y11889958D01*
X3421884Y11889958D01*
X3848100Y11463742D01*
X4274316Y11889958D01*
X4239807Y12017465D01*
X3970598Y12119746D01*
X3682739Y12111220D01*
X3456393Y12017465D01*
X3421884Y11889958D01*
X2159000Y11889958D01*
X2159000Y31750000D01*
X23192383Y31750000D01*
X23286087Y31278917D01*
X23552935Y30879552D01*
X23952300Y30612704D01*
X24423383Y30519000D01*
X24471617Y30519000D01*
X24942700Y30612704D01*
X25342065Y30879552D01*
X25608913Y31278917D01*
X25702617Y31750000D01*
X25689987Y31813500D01*
X44782383Y31813500D01*
X44876087Y31342417D01*
X45142935Y30943052D01*
X45542300Y30676204D01*
X46013383Y30582500D01*
X46061617Y30582500D01*
X46532700Y30676204D01*
X46590205Y30714628D01*
X54723353Y30714628D01*
X54783439Y30530800D01*
X55829200Y30530800D01*
X55829200Y31576474D01*
X55930800Y31576474D01*
X55930800Y30530800D01*
X56976561Y30530800D01*
X57036647Y30714628D01*
X56858814Y31139398D01*
X56531966Y31463780D01*
X56114627Y31636642D01*
X55930800Y31576474D01*
X55829200Y31576474D01*
X55645373Y31636642D01*
X55228034Y31463780D01*
X54901186Y31139398D01*
X54723353Y30714628D01*
X46590205Y30714628D01*
X46932065Y30943052D01*
X47198913Y31342417D01*
X47292617Y31813500D01*
X47198913Y32284583D01*
X46932065Y32683948D01*
X46532700Y32950796D01*
X46061617Y33044500D01*
X46013383Y33044500D01*
X45542300Y32950796D01*
X45142935Y32683948D01*
X44876087Y32284583D01*
X44782383Y31813500D01*
X25689987Y31813500D01*
X25608913Y32221083D01*
X25342065Y32620448D01*
X24942700Y32887296D01*
X24471617Y32981000D01*
X24423383Y32981000D01*
X23952300Y32887296D01*
X23552935Y32620448D01*
X23286087Y32221083D01*
X23192383Y31750000D01*
X2159000Y31750000D01*
X2159000Y34290000D01*
X23192383Y34290000D01*
X23286087Y33818917D01*
X23552935Y33419552D01*
X23952300Y33152704D01*
X24423383Y33059000D01*
X24471617Y33059000D01*
X24942700Y33152704D01*
X25342065Y33419552D01*
X25608913Y33818917D01*
X25668577Y34118873D01*
X44880858Y34118873D01*
X45053720Y33701534D01*
X45378102Y33374686D01*
X45802872Y33196853D01*
X45986700Y33256939D01*
X45986700Y34302700D01*
X46088300Y34302700D01*
X46088300Y33256939D01*
X46272128Y33196853D01*
X46696898Y33374686D01*
X47021280Y33701534D01*
X47194142Y34118873D01*
X47133974Y34302700D01*
X46088300Y34302700D01*
X45986700Y34302700D01*
X44941026Y34302700D01*
X44880858Y34118873D01*
X25668577Y34118873D01*
X25702617Y34290000D01*
X25643317Y34588127D01*
X44880858Y34588127D01*
X44941026Y34404300D01*
X45986700Y34404300D01*
X45986700Y35450061D01*
X46088300Y35450061D01*
X46088300Y34404300D01*
X47133974Y34404300D01*
X47194142Y34588127D01*
X47021280Y35005466D01*
X46696898Y35332314D01*
X46272128Y35510147D01*
X46088300Y35450061D01*
X45986700Y35450061D01*
X45802872Y35510147D01*
X45378102Y35332314D01*
X45053720Y35005466D01*
X44880858Y34588127D01*
X25643317Y34588127D01*
X25608913Y34761083D01*
X25342065Y35160448D01*
X24942700Y35427296D01*
X24471617Y35521000D01*
X24423383Y35521000D01*
X23952300Y35427296D01*
X23552935Y35160448D01*
X23286087Y34761083D01*
X23192383Y34290000D01*
X2159000Y34290000D01*
X2159000Y36830000D01*
X23192383Y36830000D01*
X23286087Y36358917D01*
X23552935Y35959552D01*
X23952300Y35692704D01*
X24423383Y35599000D01*
X24471617Y35599000D01*
X24942700Y35692704D01*
X25342065Y35959552D01*
X25608913Y36358917D01*
X25702617Y36830000D01*
X25608913Y37301083D01*
X25342065Y37700448D01*
X24942700Y37967296D01*
X24471617Y38061000D01*
X24423383Y38061000D01*
X23952300Y37967296D01*
X23552935Y37700448D01*
X23286087Y37301083D01*
X23192383Y36830000D01*
X2159000Y36830000D01*
X2159000Y39370000D01*
X23192383Y39370000D01*
X23286087Y38898917D01*
X23552935Y38499552D01*
X23952300Y38232704D01*
X24423383Y38139000D01*
X24471617Y38139000D01*
X24942700Y38232704D01*
X25342065Y38499552D01*
X25608913Y38898917D01*
X25619074Y38950000D01*
X44799036Y38950000D01*
X44799036Y37250000D01*
X44825603Y37108810D01*
X44909046Y36979135D01*
X45036366Y36892141D01*
X45187500Y36861536D01*
X46887500Y36861536D01*
X47028690Y36888103D01*
X47158365Y36971546D01*
X47245359Y37098866D01*
X47275964Y37250000D01*
X47275964Y38950000D01*
X47249397Y39091190D01*
X47165954Y39220865D01*
X47038634Y39307859D01*
X46887500Y39338464D01*
X45187500Y39338464D01*
X45046310Y39311897D01*
X44916635Y39228454D01*
X44829641Y39101134D01*
X44799036Y38950000D01*
X25619074Y38950000D01*
X25702617Y39370000D01*
X25608913Y39841083D01*
X25342065Y40240448D01*
X24942700Y40507296D01*
X24471617Y40601000D01*
X24423383Y40601000D01*
X23952300Y40507296D01*
X23552935Y40240448D01*
X23286087Y39841083D01*
X23192383Y39370000D01*
X2159000Y39370000D01*
X2159000Y40640000D01*
X44782383Y40640000D01*
X44876087Y40168917D01*
X45142935Y39769552D01*
X45542300Y39502704D01*
X46013383Y39409000D01*
X46061617Y39409000D01*
X46532700Y39502704D01*
X46932065Y39769552D01*
X47198913Y40168917D01*
X47292617Y40640000D01*
X47198913Y41111083D01*
X46932065Y41510448D01*
X46532700Y41777296D01*
X46061617Y41871000D01*
X46013383Y41871000D01*
X45542300Y41777296D01*
X45142935Y41510448D01*
X44876087Y41111083D01*
X44782383Y40640000D01*
X2159000Y40640000D01*
X2159000Y41910000D01*
X23192383Y41910000D01*
X23286087Y41438917D01*
X23552935Y41039552D01*
X23952300Y40772704D01*
X24423383Y40679000D01*
X24471617Y40679000D01*
X24942700Y40772704D01*
X25342065Y41039552D01*
X25608913Y41438917D01*
X25702617Y41910000D01*
X25608913Y42381083D01*
X25342065Y42780448D01*
X24942700Y43047296D01*
X24471617Y43141000D01*
X24423383Y43141000D01*
X23952300Y43047296D01*
X23552935Y42780448D01*
X23286087Y42381083D01*
X23192383Y41910000D01*
X2159000Y41910000D01*
X2159000Y43180000D01*
X44782383Y43180000D01*
X44876087Y42708917D01*
X45142935Y42309552D01*
X45542300Y42042704D01*
X46013383Y41949000D01*
X46061617Y41949000D01*
X46532700Y42042704D01*
X46932065Y42309552D01*
X47198913Y42708917D01*
X47292617Y43180000D01*
X47198913Y43651083D01*
X46932065Y44050448D01*
X46532700Y44317296D01*
X46061617Y44411000D01*
X46013383Y44411000D01*
X45542300Y44317296D01*
X45142935Y44050448D01*
X44876087Y43651083D01*
X44782383Y43180000D01*
X2159000Y43180000D01*
X2159000Y44450000D01*
X23192383Y44450000D01*
X23286087Y43978917D01*
X23552935Y43579552D01*
X23952300Y43312704D01*
X24423383Y43219000D01*
X24471617Y43219000D01*
X24942700Y43312704D01*
X25342065Y43579552D01*
X25608913Y43978917D01*
X25702617Y44450000D01*
X25608913Y44921083D01*
X25342065Y45320448D01*
X24942700Y45587296D01*
X24471617Y45681000D01*
X24423383Y45681000D01*
X23952300Y45587296D01*
X23552935Y45320448D01*
X23286087Y44921083D01*
X23192383Y44450000D01*
X2159000Y44450000D01*
X2159000Y45720000D01*
X44782383Y45720000D01*
X44876087Y45248917D01*
X45142935Y44849552D01*
X45542300Y44582704D01*
X46013383Y44489000D01*
X46061617Y44489000D01*
X46532700Y44582704D01*
X46932065Y44849552D01*
X47198913Y45248917D01*
X47292617Y45720000D01*
X47198913Y46191083D01*
X46932065Y46590448D01*
X46532700Y46857296D01*
X46061617Y46951000D01*
X46013383Y46951000D01*
X45542300Y46857296D01*
X45142935Y46590448D01*
X44876087Y46191083D01*
X44782383Y45720000D01*
X2159000Y45720000D01*
X2159000Y46755373D01*
X23290858Y46755373D01*
X23463720Y46338034D01*
X23788102Y46011186D01*
X24212872Y45833353D01*
X24396700Y45893439D01*
X24396700Y46939200D01*
X24498300Y46939200D01*
X24498300Y45893439D01*
X24682128Y45833353D01*
X25106898Y46011186D01*
X25431280Y46338034D01*
X25604142Y46755373D01*
X25543974Y46939200D01*
X24498300Y46939200D01*
X24396700Y46939200D01*
X23351026Y46939200D01*
X23290858Y46755373D01*
X2159000Y46755373D01*
X2159000Y47224627D01*
X23290858Y47224627D01*
X23351026Y47040800D01*
X24396700Y47040800D01*
X24396700Y48086561D01*
X24498300Y48086561D01*
X24498300Y47040800D01*
X25543974Y47040800D01*
X25604142Y47224627D01*
X25431280Y47641966D01*
X25106898Y47968814D01*
X24682128Y48146647D01*
X24498300Y48086561D01*
X24396700Y48086561D01*
X24212872Y48146647D01*
X23788102Y47968814D01*
X23463720Y47641966D01*
X23290858Y47224627D01*
X2159000Y47224627D01*
X2159000Y48260000D01*
X44782383Y48260000D01*
X44876087Y47788917D01*
X45142935Y47389552D01*
X45542300Y47122704D01*
X46013383Y47029000D01*
X46061617Y47029000D01*
X46532700Y47122704D01*
X46932065Y47389552D01*
X47198913Y47788917D01*
X47292617Y48260000D01*
X47198913Y48731083D01*
X46932065Y49130448D01*
X46532700Y49397296D01*
X46061617Y49491000D01*
X46013383Y49491000D01*
X45542300Y49397296D01*
X45142935Y49130448D01*
X44876087Y48731083D01*
X44782383Y48260000D01*
X2159000Y48260000D01*
X2159000Y49847500D01*
X23216374Y49847500D01*
X23235603Y49745310D01*
X23319046Y49615635D01*
X23446366Y49528641D01*
X23597500Y49498036D01*
X25297500Y49498036D01*
X25438690Y49524603D01*
X25568365Y49608046D01*
X25655359Y49735366D01*
X25685964Y49886500D01*
X25685964Y50800000D01*
X44782383Y50800000D01*
X44876087Y50328917D01*
X45142935Y49929552D01*
X45542300Y49662704D01*
X46013383Y49569000D01*
X46061617Y49569000D01*
X46532700Y49662704D01*
X46932065Y49929552D01*
X47198913Y50328917D01*
X47292617Y50800000D01*
X47198913Y51271083D01*
X46932065Y51670448D01*
X46532700Y51937296D01*
X46061617Y52031000D01*
X46013383Y52031000D01*
X45542300Y51937296D01*
X45142935Y51670448D01*
X44876087Y51271083D01*
X44782383Y50800000D01*
X25685964Y50800000D01*
X25685964Y50977518D01*
X28048446Y53340000D01*
X44782383Y53340000D01*
X44876087Y52868917D01*
X45142935Y52469552D01*
X45542300Y52202704D01*
X46013383Y52109000D01*
X46061617Y52109000D01*
X46532700Y52202704D01*
X46932065Y52469552D01*
X47198913Y52868917D01*
X47292617Y53340000D01*
X47198913Y53811083D01*
X46932065Y54210448D01*
X46532700Y54477296D01*
X46061617Y54571000D01*
X46013383Y54571000D01*
X45542300Y54477296D01*
X45142935Y54210448D01*
X44876087Y53811083D01*
X44782383Y53340000D01*
X28048446Y53340000D01*
X30588446Y55880000D01*
X44782383Y55880000D01*
X44876087Y55408917D01*
X45142935Y55009552D01*
X45542300Y54742704D01*
X46013383Y54649000D01*
X46061617Y54649000D01*
X46532700Y54742704D01*
X46932065Y55009552D01*
X47198913Y55408917D01*
X47292617Y55880000D01*
X47212979Y56280373D01*
X56437858Y56280373D01*
X56610720Y55863034D01*
X56935102Y55536186D01*
X57359872Y55358353D01*
X57543700Y55418439D01*
X57543700Y56464200D01*
X57645300Y56464200D01*
X57645300Y55418439D01*
X57829128Y55358353D01*
X58253898Y55536186D01*
X58578280Y55863034D01*
X58751142Y56280373D01*
X58690974Y56464200D01*
X57645300Y56464200D01*
X57543700Y56464200D01*
X56498026Y56464200D01*
X56437858Y56280373D01*
X47212979Y56280373D01*
X47198913Y56351083D01*
X46932614Y56749627D01*
X56437858Y56749627D01*
X56498026Y56565800D01*
X57543700Y56565800D01*
X57543700Y57611561D01*
X57645300Y57611561D01*
X57645300Y56565800D01*
X58690974Y56565800D01*
X58751142Y56749627D01*
X58578280Y57166966D01*
X58253898Y57493814D01*
X57829128Y57671647D01*
X57645300Y57611561D01*
X57543700Y57611561D01*
X57359872Y57671647D01*
X56935102Y57493814D01*
X56610720Y57166966D01*
X56437858Y56749627D01*
X46932614Y56749627D01*
X46932065Y56750448D01*
X46532700Y57017296D01*
X46061617Y57111000D01*
X46013383Y57111000D01*
X45542300Y57017296D01*
X45142935Y56750448D01*
X44876087Y56351083D01*
X44782383Y55880000D01*
X30588446Y55880000D01*
X33128446Y58420000D01*
X44782383Y58420000D01*
X44876087Y57948917D01*
X45142935Y57549552D01*
X45542300Y57282704D01*
X46013383Y57189000D01*
X46061617Y57189000D01*
X46532700Y57282704D01*
X46932065Y57549552D01*
X47198913Y57948917D01*
X47292617Y58420000D01*
X47198913Y58891083D01*
X46932065Y59290448D01*
X46532700Y59557296D01*
X46061617Y59651000D01*
X46013383Y59651000D01*
X45542300Y59557296D01*
X45142935Y59290448D01*
X44876087Y58891083D01*
X44782383Y58420000D01*
X33128446Y58420000D01*
X33169473Y58461026D01*
X33312630Y58675276D01*
X33320491Y58714795D01*
X33362900Y58928000D01*
X33362900Y60725373D01*
X44880858Y60725373D01*
X45053720Y60308034D01*
X45378102Y59981186D01*
X45802872Y59803353D01*
X45986700Y59863439D01*
X45986700Y60909200D01*
X46088300Y60909200D01*
X46088300Y59863439D01*
X46272128Y59803353D01*
X46514920Y59905000D01*
X56356036Y59905000D01*
X56356036Y58205000D01*
X56382603Y58063810D01*
X56466046Y57934135D01*
X56593366Y57847141D01*
X56744500Y57816536D01*
X58444500Y57816536D01*
X58585690Y57843103D01*
X58715365Y57926546D01*
X58802359Y58053866D01*
X58832964Y58205000D01*
X58832964Y59036228D01*
X60763118Y60966382D01*
X60955829Y61254794D01*
X61023500Y61595000D01*
X61023500Y63646373D01*
X84885858Y63646373D01*
X85058720Y63229034D01*
X85383102Y62902186D01*
X85807872Y62724353D01*
X85991700Y62784439D01*
X85991700Y63830200D01*
X86093300Y63830200D01*
X86093300Y62784439D01*
X86277128Y62724353D01*
X86701898Y62902186D01*
X87026280Y63229034D01*
X87199142Y63646373D01*
X87138974Y63830200D01*
X86093300Y63830200D01*
X85991700Y63830200D01*
X84946026Y63830200D01*
X84885858Y63646373D01*
X61023500Y63646373D01*
X61023500Y64115627D01*
X84885858Y64115627D01*
X84946026Y63931800D01*
X85991700Y63931800D01*
X85991700Y64977561D01*
X86093300Y64977561D01*
X86093300Y63931800D01*
X87138974Y63931800D01*
X87199142Y64115627D01*
X87026280Y64532966D01*
X86701898Y64859814D01*
X86277128Y65037647D01*
X86093300Y64977561D01*
X85991700Y64977561D01*
X85807872Y65037647D01*
X85383102Y64859814D01*
X85058720Y64532966D01*
X84885858Y64115627D01*
X61023500Y64115627D01*
X61023500Y66287650D01*
X84862300Y66287650D01*
X84862300Y65505319D01*
X84912570Y65383957D01*
X85005457Y65291070D01*
X85126819Y65240800D01*
X85909150Y65240800D01*
X85991700Y65323350D01*
X85991700Y66370200D01*
X86093300Y66370200D01*
X86093300Y65323350D01*
X86175850Y65240800D01*
X86958181Y65240800D01*
X87079543Y65291070D01*
X87172430Y65383957D01*
X87222700Y65505319D01*
X87222700Y66287650D01*
X87140150Y66370200D01*
X86093300Y66370200D01*
X85991700Y66370200D01*
X84944850Y66370200D01*
X84862300Y66287650D01*
X61023500Y66287650D01*
X61023500Y67336681D01*
X84862300Y67336681D01*
X84862300Y66554350D01*
X84944850Y66471800D01*
X85991700Y66471800D01*
X85991700Y67518650D01*
X86093300Y67518650D01*
X86093300Y66471800D01*
X87140150Y66471800D01*
X87222700Y66554350D01*
X87222700Y67336681D01*
X87172430Y67458043D01*
X87079543Y67550930D01*
X86958181Y67601200D01*
X86175850Y67601200D01*
X86093300Y67518650D01*
X85991700Y67518650D01*
X85909150Y67601200D01*
X85126819Y67601200D01*
X85005457Y67550930D01*
X84912570Y67458043D01*
X84862300Y67336681D01*
X61023500Y67336681D01*
X61023500Y83588200D01*
X61271796Y83959800D01*
X61365500Y84430883D01*
X61365500Y84479117D01*
X61271796Y84950200D01*
X61004948Y85349565D01*
X60605583Y85616413D01*
X60134500Y85710117D01*
X59663417Y85616413D01*
X59264052Y85349565D01*
X58997204Y84950200D01*
X58903500Y84479117D01*
X58903500Y84430883D01*
X58997204Y83959800D01*
X59245500Y83588200D01*
X59245500Y61963236D01*
X57575728Y60293464D01*
X56744500Y60293464D01*
X56603310Y60266897D01*
X56473635Y60183454D01*
X56386641Y60056134D01*
X56356036Y59905000D01*
X46514920Y59905000D01*
X46696898Y59981186D01*
X47021280Y60308034D01*
X47194142Y60725373D01*
X47133974Y60909200D01*
X46088300Y60909200D01*
X45986700Y60909200D01*
X44941026Y60909200D01*
X44880858Y60725373D01*
X33362900Y60725373D01*
X33362900Y61194627D01*
X44880858Y61194627D01*
X44941026Y61010800D01*
X45986700Y61010800D01*
X45986700Y62056561D01*
X46088300Y62056561D01*
X46088300Y61010800D01*
X47133974Y61010800D01*
X47194142Y61194627D01*
X47021280Y61611966D01*
X46696898Y61938814D01*
X46272128Y62116647D01*
X46088300Y62056561D01*
X45986700Y62056561D01*
X45802872Y62116647D01*
X45378102Y61938814D01*
X45053720Y61611966D01*
X44880858Y61194627D01*
X33362900Y61194627D01*
X33362900Y62854087D01*
X33597065Y63010552D01*
X33863913Y63409917D01*
X33957617Y63881000D01*
X33863913Y64352083D01*
X33597065Y64751448D01*
X33591500Y64755166D01*
X33591500Y65189874D01*
X33693690Y65209103D01*
X33823365Y65292546D01*
X33910359Y65419866D01*
X33940964Y65571000D01*
X33940964Y67271000D01*
X33914397Y67412190D01*
X33830954Y67541865D01*
X33703634Y67628859D01*
X33552500Y67659464D01*
X31852500Y67659464D01*
X31711310Y67632897D01*
X31581635Y67549454D01*
X31494641Y67422134D01*
X31464036Y67271000D01*
X31464036Y65571000D01*
X31490603Y65429810D01*
X31574046Y65300135D01*
X31701366Y65213141D01*
X31813500Y65190434D01*
X31813500Y64755166D01*
X31807935Y64751448D01*
X31541087Y64352083D01*
X31447383Y63881000D01*
X31541087Y63409917D01*
X31807935Y63010552D01*
X32042100Y62854087D01*
X32042100Y59201547D01*
X25534290Y52693736D01*
X25608913Y52805417D01*
X25702617Y53276500D01*
X25608913Y53747583D01*
X25342065Y54146948D01*
X24942700Y54413796D01*
X24471617Y54507500D01*
X24423383Y54507500D01*
X23952300Y54413796D01*
X23552935Y54146948D01*
X23286087Y53747583D01*
X23192383Y53276500D01*
X23286087Y52805417D01*
X23552935Y52406052D01*
X23952300Y52139204D01*
X24423383Y52045500D01*
X24471617Y52045500D01*
X24942700Y52139204D01*
X25054381Y52213827D01*
X24815518Y51974964D01*
X23597500Y51974964D01*
X23456310Y51948397D01*
X23326635Y51864954D01*
X23239641Y51737634D01*
X23216934Y51625500D01*
X2159000Y51625500D01*
X2159000Y55816500D01*
X23192383Y55816500D01*
X23286087Y55345417D01*
X23552935Y54946052D01*
X23952300Y54679204D01*
X24423383Y54585500D01*
X24471617Y54585500D01*
X24942700Y54679204D01*
X25342065Y54946052D01*
X25608913Y55345417D01*
X25702617Y55816500D01*
X25608913Y56287583D01*
X25342065Y56686948D01*
X24942700Y56953796D01*
X24471617Y57047500D01*
X24423383Y57047500D01*
X23952300Y56953796D01*
X23552935Y56686948D01*
X23286087Y56287583D01*
X23192383Y55816500D01*
X2159000Y55816500D01*
X2159000Y55829264D01*
X4686236Y58356500D01*
X23192383Y58356500D01*
X23286087Y57885417D01*
X23552935Y57486052D01*
X23952300Y57219204D01*
X24423383Y57125500D01*
X24471617Y57125500D01*
X24942700Y57219204D01*
X25342065Y57486052D01*
X25608913Y57885417D01*
X25702617Y58356500D01*
X25608913Y58827583D01*
X25342065Y59226948D01*
X24942700Y59493796D01*
X24471617Y59587500D01*
X24423383Y59587500D01*
X23952300Y59493796D01*
X23552935Y59226948D01*
X23286087Y58827583D01*
X23192383Y58356500D01*
X4686236Y58356500D01*
X7226236Y60896500D01*
X23192383Y60896500D01*
X23286087Y60425417D01*
X23552935Y60026052D01*
X23952300Y59759204D01*
X24423383Y59665500D01*
X24471617Y59665500D01*
X24942700Y59759204D01*
X25342065Y60026052D01*
X25608913Y60425417D01*
X25702617Y60896500D01*
X25608913Y61367583D01*
X25342065Y61766948D01*
X24942700Y62033796D01*
X24471617Y62127500D01*
X24423383Y62127500D01*
X23952300Y62033796D01*
X23552935Y61766948D01*
X23286087Y61367583D01*
X23192383Y60896500D01*
X7226236Y60896500D01*
X9162772Y62833036D01*
X9994000Y62833036D01*
X10135190Y62859603D01*
X10264865Y62943046D01*
X10351859Y63070366D01*
X10382464Y63221500D01*
X10382464Y63436500D01*
X23192383Y63436500D01*
X23286087Y62965417D01*
X23552935Y62566052D01*
X23952300Y62299204D01*
X24423383Y62205500D01*
X24471617Y62205500D01*
X24942700Y62299204D01*
X25342065Y62566052D01*
X25608913Y62965417D01*
X25702617Y63436500D01*
X25608913Y63907583D01*
X25342065Y64306948D01*
X24942700Y64573796D01*
X24471617Y64667500D01*
X24423383Y64667500D01*
X23952300Y64573796D01*
X23552935Y64306948D01*
X23286087Y63907583D01*
X23192383Y63436500D01*
X10382464Y63436500D01*
X10382464Y64921500D01*
X10355897Y65062690D01*
X10272454Y65192365D01*
X10145134Y65279359D01*
X9994000Y65309964D01*
X8294000Y65309964D01*
X8152810Y65283397D01*
X8023135Y65199954D01*
X7936141Y65072634D01*
X7905536Y64921500D01*
X7905536Y64090272D01*
X641382Y56826118D01*
X448671Y56537706D01*
X381000Y56197500D01*
X76200Y56197500D01*
X76200Y66611500D01*
X7888883Y66611500D01*
X7982587Y66140417D01*
X8249435Y65741052D01*
X8648800Y65474204D01*
X9119883Y65380500D01*
X9168117Y65380500D01*
X9639200Y65474204D01*
X10038565Y65741052D01*
X10195886Y65976500D01*
X23192383Y65976500D01*
X23286087Y65505417D01*
X23552935Y65106052D01*
X23952300Y64839204D01*
X24423383Y64745500D01*
X24471617Y64745500D01*
X24942700Y64839204D01*
X25342065Y65106052D01*
X25608913Y65505417D01*
X25702617Y65976500D01*
X25608913Y66447583D01*
X25342065Y66846948D01*
X24942700Y67113796D01*
X24471617Y67207500D01*
X24423383Y67207500D01*
X23952300Y67113796D01*
X23552935Y66846948D01*
X23286087Y66447583D01*
X23192383Y65976500D01*
X10195886Y65976500D01*
X10305413Y66140417D01*
X10399117Y66611500D01*
X10305413Y67082583D01*
X10038565Y67481948D01*
X9639200Y67748796D01*
X9168117Y67842500D01*
X9119883Y67842500D01*
X8648800Y67748796D01*
X8249435Y67481948D01*
X7982587Y67082583D01*
X7888883Y66611500D01*
X76200Y66611500D01*
X76200Y68516500D01*
X23192383Y68516500D01*
X23286087Y68045417D01*
X23552935Y67646052D01*
X23952300Y67379204D01*
X24423383Y67285500D01*
X24471617Y67285500D01*
X24942700Y67379204D01*
X25342065Y67646052D01*
X25608913Y68045417D01*
X25702617Y68516500D01*
X25608913Y68987583D01*
X25342065Y69386948D01*
X24942700Y69653796D01*
X24471617Y69747500D01*
X24423383Y69747500D01*
X23952300Y69653796D01*
X23552935Y69386948D01*
X23286087Y68987583D01*
X23192383Y68516500D01*
X76200Y68516500D01*
X76200Y72757400D01*
X4959136Y72757400D01*
X4959136Y71057400D01*
X4985703Y70916210D01*
X5069146Y70786535D01*
X5196466Y70699541D01*
X5347600Y70668936D01*
X7047600Y70668936D01*
X7188790Y70695503D01*
X7318465Y70778946D01*
X7405459Y70906266D01*
X7436064Y71057400D01*
X7436064Y71672772D01*
X7580953Y71672772D01*
X7758786Y71248002D01*
X8085634Y70923620D01*
X8502973Y70750758D01*
X8686800Y70810926D01*
X8686800Y71856600D01*
X8788400Y71856600D01*
X8788400Y70810926D01*
X8972227Y70750758D01*
X9389566Y70923620D01*
X9523456Y71056500D01*
X23192383Y71056500D01*
X23286087Y70585417D01*
X23552935Y70186052D01*
X23952300Y69919204D01*
X24423383Y69825500D01*
X24471617Y69825500D01*
X24942700Y69919204D01*
X25342065Y70186052D01*
X25608913Y70585417D01*
X25702617Y71056500D01*
X25608913Y71527583D01*
X25342065Y71926948D01*
X24942700Y72193796D01*
X24471617Y72287500D01*
X24423383Y72287500D01*
X23952300Y72193796D01*
X23552935Y71926948D01*
X23286087Y71527583D01*
X23192383Y71056500D01*
X9523456Y71056500D01*
X9716414Y71248002D01*
X9894247Y71672772D01*
X9834161Y71856600D01*
X8788400Y71856600D01*
X8686800Y71856600D01*
X7641039Y71856600D01*
X7580953Y71672772D01*
X7436064Y71672772D01*
X7436064Y72142028D01*
X7580953Y72142028D01*
X7641039Y71958200D01*
X8686800Y71958200D01*
X8686800Y73003874D01*
X8788400Y73003874D01*
X8788400Y71958200D01*
X9834161Y71958200D01*
X9894247Y72142028D01*
X9716414Y72566798D01*
X9389566Y72891180D01*
X8972227Y73064042D01*
X8788400Y73003874D01*
X8686800Y73003874D01*
X8502973Y73064042D01*
X8085634Y72891180D01*
X7758786Y72566798D01*
X7580953Y72142028D01*
X7436064Y72142028D01*
X7436064Y72757400D01*
X7409497Y72898590D01*
X7326054Y73028265D01*
X7198734Y73115259D01*
X7047600Y73145864D01*
X5347600Y73145864D01*
X5206410Y73119297D01*
X5076735Y73035854D01*
X4989741Y72908534D01*
X4959136Y72757400D01*
X76200Y72757400D01*
X76200Y73361873D01*
X23290858Y73361873D01*
X23463720Y72944534D01*
X23788102Y72617686D01*
X24212872Y72439853D01*
X24396700Y72499939D01*
X24396700Y73545700D01*
X24498300Y73545700D01*
X24498300Y72499939D01*
X24682128Y72439853D01*
X25106898Y72617686D01*
X25431280Y72944534D01*
X25604142Y73361873D01*
X25543974Y73545700D01*
X24498300Y73545700D01*
X24396700Y73545700D01*
X23351026Y73545700D01*
X23290858Y73361873D01*
X76200Y73361873D01*
X76200Y73831127D01*
X23290858Y73831127D01*
X23351026Y73647300D01*
X24396700Y73647300D01*
X24396700Y74693061D01*
X24498300Y74693061D01*
X24498300Y73647300D01*
X25543974Y73647300D01*
X25604142Y73831127D01*
X25431280Y74248466D01*
X25106898Y74575314D01*
X24682128Y74753147D01*
X24498300Y74693061D01*
X24396700Y74693061D01*
X24212872Y74753147D01*
X23788102Y74575314D01*
X23463720Y74248466D01*
X23290858Y73831127D01*
X76200Y73831127D01*
X76200Y84321650D01*
X56414300Y84321650D01*
X56414300Y83539319D01*
X56464570Y83417957D01*
X56557457Y83325070D01*
X56678819Y83274800D01*
X57461150Y83274800D01*
X57543700Y83357350D01*
X57543700Y84404200D01*
X57645300Y84404200D01*
X57645300Y83357350D01*
X57727850Y83274800D01*
X58510181Y83274800D01*
X58631543Y83325070D01*
X58724430Y83417957D01*
X58774700Y83539319D01*
X58774700Y84321650D01*
X58692150Y84404200D01*
X57645300Y84404200D01*
X57543700Y84404200D01*
X56496850Y84404200D01*
X56414300Y84321650D01*
X76200Y84321650D01*
X76200Y85370681D01*
X56414300Y85370681D01*
X56414300Y84588350D01*
X56496850Y84505800D01*
X57543700Y84505800D01*
X57543700Y85552650D01*
X57645300Y85552650D01*
X57645300Y84505800D01*
X58692150Y84505800D01*
X58774700Y84588350D01*
X58774700Y85370681D01*
X58724430Y85492043D01*
X58631543Y85584930D01*
X58510181Y85635200D01*
X57727850Y85635200D01*
X57645300Y85552650D01*
X57543700Y85552650D01*
X57461150Y85635200D01*
X56678819Y85635200D01*
X56557457Y85584930D01*
X56464570Y85492043D01*
X56414300Y85370681D01*
X76200Y85370681D01*
X76200Y86918800D01*
X70516936Y86918800D01*
X88506300Y68929436D01*
M02*
