M48
INCH,TZ
FMAT,2
ICI,OFF
T01C.016
T02C.018
%
T01
G05
X984Y6693
X394Y6693
X1575Y6693
X2165Y6693
X2756Y6693
X3346Y6693
X4528Y6693
X3937Y6693
X5118Y6693
X5709Y6693
X6299Y6693
X6890Y6693
X8071Y6693
X7480Y6693
X9252Y6693
X8661Y6693
X10315Y2165
X10315Y1732
X10315Y1220
X10315Y748
X10315Y315
X10472Y2638
X10433Y3150
X10433Y3740
X10433Y4331
X10433Y4921
X10433Y5512
X10433Y6102
X10433Y6693
X9843Y6693
X12126Y2244
X12126Y1772
X12126Y1299
X12126Y787
X12126Y276
X11969Y2638
X12008Y3150
X12008Y3740
X12008Y4331
X12008Y4921
X12008Y5512
X12008Y6102
X12598Y6693
X12008Y6693
X13780Y6693
X13189Y6693
X14370Y6693
X14961Y6693
X15551Y6693
X16142Y6693
X17323Y6693
X16732Y6693
X18504Y6693
X17913Y6693
X19488Y6693
X20079Y6693
X20669Y6693
X21850Y6693
X21260Y6693
X23031Y6693
X22441Y6693
T02
X9496Y2528
X12945Y2528
M30
