*
%LPD*%
%LN915 PCB Antenna 01-drl_map*%
%FSLAX25Y25*%
%MOIN*%
%AD*%
%AD*%
%ADD19C,0.007874016*%
%ADD20C,0.011811024*%
G54D19*
%SRX1Y1I0.0J0.0*%
G1X3150Y67717D2*
G1X4724Y66142D1*
G1X4724Y67717D2*
G1X3150Y66142D1*
G1X9055Y67717D2*
G1X10630Y66142D1*
G1X10630Y67717D2*
G1X9055Y66142D1*
G1X14961Y67717D2*
G1X16535Y66142D1*
G1X16535Y67717D2*
G1X14961Y66142D1*
G1X20866Y67717D2*
G1X22441Y66142D1*
G1X22441Y67717D2*
G1X20866Y66142D1*
G1X26772Y67717D2*
G1X28346Y66142D1*
G1X28346Y67717D2*
G1X26772Y66142D1*
G1X32677Y67717D2*
G1X34252Y66142D1*
G1X34252Y67717D2*
G1X32677Y66142D1*
G1X38583Y67717D2*
G1X40157Y66142D1*
G1X40157Y67717D2*
G1X38583Y66142D1*
G1X44488Y67717D2*
G1X46063Y66142D1*
G1X46063Y67717D2*
G1X44488Y66142D1*
G1X50394Y67717D2*
G1X51969Y66142D1*
G1X51969Y67717D2*
G1X50394Y66142D1*
G1X56299Y67717D2*
G1X57874Y66142D1*
G1X57874Y67717D2*
G1X56299Y66142D1*
G1X62205Y67717D2*
G1X63780Y66142D1*
G1X63780Y67717D2*
G1X62205Y66142D1*
G1X68110Y67717D2*
G1X69685Y66142D1*
G1X69685Y67717D2*
G1X68110Y66142D1*
G1X74016Y67717D2*
G1X75591Y66142D1*
G1X75591Y67717D2*
G1X74016Y66142D1*
G1X79921Y67717D2*
G1X81496Y66142D1*
G1X81496Y67717D2*
G1X79921Y66142D1*
G1X85827Y67717D2*
G1X87402Y66142D1*
G1X87402Y67717D2*
G1X85827Y66142D1*
G1X91732Y67717D2*
G1X93307Y66142D1*
G1X93307Y67717D2*
G1X91732Y66142D1*
G1X97638Y67717D2*
G1X99213Y66142D1*
G1X99213Y67717D2*
G1X97638Y66142D1*
G1X102362Y22441D2*
G1X103937Y20866D1*
G1X103937Y22441D2*
G1X102362Y20866D1*
G1X102362Y18110D2*
G1X103937Y16535D1*
G1X103937Y18110D2*
G1X102362Y16535D1*
G1X102362Y12992D2*
G1X103937Y11417D1*
G1X103937Y12992D2*
G1X102362Y11417D1*
G1X102362Y8268D2*
G1X103937Y6693D1*
G1X103937Y8268D2*
G1X102362Y6693D1*
G1X102362Y3937D2*
G1X103937Y2362D1*
G1X103937Y3937D2*
G1X102362Y2362D1*
G1X103543Y67717D2*
G1X105118Y66142D1*
G1X105118Y67717D2*
G1X103543Y66142D1*
G1X103543Y61811D2*
G1X105118Y60236D1*
G1X105118Y61811D2*
G1X103543Y60236D1*
G1X103543Y55906D2*
G1X105118Y54331D1*
G1X105118Y55906D2*
G1X103543Y54331D1*
G1X103543Y50000D2*
G1X105118Y48425D1*
G1X105118Y50000D2*
G1X103543Y48425D1*
G1X103543Y44094D2*
G1X105118Y42520D1*
G1X105118Y44094D2*
G1X103543Y42520D1*
G1X103543Y38189D2*
G1X105118Y36614D1*
G1X105118Y38189D2*
G1X103543Y36614D1*
G1X103543Y32283D2*
G1X105118Y30709D1*
G1X105118Y32283D2*
G1X103543Y30709D1*
G1X103937Y27165D2*
G1X105512Y25591D1*
G1X105512Y27165D2*
G1X103937Y25591D1*
G1X118898Y27165D2*
G1X120472Y25591D1*
G1X120472Y27165D2*
G1X118898Y25591D1*
G1X119291Y67717D2*
G1X120866Y66142D1*
G1X120866Y67717D2*
G1X119291Y66142D1*
G1X119291Y61811D2*
G1X120866Y60236D1*
G1X120866Y61811D2*
G1X119291Y60236D1*
G1X119291Y55906D2*
G1X120866Y54331D1*
G1X120866Y55906D2*
G1X119291Y54331D1*
G1X119291Y50000D2*
G1X120866Y48425D1*
G1X120866Y50000D2*
G1X119291Y48425D1*
G1X119291Y44094D2*
G1X120866Y42520D1*
G1X120866Y44094D2*
G1X119291Y42520D1*
G1X119291Y38189D2*
G1X120866Y36614D1*
G1X120866Y38189D2*
G1X119291Y36614D1*
G1X119291Y32283D2*
G1X120866Y30709D1*
G1X120866Y32283D2*
G1X119291Y30709D1*
G1X120472Y23228D2*
G1X122047Y21654D1*
G1X122047Y23228D2*
G1X120472Y21654D1*
G1X120472Y18504D2*
G1X122047Y16929D1*
G1X122047Y18504D2*
G1X120472Y16929D1*
G1X120472Y13780D2*
G1X122047Y12205D1*
G1X122047Y13780D2*
G1X120472Y12205D1*
G1X120472Y8661D2*
G1X122047Y7087D1*
G1X122047Y8661D2*
G1X120472Y7087D1*
G1X120472Y3543D2*
G1X122047Y1969D1*
G1X122047Y3543D2*
G1X120472Y1969D1*
G1X125197Y67717D2*
G1X126772Y66142D1*
G1X126772Y67717D2*
G1X125197Y66142D1*
G1X131102Y67717D2*
G1X132677Y66142D1*
G1X132677Y67717D2*
G1X131102Y66142D1*
G1X137008Y67717D2*
G1X138583Y66142D1*
G1X138583Y67717D2*
G1X137008Y66142D1*
G1X142913Y67717D2*
G1X144488Y66142D1*
G1X144488Y67717D2*
G1X142913Y66142D1*
G1X148819Y67717D2*
G1X150394Y66142D1*
G1X150394Y67717D2*
G1X148819Y66142D1*
G1X154724Y67717D2*
G1X156299Y66142D1*
G1X156299Y67717D2*
G1X154724Y66142D1*
G1X160630Y67717D2*
G1X162205Y66142D1*
G1X162205Y67717D2*
G1X160630Y66142D1*
G1X166535Y67717D2*
G1X168110Y66142D1*
G1X168110Y67717D2*
G1X166535Y66142D1*
G1X172441Y67717D2*
G1X174016Y66142D1*
G1X174016Y67717D2*
G1X172441Y66142D1*
G1X178346Y67717D2*
G1X179921Y66142D1*
G1X179921Y67717D2*
G1X178346Y66142D1*
G1X184252Y67717D2*
G1X185827Y66142D1*
G1X185827Y67717D2*
G1X184252Y66142D1*
G1X194094Y67717D2*
G1X195669Y66142D1*
G1X195669Y67717D2*
G1X194094Y66142D1*
G1X200000Y67717D2*
G1X201575Y66142D1*
G1X201575Y67717D2*
G1X200000Y66142D1*
G1X205906Y67717D2*
G1X207480Y66142D1*
G1X207480Y67717D2*
G1X205906Y66142D1*
G1X211811Y67717D2*
G1X213386Y66142D1*
G1X213386Y67717D2*
G1X211811Y66142D1*
G1X217717Y67717D2*
G1X219291Y66142D1*
G1X219291Y67717D2*
G1X217717Y66142D1*
G1X223622Y67717D2*
G1X225197Y66142D1*
G1X225197Y67717D2*
G1X223622Y66142D1*
G1X229528Y67717D2*
G1X231102Y66142D1*
G1X231102Y67717D2*
G1X229528Y66142D1*
G1X95866Y25276D2*
G75*
G3X95866Y25276I-906J0D1*
G1X130354Y25276D2*
G3X130354Y25276I-906J0D1*
G74*
G1X-341676Y465917D2*
G54D20*
G1X-341676Y477728D1*
G1X-338864Y477728D1*
G1X-337177Y477165D1*
G1X-336052Y476041D1*
G1X-335489Y474916D1*
G1X-334927Y472666D1*
G1X-334927Y470979D1*
G1X-335489Y468729D1*
G1X-336052Y467604D1*
G1X-337177Y466479D1*
G1X-338864Y465917D1*
G1X-341676Y465917D1*
G1X-329865Y465917D2*
G1X-329865Y473791D1*
G1X-329865Y471541D2*
G1X-329303Y472666D1*
G1X-328740Y473228D1*
G1X-327615Y473791D1*
G1X-326490Y473791D1*
G1X-322553Y465917D2*
G1X-322553Y473791D1*
G1X-322553Y477728D2*
G1X-323116Y477165D1*
G1X-322553Y476603D1*
G1X-321991Y477165D1*
G1X-322553Y477728D1*
G1X-322553Y476603D1*
G1X-315242Y465917D2*
G1X-316367Y466479D1*
G1X-316929Y467604D1*
G1X-316929Y477728D1*
G1X-309055Y465917D2*
G1X-310180Y466479D1*
G1X-310742Y467604D1*
G1X-310742Y477728D1*
G1X-295557Y465917D2*
G1X-295557Y477728D1*
G1X-291620Y469291D1*
G1X-287683Y477728D1*
G1X-287683Y465917D1*
G1X-276997Y465917D2*
G1X-276997Y472104D1*
G1X-277559Y473228D1*
G1X-278684Y473791D1*
G1X-280934Y473791D1*
G1X-282059Y473228D1*
G1X-276997Y466479D2*
G1X-278121Y465917D1*
G1X-280934Y465917D1*
G1X-282059Y466479D1*
G1X-282621Y467604D1*
G1X-282621Y468729D1*
G1X-282059Y469854D1*
G1X-280934Y470416D1*
G1X-278121Y470416D1*
G1X-276997Y470979D1*
G1X-271372Y473791D2*
G1X-271372Y461980D1*
G1X-271372Y473228D2*
G1X-270247Y473791D1*
G1X-267998Y473791D1*
G1X-266873Y473228D1*
G1X-266310Y472666D1*
G1X-265748Y471541D1*
G1X-265748Y468166D1*
G1X-266310Y467042D1*
G1X-266873Y466479D1*
G1X-267998Y465917D1*
G1X-270247Y465917D1*
G1X-271372Y466479D1*
G1X-260686Y467042D2*
G1X-260124Y466479D1*
G1X-260686Y465917D1*
G1X-261249Y466479D1*
G1X-260686Y467042D1*
G1X-260686Y465917D1*
G1X-260686Y473228D2*
G1X-260124Y472666D1*
G1X-260686Y472104D1*
G1X-261249Y472666D1*
G1X-260686Y473228D1*
G1X-260686Y472104D1*
G1X-353937Y447244D2*
G1X-352362Y445669D1*
G1X-352362Y447244D2*
G1X-353937Y445669D1*
G1X-339426Y452925D2*
G1X-338301Y452925D1*
G1X-337177Y452362D1*
G1X-336614Y451800D1*
G1X-336052Y450675D1*
G1X-335489Y448425D1*
G1X-335489Y445613D1*
G1X-336052Y443363D1*
G1X-336614Y442238D1*
G1X-337177Y441676D1*
G1X-338301Y441114D1*
G1X-339426Y441114D1*
G1X-340551Y441676D1*
G1X-341114Y442238D1*
G1X-341676Y443363D1*
G1X-342238Y445613D1*
G1X-342238Y448425D1*
G1X-341676Y450675D1*
G1X-341114Y451800D1*
G1X-340551Y452362D1*
G1X-339426Y452925D1*
G1X-330427Y442238D2*
G1X-329865Y441676D1*
G1X-330427Y441114D1*
G1X-330990Y441676D1*
G1X-330427Y442238D1*
G1X-330427Y441114D1*
G1X-319741Y448988D2*
G1X-319741Y441114D1*
G1X-322553Y453487D2*
G1X-325366Y445051D1*
G1X-318054Y445051D1*
G1X-311305Y452925D2*
G1X-310180Y452925D1*
G1X-309055Y452362D1*
G1X-308493Y451800D1*
G1X-307930Y450675D1*
G1X-307368Y448425D1*
G1X-307368Y445613D1*
G1X-307930Y443363D1*
G1X-308493Y442238D1*
G1X-309055Y441676D1*
G1X-310180Y441114D1*
G1X-311305Y441114D1*
G1X-312430Y441676D1*
G1X-312992Y442238D1*
G1X-313555Y443363D1*
G1X-314117Y445613D1*
G1X-314117Y448425D1*
G1X-313555Y450675D1*
G1X-312992Y451800D1*
G1X-312430Y452362D1*
G1X-311305Y452925D1*
G1X-302306Y441114D2*
G1X-302306Y448988D1*
G1X-302306Y447863D2*
G1X-301744Y448425D1*
G1X-300619Y448988D1*
G1X-298931Y448988D1*
G1X-297807Y448425D1*
G1X-297244Y447300D1*
G1X-297244Y441114D1*
G1X-297244Y447300D2*
G1X-296682Y448425D1*
G1X-295557Y448988D1*
G1X-293870Y448988D1*
G1X-292745Y448425D1*
G1X-292182Y447300D1*
G1X-292182Y441114D1*
G1X-286558Y441114D2*
G1X-286558Y448988D1*
G1X-286558Y447863D2*
G1X-285996Y448425D1*
G1X-284871Y448988D1*
G1X-283183Y448988D1*
G1X-282059Y448425D1*
G1X-281496Y447300D1*
G1X-281496Y441114D1*
G1X-281496Y447300D2*
G1X-280934Y448425D1*
G1X-279809Y448988D1*
G1X-278121Y448988D1*
G1X-276997Y448425D1*
G1X-276434Y447300D1*
G1X-276434Y441114D1*
G1X-253375Y453487D2*
G1X-263498Y438301D1*
G1X-238189Y452925D2*
G1X-237064Y452925D1*
G1X-235939Y452362D1*
G1X-235377Y451800D1*
G1X-234814Y450675D1*
G1X-234252Y448425D1*
G1X-234252Y445613D1*
G1X-234814Y443363D1*
G1X-235377Y442238D1*
G1X-235939Y441676D1*
G1X-237064Y441114D1*
G1X-238189Y441114D1*
G1X-239314Y441676D1*
G1X-239876Y442238D1*
G1X-240439Y443363D1*
G1X-241001Y445613D1*
G1X-241001Y448425D1*
G1X-240439Y450675D1*
G1X-239876Y451800D1*
G1X-239314Y452362D1*
G1X-238189Y452925D1*
G1X-229190Y442238D2*
G1X-228628Y441676D1*
G1X-229190Y441114D1*
G1X-229753Y441676D1*
G1X-229190Y442238D1*
G1X-229190Y441114D1*
G1X-221316Y452925D2*
G1X-220191Y452925D1*
G1X-219066Y452362D1*
G1X-218504Y451800D1*
G1X-217941Y450675D1*
G1X-217379Y448425D1*
G1X-217379Y445613D1*
G1X-217941Y443363D1*
G1X-218504Y442238D1*
G1X-219066Y441676D1*
G1X-220191Y441114D1*
G1X-221316Y441114D1*
G1X-222441Y441676D1*
G1X-223003Y442238D1*
G1X-223566Y443363D1*
G1X-224128Y445613D1*
G1X-224128Y448425D1*
G1X-223566Y450675D1*
G1X-223003Y451800D1*
G1X-222441Y452362D1*
G1X-221316Y452925D1*
G1X-206130Y441114D2*
G1X-212880Y441114D1*
G1X-209505Y441114D2*
G1X-209505Y452925D1*
G1X-210630Y451237D1*
G1X-211755Y450112D1*
G1X-212880Y449550D1*
G1X-196007Y452925D2*
G1X-198256Y452925D1*
G1X-199381Y452362D1*
G1X-199944Y451800D1*
G1X-201069Y450112D1*
G1X-201631Y447863D1*
G1X-201631Y443363D1*
G1X-201069Y442238D1*
G1X-200506Y441676D1*
G1X-199381Y441114D1*
G1X-197132Y441114D1*
G1X-196007Y441676D1*
G1X-195444Y442238D1*
G1X-194882Y443363D1*
G1X-194882Y446175D1*
G1X-195444Y447300D1*
G1X-196007Y447863D1*
G1X-197132Y448425D1*
G1X-199381Y448425D1*
G1X-200506Y447863D1*
G1X-201069Y447300D1*
G1X-201631Y446175D1*
G1X-190382Y452925D2*
G1X-190382Y450675D1*
G1X-185883Y452925D2*
G1X-185883Y450675D1*
G1X-168448Y436614D2*
G1X-169010Y437177D1*
G1X-170135Y438864D1*
G1X-170697Y439989D1*
G1X-171260Y441676D1*
G1X-171822Y444488D1*
G1X-171822Y446738D1*
G1X-171260Y449550D1*
G1X-170697Y451237D1*
G1X-170135Y452362D1*
G1X-169010Y454049D1*
G1X-168448Y454612D1*
G1X-158886Y452925D2*
G1X-161136Y452925D1*
G1X-162261Y452362D1*
G1X-162823Y451800D1*
G1X-163948Y450112D1*
G1X-164511Y447863D1*
G1X-164511Y443363D1*
G1X-163948Y442238D1*
G1X-163386Y441676D1*
G1X-162261Y441114D1*
G1X-160011Y441114D1*
G1X-158886Y441676D1*
G1X-158324Y442238D1*
G1X-157762Y443363D1*
G1X-157762Y446175D1*
G1X-158324Y447300D1*
G1X-158886Y447863D1*
G1X-160011Y448425D1*
G1X-162261Y448425D1*
G1X-163386Y447863D1*
G1X-163948Y447300D1*
G1X-164511Y446175D1*
G1X-146513Y441114D2*
G1X-153262Y441114D1*
G1X-149888Y441114D2*
G1X-149888Y452925D1*
G1X-151012Y451237D1*
G1X-152137Y450112D1*
G1X-153262Y449550D1*
G1X-132452Y441114D2*
G1X-132452Y452925D1*
G1X-127390Y441114D2*
G1X-127390Y447300D1*
G1X-127953Y448425D1*
G1X-129078Y448988D1*
G1X-130765Y448988D1*
G1X-131890Y448425D1*
G1X-132452Y447863D1*
G1X-120079Y441114D2*
G1X-121204Y441676D1*
G1X-121766Y442238D1*
G1X-122328Y443363D1*
G1X-122328Y446738D1*
G1X-121766Y447863D1*
G1X-121204Y448425D1*
G1X-120079Y448988D1*
G1X-118391Y448988D1*
G1X-117267Y448425D1*
G1X-116704Y447863D1*
G1X-116142Y446738D1*
G1X-116142Y443363D1*
G1X-116704Y442238D1*
G1X-117267Y441676D1*
G1X-118391Y441114D1*
G1X-120079Y441114D1*
G1X-109393Y441114D2*
G1X-110517Y441676D1*
G1X-111080Y442801D1*
G1X-111080Y452925D1*
G1X-100394Y441676D2*
G1X-101519Y441114D1*
G1X-103768Y441114D1*
G1X-104893Y441676D1*
G1X-105456Y442801D1*
G1X-105456Y447300D1*
G1X-104893Y448425D1*
G1X-103768Y448988D1*
G1X-101519Y448988D1*
G1X-100394Y448425D1*
G1X-99831Y447300D1*
G1X-99831Y446175D1*
G1X-105456Y445051D1*
G1X-95332Y441676D2*
G1X-94207Y441114D1*
G1X-91957Y441114D1*
G1X-90832Y441676D1*
G1X-90270Y442801D1*
G1X-90270Y443363D1*
G1X-90832Y444488D1*
G1X-91957Y445051D1*
G1X-93645Y445051D1*
G1X-94769Y445613D1*
G1X-95332Y446738D1*
G1X-95332Y447300D1*
G1X-94769Y448425D1*
G1X-93645Y448988D1*
G1X-91957Y448988D1*
G1X-90832Y448425D1*
G1X-86333Y436614D2*
G1X-85771Y437177D1*
G1X-84646Y438864D1*
G1X-84083Y439989D1*
G1X-83521Y441676D1*
G1X-82958Y444488D1*
G1X-82958Y446738D1*
G1X-83521Y449550D1*
G1X-84083Y451237D1*
G1X-84646Y452362D1*
G1X-85771Y454049D1*
G1X-86333Y454612D1*
G1X-352362Y430866D2*
G75*
G3X-352362Y430866I-906J0D1*
G74*
G1X-339426Y437334D2*
G1X-338301Y437334D1*
G1X-337177Y436772D1*
G1X-336614Y436209D1*
G1X-336052Y435084D1*
G1X-335489Y432835D1*
G1X-335489Y430022D1*
G1X-336052Y427773D1*
G1X-336614Y426648D1*
G1X-337177Y426085D1*
G1X-338301Y425523D1*
G1X-339426Y425523D1*
G1X-340551Y426085D1*
G1X-341114Y426648D1*
G1X-341676Y427773D1*
G1X-342238Y430022D1*
G1X-342238Y432835D1*
G1X-341676Y435084D1*
G1X-341114Y436209D1*
G1X-340551Y436772D1*
G1X-339426Y437334D1*
G1X-330427Y426648D2*
G1X-329865Y426085D1*
G1X-330427Y425523D1*
G1X-330990Y426085D1*
G1X-330427Y426648D1*
G1X-330427Y425523D1*
G1X-319741Y433397D2*
G1X-319741Y425523D1*
G1X-322553Y437896D2*
G1X-325366Y429460D1*
G1X-318054Y429460D1*
G1X-308493Y437334D2*
G1X-310742Y437334D1*
G1X-311867Y436772D1*
G1X-312430Y436209D1*
G1X-313555Y434522D1*
G1X-314117Y432272D1*
G1X-314117Y427773D1*
G1X-313555Y426648D1*
G1X-312992Y426085D1*
G1X-311867Y425523D1*
G1X-309618Y425523D1*
G1X-308493Y426085D1*
G1X-307930Y426648D1*
G1X-307368Y427773D1*
G1X-307368Y430585D1*
G1X-307930Y431710D1*
G1X-308493Y432272D1*
G1X-309618Y432835D1*
G1X-311867Y432835D1*
G1X-312992Y432272D1*
G1X-313555Y431710D1*
G1X-314117Y430585D1*
G1X-302306Y425523D2*
G1X-302306Y433397D1*
G1X-302306Y432272D2*
G1X-301744Y432835D1*
G1X-300619Y433397D1*
G1X-298931Y433397D1*
G1X-297807Y432835D1*
G1X-297244Y431710D1*
G1X-297244Y425523D1*
G1X-297244Y431710D2*
G1X-296682Y432835D1*
G1X-295557Y433397D1*
G1X-293870Y433397D1*
G1X-292745Y432835D1*
G1X-292182Y431710D1*
G1X-292182Y425523D1*
G1X-286558Y425523D2*
G1X-286558Y433397D1*
G1X-286558Y432272D2*
G1X-285996Y432835D1*
G1X-284871Y433397D1*
G1X-283183Y433397D1*
G1X-282059Y432835D1*
G1X-281496Y431710D1*
G1X-281496Y425523D1*
G1X-281496Y431710D2*
G1X-280934Y432835D1*
G1X-279809Y433397D1*
G1X-278121Y433397D1*
G1X-276997Y432835D1*
G1X-276434Y431710D1*
G1X-276434Y425523D1*
G1X-253375Y437896D2*
G1X-263498Y422711D1*
G1X-238189Y437334D2*
G1X-237064Y437334D1*
G1X-235939Y436772D1*
G1X-235377Y436209D1*
G1X-234814Y435084D1*
G1X-234252Y432835D1*
G1X-234252Y430022D1*
G1X-234814Y427773D1*
G1X-235377Y426648D1*
G1X-235939Y426085D1*
G1X-237064Y425523D1*
G1X-238189Y425523D1*
G1X-239314Y426085D1*
G1X-239876Y426648D1*
G1X-240439Y427773D1*
G1X-241001Y430022D1*
G1X-241001Y432835D1*
G1X-240439Y435084D1*
G1X-239876Y436209D1*
G1X-239314Y436772D1*
G1X-238189Y437334D1*
G1X-229190Y426648D2*
G1X-228628Y426085D1*
G1X-229190Y425523D1*
G1X-229753Y426085D1*
G1X-229190Y426648D1*
G1X-229190Y425523D1*
G1X-221316Y437334D2*
G1X-220191Y437334D1*
G1X-219066Y436772D1*
G1X-218504Y436209D1*
G1X-217941Y435084D1*
G1X-217379Y432835D1*
G1X-217379Y430022D1*
G1X-217941Y427773D1*
G1X-218504Y426648D1*
G1X-219066Y426085D1*
G1X-220191Y425523D1*
G1X-221316Y425523D1*
G1X-222441Y426085D1*
G1X-223003Y426648D1*
G1X-223566Y427773D1*
G1X-224128Y430022D1*
G1X-224128Y432835D1*
G1X-223566Y435084D1*
G1X-223003Y436209D1*
G1X-222441Y436772D1*
G1X-221316Y437334D1*
G1X-206130Y425523D2*
G1X-212880Y425523D1*
G1X-209505Y425523D2*
G1X-209505Y437334D1*
G1X-210630Y435647D1*
G1X-211755Y434522D1*
G1X-212880Y433959D1*
G1X-199381Y432272D2*
G1X-200506Y432835D1*
G1X-201069Y433397D1*
G1X-201631Y434522D1*
G1X-201631Y435084D1*
G1X-201069Y436209D1*
G1X-200506Y436772D1*
G1X-199381Y437334D1*
G1X-197132Y437334D1*
G1X-196007Y436772D1*
G1X-195444Y436209D1*
G1X-194882Y435084D1*
G1X-194882Y434522D1*
G1X-195444Y433397D1*
G1X-196007Y432835D1*
G1X-197132Y432272D1*
G1X-199381Y432272D1*
G1X-200506Y431710D1*
G1X-201069Y431147D1*
G1X-201631Y430022D1*
G1X-201631Y427773D1*
G1X-201069Y426648D1*
G1X-200506Y426085D1*
G1X-199381Y425523D1*
G1X-197132Y425523D1*
G1X-196007Y426085D1*
G1X-195444Y426648D1*
G1X-194882Y427773D1*
G1X-194882Y430022D1*
G1X-195444Y431147D1*
G1X-196007Y431710D1*
G1X-197132Y432272D1*
G1X-190382Y437334D2*
G1X-190382Y435084D1*
G1X-185883Y437334D2*
G1X-185883Y435084D1*
G1X-168448Y421024D2*
G1X-169010Y421586D1*
G1X-170135Y423273D1*
G1X-170697Y424398D1*
G1X-171260Y426085D1*
G1X-171822Y428898D1*
G1X-171822Y431147D1*
G1X-171260Y433959D1*
G1X-170697Y435647D1*
G1X-170135Y436772D1*
G1X-169010Y438459D1*
G1X-168448Y439021D1*
G1X-164511Y436209D2*
G1X-163948Y436772D1*
G1X-162823Y437334D1*
G1X-160011Y437334D1*
G1X-158886Y436772D1*
G1X-158324Y436209D1*
G1X-157762Y435084D1*
G1X-157762Y433959D1*
G1X-158324Y432272D1*
G1X-165073Y425523D1*
G1X-157762Y425523D1*
G1X-143701Y425523D2*
G1X-143701Y437334D1*
G1X-138639Y425523D2*
G1X-138639Y431710D1*
G1X-139201Y432835D1*
G1X-140326Y433397D1*
G1X-142014Y433397D1*
G1X-143138Y432835D1*
G1X-143701Y432272D1*
G1X-131327Y425523D2*
G1X-132452Y426085D1*
G1X-133015Y426648D1*
G1X-133577Y427773D1*
G1X-133577Y431147D1*
G1X-133015Y432272D1*
G1X-132452Y432835D1*
G1X-131327Y433397D1*
G1X-129640Y433397D1*
G1X-128515Y432835D1*
G1X-127953Y432272D1*
G1X-127390Y431147D1*
G1X-127390Y427773D1*
G1X-127953Y426648D1*
G1X-128515Y426085D1*
G1X-129640Y425523D1*
G1X-131327Y425523D1*
G1X-120641Y425523D2*
G1X-121766Y426085D1*
G1X-122328Y427210D1*
G1X-122328Y437334D1*
G1X-111642Y426085D2*
G1X-112767Y425523D1*
G1X-115017Y425523D1*
G1X-116142Y426085D1*
G1X-116704Y427210D1*
G1X-116704Y431710D1*
G1X-116142Y432835D1*
G1X-115017Y433397D1*
G1X-112767Y433397D1*
G1X-111642Y432835D1*
G1X-111080Y431710D1*
G1X-111080Y430585D1*
G1X-116704Y429460D1*
G1X-106580Y426085D2*
G1X-105456Y425523D1*
G1X-103206Y425523D1*
G1X-102081Y426085D1*
G1X-101519Y427210D1*
G1X-101519Y427773D1*
G1X-102081Y428898D1*
G1X-103206Y429460D1*
G1X-104893Y429460D1*
G1X-106018Y430022D1*
G1X-106580Y431147D1*
G1X-106580Y431710D1*
G1X-106018Y432835D1*
G1X-104893Y433397D1*
G1X-103206Y433397D1*
G1X-102081Y432835D1*
G1X-97582Y421024D2*
G1X-97019Y421586D1*
G1X-95894Y423273D1*
G1X-95332Y424398D1*
G1X-94769Y426085D1*
G1X-94207Y428898D1*
G1X-94207Y431147D1*
G1X-94769Y433959D1*
G1X-95332Y435647D1*
G1X-95894Y436772D1*
G1X-97019Y438459D1*
G1X-97582Y439021D1*
M2*
