*
%LPD*%
%LN915 PCB Antenna 01-B.Cu*%
%FSLAX25Y25*%
%MOIN*%
%AD*%
%AD*%
%ADD11R,0.095275591X0.2*%
%ADD12C,0.038188976*%
%ADD13R,0.018110236X0.03503937*%
%ADD14C,0.023622047*%
%ADD15C,0.032992126*%
%ADD16C,0.01*%
G54D11*
%SRX1Y1I0.0J0.0*%
G1X94961Y11732D3*
G1X129449Y11732D3*
G54D12*
G1X94961Y25276D3*
G1X129449Y25276D3*
G54D13*
G1X94961Y23504D3*
G1X129449Y23504D3*
G54D14*
G1X121260Y2756D3*
G1X121260Y7874D3*
G1X121260Y12992D3*
G1X121260Y17717D3*
G1X121260Y22441D3*
G1X119685Y26378D3*
G1X120079Y31496D3*
G1X120079Y37402D3*
G1X120079Y43307D3*
G1X120079Y49213D3*
G1X120079Y55118D3*
G1X120079Y61024D3*
G1X120079Y66929D3*
G1X125984Y66929D3*
G1X131890Y66929D3*
G1X137795Y66929D3*
G1X143701Y66929D3*
G1X149606Y66929D3*
G1X155512Y66929D3*
G1X161417Y66929D3*
G1X167323Y66929D3*
G1X173228Y66929D3*
G1X179134Y66929D3*
G1X185039Y66929D3*
G1X194882Y66929D3*
G1X200787Y66929D3*
G1X206693Y66929D3*
G1X212598Y66929D3*
G1X218504Y66929D3*
G1X224409Y66929D3*
G1X230315Y66929D3*
G1X103150Y3150D3*
G1X103150Y7480D3*
G1X103150Y12205D3*
G1X103150Y17323D3*
G1X103150Y21654D3*
G1X104724Y26378D3*
G1X104331Y31496D3*
G1X104331Y37402D3*
G1X104331Y43307D3*
G1X104331Y49213D3*
G1X104331Y55118D3*
G1X104331Y61024D3*
G1X104331Y66929D3*
G1X98425Y66929D3*
G1X92520Y66929D3*
G1X86614Y66929D3*
G1X80709Y66929D3*
G1X74803Y66929D3*
G1X68898Y66929D3*
G1X62992Y66929D3*
G1X57087Y66929D3*
G1X51181Y66929D3*
G1X45276Y66929D3*
G1X39370Y66929D3*
G1X33465Y66929D3*
G1X27559Y66929D3*
G1X21654Y66929D3*
G1X15748Y66929D3*
G1X9843Y66929D3*
G1X3937Y66929D3*
G1X129449Y25276D2*
G54D15*
G1X129449Y11732D1*
G1X94961Y25276D2*
G1X94961Y11732D1*
G54D16*
G36*
G1X894Y20984D2*
G1X894Y894D1*
G1X87838Y894D1*
G1X87697Y1235D1*
G1X87697Y10607D1*
G1X88322Y11232D1*
G1X94461Y11232D1*
G1X94461Y11154D1*
G1X95461Y11154D1*
G1X95461Y11232D1*
G1X101599Y11232D1*
G1X102224Y10607D1*
G1X102224Y1235D1*
G1X102083Y894D1*
G1X122326Y894D1*
G1X122185Y1235D1*
G1X122185Y10607D1*
G1X122810Y11232D1*
G1X128949Y11232D1*
G1X128949Y11154D1*
G1X129949Y11154D1*
G1X129949Y11232D1*
G1X136088Y11232D1*
G1X136713Y10607D1*
G1X136713Y1235D1*
G1X136571Y894D1*
G1X232965Y894D1*
G1X232965Y20984D1*
G1X136713Y20984D1*
G1X136713Y12857D1*
G1X136088Y12232D1*
G1X129949Y12232D1*
G1X129949Y12311D1*
G1X128949Y12311D1*
G1X128949Y12232D1*
G1X122810Y12232D1*
G1X122185Y12857D1*
G1X122185Y20984D1*
G1X102224Y20984D1*
G1X102224Y12857D1*
G1X101599Y12232D1*
G1X95461Y12232D1*
G1X95461Y12311D1*
G1X94461Y12311D1*
G1X94461Y12232D1*
G1X88322Y12232D1*
G1X87697Y12857D1*
G1X87697Y20984D1*
G1X894Y20984D1*
G37*
G36*
G1X894Y20984D2*
G1X87697Y20984D1*
G1X87697Y22230D1*
G1X88077Y23148D1*
G1X88781Y23852D1*
G1X89700Y24232D1*
G1X90615Y24232D1*
G1X90499Y25832D1*
G1X91052Y27497D1*
G1X91893Y27636D1*
G1X92396Y27133D1*
G1X92639Y27375D1*
G1X93296Y27647D1*
G1X92600Y28343D1*
G1X92739Y29184D1*
G1X93768Y29610D1*
G1X95517Y29737D1*
G1X97182Y29184D1*
G1X97321Y28343D1*
G1X96625Y27647D1*
G1X97282Y27375D1*
G1X97525Y27133D1*
G1X98028Y27636D1*
G1X98869Y27497D1*
G1X99295Y26468D1*
G1X99422Y24719D1*
G1X99260Y24232D1*
G1X100222Y24232D1*
G1X101141Y23852D1*
G1X101844Y23148D1*
G1X102224Y22230D1*
G1X102224Y20984D1*
G1X122185Y20984D1*
G1X122185Y22230D1*
G1X122566Y23148D1*
G1X123269Y23852D1*
G1X124188Y24232D1*
G1X125103Y24232D1*
G1X124988Y25832D1*
G1X125540Y27497D1*
G1X126381Y27636D1*
G1X126885Y27133D1*
G1X127127Y27375D1*
G1X127784Y27647D1*
G1X127088Y28343D1*
G1X127227Y29184D1*
G1X128256Y29610D1*
G1X130006Y29737D1*
G1X131671Y29184D1*
G1X131809Y28343D1*
G1X131114Y27647D1*
G1X131770Y27375D1*
G1X132013Y27133D1*
G1X132517Y27636D1*
G1X133357Y27497D1*
G1X133784Y26468D1*
G1X133910Y24719D1*
G1X133749Y24232D1*
G1X134710Y24232D1*
G1X135629Y23852D1*
G1X136332Y23148D1*
G1X136713Y22230D1*
G1X136713Y20984D1*
G1X232965Y20984D1*
G1X232965Y70366D1*
G1X894Y70366D1*
G1X894Y20984D1*
G37*
G1X232965Y894D2*
G1X136571Y894D1*
G1X136713Y1235D1*
G1X136713Y10607D1*
G1X136088Y11232D1*
G1X129949Y11232D1*
G1X129949Y11154D1*
G1X128949Y11154D1*
G1X128949Y11232D1*
G1X122810Y11232D1*
G1X122185Y10607D1*
G1X122185Y1235D1*
G1X122326Y894D1*
G1X102083Y894D1*
G1X102224Y1235D1*
G1X102224Y10607D1*
G1X101599Y11232D1*
G1X95461Y11232D1*
G1X95461Y11154D1*
G1X94461Y11154D1*
G1X94461Y11232D1*
G1X88322Y11232D1*
G1X87697Y10607D1*
G1X87697Y1235D1*
G1X87838Y894D1*
G1X894Y894D1*
G1X894Y22230D1*
G1X87697Y22230D1*
G1X87697Y12857D1*
G1X88322Y12232D1*
G1X94461Y12232D1*
G1X94461Y12311D1*
G1X95461Y12311D1*
G1X95461Y12232D1*
G1X101599Y12232D1*
G1X102224Y12857D1*
G1X102224Y22230D1*
G1X122185Y22230D1*
G1X122185Y12857D1*
G1X122810Y12232D1*
G1X128949Y12232D1*
G1X128949Y12311D1*
G1X129949Y12311D1*
G1X129949Y12232D1*
G1X136088Y12232D1*
G1X136713Y12857D1*
G1X136713Y22230D1*
G1X136332Y23148D1*
G1X135629Y23852D1*
G1X134710Y24232D1*
G1X133749Y24232D1*
G1X133910Y24719D1*
G1X133784Y26468D1*
G1X133357Y27497D1*
G1X132517Y27636D1*
G1X132013Y27133D1*
G1X131770Y27375D1*
G1X131114Y27647D1*
G1X131809Y28343D1*
G1X131671Y29184D1*
G1X130006Y29737D1*
G1X128256Y29610D1*
G1X127227Y29184D1*
G1X127088Y28343D1*
G1X127784Y27647D1*
G1X127127Y27375D1*
G1X126885Y27133D1*
G1X126381Y27636D1*
G1X125540Y27497D1*
G1X124988Y25832D1*
G1X125103Y24232D1*
G1X124188Y24232D1*
G1X123269Y23852D1*
G1X122566Y23148D1*
G1X122185Y22230D1*
G1X102224Y22230D1*
G1X101844Y23148D1*
G1X101141Y23852D1*
G1X100222Y24232D1*
G1X99260Y24232D1*
G1X99422Y24719D1*
G1X99295Y26468D1*
G1X98869Y27497D1*
G1X98028Y27636D1*
G1X97525Y27133D1*
G1X97282Y27375D1*
G1X96625Y27647D1*
G1X97321Y28343D1*
G1X97182Y29184D1*
G1X95517Y29737D1*
G1X93768Y29610D1*
G1X92739Y29184D1*
G1X92600Y28343D1*
G1X93296Y27647D1*
G1X92639Y27375D1*
G1X92396Y27133D1*
G1X91893Y27636D1*
G1X91052Y27497D1*
G1X90499Y25832D1*
G1X90615Y24232D1*
G1X89700Y24232D1*
G1X88781Y23852D1*
G1X88077Y23148D1*
G1X87697Y22230D1*
G1X894Y22230D1*
G1X894Y70366D1*
G1X232965Y70366D1*
G1X232965Y894D1*
M2*
