G04 #@! TF.FileFunction,Copper,L2,Bot,Signal*
%FSLAX46Y46*%
G04 Gerber Fmt 4.6, Leading zero omitted, Abs format (unit mm)*
G04 Created by KiCad (PCBNEW 4.0.6) date 03/28/17 11:19:29*
%MOMM*%
%LPD*%
G01*
G04 APERTURE LIST*
%ADD10C,0.025400*%
%ADD11C,0.762000*%
%ADD12R,1.800000X2.100000*%
%ADD13R,0.600000X0.500000*%
%ADD14R,0.500000X0.600000*%
%ADD15R,5.080000X2.420000*%
%ADD16C,0.970000*%
%ADD17R,0.890000X0.460000*%
%ADD18R,1.200000X0.750000*%
%ADD19R,1.000000X1.000000*%
%ADD20O,1.000000X1.000000*%
%ADD21R,1.250000X1.500000*%
%ADD22C,0.355600*%
%ADD23C,1.000000*%
%ADD24C,0.356000*%
%ADD25C,0.304800*%
%ADD26C,0.889000*%
%ADD27C,0.330200*%
%ADD28C,0.254000*%
%ADD29C,0.508000*%
%ADD30C,0.762000*%
%ADD31C,0.152400*%
G04 APERTURE END LIST*
D10*
D11*
X66255900Y17576800D03*
X76288900Y17576800D03*
X78295500Y17576800D03*
X80302100Y17576800D03*
X82308700Y17576800D03*
X84315300Y17576800D03*
X74282300Y17576800D03*
X72275700Y17576800D03*
X70269100Y17576800D03*
X68262500Y17576800D03*
X68262500Y39573200D03*
X70269100Y39573200D03*
X72275700Y39573200D03*
X74282300Y39573200D03*
X84315300Y39573200D03*
X82308700Y39573200D03*
X80302100Y39573200D03*
X78295500Y39573200D03*
X76288900Y39573200D03*
X66255900Y39573200D03*
D12*
X20009500Y32247500D03*
X20009500Y29347500D03*
X17709500Y29347500D03*
X17709500Y32247500D03*
D13*
X25950000Y24511000D03*
X24850000Y24511000D03*
X25950000Y26289000D03*
X24850000Y26289000D03*
X19981000Y34036000D03*
X18881000Y34036000D03*
X17738000Y27559000D03*
X18838000Y27559000D03*
D14*
X12573000Y30438000D03*
X12573000Y31538000D03*
X23622000Y22183000D03*
X23622000Y23283000D03*
X22415500Y28617000D03*
X22415500Y27517000D03*
D13*
X24108500Y25400000D03*
X23008500Y25400000D03*
D14*
X84264500Y41360000D03*
X84264500Y42460000D03*
X85153500Y41360000D03*
X85153500Y42460000D03*
X86042500Y41360000D03*
X86042500Y42460000D03*
X14986000Y29302800D03*
X14986000Y28202800D03*
D15*
X2725000Y31177000D03*
X2725000Y22417000D03*
D16*
X6165000Y31177000D03*
X6165000Y22417000D03*
D17*
X5709920Y31177000D03*
X5709920Y22417000D03*
D18*
X15618500Y30480000D03*
X13718500Y30480000D03*
D19*
X28829000Y4127500D03*
D20*
X28829000Y1587500D03*
D19*
X18097500Y43434000D03*
D20*
X20637500Y43434000D03*
D21*
X22479000Y19705000D03*
X22479000Y22205000D03*
D19*
X1524000Y4127500D03*
D20*
X1524000Y1587500D03*
X4064000Y4127500D03*
X4064000Y1587500D03*
X6604000Y4127500D03*
X6604000Y1587500D03*
X9144000Y4127500D03*
X9144000Y1587500D03*
X11684000Y4127500D03*
X11684000Y1587500D03*
X14224000Y4127500D03*
X14224000Y1587500D03*
X16764000Y4127500D03*
X16764000Y1587500D03*
X19304000Y4127500D03*
X19304000Y1587500D03*
X21844000Y4127500D03*
X21844000Y1587500D03*
X24384000Y4127500D03*
X24384000Y1587500D03*
D19*
X13652500Y43434000D03*
D20*
X11112500Y43434000D03*
D19*
X33274000Y1587500D03*
D20*
X35814000Y1587500D03*
X38354000Y1587500D03*
X40894000Y1587500D03*
X43434000Y1587500D03*
X45974000Y1587500D03*
X48514000Y1587500D03*
X51054000Y1587500D03*
D22*
X19795000Y25925000D03*
X20845000Y25925000D03*
X20845000Y24875000D03*
X19795000Y24875000D03*
X21895000Y24875000D03*
X21895000Y25925000D03*
X18745000Y25925000D03*
X18745000Y24875000D03*
X19795000Y23825000D03*
X20845000Y23825000D03*
X19795000Y26975000D03*
X20845000Y26975000D03*
X18745000Y26975000D03*
X21895000Y26975000D03*
X18745000Y23825000D03*
X21895000Y23825000D03*
D23*
X26987500Y24447500D03*
X26987500Y26347500D03*
X16764000Y14287500D03*
X1524000Y14287500D03*
X9144000Y14287500D03*
X6604000Y14287500D03*
D24*
X7747000Y29019500D03*
X7747000Y24701500D03*
X7747000Y31559500D03*
X7747000Y34099500D03*
X7747000Y22161500D03*
X7747000Y19621500D03*
X5207000Y19621500D03*
X2667000Y19621500D03*
X5207000Y34099500D03*
X2667000Y34099500D03*
X10287000Y29019500D03*
X12827000Y29019500D03*
X10287000Y24701500D03*
X12827000Y24701500D03*
X10287000Y22161500D03*
X10287000Y19685000D03*
X10287000Y31559500D03*
X10287000Y34099500D03*
D23*
X51054000Y39052500D03*
X51054000Y26352500D03*
X51054000Y23812500D03*
D24*
X2667000Y17081500D03*
X2667000Y36639500D03*
X5207000Y36639500D03*
X7747000Y36639500D03*
X10287000Y36639500D03*
X12827000Y34099500D03*
X12827000Y36639500D03*
X2667000Y39179500D03*
X5207000Y39179500D03*
X7747000Y39179500D03*
X10287000Y39179500D03*
X12827000Y39179500D03*
D23*
X51054000Y21272500D03*
X51054000Y18732500D03*
D24*
X59055000Y6667500D03*
X64135000Y6667500D03*
X69215000Y6667500D03*
X74295000Y6667500D03*
X79375000Y6667500D03*
X84455000Y6667500D03*
X59055000Y11747500D03*
X64135000Y11747500D03*
X69215000Y11747500D03*
X74295000Y11747500D03*
X79375000Y11747500D03*
X84455000Y11747500D03*
X21209000Y9207500D03*
X26289000Y9207500D03*
X31369000Y9207500D03*
D25*
X19748500Y31369000D03*
X18415000Y29337000D03*
X16256000Y26352500D03*
X14986000Y28202800D03*
X14287500Y27622500D03*
D26*
X51054000Y41592500D03*
D25*
X31051500Y3873500D03*
D26*
X4064000Y14287500D03*
D25*
X20574000Y6794500D03*
X4064000Y6794500D03*
X22161500Y22923500D03*
X24066500Y24765000D03*
X22415500Y31242000D03*
X7874000Y2895600D03*
X15494000Y2895600D03*
X31038800Y2857500D03*
X24257000Y19558000D03*
X1333500Y6159500D03*
X22415500Y29845000D03*
X17881600Y6146800D03*
X7721600Y6146800D03*
D26*
X14224000Y14287500D03*
X11684000Y14287500D03*
X33274000Y14287500D03*
X35814000Y14287500D03*
X38354000Y14287500D03*
X40894000Y14287500D03*
X43434000Y14287500D03*
X45974000Y14287500D03*
X48514000Y14287500D03*
X51054000Y14287500D03*
D25*
X21463000Y19812000D03*
D27*
X24130000Y20751800D03*
D25*
X17653000Y20828000D03*
D26*
X19304000Y14287500D03*
X51054000Y28892500D03*
X51054000Y31432500D03*
X51054000Y36512500D03*
X51054000Y33972500D03*
D28*
X25950000Y24511000D02*
X26924000Y24511000D01*
X26924000Y24511000D02*
X26987500Y24447500D01*
X25950000Y26289000D02*
X26929000Y26289000D01*
X26929000Y26289000D02*
X26987500Y26347500D01*
X19981000Y34036000D02*
X19981000Y32276000D01*
X19981000Y32276000D02*
X20009500Y32247500D01*
X19748500Y31369000D02*
X20009500Y31630000D01*
X20009500Y31630000D02*
X20009500Y32247500D01*
X17738000Y27559000D02*
X17738000Y29319000D01*
X17738000Y29319000D02*
X17709500Y29347500D01*
X18415000Y29337000D02*
X18404500Y29347500D01*
X18404500Y29347500D02*
X17709500Y29347500D01*
D29*
X14986000Y28202800D02*
X15421700Y28202800D01*
X16256000Y27368500D02*
X16256000Y26352500D01*
X15421700Y28202800D02*
X16256000Y27368500D01*
X14986000Y28194000D02*
X14986000Y28202800D01*
X14287500Y27622500D02*
X14287500Y29911000D01*
X14287500Y29911000D02*
X13718500Y30480000D01*
X13676500Y30438000D02*
X13718500Y30480000D01*
X12573000Y30438000D02*
X13676500Y30438000D01*
X14986000Y29302800D02*
X14986000Y29847500D01*
X14986000Y29847500D02*
X15618500Y30480000D01*
X15618500Y30480000D02*
X15618500Y37462500D01*
X20574000Y6794500D02*
X5207000Y6794500D01*
X89471500Y6096000D02*
X87249000Y3873500D01*
X81407000Y41592500D02*
X83502500Y39497000D01*
X83502500Y39497000D02*
X83502500Y39052500D01*
X83502500Y39052500D02*
X89471500Y33083500D01*
X89471500Y33083500D02*
X89471500Y6096000D01*
X19748500Y41592500D02*
X51054000Y41592500D01*
X51054000Y41592500D02*
X81407000Y41592500D01*
X87249000Y3873500D02*
X31051500Y3873500D01*
X24955500Y20701000D02*
X23622000Y22034500D01*
X7619998Y17843498D02*
X4064000Y14287500D01*
X23494998Y17843498D02*
X7619998Y17843498D01*
X24955500Y19304000D02*
X23494998Y17843498D01*
X24955500Y20701000D02*
X24955500Y19304000D01*
X4064000Y6794500D02*
X5207000Y6794500D01*
X15618500Y37462500D02*
X19748500Y41592500D01*
X23622000Y22183000D02*
X23622000Y22034500D01*
X23622000Y22183000D02*
X22501000Y22183000D01*
X22501000Y22183000D02*
X22479000Y22205000D01*
X22161500Y22923500D02*
X22479000Y22606000D01*
X22479000Y22606000D02*
X22479000Y22205000D01*
X24108500Y24807000D02*
X24108500Y25400000D01*
X24066500Y24765000D02*
X24108500Y24807000D01*
X22415500Y31242000D02*
X22415500Y29845000D01*
D30*
X85153500Y41360000D02*
X86042500Y41360000D01*
X84264500Y41360000D02*
X85153500Y41360000D01*
X80200500Y43434000D02*
X86360000Y43434000D01*
X20637500Y43434000D02*
X80200500Y43434000D01*
X86931500Y42037000D02*
X86254500Y41360000D01*
X86931500Y42862500D02*
X86931500Y42037000D01*
X86360000Y43434000D02*
X86931500Y42862500D01*
X86254500Y41360000D02*
X86042500Y41360000D01*
X7874000Y2895600D02*
X15494000Y2895600D01*
X31038800Y2857500D02*
X87566500Y2857500D01*
X87566500Y2857500D02*
X90424000Y5715000D01*
X90424000Y5715000D02*
X90424000Y33464500D01*
X90424000Y33464500D02*
X84315300Y39573200D01*
X84264500Y41360000D02*
X84264500Y39624000D01*
X84264500Y39624000D02*
X84315300Y39573200D01*
D29*
X1524000Y14287500D02*
X5715000Y18478500D01*
X23177500Y18478500D02*
X24257000Y19558000D01*
X5715000Y18478500D02*
X23177500Y18478500D01*
X7721600Y6146800D02*
X1346200Y6146800D01*
X1346200Y6146800D02*
X1333500Y6159500D01*
X22415500Y29845000D02*
X22415500Y28617000D01*
X7721600Y6146800D02*
X9144000Y6146800D01*
X9144000Y6146800D02*
X17881600Y6146800D01*
X21570000Y19705000D02*
X21463000Y19812000D01*
X22479000Y19705000D02*
X21570000Y19705000D01*
D28*
X24053800Y20828000D02*
X24130000Y20751800D01*
X23939500Y20828000D02*
X24053800Y20828000D01*
X23939500Y20828000D02*
X17653000Y20828000D01*
D30*
X13652500Y43434000D02*
X18097500Y43434000D01*
D31*
X91363800Y45643800D02*
X76200Y45643800D01*
X91363800Y45542200D02*
X76200Y45542200D01*
X91363800Y45440600D02*
X76200Y45440600D01*
X91363800Y45339000D02*
X76200Y45339000D01*
X91363800Y45237400D02*
X76200Y45237400D01*
X91363800Y45135800D02*
X76200Y45135800D01*
X91363800Y45034200D02*
X76200Y45034200D01*
X91363800Y44932600D02*
X76200Y44932600D01*
X91363800Y44831000D02*
X76200Y44831000D01*
X91363800Y44729400D02*
X76200Y44729400D01*
X91363800Y44627800D02*
X76200Y44627800D01*
X91363800Y44526200D02*
X76200Y44526200D01*
X10677955Y44424600D02*
X76200Y44424600D01*
X11397087Y44424600D02*
X10827914Y44424600D01*
X91363800Y44424600D02*
X11547046Y44424600D01*
X10523581Y44323000D02*
X76200Y44323000D01*
X11290300Y44323000D02*
X10934700Y44323000D01*
X91363800Y44323000D02*
X11701420Y44323000D01*
X10392653Y44221400D02*
X76200Y44221400D01*
X11290300Y44221400D02*
X10934700Y44221400D01*
X91363800Y44221400D02*
X11832348Y44221400D01*
X10279425Y44119800D02*
X76200Y44119800D01*
X11290300Y44119800D02*
X10934700Y44119800D01*
X13019086Y44119800D02*
X11945576Y44119800D01*
X17464086Y44119800D02*
X14285499Y44119800D01*
X20356263Y44119800D02*
X18730499Y44119800D01*
X91363800Y44119800D02*
X20918738Y44119800D01*
X10221500Y44018200D02*
X76200Y44018200D01*
X11290300Y44018200D02*
X10934700Y44018200D01*
X12936473Y44018200D02*
X12003502Y44018200D01*
X20204209Y44018200D02*
X18814735Y44018200D01*
X91363800Y44018200D02*
X86487695Y44018200D01*
X10163575Y43916600D02*
X76200Y43916600D01*
X11290300Y43916600D02*
X10934700Y43916600D01*
X12919422Y43916600D02*
X12061427Y43916600D01*
X20090984Y43916600D02*
X18830578Y43916600D01*
X91363800Y43916600D02*
X86713906Y43916600D01*
X10105651Y43815000D02*
X76200Y43815000D01*
X11290300Y43815000D02*
X10934700Y43815000D01*
X12919422Y43815000D02*
X12119351Y43815000D01*
X20023097Y43815000D02*
X18830578Y43815000D01*
X91363800Y43815000D02*
X86841104Y43815000D01*
X10124362Y43713400D02*
X76200Y43713400D01*
X11290300Y43713400D02*
X10934700Y43713400D01*
X12919422Y43713400D02*
X12100637Y43713400D01*
X19961637Y43713400D02*
X18830578Y43713400D01*
X91363800Y43713400D02*
X86942704Y43713400D01*
X12919422Y43611800D02*
X76200Y43611800D01*
X19941428Y43611800D02*
X18830578Y43611800D01*
X91363800Y43611800D02*
X87044304Y43611800D01*
X12919422Y43510200D02*
X76200Y43510200D01*
X19921218Y43510200D02*
X18830578Y43510200D01*
X91363800Y43510200D02*
X87145904Y43510200D01*
X12919422Y43408600D02*
X76200Y43408600D01*
X19911113Y43408600D02*
X18830578Y43408600D01*
X91363800Y43408600D02*
X87247504Y43408600D01*
X12919422Y43307000D02*
X76200Y43307000D01*
X19931322Y43307000D02*
X18830578Y43307000D01*
X91363800Y43307000D02*
X87349104Y43307000D01*
X10156687Y43205400D02*
X76200Y43205400D01*
X11290300Y43205400D02*
X10934700Y43205400D01*
X12919422Y43205400D02*
X12068314Y43205400D01*
X19951531Y43205400D02*
X18830578Y43205400D01*
X91363800Y43205400D02*
X87421454Y43205400D01*
X10092039Y43103800D02*
X76200Y43103800D01*
X11290300Y43103800D02*
X10934700Y43103800D01*
X12919422Y43103800D02*
X12132962Y43103800D01*
X19989152Y43103800D02*
X18830578Y43103800D01*
X91363800Y43103800D02*
X87489341Y43103800D01*
X10134612Y43002200D02*
X76200Y43002200D01*
X11290300Y43002200D02*
X10934700Y43002200D01*
X12919422Y43002200D02*
X12090387Y43002200D01*
X20057039Y43002200D02*
X18830578Y43002200D01*
X91363800Y43002200D02*
X87513312Y43002200D01*
X10192537Y42900600D02*
X76200Y42900600D01*
X11290300Y42900600D02*
X10934700Y42900600D01*
X12925706Y42900600D02*
X12032462Y42900600D01*
X20128180Y42900600D02*
X18823814Y42900600D01*
X91363800Y42900600D02*
X87533522Y42900600D01*
X10250461Y42799000D02*
X76200Y42799000D01*
X11290300Y42799000D02*
X10934700Y42799000D01*
X12967720Y42799000D02*
X11974538Y42799000D01*
X17412720Y42799000D02*
X14336931Y42799000D01*
X20280235Y42799000D02*
X18781932Y42799000D01*
X86132896Y42799000D02*
X20994764Y42799000D01*
X91363800Y42799000D02*
X87541100Y42799000D01*
X10327188Y42697400D02*
X76200Y42697400D01*
X11290300Y42697400D02*
X10934700Y42697400D01*
X20605958Y42697400D02*
X11897811Y42697400D01*
X86234496Y42697400D02*
X20669041Y42697400D01*
X91363800Y42697400D02*
X87541100Y42697400D01*
X10458116Y42595800D02*
X76200Y42595800D01*
X11290300Y42595800D02*
X10934700Y42595800D01*
X86321900Y42595800D02*
X11766883Y42595800D01*
X91363800Y42595800D02*
X87541100Y42595800D01*
X10589044Y42494200D02*
X76200Y42494200D01*
X11318979Y42494200D02*
X10906020Y42494200D01*
X86321900Y42494200D02*
X11635955Y42494200D01*
X91363800Y42494200D02*
X87541100Y42494200D01*
X86321900Y42392600D02*
X76200Y42392600D01*
X91363800Y42392600D02*
X87541100Y42392600D01*
X86321900Y42291000D02*
X76200Y42291000D01*
X91363800Y42291000D02*
X87541100Y42291000D01*
X50735999Y42189400D02*
X76200Y42189400D01*
X86221796Y42189400D02*
X51371704Y42189400D01*
X91363800Y42189400D02*
X87541100Y42189400D01*
X50597427Y42087800D02*
X76200Y42087800D01*
X86120196Y42087800D02*
X51510642Y42087800D01*
X91363800Y42087800D02*
X87541100Y42087800D01*
X19485748Y41986200D02*
X76200Y41986200D01*
X86018596Y41986200D02*
X81669753Y41986200D01*
X91363800Y41986200D02*
X87530995Y41986200D01*
X19358100Y41884600D02*
X76200Y41884600D01*
X83969443Y41884600D02*
X81797400Y41884600D01*
X91363800Y41884600D02*
X87510785Y41884600D01*
X19256500Y41783000D02*
X76200Y41783000D01*
X83821869Y41783000D02*
X81899000Y41783000D01*
X91363800Y41783000D02*
X87480854Y41783000D01*
X19154900Y41681400D02*
X76200Y41681400D01*
X83760181Y41681400D02*
X82000600Y41681400D01*
X91363800Y41681400D02*
X87412968Y41681400D01*
X19053300Y41579800D02*
X76200Y41579800D01*
X83698621Y41579800D02*
X82102200Y41579800D01*
X91363800Y41579800D02*
X87336404Y41579800D01*
X18951700Y41478200D02*
X76200Y41478200D01*
X83678412Y41478200D02*
X82203800Y41478200D01*
X91363800Y41478200D02*
X87234804Y41478200D01*
X18850100Y41376600D02*
X76200Y41376600D01*
X83658202Y41376600D02*
X82305400Y41376600D01*
X91363800Y41376600D02*
X87133204Y41376600D01*
X18748500Y41275000D02*
X76200Y41275000D01*
X83654900Y41275000D02*
X82407000Y41275000D01*
X91363800Y41275000D02*
X87031604Y41275000D01*
X18646900Y41173400D02*
X76200Y41173400D01*
X83654900Y41173400D02*
X82508600Y41173400D01*
X91363800Y41173400D02*
X86930004Y41173400D01*
X18545300Y41071800D02*
X76200Y41071800D01*
X50622714Y41071800D02*
X19910300Y41071800D01*
X81245200Y41071800D02*
X51485129Y41071800D01*
X83654900Y41071800D02*
X82610200Y41071800D01*
X91363800Y41071800D02*
X86828404Y41071800D01*
X18443700Y40970200D02*
X76200Y40970200D01*
X50797466Y40970200D02*
X19808700Y40970200D01*
X81346800Y40970200D02*
X51310528Y40970200D01*
X83654900Y40970200D02*
X82711800Y40970200D01*
X91363800Y40970200D02*
X86726804Y40970200D01*
X18342100Y40868600D02*
X76200Y40868600D01*
X81448400Y40868600D02*
X19707100Y40868600D01*
X83654900Y40868600D02*
X82813400Y40868600D01*
X91363800Y40868600D02*
X86595235Y40868600D01*
X18240500Y40767000D02*
X76200Y40767000D01*
X81550000Y40767000D02*
X19605500Y40767000D01*
X83654900Y40767000D02*
X82915000Y40767000D01*
X91363800Y40767000D02*
X86337953Y40767000D01*
X18138900Y40665400D02*
X76200Y40665400D01*
X81651600Y40665400D02*
X19503900Y40665400D01*
X83654900Y40665400D02*
X83016600Y40665400D01*
X91363800Y40665400D02*
X84874100Y40665400D01*
X18037300Y40563800D02*
X76200Y40563800D01*
X81753200Y40563800D02*
X19402300Y40563800D01*
X83654900Y40563800D02*
X83118200Y40563800D01*
X91363800Y40563800D02*
X84874100Y40563800D01*
X17935700Y40462200D02*
X76200Y40462200D01*
X65834278Y40462200D02*
X19300700Y40462200D01*
X81854800Y40462200D02*
X66675377Y40462200D01*
X83654900Y40462200D02*
X83219800Y40462200D01*
X91363800Y40462200D02*
X84874100Y40462200D01*
X17834100Y40360600D02*
X76200Y40360600D01*
X65815305Y40360600D02*
X19199100Y40360600D01*
X81956400Y40360600D02*
X66696496Y40360600D01*
X83654900Y40360600D02*
X83321400Y40360600D01*
X91363800Y40360600D02*
X84874100Y40360600D01*
X17732500Y40259000D02*
X76200Y40259000D01*
X65821547Y40259000D02*
X19097500Y40259000D01*
X82058000Y40259000D02*
X66690252Y40259000D01*
X83654900Y40259000D02*
X83423000Y40259000D01*
X91363800Y40259000D02*
X84874100Y40259000D01*
X17630900Y40157400D02*
X76200Y40157400D01*
X65923147Y40157400D02*
X18995900Y40157400D01*
X68080046Y40157400D02*
X66588652Y40157400D01*
X70086646Y40157400D02*
X68445205Y40157400D01*
X72093246Y40157400D02*
X70451805Y40157400D01*
X74099846Y40157400D02*
X72458405Y40157400D01*
X76106446Y40157400D02*
X74465005Y40157400D01*
X78113046Y40157400D02*
X76471605Y40157400D01*
X80119646Y40157400D02*
X78478205Y40157400D01*
X82126247Y40157400D02*
X80484805Y40157400D01*
X83654900Y40157400D02*
X83524600Y40157400D01*
X91363800Y40157400D02*
X84874100Y40157400D01*
X17529300Y40055800D02*
X76200Y40055800D01*
X66024747Y40055800D02*
X18894300Y40055800D01*
X67883085Y40055800D02*
X66487052Y40055800D01*
X69889685Y40055800D02*
X68642096Y40055800D01*
X71896285Y40055800D02*
X70648696Y40055800D01*
X73902885Y40055800D02*
X72655296Y40055800D01*
X75909485Y40055800D02*
X74661896Y40055800D01*
X77916085Y40055800D02*
X76668496Y40055800D01*
X79922685Y40055800D02*
X78675096Y40055800D01*
X81929285Y40055800D02*
X80681696Y40055800D01*
X83654900Y40055800D02*
X83626200Y40055800D01*
X91363800Y40055800D02*
X84874100Y40055800D01*
X17427700Y39954200D02*
X76200Y39954200D01*
X65357063Y39954200D02*
X18792700Y39954200D01*
X66126347Y39954200D02*
X65623453Y39954200D01*
X66888348Y39954200D02*
X66385452Y39954200D01*
X67781307Y39954200D02*
X67161727Y39954200D01*
X69787907Y39954200D02*
X68743519Y39954200D01*
X71794507Y39954200D02*
X70750119Y39954200D01*
X73801107Y39954200D02*
X72756719Y39954200D01*
X75807707Y39954200D02*
X74763319Y39954200D01*
X77814307Y39954200D02*
X76769919Y39954200D01*
X79820907Y39954200D02*
X78776519Y39954200D01*
X81827507Y39954200D02*
X80783119Y39954200D01*
X91363800Y39954200D02*
X84874100Y39954200D01*
X17326100Y39852600D02*
X76200Y39852600D01*
X65331088Y39852600D02*
X18691100Y39852600D01*
X66227947Y39852600D02*
X65725053Y39852600D01*
X66786748Y39852600D02*
X66283852Y39852600D01*
X67718452Y39852600D02*
X67190912Y39852600D01*
X69725052Y39852600D02*
X68806643Y39852600D01*
X71731652Y39852600D02*
X70813243Y39852600D01*
X73738252Y39852600D02*
X72819843Y39852600D01*
X75744852Y39852600D02*
X74826443Y39852600D01*
X77751452Y39852600D02*
X76833043Y39852600D01*
X79758052Y39852600D02*
X78839643Y39852600D01*
X81764652Y39852600D02*
X80846243Y39852600D01*
X91363800Y39852600D02*
X84898005Y39852600D01*
X17224500Y39751000D02*
X76200Y39751000D01*
X65305113Y39751000D02*
X18589500Y39751000D01*
X66685148Y39751000D02*
X65826653Y39751000D01*
X67676264Y39751000D02*
X67205478Y39751000D01*
X69682864Y39751000D02*
X68848624Y39751000D01*
X71689464Y39751000D02*
X70855224Y39751000D01*
X73696064Y39751000D02*
X72861824Y39751000D01*
X75702664Y39751000D02*
X74868424Y39751000D01*
X77709264Y39751000D02*
X76875024Y39751000D01*
X79715864Y39751000D02*
X78881624Y39751000D01*
X81722464Y39751000D02*
X80888224Y39751000D01*
X91363800Y39751000D02*
X84999605Y39751000D01*
X17122900Y39649400D02*
X76200Y39649400D01*
X65279137Y39649400D02*
X18487900Y39649400D01*
X66583548Y39649400D02*
X65928253Y39649400D01*
X67652967Y39649400D02*
X67220044Y39649400D01*
X69659567Y39649400D02*
X68872166Y39649400D01*
X71666167Y39649400D02*
X70878766Y39649400D01*
X73672767Y39649400D02*
X72885366Y39649400D01*
X75679367Y39649400D02*
X74891966Y39649400D01*
X77685967Y39649400D02*
X76898566Y39649400D01*
X79692567Y39649400D02*
X78905166Y39649400D01*
X81699167Y39649400D02*
X80911767Y39649400D01*
X91363800Y39649400D02*
X85101205Y39649400D01*
X17021300Y39547800D02*
X76200Y39547800D01*
X65284472Y39547800D02*
X18386300Y39547800D01*
X66532747Y39547800D02*
X65979052Y39547800D01*
X67652878Y39547800D02*
X67234611Y39547800D01*
X69659478Y39547800D02*
X68872077Y39547800D01*
X71666078Y39547800D02*
X70878677Y39547800D01*
X73672678Y39547800D02*
X72885277Y39547800D01*
X75679278Y39547800D02*
X74891877Y39547800D01*
X77685878Y39547800D02*
X76898477Y39547800D01*
X79692478Y39547800D02*
X78905077Y39547800D01*
X81699078Y39547800D02*
X80911678Y39547800D01*
X91363800Y39547800D02*
X85202805Y39547800D01*
X16919700Y39446200D02*
X76200Y39446200D01*
X65299039Y39446200D02*
X18284700Y39446200D01*
X66634347Y39446200D02*
X65877452Y39446200D01*
X67655386Y39446200D02*
X67219674Y39446200D01*
X69661986Y39446200D02*
X68869830Y39446200D01*
X71668586Y39446200D02*
X70876430Y39446200D01*
X73675186Y39446200D02*
X72883030Y39446200D01*
X75681786Y39446200D02*
X74889630Y39446200D01*
X77688386Y39446200D02*
X76896230Y39446200D01*
X79694986Y39446200D02*
X78902830Y39446200D01*
X81701586Y39446200D02*
X80909430Y39446200D01*
X91363800Y39446200D02*
X85304405Y39446200D01*
X16818100Y39344600D02*
X76200Y39344600D01*
X65313605Y39344600D02*
X18183100Y39344600D01*
X66735947Y39344600D02*
X65775852Y39344600D01*
X67697367Y39344600D02*
X67193699Y39344600D01*
X69703967Y39344600D02*
X68827642Y39344600D01*
X71710567Y39344600D02*
X70834242Y39344600D01*
X73717167Y39344600D02*
X72840842Y39344600D01*
X75723767Y39344600D02*
X74847442Y39344600D01*
X77730367Y39344600D02*
X76854042Y39344600D01*
X79736967Y39344600D02*
X78860642Y39344600D01*
X81743567Y39344600D02*
X80867242Y39344600D01*
X82972401Y39344600D02*
X82873842Y39344600D01*
X91363800Y39344600D02*
X85406005Y39344600D01*
X16716500Y39243000D02*
X76200Y39243000D01*
X65329031Y39243000D02*
X18081500Y39243000D01*
X66177148Y39243000D02*
X65674252Y39243000D01*
X66837547Y39243000D02*
X66334653Y39243000D01*
X67739347Y39243000D02*
X67167724Y39243000D01*
X69745947Y39243000D02*
X68785454Y39243000D01*
X71752547Y39243000D02*
X70792054Y39243000D01*
X73759147Y39243000D02*
X72798654Y39243000D01*
X75765747Y39243000D02*
X74805254Y39243000D01*
X77772347Y39243000D02*
X76811854Y39243000D01*
X79778947Y39243000D02*
X78818454Y39243000D01*
X81785547Y39243000D02*
X80825054Y39243000D01*
X83019900Y39243000D02*
X82831654Y39243000D01*
X91363800Y39243000D02*
X85507605Y39243000D01*
X16614900Y39141400D02*
X76200Y39141400D01*
X65411710Y39141400D02*
X17979900Y39141400D01*
X66075548Y39141400D02*
X65572652Y39141400D01*
X66939147Y39141400D02*
X66436253Y39141400D01*
X67832193Y39141400D02*
X67100089Y39141400D01*
X69838793Y39141400D02*
X68692804Y39141400D01*
X71845393Y39141400D02*
X70699404Y39141400D01*
X73851993Y39141400D02*
X72706004Y39141400D01*
X75858593Y39141400D02*
X74712604Y39141400D01*
X77865193Y39141400D02*
X76719204Y39141400D01*
X79871793Y39141400D02*
X78725804Y39141400D01*
X81878393Y39141400D02*
X80732404Y39141400D01*
X83019900Y39141400D02*
X82739004Y39141400D01*
X91363800Y39141400D02*
X85609205Y39141400D01*
X16513300Y39039800D02*
X76200Y39039800D01*
X65973948Y39039800D02*
X17878300Y39039800D01*
X67957454Y39039800D02*
X66537853Y39039800D01*
X69964054Y39039800D02*
X68567899Y39039800D01*
X71970654Y39039800D02*
X70574499Y39039800D01*
X73977254Y39039800D02*
X72581099Y39039800D01*
X75983854Y39039800D02*
X74587699Y39039800D01*
X77990454Y39039800D02*
X76594299Y39039800D01*
X79997054Y39039800D02*
X78600899Y39039800D01*
X82003654Y39039800D02*
X80607499Y39039800D01*
X83022426Y39039800D02*
X82614099Y39039800D01*
X91363800Y39039800D02*
X85710805Y39039800D01*
X16411700Y38938200D02*
X76200Y38938200D01*
X65872348Y38938200D02*
X17776700Y38938200D01*
X83042635Y38938200D02*
X66639453Y38938200D01*
X91363800Y38938200D02*
X85812405Y38938200D01*
X16310100Y38836600D02*
X76200Y38836600D01*
X65807437Y38836600D02*
X17675100Y38836600D01*
X83077494Y38836600D02*
X66704362Y38836600D01*
X91363800Y38836600D02*
X85914005Y38836600D01*
X16208500Y38735000D02*
X76200Y38735000D01*
X65823172Y38735000D02*
X17573500Y38735000D01*
X83145380Y38735000D02*
X66688627Y38735000D01*
X91363800Y38735000D02*
X86015605Y38735000D01*
X16106900Y38633400D02*
X76200Y38633400D01*
X66035122Y38633400D02*
X17471900Y38633400D01*
X83239100Y38633400D02*
X66501897Y38633400D01*
X91363800Y38633400D02*
X86117205Y38633400D01*
X16005300Y38531800D02*
X76200Y38531800D01*
X83340700Y38531800D02*
X17370300Y38531800D01*
X91363800Y38531800D02*
X86218805Y38531800D01*
X15903700Y38430200D02*
X76200Y38430200D01*
X83442300Y38430200D02*
X17268700Y38430200D01*
X91363800Y38430200D02*
X86320405Y38430200D01*
X15802100Y38328600D02*
X76200Y38328600D01*
X83543900Y38328600D02*
X17167100Y38328600D01*
X91363800Y38328600D02*
X86422005Y38328600D01*
X15700500Y38227000D02*
X76200Y38227000D01*
X83645500Y38227000D02*
X17065500Y38227000D01*
X91363800Y38227000D02*
X86523605Y38227000D01*
X15598900Y38125400D02*
X76200Y38125400D01*
X83747100Y38125400D02*
X16963900Y38125400D01*
X91363800Y38125400D02*
X86625205Y38125400D01*
X15497300Y38023800D02*
X76200Y38023800D01*
X83848700Y38023800D02*
X16862300Y38023800D01*
X91363800Y38023800D02*
X86726805Y38023800D01*
X15395700Y37922200D02*
X76200Y37922200D01*
X83950300Y37922200D02*
X16760700Y37922200D01*
X91363800Y37922200D02*
X86828405Y37922200D01*
X15294100Y37820600D02*
X76200Y37820600D01*
X84051900Y37820600D02*
X16659100Y37820600D01*
X91363800Y37820600D02*
X86930005Y37820600D01*
X15220623Y37719000D02*
X76200Y37719000D01*
X84153500Y37719000D02*
X16557500Y37719000D01*
X91363800Y37719000D02*
X87031605Y37719000D01*
X15166712Y37617400D02*
X76200Y37617400D01*
X84255100Y37617400D02*
X16455900Y37617400D01*
X91363800Y37617400D02*
X87133205Y37617400D01*
X15146503Y37515800D02*
X76200Y37515800D01*
X84356700Y37515800D02*
X16354300Y37515800D01*
X91363800Y37515800D02*
X87234805Y37515800D01*
X15135900Y37414200D02*
X76200Y37414200D01*
X84458300Y37414200D02*
X16252700Y37414200D01*
X91363800Y37414200D02*
X87336405Y37414200D01*
X15135900Y37312600D02*
X76200Y37312600D01*
X84559900Y37312600D02*
X16151100Y37312600D01*
X91363800Y37312600D02*
X87438005Y37312600D01*
X15135900Y37211000D02*
X76200Y37211000D01*
X84661500Y37211000D02*
X16101100Y37211000D01*
X91363800Y37211000D02*
X87539605Y37211000D01*
X15135900Y37109400D02*
X76200Y37109400D01*
X50735999Y37109400D02*
X16101100Y37109400D01*
X84763100Y37109400D02*
X51371704Y37109400D01*
X91363800Y37109400D02*
X87641205Y37109400D01*
X15135900Y37007800D02*
X76200Y37007800D01*
X50597427Y37007800D02*
X16101100Y37007800D01*
X84864700Y37007800D02*
X51510642Y37007800D01*
X91363800Y37007800D02*
X87742805Y37007800D01*
X15135900Y36906200D02*
X76200Y36906200D01*
X50495649Y36906200D02*
X16101100Y36906200D01*
X84966300Y36906200D02*
X51612065Y36906200D01*
X91363800Y36906200D02*
X87844405Y36906200D01*
X15135900Y36804600D02*
X76200Y36804600D01*
X50446469Y36804600D02*
X16101100Y36804600D01*
X85067900Y36804600D02*
X51661603Y36804600D01*
X91363800Y36804600D02*
X87946005Y36804600D01*
X15135900Y36703000D02*
X76200Y36703000D01*
X50404281Y36703000D02*
X16101100Y36703000D01*
X85169500Y36703000D02*
X51703583Y36703000D01*
X91363800Y36703000D02*
X88047605Y36703000D01*
X15135900Y36601400D02*
X76200Y36601400D01*
X50380978Y36601400D02*
X16101100Y36601400D01*
X85271100Y36601400D02*
X51727178Y36601400D01*
X91363800Y36601400D02*
X88149205Y36601400D01*
X15135900Y36499800D02*
X76200Y36499800D01*
X50380889Y36499800D02*
X16101100Y36499800D01*
X85372700Y36499800D02*
X51727089Y36499800D01*
X91363800Y36499800D02*
X88250805Y36499800D01*
X15135900Y36398200D02*
X76200Y36398200D01*
X50380800Y36398200D02*
X16101100Y36398200D01*
X85474300Y36398200D02*
X51727000Y36398200D01*
X91363800Y36398200D02*
X88352405Y36398200D01*
X15135900Y36296600D02*
X76200Y36296600D01*
X50414912Y36296600D02*
X16101100Y36296600D01*
X85575900Y36296600D02*
X51693172Y36296600D01*
X91363800Y36296600D02*
X88454005Y36296600D01*
X15135900Y36195000D02*
X76200Y36195000D01*
X50456892Y36195000D02*
X16101100Y36195000D01*
X85677500Y36195000D02*
X51650984Y36195000D01*
X91363800Y36195000D02*
X88555605Y36195000D01*
X15135900Y36093400D02*
X76200Y36093400D01*
X50521291Y36093400D02*
X16101100Y36093400D01*
X85779100Y36093400D02*
X51586906Y36093400D01*
X91363800Y36093400D02*
X88657205Y36093400D01*
X15135900Y35991800D02*
X76200Y35991800D01*
X50622714Y35991800D02*
X16101100Y35991800D01*
X85880700Y35991800D02*
X51485129Y35991800D01*
X91363800Y35991800D02*
X88758805Y35991800D01*
X15135900Y35890200D02*
X76200Y35890200D01*
X50797466Y35890200D02*
X16101100Y35890200D01*
X85982300Y35890200D02*
X51310528Y35890200D01*
X91363800Y35890200D02*
X88860405Y35890200D01*
X15135900Y35788600D02*
X76200Y35788600D01*
X86083900Y35788600D02*
X16101100Y35788600D01*
X91363800Y35788600D02*
X88962005Y35788600D01*
X15135900Y35687000D02*
X76200Y35687000D01*
X86185500Y35687000D02*
X16101100Y35687000D01*
X91363800Y35687000D02*
X89063605Y35687000D01*
X15135900Y35585400D02*
X76200Y35585400D01*
X86287100Y35585400D02*
X16101100Y35585400D01*
X91363800Y35585400D02*
X89165205Y35585400D01*
X15135900Y35483800D02*
X76200Y35483800D01*
X86388700Y35483800D02*
X16101100Y35483800D01*
X91363800Y35483800D02*
X89266805Y35483800D01*
X15135900Y35382200D02*
X76200Y35382200D01*
X86490300Y35382200D02*
X16101100Y35382200D01*
X91363800Y35382200D02*
X89368405Y35382200D01*
X15135900Y35280600D02*
X76200Y35280600D01*
X86591900Y35280600D02*
X16101100Y35280600D01*
X91363800Y35280600D02*
X89470005Y35280600D01*
X15135900Y35179000D02*
X76200Y35179000D01*
X86693500Y35179000D02*
X16101100Y35179000D01*
X91363800Y35179000D02*
X89571605Y35179000D01*
X15135900Y35077400D02*
X76200Y35077400D01*
X86795100Y35077400D02*
X16101100Y35077400D01*
X91363800Y35077400D02*
X89673205Y35077400D01*
X15135900Y34975800D02*
X76200Y34975800D01*
X86896700Y34975800D02*
X16101100Y34975800D01*
X91363800Y34975800D02*
X89774805Y34975800D01*
X15135900Y34874200D02*
X76200Y34874200D01*
X86998300Y34874200D02*
X16101100Y34874200D01*
X91363800Y34874200D02*
X89876405Y34874200D01*
X15135900Y34772600D02*
X76200Y34772600D01*
X87099900Y34772600D02*
X16101100Y34772600D01*
X91363800Y34772600D02*
X89978005Y34772600D01*
X15135900Y34671000D02*
X76200Y34671000D01*
X87201500Y34671000D02*
X16101100Y34671000D01*
X91363800Y34671000D02*
X90079605Y34671000D01*
X15135900Y34569400D02*
X76200Y34569400D01*
X50735999Y34569400D02*
X16101100Y34569400D01*
X87303100Y34569400D02*
X51371704Y34569400D01*
X91363800Y34569400D02*
X90181205Y34569400D01*
X15135900Y34467800D02*
X76200Y34467800D01*
X19541370Y34467800D02*
X16101100Y34467800D01*
X50597427Y34467800D02*
X20419853Y34467800D01*
X87404700Y34467800D02*
X51510642Y34467800D01*
X91363800Y34467800D02*
X90282805Y34467800D01*
X15135900Y34366200D02*
X76200Y34366200D01*
X19464163Y34366200D02*
X16101100Y34366200D01*
X50495649Y34366200D02*
X20498988Y34366200D01*
X87506300Y34366200D02*
X51612065Y34366200D01*
X91363800Y34366200D02*
X90384405Y34366200D01*
X15135900Y34264600D02*
X76200Y34264600D01*
X19447922Y34264600D02*
X16101100Y34264600D01*
X50446469Y34264600D02*
X20514078Y34264600D01*
X87607900Y34264600D02*
X51661603Y34264600D01*
X91363800Y34264600D02*
X90486005Y34264600D01*
X15135900Y34163000D02*
X76200Y34163000D01*
X19447922Y34163000D02*
X16101100Y34163000D01*
X50404281Y34163000D02*
X20514078Y34163000D01*
X87709500Y34163000D02*
X51703583Y34163000D01*
X91363800Y34163000D02*
X90587605Y34163000D01*
X15135900Y34061400D02*
X76200Y34061400D01*
X19447922Y34061400D02*
X16101100Y34061400D01*
X50380978Y34061400D02*
X20514078Y34061400D01*
X87811100Y34061400D02*
X51727178Y34061400D01*
X91363800Y34061400D02*
X90689205Y34061400D01*
X15135900Y33959800D02*
X76200Y33959800D01*
X19447922Y33959800D02*
X16101100Y33959800D01*
X50380889Y33959800D02*
X20514078Y33959800D01*
X87912700Y33959800D02*
X51727089Y33959800D01*
X91363800Y33959800D02*
X90790805Y33959800D01*
X15135900Y33858200D02*
X76200Y33858200D01*
X19447922Y33858200D02*
X16101100Y33858200D01*
X50380800Y33858200D02*
X20514078Y33858200D01*
X88014300Y33858200D02*
X51727000Y33858200D01*
X91363800Y33858200D02*
X90880011Y33858200D01*
X15135900Y33756600D02*
X76200Y33756600D01*
X19453453Y33756600D02*
X16101100Y33756600D01*
X50414912Y33756600D02*
X20508124Y33756600D01*
X88115900Y33756600D02*
X51693172Y33756600D01*
X91363800Y33756600D02*
X90947898Y33756600D01*
X15135900Y33655000D02*
X76200Y33655000D01*
X19493646Y33655000D02*
X16101100Y33655000D01*
X50456892Y33655000D02*
X20468165Y33655000D01*
X88217500Y33655000D02*
X51650984Y33655000D01*
X91363800Y33655000D02*
X90995708Y33655000D01*
X15135900Y33553400D02*
X76200Y33553400D01*
X19625400Y33553400D02*
X16101100Y33553400D01*
X50521291Y33553400D02*
X20336600Y33553400D01*
X88319100Y33553400D02*
X51586906Y33553400D01*
X91363800Y33553400D02*
X91015917Y33553400D01*
X15135900Y33451800D02*
X76200Y33451800D01*
X18938256Y33451800D02*
X16101100Y33451800D01*
X50622714Y33451800D02*
X21081861Y33451800D01*
X88420700Y33451800D02*
X51485129Y33451800D01*
X91363800Y33451800D02*
X91033600Y33451800D01*
X15135900Y33350200D02*
X76200Y33350200D01*
X18887094Y33350200D02*
X16101100Y33350200D01*
X50797466Y33350200D02*
X21132662Y33350200D01*
X88522300Y33350200D02*
X51310528Y33350200D01*
X91363800Y33350200D02*
X91033600Y33350200D01*
X15135900Y33248600D02*
X76200Y33248600D01*
X18876422Y33248600D02*
X16101100Y33248600D01*
X88623900Y33248600D02*
X21142578Y33248600D01*
X91363800Y33248600D02*
X91033600Y33248600D01*
X15135900Y33147000D02*
X76200Y33147000D01*
X18876422Y33147000D02*
X16101100Y33147000D01*
X88725500Y33147000D02*
X21142578Y33147000D01*
X91363800Y33147000D02*
X91033600Y33147000D01*
X15135900Y33045400D02*
X76200Y33045400D01*
X18876422Y33045400D02*
X16101100Y33045400D01*
X88827100Y33045400D02*
X21142578Y33045400D01*
X91363800Y33045400D02*
X91033600Y33045400D01*
X15135900Y32943800D02*
X76200Y32943800D01*
X18876422Y32943800D02*
X16101100Y32943800D01*
X88928700Y32943800D02*
X21142578Y32943800D01*
X91363800Y32943800D02*
X91033600Y32943800D01*
X15135900Y32842200D02*
X76200Y32842200D01*
X18876422Y32842200D02*
X16101100Y32842200D01*
X88988900Y32842200D02*
X21142578Y32842200D01*
X91363800Y32842200D02*
X91033600Y32842200D01*
X15135900Y32740600D02*
X76200Y32740600D01*
X18876422Y32740600D02*
X16101100Y32740600D01*
X88988900Y32740600D02*
X21142578Y32740600D01*
X91363800Y32740600D02*
X91033600Y32740600D01*
X15135900Y32639000D02*
X76200Y32639000D01*
X18876422Y32639000D02*
X16101100Y32639000D01*
X88988900Y32639000D02*
X21142578Y32639000D01*
X91363800Y32639000D02*
X91033600Y32639000D01*
X15135900Y32537400D02*
X76200Y32537400D01*
X18876422Y32537400D02*
X16101100Y32537400D01*
X88988900Y32537400D02*
X21142578Y32537400D01*
X91363800Y32537400D02*
X91033600Y32537400D01*
X15135900Y32435800D02*
X76200Y32435800D01*
X18876422Y32435800D02*
X16101100Y32435800D01*
X88988900Y32435800D02*
X21142578Y32435800D01*
X91363800Y32435800D02*
X91033600Y32435800D01*
X15135900Y32334200D02*
X76200Y32334200D01*
X18876422Y32334200D02*
X16101100Y32334200D01*
X88988900Y32334200D02*
X21142578Y32334200D01*
X91363800Y32334200D02*
X91033600Y32334200D01*
X5989704Y32232600D02*
X76200Y32232600D01*
X15135900Y32232600D02*
X6358712Y32232600D01*
X18876422Y32232600D02*
X16101100Y32232600D01*
X88988900Y32232600D02*
X21142578Y32232600D01*
X91363800Y32232600D02*
X91033600Y32232600D01*
X5672212Y32131000D02*
X76200Y32131000D01*
X15135900Y32131000D02*
X6657789Y32131000D01*
X18876422Y32131000D02*
X16101100Y32131000D01*
X88988900Y32131000D02*
X21142578Y32131000D01*
X91363800Y32131000D02*
X91033600Y32131000D01*
X5650368Y32029400D02*
X76200Y32029400D01*
X15135900Y32029400D02*
X6679633Y32029400D01*
X18876422Y32029400D02*
X16101100Y32029400D01*
X50735999Y32029400D02*
X21142578Y32029400D01*
X88988900Y32029400D02*
X51371704Y32029400D01*
X91363800Y32029400D02*
X91033600Y32029400D01*
X5665647Y31927800D02*
X76200Y31927800D01*
X15135900Y31927800D02*
X6664353Y31927800D01*
X18876422Y31927800D02*
X16101100Y31927800D01*
X50597427Y31927800D02*
X21142578Y31927800D01*
X88988900Y31927800D02*
X51510642Y31927800D01*
X91363800Y31927800D02*
X91033600Y31927800D01*
X5767247Y31826200D02*
X76200Y31826200D01*
X15135900Y31826200D02*
X6562753Y31826200D01*
X18876422Y31826200D02*
X16101100Y31826200D01*
X50495649Y31826200D02*
X21142578Y31826200D01*
X88988900Y31826200D02*
X51612065Y31826200D01*
X91363800Y31826200D02*
X91033600Y31826200D01*
X5868847Y31724600D02*
X76200Y31724600D01*
X15135900Y31724600D02*
X6461153Y31724600D01*
X18876422Y31724600D02*
X16101100Y31724600D01*
X22415500Y31724600D02*
X21142578Y31724600D01*
X50446469Y31724600D02*
X22415500Y31724600D01*
X88988900Y31724600D02*
X51661603Y31724600D01*
X91363800Y31724600D02*
X91033600Y31724600D01*
X5178719Y31623000D02*
X76200Y31623000D01*
X5970447Y31623000D02*
X5467553Y31623000D01*
X6862447Y31623000D02*
X6359553Y31623000D01*
X15135900Y31623000D02*
X7157188Y31623000D01*
X18876422Y31623000D02*
X16101100Y31623000D01*
X22133741Y31623000D02*
X21142578Y31623000D01*
X50404281Y31623000D02*
X22697260Y31623000D01*
X88988900Y31623000D02*
X51703583Y31623000D01*
X91363800Y31623000D02*
X91033600Y31623000D01*
X5150803Y31521400D02*
X76200Y31521400D01*
X6072047Y31521400D02*
X5569153Y31521400D01*
X6760847Y31521400D02*
X6257953Y31521400D01*
X15135900Y31521400D02*
X7199273Y31521400D01*
X18876422Y31521400D02*
X16101100Y31521400D01*
X22032924Y31521400D02*
X21142578Y31521400D01*
X50380978Y31521400D02*
X22798077Y31521400D01*
X88988900Y31521400D02*
X51727178Y31521400D01*
X91363800Y31521400D02*
X91033600Y31521400D01*
X5122888Y31419800D02*
X76200Y31419800D01*
X6659247Y31419800D02*
X5670753Y31419800D01*
X15135900Y31419800D02*
X7212149Y31419800D01*
X18876422Y31419800D02*
X16101100Y31419800D01*
X21968267Y31419800D02*
X21142578Y31419800D01*
X50380889Y31419800D02*
X22862734Y31419800D01*
X88988900Y31419800D02*
X51727089Y31419800D01*
X91363800Y31419800D02*
X91033600Y31419800D01*
X5094973Y31318200D02*
X76200Y31318200D01*
X6557647Y31318200D02*
X5772353Y31318200D01*
X15135900Y31318200D02*
X7224870Y31318200D01*
X18876422Y31318200D02*
X16101100Y31318200D01*
X21948058Y31318200D02*
X21142578Y31318200D01*
X50380800Y31318200D02*
X22882944Y31318200D01*
X88988900Y31318200D02*
X51727000Y31318200D01*
X91363800Y31318200D02*
X91033600Y31318200D01*
X5082493Y31216600D02*
X76200Y31216600D01*
X6456047Y31216600D02*
X5873953Y31216600D01*
X15135900Y31216600D02*
X7237591Y31216600D01*
X18876422Y31216600D02*
X16101100Y31216600D01*
X21932900Y31216600D02*
X21142578Y31216600D01*
X50414912Y31216600D02*
X22898100Y31216600D01*
X88988900Y31216600D02*
X51693172Y31216600D01*
X91363800Y31216600D02*
X91033600Y31216600D01*
X5095214Y31115000D02*
X76200Y31115000D01*
X6478447Y31115000D02*
X5851553Y31115000D01*
X15135900Y31115000D02*
X7250312Y31115000D01*
X18891945Y31115000D02*
X16101100Y31115000D01*
X21932900Y31115000D02*
X21125871Y31115000D01*
X50456892Y31115000D02*
X22898100Y31115000D01*
X88988900Y31115000D02*
X51650984Y31115000D01*
X91363800Y31115000D02*
X91033600Y31115000D01*
X5107935Y31013400D02*
X76200Y31013400D01*
X6580047Y31013400D02*
X5749953Y31013400D01*
X12950057Y31013400D02*
X7228873Y31013400D01*
X14850057Y31013400D02*
X14488222Y31013400D01*
X18974013Y31013400D02*
X16388222Y31013400D01*
X21932900Y31013400D02*
X21045555Y31013400D01*
X50521291Y31013400D02*
X22898100Y31013400D01*
X88988900Y31013400D02*
X51586906Y31013400D01*
X91363800Y31013400D02*
X91033600Y31013400D01*
X5120656Y30911800D02*
X76200Y30911800D01*
X6151247Y30911800D02*
X5648353Y30911800D01*
X6681647Y30911800D02*
X6178753Y30911800D01*
X12170938Y30911800D02*
X7200957Y30911800D01*
X14796925Y30911800D02*
X14540891Y30911800D01*
X21932900Y30911800D02*
X16440891Y30911800D01*
X50622714Y30911800D02*
X22898100Y30911800D01*
X88988900Y30911800D02*
X51485129Y30911800D01*
X91363800Y30911800D02*
X91033600Y30911800D01*
X5140006Y30810200D02*
X76200Y30810200D01*
X6049647Y30810200D02*
X5546753Y30810200D01*
X6783247Y30810200D02*
X6280353Y30810200D01*
X12104543Y30810200D02*
X7173042Y30810200D01*
X14785422Y30810200D02*
X14551578Y30810200D01*
X21932900Y30810200D02*
X16451578Y30810200D01*
X50797466Y30810200D02*
X22898100Y30810200D01*
X88988900Y30810200D02*
X51310528Y30810200D01*
X91363800Y30810200D02*
X91033600Y30810200D01*
X5182090Y30708600D02*
X76200Y30708600D01*
X5948047Y30708600D02*
X5445153Y30708600D01*
X6884847Y30708600D02*
X6381953Y30708600D01*
X12089922Y30708600D02*
X7145127Y30708600D01*
X14785422Y30708600D02*
X14551578Y30708600D01*
X21932900Y30708600D02*
X16451578Y30708600D01*
X88988900Y30708600D02*
X22898100Y30708600D01*
X91363800Y30708600D02*
X91033600Y30708600D01*
X5846447Y30607000D02*
X76200Y30607000D01*
X12089922Y30607000D02*
X6483553Y30607000D01*
X14785422Y30607000D02*
X14551578Y30607000D01*
X16712917Y30607000D02*
X16451578Y30607000D01*
X21932900Y30607000D02*
X18707813Y30607000D01*
X88988900Y30607000D02*
X22898100Y30607000D01*
X91363800Y30607000D02*
X91033600Y30607000D01*
X5744847Y30505400D02*
X76200Y30505400D01*
X12089922Y30505400D02*
X6585153Y30505400D01*
X14785422Y30505400D02*
X14551578Y30505400D01*
X16606552Y30505400D02*
X16451578Y30505400D01*
X21932900Y30505400D02*
X18811719Y30505400D01*
X88988900Y30505400D02*
X22898100Y30505400D01*
X91363800Y30505400D02*
X91033600Y30505400D01*
X5643247Y30403800D02*
X76200Y30403800D01*
X12089922Y30403800D02*
X6686753Y30403800D01*
X14785422Y30403800D02*
X14551578Y30403800D01*
X16577698Y30403800D02*
X16451578Y30403800D01*
X21932900Y30403800D02*
X18841393Y30403800D01*
X88988900Y30403800D02*
X22898100Y30403800D01*
X91363800Y30403800D02*
X91033600Y30403800D01*
X5655183Y30302200D02*
X76200Y30302200D01*
X12089922Y30302200D02*
X6674816Y30302200D01*
X14758200Y30302200D02*
X14578799Y30302200D01*
X16576422Y30302200D02*
X16451578Y30302200D01*
X21932900Y30302200D02*
X18842578Y30302200D01*
X88988900Y30302200D02*
X22898100Y30302200D01*
X91363800Y30302200D02*
X91033600Y30302200D01*
X5683034Y30200600D02*
X76200Y30200600D01*
X12089922Y30200600D02*
X6649114Y30200600D01*
X16576422Y30200600D02*
X16451578Y30200600D01*
X21932900Y30200600D02*
X18842578Y30200600D01*
X88988900Y30200600D02*
X22898100Y30200600D01*
X91363800Y30200600D02*
X91033600Y30200600D01*
X6052815Y30099000D02*
X76200Y30099000D01*
X12097260Y30099000D02*
X6161393Y30099000D01*
X16576422Y30099000D02*
X16450362Y30099000D01*
X21932900Y30099000D02*
X18842578Y30099000D01*
X88988900Y30099000D02*
X22898100Y30099000D01*
X91363800Y30099000D02*
X91033600Y30099000D01*
X12141824Y29997400D02*
X76200Y29997400D01*
X16576422Y29997400D02*
X16421653Y29997400D01*
X21932900Y29997400D02*
X18842578Y29997400D01*
X88988900Y29997400D02*
X22898100Y29997400D01*
X91363800Y29997400D02*
X91033600Y29997400D01*
X13019748Y29895800D02*
X76200Y29895800D01*
X16576422Y29895800D02*
X16315549Y29895800D01*
X21932900Y29895800D02*
X18842578Y29895800D01*
X88988900Y29895800D02*
X22898100Y29895800D01*
X91363800Y29895800D02*
X91033600Y29895800D01*
X13721800Y29794200D02*
X76200Y29794200D01*
X16576422Y29794200D02*
X15615200Y29794200D01*
X21932900Y29794200D02*
X18842578Y29794200D01*
X88988900Y29794200D02*
X22898100Y29794200D01*
X91363800Y29794200D02*
X91033600Y29794200D01*
X13804900Y29692600D02*
X76200Y29692600D01*
X16576422Y29692600D02*
X15513600Y29692600D01*
X21932900Y29692600D02*
X18842578Y29692600D01*
X88988900Y29692600D02*
X22898100Y29692600D01*
X91363800Y29692600D02*
X91033600Y29692600D01*
X13804900Y29591000D02*
X76200Y29591000D01*
X16576422Y29591000D02*
X15469078Y29591000D01*
X21932900Y29591000D02*
X18842578Y29591000D01*
X88988900Y29591000D02*
X22898100Y29591000D01*
X91363800Y29591000D02*
X91033600Y29591000D01*
X13804900Y29489400D02*
X76200Y29489400D01*
X16576422Y29489400D02*
X15469078Y29489400D01*
X21932900Y29489400D02*
X18842578Y29489400D01*
X50735999Y29489400D02*
X22898100Y29489400D01*
X88988900Y29489400D02*
X51371704Y29489400D01*
X91363800Y29489400D02*
X91033600Y29489400D01*
X13804900Y29387800D02*
X76200Y29387800D01*
X16576422Y29387800D02*
X15469078Y29387800D01*
X21932900Y29387800D02*
X18842578Y29387800D01*
X50597427Y29387800D02*
X22898100Y29387800D01*
X88988900Y29387800D02*
X51510642Y29387800D01*
X91363800Y29387800D02*
X91033600Y29387800D01*
X13804900Y29286200D02*
X76200Y29286200D01*
X16576422Y29286200D02*
X15469078Y29286200D01*
X21932900Y29286200D02*
X18842578Y29286200D01*
X50495649Y29286200D02*
X22898100Y29286200D01*
X88988900Y29286200D02*
X51612065Y29286200D01*
X91363800Y29286200D02*
X91033600Y29286200D01*
X13804900Y29184600D02*
X76200Y29184600D01*
X16576422Y29184600D02*
X15469078Y29184600D01*
X21932900Y29184600D02*
X18842578Y29184600D01*
X50446469Y29184600D02*
X22898100Y29184600D01*
X88988900Y29184600D02*
X51661603Y29184600D01*
X91363800Y29184600D02*
X91033600Y29184600D01*
X13804900Y29083000D02*
X76200Y29083000D01*
X16576422Y29083000D02*
X15469078Y29083000D01*
X21932900Y29083000D02*
X18842578Y29083000D01*
X50404281Y29083000D02*
X22898100Y29083000D01*
X88988900Y29083000D02*
X51703583Y29083000D01*
X91363800Y29083000D02*
X91033600Y29083000D01*
X13804900Y28981400D02*
X76200Y28981400D01*
X16576422Y28981400D02*
X15464744Y28981400D01*
X21932900Y28981400D02*
X18842578Y28981400D01*
X50380978Y28981400D02*
X22898100Y28981400D01*
X88988900Y28981400D02*
X51727178Y28981400D01*
X91363800Y28981400D02*
X91033600Y28981400D01*
X13804900Y28879800D02*
X76200Y28879800D01*
X16576422Y28879800D02*
X15428631Y28879800D01*
X21932422Y28879800D02*
X18842578Y28879800D01*
X50380889Y28879800D02*
X22898578Y28879800D01*
X88988900Y28879800D02*
X51727089Y28879800D01*
X91363800Y28879800D02*
X91033600Y28879800D01*
X13804900Y28778200D02*
X76200Y28778200D01*
X16576422Y28778200D02*
X15281056Y28778200D01*
X21932422Y28778200D02*
X18842578Y28778200D01*
X50380800Y28778200D02*
X22898578Y28778200D01*
X88988900Y28778200D02*
X51727000Y28778200D01*
X91363800Y28778200D02*
X91033600Y28778200D01*
X13804900Y28676600D02*
X76200Y28676600D01*
X16576422Y28676600D02*
X15465941Y28676600D01*
X21932422Y28676600D02*
X18842578Y28676600D01*
X50414912Y28676600D02*
X22898578Y28676600D01*
X88988900Y28676600D02*
X51693172Y28676600D01*
X91363800Y28676600D02*
X91033600Y28676600D01*
X13804900Y28575000D02*
X76200Y28575000D01*
X16576422Y28575000D02*
X15716630Y28575000D01*
X21932422Y28575000D02*
X18842578Y28575000D01*
X50456892Y28575000D02*
X22898578Y28575000D01*
X88988900Y28575000D02*
X51650984Y28575000D01*
X91363800Y28575000D02*
X91033600Y28575000D01*
X13804900Y28473400D02*
X76200Y28473400D01*
X16576422Y28473400D02*
X15833600Y28473400D01*
X21932422Y28473400D02*
X18842578Y28473400D01*
X50521291Y28473400D02*
X22898578Y28473400D01*
X88988900Y28473400D02*
X51586906Y28473400D01*
X91363800Y28473400D02*
X91033600Y28473400D01*
X13804900Y28371800D02*
X76200Y28371800D01*
X16576422Y28371800D02*
X15935200Y28371800D01*
X21932422Y28371800D02*
X18842578Y28371800D01*
X50622714Y28371800D02*
X22898578Y28371800D01*
X88988900Y28371800D02*
X51485129Y28371800D01*
X91363800Y28371800D02*
X91033600Y28371800D01*
X13804900Y28270200D02*
X76200Y28270200D01*
X16581558Y28270200D02*
X16036800Y28270200D01*
X21941228Y28270200D02*
X18837049Y28270200D01*
X50797466Y28270200D02*
X22889100Y28270200D01*
X88988900Y28270200D02*
X51310528Y28270200D01*
X91363800Y28270200D02*
X91033600Y28270200D01*
X13804900Y28168600D02*
X76200Y28168600D01*
X16620795Y28168600D02*
X16138400Y28168600D01*
X21989343Y28168600D02*
X18798100Y28168600D01*
X88988900Y28168600D02*
X22840776Y28168600D01*
X91363800Y28168600D02*
X91033600Y28168600D01*
X13804900Y28067000D02*
X76200Y28067000D01*
X16796769Y28067000D02*
X16240000Y28067000D01*
X88988900Y28067000D02*
X18623200Y28067000D01*
X91363800Y28067000D02*
X91033600Y28067000D01*
X13804900Y27965400D02*
X76200Y27965400D01*
X17268191Y27965400D02*
X16341600Y27965400D01*
X88988900Y27965400D02*
X18209009Y27965400D01*
X91363800Y27965400D02*
X91033600Y27965400D01*
X13804900Y27863800D02*
X76200Y27863800D01*
X17216020Y27863800D02*
X16443200Y27863800D01*
X88988900Y27863800D02*
X18260767Y27863800D01*
X91363800Y27863800D02*
X91033600Y27863800D01*
X13804900Y27762200D02*
X76200Y27762200D01*
X17204922Y27762200D02*
X16544800Y27762200D01*
X88988900Y27762200D02*
X18271078Y27762200D01*
X91363800Y27762200D02*
X91033600Y27762200D01*
X13804900Y27660600D02*
X76200Y27660600D01*
X15281400Y27660600D02*
X14770100Y27660600D01*
X17204922Y27660600D02*
X16630091Y27660600D01*
X88988900Y27660600D02*
X18271078Y27660600D01*
X91363800Y27660600D02*
X91033600Y27660600D01*
X13817531Y27559000D02*
X76200Y27559000D01*
X15383000Y27559000D02*
X14757468Y27559000D01*
X17204922Y27559000D02*
X16697978Y27559000D01*
X88988900Y27559000D02*
X18271078Y27559000D01*
X91363800Y27559000D02*
X91033600Y27559000D01*
X13837740Y27457400D02*
X76200Y27457400D01*
X15484600Y27457400D02*
X14737259Y27457400D01*
X17204922Y27457400D02*
X16720917Y27457400D01*
X88988900Y27457400D02*
X18271078Y27457400D01*
X91363800Y27457400D02*
X91033600Y27457400D01*
X13896437Y27355800D02*
X76200Y27355800D01*
X15586200Y27355800D02*
X14678562Y27355800D01*
X17204922Y27355800D02*
X16738600Y27355800D01*
X88988900Y27355800D02*
X18271078Y27355800D01*
X91363800Y27355800D02*
X91033600Y27355800D01*
X13986733Y27254200D02*
X76200Y27254200D01*
X15687800Y27254200D02*
X14588266Y27254200D01*
X17215233Y27254200D02*
X16738600Y27254200D01*
X88988900Y27254200D02*
X18259980Y27254200D01*
X91363800Y27254200D02*
X91033600Y27254200D01*
X14223653Y27152600D02*
X76200Y27152600D01*
X15773400Y27152600D02*
X14351346Y27152600D01*
X17266991Y27152600D02*
X16738600Y27152600D01*
X88988900Y27152600D02*
X18207809Y27152600D01*
X91363800Y27152600D02*
X91033600Y27152600D01*
X15773400Y27051000D02*
X76200Y27051000D01*
X26782157Y27051000D02*
X16738600Y27051000D01*
X88988900Y27051000D02*
X27193206Y27051000D01*
X91363800Y27051000D02*
X91033600Y27051000D01*
X15773400Y26949400D02*
X76200Y26949400D01*
X26559156Y26949400D02*
X16738600Y26949400D01*
X88988900Y26949400D02*
X27416149Y26949400D01*
X91363800Y26949400D02*
X91033600Y26949400D01*
X15773400Y26847800D02*
X76200Y26847800D01*
X26457378Y26847800D02*
X16738600Y26847800D01*
X88988900Y26847800D02*
X27517571Y26847800D01*
X91363800Y26847800D02*
X91033600Y26847800D01*
X15773400Y26746200D02*
X76200Y26746200D01*
X25549843Y26746200D02*
X16738600Y26746200D01*
X26364138Y26746200D02*
X26351679Y26746200D01*
X88988900Y26746200D02*
X27611107Y26746200D01*
X91363800Y26746200D02*
X91033600Y26746200D01*
X15773400Y26644600D02*
X76200Y26644600D01*
X25445480Y26644600D02*
X16738600Y26644600D01*
X88988900Y26644600D02*
X27653087Y26644600D01*
X91363800Y26644600D02*
X91033600Y26644600D01*
X15773400Y26543000D02*
X76200Y26543000D01*
X25417733Y26543000D02*
X16738600Y26543000D01*
X88988900Y26543000D02*
X27695068Y26543000D01*
X91363800Y26543000D02*
X91033600Y26543000D01*
X15773400Y26441400D02*
X76200Y26441400D01*
X25416922Y26441400D02*
X16738600Y26441400D01*
X88988900Y26441400D02*
X27716182Y26441400D01*
X91363800Y26441400D02*
X91033600Y26441400D01*
X15775926Y26339800D02*
X76200Y26339800D01*
X25416922Y26339800D02*
X16736073Y26339800D01*
X88988900Y26339800D02*
X27716093Y26339800D01*
X91363800Y26339800D02*
X91033600Y26339800D01*
X15796135Y26238200D02*
X76200Y26238200D01*
X25416922Y26238200D02*
X16715864Y26238200D01*
X88988900Y26238200D02*
X27716004Y26238200D01*
X91363800Y26238200D02*
X91033600Y26238200D01*
X15830994Y26136600D02*
X76200Y26136600D01*
X25416922Y26136600D02*
X16681005Y26136600D01*
X88988900Y26136600D02*
X27688842Y26136600D01*
X91363800Y26136600D02*
X91033600Y26136600D01*
X15898880Y26035000D02*
X76200Y26035000D01*
X25417674Y26035000D02*
X16613119Y26035000D01*
X88988900Y26035000D02*
X27646655Y26035000D01*
X91363800Y26035000D02*
X91033600Y26035000D01*
X16031261Y25933400D02*
X76200Y25933400D01*
X25446301Y25933400D02*
X16480738Y25933400D01*
X88988900Y25933400D02*
X27603973Y25933400D01*
X91363800Y25933400D02*
X91033600Y25933400D01*
X23668870Y25831800D02*
X76200Y25831800D01*
X25548321Y25831800D02*
X24547353Y25831800D01*
X26472802Y25831800D02*
X26350157Y25831800D01*
X88988900Y25831800D02*
X27502195Y25831800D01*
X91363800Y25831800D02*
X91033600Y25831800D01*
X23591663Y25730200D02*
X76200Y25730200D01*
X26574225Y25730200D02*
X24626488Y25730200D01*
X88988900Y25730200D02*
X27400417Y25730200D01*
X91363800Y25730200D02*
X91033600Y25730200D01*
X23575422Y25628600D02*
X76200Y25628600D01*
X26818882Y25628600D02*
X24641578Y25628600D01*
X88988900Y25628600D02*
X27155572Y25628600D01*
X91363800Y25628600D02*
X91033600Y25628600D01*
X23575422Y25527000D02*
X76200Y25527000D01*
X88988900Y25527000D02*
X24641578Y25527000D01*
X91363800Y25527000D02*
X91033600Y25527000D01*
X23575422Y25425400D02*
X76200Y25425400D01*
X88988900Y25425400D02*
X24641578Y25425400D01*
X91363800Y25425400D02*
X91033600Y25425400D01*
X23575422Y25323800D02*
X76200Y25323800D01*
X88988900Y25323800D02*
X24641578Y25323800D01*
X91363800Y25323800D02*
X91033600Y25323800D01*
X23575422Y25222200D02*
X76200Y25222200D01*
X88988900Y25222200D02*
X24641578Y25222200D01*
X91363800Y25222200D02*
X91033600Y25222200D01*
X23580953Y25120600D02*
X76200Y25120600D01*
X26708584Y25120600D02*
X24635624Y25120600D01*
X88988900Y25120600D02*
X27266417Y25120600D01*
X91363800Y25120600D02*
X91033600Y25120600D01*
X23621146Y25019000D02*
X76200Y25019000D01*
X26528703Y25019000D02*
X24595665Y25019000D01*
X88988900Y25019000D02*
X27446495Y25019000D01*
X91363800Y25019000D02*
X91033600Y25019000D01*
X23614215Y24917400D02*
X76200Y24917400D01*
X25480191Y24917400D02*
X24591100Y24917400D01*
X26426925Y24917400D02*
X26421010Y24917400D01*
X88988900Y24917400D02*
X27547918Y24917400D01*
X91363800Y24917400D02*
X91033600Y24917400D01*
X23594005Y24815800D02*
X76200Y24815800D01*
X25428020Y24815800D02*
X24591100Y24815800D01*
X88988900Y24815800D02*
X27623668Y24815800D01*
X91363800Y24815800D02*
X91033600Y24815800D01*
X23594004Y24714200D02*
X76200Y24714200D01*
X25416922Y24714200D02*
X24572640Y24714200D01*
X88988900Y24714200D02*
X27665648Y24714200D01*
X91363800Y24714200D02*
X91033600Y24714200D01*
X23614214Y24612600D02*
X76200Y24612600D01*
X25416922Y24612600D02*
X24547871Y24612600D01*
X88988900Y24612600D02*
X27707629Y24612600D01*
X91363800Y24612600D02*
X91033600Y24612600D01*
X23666951Y24511000D02*
X76200Y24511000D01*
X25416922Y24511000D02*
X24479984Y24511000D01*
X88988900Y24511000D02*
X27716155Y24511000D01*
X91363800Y24511000D02*
X91033600Y24511000D01*
X23746726Y24409400D02*
X76200Y24409400D01*
X25416922Y24409400D02*
X24386273Y24409400D01*
X88988900Y24409400D02*
X27716066Y24409400D01*
X91363800Y24409400D02*
X91033600Y24409400D01*
X23938806Y24307800D02*
X76200Y24307800D01*
X25416922Y24307800D02*
X24194193Y24307800D01*
X88988900Y24307800D02*
X27715978Y24307800D01*
X91363800Y24307800D02*
X91033600Y24307800D01*
X25427233Y24206200D02*
X76200Y24206200D01*
X88988900Y24206200D02*
X27676219Y24206200D01*
X91363800Y24206200D02*
X91033600Y24206200D01*
X25478991Y24104600D02*
X76200Y24104600D01*
X88988900Y24104600D02*
X27634032Y24104600D01*
X91363800Y24104600D02*
X91033600Y24104600D01*
X26401727Y24003000D02*
X76200Y24003000D01*
X88988900Y24003000D02*
X27573520Y24003000D01*
X91363800Y24003000D02*
X91033600Y24003000D01*
X26503149Y23901400D02*
X76200Y23901400D01*
X88988900Y23901400D02*
X27471742Y23901400D01*
X91363800Y23901400D02*
X91033600Y23901400D01*
X26647412Y23799800D02*
X76200Y23799800D01*
X88988900Y23799800D02*
X27327889Y23799800D01*
X91363800Y23799800D02*
X91033600Y23799800D01*
X88988900Y23698200D02*
X76200Y23698200D01*
X91363800Y23698200D02*
X91033600Y23698200D01*
X88988900Y23596600D02*
X76200Y23596600D01*
X91363800Y23596600D02*
X91033600Y23596600D01*
X6168607Y23495000D02*
X76200Y23495000D01*
X88988900Y23495000D02*
X6277185Y23495000D01*
X91363800Y23495000D02*
X91033600Y23495000D01*
X5680886Y23393400D02*
X76200Y23393400D01*
X22097654Y23393400D02*
X6646966Y23393400D01*
X88988900Y23393400D02*
X22225347Y23393400D01*
X91363800Y23393400D02*
X91033600Y23393400D01*
X5655184Y23291800D02*
X76200Y23291800D01*
X21860734Y23291800D02*
X6674817Y23291800D01*
X88988900Y23291800D02*
X22462267Y23291800D01*
X91363800Y23291800D02*
X91033600Y23291800D01*
X5643247Y23190200D02*
X76200Y23190200D01*
X21770438Y23190200D02*
X6686753Y23190200D01*
X88988900Y23190200D02*
X22577300Y23190200D01*
X91363800Y23190200D02*
X91033600Y23190200D01*
X5744847Y23088600D02*
X76200Y23088600D01*
X21668612Y23088600D02*
X6585153Y23088600D01*
X88988900Y23088600D02*
X23289681Y23088600D01*
X91363800Y23088600D02*
X91033600Y23088600D01*
X5846447Y22987000D02*
X76200Y22987000D01*
X21627403Y22987000D02*
X6483553Y22987000D01*
X88988900Y22987000D02*
X23331057Y22987000D01*
X91363800Y22987000D02*
X91033600Y22987000D01*
X5184873Y22885400D02*
X76200Y22885400D01*
X5948047Y22885400D02*
X5445153Y22885400D01*
X6884847Y22885400D02*
X6381953Y22885400D01*
X21620922Y22885400D02*
X7147910Y22885400D01*
X88988900Y22885400D02*
X23337078Y22885400D01*
X91363800Y22885400D02*
X91033600Y22885400D01*
X5156958Y22783800D02*
X76200Y22783800D01*
X6049647Y22783800D02*
X5546753Y22783800D01*
X6783247Y22783800D02*
X6280353Y22783800D01*
X21620922Y22783800D02*
X7189994Y22783800D01*
X88988900Y22783800D02*
X23337078Y22783800D01*
X91363800Y22783800D02*
X91033600Y22783800D01*
X5129043Y22682200D02*
X76200Y22682200D01*
X6151247Y22682200D02*
X5648353Y22682200D01*
X6681647Y22682200D02*
X6178753Y22682200D01*
X21620922Y22682200D02*
X7209344Y22682200D01*
X88988900Y22682200D02*
X23985387Y22682200D01*
X91363800Y22682200D02*
X91033600Y22682200D01*
X5101127Y22580600D02*
X76200Y22580600D01*
X6580047Y22580600D02*
X5749953Y22580600D01*
X21620922Y22580600D02*
X7222065Y22580600D01*
X88988900Y22580600D02*
X24080847Y22580600D01*
X91363800Y22580600D02*
X91033600Y22580600D01*
X5079688Y22479000D02*
X76200Y22479000D01*
X6478447Y22479000D02*
X5851553Y22479000D01*
X21620922Y22479000D02*
X7234786Y22479000D01*
X88988900Y22479000D02*
X24105078Y22479000D01*
X91363800Y22479000D02*
X91033600Y22479000D01*
X5092409Y22377400D02*
X76200Y22377400D01*
X6456047Y22377400D02*
X5873953Y22377400D01*
X21620922Y22377400D02*
X7247507Y22377400D01*
X88988900Y22377400D02*
X24105078Y22377400D01*
X91363800Y22377400D02*
X91033600Y22377400D01*
X5105130Y22275800D02*
X76200Y22275800D01*
X6557647Y22275800D02*
X5772353Y22275800D01*
X21620922Y22275800D02*
X7235027Y22275800D01*
X88988900Y22275800D02*
X24105078Y22275800D01*
X91363800Y22275800D02*
X91033600Y22275800D01*
X5117851Y22174200D02*
X76200Y22174200D01*
X6659247Y22174200D02*
X5670753Y22174200D01*
X21620922Y22174200D02*
X7207112Y22174200D01*
X88988900Y22174200D02*
X24164800Y22174200D01*
X91363800Y22174200D02*
X91033600Y22174200D01*
X5130727Y22072600D02*
X76200Y22072600D01*
X6072047Y22072600D02*
X5569153Y22072600D01*
X6760847Y22072600D02*
X6257953Y22072600D01*
X21620922Y22072600D02*
X7179197Y22072600D01*
X88988900Y22072600D02*
X24266400Y22072600D01*
X91363800Y22072600D02*
X91033600Y22072600D01*
X5172812Y21971000D02*
X76200Y21971000D01*
X5970447Y21971000D02*
X5467553Y21971000D01*
X6862447Y21971000D02*
X6359553Y21971000D01*
X21620922Y21971000D02*
X7151281Y21971000D01*
X50836556Y21971000D02*
X24368000Y21971000D01*
X88988900Y21971000D02*
X51271747Y21971000D01*
X91363800Y21971000D02*
X91033600Y21971000D01*
X5868847Y21869400D02*
X76200Y21869400D01*
X21620922Y21869400D02*
X6461153Y21869400D01*
X50620647Y21869400D02*
X24469600Y21869400D01*
X88988900Y21869400D02*
X51487640Y21869400D01*
X91363800Y21869400D02*
X91033600Y21869400D01*
X5767247Y21767800D02*
X76200Y21767800D01*
X21620922Y21767800D02*
X6562753Y21767800D01*
X50518869Y21767800D02*
X24571200Y21767800D01*
X88988900Y21767800D02*
X51589062Y21767800D01*
X91363800Y21767800D02*
X91033600Y21767800D01*
X5665647Y21666200D02*
X76200Y21666200D01*
X21620922Y21666200D02*
X6664353Y21666200D01*
X50428562Y21666200D02*
X24672800Y21666200D01*
X88988900Y21666200D02*
X51679673Y21666200D01*
X91363800Y21666200D02*
X91033600Y21666200D01*
X5650367Y21564600D02*
X76200Y21564600D01*
X21620922Y21564600D02*
X6679632Y21564600D01*
X23409400Y21564600D02*
X23337078Y21564600D01*
X50386375Y21564600D02*
X24774400Y21564600D01*
X88988900Y21564600D02*
X51721653Y21564600D01*
X91363800Y21564600D02*
X91033600Y21564600D01*
X5672211Y21463000D02*
X76200Y21463000D01*
X21620922Y21463000D02*
X6657788Y21463000D01*
X23511000Y21463000D02*
X23337078Y21463000D01*
X50344187Y21463000D02*
X24876000Y21463000D01*
X88988900Y21463000D02*
X51763634Y21463000D01*
X91363800Y21463000D02*
X91033600Y21463000D01*
X5971288Y21361400D02*
X76200Y21361400D01*
X21642580Y21361400D02*
X6340296Y21361400D01*
X23612600Y21361400D02*
X23316719Y21361400D01*
X50325478Y21361400D02*
X24977600Y21361400D01*
X88988900Y21361400D02*
X51782677Y21361400D01*
X91363800Y21361400D02*
X91033600Y21361400D01*
X21734759Y21259800D02*
X76200Y21259800D01*
X23714200Y21259800D02*
X23222806Y21259800D01*
X50325389Y21259800D02*
X25079200Y21259800D01*
X88988900Y21259800D02*
X51782588Y21259800D01*
X91363800Y21259800D02*
X91033600Y21259800D01*
X17454443Y21158200D02*
X76200Y21158200D01*
X50325301Y21158200D02*
X25180800Y21158200D01*
X88988900Y21158200D02*
X51782500Y21158200D01*
X91363800Y21158200D02*
X91033600Y21158200D01*
X17342713Y21056600D02*
X76200Y21056600D01*
X50354861Y21056600D02*
X25282400Y21056600D01*
X88988900Y21056600D02*
X51753266Y21056600D01*
X91363800Y21056600D02*
X91033600Y21056600D01*
X17293195Y20955000D02*
X76200Y20955000D01*
X50396842Y20955000D02*
X25355049Y20955000D01*
X88988900Y20955000D02*
X51711078Y20955000D01*
X91363800Y20955000D02*
X91033600Y20955000D01*
X17272023Y20853400D02*
X76200Y20853400D01*
X50442871Y20853400D02*
X25407786Y20853400D01*
X88988900Y20853400D02*
X51665464Y20853400D01*
X91363800Y20853400D02*
X91033600Y20853400D01*
X17272242Y20751800D02*
X76200Y20751800D01*
X50544294Y20751800D02*
X25427996Y20751800D01*
X88988900Y20751800D02*
X51563686Y20751800D01*
X91363800Y20751800D02*
X91033600Y20751800D01*
X17314223Y20650200D02*
X76200Y20650200D01*
X50652742Y20650200D02*
X25438100Y20650200D01*
X88988900Y20650200D02*
X51455861Y20650200D01*
X91363800Y20650200D02*
X91033600Y20650200D01*
X17393567Y20548600D02*
X76200Y20548600D01*
X50897423Y20548600D02*
X25438100Y20548600D01*
X88988900Y20548600D02*
X51209971Y20548600D01*
X91363800Y20548600D02*
X91033600Y20548600D01*
X17653237Y20447000D02*
X76200Y20447000D01*
X21620922Y20447000D02*
X17728612Y20447000D01*
X88988900Y20447000D02*
X25438100Y20447000D01*
X91363800Y20447000D02*
X91033600Y20447000D01*
X21620922Y20345400D02*
X76200Y20345400D01*
X88988900Y20345400D02*
X25438100Y20345400D01*
X91363800Y20345400D02*
X91033600Y20345400D01*
X21257269Y20243800D02*
X76200Y20243800D01*
X88988900Y20243800D02*
X25438100Y20243800D01*
X91363800Y20243800D02*
X91033600Y20243800D01*
X21114367Y20142200D02*
X76200Y20142200D01*
X88988900Y20142200D02*
X25438100Y20142200D01*
X91363800Y20142200D02*
X91033600Y20142200D01*
X21046481Y20040600D02*
X76200Y20040600D01*
X88988900Y20040600D02*
X25438100Y20040600D01*
X91363800Y20040600D02*
X91033600Y20040600D01*
X21005663Y19939000D02*
X76200Y19939000D01*
X88988900Y19939000D02*
X25438100Y19939000D01*
X91363800Y19939000D02*
X91033600Y19939000D01*
X20985453Y19837400D02*
X76200Y19837400D01*
X88988900Y19837400D02*
X25438100Y19837400D01*
X91363800Y19837400D02*
X91033600Y19837400D01*
X20995557Y19735800D02*
X76200Y19735800D01*
X88988900Y19735800D02*
X25438100Y19735800D01*
X91363800Y19735800D02*
X91033600Y19735800D01*
X21015766Y19634200D02*
X76200Y19634200D01*
X88988900Y19634200D02*
X25438100Y19634200D01*
X91363800Y19634200D02*
X91033600Y19634200D01*
X21080423Y19532600D02*
X76200Y19532600D01*
X88988900Y19532600D02*
X25438100Y19532600D01*
X91363800Y19532600D02*
X91033600Y19532600D01*
X21161500Y19431000D02*
X76200Y19431000D01*
X50836556Y19431000D02*
X25438100Y19431000D01*
X88988900Y19431000D02*
X51271747Y19431000D01*
X91363800Y19431000D02*
X91033600Y19431000D01*
X21280158Y19329400D02*
X76200Y19329400D01*
X50620647Y19329400D02*
X25438100Y19329400D01*
X88988900Y19329400D02*
X51487640Y19329400D01*
X91363800Y19329400D02*
X91033600Y19329400D01*
X21542852Y19227800D02*
X76200Y19227800D01*
X50518869Y19227800D02*
X25422943Y19227800D01*
X88988900Y19227800D02*
X51589062Y19227800D01*
X91363800Y19227800D02*
X91033600Y19227800D01*
X21620922Y19126200D02*
X76200Y19126200D01*
X50428562Y19126200D02*
X25402733Y19126200D01*
X88988900Y19126200D02*
X51679673Y19126200D01*
X91363800Y19126200D02*
X91033600Y19126200D01*
X21620922Y19024600D02*
X76200Y19024600D01*
X50386375Y19024600D02*
X25338076Y19024600D01*
X88988900Y19024600D02*
X51721653Y19024600D01*
X91363800Y19024600D02*
X91033600Y19024600D01*
X5528276Y18923000D02*
X76200Y18923000D01*
X50344187Y18923000D02*
X25257000Y18923000D01*
X88988900Y18923000D02*
X51763634Y18923000D01*
X91363800Y18923000D02*
X91033600Y18923000D01*
X5376220Y18821400D02*
X76200Y18821400D01*
X50325478Y18821400D02*
X25155400Y18821400D01*
X88988900Y18821400D02*
X51782677Y18821400D01*
X91363800Y18821400D02*
X91033600Y18821400D01*
X5273800Y18719800D02*
X76200Y18719800D01*
X50325389Y18719800D02*
X25053800Y18719800D01*
X88988900Y18719800D02*
X51782588Y18719800D01*
X91363800Y18719800D02*
X91033600Y18719800D01*
X5172200Y18618200D02*
X76200Y18618200D01*
X50325301Y18618200D02*
X24952200Y18618200D01*
X88988900Y18618200D02*
X51782500Y18618200D01*
X91363800Y18618200D02*
X91033600Y18618200D01*
X5070600Y18516600D02*
X76200Y18516600D01*
X50354861Y18516600D02*
X24850600Y18516600D01*
X88988900Y18516600D02*
X51753266Y18516600D01*
X91363800Y18516600D02*
X91033600Y18516600D01*
X4969000Y18415000D02*
X76200Y18415000D01*
X50396842Y18415000D02*
X24749000Y18415000D01*
X88988900Y18415000D02*
X51711078Y18415000D01*
X91363800Y18415000D02*
X91033600Y18415000D01*
X4867400Y18313400D02*
X76200Y18313400D01*
X50442871Y18313400D02*
X24647400Y18313400D01*
X88988900Y18313400D02*
X51665464Y18313400D01*
X91363800Y18313400D02*
X91033600Y18313400D01*
X4765800Y18211800D02*
X76200Y18211800D01*
X50544294Y18211800D02*
X24545800Y18211800D01*
X88988900Y18211800D02*
X51563686Y18211800D01*
X91363800Y18211800D02*
X91033600Y18211800D01*
X4664200Y18110200D02*
X76200Y18110200D01*
X50652742Y18110200D02*
X24444200Y18110200D01*
X65950501Y18110200D02*
X51455861Y18110200D01*
X67957101Y18110200D02*
X66560946Y18110200D01*
X69963701Y18110200D02*
X68567546Y18110200D01*
X71970301Y18110200D02*
X70574146Y18110200D01*
X73976901Y18110200D02*
X72580746Y18110200D01*
X75983501Y18110200D02*
X74587346Y18110200D01*
X77990101Y18110200D02*
X76593946Y18110200D01*
X79996701Y18110200D02*
X78600546Y18110200D01*
X82003301Y18110200D02*
X80607146Y18110200D01*
X84009901Y18110200D02*
X82613746Y18110200D01*
X88988900Y18110200D02*
X84620346Y18110200D01*
X91363800Y18110200D02*
X91033600Y18110200D01*
X4562600Y18008600D02*
X76200Y18008600D01*
X50897423Y18008600D02*
X24342600Y18008600D01*
X65825596Y18008600D02*
X51209971Y18008600D01*
X67832196Y18008600D02*
X66686207Y18008600D01*
X69838796Y18008600D02*
X68692807Y18008600D01*
X71845396Y18008600D02*
X70699407Y18008600D01*
X73851996Y18008600D02*
X72706007Y18008600D01*
X75858596Y18008600D02*
X74712607Y18008600D01*
X77865196Y18008600D02*
X76719207Y18008600D01*
X79871796Y18008600D02*
X78725807Y18008600D01*
X81878396Y18008600D02*
X80732407Y18008600D01*
X83884996Y18008600D02*
X82739007Y18008600D01*
X88988900Y18008600D02*
X84745607Y18008600D01*
X91363800Y18008600D02*
X91033600Y18008600D01*
X4461000Y17907000D02*
X76200Y17907000D01*
X7001001Y17907000D02*
X5826000Y17907000D01*
X65732946Y17907000D02*
X24241000Y17907000D01*
X67739546Y17907000D02*
X66779053Y17907000D01*
X69746146Y17907000D02*
X68785653Y17907000D01*
X71752746Y17907000D02*
X70792253Y17907000D01*
X73759346Y17907000D02*
X72798853Y17907000D01*
X75765946Y17907000D02*
X74805453Y17907000D01*
X77772546Y17907000D02*
X76812053Y17907000D01*
X79779146Y17907000D02*
X78818653Y17907000D01*
X81785746Y17907000D02*
X80825253Y17907000D01*
X83792346Y17907000D02*
X82831853Y17907000D01*
X88988900Y17907000D02*
X84838453Y17907000D01*
X91363800Y17907000D02*
X91033600Y17907000D01*
X4359400Y17805400D02*
X76200Y17805400D01*
X6899401Y17805400D02*
X5724400Y17805400D01*
X65690758Y17805400D02*
X24139400Y17805400D01*
X67697358Y17805400D02*
X66821033Y17805400D01*
X69703958Y17805400D02*
X68827633Y17805400D01*
X71710558Y17805400D02*
X70834233Y17805400D01*
X73717158Y17805400D02*
X72840833Y17805400D01*
X75723758Y17805400D02*
X74847433Y17805400D01*
X77730358Y17805400D02*
X76854033Y17805400D01*
X79736958Y17805400D02*
X78860633Y17805400D01*
X81743558Y17805400D02*
X80867233Y17805400D01*
X83750158Y17805400D02*
X82873833Y17805400D01*
X88988900Y17805400D02*
X84880433Y17805400D01*
X91363800Y17805400D02*
X91033600Y17805400D01*
X4257800Y17703800D02*
X76200Y17703800D01*
X6797801Y17703800D02*
X5622800Y17703800D01*
X65648570Y17703800D02*
X24037800Y17703800D01*
X67655170Y17703800D02*
X66863014Y17703800D01*
X69661770Y17703800D02*
X68869614Y17703800D01*
X71668370Y17703800D02*
X70876214Y17703800D01*
X73674970Y17703800D02*
X72882814Y17703800D01*
X75681570Y17703800D02*
X74889414Y17703800D01*
X77688170Y17703800D02*
X76896014Y17703800D01*
X79694770Y17703800D02*
X78902614Y17703800D01*
X81701370Y17703800D02*
X80909214Y17703800D01*
X83707970Y17703800D02*
X82915814Y17703800D01*
X88988900Y17703800D02*
X84922414Y17703800D01*
X91363800Y17703800D02*
X91033600Y17703800D01*
X4156200Y17602200D02*
X76200Y17602200D01*
X6696201Y17602200D02*
X5521200Y17602200D01*
X65646322Y17602200D02*
X23936200Y17602200D01*
X67652922Y17602200D02*
X66865522Y17602200D01*
X69659522Y17602200D02*
X68872122Y17602200D01*
X71666122Y17602200D02*
X70878722Y17602200D01*
X73672722Y17602200D02*
X72885322Y17602200D01*
X75679322Y17602200D02*
X74891922Y17602200D01*
X77685922Y17602200D02*
X76898522Y17602200D01*
X79692522Y17602200D02*
X78905122Y17602200D01*
X81699122Y17602200D02*
X80911722Y17602200D01*
X83705722Y17602200D02*
X82918322Y17602200D01*
X88988900Y17602200D02*
X84924922Y17602200D01*
X91363800Y17602200D02*
X91033600Y17602200D01*
X4054600Y17500600D02*
X76200Y17500600D01*
X6594601Y17500600D02*
X5419600Y17500600D01*
X65646233Y17500600D02*
X23833781Y17500600D01*
X67652833Y17500600D02*
X66865433Y17500600D01*
X69659433Y17500600D02*
X68872033Y17500600D01*
X71666033Y17500600D02*
X70878633Y17500600D01*
X73672633Y17500600D02*
X72885233Y17500600D01*
X75679233Y17500600D02*
X74891833Y17500600D01*
X77685833Y17500600D02*
X76898433Y17500600D01*
X79692433Y17500600D02*
X78905033Y17500600D01*
X81699033Y17500600D02*
X80911633Y17500600D01*
X83705633Y17500600D02*
X82918233Y17500600D01*
X88988900Y17500600D02*
X84924833Y17500600D01*
X91363800Y17500600D02*
X91033600Y17500600D01*
X3953000Y17399000D02*
X76200Y17399000D01*
X6493001Y17399000D02*
X5318000Y17399000D01*
X65669776Y17399000D02*
X23681725Y17399000D01*
X67676376Y17399000D02*
X66842136Y17399000D01*
X69682976Y17399000D02*
X68848736Y17399000D01*
X71689576Y17399000D02*
X70855336Y17399000D01*
X73696176Y17399000D02*
X72861936Y17399000D01*
X75702776Y17399000D02*
X74868536Y17399000D01*
X77709376Y17399000D02*
X76875136Y17399000D01*
X79715976Y17399000D02*
X78881736Y17399000D01*
X81722576Y17399000D02*
X80888336Y17399000D01*
X83729176Y17399000D02*
X82894936Y17399000D01*
X88988900Y17399000D02*
X84901536Y17399000D01*
X91363800Y17399000D02*
X91033600Y17399000D01*
X3851400Y17297400D02*
X76200Y17297400D01*
X6391401Y17297400D02*
X5216400Y17297400D01*
X65711757Y17297400D02*
X7756399Y17297400D01*
X67718357Y17297400D02*
X66799948Y17297400D01*
X69724957Y17297400D02*
X68806548Y17297400D01*
X71731557Y17297400D02*
X70813148Y17297400D01*
X73738157Y17297400D02*
X72819748Y17297400D01*
X75744757Y17297400D02*
X74826348Y17297400D01*
X77751357Y17297400D02*
X76832948Y17297400D01*
X79757957Y17297400D02*
X78839548Y17297400D01*
X81764557Y17297400D02*
X80846148Y17297400D01*
X83771157Y17297400D02*
X82852748Y17297400D01*
X88988900Y17297400D02*
X84859348Y17297400D01*
X91363800Y17297400D02*
X91033600Y17297400D01*
X3749800Y17195800D02*
X76200Y17195800D01*
X6289801Y17195800D02*
X5114800Y17195800D01*
X65774881Y17195800D02*
X7654799Y17195800D01*
X67781481Y17195800D02*
X66737093Y17195800D01*
X69788081Y17195800D02*
X68743693Y17195800D01*
X71794681Y17195800D02*
X70750293Y17195800D01*
X73801281Y17195800D02*
X72756893Y17195800D01*
X75807881Y17195800D02*
X74763493Y17195800D01*
X77814481Y17195800D02*
X76770093Y17195800D01*
X79821081Y17195800D02*
X78776693Y17195800D01*
X81827681Y17195800D02*
X80783293Y17195800D01*
X83834281Y17195800D02*
X82789893Y17195800D01*
X88988900Y17195800D02*
X84796493Y17195800D01*
X91363800Y17195800D02*
X91033600Y17195800D01*
X3648200Y17094200D02*
X76200Y17094200D01*
X6188201Y17094200D02*
X5013200Y17094200D01*
X65876304Y17094200D02*
X7553199Y17094200D01*
X67882904Y17094200D02*
X66635315Y17094200D01*
X69889504Y17094200D02*
X68641915Y17094200D01*
X71896104Y17094200D02*
X70648515Y17094200D01*
X73902704Y17094200D02*
X72655115Y17094200D01*
X75909304Y17094200D02*
X74661715Y17094200D01*
X77915904Y17094200D02*
X76668315Y17094200D01*
X79922504Y17094200D02*
X78674915Y17094200D01*
X81929104Y17094200D02*
X80681515Y17094200D01*
X83935704Y17094200D02*
X82688115Y17094200D01*
X88988900Y17094200D02*
X84694715Y17094200D01*
X91363800Y17094200D02*
X91033600Y17094200D01*
X3546600Y16992600D02*
X76200Y16992600D01*
X6086601Y16992600D02*
X4911600Y16992600D01*
X66073195Y16992600D02*
X7451599Y16992600D01*
X68079795Y16992600D02*
X66438354Y16992600D01*
X70086395Y16992600D02*
X68444954Y16992600D01*
X72092995Y16992600D02*
X70451554Y16992600D01*
X74099595Y16992600D02*
X72458154Y16992600D01*
X76106195Y16992600D02*
X74464754Y16992600D01*
X78112795Y16992600D02*
X76471354Y16992600D01*
X80119395Y16992600D02*
X78477954Y16992600D01*
X82125995Y16992600D02*
X80484554Y16992600D01*
X84132595Y16992600D02*
X82491154Y16992600D01*
X88988900Y16992600D02*
X84497754Y16992600D01*
X91363800Y16992600D02*
X91033600Y16992600D01*
X3445000Y16891000D02*
X76200Y16891000D01*
X5985001Y16891000D02*
X4810000Y16891000D01*
X88988900Y16891000D02*
X7349999Y16891000D01*
X91363800Y16891000D02*
X91033600Y16891000D01*
X3343400Y16789400D02*
X76200Y16789400D01*
X5883401Y16789400D02*
X4708400Y16789400D01*
X88988900Y16789400D02*
X7248399Y16789400D01*
X91363800Y16789400D02*
X91033600Y16789400D01*
X3241800Y16687800D02*
X76200Y16687800D01*
X5781801Y16687800D02*
X4606800Y16687800D01*
X88988900Y16687800D02*
X7146799Y16687800D01*
X91363800Y16687800D02*
X91033600Y16687800D01*
X3140200Y16586200D02*
X76200Y16586200D01*
X5680201Y16586200D02*
X4505200Y16586200D01*
X88988900Y16586200D02*
X7045199Y16586200D01*
X91363800Y16586200D02*
X91033600Y16586200D01*
X3038600Y16484600D02*
X76200Y16484600D01*
X5578601Y16484600D02*
X4403600Y16484600D01*
X88988900Y16484600D02*
X6943599Y16484600D01*
X91363800Y16484600D02*
X91033600Y16484600D01*
X2937000Y16383000D02*
X76200Y16383000D01*
X5477001Y16383000D02*
X4302000Y16383000D01*
X88988900Y16383000D02*
X6841999Y16383000D01*
X91363800Y16383000D02*
X91033600Y16383000D01*
X2835400Y16281400D02*
X76200Y16281400D01*
X5375401Y16281400D02*
X4200400Y16281400D01*
X88988900Y16281400D02*
X6740399Y16281400D01*
X91363800Y16281400D02*
X91033600Y16281400D01*
X2733800Y16179800D02*
X76200Y16179800D01*
X5273801Y16179800D02*
X4098800Y16179800D01*
X88988900Y16179800D02*
X6638799Y16179800D01*
X91363800Y16179800D02*
X91033600Y16179800D01*
X2632200Y16078200D02*
X76200Y16078200D01*
X5172201Y16078200D02*
X3997200Y16078200D01*
X88988900Y16078200D02*
X6537199Y16078200D01*
X91363800Y16078200D02*
X91033600Y16078200D01*
X2530600Y15976600D02*
X76200Y15976600D01*
X5070601Y15976600D02*
X3895600Y15976600D01*
X88988900Y15976600D02*
X6435599Y15976600D01*
X91363800Y15976600D02*
X91033600Y15976600D01*
X2429000Y15875000D02*
X76200Y15875000D01*
X4969001Y15875000D02*
X3794000Y15875000D01*
X88988900Y15875000D02*
X6333999Y15875000D01*
X91363800Y15875000D02*
X91033600Y15875000D01*
X2327400Y15773400D02*
X76200Y15773400D01*
X4867401Y15773400D02*
X3692400Y15773400D01*
X88988900Y15773400D02*
X6232399Y15773400D01*
X91363800Y15773400D02*
X91033600Y15773400D01*
X2225800Y15671800D02*
X76200Y15671800D01*
X4765801Y15671800D02*
X3590800Y15671800D01*
X88988900Y15671800D02*
X6130799Y15671800D01*
X91363800Y15671800D02*
X91033600Y15671800D01*
X2124200Y15570200D02*
X76200Y15570200D01*
X4664201Y15570200D02*
X3489200Y15570200D01*
X88988900Y15570200D02*
X6029199Y15570200D01*
X91363800Y15570200D02*
X91033600Y15570200D01*
X2022600Y15468600D02*
X76200Y15468600D01*
X4562601Y15468600D02*
X3387600Y15468600D01*
X88988900Y15468600D02*
X5927599Y15468600D01*
X91363800Y15468600D02*
X91033600Y15468600D01*
X1921000Y15367000D02*
X76200Y15367000D01*
X4461001Y15367000D02*
X3286000Y15367000D01*
X88988900Y15367000D02*
X5825999Y15367000D01*
X91363800Y15367000D02*
X91033600Y15367000D01*
X1819400Y15265400D02*
X76200Y15265400D01*
X4359401Y15265400D02*
X3184400Y15265400D01*
X88988900Y15265400D02*
X5724399Y15265400D01*
X91363800Y15265400D02*
X91033600Y15265400D01*
X1717800Y15163800D02*
X76200Y15163800D01*
X4257801Y15163800D02*
X3082800Y15163800D01*
X88988900Y15163800D02*
X5622799Y15163800D01*
X91363800Y15163800D02*
X91033600Y15163800D01*
X1616200Y15062200D02*
X76200Y15062200D01*
X4156201Y15062200D02*
X2981200Y15062200D01*
X88988900Y15062200D02*
X5521199Y15062200D01*
X91363800Y15062200D02*
X91033600Y15062200D01*
X1245084Y14960600D02*
X76200Y14960600D01*
X3930416Y14960600D02*
X2879600Y14960600D01*
X11550416Y14960600D02*
X5419599Y14960600D01*
X14090416Y14960600D02*
X11684587Y14960600D01*
X19170416Y14960600D02*
X14224587Y14960600D01*
X33140416Y14960600D02*
X19304587Y14960600D01*
X35680416Y14960600D02*
X33274587Y14960600D01*
X38220416Y14960600D02*
X35814587Y14960600D01*
X40760416Y14960600D02*
X38354587Y14960600D01*
X43300416Y14960600D02*
X40894587Y14960600D01*
X45840416Y14960600D02*
X43434587Y14960600D01*
X48380416Y14960600D02*
X45974587Y14960600D01*
X50920416Y14960600D02*
X48514587Y14960600D01*
X88988900Y14960600D02*
X51054587Y14960600D01*
X91363800Y14960600D02*
X91033600Y14960600D01*
X1065203Y14859000D02*
X76200Y14859000D01*
X3684527Y14859000D02*
X2778000Y14859000D01*
X11304527Y14859000D02*
X5317999Y14859000D01*
X13844527Y14859000D02*
X12062874Y14859000D01*
X18924527Y14859000D02*
X14602874Y14859000D01*
X32894527Y14859000D02*
X19682874Y14859000D01*
X35434527Y14859000D02*
X33652874Y14859000D01*
X37974527Y14859000D02*
X36192874Y14859000D01*
X40514527Y14859000D02*
X38732874Y14859000D01*
X43054527Y14859000D02*
X41272874Y14859000D01*
X45594527Y14859000D02*
X43812874Y14859000D01*
X48134527Y14859000D02*
X46352874Y14859000D01*
X50674527Y14859000D02*
X48892874Y14859000D01*
X88988900Y14859000D02*
X51432874Y14859000D01*
X91363800Y14859000D02*
X91033600Y14859000D01*
X963425Y14757400D02*
X76200Y14757400D01*
X3581982Y14757400D02*
X2676400Y14757400D01*
X11201982Y14757400D02*
X5216399Y14757400D01*
X13741982Y14757400D02*
X12165998Y14757400D01*
X18821982Y14757400D02*
X14705998Y14757400D01*
X32791982Y14757400D02*
X19785998Y14757400D01*
X35331982Y14757400D02*
X33755998Y14757400D01*
X37871982Y14757400D02*
X36295998Y14757400D01*
X40411982Y14757400D02*
X38835998Y14757400D01*
X42951982Y14757400D02*
X41375998Y14757400D01*
X45491982Y14757400D02*
X43915998Y14757400D01*
X48031982Y14757400D02*
X46455998Y14757400D01*
X50571982Y14757400D02*
X48995998Y14757400D01*
X88988900Y14757400D02*
X51535998Y14757400D01*
X91363800Y14757400D02*
X91033600Y14757400D01*
X888015Y14655800D02*
X76200Y14655800D01*
X3488110Y14655800D02*
X2574800Y14655800D01*
X11108110Y14655800D02*
X5114799Y14655800D01*
X13648110Y14655800D02*
X12260117Y14655800D01*
X18728110Y14655800D02*
X14800117Y14655800D01*
X32698110Y14655800D02*
X19880117Y14655800D01*
X35238110Y14655800D02*
X33850117Y14655800D01*
X37778110Y14655800D02*
X36390117Y14655800D01*
X40318110Y14655800D02*
X38930117Y14655800D01*
X42858110Y14655800D02*
X41470117Y14655800D01*
X45398110Y14655800D02*
X44010117Y14655800D01*
X47938110Y14655800D02*
X46550117Y14655800D01*
X50478110Y14655800D02*
X49090117Y14655800D01*
X88988900Y14655800D02*
X51630117Y14655800D01*
X91363800Y14655800D02*
X91033600Y14655800D01*
X845828Y14554200D02*
X76200Y14554200D01*
X3445922Y14554200D02*
X2473200Y14554200D01*
X11065922Y14554200D02*
X5013199Y14554200D01*
X13605922Y14554200D02*
X12302098Y14554200D01*
X18685922Y14554200D02*
X14842098Y14554200D01*
X32655922Y14554200D02*
X19922098Y14554200D01*
X35195922Y14554200D02*
X33892098Y14554200D01*
X37735922Y14554200D02*
X36432098Y14554200D01*
X40275922Y14554200D02*
X38972098Y14554200D01*
X42815922Y14554200D02*
X41512098Y14554200D01*
X45355922Y14554200D02*
X44052098Y14554200D01*
X47895922Y14554200D02*
X46592098Y14554200D01*
X50435922Y14554200D02*
X49132098Y14554200D01*
X88988900Y14554200D02*
X51672098Y14554200D01*
X91363800Y14554200D02*
X91033600Y14554200D01*
X803640Y14452600D02*
X76200Y14452600D01*
X3403734Y14452600D02*
X2371600Y14452600D01*
X11023734Y14452600D02*
X4911599Y14452600D01*
X13563734Y14452600D02*
X12344078Y14452600D01*
X18643734Y14452600D02*
X14884078Y14452600D01*
X32613734Y14452600D02*
X19964078Y14452600D01*
X35153734Y14452600D02*
X33934078Y14452600D01*
X37693734Y14452600D02*
X36474078Y14452600D01*
X40233734Y14452600D02*
X39014078Y14452600D01*
X42773734Y14452600D02*
X41554078Y14452600D01*
X45313734Y14452600D02*
X44094078Y14452600D01*
X47853734Y14452600D02*
X46634078Y14452600D01*
X50393734Y14452600D02*
X49174078Y14452600D01*
X88988900Y14452600D02*
X51714078Y14452600D01*
X91363800Y14452600D02*
X91033600Y14452600D01*
X795456Y14351000D02*
X76200Y14351000D01*
X3390955Y14351000D02*
X2270000Y14351000D01*
X11010955Y14351000D02*
X4809999Y14351000D01*
X13550955Y14351000D02*
X12357155Y14351000D01*
X18630955Y14351000D02*
X14897155Y14351000D01*
X32600955Y14351000D02*
X19977155Y14351000D01*
X35140955Y14351000D02*
X33947155Y14351000D01*
X37680955Y14351000D02*
X36487155Y14351000D01*
X40220955Y14351000D02*
X39027155Y14351000D01*
X42760955Y14351000D02*
X41567155Y14351000D01*
X45300955Y14351000D02*
X44107155Y14351000D01*
X47840955Y14351000D02*
X46647155Y14351000D01*
X50380955Y14351000D02*
X49187155Y14351000D01*
X88988900Y14351000D02*
X51727156Y14351000D01*
X91363800Y14351000D02*
X91033600Y14351000D01*
X795367Y14249400D02*
X76200Y14249400D01*
X3390867Y14249400D02*
X2252566Y14249400D01*
X11010867Y14249400D02*
X4737066Y14249400D01*
X13550867Y14249400D02*
X12357067Y14249400D01*
X18630867Y14249400D02*
X14897067Y14249400D01*
X32600867Y14249400D02*
X19977067Y14249400D01*
X35140867Y14249400D02*
X33947067Y14249400D01*
X37680867Y14249400D02*
X36487067Y14249400D01*
X40220867Y14249400D02*
X39027067Y14249400D01*
X42760867Y14249400D02*
X41567067Y14249400D01*
X45300867Y14249400D02*
X44107067Y14249400D01*
X47840867Y14249400D02*
X46647067Y14249400D01*
X50380867Y14249400D02*
X49187067Y14249400D01*
X88988900Y14249400D02*
X51727067Y14249400D01*
X91363800Y14249400D02*
X91033600Y14249400D01*
X795279Y14147800D02*
X76200Y14147800D01*
X3393427Y14147800D02*
X2252478Y14147800D01*
X11013427Y14147800D02*
X4734813Y14147800D01*
X13553427Y14147800D02*
X12354813Y14147800D01*
X18633427Y14147800D02*
X14894813Y14147800D01*
X32603427Y14147800D02*
X19974813Y14147800D01*
X35143427Y14147800D02*
X33944813Y14147800D01*
X37683427Y14147800D02*
X36484813Y14147800D01*
X40223427Y14147800D02*
X39024813Y14147800D01*
X42763427Y14147800D02*
X41564813Y14147800D01*
X45303427Y14147800D02*
X44104813Y14147800D01*
X47843427Y14147800D02*
X46644813Y14147800D01*
X50383427Y14147800D02*
X49184813Y14147800D01*
X88988900Y14147800D02*
X51724813Y14147800D01*
X91363800Y14147800D02*
X91033600Y14147800D01*
X835357Y14046200D02*
X76200Y14046200D01*
X3435407Y14046200D02*
X2212719Y14046200D01*
X11055407Y14046200D02*
X4692625Y14046200D01*
X13595407Y14046200D02*
X12312625Y14046200D01*
X18675407Y14046200D02*
X14852625Y14046200D01*
X32645407Y14046200D02*
X19932625Y14046200D01*
X35185407Y14046200D02*
X33902625Y14046200D01*
X37725407Y14046200D02*
X36442625Y14046200D01*
X40265407Y14046200D02*
X38982625Y14046200D01*
X42805407Y14046200D02*
X41522625Y14046200D01*
X45345407Y14046200D02*
X44062625Y14046200D01*
X47885407Y14046200D02*
X46602625Y14046200D01*
X50425407Y14046200D02*
X49142625Y14046200D01*
X88988900Y14046200D02*
X51682625Y14046200D01*
X91363800Y14046200D02*
X91033600Y14046200D01*
X877337Y13944600D02*
X76200Y13944600D01*
X3477387Y13944600D02*
X2170532Y13944600D01*
X11097387Y13944600D02*
X4650437Y13944600D01*
X13637387Y13944600D02*
X12270437Y13944600D01*
X18717387Y13944600D02*
X14810437Y13944600D01*
X32687387Y13944600D02*
X19890437Y13944600D01*
X35227387Y13944600D02*
X33860437Y13944600D01*
X37767387Y13944600D02*
X36400437Y13944600D01*
X40307387Y13944600D02*
X38940437Y13944600D01*
X42847387Y13944600D02*
X41480437Y13944600D01*
X45387387Y13944600D02*
X44020437Y13944600D01*
X47927387Y13944600D02*
X46560437Y13944600D01*
X50467387Y13944600D02*
X49100437Y13944600D01*
X88988900Y13944600D02*
X51640437Y13944600D01*
X91363800Y13944600D02*
X91033600Y13944600D01*
X938227Y13843000D02*
X76200Y13843000D01*
X3556647Y13843000D02*
X2110020Y13843000D01*
X11176647Y13843000D02*
X4571462Y13843000D01*
X13716647Y13843000D02*
X12191462Y13843000D01*
X18796647Y13843000D02*
X14731462Y13843000D01*
X32766647Y13843000D02*
X19811462Y13843000D01*
X35306647Y13843000D02*
X33781462Y13843000D01*
X37846647Y13843000D02*
X36321462Y13843000D01*
X40386647Y13843000D02*
X38861462Y13843000D01*
X42926647Y13843000D02*
X41401462Y13843000D01*
X45466647Y13843000D02*
X43941462Y13843000D01*
X48006647Y13843000D02*
X46481462Y13843000D01*
X50546647Y13843000D02*
X49021462Y13843000D01*
X88988900Y13843000D02*
X51561462Y13843000D01*
X91363800Y13843000D02*
X91033600Y13843000D01*
X1039649Y13741400D02*
X76200Y13741400D01*
X3658070Y13741400D02*
X2008242Y13741400D01*
X11278070Y13741400D02*
X4469685Y13741400D01*
X13818070Y13741400D02*
X12089685Y13741400D01*
X18898070Y13741400D02*
X14629685Y13741400D01*
X32868070Y13741400D02*
X19709685Y13741400D01*
X35408070Y13741400D02*
X33679685Y13741400D01*
X37948070Y13741400D02*
X36219685Y13741400D01*
X40488070Y13741400D02*
X38759685Y13741400D01*
X43028070Y13741400D02*
X41299685Y13741400D01*
X45568070Y13741400D02*
X43839685Y13741400D01*
X48108070Y13741400D02*
X46379685Y13741400D01*
X50648070Y13741400D02*
X48919685Y13741400D01*
X88988900Y13741400D02*
X51459685Y13741400D01*
X91363800Y13741400D02*
X91033600Y13741400D01*
X1183912Y13639800D02*
X76200Y13639800D01*
X3868636Y13639800D02*
X1864389Y13639800D01*
X11488636Y13639800D02*
X4259056Y13639800D01*
X14028636Y13639800D02*
X11879056Y13639800D01*
X19108636Y13639800D02*
X14419056Y13639800D01*
X33078636Y13639800D02*
X19499056Y13639800D01*
X35618636Y13639800D02*
X33469056Y13639800D01*
X38158636Y13639800D02*
X36009056Y13639800D01*
X40698636Y13639800D02*
X38549056Y13639800D01*
X43238636Y13639800D02*
X41089056Y13639800D01*
X45778636Y13639800D02*
X43629056Y13639800D01*
X48318636Y13639800D02*
X46169056Y13639800D01*
X50858636Y13639800D02*
X48709056Y13639800D01*
X88988900Y13639800D02*
X51249056Y13639800D01*
X91363800Y13639800D02*
X91033600Y13639800D01*
X88988900Y13538200D02*
X76200Y13538200D01*
X91363800Y13538200D02*
X91033600Y13538200D01*
X88988900Y13436600D02*
X76200Y13436600D01*
X91363800Y13436600D02*
X91033600Y13436600D01*
X88988900Y13335000D02*
X76200Y13335000D01*
X91363800Y13335000D02*
X91033600Y13335000D01*
X88988900Y13233400D02*
X76200Y13233400D01*
X91363800Y13233400D02*
X91033600Y13233400D01*
X88988900Y13131800D02*
X76200Y13131800D01*
X91363800Y13131800D02*
X91033600Y13131800D01*
X88988900Y13030200D02*
X76200Y13030200D01*
X91363800Y13030200D02*
X91033600Y13030200D01*
X88988900Y12928600D02*
X76200Y12928600D01*
X91363800Y12928600D02*
X91033600Y12928600D01*
X88988900Y12827000D02*
X76200Y12827000D01*
X91363800Y12827000D02*
X91033600Y12827000D01*
X88988900Y12725400D02*
X76200Y12725400D01*
X91363800Y12725400D02*
X91033600Y12725400D01*
X88988900Y12623800D02*
X76200Y12623800D01*
X91363800Y12623800D02*
X91033600Y12623800D01*
X88988900Y12522200D02*
X76200Y12522200D01*
X91363800Y12522200D02*
X91033600Y12522200D01*
X88988900Y12420600D02*
X76200Y12420600D01*
X91363800Y12420600D02*
X91033600Y12420600D01*
X88988900Y12319000D02*
X76200Y12319000D01*
X91363800Y12319000D02*
X91033600Y12319000D01*
X88988900Y12217400D02*
X76200Y12217400D01*
X91363800Y12217400D02*
X91033600Y12217400D01*
X88988900Y12115800D02*
X76200Y12115800D01*
X91363800Y12115800D02*
X91033600Y12115800D01*
X88988900Y12014200D02*
X76200Y12014200D01*
X91363800Y12014200D02*
X91033600Y12014200D01*
X88988900Y11912600D02*
X76200Y11912600D01*
X91363800Y11912600D02*
X91033600Y11912600D01*
X88988900Y11811000D02*
X76200Y11811000D01*
X91363800Y11811000D02*
X91033600Y11811000D01*
X88988900Y11709400D02*
X76200Y11709400D01*
X91363800Y11709400D02*
X91033600Y11709400D01*
X88988900Y11607800D02*
X76200Y11607800D01*
X91363800Y11607800D02*
X91033600Y11607800D01*
X88988900Y11506200D02*
X76200Y11506200D01*
X91363800Y11506200D02*
X91033600Y11506200D01*
X88988900Y11404600D02*
X76200Y11404600D01*
X91363800Y11404600D02*
X91033600Y11404600D01*
X88988900Y11303000D02*
X76200Y11303000D01*
X91363800Y11303000D02*
X91033600Y11303000D01*
X88988900Y11201400D02*
X76200Y11201400D01*
X91363800Y11201400D02*
X91033600Y11201400D01*
X88988900Y11099800D02*
X76200Y11099800D01*
X91363800Y11099800D02*
X91033600Y11099800D01*
X88988900Y10998200D02*
X76200Y10998200D01*
X91363800Y10998200D02*
X91033600Y10998200D01*
X88988900Y10896600D02*
X76200Y10896600D01*
X91363800Y10896600D02*
X91033600Y10896600D01*
X88988900Y10795000D02*
X76200Y10795000D01*
X91363800Y10795000D02*
X91033600Y10795000D01*
X88988900Y10693400D02*
X76200Y10693400D01*
X91363800Y10693400D02*
X91033600Y10693400D01*
X88988900Y10591800D02*
X76200Y10591800D01*
X91363800Y10591800D02*
X91033600Y10591800D01*
X88988900Y10490200D02*
X76200Y10490200D01*
X91363800Y10490200D02*
X91033600Y10490200D01*
X88988900Y10388600D02*
X76200Y10388600D01*
X91363800Y10388600D02*
X91033600Y10388600D01*
X88988900Y10287000D02*
X76200Y10287000D01*
X91363800Y10287000D02*
X91033600Y10287000D01*
X88988900Y10185400D02*
X76200Y10185400D01*
X91363800Y10185400D02*
X91033600Y10185400D01*
X88988900Y10083800D02*
X76200Y10083800D01*
X91363800Y10083800D02*
X91033600Y10083800D01*
X88988900Y9982200D02*
X76200Y9982200D01*
X91363800Y9982200D02*
X91033600Y9982200D01*
X88988900Y9880600D02*
X76200Y9880600D01*
X91363800Y9880600D02*
X91033600Y9880600D01*
X88988900Y9779000D02*
X76200Y9779000D01*
X91363800Y9779000D02*
X91033600Y9779000D01*
X88988900Y9677400D02*
X76200Y9677400D01*
X91363800Y9677400D02*
X91033600Y9677400D01*
X88988900Y9575800D02*
X76200Y9575800D01*
X91363800Y9575800D02*
X91033600Y9575800D01*
X88988900Y9474200D02*
X76200Y9474200D01*
X91363800Y9474200D02*
X91033600Y9474200D01*
X88988900Y9372600D02*
X76200Y9372600D01*
X91363800Y9372600D02*
X91033600Y9372600D01*
X88988900Y9271000D02*
X76200Y9271000D01*
X91363800Y9271000D02*
X91033600Y9271000D01*
X88988900Y9169400D02*
X76200Y9169400D01*
X91363800Y9169400D02*
X91033600Y9169400D01*
X88988900Y9067800D02*
X76200Y9067800D01*
X91363800Y9067800D02*
X91033600Y9067800D01*
X88988900Y8966200D02*
X76200Y8966200D01*
X91363800Y8966200D02*
X91033600Y8966200D01*
X88988900Y8864600D02*
X76200Y8864600D01*
X91363800Y8864600D02*
X91033600Y8864600D01*
X88988900Y8763000D02*
X76200Y8763000D01*
X91363800Y8763000D02*
X91033600Y8763000D01*
X88988900Y8661400D02*
X76200Y8661400D01*
X91363800Y8661400D02*
X91033600Y8661400D01*
X88988900Y8559800D02*
X76200Y8559800D01*
X91363800Y8559800D02*
X91033600Y8559800D01*
X88988900Y8458200D02*
X76200Y8458200D01*
X91363800Y8458200D02*
X91033600Y8458200D01*
X88988900Y8356600D02*
X76200Y8356600D01*
X91363800Y8356600D02*
X91033600Y8356600D01*
X88988900Y8255000D02*
X76200Y8255000D01*
X91363800Y8255000D02*
X91033600Y8255000D01*
X88988900Y8153400D02*
X76200Y8153400D01*
X91363800Y8153400D02*
X91033600Y8153400D01*
X88988900Y8051800D02*
X76200Y8051800D01*
X91363800Y8051800D02*
X91033600Y8051800D01*
X88988900Y7950200D02*
X76200Y7950200D01*
X91363800Y7950200D02*
X91033600Y7950200D01*
X88988900Y7848600D02*
X76200Y7848600D01*
X91363800Y7848600D02*
X91033600Y7848600D01*
X88988900Y7747000D02*
X76200Y7747000D01*
X91363800Y7747000D02*
X91033600Y7747000D01*
X88988900Y7645400D02*
X76200Y7645400D01*
X91363800Y7645400D02*
X91033600Y7645400D01*
X88988900Y7543800D02*
X76200Y7543800D01*
X91363800Y7543800D02*
X91033600Y7543800D01*
X88988900Y7442200D02*
X76200Y7442200D01*
X91363800Y7442200D02*
X91033600Y7442200D01*
X88988900Y7340600D02*
X76200Y7340600D01*
X91363800Y7340600D02*
X91033600Y7340600D01*
X3877276Y7239000D02*
X76200Y7239000D01*
X88988900Y7239000D02*
X20760725Y7239000D01*
X91363800Y7239000D02*
X91033600Y7239000D01*
X3725220Y7137400D02*
X76200Y7137400D01*
X88988900Y7137400D02*
X20912781Y7137400D01*
X91363800Y7137400D02*
X91033600Y7137400D01*
X3655967Y7035800D02*
X76200Y7035800D01*
X88988900Y7035800D02*
X20982034Y7035800D01*
X91363800Y7035800D02*
X91033600Y7035800D01*
X3609189Y6934200D02*
X76200Y6934200D01*
X88988900Y6934200D02*
X21028812Y6934200D01*
X91363800Y6934200D02*
X91033600Y6934200D01*
X3588979Y6832600D02*
X76200Y6832600D01*
X88988900Y6832600D02*
X21049022Y6832600D01*
X91363800Y6832600D02*
X91033600Y6832600D01*
X3594031Y6731000D02*
X76200Y6731000D01*
X88988900Y6731000D02*
X21043968Y6731000D01*
X91363800Y6731000D02*
X91033600Y6731000D01*
X1269654Y6629400D02*
X76200Y6629400D01*
X88988900Y6629400D02*
X21023759Y6629400D01*
X91363800Y6629400D02*
X91033600Y6629400D01*
X1032734Y6527800D02*
X76200Y6527800D01*
X88988900Y6527800D02*
X20965062Y6527800D01*
X91363800Y6527800D02*
X91033600Y6527800D01*
X942438Y6426200D02*
X76200Y6426200D01*
X88988900Y6426200D02*
X20874766Y6426200D01*
X91363800Y6426200D02*
X91033600Y6426200D01*
X883741Y6324600D02*
X76200Y6324600D01*
X88988900Y6324600D02*
X20637846Y6324600D01*
X91363800Y6324600D02*
X91033600Y6324600D01*
X863532Y6223000D02*
X76200Y6223000D01*
X88916001Y6223000D02*
X18349043Y6223000D01*
X91363800Y6223000D02*
X91033600Y6223000D01*
X858478Y6121400D02*
X76200Y6121400D01*
X88814401Y6121400D02*
X18359147Y6121400D01*
X91363800Y6121400D02*
X91033600Y6121400D01*
X878688Y6019800D02*
X76200Y6019800D01*
X88712801Y6019800D02*
X18338937Y6019800D01*
X91363800Y6019800D02*
X91033600Y6019800D01*
X925466Y5918200D02*
X76200Y5918200D01*
X88611201Y5918200D02*
X18298119Y5918200D01*
X91363800Y5918200D02*
X91033600Y5918200D01*
X993900Y5816600D02*
X76200Y5816600D01*
X88509601Y5816600D02*
X18230233Y5816600D01*
X91363800Y5816600D02*
X91033600Y5816600D01*
X1140469Y5715000D02*
X76200Y5715000D01*
X88408001Y5715000D02*
X18087331Y5715000D01*
X91363800Y5715000D02*
X91033600Y5715000D01*
X88306401Y5613400D02*
X76200Y5613400D01*
X91363800Y5613400D02*
X91013390Y5613400D01*
X88204801Y5511800D02*
X76200Y5511800D01*
X91363800Y5511800D02*
X90993181Y5511800D01*
X88103201Y5410200D02*
X76200Y5410200D01*
X91363800Y5410200D02*
X90939411Y5410200D01*
X88001601Y5308600D02*
X76200Y5308600D01*
X91363800Y5308600D02*
X90871524Y5308600D01*
X87900001Y5207000D02*
X76200Y5207000D01*
X91363800Y5207000D02*
X90778104Y5207000D01*
X87798401Y5105400D02*
X76200Y5105400D01*
X91363800Y5105400D02*
X90676504Y5105400D01*
X87696801Y5003800D02*
X76200Y5003800D01*
X91363800Y5003800D02*
X90574904Y5003800D01*
X87595201Y4902200D02*
X76200Y4902200D01*
X91363800Y4902200D02*
X90473304Y4902200D01*
X870850Y4800600D02*
X76200Y4800600D01*
X3763757Y4800600D02*
X2175585Y4800600D01*
X6303757Y4800600D02*
X4364244Y4800600D01*
X8843757Y4800600D02*
X6904244Y4800600D01*
X11383757Y4800600D02*
X9444244Y4800600D01*
X13923757Y4800600D02*
X11984244Y4800600D01*
X16463757Y4800600D02*
X14524244Y4800600D01*
X19003757Y4800600D02*
X17064244Y4800600D01*
X21543757Y4800600D02*
X19604244Y4800600D01*
X24083757Y4800600D02*
X22144244Y4800600D01*
X28175850Y4800600D02*
X24684244Y4800600D01*
X87493601Y4800600D02*
X29480585Y4800600D01*
X91363800Y4800600D02*
X90371704Y4800600D01*
X805401Y4699000D02*
X76200Y4699000D01*
X3611702Y4699000D02*
X2243625Y4699000D01*
X6151702Y4699000D02*
X4516299Y4699000D01*
X8691702Y4699000D02*
X7056299Y4699000D01*
X11231702Y4699000D02*
X9596299Y4699000D01*
X13771702Y4699000D02*
X12136299Y4699000D01*
X16311702Y4699000D02*
X14676299Y4699000D01*
X18851702Y4699000D02*
X17216299Y4699000D01*
X21391702Y4699000D02*
X19756299Y4699000D01*
X23931702Y4699000D02*
X22296299Y4699000D01*
X28110401Y4699000D02*
X24836299Y4699000D01*
X87392001Y4699000D02*
X29548625Y4699000D01*
X91363800Y4699000D02*
X90270104Y4699000D01*
X790922Y4597400D02*
X76200Y4597400D01*
X3508998Y4597400D02*
X2257078Y4597400D01*
X6048998Y4597400D02*
X4619003Y4597400D01*
X8588998Y4597400D02*
X7159003Y4597400D01*
X11128998Y4597400D02*
X9699003Y4597400D01*
X13668998Y4597400D02*
X12239003Y4597400D01*
X16208998Y4597400D02*
X14779003Y4597400D01*
X18748998Y4597400D02*
X17319003Y4597400D01*
X21288998Y4597400D02*
X19859003Y4597400D01*
X23828998Y4597400D02*
X22399003Y4597400D01*
X28095922Y4597400D02*
X24939004Y4597400D01*
X87290401Y4597400D02*
X29562078Y4597400D01*
X91363800Y4597400D02*
X90168504Y4597400D01*
X790922Y4495800D02*
X76200Y4495800D01*
X3441111Y4495800D02*
X2257078Y4495800D01*
X5981111Y4495800D02*
X4686890Y4495800D01*
X8521111Y4495800D02*
X7226890Y4495800D01*
X11061111Y4495800D02*
X9766890Y4495800D01*
X13601111Y4495800D02*
X12306890Y4495800D01*
X16141111Y4495800D02*
X14846890Y4495800D01*
X18681111Y4495800D02*
X17386890Y4495800D01*
X21221111Y4495800D02*
X19926890Y4495800D01*
X23761111Y4495800D02*
X22466890Y4495800D01*
X28095922Y4495800D02*
X25006891Y4495800D01*
X87188801Y4495800D02*
X29562078Y4495800D01*
X91363800Y4495800D02*
X90066904Y4495800D01*
X790922Y4394200D02*
X76200Y4394200D01*
X3385611Y4394200D02*
X2257078Y4394200D01*
X5925611Y4394200D02*
X4742390Y4394200D01*
X8465611Y4394200D02*
X7282390Y4394200D01*
X11005611Y4394200D02*
X9822390Y4394200D01*
X13545611Y4394200D02*
X12362390Y4394200D01*
X16085611Y4394200D02*
X14902390Y4394200D01*
X18625611Y4394200D02*
X17442390Y4394200D01*
X21165611Y4394200D02*
X19982390Y4394200D01*
X23705611Y4394200D02*
X22522390Y4394200D01*
X28095922Y4394200D02*
X25062390Y4394200D01*
X87087201Y4394200D02*
X29562078Y4394200D01*
X91363800Y4394200D02*
X89965304Y4394200D01*
X790922Y4292600D02*
X76200Y4292600D01*
X3365401Y4292600D02*
X2257078Y4292600D01*
X5905401Y4292600D02*
X4762600Y4292600D01*
X8445401Y4292600D02*
X7302600Y4292600D01*
X10985401Y4292600D02*
X9842600Y4292600D01*
X13525401Y4292600D02*
X12382600Y4292600D01*
X16065401Y4292600D02*
X14922600Y4292600D01*
X18605401Y4292600D02*
X17462600Y4292600D01*
X21145401Y4292600D02*
X20002600Y4292600D01*
X23685401Y4292600D02*
X22542600Y4292600D01*
X28095922Y4292600D02*
X25082600Y4292600D01*
X30826762Y4292600D02*
X29562078Y4292600D01*
X91363800Y4292600D02*
X89863704Y4292600D01*
X790922Y4191000D02*
X76200Y4191000D01*
X3345192Y4191000D02*
X2257078Y4191000D01*
X5885192Y4191000D02*
X4782809Y4191000D01*
X8425192Y4191000D02*
X7322809Y4191000D01*
X10965192Y4191000D02*
X9862809Y4191000D01*
X13505192Y4191000D02*
X12402809Y4191000D01*
X16045192Y4191000D02*
X14942809Y4191000D01*
X18585192Y4191000D02*
X17482809Y4191000D01*
X21125192Y4191000D02*
X20022809Y4191000D01*
X23665192Y4191000D02*
X22562809Y4191000D01*
X28095922Y4191000D02*
X25102809Y4191000D01*
X30694381Y4191000D02*
X29562078Y4191000D01*
X91363800Y4191000D02*
X89762104Y4191000D01*
X790922Y4089400D02*
X76200Y4089400D01*
X3340139Y4089400D02*
X2257078Y4089400D01*
X5880139Y4089400D02*
X4787860Y4089400D01*
X8420139Y4089400D02*
X7327860Y4089400D01*
X10960139Y4089400D02*
X9867860Y4089400D01*
X13500139Y4089400D02*
X12407860Y4089400D01*
X16040139Y4089400D02*
X14947860Y4089400D01*
X18580139Y4089400D02*
X17487860Y4089400D01*
X21120139Y4089400D02*
X20027860Y4089400D01*
X23660139Y4089400D02*
X22567860Y4089400D01*
X28095922Y4089400D02*
X25107860Y4089400D01*
X30626495Y4089400D02*
X29562078Y4089400D01*
X91363800Y4089400D02*
X89660504Y4089400D01*
X790922Y3987800D02*
X76200Y3987800D01*
X3360348Y3987800D02*
X2257078Y3987800D01*
X5900348Y3987800D02*
X4767651Y3987800D01*
X8440348Y3987800D02*
X7307651Y3987800D01*
X10980348Y3987800D02*
X9847651Y3987800D01*
X13520348Y3987800D02*
X12387651Y3987800D01*
X16060348Y3987800D02*
X14927651Y3987800D01*
X18600348Y3987800D02*
X17467651Y3987800D01*
X21140348Y3987800D02*
X20007651Y3987800D01*
X23680348Y3987800D02*
X22547651Y3987800D01*
X28095922Y3987800D02*
X25087651Y3987800D01*
X30591636Y3987800D02*
X29562078Y3987800D01*
X91363800Y3987800D02*
X89558904Y3987800D01*
X790922Y3886200D02*
X76200Y3886200D01*
X3380557Y3886200D02*
X2257078Y3886200D01*
X5920557Y3886200D02*
X4747442Y3886200D01*
X8460557Y3886200D02*
X7287442Y3886200D01*
X11000557Y3886200D02*
X9827442Y3886200D01*
X13540557Y3886200D02*
X12367442Y3886200D01*
X16080557Y3886200D02*
X14907442Y3886200D01*
X18620557Y3886200D02*
X17447442Y3886200D01*
X21160557Y3886200D02*
X19987442Y3886200D01*
X23700557Y3886200D02*
X22527442Y3886200D01*
X28095922Y3886200D02*
X25067442Y3886200D01*
X30571427Y3886200D02*
X29562078Y3886200D01*
X91363800Y3886200D02*
X89457304Y3886200D01*
X790922Y3784600D02*
X76200Y3784600D01*
X3424138Y3784600D02*
X2257078Y3784600D01*
X5964138Y3784600D02*
X4703861Y3784600D01*
X8504138Y3784600D02*
X7243861Y3784600D01*
X11044138Y3784600D02*
X9783861Y3784600D01*
X13584138Y3784600D02*
X12323861Y3784600D01*
X16124138Y3784600D02*
X14863861Y3784600D01*
X18664138Y3784600D02*
X17403861Y3784600D01*
X21204138Y3784600D02*
X19943861Y3784600D01*
X23744138Y3784600D02*
X22483861Y3784600D01*
X28095922Y3784600D02*
X25023861Y3784600D01*
X30586583Y3784600D02*
X29562078Y3784600D01*
X91363800Y3784600D02*
X89355704Y3784600D01*
X790922Y3683000D02*
X76200Y3683000D01*
X3492025Y3683000D02*
X2257078Y3683000D01*
X6032025Y3683000D02*
X4635974Y3683000D01*
X8572025Y3683000D02*
X7175974Y3683000D01*
X11112025Y3683000D02*
X9715974Y3683000D01*
X13652025Y3683000D02*
X12255974Y3683000D01*
X16192025Y3683000D02*
X14795974Y3683000D01*
X18732025Y3683000D02*
X17335974Y3683000D01*
X21272025Y3683000D02*
X19875974Y3683000D01*
X23812025Y3683000D02*
X22415974Y3683000D01*
X28095922Y3683000D02*
X24955974Y3683000D01*
X30609522Y3683000D02*
X29562078Y3683000D01*
X91363800Y3683000D02*
X89254104Y3683000D01*
X799596Y3581400D02*
X76200Y3581400D01*
X3573687Y3581400D02*
X2247742Y3581400D01*
X6113687Y3581400D02*
X4554312Y3581400D01*
X8653687Y3581400D02*
X7094312Y3581400D01*
X11193687Y3581400D02*
X9634312Y3581400D01*
X13733687Y3581400D02*
X12174312Y3581400D01*
X16273687Y3581400D02*
X14714312Y3581400D01*
X18813687Y3581400D02*
X17254312Y3581400D01*
X21353687Y3581400D02*
X19794312Y3581400D01*
X23893687Y3581400D02*
X22334312Y3581400D01*
X28104596Y3581400D02*
X24874312Y3581400D01*
X30677409Y3581400D02*
X29552742Y3581400D01*
X91363800Y3581400D02*
X89152504Y3581400D01*
X847392Y3479800D02*
X76200Y3479800D01*
X3725742Y3479800D02*
X2199754Y3479800D01*
X6265742Y3479800D02*
X4402257Y3479800D01*
X7746306Y3479800D02*
X6942257Y3479800D01*
X16425742Y3479800D02*
X15621695Y3479800D01*
X18965742Y3479800D02*
X17102257Y3479800D01*
X21505742Y3479800D02*
X19642257Y3479800D01*
X24045742Y3479800D02*
X22182257Y3479800D01*
X28152392Y3479800D02*
X24722257Y3479800D01*
X30788747Y3479800D02*
X29504754Y3479800D01*
X91363800Y3479800D02*
X89050904Y3479800D01*
X7520095Y3378200D02*
X76200Y3378200D01*
X30741916Y3378200D02*
X15847906Y3378200D01*
X91363800Y3378200D02*
X88949304Y3378200D01*
X7409505Y3276600D02*
X76200Y3276600D01*
X30599762Y3276600D02*
X15958496Y3276600D01*
X91363800Y3276600D02*
X88847704Y3276600D01*
X7341617Y3175000D02*
X76200Y3175000D01*
X30531875Y3175000D02*
X16026384Y3175000D01*
X91363800Y3175000D02*
X88746104Y3175000D01*
X7299767Y3073400D02*
X76200Y3073400D01*
X30472146Y3073400D02*
X16068234Y3073400D01*
X91363800Y3073400D02*
X88644504Y3073400D01*
X7279558Y2971800D02*
X76200Y2971800D01*
X30451936Y2971800D02*
X16088443Y2971800D01*
X91363800Y2971800D02*
X88542904Y2971800D01*
X7269452Y2870200D02*
X76200Y2870200D01*
X30431727Y2870200D02*
X16098547Y2870200D01*
X91363800Y2870200D02*
X88441304Y2870200D01*
X7289661Y2768600D02*
X76200Y2768600D01*
X30446883Y2768600D02*
X16078338Y2768600D01*
X91363800Y2768600D02*
X88339704Y2768600D01*
X7309871Y2667000D02*
X76200Y2667000D01*
X30467092Y2667000D02*
X16058128Y2667000D01*
X91363800Y2667000D02*
X88238104Y2667000D01*
X3598785Y2565400D02*
X76200Y2565400D01*
X4329060Y2565400D02*
X3798941Y2565400D01*
X6138785Y2565400D02*
X4529216Y2565400D01*
X6869060Y2565400D02*
X6338941Y2565400D01*
X7375560Y2565400D02*
X7069216Y2565400D01*
X16298785Y2565400D02*
X15992439Y2565400D01*
X17029060Y2565400D02*
X16498941Y2565400D01*
X18838785Y2565400D02*
X17229216Y2565400D01*
X19569060Y2565400D02*
X19038941Y2565400D01*
X21378785Y2565400D02*
X19769216Y2565400D01*
X22109060Y2565400D02*
X21578941Y2565400D01*
X23918785Y2565400D02*
X22309216Y2565400D01*
X24649060Y2565400D02*
X24118941Y2565400D01*
X28397222Y2565400D02*
X24849216Y2565400D01*
X29092311Y2565400D02*
X28565690Y2565400D01*
X30514902Y2565400D02*
X29260779Y2565400D01*
X91363800Y2565400D02*
X88136504Y2565400D01*
X3458715Y2463800D02*
X76200Y2463800D01*
X4241800Y2463800D02*
X3886200Y2463800D01*
X5998715Y2463800D02*
X4669286Y2463800D01*
X6781800Y2463800D02*
X6426200Y2463800D01*
X7444067Y2463800D02*
X7209286Y2463800D01*
X16158715Y2463800D02*
X15923932Y2463800D01*
X16941800Y2463800D02*
X16586200Y2463800D01*
X18698715Y2463800D02*
X17369286Y2463800D01*
X19481800Y2463800D02*
X19126200Y2463800D01*
X21238715Y2463800D02*
X19909286Y2463800D01*
X22021800Y2463800D02*
X21666200Y2463800D01*
X23778715Y2463800D02*
X22449286Y2463800D01*
X24561800Y2463800D02*
X24206200Y2463800D01*
X28219016Y2463800D02*
X24989286Y2463800D01*
X29006800Y2463800D02*
X28651200Y2463800D01*
X30582790Y2463800D02*
X29438985Y2463800D01*
X91363800Y2463800D02*
X88034904Y2463800D01*
X3327787Y2362200D02*
X76200Y2362200D01*
X4241800Y2362200D02*
X3886200Y2362200D01*
X5867787Y2362200D02*
X4800214Y2362200D01*
X6781800Y2362200D02*
X6426200Y2362200D01*
X7596121Y2362200D02*
X7340214Y2362200D01*
X16027787Y2362200D02*
X15771878Y2362200D01*
X16941800Y2362200D02*
X16586200Y2362200D01*
X18567787Y2362200D02*
X17500214Y2362200D01*
X19481800Y2362200D02*
X19126200Y2362200D01*
X21107787Y2362200D02*
X20040214Y2362200D01*
X22021800Y2362200D02*
X21666200Y2362200D01*
X23647787Y2362200D02*
X22580214Y2362200D01*
X24561800Y2362200D02*
X24206200Y2362200D01*
X28084166Y2362200D02*
X25120214Y2362200D01*
X29006800Y2362200D02*
X28651200Y2362200D01*
X30703901Y2362200D02*
X29573835Y2362200D01*
X91363800Y2362200D02*
X87901398Y2362200D01*
X1223757Y2260600D02*
X76200Y2260600D01*
X3223684Y2260600D02*
X1824244Y2260600D01*
X4241800Y2260600D02*
X3886200Y2260600D01*
X5763684Y2260600D02*
X4904317Y2260600D01*
X6781800Y2260600D02*
X6426200Y2260600D01*
X8303684Y2260600D02*
X7444317Y2260600D01*
X10843684Y2260600D02*
X9984317Y2260600D01*
X13383684Y2260600D02*
X12524317Y2260600D01*
X15923684Y2260600D02*
X15064317Y2260600D01*
X16941800Y2260600D02*
X16586200Y2260600D01*
X18463684Y2260600D02*
X17604317Y2260600D01*
X19481800Y2260600D02*
X19126200Y2260600D01*
X21003684Y2260600D02*
X20144317Y2260600D01*
X22021800Y2260600D02*
X21666200Y2260600D01*
X23543684Y2260600D02*
X22684317Y2260600D01*
X24561800Y2260600D02*
X24206200Y2260600D01*
X28005325Y2260600D02*
X25224317Y2260600D01*
X29006800Y2260600D02*
X28651200Y2260600D01*
X30974952Y2260600D02*
X29652676Y2260600D01*
X91363800Y2260600D02*
X87630347Y2260600D01*
X1071702Y2159000D02*
X76200Y2159000D01*
X3165759Y2159000D02*
X1976299Y2159000D01*
X4241800Y2159000D02*
X3886200Y2159000D01*
X5705759Y2159000D02*
X4962242Y2159000D01*
X6781800Y2159000D02*
X6426200Y2159000D01*
X8245760Y2159000D02*
X7502242Y2159000D01*
X10785760Y2159000D02*
X10042241Y2159000D01*
X13325760Y2159000D02*
X12582241Y2159000D01*
X15865759Y2159000D02*
X15122241Y2159000D01*
X16941800Y2159000D02*
X16586200Y2159000D01*
X18405759Y2159000D02*
X17662242Y2159000D01*
X19481800Y2159000D02*
X19126200Y2159000D01*
X20945759Y2159000D02*
X20202242Y2159000D01*
X22021800Y2159000D02*
X21666200Y2159000D01*
X23485759Y2159000D02*
X22742242Y2159000D01*
X24561800Y2159000D02*
X24206200Y2159000D01*
X27926483Y2159000D02*
X25282242Y2159000D01*
X29006800Y2159000D02*
X28651200Y2159000D01*
X32555401Y2159000D02*
X29731518Y2159000D01*
X35361702Y2159000D02*
X33993625Y2159000D01*
X37901702Y2159000D02*
X36266299Y2159000D01*
X40441702Y2159000D02*
X38806299Y2159000D01*
X42981702Y2159000D02*
X41346299Y2159000D01*
X45521702Y2159000D02*
X43886299Y2159000D01*
X48061702Y2159000D02*
X46426299Y2159000D01*
X50601702Y2159000D02*
X48966299Y2159000D01*
X91363800Y2159000D02*
X51506299Y2159000D01*
X968998Y2057400D02*
X76200Y2057400D01*
X3107835Y2057400D02*
X2079003Y2057400D01*
X4241800Y2057400D02*
X3886200Y2057400D01*
X5647835Y2057400D02*
X5020166Y2057400D01*
X6781800Y2057400D02*
X6426200Y2057400D01*
X8187835Y2057400D02*
X7560166Y2057400D01*
X10727835Y2057400D02*
X10100166Y2057400D01*
X13267835Y2057400D02*
X12640166Y2057400D01*
X15807835Y2057400D02*
X15180166Y2057400D01*
X16941800Y2057400D02*
X16586200Y2057400D01*
X18347835Y2057400D02*
X17720166Y2057400D01*
X19481800Y2057400D02*
X19126200Y2057400D01*
X20887835Y2057400D02*
X20260166Y2057400D01*
X22021800Y2057400D02*
X21666200Y2057400D01*
X23427835Y2057400D02*
X22800166Y2057400D01*
X24561800Y2057400D02*
X24206200Y2057400D01*
X27853040Y2057400D02*
X25340166Y2057400D01*
X29006800Y2057400D02*
X28651200Y2057400D01*
X32540922Y2057400D02*
X29804961Y2057400D01*
X35258998Y2057400D02*
X34007078Y2057400D01*
X37798998Y2057400D02*
X36369003Y2057400D01*
X40338998Y2057400D02*
X38909003Y2057400D01*
X42878998Y2057400D02*
X41449003Y2057400D01*
X45418998Y2057400D02*
X43989003Y2057400D01*
X47958998Y2057400D02*
X46529003Y2057400D01*
X50498998Y2057400D02*
X49069003Y2057400D01*
X91363800Y2057400D02*
X51609003Y2057400D01*
X901111Y1955800D02*
X76200Y1955800D01*
X3049910Y1955800D02*
X2146891Y1955800D01*
X4241800Y1955800D02*
X3886200Y1955800D01*
X5589910Y1955800D02*
X5078091Y1955800D01*
X6781800Y1955800D02*
X6426200Y1955800D01*
X8129910Y1955800D02*
X7618091Y1955800D01*
X10669910Y1955800D02*
X10158091Y1955800D01*
X13209910Y1955800D02*
X12698091Y1955800D01*
X15749910Y1955800D02*
X15238091Y1955800D01*
X16941800Y1955800D02*
X16586200Y1955800D01*
X18289910Y1955800D02*
X17778091Y1955800D01*
X19481800Y1955800D02*
X19126200Y1955800D01*
X20829910Y1955800D02*
X20318091Y1955800D01*
X22021800Y1955800D02*
X21666200Y1955800D01*
X23369910Y1955800D02*
X22858091Y1955800D01*
X24561800Y1955800D02*
X24206200Y1955800D01*
X27810969Y1955800D02*
X25398091Y1955800D01*
X29006800Y1955800D02*
X28651200Y1955800D01*
X32540922Y1955800D02*
X29847032Y1955800D01*
X35191111Y1955800D02*
X34007078Y1955800D01*
X37731111Y1955800D02*
X36436890Y1955800D01*
X40271111Y1955800D02*
X38976890Y1955800D01*
X42811111Y1955800D02*
X41516890Y1955800D01*
X45351111Y1955800D02*
X44056890Y1955800D01*
X47891111Y1955800D02*
X46596890Y1955800D01*
X50431111Y1955800D02*
X49136890Y1955800D01*
X91363800Y1955800D02*
X51676890Y1955800D01*
X845611Y1854200D02*
X76200Y1854200D01*
X3083943Y1854200D02*
X2202390Y1854200D01*
X4241800Y1854200D02*
X3886200Y1854200D01*
X5623943Y1854200D02*
X5044056Y1854200D01*
X6781800Y1854200D02*
X6426200Y1854200D01*
X8163943Y1854200D02*
X7584056Y1854200D01*
X10703943Y1854200D02*
X10124056Y1854200D01*
X13243943Y1854200D02*
X12664056Y1854200D01*
X15783943Y1854200D02*
X15204056Y1854200D01*
X16941800Y1854200D02*
X16586200Y1854200D01*
X18323943Y1854200D02*
X17744056Y1854200D01*
X19481800Y1854200D02*
X19126200Y1854200D01*
X20863943Y1854200D02*
X20284056Y1854200D01*
X22021800Y1854200D02*
X21666200Y1854200D01*
X23403943Y1854200D02*
X22824056Y1854200D01*
X24561800Y1854200D02*
X24206200Y1854200D01*
X27850033Y1854200D02*
X25364056Y1854200D01*
X29006800Y1854200D02*
X28651200Y1854200D01*
X32540922Y1854200D02*
X29807966Y1854200D01*
X35135611Y1854200D02*
X34007078Y1854200D01*
X37675611Y1854200D02*
X36492390Y1854200D01*
X40215611Y1854200D02*
X39032390Y1854200D01*
X42755611Y1854200D02*
X41572390Y1854200D01*
X45295611Y1854200D02*
X44112390Y1854200D01*
X47835611Y1854200D02*
X46652390Y1854200D01*
X50375611Y1854200D02*
X49192390Y1854200D01*
X91363800Y1854200D02*
X51732390Y1854200D01*
X825401Y1752600D02*
X76200Y1752600D01*
X32540922Y1752600D02*
X2222600Y1752600D01*
X35115401Y1752600D02*
X34007078Y1752600D01*
X37655401Y1752600D02*
X36512600Y1752600D01*
X40195401Y1752600D02*
X39052600Y1752600D01*
X42735401Y1752600D02*
X41592600Y1752600D01*
X45275401Y1752600D02*
X44132600Y1752600D01*
X47815401Y1752600D02*
X46672600Y1752600D01*
X50355401Y1752600D02*
X49212600Y1752600D01*
X91363800Y1752600D02*
X51752600Y1752600D01*
X805192Y1651000D02*
X76200Y1651000D01*
X32540922Y1651000D02*
X2242809Y1651000D01*
X35095192Y1651000D02*
X34007078Y1651000D01*
X37635192Y1651000D02*
X36532809Y1651000D01*
X40175192Y1651000D02*
X39072809Y1651000D01*
X42715192Y1651000D02*
X41612809Y1651000D01*
X45255192Y1651000D02*
X44152809Y1651000D01*
X47795192Y1651000D02*
X46692809Y1651000D01*
X50335192Y1651000D02*
X49232809Y1651000D01*
X91363800Y1651000D02*
X51772809Y1651000D01*
X800139Y1549400D02*
X76200Y1549400D01*
X32540922Y1549400D02*
X2247860Y1549400D01*
X35090139Y1549400D02*
X34007078Y1549400D01*
X37630139Y1549400D02*
X36537860Y1549400D01*
X40170139Y1549400D02*
X39077860Y1549400D01*
X42710139Y1549400D02*
X41617860Y1549400D01*
X45250139Y1549400D02*
X44157860Y1549400D01*
X47790139Y1549400D02*
X46697860Y1549400D01*
X50330139Y1549400D02*
X49237860Y1549400D01*
X91363800Y1549400D02*
X51777860Y1549400D01*
X820348Y1447800D02*
X76200Y1447800D01*
X32540922Y1447800D02*
X2227651Y1447800D01*
X35110348Y1447800D02*
X34007078Y1447800D01*
X37650348Y1447800D02*
X36517651Y1447800D01*
X40190348Y1447800D02*
X39057651Y1447800D01*
X42730348Y1447800D02*
X41597651Y1447800D01*
X45270348Y1447800D02*
X44137651Y1447800D01*
X47810348Y1447800D02*
X46677651Y1447800D01*
X50350348Y1447800D02*
X49217651Y1447800D01*
X91363800Y1447800D02*
X51757651Y1447800D01*
X840557Y1346200D02*
X76200Y1346200D01*
X3100106Y1346200D02*
X2207442Y1346200D01*
X4241800Y1346200D02*
X3886200Y1346200D01*
X5640106Y1346200D02*
X5027895Y1346200D01*
X6781800Y1346200D02*
X6426200Y1346200D01*
X8180106Y1346200D02*
X7567895Y1346200D01*
X9321800Y1346200D02*
X8966200Y1346200D01*
X10720106Y1346200D02*
X10107895Y1346200D01*
X11861800Y1346200D02*
X11506200Y1346200D01*
X13260106Y1346200D02*
X12647895Y1346200D01*
X14401800Y1346200D02*
X14046200Y1346200D01*
X15800106Y1346200D02*
X15187895Y1346200D01*
X16941800Y1346200D02*
X16586200Y1346200D01*
X18340106Y1346200D02*
X17727895Y1346200D01*
X19481800Y1346200D02*
X19126200Y1346200D01*
X20880106Y1346200D02*
X20267895Y1346200D01*
X22021800Y1346200D02*
X21666200Y1346200D01*
X23420106Y1346200D02*
X22807895Y1346200D01*
X24561800Y1346200D02*
X24206200Y1346200D01*
X27866554Y1346200D02*
X25347896Y1346200D01*
X29006800Y1346200D02*
X28651200Y1346200D01*
X32540922Y1346200D02*
X29791447Y1346200D01*
X35130557Y1346200D02*
X34007078Y1346200D01*
X37670557Y1346200D02*
X36497442Y1346200D01*
X40210557Y1346200D02*
X39037442Y1346200D01*
X42750557Y1346200D02*
X41577442Y1346200D01*
X45290557Y1346200D02*
X44117442Y1346200D01*
X47830557Y1346200D02*
X46657442Y1346200D01*
X50370557Y1346200D02*
X49197442Y1346200D01*
X91363800Y1346200D02*
X51737442Y1346200D01*
X884138Y1244600D02*
X76200Y1244600D01*
X3035458Y1244600D02*
X2163861Y1244600D01*
X4241800Y1244600D02*
X3886200Y1244600D01*
X5575458Y1244600D02*
X5092543Y1244600D01*
X6781800Y1244600D02*
X6426200Y1244600D01*
X8115458Y1244600D02*
X7632543Y1244600D01*
X9321800Y1244600D02*
X8966200Y1244600D01*
X10655458Y1244600D02*
X10172543Y1244600D01*
X11861800Y1244600D02*
X11506200Y1244600D01*
X13195458Y1244600D02*
X12712543Y1244600D01*
X14401800Y1244600D02*
X14046200Y1244600D01*
X15735458Y1244600D02*
X15252543Y1244600D01*
X16941800Y1244600D02*
X16586200Y1244600D01*
X18275458Y1244600D02*
X17792543Y1244600D01*
X19481800Y1244600D02*
X19126200Y1244600D01*
X20815458Y1244600D02*
X20332543Y1244600D01*
X22021800Y1244600D02*
X21666200Y1244600D01*
X23355458Y1244600D02*
X22872543Y1244600D01*
X24561800Y1244600D02*
X24206200Y1244600D01*
X27800474Y1244600D02*
X25412544Y1244600D01*
X29006800Y1244600D02*
X28651200Y1244600D01*
X32540922Y1244600D02*
X29857527Y1244600D01*
X35174138Y1244600D02*
X34007078Y1244600D01*
X37714138Y1244600D02*
X36453861Y1244600D01*
X40254138Y1244600D02*
X38993861Y1244600D01*
X42794138Y1244600D02*
X41533861Y1244600D01*
X45334138Y1244600D02*
X44073861Y1244600D01*
X47874138Y1244600D02*
X46613861Y1244600D01*
X50414138Y1244600D02*
X49153861Y1244600D01*
X91363800Y1244600D02*
X51693861Y1244600D01*
X952025Y1143000D02*
X76200Y1143000D01*
X3093352Y1143000D02*
X2095974Y1143000D01*
X4241800Y1143000D02*
X3886200Y1143000D01*
X5633352Y1143000D02*
X5034647Y1143000D01*
X6781800Y1143000D02*
X6426200Y1143000D01*
X8173352Y1143000D02*
X7574647Y1143000D01*
X9321800Y1143000D02*
X8966200Y1143000D01*
X10713352Y1143000D02*
X10114647Y1143000D01*
X11861800Y1143000D02*
X11506200Y1143000D01*
X13253352Y1143000D02*
X12654647Y1143000D01*
X14401800Y1143000D02*
X14046200Y1143000D01*
X15793352Y1143000D02*
X15194647Y1143000D01*
X16941800Y1143000D02*
X16586200Y1143000D01*
X18333352Y1143000D02*
X17734647Y1143000D01*
X19481800Y1143000D02*
X19126200Y1143000D01*
X20873352Y1143000D02*
X20274647Y1143000D01*
X22021800Y1143000D02*
X21666200Y1143000D01*
X23413352Y1143000D02*
X22814647Y1143000D01*
X24561800Y1143000D02*
X24206200Y1143000D01*
X27842521Y1143000D02*
X25354647Y1143000D01*
X29006800Y1143000D02*
X28651200Y1143000D01*
X32540922Y1143000D02*
X29815478Y1143000D01*
X35242025Y1143000D02*
X34007078Y1143000D01*
X37782025Y1143000D02*
X36385974Y1143000D01*
X40322025Y1143000D02*
X38925974Y1143000D01*
X42862025Y1143000D02*
X41465974Y1143000D01*
X45402025Y1143000D02*
X44005974Y1143000D01*
X47942025Y1143000D02*
X46545974Y1143000D01*
X50482025Y1143000D02*
X49085974Y1143000D01*
X91363800Y1143000D02*
X51625974Y1143000D01*
X1033687Y1041400D02*
X76200Y1041400D01*
X3151277Y1041400D02*
X2014312Y1041400D01*
X4241800Y1041400D02*
X3886200Y1041400D01*
X5691277Y1041400D02*
X4976722Y1041400D01*
X6781800Y1041400D02*
X6426200Y1041400D01*
X8231277Y1041400D02*
X7516722Y1041400D01*
X9321800Y1041400D02*
X8966200Y1041400D01*
X10771277Y1041400D02*
X10056722Y1041400D01*
X11861800Y1041400D02*
X11506200Y1041400D01*
X13311277Y1041400D02*
X12596722Y1041400D01*
X14401800Y1041400D02*
X14046200Y1041400D01*
X15851277Y1041400D02*
X15136722Y1041400D01*
X16941800Y1041400D02*
X16586200Y1041400D01*
X18391277Y1041400D02*
X17676722Y1041400D01*
X19481800Y1041400D02*
X19126200Y1041400D01*
X20931277Y1041400D02*
X20216722Y1041400D01*
X22021800Y1041400D02*
X21666200Y1041400D01*
X23471277Y1041400D02*
X22756722Y1041400D01*
X24561800Y1041400D02*
X24206200Y1041400D01*
X27906772Y1041400D02*
X25296722Y1041400D01*
X29006800Y1041400D02*
X28651200Y1041400D01*
X32549596Y1041400D02*
X29751227Y1041400D01*
X35323687Y1041400D02*
X33997742Y1041400D01*
X37863687Y1041400D02*
X36304312Y1041400D01*
X40403687Y1041400D02*
X38844312Y1041400D01*
X42943687Y1041400D02*
X41384312Y1041400D01*
X45483687Y1041400D02*
X43924312Y1041400D01*
X48023687Y1041400D02*
X46464312Y1041400D01*
X50563687Y1041400D02*
X49004312Y1041400D01*
X91363800Y1041400D02*
X51544312Y1041400D01*
X1185742Y939800D02*
X76200Y939800D01*
X3209202Y939800D02*
X1862257Y939800D01*
X4241800Y939800D02*
X3886200Y939800D01*
X5749202Y939800D02*
X4918797Y939800D01*
X6781800Y939800D02*
X6426200Y939800D01*
X8289202Y939800D02*
X7458797Y939800D01*
X9321800Y939800D02*
X8966200Y939800D01*
X10829202Y939800D02*
X9998797Y939800D01*
X11861800Y939800D02*
X11506200Y939800D01*
X13369202Y939800D02*
X12538797Y939800D01*
X14401800Y939800D02*
X14046200Y939800D01*
X15909202Y939800D02*
X15078797Y939800D01*
X16941800Y939800D02*
X16586200Y939800D01*
X18449202Y939800D02*
X17618797Y939800D01*
X19481800Y939800D02*
X19126200Y939800D01*
X20989202Y939800D02*
X20158797Y939800D01*
X22021800Y939800D02*
X21666200Y939800D01*
X23529202Y939800D02*
X22698797Y939800D01*
X24561800Y939800D02*
X24206200Y939800D01*
X27985613Y939800D02*
X25238797Y939800D01*
X29006800Y939800D02*
X28651200Y939800D01*
X32597392Y939800D02*
X29672386Y939800D01*
X35475742Y939800D02*
X33949754Y939800D01*
X38015742Y939800D02*
X36152257Y939800D01*
X40555742Y939800D02*
X38692257Y939800D01*
X43095742Y939800D02*
X41232257Y939800D01*
X45635742Y939800D02*
X43772257Y939800D01*
X48175742Y939800D02*
X46312257Y939800D01*
X50715742Y939800D02*
X48852257Y939800D01*
X91363800Y939800D02*
X51392257Y939800D01*
X3295054Y838200D02*
X76200Y838200D01*
X4241800Y838200D02*
X3886200Y838200D01*
X5835054Y838200D02*
X4832945Y838200D01*
X6781800Y838200D02*
X6426200Y838200D01*
X8375054Y838200D02*
X7372945Y838200D01*
X9321800Y838200D02*
X8966200Y838200D01*
X10915054Y838200D02*
X9912945Y838200D01*
X11861800Y838200D02*
X11506200Y838200D01*
X13455054Y838200D02*
X12452945Y838200D01*
X14401800Y838200D02*
X14046200Y838200D01*
X15995054Y838200D02*
X14992945Y838200D01*
X16941800Y838200D02*
X16586200Y838200D01*
X18535054Y838200D02*
X17532945Y838200D01*
X19481800Y838200D02*
X19126200Y838200D01*
X21075054Y838200D02*
X20072945Y838200D01*
X22021800Y838200D02*
X21666200Y838200D01*
X23615054Y838200D02*
X22612945Y838200D01*
X24561800Y838200D02*
X24206200Y838200D01*
X28064455Y838200D02*
X25152945Y838200D01*
X29006800Y838200D02*
X28651200Y838200D01*
X91363800Y838200D02*
X29593544Y838200D01*
X3425982Y736600D02*
X76200Y736600D01*
X4241800Y736600D02*
X3886200Y736600D01*
X5965982Y736600D02*
X4702017Y736600D01*
X6781800Y736600D02*
X6426200Y736600D01*
X8505982Y736600D02*
X7242017Y736600D01*
X9321800Y736600D02*
X8966200Y736600D01*
X11045982Y736600D02*
X9782017Y736600D01*
X11861800Y736600D02*
X11506200Y736600D01*
X13585982Y736600D02*
X12322017Y736600D01*
X14401800Y736600D02*
X14046200Y736600D01*
X16125982Y736600D02*
X14862017Y736600D01*
X16941800Y736600D02*
X16586200Y736600D01*
X18665982Y736600D02*
X17402017Y736600D01*
X19481800Y736600D02*
X19126200Y736600D01*
X21205982Y736600D02*
X19942017Y736600D01*
X22021800Y736600D02*
X21666200Y736600D01*
X23745982Y736600D02*
X22482017Y736600D01*
X24561800Y736600D02*
X24206200Y736600D01*
X28174463Y736600D02*
X25022017Y736600D01*
X29006800Y736600D02*
X28651200Y736600D01*
X91363800Y736600D02*
X29483536Y736600D01*
X3556910Y635000D02*
X76200Y635000D01*
X4290006Y635000D02*
X3837993Y635000D01*
X6096910Y635000D02*
X4571089Y635000D01*
X6830006Y635000D02*
X6377993Y635000D01*
X8636910Y635000D02*
X7111089Y635000D01*
X9370006Y635000D02*
X8917993Y635000D01*
X11176910Y635000D02*
X9651089Y635000D01*
X11910006Y635000D02*
X11457993Y635000D01*
X13716910Y635000D02*
X12191089Y635000D01*
X14450006Y635000D02*
X13997993Y635000D01*
X16256910Y635000D02*
X14731089Y635000D01*
X16990006Y635000D02*
X16537993Y635000D01*
X18796910Y635000D02*
X17271089Y635000D01*
X19530006Y635000D02*
X19077993Y635000D01*
X21336910Y635000D02*
X19811089Y635000D01*
X22070006Y635000D02*
X21617993Y635000D01*
X23876910Y635000D02*
X22351089Y635000D01*
X24610006Y635000D02*
X24157993Y635000D01*
X28352670Y635000D02*
X24891089Y635000D01*
X29052391Y635000D02*
X28605608Y635000D01*
X91363800Y635000D02*
X29305329Y635000D01*
X91363800Y533400D02*
X76200Y533400D01*
X91363800Y431800D02*
X76200Y431800D01*
X91363800Y330200D02*
X76200Y330200D01*
X91363800Y228600D02*
X76200Y228600D01*
X91363800Y127000D02*
X76200Y127000D01*
X91363800Y76200D02*
X76200Y76200D01*
X76200Y1601774D01*
X795400Y1601774D01*
X795400Y1573226D01*
X850861Y1294403D01*
X1008802Y1058028D01*
X1245177Y900087D01*
X1524000Y844626D01*
X1802823Y900087D01*
X2039198Y1058028D01*
X2163845Y1244576D01*
X3035442Y1244576D01*
X3244968Y877067D01*
X3579184Y617716D01*
X3721079Y558960D01*
X3886200Y666353D01*
X3886200Y1409700D01*
X4241800Y1409700D01*
X4241800Y666353D01*
X4406921Y558960D01*
X4548816Y617716D01*
X4883032Y877067D01*
X5092558Y1244576D01*
X5575442Y1244576D01*
X5784968Y877067D01*
X6119184Y617716D01*
X6261079Y558960D01*
X6426200Y666353D01*
X6426200Y1409700D01*
X6781800Y1409700D01*
X6781800Y666353D01*
X6946921Y558960D01*
X7088816Y617716D01*
X7423032Y877067D01*
X7632558Y1244576D01*
X8115442Y1244576D01*
X8324968Y877067D01*
X8659184Y617716D01*
X8801079Y558960D01*
X8966200Y666353D01*
X8966200Y1409700D01*
X9321800Y1409700D01*
X9321800Y666353D01*
X9486921Y558960D01*
X9628816Y617716D01*
X9963032Y877067D01*
X10172558Y1244576D01*
X10655442Y1244576D01*
X10864968Y877067D01*
X11199184Y617716D01*
X11341079Y558960D01*
X11506200Y666353D01*
X11506200Y1409700D01*
X11861800Y1409700D01*
X11861800Y666353D01*
X12026921Y558960D01*
X12168816Y617716D01*
X12503032Y877067D01*
X12712558Y1244576D01*
X13195442Y1244576D01*
X13404968Y877067D01*
X13739184Y617716D01*
X13881079Y558960D01*
X14046200Y666353D01*
X14046200Y1409700D01*
X14401800Y1409700D01*
X14401800Y666353D01*
X14566921Y558960D01*
X14708816Y617716D01*
X15043032Y877067D01*
X15252558Y1244576D01*
X15735442Y1244576D01*
X15944968Y877067D01*
X16279184Y617716D01*
X16421079Y558960D01*
X16586200Y666353D01*
X16586200Y1409700D01*
X16941800Y1409700D01*
X16941800Y666353D01*
X17106921Y558960D01*
X17248816Y617716D01*
X17583032Y877067D01*
X17792558Y1244576D01*
X18275442Y1244576D01*
X18484968Y877067D01*
X18819184Y617716D01*
X18961079Y558960D01*
X19126200Y666353D01*
X19126200Y1409700D01*
X19481800Y1409700D01*
X19481800Y666353D01*
X19646921Y558960D01*
X19788816Y617716D01*
X20123032Y877067D01*
X20332558Y1244576D01*
X20815442Y1244576D01*
X21024968Y877067D01*
X21359184Y617716D01*
X21501079Y558960D01*
X21666200Y666353D01*
X21666200Y1409700D01*
X22021800Y1409700D01*
X22021800Y666353D01*
X22186921Y558960D01*
X22328816Y617716D01*
X22663032Y877067D01*
X22872558Y1244576D01*
X23355442Y1244576D01*
X23564968Y877067D01*
X23899184Y617716D01*
X24041079Y558960D01*
X24206200Y666353D01*
X24206200Y1409700D01*
X24561800Y1409700D01*
X24561800Y666353D01*
X24726921Y558960D01*
X24868816Y617716D01*
X25203032Y877067D01*
X25412558Y1244576D01*
X25412557Y1244579D01*
X27800460Y1244579D01*
X27859216Y1102684D01*
X28118567Y768468D01*
X28486076Y558942D01*
X28651200Y664010D01*
X28651200Y1409700D01*
X29006800Y1409700D01*
X29006800Y664010D01*
X29171924Y558942D01*
X29539433Y768468D01*
X29798784Y1102684D01*
X29857540Y1244579D01*
X29750147Y1409700D01*
X29006800Y1409700D01*
X28651200Y1409700D01*
X27907853Y1409700D01*
X27800460Y1244579D01*
X25412557Y1244579D01*
X25307490Y1409700D01*
X24561800Y1409700D01*
X24206200Y1409700D01*
X23460510Y1409700D01*
X23355442Y1244576D01*
X22872558Y1244576D01*
X22767490Y1409700D01*
X22021800Y1409700D01*
X21666200Y1409700D01*
X20920510Y1409700D01*
X20815442Y1244576D01*
X20332558Y1244576D01*
X20227490Y1409700D01*
X19481800Y1409700D01*
X19126200Y1409700D01*
X18380510Y1409700D01*
X18275442Y1244576D01*
X17792558Y1244576D01*
X17687490Y1409700D01*
X16941800Y1409700D01*
X16586200Y1409700D01*
X15840510Y1409700D01*
X15735442Y1244576D01*
X15252558Y1244576D01*
X15147490Y1409700D01*
X14401800Y1409700D01*
X14046200Y1409700D01*
X13300510Y1409700D01*
X13195442Y1244576D01*
X12712558Y1244576D01*
X12607490Y1409700D01*
X11861800Y1409700D01*
X11506200Y1409700D01*
X10760510Y1409700D01*
X10655442Y1244576D01*
X10172558Y1244576D01*
X10067490Y1409700D01*
X9321800Y1409700D01*
X8966200Y1409700D01*
X8220510Y1409700D01*
X8115442Y1244576D01*
X7632558Y1244576D01*
X7527490Y1409700D01*
X6781800Y1409700D01*
X6426200Y1409700D01*
X5680510Y1409700D01*
X5575442Y1244576D01*
X5092558Y1244576D01*
X4987490Y1409700D01*
X4241800Y1409700D01*
X3886200Y1409700D01*
X3140510Y1409700D01*
X3035442Y1244576D01*
X2163845Y1244576D01*
X2197139Y1294403D01*
X2252600Y1573226D01*
X2252600Y1601774D01*
X2197139Y1880597D01*
X2163846Y1930424D01*
X3035442Y1930424D01*
X3140510Y1765300D01*
X3886200Y1765300D01*
X3886200Y2508647D01*
X4241800Y2508647D01*
X4241800Y1765300D01*
X4987490Y1765300D01*
X5092558Y1930424D01*
X5575442Y1930424D01*
X5680510Y1765300D01*
X6426200Y1765300D01*
X6426200Y2508647D01*
X6781800Y2508647D01*
X6781800Y1765300D01*
X7527490Y1765300D01*
X7632558Y1930424D01*
X7423032Y2297933D01*
X7088816Y2557284D01*
X6946921Y2616040D01*
X6781800Y2508647D01*
X6426200Y2508647D01*
X6261079Y2616040D01*
X6119184Y2557284D01*
X5784968Y2297933D01*
X5575442Y1930424D01*
X5092558Y1930424D01*
X4883032Y2297933D01*
X4548816Y2557284D01*
X4406921Y2616040D01*
X4241800Y2508647D01*
X3886200Y2508647D01*
X3721079Y2616040D01*
X3579184Y2557284D01*
X3244968Y2297933D01*
X3035442Y1930424D01*
X2163846Y1930424D01*
X2039198Y2116972D01*
X1802823Y2274913D01*
X1524000Y2330374D01*
X1245177Y2274913D01*
X1008802Y2116972D01*
X850861Y1880597D01*
X795400Y1601774D01*
X76200Y1601774D01*
X76200Y2895600D01*
X7264400Y2895600D01*
X7310803Y2662316D01*
X7442948Y2464548D01*
X7640716Y2332403D01*
X7874000Y2286000D01*
X8318165Y2286000D01*
X8115442Y1930424D01*
X8220510Y1765300D01*
X8966200Y1765300D01*
X8966200Y1785300D01*
X9321800Y1785300D01*
X9321800Y1765300D01*
X10067490Y1765300D01*
X10172558Y1930424D01*
X9969835Y2286000D01*
X10858165Y2286000D01*
X10655442Y1930424D01*
X10760510Y1765300D01*
X11506200Y1765300D01*
X11506200Y1785300D01*
X11861800Y1785300D01*
X11861800Y1765300D01*
X12607490Y1765300D01*
X12712558Y1930424D01*
X12509835Y2286000D01*
X13398165Y2286000D01*
X13195442Y1930424D01*
X13300510Y1765300D01*
X14046200Y1765300D01*
X14046200Y1785300D01*
X14401800Y1785300D01*
X14401800Y1765300D01*
X15147490Y1765300D01*
X15252558Y1930424D01*
X15735442Y1930424D01*
X15840510Y1765300D01*
X16586200Y1765300D01*
X16586200Y2508647D01*
X16941800Y2508647D01*
X16941800Y1765300D01*
X17687490Y1765300D01*
X17792558Y1930424D01*
X18275442Y1930424D01*
X18380510Y1765300D01*
X19126200Y1765300D01*
X19126200Y2508647D01*
X19481800Y2508647D01*
X19481800Y1765300D01*
X20227490Y1765300D01*
X20332558Y1930424D01*
X20815442Y1930424D01*
X20920510Y1765300D01*
X21666200Y1765300D01*
X21666200Y2508647D01*
X22021800Y2508647D01*
X22021800Y1765300D01*
X22767490Y1765300D01*
X22872558Y1930424D01*
X23355442Y1930424D01*
X23460510Y1765300D01*
X24206200Y1765300D01*
X24206200Y2508647D01*
X24561800Y2508647D01*
X24561800Y1765300D01*
X25307490Y1765300D01*
X25412556Y1930421D01*
X27800460Y1930421D01*
X27907853Y1765300D01*
X28651200Y1765300D01*
X28651200Y2510990D01*
X29006800Y2510990D01*
X29006800Y1765300D01*
X29750147Y1765300D01*
X29857540Y1930421D01*
X29798784Y2072316D01*
X29539433Y2406532D01*
X29171924Y2616058D01*
X29006800Y2510990D01*
X28651200Y2510990D01*
X28486076Y2616058D01*
X28118567Y2406532D01*
X27859216Y2072316D01*
X27800460Y1930421D01*
X25412556Y1930421D01*
X25412558Y1930424D01*
X25203032Y2297933D01*
X24868816Y2557284D01*
X24726921Y2616040D01*
X24561800Y2508647D01*
X24206200Y2508647D01*
X24041079Y2616040D01*
X23899184Y2557284D01*
X23564968Y2297933D01*
X23355442Y1930424D01*
X22872558Y1930424D01*
X22663032Y2297933D01*
X22328816Y2557284D01*
X22186921Y2616040D01*
X22021800Y2508647D01*
X21666200Y2508647D01*
X21501079Y2616040D01*
X21359184Y2557284D01*
X21024968Y2297933D01*
X20815442Y1930424D01*
X20332558Y1930424D01*
X20123032Y2297933D01*
X19788816Y2557284D01*
X19646921Y2616040D01*
X19481800Y2508647D01*
X19126200Y2508647D01*
X18961079Y2616040D01*
X18819184Y2557284D01*
X18484968Y2297933D01*
X18275442Y1930424D01*
X17792558Y1930424D01*
X17583032Y2297933D01*
X17248816Y2557284D01*
X17106921Y2616040D01*
X16941800Y2508647D01*
X16586200Y2508647D01*
X16421079Y2616040D01*
X16279184Y2557284D01*
X15944968Y2297933D01*
X15735442Y1930424D01*
X15252558Y1930424D01*
X15049835Y2286000D01*
X15494000Y2286000D01*
X15727284Y2332403D01*
X15925052Y2464548D01*
X16057197Y2662316D01*
X16103600Y2895600D01*
X16057197Y3128884D01*
X15925052Y3326652D01*
X15727284Y3458797D01*
X15494000Y3505200D01*
X14600271Y3505200D01*
X14739198Y3598028D01*
X14897139Y3834403D01*
X14952600Y4113226D01*
X14952600Y4141774D01*
X16035400Y4141774D01*
X16035400Y4113226D01*
X16090861Y3834403D01*
X16248802Y3598028D01*
X16485177Y3440087D01*
X16764000Y3384626D01*
X17042823Y3440087D01*
X17279198Y3598028D01*
X17437139Y3834403D01*
X17492600Y4113226D01*
X17492600Y4141774D01*
X18575400Y4141774D01*
X18575400Y4113226D01*
X18630861Y3834403D01*
X18788802Y3598028D01*
X19025177Y3440087D01*
X19304000Y3384626D01*
X19582823Y3440087D01*
X19819198Y3598028D01*
X19977139Y3834403D01*
X20032600Y4113226D01*
X20032600Y4141774D01*
X21115400Y4141774D01*
X21115400Y4113226D01*
X21170861Y3834403D01*
X21328802Y3598028D01*
X21565177Y3440087D01*
X21844000Y3384626D01*
X22122823Y3440087D01*
X22359198Y3598028D01*
X22517139Y3834403D01*
X22572600Y4113226D01*
X22572600Y4141774D01*
X23655400Y4141774D01*
X23655400Y4113226D01*
X23710861Y3834403D01*
X23868802Y3598028D01*
X24105177Y3440087D01*
X24384000Y3384626D01*
X24662823Y3440087D01*
X24899198Y3598028D01*
X25057139Y3834403D01*
X25112600Y4113226D01*
X25112600Y4141774D01*
X25057139Y4420597D01*
X24918891Y4627500D01*
X28095922Y4627500D01*
X28095922Y3627500D01*
X28111862Y3542786D01*
X28161928Y3464982D01*
X28238320Y3412785D01*
X28329000Y3394422D01*
X29329000Y3394422D01*
X29413714Y3410362D01*
X29491518Y3460428D01*
X29543715Y3536820D01*
X29562078Y3627500D01*
X29562078Y4627500D01*
X29546138Y4712214D01*
X29496072Y4790018D01*
X29419680Y4842215D01*
X29329000Y4860578D01*
X28329000Y4860578D01*
X28244286Y4844638D01*
X28166482Y4794572D01*
X28114285Y4718180D01*
X28095922Y4627500D01*
X24918891Y4627500D01*
X24899198Y4656972D01*
X24662823Y4814913D01*
X24384000Y4870374D01*
X24105177Y4814913D01*
X23868802Y4656972D01*
X23710861Y4420597D01*
X23655400Y4141774D01*
X22572600Y4141774D01*
X22517139Y4420597D01*
X22359198Y4656972D01*
X22122823Y4814913D01*
X21844000Y4870374D01*
X21565177Y4814913D01*
X21328802Y4656972D01*
X21170861Y4420597D01*
X21115400Y4141774D01*
X20032600Y4141774D01*
X19977139Y4420597D01*
X19819198Y4656972D01*
X19582823Y4814913D01*
X19304000Y4870374D01*
X19025177Y4814913D01*
X18788802Y4656972D01*
X18630861Y4420597D01*
X18575400Y4141774D01*
X17492600Y4141774D01*
X17437139Y4420597D01*
X17279198Y4656972D01*
X17042823Y4814913D01*
X16764000Y4870374D01*
X16485177Y4814913D01*
X16248802Y4656972D01*
X16090861Y4420597D01*
X16035400Y4141774D01*
X14952600Y4141774D01*
X14897139Y4420597D01*
X14739198Y4656972D01*
X14502823Y4814913D01*
X14224000Y4870374D01*
X13945177Y4814913D01*
X13708802Y4656972D01*
X13550861Y4420597D01*
X13495400Y4141774D01*
X13495400Y4113226D01*
X13550861Y3834403D01*
X13708802Y3598028D01*
X13847729Y3505200D01*
X12060271Y3505200D01*
X12199198Y3598028D01*
X12357139Y3834403D01*
X12412600Y4113226D01*
X12412600Y4141774D01*
X12357139Y4420597D01*
X12199198Y4656972D01*
X11962823Y4814913D01*
X11684000Y4870374D01*
X11405177Y4814913D01*
X11168802Y4656972D01*
X11010861Y4420597D01*
X10955400Y4141774D01*
X10955400Y4113226D01*
X11010861Y3834403D01*
X11168802Y3598028D01*
X11307729Y3505200D01*
X9520271Y3505200D01*
X9659198Y3598028D01*
X9817139Y3834403D01*
X9872600Y4113226D01*
X9872600Y4141774D01*
X9817139Y4420597D01*
X9659198Y4656972D01*
X9422823Y4814913D01*
X9144000Y4870374D01*
X8865177Y4814913D01*
X8628802Y4656972D01*
X8470861Y4420597D01*
X8415400Y4141774D01*
X8415400Y4113226D01*
X8470861Y3834403D01*
X8628802Y3598028D01*
X8767729Y3505200D01*
X7874000Y3505200D01*
X7640716Y3458797D01*
X7442948Y3326652D01*
X7310803Y3128884D01*
X7264400Y2895600D01*
X76200Y2895600D01*
X76200Y4627500D01*
X790922Y4627500D01*
X790922Y3627500D01*
X806862Y3542786D01*
X856928Y3464982D01*
X933320Y3412785D01*
X1024000Y3394422D01*
X2024000Y3394422D01*
X2108714Y3410362D01*
X2186518Y3460428D01*
X2238715Y3536820D01*
X2257078Y3627500D01*
X2257078Y4141774D01*
X3335400Y4141774D01*
X3335400Y4113226D01*
X3390861Y3834403D01*
X3548802Y3598028D01*
X3785177Y3440087D01*
X4064000Y3384626D01*
X4342823Y3440087D01*
X4579198Y3598028D01*
X4737139Y3834403D01*
X4792600Y4113226D01*
X4792600Y4141774D01*
X5875400Y4141774D01*
X5875400Y4113226D01*
X5930861Y3834403D01*
X6088802Y3598028D01*
X6325177Y3440087D01*
X6604000Y3384626D01*
X6882823Y3440087D01*
X7119198Y3598028D01*
X7277139Y3834403D01*
X7332600Y4113226D01*
X7332600Y4141774D01*
X7277139Y4420597D01*
X7119198Y4656972D01*
X6882823Y4814913D01*
X6604000Y4870374D01*
X6325177Y4814913D01*
X6088802Y4656972D01*
X5930861Y4420597D01*
X5875400Y4141774D01*
X4792600Y4141774D01*
X4737139Y4420597D01*
X4579198Y4656972D01*
X4342823Y4814913D01*
X4064000Y4870374D01*
X3785177Y4814913D01*
X3548802Y4656972D01*
X3390861Y4420597D01*
X3335400Y4141774D01*
X2257078Y4141774D01*
X2257078Y4627500D01*
X2241138Y4712214D01*
X2191072Y4790018D01*
X2114680Y4842215D01*
X2024000Y4860578D01*
X1024000Y4860578D01*
X939286Y4844638D01*
X861482Y4794572D01*
X809285Y4718180D01*
X790922Y4627500D01*
X76200Y4627500D01*
X76200Y6159500D01*
X850900Y6159500D01*
X887636Y5974817D01*
X992250Y5818250D01*
X1004948Y5805553D01*
X1004950Y5805550D01*
X1140469Y5715000D01*
X1161517Y5700936D01*
X1346200Y5664199D01*
X1346205Y5664200D01*
X17881600Y5664200D01*
X18066283Y5700936D01*
X18222850Y5805550D01*
X18327464Y5962117D01*
X18364200Y6146800D01*
X18331359Y6311900D01*
X20574000Y6311900D01*
X20758683Y6348636D01*
X20915250Y6453250D01*
X21019864Y6609817D01*
X21056600Y6794500D01*
X21019864Y6979183D01*
X20915250Y7135750D01*
X20758683Y7240364D01*
X20574000Y7277100D01*
X4064000Y7277100D01*
X3879317Y7240364D01*
X3722750Y7135750D01*
X3618136Y6979183D01*
X3581400Y6794500D01*
X3614241Y6629400D01*
X1397347Y6629400D01*
X1333500Y6642100D01*
X1148817Y6605364D01*
X992250Y6500750D01*
X887636Y6344183D01*
X850900Y6159500D01*
X76200Y6159500D01*
X76200Y14143208D01*
X795274Y14143208D01*
X905963Y13875321D01*
X1110742Y13670183D01*
X1378437Y13559027D01*
X1668292Y13558774D01*
X1936179Y13669463D01*
X2141317Y13874242D01*
X2252473Y14141937D01*
X2252640Y14333640D01*
X5914900Y17995900D01*
X7089901Y17995900D01*
X4054609Y14960609D01*
X3930699Y14960717D01*
X3683217Y14858459D01*
X3493706Y14669278D01*
X3391017Y14421975D01*
X3390783Y14154199D01*
X3493041Y13906717D01*
X3682222Y13717206D01*
X3929525Y13614517D01*
X4197301Y13614283D01*
X4444783Y13716541D01*
X4634294Y13905722D01*
X4736983Y14153025D01*
X4736984Y14154199D01*
X11010783Y14154199D01*
X11113041Y13906717D01*
X11302222Y13717206D01*
X11549525Y13614517D01*
X11817301Y13614283D01*
X12064783Y13716541D01*
X12254294Y13905722D01*
X12356983Y14153025D01*
X12356984Y14154199D01*
X13550783Y14154199D01*
X13653041Y13906717D01*
X13842222Y13717206D01*
X14089525Y13614517D01*
X14357301Y13614283D01*
X14604783Y13716541D01*
X14794294Y13905722D01*
X14896983Y14153025D01*
X14896984Y14154199D01*
X18630783Y14154199D01*
X18733041Y13906717D01*
X18922222Y13717206D01*
X19169525Y13614517D01*
X19437301Y13614283D01*
X19684783Y13716541D01*
X19874294Y13905722D01*
X19976983Y14153025D01*
X19976984Y14154199D01*
X32600783Y14154199D01*
X32703041Y13906717D01*
X32892222Y13717206D01*
X33139525Y13614517D01*
X33407301Y13614283D01*
X33654783Y13716541D01*
X33844294Y13905722D01*
X33946983Y14153025D01*
X33946984Y14154199D01*
X35140783Y14154199D01*
X35243041Y13906717D01*
X35432222Y13717206D01*
X35679525Y13614517D01*
X35947301Y13614283D01*
X36194783Y13716541D01*
X36384294Y13905722D01*
X36486983Y14153025D01*
X36486984Y14154199D01*
X37680783Y14154199D01*
X37783041Y13906717D01*
X37972222Y13717206D01*
X38219525Y13614517D01*
X38487301Y13614283D01*
X38734783Y13716541D01*
X38924294Y13905722D01*
X39026983Y14153025D01*
X39026984Y14154199D01*
X40220783Y14154199D01*
X40323041Y13906717D01*
X40512222Y13717206D01*
X40759525Y13614517D01*
X41027301Y13614283D01*
X41274783Y13716541D01*
X41464294Y13905722D01*
X41566983Y14153025D01*
X41566984Y14154199D01*
X42760783Y14154199D01*
X42863041Y13906717D01*
X43052222Y13717206D01*
X43299525Y13614517D01*
X43567301Y13614283D01*
X43814783Y13716541D01*
X44004294Y13905722D01*
X44106983Y14153025D01*
X44106984Y14154199D01*
X45300783Y14154199D01*
X45403041Y13906717D01*
X45592222Y13717206D01*
X45839525Y13614517D01*
X46107301Y13614283D01*
X46354783Y13716541D01*
X46544294Y13905722D01*
X46646983Y14153025D01*
X46646984Y14154199D01*
X47840783Y14154199D01*
X47943041Y13906717D01*
X48132222Y13717206D01*
X48379525Y13614517D01*
X48647301Y13614283D01*
X48894783Y13716541D01*
X49084294Y13905722D01*
X49186983Y14153025D01*
X49186984Y14154199D01*
X50380783Y14154199D01*
X50483041Y13906717D01*
X50672222Y13717206D01*
X50919525Y13614517D01*
X51187301Y13614283D01*
X51434783Y13716541D01*
X51624294Y13905722D01*
X51726983Y14153025D01*
X51727217Y14420801D01*
X51624959Y14668283D01*
X51435778Y14857794D01*
X51188475Y14960483D01*
X50920699Y14960717D01*
X50673217Y14858459D01*
X50483706Y14669278D01*
X50381017Y14421975D01*
X50380783Y14154199D01*
X49186984Y14154199D01*
X49187217Y14420801D01*
X49084959Y14668283D01*
X48895778Y14857794D01*
X48648475Y14960483D01*
X48380699Y14960717D01*
X48133217Y14858459D01*
X47943706Y14669278D01*
X47841017Y14421975D01*
X47840783Y14154199D01*
X46646984Y14154199D01*
X46647217Y14420801D01*
X46544959Y14668283D01*
X46355778Y14857794D01*
X46108475Y14960483D01*
X45840699Y14960717D01*
X45593217Y14858459D01*
X45403706Y14669278D01*
X45301017Y14421975D01*
X45300783Y14154199D01*
X44106984Y14154199D01*
X44107217Y14420801D01*
X44004959Y14668283D01*
X43815778Y14857794D01*
X43568475Y14960483D01*
X43300699Y14960717D01*
X43053217Y14858459D01*
X42863706Y14669278D01*
X42761017Y14421975D01*
X42760783Y14154199D01*
X41566984Y14154199D01*
X41567217Y14420801D01*
X41464959Y14668283D01*
X41275778Y14857794D01*
X41028475Y14960483D01*
X40760699Y14960717D01*
X40513217Y14858459D01*
X40323706Y14669278D01*
X40221017Y14421975D01*
X40220783Y14154199D01*
X39026984Y14154199D01*
X39027217Y14420801D01*
X38924959Y14668283D01*
X38735778Y14857794D01*
X38488475Y14960483D01*
X38220699Y14960717D01*
X37973217Y14858459D01*
X37783706Y14669278D01*
X37681017Y14421975D01*
X37680783Y14154199D01*
X36486984Y14154199D01*
X36487217Y14420801D01*
X36384959Y14668283D01*
X36195778Y14857794D01*
X35948475Y14960483D01*
X35680699Y14960717D01*
X35433217Y14858459D01*
X35243706Y14669278D01*
X35141017Y14421975D01*
X35140783Y14154199D01*
X33946984Y14154199D01*
X33947217Y14420801D01*
X33844959Y14668283D01*
X33655778Y14857794D01*
X33408475Y14960483D01*
X33140699Y14960717D01*
X32893217Y14858459D01*
X32703706Y14669278D01*
X32601017Y14421975D01*
X32600783Y14154199D01*
X19976984Y14154199D01*
X19977217Y14420801D01*
X19874959Y14668283D01*
X19685778Y14857794D01*
X19438475Y14960483D01*
X19170699Y14960717D01*
X18923217Y14858459D01*
X18733706Y14669278D01*
X18631017Y14421975D01*
X18630783Y14154199D01*
X14896984Y14154199D01*
X14897217Y14420801D01*
X14794959Y14668283D01*
X14605778Y14857794D01*
X14358475Y14960483D01*
X14090699Y14960717D01*
X13843217Y14858459D01*
X13653706Y14669278D01*
X13551017Y14421975D01*
X13550783Y14154199D01*
X12356984Y14154199D01*
X12357217Y14420801D01*
X12254959Y14668283D01*
X12065778Y14857794D01*
X11818475Y14960483D01*
X11550699Y14960717D01*
X11303217Y14858459D01*
X11113706Y14669278D01*
X11011017Y14421975D01*
X11010783Y14154199D01*
X4736984Y14154199D01*
X4737092Y14278092D01*
X7819897Y17360898D01*
X23494998Y17360898D01*
X23679681Y17397634D01*
X23767144Y17456075D01*
X65646194Y17456075D01*
X65738805Y17231940D01*
X65910138Y17060307D01*
X66134111Y16967306D01*
X66376625Y16967094D01*
X66600760Y17059705D01*
X66772393Y17231038D01*
X66865394Y17455011D01*
X66865394Y17456075D01*
X67652794Y17456075D01*
X67745405Y17231940D01*
X67916738Y17060307D01*
X68140711Y16967306D01*
X68383225Y16967094D01*
X68607360Y17059705D01*
X68778993Y17231038D01*
X68871994Y17455011D01*
X68871994Y17456075D01*
X69659394Y17456075D01*
X69752005Y17231940D01*
X69923338Y17060307D01*
X70147311Y16967306D01*
X70389825Y16967094D01*
X70613960Y17059705D01*
X70785593Y17231038D01*
X70878594Y17455011D01*
X70878594Y17456075D01*
X71665994Y17456075D01*
X71758605Y17231940D01*
X71929938Y17060307D01*
X72153911Y16967306D01*
X72396425Y16967094D01*
X72620560Y17059705D01*
X72792193Y17231038D01*
X72885194Y17455011D01*
X72885194Y17456075D01*
X73672594Y17456075D01*
X73765205Y17231940D01*
X73936538Y17060307D01*
X74160511Y16967306D01*
X74403025Y16967094D01*
X74627160Y17059705D01*
X74798793Y17231038D01*
X74891794Y17455011D01*
X74891794Y17456075D01*
X75679194Y17456075D01*
X75771805Y17231940D01*
X75943138Y17060307D01*
X76167111Y16967306D01*
X76409625Y16967094D01*
X76633760Y17059705D01*
X76805393Y17231038D01*
X76898394Y17455011D01*
X76898394Y17456075D01*
X77685794Y17456075D01*
X77778405Y17231940D01*
X77949738Y17060307D01*
X78173711Y16967306D01*
X78416225Y16967094D01*
X78640360Y17059705D01*
X78811993Y17231038D01*
X78904994Y17455011D01*
X78904994Y17456075D01*
X79692394Y17456075D01*
X79785005Y17231940D01*
X79956338Y17060307D01*
X80180311Y16967306D01*
X80422825Y16967094D01*
X80646960Y17059705D01*
X80818593Y17231038D01*
X80911594Y17455011D01*
X80911594Y17456075D01*
X81698994Y17456075D01*
X81791605Y17231940D01*
X81962938Y17060307D01*
X82186911Y16967306D01*
X82429425Y16967094D01*
X82653560Y17059705D01*
X82825193Y17231038D01*
X82918194Y17455011D01*
X82918194Y17456075D01*
X83705594Y17456075D01*
X83798205Y17231940D01*
X83969538Y17060307D01*
X84193511Y16967306D01*
X84436025Y16967094D01*
X84660160Y17059705D01*
X84831793Y17231038D01*
X84924794Y17455011D01*
X84925006Y17697525D01*
X84832395Y17921660D01*
X84661062Y18093293D01*
X84437089Y18186294D01*
X84194575Y18186506D01*
X83970440Y18093895D01*
X83798807Y17922562D01*
X83705806Y17698589D01*
X83705594Y17456075D01*
X82918194Y17456075D01*
X82918406Y17697525D01*
X82825795Y17921660D01*
X82654462Y18093293D01*
X82430489Y18186294D01*
X82187975Y18186506D01*
X81963840Y18093895D01*
X81792207Y17922562D01*
X81699206Y17698589D01*
X81698994Y17456075D01*
X80911594Y17456075D01*
X80911806Y17697525D01*
X80819195Y17921660D01*
X80647862Y18093293D01*
X80423889Y18186294D01*
X80181375Y18186506D01*
X79957240Y18093895D01*
X79785607Y17922562D01*
X79692606Y17698589D01*
X79692394Y17456075D01*
X78904994Y17456075D01*
X78905206Y17697525D01*
X78812595Y17921660D01*
X78641262Y18093293D01*
X78417289Y18186294D01*
X78174775Y18186506D01*
X77950640Y18093895D01*
X77779007Y17922562D01*
X77686006Y17698589D01*
X77685794Y17456075D01*
X76898394Y17456075D01*
X76898606Y17697525D01*
X76805995Y17921660D01*
X76634662Y18093293D01*
X76410689Y18186294D01*
X76168175Y18186506D01*
X75944040Y18093895D01*
X75772407Y17922562D01*
X75679406Y17698589D01*
X75679194Y17456075D01*
X74891794Y17456075D01*
X74892006Y17697525D01*
X74799395Y17921660D01*
X74628062Y18093293D01*
X74404089Y18186294D01*
X74161575Y18186506D01*
X73937440Y18093895D01*
X73765807Y17922562D01*
X73672806Y17698589D01*
X73672594Y17456075D01*
X72885194Y17456075D01*
X72885406Y17697525D01*
X72792795Y17921660D01*
X72621462Y18093293D01*
X72397489Y18186294D01*
X72154975Y18186506D01*
X71930840Y18093895D01*
X71759207Y17922562D01*
X71666206Y17698589D01*
X71665994Y17456075D01*
X70878594Y17456075D01*
X70878806Y17697525D01*
X70786195Y17921660D01*
X70614862Y18093293D01*
X70390889Y18186294D01*
X70148375Y18186506D01*
X69924240Y18093895D01*
X69752607Y17922562D01*
X69659606Y17698589D01*
X69659394Y17456075D01*
X68871994Y17456075D01*
X68872206Y17697525D01*
X68779595Y17921660D01*
X68608262Y18093293D01*
X68384289Y18186294D01*
X68141775Y18186506D01*
X67917640Y18093895D01*
X67746007Y17922562D01*
X67653006Y17698589D01*
X67652794Y17456075D01*
X66865394Y17456075D01*
X66865606Y17697525D01*
X66772995Y17921660D01*
X66601662Y18093293D01*
X66377689Y18186294D01*
X66135175Y18186506D01*
X65911040Y18093895D01*
X65739407Y17922562D01*
X65646406Y17698589D01*
X65646194Y17456075D01*
X23767144Y17456075D01*
X23836248Y17502248D01*
X24922208Y18588208D01*
X50325274Y18588208D01*
X50435963Y18320321D01*
X50640742Y18115183D01*
X50908437Y18004027D01*
X51198292Y18003774D01*
X51466179Y18114463D01*
X51671317Y18319242D01*
X51782473Y18586937D01*
X51782726Y18876792D01*
X51672037Y19144679D01*
X51467258Y19349817D01*
X51199563Y19460973D01*
X50909708Y19461226D01*
X50641821Y19350537D01*
X50436683Y19145758D01*
X50325527Y18878063D01*
X50325274Y18588208D01*
X24922208Y18588208D01*
X25296750Y18962750D01*
X25401364Y19119317D01*
X25438101Y19304000D01*
X25438100Y19304005D01*
X25438100Y20700995D01*
X25438101Y20701000D01*
X25401364Y20885683D01*
X25296750Y21042250D01*
X25210792Y21128208D01*
X50325274Y21128208D01*
X50435963Y20860321D01*
X50640742Y20655183D01*
X50908437Y20544027D01*
X51198292Y20543774D01*
X51466179Y20654463D01*
X51671317Y20859242D01*
X51782473Y21126937D01*
X51782726Y21416792D01*
X51672037Y21684679D01*
X51467258Y21889817D01*
X51199563Y22000973D01*
X50909708Y22001226D01*
X50641821Y21890537D01*
X50436683Y21685758D01*
X50325527Y21418063D01*
X50325274Y21128208D01*
X25210792Y21128208D01*
X24105078Y22233922D01*
X24105078Y22483000D01*
X24089138Y22567714D01*
X24039072Y22645518D01*
X23962680Y22697715D01*
X23872000Y22716078D01*
X23372000Y22716078D01*
X23337078Y22709507D01*
X23337078Y22955000D01*
X23321138Y23039714D01*
X23271072Y23117518D01*
X23194680Y23169715D01*
X23104000Y23188078D01*
X22579422Y23188078D01*
X22502750Y23264750D01*
X22346183Y23369364D01*
X22161500Y23406100D01*
X21976817Y23369364D01*
X21820250Y23264750D01*
X21750135Y23159814D01*
X21691482Y23122072D01*
X21639285Y23045680D01*
X21620922Y22955000D01*
X21620922Y21455000D01*
X21636862Y21370286D01*
X21686928Y21292482D01*
X21763320Y21240285D01*
X21854000Y21221922D01*
X23104000Y21221922D01*
X23188714Y21237862D01*
X23266518Y21287928D01*
X23318715Y21364320D01*
X23337078Y21455000D01*
X23337078Y21636922D01*
X23790400Y21183600D01*
X17790128Y21183600D01*
X17729118Y21208933D01*
X17577547Y21209066D01*
X17437463Y21151184D01*
X17330192Y21044101D01*
X17272067Y20904118D01*
X17271934Y20752547D01*
X17329816Y20612463D01*
X17436899Y20505192D01*
X17576882Y20447067D01*
X17728453Y20446934D01*
X17790085Y20472400D01*
X21624446Y20472400D01*
X21620922Y20455000D01*
X21620922Y20263187D01*
X21463000Y20294600D01*
X21278317Y20257864D01*
X21121750Y20153250D01*
X21017136Y19996683D01*
X20980400Y19812000D01*
X21017136Y19627317D01*
X21121750Y19470750D01*
X21228750Y19363750D01*
X21385317Y19259136D01*
X21570000Y19222400D01*
X21620922Y19222400D01*
X21620922Y18961100D01*
X5715000Y18961100D01*
X5530317Y18924364D01*
X5373750Y18819750D01*
X1570060Y15016060D01*
X1379708Y15016226D01*
X1111821Y14905537D01*
X906683Y14700758D01*
X795527Y14433063D01*
X795274Y14143208D01*
X76200Y14143208D01*
X76200Y21635645D01*
X5635092Y21635645D01*
X5676651Y21442354D01*
X6086805Y21329661D01*
X6508865Y21382506D01*
X6653349Y21442354D01*
X6694908Y21635645D01*
X6165000Y22165553D01*
X5635092Y21635645D01*
X76200Y21635645D01*
X76200Y22495195D01*
X5077661Y22495195D01*
X5130506Y22073135D01*
X5190354Y21928651D01*
X5383645Y21887092D01*
X5913553Y22417000D01*
X6416447Y22417000D01*
X6946355Y21887092D01*
X7139646Y21928651D01*
X7252339Y22338805D01*
X7199494Y22760865D01*
X7139646Y22905349D01*
X6946355Y22946908D01*
X6416447Y22417000D01*
X5913553Y22417000D01*
X5383645Y22946908D01*
X5190354Y22905349D01*
X5077661Y22495195D01*
X76200Y22495195D01*
X76200Y23198355D01*
X5635092Y23198355D01*
X6165000Y22668447D01*
X6694908Y23198355D01*
X6653349Y23391646D01*
X6243195Y23504339D01*
X5821135Y23451494D01*
X5676651Y23391646D01*
X5635092Y23198355D01*
X76200Y23198355D01*
X76200Y25650000D01*
X23575422Y25650000D01*
X23575422Y25150000D01*
X23591362Y25065286D01*
X23625900Y25011613D01*
X23625900Y24957561D01*
X23620636Y24949683D01*
X23583900Y24765000D01*
X23620636Y24580317D01*
X23725250Y24423750D01*
X23881817Y24319136D01*
X24066500Y24282400D01*
X24251183Y24319136D01*
X24407750Y24423750D01*
X24449750Y24465750D01*
X24554364Y24622317D01*
X24581949Y24761000D01*
X25416922Y24761000D01*
X25416922Y24261000D01*
X25432862Y24176286D01*
X25482928Y24098482D01*
X25559320Y24046285D01*
X25650000Y24027922D01*
X26250000Y24027922D01*
X26334714Y24043862D01*
X26359377Y24059732D01*
X26369463Y24035321D01*
X26574242Y23830183D01*
X26841937Y23719027D01*
X27131792Y23718774D01*
X27399679Y23829463D01*
X27604817Y24034242D01*
X27715973Y24301937D01*
X27716226Y24591792D01*
X27605537Y24859679D01*
X27400758Y25064817D01*
X27133063Y25175973D01*
X26843208Y25176226D01*
X26575321Y25065537D01*
X26423323Y24913805D01*
X26417072Y24923518D01*
X26340680Y24975715D01*
X26250000Y24994078D01*
X25650000Y24994078D01*
X25565286Y24978138D01*
X25487482Y24928072D01*
X25435285Y24851680D01*
X25416922Y24761000D01*
X24581949Y24761000D01*
X24591100Y24807000D01*
X24591100Y25012319D01*
X24623215Y25059320D01*
X24641578Y25150000D01*
X24641578Y25650000D01*
X24625638Y25734714D01*
X24575572Y25812518D01*
X24499180Y25864715D01*
X24408500Y25883078D01*
X23808500Y25883078D01*
X23723786Y25867138D01*
X23645982Y25817072D01*
X23593785Y25740680D01*
X23575422Y25650000D01*
X76200Y25650000D01*
X76200Y30395645D01*
X5635092Y30395645D01*
X5676651Y30202354D01*
X6086805Y30089661D01*
X6508865Y30142506D01*
X6653349Y30202354D01*
X6694908Y30395645D01*
X6165000Y30925553D01*
X5635092Y30395645D01*
X76200Y30395645D01*
X76200Y31255195D01*
X5077661Y31255195D01*
X5130506Y30833135D01*
X5190354Y30688651D01*
X5383645Y30647092D01*
X5913553Y31177000D01*
X6416447Y31177000D01*
X6946355Y30647092D01*
X7139646Y30688651D01*
X7153205Y30738000D01*
X12089922Y30738000D01*
X12089922Y30138000D01*
X12105862Y30053286D01*
X12155928Y29975482D01*
X12232320Y29923285D01*
X12323000Y29904922D01*
X12823000Y29904922D01*
X12907714Y29920862D01*
X12948466Y29947085D01*
X12951428Y29942482D01*
X13027820Y29890285D01*
X13118500Y29871922D01*
X13644078Y29871922D01*
X13804900Y29711101D01*
X13804900Y27622500D01*
X13841636Y27437817D01*
X13946250Y27281250D01*
X14102817Y27176636D01*
X14287500Y27139900D01*
X14472183Y27176636D01*
X14628750Y27281250D01*
X14733364Y27437817D01*
X14770100Y27622500D01*
X14770100Y27669722D01*
X15236000Y27669722D01*
X15266533Y27675467D01*
X15773400Y27168601D01*
X15773400Y26352500D01*
X15810136Y26167817D01*
X15914750Y26011250D01*
X16071317Y25906636D01*
X16256000Y25869900D01*
X16440683Y25906636D01*
X16597250Y26011250D01*
X16701864Y26167817D01*
X16738600Y26352500D01*
X16738600Y26539000D01*
X25416922Y26539000D01*
X25416922Y26039000D01*
X25432862Y25954286D01*
X25482928Y25876482D01*
X25559320Y25824285D01*
X25650000Y25805922D01*
X26250000Y25805922D01*
X26334714Y25821862D01*
X26412518Y25871928D01*
X26420737Y25883957D01*
X26574242Y25730183D01*
X26841937Y25619027D01*
X27131792Y25618774D01*
X27399679Y25729463D01*
X27604817Y25934242D01*
X27715973Y26201937D01*
X27716226Y26491792D01*
X27605537Y26759679D01*
X27400758Y26964817D01*
X27133063Y27075973D01*
X26843208Y27076226D01*
X26575321Y26965537D01*
X26370183Y26760758D01*
X26361384Y26739568D01*
X26340680Y26753715D01*
X26250000Y26772078D01*
X25650000Y26772078D01*
X25565286Y26756138D01*
X25487482Y26706072D01*
X25435285Y26629680D01*
X25416922Y26539000D01*
X16738600Y26539000D01*
X16738600Y27368500D01*
X16701864Y27553183D01*
X16597250Y27709750D01*
X16597247Y27709752D01*
X15762950Y28544050D01*
X15606383Y28648664D01*
X15421700Y28685400D01*
X15373681Y28685400D01*
X15326680Y28717515D01*
X15236000Y28735878D01*
X14770100Y28735878D01*
X14770100Y28769722D01*
X15236000Y28769722D01*
X15320714Y28785662D01*
X15398518Y28835728D01*
X15450715Y28912120D01*
X15469078Y29002800D01*
X15469078Y29602800D01*
X15468600Y29605340D01*
X15468600Y29647600D01*
X15692922Y29871922D01*
X16218500Y29871922D01*
X16303214Y29887862D01*
X16381018Y29937928D01*
X16433215Y30014320D01*
X16451578Y30105000D01*
X16451578Y30397500D01*
X16576422Y30397500D01*
X16576422Y28297500D01*
X16592362Y28212786D01*
X16642428Y28134982D01*
X16718820Y28082785D01*
X16809500Y28064422D01*
X17382400Y28064422D01*
X17382400Y28031616D01*
X17353286Y28026138D01*
X17275482Y27976072D01*
X17223285Y27899680D01*
X17204922Y27809000D01*
X17204922Y27309000D01*
X17220862Y27224286D01*
X17270928Y27146482D01*
X17347320Y27094285D01*
X17438000Y27075922D01*
X18038000Y27075922D01*
X18122714Y27091862D01*
X18200518Y27141928D01*
X18252715Y27218320D01*
X18271078Y27309000D01*
X18271078Y27809000D01*
X18255138Y27893714D01*
X18205072Y27971518D01*
X18128680Y28023715D01*
X18093600Y28030819D01*
X18093600Y28064422D01*
X18609500Y28064422D01*
X18694214Y28080362D01*
X18772018Y28130428D01*
X18824215Y28206820D01*
X18842578Y28297500D01*
X18842578Y28917000D01*
X21932422Y28917000D01*
X21932422Y28317000D01*
X21948362Y28232286D01*
X21998428Y28154482D01*
X22074820Y28102285D01*
X22165500Y28083922D01*
X22665500Y28083922D01*
X22750214Y28099862D01*
X22828018Y28149928D01*
X22880215Y28226320D01*
X22898578Y28317000D01*
X22898578Y28759199D01*
X50380783Y28759199D01*
X50483041Y28511717D01*
X50672222Y28322206D01*
X50919525Y28219517D01*
X51187301Y28219283D01*
X51434783Y28321541D01*
X51624294Y28510722D01*
X51726983Y28758025D01*
X51727217Y29025801D01*
X51624959Y29273283D01*
X51435778Y29462794D01*
X51188475Y29565483D01*
X50920699Y29565717D01*
X50673217Y29463459D01*
X50483706Y29274278D01*
X50381017Y29026975D01*
X50380783Y28759199D01*
X22898578Y28759199D01*
X22898578Y28917000D01*
X22898100Y28919540D01*
X22898100Y31242000D01*
X22886723Y31299199D01*
X50380783Y31299199D01*
X50483041Y31051717D01*
X50672222Y30862206D01*
X50919525Y30759517D01*
X51187301Y30759283D01*
X51434783Y30861541D01*
X51624294Y31050722D01*
X51726983Y31298025D01*
X51727217Y31565801D01*
X51624959Y31813283D01*
X51435778Y32002794D01*
X51188475Y32105483D01*
X50920699Y32105717D01*
X50673217Y32003459D01*
X50483706Y31814278D01*
X50381017Y31566975D01*
X50380783Y31299199D01*
X22886723Y31299199D01*
X22861364Y31426683D01*
X22756750Y31583250D01*
X22600183Y31687864D01*
X22415500Y31724600D01*
X22230817Y31687864D01*
X22074250Y31583250D01*
X21969636Y31426683D01*
X21932900Y31242000D01*
X21932900Y28919360D01*
X21932422Y28917000D01*
X18842578Y28917000D01*
X18842578Y30397500D01*
X18826638Y30482214D01*
X18776572Y30560018D01*
X18700180Y30612215D01*
X18609500Y30630578D01*
X16809500Y30630578D01*
X16724786Y30614638D01*
X16646982Y30564572D01*
X16594785Y30488180D01*
X16576422Y30397500D01*
X16451578Y30397500D01*
X16451578Y30855000D01*
X16435638Y30939714D01*
X16385572Y31017518D01*
X16309180Y31069715D01*
X16218500Y31088078D01*
X16101100Y31088078D01*
X16101100Y33297500D01*
X18876422Y33297500D01*
X18876422Y31197500D01*
X18892362Y31112786D01*
X18942428Y31034982D01*
X19018820Y30982785D01*
X19109500Y30964422D01*
X20909500Y30964422D01*
X20994214Y30980362D01*
X21072018Y31030428D01*
X21124215Y31106820D01*
X21142578Y31197500D01*
X21142578Y33297500D01*
X21126638Y33382214D01*
X21076572Y33460018D01*
X21000180Y33512215D01*
X20909500Y33530578D01*
X20336600Y33530578D01*
X20336600Y33563384D01*
X20365714Y33568862D01*
X20443518Y33618928D01*
X20495715Y33695320D01*
X20514078Y33786000D01*
X20514078Y33839199D01*
X50380783Y33839199D01*
X50483041Y33591717D01*
X50672222Y33402206D01*
X50919525Y33299517D01*
X51187301Y33299283D01*
X51434783Y33401541D01*
X51624294Y33590722D01*
X51726983Y33838025D01*
X51727217Y34105801D01*
X51624959Y34353283D01*
X51435778Y34542794D01*
X51188475Y34645483D01*
X50920699Y34645717D01*
X50673217Y34543459D01*
X50483706Y34354278D01*
X50381017Y34106975D01*
X50380783Y33839199D01*
X20514078Y33839199D01*
X20514078Y34286000D01*
X20498138Y34370714D01*
X20448072Y34448518D01*
X20371680Y34500715D01*
X20281000Y34519078D01*
X19681000Y34519078D01*
X19596286Y34503138D01*
X19518482Y34453072D01*
X19466285Y34376680D01*
X19447922Y34286000D01*
X19447922Y33786000D01*
X19463862Y33701286D01*
X19513928Y33623482D01*
X19590320Y33571285D01*
X19625400Y33564181D01*
X19625400Y33530578D01*
X19109500Y33530578D01*
X19024786Y33514638D01*
X18946982Y33464572D01*
X18894785Y33388180D01*
X18876422Y33297500D01*
X16101100Y33297500D01*
X16101100Y36379199D01*
X50380783Y36379199D01*
X50483041Y36131717D01*
X50672222Y35942206D01*
X50919525Y35839517D01*
X51187301Y35839283D01*
X51434783Y35941541D01*
X51624294Y36130722D01*
X51726983Y36378025D01*
X51727217Y36645801D01*
X51624959Y36893283D01*
X51435778Y37082794D01*
X51188475Y37185483D01*
X50920699Y37185717D01*
X50673217Y37083459D01*
X50483706Y36894278D01*
X50381017Y36646975D01*
X50380783Y36379199D01*
X16101100Y36379199D01*
X16101100Y37262600D01*
X17706869Y38868369D01*
X65802517Y38868369D01*
X65830818Y38685633D01*
X66202832Y38590523D01*
X66582926Y38645017D01*
X66680982Y38685633D01*
X66709283Y38868369D01*
X66255900Y39321753D01*
X65802517Y38868369D01*
X17706869Y38868369D01*
X18464768Y39626268D01*
X65273223Y39626268D01*
X65327717Y39246174D01*
X65368333Y39148118D01*
X65551069Y39119817D01*
X66004453Y39573200D01*
X66507347Y39573200D01*
X66960731Y39119817D01*
X67143467Y39148118D01*
X67221279Y39452475D01*
X67652794Y39452475D01*
X67745405Y39228340D01*
X67916738Y39056707D01*
X68140711Y38963706D01*
X68383225Y38963494D01*
X68607360Y39056105D01*
X68778993Y39227438D01*
X68871994Y39451411D01*
X68871994Y39452475D01*
X69659394Y39452475D01*
X69752005Y39228340D01*
X69923338Y39056707D01*
X70147311Y38963706D01*
X70389825Y38963494D01*
X70613960Y39056105D01*
X70785593Y39227438D01*
X70878594Y39451411D01*
X70878594Y39452475D01*
X71665994Y39452475D01*
X71758605Y39228340D01*
X71929938Y39056707D01*
X72153911Y38963706D01*
X72396425Y38963494D01*
X72620560Y39056105D01*
X72792193Y39227438D01*
X72885194Y39451411D01*
X72885194Y39452475D01*
X73672594Y39452475D01*
X73765205Y39228340D01*
X73936538Y39056707D01*
X74160511Y38963706D01*
X74403025Y38963494D01*
X74627160Y39056105D01*
X74798793Y39227438D01*
X74891794Y39451411D01*
X74891794Y39452475D01*
X75679194Y39452475D01*
X75771805Y39228340D01*
X75943138Y39056707D01*
X76167111Y38963706D01*
X76409625Y38963494D01*
X76633760Y39056105D01*
X76805393Y39227438D01*
X76898394Y39451411D01*
X76898394Y39452475D01*
X77685794Y39452475D01*
X77778405Y39228340D01*
X77949738Y39056707D01*
X78173711Y38963706D01*
X78416225Y38963494D01*
X78640360Y39056105D01*
X78811993Y39227438D01*
X78904994Y39451411D01*
X78904994Y39452475D01*
X79692394Y39452475D01*
X79785005Y39228340D01*
X79956338Y39056707D01*
X80180311Y38963706D01*
X80422825Y38963494D01*
X80646960Y39056105D01*
X80818593Y39227438D01*
X80911594Y39451411D01*
X80911806Y39693925D01*
X80819195Y39918060D01*
X80647862Y40089693D01*
X80423889Y40182694D01*
X80181375Y40182906D01*
X79957240Y40090295D01*
X79785607Y39918962D01*
X79692606Y39694989D01*
X79692394Y39452475D01*
X78904994Y39452475D01*
X78905206Y39693925D01*
X78812595Y39918060D01*
X78641262Y40089693D01*
X78417289Y40182694D01*
X78174775Y40182906D01*
X77950640Y40090295D01*
X77779007Y39918962D01*
X77686006Y39694989D01*
X77685794Y39452475D01*
X76898394Y39452475D01*
X76898606Y39693925D01*
X76805995Y39918060D01*
X76634662Y40089693D01*
X76410689Y40182694D01*
X76168175Y40182906D01*
X75944040Y40090295D01*
X75772407Y39918962D01*
X75679406Y39694989D01*
X75679194Y39452475D01*
X74891794Y39452475D01*
X74892006Y39693925D01*
X74799395Y39918060D01*
X74628062Y40089693D01*
X74404089Y40182694D01*
X74161575Y40182906D01*
X73937440Y40090295D01*
X73765807Y39918962D01*
X73672806Y39694989D01*
X73672594Y39452475D01*
X72885194Y39452475D01*
X72885406Y39693925D01*
X72792795Y39918060D01*
X72621462Y40089693D01*
X72397489Y40182694D01*
X72154975Y40182906D01*
X71930840Y40090295D01*
X71759207Y39918962D01*
X71666206Y39694989D01*
X71665994Y39452475D01*
X70878594Y39452475D01*
X70878806Y39693925D01*
X70786195Y39918060D01*
X70614862Y40089693D01*
X70390889Y40182694D01*
X70148375Y40182906D01*
X69924240Y40090295D01*
X69752607Y39918962D01*
X69659606Y39694989D01*
X69659394Y39452475D01*
X68871994Y39452475D01*
X68872206Y39693925D01*
X68779595Y39918060D01*
X68608262Y40089693D01*
X68384289Y40182694D01*
X68141775Y40182906D01*
X67917640Y40090295D01*
X67746007Y39918962D01*
X67653006Y39694989D01*
X67652794Y39452475D01*
X67221279Y39452475D01*
X67238577Y39520132D01*
X67184083Y39900226D01*
X67143467Y39998282D01*
X66960731Y40026583D01*
X66507347Y39573200D01*
X66004453Y39573200D01*
X65551069Y40026583D01*
X65368333Y39998282D01*
X65273223Y39626268D01*
X18464768Y39626268D01*
X19116531Y40278031D01*
X65802517Y40278031D01*
X66255900Y39824647D01*
X66709283Y40278031D01*
X66680982Y40460767D01*
X66308968Y40555877D01*
X65928874Y40501383D01*
X65830818Y40460767D01*
X65802517Y40278031D01*
X19116531Y40278031D01*
X19948400Y41109900D01*
X50584681Y41109900D01*
X50672222Y41022206D01*
X50919525Y40919517D01*
X51187301Y40919283D01*
X51434783Y41021541D01*
X51523296Y41109900D01*
X81207100Y41109900D01*
X82149848Y40167152D01*
X81963840Y40090295D01*
X81792207Y39918962D01*
X81699206Y39694989D01*
X81698994Y39452475D01*
X81791605Y39228340D01*
X81962938Y39056707D01*
X82186911Y38963706D01*
X82429425Y38963494D01*
X82653560Y39056105D01*
X82825193Y39227438D01*
X82902760Y39414241D01*
X83019900Y39297101D01*
X83019900Y39052500D01*
X83056636Y38867817D01*
X83161250Y38711250D01*
X88988900Y32883600D01*
X88988900Y6295899D01*
X87049100Y4356100D01*
X31051500Y4356100D01*
X30866817Y4319364D01*
X30710250Y4214750D01*
X30605636Y4058183D01*
X30568900Y3873500D01*
X30605636Y3688817D01*
X30710250Y3532250D01*
X30860757Y3431685D01*
X30805516Y3420697D01*
X30607748Y3288552D01*
X30475603Y3090784D01*
X30429200Y2857500D01*
X30475603Y2624216D01*
X30607748Y2426448D01*
X30805516Y2294303D01*
X31038800Y2247900D01*
X32606923Y2247900D01*
X32559285Y2178180D01*
X32540922Y2087500D01*
X32540922Y1087500D01*
X32556862Y1002786D01*
X32606928Y924982D01*
X32683320Y872785D01*
X32774000Y854422D01*
X33774000Y854422D01*
X33858714Y870362D01*
X33936518Y920428D01*
X33988715Y996820D01*
X34007078Y1087500D01*
X34007078Y2087500D01*
X33991138Y2172214D01*
X33942435Y2247900D01*
X35494749Y2247900D01*
X35298802Y2116972D01*
X35140861Y1880597D01*
X35085400Y1601774D01*
X35085400Y1573226D01*
X35140861Y1294403D01*
X35298802Y1058028D01*
X35535177Y900087D01*
X35814000Y844626D01*
X36092823Y900087D01*
X36329198Y1058028D01*
X36487139Y1294403D01*
X36542600Y1573226D01*
X36542600Y1601774D01*
X36487139Y1880597D01*
X36329198Y2116972D01*
X36133251Y2247900D01*
X38034749Y2247900D01*
X37838802Y2116972D01*
X37680861Y1880597D01*
X37625400Y1601774D01*
X37625400Y1573226D01*
X37680861Y1294403D01*
X37838802Y1058028D01*
X38075177Y900087D01*
X38354000Y844626D01*
X38632823Y900087D01*
X38869198Y1058028D01*
X39027139Y1294403D01*
X39082600Y1573226D01*
X39082600Y1601774D01*
X39027139Y1880597D01*
X38869198Y2116972D01*
X38673251Y2247900D01*
X40574749Y2247900D01*
X40378802Y2116972D01*
X40220861Y1880597D01*
X40165400Y1601774D01*
X40165400Y1573226D01*
X40220861Y1294403D01*
X40378802Y1058028D01*
X40615177Y900087D01*
X40894000Y844626D01*
X41172823Y900087D01*
X41409198Y1058028D01*
X41567139Y1294403D01*
X41622600Y1573226D01*
X41622600Y1601774D01*
X41567139Y1880597D01*
X41409198Y2116972D01*
X41213251Y2247900D01*
X43114749Y2247900D01*
X42918802Y2116972D01*
X42760861Y1880597D01*
X42705400Y1601774D01*
X42705400Y1573226D01*
X42760861Y1294403D01*
X42918802Y1058028D01*
X43155177Y900087D01*
X43434000Y844626D01*
X43712823Y900087D01*
X43949198Y1058028D01*
X44107139Y1294403D01*
X44162600Y1573226D01*
X44162600Y1601774D01*
X44107139Y1880597D01*
X43949198Y2116972D01*
X43753251Y2247900D01*
X45654749Y2247900D01*
X45458802Y2116972D01*
X45300861Y1880597D01*
X45245400Y1601774D01*
X45245400Y1573226D01*
X45300861Y1294403D01*
X45458802Y1058028D01*
X45695177Y900087D01*
X45974000Y844626D01*
X46252823Y900087D01*
X46489198Y1058028D01*
X46647139Y1294403D01*
X46702600Y1573226D01*
X46702600Y1601774D01*
X46647139Y1880597D01*
X46489198Y2116972D01*
X46293251Y2247900D01*
X48194749Y2247900D01*
X47998802Y2116972D01*
X47840861Y1880597D01*
X47785400Y1601774D01*
X47785400Y1573226D01*
X47840861Y1294403D01*
X47998802Y1058028D01*
X48235177Y900087D01*
X48514000Y844626D01*
X48792823Y900087D01*
X49029198Y1058028D01*
X49187139Y1294403D01*
X49242600Y1573226D01*
X49242600Y1601774D01*
X49187139Y1880597D01*
X49029198Y2116972D01*
X48833251Y2247900D01*
X50734749Y2247900D01*
X50538802Y2116972D01*
X50380861Y1880597D01*
X50325400Y1601774D01*
X50325400Y1573226D01*
X50380861Y1294403D01*
X50538802Y1058028D01*
X50775177Y900087D01*
X51054000Y844626D01*
X51332823Y900087D01*
X51569198Y1058028D01*
X51727139Y1294403D01*
X51782600Y1573226D01*
X51782600Y1601774D01*
X51727139Y1880597D01*
X51569198Y2116972D01*
X51373251Y2247900D01*
X87566500Y2247900D01*
X87799784Y2294303D01*
X87997552Y2426448D01*
X90855052Y5283948D01*
X90987197Y5481716D01*
X91033600Y5715000D01*
X91033600Y33464500D01*
X90987197Y33697784D01*
X90893491Y33838025D01*
X90855052Y33895553D01*
X84874100Y39876504D01*
X84874100Y40750400D01*
X86254500Y40750400D01*
X86487784Y40796803D01*
X86685552Y40928948D01*
X87362553Y41605948D01*
X87486235Y41791052D01*
X87494697Y41803716D01*
X87541100Y42037000D01*
X87541100Y42862500D01*
X87494697Y43095784D01*
X87362552Y43293552D01*
X86791052Y43865052D01*
X86593284Y43997197D01*
X86360000Y44043600D01*
X21032778Y44043600D01*
X20916323Y44121413D01*
X20637500Y44176874D01*
X20358677Y44121413D01*
X20122302Y43963472D01*
X19964361Y43727097D01*
X19908900Y43448274D01*
X19908900Y43419726D01*
X19964361Y43140903D01*
X20122302Y42904528D01*
X20358677Y42746587D01*
X20637500Y42691126D01*
X20916323Y42746587D01*
X21032778Y42824400D01*
X86107496Y42824400D01*
X86321900Y42609996D01*
X86321900Y42289505D01*
X86001996Y41969600D01*
X84264500Y41969600D01*
X84031216Y41923197D01*
X83975023Y41885650D01*
X83929786Y41877138D01*
X83851982Y41827072D01*
X83799785Y41750680D01*
X83796877Y41736320D01*
X83701303Y41593284D01*
X83654900Y41360000D01*
X83654900Y40027099D01*
X81748250Y41933750D01*
X81591683Y42038364D01*
X81407000Y42075100D01*
X51523319Y42075100D01*
X51435778Y42162794D01*
X51188475Y42265483D01*
X50920699Y42265717D01*
X50673217Y42163459D01*
X50584704Y42075100D01*
X19748500Y42075100D01*
X19563817Y42038364D01*
X19407250Y41933750D01*
X15277250Y37803750D01*
X15172636Y37647183D01*
X15135900Y37462500D01*
X15135900Y31088078D01*
X15018500Y31088078D01*
X14933786Y31072138D01*
X14855982Y31022072D01*
X14803785Y30945680D01*
X14785422Y30855000D01*
X14785422Y30329422D01*
X14660593Y30204593D01*
X14628750Y30252250D01*
X14628747Y30252252D01*
X14551578Y30329421D01*
X14551578Y30855000D01*
X14535638Y30939714D01*
X14485572Y31017518D01*
X14409180Y31069715D01*
X14318500Y31088078D01*
X13118500Y31088078D01*
X13033786Y31072138D01*
X12955982Y31022072D01*
X12909210Y30953620D01*
X12823000Y30971078D01*
X12323000Y30971078D01*
X12238286Y30955138D01*
X12160482Y30905072D01*
X12108285Y30828680D01*
X12089922Y30738000D01*
X7153205Y30738000D01*
X7252339Y31098805D01*
X7199494Y31520865D01*
X7139646Y31665349D01*
X6946355Y31706908D01*
X6416447Y31177000D01*
X5913553Y31177000D01*
X5383645Y31706908D01*
X5190354Y31665349D01*
X5077661Y31255195D01*
X76200Y31255195D01*
X76200Y31958355D01*
X5635092Y31958355D01*
X6165000Y31428447D01*
X6694908Y31958355D01*
X6653349Y32151646D01*
X6243195Y32264339D01*
X5821135Y32211494D01*
X5676651Y32151646D01*
X5635092Y31958355D01*
X76200Y31958355D01*
X76200Y43091076D01*
X10083942Y43091076D01*
X10293468Y42723567D01*
X10627684Y42464216D01*
X10769579Y42405460D01*
X10934700Y42512853D01*
X10934700Y43256200D01*
X11290300Y43256200D01*
X11290300Y42512853D01*
X11455421Y42405460D01*
X11597316Y42464216D01*
X11931532Y42723567D01*
X12141058Y43091076D01*
X12035990Y43256200D01*
X11290300Y43256200D01*
X10934700Y43256200D01*
X10189010Y43256200D01*
X10083942Y43091076D01*
X76200Y43091076D01*
X76200Y43776924D01*
X10083942Y43776924D01*
X10189010Y43611800D01*
X10934700Y43611800D01*
X10934700Y44355147D01*
X11290300Y44355147D01*
X11290300Y43611800D01*
X12035990Y43611800D01*
X12141058Y43776924D01*
X12051506Y43934000D01*
X12919422Y43934000D01*
X12919422Y42934000D01*
X12935362Y42849286D01*
X12985428Y42771482D01*
X13061820Y42719285D01*
X13152500Y42700922D01*
X14152500Y42700922D01*
X14237214Y42716862D01*
X14315018Y42766928D01*
X14354287Y42824400D01*
X17396376Y42824400D01*
X17430428Y42771482D01*
X17506820Y42719285D01*
X17597500Y42700922D01*
X18597500Y42700922D01*
X18682214Y42716862D01*
X18760018Y42766928D01*
X18812215Y42843320D01*
X18830578Y42934000D01*
X18830578Y43934000D01*
X18814638Y44018714D01*
X18764572Y44096518D01*
X18688180Y44148715D01*
X18597500Y44167078D01*
X17597500Y44167078D01*
X17512786Y44151138D01*
X17434982Y44101072D01*
X17395713Y44043600D01*
X14353624Y44043600D01*
X14319572Y44096518D01*
X14243180Y44148715D01*
X14152500Y44167078D01*
X13152500Y44167078D01*
X13067786Y44151138D01*
X12989982Y44101072D01*
X12937785Y44024680D01*
X12919422Y43934000D01*
X12051506Y43934000D01*
X11931532Y44144433D01*
X11597316Y44403784D01*
X11455421Y44462540D01*
X11290300Y44355147D01*
X10934700Y44355147D01*
X10769579Y44462540D01*
X10627684Y44403784D01*
X10293468Y44144433D01*
X10083942Y43776924D01*
X76200Y43776924D01*
X76200Y45643800D01*
X91363800Y45643800D01*
X91363800Y76200D01*
M02*
