G04 #@! TF.FileFunction,Soldermask,Bot*
%FSLAX46Y46*%
G04 Gerber Fmt 4.6, Leading zero omitted, Abs format (unit mm)*
G04 Created by KiCad (PCBNEW 4.0.6) date 03/28/17 11:19:29*
%MOMM*%
%LPD*%
G01*
G04 APERTURE LIST*
%ADD10C,0.025400*%
%ADD11C,0.914400*%
%ADD12R,1.952400X2.252400*%
%ADD13R,0.752400X0.652400*%
%ADD14R,0.652400X0.752400*%
%ADD15R,5.232400X2.572400*%
%ADD16R,1.352400X0.902400*%
%ADD17R,1.152400X1.152400*%
%ADD18O,1.152400X1.152400*%
%ADD19R,1.402400X1.652400*%
%ADD20C,1.152400*%
G04 APERTURE END LIST*
D10*
D11*
X66255900Y17576800D03*
X76288900Y17576800D03*
X78295500Y17576800D03*
X80302100Y17576800D03*
X82308700Y17576800D03*
X84315300Y17576800D03*
X74282300Y17576800D03*
X72275700Y17576800D03*
X70269100Y17576800D03*
X68262500Y17576800D03*
X68262500Y39573200D03*
X70269100Y39573200D03*
X72275700Y39573200D03*
X74282300Y39573200D03*
X84315300Y39573200D03*
X82308700Y39573200D03*
X80302100Y39573200D03*
X78295500Y39573200D03*
X76288900Y39573200D03*
X66255900Y39573200D03*
D12*
X20009500Y32247500D03*
X20009500Y29347500D03*
X17709500Y29347500D03*
X17709500Y32247500D03*
D13*
X25950000Y24511000D03*
X24850000Y24511000D03*
X25950000Y26289000D03*
X24850000Y26289000D03*
X19981000Y34036000D03*
X18881000Y34036000D03*
X17738000Y27559000D03*
X18838000Y27559000D03*
D14*
X12573000Y30438000D03*
X12573000Y31538000D03*
X23622000Y22183000D03*
X23622000Y23283000D03*
X22415500Y28617000D03*
X22415500Y27517000D03*
D13*
X24108500Y25400000D03*
X23008500Y25400000D03*
D14*
X84264500Y41360000D03*
X84264500Y42460000D03*
X85153500Y41360000D03*
X85153500Y42460000D03*
X86042500Y41360000D03*
X86042500Y42460000D03*
X14986000Y29302800D03*
X14986000Y28202800D03*
D15*
X2725000Y31177000D03*
X2725000Y22417000D03*
D16*
X15618500Y30480000D03*
X13718500Y30480000D03*
D17*
X28829000Y4127500D03*
D18*
X28829000Y1587500D03*
D17*
X18097500Y43434000D03*
D18*
X20637500Y43434000D03*
D19*
X22479000Y19705000D03*
X22479000Y22205000D03*
D17*
X1524000Y4127500D03*
D18*
X1524000Y1587500D03*
X4064000Y4127500D03*
X4064000Y1587500D03*
X6604000Y4127500D03*
X6604000Y1587500D03*
X9144000Y4127500D03*
X9144000Y1587500D03*
X11684000Y4127500D03*
X11684000Y1587500D03*
X14224000Y4127500D03*
X14224000Y1587500D03*
X16764000Y4127500D03*
X16764000Y1587500D03*
X19304000Y4127500D03*
X19304000Y1587500D03*
X21844000Y4127500D03*
X21844000Y1587500D03*
X24384000Y4127500D03*
X24384000Y1587500D03*
D17*
X13652500Y43434000D03*
D18*
X11112500Y43434000D03*
D17*
X33274000Y1587500D03*
D18*
X35814000Y1587500D03*
X38354000Y1587500D03*
X40894000Y1587500D03*
X43434000Y1587500D03*
X45974000Y1587500D03*
X48514000Y1587500D03*
X51054000Y1587500D03*
D20*
X26987500Y24447500D03*
X26987500Y26347500D03*
M02*
