*
%LPD*%
%LN915 PCB Antenna 02-F.Cu*%
%FSLAX25Y25*%
%MOIN*%
%AD*%
%AD*%
%ADD11R,0.095275591X0.2*%
%ADD12C,0.038188976*%
%ADD13R,0.018110236X0.03503937*%
%ADD14C,0.023622047*%
%ADD15C,0.01*%
%ADD20R,0.09015748X0.2*%
%ADD21O,0.201968504X0.148818898*%
%ADD22O,0.172047244X0.148818898*%
%ADD23C,0.032992126*%
G54D20*
%SRX1Y1I0.0J0.0*%
G1X102756Y10630D3*
G54D11*
G1X85512Y10630D3*
G1X120000Y10630D3*
G54D12*
G1X85512Y24173D3*
G1X120000Y24173D3*
G54D13*
G1X85512Y22402D3*
G1X120000Y22402D3*
G54D21*
G1X170477Y54317D3*
G1X102760Y54317D3*
G54D22*
G1X49611Y54317D3*
G54D14*
G1X74016Y34646D3*
G1X68110Y34646D3*
G1X62205Y34646D3*
G1X56299Y34646D3*
G1X42520Y34646D3*
G1X36614Y34646D3*
G1X30709Y34646D3*
G1X24803Y34646D3*
G1X18898Y34646D3*
G1X96457Y34646D3*
G1X91732Y34646D3*
G1X85827Y34646D3*
G1X79921Y34646D3*
G1X94094Y20472D3*
G1X96457Y24803D3*
G1X96850Y29921D3*
G1X94094Y15748D3*
G1X108268Y34646D3*
G1X113386Y34646D3*
G1X119291Y34646D3*
G1X125197Y34646D3*
G1X131102Y34646D3*
G1X137008Y34646D3*
G1X142913Y34646D3*
G1X148819Y34646D3*
G1X154724Y34646D3*
G1X160630Y34646D3*
G1X166535Y34646D3*
G1X172441Y34646D3*
G1X178346Y34646D3*
G1X184252Y34646D3*
G1X190157Y34646D3*
G1X196063Y34646D3*
G1X201969Y34646D3*
G1X207874Y34646D3*
G1X213780Y34646D3*
G1X219685Y34646D3*
G1X94094Y6299D3*
G1X94094Y1575D3*
G1X94094Y10630D3*
G1X111417Y10236D3*
G1X111417Y15748D3*
G1X111417Y20472D3*
G1X108661Y29921D3*
G1X108661Y24803D3*
G1X102760Y54317D2*
G54D23*
G1X102760Y10634D1*
G1X102756Y10630D1*
G1X49611Y54317D2*
G1X49611Y35429D1*
G1X85512Y24173D2*
G1X85512Y10630D1*
G1X120000Y24173D2*
G1X120000Y10630D1*
G54D15*
G36*
G1X106910Y23335D2*
G1X109449Y23335D1*
G1X109631Y23300D1*
G1X109797Y23193D1*
G1X109909Y23029D1*
G1X109949Y22835D1*
G1X109949Y19882D1*
G1X112736Y19882D1*
G1X112736Y21127D1*
G1X113117Y22046D1*
G1X113820Y22749D1*
G1X114739Y23130D1*
G1X115654Y23130D1*
G1X115539Y24730D1*
G1X116091Y26395D1*
G1X116932Y26534D1*
G1X117436Y26030D1*
G1X117678Y26273D1*
G1X118335Y26545D1*
G1X117639Y27241D1*
G1X117778Y28082D1*
G1X118807Y28508D1*
G1X120557Y28634D1*
G1X122222Y28082D1*
G1X122361Y27241D1*
G1X121665Y26545D1*
G1X122322Y26273D1*
G1X122564Y26030D1*
G1X123068Y26534D1*
G1X123909Y26395D1*
G1X124335Y25366D1*
G1X124461Y23616D1*
G1X124300Y23130D1*
G1X125261Y23130D1*
G1X126180Y22749D1*
G1X126883Y22046D1*
G1X127264Y21127D1*
G1X127264Y19882D1*
G1X223122Y19882D1*
G1X223122Y38083D1*
G1X106910Y38083D1*
G1X106910Y23335D1*
G37*
G36*
G1X109949Y-287D2*
G1X112910Y-287D1*
G1X112736Y133D1*
G1X112736Y9505D1*
G1X113361Y10130D1*
G1X119500Y10130D1*
G1X119500Y10051D1*
G1X120500Y10051D1*
G1X120500Y10130D1*
G1X126639Y10130D1*
G1X127264Y9505D1*
G1X127264Y133D1*
G1X127090Y-287D1*
G1X223122Y-287D1*
G1X223122Y19882D1*
G1X127264Y19882D1*
G1X127264Y11755D1*
G1X126639Y11130D1*
G1X120500Y11130D1*
G1X120500Y11209D1*
G1X119500Y11209D1*
G1X119500Y11130D1*
G1X113361Y11130D1*
G1X112736Y11755D1*
G1X112736Y19882D1*
G1X109949Y19882D1*
G1X109949Y-287D1*
G37*
G1X223122Y-287D2*
G1X127090Y-287D1*
G1X127264Y133D1*
G1X127264Y9505D1*
G1X126639Y10130D1*
G1X120500Y10130D1*
G1X120500Y10051D1*
G1X119500Y10051D1*
G1X119500Y10130D1*
G1X113361Y10130D1*
G1X112736Y9505D1*
G1X112736Y133D1*
G1X112910Y-287D1*
G1X109949Y-287D1*
G1X109949Y21127D1*
G1X112736Y21127D1*
G1X112736Y11755D1*
G1X113361Y11130D1*
G1X119500Y11130D1*
G1X119500Y11209D1*
G1X120500Y11209D1*
G1X120500Y11130D1*
G1X126639Y11130D1*
G1X127264Y11755D1*
G1X127264Y21127D1*
G1X126883Y22046D1*
G1X126180Y22749D1*
G1X125261Y23130D1*
G1X124300Y23130D1*
G1X124461Y23616D1*
G1X124335Y25366D1*
G1X123909Y26395D1*
G1X123068Y26534D1*
G1X122564Y26030D1*
G1X122322Y26273D1*
G1X121665Y26545D1*
G1X122361Y27241D1*
G1X122222Y28082D1*
G1X120557Y28634D1*
G1X118807Y28508D1*
G1X117778Y28082D1*
G1X117639Y27241D1*
G1X118335Y26545D1*
G1X117678Y26273D1*
G1X117436Y26030D1*
G1X116932Y26534D1*
G1X116091Y26395D1*
G1X115539Y24730D1*
G1X115654Y23130D1*
G1X114739Y23130D1*
G1X113820Y22749D1*
G1X113117Y22046D1*
G1X112736Y21127D1*
G1X109949Y21127D1*
G1X109949Y22835D1*
G1X109909Y23029D1*
G1X109797Y23193D1*
G1X109631Y23300D1*
G1X109449Y23335D1*
G1X106910Y23335D1*
G1X106910Y38083D1*
G1X223122Y38083D1*
G1X223122Y-287D1*
G36*
G1X106Y19882D2*
G1X106Y106D1*
G1X78259Y106D1*
G1X78248Y133D1*
G1X78248Y9505D1*
G1X78873Y10130D1*
G1X85012Y10130D1*
G1X85012Y10051D1*
G1X86012Y10051D1*
G1X86012Y10130D1*
G1X92151Y10130D1*
G1X92776Y9505D1*
G1X92776Y133D1*
G1X92765Y106D1*
G1X95563Y106D1*
G1X95563Y19882D1*
G1X92776Y19882D1*
G1X92776Y11755D1*
G1X92151Y11130D1*
G1X86012Y11130D1*
G1X86012Y11209D1*
G1X85012Y11209D1*
G1X85012Y11130D1*
G1X78873Y11130D1*
G1X78248Y11755D1*
G1X78248Y19882D1*
G1X106Y19882D1*
G37*
G36*
G1X106Y37689D2*
G1X106Y19882D1*
G1X78248Y19882D1*
G1X78248Y21127D1*
G1X78629Y22046D1*
G1X79332Y22749D1*
G1X80251Y23130D1*
G1X81166Y23130D1*
G1X81051Y24730D1*
G1X81603Y26395D1*
G1X82444Y26534D1*
G1X82948Y26030D1*
G1X83190Y26273D1*
G1X83847Y26545D1*
G1X83151Y27241D1*
G1X83290Y28082D1*
G1X84319Y28508D1*
G1X86069Y28634D1*
G1X87734Y28082D1*
G1X87872Y27241D1*
G1X87177Y26545D1*
G1X87833Y26273D1*
G1X88076Y26030D1*
G1X88580Y26534D1*
G1X89420Y26395D1*
G1X89847Y25366D1*
G1X89973Y23616D1*
G1X89812Y23130D1*
G1X90773Y23130D1*
G1X91692Y22749D1*
G1X92395Y22046D1*
G1X92776Y21127D1*
G1X92776Y19882D1*
G1X95563Y19882D1*
G1X95563Y22835D1*
G1X95597Y23016D1*
G1X95705Y23183D1*
G1X95868Y23295D1*
G1X96063Y23335D1*
G1X98611Y23335D1*
G1X98611Y37689D1*
G1X106Y37689D1*
G37*
G1X98611Y23335D2*
G1X96063Y23335D1*
G1X95868Y23295D1*
G1X95705Y23183D1*
G1X95597Y23016D1*
G1X95563Y22835D1*
G1X95563Y106D1*
G1X92765Y106D1*
G1X92776Y133D1*
G1X92776Y9505D1*
G1X92151Y10130D1*
G1X86012Y10130D1*
G1X86012Y10051D1*
G1X85012Y10051D1*
G1X85012Y10130D1*
G1X78873Y10130D1*
G1X78248Y9505D1*
G1X78248Y133D1*
G1X78259Y106D1*
G1X106Y106D1*
G1X106Y21127D1*
G1X78248Y21127D1*
G1X78248Y11755D1*
G1X78873Y11130D1*
G1X85012Y11130D1*
G1X85012Y11209D1*
G1X86012Y11209D1*
G1X86012Y11130D1*
G1X92151Y11130D1*
G1X92776Y11755D1*
G1X92776Y21127D1*
G1X92395Y22046D1*
G1X91692Y22749D1*
G1X90773Y23130D1*
G1X89812Y23130D1*
G1X89973Y23616D1*
G1X89847Y25366D1*
G1X89420Y26395D1*
G1X88580Y26534D1*
G1X88076Y26030D1*
G1X87833Y26273D1*
G1X87177Y26545D1*
G1X87872Y27241D1*
G1X87734Y28082D1*
G1X86069Y28634D1*
G1X84319Y28508D1*
G1X83290Y28082D1*
G1X83151Y27241D1*
G1X83847Y26545D1*
G1X83190Y26273D1*
G1X82948Y26030D1*
G1X82444Y26534D1*
G1X81603Y26395D1*
G1X81051Y24730D1*
G1X81166Y23130D1*
G1X80251Y23130D1*
G1X79332Y22749D1*
G1X78629Y22046D1*
G1X78248Y21127D1*
G1X106Y21127D1*
G1X106Y37689D1*
G1X98611Y37689D1*
G1X98611Y23335D1*
M2*
