M48
INCH,TZ
FMAT,2
ICI,OFF
T01C.016
T02C.018
%
T01
G05
X2480Y3465
X1890Y3465
X3661Y3465
X3071Y3465
X4252Y3465
X5630Y3465
X6220Y3465
X6811Y3465
X7402Y3465
X7992Y3465
X8583Y3465
X9409Y2047
X9409Y1575
X9409Y1063
X9409Y630
X9409Y157
X9646Y2480
X9685Y2992
X9646Y3465
X9173Y3465
X11142Y2047
X11142Y1575
X11142Y1024
X10866Y2480
X10866Y2992
X11339Y3465
X10827Y3465
X11929Y3465
X12520Y3465
X13110Y3465
X14291Y3465
X13701Y3465
X14882Y3465
X15472Y3465
X16063Y3465
X16654Y3465
X17835Y3465
X17244Y3465
X18425Y3465
X19016Y3465
X19606Y3465
X20197Y3465
X21378Y3465
X20787Y3465
X21969Y3465
T02
X8551Y2417
X12000Y2417
M30
