*
%LPD*%
%LN915 PCB Antenna 02-drl_map*%
%FSLAX25Y25*%
%MOIN*%
%AD*%
%AD*%
%ADD18C,0.007874016*%
%ADD19C,0.011811024*%
G54D18*
%SRX1Y1I0.0J0.0*%
G1X18110Y35433D2*
G1X19685Y33858D1*
G1X19685Y35433D2*
G1X18110Y33858D1*
G1X24016Y35433D2*
G1X25591Y33858D1*
G1X25591Y35433D2*
G1X24016Y33858D1*
G1X29921Y35433D2*
G1X31496Y33858D1*
G1X31496Y35433D2*
G1X29921Y33858D1*
G1X35827Y35433D2*
G1X37402Y33858D1*
G1X37402Y35433D2*
G1X35827Y33858D1*
G1X41732Y35433D2*
G1X43307Y33858D1*
G1X43307Y35433D2*
G1X41732Y33858D1*
G1X55512Y35433D2*
G1X57087Y33858D1*
G1X57087Y35433D2*
G1X55512Y33858D1*
G1X61417Y35433D2*
G1X62992Y33858D1*
G1X62992Y35433D2*
G1X61417Y33858D1*
G1X67323Y35433D2*
G1X68898Y33858D1*
G1X68898Y35433D2*
G1X67323Y33858D1*
G1X73228Y35433D2*
G1X74803Y33858D1*
G1X74803Y35433D2*
G1X73228Y33858D1*
G1X79134Y35433D2*
G1X80709Y33858D1*
G1X80709Y35433D2*
G1X79134Y33858D1*
G1X85039Y35433D2*
G1X86614Y33858D1*
G1X86614Y35433D2*
G1X85039Y33858D1*
G1X90945Y35433D2*
G1X92520Y33858D1*
G1X92520Y35433D2*
G1X90945Y33858D1*
G1X93307Y21260D2*
G1X94882Y19685D1*
G1X94882Y21260D2*
G1X93307Y19685D1*
G1X93307Y16535D2*
G1X94882Y14961D1*
G1X94882Y16535D2*
G1X93307Y14961D1*
G1X93307Y11417D2*
G1X94882Y9843D1*
G1X94882Y11417D2*
G1X93307Y9843D1*
G1X93307Y7087D2*
G1X94882Y5512D1*
G1X94882Y7087D2*
G1X93307Y5512D1*
G1X93307Y2362D2*
G1X94882Y787D1*
G1X94882Y2362D2*
G1X93307Y787D1*
G1X95669Y35433D2*
G1X97244Y33858D1*
G1X97244Y35433D2*
G1X95669Y33858D1*
G1X95669Y25591D2*
G1X97244Y24016D1*
G1X97244Y25591D2*
G1X95669Y24016D1*
G1X96063Y30709D2*
G1X97638Y29134D1*
G1X97638Y30709D2*
G1X96063Y29134D1*
G1X107480Y35433D2*
G1X109055Y33858D1*
G1X109055Y35433D2*
G1X107480Y33858D1*
G1X107874Y30709D2*
G1X109449Y29134D1*
G1X109449Y30709D2*
G1X107874Y29134D1*
G1X107874Y25591D2*
G1X109449Y24016D1*
G1X109449Y25591D2*
G1X107874Y24016D1*
G1X110630Y21260D2*
G1X112205Y19685D1*
G1X112205Y21260D2*
G1X110630Y19685D1*
G1X110630Y16535D2*
G1X112205Y14961D1*
G1X112205Y16535D2*
G1X110630Y14961D1*
G1X110630Y11024D2*
G1X112205Y9449D1*
G1X112205Y11024D2*
G1X110630Y9449D1*
G1X112598Y35433D2*
G1X114173Y33858D1*
G1X114173Y35433D2*
G1X112598Y33858D1*
G1X118504Y35433D2*
G1X120079Y33858D1*
G1X120079Y35433D2*
G1X118504Y33858D1*
G1X124409Y35433D2*
G1X125984Y33858D1*
G1X125984Y35433D2*
G1X124409Y33858D1*
G1X130315Y35433D2*
G1X131890Y33858D1*
G1X131890Y35433D2*
G1X130315Y33858D1*
G1X136220Y35433D2*
G1X137795Y33858D1*
G1X137795Y35433D2*
G1X136220Y33858D1*
G1X142126Y35433D2*
G1X143701Y33858D1*
G1X143701Y35433D2*
G1X142126Y33858D1*
G1X148031Y35433D2*
G1X149606Y33858D1*
G1X149606Y35433D2*
G1X148031Y33858D1*
G1X153937Y35433D2*
G1X155512Y33858D1*
G1X155512Y35433D2*
G1X153937Y33858D1*
G1X159843Y35433D2*
G1X161417Y33858D1*
G1X161417Y35433D2*
G1X159843Y33858D1*
G1X165748Y35433D2*
G1X167323Y33858D1*
G1X167323Y35433D2*
G1X165748Y33858D1*
G1X171654Y35433D2*
G1X173228Y33858D1*
G1X173228Y35433D2*
G1X171654Y33858D1*
G1X177559Y35433D2*
G1X179134Y33858D1*
G1X179134Y35433D2*
G1X177559Y33858D1*
G1X183465Y35433D2*
G1X185039Y33858D1*
G1X185039Y35433D2*
G1X183465Y33858D1*
G1X189370Y35433D2*
G1X190945Y33858D1*
G1X190945Y35433D2*
G1X189370Y33858D1*
G1X195276Y35433D2*
G1X196850Y33858D1*
G1X196850Y35433D2*
G1X195276Y33858D1*
G1X201181Y35433D2*
G1X202756Y33858D1*
G1X202756Y35433D2*
G1X201181Y33858D1*
G1X207087Y35433D2*
G1X208661Y33858D1*
G1X208661Y35433D2*
G1X207087Y33858D1*
G1X212992Y35433D2*
G1X214567Y33858D1*
G1X214567Y35433D2*
G1X212992Y33858D1*
G1X218898Y35433D2*
G1X220472Y33858D1*
G1X220472Y35433D2*
G1X218898Y33858D1*
G1X86417Y24173D2*
G75*
G3X86417Y24173I-906J0D1*
G1X120906Y24173D2*
G3X120906Y24173I-906J0D1*
G74*
G1X-356243Y433633D2*
G54D19*
G1X-356243Y445444D1*
G1X-353431Y445444D1*
G1X-351744Y444882D1*
G1X-350619Y443757D1*
G1X-350056Y442632D1*
G1X-349494Y440382D1*
G1X-349494Y438695D1*
G1X-350056Y436445D1*
G1X-350619Y435321D1*
G1X-351744Y434196D1*
G1X-353431Y433633D1*
G1X-356243Y433633D1*
G1X-344432Y433633D2*
G1X-344432Y441507D1*
G1X-344432Y439258D2*
G1X-343870Y440382D1*
G1X-343307Y440945D1*
G1X-342182Y441507D1*
G1X-341057Y441507D1*
G1X-337120Y433633D2*
G1X-337120Y441507D1*
G1X-337120Y445444D2*
G1X-337683Y444882D1*
G1X-337120Y444319D1*
G1X-336558Y444882D1*
G1X-337120Y445444D1*
G1X-337120Y444319D1*
G1X-329809Y433633D2*
G1X-330934Y434196D1*
G1X-331496Y435321D1*
G1X-331496Y445444D1*
G1X-323622Y433633D2*
G1X-324747Y434196D1*
G1X-325309Y435321D1*
G1X-325309Y445444D1*
G1X-310124Y433633D2*
G1X-310124Y445444D1*
G1X-306187Y437008D1*
G1X-302250Y445444D1*
G1X-302250Y433633D1*
G1X-291564Y433633D2*
G1X-291564Y439820D1*
G1X-292126Y440945D1*
G1X-293251Y441507D1*
G1X-295501Y441507D1*
G1X-296625Y440945D1*
G1X-291564Y434196D2*
G1X-292688Y433633D1*
G1X-295501Y433633D1*
G1X-296625Y434196D1*
G1X-297188Y435321D1*
G1X-297188Y436445D1*
G1X-296625Y437570D1*
G1X-295501Y438133D1*
G1X-292688Y438133D1*
G1X-291564Y438695D1*
G1X-285939Y441507D2*
G1X-285939Y429696D1*
G1X-285939Y440945D2*
G1X-284814Y441507D1*
G1X-282565Y441507D1*
G1X-281440Y440945D1*
G1X-280877Y440382D1*
G1X-280315Y439258D1*
G1X-280315Y435883D1*
G1X-280877Y434758D1*
G1X-281440Y434196D1*
G1X-282565Y433633D1*
G1X-284814Y433633D1*
G1X-285939Y434196D1*
G1X-275253Y434758D2*
G1X-274691Y434196D1*
G1X-275253Y433633D1*
G1X-275816Y434196D1*
G1X-275253Y434758D1*
G1X-275253Y433633D1*
G1X-275253Y440945D2*
G1X-274691Y440382D1*
G1X-275253Y439820D1*
G1X-275816Y440382D1*
G1X-275253Y440945D1*
G1X-275253Y439820D1*
G1X-368504Y414961D2*
G1X-366929Y413386D1*
G1X-366929Y414961D2*
G1X-368504Y413386D1*
G1X-353993Y420641D2*
G1X-352868Y420641D1*
G1X-351744Y420079D1*
G1X-351181Y419516D1*
G1X-350619Y418391D1*
G1X-350056Y416142D1*
G1X-350056Y413330D1*
G1X-350619Y411080D1*
G1X-351181Y409955D1*
G1X-351744Y409393D1*
G1X-352868Y408830D1*
G1X-353993Y408830D1*
G1X-355118Y409393D1*
G1X-355681Y409955D1*
G1X-356243Y411080D1*
G1X-356805Y413330D1*
G1X-356805Y416142D1*
G1X-356243Y418391D1*
G1X-355681Y419516D1*
G1X-355118Y420079D1*
G1X-353993Y420641D1*
G1X-344994Y409955D2*
G1X-344432Y409393D1*
G1X-344994Y408830D1*
G1X-345557Y409393D1*
G1X-344994Y409955D1*
G1X-344994Y408830D1*
G1X-334308Y416704D2*
G1X-334308Y408830D1*
G1X-337120Y421204D2*
G1X-339933Y412767D1*
G1X-332621Y412767D1*
G1X-325872Y420641D2*
G1X-324747Y420641D1*
G1X-323622Y420079D1*
G1X-323060Y419516D1*
G1X-322497Y418391D1*
G1X-321935Y416142D1*
G1X-321935Y413330D1*
G1X-322497Y411080D1*
G1X-323060Y409955D1*
G1X-323622Y409393D1*
G1X-324747Y408830D1*
G1X-325872Y408830D1*
G1X-326997Y409393D1*
G1X-327559Y409955D1*
G1X-328121Y411080D1*
G1X-328684Y413330D1*
G1X-328684Y416142D1*
G1X-328121Y418391D1*
G1X-327559Y419516D1*
G1X-326997Y420079D1*
G1X-325872Y420641D1*
G1X-316873Y408830D2*
G1X-316873Y416704D1*
G1X-316873Y415579D2*
G1X-316310Y416142D1*
G1X-315186Y416704D1*
G1X-313498Y416704D1*
G1X-312373Y416142D1*
G1X-311811Y415017D1*
G1X-311811Y408830D1*
G1X-311811Y415017D2*
G1X-311249Y416142D1*
G1X-310124Y416704D1*
G1X-308436Y416704D1*
G1X-307312Y416142D1*
G1X-306749Y415017D1*
G1X-306749Y408830D1*
G1X-301125Y408830D2*
G1X-301125Y416704D1*
G1X-301125Y415579D2*
G1X-300562Y416142D1*
G1X-299438Y416704D1*
G1X-297750Y416704D1*
G1X-296625Y416142D1*
G1X-296063Y415017D1*
G1X-296063Y408830D1*
G1X-296063Y415017D2*
G1X-295501Y416142D1*
G1X-294376Y416704D1*
G1X-292688Y416704D1*
G1X-291564Y416142D1*
G1X-291001Y415017D1*
G1X-291001Y408830D1*
G1X-267941Y421204D2*
G1X-278065Y406018D1*
G1X-252756Y420641D2*
G1X-251631Y420641D1*
G1X-250506Y420079D1*
G1X-249944Y419516D1*
G1X-249381Y418391D1*
G1X-248819Y416142D1*
G1X-248819Y413330D1*
G1X-249381Y411080D1*
G1X-249944Y409955D1*
G1X-250506Y409393D1*
G1X-251631Y408830D1*
G1X-252756Y408830D1*
G1X-253881Y409393D1*
G1X-254443Y409955D1*
G1X-255006Y411080D1*
G1X-255568Y413330D1*
G1X-255568Y416142D1*
G1X-255006Y418391D1*
G1X-254443Y419516D1*
G1X-253881Y420079D1*
G1X-252756Y420641D1*
G1X-243757Y409955D2*
G1X-243195Y409393D1*
G1X-243757Y408830D1*
G1X-244319Y409393D1*
G1X-243757Y409955D1*
G1X-243757Y408830D1*
G1X-235883Y420641D2*
G1X-234758Y420641D1*
G1X-233633Y420079D1*
G1X-233071Y419516D1*
G1X-232508Y418391D1*
G1X-231946Y416142D1*
G1X-231946Y413330D1*
G1X-232508Y411080D1*
G1X-233071Y409955D1*
G1X-233633Y409393D1*
G1X-234758Y408830D1*
G1X-235883Y408830D1*
G1X-237008Y409393D1*
G1X-237570Y409955D1*
G1X-238133Y411080D1*
G1X-238695Y413330D1*
G1X-238695Y416142D1*
G1X-238133Y418391D1*
G1X-237570Y419516D1*
G1X-237008Y420079D1*
G1X-235883Y420641D1*
G1X-220697Y408830D2*
G1X-227447Y408830D1*
G1X-224072Y408830D2*
G1X-224072Y420641D1*
G1X-225197Y418954D1*
G1X-226322Y417829D1*
G1X-227447Y417267D1*
G1X-210574Y420641D2*
G1X-212823Y420641D1*
G1X-213948Y420079D1*
G1X-214511Y419516D1*
G1X-215636Y417829D1*
G1X-216198Y415579D1*
G1X-216198Y411080D1*
G1X-215636Y409955D1*
G1X-215073Y409393D1*
G1X-213948Y408830D1*
G1X-211699Y408830D1*
G1X-210574Y409393D1*
G1X-210011Y409955D1*
G1X-209449Y411080D1*
G1X-209449Y413892D1*
G1X-210011Y415017D1*
G1X-210574Y415579D1*
G1X-211699Y416142D1*
G1X-213948Y416142D1*
G1X-215073Y415579D1*
G1X-215636Y415017D1*
G1X-216198Y413892D1*
G1X-204949Y420641D2*
G1X-204949Y418391D1*
G1X-200450Y420641D2*
G1X-200450Y418391D1*
G1X-183015Y404331D2*
G1X-183577Y404893D1*
G1X-184702Y406580D1*
G1X-185264Y407705D1*
G1X-185827Y409393D1*
G1X-186389Y412205D1*
G1X-186389Y414454D1*
G1X-185827Y417267D1*
G1X-185264Y418954D1*
G1X-184702Y420079D1*
G1X-183577Y421766D1*
G1X-183015Y422328D1*
G1X-173453Y416704D2*
G1X-173453Y408830D1*
G1X-176265Y421204D2*
G1X-179078Y412767D1*
G1X-171766Y412767D1*
G1X-161642Y420641D2*
G1X-167267Y420641D1*
G1X-167829Y415017D1*
G1X-167267Y415579D1*
G1X-166142Y416142D1*
G1X-163330Y416142D1*
G1X-162205Y415579D1*
G1X-161642Y415017D1*
G1X-161080Y413892D1*
G1X-161080Y411080D1*
G1X-161642Y409955D1*
G1X-162205Y409393D1*
G1X-163330Y408830D1*
G1X-166142Y408830D1*
G1X-167267Y409393D1*
G1X-167829Y409955D1*
G1X-147019Y408830D2*
G1X-147019Y420641D1*
G1X-141957Y408830D2*
G1X-141957Y415017D1*
G1X-142520Y416142D1*
G1X-143645Y416704D1*
G1X-145332Y416704D1*
G1X-146457Y416142D1*
G1X-147019Y415579D1*
G1X-134646Y408830D2*
G1X-135771Y409393D1*
G1X-136333Y409955D1*
G1X-136895Y411080D1*
G1X-136895Y414454D1*
G1X-136333Y415579D1*
G1X-135771Y416142D1*
G1X-134646Y416704D1*
G1X-132958Y416704D1*
G1X-131834Y416142D1*
G1X-131271Y415579D1*
G1X-130709Y414454D1*
G1X-130709Y411080D1*
G1X-131271Y409955D1*
G1X-131834Y409393D1*
G1X-132958Y408830D1*
G1X-134646Y408830D1*
G1X-123959Y408830D2*
G1X-125084Y409393D1*
G1X-125647Y410517D1*
G1X-125647Y420641D1*
G1X-114961Y409393D2*
G1X-116085Y408830D1*
G1X-118335Y408830D1*
G1X-119460Y409393D1*
G1X-120022Y410517D1*
G1X-120022Y415017D1*
G1X-119460Y416142D1*
G1X-118335Y416704D1*
G1X-116085Y416704D1*
G1X-114961Y416142D1*
G1X-114398Y415017D1*
G1X-114398Y413892D1*
G1X-120022Y412767D1*
G1X-109899Y409393D2*
G1X-108774Y408830D1*
G1X-106524Y408830D1*
G1X-105399Y409393D1*
G1X-104837Y410517D1*
G1X-104837Y411080D1*
G1X-105399Y412205D1*
G1X-106524Y412767D1*
G1X-108211Y412767D1*
G1X-109336Y413330D1*
G1X-109899Y414454D1*
G1X-109899Y415017D1*
G1X-109336Y416142D1*
G1X-108211Y416704D1*
G1X-106524Y416704D1*
G1X-105399Y416142D1*
G1X-100900Y404331D2*
G1X-100337Y404893D1*
G1X-99213Y406580D1*
G1X-98650Y407705D1*
G1X-98088Y409393D1*
G1X-97525Y412205D1*
G1X-97525Y414454D1*
G1X-98088Y417267D1*
G1X-98650Y418954D1*
G1X-99213Y420079D1*
G1X-100337Y421766D1*
G1X-100900Y422328D1*
G1X-366929Y398583D2*
G75*
G3X-366929Y398583I-906J0D1*
G74*
G1X-353993Y405051D2*
G1X-352868Y405051D1*
G1X-351744Y404488D1*
G1X-351181Y403926D1*
G1X-350619Y402801D1*
G1X-350056Y400551D1*
G1X-350056Y397739D1*
G1X-350619Y395489D1*
G1X-351181Y394364D1*
G1X-351744Y393802D1*
G1X-352868Y393240D1*
G1X-353993Y393240D1*
G1X-355118Y393802D1*
G1X-355681Y394364D1*
G1X-356243Y395489D1*
G1X-356805Y397739D1*
G1X-356805Y400551D1*
G1X-356243Y402801D1*
G1X-355681Y403926D1*
G1X-355118Y404488D1*
G1X-353993Y405051D1*
G1X-344994Y394364D2*
G1X-344432Y393802D1*
G1X-344994Y393240D1*
G1X-345557Y393802D1*
G1X-344994Y394364D1*
G1X-344994Y393240D1*
G1X-334308Y401114D2*
G1X-334308Y393240D1*
G1X-337120Y405613D2*
G1X-339933Y397177D1*
G1X-332621Y397177D1*
G1X-323060Y405051D2*
G1X-325309Y405051D1*
G1X-326434Y404488D1*
G1X-326997Y403926D1*
G1X-328121Y402238D1*
G1X-328684Y399989D1*
G1X-328684Y395489D1*
G1X-328121Y394364D1*
G1X-327559Y393802D1*
G1X-326434Y393240D1*
G1X-324184Y393240D1*
G1X-323060Y393802D1*
G1X-322497Y394364D1*
G1X-321935Y395489D1*
G1X-321935Y398301D1*
G1X-322497Y399426D1*
G1X-323060Y399989D1*
G1X-324184Y400551D1*
G1X-326434Y400551D1*
G1X-327559Y399989D1*
G1X-328121Y399426D1*
G1X-328684Y398301D1*
G1X-316873Y393240D2*
G1X-316873Y401114D1*
G1X-316873Y399989D2*
G1X-316310Y400551D1*
G1X-315186Y401114D1*
G1X-313498Y401114D1*
G1X-312373Y400551D1*
G1X-311811Y399426D1*
G1X-311811Y393240D1*
G1X-311811Y399426D2*
G1X-311249Y400551D1*
G1X-310124Y401114D1*
G1X-308436Y401114D1*
G1X-307312Y400551D1*
G1X-306749Y399426D1*
G1X-306749Y393240D1*
G1X-301125Y393240D2*
G1X-301125Y401114D1*
G1X-301125Y399989D2*
G1X-300562Y400551D1*
G1X-299438Y401114D1*
G1X-297750Y401114D1*
G1X-296625Y400551D1*
G1X-296063Y399426D1*
G1X-296063Y393240D1*
G1X-296063Y399426D2*
G1X-295501Y400551D1*
G1X-294376Y401114D1*
G1X-292688Y401114D1*
G1X-291564Y400551D1*
G1X-291001Y399426D1*
G1X-291001Y393240D1*
G1X-267941Y405613D2*
G1X-278065Y390427D1*
G1X-252756Y405051D2*
G1X-251631Y405051D1*
G1X-250506Y404488D1*
G1X-249944Y403926D1*
G1X-249381Y402801D1*
G1X-248819Y400551D1*
G1X-248819Y397739D1*
G1X-249381Y395489D1*
G1X-249944Y394364D1*
G1X-250506Y393802D1*
G1X-251631Y393240D1*
G1X-252756Y393240D1*
G1X-253881Y393802D1*
G1X-254443Y394364D1*
G1X-255006Y395489D1*
G1X-255568Y397739D1*
G1X-255568Y400551D1*
G1X-255006Y402801D1*
G1X-254443Y403926D1*
G1X-253881Y404488D1*
G1X-252756Y405051D1*
G1X-243757Y394364D2*
G1X-243195Y393802D1*
G1X-243757Y393240D1*
G1X-244319Y393802D1*
G1X-243757Y394364D1*
G1X-243757Y393240D1*
G1X-235883Y405051D2*
G1X-234758Y405051D1*
G1X-233633Y404488D1*
G1X-233071Y403926D1*
G1X-232508Y402801D1*
G1X-231946Y400551D1*
G1X-231946Y397739D1*
G1X-232508Y395489D1*
G1X-233071Y394364D1*
G1X-233633Y393802D1*
G1X-234758Y393240D1*
G1X-235883Y393240D1*
G1X-237008Y393802D1*
G1X-237570Y394364D1*
G1X-238133Y395489D1*
G1X-238695Y397739D1*
G1X-238695Y400551D1*
G1X-238133Y402801D1*
G1X-237570Y403926D1*
G1X-237008Y404488D1*
G1X-235883Y405051D1*
G1X-220697Y393240D2*
G1X-227447Y393240D1*
G1X-224072Y393240D2*
G1X-224072Y405051D1*
G1X-225197Y403363D1*
G1X-226322Y402238D1*
G1X-227447Y401676D1*
G1X-213948Y399989D2*
G1X-215073Y400551D1*
G1X-215636Y401114D1*
G1X-216198Y402238D1*
G1X-216198Y402801D1*
G1X-215636Y403926D1*
G1X-215073Y404488D1*
G1X-213948Y405051D1*
G1X-211699Y405051D1*
G1X-210574Y404488D1*
G1X-210011Y403926D1*
G1X-209449Y402801D1*
G1X-209449Y402238D1*
G1X-210011Y401114D1*
G1X-210574Y400551D1*
G1X-211699Y399989D1*
G1X-213948Y399989D1*
G1X-215073Y399426D1*
G1X-215636Y398864D1*
G1X-216198Y397739D1*
G1X-216198Y395489D1*
G1X-215636Y394364D1*
G1X-215073Y393802D1*
G1X-213948Y393240D1*
G1X-211699Y393240D1*
G1X-210574Y393802D1*
G1X-210011Y394364D1*
G1X-209449Y395489D1*
G1X-209449Y397739D1*
G1X-210011Y398864D1*
G1X-210574Y399426D1*
G1X-211699Y399989D1*
G1X-204949Y405051D2*
G1X-204949Y402801D1*
G1X-200450Y405051D2*
G1X-200450Y402801D1*
G1X-183015Y388740D2*
G1X-183577Y389303D1*
G1X-184702Y390990D1*
G1X-185264Y392115D1*
G1X-185827Y393802D1*
G1X-186389Y396614D1*
G1X-186389Y398864D1*
G1X-185827Y401676D1*
G1X-185264Y403363D1*
G1X-184702Y404488D1*
G1X-183577Y406175D1*
G1X-183015Y406738D1*
G1X-179078Y403926D2*
G1X-178515Y404488D1*
G1X-177390Y405051D1*
G1X-174578Y405051D1*
G1X-173453Y404488D1*
G1X-172891Y403926D1*
G1X-172328Y402801D1*
G1X-172328Y401676D1*
G1X-172891Y399989D1*
G1X-179640Y393240D1*
G1X-172328Y393240D1*
G1X-158268Y393240D2*
G1X-158268Y405051D1*
G1X-153206Y393240D2*
G1X-153206Y399426D1*
G1X-153768Y400551D1*
G1X-154893Y401114D1*
G1X-156580Y401114D1*
G1X-157705Y400551D1*
G1X-158268Y399989D1*
G1X-145894Y393240D2*
G1X-147019Y393802D1*
G1X-147582Y394364D1*
G1X-148144Y395489D1*
G1X-148144Y398864D1*
G1X-147582Y399989D1*
G1X-147019Y400551D1*
G1X-145894Y401114D1*
G1X-144207Y401114D1*
G1X-143082Y400551D1*
G1X-142520Y399989D1*
G1X-141957Y398864D1*
G1X-141957Y395489D1*
G1X-142520Y394364D1*
G1X-143082Y393802D1*
G1X-144207Y393240D1*
G1X-145894Y393240D1*
G1X-135208Y393240D2*
G1X-136333Y393802D1*
G1X-136895Y394927D1*
G1X-136895Y405051D1*
G1X-126209Y393802D2*
G1X-127334Y393240D1*
G1X-129584Y393240D1*
G1X-130709Y393802D1*
G1X-131271Y394927D1*
G1X-131271Y399426D1*
G1X-130709Y400551D1*
G1X-129584Y401114D1*
G1X-127334Y401114D1*
G1X-126209Y400551D1*
G1X-125647Y399426D1*
G1X-125647Y398301D1*
G1X-131271Y397177D1*
G1X-121147Y393802D2*
G1X-120022Y393240D1*
G1X-117773Y393240D1*
G1X-116648Y393802D1*
G1X-116085Y394927D1*
G1X-116085Y395489D1*
G1X-116648Y396614D1*
G1X-117773Y397177D1*
G1X-119460Y397177D1*
G1X-120585Y397739D1*
G1X-121147Y398864D1*
G1X-121147Y399426D1*
G1X-120585Y400551D1*
G1X-119460Y401114D1*
G1X-117773Y401114D1*
G1X-116648Y400551D1*
G1X-112148Y388740D2*
G1X-111586Y389303D1*
G1X-110461Y390990D1*
G1X-109899Y392115D1*
G1X-109336Y393802D1*
G1X-108774Y396614D1*
G1X-108774Y398864D1*
G1X-109336Y401676D1*
G1X-109899Y403363D1*
G1X-110461Y404488D1*
G1X-111586Y406175D1*
G1X-112148Y406738D1*
M2*
