G04 #@! TF.FileFunction,Copper,L2,Bot,Signal*
%FSLAX46Y46*%
G04 Gerber Fmt 4.6, Leading zero omitted, Abs format (unit mm)*
G04 Created by KiCad (PCBNEW 4.0.5) date 02/20/17 11:55:39*
%MOMM*%
%LPD*%
G01*
G04 APERTURE LIST*
%ADD10C,0.100000*%
%ADD11R,2.420000X5.080000*%
%ADD12C,0.970000*%
%ADD13R,0.460000X0.890000*%
%ADD14C,0.355600*%
%ADD15C,0.254000*%
G04 APERTURE END LIST*
D10*
D11*
X137936200Y-96614400D03*
X146696200Y-96614400D03*
D12*
X137936200Y-93174400D03*
X146696200Y-93174400D03*
D13*
X137936200Y-93624400D03*
X146696200Y-93624400D03*
D14*
X138912600Y-85674200D03*
X141122400Y-85674200D03*
D15*
G36*
X138099941Y-85511815D02*
X138099659Y-85835167D01*
X138223140Y-86134013D01*
X138451584Y-86362857D01*
X138750215Y-86486859D01*
X139073567Y-86487141D01*
X139372413Y-86363660D01*
X139601257Y-86135216D01*
X139725259Y-85836585D01*
X139725541Y-85513233D01*
X139624130Y-85267800D01*
X140411065Y-85267800D01*
X140309741Y-85511815D01*
X140309459Y-85835167D01*
X140432940Y-86134013D01*
X140661384Y-86362857D01*
X140960015Y-86486859D01*
X141283367Y-86487141D01*
X141582213Y-86363660D01*
X141811057Y-86135216D01*
X141935059Y-85836585D01*
X141935341Y-85513233D01*
X141833930Y-85267800D01*
X157403800Y-85267800D01*
X157403800Y-99593400D01*
X148365225Y-99593400D01*
X148444527Y-99514098D01*
X148541200Y-99280709D01*
X148541200Y-96900150D01*
X148382450Y-96741400D01*
X146823200Y-96741400D01*
X146823200Y-96761400D01*
X146569200Y-96761400D01*
X146569200Y-96741400D01*
X145009950Y-96741400D01*
X144851200Y-96900150D01*
X144851200Y-99280709D01*
X144947873Y-99514098D01*
X145027175Y-99593400D01*
X139605225Y-99593400D01*
X139684527Y-99514098D01*
X139781200Y-99280709D01*
X139781200Y-96900150D01*
X139622450Y-96741400D01*
X138063200Y-96741400D01*
X138063200Y-96761400D01*
X137809200Y-96761400D01*
X137809200Y-96741400D01*
X136249950Y-96741400D01*
X136091200Y-96900150D01*
X136091200Y-99280709D01*
X136187873Y-99514098D01*
X136267175Y-99593400D01*
X131064000Y-99593400D01*
X131064000Y-93948091D01*
X136091200Y-93948091D01*
X136091200Y-96328650D01*
X136249950Y-96487400D01*
X137809200Y-96487400D01*
X137809200Y-96467400D01*
X138063200Y-96467400D01*
X138063200Y-96487400D01*
X139622450Y-96487400D01*
X139781200Y-96328650D01*
X139781200Y-93948091D01*
X144851200Y-93948091D01*
X144851200Y-96328650D01*
X145009950Y-96487400D01*
X146569200Y-96487400D01*
X146569200Y-96467400D01*
X146823200Y-96467400D01*
X146823200Y-96487400D01*
X148382450Y-96487400D01*
X148541200Y-96328650D01*
X148541200Y-93948091D01*
X148444527Y-93714702D01*
X148265899Y-93536073D01*
X148032510Y-93439400D01*
X147788329Y-93439400D01*
X147829349Y-93315836D01*
X147797218Y-92871432D01*
X147688968Y-92610092D01*
X147475400Y-92574805D01*
X147347515Y-92702690D01*
X147285899Y-92641073D01*
X147119038Y-92571957D01*
X147295795Y-92395200D01*
X147260508Y-92181632D01*
X146837636Y-92041251D01*
X146393232Y-92073382D01*
X146131892Y-92181632D01*
X146096605Y-92395200D01*
X146273362Y-92571957D01*
X146106501Y-92641073D01*
X146044885Y-92702690D01*
X145917000Y-92574805D01*
X145703432Y-92610092D01*
X145563051Y-93032964D01*
X145592437Y-93439400D01*
X145359890Y-93439400D01*
X145126501Y-93536073D01*
X144947873Y-93714702D01*
X144851200Y-93948091D01*
X139781200Y-93948091D01*
X139684527Y-93714702D01*
X139505899Y-93536073D01*
X139272510Y-93439400D01*
X139028329Y-93439400D01*
X139069349Y-93315836D01*
X139037218Y-92871432D01*
X138928968Y-92610092D01*
X138715400Y-92574805D01*
X138587515Y-92702690D01*
X138525899Y-92641073D01*
X138359038Y-92571957D01*
X138535795Y-92395200D01*
X138500508Y-92181632D01*
X138077636Y-92041251D01*
X137633232Y-92073382D01*
X137371892Y-92181632D01*
X137336605Y-92395200D01*
X137513362Y-92571957D01*
X137346501Y-92641073D01*
X137284885Y-92702690D01*
X137157000Y-92574805D01*
X136943432Y-92610092D01*
X136803051Y-93032964D01*
X136832437Y-93439400D01*
X136599890Y-93439400D01*
X136366501Y-93536073D01*
X136187873Y-93714702D01*
X136091200Y-93948091D01*
X131064000Y-93948091D01*
X131064000Y-85267800D01*
X138201265Y-85267800D01*
X138099941Y-85511815D01*
X138099941Y-85511815D01*
G37*
X138099941Y-85511815D02*
X138099659Y-85835167D01*
X138223140Y-86134013D01*
X138451584Y-86362857D01*
X138750215Y-86486859D01*
X139073567Y-86487141D01*
X139372413Y-86363660D01*
X139601257Y-86135216D01*
X139725259Y-85836585D01*
X139725541Y-85513233D01*
X139624130Y-85267800D01*
X140411065Y-85267800D01*
X140309741Y-85511815D01*
X140309459Y-85835167D01*
X140432940Y-86134013D01*
X140661384Y-86362857D01*
X140960015Y-86486859D01*
X141283367Y-86487141D01*
X141582213Y-86363660D01*
X141811057Y-86135216D01*
X141935059Y-85836585D01*
X141935341Y-85513233D01*
X141833930Y-85267800D01*
X157403800Y-85267800D01*
X157403800Y-99593400D01*
X148365225Y-99593400D01*
X148444527Y-99514098D01*
X148541200Y-99280709D01*
X148541200Y-96900150D01*
X148382450Y-96741400D01*
X146823200Y-96741400D01*
X146823200Y-96761400D01*
X146569200Y-96761400D01*
X146569200Y-96741400D01*
X145009950Y-96741400D01*
X144851200Y-96900150D01*
X144851200Y-99280709D01*
X144947873Y-99514098D01*
X145027175Y-99593400D01*
X139605225Y-99593400D01*
X139684527Y-99514098D01*
X139781200Y-99280709D01*
X139781200Y-96900150D01*
X139622450Y-96741400D01*
X138063200Y-96741400D01*
X138063200Y-96761400D01*
X137809200Y-96761400D01*
X137809200Y-96741400D01*
X136249950Y-96741400D01*
X136091200Y-96900150D01*
X136091200Y-99280709D01*
X136187873Y-99514098D01*
X136267175Y-99593400D01*
X131064000Y-99593400D01*
X131064000Y-93948091D01*
X136091200Y-93948091D01*
X136091200Y-96328650D01*
X136249950Y-96487400D01*
X137809200Y-96487400D01*
X137809200Y-96467400D01*
X138063200Y-96467400D01*
X138063200Y-96487400D01*
X139622450Y-96487400D01*
X139781200Y-96328650D01*
X139781200Y-93948091D01*
X144851200Y-93948091D01*
X144851200Y-96328650D01*
X145009950Y-96487400D01*
X146569200Y-96487400D01*
X146569200Y-96467400D01*
X146823200Y-96467400D01*
X146823200Y-96487400D01*
X148382450Y-96487400D01*
X148541200Y-96328650D01*
X148541200Y-93948091D01*
X148444527Y-93714702D01*
X148265899Y-93536073D01*
X148032510Y-93439400D01*
X147788329Y-93439400D01*
X147829349Y-93315836D01*
X147797218Y-92871432D01*
X147688968Y-92610092D01*
X147475400Y-92574805D01*
X147347515Y-92702690D01*
X147285899Y-92641073D01*
X147119038Y-92571957D01*
X147295795Y-92395200D01*
X147260508Y-92181632D01*
X146837636Y-92041251D01*
X146393232Y-92073382D01*
X146131892Y-92181632D01*
X146096605Y-92395200D01*
X146273362Y-92571957D01*
X146106501Y-92641073D01*
X146044885Y-92702690D01*
X145917000Y-92574805D01*
X145703432Y-92610092D01*
X145563051Y-93032964D01*
X145592437Y-93439400D01*
X145359890Y-93439400D01*
X145126501Y-93536073D01*
X144947873Y-93714702D01*
X144851200Y-93948091D01*
X139781200Y-93948091D01*
X139684527Y-93714702D01*
X139505899Y-93536073D01*
X139272510Y-93439400D01*
X139028329Y-93439400D01*
X139069349Y-93315836D01*
X139037218Y-92871432D01*
X138928968Y-92610092D01*
X138715400Y-92574805D01*
X138587515Y-92702690D01*
X138525899Y-92641073D01*
X138359038Y-92571957D01*
X138535795Y-92395200D01*
X138500508Y-92181632D01*
X138077636Y-92041251D01*
X137633232Y-92073382D01*
X137371892Y-92181632D01*
X137336605Y-92395200D01*
X137513362Y-92571957D01*
X137346501Y-92641073D01*
X137284885Y-92702690D01*
X137157000Y-92574805D01*
X136943432Y-92610092D01*
X136803051Y-93032964D01*
X136832437Y-93439400D01*
X136599890Y-93439400D01*
X136366501Y-93536073D01*
X136187873Y-93714702D01*
X136091200Y-93948091D01*
X131064000Y-93948091D01*
X131064000Y-85267800D01*
X138201265Y-85267800D01*
X138099941Y-85511815D01*
M02*
