G04 #@! TF.FileFunction,Copper,L1,Top,Signal*
%FSLAX46Y46*%
G04 Gerber Fmt 4.6, Leading zero omitted, Abs format (unit mm)*
G04 Created by KiCad (PCBNEW 4.0.5) date 02/20/17 22:47:23*
%MOMM*%
%LPD*%
G01*
G04 APERTURE LIST*
%ADD10C,0.100000*%
%ADD11R,2.290000X5.080000*%
%ADD12R,2.420000X5.080000*%
%ADD13C,0.970000*%
%ADD14R,0.460000X0.890000*%
%ADD15C,0.355600*%
%ADD16C,0.254000*%
G04 APERTURE END LIST*
D10*
D11*
X142316200Y-96614400D03*
D12*
X137936200Y-96614400D03*
X146696200Y-96614400D03*
D13*
X137936200Y-93174400D03*
X146696200Y-93174400D03*
D14*
X137936200Y-93624400D03*
X146696200Y-93624400D03*
D15*
X141122400Y-85420200D03*
X138912600Y-85394800D03*
D16*
G36*
X156895800Y-79832200D02*
X140639800Y-79832200D01*
X140590390Y-79842206D01*
X140548765Y-79870647D01*
X140521485Y-79913041D01*
X140512800Y-79959200D01*
X140512800Y-81762600D01*
X140522806Y-81812010D01*
X140551247Y-81853635D01*
X140593641Y-81880915D01*
X140639800Y-81889600D01*
X141503400Y-81889600D01*
X141503400Y-82092800D01*
X141513406Y-82142210D01*
X141540597Y-82182603D01*
X142417800Y-83059806D01*
X142417800Y-85140800D01*
X142427806Y-85190210D01*
X142456247Y-85231835D01*
X142498641Y-85259115D01*
X142544800Y-85267800D01*
X142722600Y-85267800D01*
X142722600Y-93439400D01*
X142601950Y-93439400D01*
X142443200Y-93598150D01*
X142443200Y-96824800D01*
X142189200Y-96824800D01*
X142189200Y-93598150D01*
X142030450Y-93439400D01*
X141909800Y-93439400D01*
X141909800Y-85267800D01*
X142087600Y-85267800D01*
X142137010Y-85257794D01*
X142178635Y-85229353D01*
X142205915Y-85186959D01*
X142214600Y-85140800D01*
X142214600Y-83058000D01*
X142204594Y-83008590D01*
X142177403Y-82968197D01*
X141567803Y-82358597D01*
X141525789Y-82330734D01*
X141478000Y-82321400D01*
X138557000Y-82321400D01*
X138557000Y-81889600D01*
X139420600Y-81889600D01*
X139470010Y-81879594D01*
X139511635Y-81851153D01*
X139538915Y-81808759D01*
X139547600Y-81762600D01*
X139547600Y-80949800D01*
X139537594Y-80900390D01*
X139509153Y-80858765D01*
X139466759Y-80831485D01*
X139420600Y-80822800D01*
X133629400Y-80822800D01*
X133579990Y-80832806D01*
X133538365Y-80861247D01*
X133511085Y-80903641D01*
X133502400Y-80949800D01*
X133502400Y-83108800D01*
X133512406Y-83158210D01*
X133540847Y-83199835D01*
X133583241Y-83227115D01*
X133629400Y-83235800D01*
X141503400Y-83235800D01*
X141503400Y-93439400D01*
X141044890Y-93439400D01*
X140811501Y-93536073D01*
X140632873Y-93714702D01*
X140536200Y-93948091D01*
X140536200Y-96328650D01*
X140538200Y-96330650D01*
X140538200Y-96898150D01*
X140536200Y-96900150D01*
X140536200Y-99280709D01*
X140632873Y-99514098D01*
X140811501Y-99692727D01*
X141044890Y-99789400D01*
X142030450Y-99789400D01*
X142048650Y-99771200D01*
X142583750Y-99771200D01*
X142601950Y-99789400D01*
X143587510Y-99789400D01*
X143820899Y-99692727D01*
X143999527Y-99514098D01*
X144096200Y-99280709D01*
X144096200Y-96900150D01*
X144851200Y-96900150D01*
X144851200Y-99280709D01*
X144947873Y-99514098D01*
X145126501Y-99692727D01*
X145359890Y-99789400D01*
X146410450Y-99789400D01*
X146569200Y-99630650D01*
X146569200Y-96741400D01*
X146823200Y-96741400D01*
X146823200Y-99630650D01*
X146981950Y-99789400D01*
X148032510Y-99789400D01*
X148265899Y-99692727D01*
X148444527Y-99514098D01*
X148541200Y-99280709D01*
X148541200Y-96900150D01*
X148382450Y-96741400D01*
X146823200Y-96741400D01*
X146569200Y-96741400D01*
X145009950Y-96741400D01*
X144851200Y-96900150D01*
X144096200Y-96900150D01*
X144094200Y-96898150D01*
X144094200Y-96330650D01*
X144096200Y-96328650D01*
X144096200Y-93948091D01*
X144851200Y-93948091D01*
X144851200Y-96328650D01*
X145009950Y-96487400D01*
X146569200Y-96487400D01*
X146569200Y-96467400D01*
X146823200Y-96467400D01*
X146823200Y-96487400D01*
X148382450Y-96487400D01*
X148541200Y-96328650D01*
X148541200Y-93948091D01*
X148444527Y-93714702D01*
X148265899Y-93536073D01*
X148032510Y-93439400D01*
X147788329Y-93439400D01*
X147829349Y-93315836D01*
X147797218Y-92871432D01*
X147688968Y-92610092D01*
X147475400Y-92574805D01*
X147347515Y-92702690D01*
X147285899Y-92641073D01*
X147119038Y-92571957D01*
X147295795Y-92395200D01*
X147260508Y-92181632D01*
X146837636Y-92041251D01*
X146393232Y-92073382D01*
X146131892Y-92181632D01*
X146096605Y-92395200D01*
X146273362Y-92571957D01*
X146106501Y-92641073D01*
X146044885Y-92702690D01*
X145917000Y-92574805D01*
X145703432Y-92610092D01*
X145563051Y-93032964D01*
X145592437Y-93439400D01*
X145359890Y-93439400D01*
X145126501Y-93536073D01*
X144947873Y-93714702D01*
X144851200Y-93948091D01*
X144096200Y-93948091D01*
X143999527Y-93714702D01*
X143820899Y-93536073D01*
X143587510Y-93439400D01*
X143129000Y-93439400D01*
X143129000Y-85267800D01*
X157911800Y-85267800D01*
X157911800Y-100101400D01*
X130556000Y-100101400D01*
X130556000Y-96900150D01*
X136091200Y-96900150D01*
X136091200Y-99280709D01*
X136187873Y-99514098D01*
X136366501Y-99692727D01*
X136599890Y-99789400D01*
X137650450Y-99789400D01*
X137809200Y-99630650D01*
X137809200Y-96741400D01*
X138063200Y-96741400D01*
X138063200Y-99630650D01*
X138221950Y-99789400D01*
X139272510Y-99789400D01*
X139505899Y-99692727D01*
X139684527Y-99514098D01*
X139781200Y-99280709D01*
X139781200Y-96900150D01*
X139622450Y-96741400D01*
X138063200Y-96741400D01*
X137809200Y-96741400D01*
X136249950Y-96741400D01*
X136091200Y-96900150D01*
X130556000Y-96900150D01*
X130556000Y-93948091D01*
X136091200Y-93948091D01*
X136091200Y-96328650D01*
X136249950Y-96487400D01*
X137809200Y-96487400D01*
X137809200Y-96467400D01*
X138063200Y-96467400D01*
X138063200Y-96487400D01*
X139622450Y-96487400D01*
X139781200Y-96328650D01*
X139781200Y-93948091D01*
X139684527Y-93714702D01*
X139505899Y-93536073D01*
X139272510Y-93439400D01*
X139028329Y-93439400D01*
X139069349Y-93315836D01*
X139037218Y-92871432D01*
X138928968Y-92610092D01*
X138715400Y-92574805D01*
X138587515Y-92702690D01*
X138525899Y-92641073D01*
X138359038Y-92571957D01*
X138535795Y-92395200D01*
X138500508Y-92181632D01*
X138077636Y-92041251D01*
X137633232Y-92073382D01*
X137371892Y-92181632D01*
X137336605Y-92395200D01*
X137513362Y-92571957D01*
X137346501Y-92641073D01*
X137284885Y-92702690D01*
X137157000Y-92574805D01*
X136943432Y-92610092D01*
X136803051Y-93032964D01*
X136832437Y-93439400D01*
X136599890Y-93439400D01*
X136366501Y-93536073D01*
X136187873Y-93714702D01*
X136091200Y-93948091D01*
X130556000Y-93948091D01*
X130556000Y-85267800D01*
X138430000Y-85267800D01*
X138479410Y-85257794D01*
X138521035Y-85229353D01*
X138548315Y-85186959D01*
X138557000Y-85140800D01*
X138557000Y-84404200D01*
X139293600Y-84404200D01*
X139293600Y-85140800D01*
X139303606Y-85190210D01*
X139332047Y-85231835D01*
X139374441Y-85259115D01*
X139420600Y-85267800D01*
X140639800Y-85267800D01*
X140689210Y-85257794D01*
X140730835Y-85229353D01*
X140758115Y-85186959D01*
X140766800Y-85140800D01*
X140766800Y-84404200D01*
X140756794Y-84354790D01*
X140728353Y-84313165D01*
X140685959Y-84285885D01*
X140639800Y-84277200D01*
X139420600Y-84277200D01*
X139371190Y-84287206D01*
X139329565Y-84315647D01*
X139302285Y-84358041D01*
X139293600Y-84404200D01*
X138557000Y-84404200D01*
X138546994Y-84354790D01*
X138518553Y-84313165D01*
X138476159Y-84285885D01*
X138430000Y-84277200D01*
X131572000Y-84277200D01*
X131572000Y-78867000D01*
X156895800Y-78867000D01*
X156895800Y-79832200D01*
X156895800Y-79832200D01*
G37*
X156895800Y-79832200D02*
X140639800Y-79832200D01*
X140590390Y-79842206D01*
X140548765Y-79870647D01*
X140521485Y-79913041D01*
X140512800Y-79959200D01*
X140512800Y-81762600D01*
X140522806Y-81812010D01*
X140551247Y-81853635D01*
X140593641Y-81880915D01*
X140639800Y-81889600D01*
X141503400Y-81889600D01*
X141503400Y-82092800D01*
X141513406Y-82142210D01*
X141540597Y-82182603D01*
X142417800Y-83059806D01*
X142417800Y-85140800D01*
X142427806Y-85190210D01*
X142456247Y-85231835D01*
X142498641Y-85259115D01*
X142544800Y-85267800D01*
X142722600Y-85267800D01*
X142722600Y-93439400D01*
X142601950Y-93439400D01*
X142443200Y-93598150D01*
X142443200Y-96824800D01*
X142189200Y-96824800D01*
X142189200Y-93598150D01*
X142030450Y-93439400D01*
X141909800Y-93439400D01*
X141909800Y-85267800D01*
X142087600Y-85267800D01*
X142137010Y-85257794D01*
X142178635Y-85229353D01*
X142205915Y-85186959D01*
X142214600Y-85140800D01*
X142214600Y-83058000D01*
X142204594Y-83008590D01*
X142177403Y-82968197D01*
X141567803Y-82358597D01*
X141525789Y-82330734D01*
X141478000Y-82321400D01*
X138557000Y-82321400D01*
X138557000Y-81889600D01*
X139420600Y-81889600D01*
X139470010Y-81879594D01*
X139511635Y-81851153D01*
X139538915Y-81808759D01*
X139547600Y-81762600D01*
X139547600Y-80949800D01*
X139537594Y-80900390D01*
X139509153Y-80858765D01*
X139466759Y-80831485D01*
X139420600Y-80822800D01*
X133629400Y-80822800D01*
X133579990Y-80832806D01*
X133538365Y-80861247D01*
X133511085Y-80903641D01*
X133502400Y-80949800D01*
X133502400Y-83108800D01*
X133512406Y-83158210D01*
X133540847Y-83199835D01*
X133583241Y-83227115D01*
X133629400Y-83235800D01*
X141503400Y-83235800D01*
X141503400Y-93439400D01*
X141044890Y-93439400D01*
X140811501Y-93536073D01*
X140632873Y-93714702D01*
X140536200Y-93948091D01*
X140536200Y-96328650D01*
X140538200Y-96330650D01*
X140538200Y-96898150D01*
X140536200Y-96900150D01*
X140536200Y-99280709D01*
X140632873Y-99514098D01*
X140811501Y-99692727D01*
X141044890Y-99789400D01*
X142030450Y-99789400D01*
X142048650Y-99771200D01*
X142583750Y-99771200D01*
X142601950Y-99789400D01*
X143587510Y-99789400D01*
X143820899Y-99692727D01*
X143999527Y-99514098D01*
X144096200Y-99280709D01*
X144096200Y-96900150D01*
X144851200Y-96900150D01*
X144851200Y-99280709D01*
X144947873Y-99514098D01*
X145126501Y-99692727D01*
X145359890Y-99789400D01*
X146410450Y-99789400D01*
X146569200Y-99630650D01*
X146569200Y-96741400D01*
X146823200Y-96741400D01*
X146823200Y-99630650D01*
X146981950Y-99789400D01*
X148032510Y-99789400D01*
X148265899Y-99692727D01*
X148444527Y-99514098D01*
X148541200Y-99280709D01*
X148541200Y-96900150D01*
X148382450Y-96741400D01*
X146823200Y-96741400D01*
X146569200Y-96741400D01*
X145009950Y-96741400D01*
X144851200Y-96900150D01*
X144096200Y-96900150D01*
X144094200Y-96898150D01*
X144094200Y-96330650D01*
X144096200Y-96328650D01*
X144096200Y-93948091D01*
X144851200Y-93948091D01*
X144851200Y-96328650D01*
X145009950Y-96487400D01*
X146569200Y-96487400D01*
X146569200Y-96467400D01*
X146823200Y-96467400D01*
X146823200Y-96487400D01*
X148382450Y-96487400D01*
X148541200Y-96328650D01*
X148541200Y-93948091D01*
X148444527Y-93714702D01*
X148265899Y-93536073D01*
X148032510Y-93439400D01*
X147788329Y-93439400D01*
X147829349Y-93315836D01*
X147797218Y-92871432D01*
X147688968Y-92610092D01*
X147475400Y-92574805D01*
X147347515Y-92702690D01*
X147285899Y-92641073D01*
X147119038Y-92571957D01*
X147295795Y-92395200D01*
X147260508Y-92181632D01*
X146837636Y-92041251D01*
X146393232Y-92073382D01*
X146131892Y-92181632D01*
X146096605Y-92395200D01*
X146273362Y-92571957D01*
X146106501Y-92641073D01*
X146044885Y-92702690D01*
X145917000Y-92574805D01*
X145703432Y-92610092D01*
X145563051Y-93032964D01*
X145592437Y-93439400D01*
X145359890Y-93439400D01*
X145126501Y-93536073D01*
X144947873Y-93714702D01*
X144851200Y-93948091D01*
X144096200Y-93948091D01*
X143999527Y-93714702D01*
X143820899Y-93536073D01*
X143587510Y-93439400D01*
X143129000Y-93439400D01*
X143129000Y-85267800D01*
X157911800Y-85267800D01*
X157911800Y-100101400D01*
X130556000Y-100101400D01*
X130556000Y-96900150D01*
X136091200Y-96900150D01*
X136091200Y-99280709D01*
X136187873Y-99514098D01*
X136366501Y-99692727D01*
X136599890Y-99789400D01*
X137650450Y-99789400D01*
X137809200Y-99630650D01*
X137809200Y-96741400D01*
X138063200Y-96741400D01*
X138063200Y-99630650D01*
X138221950Y-99789400D01*
X139272510Y-99789400D01*
X139505899Y-99692727D01*
X139684527Y-99514098D01*
X139781200Y-99280709D01*
X139781200Y-96900150D01*
X139622450Y-96741400D01*
X138063200Y-96741400D01*
X137809200Y-96741400D01*
X136249950Y-96741400D01*
X136091200Y-96900150D01*
X130556000Y-96900150D01*
X130556000Y-93948091D01*
X136091200Y-93948091D01*
X136091200Y-96328650D01*
X136249950Y-96487400D01*
X137809200Y-96487400D01*
X137809200Y-96467400D01*
X138063200Y-96467400D01*
X138063200Y-96487400D01*
X139622450Y-96487400D01*
X139781200Y-96328650D01*
X139781200Y-93948091D01*
X139684527Y-93714702D01*
X139505899Y-93536073D01*
X139272510Y-93439400D01*
X139028329Y-93439400D01*
X139069349Y-93315836D01*
X139037218Y-92871432D01*
X138928968Y-92610092D01*
X138715400Y-92574805D01*
X138587515Y-92702690D01*
X138525899Y-92641073D01*
X138359038Y-92571957D01*
X138535795Y-92395200D01*
X138500508Y-92181632D01*
X138077636Y-92041251D01*
X137633232Y-92073382D01*
X137371892Y-92181632D01*
X137336605Y-92395200D01*
X137513362Y-92571957D01*
X137346501Y-92641073D01*
X137284885Y-92702690D01*
X137157000Y-92574805D01*
X136943432Y-92610092D01*
X136803051Y-93032964D01*
X136832437Y-93439400D01*
X136599890Y-93439400D01*
X136366501Y-93536073D01*
X136187873Y-93714702D01*
X136091200Y-93948091D01*
X130556000Y-93948091D01*
X130556000Y-85267800D01*
X138430000Y-85267800D01*
X138479410Y-85257794D01*
X138521035Y-85229353D01*
X138548315Y-85186959D01*
X138557000Y-85140800D01*
X138557000Y-84404200D01*
X139293600Y-84404200D01*
X139293600Y-85140800D01*
X139303606Y-85190210D01*
X139332047Y-85231835D01*
X139374441Y-85259115D01*
X139420600Y-85267800D01*
X140639800Y-85267800D01*
X140689210Y-85257794D01*
X140730835Y-85229353D01*
X140758115Y-85186959D01*
X140766800Y-85140800D01*
X140766800Y-84404200D01*
X140756794Y-84354790D01*
X140728353Y-84313165D01*
X140685959Y-84285885D01*
X140639800Y-84277200D01*
X139420600Y-84277200D01*
X139371190Y-84287206D01*
X139329565Y-84315647D01*
X139302285Y-84358041D01*
X139293600Y-84404200D01*
X138557000Y-84404200D01*
X138546994Y-84354790D01*
X138518553Y-84313165D01*
X138476159Y-84285885D01*
X138430000Y-84277200D01*
X131572000Y-84277200D01*
X131572000Y-78867000D01*
X156895800Y-78867000D01*
X156895800Y-79832200D01*
M02*
