G04 #@! TF.FileFunction,Copper,L2,Bot,Signal*
%FSLAX46Y46*%
G04 Gerber Fmt 4.6, Leading zero omitted, Abs format (unit mm)*
G04 Created by KiCad (PCBNEW 4.0.5) date 02/21/17 00:10:14*
%MOMM*%
%LPD*%
G01*
G04 APERTURE LIST*
%ADD10C,0.100000*%
%ADD11R,2.420000X5.080000*%
%ADD12C,0.970000*%
%ADD13R,0.460000X0.890000*%
%ADD14C,0.355600*%
%ADD15C,0.254000*%
G04 APERTURE END LIST*
D10*
D11*
X137936200Y-96614400D03*
X146696200Y-96614400D03*
D12*
X137936200Y-93174400D03*
X146696200Y-93174400D03*
D13*
X137936200Y-93624400D03*
X146696200Y-93624400D03*
D14*
X141135100Y-85648800D03*
X138925300Y-85648800D03*
D15*
G36*
X157911800Y-100101400D02*
X130556000Y-100101400D01*
X130556000Y-96900150D01*
X136091200Y-96900150D01*
X136091200Y-99280709D01*
X136187873Y-99514098D01*
X136366501Y-99692727D01*
X136599890Y-99789400D01*
X137650450Y-99789400D01*
X137809200Y-99630650D01*
X137809200Y-96741400D01*
X138063200Y-96741400D01*
X138063200Y-99630650D01*
X138221950Y-99789400D01*
X139272510Y-99789400D01*
X139505899Y-99692727D01*
X139684527Y-99514098D01*
X139781200Y-99280709D01*
X139781200Y-96900150D01*
X144851200Y-96900150D01*
X144851200Y-99280709D01*
X144947873Y-99514098D01*
X145126501Y-99692727D01*
X145359890Y-99789400D01*
X146410450Y-99789400D01*
X146569200Y-99630650D01*
X146569200Y-96741400D01*
X146823200Y-96741400D01*
X146823200Y-99630650D01*
X146981950Y-99789400D01*
X148032510Y-99789400D01*
X148265899Y-99692727D01*
X148444527Y-99514098D01*
X148541200Y-99280709D01*
X148541200Y-96900150D01*
X148382450Y-96741400D01*
X146823200Y-96741400D01*
X146569200Y-96741400D01*
X145009950Y-96741400D01*
X144851200Y-96900150D01*
X139781200Y-96900150D01*
X139622450Y-96741400D01*
X138063200Y-96741400D01*
X137809200Y-96741400D01*
X136249950Y-96741400D01*
X136091200Y-96900150D01*
X130556000Y-96900150D01*
X130556000Y-93948091D01*
X136091200Y-93948091D01*
X136091200Y-96328650D01*
X136249950Y-96487400D01*
X137809200Y-96487400D01*
X137809200Y-96467400D01*
X138063200Y-96467400D01*
X138063200Y-96487400D01*
X139622450Y-96487400D01*
X139781200Y-96328650D01*
X139781200Y-93948091D01*
X144851200Y-93948091D01*
X144851200Y-96328650D01*
X145009950Y-96487400D01*
X146569200Y-96487400D01*
X146569200Y-96467400D01*
X146823200Y-96467400D01*
X146823200Y-96487400D01*
X148382450Y-96487400D01*
X148541200Y-96328650D01*
X148541200Y-93948091D01*
X148444527Y-93714702D01*
X148265899Y-93536073D01*
X148032510Y-93439400D01*
X147788329Y-93439400D01*
X147829349Y-93315836D01*
X147797218Y-92871432D01*
X147688968Y-92610092D01*
X147475400Y-92574805D01*
X147347515Y-92702690D01*
X147285899Y-92641073D01*
X147119038Y-92571957D01*
X147295795Y-92395200D01*
X147260508Y-92181632D01*
X146837636Y-92041251D01*
X146393232Y-92073382D01*
X146131892Y-92181632D01*
X146096605Y-92395200D01*
X146273362Y-92571957D01*
X146106501Y-92641073D01*
X146044885Y-92702690D01*
X145917000Y-92574805D01*
X145703432Y-92610092D01*
X145563051Y-93032964D01*
X145592437Y-93439400D01*
X145359890Y-93439400D01*
X145126501Y-93536073D01*
X144947873Y-93714702D01*
X144851200Y-93948091D01*
X139781200Y-93948091D01*
X139684527Y-93714702D01*
X139505899Y-93536073D01*
X139272510Y-93439400D01*
X139028329Y-93439400D01*
X139069349Y-93315836D01*
X139037218Y-92871432D01*
X138928968Y-92610092D01*
X138715400Y-92574805D01*
X138587515Y-92702690D01*
X138525899Y-92641073D01*
X138359038Y-92571957D01*
X138535795Y-92395200D01*
X138500508Y-92181632D01*
X138077636Y-92041251D01*
X137633232Y-92073382D01*
X137371892Y-92181632D01*
X137336605Y-92395200D01*
X137513362Y-92571957D01*
X137346501Y-92641073D01*
X137284885Y-92702690D01*
X137157000Y-92574805D01*
X136943432Y-92610092D01*
X136803051Y-93032964D01*
X136832437Y-93439400D01*
X136599890Y-93439400D01*
X136366501Y-93536073D01*
X136187873Y-93714702D01*
X136091200Y-93948091D01*
X130556000Y-93948091D01*
X130556000Y-85267800D01*
X157911800Y-85267800D01*
X157911800Y-100101400D01*
X157911800Y-100101400D01*
G37*
X157911800Y-100101400D02*
X130556000Y-100101400D01*
X130556000Y-96900150D01*
X136091200Y-96900150D01*
X136091200Y-99280709D01*
X136187873Y-99514098D01*
X136366501Y-99692727D01*
X136599890Y-99789400D01*
X137650450Y-99789400D01*
X137809200Y-99630650D01*
X137809200Y-96741400D01*
X138063200Y-96741400D01*
X138063200Y-99630650D01*
X138221950Y-99789400D01*
X139272510Y-99789400D01*
X139505899Y-99692727D01*
X139684527Y-99514098D01*
X139781200Y-99280709D01*
X139781200Y-96900150D01*
X144851200Y-96900150D01*
X144851200Y-99280709D01*
X144947873Y-99514098D01*
X145126501Y-99692727D01*
X145359890Y-99789400D01*
X146410450Y-99789400D01*
X146569200Y-99630650D01*
X146569200Y-96741400D01*
X146823200Y-96741400D01*
X146823200Y-99630650D01*
X146981950Y-99789400D01*
X148032510Y-99789400D01*
X148265899Y-99692727D01*
X148444527Y-99514098D01*
X148541200Y-99280709D01*
X148541200Y-96900150D01*
X148382450Y-96741400D01*
X146823200Y-96741400D01*
X146569200Y-96741400D01*
X145009950Y-96741400D01*
X144851200Y-96900150D01*
X139781200Y-96900150D01*
X139622450Y-96741400D01*
X138063200Y-96741400D01*
X137809200Y-96741400D01*
X136249950Y-96741400D01*
X136091200Y-96900150D01*
X130556000Y-96900150D01*
X130556000Y-93948091D01*
X136091200Y-93948091D01*
X136091200Y-96328650D01*
X136249950Y-96487400D01*
X137809200Y-96487400D01*
X137809200Y-96467400D01*
X138063200Y-96467400D01*
X138063200Y-96487400D01*
X139622450Y-96487400D01*
X139781200Y-96328650D01*
X139781200Y-93948091D01*
X144851200Y-93948091D01*
X144851200Y-96328650D01*
X145009950Y-96487400D01*
X146569200Y-96487400D01*
X146569200Y-96467400D01*
X146823200Y-96467400D01*
X146823200Y-96487400D01*
X148382450Y-96487400D01*
X148541200Y-96328650D01*
X148541200Y-93948091D01*
X148444527Y-93714702D01*
X148265899Y-93536073D01*
X148032510Y-93439400D01*
X147788329Y-93439400D01*
X147829349Y-93315836D01*
X147797218Y-92871432D01*
X147688968Y-92610092D01*
X147475400Y-92574805D01*
X147347515Y-92702690D01*
X147285899Y-92641073D01*
X147119038Y-92571957D01*
X147295795Y-92395200D01*
X147260508Y-92181632D01*
X146837636Y-92041251D01*
X146393232Y-92073382D01*
X146131892Y-92181632D01*
X146096605Y-92395200D01*
X146273362Y-92571957D01*
X146106501Y-92641073D01*
X146044885Y-92702690D01*
X145917000Y-92574805D01*
X145703432Y-92610092D01*
X145563051Y-93032964D01*
X145592437Y-93439400D01*
X145359890Y-93439400D01*
X145126501Y-93536073D01*
X144947873Y-93714702D01*
X144851200Y-93948091D01*
X139781200Y-93948091D01*
X139684527Y-93714702D01*
X139505899Y-93536073D01*
X139272510Y-93439400D01*
X139028329Y-93439400D01*
X139069349Y-93315836D01*
X139037218Y-92871432D01*
X138928968Y-92610092D01*
X138715400Y-92574805D01*
X138587515Y-92702690D01*
X138525899Y-92641073D01*
X138359038Y-92571957D01*
X138535795Y-92395200D01*
X138500508Y-92181632D01*
X138077636Y-92041251D01*
X137633232Y-92073382D01*
X137371892Y-92181632D01*
X137336605Y-92395200D01*
X137513362Y-92571957D01*
X137346501Y-92641073D01*
X137284885Y-92702690D01*
X137157000Y-92574805D01*
X136943432Y-92610092D01*
X136803051Y-93032964D01*
X136832437Y-93439400D01*
X136599890Y-93439400D01*
X136366501Y-93536073D01*
X136187873Y-93714702D01*
X136091200Y-93948091D01*
X130556000Y-93948091D01*
X130556000Y-85267800D01*
X157911800Y-85267800D01*
X157911800Y-100101400D01*
M02*
