G04 #@! TF.FileFunction,Legend,Top*
%FSLAX46Y46*%
G04 Gerber Fmt 4.6, Leading zero omitted, Abs format (unit mm)*
G04 Created by KiCad (PCBNEW 4.0.5) date 03/16/17 21:07:46*
%MOMM*%
%LPD*%
G01*
G04 APERTURE LIST*
%ADD10C,0.025400*%
%ADD11C,0.050000*%
%ADD12C,0.150000*%
G04 APERTURE END LIST*
D10*
D11*
X16480720Y7231900D02*
X16630720Y7231900D01*
X16630720Y7231900D02*
X16630720Y7506900D01*
X16630720Y7506900D02*
X16480720Y7506900D01*
X16480720Y7506900D02*
X16480720Y7231900D01*
X16305720Y7081900D02*
X16805720Y7081900D01*
X16805720Y7081900D02*
X16805720Y8081900D01*
X16805720Y8081900D02*
X16305720Y8081900D01*
X16305720Y8081900D02*
X16305720Y7081900D01*
D12*
X20423333Y15848033D02*
X20899524Y15848033D01*
X20328095Y15562319D02*
X20661428Y16562319D01*
X20994762Y15562319D01*
X21328095Y16086129D02*
X21661429Y16086129D01*
X21804286Y15562319D02*
X21328095Y15562319D01*
X21328095Y16562319D01*
X21804286Y16562319D01*
X22756667Y15562319D02*
X22185238Y15562319D01*
X22470952Y15562319D02*
X22470952Y16562319D01*
X22375714Y16419462D01*
X22280476Y16324224D01*
X22185238Y16276605D01*
X18508101Y6843805D02*
X17508101Y6843805D01*
X17508101Y7224758D01*
X17555720Y7319996D01*
X17603339Y7367615D01*
X17698577Y7415234D01*
X17841434Y7415234D01*
X17936672Y7367615D01*
X17984291Y7319996D01*
X18031910Y7224758D01*
X18031910Y6843805D01*
X17603339Y7796186D02*
X17555720Y7843805D01*
X17508101Y7939043D01*
X17508101Y8177139D01*
X17555720Y8272377D01*
X17603339Y8319996D01*
X17698577Y8367615D01*
X17793815Y8367615D01*
X17936672Y8319996D01*
X18508101Y7748567D01*
X18508101Y8367615D01*
X24392421Y1796405D02*
X23392421Y1796405D01*
X23392421Y2177358D01*
X23440040Y2272596D01*
X23487659Y2320215D01*
X23582897Y2367834D01*
X23725754Y2367834D01*
X23820992Y2320215D01*
X23868611Y2272596D01*
X23916230Y2177358D01*
X23916230Y1796405D01*
X24392421Y3320215D02*
X24392421Y2748786D01*
X24392421Y3034500D02*
X23392421Y3034500D01*
X23535278Y2939262D01*
X23630516Y2844024D01*
X23678135Y2748786D01*
M02*
