M48
;DRILL file {KiCad 4.0.5} date 02/22/17 18:23:59
;FORMAT={-:-/ absolute / inch / decimal}
FMAT,2
INCH,TZ
T1C0.016
T2C0.039
T3C0.045
T4C0.051
T5C0.063
%
G90
G05
M72
T1
X0.475Y0.825
X3.25Y0.45
X4.65Y0.15
T2
X0.25Y0.975
X0.25Y0.875
X2.2Y0.575
X2.3Y0.575
X5.425Y1.45
X5.425Y1.35
X5.425Y1.025
X5.425Y0.925
X5.425Y0.65
X5.425Y0.55
X5.425Y0.25
X5.425Y0.15
T3
X3.675Y1.1
X3.675Y1.
X3.675Y0.9
T4
X1.375Y1.
X1.775Y1.325
X1.975Y1.
X2.35Y1.
X2.375Y1.325
X2.95Y1.
X3.375Y1.45
X3.975Y1.45
X4.575Y1.1
X4.575Y0.5
T5
X1.25Y0.325
X1.85Y0.325
T0
M30
