G04 #@! TF.FileFunction,Copper,L1,Top,Signal*
%FSLAX46Y46*%
G04 Gerber Fmt 4.6, Leading zero omitted, Abs format (unit mm)*
G04 Created by KiCad (PCBNEW 4.0.5) date 02/22/17 18:23:54*
%MOMM*%
%LPD*%
G01*
G04 APERTURE LIST*
%ADD10C,0.127000*%
%ADD11R,1.700000X1.700000*%
%ADD12O,1.700000X1.700000*%
%ADD13R,1.600000X2.000000*%
%ADD14R,5.000000X2.400000*%
%ADD15R,2.600000X2.600000*%
%ADD16O,2.600000X2.600000*%
%ADD17R,3.200000X3.200000*%
%ADD18O,3.200000X3.200000*%
%ADD19R,3.200000X2.700000*%
%ADD20O,2.540000X2.032000*%
%ADD21C,0.600000*%
%ADD22C,0.250000*%
%ADD23C,1.778000*%
G04 APERTURE END LIST*
D10*
D11*
X55880000Y14605000D03*
D12*
X58420000Y14605000D03*
D13*
X17780000Y24860000D03*
X17780000Y20860000D03*
X82550000Y25495000D03*
X82550000Y21495000D03*
D14*
X103505000Y10485000D03*
X103505000Y3485000D03*
D13*
X122555000Y23590000D03*
X122555000Y19590000D03*
D15*
X60325000Y33655000D03*
D16*
X45085000Y33655000D03*
D15*
X50165000Y25400000D03*
D16*
X34925000Y25400000D03*
D15*
X74930000Y25400000D03*
D16*
X59690000Y25400000D03*
D15*
X85725000Y36830000D03*
D16*
X100965000Y36830000D03*
D15*
X116205000Y27940000D03*
D16*
X116205000Y12700000D03*
D11*
X6350000Y24765000D03*
D12*
X6350000Y22225000D03*
D11*
X137795000Y34290000D03*
D12*
X137795000Y36830000D03*
D11*
X137795000Y23495000D03*
D12*
X137795000Y26035000D03*
D11*
X137795000Y13970000D03*
D12*
X137795000Y16510000D03*
D11*
X137795000Y3810000D03*
D12*
X137795000Y6350000D03*
D17*
X46990000Y8255000D03*
D18*
X31750000Y8255000D03*
D19*
X25400000Y25895000D03*
X25400000Y33795000D03*
X25400000Y16015000D03*
X25400000Y8115000D03*
X104140000Y28080000D03*
X104140000Y20180000D03*
X93345000Y11570000D03*
X93345000Y3670000D03*
D20*
X93345000Y25400000D03*
X93345000Y27940000D03*
X93345000Y22860000D03*
D21*
X12065000Y20955000D03*
X82550000Y11430000D03*
X118110000Y3810000D03*
D22*
X124460000Y28035000D02*
X124460000Y27305000D01*
X124365000Y27940000D02*
X124460000Y28035000D01*
D23*
X55880000Y14605000D02*
X55880000Y21590000D01*
X55880000Y21590000D02*
X59690000Y25400000D01*
X59690000Y25400000D02*
X50165000Y25400000D01*
X12160000Y20860000D02*
X17780000Y20860000D01*
X12065000Y20955000D02*
X12160000Y20860000D01*
X122555000Y19590000D02*
X122555000Y8255000D01*
X122555000Y8255000D02*
X117785000Y3485000D01*
X93345000Y3670000D02*
X103320000Y3670000D01*
D22*
X103320000Y3670000D02*
X103505000Y3485000D01*
D23*
X117785000Y3485000D02*
X103505000Y3485000D01*
X118110000Y3810000D02*
X117785000Y3485000D01*
X93345000Y3670000D02*
X90310000Y3670000D01*
X90310000Y3670000D02*
X82550000Y11430000D01*
X82550000Y11430000D02*
X82550000Y21495000D01*
D22*
X103505000Y3485000D02*
X93530000Y3485000D01*
X93530000Y3485000D02*
X93345000Y3670000D01*
D23*
X25400000Y33795000D02*
X44945000Y33795000D01*
X44945000Y33795000D02*
X45085000Y33655000D01*
X17780000Y24860000D02*
X17780000Y26175000D01*
X17780000Y26175000D02*
X25400000Y33795000D01*
X6350000Y24765000D02*
X17685000Y24765000D01*
D22*
X17685000Y24765000D02*
X17780000Y24860000D01*
D23*
X74930000Y25400000D02*
X66675000Y33655000D01*
X66675000Y33655000D02*
X60325000Y33655000D01*
X82550000Y25495000D02*
X82550000Y33655000D01*
X82550000Y33655000D02*
X85725000Y36830000D01*
X82550000Y25495000D02*
X93250000Y25495000D01*
D22*
X93250000Y25495000D02*
X93345000Y25400000D01*
D23*
X74930000Y25400000D02*
X82455000Y25400000D01*
D22*
X82455000Y25400000D02*
X82550000Y25495000D01*
X82455000Y25400000D02*
X82550000Y25495000D01*
D23*
X103505000Y10485000D02*
X113990000Y10485000D01*
X113990000Y10485000D02*
X116205000Y12700000D01*
X137795000Y6350000D02*
X137795000Y8350000D01*
X137795000Y8350000D02*
X126460000Y19685000D01*
X137795000Y16510000D02*
X133985000Y16510000D01*
X126460000Y19685000D02*
X122555000Y23590000D01*
X130810000Y19685000D02*
X126460000Y19685000D01*
X133985000Y16510000D02*
X130810000Y19685000D01*
X122555000Y23590000D02*
X130905000Y23590000D01*
X133350000Y26035000D02*
X137795000Y26035000D01*
X130905000Y23590000D02*
X133350000Y26035000D01*
X116205000Y27940000D02*
X118205000Y27940000D01*
X118205000Y27940000D02*
X122555000Y23590000D01*
X122555000Y23590000D02*
X122555000Y30480000D01*
X122555000Y30480000D02*
X128905000Y36830000D01*
X128905000Y36830000D02*
X137795000Y36830000D01*
X104140000Y28080000D02*
X116065000Y28080000D01*
D22*
X116065000Y28080000D02*
X116205000Y27940000D01*
D23*
X93345000Y27940000D02*
X104000000Y27940000D01*
D22*
X104000000Y27940000D02*
X104140000Y28080000D01*
D23*
X100965000Y36830000D02*
X100965000Y31255000D01*
X100965000Y31255000D02*
X104140000Y28080000D01*
X25400000Y25895000D02*
X34430000Y25895000D01*
D22*
X34430000Y25895000D02*
X34925000Y25400000D01*
D23*
X25400000Y25895000D02*
X25400000Y16015000D01*
X25400000Y8115000D02*
X31610000Y8115000D01*
D22*
X31610000Y8115000D02*
X31750000Y8255000D01*
D23*
X93345000Y11570000D02*
X93345000Y22860000D01*
X104140000Y20180000D02*
X101955000Y20180000D01*
X101955000Y20180000D02*
X93345000Y11570000D01*
M02*
