G04 #@! TF.FileFunction,Legend,Top*
%FSLAX46Y46*%
G04 Gerber Fmt 4.6, Leading zero omitted, Abs format (unit mm)*
G04 Created by KiCad (PCBNEW 4.0.5) date 02/22/17 18:23:54*
%MOMM*%
%LPD*%
G01*
G04 APERTURE LIST*
%ADD10C,0.127000*%
%ADD11C,0.120000*%
%ADD12C,0.150000*%
G04 APERTURE END LIST*
D10*
D11*
X57150000Y13215000D02*
X59810000Y13215000D01*
X59810000Y13215000D02*
X59810000Y15995000D01*
X59810000Y15995000D02*
X57150000Y15995000D01*
X57150000Y15995000D02*
X57150000Y13215000D01*
X55880000Y13215000D02*
X54490000Y13215000D01*
X54490000Y13215000D02*
X54490000Y14605000D01*
X18800000Y21860000D02*
X18800000Y23860000D01*
X16760000Y23860000D02*
X16760000Y21860000D01*
X83570000Y22495000D02*
X83570000Y24495000D01*
X81530000Y24495000D02*
X81530000Y22495000D01*
X106235000Y4685000D02*
X106235000Y9285000D01*
X100775000Y9285000D02*
X100775000Y4685000D01*
X123575000Y20590000D02*
X123575000Y22590000D01*
X121535000Y22590000D02*
X121535000Y20590000D01*
X57530000Y30990000D02*
X57530000Y36320000D01*
X57530000Y36320000D02*
X47880000Y36320000D01*
X47880000Y36320000D02*
X47880000Y30990000D01*
X47880000Y30990000D02*
X57530000Y30990000D01*
X58845000Y33655000D02*
X57530000Y33655000D01*
X46565000Y33655000D02*
X47880000Y33655000D01*
X56040500Y30990000D02*
X56040500Y36320000D01*
X47370000Y22735000D02*
X47370000Y28065000D01*
X47370000Y28065000D02*
X37720000Y28065000D01*
X37720000Y28065000D02*
X37720000Y22735000D01*
X37720000Y22735000D02*
X47370000Y22735000D01*
X48685000Y25400000D02*
X47370000Y25400000D01*
X36405000Y25400000D02*
X37720000Y25400000D01*
X45880500Y22735000D02*
X45880500Y28065000D01*
X72135000Y22735000D02*
X72135000Y28065000D01*
X72135000Y28065000D02*
X62485000Y28065000D01*
X62485000Y28065000D02*
X62485000Y22735000D01*
X62485000Y22735000D02*
X72135000Y22735000D01*
X73450000Y25400000D02*
X72135000Y25400000D01*
X61170000Y25400000D02*
X62485000Y25400000D01*
X70645500Y22735000D02*
X70645500Y28065000D01*
X88520000Y39495000D02*
X88520000Y34165000D01*
X88520000Y34165000D02*
X98170000Y34165000D01*
X98170000Y34165000D02*
X98170000Y39495000D01*
X98170000Y39495000D02*
X88520000Y39495000D01*
X87205000Y36830000D02*
X88520000Y36830000D01*
X99485000Y36830000D02*
X98170000Y36830000D01*
X90009500Y39495000D02*
X90009500Y34165000D01*
X118870000Y25145000D02*
X113540000Y25145000D01*
X113540000Y25145000D02*
X113540000Y15495000D01*
X113540000Y15495000D02*
X118870000Y15495000D01*
X118870000Y15495000D02*
X118870000Y25145000D01*
X116205000Y26460000D02*
X116205000Y25145000D01*
X116205000Y14180000D02*
X116205000Y15495000D01*
X118870000Y23655500D02*
X113540000Y23655500D01*
X4960000Y23495000D02*
X4960000Y20835000D01*
X4960000Y20835000D02*
X7740000Y20835000D01*
X7740000Y20835000D02*
X7740000Y23495000D01*
X7740000Y23495000D02*
X4960000Y23495000D01*
X4960000Y24765000D02*
X4960000Y26155000D01*
X4960000Y26155000D02*
X6350000Y26155000D01*
X139185000Y35560000D02*
X139185000Y38220000D01*
X139185000Y38220000D02*
X136405000Y38220000D01*
X136405000Y38220000D02*
X136405000Y35560000D01*
X136405000Y35560000D02*
X139185000Y35560000D01*
X139185000Y34290000D02*
X139185000Y32900000D01*
X139185000Y32900000D02*
X137795000Y32900000D01*
X139185000Y24765000D02*
X139185000Y27425000D01*
X139185000Y27425000D02*
X136405000Y27425000D01*
X136405000Y27425000D02*
X136405000Y24765000D01*
X136405000Y24765000D02*
X139185000Y24765000D01*
X139185000Y23495000D02*
X139185000Y22105000D01*
X139185000Y22105000D02*
X137795000Y22105000D01*
X139185000Y15240000D02*
X139185000Y17900000D01*
X139185000Y17900000D02*
X136405000Y17900000D01*
X136405000Y17900000D02*
X136405000Y15240000D01*
X136405000Y15240000D02*
X139185000Y15240000D01*
X139185000Y13970000D02*
X139185000Y12580000D01*
X139185000Y12580000D02*
X137795000Y12580000D01*
X139185000Y5080000D02*
X139185000Y7740000D01*
X139185000Y7740000D02*
X136405000Y7740000D01*
X136405000Y7740000D02*
X136405000Y5080000D01*
X136405000Y5080000D02*
X139185000Y5080000D01*
X139185000Y3810000D02*
X139185000Y2420000D01*
X139185000Y2420000D02*
X137795000Y2420000D01*
X44180000Y5595000D02*
X44180000Y10915000D01*
X44180000Y10915000D02*
X34560000Y10915000D01*
X34560000Y10915000D02*
X34560000Y5595000D01*
X34560000Y5595000D02*
X44180000Y5595000D01*
X45210000Y8255000D02*
X44180000Y8255000D01*
X33530000Y8255000D02*
X34560000Y8255000D01*
X42695000Y5595000D02*
X42695000Y10915000D01*
X27220000Y32445000D02*
X27220000Y27245000D01*
X23580000Y27245000D02*
X23580000Y32445000D01*
X23580000Y9465000D02*
X23580000Y14665000D01*
X27220000Y14665000D02*
X27220000Y9465000D01*
X102320000Y21530000D02*
X102320000Y26730000D01*
X105960000Y26730000D02*
X105960000Y21530000D01*
X91525000Y5020000D02*
X91525000Y10220000D01*
X95165000Y10220000D02*
X95165000Y5020000D01*
D12*
X91694000Y30226000D02*
X95123000Y30226000D01*
X91694000Y20574000D02*
X95123000Y20574000D01*
X90551000Y30734000D02*
X90551000Y20066000D01*
X91567000Y27178000D02*
X90297000Y27178000D01*
X91567000Y23622000D02*
X90297000Y23622000D01*
X91694000Y20066000D02*
X91694000Y30734000D01*
X95123000Y30734000D02*
X95123000Y20066000D01*
X90297000Y20066000D02*
X95123000Y20066000D01*
X90297000Y30734000D02*
X95123000Y30734000D01*
X90297000Y30734000D02*
X90297000Y20066000D01*
X53418571Y13819286D02*
X53466190Y13962143D01*
X53513810Y14009762D01*
X53609048Y14057381D01*
X53751905Y14057381D01*
X53847143Y14009762D01*
X53894762Y13962143D01*
X53942381Y13866905D01*
X53942381Y13485952D01*
X52942381Y13485952D01*
X52942381Y13819286D01*
X52990000Y13914524D01*
X53037619Y13962143D01*
X53132857Y14009762D01*
X53228095Y14009762D01*
X53323333Y13962143D01*
X53370952Y13914524D01*
X53418571Y13819286D01*
X53418571Y13485952D01*
X52942381Y14343095D02*
X52942381Y14914524D01*
X53942381Y14628809D02*
X52942381Y14628809D01*
X53942381Y15771667D02*
X53942381Y15200238D01*
X53942381Y15485952D02*
X52942381Y15485952D01*
X53085238Y15390714D01*
X53180476Y15295476D01*
X53228095Y15200238D01*
X19887143Y22693334D02*
X19934762Y22645715D01*
X19982381Y22502858D01*
X19982381Y22407620D01*
X19934762Y22264762D01*
X19839524Y22169524D01*
X19744286Y22121905D01*
X19553810Y22074286D01*
X19410952Y22074286D01*
X19220476Y22121905D01*
X19125238Y22169524D01*
X19030000Y22264762D01*
X18982381Y22407620D01*
X18982381Y22502858D01*
X19030000Y22645715D01*
X19077619Y22693334D01*
X19982381Y23645715D02*
X19982381Y23074286D01*
X19982381Y23360000D02*
X18982381Y23360000D01*
X19125238Y23264762D01*
X19220476Y23169524D01*
X19268095Y23074286D01*
X84657143Y23328334D02*
X84704762Y23280715D01*
X84752381Y23137858D01*
X84752381Y23042620D01*
X84704762Y22899762D01*
X84609524Y22804524D01*
X84514286Y22756905D01*
X84323810Y22709286D01*
X84180952Y22709286D01*
X83990476Y22756905D01*
X83895238Y22804524D01*
X83800000Y22899762D01*
X83752381Y23042620D01*
X83752381Y23137858D01*
X83800000Y23280715D01*
X83847619Y23328334D01*
X83847619Y23709286D02*
X83800000Y23756905D01*
X83752381Y23852143D01*
X83752381Y24090239D01*
X83800000Y24185477D01*
X83847619Y24233096D01*
X83942857Y24280715D01*
X84038095Y24280715D01*
X84180952Y24233096D01*
X84752381Y23661667D01*
X84752381Y24280715D01*
X107362143Y6818334D02*
X107409762Y6770715D01*
X107457381Y6627858D01*
X107457381Y6532620D01*
X107409762Y6389762D01*
X107314524Y6294524D01*
X107219286Y6246905D01*
X107028810Y6199286D01*
X106885952Y6199286D01*
X106695476Y6246905D01*
X106600238Y6294524D01*
X106505000Y6389762D01*
X106457381Y6532620D01*
X106457381Y6627858D01*
X106505000Y6770715D01*
X106552619Y6818334D01*
X106457381Y7151667D02*
X106457381Y7770715D01*
X106838333Y7437381D01*
X106838333Y7580239D01*
X106885952Y7675477D01*
X106933571Y7723096D01*
X107028810Y7770715D01*
X107266905Y7770715D01*
X107362143Y7723096D01*
X107409762Y7675477D01*
X107457381Y7580239D01*
X107457381Y7294524D01*
X107409762Y7199286D01*
X107362143Y7151667D01*
X124662143Y21423334D02*
X124709762Y21375715D01*
X124757381Y21232858D01*
X124757381Y21137620D01*
X124709762Y20994762D01*
X124614524Y20899524D01*
X124519286Y20851905D01*
X124328810Y20804286D01*
X124185952Y20804286D01*
X123995476Y20851905D01*
X123900238Y20899524D01*
X123805000Y20994762D01*
X123757381Y21137620D01*
X123757381Y21232858D01*
X123805000Y21375715D01*
X123852619Y21423334D01*
X124090714Y22280477D02*
X124757381Y22280477D01*
X123709762Y22042381D02*
X124424048Y21804286D01*
X124424048Y22423334D01*
X51966905Y29537619D02*
X51966905Y30537619D01*
X52205000Y30537619D01*
X52347858Y30490000D01*
X52443096Y30394762D01*
X52490715Y30299524D01*
X52538334Y30109048D01*
X52538334Y29966190D01*
X52490715Y29775714D01*
X52443096Y29680476D01*
X52347858Y29585238D01*
X52205000Y29537619D01*
X51966905Y29537619D01*
X53490715Y29537619D02*
X52919286Y29537619D01*
X53205000Y29537619D02*
X53205000Y30537619D01*
X53109762Y30394762D01*
X53014524Y30299524D01*
X52919286Y30251905D01*
X41806905Y21282619D02*
X41806905Y22282619D01*
X42045000Y22282619D01*
X42187858Y22235000D01*
X42283096Y22139762D01*
X42330715Y22044524D01*
X42378334Y21854048D01*
X42378334Y21711190D01*
X42330715Y21520714D01*
X42283096Y21425476D01*
X42187858Y21330238D01*
X42045000Y21282619D01*
X41806905Y21282619D01*
X42759286Y22187381D02*
X42806905Y22235000D01*
X42902143Y22282619D01*
X43140239Y22282619D01*
X43235477Y22235000D01*
X43283096Y22187381D01*
X43330715Y22092143D01*
X43330715Y21996905D01*
X43283096Y21854048D01*
X42711667Y21282619D01*
X43330715Y21282619D01*
X66571905Y21282619D02*
X66571905Y22282619D01*
X66810000Y22282619D01*
X66952858Y22235000D01*
X67048096Y22139762D01*
X67095715Y22044524D01*
X67143334Y21854048D01*
X67143334Y21711190D01*
X67095715Y21520714D01*
X67048096Y21425476D01*
X66952858Y21330238D01*
X66810000Y21282619D01*
X66571905Y21282619D01*
X67476667Y22282619D02*
X68095715Y22282619D01*
X67762381Y21901667D01*
X67905239Y21901667D01*
X68000477Y21854048D01*
X68048096Y21806429D01*
X68095715Y21711190D01*
X68095715Y21473095D01*
X68048096Y21377857D01*
X68000477Y21330238D01*
X67905239Y21282619D01*
X67619524Y21282619D01*
X67524286Y21330238D01*
X67476667Y21377857D01*
X92606905Y40042619D02*
X92606905Y41042619D01*
X92845000Y41042619D01*
X92987858Y40995000D01*
X93083096Y40899762D01*
X93130715Y40804524D01*
X93178334Y40614048D01*
X93178334Y40471190D01*
X93130715Y40280714D01*
X93083096Y40185476D01*
X92987858Y40090238D01*
X92845000Y40042619D01*
X92606905Y40042619D01*
X94035477Y40709286D02*
X94035477Y40042619D01*
X93797381Y41090238D02*
X93559286Y40375952D01*
X94178334Y40375952D01*
X120322381Y19581905D02*
X119322381Y19581905D01*
X119322381Y19820000D01*
X119370000Y19962858D01*
X119465238Y20058096D01*
X119560476Y20105715D01*
X119750952Y20153334D01*
X119893810Y20153334D01*
X120084286Y20105715D01*
X120179524Y20058096D01*
X120274762Y19962858D01*
X120322381Y19820000D01*
X120322381Y19581905D01*
X119322381Y21058096D02*
X119322381Y20581905D01*
X119798571Y20534286D01*
X119750952Y20581905D01*
X119703333Y20677143D01*
X119703333Y20915239D01*
X119750952Y21010477D01*
X119798571Y21058096D01*
X119893810Y21105715D01*
X120131905Y21105715D01*
X120227143Y21058096D01*
X120274762Y21010477D01*
X120322381Y20915239D01*
X120322381Y20677143D01*
X120274762Y20581905D01*
X120227143Y20534286D01*
X6016667Y27702619D02*
X6016667Y26988333D01*
X5969047Y26845476D01*
X5873809Y26750238D01*
X5730952Y26702619D01*
X5635714Y26702619D01*
X7016667Y26702619D02*
X6445238Y26702619D01*
X6730952Y26702619D02*
X6730952Y27702619D01*
X6635714Y27559762D01*
X6540476Y27464524D01*
X6445238Y27416905D01*
X137461667Y32447619D02*
X137461667Y31733333D01*
X137414047Y31590476D01*
X137318809Y31495238D01*
X137175952Y31447619D01*
X137080714Y31447619D01*
X137890238Y32352381D02*
X137937857Y32400000D01*
X138033095Y32447619D01*
X138271191Y32447619D01*
X138366429Y32400000D01*
X138414048Y32352381D01*
X138461667Y32257143D01*
X138461667Y32161905D01*
X138414048Y32019048D01*
X137842619Y31447619D01*
X138461667Y31447619D01*
X137461667Y21652619D02*
X137461667Y20938333D01*
X137414047Y20795476D01*
X137318809Y20700238D01*
X137175952Y20652619D01*
X137080714Y20652619D01*
X137842619Y21652619D02*
X138461667Y21652619D01*
X138128333Y21271667D01*
X138271191Y21271667D01*
X138366429Y21224048D01*
X138414048Y21176429D01*
X138461667Y21081190D01*
X138461667Y20843095D01*
X138414048Y20747857D01*
X138366429Y20700238D01*
X138271191Y20652619D01*
X137985476Y20652619D01*
X137890238Y20700238D01*
X137842619Y20747857D01*
X137461667Y12127619D02*
X137461667Y11413333D01*
X137414047Y11270476D01*
X137318809Y11175238D01*
X137175952Y11127619D01*
X137080714Y11127619D01*
X138366429Y11794286D02*
X138366429Y11127619D01*
X138128333Y12175238D02*
X137890238Y11460952D01*
X138509286Y11460952D01*
X137461667Y1967619D02*
X137461667Y1253333D01*
X137414047Y1110476D01*
X137318809Y1015238D01*
X137175952Y967619D01*
X137080714Y967619D01*
X138414048Y1967619D02*
X137937857Y1967619D01*
X137890238Y1491429D01*
X137937857Y1539048D01*
X138033095Y1586667D01*
X138271191Y1586667D01*
X138366429Y1539048D01*
X138414048Y1491429D01*
X138461667Y1396190D01*
X138461667Y1158095D01*
X138414048Y1062857D01*
X138366429Y1015238D01*
X138271191Y967619D01*
X138033095Y967619D01*
X137937857Y1015238D01*
X137890238Y1062857D01*
X38250953Y4142619D02*
X37774762Y4142619D01*
X37774762Y5142619D01*
X38584286Y4666429D02*
X38917620Y4666429D01*
X39060477Y4142619D02*
X38584286Y4142619D01*
X38584286Y5142619D01*
X39060477Y5142619D01*
X39489048Y4142619D02*
X39489048Y5142619D01*
X39727143Y5142619D01*
X39870001Y5095000D01*
X39965239Y4999762D01*
X40012858Y4904524D01*
X40060477Y4714048D01*
X40060477Y4571190D01*
X40012858Y4380714D01*
X39965239Y4285476D01*
X39870001Y4190238D01*
X39727143Y4142619D01*
X39489048Y4142619D01*
X41012858Y4142619D02*
X40441429Y4142619D01*
X40727143Y4142619D02*
X40727143Y5142619D01*
X40631905Y4999762D01*
X40536667Y4904524D01*
X40441429Y4856905D01*
X23252381Y29678334D02*
X22776190Y29345000D01*
X23252381Y29106905D02*
X22252381Y29106905D01*
X22252381Y29487858D01*
X22300000Y29583096D01*
X22347619Y29630715D01*
X22442857Y29678334D01*
X22585714Y29678334D01*
X22680952Y29630715D01*
X22728571Y29583096D01*
X22776190Y29487858D01*
X22776190Y29106905D01*
X23252381Y30630715D02*
X23252381Y30059286D01*
X23252381Y30345000D02*
X22252381Y30345000D01*
X22395238Y30249762D01*
X22490476Y30154524D01*
X22538095Y30059286D01*
X28452381Y11898334D02*
X27976190Y11565000D01*
X28452381Y11326905D02*
X27452381Y11326905D01*
X27452381Y11707858D01*
X27500000Y11803096D01*
X27547619Y11850715D01*
X27642857Y11898334D01*
X27785714Y11898334D01*
X27880952Y11850715D01*
X27928571Y11803096D01*
X27976190Y11707858D01*
X27976190Y11326905D01*
X27547619Y12279286D02*
X27500000Y12326905D01*
X27452381Y12422143D01*
X27452381Y12660239D01*
X27500000Y12755477D01*
X27547619Y12803096D01*
X27642857Y12850715D01*
X27738095Y12850715D01*
X27880952Y12803096D01*
X28452381Y12231667D01*
X28452381Y12850715D01*
X107192381Y23963334D02*
X106716190Y23630000D01*
X107192381Y23391905D02*
X106192381Y23391905D01*
X106192381Y23772858D01*
X106240000Y23868096D01*
X106287619Y23915715D01*
X106382857Y23963334D01*
X106525714Y23963334D01*
X106620952Y23915715D01*
X106668571Y23868096D01*
X106716190Y23772858D01*
X106716190Y23391905D01*
X106192381Y24296667D02*
X106192381Y24915715D01*
X106573333Y24582381D01*
X106573333Y24725239D01*
X106620952Y24820477D01*
X106668571Y24868096D01*
X106763810Y24915715D01*
X107001905Y24915715D01*
X107097143Y24868096D01*
X107144762Y24820477D01*
X107192381Y24725239D01*
X107192381Y24439524D01*
X107144762Y24344286D01*
X107097143Y24296667D01*
X96397381Y7453334D02*
X95921190Y7120000D01*
X96397381Y6881905D02*
X95397381Y6881905D01*
X95397381Y7262858D01*
X95445000Y7358096D01*
X95492619Y7405715D01*
X95587857Y7453334D01*
X95730714Y7453334D01*
X95825952Y7405715D01*
X95873571Y7358096D01*
X95921190Y7262858D01*
X95921190Y6881905D01*
X95730714Y8310477D02*
X96397381Y8310477D01*
X95349762Y8072381D02*
X96064048Y7834286D01*
X96064048Y8453334D01*
X88479381Y24638095D02*
X89288905Y24638095D01*
X89384143Y24685714D01*
X89431762Y24733333D01*
X89479381Y24828571D01*
X89479381Y25019048D01*
X89431762Y25114286D01*
X89384143Y25161905D01*
X89288905Y25209524D01*
X88479381Y25209524D01*
X89479381Y26209524D02*
X89479381Y25638095D01*
X89479381Y25923809D02*
X88479381Y25923809D01*
X88622238Y25828571D01*
X88717476Y25733333D01*
X88765095Y25638095D01*
M02*
