%FSLAX45Y45*%
G04 Gerber Fmt 4.5, Leading zero omitted, Abs format (unit mm)*
G04 Created by KiCad (PCBNEW 4.0.5) date 02/22/17 18:24:00*
%MOMM*%
%LPD*%
G01*
G04 APERTURE LIST*
%ADD10C,0.127000*%
%ADD11C,0.200000*%
%ADD12C,0.300000*%
G04 APERTURE END LIST*
D10*
D11*
X1186500Y2115500D02*
X1226500Y2075500D01*
X1226500Y2115500D02*
X1186500Y2075500D01*
X8235000Y1163000D02*
X8275000Y1123000D01*
X8275000Y1163000D02*
X8235000Y1123000D01*
X11791000Y401000D02*
X11831000Y361000D01*
X11831000Y401000D02*
X11791000Y361000D01*
X685000Y2476500D02*
G75*
G03X685000Y2476500I-50000J0D01*
G01*
X685000Y2222500D02*
G75*
G03X685000Y2222500I-50000J0D01*
G01*
X5638000Y1460500D02*
G75*
G03X5638000Y1460500I-50000J0D01*
G01*
X5892000Y1460500D02*
G75*
G03X5892000Y1460500I-50000J0D01*
G01*
X13829500Y3683000D02*
G75*
G03X13829500Y3683000I-50000J0D01*
G01*
X13829500Y3429000D02*
G75*
G03X13829500Y3429000I-50000J0D01*
G01*
X13829500Y2603500D02*
G75*
G03X13829500Y2603500I-50000J0D01*
G01*
X13829500Y2349500D02*
G75*
G03X13829500Y2349500I-50000J0D01*
G01*
X13829500Y1651000D02*
G75*
G03X13829500Y1651000I-50000J0D01*
G01*
X13829500Y1397000D02*
G75*
G03X13829500Y1397000I-50000J0D01*
G01*
X13829500Y635000D02*
G75*
G03X13829500Y635000I-50000J0D01*
G01*
X13829500Y381000D02*
G75*
G03X13829500Y381000I-50000J0D01*
G01*
X9334500Y2851150D02*
X9334500Y2736850D01*
X9277350Y2794000D02*
X9391650Y2794000D01*
X9334500Y2597150D02*
X9334500Y2482850D01*
X9277350Y2540000D02*
X9391650Y2540000D01*
X9334500Y2343150D02*
X9334500Y2228850D01*
X9277350Y2286000D02*
X9391650Y2286000D01*
X3538462Y2494038D02*
X3538462Y2585962D01*
X3446538Y2585962D01*
X3446538Y2494038D01*
X3538462Y2494038D01*
X4554462Y3319538D02*
X4554462Y3411462D01*
X4462538Y3411462D01*
X4462538Y3319538D01*
X4554462Y3319538D01*
X5062462Y2494038D02*
X5062462Y2585962D01*
X4970538Y2585962D01*
X4970538Y2494038D01*
X5062462Y2494038D01*
X6014962Y2494038D02*
X6014962Y2585962D01*
X5923038Y2585962D01*
X5923038Y2494038D01*
X6014962Y2494038D01*
X6078462Y3319538D02*
X6078462Y3411462D01*
X5986538Y3411462D01*
X5986538Y3319538D01*
X6078462Y3319538D01*
X7538962Y2494038D02*
X7538962Y2585962D01*
X7447038Y2585962D01*
X7447038Y2494038D01*
X7538962Y2494038D01*
X8618462Y3637038D02*
X8618462Y3728962D01*
X8526538Y3728962D01*
X8526538Y3637038D01*
X8618462Y3637038D01*
X10142462Y3637038D02*
X10142462Y3728962D01*
X10050538Y3728962D01*
X10050538Y3637038D01*
X10142462Y3637038D01*
X11666462Y2748038D02*
X11666462Y2839962D01*
X11574538Y2839962D01*
X11574538Y2748038D01*
X11666462Y2748038D01*
X11666462Y1224038D02*
X11666462Y1315962D01*
X11574538Y1315962D01*
X11574538Y1224038D01*
X11666462Y1224038D01*
X3175000Y745500D02*
X3255000Y825500D01*
X3175000Y905500D01*
X3095000Y825500D01*
X3175000Y745500D01*
X4699000Y745500D02*
X4779000Y825500D01*
X4699000Y905500D01*
X4619000Y825500D01*
X4699000Y745500D01*
D12*
X-6396071Y11662786D02*
X-6396071Y11962786D01*
X-6324643Y11962786D01*
X-6281786Y11948500D01*
X-6253214Y11919929D01*
X-6238929Y11891357D01*
X-6224643Y11834214D01*
X-6224643Y11791357D01*
X-6238929Y11734214D01*
X-6253214Y11705643D01*
X-6281786Y11677071D01*
X-6324643Y11662786D01*
X-6396071Y11662786D01*
X-6096071Y11662786D02*
X-6096071Y11862786D01*
X-6096071Y11805643D02*
X-6081786Y11834214D01*
X-6067500Y11848500D01*
X-6038929Y11862786D01*
X-6010357Y11862786D01*
X-5910357Y11662786D02*
X-5910357Y11862786D01*
X-5910357Y11962786D02*
X-5924643Y11948500D01*
X-5910357Y11934214D01*
X-5896071Y11948500D01*
X-5910357Y11962786D01*
X-5910357Y11934214D01*
X-5724643Y11662786D02*
X-5753214Y11677071D01*
X-5767500Y11705643D01*
X-5767500Y11962786D01*
X-5567500Y11662786D02*
X-5596071Y11677071D01*
X-5610357Y11705643D01*
X-5610357Y11962786D01*
X-5224643Y11662786D02*
X-5224643Y11962786D01*
X-5124643Y11748500D01*
X-5024643Y11962786D01*
X-5024643Y11662786D01*
X-4753214Y11662786D02*
X-4753214Y11819929D01*
X-4767500Y11848500D01*
X-4796071Y11862786D01*
X-4853214Y11862786D01*
X-4881786Y11848500D01*
X-4753214Y11677071D02*
X-4781786Y11662786D01*
X-4853214Y11662786D01*
X-4881786Y11677071D01*
X-4896071Y11705643D01*
X-4896071Y11734214D01*
X-4881786Y11762786D01*
X-4853214Y11777071D01*
X-4781786Y11777071D01*
X-4753214Y11791357D01*
X-4610357Y11862786D02*
X-4610357Y11562786D01*
X-4610357Y11848500D02*
X-4581786Y11862786D01*
X-4524643Y11862786D01*
X-4496071Y11848500D01*
X-4481786Y11834214D01*
X-4467500Y11805643D01*
X-4467500Y11719929D01*
X-4481786Y11691357D01*
X-4496071Y11677071D01*
X-4524643Y11662786D01*
X-4581786Y11662786D01*
X-4610357Y11677071D01*
X-4338929Y11691357D02*
X-4324643Y11677071D01*
X-4338929Y11662786D01*
X-4353214Y11677071D01*
X-4338929Y11691357D01*
X-4338929Y11662786D01*
X-4338929Y11848500D02*
X-4324643Y11834214D01*
X-4338929Y11819929D01*
X-4353214Y11834214D01*
X-4338929Y11848500D01*
X-4338929Y11819929D01*
X-6707500Y11188500D02*
X-6667500Y11148500D01*
X-6667500Y11188500D02*
X-6707500Y11148500D01*
X-6338929Y11332786D02*
X-6310357Y11332786D01*
X-6281786Y11318500D01*
X-6267500Y11304214D01*
X-6253214Y11275643D01*
X-6238929Y11218500D01*
X-6238929Y11147071D01*
X-6253214Y11089929D01*
X-6267500Y11061357D01*
X-6281786Y11047071D01*
X-6310357Y11032786D01*
X-6338929Y11032786D01*
X-6367500Y11047071D01*
X-6381786Y11061357D01*
X-6396071Y11089929D01*
X-6410357Y11147071D01*
X-6410357Y11218500D01*
X-6396071Y11275643D01*
X-6381786Y11304214D01*
X-6367500Y11318500D01*
X-6338929Y11332786D01*
X-6110357Y11061357D02*
X-6096071Y11047071D01*
X-6110357Y11032786D01*
X-6124643Y11047071D01*
X-6110357Y11061357D01*
X-6110357Y11032786D01*
X-5838929Y11232786D02*
X-5838929Y11032786D01*
X-5910357Y11347071D02*
X-5981786Y11132786D01*
X-5796071Y11132786D01*
X-5624643Y11332786D02*
X-5596071Y11332786D01*
X-5567500Y11318500D01*
X-5553214Y11304214D01*
X-5538929Y11275643D01*
X-5524643Y11218500D01*
X-5524643Y11147071D01*
X-5538929Y11089929D01*
X-5553214Y11061357D01*
X-5567500Y11047071D01*
X-5596071Y11032786D01*
X-5624643Y11032786D01*
X-5653214Y11047071D01*
X-5667500Y11061357D01*
X-5681786Y11089929D01*
X-5696071Y11147071D01*
X-5696071Y11218500D01*
X-5681786Y11275643D01*
X-5667500Y11304214D01*
X-5653214Y11318500D01*
X-5624643Y11332786D01*
X-5396071Y11032786D02*
X-5396071Y11232786D01*
X-5396071Y11204214D02*
X-5381786Y11218500D01*
X-5353214Y11232786D01*
X-5310357Y11232786D01*
X-5281786Y11218500D01*
X-5267500Y11189929D01*
X-5267500Y11032786D01*
X-5267500Y11189929D02*
X-5253214Y11218500D01*
X-5224643Y11232786D01*
X-5181786Y11232786D01*
X-5153214Y11218500D01*
X-5138929Y11189929D01*
X-5138929Y11032786D01*
X-4996071Y11032786D02*
X-4996071Y11232786D01*
X-4996071Y11204214D02*
X-4981786Y11218500D01*
X-4953214Y11232786D01*
X-4910357Y11232786D01*
X-4881786Y11218500D01*
X-4867500Y11189929D01*
X-4867500Y11032786D01*
X-4867500Y11189929D02*
X-4853214Y11218500D01*
X-4824643Y11232786D01*
X-4781786Y11232786D01*
X-4753214Y11218500D01*
X-4738929Y11189929D01*
X-4738929Y11032786D01*
X-4153214Y11347071D02*
X-4410357Y10961357D01*
X-3767500Y11332786D02*
X-3738929Y11332786D01*
X-3710357Y11318500D01*
X-3696071Y11304214D01*
X-3681786Y11275643D01*
X-3667500Y11218500D01*
X-3667500Y11147071D01*
X-3681786Y11089929D01*
X-3696071Y11061357D01*
X-3710357Y11047071D01*
X-3738929Y11032786D01*
X-3767500Y11032786D01*
X-3796071Y11047071D01*
X-3810357Y11061357D01*
X-3824643Y11089929D01*
X-3838929Y11147071D01*
X-3838929Y11218500D01*
X-3824643Y11275643D01*
X-3810357Y11304214D01*
X-3796071Y11318500D01*
X-3767500Y11332786D01*
X-3538929Y11061357D02*
X-3524643Y11047071D01*
X-3538929Y11032786D01*
X-3553214Y11047071D01*
X-3538929Y11061357D01*
X-3538929Y11032786D01*
X-3338929Y11332786D02*
X-3310357Y11332786D01*
X-3281786Y11318500D01*
X-3267500Y11304214D01*
X-3253214Y11275643D01*
X-3238929Y11218500D01*
X-3238929Y11147071D01*
X-3253214Y11089929D01*
X-3267500Y11061357D01*
X-3281786Y11047071D01*
X-3310357Y11032786D01*
X-3338929Y11032786D01*
X-3367500Y11047071D01*
X-3381786Y11061357D01*
X-3396071Y11089929D01*
X-3410357Y11147071D01*
X-3410357Y11218500D01*
X-3396071Y11275643D01*
X-3381786Y11304214D01*
X-3367500Y11318500D01*
X-3338929Y11332786D01*
X-2953214Y11032786D02*
X-3124643Y11032786D01*
X-3038929Y11032786D02*
X-3038929Y11332786D01*
X-3067500Y11289929D01*
X-3096071Y11261357D01*
X-3124643Y11247071D01*
X-2696072Y11332786D02*
X-2753214Y11332786D01*
X-2781786Y11318500D01*
X-2796072Y11304214D01*
X-2824643Y11261357D01*
X-2838929Y11204214D01*
X-2838929Y11089929D01*
X-2824643Y11061357D01*
X-2810357Y11047071D01*
X-2781786Y11032786D01*
X-2724643Y11032786D01*
X-2696072Y11047071D01*
X-2681786Y11061357D01*
X-2667500Y11089929D01*
X-2667500Y11161357D01*
X-2681786Y11189929D01*
X-2696072Y11204214D01*
X-2724643Y11218500D01*
X-2781786Y11218500D01*
X-2810357Y11204214D01*
X-2824643Y11189929D01*
X-2838929Y11161357D01*
X-2553214Y11332786D02*
X-2553214Y11275643D01*
X-2438929Y11332786D02*
X-2438929Y11275643D01*
X-1996071Y10918500D02*
X-2010357Y10932786D01*
X-2038929Y10975643D01*
X-2053214Y11004214D01*
X-2067500Y11047071D01*
X-2081786Y11118500D01*
X-2081786Y11175643D01*
X-2067500Y11247071D01*
X-2053214Y11289929D01*
X-2038929Y11318500D01*
X-2010357Y11361357D01*
X-1996071Y11375643D01*
X-1910357Y11332786D02*
X-1724643Y11332786D01*
X-1824643Y11218500D01*
X-1781786Y11218500D01*
X-1753214Y11204214D01*
X-1738929Y11189929D01*
X-1724643Y11161357D01*
X-1724643Y11089929D01*
X-1738929Y11061357D01*
X-1753214Y11047071D01*
X-1781786Y11032786D01*
X-1867500Y11032786D01*
X-1896071Y11047071D01*
X-1910357Y11061357D01*
X-1367500Y11032786D02*
X-1367500Y11332786D01*
X-1238929Y11032786D02*
X-1238929Y11189929D01*
X-1253214Y11218500D01*
X-1281786Y11232786D01*
X-1324643Y11232786D01*
X-1353214Y11218500D01*
X-1367500Y11204214D01*
X-1053214Y11032786D02*
X-1081786Y11047071D01*
X-1096072Y11061357D01*
X-1110357Y11089929D01*
X-1110357Y11175643D01*
X-1096072Y11204214D01*
X-1081786Y11218500D01*
X-1053214Y11232786D01*
X-1010357Y11232786D01*
X-981786Y11218500D01*
X-967500Y11204214D01*
X-953214Y11175643D01*
X-953214Y11089929D01*
X-967500Y11061357D01*
X-981786Y11047071D01*
X-1010357Y11032786D01*
X-1053214Y11032786D01*
X-781786Y11032786D02*
X-810357Y11047071D01*
X-824643Y11075643D01*
X-824643Y11332786D01*
X-553214Y11047071D02*
X-581786Y11032786D01*
X-638929Y11032786D01*
X-667500Y11047071D01*
X-681786Y11075643D01*
X-681786Y11189929D01*
X-667500Y11218500D01*
X-638929Y11232786D01*
X-581786Y11232786D01*
X-553214Y11218500D01*
X-538929Y11189929D01*
X-538929Y11161357D01*
X-681786Y11132786D01*
X-424643Y11047071D02*
X-396071Y11032786D01*
X-338929Y11032786D01*
X-310357Y11047071D01*
X-296071Y11075643D01*
X-296071Y11089929D01*
X-310357Y11118500D01*
X-338929Y11132786D01*
X-381786Y11132786D01*
X-410357Y11147071D01*
X-424643Y11175643D01*
X-424643Y11189929D01*
X-410357Y11218500D01*
X-381786Y11232786D01*
X-338929Y11232786D01*
X-310357Y11218500D01*
X-196071Y10918500D02*
X-181786Y10932786D01*
X-153214Y10975643D01*
X-138929Y11004214D01*
X-124643Y11047071D01*
X-110357Y11118500D01*
X-110357Y11175643D01*
X-124643Y11247071D01*
X-138929Y11289929D01*
X-153214Y11318500D01*
X-181786Y11361357D01*
X-196071Y11375643D01*
X-6667500Y10772500D02*
G75*
G03X-6667500Y10772500I-50000J0D01*
G01*
X-6238929Y10636786D02*
X-6410357Y10636786D01*
X-6324643Y10636786D02*
X-6324643Y10936786D01*
X-6353214Y10893929D01*
X-6381786Y10865357D01*
X-6410357Y10851071D01*
X-6110357Y10665357D02*
X-6096071Y10651071D01*
X-6110357Y10636786D01*
X-6124643Y10651071D01*
X-6110357Y10665357D01*
X-6110357Y10636786D01*
X-5910357Y10936786D02*
X-5881786Y10936786D01*
X-5853214Y10922500D01*
X-5838929Y10908214D01*
X-5824643Y10879643D01*
X-5810357Y10822500D01*
X-5810357Y10751071D01*
X-5824643Y10693929D01*
X-5838929Y10665357D01*
X-5853214Y10651071D01*
X-5881786Y10636786D01*
X-5910357Y10636786D01*
X-5938929Y10651071D01*
X-5953214Y10665357D01*
X-5967500Y10693929D01*
X-5981786Y10751071D01*
X-5981786Y10822500D01*
X-5967500Y10879643D01*
X-5953214Y10908214D01*
X-5938929Y10922500D01*
X-5910357Y10936786D01*
X-5624643Y10936786D02*
X-5596071Y10936786D01*
X-5567500Y10922500D01*
X-5553214Y10908214D01*
X-5538929Y10879643D01*
X-5524643Y10822500D01*
X-5524643Y10751071D01*
X-5538929Y10693929D01*
X-5553214Y10665357D01*
X-5567500Y10651071D01*
X-5596071Y10636786D01*
X-5624643Y10636786D01*
X-5653214Y10651071D01*
X-5667500Y10665357D01*
X-5681786Y10693929D01*
X-5696071Y10751071D01*
X-5696071Y10822500D01*
X-5681786Y10879643D01*
X-5667500Y10908214D01*
X-5653214Y10922500D01*
X-5624643Y10936786D01*
X-5396071Y10636786D02*
X-5396071Y10836786D01*
X-5396071Y10808214D02*
X-5381786Y10822500D01*
X-5353214Y10836786D01*
X-5310357Y10836786D01*
X-5281786Y10822500D01*
X-5267500Y10793929D01*
X-5267500Y10636786D01*
X-5267500Y10793929D02*
X-5253214Y10822500D01*
X-5224643Y10836786D01*
X-5181786Y10836786D01*
X-5153214Y10822500D01*
X-5138929Y10793929D01*
X-5138929Y10636786D01*
X-4996071Y10636786D02*
X-4996071Y10836786D01*
X-4996071Y10808214D02*
X-4981786Y10822500D01*
X-4953214Y10836786D01*
X-4910357Y10836786D01*
X-4881786Y10822500D01*
X-4867500Y10793929D01*
X-4867500Y10636786D01*
X-4867500Y10793929D02*
X-4853214Y10822500D01*
X-4824643Y10836786D01*
X-4781786Y10836786D01*
X-4753214Y10822500D01*
X-4738929Y10793929D01*
X-4738929Y10636786D01*
X-4153214Y10951071D02*
X-4410357Y10565357D01*
X-3767500Y10936786D02*
X-3738929Y10936786D01*
X-3710357Y10922500D01*
X-3696071Y10908214D01*
X-3681786Y10879643D01*
X-3667500Y10822500D01*
X-3667500Y10751071D01*
X-3681786Y10693929D01*
X-3696071Y10665357D01*
X-3710357Y10651071D01*
X-3738929Y10636786D01*
X-3767500Y10636786D01*
X-3796071Y10651071D01*
X-3810357Y10665357D01*
X-3824643Y10693929D01*
X-3838929Y10751071D01*
X-3838929Y10822500D01*
X-3824643Y10879643D01*
X-3810357Y10908214D01*
X-3796071Y10922500D01*
X-3767500Y10936786D01*
X-3538929Y10665357D02*
X-3524643Y10651071D01*
X-3538929Y10636786D01*
X-3553214Y10651071D01*
X-3538929Y10665357D01*
X-3538929Y10636786D01*
X-3338929Y10936786D02*
X-3310357Y10936786D01*
X-3281786Y10922500D01*
X-3267500Y10908214D01*
X-3253214Y10879643D01*
X-3238929Y10822500D01*
X-3238929Y10751071D01*
X-3253214Y10693929D01*
X-3267500Y10665357D01*
X-3281786Y10651071D01*
X-3310357Y10636786D01*
X-3338929Y10636786D01*
X-3367500Y10651071D01*
X-3381786Y10665357D01*
X-3396071Y10693929D01*
X-3410357Y10751071D01*
X-3410357Y10822500D01*
X-3396071Y10879643D01*
X-3381786Y10908214D01*
X-3367500Y10922500D01*
X-3338929Y10936786D01*
X-3138929Y10936786D02*
X-2953214Y10936786D01*
X-3053214Y10822500D01*
X-3010357Y10822500D01*
X-2981786Y10808214D01*
X-2967500Y10793929D01*
X-2953214Y10765357D01*
X-2953214Y10693929D01*
X-2967500Y10665357D01*
X-2981786Y10651071D01*
X-3010357Y10636786D01*
X-3096071Y10636786D01*
X-3124643Y10651071D01*
X-3138929Y10665357D01*
X-2810357Y10636786D02*
X-2753214Y10636786D01*
X-2724643Y10651071D01*
X-2710357Y10665357D01*
X-2681786Y10708214D01*
X-2667500Y10765357D01*
X-2667500Y10879643D01*
X-2681786Y10908214D01*
X-2696072Y10922500D01*
X-2724643Y10936786D01*
X-2781786Y10936786D01*
X-2810357Y10922500D01*
X-2824643Y10908214D01*
X-2838929Y10879643D01*
X-2838929Y10808214D01*
X-2824643Y10779643D01*
X-2810357Y10765357D01*
X-2781786Y10751071D01*
X-2724643Y10751071D01*
X-2696072Y10765357D01*
X-2681786Y10779643D01*
X-2667500Y10808214D01*
X-2553214Y10936786D02*
X-2553214Y10879643D01*
X-2438929Y10936786D02*
X-2438929Y10879643D01*
X-1996071Y10522500D02*
X-2010357Y10536786D01*
X-2038929Y10579643D01*
X-2053214Y10608214D01*
X-2067500Y10651071D01*
X-2081786Y10722500D01*
X-2081786Y10779643D01*
X-2067500Y10851071D01*
X-2053214Y10893929D01*
X-2038929Y10922500D01*
X-2010357Y10965357D01*
X-1996071Y10979643D01*
X-1724643Y10636786D02*
X-1896071Y10636786D01*
X-1810357Y10636786D02*
X-1810357Y10936786D01*
X-1838929Y10893929D01*
X-1867500Y10865357D01*
X-1896071Y10851071D01*
X-1610357Y10908214D02*
X-1596071Y10922500D01*
X-1567500Y10936786D01*
X-1496071Y10936786D01*
X-1467500Y10922500D01*
X-1453214Y10908214D01*
X-1438929Y10879643D01*
X-1438929Y10851071D01*
X-1453214Y10808214D01*
X-1624643Y10636786D01*
X-1438929Y10636786D01*
X-1081786Y10636786D02*
X-1081786Y10936786D01*
X-953214Y10636786D02*
X-953214Y10793929D01*
X-967500Y10822500D01*
X-996071Y10836786D01*
X-1038929Y10836786D01*
X-1067500Y10822500D01*
X-1081786Y10808214D01*
X-767500Y10636786D02*
X-796071Y10651071D01*
X-810357Y10665357D01*
X-824643Y10693929D01*
X-824643Y10779643D01*
X-810357Y10808214D01*
X-796071Y10822500D01*
X-767500Y10836786D01*
X-724643Y10836786D01*
X-696072Y10822500D01*
X-681786Y10808214D01*
X-667500Y10779643D01*
X-667500Y10693929D01*
X-681786Y10665357D01*
X-696072Y10651071D01*
X-724643Y10636786D01*
X-767500Y10636786D01*
X-496071Y10636786D02*
X-524643Y10651071D01*
X-538929Y10679643D01*
X-538929Y10936786D01*
X-267500Y10651071D02*
X-296071Y10636786D01*
X-353214Y10636786D01*
X-381786Y10651071D01*
X-396071Y10679643D01*
X-396071Y10793929D01*
X-381786Y10822500D01*
X-353214Y10836786D01*
X-296071Y10836786D01*
X-267500Y10822500D01*
X-253214Y10793929D01*
X-253214Y10765357D01*
X-396071Y10736786D01*
X-138929Y10651071D02*
X-110357Y10636786D01*
X-53214Y10636786D01*
X-24643Y10651071D01*
X-10357Y10679643D01*
X-10357Y10693929D01*
X-24643Y10722500D01*
X-53214Y10736786D01*
X-96071Y10736786D01*
X-124643Y10751071D01*
X-138929Y10779643D01*
X-138929Y10793929D01*
X-124643Y10822500D01*
X-96071Y10836786D01*
X-53214Y10836786D01*
X-24643Y10822500D01*
X89643Y10522500D02*
X103929Y10536786D01*
X132500Y10579643D01*
X146786Y10608214D01*
X161071Y10651071D01*
X175357Y10722500D01*
X175357Y10779643D01*
X161071Y10851071D01*
X146786Y10893929D01*
X132500Y10922500D01*
X103929Y10965357D01*
X89643Y10979643D01*
X-6724650Y10433650D02*
X-6724650Y10319350D01*
X-6781800Y10376500D02*
X-6667500Y10376500D01*
X-6238929Y10240786D02*
X-6410357Y10240786D01*
X-6324643Y10240786D02*
X-6324643Y10540786D01*
X-6353214Y10497929D01*
X-6381786Y10469357D01*
X-6410357Y10455071D01*
X-6110357Y10269357D02*
X-6096071Y10255071D01*
X-6110357Y10240786D01*
X-6124643Y10255071D01*
X-6110357Y10269357D01*
X-6110357Y10240786D01*
X-5810357Y10240786D02*
X-5981786Y10240786D01*
X-5896071Y10240786D02*
X-5896071Y10540786D01*
X-5924643Y10497929D01*
X-5953214Y10469357D01*
X-5981786Y10455071D01*
X-5553214Y10440786D02*
X-5553214Y10240786D01*
X-5624643Y10555071D02*
X-5696071Y10340786D01*
X-5510357Y10340786D01*
X-5396071Y10240786D02*
X-5396071Y10440786D01*
X-5396071Y10412214D02*
X-5381786Y10426500D01*
X-5353214Y10440786D01*
X-5310357Y10440786D01*
X-5281786Y10426500D01*
X-5267500Y10397929D01*
X-5267500Y10240786D01*
X-5267500Y10397929D02*
X-5253214Y10426500D01*
X-5224643Y10440786D01*
X-5181786Y10440786D01*
X-5153214Y10426500D01*
X-5138929Y10397929D01*
X-5138929Y10240786D01*
X-4996071Y10240786D02*
X-4996071Y10440786D01*
X-4996071Y10412214D02*
X-4981786Y10426500D01*
X-4953214Y10440786D01*
X-4910357Y10440786D01*
X-4881786Y10426500D01*
X-4867500Y10397929D01*
X-4867500Y10240786D01*
X-4867500Y10397929D02*
X-4853214Y10426500D01*
X-4824643Y10440786D01*
X-4781786Y10440786D01*
X-4753214Y10426500D01*
X-4738929Y10397929D01*
X-4738929Y10240786D01*
X-4153214Y10555071D02*
X-4410357Y10169357D01*
X-3767500Y10540786D02*
X-3738929Y10540786D01*
X-3710357Y10526500D01*
X-3696071Y10512214D01*
X-3681786Y10483643D01*
X-3667500Y10426500D01*
X-3667500Y10355071D01*
X-3681786Y10297929D01*
X-3696071Y10269357D01*
X-3710357Y10255071D01*
X-3738929Y10240786D01*
X-3767500Y10240786D01*
X-3796071Y10255071D01*
X-3810357Y10269357D01*
X-3824643Y10297929D01*
X-3838929Y10355071D01*
X-3838929Y10426500D01*
X-3824643Y10483643D01*
X-3810357Y10512214D01*
X-3796071Y10526500D01*
X-3767500Y10540786D01*
X-3538929Y10269357D02*
X-3524643Y10255071D01*
X-3538929Y10240786D01*
X-3553214Y10255071D01*
X-3538929Y10269357D01*
X-3538929Y10240786D01*
X-3338929Y10540786D02*
X-3310357Y10540786D01*
X-3281786Y10526500D01*
X-3267500Y10512214D01*
X-3253214Y10483643D01*
X-3238929Y10426500D01*
X-3238929Y10355071D01*
X-3253214Y10297929D01*
X-3267500Y10269357D01*
X-3281786Y10255071D01*
X-3310357Y10240786D01*
X-3338929Y10240786D01*
X-3367500Y10255071D01*
X-3381786Y10269357D01*
X-3396071Y10297929D01*
X-3410357Y10355071D01*
X-3410357Y10426500D01*
X-3396071Y10483643D01*
X-3381786Y10512214D01*
X-3367500Y10526500D01*
X-3338929Y10540786D01*
X-2981786Y10440786D02*
X-2981786Y10240786D01*
X-3053214Y10555071D02*
X-3124643Y10340786D01*
X-2938929Y10340786D01*
X-2681786Y10540786D02*
X-2824643Y10540786D01*
X-2838929Y10397929D01*
X-2824643Y10412214D01*
X-2796072Y10426500D01*
X-2724643Y10426500D01*
X-2696072Y10412214D01*
X-2681786Y10397929D01*
X-2667500Y10369357D01*
X-2667500Y10297929D01*
X-2681786Y10269357D01*
X-2696072Y10255071D01*
X-2724643Y10240786D01*
X-2796072Y10240786D01*
X-2824643Y10255071D01*
X-2838929Y10269357D01*
X-2553214Y10540786D02*
X-2553214Y10483643D01*
X-2438929Y10540786D02*
X-2438929Y10483643D01*
X-1996071Y10126500D02*
X-2010357Y10140786D01*
X-2038929Y10183643D01*
X-2053214Y10212214D01*
X-2067500Y10255071D01*
X-2081786Y10326500D01*
X-2081786Y10383643D01*
X-2067500Y10455071D01*
X-2053214Y10497929D01*
X-2038929Y10526500D01*
X-2010357Y10569357D01*
X-1996071Y10583643D01*
X-1910357Y10540786D02*
X-1724643Y10540786D01*
X-1824643Y10426500D01*
X-1781786Y10426500D01*
X-1753214Y10412214D01*
X-1738929Y10397929D01*
X-1724643Y10369357D01*
X-1724643Y10297929D01*
X-1738929Y10269357D01*
X-1753214Y10255071D01*
X-1781786Y10240786D01*
X-1867500Y10240786D01*
X-1896071Y10255071D01*
X-1910357Y10269357D01*
X-1367500Y10240786D02*
X-1367500Y10540786D01*
X-1238929Y10240786D02*
X-1238929Y10397929D01*
X-1253214Y10426500D01*
X-1281786Y10440786D01*
X-1324643Y10440786D01*
X-1353214Y10426500D01*
X-1367500Y10412214D01*
X-1053214Y10240786D02*
X-1081786Y10255071D01*
X-1096072Y10269357D01*
X-1110357Y10297929D01*
X-1110357Y10383643D01*
X-1096072Y10412214D01*
X-1081786Y10426500D01*
X-1053214Y10440786D01*
X-1010357Y10440786D01*
X-981786Y10426500D01*
X-967500Y10412214D01*
X-953214Y10383643D01*
X-953214Y10297929D01*
X-967500Y10269357D01*
X-981786Y10255071D01*
X-1010357Y10240786D01*
X-1053214Y10240786D01*
X-781786Y10240786D02*
X-810357Y10255071D01*
X-824643Y10283643D01*
X-824643Y10540786D01*
X-553214Y10255071D02*
X-581786Y10240786D01*
X-638929Y10240786D01*
X-667500Y10255071D01*
X-681786Y10283643D01*
X-681786Y10397929D01*
X-667500Y10426500D01*
X-638929Y10440786D01*
X-581786Y10440786D01*
X-553214Y10426500D01*
X-538929Y10397929D01*
X-538929Y10369357D01*
X-681786Y10340786D01*
X-424643Y10255071D02*
X-396071Y10240786D01*
X-338929Y10240786D01*
X-310357Y10255071D01*
X-296071Y10283643D01*
X-296071Y10297929D01*
X-310357Y10326500D01*
X-338929Y10340786D01*
X-381786Y10340786D01*
X-410357Y10355071D01*
X-424643Y10383643D01*
X-424643Y10397929D01*
X-410357Y10426500D01*
X-381786Y10440786D01*
X-338929Y10440786D01*
X-310357Y10426500D01*
X-196071Y10126500D02*
X-181786Y10140786D01*
X-153214Y10183643D01*
X-138929Y10212214D01*
X-124643Y10255071D01*
X-110357Y10326500D01*
X-110357Y10383643D01*
X-124643Y10455071D01*
X-138929Y10497929D01*
X-153214Y10526500D01*
X-181786Y10569357D01*
X-196071Y10583643D01*
X-6686538Y9934538D02*
X-6686538Y10026462D01*
X-6778462Y10026462D01*
X-6778462Y9934538D01*
X-6686538Y9934538D01*
X-6238929Y9844786D02*
X-6410357Y9844786D01*
X-6324643Y9844786D02*
X-6324643Y10144786D01*
X-6353214Y10101929D01*
X-6381786Y10073357D01*
X-6410357Y10059071D01*
X-6110357Y9873357D02*
X-6096071Y9859071D01*
X-6110357Y9844786D01*
X-6124643Y9859071D01*
X-6110357Y9873357D01*
X-6110357Y9844786D01*
X-5996071Y10144786D02*
X-5810357Y10144786D01*
X-5910357Y10030500D01*
X-5867500Y10030500D01*
X-5838929Y10016214D01*
X-5824643Y10001929D01*
X-5810357Y9973357D01*
X-5810357Y9901929D01*
X-5824643Y9873357D01*
X-5838929Y9859071D01*
X-5867500Y9844786D01*
X-5953214Y9844786D01*
X-5981786Y9859071D01*
X-5996071Y9873357D01*
X-5624643Y10144786D02*
X-5596071Y10144786D01*
X-5567500Y10130500D01*
X-5553214Y10116214D01*
X-5538929Y10087643D01*
X-5524643Y10030500D01*
X-5524643Y9959071D01*
X-5538929Y9901929D01*
X-5553214Y9873357D01*
X-5567500Y9859071D01*
X-5596071Y9844786D01*
X-5624643Y9844786D01*
X-5653214Y9859071D01*
X-5667500Y9873357D01*
X-5681786Y9901929D01*
X-5696071Y9959071D01*
X-5696071Y10030500D01*
X-5681786Y10087643D01*
X-5667500Y10116214D01*
X-5653214Y10130500D01*
X-5624643Y10144786D01*
X-5396071Y9844786D02*
X-5396071Y10044786D01*
X-5396071Y10016214D02*
X-5381786Y10030500D01*
X-5353214Y10044786D01*
X-5310357Y10044786D01*
X-5281786Y10030500D01*
X-5267500Y10001929D01*
X-5267500Y9844786D01*
X-5267500Y10001929D02*
X-5253214Y10030500D01*
X-5224643Y10044786D01*
X-5181786Y10044786D01*
X-5153214Y10030500D01*
X-5138929Y10001929D01*
X-5138929Y9844786D01*
X-4996071Y9844786D02*
X-4996071Y10044786D01*
X-4996071Y10016214D02*
X-4981786Y10030500D01*
X-4953214Y10044786D01*
X-4910357Y10044786D01*
X-4881786Y10030500D01*
X-4867500Y10001929D01*
X-4867500Y9844786D01*
X-4867500Y10001929D02*
X-4853214Y10030500D01*
X-4824643Y10044786D01*
X-4781786Y10044786D01*
X-4753214Y10030500D01*
X-4738929Y10001929D01*
X-4738929Y9844786D01*
X-4153214Y10159071D02*
X-4410357Y9773357D01*
X-3767500Y10144786D02*
X-3738929Y10144786D01*
X-3710357Y10130500D01*
X-3696071Y10116214D01*
X-3681786Y10087643D01*
X-3667500Y10030500D01*
X-3667500Y9959071D01*
X-3681786Y9901929D01*
X-3696071Y9873357D01*
X-3710357Y9859071D01*
X-3738929Y9844786D01*
X-3767500Y9844786D01*
X-3796071Y9859071D01*
X-3810357Y9873357D01*
X-3824643Y9901929D01*
X-3838929Y9959071D01*
X-3838929Y10030500D01*
X-3824643Y10087643D01*
X-3810357Y10116214D01*
X-3796071Y10130500D01*
X-3767500Y10144786D01*
X-3538929Y9873357D02*
X-3524643Y9859071D01*
X-3538929Y9844786D01*
X-3553214Y9859071D01*
X-3538929Y9873357D01*
X-3538929Y9844786D01*
X-3338929Y10144786D02*
X-3310357Y10144786D01*
X-3281786Y10130500D01*
X-3267500Y10116214D01*
X-3253214Y10087643D01*
X-3238929Y10030500D01*
X-3238929Y9959071D01*
X-3253214Y9901929D01*
X-3267500Y9873357D01*
X-3281786Y9859071D01*
X-3310357Y9844786D01*
X-3338929Y9844786D01*
X-3367500Y9859071D01*
X-3381786Y9873357D01*
X-3396071Y9901929D01*
X-3410357Y9959071D01*
X-3410357Y10030500D01*
X-3396071Y10087643D01*
X-3381786Y10116214D01*
X-3367500Y10130500D01*
X-3338929Y10144786D01*
X-2967500Y10144786D02*
X-3110357Y10144786D01*
X-3124643Y10001929D01*
X-3110357Y10016214D01*
X-3081786Y10030500D01*
X-3010357Y10030500D01*
X-2981786Y10016214D01*
X-2967500Y10001929D01*
X-2953214Y9973357D01*
X-2953214Y9901929D01*
X-2967500Y9873357D01*
X-2981786Y9859071D01*
X-3010357Y9844786D01*
X-3081786Y9844786D01*
X-3110357Y9859071D01*
X-3124643Y9873357D01*
X-2667500Y9844786D02*
X-2838929Y9844786D01*
X-2753214Y9844786D02*
X-2753214Y10144786D01*
X-2781786Y10101929D01*
X-2810357Y10073357D01*
X-2838929Y10059071D01*
X-2553214Y10144786D02*
X-2553214Y10087643D01*
X-2438929Y10144786D02*
X-2438929Y10087643D01*
X-1996071Y9730500D02*
X-2010357Y9744786D01*
X-2038929Y9787643D01*
X-2053214Y9816214D01*
X-2067500Y9859071D01*
X-2081786Y9930500D01*
X-2081786Y9987643D01*
X-2067500Y10059071D01*
X-2053214Y10101929D01*
X-2038929Y10130500D01*
X-2010357Y10173357D01*
X-1996071Y10187643D01*
X-1724643Y9844786D02*
X-1896071Y9844786D01*
X-1810357Y9844786D02*
X-1810357Y10144786D01*
X-1838929Y10101929D01*
X-1867500Y10073357D01*
X-1896071Y10059071D01*
X-1538929Y10144786D02*
X-1510357Y10144786D01*
X-1481786Y10130500D01*
X-1467500Y10116214D01*
X-1453214Y10087643D01*
X-1438929Y10030500D01*
X-1438929Y9959071D01*
X-1453214Y9901929D01*
X-1467500Y9873357D01*
X-1481786Y9859071D01*
X-1510357Y9844786D01*
X-1538929Y9844786D01*
X-1567500Y9859071D01*
X-1581786Y9873357D01*
X-1596071Y9901929D01*
X-1610357Y9959071D01*
X-1610357Y10030500D01*
X-1596071Y10087643D01*
X-1581786Y10116214D01*
X-1567500Y10130500D01*
X-1538929Y10144786D01*
X-1081786Y9844786D02*
X-1081786Y10144786D01*
X-953214Y9844786D02*
X-953214Y10001929D01*
X-967500Y10030500D01*
X-996071Y10044786D01*
X-1038929Y10044786D01*
X-1067500Y10030500D01*
X-1081786Y10016214D01*
X-767500Y9844786D02*
X-796071Y9859071D01*
X-810357Y9873357D01*
X-824643Y9901929D01*
X-824643Y9987643D01*
X-810357Y10016214D01*
X-796071Y10030500D01*
X-767500Y10044786D01*
X-724643Y10044786D01*
X-696072Y10030500D01*
X-681786Y10016214D01*
X-667500Y9987643D01*
X-667500Y9901929D01*
X-681786Y9873357D01*
X-696072Y9859071D01*
X-724643Y9844786D01*
X-767500Y9844786D01*
X-496071Y9844786D02*
X-524643Y9859071D01*
X-538929Y9887643D01*
X-538929Y10144786D01*
X-267500Y9859071D02*
X-296071Y9844786D01*
X-353214Y9844786D01*
X-381786Y9859071D01*
X-396071Y9887643D01*
X-396071Y10001929D01*
X-381786Y10030500D01*
X-353214Y10044786D01*
X-296071Y10044786D01*
X-267500Y10030500D01*
X-253214Y10001929D01*
X-253214Y9973357D01*
X-396071Y9944786D01*
X-138929Y9859071D02*
X-110357Y9844786D01*
X-53214Y9844786D01*
X-24643Y9859071D01*
X-10357Y9887643D01*
X-10357Y9901929D01*
X-24643Y9930500D01*
X-53214Y9944786D01*
X-96071Y9944786D01*
X-124643Y9959071D01*
X-138929Y9987643D01*
X-138929Y10001929D01*
X-124643Y10030500D01*
X-96071Y10044786D01*
X-53214Y10044786D01*
X-24643Y10030500D01*
X89643Y9730500D02*
X103929Y9744786D01*
X132500Y9787643D01*
X146786Y9816214D01*
X161071Y9859071D01*
X175357Y9930500D01*
X175357Y9987643D01*
X161071Y10059071D01*
X146786Y10101929D01*
X132500Y10130500D01*
X103929Y10173357D01*
X89643Y10187643D01*
X-6747500Y9504500D02*
X-6667500Y9584500D01*
X-6747500Y9664500D01*
X-6827500Y9584500D01*
X-6747500Y9504500D01*
X-6238929Y9448786D02*
X-6410357Y9448786D01*
X-6324643Y9448786D02*
X-6324643Y9748786D01*
X-6353214Y9705929D01*
X-6381786Y9677357D01*
X-6410357Y9663071D01*
X-6110357Y9477357D02*
X-6096071Y9463071D01*
X-6110357Y9448786D01*
X-6124643Y9463071D01*
X-6110357Y9477357D01*
X-6110357Y9448786D01*
X-5838929Y9748786D02*
X-5896071Y9748786D01*
X-5924643Y9734500D01*
X-5938929Y9720214D01*
X-5967500Y9677357D01*
X-5981786Y9620214D01*
X-5981786Y9505929D01*
X-5967500Y9477357D01*
X-5953214Y9463071D01*
X-5924643Y9448786D01*
X-5867500Y9448786D01*
X-5838929Y9463071D01*
X-5824643Y9477357D01*
X-5810357Y9505929D01*
X-5810357Y9577357D01*
X-5824643Y9605929D01*
X-5838929Y9620214D01*
X-5867500Y9634500D01*
X-5924643Y9634500D01*
X-5953214Y9620214D01*
X-5967500Y9605929D01*
X-5981786Y9577357D01*
X-5624643Y9748786D02*
X-5596071Y9748786D01*
X-5567500Y9734500D01*
X-5553214Y9720214D01*
X-5538929Y9691643D01*
X-5524643Y9634500D01*
X-5524643Y9563071D01*
X-5538929Y9505929D01*
X-5553214Y9477357D01*
X-5567500Y9463071D01*
X-5596071Y9448786D01*
X-5624643Y9448786D01*
X-5653214Y9463071D01*
X-5667500Y9477357D01*
X-5681786Y9505929D01*
X-5696071Y9563071D01*
X-5696071Y9634500D01*
X-5681786Y9691643D01*
X-5667500Y9720214D01*
X-5653214Y9734500D01*
X-5624643Y9748786D01*
X-5396071Y9448786D02*
X-5396071Y9648786D01*
X-5396071Y9620214D02*
X-5381786Y9634500D01*
X-5353214Y9648786D01*
X-5310357Y9648786D01*
X-5281786Y9634500D01*
X-5267500Y9605929D01*
X-5267500Y9448786D01*
X-5267500Y9605929D02*
X-5253214Y9634500D01*
X-5224643Y9648786D01*
X-5181786Y9648786D01*
X-5153214Y9634500D01*
X-5138929Y9605929D01*
X-5138929Y9448786D01*
X-4996071Y9448786D02*
X-4996071Y9648786D01*
X-4996071Y9620214D02*
X-4981786Y9634500D01*
X-4953214Y9648786D01*
X-4910357Y9648786D01*
X-4881786Y9634500D01*
X-4867500Y9605929D01*
X-4867500Y9448786D01*
X-4867500Y9605929D02*
X-4853214Y9634500D01*
X-4824643Y9648786D01*
X-4781786Y9648786D01*
X-4753214Y9634500D01*
X-4738929Y9605929D01*
X-4738929Y9448786D01*
X-4153214Y9763071D02*
X-4410357Y9377357D01*
X-3767500Y9748786D02*
X-3738929Y9748786D01*
X-3710357Y9734500D01*
X-3696071Y9720214D01*
X-3681786Y9691643D01*
X-3667500Y9634500D01*
X-3667500Y9563071D01*
X-3681786Y9505929D01*
X-3696071Y9477357D01*
X-3710357Y9463071D01*
X-3738929Y9448786D01*
X-3767500Y9448786D01*
X-3796071Y9463071D01*
X-3810357Y9477357D01*
X-3824643Y9505929D01*
X-3838929Y9563071D01*
X-3838929Y9634500D01*
X-3824643Y9691643D01*
X-3810357Y9720214D01*
X-3796071Y9734500D01*
X-3767500Y9748786D01*
X-3538929Y9477357D02*
X-3524643Y9463071D01*
X-3538929Y9448786D01*
X-3553214Y9463071D01*
X-3538929Y9477357D01*
X-3538929Y9448786D01*
X-3338929Y9748786D02*
X-3310357Y9748786D01*
X-3281786Y9734500D01*
X-3267500Y9720214D01*
X-3253214Y9691643D01*
X-3238929Y9634500D01*
X-3238929Y9563071D01*
X-3253214Y9505929D01*
X-3267500Y9477357D01*
X-3281786Y9463071D01*
X-3310357Y9448786D01*
X-3338929Y9448786D01*
X-3367500Y9463071D01*
X-3381786Y9477357D01*
X-3396071Y9505929D01*
X-3410357Y9563071D01*
X-3410357Y9634500D01*
X-3396071Y9691643D01*
X-3381786Y9720214D01*
X-3367500Y9734500D01*
X-3338929Y9748786D01*
X-2981786Y9748786D02*
X-3038929Y9748786D01*
X-3067500Y9734500D01*
X-3081786Y9720214D01*
X-3110357Y9677357D01*
X-3124643Y9620214D01*
X-3124643Y9505929D01*
X-3110357Y9477357D01*
X-3096071Y9463071D01*
X-3067500Y9448786D01*
X-3010357Y9448786D01*
X-2981786Y9463071D01*
X-2967500Y9477357D01*
X-2953214Y9505929D01*
X-2953214Y9577357D01*
X-2967500Y9605929D01*
X-2981786Y9620214D01*
X-3010357Y9634500D01*
X-3067500Y9634500D01*
X-3096071Y9620214D01*
X-3110357Y9605929D01*
X-3124643Y9577357D01*
X-2853214Y9748786D02*
X-2667500Y9748786D01*
X-2767500Y9634500D01*
X-2724643Y9634500D01*
X-2696072Y9620214D01*
X-2681786Y9605929D01*
X-2667500Y9577357D01*
X-2667500Y9505929D01*
X-2681786Y9477357D01*
X-2696072Y9463071D01*
X-2724643Y9448786D01*
X-2810357Y9448786D01*
X-2838929Y9463071D01*
X-2853214Y9477357D01*
X-2553214Y9748786D02*
X-2553214Y9691643D01*
X-2438929Y9748786D02*
X-2438929Y9691643D01*
X-1996071Y9334500D02*
X-2010357Y9348786D01*
X-2038929Y9391643D01*
X-2053214Y9420214D01*
X-2067500Y9463071D01*
X-2081786Y9534500D01*
X-2081786Y9591643D01*
X-2067500Y9663071D01*
X-2053214Y9705929D01*
X-2038929Y9734500D01*
X-2010357Y9777357D01*
X-1996071Y9791643D01*
X-1896071Y9720214D02*
X-1881786Y9734500D01*
X-1853214Y9748786D01*
X-1781786Y9748786D01*
X-1753214Y9734500D01*
X-1738929Y9720214D01*
X-1724643Y9691643D01*
X-1724643Y9663071D01*
X-1738929Y9620214D01*
X-1910357Y9448786D01*
X-1724643Y9448786D01*
X-1367500Y9448786D02*
X-1367500Y9748786D01*
X-1238929Y9448786D02*
X-1238929Y9605929D01*
X-1253214Y9634500D01*
X-1281786Y9648786D01*
X-1324643Y9648786D01*
X-1353214Y9634500D01*
X-1367500Y9620214D01*
X-1053214Y9448786D02*
X-1081786Y9463071D01*
X-1096072Y9477357D01*
X-1110357Y9505929D01*
X-1110357Y9591643D01*
X-1096072Y9620214D01*
X-1081786Y9634500D01*
X-1053214Y9648786D01*
X-1010357Y9648786D01*
X-981786Y9634500D01*
X-967500Y9620214D01*
X-953214Y9591643D01*
X-953214Y9505929D01*
X-967500Y9477357D01*
X-981786Y9463071D01*
X-1010357Y9448786D01*
X-1053214Y9448786D01*
X-781786Y9448786D02*
X-810357Y9463071D01*
X-824643Y9491643D01*
X-824643Y9748786D01*
X-553214Y9463071D02*
X-581786Y9448786D01*
X-638929Y9448786D01*
X-667500Y9463071D01*
X-681786Y9491643D01*
X-681786Y9605929D01*
X-667500Y9634500D01*
X-638929Y9648786D01*
X-581786Y9648786D01*
X-553214Y9634500D01*
X-538929Y9605929D01*
X-538929Y9577357D01*
X-681786Y9548786D01*
X-424643Y9463071D02*
X-396071Y9448786D01*
X-338929Y9448786D01*
X-310357Y9463071D01*
X-296071Y9491643D01*
X-296071Y9505929D01*
X-310357Y9534500D01*
X-338929Y9548786D01*
X-381786Y9548786D01*
X-410357Y9563071D01*
X-424643Y9591643D01*
X-424643Y9605929D01*
X-410357Y9634500D01*
X-381786Y9648786D01*
X-338929Y9648786D01*
X-310357Y9634500D01*
X-196071Y9334500D02*
X-181786Y9348786D01*
X-153214Y9391643D01*
X-138929Y9420214D01*
X-124643Y9463071D01*
X-110357Y9534500D01*
X-110357Y9591643D01*
X-124643Y9663071D01*
X-138929Y9705929D01*
X-153214Y9734500D01*
X-181786Y9777357D01*
X-196071Y9791643D01*
M02*
