G04 #@! TF.FileFunction,Legend,Top*
%FSLAX46Y46*%
G04 Gerber Fmt 4.6, Leading zero omitted, Abs format (unit mm)*
G04 Created by KiCad (PCBNEW 4.0.5) date Thursday, March 09, 2017 'PMt' 04:23:05 PM*
%MOMM*%
%LPD*%
G01*
G04 APERTURE LIST*
%ADD10C,0.100000*%
%ADD11C,0.120000*%
%ADD12C,0.150000*%
G04 APERTURE END LIST*
D10*
D11*
X141112800Y-84536800D02*
X141112800Y-85236800D01*
X139912800Y-85236800D02*
X139912800Y-84536800D01*
X142657194Y-99272525D02*
G75*
G03X142658000Y-89369667I-1179194J4951525D01*
G01*
X140298806Y-99272525D02*
G75*
G02X140298000Y-89369667I1179194J4951525D01*
G01*
X140298806Y-99272525D02*
G75*
G03X142658000Y-99272333I1179194J4951525D01*
G01*
X146528000Y-94321000D02*
X136428000Y-94321000D01*
X146528000Y-94361000D02*
X136428000Y-94361000D01*
X146528000Y-94401000D02*
X136428000Y-94401000D01*
X146527000Y-94441000D02*
X136429000Y-94441000D01*
X146526000Y-94481000D02*
X136430000Y-94481000D01*
X146525000Y-94521000D02*
X136431000Y-94521000D01*
X146523000Y-94561000D02*
X136433000Y-94561000D01*
X146521000Y-94601000D02*
X136435000Y-94601000D01*
X146518000Y-94641000D02*
X136438000Y-94641000D01*
X146516000Y-94681000D02*
X136440000Y-94681000D01*
X146513000Y-94721000D02*
X136443000Y-94721000D01*
X146509000Y-94761000D02*
X136447000Y-94761000D01*
X146506000Y-94801000D02*
X136450000Y-94801000D01*
X146502000Y-94841000D02*
X136454000Y-94841000D01*
X146498000Y-94881000D02*
X136458000Y-94881000D01*
X146493000Y-94921000D02*
X136463000Y-94921000D01*
X146488000Y-94961000D02*
X136468000Y-94961000D01*
X146483000Y-95001000D02*
X136473000Y-95001000D01*
X146477000Y-95042000D02*
X136479000Y-95042000D01*
X146471000Y-95082000D02*
X136485000Y-95082000D01*
X146465000Y-95122000D02*
X136491000Y-95122000D01*
X146459000Y-95162000D02*
X136497000Y-95162000D01*
X146452000Y-95202000D02*
X136504000Y-95202000D01*
X146445000Y-95242000D02*
X136511000Y-95242000D01*
X146437000Y-95282000D02*
X136519000Y-95282000D01*
X146429000Y-95322000D02*
X136527000Y-95322000D01*
X146421000Y-95362000D02*
X136535000Y-95362000D01*
X146413000Y-95402000D02*
X136543000Y-95402000D01*
X146404000Y-95442000D02*
X136552000Y-95442000D01*
X146395000Y-95482000D02*
X136561000Y-95482000D01*
X146385000Y-95522000D02*
X136571000Y-95522000D01*
X146375000Y-95562000D02*
X136581000Y-95562000D01*
X146365000Y-95602000D02*
X136591000Y-95602000D01*
X146354000Y-95642000D02*
X142659000Y-95642000D01*
X140297000Y-95642000D02*
X136602000Y-95642000D01*
X146343000Y-95682000D02*
X142659000Y-95682000D01*
X140297000Y-95682000D02*
X136613000Y-95682000D01*
X146332000Y-95722000D02*
X142659000Y-95722000D01*
X140297000Y-95722000D02*
X136624000Y-95722000D01*
X146321000Y-95762000D02*
X142659000Y-95762000D01*
X140297000Y-95762000D02*
X136635000Y-95762000D01*
X146309000Y-95802000D02*
X142659000Y-95802000D01*
X140297000Y-95802000D02*
X136647000Y-95802000D01*
X146296000Y-95842000D02*
X142659000Y-95842000D01*
X140297000Y-95842000D02*
X136660000Y-95842000D01*
X146284000Y-95882000D02*
X142659000Y-95882000D01*
X140297000Y-95882000D02*
X136672000Y-95882000D01*
X146270000Y-95922000D02*
X142659000Y-95922000D01*
X140297000Y-95922000D02*
X136686000Y-95922000D01*
X146257000Y-95962000D02*
X142659000Y-95962000D01*
X140297000Y-95962000D02*
X136699000Y-95962000D01*
X146243000Y-96002000D02*
X142659000Y-96002000D01*
X140297000Y-96002000D02*
X136713000Y-96002000D01*
X146229000Y-96042000D02*
X142659000Y-96042000D01*
X140297000Y-96042000D02*
X136727000Y-96042000D01*
X146215000Y-96082000D02*
X142659000Y-96082000D01*
X140297000Y-96082000D02*
X136741000Y-96082000D01*
X146200000Y-96122000D02*
X142659000Y-96122000D01*
X140297000Y-96122000D02*
X136756000Y-96122000D01*
X146184000Y-96162000D02*
X142659000Y-96162000D01*
X140297000Y-96162000D02*
X136772000Y-96162000D01*
X146169000Y-96202000D02*
X142659000Y-96202000D01*
X140297000Y-96202000D02*
X136787000Y-96202000D01*
X146152000Y-96242000D02*
X142659000Y-96242000D01*
X140297000Y-96242000D02*
X136804000Y-96242000D01*
X146136000Y-96282000D02*
X142659000Y-96282000D01*
X140297000Y-96282000D02*
X136820000Y-96282000D01*
X146119000Y-96322000D02*
X142659000Y-96322000D01*
X140297000Y-96322000D02*
X136837000Y-96322000D01*
X146102000Y-96362000D02*
X142659000Y-96362000D01*
X140297000Y-96362000D02*
X136854000Y-96362000D01*
X146084000Y-96402000D02*
X142659000Y-96402000D01*
X140297000Y-96402000D02*
X136872000Y-96402000D01*
X146066000Y-96442000D02*
X142659000Y-96442000D01*
X140297000Y-96442000D02*
X136890000Y-96442000D01*
X146047000Y-96482000D02*
X142659000Y-96482000D01*
X140297000Y-96482000D02*
X136909000Y-96482000D01*
X146028000Y-96522000D02*
X142659000Y-96522000D01*
X140297000Y-96522000D02*
X136928000Y-96522000D01*
X146009000Y-96562000D02*
X142659000Y-96562000D01*
X140297000Y-96562000D02*
X136947000Y-96562000D01*
X145989000Y-96602000D02*
X142659000Y-96602000D01*
X140297000Y-96602000D02*
X136967000Y-96602000D01*
X145969000Y-96642000D02*
X142659000Y-96642000D01*
X140297000Y-96642000D02*
X136987000Y-96642000D01*
X145948000Y-96682000D02*
X142659000Y-96682000D01*
X140297000Y-96682000D02*
X137008000Y-96682000D01*
X145927000Y-96722000D02*
X142659000Y-96722000D01*
X140297000Y-96722000D02*
X137029000Y-96722000D01*
X145906000Y-96762000D02*
X142659000Y-96762000D01*
X140297000Y-96762000D02*
X137050000Y-96762000D01*
X145883000Y-96802000D02*
X142659000Y-96802000D01*
X140297000Y-96802000D02*
X137073000Y-96802000D01*
X145861000Y-96842000D02*
X142659000Y-96842000D01*
X140297000Y-96842000D02*
X137095000Y-96842000D01*
X145838000Y-96882000D02*
X142659000Y-96882000D01*
X140297000Y-96882000D02*
X137118000Y-96882000D01*
X145814000Y-96922000D02*
X142659000Y-96922000D01*
X140297000Y-96922000D02*
X137142000Y-96922000D01*
X145790000Y-96962000D02*
X142659000Y-96962000D01*
X140297000Y-96962000D02*
X137166000Y-96962000D01*
X145766000Y-97002000D02*
X142659000Y-97002000D01*
X140297000Y-97002000D02*
X137190000Y-97002000D01*
X145741000Y-97042000D02*
X142659000Y-97042000D01*
X140297000Y-97042000D02*
X137215000Y-97042000D01*
X145715000Y-97082000D02*
X142659000Y-97082000D01*
X140297000Y-97082000D02*
X137241000Y-97082000D01*
X145689000Y-97122000D02*
X142659000Y-97122000D01*
X140297000Y-97122000D02*
X137267000Y-97122000D01*
X145663000Y-97162000D02*
X142659000Y-97162000D01*
X140297000Y-97162000D02*
X137293000Y-97162000D01*
X145635000Y-97202000D02*
X142659000Y-97202000D01*
X140297000Y-97202000D02*
X137321000Y-97202000D01*
X145608000Y-97242000D02*
X142659000Y-97242000D01*
X140297000Y-97242000D02*
X137348000Y-97242000D01*
X145579000Y-97282000D02*
X142659000Y-97282000D01*
X140297000Y-97282000D02*
X137377000Y-97282000D01*
X145550000Y-97322000D02*
X142659000Y-97322000D01*
X140297000Y-97322000D02*
X137406000Y-97322000D01*
X145521000Y-97362000D02*
X142659000Y-97362000D01*
X140297000Y-97362000D02*
X137435000Y-97362000D01*
X145491000Y-97402000D02*
X142659000Y-97402000D01*
X140297000Y-97402000D02*
X137465000Y-97402000D01*
X145460000Y-97442000D02*
X142659000Y-97442000D01*
X140297000Y-97442000D02*
X137496000Y-97442000D01*
X145429000Y-97482000D02*
X142659000Y-97482000D01*
X140297000Y-97482000D02*
X137527000Y-97482000D01*
X145397000Y-97522000D02*
X142659000Y-97522000D01*
X140297000Y-97522000D02*
X137559000Y-97522000D01*
X145364000Y-97562000D02*
X142659000Y-97562000D01*
X140297000Y-97562000D02*
X137592000Y-97562000D01*
X145331000Y-97602000D02*
X142659000Y-97602000D01*
X140297000Y-97602000D02*
X137625000Y-97602000D01*
X145297000Y-97642000D02*
X142659000Y-97642000D01*
X140297000Y-97642000D02*
X137659000Y-97642000D01*
X145262000Y-97682000D02*
X142659000Y-97682000D01*
X140297000Y-97682000D02*
X137694000Y-97682000D01*
X145226000Y-97722000D02*
X142659000Y-97722000D01*
X140297000Y-97722000D02*
X137730000Y-97722000D01*
X145190000Y-97762000D02*
X142659000Y-97762000D01*
X140297000Y-97762000D02*
X137766000Y-97762000D01*
X145153000Y-97802000D02*
X142659000Y-97802000D01*
X140297000Y-97802000D02*
X137803000Y-97802000D01*
X145115000Y-97842000D02*
X142659000Y-97842000D01*
X140297000Y-97842000D02*
X137841000Y-97842000D01*
X145076000Y-97882000D02*
X142659000Y-97882000D01*
X140297000Y-97882000D02*
X137880000Y-97882000D01*
X145037000Y-97922000D02*
X142659000Y-97922000D01*
X140297000Y-97922000D02*
X137919000Y-97922000D01*
X144996000Y-97962000D02*
X142659000Y-97962000D01*
X140297000Y-97962000D02*
X137960000Y-97962000D01*
X144955000Y-98002000D02*
X138001000Y-98002000D01*
X144913000Y-98042000D02*
X138043000Y-98042000D01*
X144869000Y-98082000D02*
X138087000Y-98082000D01*
X144825000Y-98122000D02*
X138131000Y-98122000D01*
X144780000Y-98162000D02*
X138176000Y-98162000D01*
X144733000Y-98202000D02*
X138223000Y-98202000D01*
X144685000Y-98242000D02*
X138271000Y-98242000D01*
X144636000Y-98282000D02*
X138320000Y-98282000D01*
X144586000Y-98322000D02*
X138370000Y-98322000D01*
X144535000Y-98362000D02*
X138421000Y-98362000D01*
X144482000Y-98402000D02*
X138474000Y-98402000D01*
X144427000Y-98442000D02*
X138529000Y-98442000D01*
X144372000Y-98482000D02*
X138584000Y-98482000D01*
X144314000Y-98522000D02*
X138642000Y-98522000D01*
X144255000Y-98562000D02*
X138701000Y-98562000D01*
X144193000Y-98602000D02*
X138763000Y-98602000D01*
X144130000Y-98642000D02*
X138826000Y-98642000D01*
X144065000Y-98682000D02*
X138891000Y-98682000D01*
X143997000Y-98722000D02*
X138959000Y-98722000D01*
X143927000Y-98762000D02*
X139029000Y-98762000D01*
X143855000Y-98802000D02*
X139101000Y-98802000D01*
X143779000Y-98842000D02*
X139177000Y-98842000D01*
X143700000Y-98882000D02*
X139256000Y-98882000D01*
X143618000Y-98922000D02*
X139338000Y-98922000D01*
X143531000Y-98962000D02*
X139425000Y-98962000D01*
X143440000Y-99002000D02*
X139516000Y-99002000D01*
X143344000Y-99042000D02*
X139612000Y-99042000D01*
X143241000Y-99082000D02*
X139715000Y-99082000D01*
X143132000Y-99122000D02*
X139824000Y-99122000D01*
X143014000Y-99162000D02*
X139942000Y-99162000D01*
X142885000Y-99202000D02*
X140071000Y-99202000D01*
X142743000Y-99242000D02*
X140213000Y-99242000D01*
X142582000Y-99282000D02*
X140374000Y-99282000D01*
X142391000Y-99322000D02*
X140565000Y-99322000D01*
X142150000Y-99362000D02*
X140806000Y-99362000D01*
X141757000Y-99402000D02*
X141199000Y-99402000D01*
X141478000Y-89121000D02*
X141478000Y-90621000D01*
X142228000Y-89871000D02*
X140728000Y-89871000D01*
X170727557Y-109011840D02*
G75*
G03X170728200Y-102835164I-979357J3088440D01*
G01*
X168768843Y-109011840D02*
G75*
G02X168768200Y-102835164I979357J3088440D01*
G01*
X168768843Y-109011840D02*
G75*
G03X170728200Y-109011636I979357J3088440D01*
G01*
X172948200Y-105923400D02*
X166548200Y-105923400D01*
X172948200Y-105963400D02*
X166548200Y-105963400D01*
X172948200Y-106003400D02*
X166548200Y-106003400D01*
X172946200Y-106043400D02*
X166550200Y-106043400D01*
X172945200Y-106083400D02*
X166551200Y-106083400D01*
X172942200Y-106123400D02*
X166554200Y-106123400D01*
X172940200Y-106163400D02*
X166556200Y-106163400D01*
X172936200Y-106203400D02*
X170728200Y-106203400D01*
X168768200Y-106203400D02*
X166560200Y-106203400D01*
X172933200Y-106243400D02*
X170728200Y-106243400D01*
X168768200Y-106243400D02*
X166563200Y-106243400D01*
X172928200Y-106283400D02*
X170728200Y-106283400D01*
X168768200Y-106283400D02*
X166568200Y-106283400D01*
X172924200Y-106323400D02*
X170728200Y-106323400D01*
X168768200Y-106323400D02*
X166572200Y-106323400D01*
X172918200Y-106363400D02*
X170728200Y-106363400D01*
X168768200Y-106363400D02*
X166578200Y-106363400D01*
X172913200Y-106403400D02*
X170728200Y-106403400D01*
X168768200Y-106403400D02*
X166583200Y-106403400D01*
X172906200Y-106443400D02*
X170728200Y-106443400D01*
X168768200Y-106443400D02*
X166590200Y-106443400D01*
X172900200Y-106483400D02*
X170728200Y-106483400D01*
X168768200Y-106483400D02*
X166596200Y-106483400D01*
X172892200Y-106523400D02*
X170728200Y-106523400D01*
X168768200Y-106523400D02*
X166604200Y-106523400D01*
X172885200Y-106563400D02*
X170728200Y-106563400D01*
X168768200Y-106563400D02*
X166611200Y-106563400D01*
X172876200Y-106603400D02*
X170728200Y-106603400D01*
X168768200Y-106603400D02*
X166620200Y-106603400D01*
X172867200Y-106644400D02*
X170728200Y-106644400D01*
X168768200Y-106644400D02*
X166629200Y-106644400D01*
X172858200Y-106684400D02*
X170728200Y-106684400D01*
X168768200Y-106684400D02*
X166638200Y-106684400D01*
X172848200Y-106724400D02*
X170728200Y-106724400D01*
X168768200Y-106724400D02*
X166648200Y-106724400D01*
X172838200Y-106764400D02*
X170728200Y-106764400D01*
X168768200Y-106764400D02*
X166658200Y-106764400D01*
X172827200Y-106804400D02*
X170728200Y-106804400D01*
X168768200Y-106804400D02*
X166669200Y-106804400D01*
X172815200Y-106844400D02*
X170728200Y-106844400D01*
X168768200Y-106844400D02*
X166681200Y-106844400D01*
X172803200Y-106884400D02*
X170728200Y-106884400D01*
X168768200Y-106884400D02*
X166693200Y-106884400D01*
X172790200Y-106924400D02*
X170728200Y-106924400D01*
X168768200Y-106924400D02*
X166706200Y-106924400D01*
X172777200Y-106964400D02*
X170728200Y-106964400D01*
X168768200Y-106964400D02*
X166719200Y-106964400D01*
X172763200Y-107004400D02*
X170728200Y-107004400D01*
X168768200Y-107004400D02*
X166733200Y-107004400D01*
X172749200Y-107044400D02*
X170728200Y-107044400D01*
X168768200Y-107044400D02*
X166747200Y-107044400D01*
X172734200Y-107084400D02*
X170728200Y-107084400D01*
X168768200Y-107084400D02*
X166762200Y-107084400D01*
X172718200Y-107124400D02*
X170728200Y-107124400D01*
X168768200Y-107124400D02*
X166778200Y-107124400D01*
X172702200Y-107164400D02*
X170728200Y-107164400D01*
X168768200Y-107164400D02*
X166794200Y-107164400D01*
X172685200Y-107204400D02*
X170728200Y-107204400D01*
X168768200Y-107204400D02*
X166811200Y-107204400D01*
X172667200Y-107244400D02*
X170728200Y-107244400D01*
X168768200Y-107244400D02*
X166829200Y-107244400D01*
X172649200Y-107284400D02*
X170728200Y-107284400D01*
X168768200Y-107284400D02*
X166847200Y-107284400D01*
X172630200Y-107324400D02*
X170728200Y-107324400D01*
X168768200Y-107324400D02*
X166866200Y-107324400D01*
X172611200Y-107364400D02*
X170728200Y-107364400D01*
X168768200Y-107364400D02*
X166885200Y-107364400D01*
X172591200Y-107404400D02*
X170728200Y-107404400D01*
X168768200Y-107404400D02*
X166905200Y-107404400D01*
X172570200Y-107444400D02*
X170728200Y-107444400D01*
X168768200Y-107444400D02*
X166926200Y-107444400D01*
X172548200Y-107484400D02*
X170728200Y-107484400D01*
X168768200Y-107484400D02*
X166948200Y-107484400D01*
X172526200Y-107524400D02*
X170728200Y-107524400D01*
X168768200Y-107524400D02*
X166970200Y-107524400D01*
X172503200Y-107564400D02*
X170728200Y-107564400D01*
X168768200Y-107564400D02*
X166993200Y-107564400D01*
X172479200Y-107604400D02*
X170728200Y-107604400D01*
X168768200Y-107604400D02*
X167017200Y-107604400D01*
X172454200Y-107644400D02*
X170728200Y-107644400D01*
X168768200Y-107644400D02*
X167042200Y-107644400D01*
X172429200Y-107684400D02*
X170728200Y-107684400D01*
X168768200Y-107684400D02*
X167067200Y-107684400D01*
X172402200Y-107724400D02*
X170728200Y-107724400D01*
X168768200Y-107724400D02*
X167094200Y-107724400D01*
X172375200Y-107764400D02*
X170728200Y-107764400D01*
X168768200Y-107764400D02*
X167121200Y-107764400D01*
X172347200Y-107804400D02*
X170728200Y-107804400D01*
X168768200Y-107804400D02*
X167149200Y-107804400D01*
X172318200Y-107844400D02*
X170728200Y-107844400D01*
X168768200Y-107844400D02*
X167178200Y-107844400D01*
X172288200Y-107884400D02*
X170728200Y-107884400D01*
X168768200Y-107884400D02*
X167208200Y-107884400D01*
X172258200Y-107924400D02*
X170728200Y-107924400D01*
X168768200Y-107924400D02*
X167238200Y-107924400D01*
X172226200Y-107964400D02*
X170728200Y-107964400D01*
X168768200Y-107964400D02*
X167270200Y-107964400D01*
X172193200Y-108004400D02*
X170728200Y-108004400D01*
X168768200Y-108004400D02*
X167303200Y-108004400D01*
X172159200Y-108044400D02*
X170728200Y-108044400D01*
X168768200Y-108044400D02*
X167337200Y-108044400D01*
X172123200Y-108084400D02*
X170728200Y-108084400D01*
X168768200Y-108084400D02*
X167373200Y-108084400D01*
X172087200Y-108124400D02*
X170728200Y-108124400D01*
X168768200Y-108124400D02*
X167409200Y-108124400D01*
X172049200Y-108164400D02*
X167447200Y-108164400D01*
X172010200Y-108204400D02*
X167486200Y-108204400D01*
X171970200Y-108244400D02*
X167526200Y-108244400D01*
X171928200Y-108284400D02*
X167568200Y-108284400D01*
X171885200Y-108324400D02*
X167611200Y-108324400D01*
X171840200Y-108364400D02*
X167656200Y-108364400D01*
X171793200Y-108404400D02*
X167703200Y-108404400D01*
X171745200Y-108444400D02*
X167751200Y-108444400D01*
X171694200Y-108484400D02*
X167802200Y-108484400D01*
X171642200Y-108524400D02*
X167854200Y-108524400D01*
X171587200Y-108564400D02*
X167909200Y-108564400D01*
X171529200Y-108604400D02*
X167967200Y-108604400D01*
X171469200Y-108644400D02*
X168027200Y-108644400D01*
X171406200Y-108684400D02*
X168090200Y-108684400D01*
X171339200Y-108724400D02*
X168157200Y-108724400D01*
X171268200Y-108764400D02*
X168228200Y-108764400D01*
X171193200Y-108804400D02*
X168303200Y-108804400D01*
X171112200Y-108844400D02*
X168384200Y-108844400D01*
X171026200Y-108884400D02*
X168470200Y-108884400D01*
X170932200Y-108924400D02*
X168564200Y-108924400D01*
X170829200Y-108964400D02*
X168667200Y-108964400D01*
X170714200Y-109004400D02*
X168782200Y-109004400D01*
X170582200Y-109044400D02*
X168914200Y-109044400D01*
X170424200Y-109084400D02*
X169072200Y-109084400D01*
X170216200Y-109124400D02*
X169280200Y-109124400D01*
X169748200Y-102473400D02*
X169748200Y-103673400D01*
X170398200Y-103073400D02*
X169098200Y-103073400D01*
X121245400Y-103552400D02*
X122645400Y-103552400D01*
X122645400Y-103552400D02*
X122645400Y-100752400D01*
X121245400Y-103552400D02*
X121245400Y-100752400D01*
X124424000Y-97520000D02*
X124424000Y-95520000D01*
X124424000Y-95520000D02*
X120524000Y-95520000D01*
X124424000Y-97520000D02*
X120524000Y-97520000D01*
X129504000Y-93202000D02*
X129504000Y-91202000D01*
X129504000Y-91202000D02*
X125604000Y-91202000D01*
X129504000Y-93202000D02*
X125604000Y-93202000D01*
X134076000Y-97520000D02*
X134076000Y-95520000D01*
X134076000Y-95520000D02*
X130176000Y-95520000D01*
X134076000Y-97520000D02*
X130176000Y-97520000D01*
X134884600Y-75885800D02*
X134884600Y-77885800D01*
X134884600Y-77885800D02*
X138784600Y-77885800D01*
X134884600Y-75885800D02*
X138784600Y-75885800D01*
X158405000Y-107204000D02*
X158405000Y-109204000D01*
X158405000Y-109204000D02*
X162305000Y-109204000D01*
X158405000Y-107204000D02*
X162305000Y-107204000D01*
X168358200Y-98120200D02*
X168358200Y-100780200D01*
X168358200Y-100780200D02*
X171138200Y-100780200D01*
X171138200Y-100780200D02*
X171138200Y-98120200D01*
X171138200Y-98120200D02*
X168358200Y-98120200D01*
X168358200Y-96850200D02*
X168358200Y-95460200D01*
X168358200Y-95460200D02*
X169748200Y-95460200D01*
X107296600Y-93675200D02*
X107296600Y-96335200D01*
X107296600Y-96335200D02*
X110076600Y-96335200D01*
X110076600Y-96335200D02*
X110076600Y-93675200D01*
X110076600Y-93675200D02*
X107296600Y-93675200D01*
X107296600Y-92405200D02*
X107296600Y-91015200D01*
X107296600Y-91015200D02*
X108686600Y-91015200D01*
X123462400Y-87096600D02*
X123462400Y-84436600D01*
X123462400Y-84436600D02*
X120682400Y-84436600D01*
X120682400Y-84436600D02*
X120682400Y-87096600D01*
X120682400Y-87096600D02*
X123462400Y-87096600D01*
X123462400Y-88366600D02*
X123462400Y-89756600D01*
X123462400Y-89756600D02*
X122072400Y-89756600D01*
X125356000Y-102387400D02*
X125356000Y-105047400D01*
X125356000Y-105047400D02*
X128136000Y-105047400D01*
X128136000Y-105047400D02*
X128136000Y-102387400D01*
X128136000Y-102387400D02*
X125356000Y-102387400D01*
X125356000Y-101117400D02*
X125356000Y-99727400D01*
X125356000Y-99727400D02*
X126746000Y-99727400D01*
X150070200Y-85750400D02*
X150070200Y-88410400D01*
X150070200Y-88410400D02*
X152850200Y-88410400D01*
X152850200Y-88410400D02*
X152850200Y-85750400D01*
X152850200Y-85750400D02*
X150070200Y-85750400D01*
X150070200Y-84480400D02*
X150070200Y-83090400D01*
X150070200Y-83090400D02*
X151460200Y-83090400D01*
X161765600Y-80797400D02*
X161765600Y-78137400D01*
X161765600Y-78137400D02*
X158985600Y-78137400D01*
X158985600Y-78137400D02*
X158985600Y-80797400D01*
X158985600Y-80797400D02*
X161765600Y-80797400D01*
X161765600Y-82067400D02*
X161765600Y-83457400D01*
X161765600Y-83457400D02*
X160375600Y-83457400D01*
X181857000Y-81407000D02*
X181857000Y-78747000D01*
X181857000Y-78747000D02*
X179077000Y-78747000D01*
X179077000Y-78747000D02*
X179077000Y-81407000D01*
X179077000Y-81407000D02*
X181857000Y-81407000D01*
X181857000Y-82677000D02*
X181857000Y-84067000D01*
X181857000Y-84067000D02*
X180467000Y-84067000D01*
X181958600Y-89763600D02*
X181958600Y-87103600D01*
X181958600Y-87103600D02*
X179178600Y-87103600D01*
X179178600Y-87103600D02*
X179178600Y-89763600D01*
X179178600Y-89763600D02*
X181958600Y-89763600D01*
X181958600Y-91033600D02*
X181958600Y-92423600D01*
X181958600Y-92423600D02*
X180568600Y-92423600D01*
X182212600Y-98221800D02*
X182212600Y-95561800D01*
X182212600Y-95561800D02*
X179432600Y-95561800D01*
X179432600Y-95561800D02*
X179432600Y-98221800D01*
X179432600Y-98221800D02*
X182212600Y-98221800D01*
X182212600Y-99491800D02*
X182212600Y-100881800D01*
X182212600Y-100881800D02*
X180822600Y-100881800D01*
X134035800Y-85210000D02*
X136695800Y-85210000D01*
X136695800Y-85210000D02*
X136695800Y-82430000D01*
X136695800Y-82430000D02*
X134035800Y-82430000D01*
X134035800Y-82430000D02*
X134035800Y-85210000D01*
X132765800Y-85210000D02*
X131375800Y-85210000D01*
X131375800Y-85210000D02*
X131375800Y-83820000D01*
X159684000Y-103534000D02*
X163404000Y-103534000D01*
X159684000Y-105254000D02*
X163404000Y-105254000D01*
X114128000Y-93972000D02*
X114128000Y-92972000D01*
X115488000Y-92972000D02*
X115488000Y-93972000D01*
X114128000Y-99814000D02*
X114128000Y-98814000D01*
X115488000Y-98814000D02*
X115488000Y-99814000D01*
X150119800Y-80611600D02*
X150119800Y-79611600D01*
X151479800Y-79611600D02*
X151479800Y-80611600D01*
D12*
X144703800Y-76606400D02*
X148132800Y-76606400D01*
X144703800Y-86258400D02*
X148132800Y-86258400D01*
X143560800Y-76098400D02*
X143560800Y-86766400D01*
X144576800Y-79654400D02*
X143306800Y-79654400D01*
X144576800Y-83210400D02*
X143306800Y-83210400D01*
X144703800Y-86766400D02*
X144703800Y-76098400D01*
X148132800Y-76098400D02*
X148132800Y-86766400D01*
X143306800Y-86766400D02*
X148132800Y-86766400D01*
X143306800Y-76098400D02*
X148132800Y-76098400D01*
X143306800Y-76098400D02*
X143306800Y-86766400D01*
X162814000Y-95631000D02*
X162814000Y-93218000D01*
X162814000Y-97409000D02*
X162814000Y-99822000D01*
X162814000Y-95631000D02*
G75*
G03X161925000Y-96520000I0J-889000D01*
G01*
X161925000Y-96520000D02*
G75*
G03X162814000Y-97409000I889000J0D01*
G01*
X162179000Y-94361000D02*
G75*
G03X162179000Y-94361000I-254000J0D01*
G01*
X152654000Y-93218000D02*
X152781000Y-93218000D01*
X155321000Y-93218000D02*
X155067000Y-93218000D01*
X157861000Y-93218000D02*
X157607000Y-93218000D01*
X160401000Y-93218000D02*
X160147000Y-93218000D01*
X162814000Y-93218000D02*
X162687000Y-93218000D01*
X162814000Y-99822000D02*
X162687000Y-99822000D01*
X152654000Y-99822000D02*
X152781000Y-99822000D01*
X155321000Y-99822000D02*
X155067000Y-99822000D01*
X157861000Y-99822000D02*
X157607000Y-99822000D01*
X160401000Y-99822000D02*
X160147000Y-99822000D01*
X152654000Y-93218000D02*
X152654000Y-99822000D01*
D11*
X116064400Y-88079200D02*
X116064400Y-87079200D01*
X114364400Y-87079200D02*
X114364400Y-88079200D01*
X119294200Y-86873600D02*
X119294200Y-87573600D01*
X118094200Y-87573600D02*
X118094200Y-86873600D01*
X157876800Y-79939400D02*
X157876800Y-80639400D01*
X156676800Y-80639400D02*
X156676800Y-79939400D01*
X176084600Y-98645600D02*
X176084600Y-97645600D01*
X174384600Y-97645600D02*
X174384600Y-98645600D01*
X178501600Y-97897200D02*
X178501600Y-98597200D01*
X177301600Y-98597200D02*
X177301600Y-97897200D01*
X175729000Y-81856200D02*
X175729000Y-80856200D01*
X174029000Y-80856200D02*
X174029000Y-81856200D01*
X175805200Y-90289000D02*
X175805200Y-89289000D01*
X174105200Y-89289000D02*
X174105200Y-90289000D01*
X178222200Y-89439000D02*
X178222200Y-90139000D01*
X177022200Y-90139000D02*
X177022200Y-89439000D01*
X178044400Y-80904600D02*
X178044400Y-81604600D01*
X176844400Y-81604600D02*
X176844400Y-80904600D01*
X155409000Y-81068800D02*
X155409000Y-80068800D01*
X153709000Y-80068800D02*
X153709000Y-81068800D01*
D12*
X142215181Y-86005847D02*
X142215181Y-86577276D01*
X142215181Y-86291562D02*
X141215181Y-86291562D01*
X141358038Y-86386800D01*
X141453276Y-86482038D01*
X141500895Y-86577276D01*
X141215181Y-85386800D02*
X141215181Y-85291561D01*
X141262800Y-85196323D01*
X141310419Y-85148704D01*
X141405657Y-85101085D01*
X141596133Y-85053466D01*
X141834229Y-85053466D01*
X142024705Y-85101085D01*
X142119943Y-85148704D01*
X142167562Y-85196323D01*
X142215181Y-85291561D01*
X142215181Y-85386800D01*
X142167562Y-85482038D01*
X142119943Y-85529657D01*
X142024705Y-85577276D01*
X141834229Y-85624895D01*
X141596133Y-85624895D01*
X141405657Y-85577276D01*
X141310419Y-85529657D01*
X141262800Y-85482038D01*
X141215181Y-85386800D01*
X141548514Y-84196323D02*
X142215181Y-84196323D01*
X141548514Y-84624895D02*
X142072324Y-84624895D01*
X142167562Y-84577276D01*
X142215181Y-84482038D01*
X142215181Y-84339180D01*
X142167562Y-84243942D01*
X142119943Y-84196323D01*
X142215181Y-83196323D02*
X142215181Y-83767752D01*
X142215181Y-83482038D02*
X141215181Y-83482038D01*
X141358038Y-83577276D01*
X141453276Y-83672514D01*
X141500895Y-83767752D01*
X147085619Y-96011476D02*
X147038000Y-95963857D01*
X146990381Y-95868619D01*
X146990381Y-95630523D01*
X147038000Y-95535285D01*
X147085619Y-95487666D01*
X147180857Y-95440047D01*
X147276095Y-95440047D01*
X147418952Y-95487666D01*
X147990381Y-96059095D01*
X147990381Y-95440047D01*
X147085619Y-95059095D02*
X147038000Y-95011476D01*
X146990381Y-94916238D01*
X146990381Y-94678142D01*
X147038000Y-94582904D01*
X147085619Y-94535285D01*
X147180857Y-94487666D01*
X147276095Y-94487666D01*
X147418952Y-94535285D01*
X147990381Y-95106714D01*
X147990381Y-94487666D01*
X147323714Y-93630523D02*
X147990381Y-93630523D01*
X147323714Y-94059095D02*
X147847524Y-94059095D01*
X147942762Y-94011476D01*
X147990381Y-93916238D01*
X147990381Y-93773380D01*
X147942762Y-93678142D01*
X147895143Y-93630523D01*
X147990381Y-92630523D02*
X147990381Y-93201952D01*
X147990381Y-92916238D02*
X146990381Y-92916238D01*
X147133238Y-93011476D01*
X147228476Y-93106714D01*
X147276095Y-93201952D01*
X173505819Y-108090067D02*
X173458200Y-108042448D01*
X173410581Y-107947210D01*
X173410581Y-107709114D01*
X173458200Y-107613876D01*
X173505819Y-107566257D01*
X173601057Y-107518638D01*
X173696295Y-107518638D01*
X173839152Y-107566257D01*
X174410581Y-108137686D01*
X174410581Y-107518638D01*
X173505819Y-107137686D02*
X173458200Y-107090067D01*
X173410581Y-106994829D01*
X173410581Y-106756733D01*
X173458200Y-106661495D01*
X173505819Y-106613876D01*
X173601057Y-106566257D01*
X173696295Y-106566257D01*
X173839152Y-106613876D01*
X174410581Y-107185305D01*
X174410581Y-106566257D01*
X173410581Y-105947210D02*
X173410581Y-105851971D01*
X173458200Y-105756733D01*
X173505819Y-105709114D01*
X173601057Y-105661495D01*
X173791533Y-105613876D01*
X174029629Y-105613876D01*
X174220105Y-105661495D01*
X174315343Y-105709114D01*
X174362962Y-105756733D01*
X174410581Y-105851971D01*
X174410581Y-105947210D01*
X174362962Y-106042448D01*
X174315343Y-106090067D01*
X174220105Y-106137686D01*
X174029629Y-106185305D01*
X173791533Y-106185305D01*
X173601057Y-106137686D01*
X173505819Y-106090067D01*
X173458200Y-106042448D01*
X173410581Y-105947210D01*
X173743914Y-104756733D02*
X174410581Y-104756733D01*
X173743914Y-105185305D02*
X174267724Y-105185305D01*
X174362962Y-105137686D01*
X174410581Y-105042448D01*
X174410581Y-104899590D01*
X174362962Y-104804352D01*
X174315343Y-104756733D01*
X174410581Y-103756733D02*
X174410581Y-104328162D01*
X174410581Y-104042448D02*
X173410581Y-104042448D01*
X173553438Y-104137686D01*
X173648676Y-104232924D01*
X173696295Y-104328162D01*
X120947781Y-102490495D02*
X119947781Y-102490495D01*
X119947781Y-102252400D01*
X119995400Y-102109542D01*
X120090638Y-102014304D01*
X120185876Y-101966685D01*
X120376352Y-101919066D01*
X120519210Y-101919066D01*
X120709686Y-101966685D01*
X120804924Y-102014304D01*
X120900162Y-102109542D01*
X120947781Y-102252400D01*
X120947781Y-102490495D01*
X120947781Y-100966685D02*
X120947781Y-101538114D01*
X120947781Y-101252400D02*
X119947781Y-101252400D01*
X120090638Y-101347638D01*
X120185876Y-101442876D01*
X120233495Y-101538114D01*
X121435905Y-98972381D02*
X121435905Y-97972381D01*
X121674000Y-97972381D01*
X121816858Y-98020000D01*
X121912096Y-98115238D01*
X121959715Y-98210476D01*
X122007334Y-98400952D01*
X122007334Y-98543810D01*
X121959715Y-98734286D01*
X121912096Y-98829524D01*
X121816858Y-98924762D01*
X121674000Y-98972381D01*
X121435905Y-98972381D01*
X122388286Y-98067619D02*
X122435905Y-98020000D01*
X122531143Y-97972381D01*
X122769239Y-97972381D01*
X122864477Y-98020000D01*
X122912096Y-98067619D01*
X122959715Y-98162857D01*
X122959715Y-98258095D01*
X122912096Y-98400952D01*
X122340667Y-98972381D01*
X122959715Y-98972381D01*
X126515905Y-94654381D02*
X126515905Y-93654381D01*
X126754000Y-93654381D01*
X126896858Y-93702000D01*
X126992096Y-93797238D01*
X127039715Y-93892476D01*
X127087334Y-94082952D01*
X127087334Y-94225810D01*
X127039715Y-94416286D01*
X126992096Y-94511524D01*
X126896858Y-94606762D01*
X126754000Y-94654381D01*
X126515905Y-94654381D01*
X127420667Y-93654381D02*
X128039715Y-93654381D01*
X127706381Y-94035333D01*
X127849239Y-94035333D01*
X127944477Y-94082952D01*
X127992096Y-94130571D01*
X128039715Y-94225810D01*
X128039715Y-94463905D01*
X127992096Y-94559143D01*
X127944477Y-94606762D01*
X127849239Y-94654381D01*
X127563524Y-94654381D01*
X127468286Y-94606762D01*
X127420667Y-94559143D01*
X131087905Y-98972381D02*
X131087905Y-97972381D01*
X131326000Y-97972381D01*
X131468858Y-98020000D01*
X131564096Y-98115238D01*
X131611715Y-98210476D01*
X131659334Y-98400952D01*
X131659334Y-98543810D01*
X131611715Y-98734286D01*
X131564096Y-98829524D01*
X131468858Y-98924762D01*
X131326000Y-98972381D01*
X131087905Y-98972381D01*
X132516477Y-98305714D02*
X132516477Y-98972381D01*
X132278381Y-97924762D02*
X132040286Y-98639048D01*
X132659334Y-98639048D01*
X136396505Y-75338181D02*
X136396505Y-74338181D01*
X136634600Y-74338181D01*
X136777458Y-74385800D01*
X136872696Y-74481038D01*
X136920315Y-74576276D01*
X136967934Y-74766752D01*
X136967934Y-74909610D01*
X136920315Y-75100086D01*
X136872696Y-75195324D01*
X136777458Y-75290562D01*
X136634600Y-75338181D01*
X136396505Y-75338181D01*
X137872696Y-74338181D02*
X137396505Y-74338181D01*
X137348886Y-74814371D01*
X137396505Y-74766752D01*
X137491743Y-74719133D01*
X137729839Y-74719133D01*
X137825077Y-74766752D01*
X137872696Y-74814371D01*
X137920315Y-74909610D01*
X137920315Y-75147705D01*
X137872696Y-75242943D01*
X137825077Y-75290562D01*
X137729839Y-75338181D01*
X137491743Y-75338181D01*
X137396505Y-75290562D01*
X137348886Y-75242943D01*
X159916905Y-106656381D02*
X159916905Y-105656381D01*
X160155000Y-105656381D01*
X160297858Y-105704000D01*
X160393096Y-105799238D01*
X160440715Y-105894476D01*
X160488334Y-106084952D01*
X160488334Y-106227810D01*
X160440715Y-106418286D01*
X160393096Y-106513524D01*
X160297858Y-106608762D01*
X160155000Y-106656381D01*
X159916905Y-106656381D01*
X161345477Y-105656381D02*
X161155000Y-105656381D01*
X161059762Y-105704000D01*
X161012143Y-105751619D01*
X160916905Y-105894476D01*
X160869286Y-106084952D01*
X160869286Y-106465905D01*
X160916905Y-106561143D01*
X160964524Y-106608762D01*
X161059762Y-106656381D01*
X161250239Y-106656381D01*
X161345477Y-106608762D01*
X161393096Y-106561143D01*
X161440715Y-106465905D01*
X161440715Y-106227810D01*
X161393096Y-106132571D01*
X161345477Y-106084952D01*
X161250239Y-106037333D01*
X161059762Y-106037333D01*
X160964524Y-106084952D01*
X160916905Y-106132571D01*
X160869286Y-106227810D01*
X169414867Y-94388771D02*
X169081533Y-94388771D01*
X169081533Y-94912581D02*
X169081533Y-93912581D01*
X169557724Y-93912581D01*
X170462486Y-94912581D02*
X169891057Y-94912581D01*
X170176771Y-94912581D02*
X170176771Y-93912581D01*
X170081533Y-94055438D01*
X169986295Y-94150676D01*
X169891057Y-94198295D01*
X108353267Y-89467581D02*
X108353267Y-90181867D01*
X108305647Y-90324724D01*
X108210409Y-90419962D01*
X108067552Y-90467581D01*
X107972314Y-90467581D01*
X109353267Y-90467581D02*
X108781838Y-90467581D01*
X109067552Y-90467581D02*
X109067552Y-89467581D01*
X108972314Y-89610438D01*
X108877076Y-89705676D01*
X108781838Y-89753295D01*
X121739067Y-90208981D02*
X121739067Y-90923267D01*
X121691447Y-91066124D01*
X121596209Y-91161362D01*
X121453352Y-91208981D01*
X121358114Y-91208981D01*
X122167638Y-90304219D02*
X122215257Y-90256600D01*
X122310495Y-90208981D01*
X122548591Y-90208981D01*
X122643829Y-90256600D01*
X122691448Y-90304219D01*
X122739067Y-90399457D01*
X122739067Y-90494695D01*
X122691448Y-90637552D01*
X122120019Y-91208981D01*
X122739067Y-91208981D01*
X126412667Y-98179781D02*
X126412667Y-98894067D01*
X126365047Y-99036924D01*
X126269809Y-99132162D01*
X126126952Y-99179781D01*
X126031714Y-99179781D01*
X126793619Y-98179781D02*
X127412667Y-98179781D01*
X127079333Y-98560733D01*
X127222191Y-98560733D01*
X127317429Y-98608352D01*
X127365048Y-98655971D01*
X127412667Y-98751210D01*
X127412667Y-98989305D01*
X127365048Y-99084543D01*
X127317429Y-99132162D01*
X127222191Y-99179781D01*
X126936476Y-99179781D01*
X126841238Y-99132162D01*
X126793619Y-99084543D01*
X151126867Y-81542781D02*
X151126867Y-82257067D01*
X151079247Y-82399924D01*
X150984009Y-82495162D01*
X150841152Y-82542781D01*
X150745914Y-82542781D01*
X152079248Y-81542781D02*
X151603057Y-81542781D01*
X151555438Y-82018971D01*
X151603057Y-81971352D01*
X151698295Y-81923733D01*
X151936391Y-81923733D01*
X152031629Y-81971352D01*
X152079248Y-82018971D01*
X152126867Y-82114210D01*
X152126867Y-82352305D01*
X152079248Y-82447543D01*
X152031629Y-82495162D01*
X151936391Y-82542781D01*
X151698295Y-82542781D01*
X151603057Y-82495162D01*
X151555438Y-82447543D01*
X160042267Y-83909781D02*
X160042267Y-84624067D01*
X159994647Y-84766924D01*
X159899409Y-84862162D01*
X159756552Y-84909781D01*
X159661314Y-84909781D01*
X160947029Y-83909781D02*
X160756552Y-83909781D01*
X160661314Y-83957400D01*
X160613695Y-84005019D01*
X160518457Y-84147876D01*
X160470838Y-84338352D01*
X160470838Y-84719305D01*
X160518457Y-84814543D01*
X160566076Y-84862162D01*
X160661314Y-84909781D01*
X160851791Y-84909781D01*
X160947029Y-84862162D01*
X160994648Y-84814543D01*
X161042267Y-84719305D01*
X161042267Y-84481210D01*
X160994648Y-84385971D01*
X160947029Y-84338352D01*
X160851791Y-84290733D01*
X160661314Y-84290733D01*
X160566076Y-84338352D01*
X160518457Y-84385971D01*
X160470838Y-84481210D01*
X180133667Y-84519381D02*
X180133667Y-85233667D01*
X180086047Y-85376524D01*
X179990809Y-85471762D01*
X179847952Y-85519381D01*
X179752714Y-85519381D01*
X180514619Y-84519381D02*
X181181286Y-84519381D01*
X180752714Y-85519381D01*
X180235267Y-92875981D02*
X180235267Y-93590267D01*
X180187647Y-93733124D01*
X180092409Y-93828362D01*
X179949552Y-93875981D01*
X179854314Y-93875981D01*
X180854314Y-93304552D02*
X180759076Y-93256933D01*
X180711457Y-93209314D01*
X180663838Y-93114076D01*
X180663838Y-93066457D01*
X180711457Y-92971219D01*
X180759076Y-92923600D01*
X180854314Y-92875981D01*
X181044791Y-92875981D01*
X181140029Y-92923600D01*
X181187648Y-92971219D01*
X181235267Y-93066457D01*
X181235267Y-93114076D01*
X181187648Y-93209314D01*
X181140029Y-93256933D01*
X181044791Y-93304552D01*
X180854314Y-93304552D01*
X180759076Y-93352171D01*
X180711457Y-93399790D01*
X180663838Y-93495029D01*
X180663838Y-93685505D01*
X180711457Y-93780743D01*
X180759076Y-93828362D01*
X180854314Y-93875981D01*
X181044791Y-93875981D01*
X181140029Y-93828362D01*
X181187648Y-93780743D01*
X181235267Y-93685505D01*
X181235267Y-93495029D01*
X181187648Y-93399790D01*
X181140029Y-93352171D01*
X181044791Y-93304552D01*
X180489267Y-101334181D02*
X180489267Y-102048467D01*
X180441647Y-102191324D01*
X180346409Y-102286562D01*
X180203552Y-102334181D01*
X180108314Y-102334181D01*
X181013076Y-102334181D02*
X181203552Y-102334181D01*
X181298791Y-102286562D01*
X181346410Y-102238943D01*
X181441648Y-102096086D01*
X181489267Y-101905610D01*
X181489267Y-101524657D01*
X181441648Y-101429419D01*
X181394029Y-101381800D01*
X181298791Y-101334181D01*
X181108314Y-101334181D01*
X181013076Y-101381800D01*
X180965457Y-101429419D01*
X180917838Y-101524657D01*
X180917838Y-101762752D01*
X180965457Y-101857990D01*
X181013076Y-101905610D01*
X181108314Y-101953229D01*
X181298791Y-101953229D01*
X181394029Y-101905610D01*
X181441648Y-101857990D01*
X181489267Y-101762752D01*
X129828181Y-84653333D02*
X130542467Y-84653333D01*
X130685324Y-84700953D01*
X130780562Y-84796191D01*
X130828181Y-84939048D01*
X130828181Y-85034286D01*
X130828181Y-84177143D02*
X129828181Y-84177143D01*
X129828181Y-83796190D01*
X129875800Y-83700952D01*
X129923419Y-83653333D01*
X130018657Y-83605714D01*
X130161514Y-83605714D01*
X130256752Y-83653333D01*
X130304371Y-83700952D01*
X130351990Y-83796190D01*
X130351990Y-84177143D01*
X130828181Y-82653333D02*
X130828181Y-83224762D01*
X130828181Y-82939048D02*
X129828181Y-82939048D01*
X129971038Y-83034286D01*
X130066276Y-83129524D01*
X130113895Y-83224762D01*
X161377334Y-102986381D02*
X160901143Y-102986381D01*
X160901143Y-101986381D01*
X162234477Y-102986381D02*
X161663048Y-102986381D01*
X161948762Y-102986381D02*
X161948762Y-101986381D01*
X161853524Y-102129238D01*
X161758286Y-102224476D01*
X161663048Y-102272095D01*
X116710381Y-93638666D02*
X116234190Y-93972000D01*
X116710381Y-94210095D02*
X115710381Y-94210095D01*
X115710381Y-93829142D01*
X115758000Y-93733904D01*
X115805619Y-93686285D01*
X115900857Y-93638666D01*
X116043714Y-93638666D01*
X116138952Y-93686285D01*
X116186571Y-93733904D01*
X116234190Y-93829142D01*
X116234190Y-94210095D01*
X116710381Y-92686285D02*
X116710381Y-93257714D01*
X116710381Y-92972000D02*
X115710381Y-92972000D01*
X115853238Y-93067238D01*
X115948476Y-93162476D01*
X115996095Y-93257714D01*
X116710381Y-99480666D02*
X116234190Y-99814000D01*
X116710381Y-100052095D02*
X115710381Y-100052095D01*
X115710381Y-99671142D01*
X115758000Y-99575904D01*
X115805619Y-99528285D01*
X115900857Y-99480666D01*
X116043714Y-99480666D01*
X116138952Y-99528285D01*
X116186571Y-99575904D01*
X116234190Y-99671142D01*
X116234190Y-100052095D01*
X115805619Y-99099714D02*
X115758000Y-99052095D01*
X115710381Y-98956857D01*
X115710381Y-98718761D01*
X115758000Y-98623523D01*
X115805619Y-98575904D01*
X115900857Y-98528285D01*
X115996095Y-98528285D01*
X116138952Y-98575904D01*
X116710381Y-99147333D01*
X116710381Y-98528285D01*
X152702181Y-80278266D02*
X152225990Y-80611600D01*
X152702181Y-80849695D02*
X151702181Y-80849695D01*
X151702181Y-80468742D01*
X151749800Y-80373504D01*
X151797419Y-80325885D01*
X151892657Y-80278266D01*
X152035514Y-80278266D01*
X152130752Y-80325885D01*
X152178371Y-80373504D01*
X152225990Y-80468742D01*
X152225990Y-80849695D01*
X151702181Y-79944933D02*
X151702181Y-79325885D01*
X152083133Y-79659219D01*
X152083133Y-79516361D01*
X152130752Y-79421123D01*
X152178371Y-79373504D01*
X152273610Y-79325885D01*
X152511705Y-79325885D01*
X152606943Y-79373504D01*
X152654562Y-79421123D01*
X152702181Y-79516361D01*
X152702181Y-79802076D01*
X152654562Y-79897314D01*
X152606943Y-79944933D01*
X141489181Y-82194305D02*
X142298705Y-82194305D01*
X142393943Y-82146686D01*
X142441562Y-82099067D01*
X142489181Y-82003829D01*
X142489181Y-81813352D01*
X142441562Y-81718114D01*
X142393943Y-81670495D01*
X142298705Y-81622876D01*
X141489181Y-81622876D01*
X141584419Y-81194305D02*
X141536800Y-81146686D01*
X141489181Y-81051448D01*
X141489181Y-80813352D01*
X141536800Y-80718114D01*
X141584419Y-80670495D01*
X141679657Y-80622876D01*
X141774895Y-80622876D01*
X141917752Y-80670495D01*
X142489181Y-81241924D01*
X142489181Y-80622876D01*
X156972095Y-95972381D02*
X156972095Y-96781905D01*
X157019714Y-96877143D01*
X157067333Y-96924762D01*
X157162571Y-96972381D01*
X157353048Y-96972381D01*
X157448286Y-96924762D01*
X157495905Y-96877143D01*
X157543524Y-96781905D01*
X157543524Y-95972381D01*
X157924476Y-95972381D02*
X158543524Y-95972381D01*
X158210190Y-96353333D01*
X158353048Y-96353333D01*
X158448286Y-96400952D01*
X158495905Y-96448571D01*
X158543524Y-96543810D01*
X158543524Y-96781905D01*
X158495905Y-96877143D01*
X158448286Y-96924762D01*
X158353048Y-96972381D01*
X158067333Y-96972381D01*
X157972095Y-96924762D01*
X157924476Y-96877143D01*
X117321543Y-87745866D02*
X117369162Y-87793485D01*
X117416781Y-87936342D01*
X117416781Y-88031580D01*
X117369162Y-88174438D01*
X117273924Y-88269676D01*
X117178686Y-88317295D01*
X116988210Y-88364914D01*
X116845352Y-88364914D01*
X116654876Y-88317295D01*
X116559638Y-88269676D01*
X116464400Y-88174438D01*
X116416781Y-88031580D01*
X116416781Y-87936342D01*
X116464400Y-87793485D01*
X116512019Y-87745866D01*
X117416781Y-86793485D02*
X117416781Y-87364914D01*
X117416781Y-87079200D02*
X116416781Y-87079200D01*
X116559638Y-87174438D01*
X116654876Y-87269676D01*
X116702495Y-87364914D01*
X120301343Y-87390266D02*
X120348962Y-87437885D01*
X120396581Y-87580742D01*
X120396581Y-87675980D01*
X120348962Y-87818838D01*
X120253724Y-87914076D01*
X120158486Y-87961695D01*
X119968010Y-88009314D01*
X119825152Y-88009314D01*
X119634676Y-87961695D01*
X119539438Y-87914076D01*
X119444200Y-87818838D01*
X119396581Y-87675980D01*
X119396581Y-87580742D01*
X119444200Y-87437885D01*
X119491819Y-87390266D01*
X119396581Y-87056933D02*
X119396581Y-86437885D01*
X119777533Y-86771219D01*
X119777533Y-86628361D01*
X119825152Y-86533123D01*
X119872771Y-86485504D01*
X119968010Y-86437885D01*
X120206105Y-86437885D01*
X120301343Y-86485504D01*
X120348962Y-86533123D01*
X120396581Y-86628361D01*
X120396581Y-86914076D01*
X120348962Y-87009314D01*
X120301343Y-87056933D01*
X158883943Y-80456066D02*
X158931562Y-80503685D01*
X158979181Y-80646542D01*
X158979181Y-80741780D01*
X158931562Y-80884638D01*
X158836324Y-80979876D01*
X158741086Y-81027495D01*
X158550610Y-81075114D01*
X158407752Y-81075114D01*
X158217276Y-81027495D01*
X158122038Y-80979876D01*
X158026800Y-80884638D01*
X157979181Y-80741780D01*
X157979181Y-80646542D01*
X158026800Y-80503685D01*
X158074419Y-80456066D01*
X158312514Y-79598923D02*
X158979181Y-79598923D01*
X157931562Y-79837019D02*
X158645848Y-80075114D01*
X158645848Y-79456066D01*
X177091743Y-98312266D02*
X177139362Y-98359885D01*
X177186981Y-98502742D01*
X177186981Y-98597980D01*
X177139362Y-98740838D01*
X177044124Y-98836076D01*
X176948886Y-98883695D01*
X176758410Y-98931314D01*
X176615552Y-98931314D01*
X176425076Y-98883695D01*
X176329838Y-98836076D01*
X176234600Y-98740838D01*
X176186981Y-98597980D01*
X176186981Y-98502742D01*
X176234600Y-98359885D01*
X176282219Y-98312266D01*
X176186981Y-97407504D02*
X176186981Y-97883695D01*
X176663171Y-97931314D01*
X176615552Y-97883695D01*
X176567933Y-97788457D01*
X176567933Y-97550361D01*
X176615552Y-97455123D01*
X176663171Y-97407504D01*
X176758410Y-97359885D01*
X176996505Y-97359885D01*
X177091743Y-97407504D01*
X177139362Y-97455123D01*
X177186981Y-97550361D01*
X177186981Y-97788457D01*
X177139362Y-97883695D01*
X177091743Y-97931314D01*
X179508743Y-98413866D02*
X179556362Y-98461485D01*
X179603981Y-98604342D01*
X179603981Y-98699580D01*
X179556362Y-98842438D01*
X179461124Y-98937676D01*
X179365886Y-98985295D01*
X179175410Y-99032914D01*
X179032552Y-99032914D01*
X178842076Y-98985295D01*
X178746838Y-98937676D01*
X178651600Y-98842438D01*
X178603981Y-98699580D01*
X178603981Y-98604342D01*
X178651600Y-98461485D01*
X178699219Y-98413866D01*
X178603981Y-97556723D02*
X178603981Y-97747200D01*
X178651600Y-97842438D01*
X178699219Y-97890057D01*
X178842076Y-97985295D01*
X179032552Y-98032914D01*
X179413505Y-98032914D01*
X179508743Y-97985295D01*
X179556362Y-97937676D01*
X179603981Y-97842438D01*
X179603981Y-97651961D01*
X179556362Y-97556723D01*
X179508743Y-97509104D01*
X179413505Y-97461485D01*
X179175410Y-97461485D01*
X179080171Y-97509104D01*
X179032552Y-97556723D01*
X178984933Y-97651961D01*
X178984933Y-97842438D01*
X179032552Y-97937676D01*
X179080171Y-97985295D01*
X179175410Y-98032914D01*
X176736143Y-81522866D02*
X176783762Y-81570485D01*
X176831381Y-81713342D01*
X176831381Y-81808580D01*
X176783762Y-81951438D01*
X176688524Y-82046676D01*
X176593286Y-82094295D01*
X176402810Y-82141914D01*
X176259952Y-82141914D01*
X176069476Y-82094295D01*
X175974238Y-82046676D01*
X175879000Y-81951438D01*
X175831381Y-81808580D01*
X175831381Y-81713342D01*
X175879000Y-81570485D01*
X175926619Y-81522866D01*
X175831381Y-81189533D02*
X175831381Y-80522866D01*
X176831381Y-80951438D01*
X176812343Y-89955666D02*
X176859962Y-90003285D01*
X176907581Y-90146142D01*
X176907581Y-90241380D01*
X176859962Y-90384238D01*
X176764724Y-90479476D01*
X176669486Y-90527095D01*
X176479010Y-90574714D01*
X176336152Y-90574714D01*
X176145676Y-90527095D01*
X176050438Y-90479476D01*
X175955200Y-90384238D01*
X175907581Y-90241380D01*
X175907581Y-90146142D01*
X175955200Y-90003285D01*
X176002819Y-89955666D01*
X176336152Y-89384238D02*
X176288533Y-89479476D01*
X176240914Y-89527095D01*
X176145676Y-89574714D01*
X176098057Y-89574714D01*
X176002819Y-89527095D01*
X175955200Y-89479476D01*
X175907581Y-89384238D01*
X175907581Y-89193761D01*
X175955200Y-89098523D01*
X176002819Y-89050904D01*
X176098057Y-89003285D01*
X176145676Y-89003285D01*
X176240914Y-89050904D01*
X176288533Y-89098523D01*
X176336152Y-89193761D01*
X176336152Y-89384238D01*
X176383771Y-89479476D01*
X176431390Y-89527095D01*
X176526629Y-89574714D01*
X176717105Y-89574714D01*
X176812343Y-89527095D01*
X176859962Y-89479476D01*
X176907581Y-89384238D01*
X176907581Y-89193761D01*
X176859962Y-89098523D01*
X176812343Y-89050904D01*
X176717105Y-89003285D01*
X176526629Y-89003285D01*
X176431390Y-89050904D01*
X176383771Y-89098523D01*
X176336152Y-89193761D01*
X179229343Y-89955666D02*
X179276962Y-90003285D01*
X179324581Y-90146142D01*
X179324581Y-90241380D01*
X179276962Y-90384238D01*
X179181724Y-90479476D01*
X179086486Y-90527095D01*
X178896010Y-90574714D01*
X178753152Y-90574714D01*
X178562676Y-90527095D01*
X178467438Y-90479476D01*
X178372200Y-90384238D01*
X178324581Y-90241380D01*
X178324581Y-90146142D01*
X178372200Y-90003285D01*
X178419819Y-89955666D01*
X179324581Y-89479476D02*
X179324581Y-89289000D01*
X179276962Y-89193761D01*
X179229343Y-89146142D01*
X179086486Y-89050904D01*
X178896010Y-89003285D01*
X178515057Y-89003285D01*
X178419819Y-89050904D01*
X178372200Y-89098523D01*
X178324581Y-89193761D01*
X178324581Y-89384238D01*
X178372200Y-89479476D01*
X178419819Y-89527095D01*
X178515057Y-89574714D01*
X178753152Y-89574714D01*
X178848390Y-89527095D01*
X178896010Y-89479476D01*
X178943629Y-89384238D01*
X178943629Y-89193761D01*
X178896010Y-89098523D01*
X178848390Y-89050904D01*
X178753152Y-89003285D01*
X179051543Y-81897457D02*
X179099162Y-81945076D01*
X179146781Y-82087933D01*
X179146781Y-82183171D01*
X179099162Y-82326029D01*
X179003924Y-82421267D01*
X178908686Y-82468886D01*
X178718210Y-82516505D01*
X178575352Y-82516505D01*
X178384876Y-82468886D01*
X178289638Y-82421267D01*
X178194400Y-82326029D01*
X178146781Y-82183171D01*
X178146781Y-82087933D01*
X178194400Y-81945076D01*
X178242019Y-81897457D01*
X179146781Y-80945076D02*
X179146781Y-81516505D01*
X179146781Y-81230791D02*
X178146781Y-81230791D01*
X178289638Y-81326029D01*
X178384876Y-81421267D01*
X178432495Y-81516505D01*
X178146781Y-80326029D02*
X178146781Y-80230790D01*
X178194400Y-80135552D01*
X178242019Y-80087933D01*
X178337257Y-80040314D01*
X178527733Y-79992695D01*
X178765829Y-79992695D01*
X178956305Y-80040314D01*
X179051543Y-80087933D01*
X179099162Y-80135552D01*
X179146781Y-80230790D01*
X179146781Y-80326029D01*
X179099162Y-80421267D01*
X179051543Y-80468886D01*
X178956305Y-80516505D01*
X178765829Y-80564124D01*
X178527733Y-80564124D01*
X178337257Y-80516505D01*
X178242019Y-80468886D01*
X178194400Y-80421267D01*
X178146781Y-80326029D01*
X156666143Y-80735466D02*
X156713762Y-80783085D01*
X156761381Y-80925942D01*
X156761381Y-81021180D01*
X156713762Y-81164038D01*
X156618524Y-81259276D01*
X156523286Y-81306895D01*
X156332810Y-81354514D01*
X156189952Y-81354514D01*
X155999476Y-81306895D01*
X155904238Y-81259276D01*
X155809000Y-81164038D01*
X155761381Y-81021180D01*
X155761381Y-80925942D01*
X155809000Y-80783085D01*
X155856619Y-80735466D01*
X155856619Y-80354514D02*
X155809000Y-80306895D01*
X155761381Y-80211657D01*
X155761381Y-79973561D01*
X155809000Y-79878323D01*
X155856619Y-79830704D01*
X155951857Y-79783085D01*
X156047095Y-79783085D01*
X156189952Y-79830704D01*
X156761381Y-80402133D01*
X156761381Y-79783085D01*
M02*
