M48
;DRILL file {KiCad 4.0.5} date Thursday, March 09, 2017 'PMt' 04:22:47 PM
;FORMAT={-:-/ absolute / inch / decimal}
FMAT,2
INCH,TZ
T1C0.016
T2C0.020
T3C0.028
T4C0.030
T5C0.031
T6C0.039
T7C0.045
%
G90
G05
M72
T1
X4.603Y-3.553
X4.673Y-3.556
X6.083Y-3.309
X6.192Y-3.29
X6.882Y-3.3
X6.884Y-3.648
X6.899Y-4.004
X6.989Y-3.302
X6.992Y-3.652
X7.007Y-4.018
T2
X4.801Y-4.153
X5.532Y-3.47
X6.469Y-4.258
T3
X6.26Y-4.11
X6.46Y-4.11
T4
X6.06Y-3.65
X6.06Y-3.95
X6.16Y-3.65
X6.16Y-3.95
X6.26Y-3.65
X6.26Y-3.95
X6.36Y-3.65
X6.36Y-3.95
T5
X6.683Y-4.121
X6.683Y-4.2194
T6
X4.279Y-3.638
X4.279Y-3.738
X4.806Y-3.379
X4.806Y-3.479
X4.99Y-3.981
X4.99Y-4.081
X5.227Y-3.3
X5.327Y-3.3
X5.57Y-3.615
X5.57Y-3.8119
X5.963Y-3.326
X5.963Y-3.426
X6.314Y-3.131
X6.314Y-3.231
X6.683Y-3.813
X6.683Y-3.913
X7.105Y-3.155
X7.105Y-3.255
X7.109Y-3.484
X7.109Y-3.584
X7.119Y-3.817
X7.119Y-3.917
T7
X5.762Y-3.106
X5.762Y-3.206
X5.762Y-3.306
T0
M30
