G04 #@! TF.FileFunction,Copper,L2,Bot,Signal*
%FSLAX46Y46*%
G04 Gerber Fmt 4.6, Leading zero omitted, Abs format (unit mm)*
G04 Created by KiCad (PCBNEW 4.0.5) date 04/12/17 15:31:13*
%MOMM*%
%LPD*%
G01*
G04 APERTURE LIST*
%ADD10C,0.025400*%
%ADD11R,2.000000X2.000000*%
%ADD12C,2.000000*%
%ADD13R,1.600000X1.600000*%
%ADD14C,1.600000*%
%ADD15R,1.700000X1.700000*%
%ADD16O,1.700000X1.700000*%
%ADD17C,1.905000*%
%ADD18R,1.800000X1.800000*%
%ADD19C,1.800000*%
%ADD20R,2.400000X2.400000*%
%ADD21O,2.400000X2.400000*%
%ADD22C,1.400000*%
%ADD23O,1.400000X1.400000*%
%ADD24O,1.600000X1.600000*%
%ADD25C,0.254000*%
G04 APERTURE END LIST*
D10*
D11*
X47625000Y15621000D03*
D12*
X47625000Y10621000D03*
D13*
X61823600Y6197600D03*
D14*
X61823600Y3697600D03*
D15*
X64490600Y11353800D03*
D16*
X64490600Y13893800D03*
D15*
X7505700Y34201100D03*
D16*
X4965700Y34201100D03*
D15*
X79959200Y32512000D03*
D16*
X79959200Y35052000D03*
D15*
X17462500Y9931400D03*
D16*
X17462500Y7391400D03*
D15*
X79959200Y8153400D03*
D16*
X79959200Y10693400D03*
D17*
X57899300Y29121100D03*
X55359300Y29121100D03*
X52819300Y29121100D03*
X50279300Y29121100D03*
X50279300Y21501100D03*
X52819300Y21501100D03*
X55359300Y21501100D03*
X57899300Y21501100D03*
D15*
X79959200Y20510500D03*
D16*
X79959200Y23050500D03*
D18*
X6616700Y11709400D03*
D19*
X9156700Y11709400D03*
D20*
X25819100Y21488400D03*
D21*
X10579100Y21488400D03*
D20*
X36182300Y30022800D03*
D21*
X20942300Y30022800D03*
D20*
X45999400Y21577300D03*
D21*
X30759400Y21577300D03*
D22*
X69824600Y35090100D03*
D23*
X69824600Y27470100D03*
D22*
X69735700Y23355300D03*
D23*
X69735700Y15735300D03*
D22*
X74536300Y35179000D03*
D23*
X74536300Y27559000D03*
D22*
X74358500Y23177500D03*
D23*
X74358500Y15557500D03*
D22*
X69646800Y10731500D03*
D23*
X69646800Y3111500D03*
D22*
X74269600Y10820400D03*
D23*
X74269600Y3200400D03*
D20*
X55778400Y4064000D03*
D21*
X40538400Y4064000D03*
D14*
X5283200Y26644600D03*
D24*
X5283200Y24104600D03*
D14*
X5372100Y18110200D03*
D24*
X5372100Y15570200D03*
D14*
X64401700Y35179000D03*
D24*
X64401700Y32639000D03*
D14*
X64312800Y23088600D03*
D24*
X64312800Y20548600D03*
D25*
G36*
X85471769Y41529375D02*
X85724223Y127000D01*
X78490Y127000D01*
X91Y283797D01*
X10391Y3652195D01*
X38750205Y3652195D01*
X38982758Y3090742D01*
X39473624Y2569508D01*
X40126593Y2275797D01*
X40411400Y2392142D01*
X40411400Y3937000D01*
X40665400Y3937000D01*
X40665400Y2392142D01*
X40950207Y2275797D01*
X41603176Y2569508D01*
X42094042Y3090742D01*
X42326595Y3652195D01*
X42209832Y3937000D01*
X40665400Y3937000D01*
X40411400Y3937000D01*
X38866968Y3937000D01*
X38750205Y3652195D01*
X10391Y3652195D01*
X12909Y4475805D01*
X38750205Y4475805D01*
X38866968Y4191000D01*
X40411400Y4191000D01*
X40411400Y5735858D01*
X40665400Y5735858D01*
X40665400Y4191000D01*
X42209832Y4191000D01*
X42326595Y4475805D01*
X42094042Y5037258D01*
X41880511Y5264000D01*
X53930960Y5264000D01*
X53930960Y2864000D01*
X53975238Y2628683D01*
X54114310Y2412559D01*
X54326510Y2267569D01*
X54578400Y2216560D01*
X56978400Y2216560D01*
X57213717Y2260838D01*
X57429841Y2399910D01*
X57574831Y2612110D01*
X57590574Y2689855D01*
X60995461Y2689855D01*
X61069595Y2443736D01*
X61606823Y2250635D01*
X62177054Y2277822D01*
X62577605Y2443736D01*
X62651739Y2689855D01*
X62563426Y2778169D01*
X68354073Y2778169D01*
X68580036Y2308837D01*
X68968404Y1961703D01*
X69313471Y1818784D01*
X69519800Y1942126D01*
X69519800Y2984500D01*
X69773800Y2984500D01*
X69773800Y1942126D01*
X69980129Y1818784D01*
X70325196Y1961703D01*
X70713564Y2308837D01*
X70939527Y2778169D01*
X70886738Y2867069D01*
X72976873Y2867069D01*
X73202836Y2397737D01*
X73591204Y2050603D01*
X73936271Y1907684D01*
X74142600Y2031026D01*
X74142600Y3073400D01*
X74396600Y3073400D01*
X74396600Y2031026D01*
X74602929Y1907684D01*
X74947996Y2050603D01*
X75336364Y2397737D01*
X75562327Y2867069D01*
X75439806Y3073400D01*
X74396600Y3073400D01*
X74142600Y3073400D01*
X73099394Y3073400D01*
X72976873Y2867069D01*
X70886738Y2867069D01*
X70817006Y2984500D01*
X69773800Y2984500D01*
X69519800Y2984500D01*
X68476594Y2984500D01*
X68354073Y2778169D01*
X62563426Y2778169D01*
X61823600Y3517995D01*
X60995461Y2689855D01*
X57590574Y2689855D01*
X57625840Y2864000D01*
X57625840Y3914377D01*
X60376635Y3914377D01*
X60403822Y3344146D01*
X60569736Y2943595D01*
X60815855Y2869461D01*
X61643995Y3697600D01*
X62003205Y3697600D01*
X62831345Y2869461D01*
X63077464Y2943595D01*
X63257628Y3444831D01*
X68354073Y3444831D01*
X68476594Y3238500D01*
X69519800Y3238500D01*
X69519800Y4280874D01*
X69773800Y4280874D01*
X69773800Y3238500D01*
X70817006Y3238500D01*
X70939527Y3444831D01*
X70896726Y3533731D01*
X72976873Y3533731D01*
X73099394Y3327400D01*
X74142600Y3327400D01*
X74142600Y4369774D01*
X74396600Y4369774D01*
X74396600Y3327400D01*
X75439806Y3327400D01*
X75562327Y3533731D01*
X75336364Y4003063D01*
X74947996Y4350197D01*
X74602929Y4493116D01*
X74396600Y4369774D01*
X74142600Y4369774D01*
X73936271Y4493116D01*
X73591204Y4350197D01*
X73202836Y4003063D01*
X72976873Y3533731D01*
X70896726Y3533731D01*
X70713564Y3914163D01*
X70325196Y4261297D01*
X69980129Y4404216D01*
X69773800Y4280874D01*
X69519800Y4280874D01*
X69313471Y4404216D01*
X68968404Y4261297D01*
X68580036Y3914163D01*
X68354073Y3444831D01*
X63257628Y3444831D01*
X63270565Y3480823D01*
X63243378Y4051054D01*
X63077464Y4451605D01*
X62831345Y4525739D01*
X62003205Y3697600D01*
X61643995Y3697600D01*
X60815855Y4525739D01*
X60569736Y4451605D01*
X60376635Y3914377D01*
X57625840Y3914377D01*
X57625840Y5264000D01*
X57581562Y5499317D01*
X57442490Y5715441D01*
X57230290Y5860431D01*
X56978400Y5911440D01*
X54578400Y5911440D01*
X54343083Y5867162D01*
X54126959Y5728090D01*
X53981969Y5515890D01*
X53930960Y5264000D01*
X41880511Y5264000D01*
X41603176Y5558492D01*
X40950207Y5852203D01*
X40665400Y5735858D01*
X40411400Y5735858D01*
X40126593Y5852203D01*
X39473624Y5558492D01*
X38982758Y5037258D01*
X38750205Y4475805D01*
X12909Y4475805D01*
X20734Y7034510D01*
X16021024Y7034510D01*
X16190855Y6624476D01*
X16581142Y6196217D01*
X17105608Y5949914D01*
X17335500Y6070581D01*
X17335500Y7264400D01*
X17589500Y7264400D01*
X17589500Y6070581D01*
X17819392Y5949914D01*
X18343858Y6196217D01*
X18734145Y6624476D01*
X18888688Y6997600D01*
X60376160Y6997600D01*
X60376160Y5397600D01*
X60420438Y5162283D01*
X60559510Y4946159D01*
X60771710Y4801169D01*
X61009801Y4752954D01*
X60995461Y4705345D01*
X61823600Y3877205D01*
X62651739Y4705345D01*
X62637455Y4752767D01*
X62858917Y4794438D01*
X63075041Y4933510D01*
X63220031Y5145710D01*
X63271040Y5397600D01*
X63271040Y6997600D01*
X63226762Y7232917D01*
X63087690Y7449041D01*
X62875490Y7594031D01*
X62623600Y7645040D01*
X61023600Y7645040D01*
X60788283Y7600762D01*
X60572159Y7461690D01*
X60427169Y7249490D01*
X60376160Y6997600D01*
X18888688Y6997600D01*
X18903976Y7034510D01*
X18782655Y7264400D01*
X17589500Y7264400D01*
X17335500Y7264400D01*
X16142345Y7264400D01*
X16021024Y7034510D01*
X20734Y7034510D01*
X34157Y11423650D01*
X5081700Y11423650D01*
X5081700Y10683090D01*
X5178373Y10449701D01*
X5357002Y10271073D01*
X5590391Y10174400D01*
X6330950Y10174400D01*
X6489700Y10333150D01*
X6489700Y11582400D01*
X5240450Y11582400D01*
X5081700Y11423650D01*
X34157Y11423650D01*
X38169Y12735710D01*
X5081700Y12735710D01*
X5081700Y11995150D01*
X5240450Y11836400D01*
X6489700Y11836400D01*
X6489700Y13085650D01*
X6743700Y13085650D01*
X6743700Y11836400D01*
X6763700Y11836400D01*
X6763700Y11582400D01*
X6743700Y11582400D01*
X6743700Y10333150D01*
X6902450Y10174400D01*
X7643009Y10174400D01*
X7876398Y10271073D01*
X8055027Y10449701D01*
X8110819Y10584394D01*
X8286057Y10408849D01*
X8850030Y10174667D01*
X9460691Y10174135D01*
X10025071Y10407332D01*
X10399793Y10781400D01*
X15965060Y10781400D01*
X15965060Y9081400D01*
X16009338Y8846083D01*
X16148410Y8629959D01*
X16360610Y8484969D01*
X16468607Y8463099D01*
X16190855Y8158324D01*
X16021024Y7748290D01*
X16142345Y7518400D01*
X17335500Y7518400D01*
X17335500Y7538400D01*
X17589500Y7538400D01*
X17589500Y7518400D01*
X18782655Y7518400D01*
X18903976Y7748290D01*
X18854539Y7867650D01*
X78474200Y7867650D01*
X78474200Y7177090D01*
X78570873Y6943701D01*
X78749502Y6765073D01*
X78982891Y6668400D01*
X79673450Y6668400D01*
X79832200Y6827150D01*
X79832200Y8026400D01*
X80086200Y8026400D01*
X80086200Y6827150D01*
X80244950Y6668400D01*
X80935509Y6668400D01*
X81168898Y6765073D01*
X81347527Y6943701D01*
X81444200Y7177090D01*
X81444200Y7867650D01*
X81285450Y8026400D01*
X80086200Y8026400D01*
X79832200Y8026400D01*
X78632950Y8026400D01*
X78474200Y7867650D01*
X18854539Y7867650D01*
X18734145Y8158324D01*
X18457999Y8461337D01*
X18547817Y8478238D01*
X18763941Y8617310D01*
X18908931Y8829510D01*
X18959940Y9081400D01*
X18959940Y9468468D01*
X46652073Y9468468D01*
X46750736Y9201613D01*
X47360461Y8975092D01*
X48010460Y8999144D01*
X48499264Y9201613D01*
X48597927Y9468468D01*
X47625000Y10441395D01*
X46652073Y9468468D01*
X18959940Y9468468D01*
X18959940Y10781400D01*
X18940345Y10885539D01*
X45979092Y10885539D01*
X46003144Y10235540D01*
X46205613Y9746736D01*
X46472468Y9648073D01*
X47445395Y10621000D01*
X47804605Y10621000D01*
X48777532Y9648073D01*
X49044387Y9746736D01*
X49270908Y10356461D01*
X49246856Y11006460D01*
X49044387Y11495264D01*
X48777532Y11593927D01*
X47804605Y10621000D01*
X47445395Y10621000D01*
X46472468Y11593927D01*
X46205613Y11495264D01*
X45979092Y10885539D01*
X18940345Y10885539D01*
X18915662Y11016717D01*
X18776590Y11232841D01*
X18564390Y11377831D01*
X18312500Y11428840D01*
X16612500Y11428840D01*
X16377183Y11384562D01*
X16161059Y11245490D01*
X16016069Y11033290D01*
X15965060Y10781400D01*
X10399793Y10781400D01*
X10457251Y10838757D01*
X10691433Y11402730D01*
X10691756Y11773532D01*
X46652073Y11773532D01*
X47625000Y10800605D01*
X48597927Y11773532D01*
X48499264Y12040387D01*
X47889539Y12266908D01*
X47239540Y12242856D01*
X46750736Y12040387D01*
X46652073Y11773532D01*
X10691756Y11773532D01*
X10691965Y12013391D01*
X10458768Y12577771D01*
X10027343Y13009951D01*
X9463370Y13244133D01*
X8852709Y13244665D01*
X8288329Y13011468D01*
X8110859Y12834308D01*
X8055027Y12969099D01*
X7876398Y13147727D01*
X7643009Y13244400D01*
X6902450Y13244400D01*
X6743700Y13085650D01*
X6489700Y13085650D01*
X6330950Y13244400D01*
X5590391Y13244400D01*
X5357002Y13147727D01*
X5178373Y12969099D01*
X5081700Y12735710D01*
X38169Y12735710D01*
X41710Y13893800D01*
X62976507Y13893800D01*
X63089546Y13325515D01*
X63411453Y12843746D01*
X63453052Y12815950D01*
X63405283Y12806962D01*
X63189159Y12667890D01*
X63044169Y12455690D01*
X62993160Y12203800D01*
X62993160Y10503800D01*
X63037438Y10268483D01*
X63176510Y10052359D01*
X63388710Y9907369D01*
X63640600Y9856360D01*
X65340600Y9856360D01*
X65575917Y9900638D01*
X65792041Y10039710D01*
X65937031Y10251910D01*
X65980611Y10467117D01*
X68311569Y10467117D01*
X68514382Y9976271D01*
X68889596Y9600402D01*
X69380087Y9396732D01*
X69911183Y9396269D01*
X70402029Y9599082D01*
X70777898Y9974296D01*
X70981568Y10464787D01*
X70981647Y10556017D01*
X72934369Y10556017D01*
X73137182Y10065171D01*
X73512396Y9689302D01*
X74002887Y9485632D01*
X74533983Y9485169D01*
X75024829Y9687982D01*
X75400698Y10063196D01*
X75604368Y10553687D01*
X75604489Y10693400D01*
X78445107Y10693400D01*
X78558146Y10125115D01*
X78880053Y9643346D01*
X78923977Y9613997D01*
X78749502Y9541727D01*
X78570873Y9363099D01*
X78474200Y9129710D01*
X78474200Y8439150D01*
X78632950Y8280400D01*
X79832200Y8280400D01*
X79832200Y8300400D01*
X80086200Y8300400D01*
X80086200Y8280400D01*
X81285450Y8280400D01*
X81444200Y8439150D01*
X81444200Y9129710D01*
X81347527Y9363099D01*
X81168898Y9541727D01*
X80994423Y9613997D01*
X81038347Y9643346D01*
X81360254Y10125115D01*
X81473293Y10693400D01*
X81360254Y11261685D01*
X81038347Y11743454D01*
X80556578Y12065361D01*
X79988293Y12178400D01*
X79930107Y12178400D01*
X79361822Y12065361D01*
X78880053Y11743454D01*
X78558146Y11261685D01*
X78445107Y10693400D01*
X75604489Y10693400D01*
X75604831Y11084783D01*
X75402018Y11575629D01*
X75026804Y11951498D01*
X74536313Y12155168D01*
X74005217Y12155631D01*
X73514371Y11952818D01*
X73138502Y11577604D01*
X72934832Y11087113D01*
X72934369Y10556017D01*
X70981647Y10556017D01*
X70982031Y10995883D01*
X70779218Y11486729D01*
X70404004Y11862598D01*
X69913513Y12066268D01*
X69382417Y12066731D01*
X68891571Y11863918D01*
X68515702Y11488704D01*
X68312032Y10998213D01*
X68311569Y10467117D01*
X65980611Y10467117D01*
X65988040Y10503800D01*
X65988040Y12203800D01*
X65943762Y12439117D01*
X65804690Y12655241D01*
X65592490Y12800231D01*
X65525059Y12813886D01*
X65569747Y12843746D01*
X65891654Y13325515D01*
X66004693Y13893800D01*
X65891654Y14462085D01*
X65569747Y14943854D01*
X65087978Y15265761D01*
X64519693Y15378800D01*
X64461507Y15378800D01*
X63893222Y15265761D01*
X63411453Y14943854D01*
X63089546Y14462085D01*
X62976507Y13893800D01*
X41710Y13893800D01*
X53736Y17826013D01*
X3936852Y17826013D01*
X4154857Y17298400D01*
X4558177Y16894376D01*
X4694054Y16837955D01*
X4357402Y16613011D01*
X4046333Y16147464D01*
X3937100Y15598313D01*
X3937100Y15542087D01*
X4046333Y14992936D01*
X4357402Y14527389D01*
X4822949Y14216320D01*
X5372100Y14107087D01*
X5921251Y14216320D01*
X6386798Y14527389D01*
X6697867Y14992936D01*
X6807100Y15542087D01*
X6807100Y15598313D01*
X6697867Y16147464D01*
X6386798Y16613011D01*
X6374842Y16621000D01*
X45977560Y16621000D01*
X45977560Y14621000D01*
X46021838Y14385683D01*
X46160910Y14169559D01*
X46373110Y14024569D01*
X46625000Y13973560D01*
X48625000Y13973560D01*
X48860317Y14017838D01*
X49076441Y14156910D01*
X49221431Y14369110D01*
X49272440Y14621000D01*
X49272440Y15401969D01*
X68442973Y15401969D01*
X68668936Y14932637D01*
X69057304Y14585503D01*
X69402371Y14442584D01*
X69608700Y14565926D01*
X69608700Y15608300D01*
X69862700Y15608300D01*
X69862700Y14565926D01*
X70069029Y14442584D01*
X70414096Y14585503D01*
X70802464Y14932637D01*
X70942824Y15224169D01*
X73065773Y15224169D01*
X73291736Y14754837D01*
X73680104Y14407703D01*
X74025171Y14264784D01*
X74231500Y14388126D01*
X74231500Y15430500D01*
X74485500Y15430500D01*
X74485500Y14388126D01*
X74691829Y14264784D01*
X75036896Y14407703D01*
X75425264Y14754837D01*
X75651227Y15224169D01*
X75528706Y15430500D01*
X74485500Y15430500D01*
X74231500Y15430500D01*
X73188294Y15430500D01*
X73065773Y15224169D01*
X70942824Y15224169D01*
X71028427Y15401969D01*
X70905906Y15608300D01*
X69862700Y15608300D01*
X69608700Y15608300D01*
X68565494Y15608300D01*
X68442973Y15401969D01*
X49272440Y15401969D01*
X49272440Y16068631D01*
X68442973Y16068631D01*
X68565494Y15862300D01*
X69608700Y15862300D01*
X69608700Y16904674D01*
X69862700Y16904674D01*
X69862700Y15862300D01*
X70905906Y15862300D01*
X70922847Y15890831D01*
X73065773Y15890831D01*
X73188294Y15684500D01*
X74231500Y15684500D01*
X74231500Y16726874D01*
X74485500Y16726874D01*
X74485500Y15684500D01*
X75528706Y15684500D01*
X75651227Y15890831D01*
X75425264Y16360163D01*
X75036896Y16707297D01*
X74691829Y16850216D01*
X74485500Y16726874D01*
X74231500Y16726874D01*
X74025171Y16850216D01*
X73680104Y16707297D01*
X73291736Y16360163D01*
X73065773Y15890831D01*
X70922847Y15890831D01*
X71028427Y16068631D01*
X70802464Y16537963D01*
X70414096Y16885097D01*
X70069029Y17028016D01*
X69862700Y16904674D01*
X69608700Y16904674D01*
X69402371Y17028016D01*
X69057304Y16885097D01*
X68668936Y16537963D01*
X68442973Y16068631D01*
X49272440Y16068631D01*
X49272440Y16621000D01*
X49228162Y16856317D01*
X49089090Y17072441D01*
X48876890Y17217431D01*
X48625000Y17268440D01*
X46625000Y17268440D01*
X46389683Y17224162D01*
X46173559Y17085090D01*
X46028569Y16872890D01*
X45977560Y16621000D01*
X6374842Y16621000D01*
X6050390Y16837792D01*
X6183900Y16892957D01*
X6587924Y17296277D01*
X6806850Y17823509D01*
X6807348Y18394387D01*
X6589343Y18922000D01*
X6186023Y19326024D01*
X5658791Y19544950D01*
X5087913Y19545448D01*
X4560300Y19327443D01*
X4156276Y18924123D01*
X3937350Y18396891D01*
X3936852Y17826013D01*
X53736Y17826013D01*
X64935Y21488400D01*
X8708150Y21488400D01*
X8847831Y20786176D01*
X9245609Y20190859D01*
X9840926Y19793081D01*
X10543150Y19653400D01*
X10615050Y19653400D01*
X11317274Y19793081D01*
X11912591Y20190859D01*
X12310369Y20786176D01*
X12450050Y21488400D01*
X12310369Y22190624D01*
X11977766Y22688400D01*
X23971660Y22688400D01*
X23971660Y20288400D01*
X24015938Y20053083D01*
X24155010Y19836959D01*
X24367210Y19691969D01*
X24619100Y19640960D01*
X27019100Y19640960D01*
X27254417Y19685238D01*
X27470541Y19824310D01*
X27615531Y20036510D01*
X27666540Y20288400D01*
X27666540Y21577300D01*
X28888450Y21577300D01*
X29028131Y20875076D01*
X29425909Y20279759D01*
X30021226Y19881981D01*
X30723450Y19742300D01*
X30795350Y19742300D01*
X31497574Y19881981D01*
X32092891Y20279759D01*
X32490669Y20875076D01*
X32630350Y21577300D01*
X32490669Y22279524D01*
X32158066Y22777300D01*
X44151960Y22777300D01*
X44151960Y20377300D01*
X44196238Y20141983D01*
X44335310Y19925859D01*
X44547510Y19780869D01*
X44799400Y19729860D01*
X47199400Y19729860D01*
X47434717Y19774138D01*
X47650841Y19913210D01*
X47795831Y20125410D01*
X47846840Y20377300D01*
X47846840Y21186712D01*
X48691525Y21186712D01*
X48932698Y20603028D01*
X49378879Y20156068D01*
X49962141Y19913876D01*
X50593688Y19913325D01*
X51177372Y20154498D01*
X51549557Y20526035D01*
X51918879Y20156068D01*
X52502141Y19913876D01*
X53133688Y19913325D01*
X53717372Y20154498D01*
X54089557Y20526035D01*
X54458879Y20156068D01*
X55042141Y19913876D01*
X55673688Y19913325D01*
X56257372Y20154498D01*
X56629557Y20526035D01*
X56998879Y20156068D01*
X57582141Y19913876D01*
X58213688Y19913325D01*
X58797372Y20154498D01*
X58842511Y20199559D01*
X62920886Y20199559D01*
X63160411Y19693466D01*
X63575377Y19317559D01*
X63963761Y19156696D01*
X64185800Y19278685D01*
X64185800Y20421600D01*
X64439800Y20421600D01*
X64439800Y19278685D01*
X64661839Y19156696D01*
X65050223Y19317559D01*
X65465189Y19693466D01*
X65704714Y20199559D01*
X65690954Y20224750D01*
X78474200Y20224750D01*
X78474200Y19534190D01*
X78570873Y19300801D01*
X78749502Y19122173D01*
X78982891Y19025500D01*
X79673450Y19025500D01*
X79832200Y19184250D01*
X79832200Y20383500D01*
X80086200Y20383500D01*
X80086200Y19184250D01*
X80244950Y19025500D01*
X80935509Y19025500D01*
X81168898Y19122173D01*
X81347527Y19300801D01*
X81444200Y19534190D01*
X81444200Y20224750D01*
X81285450Y20383500D01*
X80086200Y20383500D01*
X79832200Y20383500D01*
X78632950Y20383500D01*
X78474200Y20224750D01*
X65690954Y20224750D01*
X65583429Y20421600D01*
X64439800Y20421600D01*
X64185800Y20421600D01*
X63042171Y20421600D01*
X62920886Y20199559D01*
X58842511Y20199559D01*
X59244332Y20600679D01*
X59486524Y21183941D01*
X59487075Y21815488D01*
X59245902Y22399172D01*
X58841368Y22804413D01*
X62877552Y22804413D01*
X63095557Y22276800D01*
X63498877Y21872776D01*
X63649368Y21810287D01*
X63575377Y21779641D01*
X63160411Y21403734D01*
X62920886Y20897641D01*
X63042171Y20675600D01*
X64185800Y20675600D01*
X64185800Y20695600D01*
X64439800Y20695600D01*
X64439800Y20675600D01*
X65583429Y20675600D01*
X65704714Y20897641D01*
X65465189Y21403734D01*
X65050223Y21779641D01*
X64976515Y21810170D01*
X65124600Y21871357D01*
X65528624Y22274677D01*
X65747550Y22801909D01*
X65747802Y23090917D01*
X68400469Y23090917D01*
X68603282Y22600071D01*
X68978496Y22224202D01*
X69468987Y22020532D01*
X70000083Y22020069D01*
X70490929Y22222882D01*
X70866798Y22598096D01*
X70997606Y22913117D01*
X73023269Y22913117D01*
X73226082Y22422271D01*
X73601296Y22046402D01*
X74091787Y21842732D01*
X74622883Y21842269D01*
X75113729Y22045082D01*
X75489598Y22420296D01*
X75693268Y22910787D01*
X75693389Y23050500D01*
X78445107Y23050500D01*
X78558146Y22482215D01*
X78880053Y22000446D01*
X78923977Y21971097D01*
X78749502Y21898827D01*
X78570873Y21720199D01*
X78474200Y21486810D01*
X78474200Y20796250D01*
X78632950Y20637500D01*
X79832200Y20637500D01*
X79832200Y20657500D01*
X80086200Y20657500D01*
X80086200Y20637500D01*
X81285450Y20637500D01*
X81444200Y20796250D01*
X81444200Y21486810D01*
X81347527Y21720199D01*
X81168898Y21898827D01*
X80994423Y21971097D01*
X81038347Y22000446D01*
X81360254Y22482215D01*
X81473293Y23050500D01*
X81360254Y23618785D01*
X81038347Y24100554D01*
X80556578Y24422461D01*
X79988293Y24535500D01*
X79930107Y24535500D01*
X79361822Y24422461D01*
X78880053Y24100554D01*
X78558146Y23618785D01*
X78445107Y23050500D01*
X75693389Y23050500D01*
X75693731Y23441883D01*
X75490918Y23932729D01*
X75115704Y24308598D01*
X74625213Y24512268D01*
X74094117Y24512731D01*
X73603271Y24309918D01*
X73227402Y23934704D01*
X73023732Y23444213D01*
X73023269Y22913117D01*
X70997606Y22913117D01*
X71070468Y23088587D01*
X71070931Y23619683D01*
X70868118Y24110529D01*
X70492904Y24486398D01*
X70002413Y24690068D01*
X69471317Y24690531D01*
X68980471Y24487718D01*
X68604602Y24112504D01*
X68400932Y23622013D01*
X68400469Y23090917D01*
X65747802Y23090917D01*
X65748048Y23372787D01*
X65530043Y23900400D01*
X65126723Y24304424D01*
X64599491Y24523350D01*
X64028613Y24523848D01*
X63501000Y24305843D01*
X63096976Y23902523D01*
X62878050Y23375291D01*
X62877552Y22804413D01*
X58841368Y22804413D01*
X58799721Y22846132D01*
X58216459Y23088324D01*
X57584912Y23088875D01*
X57001228Y22847702D01*
X56629043Y22476165D01*
X56259721Y22846132D01*
X55676459Y23088324D01*
X55044912Y23088875D01*
X54461228Y22847702D01*
X54089043Y22476165D01*
X53719721Y22846132D01*
X53136459Y23088324D01*
X52504912Y23088875D01*
X51921228Y22847702D01*
X51549043Y22476165D01*
X51179721Y22846132D01*
X50596459Y23088324D01*
X49964912Y23088875D01*
X49381228Y22847702D01*
X48934268Y22401521D01*
X48692076Y21818259D01*
X48691525Y21186712D01*
X47846840Y21186712D01*
X47846840Y22777300D01*
X47802562Y23012617D01*
X47663490Y23228741D01*
X47451290Y23373731D01*
X47199400Y23424740D01*
X44799400Y23424740D01*
X44564083Y23380462D01*
X44347959Y23241390D01*
X44202969Y23029190D01*
X44151960Y22777300D01*
X32158066Y22777300D01*
X32092891Y22874841D01*
X31497574Y23272619D01*
X30795350Y23412300D01*
X30723450Y23412300D01*
X30021226Y23272619D01*
X29425909Y22874841D01*
X29028131Y22279524D01*
X28888450Y21577300D01*
X27666540Y21577300D01*
X27666540Y22688400D01*
X27622262Y22923717D01*
X27483190Y23139841D01*
X27270990Y23284831D01*
X27019100Y23335840D01*
X24619100Y23335840D01*
X24383783Y23291562D01*
X24167659Y23152490D01*
X24022669Y22940290D01*
X23971660Y22688400D01*
X11977766Y22688400D01*
X11912591Y22785941D01*
X11317274Y23183719D01*
X10615050Y23323400D01*
X10543150Y23323400D01*
X9840926Y23183719D01*
X9245609Y22785941D01*
X8847831Y22190624D01*
X8708150Y21488400D01*
X64935Y21488400D01*
X79835Y26360413D01*
X3847952Y26360413D01*
X4065957Y25832800D01*
X4469277Y25428776D01*
X4605154Y25372355D01*
X4268502Y25147411D01*
X3957433Y24681864D01*
X3848200Y24132713D01*
X3848200Y24076487D01*
X3957433Y23527336D01*
X4268502Y23061789D01*
X4734049Y22750720D01*
X5283200Y22641487D01*
X5832351Y22750720D01*
X6297898Y23061789D01*
X6608967Y23527336D01*
X6718200Y24076487D01*
X6718200Y24132713D01*
X6608967Y24681864D01*
X6297898Y25147411D01*
X5961490Y25372192D01*
X6095000Y25427357D01*
X6499024Y25830677D01*
X6717950Y26357909D01*
X6718448Y26928787D01*
X6632512Y27136769D01*
X68531873Y27136769D01*
X68757836Y26667437D01*
X69146204Y26320303D01*
X69491271Y26177384D01*
X69697600Y26300726D01*
X69697600Y27343100D01*
X69951600Y27343100D01*
X69951600Y26300726D01*
X70157929Y26177384D01*
X70502996Y26320303D01*
X70891364Y26667437D01*
X71117327Y27136769D01*
X71064538Y27225669D01*
X73243573Y27225669D01*
X73469536Y26756337D01*
X73857904Y26409203D01*
X74202971Y26266284D01*
X74409300Y26389626D01*
X74409300Y27432000D01*
X74663300Y27432000D01*
X74663300Y26389626D01*
X74869629Y26266284D01*
X75214696Y26409203D01*
X75603064Y26756337D01*
X75829027Y27225669D01*
X75706506Y27432000D01*
X74663300Y27432000D01*
X74409300Y27432000D01*
X73366094Y27432000D01*
X73243573Y27225669D01*
X71064538Y27225669D01*
X70994806Y27343100D01*
X69951600Y27343100D01*
X69697600Y27343100D01*
X68654394Y27343100D01*
X68531873Y27136769D01*
X6632512Y27136769D01*
X6500443Y27456400D01*
X6097123Y27860424D01*
X5753905Y28002941D01*
X49340746Y28002941D01*
X49433588Y27741012D01*
X50026101Y27522425D01*
X50657161Y27547222D01*
X51125012Y27741012D01*
X51217854Y28002941D01*
X51880746Y28002941D01*
X51973588Y27741012D01*
X52566101Y27522425D01*
X53197161Y27547222D01*
X53665012Y27741012D01*
X53757854Y28002941D01*
X54420746Y28002941D01*
X54513588Y27741012D01*
X55106101Y27522425D01*
X55737161Y27547222D01*
X56205012Y27741012D01*
X56297854Y28002941D01*
X55359300Y28941495D01*
X54420746Y28002941D01*
X53757854Y28002941D01*
X52819300Y28941495D01*
X51880746Y28002941D01*
X51217854Y28002941D01*
X50279300Y28941495D01*
X49340746Y28002941D01*
X5753905Y28002941D01*
X5569891Y28079350D01*
X4999013Y28079848D01*
X4471400Y27861843D01*
X4067376Y27458523D01*
X3848450Y26931291D01*
X3847952Y26360413D01*
X79835Y26360413D01*
X91035Y30022800D01*
X19071350Y30022800D01*
X19211031Y29320576D01*
X19608809Y28725259D01*
X20204126Y28327481D01*
X20906350Y28187800D01*
X20978250Y28187800D01*
X21680474Y28327481D01*
X22275791Y28725259D01*
X22673569Y29320576D01*
X22813250Y30022800D01*
X22673569Y30725024D01*
X22340966Y31222800D01*
X34334860Y31222800D01*
X34334860Y28822800D01*
X34379138Y28587483D01*
X34518210Y28371359D01*
X34730410Y28226369D01*
X34982300Y28175360D01*
X37382300Y28175360D01*
X37617617Y28219638D01*
X37833741Y28358710D01*
X37978731Y28570910D01*
X38029740Y28822800D01*
X38029740Y29374299D01*
X48680625Y29374299D01*
X48705422Y28743239D01*
X48899212Y28275388D01*
X49161141Y28182546D01*
X50099695Y29121100D01*
X50458905Y29121100D01*
X51397459Y28182546D01*
X51549300Y28236367D01*
X51701141Y28182546D01*
X52639695Y29121100D01*
X52998905Y29121100D01*
X53937459Y28182546D01*
X54089300Y28236367D01*
X54241141Y28182546D01*
X55179695Y29121100D01*
X55538905Y29121100D01*
X56477459Y28182546D01*
X56562883Y28212825D01*
X56998879Y27776068D01*
X57582141Y27533876D01*
X58213688Y27533325D01*
X58797372Y27774498D01*
X58826355Y27803431D01*
X68531873Y27803431D01*
X68654394Y27597100D01*
X69697600Y27597100D01*
X69697600Y28639474D01*
X69951600Y28639474D01*
X69951600Y27597100D01*
X70994806Y27597100D01*
X71117327Y27803431D01*
X71074526Y27892331D01*
X73243573Y27892331D01*
X73366094Y27686000D01*
X74409300Y27686000D01*
X74409300Y28728374D01*
X74663300Y28728374D01*
X74663300Y27686000D01*
X75706506Y27686000D01*
X75829027Y27892331D01*
X75603064Y28361663D01*
X75214696Y28708797D01*
X74869629Y28851716D01*
X74663300Y28728374D01*
X74409300Y28728374D01*
X74202971Y28851716D01*
X73857904Y28708797D01*
X73469536Y28361663D01*
X73243573Y27892331D01*
X71074526Y27892331D01*
X70891364Y28272763D01*
X70502996Y28619897D01*
X70157929Y28762816D01*
X69951600Y28639474D01*
X69697600Y28639474D01*
X69491271Y28762816D01*
X69146204Y28619897D01*
X68757836Y28272763D01*
X68531873Y27803431D01*
X58826355Y27803431D01*
X59244332Y28220679D01*
X59486524Y28803941D01*
X59487075Y29435488D01*
X59245902Y30019172D01*
X58799721Y30466132D01*
X58216459Y30708324D01*
X57584912Y30708875D01*
X57001228Y30467702D01*
X56562332Y30029571D01*
X56477459Y30059654D01*
X55538905Y29121100D01*
X55179695Y29121100D01*
X54241141Y30059654D01*
X54089300Y30005833D01*
X53937459Y30059654D01*
X52998905Y29121100D01*
X52639695Y29121100D01*
X51701141Y30059654D01*
X51549300Y30005833D01*
X51397459Y30059654D01*
X50458905Y29121100D01*
X50099695Y29121100D01*
X49161141Y30059654D01*
X48899212Y29966812D01*
X48680625Y29374299D01*
X38029740Y29374299D01*
X38029740Y30239259D01*
X49340746Y30239259D01*
X50279300Y29300705D01*
X51217854Y30239259D01*
X51880746Y30239259D01*
X52819300Y29300705D01*
X53757854Y30239259D01*
X54420746Y30239259D01*
X55359300Y29300705D01*
X56297854Y30239259D01*
X56205012Y30501188D01*
X55612499Y30719775D01*
X54981439Y30694978D01*
X54513588Y30501188D01*
X54420746Y30239259D01*
X53757854Y30239259D01*
X53665012Y30501188D01*
X53072499Y30719775D01*
X52441439Y30694978D01*
X51973588Y30501188D01*
X51880746Y30239259D01*
X51217854Y30239259D01*
X51125012Y30501188D01*
X50532499Y30719775D01*
X49901439Y30694978D01*
X49433588Y30501188D01*
X49340746Y30239259D01*
X38029740Y30239259D01*
X38029740Y31222800D01*
X37985462Y31458117D01*
X37846390Y31674241D01*
X37634190Y31819231D01*
X37382300Y31870240D01*
X34982300Y31870240D01*
X34746983Y31825962D01*
X34530859Y31686890D01*
X34385869Y31474690D01*
X34334860Y31222800D01*
X22340966Y31222800D01*
X22275791Y31320341D01*
X21680474Y31718119D01*
X20978250Y31857800D01*
X20906350Y31857800D01*
X20204126Y31718119D01*
X19608809Y31320341D01*
X19211031Y30725024D01*
X19071350Y30022800D01*
X91035Y30022800D01*
X102722Y33844208D01*
X3524214Y33844208D01*
X3770517Y33319742D01*
X4198776Y32929455D01*
X4608810Y32759624D01*
X4838700Y32880945D01*
X4838700Y34074100D01*
X3644881Y34074100D01*
X3524214Y33844208D01*
X102722Y33844208D01*
X104904Y34557992D01*
X3524214Y34557992D01*
X3644881Y34328100D01*
X4838700Y34328100D01*
X4838700Y35521255D01*
X5092700Y35521255D01*
X5092700Y34328100D01*
X5112700Y34328100D01*
X5112700Y34074100D01*
X5092700Y34074100D01*
X5092700Y32880945D01*
X5322590Y32759624D01*
X5732624Y32929455D01*
X6035637Y33205601D01*
X6052538Y33115783D01*
X6191610Y32899659D01*
X6403810Y32754669D01*
X6655700Y32703660D01*
X8355700Y32703660D01*
X8591017Y32747938D01*
X8807141Y32887010D01*
X8952131Y33099210D01*
X9003140Y33351100D01*
X9003140Y34894813D01*
X62966452Y34894813D01*
X63184457Y34367200D01*
X63587777Y33963176D01*
X63723654Y33906755D01*
X63387002Y33681811D01*
X63075933Y33216264D01*
X62966700Y32667113D01*
X62966700Y32610887D01*
X63075933Y32061736D01*
X63387002Y31596189D01*
X63852549Y31285120D01*
X64401700Y31175887D01*
X64950851Y31285120D01*
X65416398Y31596189D01*
X65727467Y32061736D01*
X65760190Y32226250D01*
X78474200Y32226250D01*
X78474200Y31535690D01*
X78570873Y31302301D01*
X78749502Y31123673D01*
X78982891Y31027000D01*
X79673450Y31027000D01*
X79832200Y31185750D01*
X79832200Y32385000D01*
X80086200Y32385000D01*
X80086200Y31185750D01*
X80244950Y31027000D01*
X80935509Y31027000D01*
X81168898Y31123673D01*
X81347527Y31302301D01*
X81444200Y31535690D01*
X81444200Y32226250D01*
X81285450Y32385000D01*
X80086200Y32385000D01*
X79832200Y32385000D01*
X78632950Y32385000D01*
X78474200Y32226250D01*
X65760190Y32226250D01*
X65836700Y32610887D01*
X65836700Y32667113D01*
X65727467Y33216264D01*
X65416398Y33681811D01*
X65079990Y33906592D01*
X65213500Y33961757D01*
X65617524Y34365077D01*
X65808798Y34825717D01*
X68489369Y34825717D01*
X68692182Y34334871D01*
X69067396Y33959002D01*
X69557887Y33755332D01*
X70088983Y33754869D01*
X70579829Y33957682D01*
X70955698Y34332896D01*
X71159368Y34823387D01*
X71159447Y34914617D01*
X73201069Y34914617D01*
X73403882Y34423771D01*
X73779096Y34047902D01*
X74269587Y33844232D01*
X74800683Y33843769D01*
X75291529Y34046582D01*
X75667398Y34421796D01*
X75871068Y34912287D01*
X75871189Y35052000D01*
X78445107Y35052000D01*
X78558146Y34483715D01*
X78880053Y34001946D01*
X78923977Y33972597D01*
X78749502Y33900327D01*
X78570873Y33721699D01*
X78474200Y33488310D01*
X78474200Y32797750D01*
X78632950Y32639000D01*
X79832200Y32639000D01*
X79832200Y32659000D01*
X80086200Y32659000D01*
X80086200Y32639000D01*
X81285450Y32639000D01*
X81444200Y32797750D01*
X81444200Y33488310D01*
X81347527Y33721699D01*
X81168898Y33900327D01*
X80994423Y33972597D01*
X81038347Y34001946D01*
X81360254Y34483715D01*
X81473293Y35052000D01*
X81360254Y35620285D01*
X81038347Y36102054D01*
X80556578Y36423961D01*
X79988293Y36537000D01*
X79930107Y36537000D01*
X79361822Y36423961D01*
X78880053Y36102054D01*
X78558146Y35620285D01*
X78445107Y35052000D01*
X75871189Y35052000D01*
X75871531Y35443383D01*
X75668718Y35934229D01*
X75293504Y36310098D01*
X74803013Y36513768D01*
X74271917Y36514231D01*
X73781071Y36311418D01*
X73405202Y35936204D01*
X73201532Y35445713D01*
X73201069Y34914617D01*
X71159447Y34914617D01*
X71159831Y35354483D01*
X70957018Y35845329D01*
X70581804Y36221198D01*
X70091313Y36424868D01*
X69560217Y36425331D01*
X69069371Y36222518D01*
X68693502Y35847304D01*
X68489832Y35356813D01*
X68489369Y34825717D01*
X65808798Y34825717D01*
X65836450Y34892309D01*
X65836948Y35463187D01*
X65618943Y35990800D01*
X65215623Y36394824D01*
X64688391Y36613750D01*
X64117513Y36614248D01*
X63589900Y36396243D01*
X63185876Y35992923D01*
X62966950Y35465691D01*
X62966452Y34894813D01*
X9003140Y34894813D01*
X9003140Y35051100D01*
X8958862Y35286417D01*
X8819790Y35502541D01*
X8607590Y35647531D01*
X8355700Y35698540D01*
X6655700Y35698540D01*
X6420383Y35654262D01*
X6204259Y35515190D01*
X6059269Y35302990D01*
X6037399Y35194993D01*
X5732624Y35472745D01*
X5322590Y35642576D01*
X5092700Y35521255D01*
X4838700Y35521255D01*
X4608810Y35642576D01*
X4198776Y35472745D01*
X3770517Y35082458D01*
X3524214Y34557992D01*
X104904Y34557992D01*
X126839Y41730233D01*
X179450Y41782844D01*
X85471769Y41529375D01*
X85471769Y41529375D01*
G37*
X85471769Y41529375D02*
X85724223Y127000D01*
X78490Y127000D01*
X91Y283797D01*
X10391Y3652195D01*
X38750205Y3652195D01*
X38982758Y3090742D01*
X39473624Y2569508D01*
X40126593Y2275797D01*
X40411400Y2392142D01*
X40411400Y3937000D01*
X40665400Y3937000D01*
X40665400Y2392142D01*
X40950207Y2275797D01*
X41603176Y2569508D01*
X42094042Y3090742D01*
X42326595Y3652195D01*
X42209832Y3937000D01*
X40665400Y3937000D01*
X40411400Y3937000D01*
X38866968Y3937000D01*
X38750205Y3652195D01*
X10391Y3652195D01*
X12909Y4475805D01*
X38750205Y4475805D01*
X38866968Y4191000D01*
X40411400Y4191000D01*
X40411400Y5735858D01*
X40665400Y5735858D01*
X40665400Y4191000D01*
X42209832Y4191000D01*
X42326595Y4475805D01*
X42094042Y5037258D01*
X41880511Y5264000D01*
X53930960Y5264000D01*
X53930960Y2864000D01*
X53975238Y2628683D01*
X54114310Y2412559D01*
X54326510Y2267569D01*
X54578400Y2216560D01*
X56978400Y2216560D01*
X57213717Y2260838D01*
X57429841Y2399910D01*
X57574831Y2612110D01*
X57590574Y2689855D01*
X60995461Y2689855D01*
X61069595Y2443736D01*
X61606823Y2250635D01*
X62177054Y2277822D01*
X62577605Y2443736D01*
X62651739Y2689855D01*
X62563426Y2778169D01*
X68354073Y2778169D01*
X68580036Y2308837D01*
X68968404Y1961703D01*
X69313471Y1818784D01*
X69519800Y1942126D01*
X69519800Y2984500D01*
X69773800Y2984500D01*
X69773800Y1942126D01*
X69980129Y1818784D01*
X70325196Y1961703D01*
X70713564Y2308837D01*
X70939527Y2778169D01*
X70886738Y2867069D01*
X72976873Y2867069D01*
X73202836Y2397737D01*
X73591204Y2050603D01*
X73936271Y1907684D01*
X74142600Y2031026D01*
X74142600Y3073400D01*
X74396600Y3073400D01*
X74396600Y2031026D01*
X74602929Y1907684D01*
X74947996Y2050603D01*
X75336364Y2397737D01*
X75562327Y2867069D01*
X75439806Y3073400D01*
X74396600Y3073400D01*
X74142600Y3073400D01*
X73099394Y3073400D01*
X72976873Y2867069D01*
X70886738Y2867069D01*
X70817006Y2984500D01*
X69773800Y2984500D01*
X69519800Y2984500D01*
X68476594Y2984500D01*
X68354073Y2778169D01*
X62563426Y2778169D01*
X61823600Y3517995D01*
X60995461Y2689855D01*
X57590574Y2689855D01*
X57625840Y2864000D01*
X57625840Y3914377D01*
X60376635Y3914377D01*
X60403822Y3344146D01*
X60569736Y2943595D01*
X60815855Y2869461D01*
X61643995Y3697600D01*
X62003205Y3697600D01*
X62831345Y2869461D01*
X63077464Y2943595D01*
X63257628Y3444831D01*
X68354073Y3444831D01*
X68476594Y3238500D01*
X69519800Y3238500D01*
X69519800Y4280874D01*
X69773800Y4280874D01*
X69773800Y3238500D01*
X70817006Y3238500D01*
X70939527Y3444831D01*
X70896726Y3533731D01*
X72976873Y3533731D01*
X73099394Y3327400D01*
X74142600Y3327400D01*
X74142600Y4369774D01*
X74396600Y4369774D01*
X74396600Y3327400D01*
X75439806Y3327400D01*
X75562327Y3533731D01*
X75336364Y4003063D01*
X74947996Y4350197D01*
X74602929Y4493116D01*
X74396600Y4369774D01*
X74142600Y4369774D01*
X73936271Y4493116D01*
X73591204Y4350197D01*
X73202836Y4003063D01*
X72976873Y3533731D01*
X70896726Y3533731D01*
X70713564Y3914163D01*
X70325196Y4261297D01*
X69980129Y4404216D01*
X69773800Y4280874D01*
X69519800Y4280874D01*
X69313471Y4404216D01*
X68968404Y4261297D01*
X68580036Y3914163D01*
X68354073Y3444831D01*
X63257628Y3444831D01*
X63270565Y3480823D01*
X63243378Y4051054D01*
X63077464Y4451605D01*
X62831345Y4525739D01*
X62003205Y3697600D01*
X61643995Y3697600D01*
X60815855Y4525739D01*
X60569736Y4451605D01*
X60376635Y3914377D01*
X57625840Y3914377D01*
X57625840Y5264000D01*
X57581562Y5499317D01*
X57442490Y5715441D01*
X57230290Y5860431D01*
X56978400Y5911440D01*
X54578400Y5911440D01*
X54343083Y5867162D01*
X54126959Y5728090D01*
X53981969Y5515890D01*
X53930960Y5264000D01*
X41880511Y5264000D01*
X41603176Y5558492D01*
X40950207Y5852203D01*
X40665400Y5735858D01*
X40411400Y5735858D01*
X40126593Y5852203D01*
X39473624Y5558492D01*
X38982758Y5037258D01*
X38750205Y4475805D01*
X12909Y4475805D01*
X20734Y7034510D01*
X16021024Y7034510D01*
X16190855Y6624476D01*
X16581142Y6196217D01*
X17105608Y5949914D01*
X17335500Y6070581D01*
X17335500Y7264400D01*
X17589500Y7264400D01*
X17589500Y6070581D01*
X17819392Y5949914D01*
X18343858Y6196217D01*
X18734145Y6624476D01*
X18888688Y6997600D01*
X60376160Y6997600D01*
X60376160Y5397600D01*
X60420438Y5162283D01*
X60559510Y4946159D01*
X60771710Y4801169D01*
X61009801Y4752954D01*
X60995461Y4705345D01*
X61823600Y3877205D01*
X62651739Y4705345D01*
X62637455Y4752767D01*
X62858917Y4794438D01*
X63075041Y4933510D01*
X63220031Y5145710D01*
X63271040Y5397600D01*
X63271040Y6997600D01*
X63226762Y7232917D01*
X63087690Y7449041D01*
X62875490Y7594031D01*
X62623600Y7645040D01*
X61023600Y7645040D01*
X60788283Y7600762D01*
X60572159Y7461690D01*
X60427169Y7249490D01*
X60376160Y6997600D01*
X18888688Y6997600D01*
X18903976Y7034510D01*
X18782655Y7264400D01*
X17589500Y7264400D01*
X17335500Y7264400D01*
X16142345Y7264400D01*
X16021024Y7034510D01*
X20734Y7034510D01*
X34157Y11423650D01*
X5081700Y11423650D01*
X5081700Y10683090D01*
X5178373Y10449701D01*
X5357002Y10271073D01*
X5590391Y10174400D01*
X6330950Y10174400D01*
X6489700Y10333150D01*
X6489700Y11582400D01*
X5240450Y11582400D01*
X5081700Y11423650D01*
X34157Y11423650D01*
X38169Y12735710D01*
X5081700Y12735710D01*
X5081700Y11995150D01*
X5240450Y11836400D01*
X6489700Y11836400D01*
X6489700Y13085650D01*
X6743700Y13085650D01*
X6743700Y11836400D01*
X6763700Y11836400D01*
X6763700Y11582400D01*
X6743700Y11582400D01*
X6743700Y10333150D01*
X6902450Y10174400D01*
X7643009Y10174400D01*
X7876398Y10271073D01*
X8055027Y10449701D01*
X8110819Y10584394D01*
X8286057Y10408849D01*
X8850030Y10174667D01*
X9460691Y10174135D01*
X10025071Y10407332D01*
X10399793Y10781400D01*
X15965060Y10781400D01*
X15965060Y9081400D01*
X16009338Y8846083D01*
X16148410Y8629959D01*
X16360610Y8484969D01*
X16468607Y8463099D01*
X16190855Y8158324D01*
X16021024Y7748290D01*
X16142345Y7518400D01*
X17335500Y7518400D01*
X17335500Y7538400D01*
X17589500Y7538400D01*
X17589500Y7518400D01*
X18782655Y7518400D01*
X18903976Y7748290D01*
X18854539Y7867650D01*
X78474200Y7867650D01*
X78474200Y7177090D01*
X78570873Y6943701D01*
X78749502Y6765073D01*
X78982891Y6668400D01*
X79673450Y6668400D01*
X79832200Y6827150D01*
X79832200Y8026400D01*
X80086200Y8026400D01*
X80086200Y6827150D01*
X80244950Y6668400D01*
X80935509Y6668400D01*
X81168898Y6765073D01*
X81347527Y6943701D01*
X81444200Y7177090D01*
X81444200Y7867650D01*
X81285450Y8026400D01*
X80086200Y8026400D01*
X79832200Y8026400D01*
X78632950Y8026400D01*
X78474200Y7867650D01*
X18854539Y7867650D01*
X18734145Y8158324D01*
X18457999Y8461337D01*
X18547817Y8478238D01*
X18763941Y8617310D01*
X18908931Y8829510D01*
X18959940Y9081400D01*
X18959940Y9468468D01*
X46652073Y9468468D01*
X46750736Y9201613D01*
X47360461Y8975092D01*
X48010460Y8999144D01*
X48499264Y9201613D01*
X48597927Y9468468D01*
X47625000Y10441395D01*
X46652073Y9468468D01*
X18959940Y9468468D01*
X18959940Y10781400D01*
X18940345Y10885539D01*
X45979092Y10885539D01*
X46003144Y10235540D01*
X46205613Y9746736D01*
X46472468Y9648073D01*
X47445395Y10621000D01*
X47804605Y10621000D01*
X48777532Y9648073D01*
X49044387Y9746736D01*
X49270908Y10356461D01*
X49246856Y11006460D01*
X49044387Y11495264D01*
X48777532Y11593927D01*
X47804605Y10621000D01*
X47445395Y10621000D01*
X46472468Y11593927D01*
X46205613Y11495264D01*
X45979092Y10885539D01*
X18940345Y10885539D01*
X18915662Y11016717D01*
X18776590Y11232841D01*
X18564390Y11377831D01*
X18312500Y11428840D01*
X16612500Y11428840D01*
X16377183Y11384562D01*
X16161059Y11245490D01*
X16016069Y11033290D01*
X15965060Y10781400D01*
X10399793Y10781400D01*
X10457251Y10838757D01*
X10691433Y11402730D01*
X10691756Y11773532D01*
X46652073Y11773532D01*
X47625000Y10800605D01*
X48597927Y11773532D01*
X48499264Y12040387D01*
X47889539Y12266908D01*
X47239540Y12242856D01*
X46750736Y12040387D01*
X46652073Y11773532D01*
X10691756Y11773532D01*
X10691965Y12013391D01*
X10458768Y12577771D01*
X10027343Y13009951D01*
X9463370Y13244133D01*
X8852709Y13244665D01*
X8288329Y13011468D01*
X8110859Y12834308D01*
X8055027Y12969099D01*
X7876398Y13147727D01*
X7643009Y13244400D01*
X6902450Y13244400D01*
X6743700Y13085650D01*
X6489700Y13085650D01*
X6330950Y13244400D01*
X5590391Y13244400D01*
X5357002Y13147727D01*
X5178373Y12969099D01*
X5081700Y12735710D01*
X38169Y12735710D01*
X41710Y13893800D01*
X62976507Y13893800D01*
X63089546Y13325515D01*
X63411453Y12843746D01*
X63453052Y12815950D01*
X63405283Y12806962D01*
X63189159Y12667890D01*
X63044169Y12455690D01*
X62993160Y12203800D01*
X62993160Y10503800D01*
X63037438Y10268483D01*
X63176510Y10052359D01*
X63388710Y9907369D01*
X63640600Y9856360D01*
X65340600Y9856360D01*
X65575917Y9900638D01*
X65792041Y10039710D01*
X65937031Y10251910D01*
X65980611Y10467117D01*
X68311569Y10467117D01*
X68514382Y9976271D01*
X68889596Y9600402D01*
X69380087Y9396732D01*
X69911183Y9396269D01*
X70402029Y9599082D01*
X70777898Y9974296D01*
X70981568Y10464787D01*
X70981647Y10556017D01*
X72934369Y10556017D01*
X73137182Y10065171D01*
X73512396Y9689302D01*
X74002887Y9485632D01*
X74533983Y9485169D01*
X75024829Y9687982D01*
X75400698Y10063196D01*
X75604368Y10553687D01*
X75604489Y10693400D01*
X78445107Y10693400D01*
X78558146Y10125115D01*
X78880053Y9643346D01*
X78923977Y9613997D01*
X78749502Y9541727D01*
X78570873Y9363099D01*
X78474200Y9129710D01*
X78474200Y8439150D01*
X78632950Y8280400D01*
X79832200Y8280400D01*
X79832200Y8300400D01*
X80086200Y8300400D01*
X80086200Y8280400D01*
X81285450Y8280400D01*
X81444200Y8439150D01*
X81444200Y9129710D01*
X81347527Y9363099D01*
X81168898Y9541727D01*
X80994423Y9613997D01*
X81038347Y9643346D01*
X81360254Y10125115D01*
X81473293Y10693400D01*
X81360254Y11261685D01*
X81038347Y11743454D01*
X80556578Y12065361D01*
X79988293Y12178400D01*
X79930107Y12178400D01*
X79361822Y12065361D01*
X78880053Y11743454D01*
X78558146Y11261685D01*
X78445107Y10693400D01*
X75604489Y10693400D01*
X75604831Y11084783D01*
X75402018Y11575629D01*
X75026804Y11951498D01*
X74536313Y12155168D01*
X74005217Y12155631D01*
X73514371Y11952818D01*
X73138502Y11577604D01*
X72934832Y11087113D01*
X72934369Y10556017D01*
X70981647Y10556017D01*
X70982031Y10995883D01*
X70779218Y11486729D01*
X70404004Y11862598D01*
X69913513Y12066268D01*
X69382417Y12066731D01*
X68891571Y11863918D01*
X68515702Y11488704D01*
X68312032Y10998213D01*
X68311569Y10467117D01*
X65980611Y10467117D01*
X65988040Y10503800D01*
X65988040Y12203800D01*
X65943762Y12439117D01*
X65804690Y12655241D01*
X65592490Y12800231D01*
X65525059Y12813886D01*
X65569747Y12843746D01*
X65891654Y13325515D01*
X66004693Y13893800D01*
X65891654Y14462085D01*
X65569747Y14943854D01*
X65087978Y15265761D01*
X64519693Y15378800D01*
X64461507Y15378800D01*
X63893222Y15265761D01*
X63411453Y14943854D01*
X63089546Y14462085D01*
X62976507Y13893800D01*
X41710Y13893800D01*
X53736Y17826013D01*
X3936852Y17826013D01*
X4154857Y17298400D01*
X4558177Y16894376D01*
X4694054Y16837955D01*
X4357402Y16613011D01*
X4046333Y16147464D01*
X3937100Y15598313D01*
X3937100Y15542087D01*
X4046333Y14992936D01*
X4357402Y14527389D01*
X4822949Y14216320D01*
X5372100Y14107087D01*
X5921251Y14216320D01*
X6386798Y14527389D01*
X6697867Y14992936D01*
X6807100Y15542087D01*
X6807100Y15598313D01*
X6697867Y16147464D01*
X6386798Y16613011D01*
X6374842Y16621000D01*
X45977560Y16621000D01*
X45977560Y14621000D01*
X46021838Y14385683D01*
X46160910Y14169559D01*
X46373110Y14024569D01*
X46625000Y13973560D01*
X48625000Y13973560D01*
X48860317Y14017838D01*
X49076441Y14156910D01*
X49221431Y14369110D01*
X49272440Y14621000D01*
X49272440Y15401969D01*
X68442973Y15401969D01*
X68668936Y14932637D01*
X69057304Y14585503D01*
X69402371Y14442584D01*
X69608700Y14565926D01*
X69608700Y15608300D01*
X69862700Y15608300D01*
X69862700Y14565926D01*
X70069029Y14442584D01*
X70414096Y14585503D01*
X70802464Y14932637D01*
X70942824Y15224169D01*
X73065773Y15224169D01*
X73291736Y14754837D01*
X73680104Y14407703D01*
X74025171Y14264784D01*
X74231500Y14388126D01*
X74231500Y15430500D01*
X74485500Y15430500D01*
X74485500Y14388126D01*
X74691829Y14264784D01*
X75036896Y14407703D01*
X75425264Y14754837D01*
X75651227Y15224169D01*
X75528706Y15430500D01*
X74485500Y15430500D01*
X74231500Y15430500D01*
X73188294Y15430500D01*
X73065773Y15224169D01*
X70942824Y15224169D01*
X71028427Y15401969D01*
X70905906Y15608300D01*
X69862700Y15608300D01*
X69608700Y15608300D01*
X68565494Y15608300D01*
X68442973Y15401969D01*
X49272440Y15401969D01*
X49272440Y16068631D01*
X68442973Y16068631D01*
X68565494Y15862300D01*
X69608700Y15862300D01*
X69608700Y16904674D01*
X69862700Y16904674D01*
X69862700Y15862300D01*
X70905906Y15862300D01*
X70922847Y15890831D01*
X73065773Y15890831D01*
X73188294Y15684500D01*
X74231500Y15684500D01*
X74231500Y16726874D01*
X74485500Y16726874D01*
X74485500Y15684500D01*
X75528706Y15684500D01*
X75651227Y15890831D01*
X75425264Y16360163D01*
X75036896Y16707297D01*
X74691829Y16850216D01*
X74485500Y16726874D01*
X74231500Y16726874D01*
X74025171Y16850216D01*
X73680104Y16707297D01*
X73291736Y16360163D01*
X73065773Y15890831D01*
X70922847Y15890831D01*
X71028427Y16068631D01*
X70802464Y16537963D01*
X70414096Y16885097D01*
X70069029Y17028016D01*
X69862700Y16904674D01*
X69608700Y16904674D01*
X69402371Y17028016D01*
X69057304Y16885097D01*
X68668936Y16537963D01*
X68442973Y16068631D01*
X49272440Y16068631D01*
X49272440Y16621000D01*
X49228162Y16856317D01*
X49089090Y17072441D01*
X48876890Y17217431D01*
X48625000Y17268440D01*
X46625000Y17268440D01*
X46389683Y17224162D01*
X46173559Y17085090D01*
X46028569Y16872890D01*
X45977560Y16621000D01*
X6374842Y16621000D01*
X6050390Y16837792D01*
X6183900Y16892957D01*
X6587924Y17296277D01*
X6806850Y17823509D01*
X6807348Y18394387D01*
X6589343Y18922000D01*
X6186023Y19326024D01*
X5658791Y19544950D01*
X5087913Y19545448D01*
X4560300Y19327443D01*
X4156276Y18924123D01*
X3937350Y18396891D01*
X3936852Y17826013D01*
X53736Y17826013D01*
X64935Y21488400D01*
X8708150Y21488400D01*
X8847831Y20786176D01*
X9245609Y20190859D01*
X9840926Y19793081D01*
X10543150Y19653400D01*
X10615050Y19653400D01*
X11317274Y19793081D01*
X11912591Y20190859D01*
X12310369Y20786176D01*
X12450050Y21488400D01*
X12310369Y22190624D01*
X11977766Y22688400D01*
X23971660Y22688400D01*
X23971660Y20288400D01*
X24015938Y20053083D01*
X24155010Y19836959D01*
X24367210Y19691969D01*
X24619100Y19640960D01*
X27019100Y19640960D01*
X27254417Y19685238D01*
X27470541Y19824310D01*
X27615531Y20036510D01*
X27666540Y20288400D01*
X27666540Y21577300D01*
X28888450Y21577300D01*
X29028131Y20875076D01*
X29425909Y20279759D01*
X30021226Y19881981D01*
X30723450Y19742300D01*
X30795350Y19742300D01*
X31497574Y19881981D01*
X32092891Y20279759D01*
X32490669Y20875076D01*
X32630350Y21577300D01*
X32490669Y22279524D01*
X32158066Y22777300D01*
X44151960Y22777300D01*
X44151960Y20377300D01*
X44196238Y20141983D01*
X44335310Y19925859D01*
X44547510Y19780869D01*
X44799400Y19729860D01*
X47199400Y19729860D01*
X47434717Y19774138D01*
X47650841Y19913210D01*
X47795831Y20125410D01*
X47846840Y20377300D01*
X47846840Y21186712D01*
X48691525Y21186712D01*
X48932698Y20603028D01*
X49378879Y20156068D01*
X49962141Y19913876D01*
X50593688Y19913325D01*
X51177372Y20154498D01*
X51549557Y20526035D01*
X51918879Y20156068D01*
X52502141Y19913876D01*
X53133688Y19913325D01*
X53717372Y20154498D01*
X54089557Y20526035D01*
X54458879Y20156068D01*
X55042141Y19913876D01*
X55673688Y19913325D01*
X56257372Y20154498D01*
X56629557Y20526035D01*
X56998879Y20156068D01*
X57582141Y19913876D01*
X58213688Y19913325D01*
X58797372Y20154498D01*
X58842511Y20199559D01*
X62920886Y20199559D01*
X63160411Y19693466D01*
X63575377Y19317559D01*
X63963761Y19156696D01*
X64185800Y19278685D01*
X64185800Y20421600D01*
X64439800Y20421600D01*
X64439800Y19278685D01*
X64661839Y19156696D01*
X65050223Y19317559D01*
X65465189Y19693466D01*
X65704714Y20199559D01*
X65690954Y20224750D01*
X78474200Y20224750D01*
X78474200Y19534190D01*
X78570873Y19300801D01*
X78749502Y19122173D01*
X78982891Y19025500D01*
X79673450Y19025500D01*
X79832200Y19184250D01*
X79832200Y20383500D01*
X80086200Y20383500D01*
X80086200Y19184250D01*
X80244950Y19025500D01*
X80935509Y19025500D01*
X81168898Y19122173D01*
X81347527Y19300801D01*
X81444200Y19534190D01*
X81444200Y20224750D01*
X81285450Y20383500D01*
X80086200Y20383500D01*
X79832200Y20383500D01*
X78632950Y20383500D01*
X78474200Y20224750D01*
X65690954Y20224750D01*
X65583429Y20421600D01*
X64439800Y20421600D01*
X64185800Y20421600D01*
X63042171Y20421600D01*
X62920886Y20199559D01*
X58842511Y20199559D01*
X59244332Y20600679D01*
X59486524Y21183941D01*
X59487075Y21815488D01*
X59245902Y22399172D01*
X58841368Y22804413D01*
X62877552Y22804413D01*
X63095557Y22276800D01*
X63498877Y21872776D01*
X63649368Y21810287D01*
X63575377Y21779641D01*
X63160411Y21403734D01*
X62920886Y20897641D01*
X63042171Y20675600D01*
X64185800Y20675600D01*
X64185800Y20695600D01*
X64439800Y20695600D01*
X64439800Y20675600D01*
X65583429Y20675600D01*
X65704714Y20897641D01*
X65465189Y21403734D01*
X65050223Y21779641D01*
X64976515Y21810170D01*
X65124600Y21871357D01*
X65528624Y22274677D01*
X65747550Y22801909D01*
X65747802Y23090917D01*
X68400469Y23090917D01*
X68603282Y22600071D01*
X68978496Y22224202D01*
X69468987Y22020532D01*
X70000083Y22020069D01*
X70490929Y22222882D01*
X70866798Y22598096D01*
X70997606Y22913117D01*
X73023269Y22913117D01*
X73226082Y22422271D01*
X73601296Y22046402D01*
X74091787Y21842732D01*
X74622883Y21842269D01*
X75113729Y22045082D01*
X75489598Y22420296D01*
X75693268Y22910787D01*
X75693389Y23050500D01*
X78445107Y23050500D01*
X78558146Y22482215D01*
X78880053Y22000446D01*
X78923977Y21971097D01*
X78749502Y21898827D01*
X78570873Y21720199D01*
X78474200Y21486810D01*
X78474200Y20796250D01*
X78632950Y20637500D01*
X79832200Y20637500D01*
X79832200Y20657500D01*
X80086200Y20657500D01*
X80086200Y20637500D01*
X81285450Y20637500D01*
X81444200Y20796250D01*
X81444200Y21486810D01*
X81347527Y21720199D01*
X81168898Y21898827D01*
X80994423Y21971097D01*
X81038347Y22000446D01*
X81360254Y22482215D01*
X81473293Y23050500D01*
X81360254Y23618785D01*
X81038347Y24100554D01*
X80556578Y24422461D01*
X79988293Y24535500D01*
X79930107Y24535500D01*
X79361822Y24422461D01*
X78880053Y24100554D01*
X78558146Y23618785D01*
X78445107Y23050500D01*
X75693389Y23050500D01*
X75693731Y23441883D01*
X75490918Y23932729D01*
X75115704Y24308598D01*
X74625213Y24512268D01*
X74094117Y24512731D01*
X73603271Y24309918D01*
X73227402Y23934704D01*
X73023732Y23444213D01*
X73023269Y22913117D01*
X70997606Y22913117D01*
X71070468Y23088587D01*
X71070931Y23619683D01*
X70868118Y24110529D01*
X70492904Y24486398D01*
X70002413Y24690068D01*
X69471317Y24690531D01*
X68980471Y24487718D01*
X68604602Y24112504D01*
X68400932Y23622013D01*
X68400469Y23090917D01*
X65747802Y23090917D01*
X65748048Y23372787D01*
X65530043Y23900400D01*
X65126723Y24304424D01*
X64599491Y24523350D01*
X64028613Y24523848D01*
X63501000Y24305843D01*
X63096976Y23902523D01*
X62878050Y23375291D01*
X62877552Y22804413D01*
X58841368Y22804413D01*
X58799721Y22846132D01*
X58216459Y23088324D01*
X57584912Y23088875D01*
X57001228Y22847702D01*
X56629043Y22476165D01*
X56259721Y22846132D01*
X55676459Y23088324D01*
X55044912Y23088875D01*
X54461228Y22847702D01*
X54089043Y22476165D01*
X53719721Y22846132D01*
X53136459Y23088324D01*
X52504912Y23088875D01*
X51921228Y22847702D01*
X51549043Y22476165D01*
X51179721Y22846132D01*
X50596459Y23088324D01*
X49964912Y23088875D01*
X49381228Y22847702D01*
X48934268Y22401521D01*
X48692076Y21818259D01*
X48691525Y21186712D01*
X47846840Y21186712D01*
X47846840Y22777300D01*
X47802562Y23012617D01*
X47663490Y23228741D01*
X47451290Y23373731D01*
X47199400Y23424740D01*
X44799400Y23424740D01*
X44564083Y23380462D01*
X44347959Y23241390D01*
X44202969Y23029190D01*
X44151960Y22777300D01*
X32158066Y22777300D01*
X32092891Y22874841D01*
X31497574Y23272619D01*
X30795350Y23412300D01*
X30723450Y23412300D01*
X30021226Y23272619D01*
X29425909Y22874841D01*
X29028131Y22279524D01*
X28888450Y21577300D01*
X27666540Y21577300D01*
X27666540Y22688400D01*
X27622262Y22923717D01*
X27483190Y23139841D01*
X27270990Y23284831D01*
X27019100Y23335840D01*
X24619100Y23335840D01*
X24383783Y23291562D01*
X24167659Y23152490D01*
X24022669Y22940290D01*
X23971660Y22688400D01*
X11977766Y22688400D01*
X11912591Y22785941D01*
X11317274Y23183719D01*
X10615050Y23323400D01*
X10543150Y23323400D01*
X9840926Y23183719D01*
X9245609Y22785941D01*
X8847831Y22190624D01*
X8708150Y21488400D01*
X64935Y21488400D01*
X79835Y26360413D01*
X3847952Y26360413D01*
X4065957Y25832800D01*
X4469277Y25428776D01*
X4605154Y25372355D01*
X4268502Y25147411D01*
X3957433Y24681864D01*
X3848200Y24132713D01*
X3848200Y24076487D01*
X3957433Y23527336D01*
X4268502Y23061789D01*
X4734049Y22750720D01*
X5283200Y22641487D01*
X5832351Y22750720D01*
X6297898Y23061789D01*
X6608967Y23527336D01*
X6718200Y24076487D01*
X6718200Y24132713D01*
X6608967Y24681864D01*
X6297898Y25147411D01*
X5961490Y25372192D01*
X6095000Y25427357D01*
X6499024Y25830677D01*
X6717950Y26357909D01*
X6718448Y26928787D01*
X6632512Y27136769D01*
X68531873Y27136769D01*
X68757836Y26667437D01*
X69146204Y26320303D01*
X69491271Y26177384D01*
X69697600Y26300726D01*
X69697600Y27343100D01*
X69951600Y27343100D01*
X69951600Y26300726D01*
X70157929Y26177384D01*
X70502996Y26320303D01*
X70891364Y26667437D01*
X71117327Y27136769D01*
X71064538Y27225669D01*
X73243573Y27225669D01*
X73469536Y26756337D01*
X73857904Y26409203D01*
X74202971Y26266284D01*
X74409300Y26389626D01*
X74409300Y27432000D01*
X74663300Y27432000D01*
X74663300Y26389626D01*
X74869629Y26266284D01*
X75214696Y26409203D01*
X75603064Y26756337D01*
X75829027Y27225669D01*
X75706506Y27432000D01*
X74663300Y27432000D01*
X74409300Y27432000D01*
X73366094Y27432000D01*
X73243573Y27225669D01*
X71064538Y27225669D01*
X70994806Y27343100D01*
X69951600Y27343100D01*
X69697600Y27343100D01*
X68654394Y27343100D01*
X68531873Y27136769D01*
X6632512Y27136769D01*
X6500443Y27456400D01*
X6097123Y27860424D01*
X5753905Y28002941D01*
X49340746Y28002941D01*
X49433588Y27741012D01*
X50026101Y27522425D01*
X50657161Y27547222D01*
X51125012Y27741012D01*
X51217854Y28002941D01*
X51880746Y28002941D01*
X51973588Y27741012D01*
X52566101Y27522425D01*
X53197161Y27547222D01*
X53665012Y27741012D01*
X53757854Y28002941D01*
X54420746Y28002941D01*
X54513588Y27741012D01*
X55106101Y27522425D01*
X55737161Y27547222D01*
X56205012Y27741012D01*
X56297854Y28002941D01*
X55359300Y28941495D01*
X54420746Y28002941D01*
X53757854Y28002941D01*
X52819300Y28941495D01*
X51880746Y28002941D01*
X51217854Y28002941D01*
X50279300Y28941495D01*
X49340746Y28002941D01*
X5753905Y28002941D01*
X5569891Y28079350D01*
X4999013Y28079848D01*
X4471400Y27861843D01*
X4067376Y27458523D01*
X3848450Y26931291D01*
X3847952Y26360413D01*
X79835Y26360413D01*
X91035Y30022800D01*
X19071350Y30022800D01*
X19211031Y29320576D01*
X19608809Y28725259D01*
X20204126Y28327481D01*
X20906350Y28187800D01*
X20978250Y28187800D01*
X21680474Y28327481D01*
X22275791Y28725259D01*
X22673569Y29320576D01*
X22813250Y30022800D01*
X22673569Y30725024D01*
X22340966Y31222800D01*
X34334860Y31222800D01*
X34334860Y28822800D01*
X34379138Y28587483D01*
X34518210Y28371359D01*
X34730410Y28226369D01*
X34982300Y28175360D01*
X37382300Y28175360D01*
X37617617Y28219638D01*
X37833741Y28358710D01*
X37978731Y28570910D01*
X38029740Y28822800D01*
X38029740Y29374299D01*
X48680625Y29374299D01*
X48705422Y28743239D01*
X48899212Y28275388D01*
X49161141Y28182546D01*
X50099695Y29121100D01*
X50458905Y29121100D01*
X51397459Y28182546D01*
X51549300Y28236367D01*
X51701141Y28182546D01*
X52639695Y29121100D01*
X52998905Y29121100D01*
X53937459Y28182546D01*
X54089300Y28236367D01*
X54241141Y28182546D01*
X55179695Y29121100D01*
X55538905Y29121100D01*
X56477459Y28182546D01*
X56562883Y28212825D01*
X56998879Y27776068D01*
X57582141Y27533876D01*
X58213688Y27533325D01*
X58797372Y27774498D01*
X58826355Y27803431D01*
X68531873Y27803431D01*
X68654394Y27597100D01*
X69697600Y27597100D01*
X69697600Y28639474D01*
X69951600Y28639474D01*
X69951600Y27597100D01*
X70994806Y27597100D01*
X71117327Y27803431D01*
X71074526Y27892331D01*
X73243573Y27892331D01*
X73366094Y27686000D01*
X74409300Y27686000D01*
X74409300Y28728374D01*
X74663300Y28728374D01*
X74663300Y27686000D01*
X75706506Y27686000D01*
X75829027Y27892331D01*
X75603064Y28361663D01*
X75214696Y28708797D01*
X74869629Y28851716D01*
X74663300Y28728374D01*
X74409300Y28728374D01*
X74202971Y28851716D01*
X73857904Y28708797D01*
X73469536Y28361663D01*
X73243573Y27892331D01*
X71074526Y27892331D01*
X70891364Y28272763D01*
X70502996Y28619897D01*
X70157929Y28762816D01*
X69951600Y28639474D01*
X69697600Y28639474D01*
X69491271Y28762816D01*
X69146204Y28619897D01*
X68757836Y28272763D01*
X68531873Y27803431D01*
X58826355Y27803431D01*
X59244332Y28220679D01*
X59486524Y28803941D01*
X59487075Y29435488D01*
X59245902Y30019172D01*
X58799721Y30466132D01*
X58216459Y30708324D01*
X57584912Y30708875D01*
X57001228Y30467702D01*
X56562332Y30029571D01*
X56477459Y30059654D01*
X55538905Y29121100D01*
X55179695Y29121100D01*
X54241141Y30059654D01*
X54089300Y30005833D01*
X53937459Y30059654D01*
X52998905Y29121100D01*
X52639695Y29121100D01*
X51701141Y30059654D01*
X51549300Y30005833D01*
X51397459Y30059654D01*
X50458905Y29121100D01*
X50099695Y29121100D01*
X49161141Y30059654D01*
X48899212Y29966812D01*
X48680625Y29374299D01*
X38029740Y29374299D01*
X38029740Y30239259D01*
X49340746Y30239259D01*
X50279300Y29300705D01*
X51217854Y30239259D01*
X51880746Y30239259D01*
X52819300Y29300705D01*
X53757854Y30239259D01*
X54420746Y30239259D01*
X55359300Y29300705D01*
X56297854Y30239259D01*
X56205012Y30501188D01*
X55612499Y30719775D01*
X54981439Y30694978D01*
X54513588Y30501188D01*
X54420746Y30239259D01*
X53757854Y30239259D01*
X53665012Y30501188D01*
X53072499Y30719775D01*
X52441439Y30694978D01*
X51973588Y30501188D01*
X51880746Y30239259D01*
X51217854Y30239259D01*
X51125012Y30501188D01*
X50532499Y30719775D01*
X49901439Y30694978D01*
X49433588Y30501188D01*
X49340746Y30239259D01*
X38029740Y30239259D01*
X38029740Y31222800D01*
X37985462Y31458117D01*
X37846390Y31674241D01*
X37634190Y31819231D01*
X37382300Y31870240D01*
X34982300Y31870240D01*
X34746983Y31825962D01*
X34530859Y31686890D01*
X34385869Y31474690D01*
X34334860Y31222800D01*
X22340966Y31222800D01*
X22275791Y31320341D01*
X21680474Y31718119D01*
X20978250Y31857800D01*
X20906350Y31857800D01*
X20204126Y31718119D01*
X19608809Y31320341D01*
X19211031Y30725024D01*
X19071350Y30022800D01*
X91035Y30022800D01*
X102722Y33844208D01*
X3524214Y33844208D01*
X3770517Y33319742D01*
X4198776Y32929455D01*
X4608810Y32759624D01*
X4838700Y32880945D01*
X4838700Y34074100D01*
X3644881Y34074100D01*
X3524214Y33844208D01*
X102722Y33844208D01*
X104904Y34557992D01*
X3524214Y34557992D01*
X3644881Y34328100D01*
X4838700Y34328100D01*
X4838700Y35521255D01*
X5092700Y35521255D01*
X5092700Y34328100D01*
X5112700Y34328100D01*
X5112700Y34074100D01*
X5092700Y34074100D01*
X5092700Y32880945D01*
X5322590Y32759624D01*
X5732624Y32929455D01*
X6035637Y33205601D01*
X6052538Y33115783D01*
X6191610Y32899659D01*
X6403810Y32754669D01*
X6655700Y32703660D01*
X8355700Y32703660D01*
X8591017Y32747938D01*
X8807141Y32887010D01*
X8952131Y33099210D01*
X9003140Y33351100D01*
X9003140Y34894813D01*
X62966452Y34894813D01*
X63184457Y34367200D01*
X63587777Y33963176D01*
X63723654Y33906755D01*
X63387002Y33681811D01*
X63075933Y33216264D01*
X62966700Y32667113D01*
X62966700Y32610887D01*
X63075933Y32061736D01*
X63387002Y31596189D01*
X63852549Y31285120D01*
X64401700Y31175887D01*
X64950851Y31285120D01*
X65416398Y31596189D01*
X65727467Y32061736D01*
X65760190Y32226250D01*
X78474200Y32226250D01*
X78474200Y31535690D01*
X78570873Y31302301D01*
X78749502Y31123673D01*
X78982891Y31027000D01*
X79673450Y31027000D01*
X79832200Y31185750D01*
X79832200Y32385000D01*
X80086200Y32385000D01*
X80086200Y31185750D01*
X80244950Y31027000D01*
X80935509Y31027000D01*
X81168898Y31123673D01*
X81347527Y31302301D01*
X81444200Y31535690D01*
X81444200Y32226250D01*
X81285450Y32385000D01*
X80086200Y32385000D01*
X79832200Y32385000D01*
X78632950Y32385000D01*
X78474200Y32226250D01*
X65760190Y32226250D01*
X65836700Y32610887D01*
X65836700Y32667113D01*
X65727467Y33216264D01*
X65416398Y33681811D01*
X65079990Y33906592D01*
X65213500Y33961757D01*
X65617524Y34365077D01*
X65808798Y34825717D01*
X68489369Y34825717D01*
X68692182Y34334871D01*
X69067396Y33959002D01*
X69557887Y33755332D01*
X70088983Y33754869D01*
X70579829Y33957682D01*
X70955698Y34332896D01*
X71159368Y34823387D01*
X71159447Y34914617D01*
X73201069Y34914617D01*
X73403882Y34423771D01*
X73779096Y34047902D01*
X74269587Y33844232D01*
X74800683Y33843769D01*
X75291529Y34046582D01*
X75667398Y34421796D01*
X75871068Y34912287D01*
X75871189Y35052000D01*
X78445107Y35052000D01*
X78558146Y34483715D01*
X78880053Y34001946D01*
X78923977Y33972597D01*
X78749502Y33900327D01*
X78570873Y33721699D01*
X78474200Y33488310D01*
X78474200Y32797750D01*
X78632950Y32639000D01*
X79832200Y32639000D01*
X79832200Y32659000D01*
X80086200Y32659000D01*
X80086200Y32639000D01*
X81285450Y32639000D01*
X81444200Y32797750D01*
X81444200Y33488310D01*
X81347527Y33721699D01*
X81168898Y33900327D01*
X80994423Y33972597D01*
X81038347Y34001946D01*
X81360254Y34483715D01*
X81473293Y35052000D01*
X81360254Y35620285D01*
X81038347Y36102054D01*
X80556578Y36423961D01*
X79988293Y36537000D01*
X79930107Y36537000D01*
X79361822Y36423961D01*
X78880053Y36102054D01*
X78558146Y35620285D01*
X78445107Y35052000D01*
X75871189Y35052000D01*
X75871531Y35443383D01*
X75668718Y35934229D01*
X75293504Y36310098D01*
X74803013Y36513768D01*
X74271917Y36514231D01*
X73781071Y36311418D01*
X73405202Y35936204D01*
X73201532Y35445713D01*
X73201069Y34914617D01*
X71159447Y34914617D01*
X71159831Y35354483D01*
X70957018Y35845329D01*
X70581804Y36221198D01*
X70091313Y36424868D01*
X69560217Y36425331D01*
X69069371Y36222518D01*
X68693502Y35847304D01*
X68489832Y35356813D01*
X68489369Y34825717D01*
X65808798Y34825717D01*
X65836450Y34892309D01*
X65836948Y35463187D01*
X65618943Y35990800D01*
X65215623Y36394824D01*
X64688391Y36613750D01*
X64117513Y36614248D01*
X63589900Y36396243D01*
X63185876Y35992923D01*
X62966950Y35465691D01*
X62966452Y34894813D01*
X9003140Y34894813D01*
X9003140Y35051100D01*
X8958862Y35286417D01*
X8819790Y35502541D01*
X8607590Y35647531D01*
X8355700Y35698540D01*
X6655700Y35698540D01*
X6420383Y35654262D01*
X6204259Y35515190D01*
X6059269Y35302990D01*
X6037399Y35194993D01*
X5732624Y35472745D01*
X5322590Y35642576D01*
X5092700Y35521255D01*
X4838700Y35521255D01*
X4608810Y35642576D01*
X4198776Y35472745D01*
X3770517Y35082458D01*
X3524214Y34557992D01*
X104904Y34557992D01*
X126839Y41730233D01*
X179450Y41782844D01*
X85471769Y41529375D01*
M02*
