M48
;DRILL file {KiCad 4.0.5} date Sunday, May 07, 2017 'PMt' 01:26:39 PM
;FORMAT={-:-/ absolute / inch / decimal}
FMAT,2
INCH,TZ
T1C0.016
T2C0.028
T3C0.030
T4C0.031
T5C0.035
T6C0.039
T7C0.047
T8C0.091
T9C0.098
%
G90
G05
M72
T1
X1.1841Y-4.7205
X1.2441Y-1.1801
X1.252Y-3.1575
X2.2421Y-4.752
X2.3524Y-3.1683
X2.9213Y-3.4646
X3.752Y-1.3268
X3.8917Y-3.1024
X3.9596Y-4.7195
X4.6624Y-4.7303
X4.8927Y-3.0797
X5.5118Y-4.7037
X5.564Y-1.1299
X5.5925Y-3.0659
T2
X2.7244Y-4.5906
X2.8945Y-2.0709
X2.9244Y-4.5906
X3.0945Y-2.0709
X3.2213Y-2.5713
X3.4213Y-2.5713
X3.5264Y-4.6476
X3.6043Y-3.7598
X3.7213Y-2.8413
X3.7213Y-3.0413
X3.7264Y-4.6476
X3.9043Y-3.7598
X4.0327Y-3.6024
X4.0327Y-3.7598
X4.3327Y-3.6024
X4.3327Y-3.7598
X5.1258Y-1.4768
X5.1258Y-1.7768
X5.1339Y-2.2953
X5.1339Y-2.5953
X5.2608Y-1.4768
X5.2608Y-1.7768
X5.2913Y-2.2953
X5.2913Y-2.5953
X5.4258Y-1.4768
X5.4258Y-1.6768
X5.4882Y-2.2921
X5.4882Y-2.4921
X5.5197Y-4.0906
X5.5197Y-4.2906
X5.5256Y-3.685
X5.5256Y-3.885
T3
X3.95Y-1.3668
X3.95Y-1.6668
X4.05Y-1.3668
X4.05Y-1.6668
X4.15Y-1.3668
X4.15Y-1.6668
X4.25Y-1.3668
X4.25Y-1.6668
T4
X2.1415Y-1.5868
X2.1415Y-1.6868
X2.1415Y-1.9628
X2.1415Y-2.0628
X3.5256Y-3.9961
X3.5256Y-4.0945
X3.7008Y-1.6768
X3.7008Y-1.7752
X3.8209Y-3.9323
X3.8209Y-4.2323
X3.9209Y-3.9323
X3.9209Y-4.2323
X4.0209Y-3.9323
X4.0209Y-4.2323
X4.089Y-2.2953
X4.1209Y-3.9323
X4.1209Y-4.2323
X4.189Y-2.2953
X4.5433Y-2.2953
X4.5433Y-2.3953
X4.8158Y-1.9268
X4.8158Y-2.0252
X4.9417Y-3.8803
X5.0402Y-3.8803
T5
X1.4242Y-2.2303
X1.4242Y-2.3303
T6
X2.9311Y-2.9413
X3.0311Y-2.9413
X3.1311Y-2.9413
X3.3256Y-3.2453
X3.4256Y-3.2453
X4.8145Y-1.4718
X4.8145Y-1.5718
X4.8839Y-4.3504
X4.8839Y-4.4488
X4.8839Y-4.5472
T7
X1.9375Y-1.2908
X2.499Y-1.6918
X2.5375Y-1.2908
X3.0949Y-1.5059
X3.099Y-1.6918
X3.5484Y-2.0114
X3.6949Y-1.5059
X4.1484Y-2.0114
T8
X5.0138Y-4.252
X5.0138Y-4.6457
T9
X3.1476Y-1.3159
X3.1476Y-4.5443
X5.313Y-1.3159
X5.313Y-4.5443
T6
X1.4754Y-1.19G85X1.5541Y-1.19
G05
X1.4754Y-1.4262G85X1.5541Y-1.4262
G05
X1.6998Y-1.3474G85X1.6998Y-1.2687
G05
T0
M30
