G04 #@! TF.FileFunction,Copper,L1,Top,Signal*
%FSLAX46Y46*%
G04 Gerber Fmt 4.6, Leading zero omitted, Abs format (unit mm)*
G04 Created by KiCad (PCBNEW 4.0.5) date Sunday, May 07, 2017 'PMt' 01:26:42 PM*
%MOMM*%
%LPD*%
G01*
G04 APERTURE LIST*
%ADD10C,0.100000*%
%ADD11C,5.000000*%
%ADD12R,1.600000X1.600000*%
%ADD13C,1.600000*%
%ADD14R,1.700000X1.700000*%
%ADD15O,1.700000X1.700000*%
%ADD16C,1.905000*%
%ADD17R,1.800000X1.800000*%
%ADD18C,1.800000*%
%ADD19R,2.400000X2.400000*%
%ADD20O,2.400000X2.400000*%
%ADD21C,1.400000*%
%ADD22O,1.400000X1.400000*%
%ADD23O,1.600000X1.600000*%
%ADD24R,1.250000X1.500000*%
%ADD25O,1.800000X1.800000*%
%ADD26R,0.800000X0.900000*%
%ADD27R,1.500000X1.300000*%
%ADD28R,1.300000X1.500000*%
%ADD29C,4.600000*%
%ADD30R,3.500000X3.500000*%
%ADD31R,1.000000X1.000000*%
%ADD32R,1.500000X2.200000*%
%ADD33C,0.600000*%
%ADD34C,1.016000*%
%ADD35C,0.762000*%
%ADD36C,0.254000*%
G04 APERTURE END LIST*
D10*
D11*
X134950000Y-33425000D03*
X79950000Y-33425000D03*
X79950000Y-115425000D03*
X134950000Y-115425000D03*
D12*
X122321920Y-48940000D03*
D13*
X122321920Y-51440000D03*
D14*
X122288900Y-37383000D03*
D15*
X122288900Y-39923000D03*
D16*
X107950600Y-34716000D03*
X105410600Y-34716000D03*
X102870600Y-34716000D03*
X100330600Y-34716000D03*
X100330600Y-42336000D03*
X102870600Y-42336000D03*
X105410600Y-42336000D03*
X107950600Y-42336000D03*
D17*
X36175000Y-56650000D03*
D18*
X36175000Y-59190000D03*
D19*
X78715200Y-42971000D03*
D20*
X63475200Y-42971000D03*
D19*
X64453100Y-32785600D03*
D20*
X49213100Y-32785600D03*
D19*
X93850000Y-38250000D03*
D20*
X78610000Y-38250000D03*
D21*
X110050000Y-91500000D03*
D22*
X102430000Y-91500000D03*
D21*
X130400000Y-58300000D03*
D22*
X130400000Y-65920000D03*
D21*
X110050000Y-95500000D03*
D22*
X102430000Y-95500000D03*
D21*
X134400000Y-58300000D03*
D22*
X134400000Y-65920000D03*
D21*
X130195920Y-37510000D03*
D22*
X130195920Y-45130000D03*
D21*
X133624920Y-37510000D03*
D22*
X133624920Y-45130000D03*
D19*
X105369960Y-51088840D03*
D20*
X90129960Y-51088840D03*
D13*
X54394700Y-40304000D03*
D23*
X54394700Y-42844000D03*
D13*
X54394700Y-49854400D03*
D23*
X54394700Y-52394400D03*
D13*
X106400000Y-58300000D03*
D23*
X103860000Y-58300000D03*
D13*
X115400000Y-58300000D03*
D23*
X115400000Y-60840000D03*
D12*
X89550000Y-104000000D03*
D13*
X89550000Y-101500000D03*
D21*
X91550000Y-95500000D03*
D22*
X99170000Y-95500000D03*
D24*
X119020000Y-98310000D03*
X119020000Y-100810000D03*
D12*
X125520000Y-98560000D03*
D13*
X128020000Y-98560000D03*
D21*
X69200000Y-116600000D03*
D22*
X74280000Y-116600000D03*
D17*
X74450000Y-74710000D03*
D25*
X76990000Y-74710000D03*
X79530000Y-74710000D03*
D26*
X122450000Y-60300000D03*
X124350000Y-60300000D03*
X123400000Y-58300000D03*
D14*
X84470000Y-82430000D03*
D15*
X87010000Y-82430000D03*
D21*
X86900000Y-65310000D03*
D22*
X81820000Y-65310000D03*
D21*
X94520000Y-72170000D03*
D22*
X94520000Y-77250000D03*
D21*
X94650000Y-118050000D03*
D22*
X89570000Y-118050000D03*
D21*
X140350000Y-93600000D03*
D22*
X140350000Y-98680000D03*
D27*
X118750000Y-103180000D03*
X116050000Y-103180000D03*
D28*
X74440000Y-82980000D03*
X74440000Y-80280000D03*
D18*
X124050000Y-115500000D03*
X124050000Y-113000000D03*
X124050000Y-110500000D03*
D29*
X127350000Y-118000000D03*
X127350000Y-108000000D03*
D12*
X97050000Y-107500000D03*
D23*
X104670000Y-99880000D03*
X99590000Y-107500000D03*
X102130000Y-99880000D03*
X102130000Y-107500000D03*
X99590000Y-99880000D03*
X104670000Y-107500000D03*
X97050000Y-99880000D03*
D12*
X94000920Y-42590000D03*
D13*
X94000920Y-45090000D03*
D21*
X140200000Y-103900000D03*
D22*
X140200000Y-108980000D03*
D21*
X78600000Y-52600000D03*
D22*
X73520000Y-52600000D03*
D21*
X139400000Y-63300000D03*
D22*
X139400000Y-58220000D03*
D21*
X137815920Y-42590000D03*
D22*
X137815920Y-37510000D03*
D30*
X38475000Y-30225000D03*
X38475000Y-36225000D03*
X43175000Y-33225000D03*
D31*
X102800000Y-88000000D03*
X105300000Y-88000000D03*
X126385920Y-37530000D03*
X126385920Y-40030000D03*
D32*
X109830600Y-48940000D03*
X116230600Y-48940000D03*
D33*
X142050000Y-77875000D03*
X98850000Y-78800000D03*
X31800000Y-80200000D03*
X95300000Y-33700000D03*
X100575000Y-119875000D03*
X30075000Y-119900000D03*
X140000000Y-119475000D03*
X141325000Y-28700000D03*
X31600000Y-29975000D03*
X59750000Y-80475000D03*
X118425000Y-120150000D03*
X56950000Y-120700000D03*
X124275000Y-78225000D03*
X74200000Y-88000000D03*
D34*
X224755400Y-74799200D02*
X224739200Y-74783000D01*
X142150000Y-77950000D02*
X142125000Y-77950000D01*
X142125000Y-77950000D02*
X142050000Y-77875000D01*
X98850000Y-78800000D02*
X99125000Y-78525000D01*
X95250000Y-33775000D02*
X95250000Y-33750000D01*
X95250000Y-33750000D02*
X95300000Y-33700000D01*
X30075000Y-119900000D02*
X30275000Y-119900000D01*
X118125000Y-120150000D02*
X118425000Y-120150000D01*
X56950000Y-120700000D02*
X56950000Y-120425000D01*
X103860000Y-58300000D02*
X103860000Y-86940000D01*
X103860000Y-86940000D02*
X102800000Y-88000000D01*
X64453100Y-32785600D02*
X64453100Y-31946900D01*
X64453100Y-31946900D02*
X68100000Y-28300000D01*
X68100000Y-28300000D02*
X90400000Y-28300000D01*
X90400000Y-28300000D02*
X93850000Y-31750000D01*
X93850000Y-31750000D02*
X93850000Y-38250000D01*
X94000920Y-42590000D02*
X94000920Y-38400920D01*
X94000920Y-38400920D02*
X93850000Y-38250000D01*
X102430000Y-91500000D02*
X102430000Y-88370000D01*
X102430000Y-88370000D02*
X102800000Y-88000000D01*
X102430000Y-95500000D02*
X102430000Y-91500000D01*
X102430000Y-95500000D02*
X102130000Y-95800000D01*
X102130000Y-95800000D02*
X102130000Y-99880000D01*
X94000920Y-42590000D02*
X100076600Y-42590000D01*
X100076600Y-42590000D02*
X100330600Y-42336000D01*
X116230600Y-48940000D02*
X122321920Y-48940000D01*
X122321920Y-48940000D02*
X122288900Y-48906980D01*
X122288900Y-48906980D02*
X122288900Y-39923000D01*
X116230600Y-48940000D02*
X116230600Y-42996000D01*
X116230600Y-42996000D02*
X107950600Y-34716000D01*
X139400000Y-58220000D02*
X134480000Y-58220000D01*
X134480000Y-58220000D02*
X134400000Y-58300000D01*
X134400000Y-58300000D02*
X130400000Y-58300000D01*
X130400000Y-58300000D02*
X123400000Y-58300000D01*
X115400000Y-58300000D02*
X123400000Y-58300000D01*
X106400000Y-58300000D02*
X115400000Y-58300000D01*
X54394700Y-52394400D02*
X54394700Y-56705300D01*
X51910000Y-59190000D02*
X36175000Y-59190000D01*
X54394700Y-56705300D02*
X51910000Y-59190000D01*
X78715200Y-42971000D02*
X78715200Y-38355200D01*
X78715200Y-38355200D02*
X78610000Y-38250000D01*
X78600000Y-52600000D02*
X78600000Y-43086200D01*
X78600000Y-43086200D02*
X78715200Y-42971000D01*
X78819340Y-43075140D02*
X78715200Y-42971000D01*
X63475200Y-42971000D02*
X54521700Y-42971000D01*
X54521700Y-42971000D02*
X54394700Y-43098000D01*
X54394700Y-43098000D02*
X54394700Y-49854400D01*
X105369960Y-51088840D02*
X107681760Y-51088840D01*
X107681760Y-51088840D02*
X109830600Y-48940000D01*
X105369960Y-51088840D02*
X105369960Y-42376640D01*
X105369960Y-42376640D02*
X105410600Y-42336000D01*
X109830600Y-48940000D02*
X109830600Y-48386680D01*
X105156600Y-42590000D02*
X105410600Y-42336000D01*
X130195920Y-37510000D02*
X133624920Y-37510000D01*
X133624920Y-37510000D02*
X137815920Y-37510000D01*
X126385920Y-37530000D02*
X130175920Y-37530000D01*
X130175920Y-37530000D02*
X130195920Y-37510000D01*
X122288900Y-37383000D02*
X126238920Y-37383000D01*
X126238920Y-37383000D02*
X126385920Y-37530000D01*
X38475000Y-30225000D02*
X46652500Y-30225000D01*
X46652500Y-30225000D02*
X49213100Y-32785600D01*
X49098700Y-32900000D02*
X49213100Y-32785600D01*
X49600000Y-33172500D02*
X49213100Y-32785600D01*
X49213100Y-32785600D02*
X49213100Y-35122400D01*
X49213100Y-35122400D02*
X54394700Y-40304000D01*
X89550000Y-104000000D02*
X89550000Y-106000000D01*
X91050000Y-107500000D02*
X97050000Y-107500000D01*
X89550000Y-106000000D02*
X91050000Y-107500000D01*
X97050000Y-99880000D02*
X91170000Y-99880000D01*
X91170000Y-99880000D02*
X89550000Y-101500000D01*
X99590000Y-99880000D02*
X99590000Y-95920000D01*
X99590000Y-95920000D02*
X99170000Y-95500000D01*
X104670000Y-99880000D02*
X113230000Y-99880000D01*
X114800000Y-98310000D02*
X119020000Y-98310000D01*
X113230000Y-99880000D02*
X114800000Y-98310000D01*
X119020000Y-98310000D02*
X125270000Y-98310000D01*
X125270000Y-98310000D02*
X125520000Y-98560000D01*
X118770000Y-98310000D02*
X119020000Y-98310000D01*
X118750000Y-103180000D02*
X118750000Y-101080000D01*
X118750000Y-101080000D02*
X119020000Y-100810000D01*
X128020000Y-98560000D02*
X135390000Y-98560000D01*
X135390000Y-98560000D02*
X140350000Y-93600000D01*
X69200000Y-116600000D02*
X68950000Y-116600000D01*
X68950000Y-116600000D02*
X66600000Y-114250000D01*
X66600000Y-114250000D02*
X66600000Y-67900000D01*
X66600000Y-67900000D02*
X73050000Y-61450000D01*
X73050000Y-61450000D02*
X88900000Y-61450000D01*
X88900000Y-61450000D02*
X94520000Y-67070000D01*
X94520000Y-67070000D02*
X94520000Y-72170000D01*
X94520000Y-72170000D02*
X94520000Y-70510000D01*
X89320000Y-65310000D02*
X86900000Y-65310000D01*
X94520000Y-70510000D02*
X89320000Y-65310000D01*
X76990000Y-74710000D02*
X76990000Y-113110000D01*
X74280000Y-115820000D02*
X74280000Y-116600000D01*
X76990000Y-113110000D02*
X74280000Y-115820000D01*
X76990000Y-82670000D02*
X76990000Y-74710000D01*
X74440000Y-80280000D02*
X74440000Y-74720000D01*
X74440000Y-74720000D02*
X74450000Y-74710000D01*
X84390000Y-82430000D02*
X84470000Y-82430000D01*
X84470000Y-82430000D02*
X84390000Y-82430000D01*
X84390000Y-82430000D02*
X79530000Y-77570000D01*
X79530000Y-77570000D02*
X79530000Y-74710000D01*
X84470000Y-82430000D02*
X84470000Y-82190000D01*
X94520000Y-77250000D02*
X89080000Y-77250000D01*
X81820000Y-69990000D02*
X81820000Y-65310000D01*
X89080000Y-77250000D02*
X81820000Y-69990000D01*
X94520000Y-77250000D02*
X94520000Y-80040000D01*
X92130000Y-82430000D02*
X87010000Y-82430000D01*
X94520000Y-80040000D02*
X92130000Y-82430000D01*
X124050000Y-110500000D02*
X124450000Y-110500000D01*
X124450000Y-110500000D02*
X125700000Y-111750000D01*
X137350000Y-103900000D02*
X140200000Y-103900000D01*
X129500000Y-111750000D02*
X137350000Y-103900000D01*
X125700000Y-111750000D02*
X129500000Y-111750000D01*
D35*
X124050000Y-110500000D02*
X124750000Y-110500000D01*
D34*
X124050000Y-110500000D02*
X124550000Y-110500000D01*
X74200000Y-88000000D02*
X74440000Y-87760000D01*
X74440000Y-87760000D02*
X74440000Y-82980000D01*
X124050000Y-113000000D02*
X105090000Y-113000000D01*
X105090000Y-113000000D02*
X99590000Y-107500000D01*
D36*
G36*
X145773000Y-123873000D02*
X25552000Y-123873000D01*
X25552000Y-119900000D01*
X28932000Y-119900000D01*
X29019006Y-120337407D01*
X29266777Y-120708223D01*
X29637593Y-120955994D01*
X30075000Y-121043000D01*
X30275000Y-121043000D01*
X30712407Y-120955994D01*
X31083223Y-120708223D01*
X31272466Y-120425000D01*
X55807000Y-120425000D01*
X55807000Y-120700000D01*
X55894006Y-121137407D01*
X56141777Y-121508223D01*
X56512593Y-121755994D01*
X56950000Y-121843000D01*
X57387407Y-121755994D01*
X57758223Y-121508223D01*
X58005994Y-121137407D01*
X58093000Y-120700000D01*
X58093000Y-120425000D01*
X58020430Y-120060167D01*
X99639838Y-120060167D01*
X99781883Y-120403943D01*
X100044673Y-120667192D01*
X100388201Y-120809838D01*
X100760167Y-120810162D01*
X101103943Y-120668117D01*
X101367192Y-120405327D01*
X101473213Y-120150000D01*
X116982000Y-120150000D01*
X117069006Y-120587407D01*
X117316777Y-120958223D01*
X117687593Y-121205994D01*
X118125000Y-121293000D01*
X118425000Y-121293000D01*
X118862407Y-121205994D01*
X119233223Y-120958223D01*
X119480994Y-120587407D01*
X119568000Y-120150000D01*
X119480994Y-119712593D01*
X119233223Y-119341777D01*
X118862407Y-119094006D01*
X118425000Y-119007000D01*
X118125000Y-119007000D01*
X117687593Y-119094006D01*
X117316777Y-119341777D01*
X117069006Y-119712593D01*
X116982000Y-120150000D01*
X101473213Y-120150000D01*
X101509838Y-120061799D01*
X101510162Y-119689833D01*
X101368117Y-119346057D01*
X101105327Y-119082808D01*
X100761799Y-118940162D01*
X100389833Y-118939838D01*
X100046057Y-119081883D01*
X99782808Y-119344673D01*
X99640162Y-119688201D01*
X99639838Y-120060167D01*
X58020430Y-120060167D01*
X58005994Y-119987593D01*
X57758223Y-119616777D01*
X57387407Y-119369006D01*
X56950000Y-119282000D01*
X56512593Y-119369006D01*
X56141777Y-119616777D01*
X55894006Y-119987593D01*
X55807000Y-120425000D01*
X31272466Y-120425000D01*
X31330994Y-120337407D01*
X31418000Y-119900000D01*
X31330994Y-119462593D01*
X31083223Y-119091777D01*
X30712407Y-118844006D01*
X30275000Y-118757000D01*
X30075000Y-118757000D01*
X29637593Y-118844006D01*
X29266777Y-119091777D01*
X29019006Y-119462593D01*
X28932000Y-119900000D01*
X25552000Y-119900000D01*
X25552000Y-80385167D01*
X30864838Y-80385167D01*
X31006883Y-80728943D01*
X31269673Y-80992192D01*
X31613201Y-81134838D01*
X31985167Y-81135162D01*
X32328943Y-80993117D01*
X32592192Y-80730327D01*
X32621325Y-80660167D01*
X58814838Y-80660167D01*
X58956883Y-81003943D01*
X59219673Y-81267192D01*
X59563201Y-81409838D01*
X59935167Y-81410162D01*
X60278943Y-81268117D01*
X60542192Y-81005327D01*
X60684838Y-80661799D01*
X60685162Y-80289833D01*
X60543117Y-79946057D01*
X60280327Y-79682808D01*
X59936799Y-79540162D01*
X59564833Y-79539838D01*
X59221057Y-79681883D01*
X58957808Y-79944673D01*
X58815162Y-80288201D01*
X58814838Y-80660167D01*
X32621325Y-80660167D01*
X32734838Y-80386799D01*
X32735162Y-80014833D01*
X32593117Y-79671057D01*
X32330327Y-79407808D01*
X31986799Y-79265162D01*
X31614833Y-79264838D01*
X31271057Y-79406883D01*
X31007808Y-79669673D01*
X30865162Y-80013201D01*
X30864838Y-80385167D01*
X25552000Y-80385167D01*
X25552000Y-67900000D01*
X65457000Y-67900000D01*
X65457000Y-114250000D01*
X65544006Y-114687407D01*
X65791777Y-115058223D01*
X68052654Y-117319100D01*
X68067582Y-117355229D01*
X68442796Y-117731098D01*
X68933287Y-117934768D01*
X69464383Y-117935231D01*
X69955229Y-117732418D01*
X70331098Y-117357204D01*
X70534768Y-116866713D01*
X70535231Y-116335617D01*
X70332418Y-115844771D01*
X69957204Y-115468902D01*
X69466713Y-115265232D01*
X69231473Y-115265027D01*
X67743000Y-113776554D01*
X67743000Y-73810000D01*
X72902560Y-73810000D01*
X72902560Y-75610000D01*
X72946838Y-75845317D01*
X73085910Y-76061441D01*
X73297000Y-76205673D01*
X73297000Y-79126734D01*
X73193569Y-79278110D01*
X73142560Y-79530000D01*
X73142560Y-81030000D01*
X73186838Y-81265317D01*
X73325910Y-81481441D01*
X73538110Y-81626431D01*
X73551197Y-81629081D01*
X73338559Y-81765910D01*
X73193569Y-81978110D01*
X73142560Y-82230000D01*
X73142560Y-83730000D01*
X73186838Y-83965317D01*
X73297000Y-84136514D01*
X73297000Y-87333621D01*
X73144006Y-87562593D01*
X73057000Y-88000000D01*
X73144006Y-88437407D01*
X73391777Y-88808223D01*
X73762593Y-89055994D01*
X74200000Y-89143000D01*
X74637407Y-89055994D01*
X75008223Y-88808223D01*
X75248223Y-88568223D01*
X75495994Y-88197407D01*
X75583000Y-87760000D01*
X75583000Y-84133266D01*
X75686431Y-83981890D01*
X75737440Y-83730000D01*
X75737440Y-82230000D01*
X75693162Y-81994683D01*
X75554090Y-81778559D01*
X75341890Y-81633569D01*
X75328803Y-81630919D01*
X75541441Y-81494090D01*
X75686431Y-81281890D01*
X75737440Y-81030000D01*
X75737440Y-79530000D01*
X75693162Y-79294683D01*
X75583000Y-79123486D01*
X75583000Y-76213598D01*
X75585317Y-76213162D01*
X75801441Y-76074090D01*
X75847000Y-76007412D01*
X75847000Y-112636554D01*
X73471777Y-115011777D01*
X73224006Y-115382593D01*
X73137000Y-115820000D01*
X73137000Y-115914713D01*
X73020467Y-116089118D01*
X72918846Y-116600000D01*
X73020467Y-117110882D01*
X73309858Y-117543988D01*
X73742964Y-117833379D01*
X74253846Y-117935000D01*
X74306154Y-117935000D01*
X74472473Y-117901917D01*
X78191504Y-117901917D01*
X78506053Y-118276684D01*
X79707259Y-118612188D01*
X80945420Y-118462471D01*
X81393947Y-118276684D01*
X81584207Y-118050000D01*
X88208846Y-118050000D01*
X88310467Y-118560882D01*
X88599858Y-118993988D01*
X89032964Y-119283379D01*
X89543846Y-119385000D01*
X89596154Y-119385000D01*
X90107036Y-119283379D01*
X90540142Y-118993988D01*
X90829533Y-118560882D01*
X90878564Y-118314383D01*
X93314769Y-118314383D01*
X93517582Y-118805229D01*
X93892796Y-119181098D01*
X94383287Y-119384768D01*
X94914383Y-119385231D01*
X95405229Y-119182418D01*
X95781098Y-118807204D01*
X95984768Y-118316713D01*
X95985231Y-117785617D01*
X95782418Y-117294771D01*
X95407204Y-116918902D01*
X94916713Y-116715232D01*
X94385617Y-116714769D01*
X93894771Y-116917582D01*
X93518902Y-117292796D01*
X93315232Y-117783287D01*
X93314769Y-118314383D01*
X90878564Y-118314383D01*
X90931154Y-118050000D01*
X90829533Y-117539118D01*
X90540142Y-117106012D01*
X90107036Y-116816621D01*
X89596154Y-116715000D01*
X89543846Y-116715000D01*
X89032964Y-116816621D01*
X88599858Y-117106012D01*
X88310467Y-117539118D01*
X88208846Y-118050000D01*
X81584207Y-118050000D01*
X81708496Y-117901917D01*
X79950000Y-116143420D01*
X78191504Y-117901917D01*
X74472473Y-117901917D01*
X74817036Y-117833379D01*
X75250142Y-117543988D01*
X75539533Y-117110882D01*
X75641154Y-116600000D01*
X75554099Y-116162347D01*
X76851416Y-114865030D01*
X76762812Y-115182259D01*
X76912529Y-116420420D01*
X77098316Y-116868947D01*
X77473083Y-117183496D01*
X79231580Y-115425000D01*
X80668420Y-115425000D01*
X82426917Y-117183496D01*
X82801684Y-116868947D01*
X82882344Y-116580159D01*
X123149446Y-116580159D01*
X123235852Y-116836643D01*
X123809336Y-117046458D01*
X124419460Y-117020839D01*
X124611672Y-116941222D01*
X124415511Y-117413631D01*
X124414492Y-118581246D01*
X124860377Y-119660372D01*
X125685285Y-120486721D01*
X126763631Y-120934489D01*
X127931246Y-120935508D01*
X129010372Y-120489623D01*
X129836721Y-119664715D01*
X129838609Y-119660167D01*
X139064838Y-119660167D01*
X139206883Y-120003943D01*
X139469673Y-120267192D01*
X139813201Y-120409838D01*
X140185167Y-120410162D01*
X140528943Y-120268117D01*
X140792192Y-120005327D01*
X140934838Y-119661799D01*
X140935162Y-119289833D01*
X140793117Y-118946057D01*
X140530327Y-118682808D01*
X140186799Y-118540162D01*
X139814833Y-118539838D01*
X139471057Y-118681883D01*
X139207808Y-118944673D01*
X139065162Y-119288201D01*
X139064838Y-119660167D01*
X129838609Y-119660167D01*
X130284489Y-118586369D01*
X130285086Y-117901917D01*
X133191504Y-117901917D01*
X133506053Y-118276684D01*
X134707259Y-118612188D01*
X135945420Y-118462471D01*
X136393947Y-118276684D01*
X136708496Y-117901917D01*
X134950000Y-116143420D01*
X133191504Y-117901917D01*
X130285086Y-117901917D01*
X130285508Y-117418754D01*
X129839623Y-116339628D01*
X129014715Y-115513279D01*
X128217530Y-115182259D01*
X131762812Y-115182259D01*
X131912529Y-116420420D01*
X132098316Y-116868947D01*
X132473083Y-117183496D01*
X134231580Y-115425000D01*
X135668420Y-115425000D01*
X137426917Y-117183496D01*
X137801684Y-116868947D01*
X138137188Y-115667741D01*
X137987471Y-114429580D01*
X137801684Y-113981053D01*
X137426917Y-113666504D01*
X135668420Y-115425000D01*
X134231580Y-115425000D01*
X132473083Y-113666504D01*
X132098316Y-113981053D01*
X131762812Y-115182259D01*
X128217530Y-115182259D01*
X127936369Y-115065511D01*
X126768754Y-115064492D01*
X125689628Y-115510377D01*
X125590926Y-115608907D01*
X125570839Y-115130540D01*
X125386643Y-114685852D01*
X125130159Y-114599446D01*
X124229605Y-115500000D01*
X124243748Y-115514143D01*
X124064143Y-115693748D01*
X124050000Y-115679605D01*
X123149446Y-116580159D01*
X82882344Y-116580159D01*
X83137188Y-115667741D01*
X83087805Y-115259336D01*
X122503542Y-115259336D01*
X122529161Y-115869460D01*
X122713357Y-116314148D01*
X122969841Y-116400554D01*
X123870395Y-115500000D01*
X122969841Y-114599446D01*
X122713357Y-114685852D01*
X122503542Y-115259336D01*
X83087805Y-115259336D01*
X82987471Y-114429580D01*
X82801684Y-113981053D01*
X82426917Y-113666504D01*
X80668420Y-115425000D01*
X79231580Y-115425000D01*
X79217438Y-115410858D01*
X79935858Y-114692437D01*
X79950000Y-114706580D01*
X81708496Y-112948083D01*
X81393947Y-112573316D01*
X80192741Y-112237812D01*
X78954580Y-112387529D01*
X78506053Y-112573316D01*
X78191505Y-112948082D01*
X78133000Y-112889577D01*
X78133000Y-103200000D01*
X88102560Y-103200000D01*
X88102560Y-104800000D01*
X88146838Y-105035317D01*
X88285910Y-105251441D01*
X88407000Y-105334178D01*
X88407000Y-106000000D01*
X88494006Y-106437407D01*
X88741777Y-106808223D01*
X90241777Y-108308223D01*
X90612593Y-108555994D01*
X91050000Y-108643000D01*
X95716130Y-108643000D01*
X95785910Y-108751441D01*
X95998110Y-108896431D01*
X96250000Y-108947440D01*
X97850000Y-108947440D01*
X98085317Y-108903162D01*
X98301441Y-108764090D01*
X98446431Y-108551890D01*
X98477815Y-108396911D01*
X98575302Y-108542811D01*
X99040849Y-108853880D01*
X99398594Y-108925040D01*
X104281777Y-113808223D01*
X104652593Y-114055994D01*
X105090000Y-114143000D01*
X123022081Y-114143000D01*
X123179357Y-114300551D01*
X123188372Y-114304294D01*
X123149446Y-114419841D01*
X124050000Y-115320395D01*
X124950554Y-114419841D01*
X124911793Y-114304786D01*
X124918371Y-114302068D01*
X125350551Y-113870643D01*
X125584733Y-113306670D01*
X125585045Y-112948083D01*
X133191504Y-112948083D01*
X134950000Y-114706580D01*
X136708496Y-112948083D01*
X136393947Y-112573316D01*
X135192741Y-112237812D01*
X133954580Y-112387529D01*
X133506053Y-112573316D01*
X133191504Y-112948083D01*
X125585045Y-112948083D01*
X125585113Y-112870148D01*
X125700000Y-112893000D01*
X129500000Y-112893000D01*
X129937407Y-112805994D01*
X130308223Y-112558223D01*
X133553115Y-109313331D01*
X138907273Y-109313331D01*
X139133236Y-109782663D01*
X139521604Y-110129797D01*
X139866671Y-110272716D01*
X140073000Y-110149374D01*
X140073000Y-109107000D01*
X140327000Y-109107000D01*
X140327000Y-110149374D01*
X140533329Y-110272716D01*
X140878396Y-110129797D01*
X141266764Y-109782663D01*
X141492727Y-109313331D01*
X141370206Y-109107000D01*
X140327000Y-109107000D01*
X140073000Y-109107000D01*
X139029794Y-109107000D01*
X138907273Y-109313331D01*
X133553115Y-109313331D01*
X134219777Y-108646669D01*
X138907273Y-108646669D01*
X139029794Y-108853000D01*
X140073000Y-108853000D01*
X140073000Y-107810626D01*
X140327000Y-107810626D01*
X140327000Y-108853000D01*
X141370206Y-108853000D01*
X141492727Y-108646669D01*
X141266764Y-108177337D01*
X140878396Y-107830203D01*
X140533329Y-107687284D01*
X140327000Y-107810626D01*
X140073000Y-107810626D01*
X139866671Y-107687284D01*
X139521604Y-107830203D01*
X139133236Y-108177337D01*
X138907273Y-108646669D01*
X134219777Y-108646669D01*
X137823446Y-105043000D01*
X139471459Y-105043000D01*
X139933287Y-105234768D01*
X140464383Y-105235231D01*
X140955229Y-105032418D01*
X141331098Y-104657204D01*
X141534768Y-104166713D01*
X141535231Y-103635617D01*
X141332418Y-103144771D01*
X140957204Y-102768902D01*
X140466713Y-102565232D01*
X139935617Y-102564769D01*
X139470381Y-102757000D01*
X137350000Y-102757000D01*
X136912593Y-102844006D01*
X136541777Y-103091777D01*
X129026554Y-110607000D01*
X128726297Y-110607000D01*
X129010372Y-110489623D01*
X129836721Y-109664715D01*
X130284489Y-108586369D01*
X130285508Y-107418754D01*
X129839623Y-106339628D01*
X129014715Y-105513279D01*
X127936369Y-105065511D01*
X126768754Y-105064492D01*
X125689628Y-105510377D01*
X124863279Y-106335285D01*
X124415511Y-107413631D01*
X124414492Y-108581246D01*
X124618003Y-109073782D01*
X124356670Y-108965267D01*
X123746009Y-108964735D01*
X123181629Y-109197932D01*
X122749449Y-109629357D01*
X122515267Y-110193330D01*
X122514735Y-110803991D01*
X122747932Y-111368371D01*
X123129182Y-111750288D01*
X123022283Y-111857000D01*
X105563446Y-111857000D01*
X102563406Y-108856960D01*
X102867423Y-108731041D01*
X103282389Y-108355134D01*
X103385014Y-108138297D01*
X103655302Y-108542811D01*
X104120849Y-108853880D01*
X104670000Y-108963113D01*
X105219151Y-108853880D01*
X105684698Y-108542811D01*
X105995767Y-108077264D01*
X106105000Y-107528113D01*
X106105000Y-107471887D01*
X105995767Y-106922736D01*
X105684698Y-106457189D01*
X105219151Y-106146120D01*
X104670000Y-106036887D01*
X104120849Y-106146120D01*
X103655302Y-106457189D01*
X103385014Y-106861703D01*
X103282389Y-106644866D01*
X102867423Y-106268959D01*
X102479039Y-106108096D01*
X102257000Y-106230085D01*
X102257000Y-107373000D01*
X102277000Y-107373000D01*
X102277000Y-107627000D01*
X102257000Y-107627000D01*
X102257000Y-107647000D01*
X102003000Y-107647000D01*
X102003000Y-107627000D01*
X101983000Y-107627000D01*
X101983000Y-107373000D01*
X102003000Y-107373000D01*
X102003000Y-106230085D01*
X101780961Y-106108096D01*
X101392577Y-106268959D01*
X100977611Y-106644866D01*
X100874986Y-106861703D01*
X100604698Y-106457189D01*
X100139151Y-106146120D01*
X99590000Y-106036887D01*
X99040849Y-106146120D01*
X98575302Y-106457189D01*
X98478899Y-106601465D01*
X98453162Y-106464683D01*
X98314090Y-106248559D01*
X98101890Y-106103569D01*
X97850000Y-106052560D01*
X96250000Y-106052560D01*
X96014683Y-106096838D01*
X95798559Y-106235910D01*
X95715822Y-106357000D01*
X91523446Y-106357000D01*
X90693000Y-105526554D01*
X90693000Y-105333870D01*
X90801441Y-105264090D01*
X90946431Y-105051890D01*
X90997440Y-104800000D01*
X90997440Y-103465750D01*
X114665000Y-103465750D01*
X114665000Y-103956310D01*
X114761673Y-104189699D01*
X114940302Y-104368327D01*
X115173691Y-104465000D01*
X115764250Y-104465000D01*
X115923000Y-104306250D01*
X115923000Y-103307000D01*
X114823750Y-103307000D01*
X114665000Y-103465750D01*
X90997440Y-103465750D01*
X90997440Y-103200000D01*
X90953162Y-102964683D01*
X90814090Y-102748559D01*
X90601890Y-102603569D01*
X90496959Y-102582320D01*
X90675900Y-102403690D01*
X114665000Y-102403690D01*
X114665000Y-102894250D01*
X114823750Y-103053000D01*
X115923000Y-103053000D01*
X115923000Y-102053750D01*
X115764250Y-101895000D01*
X115173691Y-101895000D01*
X114940302Y-101991673D01*
X114761673Y-102170301D01*
X114665000Y-102403690D01*
X90675900Y-102403690D01*
X90765824Y-102313923D01*
X90984750Y-101786691D01*
X90984842Y-101681604D01*
X91643446Y-101023000D01*
X96185245Y-101023000D01*
X96500849Y-101233880D01*
X97050000Y-101343113D01*
X97599151Y-101233880D01*
X98064698Y-100922811D01*
X98320000Y-100540725D01*
X98575302Y-100922811D01*
X99040849Y-101233880D01*
X99590000Y-101343113D01*
X100139151Y-101233880D01*
X100604698Y-100922811D01*
X100860000Y-100540725D01*
X101115302Y-100922811D01*
X101580849Y-101233880D01*
X102130000Y-101343113D01*
X102679151Y-101233880D01*
X103144698Y-100922811D01*
X103400000Y-100540725D01*
X103655302Y-100922811D01*
X104120849Y-101233880D01*
X104670000Y-101343113D01*
X105219151Y-101233880D01*
X105534755Y-101023000D01*
X113230000Y-101023000D01*
X113667407Y-100935994D01*
X114038223Y-100688223D01*
X115273446Y-99453000D01*
X117893304Y-99453000D01*
X117930910Y-99511441D01*
X118000711Y-99559134D01*
X117943559Y-99595910D01*
X117798569Y-99808110D01*
X117747560Y-100060000D01*
X117747560Y-100562444D01*
X117694006Y-100642593D01*
X117607000Y-101080000D01*
X117607000Y-102028304D01*
X117548559Y-102065910D01*
X117403569Y-102278110D01*
X117396809Y-102311490D01*
X117338327Y-102170301D01*
X117159698Y-101991673D01*
X116926309Y-101895000D01*
X116335750Y-101895000D01*
X116177000Y-102053750D01*
X116177000Y-103053000D01*
X116197000Y-103053000D01*
X116197000Y-103307000D01*
X116177000Y-103307000D01*
X116177000Y-104306250D01*
X116335750Y-104465000D01*
X116926309Y-104465000D01*
X117159698Y-104368327D01*
X117338327Y-104189699D01*
X117394654Y-104053713D01*
X117396838Y-104065317D01*
X117535910Y-104281441D01*
X117748110Y-104426431D01*
X118000000Y-104477440D01*
X119500000Y-104477440D01*
X119735317Y-104433162D01*
X119951441Y-104294090D01*
X120096431Y-104081890D01*
X120147440Y-103830000D01*
X120147440Y-102530000D01*
X120103162Y-102294683D01*
X119978059Y-102100267D01*
X120096441Y-102024090D01*
X120241431Y-101811890D01*
X120292440Y-101560000D01*
X120292440Y-100060000D01*
X120248162Y-99824683D01*
X120109090Y-99608559D01*
X120039289Y-99560866D01*
X120096441Y-99524090D01*
X120145015Y-99453000D01*
X124090059Y-99453000D01*
X124116838Y-99595317D01*
X124255910Y-99811441D01*
X124468110Y-99956431D01*
X124720000Y-100007440D01*
X126320000Y-100007440D01*
X126555317Y-99963162D01*
X126771441Y-99824090D01*
X126916431Y-99611890D01*
X126937680Y-99506959D01*
X127206077Y-99775824D01*
X127733309Y-99994750D01*
X128304187Y-99995248D01*
X128831800Y-99777243D01*
X128906173Y-99703000D01*
X135390000Y-99703000D01*
X135827407Y-99615994D01*
X136198223Y-99368223D01*
X136553115Y-99013331D01*
X139057273Y-99013331D01*
X139283236Y-99482663D01*
X139671604Y-99829797D01*
X140016671Y-99972716D01*
X140223000Y-99849374D01*
X140223000Y-98807000D01*
X140477000Y-98807000D01*
X140477000Y-99849374D01*
X140683329Y-99972716D01*
X141028396Y-99829797D01*
X141416764Y-99482663D01*
X141642727Y-99013331D01*
X141520206Y-98807000D01*
X140477000Y-98807000D01*
X140223000Y-98807000D01*
X139179794Y-98807000D01*
X139057273Y-99013331D01*
X136553115Y-99013331D01*
X137219777Y-98346669D01*
X139057273Y-98346669D01*
X139179794Y-98553000D01*
X140223000Y-98553000D01*
X140223000Y-97510626D01*
X140477000Y-97510626D01*
X140477000Y-98553000D01*
X141520206Y-98553000D01*
X141642727Y-98346669D01*
X141416764Y-97877337D01*
X141028396Y-97530203D01*
X140683329Y-97387284D01*
X140477000Y-97510626D01*
X140223000Y-97510626D01*
X140016671Y-97387284D01*
X139671604Y-97530203D01*
X139283236Y-97877337D01*
X139057273Y-98346669D01*
X137219777Y-98346669D01*
X140643067Y-94923379D01*
X141105229Y-94732418D01*
X141481098Y-94357204D01*
X141684768Y-93866713D01*
X141685231Y-93335617D01*
X141482418Y-92844771D01*
X141107204Y-92468902D01*
X140616713Y-92265232D01*
X140085617Y-92264769D01*
X139594771Y-92467582D01*
X139218902Y-92842796D01*
X139025859Y-93307695D01*
X134916554Y-97417000D01*
X128906620Y-97417000D01*
X128833923Y-97344176D01*
X128306691Y-97125250D01*
X127735813Y-97124752D01*
X127208200Y-97342757D01*
X126939417Y-97611072D01*
X126923162Y-97524683D01*
X126784090Y-97308559D01*
X126571890Y-97163569D01*
X126320000Y-97112560D01*
X124720000Y-97112560D01*
X124484683Y-97156838D01*
X124468891Y-97167000D01*
X120146696Y-97167000D01*
X120109090Y-97108559D01*
X119896890Y-96963569D01*
X119645000Y-96912560D01*
X118395000Y-96912560D01*
X118159683Y-96956838D01*
X117943559Y-97095910D01*
X117894985Y-97167000D01*
X114800000Y-97167000D01*
X114362593Y-97254006D01*
X113991777Y-97501777D01*
X112756554Y-98737000D01*
X105534755Y-98737000D01*
X105219151Y-98526120D01*
X104670000Y-98416887D01*
X104120849Y-98526120D01*
X103655302Y-98837189D01*
X103400000Y-99219275D01*
X103273000Y-99029206D01*
X103273000Y-96528941D01*
X103400142Y-96443988D01*
X103405963Y-96435275D01*
X109294331Y-96435275D01*
X109356169Y-96671042D01*
X109857122Y-96847419D01*
X110387440Y-96818664D01*
X110743831Y-96671042D01*
X110805669Y-96435275D01*
X110050000Y-95679605D01*
X109294331Y-96435275D01*
X103405963Y-96435275D01*
X103689533Y-96010882D01*
X103791154Y-95500000D01*
X103752789Y-95307122D01*
X108702581Y-95307122D01*
X108731336Y-95837440D01*
X108878958Y-96193831D01*
X109114725Y-96255669D01*
X109870395Y-95500000D01*
X110229605Y-95500000D01*
X110985275Y-96255669D01*
X111221042Y-96193831D01*
X111397419Y-95692878D01*
X111368664Y-95162560D01*
X111221042Y-94806169D01*
X110985275Y-94744331D01*
X110229605Y-95500000D01*
X109870395Y-95500000D01*
X109114725Y-94744331D01*
X108878958Y-94806169D01*
X108702581Y-95307122D01*
X103752789Y-95307122D01*
X103689533Y-94989118D01*
X103573000Y-94814713D01*
X103573000Y-94564725D01*
X109294331Y-94564725D01*
X110050000Y-95320395D01*
X110805669Y-94564725D01*
X110743831Y-94328958D01*
X110242878Y-94152581D01*
X109712560Y-94181336D01*
X109356169Y-94328958D01*
X109294331Y-94564725D01*
X103573000Y-94564725D01*
X103573000Y-92435275D01*
X109294331Y-92435275D01*
X109356169Y-92671042D01*
X109857122Y-92847419D01*
X110387440Y-92818664D01*
X110743831Y-92671042D01*
X110805669Y-92435275D01*
X110050000Y-91679605D01*
X109294331Y-92435275D01*
X103573000Y-92435275D01*
X103573000Y-92185287D01*
X103689533Y-92010882D01*
X103791154Y-91500000D01*
X103752789Y-91307122D01*
X108702581Y-91307122D01*
X108731336Y-91837440D01*
X108878958Y-92193831D01*
X109114725Y-92255669D01*
X109870395Y-91500000D01*
X110229605Y-91500000D01*
X110985275Y-92255669D01*
X111221042Y-92193831D01*
X111397419Y-91692878D01*
X111368664Y-91162560D01*
X111221042Y-90806169D01*
X110985275Y-90744331D01*
X110229605Y-91500000D01*
X109870395Y-91500000D01*
X109114725Y-90744331D01*
X108878958Y-90806169D01*
X108702581Y-91307122D01*
X103752789Y-91307122D01*
X103689533Y-90989118D01*
X103573000Y-90814713D01*
X103573000Y-90564725D01*
X109294331Y-90564725D01*
X110050000Y-91320395D01*
X110805669Y-90564725D01*
X110743831Y-90328958D01*
X110242878Y-90152581D01*
X109712560Y-90181336D01*
X109356169Y-90328958D01*
X109294331Y-90564725D01*
X103573000Y-90564725D01*
X103573000Y-89078914D01*
X103751441Y-88964090D01*
X103896431Y-88751890D01*
X103947440Y-88500000D01*
X103947440Y-88469006D01*
X104289444Y-88127002D01*
X104323748Y-88127002D01*
X104165000Y-88285750D01*
X104165000Y-88626310D01*
X104261673Y-88859699D01*
X104440302Y-89038327D01*
X104673691Y-89135000D01*
X105014250Y-89135000D01*
X105173000Y-88976250D01*
X105173000Y-88127000D01*
X105427000Y-88127000D01*
X105427000Y-88976250D01*
X105585750Y-89135000D01*
X105926309Y-89135000D01*
X106159698Y-89038327D01*
X106338327Y-88859699D01*
X106435000Y-88626310D01*
X106435000Y-88285750D01*
X106276250Y-88127000D01*
X105427000Y-88127000D01*
X105173000Y-88127000D01*
X105153000Y-88127000D01*
X105153000Y-87873000D01*
X105173000Y-87873000D01*
X105173000Y-87023750D01*
X105427000Y-87023750D01*
X105427000Y-87873000D01*
X106276250Y-87873000D01*
X106435000Y-87714250D01*
X106435000Y-87373690D01*
X106338327Y-87140301D01*
X106159698Y-86961673D01*
X105926309Y-86865000D01*
X105585750Y-86865000D01*
X105427000Y-87023750D01*
X105173000Y-87023750D01*
X105014250Y-86865000D01*
X105003000Y-86865000D01*
X105003000Y-78410167D01*
X123339838Y-78410167D01*
X123481883Y-78753943D01*
X123744673Y-79017192D01*
X124088201Y-79159838D01*
X124460167Y-79160162D01*
X124803943Y-79018117D01*
X125067192Y-78755327D01*
X125209838Y-78411799D01*
X125210162Y-78039833D01*
X125142055Y-77875000D01*
X140907000Y-77875000D01*
X140994006Y-78312407D01*
X141241777Y-78683223D01*
X141316777Y-78758223D01*
X141687593Y-79005994D01*
X142125000Y-79093000D01*
X142150000Y-79093000D01*
X142587407Y-79005994D01*
X142958223Y-78758223D01*
X143205994Y-78387407D01*
X143293000Y-77950000D01*
X143205994Y-77512593D01*
X142958223Y-77141777D01*
X142882881Y-77091435D01*
X142858223Y-77066777D01*
X142487407Y-76819006D01*
X142050000Y-76732000D01*
X141612593Y-76819006D01*
X141241777Y-77066777D01*
X140994006Y-77437593D01*
X140907000Y-77875000D01*
X125142055Y-77875000D01*
X125068117Y-77696057D01*
X124805327Y-77432808D01*
X124461799Y-77290162D01*
X124089833Y-77289838D01*
X123746057Y-77431883D01*
X123482808Y-77694673D01*
X123340162Y-78038201D01*
X123339838Y-78410167D01*
X105003000Y-78410167D01*
X105003000Y-66253331D01*
X129107273Y-66253331D01*
X129333236Y-66722663D01*
X129721604Y-67069797D01*
X130066671Y-67212716D01*
X130273000Y-67089374D01*
X130273000Y-66047000D01*
X130527000Y-66047000D01*
X130527000Y-67089374D01*
X130733329Y-67212716D01*
X131078396Y-67069797D01*
X131466764Y-66722663D01*
X131692727Y-66253331D01*
X133107273Y-66253331D01*
X133333236Y-66722663D01*
X133721604Y-67069797D01*
X134066671Y-67212716D01*
X134273000Y-67089374D01*
X134273000Y-66047000D01*
X134527000Y-66047000D01*
X134527000Y-67089374D01*
X134733329Y-67212716D01*
X135078396Y-67069797D01*
X135466764Y-66722663D01*
X135692727Y-66253331D01*
X135570206Y-66047000D01*
X134527000Y-66047000D01*
X134273000Y-66047000D01*
X133229794Y-66047000D01*
X133107273Y-66253331D01*
X131692727Y-66253331D01*
X131570206Y-66047000D01*
X130527000Y-66047000D01*
X130273000Y-66047000D01*
X129229794Y-66047000D01*
X129107273Y-66253331D01*
X105003000Y-66253331D01*
X105003000Y-65586669D01*
X129107273Y-65586669D01*
X129229794Y-65793000D01*
X130273000Y-65793000D01*
X130273000Y-64750626D01*
X130527000Y-64750626D01*
X130527000Y-65793000D01*
X131570206Y-65793000D01*
X131692727Y-65586669D01*
X133107273Y-65586669D01*
X133229794Y-65793000D01*
X134273000Y-65793000D01*
X134273000Y-64750626D01*
X134527000Y-64750626D01*
X134527000Y-65793000D01*
X135570206Y-65793000D01*
X135692727Y-65586669D01*
X135466764Y-65117337D01*
X135078396Y-64770203D01*
X134733329Y-64627284D01*
X134527000Y-64750626D01*
X134273000Y-64750626D01*
X134066671Y-64627284D01*
X133721604Y-64770203D01*
X133333236Y-65117337D01*
X133107273Y-65586669D01*
X131692727Y-65586669D01*
X131466764Y-65117337D01*
X131078396Y-64770203D01*
X130733329Y-64627284D01*
X130527000Y-64750626D01*
X130273000Y-64750626D01*
X130066671Y-64627284D01*
X129721604Y-64770203D01*
X129333236Y-65117337D01*
X129107273Y-65586669D01*
X105003000Y-65586669D01*
X105003000Y-64235275D01*
X138644331Y-64235275D01*
X138706169Y-64471042D01*
X139207122Y-64647419D01*
X139737440Y-64618664D01*
X140093831Y-64471042D01*
X140155669Y-64235275D01*
X139400000Y-63479605D01*
X138644331Y-64235275D01*
X105003000Y-64235275D01*
X105003000Y-63107122D01*
X138052581Y-63107122D01*
X138081336Y-63637440D01*
X138228958Y-63993831D01*
X138464725Y-64055669D01*
X139220395Y-63300000D01*
X139579605Y-63300000D01*
X140335275Y-64055669D01*
X140571042Y-63993831D01*
X140747419Y-63492878D01*
X140718664Y-62962560D01*
X140571042Y-62606169D01*
X140335275Y-62544331D01*
X139579605Y-63300000D01*
X139220395Y-63300000D01*
X138464725Y-62544331D01*
X138228958Y-62606169D01*
X138052581Y-63107122D01*
X105003000Y-63107122D01*
X105003000Y-62364725D01*
X138644331Y-62364725D01*
X139400000Y-63120395D01*
X140155669Y-62364725D01*
X140093831Y-62128958D01*
X139592878Y-61952581D01*
X139062560Y-61981336D01*
X138706169Y-62128958D01*
X138644331Y-62364725D01*
X105003000Y-62364725D01*
X105003000Y-61189041D01*
X114008086Y-61189041D01*
X114247611Y-61695134D01*
X114662577Y-62071041D01*
X115050961Y-62231904D01*
X115273000Y-62109915D01*
X115273000Y-60967000D01*
X115527000Y-60967000D01*
X115527000Y-62109915D01*
X115749039Y-62231904D01*
X116137423Y-62071041D01*
X116552389Y-61695134D01*
X116791914Y-61189041D01*
X116670629Y-60967000D01*
X115527000Y-60967000D01*
X115273000Y-60967000D01*
X114129371Y-60967000D01*
X114008086Y-61189041D01*
X105003000Y-61189041D01*
X105003000Y-59164755D01*
X105127592Y-58978290D01*
X105182757Y-59111800D01*
X105586077Y-59515824D01*
X106113309Y-59734750D01*
X106684187Y-59735248D01*
X107211800Y-59517243D01*
X107286173Y-59443000D01*
X114513380Y-59443000D01*
X114586077Y-59515824D01*
X114736568Y-59578313D01*
X114662577Y-59608959D01*
X114247611Y-59984866D01*
X114008086Y-60490959D01*
X114129371Y-60713000D01*
X115273000Y-60713000D01*
X115273000Y-60693000D01*
X115527000Y-60693000D01*
X115527000Y-60713000D01*
X116670629Y-60713000D01*
X116740136Y-60585750D01*
X121415000Y-60585750D01*
X121415000Y-60876309D01*
X121511673Y-61109698D01*
X121690301Y-61288327D01*
X121923690Y-61385000D01*
X122164250Y-61385000D01*
X122323000Y-61226250D01*
X122323000Y-60427000D01*
X121573750Y-60427000D01*
X121415000Y-60585750D01*
X116740136Y-60585750D01*
X116791914Y-60490959D01*
X116552389Y-59984866D01*
X116137423Y-59608959D01*
X116063715Y-59578430D01*
X116211800Y-59517243D01*
X116286173Y-59443000D01*
X121558975Y-59443000D01*
X121511673Y-59490302D01*
X121415000Y-59723691D01*
X121415000Y-60014250D01*
X121573750Y-60173000D01*
X122323000Y-60173000D01*
X122323000Y-60153000D01*
X122577000Y-60153000D01*
X122577000Y-60173000D01*
X122597000Y-60173000D01*
X122597000Y-60427000D01*
X122577000Y-60427000D01*
X122577000Y-61226250D01*
X122735750Y-61385000D01*
X122976310Y-61385000D01*
X123209699Y-61288327D01*
X123388327Y-61109698D01*
X123403423Y-61073253D01*
X123485910Y-61201441D01*
X123698110Y-61346431D01*
X123950000Y-61397440D01*
X124750000Y-61397440D01*
X124985317Y-61353162D01*
X125201441Y-61214090D01*
X125346431Y-61001890D01*
X125397440Y-60750000D01*
X125397440Y-59850000D01*
X125353162Y-59614683D01*
X125242687Y-59443000D01*
X129671459Y-59443000D01*
X130133287Y-59634768D01*
X130664383Y-59635231D01*
X131129619Y-59443000D01*
X133671459Y-59443000D01*
X134133287Y-59634768D01*
X134664383Y-59635231D01*
X135155229Y-59432418D01*
X135224768Y-59363000D01*
X138714713Y-59363000D01*
X138889118Y-59479533D01*
X139400000Y-59581154D01*
X139910882Y-59479533D01*
X140343988Y-59190142D01*
X140633379Y-58757036D01*
X140735000Y-58246154D01*
X140735000Y-58193846D01*
X140633379Y-57682964D01*
X140343988Y-57249858D01*
X139910882Y-56960467D01*
X139400000Y-56858846D01*
X138889118Y-56960467D01*
X138714713Y-57077000D01*
X134935880Y-57077000D01*
X134666713Y-56965232D01*
X134135617Y-56964769D01*
X133670381Y-57157000D01*
X131128541Y-57157000D01*
X130666713Y-56965232D01*
X130135617Y-56964769D01*
X129670381Y-57157000D01*
X116286620Y-57157000D01*
X116213923Y-57084176D01*
X115686691Y-56865250D01*
X115115813Y-56864752D01*
X114588200Y-57082757D01*
X114513827Y-57157000D01*
X107286620Y-57157000D01*
X107213923Y-57084176D01*
X106686691Y-56865250D01*
X106115813Y-56864752D01*
X105588200Y-57082757D01*
X105184176Y-57486077D01*
X105127755Y-57621954D01*
X104902811Y-57285302D01*
X104437264Y-56974233D01*
X103888113Y-56865000D01*
X103831887Y-56865000D01*
X103282736Y-56974233D01*
X102817189Y-57285302D01*
X102506120Y-57750849D01*
X102396887Y-58300000D01*
X102506120Y-58849151D01*
X102717000Y-59164755D01*
X102717000Y-86466554D01*
X102330994Y-86852560D01*
X102300000Y-86852560D01*
X102064683Y-86896838D01*
X101848559Y-87035910D01*
X101703569Y-87248110D01*
X101652560Y-87500000D01*
X101652560Y-87530994D01*
X101621777Y-87561777D01*
X101374006Y-87932593D01*
X101287000Y-88370000D01*
X101287000Y-90814713D01*
X101170467Y-90989118D01*
X101068846Y-91500000D01*
X101170467Y-92010882D01*
X101287000Y-92185287D01*
X101287000Y-94814713D01*
X101170467Y-94989118D01*
X101105576Y-95315345D01*
X101074006Y-95362593D01*
X100987000Y-95800000D01*
X100987000Y-99029206D01*
X100860000Y-99219275D01*
X100733000Y-99029206D01*
X100733000Y-95920000D01*
X100645994Y-95482593D01*
X100477545Y-95230491D01*
X100429533Y-94989118D01*
X100140142Y-94556012D01*
X99707036Y-94266621D01*
X99196154Y-94165000D01*
X99143846Y-94165000D01*
X98632964Y-94266621D01*
X98199858Y-94556012D01*
X97910467Y-94989118D01*
X97808846Y-95500000D01*
X97910467Y-96010882D01*
X98199858Y-96443988D01*
X98447000Y-96609122D01*
X98447000Y-99029206D01*
X98320000Y-99219275D01*
X98064698Y-98837189D01*
X97599151Y-98526120D01*
X97050000Y-98416887D01*
X96500849Y-98526120D01*
X96185245Y-98737000D01*
X91170000Y-98737000D01*
X90732593Y-98824006D01*
X90361777Y-99071777D01*
X89368712Y-100064842D01*
X89265813Y-100064752D01*
X88738200Y-100282757D01*
X88334176Y-100686077D01*
X88115250Y-101213309D01*
X88114752Y-101784187D01*
X88332757Y-102311800D01*
X88601072Y-102580583D01*
X88514683Y-102596838D01*
X88298559Y-102735910D01*
X88153569Y-102948110D01*
X88102560Y-103200000D01*
X78133000Y-103200000D01*
X78133000Y-96435275D01*
X90794331Y-96435275D01*
X90856169Y-96671042D01*
X91357122Y-96847419D01*
X91887440Y-96818664D01*
X92243831Y-96671042D01*
X92305669Y-96435275D01*
X91550000Y-95679605D01*
X90794331Y-96435275D01*
X78133000Y-96435275D01*
X78133000Y-95307122D01*
X90202581Y-95307122D01*
X90231336Y-95837440D01*
X90378958Y-96193831D01*
X90614725Y-96255669D01*
X91370395Y-95500000D01*
X91729605Y-95500000D01*
X92485275Y-96255669D01*
X92721042Y-96193831D01*
X92897419Y-95692878D01*
X92868664Y-95162560D01*
X92721042Y-94806169D01*
X92485275Y-94744331D01*
X91729605Y-95500000D01*
X91370395Y-95500000D01*
X90614725Y-94744331D01*
X90378958Y-94806169D01*
X90202581Y-95307122D01*
X78133000Y-95307122D01*
X78133000Y-94564725D01*
X90794331Y-94564725D01*
X91550000Y-95320395D01*
X92305669Y-94564725D01*
X92243831Y-94328958D01*
X91742878Y-94152581D01*
X91212560Y-94181336D01*
X90856169Y-94328958D01*
X90794331Y-94564725D01*
X78133000Y-94564725D01*
X78133000Y-75754224D01*
X78260000Y-75564155D01*
X78387000Y-75754224D01*
X78387000Y-77570000D01*
X78474006Y-78007407D01*
X78721777Y-78378223D01*
X82972560Y-82629006D01*
X82972560Y-83280000D01*
X83016838Y-83515317D01*
X83155910Y-83731441D01*
X83368110Y-83876431D01*
X83620000Y-83927440D01*
X85320000Y-83927440D01*
X85555317Y-83883162D01*
X85771441Y-83744090D01*
X85916431Y-83531890D01*
X85930086Y-83464459D01*
X85959946Y-83509147D01*
X86441715Y-83831054D01*
X87010000Y-83944093D01*
X87578285Y-83831054D01*
X87964491Y-83573000D01*
X92130000Y-83573000D01*
X92567407Y-83485994D01*
X92938223Y-83238223D01*
X95328223Y-80848223D01*
X95575994Y-80477407D01*
X95663000Y-80040000D01*
X95663000Y-78800000D01*
X97707000Y-78800000D01*
X97794006Y-79237407D01*
X98041777Y-79608223D01*
X98412593Y-79855994D01*
X98850000Y-79943000D01*
X99287407Y-79855994D01*
X99658223Y-79608223D01*
X99933223Y-79333223D01*
X100180994Y-78962407D01*
X100268000Y-78525000D01*
X100180994Y-78087593D01*
X99933223Y-77716777D01*
X99562407Y-77469006D01*
X99125000Y-77382000D01*
X98687593Y-77469006D01*
X98316777Y-77716777D01*
X98041777Y-77991777D01*
X97794006Y-78362593D01*
X97707000Y-78800000D01*
X95663000Y-78800000D01*
X95663000Y-77922298D01*
X95753379Y-77787036D01*
X95855000Y-77276154D01*
X95855000Y-77223846D01*
X95753379Y-76712964D01*
X95463988Y-76279858D01*
X95030882Y-75990467D01*
X94520000Y-75888846D01*
X94009118Y-75990467D01*
X93834713Y-76107000D01*
X89553446Y-76107000D01*
X82963000Y-69516554D01*
X82963000Y-65995287D01*
X83079533Y-65820882D01*
X83181154Y-65310000D01*
X83079533Y-64799118D01*
X82790142Y-64366012D01*
X82357036Y-64076621D01*
X81846154Y-63975000D01*
X81793846Y-63975000D01*
X81282964Y-64076621D01*
X80849858Y-64366012D01*
X80560467Y-64799118D01*
X80458846Y-65310000D01*
X80560467Y-65820882D01*
X80677000Y-65995287D01*
X80677000Y-69990000D01*
X80764006Y-70427407D01*
X81011777Y-70798223D01*
X88271777Y-78058223D01*
X88642593Y-78305994D01*
X89080000Y-78393000D01*
X93377000Y-78393000D01*
X93377000Y-79566554D01*
X91656554Y-81287000D01*
X87964491Y-81287000D01*
X87578285Y-81028946D01*
X87010000Y-80915907D01*
X86441715Y-81028946D01*
X85959946Y-81350853D01*
X85932150Y-81392452D01*
X85923162Y-81344683D01*
X85784090Y-81128559D01*
X85571890Y-80983569D01*
X85320000Y-80932560D01*
X84509006Y-80932560D01*
X80673000Y-77096554D01*
X80673000Y-75754224D01*
X80978227Y-75297419D01*
X81095072Y-74710000D01*
X80978227Y-74122581D01*
X80645481Y-73624591D01*
X80147491Y-73291845D01*
X79560072Y-73175000D01*
X79499928Y-73175000D01*
X78912509Y-73291845D01*
X78414519Y-73624591D01*
X78260000Y-73855845D01*
X78105481Y-73624591D01*
X77607491Y-73291845D01*
X77020072Y-73175000D01*
X76959928Y-73175000D01*
X76372509Y-73291845D01*
X75951974Y-73572837D01*
X75814090Y-73358559D01*
X75601890Y-73213569D01*
X75350000Y-73162560D01*
X73550000Y-73162560D01*
X73314683Y-73206838D01*
X73098559Y-73345910D01*
X72953569Y-73558110D01*
X72902560Y-73810000D01*
X67743000Y-73810000D01*
X67743000Y-68373446D01*
X73523446Y-62593000D01*
X88426554Y-62593000D01*
X93377000Y-67543446D01*
X93377000Y-67750554D01*
X90128223Y-64501777D01*
X89757407Y-64254006D01*
X89320000Y-64167000D01*
X87628541Y-64167000D01*
X87166713Y-63975232D01*
X86635617Y-63974769D01*
X86144771Y-64177582D01*
X85768902Y-64552796D01*
X85565232Y-65043287D01*
X85564769Y-65574383D01*
X85767582Y-66065229D01*
X86142796Y-66441098D01*
X86633287Y-66644768D01*
X87164383Y-66645231D01*
X87629619Y-66453000D01*
X88846554Y-66453000D01*
X93377000Y-70983446D01*
X93377000Y-71441459D01*
X93185232Y-71903287D01*
X93184769Y-72434383D01*
X93387582Y-72925229D01*
X93762796Y-73301098D01*
X94253287Y-73504768D01*
X94784383Y-73505231D01*
X95275229Y-73302418D01*
X95651098Y-72927204D01*
X95854768Y-72436713D01*
X95855231Y-71905617D01*
X95663000Y-71440381D01*
X95663000Y-67070000D01*
X95575994Y-66632593D01*
X95328223Y-66261777D01*
X89708223Y-60641777D01*
X89337407Y-60394006D01*
X88900000Y-60307000D01*
X73050000Y-60307000D01*
X72612593Y-60394006D01*
X72241777Y-60641777D01*
X65791777Y-67091777D01*
X65544006Y-67462593D01*
X65457000Y-67900000D01*
X25552000Y-67900000D01*
X25552000Y-59493991D01*
X34639735Y-59493991D01*
X34872932Y-60058371D01*
X35304357Y-60490551D01*
X35868330Y-60724733D01*
X36478991Y-60725265D01*
X37043371Y-60492068D01*
X37202717Y-60333000D01*
X51910000Y-60333000D01*
X52347407Y-60245994D01*
X52718223Y-59998223D01*
X55202923Y-57513523D01*
X55450694Y-57142707D01*
X55537700Y-56705300D01*
X55537700Y-53245194D01*
X55720467Y-52971664D01*
X55728092Y-52933329D01*
X72227284Y-52933329D01*
X72370203Y-53278396D01*
X72717337Y-53666764D01*
X73186669Y-53892727D01*
X73393000Y-53770206D01*
X73393000Y-52727000D01*
X73647000Y-52727000D01*
X73647000Y-53770206D01*
X73853331Y-53892727D01*
X74322663Y-53666764D01*
X74669797Y-53278396D01*
X74812716Y-52933329D01*
X74689374Y-52727000D01*
X73647000Y-52727000D01*
X73393000Y-52727000D01*
X72350626Y-52727000D01*
X72227284Y-52933329D01*
X55728092Y-52933329D01*
X55829700Y-52422513D01*
X55829700Y-52366287D01*
X55809886Y-52266671D01*
X72227284Y-52266671D01*
X72350626Y-52473000D01*
X73393000Y-52473000D01*
X73393000Y-51429794D01*
X73647000Y-51429794D01*
X73647000Y-52473000D01*
X74689374Y-52473000D01*
X74812716Y-52266671D01*
X74669797Y-51921604D01*
X74322663Y-51533236D01*
X73853331Y-51307273D01*
X73647000Y-51429794D01*
X73393000Y-51429794D01*
X73186669Y-51307273D01*
X72717337Y-51533236D01*
X72370203Y-51921604D01*
X72227284Y-52266671D01*
X55809886Y-52266671D01*
X55720467Y-51817136D01*
X55409398Y-51351589D01*
X55072990Y-51126808D01*
X55206500Y-51071643D01*
X55610524Y-50668323D01*
X55829450Y-50141091D01*
X55829948Y-49570213D01*
X55611943Y-49042600D01*
X55537700Y-48968227D01*
X55537700Y-44114000D01*
X62038448Y-44114000D01*
X62141709Y-44268541D01*
X62737026Y-44666319D01*
X63439250Y-44806000D01*
X63511150Y-44806000D01*
X64213374Y-44666319D01*
X64808691Y-44268541D01*
X65206469Y-43673224D01*
X65346150Y-42971000D01*
X65206469Y-42268776D01*
X64808691Y-41673459D01*
X64213374Y-41275681D01*
X63511150Y-41136000D01*
X63439250Y-41136000D01*
X62737026Y-41275681D01*
X62141709Y-41673459D01*
X62038448Y-41828000D01*
X55427313Y-41828000D01*
X55409398Y-41801189D01*
X55072990Y-41576408D01*
X55206500Y-41521243D01*
X55610524Y-41117923D01*
X55829450Y-40590691D01*
X55829948Y-40019813D01*
X55611943Y-39492200D01*
X55208623Y-39088176D01*
X54681391Y-38869250D01*
X54576304Y-38869158D01*
X53957146Y-38250000D01*
X76739050Y-38250000D01*
X76878731Y-38952224D01*
X77276509Y-39547541D01*
X77572200Y-39745115D01*
X77572200Y-41123560D01*
X77515200Y-41123560D01*
X77279883Y-41167838D01*
X77063759Y-41306910D01*
X76918769Y-41519110D01*
X76867760Y-41771000D01*
X76867760Y-44171000D01*
X76912038Y-44406317D01*
X77051110Y-44622441D01*
X77263310Y-44767431D01*
X77457000Y-44806654D01*
X77457000Y-51871459D01*
X77265232Y-52333287D01*
X77264769Y-52864383D01*
X77467582Y-53355229D01*
X77842796Y-53731098D01*
X78333287Y-53934768D01*
X78864383Y-53935231D01*
X79355229Y-53732418D01*
X79731098Y-53357204D01*
X79934768Y-52866713D01*
X79935231Y-52335617D01*
X79743000Y-51870381D01*
X79743000Y-51500645D01*
X88341765Y-51500645D01*
X88574318Y-52062098D01*
X89065184Y-52583332D01*
X89718153Y-52877043D01*
X90002960Y-52760698D01*
X90002960Y-51215840D01*
X90256960Y-51215840D01*
X90256960Y-52760698D01*
X90541767Y-52877043D01*
X91194736Y-52583332D01*
X91685602Y-52062098D01*
X91918155Y-51500645D01*
X91801392Y-51215840D01*
X90256960Y-51215840D01*
X90002960Y-51215840D01*
X88458528Y-51215840D01*
X88341765Y-51500645D01*
X79743000Y-51500645D01*
X79743000Y-50677035D01*
X88341765Y-50677035D01*
X88458528Y-50961840D01*
X90002960Y-50961840D01*
X90002960Y-49416982D01*
X90256960Y-49416982D01*
X90256960Y-50961840D01*
X91801392Y-50961840D01*
X91918155Y-50677035D01*
X91685602Y-50115582D01*
X91194736Y-49594348D01*
X90541767Y-49300637D01*
X90256960Y-49416982D01*
X90002960Y-49416982D01*
X89718153Y-49300637D01*
X89065184Y-49594348D01*
X88574318Y-50115582D01*
X88341765Y-50677035D01*
X79743000Y-50677035D01*
X79743000Y-46097745D01*
X93172781Y-46097745D01*
X93246915Y-46343864D01*
X93784143Y-46536965D01*
X94354374Y-46509778D01*
X94754925Y-46343864D01*
X94829059Y-46097745D01*
X94000920Y-45269605D01*
X93172781Y-46097745D01*
X79743000Y-46097745D01*
X79743000Y-44873223D01*
X92553955Y-44873223D01*
X92581142Y-45443454D01*
X92747056Y-45844005D01*
X92993175Y-45918139D01*
X93821315Y-45090000D01*
X94180525Y-45090000D01*
X95008665Y-45918139D01*
X95254784Y-45844005D01*
X95447885Y-45306777D01*
X95420698Y-44736546D01*
X95254784Y-44335995D01*
X95008665Y-44261861D01*
X94180525Y-45090000D01*
X93821315Y-45090000D01*
X92993175Y-44261861D01*
X92747056Y-44335995D01*
X92553955Y-44873223D01*
X79743000Y-44873223D01*
X79743000Y-44818440D01*
X79915200Y-44818440D01*
X80150517Y-44774162D01*
X80366641Y-44635090D01*
X80511631Y-44422890D01*
X80562640Y-44171000D01*
X80562640Y-41771000D01*
X80518362Y-41535683D01*
X80379290Y-41319559D01*
X80167090Y-41174569D01*
X79915200Y-41123560D01*
X79858200Y-41123560D01*
X79858200Y-39604531D01*
X79943491Y-39547541D01*
X80341269Y-38952224D01*
X80480950Y-38250000D01*
X80341269Y-37547776D01*
X79943491Y-36952459D01*
X79348174Y-36554681D01*
X78645950Y-36415000D01*
X78574050Y-36415000D01*
X77871826Y-36554681D01*
X77276509Y-36952459D01*
X76878731Y-37547776D01*
X76739050Y-38250000D01*
X53957146Y-38250000D01*
X51609063Y-35901917D01*
X78191504Y-35901917D01*
X78506053Y-36276684D01*
X79707259Y-36612188D01*
X80945420Y-36462471D01*
X81393947Y-36276684D01*
X81708496Y-35901917D01*
X79950000Y-34143420D01*
X78191504Y-35901917D01*
X51609063Y-35901917D01*
X50356100Y-34648954D01*
X50356100Y-34210423D01*
X50546591Y-34083141D01*
X50944369Y-33487824D01*
X51084050Y-32785600D01*
X50944369Y-32083376D01*
X50611766Y-31585600D01*
X62605660Y-31585600D01*
X62605660Y-33985600D01*
X62649938Y-34220917D01*
X62789010Y-34437041D01*
X63001210Y-34582031D01*
X63253100Y-34633040D01*
X65653100Y-34633040D01*
X65888417Y-34588762D01*
X66104541Y-34449690D01*
X66249531Y-34237490D01*
X66300540Y-33985600D01*
X66300540Y-33182259D01*
X76762812Y-33182259D01*
X76912529Y-34420420D01*
X77098316Y-34868947D01*
X77473083Y-35183496D01*
X79231580Y-33425000D01*
X80668420Y-33425000D01*
X82426917Y-35183496D01*
X82801684Y-34868947D01*
X83137188Y-33667741D01*
X82987471Y-32429580D01*
X82801684Y-31981053D01*
X82426917Y-31666504D01*
X80668420Y-33425000D01*
X79231580Y-33425000D01*
X77473083Y-31666504D01*
X77098316Y-31981053D01*
X76762812Y-33182259D01*
X66300540Y-33182259D01*
X66300540Y-31715906D01*
X67068363Y-30948083D01*
X78191504Y-30948083D01*
X79950000Y-32706580D01*
X81708496Y-30948083D01*
X81393947Y-30573316D01*
X80192741Y-30237812D01*
X78954580Y-30387529D01*
X78506053Y-30573316D01*
X78191504Y-30948083D01*
X67068363Y-30948083D01*
X68573446Y-29443000D01*
X89926554Y-29443000D01*
X92707000Y-32223446D01*
X92707000Y-36402560D01*
X92650000Y-36402560D01*
X92414683Y-36446838D01*
X92198559Y-36585910D01*
X92053569Y-36798110D01*
X92002560Y-37050000D01*
X92002560Y-39450000D01*
X92046838Y-39685317D01*
X92185910Y-39901441D01*
X92398110Y-40046431D01*
X92650000Y-40097440D01*
X92857920Y-40097440D01*
X92857920Y-41256130D01*
X92749479Y-41325910D01*
X92604489Y-41538110D01*
X92553480Y-41790000D01*
X92553480Y-43390000D01*
X92597758Y-43625317D01*
X92736830Y-43841441D01*
X92949030Y-43986431D01*
X93187121Y-44034646D01*
X93172781Y-44082255D01*
X94000920Y-44910395D01*
X94829059Y-44082255D01*
X94814775Y-44034833D01*
X95036237Y-43993162D01*
X95252361Y-43854090D01*
X95335098Y-43733000D01*
X99555332Y-43733000D01*
X100013441Y-43923224D01*
X100644988Y-43923775D01*
X101228672Y-43682602D01*
X101600857Y-43311065D01*
X101970179Y-43681032D01*
X102553441Y-43923224D01*
X103184988Y-43923775D01*
X103768672Y-43682602D01*
X104140857Y-43311065D01*
X104226960Y-43397319D01*
X104226960Y-49241400D01*
X104169960Y-49241400D01*
X103934643Y-49285678D01*
X103718519Y-49424750D01*
X103573529Y-49636950D01*
X103522520Y-49888840D01*
X103522520Y-52288840D01*
X103566798Y-52524157D01*
X103705870Y-52740281D01*
X103918070Y-52885271D01*
X104169960Y-52936280D01*
X106569960Y-52936280D01*
X106805277Y-52892002D01*
X107021401Y-52752930D01*
X107166391Y-52540730D01*
X107185220Y-52447745D01*
X121493781Y-52447745D01*
X121567915Y-52693864D01*
X122105143Y-52886965D01*
X122675374Y-52859778D01*
X123075925Y-52693864D01*
X123150059Y-52447745D01*
X122321920Y-51619605D01*
X121493781Y-52447745D01*
X107185220Y-52447745D01*
X107217400Y-52288840D01*
X107217400Y-52231840D01*
X107681760Y-52231840D01*
X108119167Y-52144834D01*
X108489983Y-51897063D01*
X109163823Y-51223223D01*
X120874955Y-51223223D01*
X120902142Y-51793454D01*
X121068056Y-52194005D01*
X121314175Y-52268139D01*
X122142315Y-51440000D01*
X122501525Y-51440000D01*
X123329665Y-52268139D01*
X123575784Y-52194005D01*
X123768885Y-51656777D01*
X123741698Y-51086546D01*
X123575784Y-50685995D01*
X123329665Y-50611861D01*
X122501525Y-51440000D01*
X122142315Y-51440000D01*
X121314175Y-50611861D01*
X121068056Y-50685995D01*
X120874955Y-51223223D01*
X109163823Y-51223223D01*
X109699606Y-50687440D01*
X110580600Y-50687440D01*
X110815917Y-50643162D01*
X111032041Y-50504090D01*
X111177031Y-50291890D01*
X111228040Y-50040000D01*
X111228040Y-47840000D01*
X111183762Y-47604683D01*
X111044690Y-47388559D01*
X110832490Y-47243569D01*
X110580600Y-47192560D01*
X109080600Y-47192560D01*
X108845283Y-47236838D01*
X108629159Y-47375910D01*
X108484169Y-47588110D01*
X108433160Y-47840000D01*
X108433160Y-48720994D01*
X107217400Y-49936754D01*
X107217400Y-49888840D01*
X107173122Y-49653523D01*
X107034050Y-49437399D01*
X106821850Y-49292409D01*
X106569960Y-49241400D01*
X106512960Y-49241400D01*
X106512960Y-43478670D01*
X106680857Y-43311065D01*
X107050179Y-43681032D01*
X107633441Y-43923224D01*
X108264988Y-43923775D01*
X108848672Y-43682602D01*
X109295632Y-43236421D01*
X109537824Y-42653159D01*
X109538375Y-42021612D01*
X109297202Y-41437928D01*
X108851021Y-40990968D01*
X108267759Y-40748776D01*
X107636212Y-40748225D01*
X107052528Y-40989398D01*
X106680343Y-41360935D01*
X106311021Y-40990968D01*
X105727759Y-40748776D01*
X105096212Y-40748225D01*
X104512528Y-40989398D01*
X104140343Y-41360935D01*
X103771021Y-40990968D01*
X103187759Y-40748776D01*
X102556212Y-40748225D01*
X101972528Y-40989398D01*
X101600343Y-41360935D01*
X101231021Y-40990968D01*
X100647759Y-40748776D01*
X100016212Y-40748225D01*
X99432528Y-40989398D01*
X98985568Y-41435579D01*
X98980826Y-41447000D01*
X95334790Y-41447000D01*
X95265010Y-41338559D01*
X95143920Y-41255822D01*
X95143920Y-40079768D01*
X95285317Y-40053162D01*
X95501441Y-39914090D01*
X95646431Y-39701890D01*
X95697440Y-39450000D01*
X95697440Y-37050000D01*
X95653162Y-36814683D01*
X95514090Y-36598559D01*
X95301890Y-36453569D01*
X95050000Y-36402560D01*
X94993000Y-36402560D01*
X94993000Y-35834159D01*
X99392046Y-35834159D01*
X99484888Y-36096088D01*
X100077401Y-36314675D01*
X100708461Y-36289878D01*
X101176312Y-36096088D01*
X101269154Y-35834159D01*
X101932046Y-35834159D01*
X102024888Y-36096088D01*
X102617401Y-36314675D01*
X103248461Y-36289878D01*
X103716312Y-36096088D01*
X103809154Y-35834159D01*
X104472046Y-35834159D01*
X104564888Y-36096088D01*
X105157401Y-36314675D01*
X105788461Y-36289878D01*
X106256312Y-36096088D01*
X106349154Y-35834159D01*
X105410600Y-34895605D01*
X104472046Y-35834159D01*
X103809154Y-35834159D01*
X102870600Y-34895605D01*
X101932046Y-35834159D01*
X101269154Y-35834159D01*
X100330600Y-34895605D01*
X99392046Y-35834159D01*
X94993000Y-35834159D01*
X94993000Y-34866879D01*
X95250000Y-34918000D01*
X95687407Y-34830994D01*
X96058223Y-34583223D01*
X96138686Y-34462801D01*
X98731925Y-34462801D01*
X98756722Y-35093861D01*
X98950512Y-35561712D01*
X99212441Y-35654554D01*
X100150995Y-34716000D01*
X100510205Y-34716000D01*
X101448759Y-35654554D01*
X101600600Y-35600733D01*
X101752441Y-35654554D01*
X102690995Y-34716000D01*
X103050205Y-34716000D01*
X103988759Y-35654554D01*
X104140600Y-35600733D01*
X104292441Y-35654554D01*
X105230995Y-34716000D01*
X105590205Y-34716000D01*
X106528759Y-35654554D01*
X106614183Y-35624275D01*
X107050179Y-36061032D01*
X107633441Y-36303224D01*
X107921629Y-36303475D01*
X115087600Y-43469446D01*
X115087600Y-47338304D01*
X115029159Y-47375910D01*
X114884169Y-47588110D01*
X114833160Y-47840000D01*
X114833160Y-50040000D01*
X114877438Y-50275317D01*
X115016510Y-50491441D01*
X115228710Y-50636431D01*
X115480600Y-50687440D01*
X116980600Y-50687440D01*
X117215917Y-50643162D01*
X117432041Y-50504090D01*
X117577031Y-50291890D01*
X117619332Y-50083000D01*
X120988050Y-50083000D01*
X121057830Y-50191441D01*
X121270030Y-50336431D01*
X121508121Y-50384646D01*
X121493781Y-50432255D01*
X122321920Y-51260395D01*
X123150059Y-50432255D01*
X123135775Y-50384833D01*
X123357237Y-50343162D01*
X123573361Y-50204090D01*
X123718351Y-49991890D01*
X123769360Y-49740000D01*
X123769360Y-48140000D01*
X123725082Y-47904683D01*
X123586010Y-47688559D01*
X123431900Y-47583260D01*
X123431900Y-45463331D01*
X128903193Y-45463331D01*
X129129156Y-45932663D01*
X129517524Y-46279797D01*
X129862591Y-46422716D01*
X130068920Y-46299374D01*
X130068920Y-45257000D01*
X130322920Y-45257000D01*
X130322920Y-46299374D01*
X130529249Y-46422716D01*
X130874316Y-46279797D01*
X131262684Y-45932663D01*
X131488647Y-45463331D01*
X132332193Y-45463331D01*
X132558156Y-45932663D01*
X132946524Y-46279797D01*
X133291591Y-46422716D01*
X133497920Y-46299374D01*
X133497920Y-45257000D01*
X133751920Y-45257000D01*
X133751920Y-46299374D01*
X133958249Y-46422716D01*
X134303316Y-46279797D01*
X134691684Y-45932663D01*
X134917647Y-45463331D01*
X134795126Y-45257000D01*
X133751920Y-45257000D01*
X133497920Y-45257000D01*
X132454714Y-45257000D01*
X132332193Y-45463331D01*
X131488647Y-45463331D01*
X131366126Y-45257000D01*
X130322920Y-45257000D01*
X130068920Y-45257000D01*
X129025714Y-45257000D01*
X128903193Y-45463331D01*
X123431900Y-45463331D01*
X123431900Y-44796669D01*
X128903193Y-44796669D01*
X129025714Y-45003000D01*
X130068920Y-45003000D01*
X130068920Y-43960626D01*
X130322920Y-43960626D01*
X130322920Y-45003000D01*
X131366126Y-45003000D01*
X131488647Y-44796669D01*
X132332193Y-44796669D01*
X132454714Y-45003000D01*
X133497920Y-45003000D01*
X133497920Y-43960626D01*
X133751920Y-43960626D01*
X133751920Y-45003000D01*
X134795126Y-45003000D01*
X134917647Y-44796669D01*
X134691684Y-44327337D01*
X134303316Y-43980203D01*
X133958249Y-43837284D01*
X133751920Y-43960626D01*
X133497920Y-43960626D01*
X133291591Y-43837284D01*
X132946524Y-43980203D01*
X132558156Y-44327337D01*
X132332193Y-44796669D01*
X131488647Y-44796669D01*
X131262684Y-44327337D01*
X130874316Y-43980203D01*
X130529249Y-43837284D01*
X130322920Y-43960626D01*
X130068920Y-43960626D01*
X129862591Y-43837284D01*
X129517524Y-43980203D01*
X129129156Y-44327337D01*
X128903193Y-44796669D01*
X123431900Y-44796669D01*
X123431900Y-43525275D01*
X137060251Y-43525275D01*
X137122089Y-43761042D01*
X137623042Y-43937419D01*
X138153360Y-43908664D01*
X138509751Y-43761042D01*
X138571589Y-43525275D01*
X137815920Y-42769605D01*
X137060251Y-43525275D01*
X123431900Y-43525275D01*
X123431900Y-42397122D01*
X136468501Y-42397122D01*
X136497256Y-42927440D01*
X136644878Y-43283831D01*
X136880645Y-43345669D01*
X137636315Y-42590000D01*
X137995525Y-42590000D01*
X138751195Y-43345669D01*
X138986962Y-43283831D01*
X139163339Y-42782878D01*
X139134584Y-42252560D01*
X138986962Y-41896169D01*
X138751195Y-41834331D01*
X137995525Y-42590000D01*
X137636315Y-42590000D01*
X136880645Y-41834331D01*
X136644878Y-41896169D01*
X136468501Y-42397122D01*
X123431900Y-42397122D01*
X123431900Y-41654725D01*
X137060251Y-41654725D01*
X137815920Y-42410395D01*
X138571589Y-41654725D01*
X138509751Y-41418958D01*
X138008798Y-41242581D01*
X137478480Y-41271336D01*
X137122089Y-41418958D01*
X137060251Y-41654725D01*
X123431900Y-41654725D01*
X123431900Y-40877491D01*
X123689954Y-40491285D01*
X123724870Y-40315750D01*
X125250920Y-40315750D01*
X125250920Y-40656309D01*
X125347593Y-40889698D01*
X125526221Y-41068327D01*
X125759610Y-41165000D01*
X126100170Y-41165000D01*
X126258920Y-41006250D01*
X126258920Y-40157000D01*
X126512920Y-40157000D01*
X126512920Y-41006250D01*
X126671670Y-41165000D01*
X127012230Y-41165000D01*
X127245619Y-41068327D01*
X127424247Y-40889698D01*
X127520920Y-40656309D01*
X127520920Y-40315750D01*
X127362170Y-40157000D01*
X126512920Y-40157000D01*
X126258920Y-40157000D01*
X125409670Y-40157000D01*
X125250920Y-40315750D01*
X123724870Y-40315750D01*
X123802993Y-39923000D01*
X123699696Y-39403691D01*
X125250920Y-39403691D01*
X125250920Y-39744250D01*
X125409670Y-39903000D01*
X126258920Y-39903000D01*
X126258920Y-39053750D01*
X126512920Y-39053750D01*
X126512920Y-39903000D01*
X127362170Y-39903000D01*
X127520920Y-39744250D01*
X127520920Y-39403691D01*
X127424247Y-39170302D01*
X127245619Y-38991673D01*
X127012230Y-38895000D01*
X126671670Y-38895000D01*
X126512920Y-39053750D01*
X126258920Y-39053750D01*
X126100170Y-38895000D01*
X125759610Y-38895000D01*
X125526221Y-38991673D01*
X125347593Y-39170302D01*
X125250920Y-39403691D01*
X123699696Y-39403691D01*
X123689954Y-39354715D01*
X123368047Y-38872946D01*
X123326448Y-38845150D01*
X123374217Y-38836162D01*
X123590341Y-38697090D01*
X123707242Y-38526000D01*
X125487044Y-38526000D01*
X125634030Y-38626431D01*
X125885920Y-38677440D01*
X126885920Y-38677440D01*
X126909517Y-38673000D01*
X129515544Y-38673000D01*
X129929207Y-38844768D01*
X130460303Y-38845231D01*
X130925539Y-38653000D01*
X132896379Y-38653000D01*
X133358207Y-38844768D01*
X133889303Y-38845231D01*
X134354539Y-38653000D01*
X137130633Y-38653000D01*
X137305038Y-38769533D01*
X137815920Y-38871154D01*
X138326802Y-38769533D01*
X138759908Y-38480142D01*
X139049299Y-38047036D01*
X139150920Y-37536154D01*
X139150920Y-37483846D01*
X139049299Y-36972964D01*
X138759908Y-36539858D01*
X138326802Y-36250467D01*
X137815920Y-36148846D01*
X137305038Y-36250467D01*
X137130633Y-36367000D01*
X136175906Y-36367000D01*
X136393947Y-36276684D01*
X136708496Y-35901917D01*
X134950000Y-34143420D01*
X133191504Y-35901917D01*
X133420558Y-36174821D01*
X133360537Y-36174769D01*
X132895301Y-36367000D01*
X130924461Y-36367000D01*
X130462633Y-36175232D01*
X129931537Y-36174769D01*
X129440691Y-36377582D01*
X129431257Y-36387000D01*
X126907845Y-36387000D01*
X126885920Y-36382560D01*
X126759470Y-36382560D01*
X126676327Y-36327006D01*
X126238920Y-36240000D01*
X123704944Y-36240000D01*
X123602990Y-36081559D01*
X123390790Y-35936569D01*
X123138900Y-35885560D01*
X121438900Y-35885560D01*
X121203583Y-35929838D01*
X120987459Y-36068910D01*
X120842469Y-36281110D01*
X120791460Y-36533000D01*
X120791460Y-38233000D01*
X120835738Y-38468317D01*
X120974810Y-38684441D01*
X121187010Y-38829431D01*
X121254441Y-38843086D01*
X121209753Y-38872946D01*
X120887846Y-39354715D01*
X120774807Y-39923000D01*
X120887846Y-40491285D01*
X121145900Y-40877491D01*
X121145900Y-47627378D01*
X121070479Y-47675910D01*
X120987742Y-47797000D01*
X117619949Y-47797000D01*
X117583762Y-47604683D01*
X117444690Y-47388559D01*
X117373600Y-47339985D01*
X117373600Y-42996000D01*
X117286594Y-42558593D01*
X117038823Y-42187777D01*
X109538126Y-34687080D01*
X109538375Y-34401612D01*
X109297202Y-33817928D01*
X108851021Y-33370968D01*
X108396561Y-33182259D01*
X131762812Y-33182259D01*
X131912529Y-34420420D01*
X132098316Y-34868947D01*
X132473083Y-35183496D01*
X134231580Y-33425000D01*
X135668420Y-33425000D01*
X137426917Y-35183496D01*
X137801684Y-34868947D01*
X138137188Y-33667741D01*
X137987471Y-32429580D01*
X137801684Y-31981053D01*
X137426917Y-31666504D01*
X135668420Y-33425000D01*
X134231580Y-33425000D01*
X132473083Y-31666504D01*
X132098316Y-31981053D01*
X131762812Y-33182259D01*
X108396561Y-33182259D01*
X108267759Y-33128776D01*
X107636212Y-33128225D01*
X107052528Y-33369398D01*
X106613632Y-33807529D01*
X106528759Y-33777446D01*
X105590205Y-34716000D01*
X105230995Y-34716000D01*
X104292441Y-33777446D01*
X104140600Y-33831267D01*
X103988759Y-33777446D01*
X103050205Y-34716000D01*
X102690995Y-34716000D01*
X101752441Y-33777446D01*
X101600600Y-33831267D01*
X101448759Y-33777446D01*
X100510205Y-34716000D01*
X100150995Y-34716000D01*
X99212441Y-33777446D01*
X98950512Y-33870288D01*
X98731925Y-34462801D01*
X96138686Y-34462801D01*
X96305994Y-34212407D01*
X96306042Y-34212165D01*
X96355994Y-34137407D01*
X96443000Y-33700000D01*
X96422680Y-33597841D01*
X99392046Y-33597841D01*
X100330600Y-34536395D01*
X101269154Y-33597841D01*
X101932046Y-33597841D01*
X102870600Y-34536395D01*
X103809154Y-33597841D01*
X104472046Y-33597841D01*
X105410600Y-34536395D01*
X106349154Y-33597841D01*
X106256312Y-33335912D01*
X105663799Y-33117325D01*
X105032739Y-33142122D01*
X104564888Y-33335912D01*
X104472046Y-33597841D01*
X103809154Y-33597841D01*
X103716312Y-33335912D01*
X103123799Y-33117325D01*
X102492739Y-33142122D01*
X102024888Y-33335912D01*
X101932046Y-33597841D01*
X101269154Y-33597841D01*
X101176312Y-33335912D01*
X100583799Y-33117325D01*
X99952739Y-33142122D01*
X99484888Y-33335912D01*
X99392046Y-33597841D01*
X96422680Y-33597841D01*
X96355994Y-33262593D01*
X96108223Y-32891777D01*
X95737407Y-32644006D01*
X95300000Y-32557000D01*
X94993000Y-32618066D01*
X94993000Y-31750000D01*
X94905994Y-31312593D01*
X94662437Y-30948083D01*
X133191504Y-30948083D01*
X134950000Y-32706580D01*
X136708496Y-30948083D01*
X136393947Y-30573316D01*
X135192741Y-30237812D01*
X133954580Y-30387529D01*
X133506053Y-30573316D01*
X133191504Y-30948083D01*
X94662437Y-30948083D01*
X94658223Y-30941777D01*
X92601613Y-28885167D01*
X140389838Y-28885167D01*
X140531883Y-29228943D01*
X140794673Y-29492192D01*
X141138201Y-29634838D01*
X141510167Y-29635162D01*
X141853943Y-29493117D01*
X142117192Y-29230327D01*
X142259838Y-28886799D01*
X142260162Y-28514833D01*
X142118117Y-28171057D01*
X141855327Y-27907808D01*
X141511799Y-27765162D01*
X141139833Y-27764838D01*
X140796057Y-27906883D01*
X140532808Y-28169673D01*
X140390162Y-28513201D01*
X140389838Y-28885167D01*
X92601613Y-28885167D01*
X91208223Y-27491777D01*
X90837407Y-27244006D01*
X90400000Y-27157000D01*
X68100000Y-27157000D01*
X67662593Y-27244006D01*
X67291777Y-27491777D01*
X63845394Y-30938160D01*
X63253100Y-30938160D01*
X63017783Y-30982438D01*
X62801659Y-31121510D01*
X62656669Y-31333710D01*
X62605660Y-31585600D01*
X50611766Y-31585600D01*
X50546591Y-31488059D01*
X49951274Y-31090281D01*
X49249050Y-30950600D01*
X49177150Y-30950600D01*
X49024842Y-30980896D01*
X47460723Y-29416777D01*
X47089907Y-29169006D01*
X46652500Y-29082000D01*
X40872440Y-29082000D01*
X40872440Y-28475000D01*
X40828162Y-28239683D01*
X40689090Y-28023559D01*
X40476890Y-27878569D01*
X40225000Y-27827560D01*
X36725000Y-27827560D01*
X36489683Y-27871838D01*
X36273559Y-28010910D01*
X36128569Y-28223110D01*
X36077560Y-28475000D01*
X36077560Y-31975000D01*
X36121838Y-32210317D01*
X36260910Y-32426441D01*
X36473110Y-32571431D01*
X36725000Y-32622440D01*
X40225000Y-32622440D01*
X40460317Y-32578162D01*
X40676441Y-32439090D01*
X40777560Y-32291097D01*
X40777560Y-34149663D01*
X40763327Y-34115302D01*
X40584699Y-33936673D01*
X40351310Y-33840000D01*
X38760750Y-33840000D01*
X38602000Y-33998750D01*
X38602000Y-36098000D01*
X40701250Y-36098000D01*
X40860000Y-35939250D01*
X40860000Y-35269622D01*
X40960910Y-35426441D01*
X41173110Y-35571431D01*
X41425000Y-35622440D01*
X44925000Y-35622440D01*
X45160317Y-35578162D01*
X45376441Y-35439090D01*
X45521431Y-35226890D01*
X45572440Y-34975000D01*
X45572440Y-31475000D01*
X45552307Y-31368000D01*
X46179054Y-31368000D01*
X47384375Y-32573321D01*
X47342150Y-32785600D01*
X47481831Y-33487824D01*
X47879609Y-34083141D01*
X48070100Y-34210423D01*
X48070100Y-35122400D01*
X48157106Y-35559807D01*
X48404877Y-35930623D01*
X52959542Y-40485288D01*
X52959452Y-40588187D01*
X53177457Y-41115800D01*
X53580777Y-41519824D01*
X53716654Y-41576245D01*
X53380002Y-41801189D01*
X53068933Y-42266736D01*
X52959700Y-42815887D01*
X52959700Y-42872113D01*
X53068933Y-43421264D01*
X53251700Y-43694794D01*
X53251700Y-48967780D01*
X53178876Y-49040477D01*
X52959950Y-49567709D01*
X52959452Y-50138587D01*
X53177457Y-50666200D01*
X53580777Y-51070224D01*
X53716654Y-51126645D01*
X53380002Y-51351589D01*
X53068933Y-51817136D01*
X52959700Y-52366287D01*
X52959700Y-52422513D01*
X53068933Y-52971664D01*
X53251700Y-53245194D01*
X53251700Y-56231854D01*
X51436554Y-58047000D01*
X37476026Y-58047000D01*
X37613327Y-57909698D01*
X37710000Y-57676309D01*
X37710000Y-56935750D01*
X37551250Y-56777000D01*
X36302000Y-56777000D01*
X36302000Y-56797000D01*
X36048000Y-56797000D01*
X36048000Y-56777000D01*
X34798750Y-56777000D01*
X34640000Y-56935750D01*
X34640000Y-57676309D01*
X34736673Y-57909698D01*
X34915301Y-58088327D01*
X35049994Y-58144119D01*
X34874449Y-58319357D01*
X34640267Y-58883330D01*
X34639735Y-59493991D01*
X25552000Y-59493991D01*
X25552000Y-55623691D01*
X34640000Y-55623691D01*
X34640000Y-56364250D01*
X34798750Y-56523000D01*
X36048000Y-56523000D01*
X36048000Y-55273750D01*
X36302000Y-55273750D01*
X36302000Y-56523000D01*
X37551250Y-56523000D01*
X37710000Y-56364250D01*
X37710000Y-55623691D01*
X37613327Y-55390302D01*
X37434699Y-55211673D01*
X37201310Y-55115000D01*
X36460750Y-55115000D01*
X36302000Y-55273750D01*
X36048000Y-55273750D01*
X35889250Y-55115000D01*
X35148690Y-55115000D01*
X34915301Y-55211673D01*
X34736673Y-55390302D01*
X34640000Y-55623691D01*
X25552000Y-55623691D01*
X25552000Y-36510750D01*
X36090000Y-36510750D01*
X36090000Y-38101309D01*
X36186673Y-38334698D01*
X36365301Y-38513327D01*
X36598690Y-38610000D01*
X38189250Y-38610000D01*
X38348000Y-38451250D01*
X38348000Y-36352000D01*
X38602000Y-36352000D01*
X38602000Y-38451250D01*
X38760750Y-38610000D01*
X40351310Y-38610000D01*
X40584699Y-38513327D01*
X40763327Y-38334698D01*
X40860000Y-38101309D01*
X40860000Y-36510750D01*
X40701250Y-36352000D01*
X38602000Y-36352000D01*
X38348000Y-36352000D01*
X36248750Y-36352000D01*
X36090000Y-36510750D01*
X25552000Y-36510750D01*
X25552000Y-34348691D01*
X36090000Y-34348691D01*
X36090000Y-35939250D01*
X36248750Y-36098000D01*
X38348000Y-36098000D01*
X38348000Y-33998750D01*
X38189250Y-33840000D01*
X36598690Y-33840000D01*
X36365301Y-33936673D01*
X36186673Y-34115302D01*
X36090000Y-34348691D01*
X25552000Y-34348691D01*
X25552000Y-30160167D01*
X30664838Y-30160167D01*
X30806883Y-30503943D01*
X31069673Y-30767192D01*
X31413201Y-30909838D01*
X31785167Y-30910162D01*
X32128943Y-30768117D01*
X32392192Y-30505327D01*
X32534838Y-30161799D01*
X32535162Y-29789833D01*
X32393117Y-29446057D01*
X32130327Y-29182808D01*
X31786799Y-29040162D01*
X31414833Y-29039838D01*
X31071057Y-29181883D01*
X30807808Y-29444673D01*
X30665162Y-29788201D01*
X30664838Y-30160167D01*
X25552000Y-30160167D01*
X25552000Y-25626895D01*
X145773000Y-25527085D01*
X145773000Y-123873000D01*
X145773000Y-123873000D01*
G37*
X145773000Y-123873000D02*
X25552000Y-123873000D01*
X25552000Y-119900000D01*
X28932000Y-119900000D01*
X29019006Y-120337407D01*
X29266777Y-120708223D01*
X29637593Y-120955994D01*
X30075000Y-121043000D01*
X30275000Y-121043000D01*
X30712407Y-120955994D01*
X31083223Y-120708223D01*
X31272466Y-120425000D01*
X55807000Y-120425000D01*
X55807000Y-120700000D01*
X55894006Y-121137407D01*
X56141777Y-121508223D01*
X56512593Y-121755994D01*
X56950000Y-121843000D01*
X57387407Y-121755994D01*
X57758223Y-121508223D01*
X58005994Y-121137407D01*
X58093000Y-120700000D01*
X58093000Y-120425000D01*
X58020430Y-120060167D01*
X99639838Y-120060167D01*
X99781883Y-120403943D01*
X100044673Y-120667192D01*
X100388201Y-120809838D01*
X100760167Y-120810162D01*
X101103943Y-120668117D01*
X101367192Y-120405327D01*
X101473213Y-120150000D01*
X116982000Y-120150000D01*
X117069006Y-120587407D01*
X117316777Y-120958223D01*
X117687593Y-121205994D01*
X118125000Y-121293000D01*
X118425000Y-121293000D01*
X118862407Y-121205994D01*
X119233223Y-120958223D01*
X119480994Y-120587407D01*
X119568000Y-120150000D01*
X119480994Y-119712593D01*
X119233223Y-119341777D01*
X118862407Y-119094006D01*
X118425000Y-119007000D01*
X118125000Y-119007000D01*
X117687593Y-119094006D01*
X117316777Y-119341777D01*
X117069006Y-119712593D01*
X116982000Y-120150000D01*
X101473213Y-120150000D01*
X101509838Y-120061799D01*
X101510162Y-119689833D01*
X101368117Y-119346057D01*
X101105327Y-119082808D01*
X100761799Y-118940162D01*
X100389833Y-118939838D01*
X100046057Y-119081883D01*
X99782808Y-119344673D01*
X99640162Y-119688201D01*
X99639838Y-120060167D01*
X58020430Y-120060167D01*
X58005994Y-119987593D01*
X57758223Y-119616777D01*
X57387407Y-119369006D01*
X56950000Y-119282000D01*
X56512593Y-119369006D01*
X56141777Y-119616777D01*
X55894006Y-119987593D01*
X55807000Y-120425000D01*
X31272466Y-120425000D01*
X31330994Y-120337407D01*
X31418000Y-119900000D01*
X31330994Y-119462593D01*
X31083223Y-119091777D01*
X30712407Y-118844006D01*
X30275000Y-118757000D01*
X30075000Y-118757000D01*
X29637593Y-118844006D01*
X29266777Y-119091777D01*
X29019006Y-119462593D01*
X28932000Y-119900000D01*
X25552000Y-119900000D01*
X25552000Y-80385167D01*
X30864838Y-80385167D01*
X31006883Y-80728943D01*
X31269673Y-80992192D01*
X31613201Y-81134838D01*
X31985167Y-81135162D01*
X32328943Y-80993117D01*
X32592192Y-80730327D01*
X32621325Y-80660167D01*
X58814838Y-80660167D01*
X58956883Y-81003943D01*
X59219673Y-81267192D01*
X59563201Y-81409838D01*
X59935167Y-81410162D01*
X60278943Y-81268117D01*
X60542192Y-81005327D01*
X60684838Y-80661799D01*
X60685162Y-80289833D01*
X60543117Y-79946057D01*
X60280327Y-79682808D01*
X59936799Y-79540162D01*
X59564833Y-79539838D01*
X59221057Y-79681883D01*
X58957808Y-79944673D01*
X58815162Y-80288201D01*
X58814838Y-80660167D01*
X32621325Y-80660167D01*
X32734838Y-80386799D01*
X32735162Y-80014833D01*
X32593117Y-79671057D01*
X32330327Y-79407808D01*
X31986799Y-79265162D01*
X31614833Y-79264838D01*
X31271057Y-79406883D01*
X31007808Y-79669673D01*
X30865162Y-80013201D01*
X30864838Y-80385167D01*
X25552000Y-80385167D01*
X25552000Y-67900000D01*
X65457000Y-67900000D01*
X65457000Y-114250000D01*
X65544006Y-114687407D01*
X65791777Y-115058223D01*
X68052654Y-117319100D01*
X68067582Y-117355229D01*
X68442796Y-117731098D01*
X68933287Y-117934768D01*
X69464383Y-117935231D01*
X69955229Y-117732418D01*
X70331098Y-117357204D01*
X70534768Y-116866713D01*
X70535231Y-116335617D01*
X70332418Y-115844771D01*
X69957204Y-115468902D01*
X69466713Y-115265232D01*
X69231473Y-115265027D01*
X67743000Y-113776554D01*
X67743000Y-73810000D01*
X72902560Y-73810000D01*
X72902560Y-75610000D01*
X72946838Y-75845317D01*
X73085910Y-76061441D01*
X73297000Y-76205673D01*
X73297000Y-79126734D01*
X73193569Y-79278110D01*
X73142560Y-79530000D01*
X73142560Y-81030000D01*
X73186838Y-81265317D01*
X73325910Y-81481441D01*
X73538110Y-81626431D01*
X73551197Y-81629081D01*
X73338559Y-81765910D01*
X73193569Y-81978110D01*
X73142560Y-82230000D01*
X73142560Y-83730000D01*
X73186838Y-83965317D01*
X73297000Y-84136514D01*
X73297000Y-87333621D01*
X73144006Y-87562593D01*
X73057000Y-88000000D01*
X73144006Y-88437407D01*
X73391777Y-88808223D01*
X73762593Y-89055994D01*
X74200000Y-89143000D01*
X74637407Y-89055994D01*
X75008223Y-88808223D01*
X75248223Y-88568223D01*
X75495994Y-88197407D01*
X75583000Y-87760000D01*
X75583000Y-84133266D01*
X75686431Y-83981890D01*
X75737440Y-83730000D01*
X75737440Y-82230000D01*
X75693162Y-81994683D01*
X75554090Y-81778559D01*
X75341890Y-81633569D01*
X75328803Y-81630919D01*
X75541441Y-81494090D01*
X75686431Y-81281890D01*
X75737440Y-81030000D01*
X75737440Y-79530000D01*
X75693162Y-79294683D01*
X75583000Y-79123486D01*
X75583000Y-76213598D01*
X75585317Y-76213162D01*
X75801441Y-76074090D01*
X75847000Y-76007412D01*
X75847000Y-112636554D01*
X73471777Y-115011777D01*
X73224006Y-115382593D01*
X73137000Y-115820000D01*
X73137000Y-115914713D01*
X73020467Y-116089118D01*
X72918846Y-116600000D01*
X73020467Y-117110882D01*
X73309858Y-117543988D01*
X73742964Y-117833379D01*
X74253846Y-117935000D01*
X74306154Y-117935000D01*
X74472473Y-117901917D01*
X78191504Y-117901917D01*
X78506053Y-118276684D01*
X79707259Y-118612188D01*
X80945420Y-118462471D01*
X81393947Y-118276684D01*
X81584207Y-118050000D01*
X88208846Y-118050000D01*
X88310467Y-118560882D01*
X88599858Y-118993988D01*
X89032964Y-119283379D01*
X89543846Y-119385000D01*
X89596154Y-119385000D01*
X90107036Y-119283379D01*
X90540142Y-118993988D01*
X90829533Y-118560882D01*
X90878564Y-118314383D01*
X93314769Y-118314383D01*
X93517582Y-118805229D01*
X93892796Y-119181098D01*
X94383287Y-119384768D01*
X94914383Y-119385231D01*
X95405229Y-119182418D01*
X95781098Y-118807204D01*
X95984768Y-118316713D01*
X95985231Y-117785617D01*
X95782418Y-117294771D01*
X95407204Y-116918902D01*
X94916713Y-116715232D01*
X94385617Y-116714769D01*
X93894771Y-116917582D01*
X93518902Y-117292796D01*
X93315232Y-117783287D01*
X93314769Y-118314383D01*
X90878564Y-118314383D01*
X90931154Y-118050000D01*
X90829533Y-117539118D01*
X90540142Y-117106012D01*
X90107036Y-116816621D01*
X89596154Y-116715000D01*
X89543846Y-116715000D01*
X89032964Y-116816621D01*
X88599858Y-117106012D01*
X88310467Y-117539118D01*
X88208846Y-118050000D01*
X81584207Y-118050000D01*
X81708496Y-117901917D01*
X79950000Y-116143420D01*
X78191504Y-117901917D01*
X74472473Y-117901917D01*
X74817036Y-117833379D01*
X75250142Y-117543988D01*
X75539533Y-117110882D01*
X75641154Y-116600000D01*
X75554099Y-116162347D01*
X76851416Y-114865030D01*
X76762812Y-115182259D01*
X76912529Y-116420420D01*
X77098316Y-116868947D01*
X77473083Y-117183496D01*
X79231580Y-115425000D01*
X80668420Y-115425000D01*
X82426917Y-117183496D01*
X82801684Y-116868947D01*
X82882344Y-116580159D01*
X123149446Y-116580159D01*
X123235852Y-116836643D01*
X123809336Y-117046458D01*
X124419460Y-117020839D01*
X124611672Y-116941222D01*
X124415511Y-117413631D01*
X124414492Y-118581246D01*
X124860377Y-119660372D01*
X125685285Y-120486721D01*
X126763631Y-120934489D01*
X127931246Y-120935508D01*
X129010372Y-120489623D01*
X129836721Y-119664715D01*
X129838609Y-119660167D01*
X139064838Y-119660167D01*
X139206883Y-120003943D01*
X139469673Y-120267192D01*
X139813201Y-120409838D01*
X140185167Y-120410162D01*
X140528943Y-120268117D01*
X140792192Y-120005327D01*
X140934838Y-119661799D01*
X140935162Y-119289833D01*
X140793117Y-118946057D01*
X140530327Y-118682808D01*
X140186799Y-118540162D01*
X139814833Y-118539838D01*
X139471057Y-118681883D01*
X139207808Y-118944673D01*
X139065162Y-119288201D01*
X139064838Y-119660167D01*
X129838609Y-119660167D01*
X130284489Y-118586369D01*
X130285086Y-117901917D01*
X133191504Y-117901917D01*
X133506053Y-118276684D01*
X134707259Y-118612188D01*
X135945420Y-118462471D01*
X136393947Y-118276684D01*
X136708496Y-117901917D01*
X134950000Y-116143420D01*
X133191504Y-117901917D01*
X130285086Y-117901917D01*
X130285508Y-117418754D01*
X129839623Y-116339628D01*
X129014715Y-115513279D01*
X128217530Y-115182259D01*
X131762812Y-115182259D01*
X131912529Y-116420420D01*
X132098316Y-116868947D01*
X132473083Y-117183496D01*
X134231580Y-115425000D01*
X135668420Y-115425000D01*
X137426917Y-117183496D01*
X137801684Y-116868947D01*
X138137188Y-115667741D01*
X137987471Y-114429580D01*
X137801684Y-113981053D01*
X137426917Y-113666504D01*
X135668420Y-115425000D01*
X134231580Y-115425000D01*
X132473083Y-113666504D01*
X132098316Y-113981053D01*
X131762812Y-115182259D01*
X128217530Y-115182259D01*
X127936369Y-115065511D01*
X126768754Y-115064492D01*
X125689628Y-115510377D01*
X125590926Y-115608907D01*
X125570839Y-115130540D01*
X125386643Y-114685852D01*
X125130159Y-114599446D01*
X124229605Y-115500000D01*
X124243748Y-115514143D01*
X124064143Y-115693748D01*
X124050000Y-115679605D01*
X123149446Y-116580159D01*
X82882344Y-116580159D01*
X83137188Y-115667741D01*
X83087805Y-115259336D01*
X122503542Y-115259336D01*
X122529161Y-115869460D01*
X122713357Y-116314148D01*
X122969841Y-116400554D01*
X123870395Y-115500000D01*
X122969841Y-114599446D01*
X122713357Y-114685852D01*
X122503542Y-115259336D01*
X83087805Y-115259336D01*
X82987471Y-114429580D01*
X82801684Y-113981053D01*
X82426917Y-113666504D01*
X80668420Y-115425000D01*
X79231580Y-115425000D01*
X79217438Y-115410858D01*
X79935858Y-114692437D01*
X79950000Y-114706580D01*
X81708496Y-112948083D01*
X81393947Y-112573316D01*
X80192741Y-112237812D01*
X78954580Y-112387529D01*
X78506053Y-112573316D01*
X78191505Y-112948082D01*
X78133000Y-112889577D01*
X78133000Y-103200000D01*
X88102560Y-103200000D01*
X88102560Y-104800000D01*
X88146838Y-105035317D01*
X88285910Y-105251441D01*
X88407000Y-105334178D01*
X88407000Y-106000000D01*
X88494006Y-106437407D01*
X88741777Y-106808223D01*
X90241777Y-108308223D01*
X90612593Y-108555994D01*
X91050000Y-108643000D01*
X95716130Y-108643000D01*
X95785910Y-108751441D01*
X95998110Y-108896431D01*
X96250000Y-108947440D01*
X97850000Y-108947440D01*
X98085317Y-108903162D01*
X98301441Y-108764090D01*
X98446431Y-108551890D01*
X98477815Y-108396911D01*
X98575302Y-108542811D01*
X99040849Y-108853880D01*
X99398594Y-108925040D01*
X104281777Y-113808223D01*
X104652593Y-114055994D01*
X105090000Y-114143000D01*
X123022081Y-114143000D01*
X123179357Y-114300551D01*
X123188372Y-114304294D01*
X123149446Y-114419841D01*
X124050000Y-115320395D01*
X124950554Y-114419841D01*
X124911793Y-114304786D01*
X124918371Y-114302068D01*
X125350551Y-113870643D01*
X125584733Y-113306670D01*
X125585045Y-112948083D01*
X133191504Y-112948083D01*
X134950000Y-114706580D01*
X136708496Y-112948083D01*
X136393947Y-112573316D01*
X135192741Y-112237812D01*
X133954580Y-112387529D01*
X133506053Y-112573316D01*
X133191504Y-112948083D01*
X125585045Y-112948083D01*
X125585113Y-112870148D01*
X125700000Y-112893000D01*
X129500000Y-112893000D01*
X129937407Y-112805994D01*
X130308223Y-112558223D01*
X133553115Y-109313331D01*
X138907273Y-109313331D01*
X139133236Y-109782663D01*
X139521604Y-110129797D01*
X139866671Y-110272716D01*
X140073000Y-110149374D01*
X140073000Y-109107000D01*
X140327000Y-109107000D01*
X140327000Y-110149374D01*
X140533329Y-110272716D01*
X140878396Y-110129797D01*
X141266764Y-109782663D01*
X141492727Y-109313331D01*
X141370206Y-109107000D01*
X140327000Y-109107000D01*
X140073000Y-109107000D01*
X139029794Y-109107000D01*
X138907273Y-109313331D01*
X133553115Y-109313331D01*
X134219777Y-108646669D01*
X138907273Y-108646669D01*
X139029794Y-108853000D01*
X140073000Y-108853000D01*
X140073000Y-107810626D01*
X140327000Y-107810626D01*
X140327000Y-108853000D01*
X141370206Y-108853000D01*
X141492727Y-108646669D01*
X141266764Y-108177337D01*
X140878396Y-107830203D01*
X140533329Y-107687284D01*
X140327000Y-107810626D01*
X140073000Y-107810626D01*
X139866671Y-107687284D01*
X139521604Y-107830203D01*
X139133236Y-108177337D01*
X138907273Y-108646669D01*
X134219777Y-108646669D01*
X137823446Y-105043000D01*
X139471459Y-105043000D01*
X139933287Y-105234768D01*
X140464383Y-105235231D01*
X140955229Y-105032418D01*
X141331098Y-104657204D01*
X141534768Y-104166713D01*
X141535231Y-103635617D01*
X141332418Y-103144771D01*
X140957204Y-102768902D01*
X140466713Y-102565232D01*
X139935617Y-102564769D01*
X139470381Y-102757000D01*
X137350000Y-102757000D01*
X136912593Y-102844006D01*
X136541777Y-103091777D01*
X129026554Y-110607000D01*
X128726297Y-110607000D01*
X129010372Y-110489623D01*
X129836721Y-109664715D01*
X130284489Y-108586369D01*
X130285508Y-107418754D01*
X129839623Y-106339628D01*
X129014715Y-105513279D01*
X127936369Y-105065511D01*
X126768754Y-105064492D01*
X125689628Y-105510377D01*
X124863279Y-106335285D01*
X124415511Y-107413631D01*
X124414492Y-108581246D01*
X124618003Y-109073782D01*
X124356670Y-108965267D01*
X123746009Y-108964735D01*
X123181629Y-109197932D01*
X122749449Y-109629357D01*
X122515267Y-110193330D01*
X122514735Y-110803991D01*
X122747932Y-111368371D01*
X123129182Y-111750288D01*
X123022283Y-111857000D01*
X105563446Y-111857000D01*
X102563406Y-108856960D01*
X102867423Y-108731041D01*
X103282389Y-108355134D01*
X103385014Y-108138297D01*
X103655302Y-108542811D01*
X104120849Y-108853880D01*
X104670000Y-108963113D01*
X105219151Y-108853880D01*
X105684698Y-108542811D01*
X105995767Y-108077264D01*
X106105000Y-107528113D01*
X106105000Y-107471887D01*
X105995767Y-106922736D01*
X105684698Y-106457189D01*
X105219151Y-106146120D01*
X104670000Y-106036887D01*
X104120849Y-106146120D01*
X103655302Y-106457189D01*
X103385014Y-106861703D01*
X103282389Y-106644866D01*
X102867423Y-106268959D01*
X102479039Y-106108096D01*
X102257000Y-106230085D01*
X102257000Y-107373000D01*
X102277000Y-107373000D01*
X102277000Y-107627000D01*
X102257000Y-107627000D01*
X102257000Y-107647000D01*
X102003000Y-107647000D01*
X102003000Y-107627000D01*
X101983000Y-107627000D01*
X101983000Y-107373000D01*
X102003000Y-107373000D01*
X102003000Y-106230085D01*
X101780961Y-106108096D01*
X101392577Y-106268959D01*
X100977611Y-106644866D01*
X100874986Y-106861703D01*
X100604698Y-106457189D01*
X100139151Y-106146120D01*
X99590000Y-106036887D01*
X99040849Y-106146120D01*
X98575302Y-106457189D01*
X98478899Y-106601465D01*
X98453162Y-106464683D01*
X98314090Y-106248559D01*
X98101890Y-106103569D01*
X97850000Y-106052560D01*
X96250000Y-106052560D01*
X96014683Y-106096838D01*
X95798559Y-106235910D01*
X95715822Y-106357000D01*
X91523446Y-106357000D01*
X90693000Y-105526554D01*
X90693000Y-105333870D01*
X90801441Y-105264090D01*
X90946431Y-105051890D01*
X90997440Y-104800000D01*
X90997440Y-103465750D01*
X114665000Y-103465750D01*
X114665000Y-103956310D01*
X114761673Y-104189699D01*
X114940302Y-104368327D01*
X115173691Y-104465000D01*
X115764250Y-104465000D01*
X115923000Y-104306250D01*
X115923000Y-103307000D01*
X114823750Y-103307000D01*
X114665000Y-103465750D01*
X90997440Y-103465750D01*
X90997440Y-103200000D01*
X90953162Y-102964683D01*
X90814090Y-102748559D01*
X90601890Y-102603569D01*
X90496959Y-102582320D01*
X90675900Y-102403690D01*
X114665000Y-102403690D01*
X114665000Y-102894250D01*
X114823750Y-103053000D01*
X115923000Y-103053000D01*
X115923000Y-102053750D01*
X115764250Y-101895000D01*
X115173691Y-101895000D01*
X114940302Y-101991673D01*
X114761673Y-102170301D01*
X114665000Y-102403690D01*
X90675900Y-102403690D01*
X90765824Y-102313923D01*
X90984750Y-101786691D01*
X90984842Y-101681604D01*
X91643446Y-101023000D01*
X96185245Y-101023000D01*
X96500849Y-101233880D01*
X97050000Y-101343113D01*
X97599151Y-101233880D01*
X98064698Y-100922811D01*
X98320000Y-100540725D01*
X98575302Y-100922811D01*
X99040849Y-101233880D01*
X99590000Y-101343113D01*
X100139151Y-101233880D01*
X100604698Y-100922811D01*
X100860000Y-100540725D01*
X101115302Y-100922811D01*
X101580849Y-101233880D01*
X102130000Y-101343113D01*
X102679151Y-101233880D01*
X103144698Y-100922811D01*
X103400000Y-100540725D01*
X103655302Y-100922811D01*
X104120849Y-101233880D01*
X104670000Y-101343113D01*
X105219151Y-101233880D01*
X105534755Y-101023000D01*
X113230000Y-101023000D01*
X113667407Y-100935994D01*
X114038223Y-100688223D01*
X115273446Y-99453000D01*
X117893304Y-99453000D01*
X117930910Y-99511441D01*
X118000711Y-99559134D01*
X117943559Y-99595910D01*
X117798569Y-99808110D01*
X117747560Y-100060000D01*
X117747560Y-100562444D01*
X117694006Y-100642593D01*
X117607000Y-101080000D01*
X117607000Y-102028304D01*
X117548559Y-102065910D01*
X117403569Y-102278110D01*
X117396809Y-102311490D01*
X117338327Y-102170301D01*
X117159698Y-101991673D01*
X116926309Y-101895000D01*
X116335750Y-101895000D01*
X116177000Y-102053750D01*
X116177000Y-103053000D01*
X116197000Y-103053000D01*
X116197000Y-103307000D01*
X116177000Y-103307000D01*
X116177000Y-104306250D01*
X116335750Y-104465000D01*
X116926309Y-104465000D01*
X117159698Y-104368327D01*
X117338327Y-104189699D01*
X117394654Y-104053713D01*
X117396838Y-104065317D01*
X117535910Y-104281441D01*
X117748110Y-104426431D01*
X118000000Y-104477440D01*
X119500000Y-104477440D01*
X119735317Y-104433162D01*
X119951441Y-104294090D01*
X120096431Y-104081890D01*
X120147440Y-103830000D01*
X120147440Y-102530000D01*
X120103162Y-102294683D01*
X119978059Y-102100267D01*
X120096441Y-102024090D01*
X120241431Y-101811890D01*
X120292440Y-101560000D01*
X120292440Y-100060000D01*
X120248162Y-99824683D01*
X120109090Y-99608559D01*
X120039289Y-99560866D01*
X120096441Y-99524090D01*
X120145015Y-99453000D01*
X124090059Y-99453000D01*
X124116838Y-99595317D01*
X124255910Y-99811441D01*
X124468110Y-99956431D01*
X124720000Y-100007440D01*
X126320000Y-100007440D01*
X126555317Y-99963162D01*
X126771441Y-99824090D01*
X126916431Y-99611890D01*
X126937680Y-99506959D01*
X127206077Y-99775824D01*
X127733309Y-99994750D01*
X128304187Y-99995248D01*
X128831800Y-99777243D01*
X128906173Y-99703000D01*
X135390000Y-99703000D01*
X135827407Y-99615994D01*
X136198223Y-99368223D01*
X136553115Y-99013331D01*
X139057273Y-99013331D01*
X139283236Y-99482663D01*
X139671604Y-99829797D01*
X140016671Y-99972716D01*
X140223000Y-99849374D01*
X140223000Y-98807000D01*
X140477000Y-98807000D01*
X140477000Y-99849374D01*
X140683329Y-99972716D01*
X141028396Y-99829797D01*
X141416764Y-99482663D01*
X141642727Y-99013331D01*
X141520206Y-98807000D01*
X140477000Y-98807000D01*
X140223000Y-98807000D01*
X139179794Y-98807000D01*
X139057273Y-99013331D01*
X136553115Y-99013331D01*
X137219777Y-98346669D01*
X139057273Y-98346669D01*
X139179794Y-98553000D01*
X140223000Y-98553000D01*
X140223000Y-97510626D01*
X140477000Y-97510626D01*
X140477000Y-98553000D01*
X141520206Y-98553000D01*
X141642727Y-98346669D01*
X141416764Y-97877337D01*
X141028396Y-97530203D01*
X140683329Y-97387284D01*
X140477000Y-97510626D01*
X140223000Y-97510626D01*
X140016671Y-97387284D01*
X139671604Y-97530203D01*
X139283236Y-97877337D01*
X139057273Y-98346669D01*
X137219777Y-98346669D01*
X140643067Y-94923379D01*
X141105229Y-94732418D01*
X141481098Y-94357204D01*
X141684768Y-93866713D01*
X141685231Y-93335617D01*
X141482418Y-92844771D01*
X141107204Y-92468902D01*
X140616713Y-92265232D01*
X140085617Y-92264769D01*
X139594771Y-92467582D01*
X139218902Y-92842796D01*
X139025859Y-93307695D01*
X134916554Y-97417000D01*
X128906620Y-97417000D01*
X128833923Y-97344176D01*
X128306691Y-97125250D01*
X127735813Y-97124752D01*
X127208200Y-97342757D01*
X126939417Y-97611072D01*
X126923162Y-97524683D01*
X126784090Y-97308559D01*
X126571890Y-97163569D01*
X126320000Y-97112560D01*
X124720000Y-97112560D01*
X124484683Y-97156838D01*
X124468891Y-97167000D01*
X120146696Y-97167000D01*
X120109090Y-97108559D01*
X119896890Y-96963569D01*
X119645000Y-96912560D01*
X118395000Y-96912560D01*
X118159683Y-96956838D01*
X117943559Y-97095910D01*
X117894985Y-97167000D01*
X114800000Y-97167000D01*
X114362593Y-97254006D01*
X113991777Y-97501777D01*
X112756554Y-98737000D01*
X105534755Y-98737000D01*
X105219151Y-98526120D01*
X104670000Y-98416887D01*
X104120849Y-98526120D01*
X103655302Y-98837189D01*
X103400000Y-99219275D01*
X103273000Y-99029206D01*
X103273000Y-96528941D01*
X103400142Y-96443988D01*
X103405963Y-96435275D01*
X109294331Y-96435275D01*
X109356169Y-96671042D01*
X109857122Y-96847419D01*
X110387440Y-96818664D01*
X110743831Y-96671042D01*
X110805669Y-96435275D01*
X110050000Y-95679605D01*
X109294331Y-96435275D01*
X103405963Y-96435275D01*
X103689533Y-96010882D01*
X103791154Y-95500000D01*
X103752789Y-95307122D01*
X108702581Y-95307122D01*
X108731336Y-95837440D01*
X108878958Y-96193831D01*
X109114725Y-96255669D01*
X109870395Y-95500000D01*
X110229605Y-95500000D01*
X110985275Y-96255669D01*
X111221042Y-96193831D01*
X111397419Y-95692878D01*
X111368664Y-95162560D01*
X111221042Y-94806169D01*
X110985275Y-94744331D01*
X110229605Y-95500000D01*
X109870395Y-95500000D01*
X109114725Y-94744331D01*
X108878958Y-94806169D01*
X108702581Y-95307122D01*
X103752789Y-95307122D01*
X103689533Y-94989118D01*
X103573000Y-94814713D01*
X103573000Y-94564725D01*
X109294331Y-94564725D01*
X110050000Y-95320395D01*
X110805669Y-94564725D01*
X110743831Y-94328958D01*
X110242878Y-94152581D01*
X109712560Y-94181336D01*
X109356169Y-94328958D01*
X109294331Y-94564725D01*
X103573000Y-94564725D01*
X103573000Y-92435275D01*
X109294331Y-92435275D01*
X109356169Y-92671042D01*
X109857122Y-92847419D01*
X110387440Y-92818664D01*
X110743831Y-92671042D01*
X110805669Y-92435275D01*
X110050000Y-91679605D01*
X109294331Y-92435275D01*
X103573000Y-92435275D01*
X103573000Y-92185287D01*
X103689533Y-92010882D01*
X103791154Y-91500000D01*
X103752789Y-91307122D01*
X108702581Y-91307122D01*
X108731336Y-91837440D01*
X108878958Y-92193831D01*
X109114725Y-92255669D01*
X109870395Y-91500000D01*
X110229605Y-91500000D01*
X110985275Y-92255669D01*
X111221042Y-92193831D01*
X111397419Y-91692878D01*
X111368664Y-91162560D01*
X111221042Y-90806169D01*
X110985275Y-90744331D01*
X110229605Y-91500000D01*
X109870395Y-91500000D01*
X109114725Y-90744331D01*
X108878958Y-90806169D01*
X108702581Y-91307122D01*
X103752789Y-91307122D01*
X103689533Y-90989118D01*
X103573000Y-90814713D01*
X103573000Y-90564725D01*
X109294331Y-90564725D01*
X110050000Y-91320395D01*
X110805669Y-90564725D01*
X110743831Y-90328958D01*
X110242878Y-90152581D01*
X109712560Y-90181336D01*
X109356169Y-90328958D01*
X109294331Y-90564725D01*
X103573000Y-90564725D01*
X103573000Y-89078914D01*
X103751441Y-88964090D01*
X103896431Y-88751890D01*
X103947440Y-88500000D01*
X103947440Y-88469006D01*
X104289444Y-88127002D01*
X104323748Y-88127002D01*
X104165000Y-88285750D01*
X104165000Y-88626310D01*
X104261673Y-88859699D01*
X104440302Y-89038327D01*
X104673691Y-89135000D01*
X105014250Y-89135000D01*
X105173000Y-88976250D01*
X105173000Y-88127000D01*
X105427000Y-88127000D01*
X105427000Y-88976250D01*
X105585750Y-89135000D01*
X105926309Y-89135000D01*
X106159698Y-89038327D01*
X106338327Y-88859699D01*
X106435000Y-88626310D01*
X106435000Y-88285750D01*
X106276250Y-88127000D01*
X105427000Y-88127000D01*
X105173000Y-88127000D01*
X105153000Y-88127000D01*
X105153000Y-87873000D01*
X105173000Y-87873000D01*
X105173000Y-87023750D01*
X105427000Y-87023750D01*
X105427000Y-87873000D01*
X106276250Y-87873000D01*
X106435000Y-87714250D01*
X106435000Y-87373690D01*
X106338327Y-87140301D01*
X106159698Y-86961673D01*
X105926309Y-86865000D01*
X105585750Y-86865000D01*
X105427000Y-87023750D01*
X105173000Y-87023750D01*
X105014250Y-86865000D01*
X105003000Y-86865000D01*
X105003000Y-78410167D01*
X123339838Y-78410167D01*
X123481883Y-78753943D01*
X123744673Y-79017192D01*
X124088201Y-79159838D01*
X124460167Y-79160162D01*
X124803943Y-79018117D01*
X125067192Y-78755327D01*
X125209838Y-78411799D01*
X125210162Y-78039833D01*
X125142055Y-77875000D01*
X140907000Y-77875000D01*
X140994006Y-78312407D01*
X141241777Y-78683223D01*
X141316777Y-78758223D01*
X141687593Y-79005994D01*
X142125000Y-79093000D01*
X142150000Y-79093000D01*
X142587407Y-79005994D01*
X142958223Y-78758223D01*
X143205994Y-78387407D01*
X143293000Y-77950000D01*
X143205994Y-77512593D01*
X142958223Y-77141777D01*
X142882881Y-77091435D01*
X142858223Y-77066777D01*
X142487407Y-76819006D01*
X142050000Y-76732000D01*
X141612593Y-76819006D01*
X141241777Y-77066777D01*
X140994006Y-77437593D01*
X140907000Y-77875000D01*
X125142055Y-77875000D01*
X125068117Y-77696057D01*
X124805327Y-77432808D01*
X124461799Y-77290162D01*
X124089833Y-77289838D01*
X123746057Y-77431883D01*
X123482808Y-77694673D01*
X123340162Y-78038201D01*
X123339838Y-78410167D01*
X105003000Y-78410167D01*
X105003000Y-66253331D01*
X129107273Y-66253331D01*
X129333236Y-66722663D01*
X129721604Y-67069797D01*
X130066671Y-67212716D01*
X130273000Y-67089374D01*
X130273000Y-66047000D01*
X130527000Y-66047000D01*
X130527000Y-67089374D01*
X130733329Y-67212716D01*
X131078396Y-67069797D01*
X131466764Y-66722663D01*
X131692727Y-66253331D01*
X133107273Y-66253331D01*
X133333236Y-66722663D01*
X133721604Y-67069797D01*
X134066671Y-67212716D01*
X134273000Y-67089374D01*
X134273000Y-66047000D01*
X134527000Y-66047000D01*
X134527000Y-67089374D01*
X134733329Y-67212716D01*
X135078396Y-67069797D01*
X135466764Y-66722663D01*
X135692727Y-66253331D01*
X135570206Y-66047000D01*
X134527000Y-66047000D01*
X134273000Y-66047000D01*
X133229794Y-66047000D01*
X133107273Y-66253331D01*
X131692727Y-66253331D01*
X131570206Y-66047000D01*
X130527000Y-66047000D01*
X130273000Y-66047000D01*
X129229794Y-66047000D01*
X129107273Y-66253331D01*
X105003000Y-66253331D01*
X105003000Y-65586669D01*
X129107273Y-65586669D01*
X129229794Y-65793000D01*
X130273000Y-65793000D01*
X130273000Y-64750626D01*
X130527000Y-64750626D01*
X130527000Y-65793000D01*
X131570206Y-65793000D01*
X131692727Y-65586669D01*
X133107273Y-65586669D01*
X133229794Y-65793000D01*
X134273000Y-65793000D01*
X134273000Y-64750626D01*
X134527000Y-64750626D01*
X134527000Y-65793000D01*
X135570206Y-65793000D01*
X135692727Y-65586669D01*
X135466764Y-65117337D01*
X135078396Y-64770203D01*
X134733329Y-64627284D01*
X134527000Y-64750626D01*
X134273000Y-64750626D01*
X134066671Y-64627284D01*
X133721604Y-64770203D01*
X133333236Y-65117337D01*
X133107273Y-65586669D01*
X131692727Y-65586669D01*
X131466764Y-65117337D01*
X131078396Y-64770203D01*
X130733329Y-64627284D01*
X130527000Y-64750626D01*
X130273000Y-64750626D01*
X130066671Y-64627284D01*
X129721604Y-64770203D01*
X129333236Y-65117337D01*
X129107273Y-65586669D01*
X105003000Y-65586669D01*
X105003000Y-64235275D01*
X138644331Y-64235275D01*
X138706169Y-64471042D01*
X139207122Y-64647419D01*
X139737440Y-64618664D01*
X140093831Y-64471042D01*
X140155669Y-64235275D01*
X139400000Y-63479605D01*
X138644331Y-64235275D01*
X105003000Y-64235275D01*
X105003000Y-63107122D01*
X138052581Y-63107122D01*
X138081336Y-63637440D01*
X138228958Y-63993831D01*
X138464725Y-64055669D01*
X139220395Y-63300000D01*
X139579605Y-63300000D01*
X140335275Y-64055669D01*
X140571042Y-63993831D01*
X140747419Y-63492878D01*
X140718664Y-62962560D01*
X140571042Y-62606169D01*
X140335275Y-62544331D01*
X139579605Y-63300000D01*
X139220395Y-63300000D01*
X138464725Y-62544331D01*
X138228958Y-62606169D01*
X138052581Y-63107122D01*
X105003000Y-63107122D01*
X105003000Y-62364725D01*
X138644331Y-62364725D01*
X139400000Y-63120395D01*
X140155669Y-62364725D01*
X140093831Y-62128958D01*
X139592878Y-61952581D01*
X139062560Y-61981336D01*
X138706169Y-62128958D01*
X138644331Y-62364725D01*
X105003000Y-62364725D01*
X105003000Y-61189041D01*
X114008086Y-61189041D01*
X114247611Y-61695134D01*
X114662577Y-62071041D01*
X115050961Y-62231904D01*
X115273000Y-62109915D01*
X115273000Y-60967000D01*
X115527000Y-60967000D01*
X115527000Y-62109915D01*
X115749039Y-62231904D01*
X116137423Y-62071041D01*
X116552389Y-61695134D01*
X116791914Y-61189041D01*
X116670629Y-60967000D01*
X115527000Y-60967000D01*
X115273000Y-60967000D01*
X114129371Y-60967000D01*
X114008086Y-61189041D01*
X105003000Y-61189041D01*
X105003000Y-59164755D01*
X105127592Y-58978290D01*
X105182757Y-59111800D01*
X105586077Y-59515824D01*
X106113309Y-59734750D01*
X106684187Y-59735248D01*
X107211800Y-59517243D01*
X107286173Y-59443000D01*
X114513380Y-59443000D01*
X114586077Y-59515824D01*
X114736568Y-59578313D01*
X114662577Y-59608959D01*
X114247611Y-59984866D01*
X114008086Y-60490959D01*
X114129371Y-60713000D01*
X115273000Y-60713000D01*
X115273000Y-60693000D01*
X115527000Y-60693000D01*
X115527000Y-60713000D01*
X116670629Y-60713000D01*
X116740136Y-60585750D01*
X121415000Y-60585750D01*
X121415000Y-60876309D01*
X121511673Y-61109698D01*
X121690301Y-61288327D01*
X121923690Y-61385000D01*
X122164250Y-61385000D01*
X122323000Y-61226250D01*
X122323000Y-60427000D01*
X121573750Y-60427000D01*
X121415000Y-60585750D01*
X116740136Y-60585750D01*
X116791914Y-60490959D01*
X116552389Y-59984866D01*
X116137423Y-59608959D01*
X116063715Y-59578430D01*
X116211800Y-59517243D01*
X116286173Y-59443000D01*
X121558975Y-59443000D01*
X121511673Y-59490302D01*
X121415000Y-59723691D01*
X121415000Y-60014250D01*
X121573750Y-60173000D01*
X122323000Y-60173000D01*
X122323000Y-60153000D01*
X122577000Y-60153000D01*
X122577000Y-60173000D01*
X122597000Y-60173000D01*
X122597000Y-60427000D01*
X122577000Y-60427000D01*
X122577000Y-61226250D01*
X122735750Y-61385000D01*
X122976310Y-61385000D01*
X123209699Y-61288327D01*
X123388327Y-61109698D01*
X123403423Y-61073253D01*
X123485910Y-61201441D01*
X123698110Y-61346431D01*
X123950000Y-61397440D01*
X124750000Y-61397440D01*
X124985317Y-61353162D01*
X125201441Y-61214090D01*
X125346431Y-61001890D01*
X125397440Y-60750000D01*
X125397440Y-59850000D01*
X125353162Y-59614683D01*
X125242687Y-59443000D01*
X129671459Y-59443000D01*
X130133287Y-59634768D01*
X130664383Y-59635231D01*
X131129619Y-59443000D01*
X133671459Y-59443000D01*
X134133287Y-59634768D01*
X134664383Y-59635231D01*
X135155229Y-59432418D01*
X135224768Y-59363000D01*
X138714713Y-59363000D01*
X138889118Y-59479533D01*
X139400000Y-59581154D01*
X139910882Y-59479533D01*
X140343988Y-59190142D01*
X140633379Y-58757036D01*
X140735000Y-58246154D01*
X140735000Y-58193846D01*
X140633379Y-57682964D01*
X140343988Y-57249858D01*
X139910882Y-56960467D01*
X139400000Y-56858846D01*
X138889118Y-56960467D01*
X138714713Y-57077000D01*
X134935880Y-57077000D01*
X134666713Y-56965232D01*
X134135617Y-56964769D01*
X133670381Y-57157000D01*
X131128541Y-57157000D01*
X130666713Y-56965232D01*
X130135617Y-56964769D01*
X129670381Y-57157000D01*
X116286620Y-57157000D01*
X116213923Y-57084176D01*
X115686691Y-56865250D01*
X115115813Y-56864752D01*
X114588200Y-57082757D01*
X114513827Y-57157000D01*
X107286620Y-57157000D01*
X107213923Y-57084176D01*
X106686691Y-56865250D01*
X106115813Y-56864752D01*
X105588200Y-57082757D01*
X105184176Y-57486077D01*
X105127755Y-57621954D01*
X104902811Y-57285302D01*
X104437264Y-56974233D01*
X103888113Y-56865000D01*
X103831887Y-56865000D01*
X103282736Y-56974233D01*
X102817189Y-57285302D01*
X102506120Y-57750849D01*
X102396887Y-58300000D01*
X102506120Y-58849151D01*
X102717000Y-59164755D01*
X102717000Y-86466554D01*
X102330994Y-86852560D01*
X102300000Y-86852560D01*
X102064683Y-86896838D01*
X101848559Y-87035910D01*
X101703569Y-87248110D01*
X101652560Y-87500000D01*
X101652560Y-87530994D01*
X101621777Y-87561777D01*
X101374006Y-87932593D01*
X101287000Y-88370000D01*
X101287000Y-90814713D01*
X101170467Y-90989118D01*
X101068846Y-91500000D01*
X101170467Y-92010882D01*
X101287000Y-92185287D01*
X101287000Y-94814713D01*
X101170467Y-94989118D01*
X101105576Y-95315345D01*
X101074006Y-95362593D01*
X100987000Y-95800000D01*
X100987000Y-99029206D01*
X100860000Y-99219275D01*
X100733000Y-99029206D01*
X100733000Y-95920000D01*
X100645994Y-95482593D01*
X100477545Y-95230491D01*
X100429533Y-94989118D01*
X100140142Y-94556012D01*
X99707036Y-94266621D01*
X99196154Y-94165000D01*
X99143846Y-94165000D01*
X98632964Y-94266621D01*
X98199858Y-94556012D01*
X97910467Y-94989118D01*
X97808846Y-95500000D01*
X97910467Y-96010882D01*
X98199858Y-96443988D01*
X98447000Y-96609122D01*
X98447000Y-99029206D01*
X98320000Y-99219275D01*
X98064698Y-98837189D01*
X97599151Y-98526120D01*
X97050000Y-98416887D01*
X96500849Y-98526120D01*
X96185245Y-98737000D01*
X91170000Y-98737000D01*
X90732593Y-98824006D01*
X90361777Y-99071777D01*
X89368712Y-100064842D01*
X89265813Y-100064752D01*
X88738200Y-100282757D01*
X88334176Y-100686077D01*
X88115250Y-101213309D01*
X88114752Y-101784187D01*
X88332757Y-102311800D01*
X88601072Y-102580583D01*
X88514683Y-102596838D01*
X88298559Y-102735910D01*
X88153569Y-102948110D01*
X88102560Y-103200000D01*
X78133000Y-103200000D01*
X78133000Y-96435275D01*
X90794331Y-96435275D01*
X90856169Y-96671042D01*
X91357122Y-96847419D01*
X91887440Y-96818664D01*
X92243831Y-96671042D01*
X92305669Y-96435275D01*
X91550000Y-95679605D01*
X90794331Y-96435275D01*
X78133000Y-96435275D01*
X78133000Y-95307122D01*
X90202581Y-95307122D01*
X90231336Y-95837440D01*
X90378958Y-96193831D01*
X90614725Y-96255669D01*
X91370395Y-95500000D01*
X91729605Y-95500000D01*
X92485275Y-96255669D01*
X92721042Y-96193831D01*
X92897419Y-95692878D01*
X92868664Y-95162560D01*
X92721042Y-94806169D01*
X92485275Y-94744331D01*
X91729605Y-95500000D01*
X91370395Y-95500000D01*
X90614725Y-94744331D01*
X90378958Y-94806169D01*
X90202581Y-95307122D01*
X78133000Y-95307122D01*
X78133000Y-94564725D01*
X90794331Y-94564725D01*
X91550000Y-95320395D01*
X92305669Y-94564725D01*
X92243831Y-94328958D01*
X91742878Y-94152581D01*
X91212560Y-94181336D01*
X90856169Y-94328958D01*
X90794331Y-94564725D01*
X78133000Y-94564725D01*
X78133000Y-75754224D01*
X78260000Y-75564155D01*
X78387000Y-75754224D01*
X78387000Y-77570000D01*
X78474006Y-78007407D01*
X78721777Y-78378223D01*
X82972560Y-82629006D01*
X82972560Y-83280000D01*
X83016838Y-83515317D01*
X83155910Y-83731441D01*
X83368110Y-83876431D01*
X83620000Y-83927440D01*
X85320000Y-83927440D01*
X85555317Y-83883162D01*
X85771441Y-83744090D01*
X85916431Y-83531890D01*
X85930086Y-83464459D01*
X85959946Y-83509147D01*
X86441715Y-83831054D01*
X87010000Y-83944093D01*
X87578285Y-83831054D01*
X87964491Y-83573000D01*
X92130000Y-83573000D01*
X92567407Y-83485994D01*
X92938223Y-83238223D01*
X95328223Y-80848223D01*
X95575994Y-80477407D01*
X95663000Y-80040000D01*
X95663000Y-78800000D01*
X97707000Y-78800000D01*
X97794006Y-79237407D01*
X98041777Y-79608223D01*
X98412593Y-79855994D01*
X98850000Y-79943000D01*
X99287407Y-79855994D01*
X99658223Y-79608223D01*
X99933223Y-79333223D01*
X100180994Y-78962407D01*
X100268000Y-78525000D01*
X100180994Y-78087593D01*
X99933223Y-77716777D01*
X99562407Y-77469006D01*
X99125000Y-77382000D01*
X98687593Y-77469006D01*
X98316777Y-77716777D01*
X98041777Y-77991777D01*
X97794006Y-78362593D01*
X97707000Y-78800000D01*
X95663000Y-78800000D01*
X95663000Y-77922298D01*
X95753379Y-77787036D01*
X95855000Y-77276154D01*
X95855000Y-77223846D01*
X95753379Y-76712964D01*
X95463988Y-76279858D01*
X95030882Y-75990467D01*
X94520000Y-75888846D01*
X94009118Y-75990467D01*
X93834713Y-76107000D01*
X89553446Y-76107000D01*
X82963000Y-69516554D01*
X82963000Y-65995287D01*
X83079533Y-65820882D01*
X83181154Y-65310000D01*
X83079533Y-64799118D01*
X82790142Y-64366012D01*
X82357036Y-64076621D01*
X81846154Y-63975000D01*
X81793846Y-63975000D01*
X81282964Y-64076621D01*
X80849858Y-64366012D01*
X80560467Y-64799118D01*
X80458846Y-65310000D01*
X80560467Y-65820882D01*
X80677000Y-65995287D01*
X80677000Y-69990000D01*
X80764006Y-70427407D01*
X81011777Y-70798223D01*
X88271777Y-78058223D01*
X88642593Y-78305994D01*
X89080000Y-78393000D01*
X93377000Y-78393000D01*
X93377000Y-79566554D01*
X91656554Y-81287000D01*
X87964491Y-81287000D01*
X87578285Y-81028946D01*
X87010000Y-80915907D01*
X86441715Y-81028946D01*
X85959946Y-81350853D01*
X85932150Y-81392452D01*
X85923162Y-81344683D01*
X85784090Y-81128559D01*
X85571890Y-80983569D01*
X85320000Y-80932560D01*
X84509006Y-80932560D01*
X80673000Y-77096554D01*
X80673000Y-75754224D01*
X80978227Y-75297419D01*
X81095072Y-74710000D01*
X80978227Y-74122581D01*
X80645481Y-73624591D01*
X80147491Y-73291845D01*
X79560072Y-73175000D01*
X79499928Y-73175000D01*
X78912509Y-73291845D01*
X78414519Y-73624591D01*
X78260000Y-73855845D01*
X78105481Y-73624591D01*
X77607491Y-73291845D01*
X77020072Y-73175000D01*
X76959928Y-73175000D01*
X76372509Y-73291845D01*
X75951974Y-73572837D01*
X75814090Y-73358559D01*
X75601890Y-73213569D01*
X75350000Y-73162560D01*
X73550000Y-73162560D01*
X73314683Y-73206838D01*
X73098559Y-73345910D01*
X72953569Y-73558110D01*
X72902560Y-73810000D01*
X67743000Y-73810000D01*
X67743000Y-68373446D01*
X73523446Y-62593000D01*
X88426554Y-62593000D01*
X93377000Y-67543446D01*
X93377000Y-67750554D01*
X90128223Y-64501777D01*
X89757407Y-64254006D01*
X89320000Y-64167000D01*
X87628541Y-64167000D01*
X87166713Y-63975232D01*
X86635617Y-63974769D01*
X86144771Y-64177582D01*
X85768902Y-64552796D01*
X85565232Y-65043287D01*
X85564769Y-65574383D01*
X85767582Y-66065229D01*
X86142796Y-66441098D01*
X86633287Y-66644768D01*
X87164383Y-66645231D01*
X87629619Y-66453000D01*
X88846554Y-66453000D01*
X93377000Y-70983446D01*
X93377000Y-71441459D01*
X93185232Y-71903287D01*
X93184769Y-72434383D01*
X93387582Y-72925229D01*
X93762796Y-73301098D01*
X94253287Y-73504768D01*
X94784383Y-73505231D01*
X95275229Y-73302418D01*
X95651098Y-72927204D01*
X95854768Y-72436713D01*
X95855231Y-71905617D01*
X95663000Y-71440381D01*
X95663000Y-67070000D01*
X95575994Y-66632593D01*
X95328223Y-66261777D01*
X89708223Y-60641777D01*
X89337407Y-60394006D01*
X88900000Y-60307000D01*
X73050000Y-60307000D01*
X72612593Y-60394006D01*
X72241777Y-60641777D01*
X65791777Y-67091777D01*
X65544006Y-67462593D01*
X65457000Y-67900000D01*
X25552000Y-67900000D01*
X25552000Y-59493991D01*
X34639735Y-59493991D01*
X34872932Y-60058371D01*
X35304357Y-60490551D01*
X35868330Y-60724733D01*
X36478991Y-60725265D01*
X37043371Y-60492068D01*
X37202717Y-60333000D01*
X51910000Y-60333000D01*
X52347407Y-60245994D01*
X52718223Y-59998223D01*
X55202923Y-57513523D01*
X55450694Y-57142707D01*
X55537700Y-56705300D01*
X55537700Y-53245194D01*
X55720467Y-52971664D01*
X55728092Y-52933329D01*
X72227284Y-52933329D01*
X72370203Y-53278396D01*
X72717337Y-53666764D01*
X73186669Y-53892727D01*
X73393000Y-53770206D01*
X73393000Y-52727000D01*
X73647000Y-52727000D01*
X73647000Y-53770206D01*
X73853331Y-53892727D01*
X74322663Y-53666764D01*
X74669797Y-53278396D01*
X74812716Y-52933329D01*
X74689374Y-52727000D01*
X73647000Y-52727000D01*
X73393000Y-52727000D01*
X72350626Y-52727000D01*
X72227284Y-52933329D01*
X55728092Y-52933329D01*
X55829700Y-52422513D01*
X55829700Y-52366287D01*
X55809886Y-52266671D01*
X72227284Y-52266671D01*
X72350626Y-52473000D01*
X73393000Y-52473000D01*
X73393000Y-51429794D01*
X73647000Y-51429794D01*
X73647000Y-52473000D01*
X74689374Y-52473000D01*
X74812716Y-52266671D01*
X74669797Y-51921604D01*
X74322663Y-51533236D01*
X73853331Y-51307273D01*
X73647000Y-51429794D01*
X73393000Y-51429794D01*
X73186669Y-51307273D01*
X72717337Y-51533236D01*
X72370203Y-51921604D01*
X72227284Y-52266671D01*
X55809886Y-52266671D01*
X55720467Y-51817136D01*
X55409398Y-51351589D01*
X55072990Y-51126808D01*
X55206500Y-51071643D01*
X55610524Y-50668323D01*
X55829450Y-50141091D01*
X55829948Y-49570213D01*
X55611943Y-49042600D01*
X55537700Y-48968227D01*
X55537700Y-44114000D01*
X62038448Y-44114000D01*
X62141709Y-44268541D01*
X62737026Y-44666319D01*
X63439250Y-44806000D01*
X63511150Y-44806000D01*
X64213374Y-44666319D01*
X64808691Y-44268541D01*
X65206469Y-43673224D01*
X65346150Y-42971000D01*
X65206469Y-42268776D01*
X64808691Y-41673459D01*
X64213374Y-41275681D01*
X63511150Y-41136000D01*
X63439250Y-41136000D01*
X62737026Y-41275681D01*
X62141709Y-41673459D01*
X62038448Y-41828000D01*
X55427313Y-41828000D01*
X55409398Y-41801189D01*
X55072990Y-41576408D01*
X55206500Y-41521243D01*
X55610524Y-41117923D01*
X55829450Y-40590691D01*
X55829948Y-40019813D01*
X55611943Y-39492200D01*
X55208623Y-39088176D01*
X54681391Y-38869250D01*
X54576304Y-38869158D01*
X53957146Y-38250000D01*
X76739050Y-38250000D01*
X76878731Y-38952224D01*
X77276509Y-39547541D01*
X77572200Y-39745115D01*
X77572200Y-41123560D01*
X77515200Y-41123560D01*
X77279883Y-41167838D01*
X77063759Y-41306910D01*
X76918769Y-41519110D01*
X76867760Y-41771000D01*
X76867760Y-44171000D01*
X76912038Y-44406317D01*
X77051110Y-44622441D01*
X77263310Y-44767431D01*
X77457000Y-44806654D01*
X77457000Y-51871459D01*
X77265232Y-52333287D01*
X77264769Y-52864383D01*
X77467582Y-53355229D01*
X77842796Y-53731098D01*
X78333287Y-53934768D01*
X78864383Y-53935231D01*
X79355229Y-53732418D01*
X79731098Y-53357204D01*
X79934768Y-52866713D01*
X79935231Y-52335617D01*
X79743000Y-51870381D01*
X79743000Y-51500645D01*
X88341765Y-51500645D01*
X88574318Y-52062098D01*
X89065184Y-52583332D01*
X89718153Y-52877043D01*
X90002960Y-52760698D01*
X90002960Y-51215840D01*
X90256960Y-51215840D01*
X90256960Y-52760698D01*
X90541767Y-52877043D01*
X91194736Y-52583332D01*
X91685602Y-52062098D01*
X91918155Y-51500645D01*
X91801392Y-51215840D01*
X90256960Y-51215840D01*
X90002960Y-51215840D01*
X88458528Y-51215840D01*
X88341765Y-51500645D01*
X79743000Y-51500645D01*
X79743000Y-50677035D01*
X88341765Y-50677035D01*
X88458528Y-50961840D01*
X90002960Y-50961840D01*
X90002960Y-49416982D01*
X90256960Y-49416982D01*
X90256960Y-50961840D01*
X91801392Y-50961840D01*
X91918155Y-50677035D01*
X91685602Y-50115582D01*
X91194736Y-49594348D01*
X90541767Y-49300637D01*
X90256960Y-49416982D01*
X90002960Y-49416982D01*
X89718153Y-49300637D01*
X89065184Y-49594348D01*
X88574318Y-50115582D01*
X88341765Y-50677035D01*
X79743000Y-50677035D01*
X79743000Y-46097745D01*
X93172781Y-46097745D01*
X93246915Y-46343864D01*
X93784143Y-46536965D01*
X94354374Y-46509778D01*
X94754925Y-46343864D01*
X94829059Y-46097745D01*
X94000920Y-45269605D01*
X93172781Y-46097745D01*
X79743000Y-46097745D01*
X79743000Y-44873223D01*
X92553955Y-44873223D01*
X92581142Y-45443454D01*
X92747056Y-45844005D01*
X92993175Y-45918139D01*
X93821315Y-45090000D01*
X94180525Y-45090000D01*
X95008665Y-45918139D01*
X95254784Y-45844005D01*
X95447885Y-45306777D01*
X95420698Y-44736546D01*
X95254784Y-44335995D01*
X95008665Y-44261861D01*
X94180525Y-45090000D01*
X93821315Y-45090000D01*
X92993175Y-44261861D01*
X92747056Y-44335995D01*
X92553955Y-44873223D01*
X79743000Y-44873223D01*
X79743000Y-44818440D01*
X79915200Y-44818440D01*
X80150517Y-44774162D01*
X80366641Y-44635090D01*
X80511631Y-44422890D01*
X80562640Y-44171000D01*
X80562640Y-41771000D01*
X80518362Y-41535683D01*
X80379290Y-41319559D01*
X80167090Y-41174569D01*
X79915200Y-41123560D01*
X79858200Y-41123560D01*
X79858200Y-39604531D01*
X79943491Y-39547541D01*
X80341269Y-38952224D01*
X80480950Y-38250000D01*
X80341269Y-37547776D01*
X79943491Y-36952459D01*
X79348174Y-36554681D01*
X78645950Y-36415000D01*
X78574050Y-36415000D01*
X77871826Y-36554681D01*
X77276509Y-36952459D01*
X76878731Y-37547776D01*
X76739050Y-38250000D01*
X53957146Y-38250000D01*
X51609063Y-35901917D01*
X78191504Y-35901917D01*
X78506053Y-36276684D01*
X79707259Y-36612188D01*
X80945420Y-36462471D01*
X81393947Y-36276684D01*
X81708496Y-35901917D01*
X79950000Y-34143420D01*
X78191504Y-35901917D01*
X51609063Y-35901917D01*
X50356100Y-34648954D01*
X50356100Y-34210423D01*
X50546591Y-34083141D01*
X50944369Y-33487824D01*
X51084050Y-32785600D01*
X50944369Y-32083376D01*
X50611766Y-31585600D01*
X62605660Y-31585600D01*
X62605660Y-33985600D01*
X62649938Y-34220917D01*
X62789010Y-34437041D01*
X63001210Y-34582031D01*
X63253100Y-34633040D01*
X65653100Y-34633040D01*
X65888417Y-34588762D01*
X66104541Y-34449690D01*
X66249531Y-34237490D01*
X66300540Y-33985600D01*
X66300540Y-33182259D01*
X76762812Y-33182259D01*
X76912529Y-34420420D01*
X77098316Y-34868947D01*
X77473083Y-35183496D01*
X79231580Y-33425000D01*
X80668420Y-33425000D01*
X82426917Y-35183496D01*
X82801684Y-34868947D01*
X83137188Y-33667741D01*
X82987471Y-32429580D01*
X82801684Y-31981053D01*
X82426917Y-31666504D01*
X80668420Y-33425000D01*
X79231580Y-33425000D01*
X77473083Y-31666504D01*
X77098316Y-31981053D01*
X76762812Y-33182259D01*
X66300540Y-33182259D01*
X66300540Y-31715906D01*
X67068363Y-30948083D01*
X78191504Y-30948083D01*
X79950000Y-32706580D01*
X81708496Y-30948083D01*
X81393947Y-30573316D01*
X80192741Y-30237812D01*
X78954580Y-30387529D01*
X78506053Y-30573316D01*
X78191504Y-30948083D01*
X67068363Y-30948083D01*
X68573446Y-29443000D01*
X89926554Y-29443000D01*
X92707000Y-32223446D01*
X92707000Y-36402560D01*
X92650000Y-36402560D01*
X92414683Y-36446838D01*
X92198559Y-36585910D01*
X92053569Y-36798110D01*
X92002560Y-37050000D01*
X92002560Y-39450000D01*
X92046838Y-39685317D01*
X92185910Y-39901441D01*
X92398110Y-40046431D01*
X92650000Y-40097440D01*
X92857920Y-40097440D01*
X92857920Y-41256130D01*
X92749479Y-41325910D01*
X92604489Y-41538110D01*
X92553480Y-41790000D01*
X92553480Y-43390000D01*
X92597758Y-43625317D01*
X92736830Y-43841441D01*
X92949030Y-43986431D01*
X93187121Y-44034646D01*
X93172781Y-44082255D01*
X94000920Y-44910395D01*
X94829059Y-44082255D01*
X94814775Y-44034833D01*
X95036237Y-43993162D01*
X95252361Y-43854090D01*
X95335098Y-43733000D01*
X99555332Y-43733000D01*
X100013441Y-43923224D01*
X100644988Y-43923775D01*
X101228672Y-43682602D01*
X101600857Y-43311065D01*
X101970179Y-43681032D01*
X102553441Y-43923224D01*
X103184988Y-43923775D01*
X103768672Y-43682602D01*
X104140857Y-43311065D01*
X104226960Y-43397319D01*
X104226960Y-49241400D01*
X104169960Y-49241400D01*
X103934643Y-49285678D01*
X103718519Y-49424750D01*
X103573529Y-49636950D01*
X103522520Y-49888840D01*
X103522520Y-52288840D01*
X103566798Y-52524157D01*
X103705870Y-52740281D01*
X103918070Y-52885271D01*
X104169960Y-52936280D01*
X106569960Y-52936280D01*
X106805277Y-52892002D01*
X107021401Y-52752930D01*
X107166391Y-52540730D01*
X107185220Y-52447745D01*
X121493781Y-52447745D01*
X121567915Y-52693864D01*
X122105143Y-52886965D01*
X122675374Y-52859778D01*
X123075925Y-52693864D01*
X123150059Y-52447745D01*
X122321920Y-51619605D01*
X121493781Y-52447745D01*
X107185220Y-52447745D01*
X107217400Y-52288840D01*
X107217400Y-52231840D01*
X107681760Y-52231840D01*
X108119167Y-52144834D01*
X108489983Y-51897063D01*
X109163823Y-51223223D01*
X120874955Y-51223223D01*
X120902142Y-51793454D01*
X121068056Y-52194005D01*
X121314175Y-52268139D01*
X122142315Y-51440000D01*
X122501525Y-51440000D01*
X123329665Y-52268139D01*
X123575784Y-52194005D01*
X123768885Y-51656777D01*
X123741698Y-51086546D01*
X123575784Y-50685995D01*
X123329665Y-50611861D01*
X122501525Y-51440000D01*
X122142315Y-51440000D01*
X121314175Y-50611861D01*
X121068056Y-50685995D01*
X120874955Y-51223223D01*
X109163823Y-51223223D01*
X109699606Y-50687440D01*
X110580600Y-50687440D01*
X110815917Y-50643162D01*
X111032041Y-50504090D01*
X111177031Y-50291890D01*
X111228040Y-50040000D01*
X111228040Y-47840000D01*
X111183762Y-47604683D01*
X111044690Y-47388559D01*
X110832490Y-47243569D01*
X110580600Y-47192560D01*
X109080600Y-47192560D01*
X108845283Y-47236838D01*
X108629159Y-47375910D01*
X108484169Y-47588110D01*
X108433160Y-47840000D01*
X108433160Y-48720994D01*
X107217400Y-49936754D01*
X107217400Y-49888840D01*
X107173122Y-49653523D01*
X107034050Y-49437399D01*
X106821850Y-49292409D01*
X106569960Y-49241400D01*
X106512960Y-49241400D01*
X106512960Y-43478670D01*
X106680857Y-43311065D01*
X107050179Y-43681032D01*
X107633441Y-43923224D01*
X108264988Y-43923775D01*
X108848672Y-43682602D01*
X109295632Y-43236421D01*
X109537824Y-42653159D01*
X109538375Y-42021612D01*
X109297202Y-41437928D01*
X108851021Y-40990968D01*
X108267759Y-40748776D01*
X107636212Y-40748225D01*
X107052528Y-40989398D01*
X106680343Y-41360935D01*
X106311021Y-40990968D01*
X105727759Y-40748776D01*
X105096212Y-40748225D01*
X104512528Y-40989398D01*
X104140343Y-41360935D01*
X103771021Y-40990968D01*
X103187759Y-40748776D01*
X102556212Y-40748225D01*
X101972528Y-40989398D01*
X101600343Y-41360935D01*
X101231021Y-40990968D01*
X100647759Y-40748776D01*
X100016212Y-40748225D01*
X99432528Y-40989398D01*
X98985568Y-41435579D01*
X98980826Y-41447000D01*
X95334790Y-41447000D01*
X95265010Y-41338559D01*
X95143920Y-41255822D01*
X95143920Y-40079768D01*
X95285317Y-40053162D01*
X95501441Y-39914090D01*
X95646431Y-39701890D01*
X95697440Y-39450000D01*
X95697440Y-37050000D01*
X95653162Y-36814683D01*
X95514090Y-36598559D01*
X95301890Y-36453569D01*
X95050000Y-36402560D01*
X94993000Y-36402560D01*
X94993000Y-35834159D01*
X99392046Y-35834159D01*
X99484888Y-36096088D01*
X100077401Y-36314675D01*
X100708461Y-36289878D01*
X101176312Y-36096088D01*
X101269154Y-35834159D01*
X101932046Y-35834159D01*
X102024888Y-36096088D01*
X102617401Y-36314675D01*
X103248461Y-36289878D01*
X103716312Y-36096088D01*
X103809154Y-35834159D01*
X104472046Y-35834159D01*
X104564888Y-36096088D01*
X105157401Y-36314675D01*
X105788461Y-36289878D01*
X106256312Y-36096088D01*
X106349154Y-35834159D01*
X105410600Y-34895605D01*
X104472046Y-35834159D01*
X103809154Y-35834159D01*
X102870600Y-34895605D01*
X101932046Y-35834159D01*
X101269154Y-35834159D01*
X100330600Y-34895605D01*
X99392046Y-35834159D01*
X94993000Y-35834159D01*
X94993000Y-34866879D01*
X95250000Y-34918000D01*
X95687407Y-34830994D01*
X96058223Y-34583223D01*
X96138686Y-34462801D01*
X98731925Y-34462801D01*
X98756722Y-35093861D01*
X98950512Y-35561712D01*
X99212441Y-35654554D01*
X100150995Y-34716000D01*
X100510205Y-34716000D01*
X101448759Y-35654554D01*
X101600600Y-35600733D01*
X101752441Y-35654554D01*
X102690995Y-34716000D01*
X103050205Y-34716000D01*
X103988759Y-35654554D01*
X104140600Y-35600733D01*
X104292441Y-35654554D01*
X105230995Y-34716000D01*
X105590205Y-34716000D01*
X106528759Y-35654554D01*
X106614183Y-35624275D01*
X107050179Y-36061032D01*
X107633441Y-36303224D01*
X107921629Y-36303475D01*
X115087600Y-43469446D01*
X115087600Y-47338304D01*
X115029159Y-47375910D01*
X114884169Y-47588110D01*
X114833160Y-47840000D01*
X114833160Y-50040000D01*
X114877438Y-50275317D01*
X115016510Y-50491441D01*
X115228710Y-50636431D01*
X115480600Y-50687440D01*
X116980600Y-50687440D01*
X117215917Y-50643162D01*
X117432041Y-50504090D01*
X117577031Y-50291890D01*
X117619332Y-50083000D01*
X120988050Y-50083000D01*
X121057830Y-50191441D01*
X121270030Y-50336431D01*
X121508121Y-50384646D01*
X121493781Y-50432255D01*
X122321920Y-51260395D01*
X123150059Y-50432255D01*
X123135775Y-50384833D01*
X123357237Y-50343162D01*
X123573361Y-50204090D01*
X123718351Y-49991890D01*
X123769360Y-49740000D01*
X123769360Y-48140000D01*
X123725082Y-47904683D01*
X123586010Y-47688559D01*
X123431900Y-47583260D01*
X123431900Y-45463331D01*
X128903193Y-45463331D01*
X129129156Y-45932663D01*
X129517524Y-46279797D01*
X129862591Y-46422716D01*
X130068920Y-46299374D01*
X130068920Y-45257000D01*
X130322920Y-45257000D01*
X130322920Y-46299374D01*
X130529249Y-46422716D01*
X130874316Y-46279797D01*
X131262684Y-45932663D01*
X131488647Y-45463331D01*
X132332193Y-45463331D01*
X132558156Y-45932663D01*
X132946524Y-46279797D01*
X133291591Y-46422716D01*
X133497920Y-46299374D01*
X133497920Y-45257000D01*
X133751920Y-45257000D01*
X133751920Y-46299374D01*
X133958249Y-46422716D01*
X134303316Y-46279797D01*
X134691684Y-45932663D01*
X134917647Y-45463331D01*
X134795126Y-45257000D01*
X133751920Y-45257000D01*
X133497920Y-45257000D01*
X132454714Y-45257000D01*
X132332193Y-45463331D01*
X131488647Y-45463331D01*
X131366126Y-45257000D01*
X130322920Y-45257000D01*
X130068920Y-45257000D01*
X129025714Y-45257000D01*
X128903193Y-45463331D01*
X123431900Y-45463331D01*
X123431900Y-44796669D01*
X128903193Y-44796669D01*
X129025714Y-45003000D01*
X130068920Y-45003000D01*
X130068920Y-43960626D01*
X130322920Y-43960626D01*
X130322920Y-45003000D01*
X131366126Y-45003000D01*
X131488647Y-44796669D01*
X132332193Y-44796669D01*
X132454714Y-45003000D01*
X133497920Y-45003000D01*
X133497920Y-43960626D01*
X133751920Y-43960626D01*
X133751920Y-45003000D01*
X134795126Y-45003000D01*
X134917647Y-44796669D01*
X134691684Y-44327337D01*
X134303316Y-43980203D01*
X133958249Y-43837284D01*
X133751920Y-43960626D01*
X133497920Y-43960626D01*
X133291591Y-43837284D01*
X132946524Y-43980203D01*
X132558156Y-44327337D01*
X132332193Y-44796669D01*
X131488647Y-44796669D01*
X131262684Y-44327337D01*
X130874316Y-43980203D01*
X130529249Y-43837284D01*
X130322920Y-43960626D01*
X130068920Y-43960626D01*
X129862591Y-43837284D01*
X129517524Y-43980203D01*
X129129156Y-44327337D01*
X128903193Y-44796669D01*
X123431900Y-44796669D01*
X123431900Y-43525275D01*
X137060251Y-43525275D01*
X137122089Y-43761042D01*
X137623042Y-43937419D01*
X138153360Y-43908664D01*
X138509751Y-43761042D01*
X138571589Y-43525275D01*
X137815920Y-42769605D01*
X137060251Y-43525275D01*
X123431900Y-43525275D01*
X123431900Y-42397122D01*
X136468501Y-42397122D01*
X136497256Y-42927440D01*
X136644878Y-43283831D01*
X136880645Y-43345669D01*
X137636315Y-42590000D01*
X137995525Y-42590000D01*
X138751195Y-43345669D01*
X138986962Y-43283831D01*
X139163339Y-42782878D01*
X139134584Y-42252560D01*
X138986962Y-41896169D01*
X138751195Y-41834331D01*
X137995525Y-42590000D01*
X137636315Y-42590000D01*
X136880645Y-41834331D01*
X136644878Y-41896169D01*
X136468501Y-42397122D01*
X123431900Y-42397122D01*
X123431900Y-41654725D01*
X137060251Y-41654725D01*
X137815920Y-42410395D01*
X138571589Y-41654725D01*
X138509751Y-41418958D01*
X138008798Y-41242581D01*
X137478480Y-41271336D01*
X137122089Y-41418958D01*
X137060251Y-41654725D01*
X123431900Y-41654725D01*
X123431900Y-40877491D01*
X123689954Y-40491285D01*
X123724870Y-40315750D01*
X125250920Y-40315750D01*
X125250920Y-40656309D01*
X125347593Y-40889698D01*
X125526221Y-41068327D01*
X125759610Y-41165000D01*
X126100170Y-41165000D01*
X126258920Y-41006250D01*
X126258920Y-40157000D01*
X126512920Y-40157000D01*
X126512920Y-41006250D01*
X126671670Y-41165000D01*
X127012230Y-41165000D01*
X127245619Y-41068327D01*
X127424247Y-40889698D01*
X127520920Y-40656309D01*
X127520920Y-40315750D01*
X127362170Y-40157000D01*
X126512920Y-40157000D01*
X126258920Y-40157000D01*
X125409670Y-40157000D01*
X125250920Y-40315750D01*
X123724870Y-40315750D01*
X123802993Y-39923000D01*
X123699696Y-39403691D01*
X125250920Y-39403691D01*
X125250920Y-39744250D01*
X125409670Y-39903000D01*
X126258920Y-39903000D01*
X126258920Y-39053750D01*
X126512920Y-39053750D01*
X126512920Y-39903000D01*
X127362170Y-39903000D01*
X127520920Y-39744250D01*
X127520920Y-39403691D01*
X127424247Y-39170302D01*
X127245619Y-38991673D01*
X127012230Y-38895000D01*
X126671670Y-38895000D01*
X126512920Y-39053750D01*
X126258920Y-39053750D01*
X126100170Y-38895000D01*
X125759610Y-38895000D01*
X125526221Y-38991673D01*
X125347593Y-39170302D01*
X125250920Y-39403691D01*
X123699696Y-39403691D01*
X123689954Y-39354715D01*
X123368047Y-38872946D01*
X123326448Y-38845150D01*
X123374217Y-38836162D01*
X123590341Y-38697090D01*
X123707242Y-38526000D01*
X125487044Y-38526000D01*
X125634030Y-38626431D01*
X125885920Y-38677440D01*
X126885920Y-38677440D01*
X126909517Y-38673000D01*
X129515544Y-38673000D01*
X129929207Y-38844768D01*
X130460303Y-38845231D01*
X130925539Y-38653000D01*
X132896379Y-38653000D01*
X133358207Y-38844768D01*
X133889303Y-38845231D01*
X134354539Y-38653000D01*
X137130633Y-38653000D01*
X137305038Y-38769533D01*
X137815920Y-38871154D01*
X138326802Y-38769533D01*
X138759908Y-38480142D01*
X139049299Y-38047036D01*
X139150920Y-37536154D01*
X139150920Y-37483846D01*
X139049299Y-36972964D01*
X138759908Y-36539858D01*
X138326802Y-36250467D01*
X137815920Y-36148846D01*
X137305038Y-36250467D01*
X137130633Y-36367000D01*
X136175906Y-36367000D01*
X136393947Y-36276684D01*
X136708496Y-35901917D01*
X134950000Y-34143420D01*
X133191504Y-35901917D01*
X133420558Y-36174821D01*
X133360537Y-36174769D01*
X132895301Y-36367000D01*
X130924461Y-36367000D01*
X130462633Y-36175232D01*
X129931537Y-36174769D01*
X129440691Y-36377582D01*
X129431257Y-36387000D01*
X126907845Y-36387000D01*
X126885920Y-36382560D01*
X126759470Y-36382560D01*
X126676327Y-36327006D01*
X126238920Y-36240000D01*
X123704944Y-36240000D01*
X123602990Y-36081559D01*
X123390790Y-35936569D01*
X123138900Y-35885560D01*
X121438900Y-35885560D01*
X121203583Y-35929838D01*
X120987459Y-36068910D01*
X120842469Y-36281110D01*
X120791460Y-36533000D01*
X120791460Y-38233000D01*
X120835738Y-38468317D01*
X120974810Y-38684441D01*
X121187010Y-38829431D01*
X121254441Y-38843086D01*
X121209753Y-38872946D01*
X120887846Y-39354715D01*
X120774807Y-39923000D01*
X120887846Y-40491285D01*
X121145900Y-40877491D01*
X121145900Y-47627378D01*
X121070479Y-47675910D01*
X120987742Y-47797000D01*
X117619949Y-47797000D01*
X117583762Y-47604683D01*
X117444690Y-47388559D01*
X117373600Y-47339985D01*
X117373600Y-42996000D01*
X117286594Y-42558593D01*
X117038823Y-42187777D01*
X109538126Y-34687080D01*
X109538375Y-34401612D01*
X109297202Y-33817928D01*
X108851021Y-33370968D01*
X108396561Y-33182259D01*
X131762812Y-33182259D01*
X131912529Y-34420420D01*
X132098316Y-34868947D01*
X132473083Y-35183496D01*
X134231580Y-33425000D01*
X135668420Y-33425000D01*
X137426917Y-35183496D01*
X137801684Y-34868947D01*
X138137188Y-33667741D01*
X137987471Y-32429580D01*
X137801684Y-31981053D01*
X137426917Y-31666504D01*
X135668420Y-33425000D01*
X134231580Y-33425000D01*
X132473083Y-31666504D01*
X132098316Y-31981053D01*
X131762812Y-33182259D01*
X108396561Y-33182259D01*
X108267759Y-33128776D01*
X107636212Y-33128225D01*
X107052528Y-33369398D01*
X106613632Y-33807529D01*
X106528759Y-33777446D01*
X105590205Y-34716000D01*
X105230995Y-34716000D01*
X104292441Y-33777446D01*
X104140600Y-33831267D01*
X103988759Y-33777446D01*
X103050205Y-34716000D01*
X102690995Y-34716000D01*
X101752441Y-33777446D01*
X101600600Y-33831267D01*
X101448759Y-33777446D01*
X100510205Y-34716000D01*
X100150995Y-34716000D01*
X99212441Y-33777446D01*
X98950512Y-33870288D01*
X98731925Y-34462801D01*
X96138686Y-34462801D01*
X96305994Y-34212407D01*
X96306042Y-34212165D01*
X96355994Y-34137407D01*
X96443000Y-33700000D01*
X96422680Y-33597841D01*
X99392046Y-33597841D01*
X100330600Y-34536395D01*
X101269154Y-33597841D01*
X101932046Y-33597841D01*
X102870600Y-34536395D01*
X103809154Y-33597841D01*
X104472046Y-33597841D01*
X105410600Y-34536395D01*
X106349154Y-33597841D01*
X106256312Y-33335912D01*
X105663799Y-33117325D01*
X105032739Y-33142122D01*
X104564888Y-33335912D01*
X104472046Y-33597841D01*
X103809154Y-33597841D01*
X103716312Y-33335912D01*
X103123799Y-33117325D01*
X102492739Y-33142122D01*
X102024888Y-33335912D01*
X101932046Y-33597841D01*
X101269154Y-33597841D01*
X101176312Y-33335912D01*
X100583799Y-33117325D01*
X99952739Y-33142122D01*
X99484888Y-33335912D01*
X99392046Y-33597841D01*
X96422680Y-33597841D01*
X96355994Y-33262593D01*
X96108223Y-32891777D01*
X95737407Y-32644006D01*
X95300000Y-32557000D01*
X94993000Y-32618066D01*
X94993000Y-31750000D01*
X94905994Y-31312593D01*
X94662437Y-30948083D01*
X133191504Y-30948083D01*
X134950000Y-32706580D01*
X136708496Y-30948083D01*
X136393947Y-30573316D01*
X135192741Y-30237812D01*
X133954580Y-30387529D01*
X133506053Y-30573316D01*
X133191504Y-30948083D01*
X94662437Y-30948083D01*
X94658223Y-30941777D01*
X92601613Y-28885167D01*
X140389838Y-28885167D01*
X140531883Y-29228943D01*
X140794673Y-29492192D01*
X141138201Y-29634838D01*
X141510167Y-29635162D01*
X141853943Y-29493117D01*
X142117192Y-29230327D01*
X142259838Y-28886799D01*
X142260162Y-28514833D01*
X142118117Y-28171057D01*
X141855327Y-27907808D01*
X141511799Y-27765162D01*
X141139833Y-27764838D01*
X140796057Y-27906883D01*
X140532808Y-28169673D01*
X140390162Y-28513201D01*
X140389838Y-28885167D01*
X92601613Y-28885167D01*
X91208223Y-27491777D01*
X90837407Y-27244006D01*
X90400000Y-27157000D01*
X68100000Y-27157000D01*
X67662593Y-27244006D01*
X67291777Y-27491777D01*
X63845394Y-30938160D01*
X63253100Y-30938160D01*
X63017783Y-30982438D01*
X62801659Y-31121510D01*
X62656669Y-31333710D01*
X62605660Y-31585600D01*
X50611766Y-31585600D01*
X50546591Y-31488059D01*
X49951274Y-31090281D01*
X49249050Y-30950600D01*
X49177150Y-30950600D01*
X49024842Y-30980896D01*
X47460723Y-29416777D01*
X47089907Y-29169006D01*
X46652500Y-29082000D01*
X40872440Y-29082000D01*
X40872440Y-28475000D01*
X40828162Y-28239683D01*
X40689090Y-28023559D01*
X40476890Y-27878569D01*
X40225000Y-27827560D01*
X36725000Y-27827560D01*
X36489683Y-27871838D01*
X36273559Y-28010910D01*
X36128569Y-28223110D01*
X36077560Y-28475000D01*
X36077560Y-31975000D01*
X36121838Y-32210317D01*
X36260910Y-32426441D01*
X36473110Y-32571431D01*
X36725000Y-32622440D01*
X40225000Y-32622440D01*
X40460317Y-32578162D01*
X40676441Y-32439090D01*
X40777560Y-32291097D01*
X40777560Y-34149663D01*
X40763327Y-34115302D01*
X40584699Y-33936673D01*
X40351310Y-33840000D01*
X38760750Y-33840000D01*
X38602000Y-33998750D01*
X38602000Y-36098000D01*
X40701250Y-36098000D01*
X40860000Y-35939250D01*
X40860000Y-35269622D01*
X40960910Y-35426441D01*
X41173110Y-35571431D01*
X41425000Y-35622440D01*
X44925000Y-35622440D01*
X45160317Y-35578162D01*
X45376441Y-35439090D01*
X45521431Y-35226890D01*
X45572440Y-34975000D01*
X45572440Y-31475000D01*
X45552307Y-31368000D01*
X46179054Y-31368000D01*
X47384375Y-32573321D01*
X47342150Y-32785600D01*
X47481831Y-33487824D01*
X47879609Y-34083141D01*
X48070100Y-34210423D01*
X48070100Y-35122400D01*
X48157106Y-35559807D01*
X48404877Y-35930623D01*
X52959542Y-40485288D01*
X52959452Y-40588187D01*
X53177457Y-41115800D01*
X53580777Y-41519824D01*
X53716654Y-41576245D01*
X53380002Y-41801189D01*
X53068933Y-42266736D01*
X52959700Y-42815887D01*
X52959700Y-42872113D01*
X53068933Y-43421264D01*
X53251700Y-43694794D01*
X53251700Y-48967780D01*
X53178876Y-49040477D01*
X52959950Y-49567709D01*
X52959452Y-50138587D01*
X53177457Y-50666200D01*
X53580777Y-51070224D01*
X53716654Y-51126645D01*
X53380002Y-51351589D01*
X53068933Y-51817136D01*
X52959700Y-52366287D01*
X52959700Y-52422513D01*
X53068933Y-52971664D01*
X53251700Y-53245194D01*
X53251700Y-56231854D01*
X51436554Y-58047000D01*
X37476026Y-58047000D01*
X37613327Y-57909698D01*
X37710000Y-57676309D01*
X37710000Y-56935750D01*
X37551250Y-56777000D01*
X36302000Y-56777000D01*
X36302000Y-56797000D01*
X36048000Y-56797000D01*
X36048000Y-56777000D01*
X34798750Y-56777000D01*
X34640000Y-56935750D01*
X34640000Y-57676309D01*
X34736673Y-57909698D01*
X34915301Y-58088327D01*
X35049994Y-58144119D01*
X34874449Y-58319357D01*
X34640267Y-58883330D01*
X34639735Y-59493991D01*
X25552000Y-59493991D01*
X25552000Y-55623691D01*
X34640000Y-55623691D01*
X34640000Y-56364250D01*
X34798750Y-56523000D01*
X36048000Y-56523000D01*
X36048000Y-55273750D01*
X36302000Y-55273750D01*
X36302000Y-56523000D01*
X37551250Y-56523000D01*
X37710000Y-56364250D01*
X37710000Y-55623691D01*
X37613327Y-55390302D01*
X37434699Y-55211673D01*
X37201310Y-55115000D01*
X36460750Y-55115000D01*
X36302000Y-55273750D01*
X36048000Y-55273750D01*
X35889250Y-55115000D01*
X35148690Y-55115000D01*
X34915301Y-55211673D01*
X34736673Y-55390302D01*
X34640000Y-55623691D01*
X25552000Y-55623691D01*
X25552000Y-36510750D01*
X36090000Y-36510750D01*
X36090000Y-38101309D01*
X36186673Y-38334698D01*
X36365301Y-38513327D01*
X36598690Y-38610000D01*
X38189250Y-38610000D01*
X38348000Y-38451250D01*
X38348000Y-36352000D01*
X38602000Y-36352000D01*
X38602000Y-38451250D01*
X38760750Y-38610000D01*
X40351310Y-38610000D01*
X40584699Y-38513327D01*
X40763327Y-38334698D01*
X40860000Y-38101309D01*
X40860000Y-36510750D01*
X40701250Y-36352000D01*
X38602000Y-36352000D01*
X38348000Y-36352000D01*
X36248750Y-36352000D01*
X36090000Y-36510750D01*
X25552000Y-36510750D01*
X25552000Y-34348691D01*
X36090000Y-34348691D01*
X36090000Y-35939250D01*
X36248750Y-36098000D01*
X38348000Y-36098000D01*
X38348000Y-33998750D01*
X38189250Y-33840000D01*
X36598690Y-33840000D01*
X36365301Y-33936673D01*
X36186673Y-34115302D01*
X36090000Y-34348691D01*
X25552000Y-34348691D01*
X25552000Y-30160167D01*
X30664838Y-30160167D01*
X30806883Y-30503943D01*
X31069673Y-30767192D01*
X31413201Y-30909838D01*
X31785167Y-30910162D01*
X32128943Y-30768117D01*
X32392192Y-30505327D01*
X32534838Y-30161799D01*
X32535162Y-29789833D01*
X32393117Y-29446057D01*
X32130327Y-29182808D01*
X31786799Y-29040162D01*
X31414833Y-29039838D01*
X31071057Y-29181883D01*
X30807808Y-29444673D01*
X30665162Y-29788201D01*
X30664838Y-30160167D01*
X25552000Y-30160167D01*
X25552000Y-25626895D01*
X145773000Y-25527085D01*
X145773000Y-123873000D01*
M02*
