M48
;DRILL file {KiCad 4.0.5} date 04/12/17 15:31:18
;FORMAT={-:-/ absolute / inch / decimal}
FMAT,2
INCH,TZ
T1C0.028
T2C0.030
T3C0.031
T4C0.035
T5C0.039
T6C0.047
%
G90
G05
M72
T1
X2.742Y0.4225
X2.742Y0.1225
X2.7455Y0.9195
X2.7455Y0.6195
X2.749Y1.3815
X2.749Y1.0815
X2.924Y0.426
X2.924Y0.126
X2.9275Y0.9125
X2.9275Y0.6125
X2.9345Y1.385
X2.9345Y1.085
T2
X1.9795Y1.1465
X1.9795Y0.8465
X2.0795Y1.1465
X2.0795Y0.8465
X2.1795Y1.1465
X2.1795Y0.8465
X2.2795Y1.1465
X2.2795Y0.8465
T3
X0.208Y1.049
X0.208Y0.949
X0.2115Y0.713
X0.2115Y0.613
X2.434Y0.244
X2.434Y0.1456
X2.532Y0.909
X2.532Y0.809
X2.5355Y1.385
X2.5355Y1.285
T4
X0.2605Y0.461
X0.3605Y0.461
T5
X0.1955Y1.3465
X0.2955Y1.3465
X0.6875Y0.391
X0.6875Y0.291
X1.875Y0.615
X1.875Y0.4181
X2.539Y0.547
X2.539Y0.447
X3.148Y1.38
X3.148Y1.28
X3.148Y0.9075
X3.148Y0.8075
X3.148Y0.421
X3.148Y0.321
T6
X0.4165Y0.846
X0.8245Y1.182
X1.0165Y0.846
X1.211Y0.8495
X1.4245Y1.182
X1.596Y0.16
X1.811Y0.8495
X2.196Y0.16
T0
M30
