G04 #@! TF.FileFunction,Legend,Top*
%FSLAX46Y46*%
G04 Gerber Fmt 4.6, Leading zero omitted, Abs format (unit mm)*
G04 Created by KiCad (PCBNEW 4.0.5) date Sunday, May 07, 2017 'PMt' 01:26:42 PM*
%MOMM*%
%LPD*%
G01*
G04 APERTURE LIST*
%ADD10C,0.100000*%
%ADD11C,0.200000*%
%ADD12C,0.300000*%
%ADD13C,0.150000*%
%ADD14C,0.120000*%
G04 APERTURE END LIST*
D10*
D11*
X84330000Y-99840000D02*
X64010000Y-99840000D01*
X64010000Y-99840000D02*
X64010000Y-122020000D01*
X64010000Y-122020000D02*
X84330000Y-122020000D01*
X84330000Y-122020000D02*
X84330000Y-99860000D01*
D12*
X96797144Y-31022857D02*
X97011430Y-31094286D01*
X97082858Y-31165714D01*
X97154287Y-31308571D01*
X97154287Y-31522857D01*
X97082858Y-31665714D01*
X97011430Y-31737143D01*
X96868572Y-31808571D01*
X96297144Y-31808571D01*
X96297144Y-30308571D01*
X96797144Y-30308571D01*
X96940001Y-30380000D01*
X97011430Y-30451429D01*
X97082858Y-30594286D01*
X97082858Y-30737143D01*
X97011430Y-30880000D01*
X96940001Y-30951429D01*
X96797144Y-31022857D01*
X96297144Y-31022857D01*
X98440001Y-30808571D02*
X98440001Y-31808571D01*
X97797144Y-30808571D02*
X97797144Y-31594286D01*
X97868572Y-31737143D01*
X98011430Y-31808571D01*
X98225715Y-31808571D01*
X98368572Y-31737143D01*
X98440001Y-31665714D01*
X99797144Y-31737143D02*
X99654287Y-31808571D01*
X99368573Y-31808571D01*
X99225715Y-31737143D01*
X99154287Y-31665714D01*
X99082858Y-31522857D01*
X99082858Y-31094286D01*
X99154287Y-30951429D01*
X99225715Y-30880000D01*
X99368573Y-30808571D01*
X99654287Y-30808571D01*
X99797144Y-30880000D01*
X100440001Y-31808571D02*
X100440001Y-30308571D01*
X100582858Y-31237143D02*
X101011429Y-31808571D01*
X101011429Y-30808571D02*
X100440001Y-31380000D01*
X102511430Y-31665714D02*
X102440001Y-31737143D01*
X102225715Y-31808571D01*
X102082858Y-31808571D01*
X101868573Y-31737143D01*
X101725715Y-31594286D01*
X101654287Y-31451429D01*
X101582858Y-31165714D01*
X101582858Y-30951429D01*
X101654287Y-30665714D01*
X101725715Y-30522857D01*
X101868573Y-30380000D01*
X102082858Y-30308571D01*
X102225715Y-30308571D01*
X102440001Y-30380000D01*
X102511430Y-30451429D01*
X103368573Y-31808571D02*
X103225715Y-31737143D01*
X103154287Y-31665714D01*
X103082858Y-31522857D01*
X103082858Y-31094286D01*
X103154287Y-30951429D01*
X103225715Y-30880000D01*
X103368573Y-30808571D01*
X103582858Y-30808571D01*
X103725715Y-30880000D01*
X103797144Y-30951429D01*
X103868573Y-31094286D01*
X103868573Y-31522857D01*
X103797144Y-31665714D01*
X103725715Y-31737143D01*
X103582858Y-31808571D01*
X103368573Y-31808571D01*
X104511430Y-30808571D02*
X104511430Y-31808571D01*
X104511430Y-30951429D02*
X104582858Y-30880000D01*
X104725716Y-30808571D01*
X104940001Y-30808571D01*
X105082858Y-30880000D01*
X105154287Y-31022857D01*
X105154287Y-31808571D01*
X105725716Y-30808571D02*
X106082859Y-31808571D01*
X106440001Y-30808571D01*
X107582858Y-31737143D02*
X107440001Y-31808571D01*
X107154287Y-31808571D01*
X107011430Y-31737143D01*
X106940001Y-31594286D01*
X106940001Y-31022857D01*
X107011430Y-30880000D01*
X107154287Y-30808571D01*
X107440001Y-30808571D01*
X107582858Y-30880000D01*
X107654287Y-31022857D01*
X107654287Y-31165714D01*
X106940001Y-31308571D01*
X108297144Y-31808571D02*
X108297144Y-30808571D01*
X108297144Y-31094286D02*
X108368572Y-30951429D01*
X108440001Y-30880000D01*
X108582858Y-30808571D01*
X108725715Y-30808571D01*
X109011429Y-30808571D02*
X109582858Y-30808571D01*
X109225715Y-30308571D02*
X109225715Y-31594286D01*
X109297143Y-31737143D01*
X109440001Y-31808571D01*
X109582858Y-31808571D01*
X110654286Y-31737143D02*
X110511429Y-31808571D01*
X110225715Y-31808571D01*
X110082858Y-31737143D01*
X110011429Y-31594286D01*
X110011429Y-31022857D01*
X110082858Y-30880000D01*
X110225715Y-30808571D01*
X110511429Y-30808571D01*
X110654286Y-30880000D01*
X110725715Y-31022857D01*
X110725715Y-31165714D01*
X110011429Y-31308571D01*
X111368572Y-31808571D02*
X111368572Y-30808571D01*
X111368572Y-31094286D02*
X111440000Y-30951429D01*
X111511429Y-30880000D01*
X111654286Y-30808571D01*
X111797143Y-30808571D01*
X68314285Y-103728571D02*
X67599999Y-103728571D01*
X67599999Y-102228571D01*
X68814285Y-103728571D02*
X68814285Y-102728571D01*
X68814285Y-102228571D02*
X68742856Y-102300000D01*
X68814285Y-102371429D01*
X68885713Y-102300000D01*
X68814285Y-102228571D01*
X68814285Y-102371429D01*
X70171428Y-102728571D02*
X70171428Y-103942857D01*
X70099999Y-104085714D01*
X70028571Y-104157143D01*
X69885714Y-104228571D01*
X69671428Y-104228571D01*
X69528571Y-104157143D01*
X70171428Y-103657143D02*
X70028571Y-103728571D01*
X69742857Y-103728571D01*
X69599999Y-103657143D01*
X69528571Y-103585714D01*
X69457142Y-103442857D01*
X69457142Y-103014286D01*
X69528571Y-102871429D01*
X69599999Y-102800000D01*
X69742857Y-102728571D01*
X70028571Y-102728571D01*
X70171428Y-102800000D01*
X70885714Y-103728571D02*
X70885714Y-102228571D01*
X71528571Y-103728571D02*
X71528571Y-102942857D01*
X71457142Y-102800000D01*
X71314285Y-102728571D01*
X71100000Y-102728571D01*
X70957142Y-102800000D01*
X70885714Y-102871429D01*
X72028571Y-102728571D02*
X72600000Y-102728571D01*
X72242857Y-102228571D02*
X72242857Y-103514286D01*
X72314285Y-103657143D01*
X72457143Y-103728571D01*
X72600000Y-103728571D01*
X73385714Y-102228571D02*
X73671428Y-102228571D01*
X73814286Y-102300000D01*
X73957143Y-102442857D01*
X74028571Y-102728571D01*
X74028571Y-103228571D01*
X73957143Y-103514286D01*
X73814286Y-103657143D01*
X73671428Y-103728571D01*
X73385714Y-103728571D01*
X73242857Y-103657143D01*
X73100000Y-103514286D01*
X73028571Y-103228571D01*
X73028571Y-102728571D01*
X73100000Y-102442857D01*
X73242857Y-102300000D01*
X73385714Y-102228571D01*
X75314286Y-102728571D02*
X75314286Y-103728571D01*
X74671429Y-102728571D02*
X74671429Y-103514286D01*
X74742857Y-103657143D01*
X74885715Y-103728571D01*
X75100000Y-103728571D01*
X75242857Y-103657143D01*
X75314286Y-103585714D01*
X76028572Y-102728571D02*
X76028572Y-104228571D01*
X76028572Y-102800000D02*
X76171429Y-102728571D01*
X76457143Y-102728571D01*
X76600000Y-102800000D01*
X76671429Y-102871429D01*
X76742858Y-103014286D01*
X76742858Y-103442857D01*
X76671429Y-103585714D01*
X76600000Y-103657143D01*
X76457143Y-103728571D01*
X76171429Y-103728571D01*
X76028572Y-103657143D01*
X78028572Y-102728571D02*
X78028572Y-103728571D01*
X77385715Y-102728571D02*
X77385715Y-103514286D01*
X77457143Y-103657143D01*
X77600001Y-103728571D01*
X77814286Y-103728571D01*
X77957143Y-103657143D01*
X78028572Y-103585714D01*
X78528572Y-102728571D02*
X79100001Y-102728571D01*
X78742858Y-102228571D02*
X78742858Y-103514286D01*
X78814286Y-103657143D01*
X78957144Y-103728571D01*
X79100001Y-103728571D01*
X79600001Y-103585714D02*
X79671429Y-103657143D01*
X79600001Y-103728571D01*
X79528572Y-103657143D01*
X79600001Y-103585714D01*
X79600001Y-103728571D01*
X79600001Y-103157143D02*
X79528572Y-102300000D01*
X79600001Y-102228571D01*
X79671429Y-102300000D01*
X79600001Y-103157143D01*
X79600001Y-102228571D01*
X125935715Y-70035000D02*
X126650001Y-70035000D01*
X125792858Y-70463571D02*
X126292858Y-68963571D01*
X126792858Y-70463571D01*
X128150001Y-70320714D02*
X128078572Y-70392143D01*
X127864286Y-70463571D01*
X127721429Y-70463571D01*
X127507144Y-70392143D01*
X127364286Y-70249286D01*
X127292858Y-70106429D01*
X127221429Y-69820714D01*
X127221429Y-69606429D01*
X127292858Y-69320714D01*
X127364286Y-69177857D01*
X127507144Y-69035000D01*
X127721429Y-68963571D01*
X127864286Y-68963571D01*
X128078572Y-69035000D01*
X128150001Y-69106429D01*
X129578572Y-70463571D02*
X128721429Y-70463571D01*
X129150001Y-70463571D02*
X129150001Y-68963571D01*
X129007144Y-69177857D01*
X128864286Y-69320714D01*
X128721429Y-69392143D01*
X130150000Y-69106429D02*
X130221429Y-69035000D01*
X130364286Y-68963571D01*
X130721429Y-68963571D01*
X130864286Y-69035000D01*
X130935715Y-69106429D01*
X131007143Y-69249286D01*
X131007143Y-69392143D01*
X130935715Y-69606429D01*
X130078572Y-70463571D01*
X131007143Y-70463571D01*
X131935714Y-68963571D02*
X132078571Y-68963571D01*
X132221428Y-69035000D01*
X132292857Y-69106429D01*
X132364286Y-69249286D01*
X132435714Y-69535000D01*
X132435714Y-69892143D01*
X132364286Y-70177857D01*
X132292857Y-70320714D01*
X132221428Y-70392143D01*
X132078571Y-70463571D01*
X131935714Y-70463571D01*
X131792857Y-70392143D01*
X131721428Y-70320714D01*
X131650000Y-70177857D01*
X131578571Y-69892143D01*
X131578571Y-69535000D01*
X131650000Y-69249286D01*
X131721428Y-69106429D01*
X131792857Y-69035000D01*
X131935714Y-68963571D01*
X132864285Y-68963571D02*
X133364285Y-70463571D01*
X133864285Y-68963571D01*
X134364285Y-70463571D02*
X134364285Y-69463571D01*
X134364285Y-68963571D02*
X134292856Y-69035000D01*
X134364285Y-69106429D01*
X134435713Y-69035000D01*
X134364285Y-68963571D01*
X134364285Y-69106429D01*
X135078571Y-69463571D02*
X135078571Y-70463571D01*
X135078571Y-69606429D02*
X135149999Y-69535000D01*
X135292857Y-69463571D01*
X135507142Y-69463571D01*
X135649999Y-69535000D01*
X135721428Y-69677857D01*
X135721428Y-70463571D01*
X136435714Y-69463571D02*
X136435714Y-70963571D01*
X136435714Y-69535000D02*
X136578571Y-69463571D01*
X136864285Y-69463571D01*
X137007142Y-69535000D01*
X137078571Y-69606429D01*
X137150000Y-69749286D01*
X137150000Y-70177857D01*
X137078571Y-70320714D01*
X137007142Y-70392143D01*
X136864285Y-70463571D01*
X136578571Y-70463571D01*
X136435714Y-70392143D01*
X138435714Y-69463571D02*
X138435714Y-70463571D01*
X137792857Y-69463571D02*
X137792857Y-70249286D01*
X137864285Y-70392143D01*
X138007143Y-70463571D01*
X138221428Y-70463571D01*
X138364285Y-70392143D01*
X138435714Y-70320714D01*
X138935714Y-69463571D02*
X139507143Y-69463571D01*
X139150000Y-68963571D02*
X139150000Y-70249286D01*
X139221428Y-70392143D01*
X139364286Y-70463571D01*
X139507143Y-70463571D01*
D11*
X143480000Y-90320000D02*
X143480000Y-68160000D01*
X123160000Y-90320000D02*
X143480000Y-90320000D01*
X123160000Y-68140000D02*
X123160000Y-90320000D01*
X143480000Y-68140000D02*
X123160000Y-68140000D01*
D12*
X32628171Y-98156542D02*
X34128171Y-97799399D01*
X33056743Y-97513685D01*
X34128171Y-97227971D01*
X32628171Y-96870828D01*
X34128171Y-95656542D02*
X33342457Y-95656542D01*
X33199600Y-95727971D01*
X33128171Y-95870828D01*
X33128171Y-96156542D01*
X33199600Y-96299399D01*
X34056743Y-95656542D02*
X34128171Y-95799399D01*
X34128171Y-96156542D01*
X34056743Y-96299399D01*
X33913886Y-96370828D01*
X33771029Y-96370828D01*
X33628171Y-96299399D01*
X33556743Y-96156542D01*
X33556743Y-95799399D01*
X33485314Y-95656542D01*
X34128171Y-94727970D02*
X34056743Y-94870828D01*
X33913886Y-94942256D01*
X32628171Y-94942256D01*
X34128171Y-93942256D02*
X34056743Y-94085114D01*
X33913886Y-94156542D01*
X32628171Y-94156542D01*
X32628171Y-93513685D02*
X34128171Y-93156542D01*
X33056743Y-92870828D01*
X34128171Y-92585114D01*
X32628171Y-92227971D01*
X34128171Y-91013685D02*
X33342457Y-91013685D01*
X33199600Y-91085114D01*
X33128171Y-91227971D01*
X33128171Y-91513685D01*
X33199600Y-91656542D01*
X34056743Y-91013685D02*
X34128171Y-91156542D01*
X34128171Y-91513685D01*
X34056743Y-91656542D01*
X33913886Y-91727971D01*
X33771029Y-91727971D01*
X33628171Y-91656542D01*
X33556743Y-91513685D01*
X33556743Y-91156542D01*
X33485314Y-91013685D01*
X34128171Y-90299399D02*
X33128171Y-90299399D01*
X33413886Y-90299399D02*
X33271029Y-90227971D01*
X33199600Y-90156542D01*
X33128171Y-90013685D01*
X33128171Y-89870828D01*
X33128171Y-89585114D02*
X33128171Y-89013685D01*
X32628171Y-89370828D02*
X33913886Y-89370828D01*
X34056743Y-89299400D01*
X34128171Y-89156542D01*
X34128171Y-89013685D01*
X33342457Y-88013685D02*
X33413886Y-87799399D01*
X33485314Y-87727971D01*
X33628171Y-87656542D01*
X33842457Y-87656542D01*
X33985314Y-87727971D01*
X34056743Y-87799399D01*
X34128171Y-87942257D01*
X34128171Y-88513685D01*
X32628171Y-88513685D01*
X32628171Y-88013685D01*
X32699600Y-87870828D01*
X32771029Y-87799399D01*
X32913886Y-87727971D01*
X33056743Y-87727971D01*
X33199600Y-87799399D01*
X33271029Y-87870828D01*
X33342457Y-88013685D01*
X33342457Y-88513685D01*
X34128171Y-86799399D02*
X34056743Y-86942257D01*
X33913886Y-87013685D01*
X32628171Y-87013685D01*
X34128171Y-86013685D02*
X34056743Y-86156543D01*
X33985314Y-86227971D01*
X33842457Y-86299400D01*
X33413886Y-86299400D01*
X33271029Y-86227971D01*
X33199600Y-86156543D01*
X33128171Y-86013685D01*
X33128171Y-85799400D01*
X33199600Y-85656543D01*
X33271029Y-85585114D01*
X33413886Y-85513685D01*
X33842457Y-85513685D01*
X33985314Y-85585114D01*
X34056743Y-85656543D01*
X34128171Y-85799400D01*
X34128171Y-86013685D01*
X34056743Y-84227971D02*
X34128171Y-84370828D01*
X34128171Y-84656542D01*
X34056743Y-84799400D01*
X33985314Y-84870828D01*
X33842457Y-84942257D01*
X33413886Y-84942257D01*
X33271029Y-84870828D01*
X33199600Y-84799400D01*
X33128171Y-84656542D01*
X33128171Y-84370828D01*
X33199600Y-84227971D01*
X34128171Y-83585114D02*
X32628171Y-83585114D01*
X33556743Y-83442257D02*
X34128171Y-83013686D01*
X33128171Y-83013686D02*
X33699600Y-83585114D01*
D11*
X29283200Y-61261600D02*
X29283200Y-120723000D01*
X62303200Y-61261600D02*
X29283200Y-61261600D01*
X62303200Y-120748400D02*
X62303200Y-61261600D01*
X29283200Y-120748400D02*
X62303200Y-120748400D01*
D13*
X126150000Y-34925000D02*
X88750000Y-34925000D01*
X88750000Y-34925000D02*
X88750000Y-113925000D01*
X88750000Y-113925000D02*
X126150000Y-113925000D01*
X126150000Y-113925000D02*
X126150000Y-34925000D01*
X120450000Y-43425000D02*
X94450000Y-43425000D01*
X94450000Y-43425000D02*
X94450000Y-105425000D01*
X94450000Y-105425000D02*
X120450000Y-105425000D01*
X120450000Y-105425000D02*
X120450000Y-43425000D01*
D14*
X123301277Y-53278440D02*
G75*
G03X123301920Y-47101764I-979357J3088440D01*
G01*
X121342563Y-53278440D02*
G75*
G02X121341920Y-47101764I979357J3088440D01*
G01*
X121342563Y-53278440D02*
G75*
G03X123301920Y-53278236I979357J3088440D01*
G01*
X125521920Y-50190000D02*
X119121920Y-50190000D01*
X125521920Y-50230000D02*
X119121920Y-50230000D01*
X125521920Y-50270000D02*
X119121920Y-50270000D01*
X125519920Y-50310000D02*
X119123920Y-50310000D01*
X125518920Y-50350000D02*
X119124920Y-50350000D01*
X125515920Y-50390000D02*
X119127920Y-50390000D01*
X125513920Y-50430000D02*
X119129920Y-50430000D01*
X125509920Y-50470000D02*
X123301920Y-50470000D01*
X121341920Y-50470000D02*
X119133920Y-50470000D01*
X125506920Y-50510000D02*
X123301920Y-50510000D01*
X121341920Y-50510000D02*
X119136920Y-50510000D01*
X125501920Y-50550000D02*
X123301920Y-50550000D01*
X121341920Y-50550000D02*
X119141920Y-50550000D01*
X125497920Y-50590000D02*
X123301920Y-50590000D01*
X121341920Y-50590000D02*
X119145920Y-50590000D01*
X125491920Y-50630000D02*
X123301920Y-50630000D01*
X121341920Y-50630000D02*
X119151920Y-50630000D01*
X125486920Y-50670000D02*
X123301920Y-50670000D01*
X121341920Y-50670000D02*
X119156920Y-50670000D01*
X125479920Y-50710000D02*
X123301920Y-50710000D01*
X121341920Y-50710000D02*
X119163920Y-50710000D01*
X125473920Y-50750000D02*
X123301920Y-50750000D01*
X121341920Y-50750000D02*
X119169920Y-50750000D01*
X125465920Y-50790000D02*
X123301920Y-50790000D01*
X121341920Y-50790000D02*
X119177920Y-50790000D01*
X125458920Y-50830000D02*
X123301920Y-50830000D01*
X121341920Y-50830000D02*
X119184920Y-50830000D01*
X125449920Y-50870000D02*
X123301920Y-50870000D01*
X121341920Y-50870000D02*
X119193920Y-50870000D01*
X125440920Y-50911000D02*
X123301920Y-50911000D01*
X121341920Y-50911000D02*
X119202920Y-50911000D01*
X125431920Y-50951000D02*
X123301920Y-50951000D01*
X121341920Y-50951000D02*
X119211920Y-50951000D01*
X125421920Y-50991000D02*
X123301920Y-50991000D01*
X121341920Y-50991000D02*
X119221920Y-50991000D01*
X125411920Y-51031000D02*
X123301920Y-51031000D01*
X121341920Y-51031000D02*
X119231920Y-51031000D01*
X125400920Y-51071000D02*
X123301920Y-51071000D01*
X121341920Y-51071000D02*
X119242920Y-51071000D01*
X125388920Y-51111000D02*
X123301920Y-51111000D01*
X121341920Y-51111000D02*
X119254920Y-51111000D01*
X125376920Y-51151000D02*
X123301920Y-51151000D01*
X121341920Y-51151000D02*
X119266920Y-51151000D01*
X125363920Y-51191000D02*
X123301920Y-51191000D01*
X121341920Y-51191000D02*
X119279920Y-51191000D01*
X125350920Y-51231000D02*
X123301920Y-51231000D01*
X121341920Y-51231000D02*
X119292920Y-51231000D01*
X125336920Y-51271000D02*
X123301920Y-51271000D01*
X121341920Y-51271000D02*
X119306920Y-51271000D01*
X125322920Y-51311000D02*
X123301920Y-51311000D01*
X121341920Y-51311000D02*
X119320920Y-51311000D01*
X125307920Y-51351000D02*
X123301920Y-51351000D01*
X121341920Y-51351000D02*
X119335920Y-51351000D01*
X125291920Y-51391000D02*
X123301920Y-51391000D01*
X121341920Y-51391000D02*
X119351920Y-51391000D01*
X125275920Y-51431000D02*
X123301920Y-51431000D01*
X121341920Y-51431000D02*
X119367920Y-51431000D01*
X125258920Y-51471000D02*
X123301920Y-51471000D01*
X121341920Y-51471000D02*
X119384920Y-51471000D01*
X125240920Y-51511000D02*
X123301920Y-51511000D01*
X121341920Y-51511000D02*
X119402920Y-51511000D01*
X125222920Y-51551000D02*
X123301920Y-51551000D01*
X121341920Y-51551000D02*
X119420920Y-51551000D01*
X125203920Y-51591000D02*
X123301920Y-51591000D01*
X121341920Y-51591000D02*
X119439920Y-51591000D01*
X125184920Y-51631000D02*
X123301920Y-51631000D01*
X121341920Y-51631000D02*
X119458920Y-51631000D01*
X125164920Y-51671000D02*
X123301920Y-51671000D01*
X121341920Y-51671000D02*
X119478920Y-51671000D01*
X125143920Y-51711000D02*
X123301920Y-51711000D01*
X121341920Y-51711000D02*
X119499920Y-51711000D01*
X125121920Y-51751000D02*
X123301920Y-51751000D01*
X121341920Y-51751000D02*
X119521920Y-51751000D01*
X125099920Y-51791000D02*
X123301920Y-51791000D01*
X121341920Y-51791000D02*
X119543920Y-51791000D01*
X125076920Y-51831000D02*
X123301920Y-51831000D01*
X121341920Y-51831000D02*
X119566920Y-51831000D01*
X125052920Y-51871000D02*
X123301920Y-51871000D01*
X121341920Y-51871000D02*
X119590920Y-51871000D01*
X125027920Y-51911000D02*
X123301920Y-51911000D01*
X121341920Y-51911000D02*
X119615920Y-51911000D01*
X125002920Y-51951000D02*
X123301920Y-51951000D01*
X121341920Y-51951000D02*
X119640920Y-51951000D01*
X124975920Y-51991000D02*
X123301920Y-51991000D01*
X121341920Y-51991000D02*
X119667920Y-51991000D01*
X124948920Y-52031000D02*
X123301920Y-52031000D01*
X121341920Y-52031000D02*
X119694920Y-52031000D01*
X124920920Y-52071000D02*
X123301920Y-52071000D01*
X121341920Y-52071000D02*
X119722920Y-52071000D01*
X124891920Y-52111000D02*
X123301920Y-52111000D01*
X121341920Y-52111000D02*
X119751920Y-52111000D01*
X124861920Y-52151000D02*
X123301920Y-52151000D01*
X121341920Y-52151000D02*
X119781920Y-52151000D01*
X124831920Y-52191000D02*
X123301920Y-52191000D01*
X121341920Y-52191000D02*
X119811920Y-52191000D01*
X124799920Y-52231000D02*
X123301920Y-52231000D01*
X121341920Y-52231000D02*
X119843920Y-52231000D01*
X124766920Y-52271000D02*
X123301920Y-52271000D01*
X121341920Y-52271000D02*
X119876920Y-52271000D01*
X124732920Y-52311000D02*
X123301920Y-52311000D01*
X121341920Y-52311000D02*
X119910920Y-52311000D01*
X124696920Y-52351000D02*
X123301920Y-52351000D01*
X121341920Y-52351000D02*
X119946920Y-52351000D01*
X124660920Y-52391000D02*
X123301920Y-52391000D01*
X121341920Y-52391000D02*
X119982920Y-52391000D01*
X124622920Y-52431000D02*
X120020920Y-52431000D01*
X124583920Y-52471000D02*
X120059920Y-52471000D01*
X124543920Y-52511000D02*
X120099920Y-52511000D01*
X124501920Y-52551000D02*
X120141920Y-52551000D01*
X124458920Y-52591000D02*
X120184920Y-52591000D01*
X124413920Y-52631000D02*
X120229920Y-52631000D01*
X124366920Y-52671000D02*
X120276920Y-52671000D01*
X124318920Y-52711000D02*
X120324920Y-52711000D01*
X124267920Y-52751000D02*
X120375920Y-52751000D01*
X124215920Y-52791000D02*
X120427920Y-52791000D01*
X124160920Y-52831000D02*
X120482920Y-52831000D01*
X124102920Y-52871000D02*
X120540920Y-52871000D01*
X124042920Y-52911000D02*
X120600920Y-52911000D01*
X123979920Y-52951000D02*
X120663920Y-52951000D01*
X123912920Y-52991000D02*
X120730920Y-52991000D01*
X123841920Y-53031000D02*
X120801920Y-53031000D01*
X123766920Y-53071000D02*
X120876920Y-53071000D01*
X123685920Y-53111000D02*
X120957920Y-53111000D01*
X123599920Y-53151000D02*
X121043920Y-53151000D01*
X123505920Y-53191000D02*
X121137920Y-53191000D01*
X123402920Y-53231000D02*
X121240920Y-53231000D01*
X123287920Y-53271000D02*
X121355920Y-53271000D01*
X123155920Y-53311000D02*
X121487920Y-53311000D01*
X122997920Y-53351000D02*
X121645920Y-53351000D01*
X122789920Y-53391000D02*
X121853920Y-53391000D01*
X122321920Y-46740000D02*
X122321920Y-47940000D01*
X122971920Y-47340000D02*
X121671920Y-47340000D01*
X120898900Y-38653000D02*
X120898900Y-41313000D01*
X120898900Y-41313000D02*
X123678900Y-41313000D01*
X123678900Y-41313000D02*
X123678900Y-38653000D01*
X123678900Y-38653000D02*
X120898900Y-38653000D01*
X120898900Y-37383000D02*
X120898900Y-35993000D01*
X120898900Y-35993000D02*
X122288900Y-35993000D01*
D13*
X109220600Y-37637000D02*
X109220600Y-35224000D01*
X109220600Y-39415000D02*
X109220600Y-41828000D01*
X109220600Y-37637000D02*
G75*
G03X108331600Y-38526000I0J-889000D01*
G01*
X108331600Y-38526000D02*
G75*
G03X109220600Y-39415000I889000J0D01*
G01*
X108585600Y-36367000D02*
G75*
G03X108585600Y-36367000I-254000J0D01*
G01*
X99060600Y-35224000D02*
X99187600Y-35224000D01*
X101727600Y-35224000D02*
X101473600Y-35224000D01*
X104267600Y-35224000D02*
X104013600Y-35224000D01*
X106807600Y-35224000D02*
X106553600Y-35224000D01*
X109220600Y-35224000D02*
X109093600Y-35224000D01*
X109220600Y-41828000D02*
X109093600Y-41828000D01*
X99060600Y-41828000D02*
X99187600Y-41828000D01*
X101727600Y-41828000D02*
X101473600Y-41828000D01*
X104267600Y-41828000D02*
X104013600Y-41828000D01*
X106807600Y-41828000D02*
X106553600Y-41828000D01*
X99060600Y-35224000D02*
X99060600Y-41828000D01*
D14*
X28805000Y-60480000D02*
G75*
G02X28805000Y-55360000I0J2560000D01*
G01*
X34965000Y-55360000D02*
X28805000Y-55360000D01*
X34965000Y-60480000D02*
X28805000Y-60480000D01*
X34965000Y-55360000D02*
X34965000Y-60480000D01*
X34965000Y-60880000D02*
X33845000Y-60880000D01*
X33845000Y-60880000D02*
X33845000Y-60480000D01*
X33845000Y-60480000D02*
X34965000Y-60480000D01*
X34965000Y-60480000D02*
X34965000Y-60880000D01*
X35095000Y-56650000D02*
X34965000Y-56650000D01*
X34965000Y-56650000D02*
X34965000Y-56650000D01*
X34965000Y-56650000D02*
X35095000Y-56650000D01*
X35095000Y-56650000D02*
X35095000Y-56650000D01*
X35095000Y-59190000D02*
X34965000Y-59190000D01*
X34965000Y-59190000D02*
X34965000Y-59190000D01*
X34965000Y-59190000D02*
X35095000Y-59190000D01*
X35095000Y-59190000D02*
X35095000Y-59190000D01*
X74955200Y-44831000D02*
X74955200Y-41111000D01*
X74955200Y-41111000D02*
X67235200Y-41111000D01*
X67235200Y-41111000D02*
X67235200Y-44831000D01*
X67235200Y-44831000D02*
X74955200Y-44831000D01*
X77335200Y-42971000D02*
X74955200Y-42971000D01*
X64855200Y-42971000D02*
X67235200Y-42971000D01*
X73755200Y-44831000D02*
X73755200Y-41111000D01*
X60693100Y-34645600D02*
X60693100Y-30925600D01*
X60693100Y-30925600D02*
X52973100Y-30925600D01*
X52973100Y-30925600D02*
X52973100Y-34645600D01*
X52973100Y-34645600D02*
X60693100Y-34645600D01*
X63073100Y-32785600D02*
X60693100Y-32785600D01*
X50593100Y-32785600D02*
X52973100Y-32785600D01*
X59493100Y-34645600D02*
X59493100Y-30925600D01*
X90090000Y-40110000D02*
X90090000Y-36390000D01*
X90090000Y-36390000D02*
X82370000Y-36390000D01*
X82370000Y-36390000D02*
X82370000Y-40110000D01*
X82370000Y-40110000D02*
X90090000Y-40110000D01*
X92470000Y-38250000D02*
X90090000Y-38250000D01*
X79990000Y-38250000D02*
X82370000Y-38250000D01*
X88890000Y-40110000D02*
X88890000Y-36390000D01*
X108100000Y-92360000D02*
X108100000Y-90640000D01*
X108100000Y-90640000D02*
X104380000Y-90640000D01*
X104380000Y-90640000D02*
X104380000Y-92360000D01*
X104380000Y-92360000D02*
X108100000Y-92360000D01*
X109170000Y-91500000D02*
X108100000Y-91500000D01*
X103310000Y-91500000D02*
X104380000Y-91500000D01*
X131260000Y-60250000D02*
X129540000Y-60250000D01*
X129540000Y-60250000D02*
X129540000Y-63970000D01*
X129540000Y-63970000D02*
X131260000Y-63970000D01*
X131260000Y-63970000D02*
X131260000Y-60250000D01*
X130400000Y-59180000D02*
X130400000Y-60250000D01*
X130400000Y-65040000D02*
X130400000Y-63970000D01*
X108100000Y-96360000D02*
X108100000Y-94640000D01*
X108100000Y-94640000D02*
X104380000Y-94640000D01*
X104380000Y-94640000D02*
X104380000Y-96360000D01*
X104380000Y-96360000D02*
X108100000Y-96360000D01*
X109170000Y-95500000D02*
X108100000Y-95500000D01*
X103310000Y-95500000D02*
X104380000Y-95500000D01*
X135260000Y-60250000D02*
X133540000Y-60250000D01*
X133540000Y-60250000D02*
X133540000Y-63970000D01*
X133540000Y-63970000D02*
X135260000Y-63970000D01*
X135260000Y-63970000D02*
X135260000Y-60250000D01*
X134400000Y-59180000D02*
X134400000Y-60250000D01*
X134400000Y-65040000D02*
X134400000Y-63970000D01*
X131055920Y-39460000D02*
X129335920Y-39460000D01*
X129335920Y-39460000D02*
X129335920Y-43180000D01*
X129335920Y-43180000D02*
X131055920Y-43180000D01*
X131055920Y-43180000D02*
X131055920Y-39460000D01*
X130195920Y-38390000D02*
X130195920Y-39460000D01*
X130195920Y-44250000D02*
X130195920Y-43180000D01*
X134484920Y-39460000D02*
X132764920Y-39460000D01*
X132764920Y-39460000D02*
X132764920Y-43180000D01*
X132764920Y-43180000D02*
X134484920Y-43180000D01*
X134484920Y-43180000D02*
X134484920Y-39460000D01*
X133624920Y-38390000D02*
X133624920Y-39460000D01*
X133624920Y-44250000D02*
X133624920Y-43180000D01*
X101609960Y-52948840D02*
X101609960Y-49228840D01*
X101609960Y-49228840D02*
X93889960Y-49228840D01*
X93889960Y-49228840D02*
X93889960Y-52948840D01*
X93889960Y-52948840D02*
X101609960Y-52948840D01*
X103989960Y-51088840D02*
X101609960Y-51088840D01*
X91509960Y-51088840D02*
X93889960Y-51088840D01*
X100409960Y-52948840D02*
X100409960Y-49228840D01*
X53595278Y-41758828D02*
G75*
G02X55194700Y-41758510I799422J1454828D01*
G01*
X53595278Y-51309228D02*
G75*
G02X55194700Y-51308910I799422J1454828D01*
G01*
X104945172Y-57500578D02*
G75*
G02X104945490Y-59100000I1454828J-799422D01*
G01*
X114600578Y-59754828D02*
G75*
G02X116200000Y-59754510I799422J1454828D01*
G01*
X88570643Y-99661560D02*
G75*
G03X88570000Y-105838236I979357J-3088440D01*
G01*
X90529357Y-99661560D02*
G75*
G02X90530000Y-105838236I-979357J-3088440D01*
G01*
X90529357Y-99661560D02*
G75*
G03X88570000Y-99661764I-979357J-3088440D01*
G01*
X86350000Y-102750000D02*
X92750000Y-102750000D01*
X86350000Y-102710000D02*
X92750000Y-102710000D01*
X86350000Y-102670000D02*
X92750000Y-102670000D01*
X86352000Y-102630000D02*
X92748000Y-102630000D01*
X86353000Y-102590000D02*
X92747000Y-102590000D01*
X86356000Y-102550000D02*
X92744000Y-102550000D01*
X86358000Y-102510000D02*
X92742000Y-102510000D01*
X86362000Y-102470000D02*
X88570000Y-102470000D01*
X90530000Y-102470000D02*
X92738000Y-102470000D01*
X86365000Y-102430000D02*
X88570000Y-102430000D01*
X90530000Y-102430000D02*
X92735000Y-102430000D01*
X86370000Y-102390000D02*
X88570000Y-102390000D01*
X90530000Y-102390000D02*
X92730000Y-102390000D01*
X86374000Y-102350000D02*
X88570000Y-102350000D01*
X90530000Y-102350000D02*
X92726000Y-102350000D01*
X86380000Y-102310000D02*
X88570000Y-102310000D01*
X90530000Y-102310000D02*
X92720000Y-102310000D01*
X86385000Y-102270000D02*
X88570000Y-102270000D01*
X90530000Y-102270000D02*
X92715000Y-102270000D01*
X86392000Y-102230000D02*
X88570000Y-102230000D01*
X90530000Y-102230000D02*
X92708000Y-102230000D01*
X86398000Y-102190000D02*
X88570000Y-102190000D01*
X90530000Y-102190000D02*
X92702000Y-102190000D01*
X86406000Y-102150000D02*
X88570000Y-102150000D01*
X90530000Y-102150000D02*
X92694000Y-102150000D01*
X86413000Y-102110000D02*
X88570000Y-102110000D01*
X90530000Y-102110000D02*
X92687000Y-102110000D01*
X86422000Y-102070000D02*
X88570000Y-102070000D01*
X90530000Y-102070000D02*
X92678000Y-102070000D01*
X86431000Y-102029000D02*
X88570000Y-102029000D01*
X90530000Y-102029000D02*
X92669000Y-102029000D01*
X86440000Y-101989000D02*
X88570000Y-101989000D01*
X90530000Y-101989000D02*
X92660000Y-101989000D01*
X86450000Y-101949000D02*
X88570000Y-101949000D01*
X90530000Y-101949000D02*
X92650000Y-101949000D01*
X86460000Y-101909000D02*
X88570000Y-101909000D01*
X90530000Y-101909000D02*
X92640000Y-101909000D01*
X86471000Y-101869000D02*
X88570000Y-101869000D01*
X90530000Y-101869000D02*
X92629000Y-101869000D01*
X86483000Y-101829000D02*
X88570000Y-101829000D01*
X90530000Y-101829000D02*
X92617000Y-101829000D01*
X86495000Y-101789000D02*
X88570000Y-101789000D01*
X90530000Y-101789000D02*
X92605000Y-101789000D01*
X86508000Y-101749000D02*
X88570000Y-101749000D01*
X90530000Y-101749000D02*
X92592000Y-101749000D01*
X86521000Y-101709000D02*
X88570000Y-101709000D01*
X90530000Y-101709000D02*
X92579000Y-101709000D01*
X86535000Y-101669000D02*
X88570000Y-101669000D01*
X90530000Y-101669000D02*
X92565000Y-101669000D01*
X86549000Y-101629000D02*
X88570000Y-101629000D01*
X90530000Y-101629000D02*
X92551000Y-101629000D01*
X86564000Y-101589000D02*
X88570000Y-101589000D01*
X90530000Y-101589000D02*
X92536000Y-101589000D01*
X86580000Y-101549000D02*
X88570000Y-101549000D01*
X90530000Y-101549000D02*
X92520000Y-101549000D01*
X86596000Y-101509000D02*
X88570000Y-101509000D01*
X90530000Y-101509000D02*
X92504000Y-101509000D01*
X86613000Y-101469000D02*
X88570000Y-101469000D01*
X90530000Y-101469000D02*
X92487000Y-101469000D01*
X86631000Y-101429000D02*
X88570000Y-101429000D01*
X90530000Y-101429000D02*
X92469000Y-101429000D01*
X86649000Y-101389000D02*
X88570000Y-101389000D01*
X90530000Y-101389000D02*
X92451000Y-101389000D01*
X86668000Y-101349000D02*
X88570000Y-101349000D01*
X90530000Y-101349000D02*
X92432000Y-101349000D01*
X86687000Y-101309000D02*
X88570000Y-101309000D01*
X90530000Y-101309000D02*
X92413000Y-101309000D01*
X86707000Y-101269000D02*
X88570000Y-101269000D01*
X90530000Y-101269000D02*
X92393000Y-101269000D01*
X86728000Y-101229000D02*
X88570000Y-101229000D01*
X90530000Y-101229000D02*
X92372000Y-101229000D01*
X86750000Y-101189000D02*
X88570000Y-101189000D01*
X90530000Y-101189000D02*
X92350000Y-101189000D01*
X86772000Y-101149000D02*
X88570000Y-101149000D01*
X90530000Y-101149000D02*
X92328000Y-101149000D01*
X86795000Y-101109000D02*
X88570000Y-101109000D01*
X90530000Y-101109000D02*
X92305000Y-101109000D01*
X86819000Y-101069000D02*
X88570000Y-101069000D01*
X90530000Y-101069000D02*
X92281000Y-101069000D01*
X86844000Y-101029000D02*
X88570000Y-101029000D01*
X90530000Y-101029000D02*
X92256000Y-101029000D01*
X86869000Y-100989000D02*
X88570000Y-100989000D01*
X90530000Y-100989000D02*
X92231000Y-100989000D01*
X86896000Y-100949000D02*
X88570000Y-100949000D01*
X90530000Y-100949000D02*
X92204000Y-100949000D01*
X86923000Y-100909000D02*
X88570000Y-100909000D01*
X90530000Y-100909000D02*
X92177000Y-100909000D01*
X86951000Y-100869000D02*
X88570000Y-100869000D01*
X90530000Y-100869000D02*
X92149000Y-100869000D01*
X86980000Y-100829000D02*
X88570000Y-100829000D01*
X90530000Y-100829000D02*
X92120000Y-100829000D01*
X87010000Y-100789000D02*
X88570000Y-100789000D01*
X90530000Y-100789000D02*
X92090000Y-100789000D01*
X87040000Y-100749000D02*
X88570000Y-100749000D01*
X90530000Y-100749000D02*
X92060000Y-100749000D01*
X87072000Y-100709000D02*
X88570000Y-100709000D01*
X90530000Y-100709000D02*
X92028000Y-100709000D01*
X87105000Y-100669000D02*
X88570000Y-100669000D01*
X90530000Y-100669000D02*
X91995000Y-100669000D01*
X87139000Y-100629000D02*
X88570000Y-100629000D01*
X90530000Y-100629000D02*
X91961000Y-100629000D01*
X87175000Y-100589000D02*
X88570000Y-100589000D01*
X90530000Y-100589000D02*
X91925000Y-100589000D01*
X87211000Y-100549000D02*
X88570000Y-100549000D01*
X90530000Y-100549000D02*
X91889000Y-100549000D01*
X87249000Y-100509000D02*
X91851000Y-100509000D01*
X87288000Y-100469000D02*
X91812000Y-100469000D01*
X87328000Y-100429000D02*
X91772000Y-100429000D01*
X87370000Y-100389000D02*
X91730000Y-100389000D01*
X87413000Y-100349000D02*
X91687000Y-100349000D01*
X87458000Y-100309000D02*
X91642000Y-100309000D01*
X87505000Y-100269000D02*
X91595000Y-100269000D01*
X87553000Y-100229000D02*
X91547000Y-100229000D01*
X87604000Y-100189000D02*
X91496000Y-100189000D01*
X87656000Y-100149000D02*
X91444000Y-100149000D01*
X87711000Y-100109000D02*
X91389000Y-100109000D01*
X87769000Y-100069000D02*
X91331000Y-100069000D01*
X87829000Y-100029000D02*
X91271000Y-100029000D01*
X87892000Y-99989000D02*
X91208000Y-99989000D01*
X87959000Y-99949000D02*
X91141000Y-99949000D01*
X88030000Y-99909000D02*
X91070000Y-99909000D01*
X88105000Y-99869000D02*
X90995000Y-99869000D01*
X88186000Y-99829000D02*
X90914000Y-99829000D01*
X88272000Y-99789000D02*
X90828000Y-99789000D01*
X88366000Y-99749000D02*
X90734000Y-99749000D01*
X88469000Y-99709000D02*
X90631000Y-99709000D01*
X88584000Y-99669000D02*
X90516000Y-99669000D01*
X88716000Y-99629000D02*
X90384000Y-99629000D01*
X88874000Y-99589000D02*
X90226000Y-99589000D01*
X89082000Y-99549000D02*
X90018000Y-99549000D01*
X89550000Y-106200000D02*
X89550000Y-105000000D01*
X88900000Y-105600000D02*
X90200000Y-105600000D01*
X93500000Y-94640000D02*
X93500000Y-96360000D01*
X93500000Y-96360000D02*
X97220000Y-96360000D01*
X97220000Y-96360000D02*
X97220000Y-94640000D01*
X97220000Y-94640000D02*
X93500000Y-94640000D01*
X92430000Y-95500000D02*
X93500000Y-95500000D01*
X98290000Y-95500000D02*
X97220000Y-95500000D01*
X119870000Y-100060000D02*
X119870000Y-99060000D01*
X118170000Y-99060000D02*
X118170000Y-100060000D01*
X129858440Y-97580643D02*
G75*
G03X123681764Y-97580000I-3088440J-979357D01*
G01*
X129858440Y-99539357D02*
G75*
G02X123681764Y-99540000I-3088440J979357D01*
G01*
X129858440Y-99539357D02*
G75*
G03X129858236Y-97580000I-3088440J979357D01*
G01*
X126770000Y-95360000D02*
X126770000Y-101760000D01*
X126810000Y-95360000D02*
X126810000Y-101760000D01*
X126850000Y-95360000D02*
X126850000Y-101760000D01*
X126890000Y-95362000D02*
X126890000Y-101758000D01*
X126930000Y-95363000D02*
X126930000Y-101757000D01*
X126970000Y-95366000D02*
X126970000Y-101754000D01*
X127010000Y-95368000D02*
X127010000Y-101752000D01*
X127050000Y-95372000D02*
X127050000Y-97580000D01*
X127050000Y-99540000D02*
X127050000Y-101748000D01*
X127090000Y-95375000D02*
X127090000Y-97580000D01*
X127090000Y-99540000D02*
X127090000Y-101745000D01*
X127130000Y-95380000D02*
X127130000Y-97580000D01*
X127130000Y-99540000D02*
X127130000Y-101740000D01*
X127170000Y-95384000D02*
X127170000Y-97580000D01*
X127170000Y-99540000D02*
X127170000Y-101736000D01*
X127210000Y-95390000D02*
X127210000Y-97580000D01*
X127210000Y-99540000D02*
X127210000Y-101730000D01*
X127250000Y-95395000D02*
X127250000Y-97580000D01*
X127250000Y-99540000D02*
X127250000Y-101725000D01*
X127290000Y-95402000D02*
X127290000Y-97580000D01*
X127290000Y-99540000D02*
X127290000Y-101718000D01*
X127330000Y-95408000D02*
X127330000Y-97580000D01*
X127330000Y-99540000D02*
X127330000Y-101712000D01*
X127370000Y-95416000D02*
X127370000Y-97580000D01*
X127370000Y-99540000D02*
X127370000Y-101704000D01*
X127410000Y-95423000D02*
X127410000Y-97580000D01*
X127410000Y-99540000D02*
X127410000Y-101697000D01*
X127450000Y-95432000D02*
X127450000Y-97580000D01*
X127450000Y-99540000D02*
X127450000Y-101688000D01*
X127491000Y-95441000D02*
X127491000Y-97580000D01*
X127491000Y-99540000D02*
X127491000Y-101679000D01*
X127531000Y-95450000D02*
X127531000Y-97580000D01*
X127531000Y-99540000D02*
X127531000Y-101670000D01*
X127571000Y-95460000D02*
X127571000Y-97580000D01*
X127571000Y-99540000D02*
X127571000Y-101660000D01*
X127611000Y-95470000D02*
X127611000Y-97580000D01*
X127611000Y-99540000D02*
X127611000Y-101650000D01*
X127651000Y-95481000D02*
X127651000Y-97580000D01*
X127651000Y-99540000D02*
X127651000Y-101639000D01*
X127691000Y-95493000D02*
X127691000Y-97580000D01*
X127691000Y-99540000D02*
X127691000Y-101627000D01*
X127731000Y-95505000D02*
X127731000Y-97580000D01*
X127731000Y-99540000D02*
X127731000Y-101615000D01*
X127771000Y-95518000D02*
X127771000Y-97580000D01*
X127771000Y-99540000D02*
X127771000Y-101602000D01*
X127811000Y-95531000D02*
X127811000Y-97580000D01*
X127811000Y-99540000D02*
X127811000Y-101589000D01*
X127851000Y-95545000D02*
X127851000Y-97580000D01*
X127851000Y-99540000D02*
X127851000Y-101575000D01*
X127891000Y-95559000D02*
X127891000Y-97580000D01*
X127891000Y-99540000D02*
X127891000Y-101561000D01*
X127931000Y-95574000D02*
X127931000Y-97580000D01*
X127931000Y-99540000D02*
X127931000Y-101546000D01*
X127971000Y-95590000D02*
X127971000Y-97580000D01*
X127971000Y-99540000D02*
X127971000Y-101530000D01*
X128011000Y-95606000D02*
X128011000Y-97580000D01*
X128011000Y-99540000D02*
X128011000Y-101514000D01*
X128051000Y-95623000D02*
X128051000Y-97580000D01*
X128051000Y-99540000D02*
X128051000Y-101497000D01*
X128091000Y-95641000D02*
X128091000Y-97580000D01*
X128091000Y-99540000D02*
X128091000Y-101479000D01*
X128131000Y-95659000D02*
X128131000Y-97580000D01*
X128131000Y-99540000D02*
X128131000Y-101461000D01*
X128171000Y-95678000D02*
X128171000Y-97580000D01*
X128171000Y-99540000D02*
X128171000Y-101442000D01*
X128211000Y-95697000D02*
X128211000Y-97580000D01*
X128211000Y-99540000D02*
X128211000Y-101423000D01*
X128251000Y-95717000D02*
X128251000Y-97580000D01*
X128251000Y-99540000D02*
X128251000Y-101403000D01*
X128291000Y-95738000D02*
X128291000Y-97580000D01*
X128291000Y-99540000D02*
X128291000Y-101382000D01*
X128331000Y-95760000D02*
X128331000Y-97580000D01*
X128331000Y-99540000D02*
X128331000Y-101360000D01*
X128371000Y-95782000D02*
X128371000Y-97580000D01*
X128371000Y-99540000D02*
X128371000Y-101338000D01*
X128411000Y-95805000D02*
X128411000Y-97580000D01*
X128411000Y-99540000D02*
X128411000Y-101315000D01*
X128451000Y-95829000D02*
X128451000Y-97580000D01*
X128451000Y-99540000D02*
X128451000Y-101291000D01*
X128491000Y-95854000D02*
X128491000Y-97580000D01*
X128491000Y-99540000D02*
X128491000Y-101266000D01*
X128531000Y-95879000D02*
X128531000Y-97580000D01*
X128531000Y-99540000D02*
X128531000Y-101241000D01*
X128571000Y-95906000D02*
X128571000Y-97580000D01*
X128571000Y-99540000D02*
X128571000Y-101214000D01*
X128611000Y-95933000D02*
X128611000Y-97580000D01*
X128611000Y-99540000D02*
X128611000Y-101187000D01*
X128651000Y-95961000D02*
X128651000Y-97580000D01*
X128651000Y-99540000D02*
X128651000Y-101159000D01*
X128691000Y-95990000D02*
X128691000Y-97580000D01*
X128691000Y-99540000D02*
X128691000Y-101130000D01*
X128731000Y-96020000D02*
X128731000Y-97580000D01*
X128731000Y-99540000D02*
X128731000Y-101100000D01*
X128771000Y-96050000D02*
X128771000Y-97580000D01*
X128771000Y-99540000D02*
X128771000Y-101070000D01*
X128811000Y-96082000D02*
X128811000Y-97580000D01*
X128811000Y-99540000D02*
X128811000Y-101038000D01*
X128851000Y-96115000D02*
X128851000Y-97580000D01*
X128851000Y-99540000D02*
X128851000Y-101005000D01*
X128891000Y-96149000D02*
X128891000Y-97580000D01*
X128891000Y-99540000D02*
X128891000Y-100971000D01*
X128931000Y-96185000D02*
X128931000Y-97580000D01*
X128931000Y-99540000D02*
X128931000Y-100935000D01*
X128971000Y-96221000D02*
X128971000Y-97580000D01*
X128971000Y-99540000D02*
X128971000Y-100899000D01*
X129011000Y-96259000D02*
X129011000Y-100861000D01*
X129051000Y-96298000D02*
X129051000Y-100822000D01*
X129091000Y-96338000D02*
X129091000Y-100782000D01*
X129131000Y-96380000D02*
X129131000Y-100740000D01*
X129171000Y-96423000D02*
X129171000Y-100697000D01*
X129211000Y-96468000D02*
X129211000Y-100652000D01*
X129251000Y-96515000D02*
X129251000Y-100605000D01*
X129291000Y-96563000D02*
X129291000Y-100557000D01*
X129331000Y-96614000D02*
X129331000Y-100506000D01*
X129371000Y-96666000D02*
X129371000Y-100454000D01*
X129411000Y-96721000D02*
X129411000Y-100399000D01*
X129451000Y-96779000D02*
X129451000Y-100341000D01*
X129491000Y-96839000D02*
X129491000Y-100281000D01*
X129531000Y-96902000D02*
X129531000Y-100218000D01*
X129571000Y-96969000D02*
X129571000Y-100151000D01*
X129611000Y-97040000D02*
X129611000Y-100080000D01*
X129651000Y-97115000D02*
X129651000Y-100005000D01*
X129691000Y-97196000D02*
X129691000Y-99924000D01*
X129731000Y-97282000D02*
X129731000Y-99838000D01*
X129771000Y-97376000D02*
X129771000Y-99744000D01*
X129811000Y-97479000D02*
X129811000Y-99641000D01*
X129851000Y-97594000D02*
X129851000Y-99526000D01*
X129891000Y-97726000D02*
X129891000Y-99394000D01*
X129931000Y-97884000D02*
X129931000Y-99236000D01*
X129971000Y-98092000D02*
X129971000Y-99028000D01*
X123320000Y-98560000D02*
X124520000Y-98560000D01*
X123920000Y-97910000D02*
X123920000Y-99210000D01*
X69880000Y-115740000D02*
X73600000Y-115740000D01*
X69880000Y-117460000D02*
X73600000Y-117460000D01*
X71870000Y-72090000D02*
X82110000Y-72090000D01*
X71870000Y-76731000D02*
X82110000Y-76731000D01*
X71870000Y-72090000D02*
X71870000Y-76731000D01*
X82110000Y-72090000D02*
X82110000Y-76731000D01*
X71870000Y-73600000D02*
X82110000Y-73600000D01*
X75140000Y-72090000D02*
X75140000Y-73600000D01*
X78841000Y-72090000D02*
X78841000Y-73600000D01*
X124980000Y-58540000D02*
X124050000Y-58540000D01*
X121820000Y-58540000D02*
X122750000Y-58540000D01*
X121820000Y-58540000D02*
X121820000Y-60700000D01*
X124980000Y-58540000D02*
X124980000Y-60000000D01*
X85740000Y-83760000D02*
X88340000Y-83760000D01*
X88340000Y-83760000D02*
X88340000Y-81100000D01*
X88340000Y-81100000D02*
X85740000Y-81100000D01*
X85740000Y-81100000D02*
X85740000Y-83760000D01*
X84470000Y-83760000D02*
X83140000Y-83760000D01*
X83140000Y-83760000D02*
X83140000Y-82430000D01*
X86220000Y-66170000D02*
X82500000Y-66170000D01*
X86220000Y-64450000D02*
X82500000Y-64450000D01*
X95380000Y-72850000D02*
X95380000Y-76570000D01*
X93660000Y-72850000D02*
X93660000Y-76570000D01*
X93970000Y-118910000D02*
X90250000Y-118910000D01*
X93970000Y-117190000D02*
X90250000Y-117190000D01*
X141210000Y-94280000D02*
X141210000Y-98000000D01*
X139490000Y-94280000D02*
X139490000Y-98000000D01*
X116800000Y-102300000D02*
X118000000Y-102300000D01*
X118000000Y-104060000D02*
X116800000Y-104060000D01*
X75320000Y-81030000D02*
X75320000Y-82230000D01*
X73560000Y-82230000D02*
X73560000Y-81030000D01*
X124855000Y-117961000D02*
X120590000Y-117961000D01*
X124855000Y-108040000D02*
X120590000Y-108040000D01*
X127510000Y-115505000D02*
X127510000Y-110495000D01*
X120590000Y-117961000D02*
X120590000Y-108040000D01*
X120590000Y-116310000D02*
X119790000Y-116310000D01*
X120590000Y-109690000D02*
X119790000Y-109690000D01*
X120590000Y-116310000D02*
X120590000Y-109690000D01*
X119790000Y-116310000D02*
X119790000Y-109690000D01*
X119790000Y-116060000D02*
X112390000Y-116060000D01*
X119790000Y-109940000D02*
X112390000Y-109940000D01*
X119790000Y-116060000D02*
X119790000Y-109940000D01*
X112390000Y-116060000D02*
X112390000Y-109940000D01*
X95660000Y-104690000D02*
X95660000Y-106460000D01*
X95660000Y-106460000D02*
X106060000Y-106460000D01*
X106060000Y-106460000D02*
X106060000Y-100920000D01*
X106060000Y-100920000D02*
X95660000Y-100920000D01*
X95660000Y-100920000D02*
X95660000Y-102690000D01*
X95660000Y-102690000D02*
G75*
G02X95660000Y-104690000I0J-1000000D01*
G01*
X94980277Y-46928440D02*
G75*
G03X94980920Y-40751764I-979357J3088440D01*
G01*
X93021563Y-46928440D02*
G75*
G02X93020920Y-40751764I979357J3088440D01*
G01*
X93021563Y-46928440D02*
G75*
G03X94980920Y-46928236I979357J3088440D01*
G01*
X97200920Y-43840000D02*
X90800920Y-43840000D01*
X97200920Y-43880000D02*
X90800920Y-43880000D01*
X97200920Y-43920000D02*
X90800920Y-43920000D01*
X97198920Y-43960000D02*
X90802920Y-43960000D01*
X97197920Y-44000000D02*
X90803920Y-44000000D01*
X97194920Y-44040000D02*
X90806920Y-44040000D01*
X97192920Y-44080000D02*
X90808920Y-44080000D01*
X97188920Y-44120000D02*
X94980920Y-44120000D01*
X93020920Y-44120000D02*
X90812920Y-44120000D01*
X97185920Y-44160000D02*
X94980920Y-44160000D01*
X93020920Y-44160000D02*
X90815920Y-44160000D01*
X97180920Y-44200000D02*
X94980920Y-44200000D01*
X93020920Y-44200000D02*
X90820920Y-44200000D01*
X97176920Y-44240000D02*
X94980920Y-44240000D01*
X93020920Y-44240000D02*
X90824920Y-44240000D01*
X97170920Y-44280000D02*
X94980920Y-44280000D01*
X93020920Y-44280000D02*
X90830920Y-44280000D01*
X97165920Y-44320000D02*
X94980920Y-44320000D01*
X93020920Y-44320000D02*
X90835920Y-44320000D01*
X97158920Y-44360000D02*
X94980920Y-44360000D01*
X93020920Y-44360000D02*
X90842920Y-44360000D01*
X97152920Y-44400000D02*
X94980920Y-44400000D01*
X93020920Y-44400000D02*
X90848920Y-44400000D01*
X97144920Y-44440000D02*
X94980920Y-44440000D01*
X93020920Y-44440000D02*
X90856920Y-44440000D01*
X97137920Y-44480000D02*
X94980920Y-44480000D01*
X93020920Y-44480000D02*
X90863920Y-44480000D01*
X97128920Y-44520000D02*
X94980920Y-44520000D01*
X93020920Y-44520000D02*
X90872920Y-44520000D01*
X97119920Y-44561000D02*
X94980920Y-44561000D01*
X93020920Y-44561000D02*
X90881920Y-44561000D01*
X97110920Y-44601000D02*
X94980920Y-44601000D01*
X93020920Y-44601000D02*
X90890920Y-44601000D01*
X97100920Y-44641000D02*
X94980920Y-44641000D01*
X93020920Y-44641000D02*
X90900920Y-44641000D01*
X97090920Y-44681000D02*
X94980920Y-44681000D01*
X93020920Y-44681000D02*
X90910920Y-44681000D01*
X97079920Y-44721000D02*
X94980920Y-44721000D01*
X93020920Y-44721000D02*
X90921920Y-44721000D01*
X97067920Y-44761000D02*
X94980920Y-44761000D01*
X93020920Y-44761000D02*
X90933920Y-44761000D01*
X97055920Y-44801000D02*
X94980920Y-44801000D01*
X93020920Y-44801000D02*
X90945920Y-44801000D01*
X97042920Y-44841000D02*
X94980920Y-44841000D01*
X93020920Y-44841000D02*
X90958920Y-44841000D01*
X97029920Y-44881000D02*
X94980920Y-44881000D01*
X93020920Y-44881000D02*
X90971920Y-44881000D01*
X97015920Y-44921000D02*
X94980920Y-44921000D01*
X93020920Y-44921000D02*
X90985920Y-44921000D01*
X97001920Y-44961000D02*
X94980920Y-44961000D01*
X93020920Y-44961000D02*
X90999920Y-44961000D01*
X96986920Y-45001000D02*
X94980920Y-45001000D01*
X93020920Y-45001000D02*
X91014920Y-45001000D01*
X96970920Y-45041000D02*
X94980920Y-45041000D01*
X93020920Y-45041000D02*
X91030920Y-45041000D01*
X96954920Y-45081000D02*
X94980920Y-45081000D01*
X93020920Y-45081000D02*
X91046920Y-45081000D01*
X96937920Y-45121000D02*
X94980920Y-45121000D01*
X93020920Y-45121000D02*
X91063920Y-45121000D01*
X96919920Y-45161000D02*
X94980920Y-45161000D01*
X93020920Y-45161000D02*
X91081920Y-45161000D01*
X96901920Y-45201000D02*
X94980920Y-45201000D01*
X93020920Y-45201000D02*
X91099920Y-45201000D01*
X96882920Y-45241000D02*
X94980920Y-45241000D01*
X93020920Y-45241000D02*
X91118920Y-45241000D01*
X96863920Y-45281000D02*
X94980920Y-45281000D01*
X93020920Y-45281000D02*
X91137920Y-45281000D01*
X96843920Y-45321000D02*
X94980920Y-45321000D01*
X93020920Y-45321000D02*
X91157920Y-45321000D01*
X96822920Y-45361000D02*
X94980920Y-45361000D01*
X93020920Y-45361000D02*
X91178920Y-45361000D01*
X96800920Y-45401000D02*
X94980920Y-45401000D01*
X93020920Y-45401000D02*
X91200920Y-45401000D01*
X96778920Y-45441000D02*
X94980920Y-45441000D01*
X93020920Y-45441000D02*
X91222920Y-45441000D01*
X96755920Y-45481000D02*
X94980920Y-45481000D01*
X93020920Y-45481000D02*
X91245920Y-45481000D01*
X96731920Y-45521000D02*
X94980920Y-45521000D01*
X93020920Y-45521000D02*
X91269920Y-45521000D01*
X96706920Y-45561000D02*
X94980920Y-45561000D01*
X93020920Y-45561000D02*
X91294920Y-45561000D01*
X96681920Y-45601000D02*
X94980920Y-45601000D01*
X93020920Y-45601000D02*
X91319920Y-45601000D01*
X96654920Y-45641000D02*
X94980920Y-45641000D01*
X93020920Y-45641000D02*
X91346920Y-45641000D01*
X96627920Y-45681000D02*
X94980920Y-45681000D01*
X93020920Y-45681000D02*
X91373920Y-45681000D01*
X96599920Y-45721000D02*
X94980920Y-45721000D01*
X93020920Y-45721000D02*
X91401920Y-45721000D01*
X96570920Y-45761000D02*
X94980920Y-45761000D01*
X93020920Y-45761000D02*
X91430920Y-45761000D01*
X96540920Y-45801000D02*
X94980920Y-45801000D01*
X93020920Y-45801000D02*
X91460920Y-45801000D01*
X96510920Y-45841000D02*
X94980920Y-45841000D01*
X93020920Y-45841000D02*
X91490920Y-45841000D01*
X96478920Y-45881000D02*
X94980920Y-45881000D01*
X93020920Y-45881000D02*
X91522920Y-45881000D01*
X96445920Y-45921000D02*
X94980920Y-45921000D01*
X93020920Y-45921000D02*
X91555920Y-45921000D01*
X96411920Y-45961000D02*
X94980920Y-45961000D01*
X93020920Y-45961000D02*
X91589920Y-45961000D01*
X96375920Y-46001000D02*
X94980920Y-46001000D01*
X93020920Y-46001000D02*
X91625920Y-46001000D01*
X96339920Y-46041000D02*
X94980920Y-46041000D01*
X93020920Y-46041000D02*
X91661920Y-46041000D01*
X96301920Y-46081000D02*
X91699920Y-46081000D01*
X96262920Y-46121000D02*
X91738920Y-46121000D01*
X96222920Y-46161000D02*
X91778920Y-46161000D01*
X96180920Y-46201000D02*
X91820920Y-46201000D01*
X96137920Y-46241000D02*
X91863920Y-46241000D01*
X96092920Y-46281000D02*
X91908920Y-46281000D01*
X96045920Y-46321000D02*
X91955920Y-46321000D01*
X95997920Y-46361000D02*
X92003920Y-46361000D01*
X95946920Y-46401000D02*
X92054920Y-46401000D01*
X95894920Y-46441000D02*
X92106920Y-46441000D01*
X95839920Y-46481000D02*
X92161920Y-46481000D01*
X95781920Y-46521000D02*
X92219920Y-46521000D01*
X95721920Y-46561000D02*
X92279920Y-46561000D01*
X95658920Y-46601000D02*
X92342920Y-46601000D01*
X95591920Y-46641000D02*
X92409920Y-46641000D01*
X95520920Y-46681000D02*
X92480920Y-46681000D01*
X95445920Y-46721000D02*
X92555920Y-46721000D01*
X95364920Y-46761000D02*
X92636920Y-46761000D01*
X95278920Y-46801000D02*
X92722920Y-46801000D01*
X95184920Y-46841000D02*
X92816920Y-46841000D01*
X95081920Y-46881000D02*
X92919920Y-46881000D01*
X94966920Y-46921000D02*
X93034920Y-46921000D01*
X94834920Y-46961000D02*
X93166920Y-46961000D01*
X94676920Y-47001000D02*
X93324920Y-47001000D01*
X94468920Y-47041000D02*
X93532920Y-47041000D01*
X94000920Y-40390000D02*
X94000920Y-41590000D01*
X94650920Y-40990000D02*
X93350920Y-40990000D01*
X141060000Y-104580000D02*
X141060000Y-108300000D01*
X139340000Y-104580000D02*
X139340000Y-108300000D01*
X77920000Y-53460000D02*
X74200000Y-53460000D01*
X77920000Y-51740000D02*
X74200000Y-51740000D01*
X138540000Y-62620000D02*
X138540000Y-58900000D01*
X140260000Y-62620000D02*
X140260000Y-58900000D01*
X136955920Y-41910000D02*
X136955920Y-38190000D01*
X138675920Y-41910000D02*
X138675920Y-38190000D01*
X43075000Y-35225000D02*
X43075000Y-44025000D01*
X43075000Y-44025000D02*
X33875000Y-44025000D01*
X40375000Y-29325000D02*
X43075000Y-29325000D01*
X43075000Y-29325000D02*
X43075000Y-31225000D01*
X33875000Y-44025000D02*
X33875000Y-29325000D01*
X33875000Y-29325000D02*
X36475000Y-29325000D01*
X102150000Y-87150000D02*
X102150000Y-88850000D01*
X102150000Y-88850000D02*
X105300000Y-88850000D01*
X102150000Y-87150000D02*
X105300000Y-87150000D01*
X127235920Y-36880000D02*
X125535920Y-36880000D01*
X125535920Y-36880000D02*
X125535920Y-40030000D01*
X127235920Y-36880000D02*
X127235920Y-40030000D01*
D13*
X110744600Y-51226000D02*
G75*
G03X115316600Y-51226000I2286000J2286000D01*
G01*
X115316600Y-46654000D02*
G75*
G03X110744600Y-46654000I-2286000J-2286000D01*
G01*
X116680600Y-52590000D02*
X116680600Y-50340000D01*
X116680600Y-45290000D02*
X116680600Y-47540000D01*
X109380600Y-52590000D02*
X109380600Y-50340000D01*
X109380600Y-45290000D02*
X109380600Y-47540000D01*
X116680600Y-52590000D02*
X109380600Y-52590000D01*
X109380600Y-45290000D02*
X116680600Y-45290000D01*
X75902381Y-75758333D02*
X75426190Y-76091667D01*
X75902381Y-76329762D02*
X74902381Y-76329762D01*
X74902381Y-75948809D01*
X74950000Y-75853571D01*
X74997619Y-75805952D01*
X75092857Y-75758333D01*
X75235714Y-75758333D01*
X75330952Y-75805952D01*
X75378571Y-75853571D01*
X75426190Y-75948809D01*
X75426190Y-76329762D01*
X75378571Y-75329762D02*
X75378571Y-74996428D01*
X75902381Y-74853571D02*
X75902381Y-75329762D01*
X74902381Y-75329762D01*
X74902381Y-74853571D01*
X75378571Y-74091666D02*
X75378571Y-74425000D01*
X75902381Y-74425000D02*
X74902381Y-74425000D01*
X74902381Y-73948809D01*
X74902381Y-73425000D02*
X75140476Y-73425000D01*
X75045238Y-73663095D02*
X75140476Y-73425000D01*
X75045238Y-73186904D01*
X75330952Y-73567857D02*
X75140476Y-73425000D01*
X75330952Y-73282142D01*
X74902381Y-72663095D02*
X75140476Y-72663095D01*
X75045238Y-72901190D02*
X75140476Y-72663095D01*
X75045238Y-72424999D01*
X75330952Y-72805952D02*
X75140476Y-72663095D01*
X75330952Y-72520237D01*
X126079539Y-52356667D02*
X126031920Y-52309048D01*
X125984301Y-52213810D01*
X125984301Y-51975714D01*
X126031920Y-51880476D01*
X126079539Y-51832857D01*
X126174777Y-51785238D01*
X126270015Y-51785238D01*
X126412872Y-51832857D01*
X126984301Y-52404286D01*
X126984301Y-51785238D01*
X126079539Y-51404286D02*
X126031920Y-51356667D01*
X125984301Y-51261429D01*
X125984301Y-51023333D01*
X126031920Y-50928095D01*
X126079539Y-50880476D01*
X126174777Y-50832857D01*
X126270015Y-50832857D01*
X126412872Y-50880476D01*
X126984301Y-51451905D01*
X126984301Y-50832857D01*
X125984301Y-50213810D02*
X125984301Y-50118571D01*
X126031920Y-50023333D01*
X126079539Y-49975714D01*
X126174777Y-49928095D01*
X126365253Y-49880476D01*
X126603349Y-49880476D01*
X126793825Y-49928095D01*
X126889063Y-49975714D01*
X126936682Y-50023333D01*
X126984301Y-50118571D01*
X126984301Y-50213810D01*
X126936682Y-50309048D01*
X126889063Y-50356667D01*
X126793825Y-50404286D01*
X126603349Y-50451905D01*
X126365253Y-50451905D01*
X126174777Y-50404286D01*
X126079539Y-50356667D01*
X126031920Y-50309048D01*
X125984301Y-50213810D01*
X126317634Y-49023333D02*
X126984301Y-49023333D01*
X126317634Y-49451905D02*
X126841444Y-49451905D01*
X126936682Y-49404286D01*
X126984301Y-49309048D01*
X126984301Y-49166190D01*
X126936682Y-49070952D01*
X126889063Y-49023333D01*
X126984301Y-48023333D02*
X126984301Y-48594762D01*
X126984301Y-48309048D02*
X125984301Y-48309048D01*
X126127158Y-48404286D01*
X126222396Y-48499524D01*
X126270015Y-48594762D01*
X121955567Y-34921571D02*
X121622233Y-34921571D01*
X121622233Y-35445381D02*
X121622233Y-34445381D01*
X122098424Y-34445381D01*
X123003186Y-35445381D02*
X122431757Y-35445381D01*
X122717471Y-35445381D02*
X122717471Y-34445381D01*
X122622233Y-34588238D01*
X122526995Y-34683476D01*
X122431757Y-34731095D01*
X103378695Y-37978381D02*
X103378695Y-38787905D01*
X103426314Y-38883143D01*
X103473933Y-38930762D01*
X103569171Y-38978381D01*
X103759648Y-38978381D01*
X103854886Y-38930762D01*
X103902505Y-38883143D01*
X103950124Y-38787905D01*
X103950124Y-37978381D01*
X104331076Y-37978381D02*
X104950124Y-37978381D01*
X104616790Y-38359333D01*
X104759648Y-38359333D01*
X104854886Y-38406952D01*
X104902505Y-38454571D01*
X104950124Y-38549810D01*
X104950124Y-38787905D01*
X104902505Y-38883143D01*
X104854886Y-38930762D01*
X104759648Y-38978381D01*
X104473933Y-38978381D01*
X104378695Y-38930762D01*
X104331076Y-38883143D01*
X38587381Y-58658095D02*
X37587381Y-58658095D01*
X37587381Y-58420000D01*
X37635000Y-58277142D01*
X37730238Y-58181904D01*
X37825476Y-58134285D01*
X38015952Y-58086666D01*
X38158810Y-58086666D01*
X38349286Y-58134285D01*
X38444524Y-58181904D01*
X38539762Y-58277142D01*
X38587381Y-58420000D01*
X38587381Y-58658095D01*
X38587381Y-57134285D02*
X38587381Y-57705714D01*
X38587381Y-57420000D02*
X37587381Y-57420000D01*
X37730238Y-57515238D01*
X37825476Y-57610476D01*
X37873095Y-57705714D01*
X70357105Y-46283381D02*
X70357105Y-45283381D01*
X70595200Y-45283381D01*
X70738058Y-45331000D01*
X70833296Y-45426238D01*
X70880915Y-45521476D01*
X70928534Y-45711952D01*
X70928534Y-45854810D01*
X70880915Y-46045286D01*
X70833296Y-46140524D01*
X70738058Y-46235762D01*
X70595200Y-46283381D01*
X70357105Y-46283381D01*
X71309486Y-45378619D02*
X71357105Y-45331000D01*
X71452343Y-45283381D01*
X71690439Y-45283381D01*
X71785677Y-45331000D01*
X71833296Y-45378619D01*
X71880915Y-45473857D01*
X71880915Y-45569095D01*
X71833296Y-45711952D01*
X71261867Y-46283381D01*
X71880915Y-46283381D01*
X56095005Y-36097981D02*
X56095005Y-35097981D01*
X56333100Y-35097981D01*
X56475958Y-35145600D01*
X56571196Y-35240838D01*
X56618815Y-35336076D01*
X56666434Y-35526552D01*
X56666434Y-35669410D01*
X56618815Y-35859886D01*
X56571196Y-35955124D01*
X56475958Y-36050362D01*
X56333100Y-36097981D01*
X56095005Y-36097981D01*
X56999767Y-35097981D02*
X57618815Y-35097981D01*
X57285481Y-35478933D01*
X57428339Y-35478933D01*
X57523577Y-35526552D01*
X57571196Y-35574171D01*
X57618815Y-35669410D01*
X57618815Y-35907505D01*
X57571196Y-36002743D01*
X57523577Y-36050362D01*
X57428339Y-36097981D01*
X57142624Y-36097981D01*
X57047386Y-36050362D01*
X56999767Y-36002743D01*
X85491905Y-41562381D02*
X85491905Y-40562381D01*
X85730000Y-40562381D01*
X85872858Y-40610000D01*
X85968096Y-40705238D01*
X86015715Y-40800476D01*
X86063334Y-40990952D01*
X86063334Y-41133810D01*
X86015715Y-41324286D01*
X85968096Y-41419524D01*
X85872858Y-41514762D01*
X85730000Y-41562381D01*
X85491905Y-41562381D01*
X86920477Y-40895714D02*
X86920477Y-41562381D01*
X86682381Y-40514762D02*
X86444286Y-41229048D01*
X87063334Y-41229048D01*
X108383334Y-89857143D02*
X108335715Y-89904762D01*
X108192858Y-89952381D01*
X108097620Y-89952381D01*
X107954762Y-89904762D01*
X107859524Y-89809524D01*
X107811905Y-89714286D01*
X107764286Y-89523810D01*
X107764286Y-89380952D01*
X107811905Y-89190476D01*
X107859524Y-89095238D01*
X107954762Y-89000000D01*
X108097620Y-88952381D01*
X108192858Y-88952381D01*
X108335715Y-89000000D01*
X108383334Y-89047619D01*
X109335715Y-89952381D02*
X108764286Y-89952381D01*
X109050000Y-89952381D02*
X109050000Y-88952381D01*
X108954762Y-89095238D01*
X108859524Y-89190476D01*
X108764286Y-89238095D01*
X128757143Y-64466666D02*
X128804762Y-64514285D01*
X128852381Y-64657142D01*
X128852381Y-64752380D01*
X128804762Y-64895238D01*
X128709524Y-64990476D01*
X128614286Y-65038095D01*
X128423810Y-65085714D01*
X128280952Y-65085714D01*
X128090476Y-65038095D01*
X127995238Y-64990476D01*
X127900000Y-64895238D01*
X127852381Y-64752380D01*
X127852381Y-64657142D01*
X127900000Y-64514285D01*
X127947619Y-64466666D01*
X127947619Y-64085714D02*
X127900000Y-64038095D01*
X127852381Y-63942857D01*
X127852381Y-63704761D01*
X127900000Y-63609523D01*
X127947619Y-63561904D01*
X128042857Y-63514285D01*
X128138095Y-63514285D01*
X128280952Y-63561904D01*
X128852381Y-64133333D01*
X128852381Y-63514285D01*
X107883334Y-97857143D02*
X107835715Y-97904762D01*
X107692858Y-97952381D01*
X107597620Y-97952381D01*
X107454762Y-97904762D01*
X107359524Y-97809524D01*
X107311905Y-97714286D01*
X107264286Y-97523810D01*
X107264286Y-97380952D01*
X107311905Y-97190476D01*
X107359524Y-97095238D01*
X107454762Y-97000000D01*
X107597620Y-96952381D01*
X107692858Y-96952381D01*
X107835715Y-97000000D01*
X107883334Y-97047619D01*
X108216667Y-96952381D02*
X108835715Y-96952381D01*
X108502381Y-97333333D01*
X108645239Y-97333333D01*
X108740477Y-97380952D01*
X108788096Y-97428571D01*
X108835715Y-97523810D01*
X108835715Y-97761905D01*
X108788096Y-97857143D01*
X108740477Y-97904762D01*
X108645239Y-97952381D01*
X108359524Y-97952381D01*
X108264286Y-97904762D01*
X108216667Y-97857143D01*
X136617143Y-62276666D02*
X136664762Y-62324285D01*
X136712381Y-62467142D01*
X136712381Y-62562380D01*
X136664762Y-62705238D01*
X136569524Y-62800476D01*
X136474286Y-62848095D01*
X136283810Y-62895714D01*
X136140952Y-62895714D01*
X135950476Y-62848095D01*
X135855238Y-62800476D01*
X135760000Y-62705238D01*
X135712381Y-62562380D01*
X135712381Y-62467142D01*
X135760000Y-62324285D01*
X135807619Y-62276666D01*
X136045714Y-61419523D02*
X136712381Y-61419523D01*
X135664762Y-61657619D02*
X136379048Y-61895714D01*
X136379048Y-61276666D01*
X128957143Y-43766666D02*
X129004762Y-43814285D01*
X129052381Y-43957142D01*
X129052381Y-44052380D01*
X129004762Y-44195238D01*
X128909524Y-44290476D01*
X128814286Y-44338095D01*
X128623810Y-44385714D01*
X128480952Y-44385714D01*
X128290476Y-44338095D01*
X128195238Y-44290476D01*
X128100000Y-44195238D01*
X128052381Y-44052380D01*
X128052381Y-43957142D01*
X128100000Y-43814285D01*
X128147619Y-43766666D01*
X128480952Y-43195238D02*
X128433333Y-43290476D01*
X128385714Y-43338095D01*
X128290476Y-43385714D01*
X128242857Y-43385714D01*
X128147619Y-43338095D01*
X128100000Y-43290476D01*
X128052381Y-43195238D01*
X128052381Y-43004761D01*
X128100000Y-42909523D01*
X128147619Y-42861904D01*
X128242857Y-42814285D01*
X128290476Y-42814285D01*
X128385714Y-42861904D01*
X128433333Y-42909523D01*
X128480952Y-43004761D01*
X128480952Y-43195238D01*
X128528571Y-43290476D01*
X128576190Y-43338095D01*
X128671429Y-43385714D01*
X128861905Y-43385714D01*
X128957143Y-43338095D01*
X129004762Y-43290476D01*
X129052381Y-43195238D01*
X129052381Y-43004761D01*
X129004762Y-42909523D01*
X128957143Y-42861904D01*
X128861905Y-42814285D01*
X128671429Y-42814285D01*
X128576190Y-42861904D01*
X128528571Y-42909523D01*
X128480952Y-43004761D01*
X135842063Y-41962857D02*
X135889682Y-42010476D01*
X135937301Y-42153333D01*
X135937301Y-42248571D01*
X135889682Y-42391429D01*
X135794444Y-42486667D01*
X135699206Y-42534286D01*
X135508730Y-42581905D01*
X135365872Y-42581905D01*
X135175396Y-42534286D01*
X135080158Y-42486667D01*
X134984920Y-42391429D01*
X134937301Y-42248571D01*
X134937301Y-42153333D01*
X134984920Y-42010476D01*
X135032539Y-41962857D01*
X135937301Y-41010476D02*
X135937301Y-41581905D01*
X135937301Y-41296191D02*
X134937301Y-41296191D01*
X135080158Y-41391429D01*
X135175396Y-41486667D01*
X135223015Y-41581905D01*
X134937301Y-40391429D02*
X134937301Y-40296190D01*
X134984920Y-40200952D01*
X135032539Y-40153333D01*
X135127777Y-40105714D01*
X135318253Y-40058095D01*
X135556349Y-40058095D01*
X135746825Y-40105714D01*
X135842063Y-40153333D01*
X135889682Y-40200952D01*
X135937301Y-40296190D01*
X135937301Y-40391429D01*
X135889682Y-40486667D01*
X135842063Y-40534286D01*
X135746825Y-40581905D01*
X135556349Y-40629524D01*
X135318253Y-40629524D01*
X135127777Y-40581905D01*
X135032539Y-40534286D01*
X134984920Y-40486667D01*
X134937301Y-40391429D01*
X97011865Y-54401221D02*
X97011865Y-53401221D01*
X97249960Y-53401221D01*
X97392818Y-53448840D01*
X97488056Y-53544078D01*
X97535675Y-53639316D01*
X97583294Y-53829792D01*
X97583294Y-53972650D01*
X97535675Y-54163126D01*
X97488056Y-54258364D01*
X97392818Y-54353602D01*
X97249960Y-54401221D01*
X97011865Y-54401221D01*
X98440437Y-53401221D02*
X98249960Y-53401221D01*
X98154722Y-53448840D01*
X98107103Y-53496459D01*
X98011865Y-53639316D01*
X97964246Y-53829792D01*
X97964246Y-54210745D01*
X98011865Y-54305983D01*
X98059484Y-54353602D01*
X98154722Y-54401221D01*
X98345199Y-54401221D01*
X98440437Y-54353602D01*
X98488056Y-54305983D01*
X98535675Y-54210745D01*
X98535675Y-53972650D01*
X98488056Y-53877411D01*
X98440437Y-53829792D01*
X98345199Y-53782173D01*
X98154722Y-53782173D01*
X98059484Y-53829792D01*
X98011865Y-53877411D01*
X97964246Y-53972650D01*
X57507081Y-41740666D02*
X57030890Y-42074000D01*
X57507081Y-42312095D02*
X56507081Y-42312095D01*
X56507081Y-41931142D01*
X56554700Y-41835904D01*
X56602319Y-41788285D01*
X56697557Y-41740666D01*
X56840414Y-41740666D01*
X56935652Y-41788285D01*
X56983271Y-41835904D01*
X57030890Y-41931142D01*
X57030890Y-42312095D01*
X57507081Y-40788285D02*
X57507081Y-41359714D01*
X57507081Y-41074000D02*
X56507081Y-41074000D01*
X56649938Y-41169238D01*
X56745176Y-41264476D01*
X56792795Y-41359714D01*
X57507081Y-51291066D02*
X57030890Y-51624400D01*
X57507081Y-51862495D02*
X56507081Y-51862495D01*
X56507081Y-51481542D01*
X56554700Y-51386304D01*
X56602319Y-51338685D01*
X56697557Y-51291066D01*
X56840414Y-51291066D01*
X56935652Y-51338685D01*
X56983271Y-51386304D01*
X57030890Y-51481542D01*
X57030890Y-51862495D01*
X56602319Y-50910114D02*
X56554700Y-50862495D01*
X56507081Y-50767257D01*
X56507081Y-50529161D01*
X56554700Y-50433923D01*
X56602319Y-50386304D01*
X56697557Y-50338685D01*
X56792795Y-50338685D01*
X56935652Y-50386304D01*
X57507081Y-50957733D01*
X57507081Y-50338685D01*
X104963334Y-61412381D02*
X104630000Y-60936190D01*
X104391905Y-61412381D02*
X104391905Y-60412381D01*
X104772858Y-60412381D01*
X104868096Y-60460000D01*
X104915715Y-60507619D01*
X104963334Y-60602857D01*
X104963334Y-60745714D01*
X104915715Y-60840952D01*
X104868096Y-60888571D01*
X104772858Y-60936190D01*
X104391905Y-60936190D01*
X105296667Y-60412381D02*
X105915715Y-60412381D01*
X105582381Y-60793333D01*
X105725239Y-60793333D01*
X105820477Y-60840952D01*
X105868096Y-60888571D01*
X105915715Y-60983810D01*
X105915715Y-61221905D01*
X105868096Y-61317143D01*
X105820477Y-61364762D01*
X105725239Y-61412381D01*
X105439524Y-61412381D01*
X105344286Y-61364762D01*
X105296667Y-61317143D01*
X118512381Y-59736666D02*
X118036190Y-60070000D01*
X118512381Y-60308095D02*
X117512381Y-60308095D01*
X117512381Y-59927142D01*
X117560000Y-59831904D01*
X117607619Y-59784285D01*
X117702857Y-59736666D01*
X117845714Y-59736666D01*
X117940952Y-59784285D01*
X117988571Y-59831904D01*
X118036190Y-59927142D01*
X118036190Y-60308095D01*
X117845714Y-58879523D02*
X118512381Y-58879523D01*
X117464762Y-59117619D02*
X118179048Y-59355714D01*
X118179048Y-58736666D01*
X85697143Y-102916666D02*
X85744762Y-102964285D01*
X85792381Y-103107142D01*
X85792381Y-103202380D01*
X85744762Y-103345238D01*
X85649524Y-103440476D01*
X85554286Y-103488095D01*
X85363810Y-103535714D01*
X85220952Y-103535714D01*
X85030476Y-103488095D01*
X84935238Y-103440476D01*
X84840000Y-103345238D01*
X84792381Y-103202380D01*
X84792381Y-103107142D01*
X84840000Y-102964285D01*
X84887619Y-102916666D01*
X84792381Y-102011904D02*
X84792381Y-102488095D01*
X85268571Y-102535714D01*
X85220952Y-102488095D01*
X85173333Y-102392857D01*
X85173333Y-102154761D01*
X85220952Y-102059523D01*
X85268571Y-102011904D01*
X85363810Y-101964285D01*
X85601905Y-101964285D01*
X85697143Y-102011904D01*
X85744762Y-102059523D01*
X85792381Y-102154761D01*
X85792381Y-102392857D01*
X85744762Y-102488095D01*
X85697143Y-102535714D01*
X95193334Y-93997143D02*
X95145715Y-94044762D01*
X95002858Y-94092381D01*
X94907620Y-94092381D01*
X94764762Y-94044762D01*
X94669524Y-93949524D01*
X94621905Y-93854286D01*
X94574286Y-93663810D01*
X94574286Y-93520952D01*
X94621905Y-93330476D01*
X94669524Y-93235238D01*
X94764762Y-93140000D01*
X94907620Y-93092381D01*
X95002858Y-93092381D01*
X95145715Y-93140000D01*
X95193334Y-93187619D01*
X96050477Y-93092381D02*
X95860000Y-93092381D01*
X95764762Y-93140000D01*
X95717143Y-93187619D01*
X95621905Y-93330476D01*
X95574286Y-93520952D01*
X95574286Y-93901905D01*
X95621905Y-93997143D01*
X95669524Y-94044762D01*
X95764762Y-94092381D01*
X95955239Y-94092381D01*
X96050477Y-94044762D01*
X96098096Y-93997143D01*
X96145715Y-93901905D01*
X96145715Y-93663810D01*
X96098096Y-93568571D01*
X96050477Y-93520952D01*
X95955239Y-93473333D01*
X95764762Y-93473333D01*
X95669524Y-93520952D01*
X95621905Y-93568571D01*
X95574286Y-93663810D01*
X121127143Y-99726666D02*
X121174762Y-99774285D01*
X121222381Y-99917142D01*
X121222381Y-100012380D01*
X121174762Y-100155238D01*
X121079524Y-100250476D01*
X120984286Y-100298095D01*
X120793810Y-100345714D01*
X120650952Y-100345714D01*
X120460476Y-100298095D01*
X120365238Y-100250476D01*
X120270000Y-100155238D01*
X120222381Y-100012380D01*
X120222381Y-99917142D01*
X120270000Y-99774285D01*
X120317619Y-99726666D01*
X120222381Y-99393333D02*
X120222381Y-98726666D01*
X121222381Y-99155238D01*
X126603334Y-94707143D02*
X126555715Y-94754762D01*
X126412858Y-94802381D01*
X126317620Y-94802381D01*
X126174762Y-94754762D01*
X126079524Y-94659524D01*
X126031905Y-94564286D01*
X125984286Y-94373810D01*
X125984286Y-94230952D01*
X126031905Y-94040476D01*
X126079524Y-93945238D01*
X126174762Y-93850000D01*
X126317620Y-93802381D01*
X126412858Y-93802381D01*
X126555715Y-93850000D01*
X126603334Y-93897619D01*
X127079524Y-94802381D02*
X127270000Y-94802381D01*
X127365239Y-94754762D01*
X127412858Y-94707143D01*
X127508096Y-94564286D01*
X127555715Y-94373810D01*
X127555715Y-93992857D01*
X127508096Y-93897619D01*
X127460477Y-93850000D01*
X127365239Y-93802381D01*
X127174762Y-93802381D01*
X127079524Y-93850000D01*
X127031905Y-93897619D01*
X126984286Y-93992857D01*
X126984286Y-94230952D01*
X127031905Y-94326190D01*
X127079524Y-94373810D01*
X127174762Y-94421429D01*
X127365239Y-94421429D01*
X127460477Y-94373810D01*
X127508096Y-94326190D01*
X127555715Y-94230952D01*
X71001905Y-115192381D02*
X71001905Y-114192381D01*
X71240000Y-114192381D01*
X71382858Y-114240000D01*
X71478096Y-114335238D01*
X71525715Y-114430476D01*
X71573334Y-114620952D01*
X71573334Y-114763810D01*
X71525715Y-114954286D01*
X71478096Y-115049524D01*
X71382858Y-115144762D01*
X71240000Y-115192381D01*
X71001905Y-115192381D01*
X72478096Y-114192381D02*
X72001905Y-114192381D01*
X71954286Y-114668571D01*
X72001905Y-114620952D01*
X72097143Y-114573333D01*
X72335239Y-114573333D01*
X72430477Y-114620952D01*
X72478096Y-114668571D01*
X72525715Y-114763810D01*
X72525715Y-115001905D01*
X72478096Y-115097143D01*
X72430477Y-115144762D01*
X72335239Y-115192381D01*
X72097143Y-115192381D01*
X72001905Y-115144762D01*
X71954286Y-115097143D01*
X76251905Y-71542381D02*
X76251905Y-70542381D01*
X76490000Y-70542381D01*
X76632858Y-70590000D01*
X76728096Y-70685238D01*
X76775715Y-70780476D01*
X76823334Y-70970952D01*
X76823334Y-71113810D01*
X76775715Y-71304286D01*
X76728096Y-71399524D01*
X76632858Y-71494762D01*
X76490000Y-71542381D01*
X76251905Y-71542381D01*
X77156667Y-70542381D02*
X77823334Y-70542381D01*
X77394762Y-71542381D01*
X121352381Y-60514286D02*
X120352381Y-60514286D01*
X120352381Y-60276191D01*
X120400000Y-60133333D01*
X120495238Y-60038095D01*
X120590476Y-59990476D01*
X120780952Y-59942857D01*
X120923810Y-59942857D01*
X121114286Y-59990476D01*
X121209524Y-60038095D01*
X121304762Y-60133333D01*
X121352381Y-60276191D01*
X121352381Y-60514286D01*
X121352381Y-58990476D02*
X121352381Y-59561905D01*
X121352381Y-59276191D02*
X120352381Y-59276191D01*
X120495238Y-59371429D01*
X120590476Y-59466667D01*
X120638095Y-59561905D01*
X120352381Y-58371429D02*
X120352381Y-58276190D01*
X120400000Y-58180952D01*
X120447619Y-58133333D01*
X120542857Y-58085714D01*
X120733333Y-58038095D01*
X120971429Y-58038095D01*
X121161905Y-58085714D01*
X121257143Y-58133333D01*
X121304762Y-58180952D01*
X121352381Y-58276190D01*
X121352381Y-58371429D01*
X121304762Y-58466667D01*
X121257143Y-58514286D01*
X121161905Y-58561905D01*
X120971429Y-58609524D01*
X120733333Y-58609524D01*
X120542857Y-58561905D01*
X120447619Y-58514286D01*
X120400000Y-58466667D01*
X120352381Y-58371429D01*
X82068571Y-82763333D02*
X82068571Y-83096667D01*
X82592381Y-83096667D02*
X81592381Y-83096667D01*
X81592381Y-82620476D01*
X81687619Y-82287143D02*
X81640000Y-82239524D01*
X81592381Y-82144286D01*
X81592381Y-81906190D01*
X81640000Y-81810952D01*
X81687619Y-81763333D01*
X81782857Y-81715714D01*
X81878095Y-81715714D01*
X82020952Y-81763333D01*
X82592381Y-82334762D01*
X82592381Y-81715714D01*
X84026667Y-66622381D02*
X84026667Y-67336667D01*
X83979047Y-67479524D01*
X83883809Y-67574762D01*
X83740952Y-67622381D01*
X83645714Y-67622381D01*
X84979048Y-66622381D02*
X84502857Y-66622381D01*
X84455238Y-67098571D01*
X84502857Y-67050952D01*
X84598095Y-67003333D01*
X84836191Y-67003333D01*
X84931429Y-67050952D01*
X84979048Y-67098571D01*
X85026667Y-67193810D01*
X85026667Y-67431905D01*
X84979048Y-67527143D01*
X84931429Y-67574762D01*
X84836191Y-67622381D01*
X84598095Y-67622381D01*
X84502857Y-67574762D01*
X84455238Y-67527143D01*
X95832381Y-75043333D02*
X96546667Y-75043333D01*
X96689524Y-75090953D01*
X96784762Y-75186191D01*
X96832381Y-75329048D01*
X96832381Y-75424286D01*
X95832381Y-74138571D02*
X95832381Y-74329048D01*
X95880000Y-74424286D01*
X95927619Y-74471905D01*
X96070476Y-74567143D01*
X96260952Y-74614762D01*
X96641905Y-74614762D01*
X96737143Y-74567143D01*
X96784762Y-74519524D01*
X96832381Y-74424286D01*
X96832381Y-74233809D01*
X96784762Y-74138571D01*
X96737143Y-74090952D01*
X96641905Y-74043333D01*
X96403810Y-74043333D01*
X96308571Y-74090952D01*
X96260952Y-74138571D01*
X96213333Y-74233809D01*
X96213333Y-74424286D01*
X96260952Y-74519524D01*
X96308571Y-74567143D01*
X96403810Y-74614762D01*
X91272381Y-115673333D02*
X91986667Y-115673333D01*
X92129524Y-115720953D01*
X92224762Y-115816191D01*
X92272381Y-115959048D01*
X92272381Y-116054286D01*
X91272381Y-115292381D02*
X91272381Y-114625714D01*
X92272381Y-115054286D01*
X142662381Y-96782857D02*
X142662381Y-97259048D01*
X141662381Y-97259048D01*
X142614762Y-96497143D02*
X142662381Y-96354286D01*
X142662381Y-96116190D01*
X142614762Y-96020952D01*
X142567143Y-95973333D01*
X142471905Y-95925714D01*
X142376667Y-95925714D01*
X142281429Y-95973333D01*
X142233810Y-96020952D01*
X142186190Y-96116190D01*
X142138571Y-96306667D01*
X142090952Y-96401905D01*
X142043333Y-96449524D01*
X141948095Y-96497143D01*
X141852857Y-96497143D01*
X141757619Y-96449524D01*
X141710000Y-96401905D01*
X141662381Y-96306667D01*
X141662381Y-96068571D01*
X141710000Y-95925714D01*
X142662381Y-94973333D02*
X142662381Y-95544762D01*
X142662381Y-95259048D02*
X141662381Y-95259048D01*
X141805238Y-95354286D01*
X141900476Y-95449524D01*
X141948095Y-95544762D01*
X117233334Y-105332381D02*
X116900000Y-104856190D01*
X116661905Y-105332381D02*
X116661905Y-104332381D01*
X117042858Y-104332381D01*
X117138096Y-104380000D01*
X117185715Y-104427619D01*
X117233334Y-104522857D01*
X117233334Y-104665714D01*
X117185715Y-104760952D01*
X117138096Y-104808571D01*
X117042858Y-104856190D01*
X116661905Y-104856190D01*
X118138096Y-104332381D02*
X117661905Y-104332381D01*
X117614286Y-104808571D01*
X117661905Y-104760952D01*
X117757143Y-104713333D01*
X117995239Y-104713333D01*
X118090477Y-104760952D01*
X118138096Y-104808571D01*
X118185715Y-104903810D01*
X118185715Y-105141905D01*
X118138096Y-105237143D01*
X118090477Y-105284762D01*
X117995239Y-105332381D01*
X117757143Y-105332381D01*
X117661905Y-105284762D01*
X117614286Y-105237143D01*
X73472381Y-78326666D02*
X72996190Y-78660000D01*
X73472381Y-78898095D02*
X72472381Y-78898095D01*
X72472381Y-78517142D01*
X72520000Y-78421904D01*
X72567619Y-78374285D01*
X72662857Y-78326666D01*
X72805714Y-78326666D01*
X72900952Y-78374285D01*
X72948571Y-78421904D01*
X72996190Y-78517142D01*
X72996190Y-78898095D01*
X72472381Y-77469523D02*
X72472381Y-77660000D01*
X72520000Y-77755238D01*
X72567619Y-77802857D01*
X72710476Y-77898095D01*
X72900952Y-77945714D01*
X73281905Y-77945714D01*
X73377143Y-77898095D01*
X73424762Y-77850476D01*
X73472381Y-77755238D01*
X73472381Y-77564761D01*
X73424762Y-77469523D01*
X73377143Y-77421904D01*
X73281905Y-77374285D01*
X73043810Y-77374285D01*
X72948571Y-77421904D01*
X72900952Y-77469523D01*
X72853333Y-77564761D01*
X72853333Y-77755238D01*
X72900952Y-77850476D01*
X72948571Y-77898095D01*
X73043810Y-77945714D01*
X123454762Y-122002381D02*
X123121428Y-121526190D01*
X122883333Y-122002381D02*
X122883333Y-121002381D01*
X123264286Y-121002381D01*
X123359524Y-121050000D01*
X123407143Y-121097619D01*
X123454762Y-121192857D01*
X123454762Y-121335714D01*
X123407143Y-121430952D01*
X123359524Y-121478571D01*
X123264286Y-121526190D01*
X122883333Y-121526190D01*
X123740476Y-121002381D02*
X124073809Y-122002381D01*
X124407143Y-121002381D01*
X125264286Y-122002381D02*
X124692857Y-122002381D01*
X124978571Y-122002381D02*
X124978571Y-121002381D01*
X124883333Y-121145238D01*
X124788095Y-121240476D01*
X124692857Y-121288095D01*
X94112381Y-104451905D02*
X94921905Y-104451905D01*
X95017143Y-104404286D01*
X95064762Y-104356667D01*
X95112381Y-104261429D01*
X95112381Y-104070952D01*
X95064762Y-103975714D01*
X95017143Y-103928095D01*
X94921905Y-103880476D01*
X94112381Y-103880476D01*
X95112381Y-102880476D02*
X95112381Y-103451905D01*
X95112381Y-103166191D02*
X94112381Y-103166191D01*
X94255238Y-103261429D01*
X94350476Y-103356667D01*
X94398095Y-103451905D01*
X97758539Y-45530476D02*
X97710920Y-45482857D01*
X97663301Y-45387619D01*
X97663301Y-45149523D01*
X97710920Y-45054285D01*
X97758539Y-45006666D01*
X97853777Y-44959047D01*
X97949015Y-44959047D01*
X98091872Y-45006666D01*
X98663301Y-45578095D01*
X98663301Y-44959047D01*
X97758539Y-44578095D02*
X97710920Y-44530476D01*
X97663301Y-44435238D01*
X97663301Y-44197142D01*
X97710920Y-44101904D01*
X97758539Y-44054285D01*
X97853777Y-44006666D01*
X97949015Y-44006666D01*
X98091872Y-44054285D01*
X98663301Y-44625714D01*
X98663301Y-44006666D01*
X97996634Y-43149523D02*
X98663301Y-43149523D01*
X97996634Y-43578095D02*
X98520444Y-43578095D01*
X98615682Y-43530476D01*
X98663301Y-43435238D01*
X98663301Y-43292380D01*
X98615682Y-43197142D01*
X98568063Y-43149523D01*
X98663301Y-42149523D02*
X98663301Y-42720952D01*
X98663301Y-42435238D02*
X97663301Y-42435238D01*
X97806158Y-42530476D01*
X97901396Y-42625714D01*
X97949015Y-42720952D01*
X141512381Y-106773333D02*
X142226667Y-106773333D01*
X142369524Y-106820953D01*
X142464762Y-106916191D01*
X142512381Y-107059048D01*
X142512381Y-107154286D01*
X141607619Y-106344762D02*
X141560000Y-106297143D01*
X141512381Y-106201905D01*
X141512381Y-105963809D01*
X141560000Y-105868571D01*
X141607619Y-105820952D01*
X141702857Y-105773333D01*
X141798095Y-105773333D01*
X141940952Y-105820952D01*
X142512381Y-106392381D01*
X142512381Y-105773333D01*
X75726667Y-53912381D02*
X75726667Y-54626667D01*
X75679047Y-54769524D01*
X75583809Y-54864762D01*
X75440952Y-54912381D01*
X75345714Y-54912381D01*
X76107619Y-53912381D02*
X76726667Y-53912381D01*
X76393333Y-54293333D01*
X76536191Y-54293333D01*
X76631429Y-54340952D01*
X76679048Y-54388571D01*
X76726667Y-54483810D01*
X76726667Y-54721905D01*
X76679048Y-54817143D01*
X76631429Y-54864762D01*
X76536191Y-54912381D01*
X76250476Y-54912381D01*
X76155238Y-54864762D01*
X76107619Y-54817143D01*
X136992381Y-61093333D02*
X137706667Y-61093333D01*
X137849524Y-61140953D01*
X137944762Y-61236191D01*
X137992381Y-61379048D01*
X137992381Y-61474286D01*
X137325714Y-60188571D02*
X137992381Y-60188571D01*
X136944762Y-60426667D02*
X137659048Y-60664762D01*
X137659048Y-60045714D01*
X139052381Y-46933333D02*
X139766667Y-46933333D01*
X139909524Y-46980953D01*
X140004762Y-47076191D01*
X140052381Y-47219048D01*
X140052381Y-47314286D01*
X139480952Y-46314286D02*
X139433333Y-46409524D01*
X139385714Y-46457143D01*
X139290476Y-46504762D01*
X139242857Y-46504762D01*
X139147619Y-46457143D01*
X139100000Y-46409524D01*
X139052381Y-46314286D01*
X139052381Y-46123809D01*
X139100000Y-46028571D01*
X139147619Y-45980952D01*
X139242857Y-45933333D01*
X139290476Y-45933333D01*
X139385714Y-45980952D01*
X139433333Y-46028571D01*
X139480952Y-46123809D01*
X139480952Y-46314286D01*
X139528571Y-46409524D01*
X139576190Y-46457143D01*
X139671429Y-46504762D01*
X139861905Y-46504762D01*
X139957143Y-46457143D01*
X140004762Y-46409524D01*
X140052381Y-46314286D01*
X140052381Y-46123809D01*
X140004762Y-46028571D01*
X139957143Y-45980952D01*
X139861905Y-45933333D01*
X139671429Y-45933333D01*
X139576190Y-45980952D01*
X139528571Y-46028571D01*
X139480952Y-46123809D01*
X43677381Y-39008333D02*
X44391667Y-39008333D01*
X44534524Y-39055953D01*
X44629762Y-39151191D01*
X44677381Y-39294048D01*
X44677381Y-39389286D01*
X44677381Y-38008333D02*
X44677381Y-38579762D01*
X44677381Y-38294048D02*
X43677381Y-38294048D01*
X43820238Y-38389286D01*
X43915476Y-38484524D01*
X43963095Y-38579762D01*
X103311905Y-86602381D02*
X103311905Y-85602381D01*
X103550000Y-85602381D01*
X103692858Y-85650000D01*
X103788096Y-85745238D01*
X103835715Y-85840476D01*
X103883334Y-86030952D01*
X103883334Y-86173810D01*
X103835715Y-86364286D01*
X103788096Y-86459524D01*
X103692858Y-86554762D01*
X103550000Y-86602381D01*
X103311905Y-86602381D01*
X104454762Y-86030952D02*
X104359524Y-85983333D01*
X104311905Y-85935714D01*
X104264286Y-85840476D01*
X104264286Y-85792857D01*
X104311905Y-85697619D01*
X104359524Y-85650000D01*
X104454762Y-85602381D01*
X104645239Y-85602381D01*
X104740477Y-85650000D01*
X104788096Y-85697619D01*
X104835715Y-85792857D01*
X104835715Y-85840476D01*
X104788096Y-85935714D01*
X104740477Y-85983333D01*
X104645239Y-86030952D01*
X104454762Y-86030952D01*
X104359524Y-86078571D01*
X104311905Y-86126190D01*
X104264286Y-86221429D01*
X104264286Y-86411905D01*
X104311905Y-86507143D01*
X104359524Y-86554762D01*
X104454762Y-86602381D01*
X104645239Y-86602381D01*
X104740477Y-86554762D01*
X104788096Y-86507143D01*
X104835715Y-86411905D01*
X104835715Y-86221429D01*
X104788096Y-86126190D01*
X104740477Y-86078571D01*
X104645239Y-86030952D01*
X128688301Y-39518095D02*
X127688301Y-39518095D01*
X127688301Y-39280000D01*
X127735920Y-39137142D01*
X127831158Y-39041904D01*
X127926396Y-38994285D01*
X128116872Y-38946666D01*
X128259730Y-38946666D01*
X128450206Y-38994285D01*
X128545444Y-39041904D01*
X128640682Y-39137142D01*
X128688301Y-39280000D01*
X128688301Y-39518095D01*
X128688301Y-38470476D02*
X128688301Y-38280000D01*
X128640682Y-38184761D01*
X128593063Y-38137142D01*
X128450206Y-38041904D01*
X128259730Y-37994285D01*
X127878777Y-37994285D01*
X127783539Y-38041904D01*
X127735920Y-38089523D01*
X127688301Y-38184761D01*
X127688301Y-38375238D01*
X127735920Y-38470476D01*
X127783539Y-38518095D01*
X127878777Y-38565714D01*
X128116872Y-38565714D01*
X128212110Y-38518095D01*
X128259730Y-38470476D01*
X128307349Y-38375238D01*
X128307349Y-38184761D01*
X128259730Y-38089523D01*
X128212110Y-38041904D01*
X128116872Y-37994285D01*
X112863934Y-44947381D02*
X112387743Y-44947381D01*
X112387743Y-43947381D01*
X113721077Y-44947381D02*
X113149648Y-44947381D01*
X113435362Y-44947381D02*
X113435362Y-43947381D01*
X113340124Y-44090238D01*
X113244886Y-44185476D01*
X113149648Y-44233095D01*
M02*
