G04 #@! TF.FileFunction,Copper,L1,Top,Signal*
%FSLAX46Y46*%
G04 Gerber Fmt 4.6, Leading zero omitted, Abs format (unit mm)*
G04 Created by KiCad (PCBNEW 4.0.5) date 02/22/17 14:21:07*
%MOMM*%
%LPD*%
G01*
G04 APERTURE LIST*
%ADD10C,0.127000*%
%ADD11R,2.290000X5.080000*%
%ADD12R,2.420000X5.080000*%
%ADD13C,0.970000*%
%ADD14R,0.460000X0.890000*%
%ADD15C,0.254000*%
G04 APERTURE END LIST*
D10*
D11*
X17145000Y3360000D03*
D12*
X12765000Y3360000D03*
X21525000Y3360000D03*
D13*
X12765000Y6800000D03*
X21525000Y6800000D03*
D14*
X12765000Y6350000D03*
X21525000Y6350000D03*
D15*
G36*
X42418000Y10922000D02*
X18465800Y10922000D01*
X18416390Y10911994D01*
X18374765Y10883553D01*
X18347485Y10841159D01*
X18338800Y10795000D01*
X18338800Y6535000D01*
X17430750Y6535000D01*
X17272000Y6376250D01*
X17272000Y3487000D01*
X17292000Y3487000D01*
X17292000Y3233000D01*
X17272000Y3233000D01*
X17272000Y3213000D01*
X17018000Y3213000D01*
X17018000Y3233000D01*
X16998000Y3233000D01*
X16998000Y3487000D01*
X17018000Y3487000D01*
X17018000Y6376250D01*
X16859250Y6535000D01*
X15951200Y6535000D01*
X15951200Y10795000D01*
X15941194Y10844410D01*
X15912753Y10886035D01*
X15870359Y10913315D01*
X15824200Y10922000D01*
X4572000Y10922000D01*
X4572000Y43688000D01*
X42418000Y43688000D01*
X42418000Y10922000D01*
X42418000Y10922000D01*
G37*
X42418000Y10922000D02*
X18465800Y10922000D01*
X18416390Y10911994D01*
X18374765Y10883553D01*
X18347485Y10841159D01*
X18338800Y10795000D01*
X18338800Y6535000D01*
X17430750Y6535000D01*
X17272000Y6376250D01*
X17272000Y3487000D01*
X17292000Y3487000D01*
X17292000Y3233000D01*
X17272000Y3233000D01*
X17272000Y3213000D01*
X17018000Y3213000D01*
X17018000Y3233000D01*
X16998000Y3233000D01*
X16998000Y3487000D01*
X17018000Y3487000D01*
X17018000Y6376250D01*
X16859250Y6535000D01*
X15951200Y6535000D01*
X15951200Y10795000D01*
X15941194Y10844410D01*
X15912753Y10886035D01*
X15870359Y10913315D01*
X15824200Y10922000D01*
X4572000Y10922000D01*
X4572000Y43688000D01*
X42418000Y43688000D01*
X42418000Y10922000D01*
M02*
