G04 #@! TF.FileFunction,Copper,L2,Bot,Signal*
%FSLAX46Y46*%
G04 Gerber Fmt 4.6, Leading zero omitted, Abs format (unit mm)*
G04 Created by KiCad (PCBNEW 4.0.5) date 03/15/17 15:42:36*
%MOMM*%
%LPD*%
G01*
G04 APERTURE LIST*
%ADD10C,0.025400*%
%ADD11R,43.180000X38.735000*%
%ADD12R,2.420000X6.480000*%
%ADD13C,0.970000*%
%ADD14C,0.127000*%
G04 APERTURE END LIST*
D10*
D11*
X21590000Y28003500D03*
D12*
X12447500Y3361500D03*
X21207500Y3361500D03*
D13*
X12447500Y6101500D03*
X21207500Y6101500D03*
D14*
G36*
X43116500Y63500D02*
X63500Y63500D01*
X63500Y5331270D01*
X11946677Y5331270D01*
X11987747Y5144606D01*
X12183261Y5073299D01*
X12388931Y5041505D01*
X12596851Y5050447D01*
X12799032Y5099779D01*
X12907253Y5144606D01*
X12948323Y5331270D01*
X20706677Y5331270D01*
X20747747Y5144606D01*
X20943261Y5073299D01*
X21148931Y5041505D01*
X21356851Y5050447D01*
X21559032Y5099779D01*
X21667253Y5144606D01*
X21708323Y5331270D01*
X21207500Y5832092D01*
X20706677Y5331270D01*
X12948323Y5331270D01*
X12447500Y5832092D01*
X11946677Y5331270D01*
X63500Y5331270D01*
X63500Y6160069D01*
X11387505Y6160069D01*
X11396447Y5952149D01*
X11445779Y5749968D01*
X11490606Y5641747D01*
X11677270Y5600677D01*
X12178092Y6101500D01*
X12716908Y6101500D01*
X13217730Y5600677D01*
X13404394Y5641747D01*
X13475701Y5837261D01*
X13507495Y6042931D01*
X13502458Y6160069D01*
X20147505Y6160069D01*
X20156447Y5952149D01*
X20205779Y5749968D01*
X20250606Y5641747D01*
X20437270Y5600677D01*
X20938092Y6101500D01*
X21476908Y6101500D01*
X21977730Y5600677D01*
X22164394Y5641747D01*
X22235701Y5837261D01*
X22267495Y6042931D01*
X22258553Y6250851D01*
X22209221Y6453032D01*
X22164394Y6561253D01*
X21977730Y6602323D01*
X21476908Y6101500D01*
X20938092Y6101500D01*
X20437270Y6602323D01*
X20250606Y6561253D01*
X20179299Y6365739D01*
X20147505Y6160069D01*
X13502458Y6160069D01*
X13498553Y6250851D01*
X13449221Y6453032D01*
X13404394Y6561253D01*
X13217730Y6602323D01*
X12716908Y6101500D01*
X12178092Y6101500D01*
X11677270Y6602323D01*
X11490606Y6561253D01*
X11419299Y6365739D01*
X11387505Y6160069D01*
X63500Y6160069D01*
X63500Y6871730D01*
X11946677Y6871730D01*
X12447500Y6370908D01*
X12948323Y6871730D01*
X20706677Y6871730D01*
X21207500Y6370908D01*
X21708323Y6871730D01*
X21667253Y7058394D01*
X21471739Y7129701D01*
X21266069Y7161495D01*
X21058149Y7152553D01*
X20855968Y7103221D01*
X20747747Y7058394D01*
X20706677Y6871730D01*
X12948323Y6871730D01*
X12907253Y7058394D01*
X12711739Y7129701D01*
X12506069Y7161495D01*
X12298149Y7152553D01*
X12095968Y7103221D01*
X11987747Y7058394D01*
X11946677Y6871730D01*
X63500Y6871730D01*
X63500Y47307500D01*
X43116500Y47307500D01*
X43116500Y63500D01*
X43116500Y63500D01*
G37*
X43116500Y63500D02*
X63500Y63500D01*
X63500Y5331270D01*
X11946677Y5331270D01*
X11987747Y5144606D01*
X12183261Y5073299D01*
X12388931Y5041505D01*
X12596851Y5050447D01*
X12799032Y5099779D01*
X12907253Y5144606D01*
X12948323Y5331270D01*
X20706677Y5331270D01*
X20747747Y5144606D01*
X20943261Y5073299D01*
X21148931Y5041505D01*
X21356851Y5050447D01*
X21559032Y5099779D01*
X21667253Y5144606D01*
X21708323Y5331270D01*
X21207500Y5832092D01*
X20706677Y5331270D01*
X12948323Y5331270D01*
X12447500Y5832092D01*
X11946677Y5331270D01*
X63500Y5331270D01*
X63500Y6160069D01*
X11387505Y6160069D01*
X11396447Y5952149D01*
X11445779Y5749968D01*
X11490606Y5641747D01*
X11677270Y5600677D01*
X12178092Y6101500D01*
X12716908Y6101500D01*
X13217730Y5600677D01*
X13404394Y5641747D01*
X13475701Y5837261D01*
X13507495Y6042931D01*
X13502458Y6160069D01*
X20147505Y6160069D01*
X20156447Y5952149D01*
X20205779Y5749968D01*
X20250606Y5641747D01*
X20437270Y5600677D01*
X20938092Y6101500D01*
X21476908Y6101500D01*
X21977730Y5600677D01*
X22164394Y5641747D01*
X22235701Y5837261D01*
X22267495Y6042931D01*
X22258553Y6250851D01*
X22209221Y6453032D01*
X22164394Y6561253D01*
X21977730Y6602323D01*
X21476908Y6101500D01*
X20938092Y6101500D01*
X20437270Y6602323D01*
X20250606Y6561253D01*
X20179299Y6365739D01*
X20147505Y6160069D01*
X13502458Y6160069D01*
X13498553Y6250851D01*
X13449221Y6453032D01*
X13404394Y6561253D01*
X13217730Y6602323D01*
X12716908Y6101500D01*
X12178092Y6101500D01*
X11677270Y6602323D01*
X11490606Y6561253D01*
X11419299Y6365739D01*
X11387505Y6160069D01*
X63500Y6160069D01*
X63500Y6871730D01*
X11946677Y6871730D01*
X12447500Y6370908D01*
X12948323Y6871730D01*
X20706677Y6871730D01*
X21207500Y6370908D01*
X21708323Y6871730D01*
X21667253Y7058394D01*
X21471739Y7129701D01*
X21266069Y7161495D01*
X21058149Y7152553D01*
X20855968Y7103221D01*
X20747747Y7058394D01*
X20706677Y6871730D01*
X12948323Y6871730D01*
X12907253Y7058394D01*
X12711739Y7129701D01*
X12506069Y7161495D01*
X12298149Y7152553D01*
X12095968Y7103221D01*
X11987747Y7058394D01*
X11946677Y6871730D01*
X63500Y6871730D01*
X63500Y47307500D01*
X43116500Y47307500D01*
X43116500Y63500D01*
M02*
