G04 #@! TF.FileFunction,Soldermask,Top*
%FSLAX46Y46*%
G04 Gerber Fmt 4.6, Leading zero omitted, Abs format (unit mm)*
G04 Created by KiCad (PCBNEW 4.0.5) date 05/26/17 15:10:00*
%MOMM*%
%LPD*%
G01*
G04 APERTURE LIST*
%ADD10C,0.100000*%
%ADD11C,2.432000*%
%ADD12R,4.200000X2.400000*%
%ADD13R,1.900000X2.400000*%
%ADD14R,1.600000X1.150000*%
%ADD15R,1.225500X0.654000*%
%ADD16R,0.654000X1.225500*%
%ADD17R,2.125000X2.125000*%
%ADD18R,1.550000X1.400000*%
%ADD19R,0.900000X1.000000*%
%ADD20R,1.000000X0.900000*%
%ADD21R,1.400000X2.200000*%
%ADD22R,0.533400X0.533400*%
%ADD23R,2.940000X1.421080*%
%ADD24R,1.000000X0.800000*%
%ADD25R,1.650000X1.400000*%
%ADD26R,1.150000X1.200000*%
%ADD27R,2.100000X2.100000*%
%ADD28O,2.100000X2.100000*%
%ADD29O,2.127200X3.448000*%
G04 APERTURE END LIST*
D10*
D11*
X13462000Y31521400D03*
X10922000Y31521400D03*
X12192000Y4597400D03*
D12*
X4114800Y4343000D03*
D13*
X4114800Y10643000D03*
X1814800Y10643000D03*
X6414800Y10643000D03*
D14*
X29906000Y25196800D03*
X28006000Y25196800D03*
D15*
X9855200Y15466000D03*
X9855200Y14966000D03*
X9855200Y14466000D03*
X9855200Y13966000D03*
X9855200Y13466000D03*
X9855200Y12966000D03*
X9855200Y12466000D03*
X9855200Y11966000D03*
D16*
X10569000Y11252200D03*
X11069000Y11252200D03*
X11569000Y11252200D03*
X12069000Y11252200D03*
X12569000Y11252200D03*
X13069000Y11252200D03*
X13569000Y11252200D03*
X14069000Y11252200D03*
D15*
X14782800Y11966000D03*
X14782800Y12466000D03*
X14782800Y12966000D03*
X14782800Y13466000D03*
X14782800Y13966000D03*
X14782800Y14466000D03*
X14782800Y14966000D03*
X14782800Y15466000D03*
D16*
X14069000Y16179800D03*
X13569000Y16179800D03*
X13069000Y16179800D03*
X12569000Y16179800D03*
X12069000Y16179800D03*
X11569000Y16179800D03*
X11049000Y16179800D03*
X10569000Y16179800D03*
D17*
X13181500Y12853500D03*
X13181500Y14578500D03*
X11456500Y12853500D03*
X11456500Y14578500D03*
D18*
X16498600Y9510800D03*
X18248600Y9510800D03*
X18248600Y10910800D03*
X16498600Y10910800D03*
D19*
X22783800Y21149400D03*
X22783800Y20049400D03*
X19659600Y10118000D03*
X19659600Y11218000D03*
D20*
X17415600Y8178800D03*
X16315600Y8178800D03*
D21*
X20289200Y18313400D03*
X22789200Y18313400D03*
D22*
X15697200Y13957300D03*
X15697200Y13474700D03*
X16713200Y13957300D03*
X16713200Y13474700D03*
D19*
X20243800Y21149400D03*
X20243800Y20049400D03*
D23*
X14719300Y19763740D03*
X14719300Y17472660D03*
D24*
X27533600Y29672700D03*
X27533600Y28772700D03*
D25*
X8915400Y18977100D03*
X8915400Y20977100D03*
D26*
X10502900Y18871500D03*
X10502900Y20371500D03*
D20*
X12234000Y17767300D03*
X11134000Y17767300D03*
X16214000Y12801600D03*
X17314000Y12801600D03*
D25*
X18427700Y18830800D03*
X18427700Y16830800D03*
D26*
X16840200Y18212500D03*
X16840200Y16712500D03*
D20*
X16907600Y15582900D03*
X15807600Y15582900D03*
X12805500Y20015200D03*
X11705500Y20015200D03*
X11705500Y19062700D03*
X12805500Y19062700D03*
D19*
X20853400Y13885000D03*
X20853400Y12785000D03*
X25374600Y13948500D03*
X25374600Y12848500D03*
X2921000Y13516700D03*
X2921000Y12416700D03*
D20*
X5896700Y12814300D03*
X4796700Y12814300D03*
D25*
X10071100Y7902700D03*
X10071100Y9902700D03*
D26*
X8509000Y10629200D03*
X8509000Y12129200D03*
D20*
X7654200Y13309600D03*
X8754200Y13309600D03*
D27*
X2311400Y18948400D03*
D28*
X2311400Y21488400D03*
X2311400Y24028400D03*
X2311400Y26568400D03*
X2311400Y29108400D03*
X2311400Y31648400D03*
D29*
X31546800Y31851600D03*
X26466800Y31851600D03*
X31546800Y19151600D03*
X26466800Y19151600D03*
D24*
X24472900Y7385900D03*
X24472900Y8285900D03*
X26466800Y29672700D03*
X26466800Y28772700D03*
D14*
X22164000Y13931900D03*
X24064000Y13931900D03*
D24*
X4660900Y24033900D03*
X4660900Y23133900D03*
X4724400Y27450200D03*
X4724400Y26550200D03*
D10*
G36*
X4502313Y13536106D02*
X3795206Y14243213D01*
X4360891Y14808898D01*
X5067998Y14101791D01*
X4502313Y13536106D01*
X4502313Y13536106D01*
G37*
G36*
X5138709Y14172502D02*
X4431602Y14879609D01*
X4997287Y15445294D01*
X5704394Y14738187D01*
X5138709Y14172502D01*
X5138709Y14172502D01*
G37*
D24*
X13208000Y9213000D03*
X13208000Y8313000D03*
X14287500Y9213000D03*
X14287500Y8313000D03*
M02*
