G04 #@! TF.FileFunction,Copper,L1,Top,Signal*
%FSLAX46Y46*%
G04 Gerber Fmt 4.6, Leading zero omitted, Abs format (unit mm)*
G04 Created by KiCad (PCBNEW 4.0.5) date 05/26/17 17:54:40*
%MOMM*%
%LPD*%
G01*
G04 APERTURE LIST*
%ADD10C,0.100000*%
%ADD11R,0.812800X0.254000*%
%ADD12R,0.254000X0.812800*%
%ADD13R,1.725000X1.725000*%
%ADD14C,2.032000*%
%ADD15R,3.800000X2.000000*%
%ADD16R,1.500000X2.000000*%
%ADD17R,1.200000X0.750000*%
%ADD18C,0.356000*%
%ADD19R,1.150000X1.000000*%
%ADD20R,0.500000X0.600000*%
%ADD21R,0.600000X0.500000*%
%ADD22R,1.000000X1.800000*%
%ADD23R,0.330200X0.330200*%
%ADD24R,2.540000X1.021080*%
%ADD25R,0.600000X0.400000*%
%ADD26R,1.250000X1.000000*%
%ADD27R,0.750000X0.800000*%
%ADD28R,1.700000X1.700000*%
%ADD29O,1.700000X1.700000*%
%ADD30O,1.727200X3.048000*%
%ADD31C,1.016000*%
%ADD32C,0.558800*%
%ADD33C,0.254000*%
%ADD34C,0.558800*%
%ADD35C,1.016000*%
%ADD36C,0.152400*%
G04 APERTURE END LIST*
D10*
D11*
X9779000Y15466000D03*
X9779000Y14966000D03*
X9779000Y14466000D03*
X9779000Y13966000D03*
X9779000Y13466000D03*
X9779000Y12966000D03*
X9779000Y12466000D03*
X9779000Y11966000D03*
D12*
X10569000Y11176000D03*
X11069000Y11176000D03*
X11569000Y11176000D03*
X12069000Y11176000D03*
X12569000Y11176000D03*
X13069000Y11176000D03*
X13569000Y11176000D03*
X14069000Y11176000D03*
D11*
X14859000Y11966000D03*
X14859000Y12466000D03*
X14859000Y12966000D03*
X14859000Y13466000D03*
X14859000Y13966000D03*
X14859000Y14466000D03*
X14859000Y14966000D03*
X14859000Y15466000D03*
D12*
X14069000Y16256000D03*
X13569000Y16256000D03*
X13069000Y16256000D03*
X12569000Y16256000D03*
X12069000Y16256000D03*
X11569000Y16256000D03*
X11049000Y16256000D03*
X10569000Y16256000D03*
D13*
X13181500Y12853500D03*
X13181500Y14578500D03*
X11456500Y12853500D03*
X11456500Y14578500D03*
D14*
X13462000Y31521400D03*
X10922000Y31521400D03*
X12192000Y4597400D03*
D15*
X4114800Y4343000D03*
D16*
X4114800Y10643000D03*
X1814800Y10643000D03*
X6414800Y10643000D03*
D17*
X29906000Y25196800D03*
X28006000Y25196800D03*
D18*
X16878300Y18237200D03*
X20878800Y9956800D03*
X20878800Y10617200D03*
X20878800Y9296400D03*
X25679400Y5054600D03*
X25679400Y7594600D03*
X25679400Y10769600D03*
X25679400Y11404600D03*
X25679400Y8229600D03*
X25679400Y6324600D03*
X25679400Y5689600D03*
X25679400Y8864600D03*
X25679400Y10134600D03*
X25679400Y9499600D03*
X25679400Y6959600D03*
X20878800Y7315200D03*
X25679400Y3784600D03*
X16560800Y6756400D03*
X25679400Y4419600D03*
X18542000Y6756400D03*
X20955000Y15265400D03*
X18897600Y22453600D03*
X19202400Y6756400D03*
X17221200Y6756400D03*
X17881600Y6756400D03*
X19862800Y6756400D03*
X20878800Y8636000D03*
X15900400Y6756400D03*
X25679400Y3149600D03*
X25679400Y2514600D03*
X15252700Y6756400D03*
X25679400Y1244600D03*
X25679400Y609600D03*
X20523200Y6756400D03*
X25171400Y11785600D03*
X29083000Y17526000D03*
X27940000Y17526000D03*
X25400000Y15621000D03*
X24638000Y15621000D03*
X23812500Y15621000D03*
X23050500Y15621000D03*
X23812500Y16827500D03*
X23812500Y20066000D03*
X23812500Y21336000D03*
X34544000Y17526000D03*
X20472400Y14782800D03*
X10274300Y17767300D03*
X17691100Y15595600D03*
X36017200Y18516600D03*
X18897600Y20802600D03*
X14935200Y7327900D03*
X18288000Y9550400D03*
X16510000Y10972800D03*
X12585700Y10058400D03*
X19659600Y8166100D03*
X13931900Y7327900D03*
X19659600Y9309100D03*
X25679400Y1879600D03*
X18516600Y8166100D03*
X23228300Y7785100D03*
X20878800Y7975600D03*
X18427700Y17830800D03*
X25209500Y20955000D03*
X23710900Y22517100D03*
X33401000Y17526000D03*
X25209500Y17526000D03*
X25209500Y16383000D03*
X22288500Y15621000D03*
X21526500Y15621000D03*
X21513800Y22123400D03*
X25209500Y22237700D03*
X30226000Y17526000D03*
X18897600Y21640800D03*
X13589000Y12446000D03*
X12954000Y12446000D03*
X12319000Y12446000D03*
X11684000Y12446000D03*
X11049000Y12446000D03*
X11049000Y13081000D03*
X11684000Y13081000D03*
X12319000Y13081000D03*
X12954000Y13081000D03*
X13589000Y13081000D03*
X13589000Y13716000D03*
X12954000Y13716000D03*
X12319000Y13716000D03*
X11684000Y13716000D03*
X11049000Y13716000D03*
X11049000Y14351000D03*
X11684000Y14351000D03*
X12319000Y14351000D03*
X12954000Y14351000D03*
X13589000Y14351000D03*
X13589000Y14986000D03*
X12954000Y14986000D03*
X12319000Y14986000D03*
X11684000Y14986000D03*
D19*
X16498600Y9510800D03*
X18248600Y9510800D03*
X18248600Y10910800D03*
X16498600Y10910800D03*
D18*
X11049000Y14986000D03*
D20*
X22783800Y21149400D03*
X22783800Y20049400D03*
X19659600Y10118000D03*
X19659600Y11218000D03*
D21*
X17415600Y8178800D03*
X16315600Y8178800D03*
D22*
X20289200Y18313400D03*
X22789200Y18313400D03*
D23*
X15697200Y13957300D03*
X15697200Y13474700D03*
X16713200Y13957300D03*
X16713200Y13474700D03*
D20*
X20243800Y21149400D03*
X20243800Y20049400D03*
D24*
X14719300Y19763740D03*
X14719300Y17472660D03*
D25*
X27533600Y29672700D03*
X27533600Y28772700D03*
D26*
X8915400Y18977100D03*
X8915400Y20977100D03*
D27*
X10502900Y18871500D03*
X10502900Y20371500D03*
D21*
X12234000Y17767300D03*
X11134000Y17767300D03*
X16214000Y12801600D03*
X17314000Y12801600D03*
D26*
X18427700Y18830800D03*
X18427700Y16830800D03*
D27*
X16840200Y18212500D03*
X16840200Y16712500D03*
D21*
X16907600Y15582900D03*
X15807600Y15582900D03*
X12805500Y20015200D03*
X11705500Y20015200D03*
X11705500Y19062700D03*
X12805500Y19062700D03*
D20*
X20853400Y13885000D03*
X20853400Y12785000D03*
X25374600Y13948500D03*
X25374600Y12848500D03*
X2921000Y13516700D03*
X2921000Y12416700D03*
D21*
X5896700Y12814300D03*
X4796700Y12814300D03*
D26*
X10071100Y7902700D03*
X10071100Y9902700D03*
D27*
X8509000Y10629200D03*
X8509000Y12129200D03*
D21*
X7654200Y13309600D03*
X8754200Y13309600D03*
D28*
X2311400Y18948400D03*
D29*
X2311400Y21488400D03*
X2311400Y24028400D03*
X2311400Y26568400D03*
X2311400Y29108400D03*
X2311400Y31648400D03*
D30*
X31546800Y31851600D03*
X26466800Y31851600D03*
X31546800Y19151600D03*
X26466800Y19151600D03*
D25*
X24472900Y7385900D03*
X24472900Y8285900D03*
X26466800Y29672700D03*
X26466800Y28772700D03*
D17*
X22164000Y13931900D03*
X24064000Y13931900D03*
D25*
X4660900Y24033900D03*
X4660900Y23133900D03*
X4724400Y27450200D03*
X4724400Y26550200D03*
D10*
G36*
X4502313Y13818949D02*
X4078049Y14243213D01*
X4360891Y14526055D01*
X4785155Y14101791D01*
X4502313Y13818949D01*
X4502313Y13818949D01*
G37*
G36*
X5138709Y14455345D02*
X4714445Y14879609D01*
X4997287Y15162451D01*
X5421551Y14738187D01*
X5138709Y14455345D01*
X5138709Y14455345D01*
G37*
D25*
X13208000Y9213000D03*
X13208000Y8313000D03*
X14287500Y9213000D03*
X14287500Y8313000D03*
D31*
X15544800Y2286000D03*
X7924800Y2286000D03*
X11734800Y2286000D03*
D32*
X16214000Y12801600D03*
D31*
X17665700Y20815300D03*
D32*
X18440400Y16833000D03*
D31*
X28956000Y27152600D03*
D32*
X17513300Y29070300D03*
X13703300Y29070300D03*
X9893300Y29070300D03*
X29906000Y25196800D03*
X10083800Y9880600D03*
D31*
X4114800Y7683500D03*
D32*
X8915400Y18977100D03*
X18248600Y10910800D03*
X14719300Y17472660D03*
X14701100Y19773900D03*
X20289200Y18313400D03*
X34721800Y28778200D03*
X24472900Y6438900D03*
X28006000Y25196800D03*
X11569700Y16916400D03*
X15417800Y16395700D03*
X11633200Y10058400D03*
X18148300Y4216400D03*
X23164800Y4216400D03*
D33*
X11049000Y16256000D02*
X11049000Y16662400D01*
X11049000Y16662400D02*
X11036300Y16675100D01*
X25345300Y13931900D02*
X25374600Y13961200D01*
X22796500Y21187500D02*
X20298500Y21187500D01*
X20298500Y21187500D02*
X20256500Y21145500D01*
X20256500Y21145500D02*
X20256500Y21187500D01*
D34*
X13181500Y14578500D02*
X13589000Y14986000D01*
X12954000Y14986000D02*
X13181500Y14578500D01*
X13181500Y14578500D02*
X12726500Y14578500D01*
X12726500Y14578500D02*
X12319000Y14986000D01*
X11684000Y14986000D02*
X11456500Y14578500D01*
X11456500Y14578500D02*
X11049000Y14986000D01*
X11049000Y14351000D02*
X11456500Y14578500D01*
X11456500Y14578500D02*
X11684000Y14351000D01*
X12319000Y14351000D02*
X13181500Y14578500D01*
X13181500Y14578500D02*
X12954000Y14351000D01*
X13589000Y14351000D02*
X13181500Y14578500D01*
X13181500Y12853500D02*
X13181500Y13308500D01*
X13181500Y13308500D02*
X13589000Y13716000D01*
X12954000Y13716000D02*
X13181500Y12853500D01*
X13181500Y12853500D02*
X12319000Y13716000D01*
X11684000Y13716000D02*
X11456500Y12853500D01*
X11456500Y12853500D02*
X11456500Y13308500D01*
X11456500Y13308500D02*
X11049000Y13716000D01*
X11049000Y13081000D02*
X11456500Y12853500D01*
X11456500Y12853500D02*
X11684000Y13081000D01*
X12319000Y13081000D02*
X13181500Y12853500D01*
X13181500Y12853500D02*
X12954000Y13081000D01*
X13589000Y13081000D02*
X13181500Y12853500D01*
X13181500Y12853500D02*
X13589000Y12446000D01*
X12954000Y12446000D02*
X13181500Y12853500D01*
X13181500Y12853500D02*
X12726500Y12853500D01*
X12726500Y12853500D02*
X12319000Y12446000D01*
X11684000Y12446000D02*
X11456500Y12853500D01*
X11456500Y12853500D02*
X11049000Y12446000D01*
D33*
X14859000Y15466000D02*
X15690700Y15466000D01*
X15690700Y15466000D02*
X15807600Y15582900D01*
D35*
X11734800Y2286000D02*
X15544800Y2286000D01*
X4114800Y2616200D02*
X4445000Y2286000D01*
X4445000Y2286000D02*
X7924800Y2286000D01*
X4114800Y4343000D02*
X4114800Y2730500D01*
X4114800Y2730500D02*
X4114800Y2616200D01*
D33*
X14782800Y12966000D02*
X16049600Y12966000D01*
D35*
X17513300Y29070300D02*
X17665700Y20815300D01*
D33*
X18440400Y16833000D02*
X18438200Y16830800D01*
X18438200Y16830800D02*
X18427700Y16830800D01*
D35*
X17513300Y29070300D02*
X23876000Y29070300D01*
X23876000Y29070300D02*
X25793700Y27152600D01*
X25793700Y27152600D02*
X28956000Y27152600D01*
X9893300Y29070300D02*
X13703300Y29070300D01*
D33*
X18427700Y16830800D02*
X16958500Y16830800D01*
X16958500Y16830800D02*
X16840200Y16712500D01*
X15807600Y15582900D02*
X15807600Y15679900D01*
X15807600Y15679900D02*
X16840200Y16712500D01*
X14782800Y15466000D02*
X15690700Y15466000D01*
X15690700Y15466000D02*
X15807600Y15582900D01*
D34*
X10083800Y9880600D02*
X10071100Y9893300D01*
X10071100Y9893300D02*
X10071100Y9902700D01*
D33*
X4796700Y12814300D02*
X4796700Y12429400D01*
X4114800Y11747500D02*
X4114800Y11620500D01*
X4796700Y12429400D02*
X4114800Y11747500D01*
X8509000Y12129200D02*
X4623500Y12129200D01*
X4623500Y12129200D02*
X4114800Y11620500D01*
X4114800Y11620500D02*
X4114800Y11620500D01*
X4114800Y11620500D02*
X4114800Y10643000D01*
X8509000Y12129200D02*
X8509000Y11887200D01*
X8509000Y11887200D02*
X10071100Y10325100D01*
X10071100Y10325100D02*
X10071100Y9902700D01*
X8509000Y12129200D02*
X8509000Y12052300D01*
X8754200Y13309600D02*
X8754200Y12374400D01*
X8754200Y12374400D02*
X8509000Y12129200D01*
X9855200Y12966000D02*
X9097800Y12966000D01*
X9097800Y12966000D02*
X8754200Y13309600D01*
D35*
X4114800Y4343000D02*
X4114800Y7683500D01*
X4114800Y7683500D02*
X4114800Y10643000D01*
D33*
X4114800Y10643000D02*
X4114800Y13855700D01*
X4114800Y13855700D02*
X4431602Y14172502D01*
X4724400Y26550200D02*
X2329600Y26550200D01*
X2329600Y26550200D02*
X2311400Y26568400D01*
X9855200Y15466000D02*
X9855200Y17284700D01*
X6457100Y26550200D02*
X4724400Y26550200D01*
X7607300Y25400000D02*
X6457100Y26550200D01*
X7607300Y18122900D02*
X7607300Y25400000D01*
X7899400Y17830800D02*
X7607300Y18122900D01*
X9309100Y17830800D02*
X7899400Y17830800D01*
X9855200Y17284700D02*
X9309100Y17830800D01*
X4660900Y24033900D02*
X2316900Y24033900D01*
X2316900Y24033900D02*
X2311400Y24028400D01*
X9855200Y14966000D02*
X8084500Y14966000D01*
X5036400Y24033900D02*
X4660900Y24033900D01*
X5689600Y23380700D02*
X5036400Y24033900D01*
X5689600Y17360900D02*
X5689600Y23380700D01*
X8084500Y14966000D02*
X5689600Y17360900D01*
X13569000Y11252200D02*
X13569000Y10419400D01*
X13208000Y10058400D02*
X13208000Y9213000D01*
X13569000Y10419400D02*
X13208000Y10058400D01*
X14069000Y11252200D02*
X14069000Y10378500D01*
X14287500Y10160000D02*
X14287500Y9213000D01*
X14069000Y10378500D02*
X14287500Y10160000D01*
X14782800Y14466000D02*
X19038000Y14466000D01*
X22352000Y17208500D02*
X22796500Y17653000D01*
X21018500Y17208500D02*
X22352000Y17208500D01*
X20828000Y17018000D02*
X21018500Y17208500D01*
X20828000Y16256000D02*
X20828000Y17018000D01*
X19038000Y14466000D02*
X20828000Y16256000D01*
X22796500Y17653000D02*
X22796500Y18478500D01*
X22796500Y18478500D02*
X22840000Y18415000D01*
X22796500Y18351500D02*
X22840000Y18415000D01*
X22796500Y20087500D02*
X22796500Y18351500D01*
X12569000Y16256000D02*
X12569000Y16848900D01*
X12573000Y16852900D02*
X12569000Y16852900D01*
X12569000Y16848900D02*
X12573000Y16852900D01*
X9021000Y18871500D02*
X8915400Y18977100D01*
X10502900Y18871500D02*
X9021000Y18871500D01*
X12234000Y17767300D02*
X12234000Y18131700D01*
X10946700Y18427700D02*
X10502900Y18871500D01*
X11938000Y18427700D02*
X10946700Y18427700D01*
X12234000Y18131700D02*
X11938000Y18427700D01*
X12569000Y16179800D02*
X12569000Y16852900D01*
X12569000Y16852900D02*
X12569000Y17432300D01*
X12569000Y17432300D02*
X12234000Y17767300D01*
X12573000Y16192500D02*
X12569000Y16179800D01*
X12573000Y16306800D02*
X12569000Y16179800D01*
X15900400Y12141200D02*
X15595600Y12446000D01*
X17678400Y12141200D02*
X15900400Y12141200D01*
X18248600Y10910800D02*
X18248600Y11571000D01*
X15595600Y12446000D02*
X14833600Y12446000D01*
X18248600Y11571000D02*
X17678400Y12141200D01*
X14833600Y12446000D02*
X14782800Y12466000D01*
X19659600Y11218000D02*
X18584000Y11218000D01*
X18584000Y11218000D02*
X18237200Y10871200D01*
X18237200Y10871200D02*
X18248600Y10910800D01*
X18237200Y10922000D02*
X18248600Y10910800D01*
X14795500Y12446000D02*
X14782800Y12466000D01*
X16315600Y8178800D02*
X16315600Y9406800D01*
X16315600Y9406800D02*
X16560800Y9652000D01*
X16560800Y9652000D02*
X16498600Y9510800D01*
X14782800Y11966000D02*
X14782800Y10363200D01*
X15595600Y9550400D02*
X16459200Y9550400D01*
X14782800Y10363200D02*
X15595600Y9550400D01*
X16459200Y9550400D02*
X16498600Y9510800D01*
X13569000Y16256000D02*
X13569000Y16822100D01*
X13569000Y16179800D02*
X13569000Y16822100D01*
X13569000Y16822100D02*
X14219560Y17472660D01*
X14219560Y17472660D02*
X14719300Y17472660D01*
X13589000Y16192500D02*
X13569000Y16179800D01*
X20853400Y13885000D02*
X22117100Y13885000D01*
X22117100Y13885000D02*
X22164000Y13931900D01*
X16713200Y13957300D02*
X20781100Y13957300D01*
X20781100Y13957300D02*
X20853400Y13885000D01*
X13069000Y16256000D02*
X13069000Y16903000D01*
X13068300Y16903700D02*
X13069000Y16903700D01*
X13069000Y16903000D02*
X13068300Y16903700D01*
X14701100Y19773900D02*
X14711260Y19763740D01*
X14711260Y19763740D02*
X14719300Y19763740D01*
X12805500Y20015200D02*
X14467840Y20015200D01*
X14467840Y20015200D02*
X14719300Y19763740D01*
X12805500Y20015200D02*
X12805500Y19062700D01*
X13069000Y16179800D02*
X13069000Y16903700D01*
X13069000Y16903700D02*
X13069000Y18799200D01*
X13069000Y18799200D02*
X12805500Y19062700D01*
X20256500Y20087500D02*
X20256500Y18542000D01*
X20340000Y20046000D02*
X20256500Y20129500D01*
X20256500Y20129500D02*
X20256500Y20087500D01*
X20320000Y16510000D02*
X20320000Y18478500D01*
X20320000Y18478500D02*
X20340000Y18415000D01*
X20256500Y18542000D02*
X20383500Y18415000D01*
X20383500Y18415000D02*
X20340000Y18415000D01*
X14782800Y14966000D02*
X18776000Y14966000D01*
X18776000Y14966000D02*
X20320000Y16510000D01*
X27533600Y28772700D02*
X34716300Y28772700D01*
X34716300Y28772700D02*
X34721800Y28778200D01*
X24472900Y6438900D02*
X24472900Y7385900D01*
X5067998Y14808898D02*
X5067998Y14947202D01*
X5067998Y14947202D02*
X4775200Y15240000D01*
X9855200Y13966000D02*
X6049200Y13966000D01*
X3505200Y21488400D02*
X2311400Y21488400D01*
X4165600Y20828000D02*
X3505200Y21488400D01*
X4165600Y15849600D02*
X4165600Y20828000D01*
X6049200Y13966000D02*
X4775200Y15240000D01*
X4775200Y15240000D02*
X4165600Y15849600D01*
X14782800Y13966000D02*
X15693200Y13966000D01*
X15693200Y13966000D02*
X15697200Y13970000D01*
X15697200Y13970000D02*
X15697200Y13957300D01*
X14782800Y13466000D02*
X15693200Y13466000D01*
X15693200Y13466000D02*
X15697200Y13462000D01*
X15697200Y13462000D02*
X15697200Y13474700D01*
X11569000Y16256000D02*
X11569000Y16915700D01*
X11569000Y16915700D02*
X11569700Y16916400D01*
X27533600Y29672700D02*
X26466800Y29672700D01*
X26466800Y31851600D02*
X26466800Y29672700D01*
X11569000Y16915700D02*
X11569700Y16916400D01*
X11569000Y16179800D02*
X11569000Y16915700D01*
X2921000Y12416700D02*
X2404200Y12416700D01*
X2404200Y12416700D02*
X1814800Y13006100D01*
D35*
X1814800Y10643000D02*
X1814800Y13006100D01*
X1814800Y13006100D02*
X1814800Y18451800D01*
X1814800Y18451800D02*
X2311400Y18948400D01*
D33*
X14069000Y16256000D02*
X14135100Y16256000D01*
X14135100Y16256000D02*
X14211300Y16179800D01*
X14069000Y16179800D02*
X14211300Y16179800D01*
X14211300Y16179800D02*
X15201900Y16179800D01*
X15201900Y16179800D02*
X15417800Y16395700D01*
X18148300Y4216400D02*
X23164800Y4216400D01*
X11069000Y10622600D02*
X11633200Y10058400D01*
X11069000Y11252200D02*
X11069000Y10622600D01*
D36*
G36*
X24180800Y16522700D02*
X21336000Y16522700D01*
X21336000Y16700500D01*
X22352000Y16700500D01*
X22546403Y16739169D01*
X22711210Y16849290D01*
X22886856Y17024936D01*
X23289200Y17024936D01*
X23430390Y17051503D01*
X23555953Y17132300D01*
X23685500Y17132300D01*
X23713195Y17137511D01*
X23738632Y17153879D01*
X23755697Y17178854D01*
X23761700Y17208500D01*
X23761700Y19621500D01*
X23756489Y19649195D01*
X23740121Y19674632D01*
X23715146Y19691697D01*
X23685500Y19697700D01*
X23444200Y19697700D01*
X23444200Y20701000D01*
X23438989Y20728695D01*
X23422621Y20754132D01*
X23397646Y20771197D01*
X23368000Y20777200D01*
X19888200Y20777200D01*
X19888200Y22974300D01*
X24180800Y22974300D01*
X24180800Y16522700D01*
X24180800Y16522700D01*
G37*
X24180800Y16522700D02*
X21336000Y16522700D01*
X21336000Y16700500D01*
X22352000Y16700500D01*
X22546403Y16739169D01*
X22711210Y16849290D01*
X22886856Y17024936D01*
X23289200Y17024936D01*
X23430390Y17051503D01*
X23555953Y17132300D01*
X23685500Y17132300D01*
X23713195Y17137511D01*
X23738632Y17153879D01*
X23755697Y17178854D01*
X23761700Y17208500D01*
X23761700Y19621500D01*
X23756489Y19649195D01*
X23740121Y19674632D01*
X23715146Y19691697D01*
X23685500Y19697700D01*
X23444200Y19697700D01*
X23444200Y20701000D01*
X23438989Y20728695D01*
X23422621Y20754132D01*
X23397646Y20771197D01*
X23368000Y20777200D01*
X19888200Y20777200D01*
X19888200Y22974300D01*
X24180800Y22974300D01*
X24180800Y16522700D01*
G36*
X19258466Y10560141D02*
X19409600Y10529536D01*
X19909600Y10529536D01*
X20050790Y10556103D01*
X20091400Y10582235D01*
X20091400Y7493000D01*
X15722600Y7493000D01*
X15722600Y7680540D01*
X15737146Y7657935D01*
X15864466Y7570941D01*
X16015600Y7540336D01*
X16615600Y7540336D01*
X16756790Y7566903D01*
X16886465Y7650346D01*
X16973459Y7777666D01*
X17004064Y7928800D01*
X17004064Y8428800D01*
X16977497Y8569990D01*
X16943814Y8622336D01*
X17073600Y8622336D01*
X17214790Y8648903D01*
X17344465Y8732346D01*
X17431459Y8859666D01*
X17462064Y9010800D01*
X17462064Y10010800D01*
X17444053Y10106518D01*
X17522466Y10052941D01*
X17673600Y10022336D01*
X18823600Y10022336D01*
X18964790Y10048903D01*
X19094465Y10132346D01*
X19181459Y10259666D01*
X19212064Y10410800D01*
X19212064Y10591846D01*
X19258466Y10560141D01*
X19258466Y10560141D01*
G37*
X19258466Y10560141D02*
X19409600Y10529536D01*
X19909600Y10529536D01*
X20050790Y10556103D01*
X20091400Y10582235D01*
X20091400Y7493000D01*
X15722600Y7493000D01*
X15722600Y7680540D01*
X15737146Y7657935D01*
X15864466Y7570941D01*
X16015600Y7540336D01*
X16615600Y7540336D01*
X16756790Y7566903D01*
X16886465Y7650346D01*
X16973459Y7777666D01*
X17004064Y7928800D01*
X17004064Y8428800D01*
X16977497Y8569990D01*
X16943814Y8622336D01*
X17073600Y8622336D01*
X17214790Y8648903D01*
X17344465Y8732346D01*
X17431459Y8859666D01*
X17462064Y9010800D01*
X17462064Y10010800D01*
X17444053Y10106518D01*
X17522466Y10052941D01*
X17673600Y10022336D01*
X18823600Y10022336D01*
X18964790Y10048903D01*
X19094465Y10132346D01*
X19181459Y10259666D01*
X19212064Y10410800D01*
X19212064Y10591846D01*
X19258466Y10560141D01*
G36*
X15900400Y11633200D02*
X17364435Y11633200D01*
X17315741Y11561934D01*
X17285136Y11410800D01*
X17285136Y10410800D01*
X17303147Y10315082D01*
X17224734Y10368659D01*
X17073600Y10399264D01*
X15923600Y10399264D01*
X15782410Y10372697D01*
X15722600Y10334211D01*
X15722600Y11658600D01*
X15772707Y11658600D01*
X15900400Y11633200D01*
X15900400Y11633200D01*
G37*
X15900400Y11633200D02*
X17364435Y11633200D01*
X17315741Y11561934D01*
X17285136Y11410800D01*
X17285136Y10410800D01*
X17303147Y10315082D01*
X17224734Y10368659D01*
X17073600Y10399264D01*
X15923600Y10399264D01*
X15782410Y10372697D01*
X15722600Y10334211D01*
X15722600Y11658600D01*
X15772707Y11658600D01*
X15900400Y11633200D01*
G36*
X38277800Y17068800D02*
X25742900Y17068800D01*
X25713254Y17062797D01*
X25688279Y17045732D01*
X25671911Y17020295D01*
X25666700Y16992600D01*
X25666700Y16141700D01*
X25672703Y16112054D01*
X25689768Y16087079D01*
X25715205Y16070711D01*
X25742900Y16065500D01*
X25882600Y16065500D01*
X25912246Y16071503D01*
X25937221Y16088568D01*
X25953589Y16114005D01*
X25958800Y16141700D01*
X25958800Y16421100D01*
X31203900Y16421100D01*
X31203900Y11569700D01*
X28638500Y11569700D01*
X28608854Y11563697D01*
X28583879Y11546632D01*
X28567511Y11521195D01*
X28562300Y11493500D01*
X28562300Y9499600D01*
X28568303Y9469954D01*
X28585368Y9444979D01*
X28610805Y9428611D01*
X28638500Y9423400D01*
X31203900Y9423400D01*
X31203900Y6883400D01*
X28638500Y6883400D01*
X28608854Y6877397D01*
X28583879Y6860332D01*
X28567511Y6834895D01*
X28562300Y6807200D01*
X28562300Y4813300D01*
X28568303Y4783654D01*
X28585368Y4758679D01*
X28610805Y4742311D01*
X28638500Y4737100D01*
X31203900Y4737100D01*
X31203900Y2159000D01*
X26924000Y2159000D01*
X26924000Y2501900D01*
X30784800Y2501900D01*
X30814446Y2507903D01*
X30839421Y2524968D01*
X30855789Y2550405D01*
X30861000Y2578100D01*
X30861000Y4318000D01*
X30854997Y4347646D01*
X30837932Y4372621D01*
X30812495Y4388989D01*
X30784800Y4394200D01*
X28219400Y4394200D01*
X28219400Y7226300D01*
X30784800Y7226300D01*
X30814446Y7232303D01*
X30839421Y7249368D01*
X30855789Y7274805D01*
X30861000Y7302500D01*
X30861000Y9004300D01*
X30854997Y9033946D01*
X30837932Y9058921D01*
X30812495Y9075289D01*
X30784800Y9080500D01*
X28219400Y9080500D01*
X28219400Y11912600D01*
X30784800Y11912600D01*
X30814446Y11918603D01*
X30839421Y11935668D01*
X30855789Y11961105D01*
X30861000Y11988800D01*
X30861000Y13690600D01*
X30854997Y13720246D01*
X30837932Y13745221D01*
X30812495Y13761589D01*
X30784800Y13766800D01*
X26263600Y13766800D01*
X26255366Y13766354D01*
X25938805Y13731945D01*
X25872250Y13798500D01*
X25499600Y13798500D01*
X25499600Y13703300D01*
X25249600Y13703300D01*
X25249600Y13798500D01*
X25196800Y13798500D01*
X25196800Y14098500D01*
X25249600Y14098500D01*
X25249600Y14185900D01*
X25499600Y14185900D01*
X25499600Y14098500D01*
X25872250Y14098500D01*
X25933966Y14160216D01*
X26254799Y14122910D01*
X26263600Y14122400D01*
X30784800Y14122400D01*
X30814446Y14128403D01*
X30839421Y14145468D01*
X30855789Y14170905D01*
X30861000Y14198600D01*
X30861000Y15595600D01*
X30854997Y15625246D01*
X30837932Y15650221D01*
X30812495Y15666589D01*
X30784800Y15671800D01*
X25958800Y15671800D01*
X25958800Y15963900D01*
X25952797Y15993546D01*
X25935732Y16018521D01*
X25910295Y16034889D01*
X25882600Y16040100D01*
X25742900Y16040100D01*
X25713254Y16034097D01*
X25688279Y16017032D01*
X25671911Y15991595D01*
X25666700Y15963900D01*
X25666700Y15455900D01*
X25672703Y15426254D01*
X25689768Y15401279D01*
X25715205Y15384911D01*
X25742900Y15379700D01*
X26301700Y15379700D01*
X26301700Y14490700D01*
X25849373Y14490700D01*
X25811643Y14528430D01*
X25690281Y14578700D01*
X25582150Y14578700D01*
X25499600Y14496150D01*
X25499600Y14490700D01*
X25249600Y14490700D01*
X25249600Y14496150D01*
X25167050Y14578700D01*
X25058919Y14578700D01*
X24937557Y14528430D01*
X24923500Y14514373D01*
X24851043Y14586830D01*
X24729681Y14637100D01*
X24324350Y14637100D01*
X24241800Y14554550D01*
X24241800Y14109700D01*
X24261800Y14109700D01*
X24261800Y13754100D01*
X24241800Y13754100D01*
X24241800Y13309250D01*
X24324350Y13226700D01*
X24729681Y13226700D01*
X24814063Y13261652D01*
X24794400Y13214181D01*
X24794400Y13081050D01*
X24876950Y12998500D01*
X25249600Y12998500D01*
X25249600Y13046300D01*
X25499600Y13046300D01*
X25499600Y12998500D01*
X25872250Y12998500D01*
X25954800Y13081050D01*
X25954800Y13214181D01*
X25904530Y13335543D01*
X25841573Y13398500D01*
X25866973Y13423900D01*
X26301700Y13423900D01*
X26301700Y76200D01*
X76200Y76200D01*
X76200Y11643000D01*
X831722Y11643000D01*
X831722Y9643000D01*
X847662Y9558286D01*
X897728Y9480482D01*
X974120Y9428285D01*
X1064800Y9409922D01*
X2564800Y9409922D01*
X2649514Y9425862D01*
X2727318Y9475928D01*
X2779515Y9552320D01*
X2797878Y9643000D01*
X2797878Y11643000D01*
X2781938Y11727714D01*
X2731872Y11805518D01*
X2655480Y11857715D01*
X2564800Y11876078D01*
X2551400Y11876078D01*
X2551400Y11921745D01*
X2580320Y11901985D01*
X2671000Y11883622D01*
X3171000Y11883622D01*
X3255714Y11899562D01*
X3333518Y11949628D01*
X3385715Y12026020D01*
X3404078Y12116700D01*
X3404078Y12716700D01*
X3388138Y12801414D01*
X3338072Y12879218D01*
X3293170Y12909899D01*
X3358043Y12936770D01*
X3450930Y13029657D01*
X3501200Y13151019D01*
X3501200Y13284150D01*
X3418650Y13366700D01*
X3046000Y13366700D01*
X3046000Y13318900D01*
X2796000Y13318900D01*
X2796000Y13366700D01*
X2723200Y13366700D01*
X2723200Y13666700D01*
X2796000Y13666700D01*
X2796000Y14064350D01*
X3046000Y14064350D01*
X3046000Y13666700D01*
X3418650Y13666700D01*
X3501200Y13749250D01*
X3501200Y13882381D01*
X3450930Y14003743D01*
X3358043Y14096630D01*
X3236681Y14146900D01*
X3128550Y14146900D01*
X3046000Y14064350D01*
X2796000Y14064350D01*
X2713450Y14146900D01*
X2605319Y14146900D01*
X2551400Y14124566D01*
X2551400Y17865322D01*
X3161400Y17865322D01*
X3246114Y17881262D01*
X3323918Y17931328D01*
X3376115Y18007720D01*
X3394478Y18098400D01*
X3394478Y19798400D01*
X3378538Y19883114D01*
X3328472Y19960918D01*
X3252080Y20013115D01*
X3161400Y20031478D01*
X1461400Y20031478D01*
X1376686Y20015538D01*
X1298882Y19965472D01*
X1246685Y19889080D01*
X1228322Y19798400D01*
X1228322Y18874443D01*
X1134270Y18733685D01*
X1078200Y18451800D01*
X1078200Y11876078D01*
X1064800Y11876078D01*
X980086Y11860138D01*
X902282Y11810072D01*
X850085Y11733680D01*
X831722Y11643000D01*
X76200Y11643000D01*
X76200Y26568400D01*
X1211669Y26568400D01*
X1293773Y26155638D01*
X1527584Y25805715D01*
X1877507Y25571904D01*
X2290269Y25489800D01*
X2332531Y25489800D01*
X2745293Y25571904D01*
X3095216Y25805715D01*
X3329027Y26155638D01*
X3336777Y26194600D01*
X4252876Y26194600D01*
X4257328Y26187682D01*
X4333720Y26135485D01*
X4424400Y26117122D01*
X5024400Y26117122D01*
X5109114Y26133062D01*
X5186918Y26183128D01*
X5194757Y26194600D01*
X6309806Y26194600D01*
X7251700Y25252706D01*
X7251700Y18122900D01*
X7278768Y17986817D01*
X7355853Y17871453D01*
X7647953Y17579353D01*
X7763317Y17502268D01*
X7899400Y17475200D01*
X9161806Y17475200D01*
X9499600Y17137406D01*
X9499600Y15826078D01*
X9372600Y15826078D01*
X9287886Y15810138D01*
X9210082Y15760072D01*
X9157885Y15683680D01*
X9139522Y15593000D01*
X9139522Y15339000D01*
X9142796Y15321600D01*
X8231794Y15321600D01*
X6045200Y17508194D01*
X6045200Y23380700D01*
X6018132Y23516782D01*
X5941047Y23632147D01*
X5287847Y24285347D01*
X5172483Y24362432D01*
X5146518Y24367597D01*
X5127972Y24396418D01*
X5051580Y24448615D01*
X4960900Y24466978D01*
X4360900Y24466978D01*
X4276186Y24451038D01*
X4198382Y24400972D01*
X4190543Y24389500D01*
X3339303Y24389500D01*
X3329027Y24441162D01*
X3095216Y24791085D01*
X2745293Y25024896D01*
X2332531Y25107000D01*
X2290269Y25107000D01*
X1877507Y25024896D01*
X1527584Y24791085D01*
X1293773Y24441162D01*
X1211669Y24028400D01*
X1293773Y23615638D01*
X1527584Y23265715D01*
X1877507Y23031904D01*
X2290269Y22949800D01*
X2332531Y22949800D01*
X2340323Y22951350D01*
X4030700Y22951350D01*
X4030700Y22868219D01*
X4080970Y22746857D01*
X4173857Y22653970D01*
X4295219Y22603700D01*
X4428350Y22603700D01*
X4510900Y22686250D01*
X4510900Y23033900D01*
X4810900Y23033900D01*
X4810900Y22686250D01*
X4893450Y22603700D01*
X5026581Y22603700D01*
X5147943Y22653970D01*
X5240830Y22746857D01*
X5291100Y22868219D01*
X5291100Y22951350D01*
X5208550Y23033900D01*
X4810900Y23033900D01*
X4510900Y23033900D01*
X4113250Y23033900D01*
X4030700Y22951350D01*
X2340323Y22951350D01*
X2745293Y23031904D01*
X3095216Y23265715D01*
X3329027Y23615638D01*
X3341491Y23678300D01*
X4189376Y23678300D01*
X4193828Y23671382D01*
X4238730Y23640701D01*
X4173857Y23613830D01*
X4080970Y23520943D01*
X4030700Y23399581D01*
X4030700Y23316450D01*
X4113250Y23233900D01*
X4510900Y23233900D01*
X4510900Y23331700D01*
X4810900Y23331700D01*
X4810900Y23233900D01*
X5208550Y23233900D01*
X5271028Y23296378D01*
X5334000Y23233406D01*
X5334000Y17360900D01*
X5361068Y17224817D01*
X5438153Y17109453D01*
X7833053Y14714553D01*
X7948417Y14637468D01*
X8084500Y14610400D01*
X9143046Y14610400D01*
X9139522Y14593000D01*
X9139522Y14339000D01*
X9142796Y14321600D01*
X6196494Y14321600D01*
X4521200Y15996894D01*
X4521200Y20828000D01*
X4494132Y20964082D01*
X4417047Y21079447D01*
X3756647Y21739847D01*
X3641283Y21816932D01*
X3505200Y21844000D01*
X3340397Y21844000D01*
X3329027Y21901162D01*
X3095216Y22251085D01*
X2745293Y22484896D01*
X2332531Y22567000D01*
X2290269Y22567000D01*
X1877507Y22484896D01*
X1527584Y22251085D01*
X1293773Y21901162D01*
X1211669Y21488400D01*
X1293773Y21075638D01*
X1527584Y20725715D01*
X1877507Y20491904D01*
X2290269Y20409800D01*
X2332531Y20409800D01*
X2745293Y20491904D01*
X3095216Y20725715D01*
X3329027Y21075638D01*
X3340397Y21132800D01*
X3357906Y21132800D01*
X3810000Y20680706D01*
X3810000Y15849600D01*
X3837068Y15713517D01*
X3914153Y15598153D01*
X4516451Y14995855D01*
X4501003Y14973247D01*
X4481389Y14882829D01*
X4498498Y14791903D01*
X4549634Y14714798D01*
X4973898Y14290534D01*
X5045071Y14241903D01*
X5135489Y14222289D01*
X5226415Y14239398D01*
X5254369Y14257937D01*
X5797753Y13714553D01*
X5913117Y13637468D01*
X6049200Y13610400D01*
X7024000Y13610400D01*
X7024000Y13517150D01*
X7106550Y13434600D01*
X7504200Y13434600D01*
X7504200Y13507400D01*
X7804200Y13507400D01*
X7804200Y13434600D01*
X7852000Y13434600D01*
X7852000Y13184600D01*
X7804200Y13184600D01*
X7804200Y12811950D01*
X7886750Y12729400D01*
X8019881Y12729400D01*
X8028533Y12732984D01*
X7971482Y12696272D01*
X7919285Y12619880D01*
X7900922Y12529200D01*
X7900922Y12484800D01*
X6521176Y12484800D01*
X6526900Y12498619D01*
X6526900Y12606750D01*
X6444350Y12689300D01*
X6046700Y12689300D01*
X6046700Y12616500D01*
X5746700Y12616500D01*
X5746700Y12689300D01*
X5698900Y12689300D01*
X5698900Y12939300D01*
X5746700Y12939300D01*
X5746700Y13311950D01*
X6046700Y13311950D01*
X6046700Y12939300D01*
X6444350Y12939300D01*
X6526900Y13021850D01*
X6526900Y13102050D01*
X7024000Y13102050D01*
X7024000Y12993919D01*
X7074270Y12872557D01*
X7167157Y12779670D01*
X7288519Y12729400D01*
X7421650Y12729400D01*
X7504200Y12811950D01*
X7504200Y13184600D01*
X7106550Y13184600D01*
X7024000Y13102050D01*
X6526900Y13102050D01*
X6526900Y13129981D01*
X6476630Y13251343D01*
X6383743Y13344230D01*
X6262381Y13394500D01*
X6129250Y13394500D01*
X6046700Y13311950D01*
X5746700Y13311950D01*
X5664150Y13394500D01*
X5531019Y13394500D01*
X5409657Y13344230D01*
X5316770Y13251343D01*
X5289835Y13186316D01*
X5263772Y13226818D01*
X5187380Y13279015D01*
X5096700Y13297378D01*
X4496700Y13297378D01*
X4470400Y13292429D01*
X4470400Y13592117D01*
X4499093Y13585893D01*
X4590019Y13603002D01*
X4667124Y13654138D01*
X4949966Y13936980D01*
X4998597Y14008153D01*
X5018211Y14098571D01*
X5001102Y14189497D01*
X4949966Y14266602D01*
X4525702Y14690866D01*
X4454529Y14739497D01*
X4364111Y14759111D01*
X4273185Y14742002D01*
X4196080Y14690866D01*
X3913238Y14408024D01*
X3864607Y14336851D01*
X3844993Y14246433D01*
X3862102Y14155507D01*
X3881884Y14125678D01*
X3863353Y14107147D01*
X3786268Y13991783D01*
X3786268Y13991782D01*
X3759200Y13855700D01*
X3759200Y11876078D01*
X3364800Y11876078D01*
X3280086Y11860138D01*
X3202282Y11810072D01*
X3150085Y11733680D01*
X3131722Y11643000D01*
X3131722Y9643000D01*
X3147662Y9558286D01*
X3197728Y9480482D01*
X3274120Y9428285D01*
X3364800Y9409922D01*
X3378200Y9409922D01*
X3378200Y7684143D01*
X3378072Y7537624D01*
X3378200Y7537314D01*
X3378200Y5576078D01*
X2214800Y5576078D01*
X2130086Y5560138D01*
X2052282Y5510072D01*
X2000085Y5433680D01*
X1981722Y5343000D01*
X1981722Y3343000D01*
X1997662Y3258286D01*
X2047728Y3180482D01*
X2124120Y3128285D01*
X2214800Y3109922D01*
X3378200Y3109922D01*
X3378200Y2616200D01*
X3434270Y2334315D01*
X3593945Y2095345D01*
X3924145Y1765145D01*
X4163115Y1605470D01*
X4445000Y1549400D01*
X7924157Y1549400D01*
X8070676Y1549272D01*
X8341505Y1661177D01*
X8548895Y1868205D01*
X8661272Y2138838D01*
X8661273Y2140124D01*
X10998072Y2140124D01*
X11109977Y1869295D01*
X11317005Y1661905D01*
X11587638Y1549528D01*
X11880676Y1549272D01*
X11880986Y1549400D01*
X15544157Y1549400D01*
X15690676Y1549272D01*
X15961505Y1661177D01*
X16168895Y1868205D01*
X16281272Y2138838D01*
X16281528Y2431876D01*
X16169623Y2702705D01*
X15962595Y2910095D01*
X15691962Y3022472D01*
X15398924Y3022728D01*
X15398614Y3022600D01*
X11735443Y3022600D01*
X11588924Y3022728D01*
X11318095Y2910823D01*
X11110705Y2703795D01*
X10998328Y2433162D01*
X10998072Y2140124D01*
X8661273Y2140124D01*
X8661528Y2431876D01*
X8549623Y2702705D01*
X8342595Y2910095D01*
X8071962Y3022472D01*
X7778924Y3022728D01*
X7778614Y3022600D01*
X4851400Y3022600D01*
X4851400Y3109922D01*
X6014800Y3109922D01*
X6099514Y3125862D01*
X6177318Y3175928D01*
X6229515Y3252320D01*
X6247878Y3343000D01*
X6247878Y3568198D01*
X11414245Y3568198D01*
X11535862Y3391812D01*
X12047166Y3232489D01*
X12580520Y3280961D01*
X12848138Y3391812D01*
X12969755Y3568198D01*
X12192000Y4345953D01*
X11414245Y3568198D01*
X6247878Y3568198D01*
X6247878Y4742234D01*
X10827089Y4742234D01*
X10875561Y4208880D01*
X10986412Y3941262D01*
X11162798Y3819645D01*
X11940553Y4597400D01*
X12443447Y4597400D01*
X13221202Y3819645D01*
X13397588Y3941262D01*
X13451973Y4115796D01*
X17640212Y4115796D01*
X17717388Y3929017D01*
X17860166Y3785990D01*
X18046809Y3708489D01*
X18248904Y3708312D01*
X18435683Y3785488D01*
X18511126Y3860800D01*
X22801986Y3860800D01*
X22876666Y3785990D01*
X23063309Y3708489D01*
X23265404Y3708312D01*
X23452183Y3785488D01*
X23595210Y3928266D01*
X23672711Y4114909D01*
X23672888Y4317004D01*
X23595712Y4503783D01*
X23452934Y4646810D01*
X23266291Y4724311D01*
X23064196Y4724488D01*
X22877417Y4647312D01*
X22801974Y4572000D01*
X18511114Y4572000D01*
X18436434Y4646810D01*
X18249791Y4724311D01*
X18047696Y4724488D01*
X17860917Y4647312D01*
X17717890Y4504534D01*
X17640389Y4317891D01*
X17640212Y4115796D01*
X13451973Y4115796D01*
X13556911Y4452566D01*
X13508439Y4985920D01*
X13397588Y5253538D01*
X13221202Y5375155D01*
X12443447Y4597400D01*
X11940553Y4597400D01*
X11162798Y5375155D01*
X10986412Y5253538D01*
X10827089Y4742234D01*
X6247878Y4742234D01*
X6247878Y5343000D01*
X6231938Y5427714D01*
X6181872Y5505518D01*
X6105480Y5557715D01*
X6014800Y5576078D01*
X4851400Y5576078D01*
X4851400Y5626602D01*
X11414245Y5626602D01*
X12192000Y4848847D01*
X12969755Y5626602D01*
X12848138Y5802988D01*
X12336834Y5962311D01*
X11803480Y5913839D01*
X11535862Y5802988D01*
X11414245Y5626602D01*
X4851400Y5626602D01*
X4851400Y7642350D01*
X9115900Y7642350D01*
X9115900Y7337019D01*
X9166170Y7215657D01*
X9259057Y7122770D01*
X9380419Y7072500D01*
X9810750Y7072500D01*
X9893300Y7155050D01*
X9893300Y7724900D01*
X10248900Y7724900D01*
X10248900Y7155050D01*
X10331450Y7072500D01*
X10761781Y7072500D01*
X10883143Y7122770D01*
X10976030Y7215657D01*
X11026300Y7337019D01*
X11026300Y7642350D01*
X10943750Y7724900D01*
X10248900Y7724900D01*
X9893300Y7724900D01*
X9198450Y7724900D01*
X9115900Y7642350D01*
X4851400Y7642350D01*
X4851400Y7682857D01*
X4851528Y7829376D01*
X4851400Y7829686D01*
X4851400Y8468381D01*
X9115900Y8468381D01*
X9115900Y8163050D01*
X9198450Y8080500D01*
X9893300Y8080500D01*
X9893300Y8650350D01*
X10248900Y8650350D01*
X10248900Y8080500D01*
X10943750Y8080500D01*
X10993700Y8130450D01*
X12577800Y8130450D01*
X12577800Y8047319D01*
X12628070Y7925957D01*
X12720957Y7833070D01*
X12842319Y7782800D01*
X12975450Y7782800D01*
X13058000Y7865350D01*
X13058000Y8213000D01*
X13358000Y8213000D01*
X13358000Y7865350D01*
X13440550Y7782800D01*
X13573681Y7782800D01*
X13695043Y7833070D01*
X13747750Y7885777D01*
X13800457Y7833070D01*
X13921819Y7782800D01*
X14054950Y7782800D01*
X14137500Y7865350D01*
X14137500Y8213000D01*
X14437500Y8213000D01*
X14437500Y7865350D01*
X14520050Y7782800D01*
X14653181Y7782800D01*
X14774543Y7833070D01*
X14867430Y7925957D01*
X14917700Y8047319D01*
X14917700Y8130450D01*
X14835150Y8213000D01*
X14437500Y8213000D01*
X14137500Y8213000D01*
X13358000Y8213000D01*
X13058000Y8213000D01*
X12660350Y8213000D01*
X12577800Y8130450D01*
X10993700Y8130450D01*
X11026300Y8163050D01*
X11026300Y8468381D01*
X10976030Y8589743D01*
X10883143Y8682630D01*
X10761781Y8732900D01*
X10331450Y8732900D01*
X10248900Y8650350D01*
X9893300Y8650350D01*
X9810750Y8732900D01*
X9380419Y8732900D01*
X9259057Y8682630D01*
X9166170Y8589743D01*
X9115900Y8468381D01*
X4851400Y8468381D01*
X4851400Y9409922D01*
X4864800Y9409922D01*
X4949514Y9425862D01*
X5027318Y9475928D01*
X5079515Y9552320D01*
X5097878Y9643000D01*
X5097878Y10382650D01*
X5334600Y10382650D01*
X5334600Y9577319D01*
X5384870Y9455957D01*
X5477757Y9363070D01*
X5599119Y9312800D01*
X6154450Y9312800D01*
X6237000Y9395350D01*
X6237000Y10465200D01*
X6592600Y10465200D01*
X6592600Y9395350D01*
X6675150Y9312800D01*
X7230481Y9312800D01*
X7351843Y9363070D01*
X7444730Y9455957D01*
X7495000Y9577319D01*
X7495000Y10368850D01*
X7803800Y10368850D01*
X7803800Y10163519D01*
X7854070Y10042157D01*
X7946957Y9949270D01*
X8068319Y9899000D01*
X8248650Y9899000D01*
X8331200Y9981550D01*
X8331200Y10451400D01*
X7886350Y10451400D01*
X7803800Y10368850D01*
X7495000Y10368850D01*
X7495000Y10382650D01*
X7412450Y10465200D01*
X6592600Y10465200D01*
X6237000Y10465200D01*
X5417150Y10465200D01*
X5334600Y10382650D01*
X5097878Y10382650D01*
X5097878Y11643000D01*
X5081938Y11727714D01*
X5052411Y11773600D01*
X5361490Y11773600D01*
X5334600Y11708681D01*
X5334600Y10903350D01*
X5417150Y10820800D01*
X6237000Y10820800D01*
X6237000Y10840800D01*
X6592600Y10840800D01*
X6592600Y10820800D01*
X7412450Y10820800D01*
X7495000Y10903350D01*
X7495000Y11094881D01*
X7803800Y11094881D01*
X7803800Y10889550D01*
X7886350Y10807000D01*
X8331200Y10807000D01*
X8331200Y11276850D01*
X8248650Y11359400D01*
X8068319Y11359400D01*
X7946957Y11309130D01*
X7854070Y11216243D01*
X7803800Y11094881D01*
X7495000Y11094881D01*
X7495000Y11708681D01*
X7468110Y11773600D01*
X7900922Y11773600D01*
X7900922Y11729200D01*
X7916862Y11644486D01*
X7966928Y11566682D01*
X8043320Y11514485D01*
X8134000Y11496122D01*
X8397184Y11496122D01*
X8686800Y11206506D01*
X8686800Y10807000D01*
X9086306Y10807000D01*
X9307891Y10585415D01*
X9283582Y10569772D01*
X9231385Y10493380D01*
X9213022Y10402700D01*
X9213022Y10370028D01*
X9131650Y10451400D01*
X8686800Y10451400D01*
X8686800Y9981550D01*
X8769350Y9899000D01*
X8949681Y9899000D01*
X9071043Y9949270D01*
X9163930Y10042157D01*
X9213022Y10160675D01*
X9213022Y9402700D01*
X9228962Y9317986D01*
X9279028Y9240182D01*
X9355420Y9187985D01*
X9446100Y9169622D01*
X10696100Y9169622D01*
X10780814Y9185562D01*
X10858618Y9235628D01*
X10910815Y9312020D01*
X10929178Y9402700D01*
X10929178Y10259528D01*
X11125205Y10063501D01*
X11125112Y9957796D01*
X11202288Y9771017D01*
X11345066Y9627990D01*
X11531709Y9550489D01*
X11733804Y9550312D01*
X11920583Y9627488D01*
X12063610Y9770266D01*
X12141111Y9956909D01*
X12141288Y10159004D01*
X12064112Y10345783D01*
X11921334Y10488810D01*
X11771994Y10550821D01*
X11780714Y10552462D01*
X11818902Y10577036D01*
X11851320Y10554885D01*
X11942000Y10536522D01*
X12196000Y10536522D01*
X12280714Y10552462D01*
X12318902Y10577036D01*
X12351320Y10554885D01*
X12442000Y10536522D01*
X12696000Y10536522D01*
X12780714Y10552462D01*
X12818902Y10577036D01*
X12851320Y10554885D01*
X12942000Y10536522D01*
X13183228Y10536522D01*
X12956553Y10309847D01*
X12879468Y10194483D01*
X12872411Y10159004D01*
X12852400Y10058400D01*
X12852400Y9635616D01*
X12823286Y9630138D01*
X12745482Y9580072D01*
X12693285Y9503680D01*
X12674922Y9413000D01*
X12674922Y9013000D01*
X12690862Y8928286D01*
X12740928Y8850482D01*
X12785830Y8819801D01*
X12720957Y8792930D01*
X12628070Y8700043D01*
X12577800Y8578681D01*
X12577800Y8495550D01*
X12660350Y8413000D01*
X13058000Y8413000D01*
X13058000Y8510800D01*
X13358000Y8510800D01*
X13358000Y8413000D01*
X14137500Y8413000D01*
X14137500Y8510800D01*
X14437500Y8510800D01*
X14437500Y8413000D01*
X14835150Y8413000D01*
X14917700Y8495550D01*
X14917700Y8578681D01*
X14867430Y8700043D01*
X14774543Y8792930D01*
X14709516Y8819865D01*
X14750018Y8845928D01*
X14802215Y8922320D01*
X14820578Y9013000D01*
X14820578Y9413000D01*
X14804638Y9497714D01*
X14754572Y9575518D01*
X14678180Y9627715D01*
X14643100Y9634819D01*
X14643100Y9836336D01*
X15316200Y9163236D01*
X15316200Y7162800D01*
X15322203Y7133154D01*
X15339268Y7108179D01*
X15364705Y7091811D01*
X15392400Y7086600D01*
X20421600Y7086600D01*
X20451246Y7092603D01*
X20476221Y7109668D01*
X20492589Y7135105D01*
X20497800Y7162800D01*
X20497800Y8103350D01*
X23842700Y8103350D01*
X23842700Y8020219D01*
X23892970Y7898857D01*
X23985857Y7805970D01*
X24050884Y7779035D01*
X24010382Y7752972D01*
X23958185Y7676580D01*
X23939822Y7585900D01*
X23939822Y7185900D01*
X23955762Y7101186D01*
X24005828Y7023382D01*
X24082220Y6971185D01*
X24117300Y6964081D01*
X24117300Y6801714D01*
X24042490Y6727034D01*
X23964989Y6540391D01*
X23964812Y6338296D01*
X24041988Y6151517D01*
X24184766Y6008490D01*
X24371409Y5930989D01*
X24573504Y5930812D01*
X24760283Y6007988D01*
X24903310Y6150766D01*
X24980811Y6337409D01*
X24980988Y6539504D01*
X24903812Y6726283D01*
X24828500Y6801726D01*
X24828500Y6963284D01*
X24857614Y6968762D01*
X24935418Y7018828D01*
X24987615Y7095220D01*
X25005978Y7185900D01*
X25005978Y7585900D01*
X24990038Y7670614D01*
X24939972Y7748418D01*
X24895070Y7779099D01*
X24959943Y7805970D01*
X25052830Y7898857D01*
X25103100Y8020219D01*
X25103100Y8103350D01*
X25020550Y8185900D01*
X24622900Y8185900D01*
X24622900Y8088100D01*
X24322900Y8088100D01*
X24322900Y8185900D01*
X23925250Y8185900D01*
X23842700Y8103350D01*
X20497800Y8103350D01*
X20497800Y8551581D01*
X23842700Y8551581D01*
X23842700Y8468450D01*
X23925250Y8385900D01*
X24322900Y8385900D01*
X24322900Y8733550D01*
X24622900Y8733550D01*
X24622900Y8385900D01*
X25020550Y8385900D01*
X25103100Y8468450D01*
X25103100Y8551581D01*
X25052830Y8672943D01*
X24959943Y8765830D01*
X24838581Y8816100D01*
X24705450Y8816100D01*
X24622900Y8733550D01*
X24322900Y8733550D01*
X24240350Y8816100D01*
X24107219Y8816100D01*
X23985857Y8765830D01*
X23892970Y8672943D01*
X23842700Y8551581D01*
X20497800Y8551581D01*
X20497800Y11988800D01*
X20491797Y12018446D01*
X20474732Y12043421D01*
X20449295Y12059789D01*
X20421600Y12065000D01*
X18257494Y12065000D01*
X17929847Y12392647D01*
X17910829Y12405355D01*
X17944200Y12485919D01*
X17944200Y12552450D01*
X20273200Y12552450D01*
X20273200Y12419319D01*
X20323470Y12297957D01*
X20416357Y12205070D01*
X20537719Y12154800D01*
X20645850Y12154800D01*
X20728400Y12237350D01*
X20728400Y12635000D01*
X20978400Y12635000D01*
X20978400Y12237350D01*
X21060950Y12154800D01*
X21169081Y12154800D01*
X21290443Y12205070D01*
X21383330Y12297957D01*
X21433600Y12419319D01*
X21433600Y12552450D01*
X21370100Y12615950D01*
X24794400Y12615950D01*
X24794400Y12482819D01*
X24844670Y12361457D01*
X24937557Y12268570D01*
X25058919Y12218300D01*
X25167050Y12218300D01*
X25249600Y12300850D01*
X25249600Y12698500D01*
X25499600Y12698500D01*
X25499600Y12300850D01*
X25582150Y12218300D01*
X25690281Y12218300D01*
X25811643Y12268570D01*
X25904530Y12361457D01*
X25954800Y12482819D01*
X25954800Y12615950D01*
X25872250Y12698500D01*
X25499600Y12698500D01*
X25249600Y12698500D01*
X24876950Y12698500D01*
X24794400Y12615950D01*
X21370100Y12615950D01*
X21351050Y12635000D01*
X20978400Y12635000D01*
X20728400Y12635000D01*
X20355750Y12635000D01*
X20273200Y12552450D01*
X17944200Y12552450D01*
X17944200Y12594050D01*
X17861650Y12676600D01*
X17464000Y12676600D01*
X17464000Y12603800D01*
X17164000Y12603800D01*
X17164000Y12676600D01*
X17116200Y12676600D01*
X17116200Y12926600D01*
X17164000Y12926600D01*
X17164000Y13136487D01*
X17208500Y13243919D01*
X17208500Y13299250D01*
X17464000Y13299250D01*
X17464000Y12926600D01*
X17861650Y12926600D01*
X17944200Y13009150D01*
X17944200Y13117281D01*
X17893930Y13238643D01*
X17801043Y13331530D01*
X17679681Y13381800D01*
X17546550Y13381800D01*
X17464000Y13299250D01*
X17208500Y13299250D01*
X17208500Y13309600D01*
X17125950Y13392150D01*
X16795750Y13392150D01*
X16795750Y13309600D01*
X16630650Y13309600D01*
X16630650Y13392150D01*
X16300450Y13392150D01*
X16217900Y13309600D01*
X16217900Y13309596D01*
X16113396Y13309688D01*
X16112126Y13309163D01*
X16095378Y13312494D01*
X16095378Y13639800D01*
X16080514Y13718797D01*
X16095378Y13792200D01*
X16095378Y14110400D01*
X16315022Y14110400D01*
X16315022Y13873695D01*
X16268170Y13826843D01*
X16217900Y13705481D01*
X16217900Y13639800D01*
X16300450Y13557250D01*
X16630650Y13557250D01*
X16630650Y13559122D01*
X16795750Y13559122D01*
X16795750Y13557250D01*
X17125950Y13557250D01*
X17170400Y13601700D01*
X20370322Y13601700D01*
X20370322Y13585000D01*
X20386262Y13500286D01*
X20436328Y13422482D01*
X20481230Y13391801D01*
X20416357Y13364930D01*
X20323470Y13272043D01*
X20273200Y13150681D01*
X20273200Y13017550D01*
X20355750Y12935000D01*
X20728400Y12935000D01*
X20728400Y12982800D01*
X20978400Y12982800D01*
X20978400Y12935000D01*
X21351050Y12935000D01*
X21433600Y13017550D01*
X21433600Y13150681D01*
X21383330Y13272043D01*
X21290443Y13364930D01*
X21225416Y13391865D01*
X21265918Y13417928D01*
X21318115Y13494320D01*
X21325219Y13529400D01*
X21336096Y13529400D01*
X21346862Y13472186D01*
X21396928Y13394382D01*
X21473320Y13342185D01*
X21564000Y13323822D01*
X22764000Y13323822D01*
X22848714Y13339762D01*
X22926518Y13389828D01*
X22978715Y13466220D01*
X22997078Y13556900D01*
X22997078Y13671550D01*
X23133800Y13671550D01*
X23133800Y13491219D01*
X23184070Y13369857D01*
X23276957Y13276970D01*
X23398319Y13226700D01*
X23803650Y13226700D01*
X23886200Y13309250D01*
X23886200Y13754100D01*
X23216350Y13754100D01*
X23133800Y13671550D01*
X22997078Y13671550D01*
X22997078Y14306900D01*
X22984720Y14372581D01*
X23133800Y14372581D01*
X23133800Y14192250D01*
X23216350Y14109700D01*
X23886200Y14109700D01*
X23886200Y14554550D01*
X23803650Y14637100D01*
X23398319Y14637100D01*
X23276957Y14586830D01*
X23184070Y14493943D01*
X23133800Y14372581D01*
X22984720Y14372581D01*
X22981138Y14391614D01*
X22931072Y14469418D01*
X22854680Y14521615D01*
X22764000Y14539978D01*
X21564000Y14539978D01*
X21479286Y14524038D01*
X21401482Y14473972D01*
X21349285Y14397580D01*
X21330922Y14306900D01*
X21330922Y14240600D01*
X21326016Y14240600D01*
X21320538Y14269714D01*
X21270472Y14347518D01*
X21194080Y14399715D01*
X21103400Y14418078D01*
X20603400Y14418078D01*
X20518686Y14402138D01*
X20440882Y14352072D01*
X20414117Y14312900D01*
X19387794Y14312900D01*
X21064194Y15989300D01*
X24765000Y15989300D01*
X24794646Y15995303D01*
X24819621Y16012368D01*
X24835989Y16037805D01*
X24841200Y16065500D01*
X24841200Y19846335D01*
X25374600Y19846335D01*
X25374600Y18456865D01*
X25457739Y18038898D01*
X25694498Y17684563D01*
X26048833Y17447804D01*
X26466800Y17364665D01*
X26884767Y17447804D01*
X27239102Y17684563D01*
X27475861Y18038898D01*
X27559000Y18456865D01*
X27559000Y19846335D01*
X30454600Y19846335D01*
X30454600Y18456865D01*
X30537739Y18038898D01*
X30774498Y17684563D01*
X31128833Y17447804D01*
X31546800Y17364665D01*
X31964767Y17447804D01*
X32319102Y17684563D01*
X32555861Y18038898D01*
X32639000Y18456865D01*
X32639000Y19846335D01*
X32555861Y20264302D01*
X32319102Y20618637D01*
X31964767Y20855396D01*
X31546800Y20938535D01*
X31128833Y20855396D01*
X30774498Y20618637D01*
X30537739Y20264302D01*
X30454600Y19846335D01*
X27559000Y19846335D01*
X27475861Y20264302D01*
X27239102Y20618637D01*
X26884767Y20855396D01*
X26466800Y20938535D01*
X26048833Y20855396D01*
X25694498Y20618637D01*
X25457739Y20264302D01*
X25374600Y19846335D01*
X24841200Y19846335D01*
X24841200Y23431500D01*
X24835197Y23461146D01*
X24818132Y23486121D01*
X24792695Y23502489D01*
X24765000Y23507700D01*
X19304000Y23507700D01*
X19274354Y23501697D01*
X19249379Y23484632D01*
X19233011Y23459195D01*
X19227800Y23431500D01*
X19227800Y19615677D01*
X19118381Y19661000D01*
X18688050Y19661000D01*
X18605500Y19578450D01*
X18605500Y19008600D01*
X18625500Y19008600D01*
X18625500Y18653000D01*
X18605500Y18653000D01*
X18605500Y18083150D01*
X18688050Y18000600D01*
X19118381Y18000600D01*
X19227800Y18045923D01*
X19227800Y17480842D01*
X19219772Y17493318D01*
X19143380Y17545515D01*
X19052700Y17563878D01*
X17802700Y17563878D01*
X17717986Y17547938D01*
X17640182Y17497872D01*
X17587985Y17421480D01*
X17569622Y17330800D01*
X17569622Y17186400D01*
X17434373Y17186400D01*
X17432338Y17197214D01*
X17382272Y17275018D01*
X17305880Y17327215D01*
X17215200Y17345578D01*
X16465200Y17345578D01*
X16380486Y17329638D01*
X16302682Y17279572D01*
X16250485Y17203180D01*
X16232122Y17112500D01*
X16232122Y16607316D01*
X15925717Y16300911D01*
X15925888Y16496304D01*
X15848712Y16683083D01*
X15802833Y16729042D01*
X15989300Y16729042D01*
X16074014Y16744982D01*
X16151818Y16795048D01*
X16204015Y16871440D01*
X16222378Y16962120D01*
X16222378Y17588349D01*
X16278157Y17532570D01*
X16399519Y17482300D01*
X16579850Y17482300D01*
X16662400Y17564850D01*
X16662400Y18034700D01*
X16217550Y18034700D01*
X16213458Y18030608D01*
X16206438Y18067914D01*
X16156372Y18145718D01*
X16079980Y18197915D01*
X15989300Y18216278D01*
X13449300Y18216278D01*
X13424600Y18211630D01*
X13424600Y18678181D01*
X16135000Y18678181D01*
X16135000Y18472850D01*
X16217550Y18390300D01*
X16662400Y18390300D01*
X16662400Y18860150D01*
X17018000Y18860150D01*
X17018000Y18390300D01*
X17038000Y18390300D01*
X17038000Y18034700D01*
X17018000Y18034700D01*
X17018000Y17564850D01*
X17100550Y17482300D01*
X17280881Y17482300D01*
X17402243Y17532570D01*
X17495130Y17625457D01*
X17545400Y17746819D01*
X17545400Y17952150D01*
X17462852Y18034698D01*
X17545400Y18034698D01*
X17545400Y18121127D01*
X17615657Y18050870D01*
X17737019Y18000600D01*
X18167350Y18000600D01*
X18249900Y18083150D01*
X18249900Y18653000D01*
X17555050Y18653000D01*
X17545400Y18643350D01*
X17545400Y18678181D01*
X17495130Y18799543D01*
X17402243Y18892430D01*
X17280881Y18942700D01*
X17100550Y18942700D01*
X17018000Y18860150D01*
X16662400Y18860150D01*
X16579850Y18942700D01*
X16399519Y18942700D01*
X16278157Y18892430D01*
X16185270Y18799543D01*
X16135000Y18678181D01*
X13424600Y18678181D01*
X13424600Y18799200D01*
X13413471Y18855150D01*
X13397532Y18935283D01*
X13338578Y19023512D01*
X13338578Y19052179D01*
X13358620Y19038485D01*
X13449300Y19020122D01*
X15989300Y19020122D01*
X16074014Y19036062D01*
X16151818Y19086128D01*
X16204015Y19162520D01*
X16222378Y19253200D01*
X16222378Y19396481D01*
X17472500Y19396481D01*
X17472500Y19091150D01*
X17555050Y19008600D01*
X18249900Y19008600D01*
X18249900Y19578450D01*
X18167350Y19661000D01*
X17737019Y19661000D01*
X17615657Y19610730D01*
X17522770Y19517843D01*
X17472500Y19396481D01*
X16222378Y19396481D01*
X16222378Y20274280D01*
X16206438Y20358994D01*
X16156372Y20436798D01*
X16079980Y20488995D01*
X15989300Y20507358D01*
X13449300Y20507358D01*
X13364586Y20491418D01*
X13286782Y20441352D01*
X13274946Y20424029D01*
X13272572Y20427718D01*
X13196180Y20479915D01*
X13105500Y20498278D01*
X12505500Y20498278D01*
X12420786Y20482338D01*
X12342982Y20432272D01*
X12312301Y20387370D01*
X12285430Y20452243D01*
X12192543Y20545130D01*
X12071181Y20595400D01*
X11938050Y20595400D01*
X11855500Y20512850D01*
X11855500Y20140200D01*
X11903300Y20140200D01*
X11903300Y19890200D01*
X11855500Y19890200D01*
X11855500Y19187700D01*
X11903300Y19187700D01*
X11903300Y18937700D01*
X11855500Y18937700D01*
X11855500Y18864900D01*
X11555500Y18864900D01*
X11555500Y18937700D01*
X11507700Y18937700D01*
X11507700Y19187700D01*
X11555500Y19187700D01*
X11555500Y19890200D01*
X11507700Y19890200D01*
X11507700Y20140200D01*
X11555500Y20140200D01*
X11555500Y20512850D01*
X11472950Y20595400D01*
X11339819Y20595400D01*
X11218457Y20545130D01*
X11208100Y20534773D01*
X11208100Y20549302D01*
X11125552Y20549302D01*
X11208100Y20631850D01*
X11208100Y20837181D01*
X11157830Y20958543D01*
X11064943Y21051430D01*
X10943581Y21101700D01*
X10763250Y21101700D01*
X10680700Y21019150D01*
X10680700Y20549300D01*
X10700700Y20549300D01*
X10700700Y20193700D01*
X10680700Y20193700D01*
X10680700Y19723850D01*
X10763250Y19641300D01*
X10943581Y19641300D01*
X11064943Y19691570D01*
X11075300Y19701927D01*
X11075300Y19699519D01*
X11125570Y19578157D01*
X11164777Y19538950D01*
X11125570Y19499743D01*
X11077444Y19383556D01*
X11044972Y19434018D01*
X10968580Y19486215D01*
X10877900Y19504578D01*
X10127900Y19504578D01*
X10043186Y19488638D01*
X9965382Y19438572D01*
X9913185Y19362180D01*
X9894822Y19271500D01*
X9894822Y19227100D01*
X9773478Y19227100D01*
X9773478Y19477100D01*
X9757538Y19561814D01*
X9707472Y19639618D01*
X9631080Y19691815D01*
X9540400Y19710178D01*
X8290400Y19710178D01*
X8205686Y19694238D01*
X8127882Y19644172D01*
X8075685Y19567780D01*
X8057322Y19477100D01*
X8057322Y18477100D01*
X8073262Y18392386D01*
X8123328Y18314582D01*
X8199720Y18262385D01*
X8290400Y18244022D01*
X9540400Y18244022D01*
X9625114Y18259962D01*
X9702918Y18310028D01*
X9755115Y18386420D01*
X9773478Y18477100D01*
X9773478Y18515900D01*
X9894822Y18515900D01*
X9894822Y18471500D01*
X9910762Y18386786D01*
X9960828Y18308982D01*
X10037220Y18256785D01*
X10127900Y18238422D01*
X10588149Y18238422D01*
X10554070Y18204343D01*
X10503800Y18082981D01*
X10503800Y17974850D01*
X10586350Y17892300D01*
X10984000Y17892300D01*
X10984000Y17965100D01*
X11284000Y17965100D01*
X11284000Y17892300D01*
X11331800Y17892300D01*
X11331800Y17642300D01*
X11284000Y17642300D01*
X11284000Y17569500D01*
X10984000Y17569500D01*
X10984000Y17642300D01*
X10586350Y17642300D01*
X10503800Y17559750D01*
X10503800Y17451619D01*
X10554070Y17330257D01*
X10646957Y17237370D01*
X10768319Y17187100D01*
X10901450Y17187100D01*
X10956198Y17241848D01*
X10956198Y17187100D01*
X11132051Y17187100D01*
X11061789Y17017891D01*
X11061612Y16815796D01*
X11112500Y16692638D01*
X11112500Y16433800D01*
X11176000Y16433800D01*
X11176000Y16078200D01*
X11112500Y16078200D01*
X11112500Y16058200D01*
X10985500Y16058200D01*
X10985500Y16078200D01*
X10929078Y16078200D01*
X10929078Y16433800D01*
X10985500Y16433800D01*
X10985500Y16910050D01*
X10902950Y16992600D01*
X10856319Y16992600D01*
X10734957Y16942330D01*
X10688105Y16895478D01*
X10442000Y16895478D01*
X10357286Y16879538D01*
X10279482Y16829472D01*
X10227285Y16753080D01*
X10210800Y16671674D01*
X10210800Y17284700D01*
X10207243Y17302585D01*
X10183732Y17420783D01*
X10106647Y17536147D01*
X9560547Y18082247D01*
X9445183Y18159332D01*
X9309100Y18186400D01*
X8046694Y18186400D01*
X7962900Y18270194D01*
X7962900Y20404901D01*
X8010470Y20290057D01*
X8103357Y20197170D01*
X8224719Y20146900D01*
X8655050Y20146900D01*
X8737600Y20229450D01*
X8737600Y20799300D01*
X8717600Y20799300D01*
X8717600Y21154900D01*
X8737600Y21154900D01*
X8737600Y21724750D01*
X9093200Y21724750D01*
X9093200Y21154900D01*
X9113200Y21154900D01*
X9113200Y20799300D01*
X9093200Y20799300D01*
X9093200Y20229450D01*
X9175750Y20146900D01*
X9606081Y20146900D01*
X9727443Y20197170D01*
X9797700Y20267427D01*
X9797700Y20193698D01*
X9880248Y20193698D01*
X9797700Y20111150D01*
X9797700Y19905819D01*
X9847970Y19784457D01*
X9940857Y19691570D01*
X10062219Y19641300D01*
X10242550Y19641300D01*
X10325100Y19723850D01*
X10325100Y20193700D01*
X10305100Y20193700D01*
X10305100Y20549300D01*
X10325100Y20549300D01*
X10325100Y21019150D01*
X10242550Y21101700D01*
X10062219Y21101700D01*
X9940857Y21051430D01*
X9870600Y20981173D01*
X9870600Y21154902D01*
X9788052Y21154902D01*
X9870600Y21237450D01*
X9870600Y21542781D01*
X9820330Y21664143D01*
X9727443Y21757030D01*
X9606081Y21807300D01*
X9175750Y21807300D01*
X9093200Y21724750D01*
X8737600Y21724750D01*
X8655050Y21807300D01*
X8224719Y21807300D01*
X8103357Y21757030D01*
X8010470Y21664143D01*
X7962900Y21549299D01*
X7962900Y25400000D01*
X7935832Y25536082D01*
X7858747Y25651447D01*
X6708547Y26801647D01*
X6593183Y26878732D01*
X6457100Y26905800D01*
X5195924Y26905800D01*
X5191472Y26912718D01*
X5146570Y26943399D01*
X5211443Y26970270D01*
X5304330Y27063157D01*
X5354600Y27184519D01*
X5354600Y27267650D01*
X5272050Y27350200D01*
X4874400Y27350200D01*
X4874400Y27252400D01*
X4574400Y27252400D01*
X4574400Y27350200D01*
X4176750Y27350200D01*
X4094200Y27267650D01*
X4094200Y27184519D01*
X4144470Y27063157D01*
X4237357Y26970270D01*
X4302384Y26943335D01*
X4261882Y26917272D01*
X4254043Y26905800D01*
X3344018Y26905800D01*
X3329027Y26981162D01*
X3095216Y27331085D01*
X2745293Y27564896D01*
X2332531Y27647000D01*
X2290269Y27647000D01*
X1877507Y27564896D01*
X1527584Y27331085D01*
X1293773Y26981162D01*
X1211669Y26568400D01*
X76200Y26568400D01*
X76200Y27715881D01*
X4094200Y27715881D01*
X4094200Y27632750D01*
X4176750Y27550200D01*
X4574400Y27550200D01*
X4574400Y27897850D01*
X4874400Y27897850D01*
X4874400Y27550200D01*
X5272050Y27550200D01*
X5354600Y27632750D01*
X5354600Y27715881D01*
X5304330Y27837243D01*
X5211443Y27930130D01*
X5090081Y27980400D01*
X4956950Y27980400D01*
X4874400Y27897850D01*
X4574400Y27897850D01*
X4491850Y27980400D01*
X4358719Y27980400D01*
X4237357Y27930130D01*
X4144470Y27837243D01*
X4094200Y27715881D01*
X76200Y27715881D01*
X76200Y28750272D01*
X1186848Y28750272D01*
X1262974Y28566447D01*
X1550177Y28206485D01*
X1953270Y27983832D01*
X2133600Y28024203D01*
X2133600Y28930600D01*
X2489200Y28930600D01*
X2489200Y28024203D01*
X2669530Y27983832D01*
X3072623Y28206485D01*
X3359826Y28566447D01*
X3435952Y28750272D01*
X3394554Y28930600D01*
X2489200Y28930600D01*
X2133600Y28930600D01*
X1228246Y28930600D01*
X1186848Y28750272D01*
X76200Y28750272D01*
X76200Y29070300D01*
X9156700Y29070300D01*
X9212770Y28788415D01*
X9372445Y28549445D01*
X9611415Y28389770D01*
X9893300Y28333700D01*
X13703300Y28333700D01*
X13985185Y28389770D01*
X14224155Y28549445D01*
X14383830Y28788415D01*
X14439900Y29070300D01*
X16776700Y29070300D01*
X16778050Y29063515D01*
X16776825Y29056704D01*
X16929094Y20808863D01*
X16928972Y20669424D01*
X17040877Y20398595D01*
X17247905Y20191205D01*
X17518538Y20078828D01*
X17811576Y20078572D01*
X18082405Y20190477D01*
X18289795Y20397505D01*
X18402172Y20668138D01*
X18402428Y20961176D01*
X18399607Y20968004D01*
X18314614Y25571800D01*
X27172922Y25571800D01*
X27172922Y24821800D01*
X27188862Y24737086D01*
X27238928Y24659282D01*
X27315320Y24607085D01*
X27406000Y24588722D01*
X28606000Y24588722D01*
X28690714Y24604662D01*
X28768518Y24654728D01*
X28820715Y24731120D01*
X28839078Y24821800D01*
X28839078Y25571800D01*
X29072922Y25571800D01*
X29072922Y24821800D01*
X29088862Y24737086D01*
X29138928Y24659282D01*
X29215320Y24607085D01*
X29306000Y24588722D01*
X30506000Y24588722D01*
X30590714Y24604662D01*
X30668518Y24654728D01*
X30720715Y24731120D01*
X30739078Y24821800D01*
X30739078Y25571800D01*
X30723138Y25656514D01*
X30673072Y25734318D01*
X30596680Y25786515D01*
X30506000Y25804878D01*
X29306000Y25804878D01*
X29221286Y25788938D01*
X29143482Y25738872D01*
X29091285Y25662480D01*
X29072922Y25571800D01*
X28839078Y25571800D01*
X28823138Y25656514D01*
X28773072Y25734318D01*
X28696680Y25786515D01*
X28606000Y25804878D01*
X27406000Y25804878D01*
X27321286Y25788938D01*
X27243482Y25738872D01*
X27191285Y25662480D01*
X27172922Y25571800D01*
X18314614Y25571800D01*
X18263625Y28333700D01*
X23570890Y28333700D01*
X25272845Y26631745D01*
X25511815Y26472070D01*
X25793700Y26416000D01*
X28955357Y26416000D01*
X29101876Y26415872D01*
X29372705Y26527777D01*
X29580095Y26734805D01*
X29692472Y27005438D01*
X29692728Y27298476D01*
X29580823Y27569305D01*
X29373795Y27776695D01*
X29103162Y27889072D01*
X28810124Y27889328D01*
X28809814Y27889200D01*
X26098810Y27889200D01*
X25397860Y28590150D01*
X25836600Y28590150D01*
X25836600Y28507019D01*
X25886870Y28385657D01*
X25979757Y28292770D01*
X26101119Y28242500D01*
X26234250Y28242500D01*
X26316800Y28325050D01*
X26316800Y28672700D01*
X25919150Y28672700D01*
X25836600Y28590150D01*
X25397860Y28590150D01*
X24396855Y29591155D01*
X24157885Y29750830D01*
X23876000Y29806900D01*
X17513300Y29806900D01*
X17506515Y29805550D01*
X17499704Y29806775D01*
X17365808Y29777562D01*
X17231415Y29750830D01*
X17225662Y29746986D01*
X17218902Y29745511D01*
X17106397Y29667295D01*
X16992445Y29591155D01*
X16988600Y29585401D01*
X16982920Y29581452D01*
X16908916Y29466145D01*
X16832770Y29352185D01*
X16831420Y29345398D01*
X16827683Y29339575D01*
X16803433Y29204695D01*
X16776700Y29070300D01*
X14439900Y29070300D01*
X14383830Y29352185D01*
X14224155Y29591155D01*
X13985185Y29750830D01*
X13703300Y29806900D01*
X9893300Y29806900D01*
X9611415Y29750830D01*
X9372445Y29591155D01*
X9212770Y29352185D01*
X9156700Y29070300D01*
X76200Y29070300D01*
X76200Y29466528D01*
X1186848Y29466528D01*
X1228246Y29286200D01*
X2133600Y29286200D01*
X2133600Y30192597D01*
X2489200Y30192597D01*
X2489200Y29286200D01*
X3394554Y29286200D01*
X3435952Y29466528D01*
X3359826Y29650353D01*
X3072623Y30010315D01*
X2669530Y30232968D01*
X2489200Y30192597D01*
X2133600Y30192597D01*
X1953270Y30232968D01*
X1550177Y30010315D01*
X1262974Y29650353D01*
X1186848Y29466528D01*
X76200Y29466528D01*
X76200Y31648400D01*
X1211669Y31648400D01*
X1293773Y31235638D01*
X1527584Y30885715D01*
X1877507Y30651904D01*
X2290269Y30569800D01*
X2332531Y30569800D01*
X2745293Y30651904D01*
X3095216Y30885715D01*
X3329027Y31235638D01*
X3336840Y31274920D01*
X9677185Y31274920D01*
X9866264Y30817312D01*
X10216070Y30466895D01*
X10673348Y30277017D01*
X11168480Y30276585D01*
X11626088Y30465664D01*
X11976505Y30815470D01*
X12166383Y31272748D01*
X12166384Y31274920D01*
X12217185Y31274920D01*
X12406264Y30817312D01*
X12756070Y30466895D01*
X13213348Y30277017D01*
X13708480Y30276585D01*
X14166088Y30465664D01*
X14516505Y30815470D01*
X14706383Y31272748D01*
X14706815Y31767880D01*
X14517736Y32225488D01*
X14197449Y32546335D01*
X25374600Y32546335D01*
X25374600Y31156865D01*
X25457739Y30738898D01*
X25694498Y30384563D01*
X26048833Y30147804D01*
X26111200Y30135398D01*
X26111200Y30095316D01*
X26082086Y30089838D01*
X26004282Y30039772D01*
X25952085Y29963380D01*
X25933722Y29872700D01*
X25933722Y29472700D01*
X25949662Y29387986D01*
X25999728Y29310182D01*
X26044630Y29279501D01*
X25979757Y29252630D01*
X25886870Y29159743D01*
X25836600Y29038381D01*
X25836600Y28955250D01*
X25919150Y28872700D01*
X26316800Y28872700D01*
X26316800Y28970500D01*
X26616800Y28970500D01*
X26616800Y28872700D01*
X26664600Y28872700D01*
X26664600Y28672700D01*
X26616800Y28672700D01*
X26616800Y28325050D01*
X26699350Y28242500D01*
X26832481Y28242500D01*
X26953843Y28292770D01*
X27046730Y28385657D01*
X27060664Y28419295D01*
X27066528Y28410182D01*
X27142920Y28357985D01*
X27233600Y28339622D01*
X27833600Y28339622D01*
X27918314Y28355562D01*
X27996118Y28405628D01*
X28003957Y28417100D01*
X34364477Y28417100D01*
X34433666Y28347790D01*
X34620309Y28270289D01*
X34822404Y28270112D01*
X35009183Y28347288D01*
X35152210Y28490066D01*
X35229711Y28676709D01*
X35229888Y28878804D01*
X35152712Y29065583D01*
X35009934Y29208610D01*
X34823291Y29286111D01*
X34621196Y29286288D01*
X34434417Y29209112D01*
X34353464Y29128300D01*
X28005124Y29128300D01*
X28000672Y29135218D01*
X27924280Y29187415D01*
X27833600Y29205778D01*
X27233600Y29205778D01*
X27148886Y29189838D01*
X27071082Y29139772D01*
X27061071Y29125121D01*
X27046730Y29159743D01*
X26953843Y29252630D01*
X26888816Y29279565D01*
X26929318Y29305628D01*
X26937157Y29317100D01*
X27062076Y29317100D01*
X27066528Y29310182D01*
X27142920Y29257985D01*
X27233600Y29239622D01*
X27833600Y29239622D01*
X27918314Y29255562D01*
X27996118Y29305628D01*
X28048315Y29382020D01*
X28066678Y29472700D01*
X28066678Y29872700D01*
X28050738Y29957414D01*
X28000672Y30035218D01*
X27924280Y30087415D01*
X27833600Y30105778D01*
X27233600Y30105778D01*
X27148886Y30089838D01*
X27071082Y30039772D01*
X27063243Y30028300D01*
X26938324Y30028300D01*
X26933872Y30035218D01*
X26857480Y30087415D01*
X26822400Y30094519D01*
X26822400Y30135398D01*
X26884767Y30147804D01*
X27239102Y30384563D01*
X27475861Y30738898D01*
X27559000Y31156865D01*
X27559000Y32546335D01*
X30454600Y32546335D01*
X30454600Y31156865D01*
X30537739Y30738898D01*
X30774498Y30384563D01*
X31128833Y30147804D01*
X31546800Y30064665D01*
X31964767Y30147804D01*
X32319102Y30384563D01*
X32555861Y30738898D01*
X32639000Y31156865D01*
X32639000Y32546335D01*
X32555861Y32964302D01*
X32319102Y33318637D01*
X31964767Y33555396D01*
X31546800Y33638535D01*
X31128833Y33555396D01*
X30774498Y33318637D01*
X30537739Y32964302D01*
X30454600Y32546335D01*
X27559000Y32546335D01*
X27475861Y32964302D01*
X27239102Y33318637D01*
X26884767Y33555396D01*
X26466800Y33638535D01*
X26048833Y33555396D01*
X25694498Y33318637D01*
X25457739Y32964302D01*
X25374600Y32546335D01*
X14197449Y32546335D01*
X14167930Y32575905D01*
X13710652Y32765783D01*
X13215520Y32766215D01*
X12757912Y32577136D01*
X12407495Y32227330D01*
X12217617Y31770052D01*
X12217185Y31274920D01*
X12166384Y31274920D01*
X12166815Y31767880D01*
X11977736Y32225488D01*
X11627930Y32575905D01*
X11170652Y32765783D01*
X10675520Y32766215D01*
X10217912Y32577136D01*
X9867495Y32227330D01*
X9677617Y31770052D01*
X9677185Y31274920D01*
X3336840Y31274920D01*
X3411131Y31648400D01*
X3329027Y32061162D01*
X3095216Y32411085D01*
X2745293Y32644896D01*
X2332531Y32727000D01*
X2290269Y32727000D01*
X1877507Y32644896D01*
X1527584Y32411085D01*
X1293773Y32061162D01*
X1211669Y31648400D01*
X76200Y31648400D01*
X76200Y33705800D01*
X38277800Y33705800D01*
X38277800Y17068800D01*
X38277800Y17068800D01*
G37*
X38277800Y17068800D02*
X25742900Y17068800D01*
X25713254Y17062797D01*
X25688279Y17045732D01*
X25671911Y17020295D01*
X25666700Y16992600D01*
X25666700Y16141700D01*
X25672703Y16112054D01*
X25689768Y16087079D01*
X25715205Y16070711D01*
X25742900Y16065500D01*
X25882600Y16065500D01*
X25912246Y16071503D01*
X25937221Y16088568D01*
X25953589Y16114005D01*
X25958800Y16141700D01*
X25958800Y16421100D01*
X31203900Y16421100D01*
X31203900Y11569700D01*
X28638500Y11569700D01*
X28608854Y11563697D01*
X28583879Y11546632D01*
X28567511Y11521195D01*
X28562300Y11493500D01*
X28562300Y9499600D01*
X28568303Y9469954D01*
X28585368Y9444979D01*
X28610805Y9428611D01*
X28638500Y9423400D01*
X31203900Y9423400D01*
X31203900Y6883400D01*
X28638500Y6883400D01*
X28608854Y6877397D01*
X28583879Y6860332D01*
X28567511Y6834895D01*
X28562300Y6807200D01*
X28562300Y4813300D01*
X28568303Y4783654D01*
X28585368Y4758679D01*
X28610805Y4742311D01*
X28638500Y4737100D01*
X31203900Y4737100D01*
X31203900Y2159000D01*
X26924000Y2159000D01*
X26924000Y2501900D01*
X30784800Y2501900D01*
X30814446Y2507903D01*
X30839421Y2524968D01*
X30855789Y2550405D01*
X30861000Y2578100D01*
X30861000Y4318000D01*
X30854997Y4347646D01*
X30837932Y4372621D01*
X30812495Y4388989D01*
X30784800Y4394200D01*
X28219400Y4394200D01*
X28219400Y7226300D01*
X30784800Y7226300D01*
X30814446Y7232303D01*
X30839421Y7249368D01*
X30855789Y7274805D01*
X30861000Y7302500D01*
X30861000Y9004300D01*
X30854997Y9033946D01*
X30837932Y9058921D01*
X30812495Y9075289D01*
X30784800Y9080500D01*
X28219400Y9080500D01*
X28219400Y11912600D01*
X30784800Y11912600D01*
X30814446Y11918603D01*
X30839421Y11935668D01*
X30855789Y11961105D01*
X30861000Y11988800D01*
X30861000Y13690600D01*
X30854997Y13720246D01*
X30837932Y13745221D01*
X30812495Y13761589D01*
X30784800Y13766800D01*
X26263600Y13766800D01*
X26255366Y13766354D01*
X25938805Y13731945D01*
X25872250Y13798500D01*
X25499600Y13798500D01*
X25499600Y13703300D01*
X25249600Y13703300D01*
X25249600Y13798500D01*
X25196800Y13798500D01*
X25196800Y14098500D01*
X25249600Y14098500D01*
X25249600Y14185900D01*
X25499600Y14185900D01*
X25499600Y14098500D01*
X25872250Y14098500D01*
X25933966Y14160216D01*
X26254799Y14122910D01*
X26263600Y14122400D01*
X30784800Y14122400D01*
X30814446Y14128403D01*
X30839421Y14145468D01*
X30855789Y14170905D01*
X30861000Y14198600D01*
X30861000Y15595600D01*
X30854997Y15625246D01*
X30837932Y15650221D01*
X30812495Y15666589D01*
X30784800Y15671800D01*
X25958800Y15671800D01*
X25958800Y15963900D01*
X25952797Y15993546D01*
X25935732Y16018521D01*
X25910295Y16034889D01*
X25882600Y16040100D01*
X25742900Y16040100D01*
X25713254Y16034097D01*
X25688279Y16017032D01*
X25671911Y15991595D01*
X25666700Y15963900D01*
X25666700Y15455900D01*
X25672703Y15426254D01*
X25689768Y15401279D01*
X25715205Y15384911D01*
X25742900Y15379700D01*
X26301700Y15379700D01*
X26301700Y14490700D01*
X25849373Y14490700D01*
X25811643Y14528430D01*
X25690281Y14578700D01*
X25582150Y14578700D01*
X25499600Y14496150D01*
X25499600Y14490700D01*
X25249600Y14490700D01*
X25249600Y14496150D01*
X25167050Y14578700D01*
X25058919Y14578700D01*
X24937557Y14528430D01*
X24923500Y14514373D01*
X24851043Y14586830D01*
X24729681Y14637100D01*
X24324350Y14637100D01*
X24241800Y14554550D01*
X24241800Y14109700D01*
X24261800Y14109700D01*
X24261800Y13754100D01*
X24241800Y13754100D01*
X24241800Y13309250D01*
X24324350Y13226700D01*
X24729681Y13226700D01*
X24814063Y13261652D01*
X24794400Y13214181D01*
X24794400Y13081050D01*
X24876950Y12998500D01*
X25249600Y12998500D01*
X25249600Y13046300D01*
X25499600Y13046300D01*
X25499600Y12998500D01*
X25872250Y12998500D01*
X25954800Y13081050D01*
X25954800Y13214181D01*
X25904530Y13335543D01*
X25841573Y13398500D01*
X25866973Y13423900D01*
X26301700Y13423900D01*
X26301700Y76200D01*
X76200Y76200D01*
X76200Y11643000D01*
X831722Y11643000D01*
X831722Y9643000D01*
X847662Y9558286D01*
X897728Y9480482D01*
X974120Y9428285D01*
X1064800Y9409922D01*
X2564800Y9409922D01*
X2649514Y9425862D01*
X2727318Y9475928D01*
X2779515Y9552320D01*
X2797878Y9643000D01*
X2797878Y11643000D01*
X2781938Y11727714D01*
X2731872Y11805518D01*
X2655480Y11857715D01*
X2564800Y11876078D01*
X2551400Y11876078D01*
X2551400Y11921745D01*
X2580320Y11901985D01*
X2671000Y11883622D01*
X3171000Y11883622D01*
X3255714Y11899562D01*
X3333518Y11949628D01*
X3385715Y12026020D01*
X3404078Y12116700D01*
X3404078Y12716700D01*
X3388138Y12801414D01*
X3338072Y12879218D01*
X3293170Y12909899D01*
X3358043Y12936770D01*
X3450930Y13029657D01*
X3501200Y13151019D01*
X3501200Y13284150D01*
X3418650Y13366700D01*
X3046000Y13366700D01*
X3046000Y13318900D01*
X2796000Y13318900D01*
X2796000Y13366700D01*
X2723200Y13366700D01*
X2723200Y13666700D01*
X2796000Y13666700D01*
X2796000Y14064350D01*
X3046000Y14064350D01*
X3046000Y13666700D01*
X3418650Y13666700D01*
X3501200Y13749250D01*
X3501200Y13882381D01*
X3450930Y14003743D01*
X3358043Y14096630D01*
X3236681Y14146900D01*
X3128550Y14146900D01*
X3046000Y14064350D01*
X2796000Y14064350D01*
X2713450Y14146900D01*
X2605319Y14146900D01*
X2551400Y14124566D01*
X2551400Y17865322D01*
X3161400Y17865322D01*
X3246114Y17881262D01*
X3323918Y17931328D01*
X3376115Y18007720D01*
X3394478Y18098400D01*
X3394478Y19798400D01*
X3378538Y19883114D01*
X3328472Y19960918D01*
X3252080Y20013115D01*
X3161400Y20031478D01*
X1461400Y20031478D01*
X1376686Y20015538D01*
X1298882Y19965472D01*
X1246685Y19889080D01*
X1228322Y19798400D01*
X1228322Y18874443D01*
X1134270Y18733685D01*
X1078200Y18451800D01*
X1078200Y11876078D01*
X1064800Y11876078D01*
X980086Y11860138D01*
X902282Y11810072D01*
X850085Y11733680D01*
X831722Y11643000D01*
X76200Y11643000D01*
X76200Y26568400D01*
X1211669Y26568400D01*
X1293773Y26155638D01*
X1527584Y25805715D01*
X1877507Y25571904D01*
X2290269Y25489800D01*
X2332531Y25489800D01*
X2745293Y25571904D01*
X3095216Y25805715D01*
X3329027Y26155638D01*
X3336777Y26194600D01*
X4252876Y26194600D01*
X4257328Y26187682D01*
X4333720Y26135485D01*
X4424400Y26117122D01*
X5024400Y26117122D01*
X5109114Y26133062D01*
X5186918Y26183128D01*
X5194757Y26194600D01*
X6309806Y26194600D01*
X7251700Y25252706D01*
X7251700Y18122900D01*
X7278768Y17986817D01*
X7355853Y17871453D01*
X7647953Y17579353D01*
X7763317Y17502268D01*
X7899400Y17475200D01*
X9161806Y17475200D01*
X9499600Y17137406D01*
X9499600Y15826078D01*
X9372600Y15826078D01*
X9287886Y15810138D01*
X9210082Y15760072D01*
X9157885Y15683680D01*
X9139522Y15593000D01*
X9139522Y15339000D01*
X9142796Y15321600D01*
X8231794Y15321600D01*
X6045200Y17508194D01*
X6045200Y23380700D01*
X6018132Y23516782D01*
X5941047Y23632147D01*
X5287847Y24285347D01*
X5172483Y24362432D01*
X5146518Y24367597D01*
X5127972Y24396418D01*
X5051580Y24448615D01*
X4960900Y24466978D01*
X4360900Y24466978D01*
X4276186Y24451038D01*
X4198382Y24400972D01*
X4190543Y24389500D01*
X3339303Y24389500D01*
X3329027Y24441162D01*
X3095216Y24791085D01*
X2745293Y25024896D01*
X2332531Y25107000D01*
X2290269Y25107000D01*
X1877507Y25024896D01*
X1527584Y24791085D01*
X1293773Y24441162D01*
X1211669Y24028400D01*
X1293773Y23615638D01*
X1527584Y23265715D01*
X1877507Y23031904D01*
X2290269Y22949800D01*
X2332531Y22949800D01*
X2340323Y22951350D01*
X4030700Y22951350D01*
X4030700Y22868219D01*
X4080970Y22746857D01*
X4173857Y22653970D01*
X4295219Y22603700D01*
X4428350Y22603700D01*
X4510900Y22686250D01*
X4510900Y23033900D01*
X4810900Y23033900D01*
X4810900Y22686250D01*
X4893450Y22603700D01*
X5026581Y22603700D01*
X5147943Y22653970D01*
X5240830Y22746857D01*
X5291100Y22868219D01*
X5291100Y22951350D01*
X5208550Y23033900D01*
X4810900Y23033900D01*
X4510900Y23033900D01*
X4113250Y23033900D01*
X4030700Y22951350D01*
X2340323Y22951350D01*
X2745293Y23031904D01*
X3095216Y23265715D01*
X3329027Y23615638D01*
X3341491Y23678300D01*
X4189376Y23678300D01*
X4193828Y23671382D01*
X4238730Y23640701D01*
X4173857Y23613830D01*
X4080970Y23520943D01*
X4030700Y23399581D01*
X4030700Y23316450D01*
X4113250Y23233900D01*
X4510900Y23233900D01*
X4510900Y23331700D01*
X4810900Y23331700D01*
X4810900Y23233900D01*
X5208550Y23233900D01*
X5271028Y23296378D01*
X5334000Y23233406D01*
X5334000Y17360900D01*
X5361068Y17224817D01*
X5438153Y17109453D01*
X7833053Y14714553D01*
X7948417Y14637468D01*
X8084500Y14610400D01*
X9143046Y14610400D01*
X9139522Y14593000D01*
X9139522Y14339000D01*
X9142796Y14321600D01*
X6196494Y14321600D01*
X4521200Y15996894D01*
X4521200Y20828000D01*
X4494132Y20964082D01*
X4417047Y21079447D01*
X3756647Y21739847D01*
X3641283Y21816932D01*
X3505200Y21844000D01*
X3340397Y21844000D01*
X3329027Y21901162D01*
X3095216Y22251085D01*
X2745293Y22484896D01*
X2332531Y22567000D01*
X2290269Y22567000D01*
X1877507Y22484896D01*
X1527584Y22251085D01*
X1293773Y21901162D01*
X1211669Y21488400D01*
X1293773Y21075638D01*
X1527584Y20725715D01*
X1877507Y20491904D01*
X2290269Y20409800D01*
X2332531Y20409800D01*
X2745293Y20491904D01*
X3095216Y20725715D01*
X3329027Y21075638D01*
X3340397Y21132800D01*
X3357906Y21132800D01*
X3810000Y20680706D01*
X3810000Y15849600D01*
X3837068Y15713517D01*
X3914153Y15598153D01*
X4516451Y14995855D01*
X4501003Y14973247D01*
X4481389Y14882829D01*
X4498498Y14791903D01*
X4549634Y14714798D01*
X4973898Y14290534D01*
X5045071Y14241903D01*
X5135489Y14222289D01*
X5226415Y14239398D01*
X5254369Y14257937D01*
X5797753Y13714553D01*
X5913117Y13637468D01*
X6049200Y13610400D01*
X7024000Y13610400D01*
X7024000Y13517150D01*
X7106550Y13434600D01*
X7504200Y13434600D01*
X7504200Y13507400D01*
X7804200Y13507400D01*
X7804200Y13434600D01*
X7852000Y13434600D01*
X7852000Y13184600D01*
X7804200Y13184600D01*
X7804200Y12811950D01*
X7886750Y12729400D01*
X8019881Y12729400D01*
X8028533Y12732984D01*
X7971482Y12696272D01*
X7919285Y12619880D01*
X7900922Y12529200D01*
X7900922Y12484800D01*
X6521176Y12484800D01*
X6526900Y12498619D01*
X6526900Y12606750D01*
X6444350Y12689300D01*
X6046700Y12689300D01*
X6046700Y12616500D01*
X5746700Y12616500D01*
X5746700Y12689300D01*
X5698900Y12689300D01*
X5698900Y12939300D01*
X5746700Y12939300D01*
X5746700Y13311950D01*
X6046700Y13311950D01*
X6046700Y12939300D01*
X6444350Y12939300D01*
X6526900Y13021850D01*
X6526900Y13102050D01*
X7024000Y13102050D01*
X7024000Y12993919D01*
X7074270Y12872557D01*
X7167157Y12779670D01*
X7288519Y12729400D01*
X7421650Y12729400D01*
X7504200Y12811950D01*
X7504200Y13184600D01*
X7106550Y13184600D01*
X7024000Y13102050D01*
X6526900Y13102050D01*
X6526900Y13129981D01*
X6476630Y13251343D01*
X6383743Y13344230D01*
X6262381Y13394500D01*
X6129250Y13394500D01*
X6046700Y13311950D01*
X5746700Y13311950D01*
X5664150Y13394500D01*
X5531019Y13394500D01*
X5409657Y13344230D01*
X5316770Y13251343D01*
X5289835Y13186316D01*
X5263772Y13226818D01*
X5187380Y13279015D01*
X5096700Y13297378D01*
X4496700Y13297378D01*
X4470400Y13292429D01*
X4470400Y13592117D01*
X4499093Y13585893D01*
X4590019Y13603002D01*
X4667124Y13654138D01*
X4949966Y13936980D01*
X4998597Y14008153D01*
X5018211Y14098571D01*
X5001102Y14189497D01*
X4949966Y14266602D01*
X4525702Y14690866D01*
X4454529Y14739497D01*
X4364111Y14759111D01*
X4273185Y14742002D01*
X4196080Y14690866D01*
X3913238Y14408024D01*
X3864607Y14336851D01*
X3844993Y14246433D01*
X3862102Y14155507D01*
X3881884Y14125678D01*
X3863353Y14107147D01*
X3786268Y13991783D01*
X3786268Y13991782D01*
X3759200Y13855700D01*
X3759200Y11876078D01*
X3364800Y11876078D01*
X3280086Y11860138D01*
X3202282Y11810072D01*
X3150085Y11733680D01*
X3131722Y11643000D01*
X3131722Y9643000D01*
X3147662Y9558286D01*
X3197728Y9480482D01*
X3274120Y9428285D01*
X3364800Y9409922D01*
X3378200Y9409922D01*
X3378200Y7684143D01*
X3378072Y7537624D01*
X3378200Y7537314D01*
X3378200Y5576078D01*
X2214800Y5576078D01*
X2130086Y5560138D01*
X2052282Y5510072D01*
X2000085Y5433680D01*
X1981722Y5343000D01*
X1981722Y3343000D01*
X1997662Y3258286D01*
X2047728Y3180482D01*
X2124120Y3128285D01*
X2214800Y3109922D01*
X3378200Y3109922D01*
X3378200Y2616200D01*
X3434270Y2334315D01*
X3593945Y2095345D01*
X3924145Y1765145D01*
X4163115Y1605470D01*
X4445000Y1549400D01*
X7924157Y1549400D01*
X8070676Y1549272D01*
X8341505Y1661177D01*
X8548895Y1868205D01*
X8661272Y2138838D01*
X8661273Y2140124D01*
X10998072Y2140124D01*
X11109977Y1869295D01*
X11317005Y1661905D01*
X11587638Y1549528D01*
X11880676Y1549272D01*
X11880986Y1549400D01*
X15544157Y1549400D01*
X15690676Y1549272D01*
X15961505Y1661177D01*
X16168895Y1868205D01*
X16281272Y2138838D01*
X16281528Y2431876D01*
X16169623Y2702705D01*
X15962595Y2910095D01*
X15691962Y3022472D01*
X15398924Y3022728D01*
X15398614Y3022600D01*
X11735443Y3022600D01*
X11588924Y3022728D01*
X11318095Y2910823D01*
X11110705Y2703795D01*
X10998328Y2433162D01*
X10998072Y2140124D01*
X8661273Y2140124D01*
X8661528Y2431876D01*
X8549623Y2702705D01*
X8342595Y2910095D01*
X8071962Y3022472D01*
X7778924Y3022728D01*
X7778614Y3022600D01*
X4851400Y3022600D01*
X4851400Y3109922D01*
X6014800Y3109922D01*
X6099514Y3125862D01*
X6177318Y3175928D01*
X6229515Y3252320D01*
X6247878Y3343000D01*
X6247878Y3568198D01*
X11414245Y3568198D01*
X11535862Y3391812D01*
X12047166Y3232489D01*
X12580520Y3280961D01*
X12848138Y3391812D01*
X12969755Y3568198D01*
X12192000Y4345953D01*
X11414245Y3568198D01*
X6247878Y3568198D01*
X6247878Y4742234D01*
X10827089Y4742234D01*
X10875561Y4208880D01*
X10986412Y3941262D01*
X11162798Y3819645D01*
X11940553Y4597400D01*
X12443447Y4597400D01*
X13221202Y3819645D01*
X13397588Y3941262D01*
X13451973Y4115796D01*
X17640212Y4115796D01*
X17717388Y3929017D01*
X17860166Y3785990D01*
X18046809Y3708489D01*
X18248904Y3708312D01*
X18435683Y3785488D01*
X18511126Y3860800D01*
X22801986Y3860800D01*
X22876666Y3785990D01*
X23063309Y3708489D01*
X23265404Y3708312D01*
X23452183Y3785488D01*
X23595210Y3928266D01*
X23672711Y4114909D01*
X23672888Y4317004D01*
X23595712Y4503783D01*
X23452934Y4646810D01*
X23266291Y4724311D01*
X23064196Y4724488D01*
X22877417Y4647312D01*
X22801974Y4572000D01*
X18511114Y4572000D01*
X18436434Y4646810D01*
X18249791Y4724311D01*
X18047696Y4724488D01*
X17860917Y4647312D01*
X17717890Y4504534D01*
X17640389Y4317891D01*
X17640212Y4115796D01*
X13451973Y4115796D01*
X13556911Y4452566D01*
X13508439Y4985920D01*
X13397588Y5253538D01*
X13221202Y5375155D01*
X12443447Y4597400D01*
X11940553Y4597400D01*
X11162798Y5375155D01*
X10986412Y5253538D01*
X10827089Y4742234D01*
X6247878Y4742234D01*
X6247878Y5343000D01*
X6231938Y5427714D01*
X6181872Y5505518D01*
X6105480Y5557715D01*
X6014800Y5576078D01*
X4851400Y5576078D01*
X4851400Y5626602D01*
X11414245Y5626602D01*
X12192000Y4848847D01*
X12969755Y5626602D01*
X12848138Y5802988D01*
X12336834Y5962311D01*
X11803480Y5913839D01*
X11535862Y5802988D01*
X11414245Y5626602D01*
X4851400Y5626602D01*
X4851400Y7642350D01*
X9115900Y7642350D01*
X9115900Y7337019D01*
X9166170Y7215657D01*
X9259057Y7122770D01*
X9380419Y7072500D01*
X9810750Y7072500D01*
X9893300Y7155050D01*
X9893300Y7724900D01*
X10248900Y7724900D01*
X10248900Y7155050D01*
X10331450Y7072500D01*
X10761781Y7072500D01*
X10883143Y7122770D01*
X10976030Y7215657D01*
X11026300Y7337019D01*
X11026300Y7642350D01*
X10943750Y7724900D01*
X10248900Y7724900D01*
X9893300Y7724900D01*
X9198450Y7724900D01*
X9115900Y7642350D01*
X4851400Y7642350D01*
X4851400Y7682857D01*
X4851528Y7829376D01*
X4851400Y7829686D01*
X4851400Y8468381D01*
X9115900Y8468381D01*
X9115900Y8163050D01*
X9198450Y8080500D01*
X9893300Y8080500D01*
X9893300Y8650350D01*
X10248900Y8650350D01*
X10248900Y8080500D01*
X10943750Y8080500D01*
X10993700Y8130450D01*
X12577800Y8130450D01*
X12577800Y8047319D01*
X12628070Y7925957D01*
X12720957Y7833070D01*
X12842319Y7782800D01*
X12975450Y7782800D01*
X13058000Y7865350D01*
X13058000Y8213000D01*
X13358000Y8213000D01*
X13358000Y7865350D01*
X13440550Y7782800D01*
X13573681Y7782800D01*
X13695043Y7833070D01*
X13747750Y7885777D01*
X13800457Y7833070D01*
X13921819Y7782800D01*
X14054950Y7782800D01*
X14137500Y7865350D01*
X14137500Y8213000D01*
X14437500Y8213000D01*
X14437500Y7865350D01*
X14520050Y7782800D01*
X14653181Y7782800D01*
X14774543Y7833070D01*
X14867430Y7925957D01*
X14917700Y8047319D01*
X14917700Y8130450D01*
X14835150Y8213000D01*
X14437500Y8213000D01*
X14137500Y8213000D01*
X13358000Y8213000D01*
X13058000Y8213000D01*
X12660350Y8213000D01*
X12577800Y8130450D01*
X10993700Y8130450D01*
X11026300Y8163050D01*
X11026300Y8468381D01*
X10976030Y8589743D01*
X10883143Y8682630D01*
X10761781Y8732900D01*
X10331450Y8732900D01*
X10248900Y8650350D01*
X9893300Y8650350D01*
X9810750Y8732900D01*
X9380419Y8732900D01*
X9259057Y8682630D01*
X9166170Y8589743D01*
X9115900Y8468381D01*
X4851400Y8468381D01*
X4851400Y9409922D01*
X4864800Y9409922D01*
X4949514Y9425862D01*
X5027318Y9475928D01*
X5079515Y9552320D01*
X5097878Y9643000D01*
X5097878Y10382650D01*
X5334600Y10382650D01*
X5334600Y9577319D01*
X5384870Y9455957D01*
X5477757Y9363070D01*
X5599119Y9312800D01*
X6154450Y9312800D01*
X6237000Y9395350D01*
X6237000Y10465200D01*
X6592600Y10465200D01*
X6592600Y9395350D01*
X6675150Y9312800D01*
X7230481Y9312800D01*
X7351843Y9363070D01*
X7444730Y9455957D01*
X7495000Y9577319D01*
X7495000Y10368850D01*
X7803800Y10368850D01*
X7803800Y10163519D01*
X7854070Y10042157D01*
X7946957Y9949270D01*
X8068319Y9899000D01*
X8248650Y9899000D01*
X8331200Y9981550D01*
X8331200Y10451400D01*
X7886350Y10451400D01*
X7803800Y10368850D01*
X7495000Y10368850D01*
X7495000Y10382650D01*
X7412450Y10465200D01*
X6592600Y10465200D01*
X6237000Y10465200D01*
X5417150Y10465200D01*
X5334600Y10382650D01*
X5097878Y10382650D01*
X5097878Y11643000D01*
X5081938Y11727714D01*
X5052411Y11773600D01*
X5361490Y11773600D01*
X5334600Y11708681D01*
X5334600Y10903350D01*
X5417150Y10820800D01*
X6237000Y10820800D01*
X6237000Y10840800D01*
X6592600Y10840800D01*
X6592600Y10820800D01*
X7412450Y10820800D01*
X7495000Y10903350D01*
X7495000Y11094881D01*
X7803800Y11094881D01*
X7803800Y10889550D01*
X7886350Y10807000D01*
X8331200Y10807000D01*
X8331200Y11276850D01*
X8248650Y11359400D01*
X8068319Y11359400D01*
X7946957Y11309130D01*
X7854070Y11216243D01*
X7803800Y11094881D01*
X7495000Y11094881D01*
X7495000Y11708681D01*
X7468110Y11773600D01*
X7900922Y11773600D01*
X7900922Y11729200D01*
X7916862Y11644486D01*
X7966928Y11566682D01*
X8043320Y11514485D01*
X8134000Y11496122D01*
X8397184Y11496122D01*
X8686800Y11206506D01*
X8686800Y10807000D01*
X9086306Y10807000D01*
X9307891Y10585415D01*
X9283582Y10569772D01*
X9231385Y10493380D01*
X9213022Y10402700D01*
X9213022Y10370028D01*
X9131650Y10451400D01*
X8686800Y10451400D01*
X8686800Y9981550D01*
X8769350Y9899000D01*
X8949681Y9899000D01*
X9071043Y9949270D01*
X9163930Y10042157D01*
X9213022Y10160675D01*
X9213022Y9402700D01*
X9228962Y9317986D01*
X9279028Y9240182D01*
X9355420Y9187985D01*
X9446100Y9169622D01*
X10696100Y9169622D01*
X10780814Y9185562D01*
X10858618Y9235628D01*
X10910815Y9312020D01*
X10929178Y9402700D01*
X10929178Y10259528D01*
X11125205Y10063501D01*
X11125112Y9957796D01*
X11202288Y9771017D01*
X11345066Y9627990D01*
X11531709Y9550489D01*
X11733804Y9550312D01*
X11920583Y9627488D01*
X12063610Y9770266D01*
X12141111Y9956909D01*
X12141288Y10159004D01*
X12064112Y10345783D01*
X11921334Y10488810D01*
X11771994Y10550821D01*
X11780714Y10552462D01*
X11818902Y10577036D01*
X11851320Y10554885D01*
X11942000Y10536522D01*
X12196000Y10536522D01*
X12280714Y10552462D01*
X12318902Y10577036D01*
X12351320Y10554885D01*
X12442000Y10536522D01*
X12696000Y10536522D01*
X12780714Y10552462D01*
X12818902Y10577036D01*
X12851320Y10554885D01*
X12942000Y10536522D01*
X13183228Y10536522D01*
X12956553Y10309847D01*
X12879468Y10194483D01*
X12872411Y10159004D01*
X12852400Y10058400D01*
X12852400Y9635616D01*
X12823286Y9630138D01*
X12745482Y9580072D01*
X12693285Y9503680D01*
X12674922Y9413000D01*
X12674922Y9013000D01*
X12690862Y8928286D01*
X12740928Y8850482D01*
X12785830Y8819801D01*
X12720957Y8792930D01*
X12628070Y8700043D01*
X12577800Y8578681D01*
X12577800Y8495550D01*
X12660350Y8413000D01*
X13058000Y8413000D01*
X13058000Y8510800D01*
X13358000Y8510800D01*
X13358000Y8413000D01*
X14137500Y8413000D01*
X14137500Y8510800D01*
X14437500Y8510800D01*
X14437500Y8413000D01*
X14835150Y8413000D01*
X14917700Y8495550D01*
X14917700Y8578681D01*
X14867430Y8700043D01*
X14774543Y8792930D01*
X14709516Y8819865D01*
X14750018Y8845928D01*
X14802215Y8922320D01*
X14820578Y9013000D01*
X14820578Y9413000D01*
X14804638Y9497714D01*
X14754572Y9575518D01*
X14678180Y9627715D01*
X14643100Y9634819D01*
X14643100Y9836336D01*
X15316200Y9163236D01*
X15316200Y7162800D01*
X15322203Y7133154D01*
X15339268Y7108179D01*
X15364705Y7091811D01*
X15392400Y7086600D01*
X20421600Y7086600D01*
X20451246Y7092603D01*
X20476221Y7109668D01*
X20492589Y7135105D01*
X20497800Y7162800D01*
X20497800Y8103350D01*
X23842700Y8103350D01*
X23842700Y8020219D01*
X23892970Y7898857D01*
X23985857Y7805970D01*
X24050884Y7779035D01*
X24010382Y7752972D01*
X23958185Y7676580D01*
X23939822Y7585900D01*
X23939822Y7185900D01*
X23955762Y7101186D01*
X24005828Y7023382D01*
X24082220Y6971185D01*
X24117300Y6964081D01*
X24117300Y6801714D01*
X24042490Y6727034D01*
X23964989Y6540391D01*
X23964812Y6338296D01*
X24041988Y6151517D01*
X24184766Y6008490D01*
X24371409Y5930989D01*
X24573504Y5930812D01*
X24760283Y6007988D01*
X24903310Y6150766D01*
X24980811Y6337409D01*
X24980988Y6539504D01*
X24903812Y6726283D01*
X24828500Y6801726D01*
X24828500Y6963284D01*
X24857614Y6968762D01*
X24935418Y7018828D01*
X24987615Y7095220D01*
X25005978Y7185900D01*
X25005978Y7585900D01*
X24990038Y7670614D01*
X24939972Y7748418D01*
X24895070Y7779099D01*
X24959943Y7805970D01*
X25052830Y7898857D01*
X25103100Y8020219D01*
X25103100Y8103350D01*
X25020550Y8185900D01*
X24622900Y8185900D01*
X24622900Y8088100D01*
X24322900Y8088100D01*
X24322900Y8185900D01*
X23925250Y8185900D01*
X23842700Y8103350D01*
X20497800Y8103350D01*
X20497800Y8551581D01*
X23842700Y8551581D01*
X23842700Y8468450D01*
X23925250Y8385900D01*
X24322900Y8385900D01*
X24322900Y8733550D01*
X24622900Y8733550D01*
X24622900Y8385900D01*
X25020550Y8385900D01*
X25103100Y8468450D01*
X25103100Y8551581D01*
X25052830Y8672943D01*
X24959943Y8765830D01*
X24838581Y8816100D01*
X24705450Y8816100D01*
X24622900Y8733550D01*
X24322900Y8733550D01*
X24240350Y8816100D01*
X24107219Y8816100D01*
X23985857Y8765830D01*
X23892970Y8672943D01*
X23842700Y8551581D01*
X20497800Y8551581D01*
X20497800Y11988800D01*
X20491797Y12018446D01*
X20474732Y12043421D01*
X20449295Y12059789D01*
X20421600Y12065000D01*
X18257494Y12065000D01*
X17929847Y12392647D01*
X17910829Y12405355D01*
X17944200Y12485919D01*
X17944200Y12552450D01*
X20273200Y12552450D01*
X20273200Y12419319D01*
X20323470Y12297957D01*
X20416357Y12205070D01*
X20537719Y12154800D01*
X20645850Y12154800D01*
X20728400Y12237350D01*
X20728400Y12635000D01*
X20978400Y12635000D01*
X20978400Y12237350D01*
X21060950Y12154800D01*
X21169081Y12154800D01*
X21290443Y12205070D01*
X21383330Y12297957D01*
X21433600Y12419319D01*
X21433600Y12552450D01*
X21370100Y12615950D01*
X24794400Y12615950D01*
X24794400Y12482819D01*
X24844670Y12361457D01*
X24937557Y12268570D01*
X25058919Y12218300D01*
X25167050Y12218300D01*
X25249600Y12300850D01*
X25249600Y12698500D01*
X25499600Y12698500D01*
X25499600Y12300850D01*
X25582150Y12218300D01*
X25690281Y12218300D01*
X25811643Y12268570D01*
X25904530Y12361457D01*
X25954800Y12482819D01*
X25954800Y12615950D01*
X25872250Y12698500D01*
X25499600Y12698500D01*
X25249600Y12698500D01*
X24876950Y12698500D01*
X24794400Y12615950D01*
X21370100Y12615950D01*
X21351050Y12635000D01*
X20978400Y12635000D01*
X20728400Y12635000D01*
X20355750Y12635000D01*
X20273200Y12552450D01*
X17944200Y12552450D01*
X17944200Y12594050D01*
X17861650Y12676600D01*
X17464000Y12676600D01*
X17464000Y12603800D01*
X17164000Y12603800D01*
X17164000Y12676600D01*
X17116200Y12676600D01*
X17116200Y12926600D01*
X17164000Y12926600D01*
X17164000Y13136487D01*
X17208500Y13243919D01*
X17208500Y13299250D01*
X17464000Y13299250D01*
X17464000Y12926600D01*
X17861650Y12926600D01*
X17944200Y13009150D01*
X17944200Y13117281D01*
X17893930Y13238643D01*
X17801043Y13331530D01*
X17679681Y13381800D01*
X17546550Y13381800D01*
X17464000Y13299250D01*
X17208500Y13299250D01*
X17208500Y13309600D01*
X17125950Y13392150D01*
X16795750Y13392150D01*
X16795750Y13309600D01*
X16630650Y13309600D01*
X16630650Y13392150D01*
X16300450Y13392150D01*
X16217900Y13309600D01*
X16217900Y13309596D01*
X16113396Y13309688D01*
X16112126Y13309163D01*
X16095378Y13312494D01*
X16095378Y13639800D01*
X16080514Y13718797D01*
X16095378Y13792200D01*
X16095378Y14110400D01*
X16315022Y14110400D01*
X16315022Y13873695D01*
X16268170Y13826843D01*
X16217900Y13705481D01*
X16217900Y13639800D01*
X16300450Y13557250D01*
X16630650Y13557250D01*
X16630650Y13559122D01*
X16795750Y13559122D01*
X16795750Y13557250D01*
X17125950Y13557250D01*
X17170400Y13601700D01*
X20370322Y13601700D01*
X20370322Y13585000D01*
X20386262Y13500286D01*
X20436328Y13422482D01*
X20481230Y13391801D01*
X20416357Y13364930D01*
X20323470Y13272043D01*
X20273200Y13150681D01*
X20273200Y13017550D01*
X20355750Y12935000D01*
X20728400Y12935000D01*
X20728400Y12982800D01*
X20978400Y12982800D01*
X20978400Y12935000D01*
X21351050Y12935000D01*
X21433600Y13017550D01*
X21433600Y13150681D01*
X21383330Y13272043D01*
X21290443Y13364930D01*
X21225416Y13391865D01*
X21265918Y13417928D01*
X21318115Y13494320D01*
X21325219Y13529400D01*
X21336096Y13529400D01*
X21346862Y13472186D01*
X21396928Y13394382D01*
X21473320Y13342185D01*
X21564000Y13323822D01*
X22764000Y13323822D01*
X22848714Y13339762D01*
X22926518Y13389828D01*
X22978715Y13466220D01*
X22997078Y13556900D01*
X22997078Y13671550D01*
X23133800Y13671550D01*
X23133800Y13491219D01*
X23184070Y13369857D01*
X23276957Y13276970D01*
X23398319Y13226700D01*
X23803650Y13226700D01*
X23886200Y13309250D01*
X23886200Y13754100D01*
X23216350Y13754100D01*
X23133800Y13671550D01*
X22997078Y13671550D01*
X22997078Y14306900D01*
X22984720Y14372581D01*
X23133800Y14372581D01*
X23133800Y14192250D01*
X23216350Y14109700D01*
X23886200Y14109700D01*
X23886200Y14554550D01*
X23803650Y14637100D01*
X23398319Y14637100D01*
X23276957Y14586830D01*
X23184070Y14493943D01*
X23133800Y14372581D01*
X22984720Y14372581D01*
X22981138Y14391614D01*
X22931072Y14469418D01*
X22854680Y14521615D01*
X22764000Y14539978D01*
X21564000Y14539978D01*
X21479286Y14524038D01*
X21401482Y14473972D01*
X21349285Y14397580D01*
X21330922Y14306900D01*
X21330922Y14240600D01*
X21326016Y14240600D01*
X21320538Y14269714D01*
X21270472Y14347518D01*
X21194080Y14399715D01*
X21103400Y14418078D01*
X20603400Y14418078D01*
X20518686Y14402138D01*
X20440882Y14352072D01*
X20414117Y14312900D01*
X19387794Y14312900D01*
X21064194Y15989300D01*
X24765000Y15989300D01*
X24794646Y15995303D01*
X24819621Y16012368D01*
X24835989Y16037805D01*
X24841200Y16065500D01*
X24841200Y19846335D01*
X25374600Y19846335D01*
X25374600Y18456865D01*
X25457739Y18038898D01*
X25694498Y17684563D01*
X26048833Y17447804D01*
X26466800Y17364665D01*
X26884767Y17447804D01*
X27239102Y17684563D01*
X27475861Y18038898D01*
X27559000Y18456865D01*
X27559000Y19846335D01*
X30454600Y19846335D01*
X30454600Y18456865D01*
X30537739Y18038898D01*
X30774498Y17684563D01*
X31128833Y17447804D01*
X31546800Y17364665D01*
X31964767Y17447804D01*
X32319102Y17684563D01*
X32555861Y18038898D01*
X32639000Y18456865D01*
X32639000Y19846335D01*
X32555861Y20264302D01*
X32319102Y20618637D01*
X31964767Y20855396D01*
X31546800Y20938535D01*
X31128833Y20855396D01*
X30774498Y20618637D01*
X30537739Y20264302D01*
X30454600Y19846335D01*
X27559000Y19846335D01*
X27475861Y20264302D01*
X27239102Y20618637D01*
X26884767Y20855396D01*
X26466800Y20938535D01*
X26048833Y20855396D01*
X25694498Y20618637D01*
X25457739Y20264302D01*
X25374600Y19846335D01*
X24841200Y19846335D01*
X24841200Y23431500D01*
X24835197Y23461146D01*
X24818132Y23486121D01*
X24792695Y23502489D01*
X24765000Y23507700D01*
X19304000Y23507700D01*
X19274354Y23501697D01*
X19249379Y23484632D01*
X19233011Y23459195D01*
X19227800Y23431500D01*
X19227800Y19615677D01*
X19118381Y19661000D01*
X18688050Y19661000D01*
X18605500Y19578450D01*
X18605500Y19008600D01*
X18625500Y19008600D01*
X18625500Y18653000D01*
X18605500Y18653000D01*
X18605500Y18083150D01*
X18688050Y18000600D01*
X19118381Y18000600D01*
X19227800Y18045923D01*
X19227800Y17480842D01*
X19219772Y17493318D01*
X19143380Y17545515D01*
X19052700Y17563878D01*
X17802700Y17563878D01*
X17717986Y17547938D01*
X17640182Y17497872D01*
X17587985Y17421480D01*
X17569622Y17330800D01*
X17569622Y17186400D01*
X17434373Y17186400D01*
X17432338Y17197214D01*
X17382272Y17275018D01*
X17305880Y17327215D01*
X17215200Y17345578D01*
X16465200Y17345578D01*
X16380486Y17329638D01*
X16302682Y17279572D01*
X16250485Y17203180D01*
X16232122Y17112500D01*
X16232122Y16607316D01*
X15925717Y16300911D01*
X15925888Y16496304D01*
X15848712Y16683083D01*
X15802833Y16729042D01*
X15989300Y16729042D01*
X16074014Y16744982D01*
X16151818Y16795048D01*
X16204015Y16871440D01*
X16222378Y16962120D01*
X16222378Y17588349D01*
X16278157Y17532570D01*
X16399519Y17482300D01*
X16579850Y17482300D01*
X16662400Y17564850D01*
X16662400Y18034700D01*
X16217550Y18034700D01*
X16213458Y18030608D01*
X16206438Y18067914D01*
X16156372Y18145718D01*
X16079980Y18197915D01*
X15989300Y18216278D01*
X13449300Y18216278D01*
X13424600Y18211630D01*
X13424600Y18678181D01*
X16135000Y18678181D01*
X16135000Y18472850D01*
X16217550Y18390300D01*
X16662400Y18390300D01*
X16662400Y18860150D01*
X17018000Y18860150D01*
X17018000Y18390300D01*
X17038000Y18390300D01*
X17038000Y18034700D01*
X17018000Y18034700D01*
X17018000Y17564850D01*
X17100550Y17482300D01*
X17280881Y17482300D01*
X17402243Y17532570D01*
X17495130Y17625457D01*
X17545400Y17746819D01*
X17545400Y17952150D01*
X17462852Y18034698D01*
X17545400Y18034698D01*
X17545400Y18121127D01*
X17615657Y18050870D01*
X17737019Y18000600D01*
X18167350Y18000600D01*
X18249900Y18083150D01*
X18249900Y18653000D01*
X17555050Y18653000D01*
X17545400Y18643350D01*
X17545400Y18678181D01*
X17495130Y18799543D01*
X17402243Y18892430D01*
X17280881Y18942700D01*
X17100550Y18942700D01*
X17018000Y18860150D01*
X16662400Y18860150D01*
X16579850Y18942700D01*
X16399519Y18942700D01*
X16278157Y18892430D01*
X16185270Y18799543D01*
X16135000Y18678181D01*
X13424600Y18678181D01*
X13424600Y18799200D01*
X13413471Y18855150D01*
X13397532Y18935283D01*
X13338578Y19023512D01*
X13338578Y19052179D01*
X13358620Y19038485D01*
X13449300Y19020122D01*
X15989300Y19020122D01*
X16074014Y19036062D01*
X16151818Y19086128D01*
X16204015Y19162520D01*
X16222378Y19253200D01*
X16222378Y19396481D01*
X17472500Y19396481D01*
X17472500Y19091150D01*
X17555050Y19008600D01*
X18249900Y19008600D01*
X18249900Y19578450D01*
X18167350Y19661000D01*
X17737019Y19661000D01*
X17615657Y19610730D01*
X17522770Y19517843D01*
X17472500Y19396481D01*
X16222378Y19396481D01*
X16222378Y20274280D01*
X16206438Y20358994D01*
X16156372Y20436798D01*
X16079980Y20488995D01*
X15989300Y20507358D01*
X13449300Y20507358D01*
X13364586Y20491418D01*
X13286782Y20441352D01*
X13274946Y20424029D01*
X13272572Y20427718D01*
X13196180Y20479915D01*
X13105500Y20498278D01*
X12505500Y20498278D01*
X12420786Y20482338D01*
X12342982Y20432272D01*
X12312301Y20387370D01*
X12285430Y20452243D01*
X12192543Y20545130D01*
X12071181Y20595400D01*
X11938050Y20595400D01*
X11855500Y20512850D01*
X11855500Y20140200D01*
X11903300Y20140200D01*
X11903300Y19890200D01*
X11855500Y19890200D01*
X11855500Y19187700D01*
X11903300Y19187700D01*
X11903300Y18937700D01*
X11855500Y18937700D01*
X11855500Y18864900D01*
X11555500Y18864900D01*
X11555500Y18937700D01*
X11507700Y18937700D01*
X11507700Y19187700D01*
X11555500Y19187700D01*
X11555500Y19890200D01*
X11507700Y19890200D01*
X11507700Y20140200D01*
X11555500Y20140200D01*
X11555500Y20512850D01*
X11472950Y20595400D01*
X11339819Y20595400D01*
X11218457Y20545130D01*
X11208100Y20534773D01*
X11208100Y20549302D01*
X11125552Y20549302D01*
X11208100Y20631850D01*
X11208100Y20837181D01*
X11157830Y20958543D01*
X11064943Y21051430D01*
X10943581Y21101700D01*
X10763250Y21101700D01*
X10680700Y21019150D01*
X10680700Y20549300D01*
X10700700Y20549300D01*
X10700700Y20193700D01*
X10680700Y20193700D01*
X10680700Y19723850D01*
X10763250Y19641300D01*
X10943581Y19641300D01*
X11064943Y19691570D01*
X11075300Y19701927D01*
X11075300Y19699519D01*
X11125570Y19578157D01*
X11164777Y19538950D01*
X11125570Y19499743D01*
X11077444Y19383556D01*
X11044972Y19434018D01*
X10968580Y19486215D01*
X10877900Y19504578D01*
X10127900Y19504578D01*
X10043186Y19488638D01*
X9965382Y19438572D01*
X9913185Y19362180D01*
X9894822Y19271500D01*
X9894822Y19227100D01*
X9773478Y19227100D01*
X9773478Y19477100D01*
X9757538Y19561814D01*
X9707472Y19639618D01*
X9631080Y19691815D01*
X9540400Y19710178D01*
X8290400Y19710178D01*
X8205686Y19694238D01*
X8127882Y19644172D01*
X8075685Y19567780D01*
X8057322Y19477100D01*
X8057322Y18477100D01*
X8073262Y18392386D01*
X8123328Y18314582D01*
X8199720Y18262385D01*
X8290400Y18244022D01*
X9540400Y18244022D01*
X9625114Y18259962D01*
X9702918Y18310028D01*
X9755115Y18386420D01*
X9773478Y18477100D01*
X9773478Y18515900D01*
X9894822Y18515900D01*
X9894822Y18471500D01*
X9910762Y18386786D01*
X9960828Y18308982D01*
X10037220Y18256785D01*
X10127900Y18238422D01*
X10588149Y18238422D01*
X10554070Y18204343D01*
X10503800Y18082981D01*
X10503800Y17974850D01*
X10586350Y17892300D01*
X10984000Y17892300D01*
X10984000Y17965100D01*
X11284000Y17965100D01*
X11284000Y17892300D01*
X11331800Y17892300D01*
X11331800Y17642300D01*
X11284000Y17642300D01*
X11284000Y17569500D01*
X10984000Y17569500D01*
X10984000Y17642300D01*
X10586350Y17642300D01*
X10503800Y17559750D01*
X10503800Y17451619D01*
X10554070Y17330257D01*
X10646957Y17237370D01*
X10768319Y17187100D01*
X10901450Y17187100D01*
X10956198Y17241848D01*
X10956198Y17187100D01*
X11132051Y17187100D01*
X11061789Y17017891D01*
X11061612Y16815796D01*
X11112500Y16692638D01*
X11112500Y16433800D01*
X11176000Y16433800D01*
X11176000Y16078200D01*
X11112500Y16078200D01*
X11112500Y16058200D01*
X10985500Y16058200D01*
X10985500Y16078200D01*
X10929078Y16078200D01*
X10929078Y16433800D01*
X10985500Y16433800D01*
X10985500Y16910050D01*
X10902950Y16992600D01*
X10856319Y16992600D01*
X10734957Y16942330D01*
X10688105Y16895478D01*
X10442000Y16895478D01*
X10357286Y16879538D01*
X10279482Y16829472D01*
X10227285Y16753080D01*
X10210800Y16671674D01*
X10210800Y17284700D01*
X10207243Y17302585D01*
X10183732Y17420783D01*
X10106647Y17536147D01*
X9560547Y18082247D01*
X9445183Y18159332D01*
X9309100Y18186400D01*
X8046694Y18186400D01*
X7962900Y18270194D01*
X7962900Y20404901D01*
X8010470Y20290057D01*
X8103357Y20197170D01*
X8224719Y20146900D01*
X8655050Y20146900D01*
X8737600Y20229450D01*
X8737600Y20799300D01*
X8717600Y20799300D01*
X8717600Y21154900D01*
X8737600Y21154900D01*
X8737600Y21724750D01*
X9093200Y21724750D01*
X9093200Y21154900D01*
X9113200Y21154900D01*
X9113200Y20799300D01*
X9093200Y20799300D01*
X9093200Y20229450D01*
X9175750Y20146900D01*
X9606081Y20146900D01*
X9727443Y20197170D01*
X9797700Y20267427D01*
X9797700Y20193698D01*
X9880248Y20193698D01*
X9797700Y20111150D01*
X9797700Y19905819D01*
X9847970Y19784457D01*
X9940857Y19691570D01*
X10062219Y19641300D01*
X10242550Y19641300D01*
X10325100Y19723850D01*
X10325100Y20193700D01*
X10305100Y20193700D01*
X10305100Y20549300D01*
X10325100Y20549300D01*
X10325100Y21019150D01*
X10242550Y21101700D01*
X10062219Y21101700D01*
X9940857Y21051430D01*
X9870600Y20981173D01*
X9870600Y21154902D01*
X9788052Y21154902D01*
X9870600Y21237450D01*
X9870600Y21542781D01*
X9820330Y21664143D01*
X9727443Y21757030D01*
X9606081Y21807300D01*
X9175750Y21807300D01*
X9093200Y21724750D01*
X8737600Y21724750D01*
X8655050Y21807300D01*
X8224719Y21807300D01*
X8103357Y21757030D01*
X8010470Y21664143D01*
X7962900Y21549299D01*
X7962900Y25400000D01*
X7935832Y25536082D01*
X7858747Y25651447D01*
X6708547Y26801647D01*
X6593183Y26878732D01*
X6457100Y26905800D01*
X5195924Y26905800D01*
X5191472Y26912718D01*
X5146570Y26943399D01*
X5211443Y26970270D01*
X5304330Y27063157D01*
X5354600Y27184519D01*
X5354600Y27267650D01*
X5272050Y27350200D01*
X4874400Y27350200D01*
X4874400Y27252400D01*
X4574400Y27252400D01*
X4574400Y27350200D01*
X4176750Y27350200D01*
X4094200Y27267650D01*
X4094200Y27184519D01*
X4144470Y27063157D01*
X4237357Y26970270D01*
X4302384Y26943335D01*
X4261882Y26917272D01*
X4254043Y26905800D01*
X3344018Y26905800D01*
X3329027Y26981162D01*
X3095216Y27331085D01*
X2745293Y27564896D01*
X2332531Y27647000D01*
X2290269Y27647000D01*
X1877507Y27564896D01*
X1527584Y27331085D01*
X1293773Y26981162D01*
X1211669Y26568400D01*
X76200Y26568400D01*
X76200Y27715881D01*
X4094200Y27715881D01*
X4094200Y27632750D01*
X4176750Y27550200D01*
X4574400Y27550200D01*
X4574400Y27897850D01*
X4874400Y27897850D01*
X4874400Y27550200D01*
X5272050Y27550200D01*
X5354600Y27632750D01*
X5354600Y27715881D01*
X5304330Y27837243D01*
X5211443Y27930130D01*
X5090081Y27980400D01*
X4956950Y27980400D01*
X4874400Y27897850D01*
X4574400Y27897850D01*
X4491850Y27980400D01*
X4358719Y27980400D01*
X4237357Y27930130D01*
X4144470Y27837243D01*
X4094200Y27715881D01*
X76200Y27715881D01*
X76200Y28750272D01*
X1186848Y28750272D01*
X1262974Y28566447D01*
X1550177Y28206485D01*
X1953270Y27983832D01*
X2133600Y28024203D01*
X2133600Y28930600D01*
X2489200Y28930600D01*
X2489200Y28024203D01*
X2669530Y27983832D01*
X3072623Y28206485D01*
X3359826Y28566447D01*
X3435952Y28750272D01*
X3394554Y28930600D01*
X2489200Y28930600D01*
X2133600Y28930600D01*
X1228246Y28930600D01*
X1186848Y28750272D01*
X76200Y28750272D01*
X76200Y29070300D01*
X9156700Y29070300D01*
X9212770Y28788415D01*
X9372445Y28549445D01*
X9611415Y28389770D01*
X9893300Y28333700D01*
X13703300Y28333700D01*
X13985185Y28389770D01*
X14224155Y28549445D01*
X14383830Y28788415D01*
X14439900Y29070300D01*
X16776700Y29070300D01*
X16778050Y29063515D01*
X16776825Y29056704D01*
X16929094Y20808863D01*
X16928972Y20669424D01*
X17040877Y20398595D01*
X17247905Y20191205D01*
X17518538Y20078828D01*
X17811576Y20078572D01*
X18082405Y20190477D01*
X18289795Y20397505D01*
X18402172Y20668138D01*
X18402428Y20961176D01*
X18399607Y20968004D01*
X18314614Y25571800D01*
X27172922Y25571800D01*
X27172922Y24821800D01*
X27188862Y24737086D01*
X27238928Y24659282D01*
X27315320Y24607085D01*
X27406000Y24588722D01*
X28606000Y24588722D01*
X28690714Y24604662D01*
X28768518Y24654728D01*
X28820715Y24731120D01*
X28839078Y24821800D01*
X28839078Y25571800D01*
X29072922Y25571800D01*
X29072922Y24821800D01*
X29088862Y24737086D01*
X29138928Y24659282D01*
X29215320Y24607085D01*
X29306000Y24588722D01*
X30506000Y24588722D01*
X30590714Y24604662D01*
X30668518Y24654728D01*
X30720715Y24731120D01*
X30739078Y24821800D01*
X30739078Y25571800D01*
X30723138Y25656514D01*
X30673072Y25734318D01*
X30596680Y25786515D01*
X30506000Y25804878D01*
X29306000Y25804878D01*
X29221286Y25788938D01*
X29143482Y25738872D01*
X29091285Y25662480D01*
X29072922Y25571800D01*
X28839078Y25571800D01*
X28823138Y25656514D01*
X28773072Y25734318D01*
X28696680Y25786515D01*
X28606000Y25804878D01*
X27406000Y25804878D01*
X27321286Y25788938D01*
X27243482Y25738872D01*
X27191285Y25662480D01*
X27172922Y25571800D01*
X18314614Y25571800D01*
X18263625Y28333700D01*
X23570890Y28333700D01*
X25272845Y26631745D01*
X25511815Y26472070D01*
X25793700Y26416000D01*
X28955357Y26416000D01*
X29101876Y26415872D01*
X29372705Y26527777D01*
X29580095Y26734805D01*
X29692472Y27005438D01*
X29692728Y27298476D01*
X29580823Y27569305D01*
X29373795Y27776695D01*
X29103162Y27889072D01*
X28810124Y27889328D01*
X28809814Y27889200D01*
X26098810Y27889200D01*
X25397860Y28590150D01*
X25836600Y28590150D01*
X25836600Y28507019D01*
X25886870Y28385657D01*
X25979757Y28292770D01*
X26101119Y28242500D01*
X26234250Y28242500D01*
X26316800Y28325050D01*
X26316800Y28672700D01*
X25919150Y28672700D01*
X25836600Y28590150D01*
X25397860Y28590150D01*
X24396855Y29591155D01*
X24157885Y29750830D01*
X23876000Y29806900D01*
X17513300Y29806900D01*
X17506515Y29805550D01*
X17499704Y29806775D01*
X17365808Y29777562D01*
X17231415Y29750830D01*
X17225662Y29746986D01*
X17218902Y29745511D01*
X17106397Y29667295D01*
X16992445Y29591155D01*
X16988600Y29585401D01*
X16982920Y29581452D01*
X16908916Y29466145D01*
X16832770Y29352185D01*
X16831420Y29345398D01*
X16827683Y29339575D01*
X16803433Y29204695D01*
X16776700Y29070300D01*
X14439900Y29070300D01*
X14383830Y29352185D01*
X14224155Y29591155D01*
X13985185Y29750830D01*
X13703300Y29806900D01*
X9893300Y29806900D01*
X9611415Y29750830D01*
X9372445Y29591155D01*
X9212770Y29352185D01*
X9156700Y29070300D01*
X76200Y29070300D01*
X76200Y29466528D01*
X1186848Y29466528D01*
X1228246Y29286200D01*
X2133600Y29286200D01*
X2133600Y30192597D01*
X2489200Y30192597D01*
X2489200Y29286200D01*
X3394554Y29286200D01*
X3435952Y29466528D01*
X3359826Y29650353D01*
X3072623Y30010315D01*
X2669530Y30232968D01*
X2489200Y30192597D01*
X2133600Y30192597D01*
X1953270Y30232968D01*
X1550177Y30010315D01*
X1262974Y29650353D01*
X1186848Y29466528D01*
X76200Y29466528D01*
X76200Y31648400D01*
X1211669Y31648400D01*
X1293773Y31235638D01*
X1527584Y30885715D01*
X1877507Y30651904D01*
X2290269Y30569800D01*
X2332531Y30569800D01*
X2745293Y30651904D01*
X3095216Y30885715D01*
X3329027Y31235638D01*
X3336840Y31274920D01*
X9677185Y31274920D01*
X9866264Y30817312D01*
X10216070Y30466895D01*
X10673348Y30277017D01*
X11168480Y30276585D01*
X11626088Y30465664D01*
X11976505Y30815470D01*
X12166383Y31272748D01*
X12166384Y31274920D01*
X12217185Y31274920D01*
X12406264Y30817312D01*
X12756070Y30466895D01*
X13213348Y30277017D01*
X13708480Y30276585D01*
X14166088Y30465664D01*
X14516505Y30815470D01*
X14706383Y31272748D01*
X14706815Y31767880D01*
X14517736Y32225488D01*
X14197449Y32546335D01*
X25374600Y32546335D01*
X25374600Y31156865D01*
X25457739Y30738898D01*
X25694498Y30384563D01*
X26048833Y30147804D01*
X26111200Y30135398D01*
X26111200Y30095316D01*
X26082086Y30089838D01*
X26004282Y30039772D01*
X25952085Y29963380D01*
X25933722Y29872700D01*
X25933722Y29472700D01*
X25949662Y29387986D01*
X25999728Y29310182D01*
X26044630Y29279501D01*
X25979757Y29252630D01*
X25886870Y29159743D01*
X25836600Y29038381D01*
X25836600Y28955250D01*
X25919150Y28872700D01*
X26316800Y28872700D01*
X26316800Y28970500D01*
X26616800Y28970500D01*
X26616800Y28872700D01*
X26664600Y28872700D01*
X26664600Y28672700D01*
X26616800Y28672700D01*
X26616800Y28325050D01*
X26699350Y28242500D01*
X26832481Y28242500D01*
X26953843Y28292770D01*
X27046730Y28385657D01*
X27060664Y28419295D01*
X27066528Y28410182D01*
X27142920Y28357985D01*
X27233600Y28339622D01*
X27833600Y28339622D01*
X27918314Y28355562D01*
X27996118Y28405628D01*
X28003957Y28417100D01*
X34364477Y28417100D01*
X34433666Y28347790D01*
X34620309Y28270289D01*
X34822404Y28270112D01*
X35009183Y28347288D01*
X35152210Y28490066D01*
X35229711Y28676709D01*
X35229888Y28878804D01*
X35152712Y29065583D01*
X35009934Y29208610D01*
X34823291Y29286111D01*
X34621196Y29286288D01*
X34434417Y29209112D01*
X34353464Y29128300D01*
X28005124Y29128300D01*
X28000672Y29135218D01*
X27924280Y29187415D01*
X27833600Y29205778D01*
X27233600Y29205778D01*
X27148886Y29189838D01*
X27071082Y29139772D01*
X27061071Y29125121D01*
X27046730Y29159743D01*
X26953843Y29252630D01*
X26888816Y29279565D01*
X26929318Y29305628D01*
X26937157Y29317100D01*
X27062076Y29317100D01*
X27066528Y29310182D01*
X27142920Y29257985D01*
X27233600Y29239622D01*
X27833600Y29239622D01*
X27918314Y29255562D01*
X27996118Y29305628D01*
X28048315Y29382020D01*
X28066678Y29472700D01*
X28066678Y29872700D01*
X28050738Y29957414D01*
X28000672Y30035218D01*
X27924280Y30087415D01*
X27833600Y30105778D01*
X27233600Y30105778D01*
X27148886Y30089838D01*
X27071082Y30039772D01*
X27063243Y30028300D01*
X26938324Y30028300D01*
X26933872Y30035218D01*
X26857480Y30087415D01*
X26822400Y30094519D01*
X26822400Y30135398D01*
X26884767Y30147804D01*
X27239102Y30384563D01*
X27475861Y30738898D01*
X27559000Y31156865D01*
X27559000Y32546335D01*
X30454600Y32546335D01*
X30454600Y31156865D01*
X30537739Y30738898D01*
X30774498Y30384563D01*
X31128833Y30147804D01*
X31546800Y30064665D01*
X31964767Y30147804D01*
X32319102Y30384563D01*
X32555861Y30738898D01*
X32639000Y31156865D01*
X32639000Y32546335D01*
X32555861Y32964302D01*
X32319102Y33318637D01*
X31964767Y33555396D01*
X31546800Y33638535D01*
X31128833Y33555396D01*
X30774498Y33318637D01*
X30537739Y32964302D01*
X30454600Y32546335D01*
X27559000Y32546335D01*
X27475861Y32964302D01*
X27239102Y33318637D01*
X26884767Y33555396D01*
X26466800Y33638535D01*
X26048833Y33555396D01*
X25694498Y33318637D01*
X25457739Y32964302D01*
X25374600Y32546335D01*
X14197449Y32546335D01*
X14167930Y32575905D01*
X13710652Y32765783D01*
X13215520Y32766215D01*
X12757912Y32577136D01*
X12407495Y32227330D01*
X12217617Y31770052D01*
X12217185Y31274920D01*
X12166384Y31274920D01*
X12166815Y31767880D01*
X11977736Y32225488D01*
X11627930Y32575905D01*
X11170652Y32765783D01*
X10675520Y32766215D01*
X10217912Y32577136D01*
X9867495Y32227330D01*
X9677617Y31770052D01*
X9677185Y31274920D01*
X3336840Y31274920D01*
X3411131Y31648400D01*
X3329027Y32061162D01*
X3095216Y32411085D01*
X2745293Y32644896D01*
X2332531Y32727000D01*
X2290269Y32727000D01*
X1877507Y32644896D01*
X1527584Y32411085D01*
X1293773Y32061162D01*
X1211669Y31648400D01*
X76200Y31648400D01*
X76200Y33705800D01*
X38277800Y33705800D01*
X38277800Y17068800D01*
G36*
X11634300Y14756300D02*
X13003700Y14756300D01*
X13003700Y14776300D01*
X13359300Y14776300D01*
X13359300Y14756300D01*
X13379300Y14756300D01*
X13379300Y14400700D01*
X13359300Y14400700D01*
X13359300Y13031300D01*
X13379300Y13031300D01*
X13379300Y12675700D01*
X13359300Y12675700D01*
X13359300Y12655700D01*
X13003700Y12655700D01*
X13003700Y12675700D01*
X11634300Y12675700D01*
X11634300Y12655700D01*
X11278700Y12655700D01*
X11278700Y12675700D01*
X11258700Y12675700D01*
X11258700Y13031300D01*
X11278700Y13031300D01*
X11278700Y14400700D01*
X11634300Y14400700D01*
X11634300Y13031300D01*
X13003700Y13031300D01*
X13003700Y14400700D01*
X11634300Y14400700D01*
X11278700Y14400700D01*
X11258700Y14400700D01*
X11258700Y14756300D01*
X11278700Y14756300D01*
X11278700Y14776300D01*
X11634300Y14776300D01*
X11634300Y14756300D01*
X11634300Y14756300D01*
G37*
X11634300Y14756300D02*
X13003700Y14756300D01*
X13003700Y14776300D01*
X13359300Y14776300D01*
X13359300Y14756300D01*
X13379300Y14756300D01*
X13379300Y14400700D01*
X13359300Y14400700D01*
X13359300Y13031300D01*
X13379300Y13031300D01*
X13379300Y12675700D01*
X13359300Y12675700D01*
X13359300Y12655700D01*
X13003700Y12655700D01*
X13003700Y12675700D01*
X11634300Y12675700D01*
X11634300Y12655700D01*
X11278700Y12655700D01*
X11278700Y12675700D01*
X11258700Y12675700D01*
X11258700Y13031300D01*
X11278700Y13031300D01*
X11278700Y14400700D01*
X11634300Y14400700D01*
X11634300Y13031300D01*
X13003700Y13031300D01*
X13003700Y14400700D01*
X11634300Y14400700D01*
X11278700Y14400700D01*
X11258700Y14400700D01*
X11258700Y14756300D01*
X11278700Y14756300D01*
X11278700Y14776300D01*
X11634300Y14776300D01*
X11634300Y14756300D01*
G36*
X17569622Y16330800D02*
X17585562Y16246086D01*
X17635628Y16168282D01*
X17712020Y16116085D01*
X17802700Y16097722D01*
X19052700Y16097722D01*
X19137414Y16113662D01*
X19215218Y16163728D01*
X19227800Y16182142D01*
X19227800Y16065500D01*
X19233803Y16035854D01*
X19250868Y16010879D01*
X19276305Y15994511D01*
X19297609Y15990503D01*
X18628706Y15321600D01*
X17537800Y15321600D01*
X17537800Y15375350D01*
X17455250Y15457900D01*
X17057600Y15457900D01*
X17057600Y15385100D01*
X16757600Y15385100D01*
X16757600Y15457900D01*
X16709800Y15457900D01*
X16709800Y15707900D01*
X16757600Y15707900D01*
X16757600Y15780700D01*
X17057600Y15780700D01*
X17057600Y15707900D01*
X17455250Y15707900D01*
X17537800Y15790450D01*
X17537800Y15898581D01*
X17487530Y16019943D01*
X17394643Y16112830D01*
X17353527Y16129861D01*
X17377718Y16145428D01*
X17429915Y16221820D01*
X17448278Y16312500D01*
X17448278Y16475200D01*
X17569622Y16475200D01*
X17569622Y16330800D01*
X17569622Y16330800D01*
G37*
X17569622Y16330800D02*
X17585562Y16246086D01*
X17635628Y16168282D01*
X17712020Y16116085D01*
X17802700Y16097722D01*
X19052700Y16097722D01*
X19137414Y16113662D01*
X19215218Y16163728D01*
X19227800Y16182142D01*
X19227800Y16065500D01*
X19233803Y16035854D01*
X19250868Y16010879D01*
X19276305Y15994511D01*
X19297609Y15990503D01*
X18628706Y15321600D01*
X17537800Y15321600D01*
X17537800Y15375350D01*
X17455250Y15457900D01*
X17057600Y15457900D01*
X17057600Y15385100D01*
X16757600Y15385100D01*
X16757600Y15457900D01*
X16709800Y15457900D01*
X16709800Y15707900D01*
X16757600Y15707900D01*
X16757600Y15780700D01*
X17057600Y15780700D01*
X17057600Y15707900D01*
X17455250Y15707900D01*
X17537800Y15790450D01*
X17537800Y15898581D01*
X17487530Y16019943D01*
X17394643Y16112830D01*
X17353527Y16129861D01*
X17377718Y16145428D01*
X17429915Y16221820D01*
X17448278Y16312500D01*
X17448278Y16475200D01*
X17569622Y16475200D01*
X17569622Y16330800D01*
M02*
