G04 #@! TF.FileFunction,Soldermask,Top*
%FSLAX46Y46*%
G04 Gerber Fmt 4.6, Leading zero omitted, Abs format (unit mm)*
G04 Created by KiCad (PCBNEW 4.0.5) date 05/07/17 17:05:54*
%MOMM*%
%LPD*%
G01*
G04 APERTURE LIST*
%ADD10C,0.100000*%
%ADD11R,1.225500X0.654000*%
%ADD12R,0.654000X1.225500*%
%ADD13R,0.654000X1.670000*%
%ADD14R,2.125000X2.125000*%
%ADD15R,1.550000X1.400000*%
%ADD16R,0.900000X1.000000*%
%ADD17R,1.000000X0.900000*%
%ADD18C,1.187400*%
%ADD19R,1.400000X2.200000*%
%ADD20R,0.533400X0.533400*%
%ADD21R,2.100000X2.100000*%
%ADD22O,2.100000X2.100000*%
%ADD23R,1.150000X1.600000*%
%ADD24R,1.300000X0.900000*%
%ADD25R,1.200000X1.000000*%
%ADD26R,2.940000X1.421080*%
%ADD27R,0.900000X1.300000*%
%ADD28C,0.781000*%
G04 APERTURE END LIST*
D10*
D11*
X9855200Y15466000D03*
X9855200Y14966000D03*
X9855200Y14466000D03*
X9855200Y13966000D03*
X9855200Y13466000D03*
X9855200Y12966000D03*
X9855200Y12466000D03*
X9855200Y11966000D03*
D12*
X10569000Y11252200D03*
X11069000Y11252200D03*
X11569000Y11252200D03*
X12069000Y11252200D03*
X12569000Y11252200D03*
X13069000Y11252200D03*
X13569000Y11252200D03*
X14069000Y11252200D03*
D11*
X14782800Y11966000D03*
X14782800Y12466000D03*
X14782800Y12966000D03*
X14782800Y13466000D03*
X14782800Y13966000D03*
X14782800Y14466000D03*
X14782800Y14966000D03*
X14782800Y15466000D03*
D12*
X14069000Y16179800D03*
X13569000Y16179800D03*
X13069000Y16179800D03*
X12569000Y16179800D03*
X12069000Y16179800D03*
X11569000Y16179800D03*
D13*
X11049000Y15951200D03*
D12*
X10569000Y16179800D03*
D14*
X13181500Y12853500D03*
X13181500Y14578500D03*
X11456500Y12853500D03*
X11456500Y14578500D03*
D15*
X16498600Y9510800D03*
X18248600Y9510800D03*
X18248600Y10910800D03*
X16498600Y10910800D03*
D16*
X22783800Y21149400D03*
X22783800Y20049400D03*
X19659600Y10118000D03*
X19659600Y11218000D03*
D17*
X17415600Y8178800D03*
X16315600Y8178800D03*
D16*
X21526500Y21230500D03*
X21526500Y22330500D03*
X19659600Y9084400D03*
X19659600Y7984400D03*
D18*
X5448300Y4533900D03*
X5448300Y9537700D03*
X10452100Y9537700D03*
X10452100Y4533900D03*
D19*
X20289200Y18389600D03*
X22789200Y18389600D03*
D20*
X15697200Y13957300D03*
X15697200Y13474700D03*
X16713200Y13957300D03*
X16713200Y13474700D03*
D21*
X4267200Y27635200D03*
D22*
X4267200Y25095200D03*
X4267200Y22555200D03*
X4267200Y20015200D03*
X4267200Y17475200D03*
X4267200Y14935200D03*
D17*
X12894400Y18338800D03*
X11794400Y18338800D03*
X11794400Y19304000D03*
X12894400Y19304000D03*
D16*
X20243800Y21162100D03*
X20243800Y20062100D03*
D23*
X35077400Y31506200D03*
X35077400Y29606200D03*
D24*
X14630400Y8573200D03*
X14630400Y7073200D03*
D16*
X20091400Y13961200D03*
X20091400Y12861200D03*
D17*
X22279700Y13970000D03*
X21179700Y13970000D03*
D25*
X33655000Y31789000D03*
X33655000Y33489000D03*
X6959600Y12815200D03*
X6959600Y14515200D03*
D26*
X14884400Y19789140D03*
X14884400Y17498060D03*
D24*
X13157200Y8573200D03*
X13157200Y7073200D03*
D27*
X16877600Y16459200D03*
X18377600Y16459200D03*
D24*
X8483600Y12738800D03*
X8483600Y11238800D03*
D28*
X7366000Y11226800D03*
M02*
