G04 #@! TF.FileFunction,Soldermask,Bot*
%FSLAX46Y46*%
G04 Gerber Fmt 4.6, Leading zero omitted, Abs format (unit mm)*
G04 Created by KiCad (PCBNEW 4.0.5) date 05/26/17 15:10:00*
%MOMM*%
%LPD*%
G01*
G04 APERTURE LIST*
%ADD10C,0.100000*%
%ADD11C,2.432000*%
%ADD12R,1.600000X1.150000*%
%ADD13R,1.000000X1.200000*%
%ADD14R,1.650000X1.400000*%
%ADD15R,1.150000X1.200000*%
%ADD16R,1.100000X1.000000*%
%ADD17R,2.100000X2.100000*%
%ADD18O,2.100000X2.100000*%
%ADD19O,2.127200X3.448000*%
%ADD20R,0.900000X1.300000*%
%ADD21R,0.800000X1.000000*%
%ADD22C,0.781000*%
%ADD23R,1.000000X0.800000*%
G04 APERTURE END LIST*
D10*
D11*
X13462000Y31521400D03*
X10922000Y31521400D03*
X12192000Y4597400D03*
D12*
X6842800Y32943800D03*
X4942800Y32943800D03*
D13*
X4992000Y31521400D03*
X6692000Y31521400D03*
D14*
X17932400Y12804900D03*
X17932400Y14804900D03*
D15*
X16357600Y12712000D03*
X16357600Y14212000D03*
D16*
X36385500Y28769400D03*
X36385500Y27669400D03*
X24472900Y4212500D03*
X24472900Y5312500D03*
D17*
X2311400Y18948400D03*
D18*
X2311400Y21488400D03*
X2311400Y24028400D03*
X2311400Y26568400D03*
X2311400Y29108400D03*
X2311400Y31648400D03*
D19*
X31546800Y31851600D03*
X26466800Y31851600D03*
X31546800Y19151600D03*
X26466800Y19151600D03*
D20*
X7022400Y18999200D03*
X8522400Y18999200D03*
D10*
G36*
X21685413Y11275506D02*
X20978306Y11982613D01*
X21543991Y12548298D01*
X22251098Y11841191D01*
X21685413Y11275506D01*
X21685413Y11275506D01*
G37*
G36*
X22321809Y11911902D02*
X21614702Y12619009D01*
X22180387Y13184694D01*
X22887494Y12477587D01*
X22321809Y11911902D01*
X22321809Y11911902D01*
G37*
D21*
X14737500Y17462500D03*
X13837500Y17462500D03*
X15601100Y19773900D03*
X14701100Y19773900D03*
X20657400Y18338800D03*
X21557400Y18338800D03*
D22*
X7023100Y20053300D03*
X8750300Y9220200D03*
X22961600Y11887200D03*
X17716500Y15925800D03*
X15595600Y18719800D03*
X13830300Y18364200D03*
X18935700Y10058400D03*
X21564600Y19202400D03*
D21*
X8744800Y10109200D03*
X9644800Y10109200D03*
D23*
X18440400Y16833000D03*
X18440400Y15933000D03*
D21*
X18041200Y10909300D03*
X18941200Y10909300D03*
X20922400Y24028400D03*
X20022400Y24028400D03*
M02*
