M48
;DRILL file {KiCad 4.0.5} date 05/07/17 17:06:00
;FORMAT={2:4/ absolute / inch / suppress leading zeros}
FMAT,2
INCH,TZ
T1C0.010
T2C0.020
T3C0.030
T4C0.039
%
G90
G05
M72
T1
X600Y8720
X600Y6720
X600Y4720
X600Y2720
X1425Y14350
X2940Y10880
X2980Y5040
X3630Y12515
X4350Y5900
X4350Y5650
X4350Y5400
X4350Y5150
X4350Y4900
X4600Y5900
X4600Y5650
X4600Y5400
X4600Y5150
X4600Y4900
X4630Y12515
X4700Y6780
X4850Y5900
X4850Y5650
X4850Y5400
X4850Y5150
X4850Y4900
X5100Y5900
X5100Y5650
X5100Y5400
X5100Y5150
X5100Y4900
X5190Y3090
X5350Y5900
X5350Y5650
X5350Y5400
X5350Y5150
X5350Y4900
X5500Y7880
X5630Y12515
X5760Y3090
X6190Y6910
X6220Y6140
X6260Y2660
X6330Y5060
X6500Y4320
X6520Y2660
X6630Y12515
X6780Y2660
X6800Y11505
X6800Y10500
X6800Y9500
X6800Y8500
X6820Y2140
X6920Y3120
X7040Y2660
X7200Y3760
X7300Y2660
X7340Y2060
X7420Y3120
X7440Y8840
X7440Y8520
X7560Y2660
X7595Y2340
X7630Y12515
X7820Y2660
X8060Y5820
X8075Y8825
X8080Y2660
X8220Y4180
X8220Y3920
X8220Y3660
X8220Y3400
X8220Y3140
X8220Y2880
X8250Y6010
X8475Y8800
X8475Y6150
X8630Y12515
X8775Y6150
X8940Y4860
X9075Y6150
X9300Y8800
X9375Y8400
X9375Y7900
X9375Y6625
X9375Y6150
X9400Y4850
X9630Y12515
X9700Y6150
X9925Y8755
X9925Y8250
X9925Y7800
X9925Y7350
X9925Y6900
X9925Y6450
X10000Y6150
X10000Y4850
X10600Y6150
X10600Y4850
X10630Y12515
X11200Y6150
X11200Y4850
X11630Y12515
X11660Y6320
X11680Y6965
X11800Y4850
X12000Y4700
X12000Y4450
X12000Y4200
X12000Y3950
X12000Y3700
X12000Y3450
X12000Y3200
X12000Y2950
X12000Y2700
X12000Y2450
X12000Y2200
X12000Y1950
X12000Y1700
X12000Y1450
X12000Y1200
X12000Y950
X12000Y700
X12000Y450
X12000Y200
X12145Y6965
X12595Y6965
X12630Y12515
X13045Y6965
X13260Y13960
X13495Y6965
X13945Y6965
T2
X2145Y3755
X2145Y1785
X4115Y3755
X4115Y1785
T3
X2700Y8900
X2700Y7940
X2720Y9640
X3160Y1840
X5840Y2220
X6800Y680
X8660Y4480
X8660Y2540
T4
X1680Y10880
X1680Y9880
X1680Y8880
X1680Y7880
X1680Y6880
X1680Y5880
T0
M30
