G04 #@! TF.FileFunction,Copper,L1,Top,Signal*
%FSLAX46Y46*%
G04 Gerber Fmt 4.6, Leading zero omitted, Abs format (unit mm)*
G04 Created by KiCad (PCBNEW 4.0.5) date 05/07/17 14:10:49*
%MOMM*%
%LPD*%
G01*
G04 APERTURE LIST*
%ADD10C,0.100000*%
%ADD11C,0.356000*%
%ADD12R,0.825500X0.254000*%
%ADD13R,0.254000X0.825500*%
%ADD14R,0.254000X1.270000*%
%ADD15R,1.725000X1.725000*%
%ADD16R,1.150000X1.000000*%
%ADD17R,0.500000X0.600000*%
%ADD18R,0.600000X0.500000*%
%ADD19C,0.787400*%
%ADD20R,1.000000X1.800000*%
%ADD21R,0.330200X0.330200*%
%ADD22R,1.700000X1.700000*%
%ADD23O,1.700000X1.700000*%
%ADD24R,0.750000X1.200000*%
%ADD25R,0.900000X0.500000*%
%ADD26R,0.800000X0.800000*%
%ADD27R,0.800000X0.600000*%
%ADD28R,2.540000X1.021080*%
%ADD29R,0.500000X0.900000*%
%ADD30R,0.400000X0.600000*%
%ADD31C,0.381000*%
%ADD32R,0.700000X1.300000*%
%ADD33C,1.016000*%
%ADD34C,0.558800*%
%ADD35C,0.558800*%
%ADD36C,1.270000*%
%ADD37C,0.254000*%
%ADD38C,0.152400*%
G04 APERTURE END LIST*
D10*
D11*
X22707600Y12344400D03*
X12877800Y9398000D03*
X21564600Y12369800D03*
X21564600Y11734800D03*
X21564600Y11099800D03*
X21564600Y9194800D03*
X21564600Y9829800D03*
X21564600Y10464800D03*
X21564600Y8559800D03*
X30480000Y5588000D03*
X30480000Y8128000D03*
X30480000Y11303000D03*
X30480000Y11938000D03*
X30480000Y8763000D03*
X30480000Y6858000D03*
X30480000Y6223000D03*
X30480000Y9398000D03*
X18516600Y18948400D03*
X30480000Y10668000D03*
X30480000Y10033000D03*
X30480000Y7493000D03*
X21386800Y6781800D03*
X30480000Y4318000D03*
X16941800Y6781800D03*
X30480000Y4953000D03*
X18846800Y6781800D03*
X20955000Y15265400D03*
X18897600Y22453600D03*
X19481800Y6781800D03*
X17576800Y6781800D03*
X18211800Y6781800D03*
X20116800Y6781800D03*
X21564600Y7924800D03*
X16306800Y6781800D03*
X30480000Y3683000D03*
X30480000Y3048000D03*
X14630400Y7848600D03*
X14884400Y16637000D03*
X30480000Y1778000D03*
X30480000Y1143000D03*
X14732000Y9575800D03*
X20751800Y6781800D03*
X3619500Y36449000D03*
X29972000Y12319000D03*
X30848300Y16052800D03*
X28448000Y15621000D03*
X26924000Y15621000D03*
X25400000Y15621000D03*
X24638000Y15621000D03*
X23812500Y15621000D03*
X23050500Y15621000D03*
X23812500Y16827500D03*
X23812500Y20066000D03*
X23812500Y21336000D03*
X23622000Y22352000D03*
X20510500Y22415500D03*
X35420300Y17691100D03*
X20472400Y14782800D03*
X34277300Y17691100D03*
X33134300Y17691100D03*
X31991300Y17691100D03*
X23876000Y12319000D03*
X18440400Y12395200D03*
X28448000Y12319000D03*
X26924000Y12319000D03*
X25400000Y12319000D03*
X13182600Y7848600D03*
X18288000Y9550400D03*
X16510000Y10972800D03*
X20116800Y7924800D03*
X18846800Y7924800D03*
X20548600Y10083800D03*
X20548600Y11353800D03*
X30480000Y2413000D03*
X17576800Y7924800D03*
X19075400Y12395200D03*
X30480000Y508000D03*
X21564600Y7289800D03*
X30848300Y17691100D03*
X25209500Y20955000D03*
X25209500Y19812000D03*
X25209500Y18669000D03*
X25209500Y17526000D03*
X25209500Y16383000D03*
X22288500Y15621000D03*
X21526500Y15621000D03*
X21526500Y22352000D03*
X16967200Y22910800D03*
X29464000Y15621000D03*
X18897600Y21640800D03*
X13589000Y12446000D03*
X12954000Y12446000D03*
X12319000Y12446000D03*
X11684000Y12446000D03*
X11049000Y12446000D03*
D12*
X9855200Y15466000D03*
X9855200Y14966000D03*
X9855200Y14466000D03*
X9855200Y13966000D03*
X9855200Y13466000D03*
X9855200Y12966000D03*
X9855200Y12466000D03*
X9855200Y11966000D03*
D13*
X10569000Y11252200D03*
X11069000Y11252200D03*
X11569000Y11252200D03*
X12069000Y11252200D03*
X12569000Y11252200D03*
X13069000Y11252200D03*
X13569000Y11252200D03*
X14069000Y11252200D03*
D12*
X14782800Y11966000D03*
X14782800Y12466000D03*
X14782800Y12966000D03*
X14782800Y13466000D03*
X14782800Y13966000D03*
X14782800Y14466000D03*
X14782800Y14966000D03*
X14782800Y15466000D03*
D13*
X14069000Y16179800D03*
X13569000Y16179800D03*
X13069000Y16179800D03*
X12569000Y16179800D03*
X12069000Y16179800D03*
X11569000Y16179800D03*
D14*
X11049000Y15951200D03*
D13*
X10569000Y16179800D03*
D15*
X13181500Y12853500D03*
X13181500Y14578500D03*
X11456500Y12853500D03*
X11456500Y14578500D03*
D11*
X11049000Y13081000D03*
X11684000Y13081000D03*
X12319000Y13081000D03*
X12954000Y13081000D03*
X13589000Y13081000D03*
X13589000Y13716000D03*
X12954000Y13716000D03*
X12319000Y13716000D03*
X11684000Y13716000D03*
X11049000Y13716000D03*
X11049000Y14351000D03*
X11684000Y14351000D03*
X12319000Y14351000D03*
X12954000Y14351000D03*
X13589000Y14351000D03*
X13589000Y14986000D03*
X12954000Y14986000D03*
X12319000Y14986000D03*
X11684000Y14986000D03*
D16*
X16498600Y9510800D03*
X18248600Y9510800D03*
X18248600Y10910800D03*
X16498600Y10910800D03*
D11*
X11049000Y14986000D03*
D17*
X20256500Y21187500D03*
X20256500Y20087500D03*
X19659600Y10118000D03*
X19659600Y11218000D03*
D18*
X17415600Y8178800D03*
X16315600Y8178800D03*
D17*
X21526500Y21230500D03*
X21526500Y22330500D03*
X19659600Y9084400D03*
X19659600Y7984400D03*
D19*
X5448300Y4533900D03*
X5448300Y9537700D03*
X10452100Y9537700D03*
X10452100Y4533900D03*
D20*
X20289200Y18389600D03*
X22789200Y18389600D03*
D21*
X15697200Y13957300D03*
X15697200Y13474700D03*
X16713200Y13957300D03*
X16713200Y13474700D03*
D22*
X4267200Y27635200D03*
D23*
X4267200Y25095200D03*
X4267200Y22555200D03*
X4267200Y20015200D03*
X4267200Y17475200D03*
X4267200Y14935200D03*
D18*
X12894400Y18338800D03*
X11794400Y18338800D03*
X11794400Y19304000D03*
X12894400Y19304000D03*
D17*
X22809200Y21174800D03*
X22809200Y20074800D03*
D24*
X35204400Y31282600D03*
X35204400Y33182600D03*
D25*
X14630400Y8573200D03*
X14630400Y7073200D03*
D17*
X20091400Y13961200D03*
X20091400Y12861200D03*
D18*
X22279700Y13970000D03*
X21179700Y13970000D03*
D26*
X24980800Y8178800D03*
X23380800Y8178800D03*
D27*
X33655000Y31789000D03*
X33655000Y33489000D03*
X6959600Y12815200D03*
X6959600Y14515200D03*
D28*
X14884400Y19789140D03*
X14884400Y17498060D03*
D25*
X13157200Y8573200D03*
X13157200Y7073200D03*
D29*
X16877600Y16459200D03*
X18377600Y16459200D03*
D30*
X23527600Y9702800D03*
X24427600Y9702800D03*
D25*
X8483600Y12738800D03*
X8483600Y11238800D03*
D31*
X7366000Y11226800D03*
D32*
X-110297000Y117983000D03*
X-108397000Y117983000D03*
D33*
X7467600Y27635200D03*
X10617200Y24485600D03*
D34*
X7569200Y12801600D03*
X1524000Y6908800D03*
X1524000Y11988800D03*
X1524000Y17068800D03*
X1524000Y22148800D03*
X15798800Y15595600D03*
D33*
X26873200Y23469600D03*
X20777200Y24485600D03*
X15697200Y24485600D03*
D34*
X16103600Y12801600D03*
D33*
X6908800Y24485600D03*
X6858000Y22606000D03*
D34*
X11938000Y17221200D03*
X33680400Y35458400D03*
X13970000Y20015200D03*
D33*
X6858000Y20167600D03*
D35*
X13181500Y14578500D02*
X13589000Y14986000D01*
X12954000Y14986000D02*
X13181500Y14578500D01*
X13181500Y14578500D02*
X12726500Y14578500D01*
X12726500Y14578500D02*
X12319000Y14986000D01*
X11684000Y14986000D02*
X11456500Y14578500D01*
X11456500Y14578500D02*
X11049000Y14986000D01*
X11049000Y14351000D02*
X11456500Y14578500D01*
X11456500Y14578500D02*
X11684000Y14351000D01*
X12319000Y14351000D02*
X13181500Y14578500D01*
X13181500Y14578500D02*
X12954000Y14351000D01*
X13589000Y14351000D02*
X13181500Y14578500D01*
X13181500Y12853500D02*
X13181500Y13308500D01*
X13181500Y13308500D02*
X13589000Y13716000D01*
X12954000Y13716000D02*
X13181500Y12853500D01*
X13181500Y12853500D02*
X12319000Y13716000D01*
X11684000Y13716000D02*
X11456500Y12853500D01*
X11456500Y12853500D02*
X11456500Y13308500D01*
X11456500Y13308500D02*
X11049000Y13716000D01*
X11049000Y13081000D02*
X11456500Y12853500D01*
X11456500Y12853500D02*
X11684000Y13081000D01*
X12319000Y13081000D02*
X13181500Y12853500D01*
X13181500Y12853500D02*
X12954000Y13081000D01*
X13589000Y13081000D02*
X13181500Y12853500D01*
X13181500Y12853500D02*
X13589000Y12446000D01*
X12954000Y12446000D02*
X13181500Y12853500D01*
X13181500Y12853500D02*
X12726500Y12853500D01*
X12726500Y12853500D02*
X12319000Y12446000D01*
X11684000Y12446000D02*
X11456500Y12853500D01*
X11456500Y12853500D02*
X11049000Y12446000D01*
D36*
X7467600Y27635200D02*
X10617200Y24485600D01*
X10617200Y24485600D02*
X10642600Y24485600D01*
X10642600Y24485600D02*
X10617200Y24485600D01*
X4419600Y27533600D02*
X4267200Y27686000D01*
X4267200Y27686000D02*
X4267200Y27635200D01*
D35*
X35204400Y31282600D02*
X33822600Y31282600D01*
X33782000Y31242000D02*
X33629600Y31242000D01*
X33822600Y31282600D02*
X33782000Y31242000D01*
D36*
X1524000Y11988800D02*
X6350000Y11988800D01*
X6350000Y11988800D02*
X6908800Y12547600D01*
X6908800Y12547600D02*
X6959600Y12815200D01*
D35*
X7569200Y12801600D02*
X7569200Y12815200D01*
D37*
X9855200Y12966000D02*
X8546400Y12966000D01*
X8546400Y12966000D02*
X8382000Y12801600D01*
X8382000Y12801600D02*
X8483600Y12738800D01*
D35*
X6959600Y12815200D02*
X7569200Y12815200D01*
X7569200Y12815200D02*
X8470000Y12815200D01*
X8470000Y12815200D02*
X8483600Y12801600D01*
X8483600Y12801600D02*
X8483600Y12738800D01*
D36*
X1524000Y11988800D02*
X1524000Y6908800D01*
X1524000Y22148800D02*
X1524000Y17068800D01*
D37*
X14782800Y15466000D02*
X15669200Y15466000D01*
X15669200Y15466000D02*
X15798800Y15595600D01*
D36*
X20777200Y24485600D02*
X15697200Y24485600D01*
X33629600Y31242000D02*
X33629600Y31242000D01*
X33629600Y31242000D02*
X33629600Y30276800D01*
X33629600Y30276800D02*
X26873200Y23520400D01*
X26873200Y23520400D02*
X26873200Y23469600D01*
D37*
X33655000Y31789000D02*
X33655000Y31267400D01*
X33655000Y31267400D02*
X33629600Y31242000D01*
D36*
X26873200Y23469600D02*
X26873200Y17373600D01*
D37*
X14782800Y12966000D02*
X15939200Y12966000D01*
X15939200Y12966000D02*
X16103600Y12801600D01*
X14795500Y12954000D02*
X14782800Y12966000D01*
X9842500Y12954000D02*
X9855200Y12966000D01*
X9855200Y15466000D02*
X9855200Y22707600D01*
X8077200Y24485600D02*
X6908800Y24485600D01*
X9855200Y22707600D02*
X8077200Y24485600D01*
X9855200Y15466000D02*
X9578400Y15466000D01*
X9855200Y14966000D02*
X9418000Y14966000D01*
X8585200Y22606000D02*
X6858000Y22606000D01*
X9194800Y21996400D02*
X8585200Y22606000D01*
X9194800Y16002000D02*
X9194800Y21996400D01*
X9042400Y15849600D02*
X9194800Y16002000D01*
X9042400Y15341600D02*
X9042400Y15849600D01*
X9418000Y14966000D02*
X9042400Y15341600D01*
X14069000Y16179800D02*
X16840200Y16179800D01*
X16840200Y16179800D02*
X16865600Y16154400D01*
X16865600Y16154400D02*
X16877600Y16459200D01*
X14122400Y16205200D02*
X14069000Y16179800D01*
X10569000Y11252200D02*
X10569000Y9603800D01*
X10569000Y9603800D02*
X10490200Y9525000D01*
X10490200Y9525000D02*
X10452100Y9537700D01*
X10541000Y11239500D02*
X10569000Y11252200D01*
X24980800Y8178800D02*
X24980800Y7099200D01*
X13081000Y10541000D02*
X13081000Y11176000D01*
X11887200Y9347200D02*
X13081000Y10541000D01*
X11887200Y6451600D02*
X11887200Y9347200D01*
X12649200Y5689600D02*
X11887200Y6451600D01*
X23571200Y5689600D02*
X12649200Y5689600D01*
X24980800Y7099200D02*
X23571200Y5689600D01*
X13081000Y11176000D02*
X13069000Y11252200D01*
X13569000Y11252200D02*
X13569000Y9149400D01*
X13569000Y9149400D02*
X13157200Y8737600D01*
X13157200Y8737600D02*
X13157200Y8585200D01*
X13157200Y8585200D02*
X13157200Y8573200D01*
X14069000Y11252200D02*
X14069000Y9553000D01*
X14630400Y8991600D02*
X14630400Y8585200D01*
X14069000Y9553000D02*
X14630400Y8991600D01*
X14630400Y8585200D02*
X14630400Y8573200D01*
X20256500Y20087500D02*
X20256500Y18542000D01*
X20340000Y20046000D02*
X20256500Y20129500D01*
X20256500Y20129500D02*
X20256500Y20087500D01*
X14782800Y14466000D02*
X19038000Y14466000D01*
X22352000Y17208500D02*
X22796500Y17653000D01*
X21018500Y17208500D02*
X22352000Y17208500D01*
X20828000Y17018000D02*
X21018500Y17208500D01*
X20828000Y16256000D02*
X20828000Y17018000D01*
X19038000Y14466000D02*
X20828000Y16256000D01*
X22796500Y17653000D02*
X22796500Y18478500D01*
X22796500Y18478500D02*
X22840000Y18415000D01*
X22796500Y18351500D02*
X22840000Y18415000D01*
X22796500Y20087500D02*
X22796500Y18351500D01*
X11938000Y17221200D02*
X11963400Y17246600D01*
X11963400Y17246600D02*
X12268200Y17246600D01*
X12268200Y17246600D02*
X12573000Y16941800D01*
X12573000Y16941800D02*
X12573000Y16306800D01*
X12573000Y16306800D02*
X12569000Y16179800D01*
X12573000Y16192500D02*
X12569000Y16179800D01*
X18248600Y10910800D02*
X18248600Y11571000D01*
X15595600Y12446000D02*
X14833600Y12446000D01*
X15900400Y12141200D02*
X15595600Y12446000D01*
X17678400Y12141200D02*
X15900400Y12141200D01*
X18248600Y11571000D02*
X17678400Y12141200D01*
X14833600Y12446000D02*
X14782800Y12466000D01*
X19659600Y11218000D02*
X18584000Y11218000D01*
X18584000Y11218000D02*
X18237200Y10871200D01*
X18237200Y10871200D02*
X18248600Y10910800D01*
X18237200Y10922000D02*
X18248600Y10910800D01*
X14795500Y12446000D02*
X14782800Y12466000D01*
X16315600Y8178800D02*
X16315600Y9406800D01*
X16315600Y9406800D02*
X16560800Y9652000D01*
X16560800Y9652000D02*
X16498600Y9510800D01*
X14782800Y11966000D02*
X14782800Y10363200D01*
X15595600Y9550400D02*
X16459200Y9550400D01*
X14782800Y10363200D02*
X15595600Y9550400D01*
X16459200Y9550400D02*
X16498600Y9510800D01*
X14782800Y13966000D02*
X15693200Y13966000D01*
X15693200Y13966000D02*
X15697200Y13970000D01*
X15697200Y13970000D02*
X15697200Y13957300D01*
X14782800Y13466000D02*
X15693200Y13466000D01*
X15693200Y13466000D02*
X15697200Y13462000D01*
X15697200Y13462000D02*
X15697200Y13474700D01*
X13569000Y16179800D02*
X13569000Y16871000D01*
X13569000Y16871000D02*
X14122400Y17424400D01*
X14122400Y17424400D02*
X14884400Y17498060D01*
X13589000Y16192500D02*
X13569000Y16179800D01*
X33655000Y33489000D02*
X33655000Y35433000D01*
X33655000Y35433000D02*
X33680400Y35458400D01*
X9906000Y14478000D02*
X9855200Y14466000D01*
X9842500Y14478000D02*
X9855200Y14466000D01*
X9842500Y14478000D02*
X9855200Y14466000D01*
X9906000Y13462000D02*
X9855200Y13466000D01*
X9715500Y12446000D02*
X9855200Y12466000D01*
X9588500Y11938000D02*
X9855200Y11966000D01*
X11049000Y11176000D02*
X11069000Y11252200D01*
X11557000Y11303000D02*
X11569000Y11252200D01*
X12065000Y11049000D02*
X12069000Y11252200D01*
X12573000Y11303000D02*
X12569000Y11252200D01*
X12065000Y16192500D02*
X12069000Y16179800D01*
X11557000Y16319500D02*
X11569000Y16179800D01*
X10541000Y16256000D02*
X10569000Y16179800D01*
X20091400Y13961200D02*
X21192400Y13961200D01*
X21192400Y13961200D02*
X21196300Y13957300D01*
X21196300Y13957300D02*
X21179700Y13970000D01*
X16713200Y13957300D02*
X19964400Y13957300D01*
X19964400Y13957300D02*
X19951700Y13957300D01*
X19951700Y13957300D02*
X19939000Y13957300D01*
X19939000Y13957300D02*
X19926300Y13957300D01*
X13970000Y20015200D02*
X14884400Y19789140D01*
X13069000Y16179800D02*
X13069000Y19317400D01*
X13069000Y19317400D02*
X13512800Y19761200D01*
X13512800Y19761200D02*
X14935200Y19761200D01*
X14935200Y19761200D02*
X14884400Y19789140D01*
X22796500Y21187500D02*
X20298500Y21187500D01*
X20298500Y21187500D02*
X20256500Y21145500D01*
X20256500Y21145500D02*
X20256500Y21187500D01*
X20320000Y16510000D02*
X20320000Y18478500D01*
X20320000Y18478500D02*
X20340000Y18415000D01*
X20256500Y18542000D02*
X20383500Y18415000D01*
X20383500Y18415000D02*
X20340000Y18415000D01*
X14782800Y14966000D02*
X18776000Y14966000D01*
X18776000Y14966000D02*
X20320000Y16510000D01*
X19659600Y10118000D02*
X19659600Y9093200D01*
X19659600Y9093200D02*
X19659600Y9084400D01*
D35*
X4267200Y14935200D02*
X6553200Y14935200D01*
X6553200Y14935200D02*
X6959600Y14528800D01*
X6959600Y14528800D02*
X6959600Y14515200D01*
D37*
X23380800Y8178800D02*
X23380800Y9588600D01*
X23380800Y9588600D02*
X23495000Y9702800D01*
X23495000Y9702800D02*
X23527600Y9702800D01*
X9855200Y13966000D02*
X9198800Y13966000D01*
X7874000Y20167600D02*
X6858000Y20167600D01*
X8585200Y19456400D02*
X7874000Y20167600D01*
X8585200Y16256000D02*
X8585200Y19456400D01*
X8432800Y16103600D02*
X8585200Y16256000D01*
X8432800Y14732000D02*
X8432800Y16103600D01*
X9198800Y13966000D02*
X8432800Y14732000D01*
X9842500Y13970000D02*
X9855200Y13966000D01*
X9842500Y13970000D02*
X9855200Y13966000D01*
X8483600Y11238800D02*
X7378000Y11238800D01*
X7378000Y11238800D02*
X7366000Y11226800D01*
D38*
G36*
X24180800Y16522700D02*
X21336000Y16522700D01*
X21336000Y16700500D01*
X22352000Y16700500D01*
X22546403Y16739169D01*
X22711210Y16849290D01*
X22963056Y17101136D01*
X23289200Y17101136D01*
X23430390Y17127703D01*
X23437534Y17132300D01*
X23685500Y17132300D01*
X23713195Y17137511D01*
X23738632Y17153879D01*
X23755697Y17178854D01*
X23761700Y17208500D01*
X23761700Y19621500D01*
X23756489Y19649195D01*
X23740121Y19674632D01*
X23715146Y19691697D01*
X23685500Y19697700D01*
X23444200Y19697700D01*
X23444200Y19757694D01*
X23447664Y19774800D01*
X23447664Y20374800D01*
X23444200Y20393209D01*
X23444200Y20857694D01*
X23447664Y20874800D01*
X23447664Y21474800D01*
X23444200Y21493209D01*
X23444200Y21780500D01*
X23438989Y21808195D01*
X23422621Y21833632D01*
X23397646Y21850697D01*
X23368000Y21856700D01*
X23091614Y21856700D01*
X23059200Y21863264D01*
X22559200Y21863264D01*
X22524316Y21856700D01*
X21973969Y21856700D01*
X21927634Y21888359D01*
X21776500Y21918964D01*
X21276500Y21918964D01*
X21135310Y21892397D01*
X21079835Y21856700D01*
X20601630Y21856700D01*
X20506500Y21875964D01*
X20006500Y21875964D01*
X19904122Y21856700D01*
X19888200Y21856700D01*
X19888200Y22974300D01*
X24180800Y22974300D01*
X24180800Y16522700D01*
X24180800Y16522700D01*
G37*
X24180800Y16522700D02*
X21336000Y16522700D01*
X21336000Y16700500D01*
X22352000Y16700500D01*
X22546403Y16739169D01*
X22711210Y16849290D01*
X22963056Y17101136D01*
X23289200Y17101136D01*
X23430390Y17127703D01*
X23437534Y17132300D01*
X23685500Y17132300D01*
X23713195Y17137511D01*
X23738632Y17153879D01*
X23755697Y17178854D01*
X23761700Y17208500D01*
X23761700Y19621500D01*
X23756489Y19649195D01*
X23740121Y19674632D01*
X23715146Y19691697D01*
X23685500Y19697700D01*
X23444200Y19697700D01*
X23444200Y19757694D01*
X23447664Y19774800D01*
X23447664Y20374800D01*
X23444200Y20393209D01*
X23444200Y20857694D01*
X23447664Y20874800D01*
X23447664Y21474800D01*
X23444200Y21493209D01*
X23444200Y21780500D01*
X23438989Y21808195D01*
X23422621Y21833632D01*
X23397646Y21850697D01*
X23368000Y21856700D01*
X23091614Y21856700D01*
X23059200Y21863264D01*
X22559200Y21863264D01*
X22524316Y21856700D01*
X21973969Y21856700D01*
X21927634Y21888359D01*
X21776500Y21918964D01*
X21276500Y21918964D01*
X21135310Y21892397D01*
X21079835Y21856700D01*
X20601630Y21856700D01*
X20506500Y21875964D01*
X20006500Y21875964D01*
X19904122Y21856700D01*
X19888200Y21856700D01*
X19888200Y22974300D01*
X24180800Y22974300D01*
X24180800Y16522700D01*
G36*
X20853400Y7493000D02*
X15722600Y7493000D01*
X15722600Y7680540D01*
X15737146Y7657935D01*
X15864466Y7570941D01*
X16015600Y7540336D01*
X16615600Y7540336D01*
X16756790Y7566903D01*
X16886465Y7650346D01*
X16973459Y7777666D01*
X17004064Y7928800D01*
X17004064Y8428800D01*
X16977497Y8569990D01*
X16943814Y8622336D01*
X17073600Y8622336D01*
X17214790Y8648903D01*
X17344465Y8732346D01*
X17431459Y8859666D01*
X17462064Y9010800D01*
X17462064Y10010800D01*
X17444053Y10106518D01*
X17522466Y10052941D01*
X17673600Y10022336D01*
X18823600Y10022336D01*
X18964790Y10048903D01*
X19021136Y10085160D01*
X19021136Y9818000D01*
X19047703Y9676810D01*
X19096479Y9601010D01*
X19051741Y9535534D01*
X19021136Y9384400D01*
X19021136Y8784400D01*
X19047703Y8643210D01*
X19131146Y8513535D01*
X19258466Y8426541D01*
X19409600Y8395936D01*
X19909600Y8395936D01*
X20050790Y8422503D01*
X20180465Y8505946D01*
X20267459Y8633266D01*
X20298064Y8784400D01*
X20298064Y9384400D01*
X20271497Y9525590D01*
X20222721Y9601390D01*
X20267459Y9666866D01*
X20298064Y9818000D01*
X20298064Y10418000D01*
X20271497Y10559190D01*
X20200717Y10669186D01*
X20267459Y10766866D01*
X20298064Y10918000D01*
X20298064Y11518000D01*
X20271608Y11658600D01*
X20853400Y11658600D01*
X20853400Y7493000D01*
X20853400Y7493000D01*
G37*
X20853400Y7493000D02*
X15722600Y7493000D01*
X15722600Y7680540D01*
X15737146Y7657935D01*
X15864466Y7570941D01*
X16015600Y7540336D01*
X16615600Y7540336D01*
X16756790Y7566903D01*
X16886465Y7650346D01*
X16973459Y7777666D01*
X17004064Y7928800D01*
X17004064Y8428800D01*
X16977497Y8569990D01*
X16943814Y8622336D01*
X17073600Y8622336D01*
X17214790Y8648903D01*
X17344465Y8732346D01*
X17431459Y8859666D01*
X17462064Y9010800D01*
X17462064Y10010800D01*
X17444053Y10106518D01*
X17522466Y10052941D01*
X17673600Y10022336D01*
X18823600Y10022336D01*
X18964790Y10048903D01*
X19021136Y10085160D01*
X19021136Y9818000D01*
X19047703Y9676810D01*
X19096479Y9601010D01*
X19051741Y9535534D01*
X19021136Y9384400D01*
X19021136Y8784400D01*
X19047703Y8643210D01*
X19131146Y8513535D01*
X19258466Y8426541D01*
X19409600Y8395936D01*
X19909600Y8395936D01*
X20050790Y8422503D01*
X20180465Y8505946D01*
X20267459Y8633266D01*
X20298064Y8784400D01*
X20298064Y9384400D01*
X20271497Y9525590D01*
X20222721Y9601390D01*
X20267459Y9666866D01*
X20298064Y9818000D01*
X20298064Y10418000D01*
X20271497Y10559190D01*
X20200717Y10669186D01*
X20267459Y10766866D01*
X20298064Y10918000D01*
X20298064Y11518000D01*
X20271608Y11658600D01*
X20853400Y11658600D01*
X20853400Y7493000D01*
G36*
X15900400Y11633200D02*
X17364435Y11633200D01*
X17315741Y11561934D01*
X17285136Y11410800D01*
X17285136Y10410800D01*
X17303147Y10315082D01*
X17224734Y10368659D01*
X17073600Y10399264D01*
X15923600Y10399264D01*
X15782410Y10372697D01*
X15722600Y10334211D01*
X15722600Y11658600D01*
X15772707Y11658600D01*
X15900400Y11633200D01*
X15900400Y11633200D01*
G37*
X15900400Y11633200D02*
X17364435Y11633200D01*
X17315741Y11561934D01*
X17285136Y11410800D01*
X17285136Y10410800D01*
X17303147Y10315082D01*
X17224734Y10368659D01*
X17073600Y10399264D01*
X15923600Y10399264D01*
X15782410Y10372697D01*
X15722600Y10334211D01*
X15722600Y11658600D01*
X15772707Y11658600D01*
X15900400Y11633200D01*
G36*
X7416800Y33782000D02*
X7422803Y33752354D01*
X7439868Y33727379D01*
X7465305Y33711011D01*
X7493000Y33705800D01*
X28194000Y33705800D01*
X28223646Y33711803D01*
X28248621Y33728868D01*
X28264989Y33754305D01*
X28270200Y33782000D01*
X28270200Y33789000D01*
X33021922Y33789000D01*
X33021922Y33189000D01*
X33037862Y33104286D01*
X33087928Y33026482D01*
X33164320Y32974285D01*
X33255000Y32955922D01*
X34055000Y32955922D01*
X34139714Y32971862D01*
X34217518Y33021928D01*
X34236186Y33049250D01*
X34499200Y33049250D01*
X34499200Y32516919D01*
X34549470Y32395557D01*
X34642357Y32302670D01*
X34763719Y32252400D01*
X35071050Y32252400D01*
X35153600Y32334950D01*
X35153600Y33131800D01*
X35255200Y33131800D01*
X35255200Y32334950D01*
X35337750Y32252400D01*
X35645081Y32252400D01*
X35766443Y32302670D01*
X35859330Y32395557D01*
X35909600Y32516919D01*
X35909600Y33049250D01*
X35827050Y33131800D01*
X35255200Y33131800D01*
X35153600Y33131800D01*
X34581750Y33131800D01*
X34499200Y33049250D01*
X34236186Y33049250D01*
X34269715Y33098320D01*
X34288078Y33189000D01*
X34288078Y33789000D01*
X34276924Y33848281D01*
X34499200Y33848281D01*
X34499200Y33315950D01*
X34581750Y33233400D01*
X35153600Y33233400D01*
X35153600Y34030250D01*
X35255200Y34030250D01*
X35255200Y33233400D01*
X35827050Y33233400D01*
X35909600Y33315950D01*
X35909600Y33848281D01*
X35859330Y33969643D01*
X35766443Y34062530D01*
X35645081Y34112800D01*
X35337750Y34112800D01*
X35255200Y34030250D01*
X35153600Y34030250D01*
X35071050Y34112800D01*
X34763719Y34112800D01*
X34642357Y34062530D01*
X34549470Y33969643D01*
X34499200Y33848281D01*
X34276924Y33848281D01*
X34272138Y33873714D01*
X34222072Y33951518D01*
X34145680Y34003715D01*
X34055000Y34022078D01*
X34010600Y34022078D01*
X34010600Y35070230D01*
X34110810Y35170266D01*
X34188311Y35356909D01*
X34188488Y35559004D01*
X34111312Y35745783D01*
X33968534Y35888810D01*
X33781891Y35966311D01*
X33579796Y35966488D01*
X33393017Y35889312D01*
X33249990Y35746534D01*
X33172489Y35559891D01*
X33172312Y35357796D01*
X33249488Y35171017D01*
X33299400Y35121018D01*
X33299400Y34022078D01*
X33255000Y34022078D01*
X33170286Y34006138D01*
X33092482Y33956072D01*
X33040285Y33879680D01*
X33021922Y33789000D01*
X28270200Y33789000D01*
X28270200Y39039800D01*
X38277800Y39039800D01*
X38277800Y33786907D01*
X36115329Y17081500D01*
X29972000Y17081500D01*
X29942354Y17075497D01*
X29917379Y17058432D01*
X29901011Y17032995D01*
X29895800Y17005300D01*
X29895800Y16141700D01*
X29901803Y16112054D01*
X29918868Y16087079D01*
X29944305Y16070711D01*
X29972000Y16065500D01*
X30467300Y16065500D01*
X30496946Y16071503D01*
X30521921Y16088568D01*
X30538289Y16114005D01*
X30543500Y16141700D01*
X30543500Y16433800D01*
X35775900Y16433800D01*
X35775900Y11582400D01*
X33235900Y11582400D01*
X33206254Y11576397D01*
X33181279Y11559332D01*
X33164911Y11533895D01*
X33159700Y11506200D01*
X33159700Y9499600D01*
X33165703Y9469954D01*
X33182768Y9444979D01*
X33208205Y9428611D01*
X33235900Y9423400D01*
X35775900Y9423400D01*
X35775900Y6883400D01*
X33235900Y6883400D01*
X33206254Y6877397D01*
X33181279Y6860332D01*
X33164911Y6834895D01*
X33159700Y6807200D01*
X33159700Y4864100D01*
X33165703Y4834454D01*
X33182768Y4809479D01*
X33208205Y4793111D01*
X33235900Y4787900D01*
X35775900Y4787900D01*
X35775900Y2247900D01*
X31496000Y2247900D01*
X31496000Y2590800D01*
X35356800Y2590800D01*
X35386446Y2596803D01*
X35411421Y2613868D01*
X35427789Y2639305D01*
X35433000Y2667000D01*
X35433000Y4356100D01*
X35426997Y4385746D01*
X35409932Y4410721D01*
X35384495Y4427089D01*
X35356800Y4432300D01*
X32816154Y4432300D01*
X32792051Y7264400D01*
X35356800Y7264400D01*
X35386446Y7270403D01*
X35411421Y7287468D01*
X35427789Y7312905D01*
X35433000Y7340600D01*
X35433000Y9004300D01*
X35426997Y9033946D01*
X35409932Y9058921D01*
X35384495Y9075289D01*
X35356800Y9080500D01*
X32816800Y9080500D01*
X32816800Y11925300D01*
X35356800Y11925300D01*
X35386446Y11931303D01*
X35411421Y11948368D01*
X35427789Y11973805D01*
X35433000Y12001500D01*
X35433000Y13703300D01*
X35426997Y13732946D01*
X35409932Y13757921D01*
X35384495Y13774289D01*
X35356800Y13779500D01*
X30454600Y13779500D01*
X30419728Y13771052D01*
X28708941Y12890500D01*
X22567900Y12890500D01*
X22567900Y13389800D01*
X22645381Y13389800D01*
X22766743Y13440070D01*
X22859630Y13532957D01*
X22909900Y13654319D01*
X22909900Y13836650D01*
X22827350Y13919200D01*
X22567900Y13919200D01*
X22567900Y14020800D01*
X22827350Y14020800D01*
X22909900Y14103350D01*
X22909900Y14285681D01*
X22859630Y14407043D01*
X22766743Y14499930D01*
X22645381Y14550200D01*
X22567900Y14550200D01*
X22567900Y15024100D01*
X28708941Y15024100D01*
X30419728Y14143548D01*
X30454600Y14135100D01*
X35356800Y14135100D01*
X35386446Y14141103D01*
X35411421Y14158168D01*
X35427789Y14183605D01*
X35433000Y14211300D01*
X35433000Y15608300D01*
X35426997Y15637946D01*
X35409932Y15662921D01*
X35384495Y15679289D01*
X35356800Y15684500D01*
X30530800Y15684500D01*
X30530800Y15976600D01*
X30524797Y16006246D01*
X30507732Y16031221D01*
X30482295Y16047589D01*
X30454600Y16052800D01*
X29959300Y16052800D01*
X29929654Y16046797D01*
X29904679Y16029732D01*
X29888311Y16004295D01*
X29883100Y15976600D01*
X29883100Y15468600D01*
X29889103Y15438954D01*
X29906168Y15413979D01*
X29931605Y15397611D01*
X29959300Y15392400D01*
X30911800Y15392400D01*
X30911800Y15328900D01*
X22339300Y15328900D01*
X22309654Y15322897D01*
X22284679Y15305832D01*
X22268311Y15280395D01*
X22263100Y15252700D01*
X22263100Y14550200D01*
X22228898Y14550200D01*
X22228898Y14467652D01*
X22146350Y14550200D01*
X21914019Y14550200D01*
X21792657Y14499930D01*
X21699770Y14407043D01*
X21672835Y14342016D01*
X21646772Y14382518D01*
X21570380Y14434715D01*
X21479700Y14453078D01*
X20879700Y14453078D01*
X20794986Y14437138D01*
X20717182Y14387072D01*
X20669167Y14316800D01*
X20564016Y14316800D01*
X20558538Y14345914D01*
X20508472Y14423718D01*
X20432080Y14475915D01*
X20341400Y14494278D01*
X19841400Y14494278D01*
X19756686Y14478338D01*
X19678882Y14428272D01*
X19626685Y14351880D01*
X19618791Y14312900D01*
X19387794Y14312900D01*
X21064194Y15989300D01*
X24765000Y15989300D01*
X24794646Y15995303D01*
X24819621Y16012368D01*
X24835989Y16037805D01*
X24841200Y16065500D01*
X24841200Y23431500D01*
X24835197Y23461146D01*
X24818132Y23486121D01*
X24792695Y23502489D01*
X24765000Y23507700D01*
X19304000Y23507700D01*
X19274354Y23501697D01*
X19249379Y23484632D01*
X19233011Y23459195D01*
X19227800Y23431500D01*
X19227800Y16065500D01*
X19233803Y16035854D01*
X19250868Y16010879D01*
X19276305Y15994511D01*
X19297609Y15990503D01*
X18628706Y15321600D01*
X16235079Y15321600D01*
X16306711Y15494109D01*
X16306888Y15696204D01*
X16254001Y15824200D01*
X16493431Y15824200D01*
X16536920Y15794485D01*
X16627600Y15776122D01*
X17127600Y15776122D01*
X17212314Y15792062D01*
X17290118Y15842128D01*
X17342315Y15918520D01*
X17360678Y16009200D01*
X17360678Y16325850D01*
X17797400Y16325850D01*
X17797400Y15943519D01*
X17847670Y15822157D01*
X17940557Y15729270D01*
X18061919Y15679000D01*
X18244250Y15679000D01*
X18326800Y15761550D01*
X18326800Y16408400D01*
X18428400Y16408400D01*
X18428400Y15761550D01*
X18510950Y15679000D01*
X18693281Y15679000D01*
X18814643Y15729270D01*
X18907530Y15822157D01*
X18957800Y15943519D01*
X18957800Y16325850D01*
X18875250Y16408400D01*
X18428400Y16408400D01*
X18326800Y16408400D01*
X17879950Y16408400D01*
X17797400Y16325850D01*
X17360678Y16325850D01*
X17360678Y16909200D01*
X17348320Y16974881D01*
X17797400Y16974881D01*
X17797400Y16592550D01*
X17879950Y16510000D01*
X18326800Y16510000D01*
X18326800Y17156850D01*
X18428400Y17156850D01*
X18428400Y16510000D01*
X18875250Y16510000D01*
X18957800Y16592550D01*
X18957800Y16974881D01*
X18907530Y17096243D01*
X18814643Y17189130D01*
X18693281Y17239400D01*
X18510950Y17239400D01*
X18428400Y17156850D01*
X18326800Y17156850D01*
X18244250Y17239400D01*
X18061919Y17239400D01*
X17940557Y17189130D01*
X17847670Y17096243D01*
X17797400Y16974881D01*
X17348320Y16974881D01*
X17344738Y16993914D01*
X17294672Y17071718D01*
X17218280Y17123915D01*
X17127600Y17142278D01*
X16627600Y17142278D01*
X16542886Y17126338D01*
X16465082Y17076272D01*
X16412885Y16999880D01*
X16394522Y16909200D01*
X16394522Y16535400D01*
X14429078Y16535400D01*
X14429078Y16592550D01*
X14413138Y16677264D01*
X14363475Y16754442D01*
X15102337Y16754442D01*
X16305797Y16738607D01*
X16334495Y16743811D01*
X16359932Y16760179D01*
X16376997Y16785154D01*
X16383000Y16814800D01*
X16383000Y16965407D01*
X16387478Y16987520D01*
X16387478Y18008600D01*
X16383000Y18032399D01*
X16383000Y19256487D01*
X16387478Y19278600D01*
X16387478Y20299680D01*
X16383000Y20323479D01*
X16383000Y20472400D01*
X16377789Y20500095D01*
X16361421Y20525532D01*
X16336446Y20542597D01*
X16306800Y20548600D01*
X12446000Y20548600D01*
X12418305Y20543389D01*
X12392868Y20527021D01*
X12375803Y20502046D01*
X12369800Y20472400D01*
X12369800Y19745573D01*
X12281443Y19833930D01*
X12160081Y19884200D01*
X11927750Y19884200D01*
X11845200Y19801650D01*
X11845200Y19354800D01*
X11865200Y19354800D01*
X11865200Y19253200D01*
X11845200Y19253200D01*
X11845200Y18389600D01*
X11865200Y18389600D01*
X11865200Y18288000D01*
X11845200Y18288000D01*
X11845200Y17841150D01*
X11927750Y17758600D01*
X12160081Y17758600D01*
X12281443Y17808870D01*
X12369800Y17897227D01*
X12369800Y17581991D01*
X12277256Y17600399D01*
X12226134Y17651610D01*
X12039491Y17729111D01*
X11837396Y17729288D01*
X11650617Y17652112D01*
X11507590Y17509334D01*
X11430089Y17322691D01*
X11429912Y17120596D01*
X11507088Y16933817D01*
X11615089Y16825628D01*
X11442000Y16825628D01*
X11409635Y16819538D01*
X11363043Y16866130D01*
X11241681Y16916400D01*
X11182350Y16916400D01*
X11099800Y16833850D01*
X11099800Y16002000D01*
X11119800Y16002000D01*
X11119800Y15900400D01*
X11099800Y15900400D01*
X11099800Y15880400D01*
X10998200Y15880400D01*
X10998200Y15900400D01*
X10978200Y15900400D01*
X10978200Y16002000D01*
X10998200Y16002000D01*
X10998200Y16833850D01*
X10915650Y16916400D01*
X10856319Y16916400D01*
X10734957Y16866130D01*
X10694455Y16825628D01*
X10442000Y16825628D01*
X10357286Y16809688D01*
X10279482Y16759622D01*
X10227285Y16683230D01*
X10210800Y16601824D01*
X10210800Y18205450D01*
X11164200Y18205450D01*
X11164200Y18023119D01*
X11214470Y17901757D01*
X11307357Y17808870D01*
X11428719Y17758600D01*
X11661050Y17758600D01*
X11743600Y17841150D01*
X11743600Y18288000D01*
X11246750Y18288000D01*
X11164200Y18205450D01*
X10210800Y18205450D01*
X10210800Y19170650D01*
X11164200Y19170650D01*
X11164200Y18988319D01*
X11214470Y18866957D01*
X11260027Y18821400D01*
X11214470Y18775843D01*
X11164200Y18654481D01*
X11164200Y18472150D01*
X11246750Y18389600D01*
X11743600Y18389600D01*
X11743600Y19253200D01*
X11246750Y19253200D01*
X11164200Y19170650D01*
X10210800Y19170650D01*
X10210800Y19619681D01*
X11164200Y19619681D01*
X11164200Y19437350D01*
X11246750Y19354800D01*
X11743600Y19354800D01*
X11743600Y19801650D01*
X11661050Y19884200D01*
X11428719Y19884200D01*
X11307357Y19833930D01*
X11214470Y19741043D01*
X11164200Y19619681D01*
X10210800Y19619681D01*
X10210800Y22707600D01*
X10183732Y22843682D01*
X10106647Y22959047D01*
X9545294Y23520400D01*
X26009600Y23520400D01*
X26009600Y17373600D01*
X26075338Y17043115D01*
X26262543Y16762943D01*
X26542715Y16575738D01*
X26873200Y16510000D01*
X27203685Y16575738D01*
X27483857Y16762943D01*
X27671062Y17043115D01*
X27736800Y17373600D01*
X27736800Y23162686D01*
X34240258Y29666143D01*
X34427462Y29946315D01*
X34493200Y30276800D01*
X34493200Y30774600D01*
X34596322Y30774600D01*
X34596322Y30682600D01*
X34612262Y30597886D01*
X34662328Y30520082D01*
X34738720Y30467885D01*
X34829400Y30449522D01*
X35579400Y30449522D01*
X35664114Y30465462D01*
X35741918Y30515528D01*
X35794115Y30591920D01*
X35812478Y30682600D01*
X35812478Y31882600D01*
X35796538Y31967314D01*
X35746472Y32045118D01*
X35670080Y32097315D01*
X35579400Y32115678D01*
X34829400Y32115678D01*
X34744686Y32099738D01*
X34666882Y32049672D01*
X34614685Y31973280D01*
X34596322Y31882600D01*
X34596322Y31790600D01*
X34288078Y31790600D01*
X34288078Y32089000D01*
X34272138Y32173714D01*
X34222072Y32251518D01*
X34145680Y32303715D01*
X34055000Y32322078D01*
X33255000Y32322078D01*
X33170286Y32306138D01*
X33092482Y32256072D01*
X33040285Y32179680D01*
X33021922Y32089000D01*
X33021922Y31854648D01*
X33018943Y31852657D01*
X32831738Y31572485D01*
X32766000Y31242000D01*
X32766000Y30634515D01*
X26262543Y24131057D01*
X26075338Y23850885D01*
X26009600Y23520400D01*
X9545294Y23520400D01*
X8328647Y24737047D01*
X8213283Y24814132D01*
X8077200Y24841200D01*
X7558871Y24841200D01*
X7533623Y24902305D01*
X7326595Y25109695D01*
X7055962Y25222072D01*
X6762924Y25222328D01*
X6492095Y25110423D01*
X6284705Y24903395D01*
X6172328Y24632762D01*
X6172072Y24339724D01*
X6283977Y24068895D01*
X6491005Y23861505D01*
X6761638Y23749128D01*
X7054676Y23748872D01*
X7325505Y23860777D01*
X7532895Y24067805D01*
X7558721Y24130000D01*
X7929906Y24130000D01*
X9499600Y22560306D01*
X9499600Y22167999D01*
X9446247Y22247847D01*
X8836647Y22857447D01*
X8721283Y22934532D01*
X8585200Y22961600D01*
X7508071Y22961600D01*
X7482823Y23022705D01*
X7275795Y23230095D01*
X7005162Y23342472D01*
X6712124Y23342728D01*
X6441295Y23230823D01*
X6233905Y23023795D01*
X6121528Y22753162D01*
X6121272Y22460124D01*
X6233177Y22189295D01*
X6440205Y21981905D01*
X6710838Y21869528D01*
X7003876Y21869272D01*
X7274705Y21981177D01*
X7482095Y22188205D01*
X7507921Y22250400D01*
X8437906Y22250400D01*
X8839200Y21849106D01*
X8839200Y19704026D01*
X8836647Y19707847D01*
X8125447Y20419047D01*
X8010083Y20496132D01*
X7874000Y20523200D01*
X7508071Y20523200D01*
X7482823Y20584305D01*
X7275795Y20791695D01*
X7005162Y20904072D01*
X6712124Y20904328D01*
X6441295Y20792423D01*
X6233905Y20585395D01*
X6121528Y20314762D01*
X6121272Y20021724D01*
X6233177Y19750895D01*
X6440205Y19543505D01*
X6710838Y19431128D01*
X7003876Y19430872D01*
X7274705Y19542777D01*
X7482095Y19749805D01*
X7507921Y19812000D01*
X7726706Y19812000D01*
X8229600Y19309106D01*
X8229600Y16403294D01*
X8181353Y16355047D01*
X8104268Y16239683D01*
X8097409Y16205200D01*
X8077200Y16103600D01*
X8077200Y14732000D01*
X8104268Y14595917D01*
X8181353Y14480553D01*
X8947353Y13714553D01*
X9062718Y13637468D01*
X9198800Y13610400D01*
X9212896Y13610400D01*
X9209372Y13593000D01*
X9209372Y13339000D01*
X9212646Y13321600D01*
X8546400Y13321600D01*
X8512222Y13314802D01*
X8470000Y13323200D01*
X7651098Y13323200D01*
X7433091Y13537426D01*
X7120665Y13663647D01*
X6783719Y13660700D01*
X6473548Y13529033D01*
X6237374Y13288691D01*
X6111153Y12976265D01*
X6109982Y12970097D01*
X5992286Y12852400D01*
X1524000Y12852400D01*
X1193515Y12786662D01*
X913343Y12599457D01*
X726138Y12319285D01*
X660400Y11988800D01*
X660400Y6908800D01*
X726138Y6578315D01*
X913343Y6298143D01*
X1193515Y6110938D01*
X1524000Y6045200D01*
X1854485Y6110938D01*
X2134657Y6298143D01*
X2321862Y6578315D01*
X2387600Y6908800D01*
X2387600Y9414460D01*
X4825892Y9414460D01*
X4920432Y9185656D01*
X5095335Y9010447D01*
X5323974Y8915508D01*
X5571540Y8915292D01*
X5800344Y9009832D01*
X5975553Y9184735D01*
X6070492Y9413374D01*
X6070708Y9660940D01*
X5976168Y9889744D01*
X5801265Y10064953D01*
X5572626Y10159892D01*
X5325060Y10160108D01*
X5096256Y10065568D01*
X4921047Y9890665D01*
X4826108Y9662026D01*
X4825892Y9414460D01*
X2387600Y9414460D01*
X2387600Y11125200D01*
X6350000Y11125200D01*
X6680485Y11190938D01*
X6960657Y11378143D01*
X6985267Y11402753D01*
X6946973Y11310530D01*
X6946827Y11143802D01*
X7010497Y10989709D01*
X7128289Y10871711D01*
X7282270Y10807773D01*
X7448998Y10807627D01*
X7603091Y10871297D01*
X7615015Y10883200D01*
X7829902Y10883200D01*
X7866528Y10826282D01*
X7942920Y10774085D01*
X8033600Y10755722D01*
X8933600Y10755722D01*
X9018314Y10771662D01*
X9096118Y10821728D01*
X9148315Y10898120D01*
X9166678Y10988800D01*
X9166678Y11488800D01*
X9150738Y11573514D01*
X9100672Y11651318D01*
X9024280Y11703515D01*
X8933600Y11721878D01*
X8033600Y11721878D01*
X7948886Y11705938D01*
X7871082Y11655872D01*
X7829080Y11594400D01*
X7573581Y11594400D01*
X7449730Y11645827D01*
X7283002Y11645973D01*
X7190102Y11607587D01*
X7519458Y11936943D01*
X7568792Y12010776D01*
X7631026Y12074109D01*
X7661485Y12149503D01*
X7706662Y12217115D01*
X7723985Y12304205D01*
X7725195Y12307200D01*
X7894455Y12307200D01*
X7942920Y12274085D01*
X8033600Y12255722D01*
X8358308Y12255722D01*
X8483600Y12230800D01*
X8608892Y12255722D01*
X8933600Y12255722D01*
X9018314Y12271662D01*
X9096118Y12321728D01*
X9148315Y12398120D01*
X9166678Y12488800D01*
X9166678Y12610400D01*
X9212896Y12610400D01*
X9209372Y12593000D01*
X9209372Y12339000D01*
X9225312Y12254286D01*
X9249886Y12216098D01*
X9227735Y12183680D01*
X9209372Y12093000D01*
X9209372Y11839000D01*
X9225312Y11754286D01*
X9275378Y11676482D01*
X9351770Y11624285D01*
X9442450Y11605922D01*
X9470616Y11605922D01*
X9487465Y11597055D01*
X9625629Y11584344D01*
X9831159Y11605922D01*
X10208922Y11605922D01*
X10208922Y11365882D01*
X10208143Y11364628D01*
X10185595Y11227724D01*
X10208922Y11127859D01*
X10208922Y10839450D01*
X10213400Y10815651D01*
X10213400Y10112401D01*
X10100056Y10065568D01*
X9924847Y9890665D01*
X9829908Y9662026D01*
X9829692Y9414460D01*
X9924232Y9185656D01*
X10099135Y9010447D01*
X10327774Y8915508D01*
X10575340Y8915292D01*
X10804144Y9009832D01*
X10979353Y9184735D01*
X11074292Y9413374D01*
X11074508Y9660940D01*
X10979968Y9889744D01*
X10924600Y9945209D01*
X10924600Y10609896D01*
X10942000Y10606372D01*
X11196000Y10606372D01*
X11280714Y10622312D01*
X11318902Y10646886D01*
X11351320Y10624735D01*
X11442000Y10606372D01*
X11696000Y10606372D01*
X11780714Y10622312D01*
X11818902Y10646886D01*
X11851320Y10624735D01*
X11942000Y10606372D01*
X12196000Y10606372D01*
X12280714Y10622312D01*
X12318902Y10646886D01*
X12351320Y10624735D01*
X12442000Y10606372D01*
X12643478Y10606372D01*
X11635753Y9598647D01*
X11558668Y9483283D01*
X11543455Y9406800D01*
X11531600Y9347200D01*
X11531600Y6451600D01*
X11558668Y6315517D01*
X11635753Y6200153D01*
X12397753Y5438153D01*
X12513117Y5361068D01*
X12649200Y5334000D01*
X23571200Y5334000D01*
X23707283Y5361068D01*
X23822647Y5438153D01*
X25232247Y6847753D01*
X25309332Y6963118D01*
X25336400Y7099200D01*
X25336400Y7545722D01*
X25380800Y7545722D01*
X25465514Y7561662D01*
X25543318Y7611728D01*
X25595515Y7688120D01*
X25613878Y7778800D01*
X25613878Y8578800D01*
X25597938Y8663514D01*
X25547872Y8741318D01*
X25471480Y8793515D01*
X25380800Y8811878D01*
X24580800Y8811878D01*
X24496086Y8795938D01*
X24418282Y8745872D01*
X24366085Y8669480D01*
X24347722Y8578800D01*
X24347722Y7778800D01*
X24363662Y7694086D01*
X24413728Y7616282D01*
X24490120Y7564085D01*
X24580800Y7545722D01*
X24625200Y7545722D01*
X24625200Y7246494D01*
X23423906Y6045200D01*
X12796494Y6045200D01*
X12242800Y6598894D01*
X12242800Y6939850D01*
X12377000Y6939850D01*
X12377000Y6757519D01*
X12427270Y6636157D01*
X12520157Y6543270D01*
X12641519Y6493000D01*
X13023850Y6493000D01*
X13106400Y6575550D01*
X13106400Y7022400D01*
X13208000Y7022400D01*
X13208000Y6575550D01*
X13290550Y6493000D01*
X13672881Y6493000D01*
X13794243Y6543270D01*
X13887130Y6636157D01*
X13893800Y6652260D01*
X13900470Y6636157D01*
X13993357Y6543270D01*
X14114719Y6493000D01*
X14497050Y6493000D01*
X14579600Y6575550D01*
X14579600Y7022400D01*
X14681200Y7022400D01*
X14681200Y6575550D01*
X14763750Y6493000D01*
X15146081Y6493000D01*
X15267443Y6543270D01*
X15360330Y6636157D01*
X15410600Y6757519D01*
X15410600Y6939850D01*
X15328050Y7022400D01*
X14681200Y7022400D01*
X14579600Y7022400D01*
X13932750Y7022400D01*
X13893800Y6983450D01*
X13854850Y7022400D01*
X13208000Y7022400D01*
X13106400Y7022400D01*
X12459550Y7022400D01*
X12377000Y6939850D01*
X12242800Y6939850D01*
X12242800Y7388881D01*
X12377000Y7388881D01*
X12377000Y7206550D01*
X12459550Y7124000D01*
X13106400Y7124000D01*
X13106400Y7570850D01*
X13208000Y7570850D01*
X13208000Y7124000D01*
X13854850Y7124000D01*
X13893800Y7162950D01*
X13932750Y7124000D01*
X14579600Y7124000D01*
X14579600Y7570850D01*
X14497050Y7653400D01*
X14114719Y7653400D01*
X13993357Y7603130D01*
X13900470Y7510243D01*
X13893800Y7494140D01*
X13887130Y7510243D01*
X13794243Y7603130D01*
X13672881Y7653400D01*
X13290550Y7653400D01*
X13208000Y7570850D01*
X13106400Y7570850D01*
X13023850Y7653400D01*
X12641519Y7653400D01*
X12520157Y7603130D01*
X12427270Y7510243D01*
X12377000Y7388881D01*
X12242800Y7388881D01*
X12242800Y9199906D01*
X13213400Y10170506D01*
X13213400Y9296694D01*
X12972984Y9056278D01*
X12707200Y9056278D01*
X12622486Y9040338D01*
X12544682Y8990272D01*
X12492485Y8913880D01*
X12474122Y8823200D01*
X12474122Y8323200D01*
X12490062Y8238486D01*
X12540128Y8160682D01*
X12616520Y8108485D01*
X12707200Y8090122D01*
X13607200Y8090122D01*
X13691914Y8106062D01*
X13769718Y8156128D01*
X13821915Y8232520D01*
X13840278Y8323200D01*
X13840278Y8823200D01*
X13824946Y8904685D01*
X13897532Y9013317D01*
X13924600Y9149400D01*
X13924600Y9194506D01*
X14085392Y9033714D01*
X14017882Y8990272D01*
X13965685Y8913880D01*
X13947322Y8823200D01*
X13947322Y8323200D01*
X13963262Y8238486D01*
X14013328Y8160682D01*
X14089720Y8108485D01*
X14180400Y8090122D01*
X15080400Y8090122D01*
X15165114Y8106062D01*
X15242918Y8156128D01*
X15295115Y8232520D01*
X15313478Y8323200D01*
X15313478Y8823200D01*
X15297538Y8907914D01*
X15247472Y8985718D01*
X15171080Y9037915D01*
X15080400Y9056278D01*
X14973135Y9056278D01*
X14958932Y9127682D01*
X14920810Y9184735D01*
X14881847Y9243048D01*
X14424600Y9700294D01*
X14424600Y10054836D01*
X15316200Y9163236D01*
X15316200Y7554373D01*
X15267443Y7603130D01*
X15146081Y7653400D01*
X14763750Y7653400D01*
X14681200Y7570850D01*
X14681200Y7124000D01*
X15328050Y7124000D01*
X15328292Y7124242D01*
X15339268Y7108179D01*
X15364705Y7091811D01*
X15392400Y7086600D01*
X21183600Y7086600D01*
X21213246Y7092603D01*
X21238221Y7109668D01*
X21254589Y7135105D01*
X21259800Y7162800D01*
X21259800Y8578800D01*
X22747722Y8578800D01*
X22747722Y7778800D01*
X22763662Y7694086D01*
X22813728Y7616282D01*
X22890120Y7564085D01*
X22980800Y7545722D01*
X23780800Y7545722D01*
X23865514Y7561662D01*
X23943318Y7611728D01*
X23995515Y7688120D01*
X24013878Y7778800D01*
X24013878Y8578800D01*
X23997938Y8663514D01*
X23947872Y8741318D01*
X23871480Y8793515D01*
X23780800Y8811878D01*
X23736400Y8811878D01*
X23736400Y9171378D01*
X23812314Y9185662D01*
X23890118Y9235728D01*
X23920799Y9280630D01*
X23947670Y9215757D01*
X24040557Y9122870D01*
X24161919Y9072600D01*
X24294250Y9072600D01*
X24376800Y9155150D01*
X24376800Y9652000D01*
X24478400Y9652000D01*
X24478400Y9155150D01*
X24560950Y9072600D01*
X24693281Y9072600D01*
X24814643Y9122870D01*
X24907530Y9215757D01*
X24957800Y9337119D01*
X24957800Y9569450D01*
X24875250Y9652000D01*
X24478400Y9652000D01*
X24376800Y9652000D01*
X24356800Y9652000D01*
X24356800Y9753600D01*
X24376800Y9753600D01*
X24376800Y10250450D01*
X24478400Y10250450D01*
X24478400Y9753600D01*
X24875250Y9753600D01*
X24957800Y9836150D01*
X24957800Y10068481D01*
X24907530Y10189843D01*
X24814643Y10282730D01*
X24693281Y10333000D01*
X24560950Y10333000D01*
X24478400Y10250450D01*
X24376800Y10250450D01*
X24294250Y10333000D01*
X24161919Y10333000D01*
X24040557Y10282730D01*
X23947670Y10189843D01*
X23920735Y10124816D01*
X23894672Y10165318D01*
X23818280Y10217515D01*
X23727600Y10235878D01*
X23327600Y10235878D01*
X23242886Y10219938D01*
X23165082Y10169872D01*
X23112885Y10093480D01*
X23094522Y10002800D01*
X23094522Y9787920D01*
X23052268Y9724683D01*
X23039589Y9660940D01*
X23025200Y9588600D01*
X23025200Y8811878D01*
X22980800Y8811878D01*
X22896086Y8795938D01*
X22818282Y8745872D01*
X22766085Y8669480D01*
X22747722Y8578800D01*
X21259800Y8578800D01*
X21259800Y11988800D01*
X21253797Y12018446D01*
X21236732Y12043421D01*
X21211295Y12059789D01*
X21183600Y12065000D01*
X18257494Y12065000D01*
X17929847Y12392647D01*
X17814483Y12469732D01*
X17678400Y12496800D01*
X16517315Y12496800D01*
X16534010Y12513466D01*
X16611511Y12700109D01*
X16611535Y12727850D01*
X19511200Y12727850D01*
X19511200Y12495519D01*
X19561470Y12374157D01*
X19654357Y12281270D01*
X19775719Y12231000D01*
X19958050Y12231000D01*
X20040600Y12313550D01*
X20040600Y12810400D01*
X20142200Y12810400D01*
X20142200Y12313550D01*
X20224750Y12231000D01*
X20407081Y12231000D01*
X20528443Y12281270D01*
X20621330Y12374157D01*
X20671600Y12495519D01*
X20671600Y12727850D01*
X20589050Y12810400D01*
X20142200Y12810400D01*
X20040600Y12810400D01*
X19593750Y12810400D01*
X19511200Y12727850D01*
X16611535Y12727850D01*
X16611688Y12902204D01*
X16579791Y12979400D01*
X16579850Y12979400D01*
X16662400Y13061950D01*
X16662400Y13423900D01*
X16764000Y13423900D01*
X16764000Y13061950D01*
X16846550Y12979400D01*
X16943981Y12979400D01*
X17065343Y13029670D01*
X17158230Y13122557D01*
X17208500Y13243919D01*
X17208500Y13341350D01*
X17125950Y13423900D01*
X16764000Y13423900D01*
X16662400Y13423900D01*
X16300450Y13423900D01*
X16217900Y13341350D01*
X16217900Y13304192D01*
X16205091Y13309511D01*
X16095378Y13309607D01*
X16095378Y13639800D01*
X16080514Y13718797D01*
X16095378Y13792200D01*
X16095378Y14110400D01*
X16315022Y14110400D01*
X16315022Y13873695D01*
X16268170Y13826843D01*
X16217900Y13705481D01*
X16217900Y13608050D01*
X16300450Y13525500D01*
X16662400Y13525500D01*
X16662400Y13545500D01*
X16764000Y13545500D01*
X16764000Y13525500D01*
X17125950Y13525500D01*
X17202150Y13601700D01*
X19619518Y13601700D01*
X19624262Y13576486D01*
X19674328Y13498682D01*
X19719230Y13468001D01*
X19654357Y13441130D01*
X19561470Y13348243D01*
X19511200Y13226881D01*
X19511200Y12994550D01*
X19593750Y12912000D01*
X20040600Y12912000D01*
X20040600Y12932000D01*
X20142200Y12932000D01*
X20142200Y12912000D01*
X20589050Y12912000D01*
X20671600Y12994550D01*
X20671600Y13226881D01*
X20621330Y13348243D01*
X20528443Y13441130D01*
X20463416Y13468065D01*
X20503918Y13494128D01*
X20556115Y13570520D01*
X20563219Y13605600D01*
X20681665Y13605600D01*
X20712628Y13557482D01*
X20789020Y13505285D01*
X20879700Y13486922D01*
X21479700Y13486922D01*
X21564414Y13502862D01*
X21642218Y13552928D01*
X21672899Y13597830D01*
X21699770Y13532957D01*
X21792657Y13440070D01*
X21914019Y13389800D01*
X22146350Y13389800D01*
X22228898Y13472348D01*
X22228898Y13389800D01*
X22263100Y13389800D01*
X22263100Y12661900D01*
X22269103Y12632254D01*
X22286168Y12607279D01*
X22311605Y12590911D01*
X22339300Y12585700D01*
X30911800Y12585700D01*
X30911800Y76200D01*
X76200Y76200D01*
X76200Y4035842D01*
X5022084Y4035842D01*
X5056593Y3908335D01*
X5325802Y3806054D01*
X5613661Y3814580D01*
X5840007Y3908335D01*
X5874516Y4035842D01*
X10025884Y4035842D01*
X10060393Y3908335D01*
X10329602Y3806054D01*
X10617461Y3814580D01*
X10843807Y3908335D01*
X10878316Y4035842D01*
X10452100Y4462058D01*
X10025884Y4035842D01*
X5874516Y4035842D01*
X5448300Y4462058D01*
X5022084Y4035842D01*
X76200Y4035842D01*
X76200Y4656398D01*
X4720454Y4656398D01*
X4728980Y4368539D01*
X4822735Y4142193D01*
X4950242Y4107684D01*
X5376458Y4533900D01*
X5520142Y4533900D01*
X5946358Y4107684D01*
X6073865Y4142193D01*
X6176146Y4411402D01*
X6168890Y4656398D01*
X9724254Y4656398D01*
X9732780Y4368539D01*
X9826535Y4142193D01*
X9954042Y4107684D01*
X10380258Y4533900D01*
X10523942Y4533900D01*
X10950158Y4107684D01*
X11077665Y4142193D01*
X11179946Y4411402D01*
X11171420Y4699261D01*
X11077665Y4925607D01*
X10950158Y4960116D01*
X10523942Y4533900D01*
X10380258Y4533900D01*
X9954042Y4960116D01*
X9826535Y4925607D01*
X9724254Y4656398D01*
X6168890Y4656398D01*
X6167620Y4699261D01*
X6073865Y4925607D01*
X5946358Y4960116D01*
X5520142Y4533900D01*
X5376458Y4533900D01*
X4950242Y4960116D01*
X4822735Y4925607D01*
X4720454Y4656398D01*
X76200Y4656398D01*
X76200Y5031958D01*
X5022084Y5031958D01*
X5448300Y4605742D01*
X5874516Y5031958D01*
X10025884Y5031958D01*
X10452100Y4605742D01*
X10878316Y5031958D01*
X10843807Y5159465D01*
X10574598Y5261746D01*
X10286739Y5253220D01*
X10060393Y5159465D01*
X10025884Y5031958D01*
X5874516Y5031958D01*
X5840007Y5159465D01*
X5570798Y5261746D01*
X5282939Y5253220D01*
X5056593Y5159465D01*
X5022084Y5031958D01*
X76200Y5031958D01*
X76200Y14935200D01*
X3167469Y14935200D01*
X3249573Y14522438D01*
X3483384Y14172515D01*
X3833307Y13938704D01*
X4246069Y13856600D01*
X4288331Y13856600D01*
X4701093Y13938704D01*
X5051016Y14172515D01*
X5221191Y14427200D01*
X6326522Y14427200D01*
X6326522Y14215200D01*
X6342462Y14130486D01*
X6392528Y14052682D01*
X6468920Y14000485D01*
X6559600Y13982122D01*
X7359600Y13982122D01*
X7444314Y13998062D01*
X7522118Y14048128D01*
X7574315Y14124520D01*
X7592678Y14215200D01*
X7592678Y14815200D01*
X7576738Y14899914D01*
X7526672Y14977718D01*
X7450280Y15029915D01*
X7359600Y15048278D01*
X7158543Y15048278D01*
X6912410Y15294410D01*
X6747603Y15404531D01*
X6553200Y15443200D01*
X5221191Y15443200D01*
X5051016Y15697885D01*
X4701093Y15931696D01*
X4288331Y16013800D01*
X4246069Y16013800D01*
X3833307Y15931696D01*
X3483384Y15697885D01*
X3249573Y15347962D01*
X3167469Y14935200D01*
X76200Y14935200D01*
X76200Y22148800D01*
X660400Y22148800D01*
X660400Y17068800D01*
X726138Y16738315D01*
X913343Y16458143D01*
X1193515Y16270938D01*
X1524000Y16205200D01*
X1854485Y16270938D01*
X2134657Y16458143D01*
X2321862Y16738315D01*
X2387600Y17068800D01*
X2387600Y17240573D01*
X3110558Y17240573D01*
X3283420Y16823234D01*
X3607802Y16496386D01*
X4032572Y16318553D01*
X4216400Y16378639D01*
X4216400Y17424400D01*
X4318000Y17424400D01*
X4318000Y16378639D01*
X4501828Y16318553D01*
X4926598Y16496386D01*
X5250980Y16823234D01*
X5423842Y17240573D01*
X5363674Y17424400D01*
X4318000Y17424400D01*
X4216400Y17424400D01*
X3170726Y17424400D01*
X3110558Y17240573D01*
X2387600Y17240573D01*
X2387600Y17709827D01*
X3110558Y17709827D01*
X3170726Y17526000D01*
X4216400Y17526000D01*
X4216400Y18571761D01*
X4318000Y18571761D01*
X4318000Y17526000D01*
X5363674Y17526000D01*
X5423842Y17709827D01*
X5250980Y18127166D01*
X4926598Y18454014D01*
X4501828Y18631847D01*
X4318000Y18571761D01*
X4216400Y18571761D01*
X4032572Y18631847D01*
X3607802Y18454014D01*
X3283420Y18127166D01*
X3110558Y17709827D01*
X2387600Y17709827D01*
X2387600Y20015200D01*
X3167469Y20015200D01*
X3249573Y19602438D01*
X3483384Y19252515D01*
X3833307Y19018704D01*
X4246069Y18936600D01*
X4288331Y18936600D01*
X4701093Y19018704D01*
X5051016Y19252515D01*
X5284827Y19602438D01*
X5366931Y20015200D01*
X5284827Y20427962D01*
X5051016Y20777885D01*
X4701093Y21011696D01*
X4288331Y21093800D01*
X4246069Y21093800D01*
X3833307Y21011696D01*
X3483384Y20777885D01*
X3249573Y20427962D01*
X3167469Y20015200D01*
X2387600Y20015200D01*
X2387600Y22148800D01*
X2321862Y22479285D01*
X2271138Y22555200D01*
X3167469Y22555200D01*
X3249573Y22142438D01*
X3483384Y21792515D01*
X3833307Y21558704D01*
X4246069Y21476600D01*
X4288331Y21476600D01*
X4701093Y21558704D01*
X5051016Y21792515D01*
X5284827Y22142438D01*
X5366931Y22555200D01*
X5284827Y22967962D01*
X5051016Y23317885D01*
X4701093Y23551696D01*
X4288331Y23633800D01*
X4246069Y23633800D01*
X3833307Y23551696D01*
X3483384Y23317885D01*
X3249573Y22967962D01*
X3167469Y22555200D01*
X2271138Y22555200D01*
X2134657Y22759457D01*
X1854485Y22946662D01*
X1524000Y23012400D01*
X1193515Y22946662D01*
X913343Y22759457D01*
X726138Y22479285D01*
X660400Y22148800D01*
X76200Y22148800D01*
X76200Y25095200D01*
X3167469Y25095200D01*
X3249573Y24682438D01*
X3483384Y24332515D01*
X3833307Y24098704D01*
X4246069Y24016600D01*
X4288331Y24016600D01*
X4701093Y24098704D01*
X5051016Y24332515D01*
X5284827Y24682438D01*
X5366931Y25095200D01*
X5284827Y25507962D01*
X5051016Y25857885D01*
X4701093Y26091696D01*
X4288331Y26173800D01*
X4246069Y26173800D01*
X3833307Y26091696D01*
X3483384Y25857885D01*
X3249573Y25507962D01*
X3167469Y25095200D01*
X76200Y25095200D01*
X76200Y28485200D01*
X3184122Y28485200D01*
X3184122Y26785200D01*
X3200062Y26700486D01*
X3250128Y26622682D01*
X3326520Y26570485D01*
X3417200Y26552122D01*
X5117200Y26552122D01*
X5201914Y26568062D01*
X5279718Y26618128D01*
X5331915Y26694520D01*
X5350278Y26785200D01*
X5350278Y27635200D01*
X6604001Y27635200D01*
X6669738Y27304715D01*
X6856943Y27024543D01*
X10006543Y23874943D01*
X10286715Y23687738D01*
X10617200Y23622000D01*
X10642600Y23622000D01*
X10973085Y23687738D01*
X11253257Y23874943D01*
X11440462Y24155115D01*
X11506200Y24485600D01*
X14833600Y24485600D01*
X14899338Y24155115D01*
X15086543Y23874943D01*
X15366715Y23687738D01*
X15697200Y23622000D01*
X20777200Y23622000D01*
X21107685Y23687738D01*
X21387857Y23874943D01*
X21575062Y24155115D01*
X21640800Y24485600D01*
X21575062Y24816085D01*
X21387857Y25096257D01*
X21107685Y25283462D01*
X20777200Y25349200D01*
X15697200Y25349200D01*
X15366715Y25283462D01*
X15086543Y25096257D01*
X14899338Y24816085D01*
X14833600Y24485600D01*
X11506200Y24485600D01*
X11440462Y24816085D01*
X11253257Y25096257D01*
X11176710Y25147404D01*
X8078257Y28245857D01*
X7798085Y28433062D01*
X7467600Y28498799D01*
X7137115Y28433062D01*
X6856943Y28245857D01*
X6669738Y27965685D01*
X6604001Y27635200D01*
X5350278Y27635200D01*
X5350278Y28485200D01*
X5334338Y28569914D01*
X5284272Y28647718D01*
X5207880Y28699915D01*
X5117200Y28718278D01*
X3417200Y28718278D01*
X3332486Y28702338D01*
X3254682Y28652272D01*
X3202485Y28575880D01*
X3184122Y28485200D01*
X76200Y28485200D01*
X76200Y39039800D01*
X7416800Y39039800D01*
X7416800Y33782000D01*
X7416800Y33782000D01*
G37*
X7416800Y33782000D02*
X7422803Y33752354D01*
X7439868Y33727379D01*
X7465305Y33711011D01*
X7493000Y33705800D01*
X28194000Y33705800D01*
X28223646Y33711803D01*
X28248621Y33728868D01*
X28264989Y33754305D01*
X28270200Y33782000D01*
X28270200Y33789000D01*
X33021922Y33789000D01*
X33021922Y33189000D01*
X33037862Y33104286D01*
X33087928Y33026482D01*
X33164320Y32974285D01*
X33255000Y32955922D01*
X34055000Y32955922D01*
X34139714Y32971862D01*
X34217518Y33021928D01*
X34236186Y33049250D01*
X34499200Y33049250D01*
X34499200Y32516919D01*
X34549470Y32395557D01*
X34642357Y32302670D01*
X34763719Y32252400D01*
X35071050Y32252400D01*
X35153600Y32334950D01*
X35153600Y33131800D01*
X35255200Y33131800D01*
X35255200Y32334950D01*
X35337750Y32252400D01*
X35645081Y32252400D01*
X35766443Y32302670D01*
X35859330Y32395557D01*
X35909600Y32516919D01*
X35909600Y33049250D01*
X35827050Y33131800D01*
X35255200Y33131800D01*
X35153600Y33131800D01*
X34581750Y33131800D01*
X34499200Y33049250D01*
X34236186Y33049250D01*
X34269715Y33098320D01*
X34288078Y33189000D01*
X34288078Y33789000D01*
X34276924Y33848281D01*
X34499200Y33848281D01*
X34499200Y33315950D01*
X34581750Y33233400D01*
X35153600Y33233400D01*
X35153600Y34030250D01*
X35255200Y34030250D01*
X35255200Y33233400D01*
X35827050Y33233400D01*
X35909600Y33315950D01*
X35909600Y33848281D01*
X35859330Y33969643D01*
X35766443Y34062530D01*
X35645081Y34112800D01*
X35337750Y34112800D01*
X35255200Y34030250D01*
X35153600Y34030250D01*
X35071050Y34112800D01*
X34763719Y34112800D01*
X34642357Y34062530D01*
X34549470Y33969643D01*
X34499200Y33848281D01*
X34276924Y33848281D01*
X34272138Y33873714D01*
X34222072Y33951518D01*
X34145680Y34003715D01*
X34055000Y34022078D01*
X34010600Y34022078D01*
X34010600Y35070230D01*
X34110810Y35170266D01*
X34188311Y35356909D01*
X34188488Y35559004D01*
X34111312Y35745783D01*
X33968534Y35888810D01*
X33781891Y35966311D01*
X33579796Y35966488D01*
X33393017Y35889312D01*
X33249990Y35746534D01*
X33172489Y35559891D01*
X33172312Y35357796D01*
X33249488Y35171017D01*
X33299400Y35121018D01*
X33299400Y34022078D01*
X33255000Y34022078D01*
X33170286Y34006138D01*
X33092482Y33956072D01*
X33040285Y33879680D01*
X33021922Y33789000D01*
X28270200Y33789000D01*
X28270200Y39039800D01*
X38277800Y39039800D01*
X38277800Y33786907D01*
X36115329Y17081500D01*
X29972000Y17081500D01*
X29942354Y17075497D01*
X29917379Y17058432D01*
X29901011Y17032995D01*
X29895800Y17005300D01*
X29895800Y16141700D01*
X29901803Y16112054D01*
X29918868Y16087079D01*
X29944305Y16070711D01*
X29972000Y16065500D01*
X30467300Y16065500D01*
X30496946Y16071503D01*
X30521921Y16088568D01*
X30538289Y16114005D01*
X30543500Y16141700D01*
X30543500Y16433800D01*
X35775900Y16433800D01*
X35775900Y11582400D01*
X33235900Y11582400D01*
X33206254Y11576397D01*
X33181279Y11559332D01*
X33164911Y11533895D01*
X33159700Y11506200D01*
X33159700Y9499600D01*
X33165703Y9469954D01*
X33182768Y9444979D01*
X33208205Y9428611D01*
X33235900Y9423400D01*
X35775900Y9423400D01*
X35775900Y6883400D01*
X33235900Y6883400D01*
X33206254Y6877397D01*
X33181279Y6860332D01*
X33164911Y6834895D01*
X33159700Y6807200D01*
X33159700Y4864100D01*
X33165703Y4834454D01*
X33182768Y4809479D01*
X33208205Y4793111D01*
X33235900Y4787900D01*
X35775900Y4787900D01*
X35775900Y2247900D01*
X31496000Y2247900D01*
X31496000Y2590800D01*
X35356800Y2590800D01*
X35386446Y2596803D01*
X35411421Y2613868D01*
X35427789Y2639305D01*
X35433000Y2667000D01*
X35433000Y4356100D01*
X35426997Y4385746D01*
X35409932Y4410721D01*
X35384495Y4427089D01*
X35356800Y4432300D01*
X32816154Y4432300D01*
X32792051Y7264400D01*
X35356800Y7264400D01*
X35386446Y7270403D01*
X35411421Y7287468D01*
X35427789Y7312905D01*
X35433000Y7340600D01*
X35433000Y9004300D01*
X35426997Y9033946D01*
X35409932Y9058921D01*
X35384495Y9075289D01*
X35356800Y9080500D01*
X32816800Y9080500D01*
X32816800Y11925300D01*
X35356800Y11925300D01*
X35386446Y11931303D01*
X35411421Y11948368D01*
X35427789Y11973805D01*
X35433000Y12001500D01*
X35433000Y13703300D01*
X35426997Y13732946D01*
X35409932Y13757921D01*
X35384495Y13774289D01*
X35356800Y13779500D01*
X30454600Y13779500D01*
X30419728Y13771052D01*
X28708941Y12890500D01*
X22567900Y12890500D01*
X22567900Y13389800D01*
X22645381Y13389800D01*
X22766743Y13440070D01*
X22859630Y13532957D01*
X22909900Y13654319D01*
X22909900Y13836650D01*
X22827350Y13919200D01*
X22567900Y13919200D01*
X22567900Y14020800D01*
X22827350Y14020800D01*
X22909900Y14103350D01*
X22909900Y14285681D01*
X22859630Y14407043D01*
X22766743Y14499930D01*
X22645381Y14550200D01*
X22567900Y14550200D01*
X22567900Y15024100D01*
X28708941Y15024100D01*
X30419728Y14143548D01*
X30454600Y14135100D01*
X35356800Y14135100D01*
X35386446Y14141103D01*
X35411421Y14158168D01*
X35427789Y14183605D01*
X35433000Y14211300D01*
X35433000Y15608300D01*
X35426997Y15637946D01*
X35409932Y15662921D01*
X35384495Y15679289D01*
X35356800Y15684500D01*
X30530800Y15684500D01*
X30530800Y15976600D01*
X30524797Y16006246D01*
X30507732Y16031221D01*
X30482295Y16047589D01*
X30454600Y16052800D01*
X29959300Y16052800D01*
X29929654Y16046797D01*
X29904679Y16029732D01*
X29888311Y16004295D01*
X29883100Y15976600D01*
X29883100Y15468600D01*
X29889103Y15438954D01*
X29906168Y15413979D01*
X29931605Y15397611D01*
X29959300Y15392400D01*
X30911800Y15392400D01*
X30911800Y15328900D01*
X22339300Y15328900D01*
X22309654Y15322897D01*
X22284679Y15305832D01*
X22268311Y15280395D01*
X22263100Y15252700D01*
X22263100Y14550200D01*
X22228898Y14550200D01*
X22228898Y14467652D01*
X22146350Y14550200D01*
X21914019Y14550200D01*
X21792657Y14499930D01*
X21699770Y14407043D01*
X21672835Y14342016D01*
X21646772Y14382518D01*
X21570380Y14434715D01*
X21479700Y14453078D01*
X20879700Y14453078D01*
X20794986Y14437138D01*
X20717182Y14387072D01*
X20669167Y14316800D01*
X20564016Y14316800D01*
X20558538Y14345914D01*
X20508472Y14423718D01*
X20432080Y14475915D01*
X20341400Y14494278D01*
X19841400Y14494278D01*
X19756686Y14478338D01*
X19678882Y14428272D01*
X19626685Y14351880D01*
X19618791Y14312900D01*
X19387794Y14312900D01*
X21064194Y15989300D01*
X24765000Y15989300D01*
X24794646Y15995303D01*
X24819621Y16012368D01*
X24835989Y16037805D01*
X24841200Y16065500D01*
X24841200Y23431500D01*
X24835197Y23461146D01*
X24818132Y23486121D01*
X24792695Y23502489D01*
X24765000Y23507700D01*
X19304000Y23507700D01*
X19274354Y23501697D01*
X19249379Y23484632D01*
X19233011Y23459195D01*
X19227800Y23431500D01*
X19227800Y16065500D01*
X19233803Y16035854D01*
X19250868Y16010879D01*
X19276305Y15994511D01*
X19297609Y15990503D01*
X18628706Y15321600D01*
X16235079Y15321600D01*
X16306711Y15494109D01*
X16306888Y15696204D01*
X16254001Y15824200D01*
X16493431Y15824200D01*
X16536920Y15794485D01*
X16627600Y15776122D01*
X17127600Y15776122D01*
X17212314Y15792062D01*
X17290118Y15842128D01*
X17342315Y15918520D01*
X17360678Y16009200D01*
X17360678Y16325850D01*
X17797400Y16325850D01*
X17797400Y15943519D01*
X17847670Y15822157D01*
X17940557Y15729270D01*
X18061919Y15679000D01*
X18244250Y15679000D01*
X18326800Y15761550D01*
X18326800Y16408400D01*
X18428400Y16408400D01*
X18428400Y15761550D01*
X18510950Y15679000D01*
X18693281Y15679000D01*
X18814643Y15729270D01*
X18907530Y15822157D01*
X18957800Y15943519D01*
X18957800Y16325850D01*
X18875250Y16408400D01*
X18428400Y16408400D01*
X18326800Y16408400D01*
X17879950Y16408400D01*
X17797400Y16325850D01*
X17360678Y16325850D01*
X17360678Y16909200D01*
X17348320Y16974881D01*
X17797400Y16974881D01*
X17797400Y16592550D01*
X17879950Y16510000D01*
X18326800Y16510000D01*
X18326800Y17156850D01*
X18428400Y17156850D01*
X18428400Y16510000D01*
X18875250Y16510000D01*
X18957800Y16592550D01*
X18957800Y16974881D01*
X18907530Y17096243D01*
X18814643Y17189130D01*
X18693281Y17239400D01*
X18510950Y17239400D01*
X18428400Y17156850D01*
X18326800Y17156850D01*
X18244250Y17239400D01*
X18061919Y17239400D01*
X17940557Y17189130D01*
X17847670Y17096243D01*
X17797400Y16974881D01*
X17348320Y16974881D01*
X17344738Y16993914D01*
X17294672Y17071718D01*
X17218280Y17123915D01*
X17127600Y17142278D01*
X16627600Y17142278D01*
X16542886Y17126338D01*
X16465082Y17076272D01*
X16412885Y16999880D01*
X16394522Y16909200D01*
X16394522Y16535400D01*
X14429078Y16535400D01*
X14429078Y16592550D01*
X14413138Y16677264D01*
X14363475Y16754442D01*
X15102337Y16754442D01*
X16305797Y16738607D01*
X16334495Y16743811D01*
X16359932Y16760179D01*
X16376997Y16785154D01*
X16383000Y16814800D01*
X16383000Y16965407D01*
X16387478Y16987520D01*
X16387478Y18008600D01*
X16383000Y18032399D01*
X16383000Y19256487D01*
X16387478Y19278600D01*
X16387478Y20299680D01*
X16383000Y20323479D01*
X16383000Y20472400D01*
X16377789Y20500095D01*
X16361421Y20525532D01*
X16336446Y20542597D01*
X16306800Y20548600D01*
X12446000Y20548600D01*
X12418305Y20543389D01*
X12392868Y20527021D01*
X12375803Y20502046D01*
X12369800Y20472400D01*
X12369800Y19745573D01*
X12281443Y19833930D01*
X12160081Y19884200D01*
X11927750Y19884200D01*
X11845200Y19801650D01*
X11845200Y19354800D01*
X11865200Y19354800D01*
X11865200Y19253200D01*
X11845200Y19253200D01*
X11845200Y18389600D01*
X11865200Y18389600D01*
X11865200Y18288000D01*
X11845200Y18288000D01*
X11845200Y17841150D01*
X11927750Y17758600D01*
X12160081Y17758600D01*
X12281443Y17808870D01*
X12369800Y17897227D01*
X12369800Y17581991D01*
X12277256Y17600399D01*
X12226134Y17651610D01*
X12039491Y17729111D01*
X11837396Y17729288D01*
X11650617Y17652112D01*
X11507590Y17509334D01*
X11430089Y17322691D01*
X11429912Y17120596D01*
X11507088Y16933817D01*
X11615089Y16825628D01*
X11442000Y16825628D01*
X11409635Y16819538D01*
X11363043Y16866130D01*
X11241681Y16916400D01*
X11182350Y16916400D01*
X11099800Y16833850D01*
X11099800Y16002000D01*
X11119800Y16002000D01*
X11119800Y15900400D01*
X11099800Y15900400D01*
X11099800Y15880400D01*
X10998200Y15880400D01*
X10998200Y15900400D01*
X10978200Y15900400D01*
X10978200Y16002000D01*
X10998200Y16002000D01*
X10998200Y16833850D01*
X10915650Y16916400D01*
X10856319Y16916400D01*
X10734957Y16866130D01*
X10694455Y16825628D01*
X10442000Y16825628D01*
X10357286Y16809688D01*
X10279482Y16759622D01*
X10227285Y16683230D01*
X10210800Y16601824D01*
X10210800Y18205450D01*
X11164200Y18205450D01*
X11164200Y18023119D01*
X11214470Y17901757D01*
X11307357Y17808870D01*
X11428719Y17758600D01*
X11661050Y17758600D01*
X11743600Y17841150D01*
X11743600Y18288000D01*
X11246750Y18288000D01*
X11164200Y18205450D01*
X10210800Y18205450D01*
X10210800Y19170650D01*
X11164200Y19170650D01*
X11164200Y18988319D01*
X11214470Y18866957D01*
X11260027Y18821400D01*
X11214470Y18775843D01*
X11164200Y18654481D01*
X11164200Y18472150D01*
X11246750Y18389600D01*
X11743600Y18389600D01*
X11743600Y19253200D01*
X11246750Y19253200D01*
X11164200Y19170650D01*
X10210800Y19170650D01*
X10210800Y19619681D01*
X11164200Y19619681D01*
X11164200Y19437350D01*
X11246750Y19354800D01*
X11743600Y19354800D01*
X11743600Y19801650D01*
X11661050Y19884200D01*
X11428719Y19884200D01*
X11307357Y19833930D01*
X11214470Y19741043D01*
X11164200Y19619681D01*
X10210800Y19619681D01*
X10210800Y22707600D01*
X10183732Y22843682D01*
X10106647Y22959047D01*
X9545294Y23520400D01*
X26009600Y23520400D01*
X26009600Y17373600D01*
X26075338Y17043115D01*
X26262543Y16762943D01*
X26542715Y16575738D01*
X26873200Y16510000D01*
X27203685Y16575738D01*
X27483857Y16762943D01*
X27671062Y17043115D01*
X27736800Y17373600D01*
X27736800Y23162686D01*
X34240258Y29666143D01*
X34427462Y29946315D01*
X34493200Y30276800D01*
X34493200Y30774600D01*
X34596322Y30774600D01*
X34596322Y30682600D01*
X34612262Y30597886D01*
X34662328Y30520082D01*
X34738720Y30467885D01*
X34829400Y30449522D01*
X35579400Y30449522D01*
X35664114Y30465462D01*
X35741918Y30515528D01*
X35794115Y30591920D01*
X35812478Y30682600D01*
X35812478Y31882600D01*
X35796538Y31967314D01*
X35746472Y32045118D01*
X35670080Y32097315D01*
X35579400Y32115678D01*
X34829400Y32115678D01*
X34744686Y32099738D01*
X34666882Y32049672D01*
X34614685Y31973280D01*
X34596322Y31882600D01*
X34596322Y31790600D01*
X34288078Y31790600D01*
X34288078Y32089000D01*
X34272138Y32173714D01*
X34222072Y32251518D01*
X34145680Y32303715D01*
X34055000Y32322078D01*
X33255000Y32322078D01*
X33170286Y32306138D01*
X33092482Y32256072D01*
X33040285Y32179680D01*
X33021922Y32089000D01*
X33021922Y31854648D01*
X33018943Y31852657D01*
X32831738Y31572485D01*
X32766000Y31242000D01*
X32766000Y30634515D01*
X26262543Y24131057D01*
X26075338Y23850885D01*
X26009600Y23520400D01*
X9545294Y23520400D01*
X8328647Y24737047D01*
X8213283Y24814132D01*
X8077200Y24841200D01*
X7558871Y24841200D01*
X7533623Y24902305D01*
X7326595Y25109695D01*
X7055962Y25222072D01*
X6762924Y25222328D01*
X6492095Y25110423D01*
X6284705Y24903395D01*
X6172328Y24632762D01*
X6172072Y24339724D01*
X6283977Y24068895D01*
X6491005Y23861505D01*
X6761638Y23749128D01*
X7054676Y23748872D01*
X7325505Y23860777D01*
X7532895Y24067805D01*
X7558721Y24130000D01*
X7929906Y24130000D01*
X9499600Y22560306D01*
X9499600Y22167999D01*
X9446247Y22247847D01*
X8836647Y22857447D01*
X8721283Y22934532D01*
X8585200Y22961600D01*
X7508071Y22961600D01*
X7482823Y23022705D01*
X7275795Y23230095D01*
X7005162Y23342472D01*
X6712124Y23342728D01*
X6441295Y23230823D01*
X6233905Y23023795D01*
X6121528Y22753162D01*
X6121272Y22460124D01*
X6233177Y22189295D01*
X6440205Y21981905D01*
X6710838Y21869528D01*
X7003876Y21869272D01*
X7274705Y21981177D01*
X7482095Y22188205D01*
X7507921Y22250400D01*
X8437906Y22250400D01*
X8839200Y21849106D01*
X8839200Y19704026D01*
X8836647Y19707847D01*
X8125447Y20419047D01*
X8010083Y20496132D01*
X7874000Y20523200D01*
X7508071Y20523200D01*
X7482823Y20584305D01*
X7275795Y20791695D01*
X7005162Y20904072D01*
X6712124Y20904328D01*
X6441295Y20792423D01*
X6233905Y20585395D01*
X6121528Y20314762D01*
X6121272Y20021724D01*
X6233177Y19750895D01*
X6440205Y19543505D01*
X6710838Y19431128D01*
X7003876Y19430872D01*
X7274705Y19542777D01*
X7482095Y19749805D01*
X7507921Y19812000D01*
X7726706Y19812000D01*
X8229600Y19309106D01*
X8229600Y16403294D01*
X8181353Y16355047D01*
X8104268Y16239683D01*
X8097409Y16205200D01*
X8077200Y16103600D01*
X8077200Y14732000D01*
X8104268Y14595917D01*
X8181353Y14480553D01*
X8947353Y13714553D01*
X9062718Y13637468D01*
X9198800Y13610400D01*
X9212896Y13610400D01*
X9209372Y13593000D01*
X9209372Y13339000D01*
X9212646Y13321600D01*
X8546400Y13321600D01*
X8512222Y13314802D01*
X8470000Y13323200D01*
X7651098Y13323200D01*
X7433091Y13537426D01*
X7120665Y13663647D01*
X6783719Y13660700D01*
X6473548Y13529033D01*
X6237374Y13288691D01*
X6111153Y12976265D01*
X6109982Y12970097D01*
X5992286Y12852400D01*
X1524000Y12852400D01*
X1193515Y12786662D01*
X913343Y12599457D01*
X726138Y12319285D01*
X660400Y11988800D01*
X660400Y6908800D01*
X726138Y6578315D01*
X913343Y6298143D01*
X1193515Y6110938D01*
X1524000Y6045200D01*
X1854485Y6110938D01*
X2134657Y6298143D01*
X2321862Y6578315D01*
X2387600Y6908800D01*
X2387600Y9414460D01*
X4825892Y9414460D01*
X4920432Y9185656D01*
X5095335Y9010447D01*
X5323974Y8915508D01*
X5571540Y8915292D01*
X5800344Y9009832D01*
X5975553Y9184735D01*
X6070492Y9413374D01*
X6070708Y9660940D01*
X5976168Y9889744D01*
X5801265Y10064953D01*
X5572626Y10159892D01*
X5325060Y10160108D01*
X5096256Y10065568D01*
X4921047Y9890665D01*
X4826108Y9662026D01*
X4825892Y9414460D01*
X2387600Y9414460D01*
X2387600Y11125200D01*
X6350000Y11125200D01*
X6680485Y11190938D01*
X6960657Y11378143D01*
X6985267Y11402753D01*
X6946973Y11310530D01*
X6946827Y11143802D01*
X7010497Y10989709D01*
X7128289Y10871711D01*
X7282270Y10807773D01*
X7448998Y10807627D01*
X7603091Y10871297D01*
X7615015Y10883200D01*
X7829902Y10883200D01*
X7866528Y10826282D01*
X7942920Y10774085D01*
X8033600Y10755722D01*
X8933600Y10755722D01*
X9018314Y10771662D01*
X9096118Y10821728D01*
X9148315Y10898120D01*
X9166678Y10988800D01*
X9166678Y11488800D01*
X9150738Y11573514D01*
X9100672Y11651318D01*
X9024280Y11703515D01*
X8933600Y11721878D01*
X8033600Y11721878D01*
X7948886Y11705938D01*
X7871082Y11655872D01*
X7829080Y11594400D01*
X7573581Y11594400D01*
X7449730Y11645827D01*
X7283002Y11645973D01*
X7190102Y11607587D01*
X7519458Y11936943D01*
X7568792Y12010776D01*
X7631026Y12074109D01*
X7661485Y12149503D01*
X7706662Y12217115D01*
X7723985Y12304205D01*
X7725195Y12307200D01*
X7894455Y12307200D01*
X7942920Y12274085D01*
X8033600Y12255722D01*
X8358308Y12255722D01*
X8483600Y12230800D01*
X8608892Y12255722D01*
X8933600Y12255722D01*
X9018314Y12271662D01*
X9096118Y12321728D01*
X9148315Y12398120D01*
X9166678Y12488800D01*
X9166678Y12610400D01*
X9212896Y12610400D01*
X9209372Y12593000D01*
X9209372Y12339000D01*
X9225312Y12254286D01*
X9249886Y12216098D01*
X9227735Y12183680D01*
X9209372Y12093000D01*
X9209372Y11839000D01*
X9225312Y11754286D01*
X9275378Y11676482D01*
X9351770Y11624285D01*
X9442450Y11605922D01*
X9470616Y11605922D01*
X9487465Y11597055D01*
X9625629Y11584344D01*
X9831159Y11605922D01*
X10208922Y11605922D01*
X10208922Y11365882D01*
X10208143Y11364628D01*
X10185595Y11227724D01*
X10208922Y11127859D01*
X10208922Y10839450D01*
X10213400Y10815651D01*
X10213400Y10112401D01*
X10100056Y10065568D01*
X9924847Y9890665D01*
X9829908Y9662026D01*
X9829692Y9414460D01*
X9924232Y9185656D01*
X10099135Y9010447D01*
X10327774Y8915508D01*
X10575340Y8915292D01*
X10804144Y9009832D01*
X10979353Y9184735D01*
X11074292Y9413374D01*
X11074508Y9660940D01*
X10979968Y9889744D01*
X10924600Y9945209D01*
X10924600Y10609896D01*
X10942000Y10606372D01*
X11196000Y10606372D01*
X11280714Y10622312D01*
X11318902Y10646886D01*
X11351320Y10624735D01*
X11442000Y10606372D01*
X11696000Y10606372D01*
X11780714Y10622312D01*
X11818902Y10646886D01*
X11851320Y10624735D01*
X11942000Y10606372D01*
X12196000Y10606372D01*
X12280714Y10622312D01*
X12318902Y10646886D01*
X12351320Y10624735D01*
X12442000Y10606372D01*
X12643478Y10606372D01*
X11635753Y9598647D01*
X11558668Y9483283D01*
X11543455Y9406800D01*
X11531600Y9347200D01*
X11531600Y6451600D01*
X11558668Y6315517D01*
X11635753Y6200153D01*
X12397753Y5438153D01*
X12513117Y5361068D01*
X12649200Y5334000D01*
X23571200Y5334000D01*
X23707283Y5361068D01*
X23822647Y5438153D01*
X25232247Y6847753D01*
X25309332Y6963118D01*
X25336400Y7099200D01*
X25336400Y7545722D01*
X25380800Y7545722D01*
X25465514Y7561662D01*
X25543318Y7611728D01*
X25595515Y7688120D01*
X25613878Y7778800D01*
X25613878Y8578800D01*
X25597938Y8663514D01*
X25547872Y8741318D01*
X25471480Y8793515D01*
X25380800Y8811878D01*
X24580800Y8811878D01*
X24496086Y8795938D01*
X24418282Y8745872D01*
X24366085Y8669480D01*
X24347722Y8578800D01*
X24347722Y7778800D01*
X24363662Y7694086D01*
X24413728Y7616282D01*
X24490120Y7564085D01*
X24580800Y7545722D01*
X24625200Y7545722D01*
X24625200Y7246494D01*
X23423906Y6045200D01*
X12796494Y6045200D01*
X12242800Y6598894D01*
X12242800Y6939850D01*
X12377000Y6939850D01*
X12377000Y6757519D01*
X12427270Y6636157D01*
X12520157Y6543270D01*
X12641519Y6493000D01*
X13023850Y6493000D01*
X13106400Y6575550D01*
X13106400Y7022400D01*
X13208000Y7022400D01*
X13208000Y6575550D01*
X13290550Y6493000D01*
X13672881Y6493000D01*
X13794243Y6543270D01*
X13887130Y6636157D01*
X13893800Y6652260D01*
X13900470Y6636157D01*
X13993357Y6543270D01*
X14114719Y6493000D01*
X14497050Y6493000D01*
X14579600Y6575550D01*
X14579600Y7022400D01*
X14681200Y7022400D01*
X14681200Y6575550D01*
X14763750Y6493000D01*
X15146081Y6493000D01*
X15267443Y6543270D01*
X15360330Y6636157D01*
X15410600Y6757519D01*
X15410600Y6939850D01*
X15328050Y7022400D01*
X14681200Y7022400D01*
X14579600Y7022400D01*
X13932750Y7022400D01*
X13893800Y6983450D01*
X13854850Y7022400D01*
X13208000Y7022400D01*
X13106400Y7022400D01*
X12459550Y7022400D01*
X12377000Y6939850D01*
X12242800Y6939850D01*
X12242800Y7388881D01*
X12377000Y7388881D01*
X12377000Y7206550D01*
X12459550Y7124000D01*
X13106400Y7124000D01*
X13106400Y7570850D01*
X13208000Y7570850D01*
X13208000Y7124000D01*
X13854850Y7124000D01*
X13893800Y7162950D01*
X13932750Y7124000D01*
X14579600Y7124000D01*
X14579600Y7570850D01*
X14497050Y7653400D01*
X14114719Y7653400D01*
X13993357Y7603130D01*
X13900470Y7510243D01*
X13893800Y7494140D01*
X13887130Y7510243D01*
X13794243Y7603130D01*
X13672881Y7653400D01*
X13290550Y7653400D01*
X13208000Y7570850D01*
X13106400Y7570850D01*
X13023850Y7653400D01*
X12641519Y7653400D01*
X12520157Y7603130D01*
X12427270Y7510243D01*
X12377000Y7388881D01*
X12242800Y7388881D01*
X12242800Y9199906D01*
X13213400Y10170506D01*
X13213400Y9296694D01*
X12972984Y9056278D01*
X12707200Y9056278D01*
X12622486Y9040338D01*
X12544682Y8990272D01*
X12492485Y8913880D01*
X12474122Y8823200D01*
X12474122Y8323200D01*
X12490062Y8238486D01*
X12540128Y8160682D01*
X12616520Y8108485D01*
X12707200Y8090122D01*
X13607200Y8090122D01*
X13691914Y8106062D01*
X13769718Y8156128D01*
X13821915Y8232520D01*
X13840278Y8323200D01*
X13840278Y8823200D01*
X13824946Y8904685D01*
X13897532Y9013317D01*
X13924600Y9149400D01*
X13924600Y9194506D01*
X14085392Y9033714D01*
X14017882Y8990272D01*
X13965685Y8913880D01*
X13947322Y8823200D01*
X13947322Y8323200D01*
X13963262Y8238486D01*
X14013328Y8160682D01*
X14089720Y8108485D01*
X14180400Y8090122D01*
X15080400Y8090122D01*
X15165114Y8106062D01*
X15242918Y8156128D01*
X15295115Y8232520D01*
X15313478Y8323200D01*
X15313478Y8823200D01*
X15297538Y8907914D01*
X15247472Y8985718D01*
X15171080Y9037915D01*
X15080400Y9056278D01*
X14973135Y9056278D01*
X14958932Y9127682D01*
X14920810Y9184735D01*
X14881847Y9243048D01*
X14424600Y9700294D01*
X14424600Y10054836D01*
X15316200Y9163236D01*
X15316200Y7554373D01*
X15267443Y7603130D01*
X15146081Y7653400D01*
X14763750Y7653400D01*
X14681200Y7570850D01*
X14681200Y7124000D01*
X15328050Y7124000D01*
X15328292Y7124242D01*
X15339268Y7108179D01*
X15364705Y7091811D01*
X15392400Y7086600D01*
X21183600Y7086600D01*
X21213246Y7092603D01*
X21238221Y7109668D01*
X21254589Y7135105D01*
X21259800Y7162800D01*
X21259800Y8578800D01*
X22747722Y8578800D01*
X22747722Y7778800D01*
X22763662Y7694086D01*
X22813728Y7616282D01*
X22890120Y7564085D01*
X22980800Y7545722D01*
X23780800Y7545722D01*
X23865514Y7561662D01*
X23943318Y7611728D01*
X23995515Y7688120D01*
X24013878Y7778800D01*
X24013878Y8578800D01*
X23997938Y8663514D01*
X23947872Y8741318D01*
X23871480Y8793515D01*
X23780800Y8811878D01*
X23736400Y8811878D01*
X23736400Y9171378D01*
X23812314Y9185662D01*
X23890118Y9235728D01*
X23920799Y9280630D01*
X23947670Y9215757D01*
X24040557Y9122870D01*
X24161919Y9072600D01*
X24294250Y9072600D01*
X24376800Y9155150D01*
X24376800Y9652000D01*
X24478400Y9652000D01*
X24478400Y9155150D01*
X24560950Y9072600D01*
X24693281Y9072600D01*
X24814643Y9122870D01*
X24907530Y9215757D01*
X24957800Y9337119D01*
X24957800Y9569450D01*
X24875250Y9652000D01*
X24478400Y9652000D01*
X24376800Y9652000D01*
X24356800Y9652000D01*
X24356800Y9753600D01*
X24376800Y9753600D01*
X24376800Y10250450D01*
X24478400Y10250450D01*
X24478400Y9753600D01*
X24875250Y9753600D01*
X24957800Y9836150D01*
X24957800Y10068481D01*
X24907530Y10189843D01*
X24814643Y10282730D01*
X24693281Y10333000D01*
X24560950Y10333000D01*
X24478400Y10250450D01*
X24376800Y10250450D01*
X24294250Y10333000D01*
X24161919Y10333000D01*
X24040557Y10282730D01*
X23947670Y10189843D01*
X23920735Y10124816D01*
X23894672Y10165318D01*
X23818280Y10217515D01*
X23727600Y10235878D01*
X23327600Y10235878D01*
X23242886Y10219938D01*
X23165082Y10169872D01*
X23112885Y10093480D01*
X23094522Y10002800D01*
X23094522Y9787920D01*
X23052268Y9724683D01*
X23039589Y9660940D01*
X23025200Y9588600D01*
X23025200Y8811878D01*
X22980800Y8811878D01*
X22896086Y8795938D01*
X22818282Y8745872D01*
X22766085Y8669480D01*
X22747722Y8578800D01*
X21259800Y8578800D01*
X21259800Y11988800D01*
X21253797Y12018446D01*
X21236732Y12043421D01*
X21211295Y12059789D01*
X21183600Y12065000D01*
X18257494Y12065000D01*
X17929847Y12392647D01*
X17814483Y12469732D01*
X17678400Y12496800D01*
X16517315Y12496800D01*
X16534010Y12513466D01*
X16611511Y12700109D01*
X16611535Y12727850D01*
X19511200Y12727850D01*
X19511200Y12495519D01*
X19561470Y12374157D01*
X19654357Y12281270D01*
X19775719Y12231000D01*
X19958050Y12231000D01*
X20040600Y12313550D01*
X20040600Y12810400D01*
X20142200Y12810400D01*
X20142200Y12313550D01*
X20224750Y12231000D01*
X20407081Y12231000D01*
X20528443Y12281270D01*
X20621330Y12374157D01*
X20671600Y12495519D01*
X20671600Y12727850D01*
X20589050Y12810400D01*
X20142200Y12810400D01*
X20040600Y12810400D01*
X19593750Y12810400D01*
X19511200Y12727850D01*
X16611535Y12727850D01*
X16611688Y12902204D01*
X16579791Y12979400D01*
X16579850Y12979400D01*
X16662400Y13061950D01*
X16662400Y13423900D01*
X16764000Y13423900D01*
X16764000Y13061950D01*
X16846550Y12979400D01*
X16943981Y12979400D01*
X17065343Y13029670D01*
X17158230Y13122557D01*
X17208500Y13243919D01*
X17208500Y13341350D01*
X17125950Y13423900D01*
X16764000Y13423900D01*
X16662400Y13423900D01*
X16300450Y13423900D01*
X16217900Y13341350D01*
X16217900Y13304192D01*
X16205091Y13309511D01*
X16095378Y13309607D01*
X16095378Y13639800D01*
X16080514Y13718797D01*
X16095378Y13792200D01*
X16095378Y14110400D01*
X16315022Y14110400D01*
X16315022Y13873695D01*
X16268170Y13826843D01*
X16217900Y13705481D01*
X16217900Y13608050D01*
X16300450Y13525500D01*
X16662400Y13525500D01*
X16662400Y13545500D01*
X16764000Y13545500D01*
X16764000Y13525500D01*
X17125950Y13525500D01*
X17202150Y13601700D01*
X19619518Y13601700D01*
X19624262Y13576486D01*
X19674328Y13498682D01*
X19719230Y13468001D01*
X19654357Y13441130D01*
X19561470Y13348243D01*
X19511200Y13226881D01*
X19511200Y12994550D01*
X19593750Y12912000D01*
X20040600Y12912000D01*
X20040600Y12932000D01*
X20142200Y12932000D01*
X20142200Y12912000D01*
X20589050Y12912000D01*
X20671600Y12994550D01*
X20671600Y13226881D01*
X20621330Y13348243D01*
X20528443Y13441130D01*
X20463416Y13468065D01*
X20503918Y13494128D01*
X20556115Y13570520D01*
X20563219Y13605600D01*
X20681665Y13605600D01*
X20712628Y13557482D01*
X20789020Y13505285D01*
X20879700Y13486922D01*
X21479700Y13486922D01*
X21564414Y13502862D01*
X21642218Y13552928D01*
X21672899Y13597830D01*
X21699770Y13532957D01*
X21792657Y13440070D01*
X21914019Y13389800D01*
X22146350Y13389800D01*
X22228898Y13472348D01*
X22228898Y13389800D01*
X22263100Y13389800D01*
X22263100Y12661900D01*
X22269103Y12632254D01*
X22286168Y12607279D01*
X22311605Y12590911D01*
X22339300Y12585700D01*
X30911800Y12585700D01*
X30911800Y76200D01*
X76200Y76200D01*
X76200Y4035842D01*
X5022084Y4035842D01*
X5056593Y3908335D01*
X5325802Y3806054D01*
X5613661Y3814580D01*
X5840007Y3908335D01*
X5874516Y4035842D01*
X10025884Y4035842D01*
X10060393Y3908335D01*
X10329602Y3806054D01*
X10617461Y3814580D01*
X10843807Y3908335D01*
X10878316Y4035842D01*
X10452100Y4462058D01*
X10025884Y4035842D01*
X5874516Y4035842D01*
X5448300Y4462058D01*
X5022084Y4035842D01*
X76200Y4035842D01*
X76200Y4656398D01*
X4720454Y4656398D01*
X4728980Y4368539D01*
X4822735Y4142193D01*
X4950242Y4107684D01*
X5376458Y4533900D01*
X5520142Y4533900D01*
X5946358Y4107684D01*
X6073865Y4142193D01*
X6176146Y4411402D01*
X6168890Y4656398D01*
X9724254Y4656398D01*
X9732780Y4368539D01*
X9826535Y4142193D01*
X9954042Y4107684D01*
X10380258Y4533900D01*
X10523942Y4533900D01*
X10950158Y4107684D01*
X11077665Y4142193D01*
X11179946Y4411402D01*
X11171420Y4699261D01*
X11077665Y4925607D01*
X10950158Y4960116D01*
X10523942Y4533900D01*
X10380258Y4533900D01*
X9954042Y4960116D01*
X9826535Y4925607D01*
X9724254Y4656398D01*
X6168890Y4656398D01*
X6167620Y4699261D01*
X6073865Y4925607D01*
X5946358Y4960116D01*
X5520142Y4533900D01*
X5376458Y4533900D01*
X4950242Y4960116D01*
X4822735Y4925607D01*
X4720454Y4656398D01*
X76200Y4656398D01*
X76200Y5031958D01*
X5022084Y5031958D01*
X5448300Y4605742D01*
X5874516Y5031958D01*
X10025884Y5031958D01*
X10452100Y4605742D01*
X10878316Y5031958D01*
X10843807Y5159465D01*
X10574598Y5261746D01*
X10286739Y5253220D01*
X10060393Y5159465D01*
X10025884Y5031958D01*
X5874516Y5031958D01*
X5840007Y5159465D01*
X5570798Y5261746D01*
X5282939Y5253220D01*
X5056593Y5159465D01*
X5022084Y5031958D01*
X76200Y5031958D01*
X76200Y14935200D01*
X3167469Y14935200D01*
X3249573Y14522438D01*
X3483384Y14172515D01*
X3833307Y13938704D01*
X4246069Y13856600D01*
X4288331Y13856600D01*
X4701093Y13938704D01*
X5051016Y14172515D01*
X5221191Y14427200D01*
X6326522Y14427200D01*
X6326522Y14215200D01*
X6342462Y14130486D01*
X6392528Y14052682D01*
X6468920Y14000485D01*
X6559600Y13982122D01*
X7359600Y13982122D01*
X7444314Y13998062D01*
X7522118Y14048128D01*
X7574315Y14124520D01*
X7592678Y14215200D01*
X7592678Y14815200D01*
X7576738Y14899914D01*
X7526672Y14977718D01*
X7450280Y15029915D01*
X7359600Y15048278D01*
X7158543Y15048278D01*
X6912410Y15294410D01*
X6747603Y15404531D01*
X6553200Y15443200D01*
X5221191Y15443200D01*
X5051016Y15697885D01*
X4701093Y15931696D01*
X4288331Y16013800D01*
X4246069Y16013800D01*
X3833307Y15931696D01*
X3483384Y15697885D01*
X3249573Y15347962D01*
X3167469Y14935200D01*
X76200Y14935200D01*
X76200Y22148800D01*
X660400Y22148800D01*
X660400Y17068800D01*
X726138Y16738315D01*
X913343Y16458143D01*
X1193515Y16270938D01*
X1524000Y16205200D01*
X1854485Y16270938D01*
X2134657Y16458143D01*
X2321862Y16738315D01*
X2387600Y17068800D01*
X2387600Y17240573D01*
X3110558Y17240573D01*
X3283420Y16823234D01*
X3607802Y16496386D01*
X4032572Y16318553D01*
X4216400Y16378639D01*
X4216400Y17424400D01*
X4318000Y17424400D01*
X4318000Y16378639D01*
X4501828Y16318553D01*
X4926598Y16496386D01*
X5250980Y16823234D01*
X5423842Y17240573D01*
X5363674Y17424400D01*
X4318000Y17424400D01*
X4216400Y17424400D01*
X3170726Y17424400D01*
X3110558Y17240573D01*
X2387600Y17240573D01*
X2387600Y17709827D01*
X3110558Y17709827D01*
X3170726Y17526000D01*
X4216400Y17526000D01*
X4216400Y18571761D01*
X4318000Y18571761D01*
X4318000Y17526000D01*
X5363674Y17526000D01*
X5423842Y17709827D01*
X5250980Y18127166D01*
X4926598Y18454014D01*
X4501828Y18631847D01*
X4318000Y18571761D01*
X4216400Y18571761D01*
X4032572Y18631847D01*
X3607802Y18454014D01*
X3283420Y18127166D01*
X3110558Y17709827D01*
X2387600Y17709827D01*
X2387600Y20015200D01*
X3167469Y20015200D01*
X3249573Y19602438D01*
X3483384Y19252515D01*
X3833307Y19018704D01*
X4246069Y18936600D01*
X4288331Y18936600D01*
X4701093Y19018704D01*
X5051016Y19252515D01*
X5284827Y19602438D01*
X5366931Y20015200D01*
X5284827Y20427962D01*
X5051016Y20777885D01*
X4701093Y21011696D01*
X4288331Y21093800D01*
X4246069Y21093800D01*
X3833307Y21011696D01*
X3483384Y20777885D01*
X3249573Y20427962D01*
X3167469Y20015200D01*
X2387600Y20015200D01*
X2387600Y22148800D01*
X2321862Y22479285D01*
X2271138Y22555200D01*
X3167469Y22555200D01*
X3249573Y22142438D01*
X3483384Y21792515D01*
X3833307Y21558704D01*
X4246069Y21476600D01*
X4288331Y21476600D01*
X4701093Y21558704D01*
X5051016Y21792515D01*
X5284827Y22142438D01*
X5366931Y22555200D01*
X5284827Y22967962D01*
X5051016Y23317885D01*
X4701093Y23551696D01*
X4288331Y23633800D01*
X4246069Y23633800D01*
X3833307Y23551696D01*
X3483384Y23317885D01*
X3249573Y22967962D01*
X3167469Y22555200D01*
X2271138Y22555200D01*
X2134657Y22759457D01*
X1854485Y22946662D01*
X1524000Y23012400D01*
X1193515Y22946662D01*
X913343Y22759457D01*
X726138Y22479285D01*
X660400Y22148800D01*
X76200Y22148800D01*
X76200Y25095200D01*
X3167469Y25095200D01*
X3249573Y24682438D01*
X3483384Y24332515D01*
X3833307Y24098704D01*
X4246069Y24016600D01*
X4288331Y24016600D01*
X4701093Y24098704D01*
X5051016Y24332515D01*
X5284827Y24682438D01*
X5366931Y25095200D01*
X5284827Y25507962D01*
X5051016Y25857885D01*
X4701093Y26091696D01*
X4288331Y26173800D01*
X4246069Y26173800D01*
X3833307Y26091696D01*
X3483384Y25857885D01*
X3249573Y25507962D01*
X3167469Y25095200D01*
X76200Y25095200D01*
X76200Y28485200D01*
X3184122Y28485200D01*
X3184122Y26785200D01*
X3200062Y26700486D01*
X3250128Y26622682D01*
X3326520Y26570485D01*
X3417200Y26552122D01*
X5117200Y26552122D01*
X5201914Y26568062D01*
X5279718Y26618128D01*
X5331915Y26694520D01*
X5350278Y26785200D01*
X5350278Y27635200D01*
X6604001Y27635200D01*
X6669738Y27304715D01*
X6856943Y27024543D01*
X10006543Y23874943D01*
X10286715Y23687738D01*
X10617200Y23622000D01*
X10642600Y23622000D01*
X10973085Y23687738D01*
X11253257Y23874943D01*
X11440462Y24155115D01*
X11506200Y24485600D01*
X14833600Y24485600D01*
X14899338Y24155115D01*
X15086543Y23874943D01*
X15366715Y23687738D01*
X15697200Y23622000D01*
X20777200Y23622000D01*
X21107685Y23687738D01*
X21387857Y23874943D01*
X21575062Y24155115D01*
X21640800Y24485600D01*
X21575062Y24816085D01*
X21387857Y25096257D01*
X21107685Y25283462D01*
X20777200Y25349200D01*
X15697200Y25349200D01*
X15366715Y25283462D01*
X15086543Y25096257D01*
X14899338Y24816085D01*
X14833600Y24485600D01*
X11506200Y24485600D01*
X11440462Y24816085D01*
X11253257Y25096257D01*
X11176710Y25147404D01*
X8078257Y28245857D01*
X7798085Y28433062D01*
X7467600Y28498799D01*
X7137115Y28433062D01*
X6856943Y28245857D01*
X6669738Y27965685D01*
X6604001Y27635200D01*
X5350278Y27635200D01*
X5350278Y28485200D01*
X5334338Y28569914D01*
X5284272Y28647718D01*
X5207880Y28699915D01*
X5117200Y28718278D01*
X3417200Y28718278D01*
X3332486Y28702338D01*
X3254682Y28652272D01*
X3202485Y28575880D01*
X3184122Y28485200D01*
X76200Y28485200D01*
X76200Y39039800D01*
X7416800Y39039800D01*
X7416800Y33782000D01*
G36*
X11507300Y14629300D02*
X13130700Y14629300D01*
X13130700Y14649300D01*
X13232300Y14649300D01*
X13232300Y14629300D01*
X13252300Y14629300D01*
X13252300Y14527700D01*
X13232300Y14527700D01*
X13232300Y12904300D01*
X13252300Y12904300D01*
X13252300Y12802700D01*
X13232300Y12802700D01*
X13232300Y12782700D01*
X13130700Y12782700D01*
X13130700Y12802700D01*
X11507300Y12802700D01*
X11507300Y12782700D01*
X11405700Y12782700D01*
X11405700Y12802700D01*
X11385700Y12802700D01*
X11385700Y12904300D01*
X11405700Y12904300D01*
X11405700Y14527700D01*
X11507300Y14527700D01*
X11507300Y12904300D01*
X13130700Y12904300D01*
X13130700Y14527700D01*
X11507300Y14527700D01*
X11405700Y14527700D01*
X11385700Y14527700D01*
X11385700Y14629300D01*
X11405700Y14629300D01*
X11405700Y14649300D01*
X11507300Y14649300D01*
X11507300Y14629300D01*
X11507300Y14629300D01*
G37*
X11507300Y14629300D02*
X13130700Y14629300D01*
X13130700Y14649300D01*
X13232300Y14649300D01*
X13232300Y14629300D01*
X13252300Y14629300D01*
X13252300Y14527700D01*
X13232300Y14527700D01*
X13232300Y12904300D01*
X13252300Y12904300D01*
X13252300Y12802700D01*
X13232300Y12802700D01*
X13232300Y12782700D01*
X13130700Y12782700D01*
X13130700Y12802700D01*
X11507300Y12802700D01*
X11507300Y12782700D01*
X11405700Y12782700D01*
X11405700Y12802700D01*
X11385700Y12802700D01*
X11385700Y12904300D01*
X11405700Y12904300D01*
X11405700Y14527700D01*
X11507300Y14527700D01*
X11507300Y12904300D01*
X13130700Y12904300D01*
X13130700Y14527700D01*
X11507300Y14527700D01*
X11405700Y14527700D01*
X11385700Y14527700D01*
X11385700Y14629300D01*
X11405700Y14629300D01*
X11405700Y14649300D01*
X11507300Y14649300D01*
X11507300Y14629300D01*
M02*
