M48
;DRILL file {KiCad 4.0.5} date 05/26/17 15:09:48
;FORMAT={2:4/ absolute / inch / suppress leading zeros}
FMAT,2
INCH,TZ
T1C0.010
T2C0.030
T3C0.032
T4C0.039
T5C0.040
%
G90
G05
M72
T1
X3510Y7471
X3895Y11445
X3970Y3890
X4045Y6995
X4350Y5900
X4350Y5650
X4350Y5400
X4350Y5150
X4350Y4900
X4555Y6660
X4580Y3960
X4600Y5900
X4600Y5650
X4600Y5400
X4600Y5150
X4600Y4900
X4850Y5900
X4850Y5650
X4850Y5400
X4850Y5150
X4850Y4900
X4955Y3960
X5100Y5900
X5100Y5650
X5100Y5400
X5100Y5150
X5100Y4900
X5350Y5900
X5350Y5650
X5350Y5400
X5350Y5150
X5350Y4900
X5395Y11445
X5485Y2885
X5788Y7785
X5795Y6879
X5880Y2885
X6005Y2660
X6070Y6455
X6260Y2660
X6383Y5040
X6500Y4320
X6520Y2660
X6640Y6190
X6675Y7170
X6780Y2660
X6895Y11445
X7040Y2660
X7145Y1660
X7184Y4296
X7200Y3760
X7255Y7020
X7260Y6627
X7290Y3215
X7300Y2660
X7440Y8840
X7440Y8520
X7440Y8190
X7560Y2660
X7740Y3665
X7740Y3215
X7820Y2660
X7970Y8475
X7988Y7210
X8060Y5820
X8080Y2660
X8220Y4180
X8220Y3920
X8220Y3660
X8220Y3400
X8220Y3140
X8220Y2880
X8250Y6010
X8470Y8710
X8475Y6150
X8775Y6150
X8970Y8470
X9075Y6150
X9120Y1660
X9145Y3065
X9335Y8865
X9375Y8400
X9375Y7900
X9375Y6625
X9375Y6150
X9635Y2535
X9700Y6150
X9910Y4640
X9925Y8755
X9925Y8250
X9925Y6900
X9925Y6450
X10000Y6150
X10110Y4490
X10110Y4240
X10110Y3990
X10110Y3740
X10110Y3490
X10110Y3240
X10110Y2990
X10110Y2740
X10110Y2490
X10110Y2240
X10110Y1990
X10110Y1740
X10110Y1490
X10110Y1240
X10110Y990
X10110Y740
X10110Y490
X10110Y240
X10335Y6325
X11000Y6900
X11026Y9920
X11450Y6900
X11774Y9920
X11900Y6900
X13150Y6900
X13600Y6900
X13670Y11330
X14180Y7290
T2
X1620Y3025
X3120Y900
X4620Y900
X6120Y900
X6895Y8195
X11400Y10690
T3
X10420Y12540
X10420Y7540
X12420Y12540
X12420Y7540
T4
X910Y12460
X910Y11460
X910Y10460
X910Y9460
X910Y8460
X910Y7460
T5
X4300Y12410
X4800Y1810
X5300Y12410
T0
M30
