M48
;DRILL file {KiCad 4.0.5} date 05/07/17 14:10:55
;FORMAT={2:4/ absolute / inch / suppress leading zeros}
FMAT,2
INCH,TZ
T1C0.010
T2C0.020
T3C0.030
T4C0.039
%
G90
G05
M72
T1
X600Y8720
X600Y6720
X600Y4720
X600Y2720
X1425Y14350
X2980Y5040
X4350Y5900
X4350Y5650
X4350Y5400
X4350Y5150
X4350Y4900
X4600Y5900
X4600Y5650
X4600Y5400
X4600Y5150
X4600Y4900
X4700Y6780
X4850Y5900
X4850Y5650
X4850Y5400
X4850Y5150
X4850Y4900
X5070Y3700
X5100Y5900
X5100Y5650
X5100Y5400
X5100Y5150
X5100Y4900
X5190Y3090
X5350Y5900
X5350Y5650
X5350Y5400
X5350Y5150
X5350Y4900
X5500Y7880
X5760Y3090
X5800Y3770
X5860Y6550
X6220Y6140
X6340Y5040
X6420Y2670
X6500Y4320
X6670Y2670
X6680Y9020
X6920Y3120
X6920Y2670
X7170Y2670
X7200Y3760
X7260Y4880
X7290Y7460
X7420Y3120
X7420Y2670
X7440Y8840
X7440Y8520
X7510Y4880
X7670Y2670
X7920Y3120
X7920Y2670
X8060Y5820
X8075Y8825
X8090Y4470
X8090Y3970
X8170Y2670
X8250Y6010
X8420Y2670
X8475Y8800
X8475Y6150
X8490Y4870
X8490Y4620
X8490Y4370
X8490Y4120
X8490Y3870
X8490Y3620
X8490Y3370
X8490Y3120
X8490Y2870
X8775Y6150
X8940Y4860
X9075Y6150
X9300Y8800
X9375Y8400
X9375Y7900
X9375Y6625
X9375Y6150
X9400Y4850
X9700Y6150
X9925Y8250
X9925Y7800
X9925Y7350
X9925Y6900
X9925Y6450
X10000Y6150
X10000Y4850
X10600Y6150
X10600Y4850
X11200Y6150
X11200Y4850
X11600Y6150
X11800Y4850
X12000Y4700
X12000Y4450
X12000Y4200
X12000Y3950
X12000Y3700
X12000Y3450
X12000Y3200
X12000Y2950
X12000Y2700
X12000Y2450
X12000Y2200
X12000Y1950
X12000Y1700
X12000Y1450
X12000Y1200
X12000Y950
X12000Y700
X12000Y450
X12000Y200
X12145Y6965
X12145Y6320
X12595Y6965
X13045Y6965
X13260Y13960
X13495Y6965
X13945Y6965
T2
X2145Y3755
X2145Y1785
X4115Y3755
X4115Y1785
T3
X2700Y8900
X2700Y7940
X2720Y9640
X2940Y10880
X4180Y9640
X6180Y9640
X8180Y9640
X10580Y9240
T4
X1680Y10880
X1680Y9880
X1680Y8880
X1680Y7880
X1680Y6880
X1680Y5880
T0
M30
